<?xml version="1.0" encoding="UTF-8" standalone="no"?>
<!DOCTYPE svg PUBLIC "-//W3C//DTD SVG 1.1//EN"
 "http://www.w3.org/Graphics/SVG/1.1/DTD/svg11.dtd">
<!-- Generated by graphviz version 9.0.0 (20230911.1827)
 -->
<!-- Title: include/kernel/arch/proc.h Pages: 1 -->
<svg width="140pt" height="149pt"
 viewBox="0.00 0.00 139.50 149.00" xmlns="http://www.w3.org/2000/svg" xmlns:xlink="http://www.w3.org/1999/xlink">
<g id="graph0" class="graph" transform="scale(1 1) rotate(0) translate(4 145)">
<title>include/kernel/arch/proc.h</title>
<!-- Node1 -->
<g id="Node000001" class="node">
<title>Node1</title>
<g id="a_Node000001"><a xlink:title=" ">
<polygon fill="#999999" stroke="#666666" points="118.25,-141 20.5,-141 20.5,-110.5 118.25,-110.5 118.25,-141"/>
<text text-anchor="start" x="28.5" y="-127.5" font-family="Helvetica,sans-Serif" font-size="10.00">include/kernel/arch</text>
<text text-anchor="middle" x="69.38" y="-116.25" font-family="Helvetica,sans-Serif" font-size="10.00">/proc.h</text>
</a>
</g>
</g>
<!-- Node2 -->
<g id="Node000002" class="node">
<title>Node2</title>
<g id="a_Node000002"><a xlink:href="include_2kernel_2proc_2task_8h.html" target="_top" xlink:title=" ">
<polygon fill="white" stroke="#666666" points="101.75,-74.5 37,-74.5 37,-55.25 101.75,-55.25 101.75,-74.5"/>
<text text-anchor="middle" x="69.38" y="-61" font-family="Helvetica,sans-Serif" font-size="10.00">proc/task.h</text>
</a>
</g>
</g>
<!-- Node1&#45;&gt;Node2 -->
<g id="edge1_Node000001_Node000002" class="edge">
<title>Node1&#45;&gt;Node2</title>
<g id="a_edge1_Node000001_Node000002"><a xlink:title=" ">
<path fill="none" stroke="#63b8ff" d="M69.38,-110.2C69.38,-102.96 69.38,-94.09 69.38,-86.19"/>
<polygon fill="#63b8ff" stroke="#63b8ff" points="72.88,-86.46 69.38,-76.46 65.88,-86.46 72.88,-86.46"/>
</a>
</g>
</g>
<!-- Node3 -->
<g id="Node000003" class="node">
<title>Node3</title>
<g id="a_Node000003"><a xlink:title=" ">
<polygon fill="#e0e0e0" stroke="#999999" points="64.75,-19.25 0,-19.25 0,0 64.75,0 64.75,-19.25"/>
<text text-anchor="middle" x="32.38" y="-5.75" font-family="Helvetica,sans-Serif" font-size="10.00">arch/task.h</text>
</a>
</g>
</g>
<!-- Node2&#45;&gt;Node3 -->
<g id="edge2_Node000002_Node000003" class="edge">
<title>Node2&#45;&gt;Node3</title>
<g id="a_edge2_Node000002_Node000003"><a xlink:title=" ">
<path fill="none" stroke="#63b8ff" d="M63.27,-55.08C58.31,-47.96 51.17,-37.68 45,-28.8"/>
<polygon fill="#63b8ff" stroke="#63b8ff" points="48.06,-27.07 39.48,-20.85 42.31,-31.06 48.06,-27.07"/>
</a>
</g>
</g>
<!-- Node4 -->
<g id="Node000004" class="node">
<title>Node4</title>
<g id="a_Node000004"><a xlink:title=" ">
<polygon fill="#e0e0e0" stroke="#999999" points="131.5,-19.25 83.25,-19.25 83.25,0 131.5,0 131.5,-19.25"/>
<text text-anchor="middle" x="107.38" y="-5.75" font-family="Helvetica,sans-Serif" font-size="10.00">stdint.h</text>
</a>
</g>
</g>
<!-- Node2&#45;&gt;Node4 -->
<g id="edge3_Node000002_Node000004" class="edge">
<title>Node2&#45;&gt;Node4</title>
<g id="a_edge3_Node000002_Node000004"><a xlink:title=" ">
<path fill="none" stroke="#63b8ff" d="M75.65,-55.08C80.73,-47.96 88.07,-37.68 94.41,-28.8"/>
<polygon fill="#63b8ff" stroke="#63b8ff" points="97.12,-31.01 100.08,-20.84 91.43,-26.95 97.12,-31.01"/>
</a>
</g>
</g>
</g>
</svg>
