<?xml version="1.0" encoding="UTF-8" standalone="no"?>
<!DOCTYPE svg PUBLIC "-//W3C//DTD SVG 1.1//EN"
 "http://www.w3.org/Graphics/SVG/1.1/DTD/svg11.dtd">
<!-- Generated by graphviz version 8.0.2 (20230410.1723)
 -->
<!-- Title: arp_wait_reply Pages: 1 -->
<svg width="215pt" height="45pt"
 viewBox="0.00 0.00 215.00 45.00" xmlns="http://www.w3.org/2000/svg" xmlns:xlink="http://www.w3.org/1999/xlink">
<g id="graph0" class="graph" transform="scale(1 1) rotate(0) translate(4 41)">
<title>arp_wait_reply</title>
<!-- Node1 -->
<g id="Node000001" class="node">
<title>Node1</title>
<g id="a_Node000001"><a xlink:title=" ">
<polygon fill="#999999" stroke="#666666" points="207,-19 127,-19 127,0 207,0 207,-19"/>
<text text-anchor="middle" x="167" y="-7" font-family="Helvetica,sans-Serif" font-size="10.00">arp_wait_reply</text>
</a>
</g>
</g>
<!-- Node1&#45;&gt;Node1 -->
<g id="edge1_Node000001_Node000001" class="edge">
<title>Node1&#45;&gt;Node1</title>
<g id="a_edge1_Node000001_Node000001"><a xlink:title=" ">
<path fill="none" stroke="#63b8ff" d="M188.98,-29.76C186.68,-33.97 179.35,-37 167,-37 145.64,-37 139.3,-27.94 147.98,-19.37"/>
<polygon fill="#63b8ff" stroke="#63b8ff" points="192.13,-29.03 186.02,-20.37 185.4,-30.94 192.13,-29.03"/>
</a>
</g>
</g>
<!-- Node2 -->
<g id="Node000002" class="node">
<title>Node2</title>
<g id="a_Node000002"><a xlink:href="net_2net_8c.html#a5da8d53d480b13e24e293e0ab90a0ac3" target="_top" xlink:title=" ">
<polygon fill="white" stroke="#666666" points="91,-19 0,-19 0,0 91,0 91,-19"/>
<text text-anchor="middle" x="45.5" y="-7" font-family="Helvetica,sans-Serif" font-size="10.00">net_interface_init</text>
</a>
</g>
</g>
<!-- Node1&#45;&gt;Node2 -->
<g id="edge2_Node000001_Node000002" class="edge">
<title>Node1&#45;&gt;Node2</title>
<g id="a_edge2_Node000001_Node000002"><a xlink:title=" ">
<path fill="none" stroke="#63b8ff" d="M115.7,-9.5C107.59,-9.5 99.25,-9.5 91.29,-9.5"/>
<polygon fill="#63b8ff" stroke="#63b8ff" points="115.54,-13 125.54,-9.5 115.54,-6 115.54,-13"/>
</a>
</g>
</g>
<!-- Node2&#45;&gt;Node2 -->
<g id="edge3_Node000002_Node000002" class="edge">
<title>Node2&#45;&gt;Node2</title>
<g id="a_edge3_Node000002_Node000002"><a xlink:title=" ">
<path fill="none" stroke="#63b8ff" d="M67.48,-29.76C65.18,-33.97 57.85,-37 45.5,-37 24.14,-37 17.8,-27.94 26.48,-19.37"/>
<polygon fill="#63b8ff" stroke="#63b8ff" points="70.63,-29.03 64.52,-20.37 63.9,-30.94 70.63,-29.03"/>
</a>
</g>
</g>
</g>
</svg>
