<?xml version="1.0" encoding="UTF-8" standalone="no"?>
<!DOCTYPE svg PUBLIC "-//W3C//DTD SVG 1.1//EN"
 "http://www.w3.org/Graphics/SVG/1.1/DTD/svg11.dtd">
<!-- Generated by graphviz version 8.0.2 (20230410.1723)
 -->
<!-- Title: arp_request Pages: 1 -->
<svg width="220pt" height="45pt"
 viewBox="0.00 0.00 220.00 45.00" xmlns="http://www.w3.org/2000/svg" xmlns:xlink="http://www.w3.org/1999/xlink">
<g id="graph0" class="graph" transform="scale(1 1) rotate(0) translate(4 41)">
<title>arp_request</title>
<!-- Node1 -->
<g id="Node000001" class="node">
<title>Node1</title>
<g id="a_Node000001"><a xlink:title=" ">
<polygon fill="#999999" stroke="#666666" points="68,-19 0,-19 0,0 68,0 68,-19"/>
<text text-anchor="middle" x="34" y="-7" font-family="Helvetica,sans-Serif" font-size="10.00">arp_request</text>
</a>
</g>
</g>
<!-- Node1&#45;&gt;Node1 -->
<g id="edge1_Node000001_Node000001" class="edge">
<title>Node1&#45;&gt;Node1</title>
<g id="a_edge1_Node000001_Node000001"><a xlink:title=" ">
<path fill="none" stroke="#63b8ff" d="M14.59,-19.37C5.73,-27.94 12.2,-37 34,-37 46.6,-37 54.08,-33.97 56.44,-29.76"/>
<polygon fill="#63b8ff" stroke="#63b8ff" points="59.57,-28.99 53.41,-20.37 52.85,-30.95 59.57,-28.99"/>
</a>
</g>
</g>
<!-- Node2 -->
<g id="Node000002" class="node">
<title>Node2</title>
<g id="a_Node000002"><a xlink:href="ethernet_8c.html#ae0adc121b615550b0366f4354a1936b4" target="_top" xlink:title=" ">
<polygon fill="white" stroke="#666666" points="212,-19 104,-19 104,0 212,0 212,-19"/>
<text text-anchor="middle" x="158" y="-7" font-family="Helvetica,sans-Serif" font-size="10.00">ethernet_send_frame</text>
</a>
</g>
</g>
<!-- Node1&#45;&gt;Node2 -->
<g id="edge2_Node000001_Node000002" class="edge">
<title>Node1&#45;&gt;Node2</title>
<g id="a_edge2_Node000001_Node000002"><a xlink:title=" ">
<path fill="none" stroke="#63b8ff" d="M68.34,-9.5C75.89,-9.5 84.16,-9.5 92.52,-9.5"/>
<polygon fill="#63b8ff" stroke="#63b8ff" points="92.51,-13 102.51,-9.5 92.51,-6 92.51,-13"/>
</a>
</g>
</g>
<!-- Node2&#45;&gt;Node2 -->
<g id="edge3_Node000002_Node000002" class="edge">
<title>Node2&#45;&gt;Node2</title>
<g id="a_edge3_Node000002_Node000002"><a xlink:title=" ">
<path fill="none" stroke="#63b8ff" d="M138.59,-19.37C129.73,-27.94 136.2,-37 158,-37 170.6,-37 178.08,-33.97 180.44,-29.76"/>
<polygon fill="#63b8ff" stroke="#63b8ff" points="183.57,-28.99 177.41,-20.37 176.85,-30.95 183.57,-28.99"/>
</a>
</g>
</g>
</g>
</svg>
