<?xml version="1.0" encoding="UTF-8" standalone="no"?>
<!DOCTYPE svg PUBLIC "-//W3C//DTD SVG 1.1//EN"
 "http://www.w3.org/Graphics/SVG/1.1/DTD/svg11.dtd">
<!-- Generated by graphviz version 8.0.2 (20230410.1723)
 -->
<!-- Title: arp_request Pages: 1 -->
<svg width="203pt" height="45pt"
 viewBox="0.00 0.00 203.00 45.00" xmlns="http://www.w3.org/2000/svg" xmlns:xlink="http://www.w3.org/1999/xlink">
<g id="graph0" class="graph" transform="scale(1 1) rotate(0) translate(4 41)">
<title>arp_request</title>
<!-- Node1 -->
<g id="Node000001" class="node">
<title>Node1</title>
<g id="a_Node000001"><a xlink:title=" ">
<polygon fill="#999999" stroke="#666666" points="195,-19 127,-19 127,0 195,0 195,-19"/>
<text text-anchor="middle" x="161" y="-7" font-family="Helvetica,sans-Serif" font-size="10.00">arp_request</text>
</a>
</g>
</g>
<!-- Node1&#45;&gt;Node1 -->
<g id="edge1_Node000001_Node000001" class="edge">
<title>Node1&#45;&gt;Node1</title>
<g id="a_edge1_Node000001_Node000001"><a xlink:title=" ">
<path fill="none" stroke="#63b8ff" d="M181.9,-29.76C179.7,-33.97 172.74,-37 161,-37 140.7,-37 134.67,-27.94 142.92,-19.37"/>
<polygon fill="#63b8ff" stroke="#63b8ff" points="185.08,-29.1 179.08,-20.37 178.32,-30.94 185.08,-29.1"/>
</a>
</g>
</g>
<!-- Node2 -->
<g id="Node000002" class="node">
<title>Node2</title>
<g id="a_Node000002"><a xlink:href="net_2net_8c.html#a5da8d53d480b13e24e293e0ab90a0ac3" target="_top" xlink:title=" ">
<polygon fill="white" stroke="#666666" points="91,-19 0,-19 0,0 91,0 91,-19"/>
<text text-anchor="middle" x="45.5" y="-7" font-family="Helvetica,sans-Serif" font-size="10.00">net_interface_init</text>
</a>
</g>
</g>
<!-- Node1&#45;&gt;Node2 -->
<g id="edge2_Node000001_Node000002" class="edge">
<title>Node1&#45;&gt;Node2</title>
<g id="a_edge2_Node000001_Node000002"><a xlink:title=" ">
<path fill="none" stroke="#63b8ff" d="M115.64,-9.5C107.71,-9.5 99.43,-9.5 91.48,-9.5"/>
<polygon fill="#63b8ff" stroke="#63b8ff" points="115.56,-13 125.56,-9.5 115.56,-6 115.56,-13"/>
</a>
</g>
</g>
<!-- Node2&#45;&gt;Node2 -->
<g id="edge3_Node000002_Node000002" class="edge">
<title>Node2&#45;&gt;Node2</title>
<g id="a_edge3_Node000002_Node000002"><a xlink:title=" ">
<path fill="none" stroke="#63b8ff" d="M66.4,-29.76C64.2,-33.97 57.24,-37 45.5,-37 25.2,-37 19.17,-27.94 27.42,-19.37"/>
<polygon fill="#63b8ff" stroke="#63b8ff" points="69.58,-29.1 63.58,-20.37 62.82,-30.94 69.58,-29.1"/>
</a>
</g>
</g>
</g>
</svg>
