<?xml version="1.0" encoding="UTF-8" standalone="no"?>
<!DOCTYPE svg PUBLIC "-//W3C//DTD SVG 1.1//EN"
 "http://www.w3.org/Graphics/SVG/1.1/DTD/svg11.dtd">
<!-- Generated by graphviz version 8.0.2 (20230410.1723)
 -->
<!-- Title: atag_get_cmdline Pages: 1 -->
<svg width="180pt" height="64pt"
 viewBox="0.00 0.00 180.00 64.00" xmlns="http://www.w3.org/2000/svg" xmlns:xlink="http://www.w3.org/1999/xlink">
<g id="graph0" class="graph" transform="scale(1 1) rotate(0) translate(4 60)">
<title>atag_get_cmdline</title>
<!-- Node1 -->
<g id="Node000001" class="node">
<title>Node1</title>
<g id="a_Node000001"><a xlink:title=" ">
<polygon fill="#999999" stroke="#666666" points="172,-37 79,-37 79,-18 172,-18 172,-37"/>
<text text-anchor="middle" x="125.5" y="-25" font-family="Helvetica,sans-Serif" font-size="10.00">atag_get_cmdline</text>
</a>
</g>
</g>
<!-- Node1&#45;&gt;Node1 -->
<g id="edge1_Node000001_Node000001" class="edge">
<title>Node1&#45;&gt;Node1</title>
<g id="a_edge1_Node000001_Node000001"><a xlink:title=" ">
<path fill="none" stroke="#63b8ff" d="M144.15,-48.1C142,-52.13 135.78,-55 125.5,-55 107.22,-55 101.79,-45.94 109.22,-37.37"/>
<polygon fill="#63b8ff" stroke="#63b8ff" points="147.35,-47.38 141.78,-38.37 140.52,-48.89 147.35,-47.38"/>
</a>
</g>
</g>
<!-- Node2 -->
<g id="Node000002" class="node">
<title>Node2</title>
<g id="a_Node000002"><a xlink:href="arch_2aarch32_2board_2raspi2_2kmain_8c.html#a798325fe646ee31fccf3f735f9bbaf60" target="_top" xlink:title=" ">
<polygon fill="white" stroke="#666666" points="43,-56 0,-56 0,-37 43,-37 43,-56"/>
<text text-anchor="middle" x="21.5" y="-44" font-family="Helvetica,sans-Serif" font-size="10.00">kmain</text>
</a>
</g>
</g>
<!-- Node1&#45;&gt;Node2 -->
<g id="edge2_Node000001_Node000002" class="edge">
<title>Node1&#45;&gt;Node2</title>
<g id="a_edge2_Node000001_Node000002"><a xlink:title=" ">
<path fill="none" stroke="#63b8ff" d="M67.9,-38.04C59.19,-39.67 50.7,-41.25 43.46,-42.6"/>
<polygon fill="#63b8ff" stroke="#63b8ff" points="68.38,-41.33 77.57,-36.06 67.1,-34.45 68.38,-41.33"/>
</a>
</g>
</g>
<!-- Node3 -->
<g id="Node000003" class="node">
<title>Node3</title>
<g id="a_Node000003"><a xlink:href="arch_2x86__64_2kmain_8c.html#ad6d3bd9ddd2519d6040e79426dc57fb5" target="_top" xlink:title=" ">
<polygon fill="white" stroke="#666666" points="43,-19 0,-19 0,0 43,0 43,-19"/>
<text text-anchor="middle" x="21.5" y="-7" font-family="Helvetica,sans-Serif" font-size="10.00">kmain</text>
</a>
</g>
</g>
<!-- Node1&#45;&gt;Node3 -->
<g id="edge3_Node000001_Node000003" class="edge">
<title>Node1&#45;&gt;Node3</title>
<g id="a_edge3_Node000001_Node000003"><a xlink:title=" ">
<path fill="none" stroke="#63b8ff" d="M67.9,-17.51C59.19,-15.97 50.7,-14.48 43.46,-13.2"/>
<polygon fill="#63b8ff" stroke="#63b8ff" points="67.12,-21.1 77.57,-19.4 68.33,-14.21 67.12,-21.1"/>
</a>
</g>
</g>
</g>
</svg>
