<?xml version="1.0" encoding="UTF-8" standalone="no"?>
<!DOCTYPE svg PUBLIC "-//W3C//DTD SVG 1.1//EN"
 "http://www.w3.org/Graphics/SVG/1.1/DTD/svg11.dtd">
<!-- Generated by graphviz version 8.0.2 (20230410.1723)
 -->
<!-- Title: atag_init Pages: 1 -->
<svg width="140pt" height="64pt"
 viewBox="0.00 0.00 140.00 64.00" xmlns="http://www.w3.org/2000/svg" xmlns:xlink="http://www.w3.org/1999/xlink">
<g id="graph0" class="graph" transform="scale(1 1) rotate(0) translate(4 60)">
<title>atag_init</title>
<!-- Node1 -->
<g id="Node000001" class="node">
<title>Node1</title>
<g id="a_Node000001"><a xlink:title=" ">
<polygon fill="#999999" stroke="#666666" points="132,-37 79,-37 79,-18 132,-18 132,-37"/>
<text text-anchor="middle" x="105.5" y="-25" font-family="Helvetica,sans-Serif" font-size="10.00">atag_init</text>
</a>
</g>
</g>
<!-- Node1&#45;&gt;Node1 -->
<g id="edge1_Node000001_Node000001" class="edge">
<title>Node1&#45;&gt;Node1</title>
<g id="a_edge1_Node000001_Node000001"><a xlink:title=" ">
<path fill="none" stroke="#63b8ff" d="M120.56,-48.1C118.83,-52.13 113.81,-55 105.5,-55 90.73,-55 86.35,-45.94 92.35,-37.37"/>
<polygon fill="#63b8ff" stroke="#63b8ff" points="123.85,-47.6 118.65,-38.37 116.96,-48.83 123.85,-47.6"/>
</a>
</g>
</g>
<!-- Node2 -->
<g id="Node000002" class="node">
<title>Node2</title>
<g id="a_Node000002"><a xlink:href="arch_2aarch32_2board_2raspi2_2kmain_8c.html#a798325fe646ee31fccf3f735f9bbaf60" target="_top" xlink:title=" ">
<polygon fill="white" stroke="#666666" points="43,-56 0,-56 0,-37 43,-37 43,-56"/>
<text text-anchor="middle" x="21.5" y="-44" font-family="Helvetica,sans-Serif" font-size="10.00">kmain</text>
</a>
</g>
</g>
<!-- Node1&#45;&gt;Node2 -->
<g id="edge2_Node000001_Node000002" class="edge">
<title>Node1&#45;&gt;Node2</title>
<g id="a_edge2_Node000001_Node000002"><a xlink:title=" ">
<path fill="none" stroke="#63b8ff" d="M68.08,-35.94C59.61,-37.9 50.88,-39.92 43.35,-41.67"/>
<polygon fill="#63b8ff" stroke="#63b8ff" points="68.6,-39.18 77.55,-33.51 67.02,-32.36 68.6,-39.18"/>
</a>
</g>
</g>
<!-- Node3 -->
<g id="Node000003" class="node">
<title>Node3</title>
<g id="a_Node000003"><a xlink:href="arch_2x86__64_2kmain_8c.html#ad6d3bd9ddd2519d6040e79426dc57fb5" target="_top" xlink:title=" ">
<polygon fill="white" stroke="#666666" points="43,-19 0,-19 0,0 43,0 43,-19"/>
<text text-anchor="middle" x="21.5" y="-7" font-family="Helvetica,sans-Serif" font-size="10.00">kmain</text>
</a>
</g>
</g>
<!-- Node1&#45;&gt;Node3 -->
<g id="edge3_Node000001_Node000003" class="edge">
<title>Node1&#45;&gt;Node3</title>
<g id="a_edge3_Node000001_Node000003"><a xlink:title=" ">
<path fill="none" stroke="#63b8ff" d="M68.08,-19.51C59.61,-17.65 50.88,-15.73 43.35,-14.08"/>
<polygon fill="#63b8ff" stroke="#63b8ff" points="67.04,-23.08 77.55,-21.8 68.54,-16.24 67.04,-23.08"/>
</a>
</g>
</g>
</g>
</svg>
