<?xml version="1.0" encoding="UTF-8" standalone="no"?>
<!DOCTYPE svg PUBLIC "-//W3C//DTD SVG 1.1//EN"
 "http://www.w3.org/Graphics/SVG/1.1/DTD/svg11.dtd">
<!-- Generated by graphviz version 8.0.2 (20230410.1723)
 -->
<!-- Title: bcm2835_timer_init Pages: 1 -->
<svg width="246pt" height="45pt"
 viewBox="0.00 0.00 246.00 45.00" xmlns="http://www.w3.org/2000/svg" xmlns:xlink="http://www.w3.org/1999/xlink">
<g id="graph0" class="graph" transform="scale(1 1) rotate(0) translate(4 41)">
<title>bcm2835_timer_init</title>
<!-- Node1 -->
<g id="Node000001" class="node">
<title>Node1</title>
<g id="a_Node000001"><a xlink:title=" ">
<polygon fill="#999999" stroke="#666666" points="101,-19 0,-19 0,0 101,0 101,-19"/>
<text text-anchor="middle" x="50.5" y="-7" font-family="Helvetica,sans-Serif" font-size="10.00">bcm2835_timer_init</text>
</a>
</g>
</g>
<!-- Node1&#45;&gt;Node1 -->
<g id="edge1_Node000001_Node000001" class="edge">
<title>Node1&#45;&gt;Node1</title>
<g id="a_edge1_Node000001_Node000001"><a xlink:title=" ">
<path fill="none" stroke="#63b8ff" d="M29.05,-19.37C19.27,-27.94 26.42,-37 50.5,-37 64.42,-37 72.69,-33.97 75.29,-29.76"/>
<polygon fill="#63b8ff" stroke="#63b8ff" points="78.34,-28.82 71.95,-20.37 71.68,-30.96 78.34,-28.82"/>
</a>
</g>
</g>
<!-- Node2 -->
<g id="Node000002" class="node">
<title>Node2</title>
<g id="a_Node000002"><a xlink:href="isr_8c.html#a919e035afe984042c7fb8672b16aaf1e" target="_top" xlink:title=" ">
<polygon fill="white" stroke="#666666" points="238,-19 137,-19 137,0 238,0 238,-19"/>
<text text-anchor="middle" x="187.5" y="-7" font-family="Helvetica,sans-Serif" font-size="10.00">isr_register_handler</text>
</a>
</g>
</g>
<!-- Node1&#45;&gt;Node2 -->
<g id="edge2_Node000001_Node000002" class="edge">
<title>Node1&#45;&gt;Node2</title>
<g id="a_edge2_Node000001_Node000002"><a xlink:title=" ">
<path fill="none" stroke="#63b8ff" d="M101.39,-9.5C109.43,-9.5 117.83,-9.5 126.09,-9.5"/>
<polygon fill="#63b8ff" stroke="#63b8ff" points="125.82,-13 135.82,-9.5 125.82,-6 125.82,-13"/>
</a>
</g>
</g>
<!-- Node2&#45;&gt;Node2 -->
<g id="edge3_Node000002_Node000002" class="edge">
<title>Node2&#45;&gt;Node2</title>
<g id="a_edge3_Node000002_Node000002"><a xlink:title=" ">
<path fill="none" stroke="#63b8ff" d="M166.05,-19.37C156.27,-27.94 163.42,-37 187.5,-37 201.42,-37 209.69,-33.97 212.29,-29.76"/>
<polygon fill="#63b8ff" stroke="#63b8ff" points="215.34,-28.82 208.95,-20.37 208.68,-30.96 215.34,-28.82"/>
</a>
</g>
</g>
</g>
</svg>
