<?xml version="1.0" encoding="UTF-8" standalone="no"?>
<!DOCTYPE svg PUBLIC "-//W3C//DTD SVG 1.1//EN"
 "http://www.w3.org/Graphics/SVG/1.1/DTD/svg11.dtd">
<!-- Generated by graphviz version 2.49.3 (20211023.0002)
 -->
<!-- Title: include/kernel/mmu/bitmap.h Pages: 1 -->
<svg width="132pt" height="95pt"
 viewBox="0.00 0.00 132.00 95.00" xmlns="http://www.w3.org/2000/svg" xmlns:xlink="http://www.w3.org/1999/xlink">
<g id="graph0" class="graph" transform="scale(1 1) rotate(0) translate(4 91)">
<title>include/kernel/mmu/bitmap.h</title>
<!-- Node1 -->
<g id="node1" class="node">
<title>Node1</title>
<g id="a_node1"><a xlink:title=" ">
<polygon fill="#bfbfbf" stroke="black" points="12,-56.5 12,-86.5 115,-86.5 115,-56.5 12,-56.5"/>
<text text-anchor="start" x="20" y="-74.5" font-family="Helvetica,sans-Serif" font-size="10.00">include/kernel/mmu</text>
<text text-anchor="middle" x="63.5" y="-63.5" font-family="Helvetica,sans-Serif" font-size="10.00">/bitmap.h</text>
</a>
</g>
</g>
<!-- Node2 -->
<g id="node2" class="node">
<title>Node2</title>
<g id="a_node2"><a xlink:title=" ">
<polygon fill="none" stroke="#bfbfbf" points="0,-0.5 0,-19.5 57,-19.5 57,-0.5 0,-0.5"/>
<text text-anchor="middle" x="28.5" y="-7.5" font-family="Helvetica,sans-Serif" font-size="10.00">stdbool.h</text>
</a>
</g>
</g>
<!-- Node1&#45;&gt;Node2 -->
<g id="edge1" class="edge">
<title>Node1&#45;&gt;Node2</title>
<path fill="none" stroke="midnightblue" d="M55.21,-56.4C50.28,-48.02 43.99,-37.33 38.75,-28.42"/>
<polygon fill="midnightblue" stroke="midnightblue" points="41.68,-26.5 33.59,-19.66 35.65,-30.05 41.68,-26.5"/>
</g>
<!-- Node3 -->
<g id="node3" class="node">
<title>Node3</title>
<g id="a_node3"><a xlink:title=" ">
<polygon fill="none" stroke="#bfbfbf" points="75,-0.5 75,-19.5 124,-19.5 124,-0.5 75,-0.5"/>
<text text-anchor="middle" x="99.5" y="-7.5" font-family="Helvetica,sans-Serif" font-size="10.00">stdint.h</text>
</a>
</g>
</g>
<!-- Node1&#45;&gt;Node3 -->
<g id="edge2" class="edge">
<title>Node1&#45;&gt;Node3</title>
<path fill="none" stroke="midnightblue" d="M72.03,-56.4C77.1,-48.02 83.57,-37.33 88.96,-28.42"/>
<polygon fill="midnightblue" stroke="midnightblue" points="92.08,-30.03 94.26,-19.66 86.09,-26.4 92.08,-30.03"/>
</g>
</g>
</svg>
