<?xml version="1.0" encoding="UTF-8" standalone="no"?>
<!DOCTYPE svg PUBLIC "-//W3C//DTD SVG 1.1//EN"
 "http://www.w3.org/Graphics/SVG/1.1/DTD/svg11.dtd">
<!-- Generated by graphviz version 8.0.2 (20230410.1723)
 -->
<!-- Title: bitmap_get Pages: 1 -->
<svg width="225pt" height="64pt"
 viewBox="0.00 0.00 225.00 64.00" xmlns="http://www.w3.org/2000/svg" xmlns:xlink="http://www.w3.org/1999/xlink">
<g id="graph0" class="graph" transform="scale(1 1) rotate(0) translate(4 60)">
<title>bitmap_get</title>
<!-- Node1 -->
<g id="Node000001" class="node">
<title>Node1</title>
<g id="a_Node000001"><a xlink:title=" ">
<polygon fill="#999999" stroke="#666666" points="217,-37 152,-37 152,-18 217,-18 217,-37"/>
<text text-anchor="middle" x="184.5" y="-25" font-family="Helvetica,sans-Serif" font-size="10.00">bitmap_get</text>
</a>
</g>
</g>
<!-- Node1&#45;&gt;Node1 -->
<g id="edge1_Node000001_Node000001" class="edge">
<title>Node1&#45;&gt;Node1</title>
<g id="a_edge1_Node000001_Node000001"><a xlink:title=" ">
<path fill="none" stroke="#63b8ff" d="M207.39,-47.76C204.99,-51.97 197.36,-55 184.5,-55 162.26,-55 155.66,-45.94 164.7,-37.37"/>
<polygon fill="#63b8ff" stroke="#63b8ff" points="210.51,-46.96 204.3,-38.37 203.8,-48.95 210.51,-46.96"/>
</a>
</g>
</g>
<!-- Node2 -->
<g id="Node000002" class="node">
<title>Node2</title>
<g id="a_Node000002"><a xlink:href="frame_8c.html#ae2a26cdfa5b475a46dc4e26a21025252" target="_top" xlink:title=" ">
<polygon fill="white" stroke="#666666" points="98,-56 18,-56 18,-37 98,-37 98,-56"/>
<text text-anchor="middle" x="58" y="-44" font-family="Helvetica,sans-Serif" font-size="10.00">frame_allocate</text>
</a>
</g>
</g>
<!-- Node1&#45;&gt;Node2 -->
<g id="edge2_Node000001_Node000002" class="edge">
<title>Node1&#45;&gt;Node2</title>
<g id="a_edge2_Node000001_Node000002"><a xlink:title=" ">
<path fill="none" stroke="#63b8ff" d="M141.02,-33.98C127.17,-36.1 111.86,-38.43 98.26,-40.51"/>
<polygon fill="#63b8ff" stroke="#63b8ff" points="141.4,-37.31 150.76,-32.34 140.35,-30.39 141.4,-37.31"/>
</a>
</g>
</g>
<!-- Node3 -->
<g id="Node000003" class="node">
<title>Node3</title>
<g id="a_Node000003"><a xlink:href="frame_8c.html#a5d09b4704202b05347bd92d99a5de64e" target="_top" xlink:title=" ">
<polygon fill="white" stroke="#666666" points="116,-19 0,-19 0,0 116,0 116,-19"/>
<text text-anchor="middle" x="58" y="-7" font-family="Helvetica,sans-Serif" font-size="10.00">frame_get_used_count</text>
</a>
</g>
</g>
<!-- Node1&#45;&gt;Node3 -->
<g id="edge3_Node000001_Node000003" class="edge">
<title>Node1&#45;&gt;Node3</title>
<g id="a_edge3_Node000001_Node000003"><a xlink:title=" ">
<path fill="none" stroke="#63b8ff" d="M140.94,-21.35C133.01,-20.2 124.62,-18.99 116.33,-17.79"/>
<polygon fill="#63b8ff" stroke="#63b8ff" points="140.36,-24.94 150.76,-22.91 141.37,-18.02 140.36,-24.94"/>
</a>
</g>
</g>
</g>
</svg>
