<?xml version="1.0" encoding="UTF-8" standalone="no"?>
<!DOCTYPE svg PUBLIC "-//W3C//DTD SVG 1.1//EN"
 "http://www.w3.org/Graphics/SVG/1.1/DTD/svg11.dtd">
<!-- Generated by graphviz version 2.49.3 (20211023.0002)
 -->
<!-- Title: clock_get_current_microseconds Pages: 1 -->
<svg width="864pt" height="39pt"
 viewBox="0.00 0.00 864.00 39.00" xmlns="http://www.w3.org/2000/svg" xmlns:xlink="http://www.w3.org/1999/xlink">
<g id="graph0" class="graph" transform="scale(1 1) rotate(0) translate(4 35)">
<title>clock_get_current_microseconds</title>
<!-- Node1 -->
<g id="node1" class="node">
<title>Node1</title>
<g id="a_node1"><a xlink:title=" ">
<polygon fill="#bfbfbf" stroke="black" points="0,-6 0,-25 163,-25 163,-6 0,-6"/>
<text text-anchor="middle" x="81.5" y="-13" font-family="Helvetica,sans-Serif" font-size="10.00">clock_get_current_microseconds</text>
</a>
</g>
</g>
<!-- Node2 -->
<g id="node2" class="node">
<title>Node2</title>
<g id="a_node2"><a xlink:href="kernel_2arch_2time_8h.html#ab4bc50190a5180744036f0962b00c364" target="_top" xlink:title=" ">
<polygon fill="none" stroke="black" points="199,-0.5 199,-30.5 319,-30.5 319,-0.5 199,-0.5"/>
<text text-anchor="start" x="207" y="-18.5" font-family="Helvetica,sans-Serif" font-size="10.00">arch_clock_get_current</text>
<text text-anchor="middle" x="259" y="-7.5" font-family="Helvetica,sans-Serif" font-size="10.00">_microseconds</text>
</a>
</g>
</g>
<!-- Node1&#45;&gt;Node2 -->
<g id="edge1" class="edge">
<title>Node1&#45;&gt;Node2</title>
<path fill="none" stroke="midnightblue" d="M163.06,-15.5C171.64,-15.5 180.32,-15.5 188.76,-15.5"/>
<polygon fill="midnightblue" stroke="midnightblue" points="188.91,-19 198.91,-15.5 188.91,-12 188.91,-19"/>
</g>
<!-- Node3 -->
<g id="node3" class="node">
<title>Node3</title>
<g id="a_node3"><a xlink:href="fake__clock_8h.html#ab4458e5c11135bbbaec3b6f2ee47e9d6" target="_top" xlink:title=" ">
<polygon fill="none" stroke="black" points="355,-0.5 355,-30.5 475,-30.5 475,-0.5 355,-0.5"/>
<text text-anchor="start" x="363" y="-18.5" font-family="Helvetica,sans-Serif" font-size="10.00">fake_clock_get_current</text>
<text text-anchor="middle" x="415" y="-7.5" font-family="Helvetica,sans-Serif" font-size="10.00">_microseconds</text>
</a>
</g>
</g>
<!-- Node2&#45;&gt;Node3 -->
<g id="edge2" class="edge">
<title>Node2&#45;&gt;Node3</title>
<path fill="none" stroke="midnightblue" d="M319.1,-15.5C327.42,-15.5 336.04,-15.5 344.53,-15.5"/>
<polygon fill="midnightblue" stroke="midnightblue" points="344.8,-19 354.8,-15.5 344.8,-12 344.8,-19"/>
</g>
<!-- Node4 -->
<g id="node4" class="node">
<title>Node4</title>
<g id="a_node4"><a xlink:href="timer_8h.html#a9e237401e78bbceb0c0070ef2ecb4569" target="_top" xlink:title=" ">
<polygon fill="none" stroke="black" points="511,-6 511,-25 653,-25 653,-6 511,-6"/>
<text text-anchor="middle" x="582" y="-13" font-family="Helvetica,sans-Serif" font-size="10.00">timer_uptime_microseconds</text>
</a>
</g>
</g>
<!-- Node3&#45;&gt;Node4 -->
<g id="edge3" class="edge">
<title>Node3&#45;&gt;Node4</title>
<path fill="none" stroke="midnightblue" d="M475.1,-15.5C483.41,-15.5 492.06,-15.5 500.68,-15.5"/>
<polygon fill="midnightblue" stroke="midnightblue" points="500.77,-19 510.77,-15.5 500.77,-12 500.77,-19"/>
</g>
<!-- Node5 -->
<g id="node5" class="node">
<title>Node5</title>
<g id="a_node5"><a xlink:href="kernel_2arch_2time_8h.html#af8e08f88e4ec6768891cfce52318c3d3" target="_top" xlink:title=" ">
<polygon fill="none" stroke="black" points="689,-6 689,-25 856,-25 856,-6 689,-6"/>
<text text-anchor="middle" x="772.5" y="-13" font-family="Helvetica,sans-Serif" font-size="10.00">arch_timer_uptime_microseconds</text>
</a>
</g>
</g>
<!-- Node4&#45;&gt;Node5 -->
<g id="edge4" class="edge">
<title>Node4&#45;&gt;Node5</title>
<path fill="none" stroke="midnightblue" d="M653.19,-15.5C661.54,-15.5 670.16,-15.5 678.77,-15.5"/>
<polygon fill="midnightblue" stroke="midnightblue" points="678.84,-19 688.84,-15.5 678.84,-12 678.84,-19"/>
</g>
</g>
</svg>
