<?xml version="1.0" encoding="UTF-8" standalone="no"?>
<!DOCTYPE svg PUBLIC "-//W3C//DTD SVG 1.1//EN"
 "http://www.w3.org/Graphics/SVG/1.1/DTD/svg11.dtd">
<!-- Generated by graphviz version 8.0.2 (20230410.1723)
 -->
<!-- Title: clock_get_current_microseconds Pages: 1 -->
<svg width="1004pt" height="56pt"
 viewBox="0.00 0.00 1004.00 56.00" xmlns="http://www.w3.org/2000/svg" xmlns:xlink="http://www.w3.org/1999/xlink">
<g id="graph0" class="graph" transform="scale(1 1) rotate(0) translate(4 52)">
<title>clock_get_current_microseconds</title>
<!-- Node1 -->
<g id="Node000001" class="node">
<title>Node1</title>
<g id="a_Node000001"><a xlink:title=" ">
<polygon fill="#999999" stroke="#666666" points="160,-24.5 0,-24.5 0,-5.5 160,-5.5 160,-24.5"/>
<text text-anchor="middle" x="80" y="-12.5" font-family="Helvetica,sans-Serif" font-size="10.00">clock_get_current_microseconds</text>
</a>
</g>
</g>
<!-- Node1&#45;&gt;Node1 -->
<g id="edge11_Node000001_Node000001" class="edge">
<title>Node1&#45;&gt;Node1</title>
<g id="a_edge11_Node000001_Node000001"><a xlink:title=" ">
<path fill="none" stroke="#63b8ff" d="M52.6,-24.87C40.11,-33.44 49.24,-42.5 80,-42.5 98.75,-42.5 109.46,-39.13 112.14,-34.57"/>
<polygon fill="#63b8ff" stroke="#63b8ff" points="114.94,-33.31 107.4,-25.87 108.65,-36.39 114.94,-33.31"/>
</a>
</g>
</g>
<!-- Node2 -->
<g id="Node000002" class="node">
<title>Node2</title>
<g id="a_Node000002"><a xlink:href="kernel_2arch_2x86__64_2arch_2time_8c.html#ab4bc50190a5180744036f0962b00c364" target="_top" xlink:title=" ">
<polygon fill="white" stroke="#666666" points="314,-30 196,-30 196,0 314,0 314,-30"/>
<text text-anchor="start" x="204" y="-18" font-family="Helvetica,sans-Serif" font-size="10.00">arch_clock_get_current</text>
<text text-anchor="middle" x="255" y="-7" font-family="Helvetica,sans-Serif" font-size="10.00">_microseconds</text>
</a>
</g>
</g>
<!-- Node1&#45;&gt;Node2 -->
<g id="edge1_Node000001_Node000002" class="edge">
<title>Node1&#45;&gt;Node2</title>
<g id="a_edge1_Node000001_Node000002"><a xlink:title=" ">
<path fill="none" stroke="#63b8ff" d="M160.41,-15C168.59,-15 176.86,-15 184.92,-15"/>
<polygon fill="#63b8ff" stroke="#63b8ff" points="184.75,-18.5 194.75,-15 184.75,-11.5 184.75,-18.5"/>
</a>
</g>
</g>
<!-- Node2&#45;&gt;Node2 -->
<g id="edge2_Node000002_Node000002" class="edge">
<title>Node2&#45;&gt;Node2</title>
<g id="a_edge2_Node000002_Node000002"><a xlink:title=" ">
<path fill="none" stroke="#63b8ff" d="M227.93,-30.28C221.91,-39.41 230.94,-48 255,-48 268.91,-48 277.8,-45.13 281.65,-40.94"/>
<polygon fill="#63b8ff" stroke="#63b8ff" points="285.18,-41.4 282.07,-31.28 278.18,-41.13 285.18,-41.4"/>
</a>
</g>
</g>
<!-- Node3 -->
<g id="Node000003" class="node">
<title>Node3</title>
<g id="a_Node000003"><a xlink:href="fake__clock_8c.html#ab4458e5c11135bbbaec3b6f2ee47e9d6" target="_top" xlink:title=" ">
<polygon fill="white" stroke="#666666" points="468,-30 350,-30 350,0 468,0 468,-30"/>
<text text-anchor="start" x="358" y="-18" font-family="Helvetica,sans-Serif" font-size="10.00">fake_clock_get_current</text>
<text text-anchor="middle" x="409" y="-7" font-family="Helvetica,sans-Serif" font-size="10.00">_microseconds</text>
</a>
</g>
</g>
<!-- Node2&#45;&gt;Node3 -->
<g id="edge3_Node000002_Node000003" class="edge">
<title>Node2&#45;&gt;Node3</title>
<g id="a_edge3_Node000002_Node000003"><a xlink:title=" ">
<path fill="none" stroke="#63b8ff" d="M314.33,-15C322.28,-15 330.49,-15 338.61,-15"/>
<polygon fill="#63b8ff" stroke="#63b8ff" points="338.57,-18.5 348.57,-15 338.57,-11.5 338.57,-18.5"/>
</a>
</g>
</g>
<!-- Node3&#45;&gt;Node3 -->
<g id="edge4_Node000003_Node000003" class="edge">
<title>Node3&#45;&gt;Node3</title>
<g id="a_edge4_Node000003_Node000003"><a xlink:title=" ">
<path fill="none" stroke="#63b8ff" d="M381.93,-30.28C375.91,-39.41 384.94,-48 409,-48 422.91,-48 431.8,-45.13 435.65,-40.94"/>
<polygon fill="#63b8ff" stroke="#63b8ff" points="439.18,-41.4 436.07,-31.28 432.18,-41.13 439.18,-41.4"/>
</a>
</g>
</g>
<!-- Node4 -->
<g id="Node000004" class="node">
<title>Node4</title>
<g id="a_Node000004"><a xlink:href="timer_8c.html#a9e237401e78bbceb0c0070ef2ecb4569" target="_top" xlink:title=" ">
<polygon fill="white" stroke="#666666" points="643,-24.5 504,-24.5 504,-5.5 643,-5.5 643,-24.5"/>
<text text-anchor="middle" x="573.5" y="-12.5" font-family="Helvetica,sans-Serif" font-size="10.00">timer_uptime_microseconds</text>
</a>
</g>
</g>
<!-- Node3&#45;&gt;Node4 -->
<g id="edge5_Node000003_Node000004" class="edge">
<title>Node3&#45;&gt;Node4</title>
<g id="a_edge5_Node000003_Node000004"><a xlink:title=" ">
<path fill="none" stroke="#63b8ff" d="M468.21,-15C476.19,-15 484.49,-15 492.77,-15"/>
<polygon fill="#63b8ff" stroke="#63b8ff" points="492.61,-18.5 502.61,-15 492.61,-11.5 492.61,-18.5"/>
</a>
</g>
</g>
<!-- Node4&#45;&gt;Node4 -->
<g id="edge10_Node000004_Node000004" class="edge">
<title>Node4&#45;&gt;Node4</title>
<g id="a_edge10_Node000004_Node000004"><a xlink:title=" ">
<path fill="none" stroke="#63b8ff" d="M547.75,-24.87C536,-33.44 544.58,-42.5 573.5,-42.5 590.67,-42.5 600.67,-39.3 603.5,-34.92"/>
<polygon fill="#63b8ff" stroke="#63b8ff" points="606.37,-33.71 599.25,-25.87 599.93,-36.44 606.37,-33.71"/>
</a>
</g>
</g>
<!-- Node5 -->
<g id="Node000005" class="node">
<title>Node5</title>
<g id="a_Node000005"><a xlink:href="kernel_2arch_2x86__64_2arch_2time_8c.html#af8e08f88e4ec6768891cfce52318c3d3" target="_top" xlink:title=" ">
<polygon fill="white" stroke="#666666" points="842,-24.5 679,-24.5 679,-5.5 842,-5.5 842,-24.5"/>
<text text-anchor="middle" x="760.5" y="-12.5" font-family="Helvetica,sans-Serif" font-size="10.00">arch_timer_uptime_microseconds</text>
</a>
</g>
</g>
<!-- Node4&#45;&gt;Node5 -->
<g id="edge6_Node000004_Node000005" class="edge">
<title>Node4&#45;&gt;Node5</title>
<g id="a_edge6_Node000004_Node000005"><a xlink:title=" ">
<path fill="none" stroke="#63b8ff" d="M643.39,-15C651.39,-15 659.64,-15 667.88,-15"/>
<polygon fill="#63b8ff" stroke="#63b8ff" points="667.69,-18.5 677.69,-15 667.69,-11.5 667.69,-18.5"/>
</a>
</g>
</g>
<!-- Node5&#45;&gt;Node5 -->
<g id="edge7_Node000005_Node000005" class="edge">
<title>Node5&#45;&gt;Node5</title>
<g id="a_edge7_Node000005_Node000005"><a xlink:title=" ">
<path fill="none" stroke="#63b8ff" d="M732.87,-24.87C720.26,-33.44 729.47,-42.5 760.5,-42.5 779.41,-42.5 790.21,-39.13 792.92,-34.57"/>
<polygon fill="#63b8ff" stroke="#63b8ff" points="795.7,-33.29 788.13,-25.87 789.42,-36.38 795.7,-33.29"/>
</a>
</g>
</g>
<!-- Node6 -->
<g id="Node000006" class="node">
<title>Node6</title>
<g id="a_Node000006"><a xlink:href="bcm2835__timer_8c.html#aa5e375169036beb10f6778afb7eddecd" target="_top" xlink:title=" ">
<polygon fill="white" stroke="#666666" points="996,-30 878,-30 878,0 996,0 996,-30"/>
<text text-anchor="start" x="886" y="-18" font-family="Helvetica,sans-Serif" font-size="10.00">bcm2835_timer_uptime</text>
<text text-anchor="middle" x="937" y="-7" font-family="Helvetica,sans-Serif" font-size="10.00">_microseconds</text>
</a>
</g>
</g>
<!-- Node5&#45;&gt;Node6 -->
<g id="edge8_Node000005_Node000006" class="edge">
<title>Node5&#45;&gt;Node6</title>
<g id="a_edge8_Node000005_Node000006"><a xlink:title=" ">
<path fill="none" stroke="#63b8ff" d="M842.36,-15C850.52,-15 858.74,-15 866.76,-15"/>
<polygon fill="#63b8ff" stroke="#63b8ff" points="866.53,-18.5 876.53,-15 866.53,-11.5 866.53,-18.5"/>
</a>
</g>
</g>
<!-- Node6&#45;&gt;Node6 -->
<g id="edge9_Node000006_Node000006" class="edge">
<title>Node6&#45;&gt;Node6</title>
<g id="a_edge9_Node000006_Node000006"><a xlink:title=" ">
<path fill="none" stroke="#63b8ff" d="M905.97,-30.28C899.08,-39.41 909.42,-48 937,-48 952.94,-48 963.13,-45.13 967.55,-40.94"/>
<polygon fill="#63b8ff" stroke="#63b8ff" points="971.07,-41.42 968.03,-31.28 964.08,-41.11 971.07,-41.42"/>
</a>
</g>
</g>
</g>
</svg>
