<?xml version="1.0" encoding="UTF-8" standalone="no"?>
<!DOCTYPE svg PUBLIC "-//W3C//DTD SVG 1.1//EN"
 "http://www.w3.org/Graphics/SVG/1.1/DTD/svg11.dtd">
<!-- Generated by graphviz version 8.0.2 (20230410.1723)
 -->
<!-- Title: clock_init Pages: 1 -->
<svg width="302pt" height="45pt"
 viewBox="0.00 0.00 302.00 45.00" xmlns="http://www.w3.org/2000/svg" xmlns:xlink="http://www.w3.org/1999/xlink">
<g id="graph0" class="graph" transform="scale(1 1) rotate(0) translate(4 41)">
<title>clock_init</title>
<!-- Node1 -->
<g id="Node000001" class="node">
<title>Node1</title>
<g id="a_Node000001"><a xlink:title=" ">
<polygon fill="#999999" stroke="#666666" points="58,-19 0,-19 0,0 58,0 58,-19"/>
<text text-anchor="middle" x="29" y="-7" font-family="Helvetica,sans-Serif" font-size="10.00">clock_init</text>
</a>
</g>
</g>
<!-- Node1&#45;&gt;Node1 -->
<g id="edge5_Node000001_Node000001" class="edge">
<title>Node1&#45;&gt;Node1</title>
<g id="a_edge5_Node000001_Node000001"><a xlink:title=" ">
<path fill="none" stroke="#63b8ff" d="M12.41,-19.37C4.84,-27.94 10.37,-37 29,-37 39.48,-37 45.82,-34.13 48.01,-30.1"/>
<polygon fill="#63b8ff" stroke="#63b8ff" points="51.2,-29.36 45.59,-20.37 44.37,-30.89 51.2,-29.36"/>
</a>
</g>
</g>
<!-- Node2 -->
<g id="Node000002" class="node">
<title>Node2</title>
<g id="a_Node000002"><a xlink:href="kernel_2arch_2x86__64_2arch_2time_8c.html#a6a77f2fd7f917b183c433543789a542b" target="_top" xlink:title=" ">
<polygon fill="white" stroke="#666666" points="176,-19 94,-19 94,0 176,0 176,-19"/>
<text text-anchor="middle" x="135" y="-7" font-family="Helvetica,sans-Serif" font-size="10.00">arch_clock_init</text>
</a>
</g>
</g>
<!-- Node1&#45;&gt;Node2 -->
<g id="edge1_Node000001_Node000002" class="edge">
<title>Node1&#45;&gt;Node2</title>
<g id="a_edge1_Node000001_Node000002"><a xlink:title=" ">
<path fill="none" stroke="#63b8ff" d="M58.42,-9.5C65.95,-9.5 74.31,-9.5 82.65,-9.5"/>
<polygon fill="#63b8ff" stroke="#63b8ff" points="82.53,-13 92.53,-9.5 82.53,-6 82.53,-13"/>
</a>
</g>
</g>
<!-- Node2&#45;&gt;Node2 -->
<g id="edge2_Node000002_Node000002" class="edge">
<title>Node2&#45;&gt;Node2</title>
<g id="a_edge2_Node000002_Node000002"><a xlink:title=" ">
<path fill="none" stroke="#63b8ff" d="M118.41,-19.37C110.84,-27.94 116.37,-37 135,-37 145.48,-37 151.82,-34.13 154.01,-30.1"/>
<polygon fill="#63b8ff" stroke="#63b8ff" points="157.2,-29.36 151.59,-20.37 150.37,-30.89 157.2,-29.36"/>
</a>
</g>
</g>
<!-- Node3 -->
<g id="Node000003" class="node">
<title>Node3</title>
<g id="a_Node000003"><a xlink:href="fake__clock_8c.html#ae57838590d8d0853b8a6036fbdd0b0d0" target="_top" xlink:title=" ">
<polygon fill="white" stroke="#666666" points="294,-19 212,-19 212,0 294,0 294,-19"/>
<text text-anchor="middle" x="253" y="-7" font-family="Helvetica,sans-Serif" font-size="10.00">fake_clock_init</text>
</a>
</g>
</g>
<!-- Node2&#45;&gt;Node3 -->
<g id="edge3_Node000002_Node000003" class="edge">
<title>Node2&#45;&gt;Node3</title>
<g id="a_edge3_Node000002_Node000003"><a xlink:title=" ">
<path fill="none" stroke="#63b8ff" d="M176.25,-9.5C184.25,-9.5 192.76,-9.5 201.07,-9.5"/>
<polygon fill="#63b8ff" stroke="#63b8ff" points="200.83,-13 210.83,-9.5 200.83,-6 200.83,-13"/>
</a>
</g>
</g>
<!-- Node3&#45;&gt;Node3 -->
<g id="edge4_Node000003_Node000003" class="edge">
<title>Node3&#45;&gt;Node3</title>
<g id="a_edge4_Node000003_Node000003"><a xlink:title=" ">
<path fill="none" stroke="#63b8ff" d="M234.53,-19.37C226.1,-27.94 232.26,-37 253,-37 264.99,-37 272.11,-33.97 274.35,-29.76"/>
<polygon fill="#63b8ff" stroke="#63b8ff" points="277.52,-29.07 271.47,-20.37 270.77,-30.94 277.52,-29.07"/>
</a>
</g>
</g>
</g>
</svg>
