<?xml version="1.0" encoding="UTF-8" standalone="no"?>
<!DOCTYPE svg PUBLIC "-//W3C//DTD SVG 1.1//EN"
 "http://www.w3.org/Graphics/SVG/1.1/DTD/svg11.dtd">
<!-- Generated by graphviz version 8.0.2 (20230410.1723)
 -->
<!-- Title: clock_get_current_microseconds Pages: 1 -->
<svg width="1004pt" height="39pt"
 viewBox="0.00 0.00 1004.00 39.00" xmlns="http://www.w3.org/2000/svg" xmlns:xlink="http://www.w3.org/1999/xlink">
<g id="graph0" class="graph" transform="scale(1 1) rotate(0) translate(4 35)">
<title>clock_get_current_microseconds</title>
<!-- Node1 -->
<g id="node1" class="node">
<title>Node1</title>
<g id="a_node1"><a xlink:title=" ">
<polygon fill="#bfbfbf" stroke="black" points="0,-6 0,-25 160,-25 160,-6 0,-6"/>
<text text-anchor="middle" x="80" y="-13" font-family="Helvetica,sans-Serif" font-size="10.00">clock_get_current_microseconds</text>
</a>
</g>
</g>
<!-- Node2 -->
<g id="node2" class="node">
<title>Node2</title>
<g id="a_node2"><a xlink:href="kernel_2arch_2x86__64_2arch_2time_8c.html#ab4bc50190a5180744036f0962b00c364" target="_top" xlink:title=" ">
<polygon fill="none" stroke="black" points="196,-0.5 196,-30.5 314,-30.5 314,-0.5 196,-0.5"/>
<text text-anchor="start" x="204" y="-18.5" font-family="Helvetica,sans-Serif" font-size="10.00">arch_clock_get_current</text>
<text text-anchor="middle" x="255" y="-7.5" font-family="Helvetica,sans-Serif" font-size="10.00">_microseconds</text>
</a>
</g>
</g>
<!-- Node1&#45;&gt;Node2 -->
<g id="edge1" class="edge">
<title>Node1&#45;&gt;Node2</title>
<path fill="none" stroke="midnightblue" d="M159.91,-15.5C168.4,-15.5 176.98,-15.5 185.34,-15.5"/>
<polygon fill="midnightblue" stroke="midnightblue" points="185.16,-19 195.16,-15.5 185.16,-12 185.16,-19"/>
</g>
<!-- Node3 -->
<g id="node3" class="node">
<title>Node3</title>
<g id="a_node3"><a xlink:href="fake__clock_8c.html#ab4458e5c11135bbbaec3b6f2ee47e9d6" target="_top" xlink:title=" ">
<polygon fill="none" stroke="black" points="350,-0.5 350,-30.5 468,-30.5 468,-0.5 350,-0.5"/>
<text text-anchor="start" x="358" y="-18.5" font-family="Helvetica,sans-Serif" font-size="10.00">fake_clock_get_current</text>
<text text-anchor="middle" x="409" y="-7.5" font-family="Helvetica,sans-Serif" font-size="10.00">_microseconds</text>
</a>
</g>
</g>
<!-- Node2&#45;&gt;Node3 -->
<g id="edge2" class="edge">
<title>Node2&#45;&gt;Node3</title>
<path fill="none" stroke="midnightblue" d="M313.9,-15.5C322.12,-15.5 330.65,-15.5 339.06,-15.5"/>
<polygon fill="midnightblue" stroke="midnightblue" points="339.01,-19 349.01,-15.5 339.01,-12 339.01,-19"/>
</g>
<!-- Node4 -->
<g id="node4" class="node">
<title>Node4</title>
<g id="a_node4"><a xlink:href="timer_8c.html#a9e237401e78bbceb0c0070ef2ecb4569" target="_top" xlink:title=" ">
<polygon fill="none" stroke="black" points="504,-6 504,-25 643,-25 643,-6 504,-6"/>
<text text-anchor="middle" x="573.5" y="-13" font-family="Helvetica,sans-Serif" font-size="10.00">timer_uptime_microseconds</text>
</a>
</g>
</g>
<!-- Node3&#45;&gt;Node4 -->
<g id="edge3" class="edge">
<title>Node3&#45;&gt;Node4</title>
<path fill="none" stroke="midnightblue" d="M467.75,-15.5C476.02,-15.5 484.65,-15.5 493.25,-15.5"/>
<polygon fill="midnightblue" stroke="midnightblue" points="493.1,-19 503.1,-15.5 493.1,-12 493.1,-19"/>
</g>
<!-- Node5 -->
<g id="node5" class="node">
<title>Node5</title>
<g id="a_node5"><a xlink:href="kernel_2arch_2x86__64_2arch_2time_8c.html#af8e08f88e4ec6768891cfce52318c3d3" target="_top" xlink:title=" ">
<polygon fill="none" stroke="black" points="679,-6 679,-25 842,-25 842,-6 679,-6"/>
<text text-anchor="middle" x="760.5" y="-13" font-family="Helvetica,sans-Serif" font-size="10.00">arch_timer_uptime_microseconds</text>
</a>
</g>
</g>
<!-- Node4&#45;&gt;Node5 -->
<g id="edge4" class="edge">
<title>Node4&#45;&gt;Node5</title>
<path fill="none" stroke="midnightblue" d="M642.86,-15.5C651.18,-15.5 659.79,-15.5 668.37,-15.5"/>
<polygon fill="midnightblue" stroke="midnightblue" points="668.22,-19 678.22,-15.5 668.22,-12 668.22,-19"/>
</g>
<!-- Node6 -->
<g id="node6" class="node">
<title>Node6</title>
<g id="a_node6"><a xlink:href="bcm2835__timer_8c.html#aa5e375169036beb10f6778afb7eddecd" target="_top" xlink:title=" ">
<polygon fill="none" stroke="black" points="878,-0.5 878,-30.5 996,-30.5 996,-0.5 878,-0.5"/>
<text text-anchor="start" x="886" y="-18.5" font-family="Helvetica,sans-Serif" font-size="10.00">bcm2835_timer_uptime</text>
<text text-anchor="middle" x="937" y="-7.5" font-family="Helvetica,sans-Serif" font-size="10.00">_microseconds</text>
</a>
</g>
</g>
<!-- Node5&#45;&gt;Node6 -->
<g id="edge5" class="edge">
<title>Node5&#45;&gt;Node6</title>
<path fill="none" stroke="midnightblue" d="M841.85,-15.5C850.38,-15.5 858.98,-15.5 867.35,-15.5"/>
<polygon fill="midnightblue" stroke="midnightblue" points="867.19,-19 877.19,-15.5 867.19,-12 867.19,-19"/>
</g>
</g>
</svg>
