<?xml version="1.0" encoding="UTF-8" standalone="no"?>
<!DOCTYPE svg PUBLIC "-//W3C//DTD SVG 1.1//EN"
 "http://www.w3.org/Graphics/SVG/1.1/DTD/svg11.dtd">
<!-- Generated by graphviz version 2.50.0 (20211204.2007)
 -->
<!-- Title: console_mode_is_vbe Pages: 1 -->
<svg width="255pt" height="66pt"
 viewBox="0.00 0.00 255.00 66.00" xmlns="http://www.w3.org/2000/svg" xmlns:xlink="http://www.w3.org/1999/xlink">
<g id="graph0" class="graph" transform="scale(1 1) rotate(0) translate(4 62)">
<title>console_mode_is_vbe</title>
<!-- Node1 -->
<g id="node1" class="node">
<title>Node1</title>
<g id="a_node1"><a xlink:title=" ">
<polygon fill="#bfbfbf" stroke="black" points="134,-19.5 134,-38.5 247,-38.5 247,-19.5 134,-19.5"/>
<text text-anchor="middle" x="190.5" y="-26.5" font-family="Helvetica,sans-Serif" font-size="10.00">console_mode_is_vbe</text>
</a>
</g>
</g>
<!-- Node2 -->
<g id="node2" class="node">
<title>Node2</title>
<g id="a_node2"><a xlink:href="console_8c.html#a14c7a4113d75bf35aedade2e82565c9f" target="_top" xlink:title=" ">
<polygon fill="none" stroke="black" points="0,-38.5 0,-57.5 98,-57.5 98,-38.5 0,-38.5"/>
<text text-anchor="middle" x="49" y="-45.5" font-family="Helvetica,sans-Serif" font-size="10.00">console_fullscreen</text>
</a>
</g>
</g>
<!-- Node1&#45;&gt;Node2 -->
<g id="edge1" class="edge">
<title>Node1&#45;&gt;Node2</title>
<path fill="none" stroke="midnightblue" d="M123.86,-37.94C115.19,-39.12 106.44,-40.31 98.14,-41.44"/>
<polygon fill="midnightblue" stroke="midnightblue" points="124.53,-41.38 133.97,-36.56 123.58,-34.45 124.53,-41.38"/>
</g>
<!-- Node3 -->
<g id="node3" class="node">
<title>Node3</title>
<g id="a_node3"><a xlink:href="console_8c.html#a7f1237f8348103b7fee42f35e0b34e49" target="_top" xlink:title=" ">
<polygon fill="none" stroke="black" points="15,-0.5 15,-19.5 83,-19.5 83,-0.5 15,-0.5"/>
<text text-anchor="middle" x="49" y="-7.5" font-family="Helvetica,sans-Serif" font-size="10.00">console_init</text>
</a>
</g>
</g>
<!-- Node1&#45;&gt;Node3 -->
<g id="edge2" class="edge">
<title>Node1&#45;&gt;Node3</title>
<path fill="none" stroke="midnightblue" d="M123.8,-20.05C109.74,-18.14 95.46,-16.19 83.25,-14.53"/>
<polygon fill="midnightblue" stroke="midnightblue" points="123.58,-23.55 133.97,-21.44 124.53,-16.62 123.58,-23.55"/>
</g>
</g>
</svg>
