<?xml version="1.0" encoding="UTF-8" standalone="no"?>
<!DOCTYPE svg PUBLIC "-//W3C//DTD SVG 1.1//EN"
 "http://www.w3.org/Graphics/SVG/1.1/DTD/svg11.dtd">
<!-- Generated by graphviz version 8.0.2 (20230410.1723)
 -->
<!-- Title: src/kernel/arch/x86_64/console/console.h Pages: 1 -->
<svg width="306pt" height="151pt"
 viewBox="0.00 0.00 305.50 151.00" xmlns="http://www.w3.org/2000/svg" xmlns:xlink="http://www.w3.org/1999/xlink">
<g id="graph0" class="graph" transform="scale(1 1) rotate(0) translate(4 147)">
<title>src/kernel/arch/x86_64/console/console.h</title>
<!-- Node1 -->
<g id="node1" class="node">
<title>Node1</title>
<g id="a_node1"><a xlink:title=" ">
<polygon fill="#bfbfbf" stroke="black" points="85,-112.5 85,-142.5 199,-142.5 199,-112.5 85,-112.5"/>
<text text-anchor="start" x="93" y="-130.5" font-family="Helvetica,sans-Serif" font-size="10.00">src/kernel/arch/x86</text>
<text text-anchor="middle" x="142" y="-119.5" font-family="Helvetica,sans-Serif" font-size="10.00">_64/console/console.h</text>
</a>
</g>
</g>
<!-- Node2 -->
<g id="node2" class="node">
<title>Node2</title>
<g id="a_node2"><a xlink:href="multiboot_8h.html" target="_top" xlink:title=" ">
<polygon fill="none" stroke="black" points="56,-56.5 56,-75.5 142,-75.5 142,-56.5 56,-56.5"/>
<text text-anchor="middle" x="99" y="-63.5" font-family="Helvetica,sans-Serif" font-size="10.00">core/multiboot.h</text>
</a>
</g>
</g>
<!-- Node1&#45;&gt;Node2 -->
<g id="edge1" class="edge">
<title>Node1&#45;&gt;Node2</title>
<path fill="none" stroke="midnightblue" d="M132.03,-112.7C125.91,-104.23 118.01,-93.31 111.48,-84.27"/>
<polygon fill="midnightblue" stroke="midnightblue" points="113.76,-82.45 105.07,-76.4 108.09,-86.55 113.76,-82.45"/>
</g>
<!-- Node3 -->
<g id="node3" class="node">
<title>Node3</title>
<g id="a_node3"><a xlink:title=" ">
<polygon fill="none" stroke="#bfbfbf" points="0,-0.5 0,-19.5 56,-19.5 56,-0.5 0,-0.5"/>
<text text-anchor="middle" x="28" y="-7.5" font-family="Helvetica,sans-Serif" font-size="10.00">stdbool.h</text>
</a>
</g>
</g>
<!-- Node1&#45;&gt;Node3 -->
<g id="edge4" class="edge">
<title>Node1&#45;&gt;Node3</title>
<path fill="none" stroke="midnightblue" d="M99.63,-112.58C81.11,-104.54 60.56,-92.66 47,-76 36.32,-62.88 31.64,-43.98 29.6,-29.94"/>
<polygon fill="midnightblue" stroke="midnightblue" points="32.98,-29.67 28.39,-20.12 26.02,-30.44 32.98,-29.67"/>
</g>
<!-- Node5 -->
<g id="node5" class="node">
<title>Node5</title>
<g id="a_node5"><a xlink:title=" ">
<polygon fill="none" stroke="#bfbfbf" points="160,-56.5 160,-75.5 212,-75.5 212,-56.5 160,-56.5"/>
<text text-anchor="middle" x="186" y="-63.5" font-family="Helvetica,sans-Serif" font-size="10.00">stddef.h</text>
</a>
</g>
</g>
<!-- Node1&#45;&gt;Node5 -->
<g id="edge5" class="edge">
<title>Node1&#45;&gt;Node5</title>
<path fill="none" stroke="midnightblue" d="M152.21,-112.7C158.54,-104.14 166.72,-93.08 173.44,-83.98"/>
<polygon fill="midnightblue" stroke="midnightblue" points="176.66,-86.52 179.79,-76.4 171.03,-82.36 176.66,-86.52"/>
</g>
<!-- Node6 -->
<g id="node6" class="node">
<title>Node6</title>
<g id="a_node6"><a xlink:title=" ">
<polygon fill="none" stroke="#bfbfbf" points="230.5,-56.5 230.5,-75.5 297.5,-75.5 297.5,-56.5 230.5,-56.5"/>
<text text-anchor="middle" x="264" y="-63.5" font-family="Helvetica,sans-Serif" font-size="10.00">vtconsole.h</text>
</a>
</g>
</g>
<!-- Node1&#45;&gt;Node6 -->
<g id="edge6" class="edge">
<title>Node1&#45;&gt;Node6</title>
<path fill="none" stroke="midnightblue" d="M170.6,-112.55C190.66,-102.77 217.31,-89.77 237,-80.17"/>
<polygon fill="midnightblue" stroke="midnightblue" points="238.41,-82.88 245.87,-75.36 235.35,-76.59 238.41,-82.88"/>
</g>
<!-- Node2&#45;&gt;Node3 -->
<g id="edge2" class="edge">
<title>Node2&#45;&gt;Node3</title>
<path fill="none" stroke="midnightblue" d="M87.91,-56.56C77.11,-48.35 60.48,-35.7 47.47,-25.81"/>
<polygon fill="midnightblue" stroke="midnightblue" points="49.86,-22.47 39.78,-19.2 45.62,-28.04 49.86,-22.47"/>
</g>
<!-- Node4 -->
<g id="node4" class="node">
<title>Node4</title>
<g id="a_node4"><a xlink:title=" ">
<polygon fill="none" stroke="#bfbfbf" points="74.5,-0.5 74.5,-19.5 123.5,-19.5 123.5,-0.5 74.5,-0.5"/>
<text text-anchor="middle" x="99" y="-7.5" font-family="Helvetica,sans-Serif" font-size="10.00">stdint.h</text>
</a>
</g>
</g>
<!-- Node2&#45;&gt;Node4 -->
<g id="edge3" class="edge">
<title>Node2&#45;&gt;Node4</title>
<path fill="none" stroke="midnightblue" d="M99,-56.56C99,-49.47 99,-39.06 99,-29.98"/>
<polygon fill="midnightblue" stroke="midnightblue" points="102.5,-30.2 99,-20.2 95.5,-30.2 102.5,-30.2"/>
</g>
</g>
</svg>
