<?xml version="1.0" encoding="UTF-8" standalone="no"?>
<!DOCTYPE svg PUBLIC "-//W3C//DTD SVG 1.1//EN"
 "http://www.w3.org/Graphics/SVG/1.1/DTD/svg11.dtd">
<!-- Generated by graphviz version 9.0.0 (20230911.1827)
 -->
<!-- Title: src/kernel/arch/x86_64/console/console.h Pages: 1 -->
<svg width="303pt" height="149pt"
 viewBox="0.00 0.00 303.00 149.00" xmlns="http://www.w3.org/2000/svg" xmlns:xlink="http://www.w3.org/1999/xlink">
<g id="graph0" class="graph" transform="scale(1 1) rotate(0) translate(4 145)">
<title>src/kernel/arch/x86_64/console/console.h</title>
<!-- Node1 -->
<g id="Node000001" class="node">
<title>Node1</title>
<g id="a_Node000001"><a xlink:title=" ">
<polygon fill="#999999" stroke="#666666" points="197.62,-141 84.12,-141 84.12,-110.5 197.62,-110.5 197.62,-141"/>
<text text-anchor="start" x="92.12" y="-127.5" font-family="Helvetica,sans-Serif" font-size="10.00">src/kernel/arch/x86</text>
<text text-anchor="middle" x="140.88" y="-116.25" font-family="Helvetica,sans-Serif" font-size="10.00">_64/console/console.h</text>
</a>
</g>
</g>
<!-- Node2 -->
<g id="Node000002" class="node">
<title>Node2</title>
<g id="a_Node000002"><a xlink:href="multiboot_8h.html" target="_top" xlink:title=" ">
<polygon fill="white" stroke="#666666" points="140.75,-74.5 55,-74.5 55,-55.25 140.75,-55.25 140.75,-74.5"/>
<text text-anchor="middle" x="97.88" y="-61" font-family="Helvetica,sans-Serif" font-size="10.00">core/multiboot.h</text>
</a>
</g>
</g>
<!-- Node1&#45;&gt;Node2 -->
<g id="edge1_Node000001_Node000002" class="edge">
<title>Node1&#45;&gt;Node2</title>
<g id="a_edge1_Node000001_Node000002"><a xlink:title=" ">
<path fill="none" stroke="#63b8ff" d="M130.25,-110.2C124.52,-102.35 117.39,-92.6 111.28,-84.24"/>
<polygon fill="#63b8ff" stroke="#63b8ff" points="114.12,-82.18 105.4,-76.17 108.47,-86.31 114.12,-82.18"/>
</a>
</g>
</g>
<!-- Node3 -->
<g id="Node000003" class="node">
<title>Node3</title>
<g id="a_Node000003"><a xlink:title=" ">
<polygon fill="#e0e0e0" stroke="#999999" points="55.75,-19.25 0,-19.25 0,0 55.75,0 55.75,-19.25"/>
<text text-anchor="middle" x="27.88" y="-5.75" font-family="Helvetica,sans-Serif" font-size="10.00">stdbool.h</text>
</a>
</g>
</g>
<!-- Node1&#45;&gt;Node3 -->
<g id="edge4_Node000001_Node000003" class="edge">
<title>Node1&#45;&gt;Node3</title>
<g id="a_edge4_Node000001_Node000003"><a xlink:title=" ">
<path fill="none" stroke="#63b8ff" d="M96.49,-110.15C78.48,-102.2 58.89,-90.61 45.88,-74.5 35.79,-62.01 31.35,-44.19 29.4,-30.55"/>
<polygon fill="#63b8ff" stroke="#63b8ff" points="32.92,-30.54 28.38,-20.97 25.96,-31.28 32.92,-30.54"/>
</a>
</g>
</g>
<!-- Node5 -->
<g id="Node000005" class="node">
<title>Node5</title>
<g id="a_Node000005"><a xlink:title=" ">
<polygon fill="#e0e0e0" stroke="#999999" points="210.5,-74.5 159.25,-74.5 159.25,-55.25 210.5,-55.25 210.5,-74.5"/>
<text text-anchor="middle" x="184.88" y="-61" font-family="Helvetica,sans-Serif" font-size="10.00">stddef.h</text>
</a>
</g>
</g>
<!-- Node1&#45;&gt;Node5 -->
<g id="edge5_Node000001_Node000005" class="edge">
<title>Node1&#45;&gt;Node5</title>
<g id="a_edge5_Node000001_Node000005"><a xlink:title=" ">
<path fill="none" stroke="#63b8ff" d="M151.75,-110.2C157.68,-102.27 165.07,-92.38 171.36,-83.96"/>
<polygon fill="#63b8ff" stroke="#63b8ff" points="174,-86.27 177.19,-76.16 168.4,-82.08 174,-86.27"/>
</a>
</g>
</g>
<!-- Node6 -->
<g id="Node000006" class="node">
<title>Node6</title>
<g id="a_Node000006"><a xlink:title=" ">
<polygon fill="#e0e0e0" stroke="#999999" points="295,-74.5 228.75,-74.5 228.75,-55.25 295,-55.25 295,-74.5"/>
<text text-anchor="middle" x="261.88" y="-61" font-family="Helvetica,sans-Serif" font-size="10.00">vtconsole.h</text>
</a>
</g>
</g>
<!-- Node1&#45;&gt;Node6 -->
<g id="edge6_Node000001_Node000006" class="edge">
<title>Node1&#45;&gt;Node6</title>
<g id="a_edge6_Node000001_Node000006"><a xlink:title=" ">
<path fill="none" stroke="#63b8ff" d="M171.1,-110.05C190.06,-100.82 214.36,-89 233.05,-79.9"/>
<polygon fill="#63b8ff" stroke="#63b8ff" points="234.5,-83.09 241.96,-75.57 231.43,-76.79 234.5,-83.09"/>
</a>
</g>
</g>
<!-- Node2&#45;&gt;Node3 -->
<g id="edge2_Node000002_Node000003" class="edge">
<title>Node2&#45;&gt;Node3</title>
<g id="a_edge2_Node000002_Node000003"><a xlink:title=" ">
<path fill="none" stroke="#63b8ff" d="M86,-54.84C75.78,-47.07 60.8,-35.67 48.61,-26.4"/>
<polygon fill="#63b8ff" stroke="#63b8ff" points="50.86,-23.71 40.78,-20.44 46.62,-29.28 50.86,-23.71"/>
</a>
</g>
</g>
<!-- Node4 -->
<g id="Node000004" class="node">
<title>Node4</title>
<g id="a_Node000004"><a xlink:title=" ">
<polygon fill="#e0e0e0" stroke="#999999" points="122,-19.25 73.75,-19.25 73.75,0 122,0 122,-19.25"/>
<text text-anchor="middle" x="97.88" y="-5.75" font-family="Helvetica,sans-Serif" font-size="10.00">stdint.h</text>
</a>
</g>
</g>
<!-- Node2&#45;&gt;Node4 -->
<g id="edge3_Node000002_Node000004" class="edge">
<title>Node2&#45;&gt;Node4</title>
<g id="a_edge3_Node000002_Node000004"><a xlink:title=" ">
<path fill="none" stroke="#63b8ff" d="M97.88,-55.08C97.88,-48.57 97.88,-39.42 97.88,-31.12"/>
<polygon fill="#63b8ff" stroke="#63b8ff" points="101.38,-31.12 97.88,-21.12 94.38,-31.12 101.38,-31.12"/>
</a>
</g>
</g>
</g>
</svg>
