<?xml version="1.0" encoding="UTF-8" standalone="no"?>
<!DOCTYPE svg PUBLIC "-//W3C//DTD SVG 1.1//EN"
 "http://www.w3.org/Graphics/SVG/1.1/DTD/svg11.dtd">
<!-- Generated by graphviz version 8.0.2 (20230410.1723)
 -->
<!-- Title: arch_isr_disable_interrupts Pages: 1 -->
<svg width="286pt" height="45pt"
 viewBox="0.00 0.00 286.00 45.00" xmlns="http://www.w3.org/2000/svg" xmlns:xlink="http://www.w3.org/1999/xlink">
<g id="graph0" class="graph" transform="scale(1 1) rotate(0) translate(4 41)">
<title>arch_isr_disable_interrupts</title>
<!-- Node1 -->
<g id="Node000001" class="node">
<title>Node1</title>
<g id="a_Node000001"><a xlink:title=" ">
<polygon fill="#999999" stroke="#666666" points="278,-19 145,-19 145,0 278,0 278,-19"/>
<text text-anchor="middle" x="211.5" y="-7" font-family="Helvetica,sans-Serif" font-size="10.00">arch_isr_disable_interrupts</text>
</a>
</g>
</g>
<!-- Node1&#45;&gt;Node1 -->
<g id="edge1_Node000001_Node000001" class="edge">
<title>Node1&#45;&gt;Node1</title>
<g id="a_edge1_Node000001_Node000001"><a xlink:title=" ">
<path fill="none" stroke="#63b8ff" d="M240.14,-29.42C237.43,-33.8 227.89,-37 211.5,-37 183.9,-37 175.71,-27.94 186.92,-19.37"/>
<polygon fill="#63b8ff" stroke="#63b8ff" points="243.07,-28.33 236.08,-20.37 236.58,-30.95 243.07,-28.33"/>
</a>
</g>
</g>
<!-- Node2 -->
<g id="Node000002" class="node">
<title>Node2</title>
<g id="a_Node000002"><a xlink:href="isr_8c.html#a48c1ab85abf749224864c1576a186a3b" target="_top" xlink:title=" ">
<polygon fill="white" stroke="#666666" points="109,-19 0,-19 0,0 109,0 109,-19"/>
<text text-anchor="middle" x="54.5" y="-7" font-family="Helvetica,sans-Serif" font-size="10.00">isr_disable_interrupts</text>
</a>
</g>
</g>
<!-- Node1&#45;&gt;Node2 -->
<g id="edge2_Node000001_Node000002" class="edge">
<title>Node1&#45;&gt;Node2</title>
<g id="a_edge2_Node000001_Node000002"><a xlink:title=" ">
<path fill="none" stroke="#63b8ff" d="M133.83,-9.5C125.49,-9.5 117.13,-9.5 109.14,-9.5"/>
<polygon fill="#63b8ff" stroke="#63b8ff" points="133.77,-13 143.77,-9.5 133.77,-6 133.77,-13"/>
</a>
</g>
</g>
<!-- Node2&#45;&gt;Node2 -->
<g id="edge3_Node000002_Node000002" class="edge">
<title>Node2&#45;&gt;Node2</title>
<g id="a_edge3_Node000002_Node000002"><a xlink:title=" ">
<path fill="none" stroke="#63b8ff" d="M83.14,-29.42C80.43,-33.8 70.89,-37 54.5,-37 26.9,-37 18.71,-27.94 29.92,-19.37"/>
<polygon fill="#63b8ff" stroke="#63b8ff" points="86.07,-28.33 79.08,-20.37 79.58,-30.95 86.07,-28.33"/>
</a>
</g>
</g>
</g>
</svg>
