<?xml version="1.0" encoding="UTF-8" standalone="no"?>
<!DOCTYPE svg PUBLIC "-//W3C//DTD SVG 1.1//EN"
 "http://www.w3.org/Graphics/SVG/1.1/DTD/svg11.dtd">
<!-- Generated by graphviz version 2.49.3 (20211023.0002)
 -->
<!-- Title: arch_isr_enable_interrupts Pages: 1 -->
<svg width="370pt" height="28pt"
 viewBox="0.00 0.00 370.00 28.00" xmlns="http://www.w3.org/2000/svg" xmlns:xlink="http://www.w3.org/1999/xlink">
<g id="graph0" class="graph" transform="scale(1 1) rotate(0) translate(4 24)">
<title>arch_isr_enable_interrupts</title>
<!-- Node1 -->
<g id="node1" class="node">
<title>Node1</title>
<g id="a_node1"><a xlink:title=" ">
<polygon fill="#bfbfbf" stroke="black" points="227,-0.5 227,-19.5 362,-19.5 362,-0.5 227,-0.5"/>
<text text-anchor="middle" x="294.5" y="-7.5" font-family="Helvetica,sans-Serif" font-size="10.00">arch_isr_enable_interrupts</text>
</a>
</g>
</g>
<!-- Node2 -->
<g id="node2" class="node">
<title>Node2</title>
<g id="a_node2"><a xlink:href="isr_8h.html#ab3c2f37893bf0fe6a7efc06e3d908834" target="_top" xlink:title=" ">
<polygon fill="none" stroke="black" points="81,-0.5 81,-19.5 191,-19.5 191,-0.5 81,-0.5"/>
<text text-anchor="middle" x="136" y="-7.5" font-family="Helvetica,sans-Serif" font-size="10.00">isr_enable_interrupts</text>
</a>
</g>
</g>
<!-- Node1&#45;&gt;Node2 -->
<g id="edge1" class="edge">
<title>Node1&#45;&gt;Node2</title>
<path fill="none" stroke="midnightblue" d="M216.66,-10C208.1,-10 199.52,-10 191.33,-10"/>
<polygon fill="midnightblue" stroke="midnightblue" points="216.68,-13.5 226.68,-10 216.68,-6.5 216.68,-13.5"/>
</g>
<!-- Node3 -->
<g id="node3" class="node">
<title>Node3</title>
<g id="a_node3"><a xlink:href="isr_8h.html#a2ea31f33125954459edbe7f4d7971ffa" target="_top" xlink:title=" ">
<polygon fill="none" stroke="black" points="0,-0.5 0,-19.5 45,-19.5 45,-0.5 0,-0.5"/>
<text text-anchor="middle" x="22.5" y="-7.5" font-family="Helvetica,sans-Serif" font-size="10.00">isr_init</text>
</a>
</g>
</g>
<!-- Node2&#45;&gt;Node3 -->
<g id="edge2" class="edge">
<title>Node2&#45;&gt;Node3</title>
<path fill="none" stroke="midnightblue" d="M70.83,-10C61.63,-10 52.74,-10 45.2,-10"/>
<polygon fill="midnightblue" stroke="midnightblue" points="70.88,-13.5 80.88,-10 70.88,-6.5 70.88,-13.5"/>
</g>
</g>
</svg>
