<?xml version="1.0" encoding="UTF-8" standalone="no"?>
<!DOCTYPE svg PUBLIC "-//W3C//DTD SVG 1.1//EN"
 "http://www.w3.org/Graphics/SVG/1.1/DTD/svg11.dtd">
<!-- Generated by graphviz version 8.0.2 (20230410.1723)
 -->
<!-- Title: arch_isr_init Pages: 1 -->
<svg width="341pt" height="64pt"
 viewBox="0.00 0.00 341.00 64.00" xmlns="http://www.w3.org/2000/svg" xmlns:xlink="http://www.w3.org/1999/xlink">
<g id="graph0" class="graph" transform="scale(1 1) rotate(0) translate(4 60)">
<title>arch_isr_init</title>
<!-- Node1 -->
<g id="Node000001" class="node">
<title>Node1</title>
<g id="a_Node000001"><a xlink:title=" ">
<polygon fill="#999999" stroke="#666666" points="333,-37 264,-37 264,-18 333,-18 333,-37"/>
<text text-anchor="middle" x="298.5" y="-25" font-family="Helvetica,sans-Serif" font-size="10.00">arch_isr_init</text>
</a>
</g>
</g>
<!-- Node1&#45;&gt;Node1 -->
<g id="edge1_Node000001_Node000001" class="edge">
<title>Node1&#45;&gt;Node1</title>
<g id="a_edge1_Node000001_Node000001"><a xlink:title=" ">
<path fill="none" stroke="#63b8ff" d="M315.18,-48.1C313.25,-52.13 307.7,-55 298.5,-55 282.15,-55 277.3,-45.94 283.94,-37.37"/>
<polygon fill="#63b8ff" stroke="#63b8ff" points="318.43,-47.5 313.06,-38.37 311.56,-48.86 318.43,-47.5"/>
</a>
</g>
</g>
<!-- Node2 -->
<g id="Node000002" class="node">
<title>Node2</title>
<g id="a_Node000002"><a xlink:href="isr_8c.html#a2ea31f33125954459edbe7f4d7971ffa" target="_top" xlink:title=" ">
<polygon fill="white" stroke="#666666" points="228,-37 183,-37 183,-18 228,-18 228,-37"/>
<text text-anchor="middle" x="205.5" y="-25" font-family="Helvetica,sans-Serif" font-size="10.00">isr_init</text>
</a>
</g>
</g>
<!-- Node1&#45;&gt;Node2 -->
<g id="edge2_Node000001_Node000002" class="edge">
<title>Node1&#45;&gt;Node2</title>
<g id="a_edge2_Node000001_Node000002"><a xlink:title=" ">
<path fill="none" stroke="#63b8ff" d="M252.88,-27.5C244.31,-27.5 235.71,-27.5 228.27,-27.5"/>
<polygon fill="#63b8ff" stroke="#63b8ff" points="252.61,-31 262.61,-27.5 252.61,-24 252.61,-31"/>
</a>
</g>
</g>
<!-- Node2&#45;&gt;Node2 -->
<g id="edge3_Node000002_Node000002" class="edge">
<title>Node2&#45;&gt;Node2</title>
<g id="a_edge3_Node000002_Node000002"><a xlink:title=" ">
<path fill="none" stroke="#63b8ff" d="M222.09,-48.1C220.17,-52.13 214.65,-55 205.5,-55 189.24,-55 184.41,-45.94 191.02,-37.37"/>
<polygon fill="#63b8ff" stroke="#63b8ff" points="225.34,-47.51 219.98,-38.37 218.47,-48.85 225.34,-47.51"/>
</a>
</g>
</g>
<!-- Node3 -->
<g id="Node000003" class="node">
<title>Node3</title>
<g id="a_Node000003"><a xlink:href="kmain_8c.html#a666c17b307920a60e50fcf56312f9500" target="_top" xlink:title=" ">
<polygon fill="white" stroke="#666666" points="147,-37 79,-37 79,-18 147,-18 147,-37"/>
<text text-anchor="middle" x="113" y="-25" font-family="Helvetica,sans-Serif" font-size="10.00">kmain_start</text>
</a>
</g>
</g>
<!-- Node2&#45;&gt;Node3 -->
<g id="edge4_Node000002_Node000003" class="edge">
<title>Node2&#45;&gt;Node3</title>
<g id="a_edge4_Node000002_Node000003"><a xlink:title=" ">
<path fill="none" stroke="#63b8ff" d="M171.83,-27.5C163.88,-27.5 155.35,-27.5 147.37,-27.5"/>
<polygon fill="#63b8ff" stroke="#63b8ff" points="171.59,-31 181.59,-27.5 171.59,-24 171.59,-31"/>
</a>
</g>
</g>
<!-- Node4 -->
<g id="Node000004" class="node">
<title>Node4</title>
<g id="a_Node000004"><a xlink:href="arch_2aarch32_2board_2raspi2_2kmain_8c.html#a798325fe646ee31fccf3f735f9bbaf60" target="_top" xlink:title=" ">
<polygon fill="white" stroke="#666666" points="43,-56 0,-56 0,-37 43,-37 43,-56"/>
<text text-anchor="middle" x="21.5" y="-44" font-family="Helvetica,sans-Serif" font-size="10.00">kmain</text>
</a>
</g>
</g>
<!-- Node3&#45;&gt;Node4 -->
<g id="edge5_Node000003_Node000004" class="edge">
<title>Node3&#45;&gt;Node4</title>
<g id="a_edge5_Node000003_Node000004"><a xlink:title=" ">
<path fill="none" stroke="#63b8ff" d="M67.93,-36.86C59.36,-38.67 50.76,-40.5 43.38,-42.07"/>
<polygon fill="#63b8ff" stroke="#63b8ff" points="68.62,-40.08 77.67,-34.57 67.16,-33.23 68.62,-40.08"/>
</a>
</g>
</g>
<!-- Node5 -->
<g id="Node000005" class="node">
<title>Node5</title>
<g id="a_Node000005"><a xlink:href="arch_2x86__64_2kmain_8c.html#ad6d3bd9ddd2519d6040e79426dc57fb5" target="_top" xlink:title=" ">
<polygon fill="white" stroke="#666666" points="43,-19 0,-19 0,0 43,0 43,-19"/>
<text text-anchor="middle" x="21.5" y="-7" font-family="Helvetica,sans-Serif" font-size="10.00">kmain</text>
</a>
</g>
</g>
<!-- Node3&#45;&gt;Node5 -->
<g id="edge6_Node000003_Node000005" class="edge">
<title>Node3&#45;&gt;Node5</title>
<g id="a_edge6_Node000003_Node000005"><a xlink:title=" ">
<path fill="none" stroke="#63b8ff" d="M67.93,-18.64C59.36,-16.91 50.76,-15.18 43.38,-13.7"/>
<polygon fill="#63b8ff" stroke="#63b8ff" points="67.18,-22.26 77.67,-20.8 68.56,-15.39 67.18,-22.26"/>
</a>
</g>
</g>
</g>
</svg>
