<?xml version="1.0" encoding="UTF-8" standalone="no"?>
<!DOCTYPE svg PUBLIC "-//W3C//DTD SVG 1.1//EN"
 "http://www.w3.org/Graphics/SVG/1.1/DTD/svg11.dtd">
<!-- Generated by graphviz version 8.0.2 (20230410.1723)
 -->
<!-- Title: include/kernel/proc/descriptor.h Pages: 1 -->
<svg width="202pt" height="207pt"
 viewBox="0.00 0.00 201.50 207.00" xmlns="http://www.w3.org/2000/svg" xmlns:xlink="http://www.w3.org/1999/xlink">
<g id="graph0" class="graph" transform="scale(1 1) rotate(0) translate(4 203)">
<title>include/kernel/proc/descriptor.h</title>
<!-- Node1 -->
<g id="node1" class="node">
<title>Node1</title>
<g id="a_node1"><a xlink:title=" ">
<polygon fill="#bfbfbf" stroke="black" points="40.5,-168.5 40.5,-198.5 138.5,-198.5 138.5,-168.5 40.5,-168.5"/>
<text text-anchor="start" x="48.5" y="-186.5" font-family="Helvetica,sans-Serif" font-size="10.00">include/kernel/proc</text>
<text text-anchor="middle" x="89.5" y="-175.5" font-family="Helvetica,sans-Serif" font-size="10.00">/descriptor.h</text>
</a>
</g>
</g>
<!-- Node2 -->
<g id="node2" class="node">
<title>Node2</title>
<g id="a_node2"><a xlink:href="vfs_8h.html" target="_top" xlink:title=" ">
<polygon fill="none" stroke="black" points="91.5,-112.5 91.5,-131.5 141.5,-131.5 141.5,-112.5 91.5,-112.5"/>
<text text-anchor="middle" x="116.5" y="-119.5" font-family="Helvetica,sans-Serif" font-size="10.00">fs/vfs.h</text>
</a>
</g>
</g>
<!-- Node1&#45;&gt;Node2 -->
<g id="edge1" class="edge">
<title>Node1&#45;&gt;Node2</title>
<path fill="none" stroke="midnightblue" d="M95.76,-168.7C99.48,-160.5 104.25,-150 108.27,-141.14"/>
<polygon fill="midnightblue" stroke="midnightblue" points="111.74,-142.95 112.69,-132.4 105.37,-140.06 111.74,-142.95"/>
</g>
<!-- Node3 -->
<g id="node3" class="node">
<title>Node3</title>
<g id="a_node3"><a xlink:title=" ">
<polygon fill="none" stroke="#bfbfbf" points="137.5,-0.5 137.5,-19.5 193.5,-19.5 193.5,-0.5 137.5,-0.5"/>
<text text-anchor="middle" x="165.5" y="-7.5" font-family="Helvetica,sans-Serif" font-size="10.00">stdbool.h</text>
</a>
</g>
</g>
<!-- Node1&#45;&gt;Node3 -->
<g id="edge8" class="edge">
<title>Node1&#45;&gt;Node3</title>
<path fill="none" stroke="midnightblue" d="M113.97,-168.62C127.03,-159.86 142.11,-147.31 150.5,-132 168.25,-99.6 168.77,-55.15 167.3,-30.13"/>
<polygon fill="midnightblue" stroke="midnightblue" points="170.72,-29.96 166.46,-20.26 163.75,-30.5 170.72,-29.96"/>
</g>
<!-- Node4 -->
<g id="node4" class="node">
<title>Node4</title>
<g id="a_node4"><a xlink:title=" ">
<polygon fill="none" stroke="#bfbfbf" points="0,-0.5 0,-19.5 49,-19.5 49,-0.5 0,-0.5"/>
<text text-anchor="middle" x="24.5" y="-7.5" font-family="Helvetica,sans-Serif" font-size="10.00">stdint.h</text>
</a>
</g>
</g>
<!-- Node1&#45;&gt;Node4 -->
<g id="edge9" class="edge">
<title>Node1&#45;&gt;Node4</title>
<path fill="none" stroke="midnightblue" d="M80.49,-168.67C68.08,-148.95 45.96,-111.22 34.5,-76 29.58,-60.87 27.05,-42.95 25.77,-29.77"/>
<polygon fill="midnightblue" stroke="midnightblue" points="29.21,-29.88 24.91,-20.2 22.23,-30.45 29.21,-29.88"/>
</g>
<!-- Node5 -->
<g id="node5" class="node">
<title>Node5</title>
<g id="a_node5"><a xlink:href="types_8h.html" target="_top" xlink:title=" ">
<polygon fill="none" stroke="black" points="59.5,-56.5 59.5,-75.5 127.5,-75.5 127.5,-56.5 59.5,-56.5"/>
<text text-anchor="middle" x="93.5" y="-63.5" font-family="Helvetica,sans-Serif" font-size="10.00">sys/types.h</text>
</a>
</g>
</g>
<!-- Node1&#45;&gt;Node5 -->
<g id="edge10" class="edge">
<title>Node1&#45;&gt;Node5</title>
<path fill="none" stroke="midnightblue" d="M86.35,-168.7C83.51,-154.48 80.13,-131.66 82.5,-112 83.56,-103.2 85.75,-93.64 87.89,-85.6"/>
<polygon fill="midnightblue" stroke="midnightblue" points="91.49,-86.76 90.87,-76.18 84.76,-84.84 91.49,-86.76"/>
</g>
<!-- Node2&#45;&gt;Node3 -->
<g id="edge2" class="edge">
<title>Node2&#45;&gt;Node3</title>
<path fill="none" stroke="midnightblue" d="M120.18,-112.73C128.02,-95.13 146.52,-53.6 157.3,-29.4"/>
<polygon fill="midnightblue" stroke="midnightblue" points="160.9,-30.92 161.77,-20.36 154.51,-28.07 160.9,-30.92"/>
</g>
<!-- Node2&#45;&gt;Node4 -->
<g id="edge3" class="edge">
<title>Node2&#45;&gt;Node4</title>
<path fill="none" stroke="midnightblue" d="M98.62,-112.59C83.94,-104.88 63.52,-92.22 50.5,-76 39.56,-62.38 32.71,-43.56 28.8,-29.67"/>
<polygon fill="midnightblue" stroke="midnightblue" points="32.05,-29.22 26.19,-20.39 25.26,-30.95 32.05,-29.22"/>
</g>
<!-- Node2&#45;&gt;Node5 -->
<g id="edge4" class="edge">
<title>Node2&#45;&gt;Node5</title>
<path fill="none" stroke="midnightblue" d="M112.91,-112.56C109.78,-105.23 105.15,-94.35 101.19,-85.07"/>
<polygon fill="midnightblue" stroke="midnightblue" points="104.13,-84.03 96.99,-76.2 97.69,-86.77 104.13,-84.03"/>
</g>
<!-- Node5&#45;&gt;Node3 -->
<g id="edge5" class="edge">
<title>Node5&#45;&gt;Node3</title>
<path fill="none" stroke="midnightblue" d="M104.75,-56.56C115.8,-48.27 132.89,-35.45 146.13,-25.52"/>
<polygon fill="midnightblue" stroke="midnightblue" points="147.66,-28 153.56,-19.2 143.46,-22.4 147.66,-28"/>
</g>
<!-- Node5&#45;&gt;Node4 -->
<g id="edge7" class="edge">
<title>Node5&#45;&gt;Node4</title>
<path fill="none" stroke="midnightblue" d="M82.72,-56.56C72.23,-48.35 56.06,-35.7 43.43,-25.81"/>
<polygon fill="midnightblue" stroke="midnightblue" points="46.01,-22.61 35.98,-19.2 41.7,-28.12 46.01,-22.61"/>
</g>
<!-- Node6 -->
<g id="node6" class="node">
<title>Node6</title>
<g id="a_node6"><a xlink:title=" ">
<polygon fill="none" stroke="#bfbfbf" points="67.5,-0.5 67.5,-19.5 119.5,-19.5 119.5,-0.5 67.5,-0.5"/>
<text text-anchor="middle" x="93.5" y="-7.5" font-family="Helvetica,sans-Serif" font-size="10.00">stddef.h</text>
</a>
</g>
</g>
<!-- Node5&#45;&gt;Node6 -->
<g id="edge6" class="edge">
<title>Node5&#45;&gt;Node6</title>
<path fill="none" stroke="midnightblue" d="M93.5,-56.56C93.5,-49.47 93.5,-39.06 93.5,-29.98"/>
<polygon fill="midnightblue" stroke="midnightblue" points="97,-30.2 93.5,-20.2 90,-30.2 97,-30.2"/>
</g>
</g>
</svg>
