<?xml version="1.0" encoding="UTF-8" standalone="no"?>
<!DOCTYPE svg PUBLIC "-//W3C//DTD SVG 1.1//EN"
 "http://www.w3.org/Graphics/SVG/1.1/DTD/svg11.dtd">
<!-- Generated by graphviz version 8.0.2 (20230410.1723)
 -->
<!-- Title: get_descriptor Pages: 1 -->
<svg width="456pt" height="118pt"
 viewBox="0.00 0.00 456.00 118.00" xmlns="http://www.w3.org/2000/svg" xmlns:xlink="http://www.w3.org/1999/xlink">
<g id="graph0" class="graph" transform="scale(1 1) rotate(0) translate(4 114)">
<title>get_descriptor</title>
<!-- Node1 -->
<g id="Node000001" class="node">
<title>Node1</title>
<g id="a_Node000001"><a xlink:title=" ">
<polygon fill="#999999" stroke="#666666" points="448,-64 370,-64 370,-45 448,-45 448,-64"/>
<text text-anchor="middle" x="409" y="-52" font-family="Helvetica,sans-Serif" font-size="10.00">get_descriptor</text>
</a>
</g>
</g>
<!-- Node1&#45;&gt;Node1 -->
<g id="edge1_Node000001_Node000001" class="edge">
<title>Node1&#45;&gt;Node1</title>
<g id="a_edge1_Node000001_Node000001"><a xlink:title=" ">
<path fill="none" stroke="#63b8ff" d="M426.93,-75.1C424.86,-79.13 418.89,-82 409,-82 391.42,-82 386.2,-72.94 393.34,-64.37"/>
<polygon fill="#63b8ff" stroke="#63b8ff" points="430.15,-74.42 424.66,-65.37 423.31,-75.88 430.15,-74.42"/>
</a>
</g>
</g>
<!-- Node2 -->
<g id="Node000002" class="node">
<title>Node2</title>
<g id="a_Node000002"><a xlink:href="k__lseek_8c.html#aca2b074f62174df41781abb400ac6c67" target="_top" xlink:title=" ">
<polygon fill="white" stroke="#666666" points="334,-64 284,-64 284,-45 334,-45 334,-64"/>
<text text-anchor="middle" x="309" y="-52" font-family="Helvetica,sans-Serif" font-size="10.00">k_lseek</text>
</a>
</g>
</g>
<!-- Node1&#45;&gt;Node2 -->
<g id="edge2_Node000001_Node000002" class="edge">
<title>Node1&#45;&gt;Node2</title>
<g id="a_edge2_Node000001_Node000002"><a xlink:title=" ">
<path fill="none" stroke="#63b8ff" d="M358.79,-54.5C350.25,-54.5 341.71,-54.5 334.21,-54.5"/>
<polygon fill="#63b8ff" stroke="#63b8ff" points="358.55,-58 368.55,-54.5 358.55,-51 358.55,-58"/>
</a>
</g>
</g>
<!-- Node2&#45;&gt;Node2 -->
<g id="edge3_Node000002_Node000002" class="edge">
<title>Node2&#45;&gt;Node2</title>
<g id="a_edge3_Node000002_Node000002"><a xlink:title=" ">
<path fill="none" stroke="#63b8ff" d="M325.77,-75.1C323.83,-79.13 318.24,-82 309,-82 292.56,-82 287.69,-72.94 294.36,-64.37"/>
<polygon fill="#63b8ff" stroke="#63b8ff" points="329.02,-74.5 323.64,-65.37 322.15,-75.86 329.02,-74.5"/>
</a>
</g>
</g>
<!-- Node3 -->
<g id="Node000003" class="node">
<title>Node3</title>
<g id="a_Node000003"><a xlink:href="lseek_8c.html#a8bd74caed008a66808d92d57fa74d9f6" target="_top" xlink:title=" ">
<polygon fill="white" stroke="#666666" points="235.5,-92 195.5,-92 195.5,-73 235.5,-73 235.5,-92"/>
<text text-anchor="middle" x="215.5" y="-80" font-family="Helvetica,sans-Serif" font-size="10.00">lseek</text>
</a>
</g>
</g>
<!-- Node2&#45;&gt;Node3 -->
<g id="edge4_Node000002_Node000003" class="edge">
<title>Node2&#45;&gt;Node3</title>
<g id="a_edge4_Node000002_Node000003"><a xlink:title=" ">
<path fill="none" stroke="#63b8ff" d="M273.6,-65.03C260.8,-68.94 246.74,-73.25 235.77,-76.6"/>
<polygon fill="#63b8ff" stroke="#63b8ff" points="274.42,-68.13 282.96,-61.86 272.37,-61.44 274.42,-68.13"/>
</a>
</g>
</g>
<!-- Node4 -->
<g id="Node000004" class="node">
<title>Node4</title>
<g id="a_Node000004"><a xlink:href="k__syscall_8c.html#a581ed37968ead91b6d3a0b3b7a71da9d" target="_top" xlink:title=" ">
<polygon fill="white" stroke="#666666" points="248,-37 183,-37 183,-18 248,-18 248,-37"/>
<text text-anchor="middle" x="215.5" y="-25" font-family="Helvetica,sans-Serif" font-size="10.00">syscall_init</text>
</a>
</g>
</g>
<!-- Node2&#45;&gt;Node4 -->
<g id="edge6_Node000002_Node000004" class="edge">
<title>Node2&#45;&gt;Node4</title>
<g id="a_edge6_Node000002_Node000004"><a xlink:title=" ">
<path fill="none" stroke="#63b8ff" d="M273.49,-44.32C265.22,-41.88 256.44,-39.28 248.3,-36.88"/>
<polygon fill="#63b8ff" stroke="#63b8ff" points="272.38,-47.93 282.96,-47.41 274.36,-41.22 272.38,-47.93"/>
</a>
</g>
</g>
<!-- Node3&#45;&gt;Node3 -->
<g id="edge5_Node000003_Node000003" class="edge">
<title>Node3&#45;&gt;Node3</title>
<g id="a_edge5_Node000003_Node000003"><a xlink:title=" ">
<path fill="none" stroke="#63b8ff" d="M232.27,-103.1C230.33,-107.13 224.74,-110 215.5,-110 199.06,-110 194.19,-100.94 200.86,-92.37"/>
<polygon fill="#63b8ff" stroke="#63b8ff" points="235.52,-102.5 230.14,-93.37 228.65,-103.86 235.52,-102.5"/>
</a>
</g>
</g>
<!-- Node4&#45;&gt;Node4 -->
<g id="edge10_Node000004_Node000004" class="edge">
<title>Node4&#45;&gt;Node4</title>
<g id="a_edge10_Node000004_Node000004"><a xlink:title=" ">
<path fill="none" stroke="#63b8ff" d="M232.27,-48.1C230.33,-52.13 224.74,-55 215.5,-55 199.06,-55 194.19,-45.94 200.86,-37.37"/>
<polygon fill="#63b8ff" stroke="#63b8ff" points="235.52,-47.5 230.14,-38.37 228.65,-48.86 235.52,-47.5"/>
</a>
</g>
</g>
<!-- Node5 -->
<g id="Node000005" class="node">
<title>Node5</title>
<g id="a_Node000005"><a xlink:href="kmain_8c.html#a666c17b307920a60e50fcf56312f9500" target="_top" xlink:title=" ">
<polygon fill="white" stroke="#666666" points="147,-37 79,-37 79,-18 147,-18 147,-37"/>
<text text-anchor="middle" x="113" y="-25" font-family="Helvetica,sans-Serif" font-size="10.00">kmain_start</text>
</a>
</g>
</g>
<!-- Node4&#45;&gt;Node5 -->
<g id="edge7_Node000004_Node000005" class="edge">
<title>Node4&#45;&gt;Node5</title>
<g id="a_edge7_Node000004_Node000005"><a xlink:title=" ">
<path fill="none" stroke="#63b8ff" d="M171.8,-27.5C163.61,-27.5 155.16,-27.5 147.33,-27.5"/>
<polygon fill="#63b8ff" stroke="#63b8ff" points="171.7,-31 181.7,-27.5 171.7,-24 171.7,-31"/>
</a>
</g>
</g>
<!-- Node6 -->
<g id="Node000006" class="node">
<title>Node6</title>
<g id="a_Node000006"><a xlink:href="arch_2aarch32_2board_2raspi2_2kmain_8c.html#a798325fe646ee31fccf3f735f9bbaf60" target="_top" xlink:title=" ">
<polygon fill="white" stroke="#666666" points="43,-56 0,-56 0,-37 43,-37 43,-56"/>
<text text-anchor="middle" x="21.5" y="-44" font-family="Helvetica,sans-Serif" font-size="10.00">kmain</text>
</a>
</g>
</g>
<!-- Node5&#45;&gt;Node6 -->
<g id="edge8_Node000005_Node000006" class="edge">
<title>Node5&#45;&gt;Node6</title>
<g id="a_edge8_Node000005_Node000006"><a xlink:title=" ">
<path fill="none" stroke="#63b8ff" d="M67.93,-36.86C59.36,-38.67 50.76,-40.5 43.38,-42.07"/>
<polygon fill="#63b8ff" stroke="#63b8ff" points="68.62,-40.08 77.67,-34.57 67.16,-33.23 68.62,-40.08"/>
</a>
</g>
</g>
<!-- Node7 -->
<g id="Node000007" class="node">
<title>Node7</title>
<g id="a_Node000007"><a xlink:href="arch_2x86__64_2kmain_8c.html#ad6d3bd9ddd2519d6040e79426dc57fb5" target="_top" xlink:title=" ">
<polygon fill="white" stroke="#666666" points="43,-19 0,-19 0,0 43,0 43,-19"/>
<text text-anchor="middle" x="21.5" y="-7" font-family="Helvetica,sans-Serif" font-size="10.00">kmain</text>
</a>
</g>
</g>
<!-- Node5&#45;&gt;Node7 -->
<g id="edge9_Node000005_Node000007" class="edge">
<title>Node5&#45;&gt;Node7</title>
<g id="a_edge9_Node000005_Node000007"><a xlink:title=" ">
<path fill="none" stroke="#63b8ff" d="M67.93,-18.64C59.36,-16.91 50.76,-15.18 43.38,-13.7"/>
<polygon fill="#63b8ff" stroke="#63b8ff" points="67.18,-22.26 77.67,-20.8 68.56,-15.39 67.18,-22.26"/>
</a>
</g>
</g>
</g>
</svg>
