<?xml version="1.0" encoding="UTF-8" standalone="no"?>
<!DOCTYPE svg PUBLIC "-//W3C//DTD SVG 1.1//EN"
 "http://www.w3.org/Graphics/SVG/1.1/DTD/svg11.dtd">
<!-- Generated by graphviz version 2.49.3 (20211023.0002)
 -->
<!-- Title: include/kernel/proc/descriptor.h Pages: 1 -->
<svg width="148pt" height="151pt"
 viewBox="0.00 0.00 148.00 151.00" xmlns="http://www.w3.org/2000/svg" xmlns:xlink="http://www.w3.org/1999/xlink">
<g id="graph0" class="graph" transform="scale(1 1) rotate(0) translate(4 147)">
<title>include/kernel/proc/descriptor.h</title>
<!-- Node1 -->
<g id="node1" class="node">
<title>Node1</title>
<g id="a_node1"><a xlink:title=" ">
<polygon fill="#bfbfbf" stroke="black" points="22.5,-112.5 22.5,-142.5 122.5,-142.5 122.5,-112.5 22.5,-112.5"/>
<text text-anchor="start" x="30.5" y="-130.5" font-family="Helvetica,sans-Serif" font-size="10.00">include/kernel/proc</text>
<text text-anchor="middle" x="72.5" y="-119.5" font-family="Helvetica,sans-Serif" font-size="10.00">/descriptor.h</text>
</a>
</g>
</g>
<!-- Node2 -->
<g id="node2" class="node">
<title>Node2</title>
<g id="a_node2"><a xlink:href="vfs_8h.html" target="_top" xlink:title=" ">
<polygon fill="none" stroke="black" points="48.5,-56.5 48.5,-75.5 96.5,-75.5 96.5,-56.5 48.5,-56.5"/>
<text text-anchor="middle" x="72.5" y="-63.5" font-family="Helvetica,sans-Serif" font-size="10.00">fs/vfs.h</text>
</a>
</g>
</g>
<!-- Node1&#45;&gt;Node2 -->
<g id="edge1" class="edge">
<title>Node1&#45;&gt;Node2</title>
<path fill="none" stroke="midnightblue" d="M72.5,-112.4C72.5,-104.47 72.5,-94.46 72.5,-85.86"/>
<polygon fill="midnightblue" stroke="midnightblue" points="76,-85.66 72.5,-75.66 69,-85.66 76,-85.66"/>
</g>
<!-- Node3 -->
<g id="node3" class="node">
<title>Node3</title>
<g id="a_node3"><a xlink:title=" ">
<polygon fill="none" stroke="#bfbfbf" points="0,-0.5 0,-19.5 57,-19.5 57,-0.5 0,-0.5"/>
<text text-anchor="middle" x="28.5" y="-7.5" font-family="Helvetica,sans-Serif" font-size="10.00">stdbool.h</text>
</a>
</g>
</g>
<!-- Node1&#45;&gt;Node3 -->
<g id="edge4" class="edge">
<title>Node1&#45;&gt;Node3</title>
<path fill="none" stroke="midnightblue" d="M60.97,-112.36C53.68,-102.69 44.69,-89.26 39.5,-76 33.69,-61.16 30.95,-43.24 29.65,-29.98"/>
<polygon fill="midnightblue" stroke="midnightblue" points="33.12,-29.41 28.85,-19.71 26.14,-29.96 33.12,-29.41"/>
</g>
<!-- Node4 -->
<g id="node4" class="node">
<title>Node4</title>
<g id="a_node4"><a xlink:title=" ">
<polygon fill="none" stroke="#bfbfbf" points="91,-0.5 91,-19.5 140,-19.5 140,-0.5 91,-0.5"/>
<text text-anchor="middle" x="115.5" y="-7.5" font-family="Helvetica,sans-Serif" font-size="10.00">stdint.h</text>
</a>
</g>
</g>
<!-- Node1&#45;&gt;Node4 -->
<g id="edge5" class="edge">
<title>Node1&#45;&gt;Node4</title>
<path fill="none" stroke="midnightblue" d="M84.1,-112.38C91.41,-102.72 100.41,-89.3 105.5,-76 111.18,-61.16 113.64,-43.23 114.7,-29.97"/>
<polygon fill="midnightblue" stroke="midnightblue" points="118.21,-29.9 115.32,-19.71 111.23,-29.48 118.21,-29.9"/>
</g>
<!-- Node2&#45;&gt;Node3 -->
<g id="edge2" class="edge">
<title>Node2&#45;&gt;Node3</title>
<path fill="none" stroke="midnightblue" d="M65.23,-56.08C58.96,-48.38 49.71,-37.03 42.07,-27.65"/>
<polygon fill="midnightblue" stroke="midnightblue" points="44.66,-25.29 35.63,-19.75 39.23,-29.71 44.66,-25.29"/>
</g>
<!-- Node2&#45;&gt;Node4 -->
<g id="edge3" class="edge">
<title>Node2&#45;&gt;Node4</title>
<path fill="none" stroke="midnightblue" d="M79.6,-56.08C85.74,-48.38 94.77,-37.03 102.24,-27.65"/>
<polygon fill="midnightblue" stroke="midnightblue" points="105.04,-29.75 108.53,-19.75 99.56,-25.39 105.04,-29.75"/>
</g>
</g>
</svg>
