<?xml version="1.0" encoding="UTF-8" standalone="no"?>
<!DOCTYPE svg PUBLIC "-//W3C//DTD SVG 1.1//EN"
 "http://www.w3.org/Graphics/SVG/1.1/DTD/svg11.dtd">
<!-- Generated by graphviz version 8.0.2 (20230410.1723)
 -->
<!-- Title: create_file_descriptor Pages: 1 -->
<svg width="578pt" height="156pt"
 viewBox="0.00 0.00 578.00 156.00" xmlns="http://www.w3.org/2000/svg" xmlns:xlink="http://www.w3.org/1999/xlink">
<g id="graph0" class="graph" transform="scale(1 1) rotate(0) translate(4 152)">
<title>create_file_descriptor</title>
<!-- Node1 -->
<g id="Node000001" class="node">
<title>Node1</title>
<g id="a_Node000001"><a xlink:title=" ">
<polygon fill="#999999" stroke="#666666" points="570,-75 460,-75 460,-56 570,-56 570,-75"/>
<text text-anchor="middle" x="515" y="-63" font-family="Helvetica,sans-Serif" font-size="10.00">create_file_descriptor</text>
</a>
</g>
</g>
<!-- Node1&#45;&gt;Node1 -->
<g id="edge1_Node000001_Node000001" class="edge">
<title>Node1&#45;&gt;Node1</title>
<g id="a_edge1_Node000001_Node000001"><a xlink:title=" ">
<path fill="none" stroke="#63b8ff" d="M535.81,-85.76C533.62,-89.97 526.69,-93 515,-93 494.79,-93 488.78,-83.94 497,-75.37"/>
<polygon fill="#63b8ff" stroke="#63b8ff" points="538.99,-85.11 533,-76.37 532.23,-86.93 538.99,-85.11"/>
</a>
</g>
</g>
<!-- Node2 -->
<g id="Node000002" class="node">
<title>Node2</title>
<g id="a_Node000002"><a xlink:href="k__open_8c.html#a8665b78926682de513294b0733aa72e4" target="_top" xlink:title=" ">
<polygon fill="white" stroke="#666666" points="424,-75 376,-75 376,-56 424,-56 424,-75"/>
<text text-anchor="middle" x="400" y="-63" font-family="Helvetica,sans-Serif" font-size="10.00">k_open</text>
</a>
</g>
</g>
<!-- Node1&#45;&gt;Node2 -->
<g id="edge2_Node000001_Node000002" class="edge">
<title>Node1&#45;&gt;Node2</title>
<g id="a_edge2_Node000001_Node000002"><a xlink:title=" ">
<path fill="none" stroke="#63b8ff" d="M449.03,-65.5C440.25,-65.5 431.76,-65.5 424.41,-65.5"/>
<polygon fill="#63b8ff" stroke="#63b8ff" points="448.82,-69 458.82,-65.5 448.82,-62 448.82,-69"/>
</a>
</g>
</g>
<!-- Node2&#45;&gt;Node2 -->
<g id="edge3_Node000002_Node000002" class="edge">
<title>Node2&#45;&gt;Node2</title>
<g id="a_edge3_Node000002_Node000002"><a xlink:title=" ">
<path fill="none" stroke="#63b8ff" d="M415.78,-86.1C413.96,-90.13 408.7,-93 400,-93 384.53,-93 379.94,-83.94 386.22,-75.37"/>
<polygon fill="#63b8ff" stroke="#63b8ff" points="419.05,-85.56 413.78,-76.37 412.17,-86.84 419.05,-85.56"/>
</a>
</g>
</g>
<!-- Node3 -->
<g id="Node000003" class="node">
<title>Node3</title>
<g id="a_Node000003"><a xlink:href="k__openat_8c.html#a256d0b3f99e3a51b61a5f92da3237787" target="_top" xlink:title=" ">
<polygon fill="white" stroke="#666666" points="340,-113 284,-113 284,-94 340,-94 340,-113"/>
<text text-anchor="middle" x="312" y="-101" font-family="Helvetica,sans-Serif" font-size="10.00">k_openat</text>
</a>
</g>
</g>
<!-- Node2&#45;&gt;Node3 -->
<g id="edge4_Node000002_Node000003" class="edge">
<title>Node2&#45;&gt;Node3</title>
<g id="a_edge4_Node000002_Node000003"><a xlink:title=" ">
<path fill="none" stroke="#63b8ff" d="M366.45,-79.88C356.11,-84.45 344.91,-89.4 335.44,-93.58"/>
<polygon fill="#63b8ff" stroke="#63b8ff" points="367.67,-82.73 375.4,-75.48 364.84,-76.32 367.67,-82.73"/>
</a>
</g>
</g>
<!-- Node5 -->
<g id="Node000005" class="node">
<title>Node5</title>
<g id="a_Node000005"><a xlink:href="k__syscall_8c.html#a581ed37968ead91b6d3a0b3b7a71da9d" target="_top" xlink:title=" ">
<polygon fill="white" stroke="#666666" points="248,-75 183,-75 183,-56 248,-56 248,-75"/>
<text text-anchor="middle" x="215.5" y="-63" font-family="Helvetica,sans-Serif" font-size="10.00">syscall_init</text>
</a>
</g>
</g>
<!-- Node2&#45;&gt;Node5 -->
<g id="edge17_Node000002_Node000005" class="edge">
<title>Node2&#45;&gt;Node5</title>
<g id="a_edge17_Node000002_Node000005"><a xlink:title=" ">
<path fill="none" stroke="#63b8ff" d="M364.9,-65.5C331.54,-65.5 281.11,-65.5 248.48,-65.5"/>
<polygon fill="#63b8ff" stroke="#63b8ff" points="364.51,-69 374.51,-65.5 364.51,-62 364.51,-69"/>
</a>
</g>
</g>
<!-- Node9 -->
<g id="Node000009" class="node">
<title>Node9</title>
<g id="a_Node000009"><a xlink:href="open_8c.html#ab7c31bf64ff68f61762bda6e72e255d6" target="_top" xlink:title=" ">
<polygon fill="white" stroke="#666666" points="331,-19 293,-19 293,0 331,0 331,-19"/>
<text text-anchor="middle" x="312" y="-7" font-family="Helvetica,sans-Serif" font-size="10.00">open</text>
</a>
</g>
</g>
<!-- Node2&#45;&gt;Node9 -->
<g id="edge13_Node000002_Node000009" class="edge">
<title>Node2&#45;&gt;Node9</title>
<g id="a_edge13_Node000002_Node000009"><a xlink:title=" ">
<path fill="none" stroke="#63b8ff" d="M374.81,-49.75C359.81,-39.98 341,-27.73 328.1,-19.33"/>
<polygon fill="#63b8ff" stroke="#63b8ff" points="372.73,-53.22 383.02,-55.75 376.55,-47.36 372.73,-53.22"/>
</a>
</g>
</g>
<!-- Node3&#45;&gt;Node3 -->
<g id="edge5_Node000003_Node000003" class="edge">
<title>Node3&#45;&gt;Node3</title>
<g id="a_edge5_Node000003_Node000003"><a xlink:title=" ">
<path fill="none" stroke="#63b8ff" d="M327.78,-124.1C325.96,-128.13 320.7,-131 312,-131 296.53,-131 291.94,-121.94 298.22,-113.37"/>
<polygon fill="#63b8ff" stroke="#63b8ff" points="331.05,-123.56 325.78,-114.37 324.17,-124.84 331.05,-123.56"/>
</a>
</g>
</g>
<!-- Node4 -->
<g id="Node000004" class="node">
<title>Node4</title>
<g id="a_Node000004"><a xlink:href="openat_8c.html#ae49d1c90a87f9ab8500b66a5662bc0a8" target="_top" xlink:title=" ">
<polygon fill="white" stroke="#666666" points="238.5,-130 192.5,-130 192.5,-111 238.5,-111 238.5,-130"/>
<text text-anchor="middle" x="215.5" y="-118" font-family="Helvetica,sans-Serif" font-size="10.00">openat</text>
</a>
</g>
</g>
<!-- Node3&#45;&gt;Node4 -->
<g id="edge6_Node000003_Node000004" class="edge">
<title>Node3&#45;&gt;Node4</title>
<g id="a_edge6_Node000003_Node000004"><a xlink:title=" ">
<path fill="none" stroke="#63b8ff" d="M272.95,-110.35C261.43,-112.42 249.15,-114.63 239,-116.45"/>
<polygon fill="#63b8ff" stroke="#63b8ff" points="273.44,-113.63 282.67,-108.42 272.2,-106.74 273.44,-113.63"/>
</a>
</g>
</g>
<!-- Node3&#45;&gt;Node5 -->
<g id="edge8_Node000003_Node000005" class="edge">
<title>Node3&#45;&gt;Node5</title>
<g id="a_edge8_Node000003_Node000005"><a xlink:title=" ">
<path fill="none" stroke="#63b8ff" d="M276.29,-89.54C264.64,-84.86 251.89,-79.73 241.16,-75.42"/>
<polygon fill="#63b8ff" stroke="#63b8ff" points="274.59,-93.03 285.17,-93.52 277.2,-86.54 274.59,-93.03"/>
</a>
</g>
</g>
<!-- Node4&#45;&gt;Node4 -->
<g id="edge7_Node000004_Node000004" class="edge">
<title>Node4&#45;&gt;Node4</title>
<g id="a_edge7_Node000004_Node000004"><a xlink:title=" ">
<path fill="none" stroke="#63b8ff" d="M232.8,-141.1C230.81,-145.13 225.04,-148 215.5,-148 198.54,-148 193.5,-138.94 200.39,-130.37"/>
<polygon fill="#63b8ff" stroke="#63b8ff" points="236.04,-140.46 230.61,-131.37 229.18,-141.87 236.04,-140.46"/>
</a>
</g>
</g>
<!-- Node5&#45;&gt;Node5 -->
<g id="edge12_Node000005_Node000005" class="edge">
<title>Node5&#45;&gt;Node5</title>
<g id="a_edge12_Node000005_Node000005"><a xlink:title=" ">
<path fill="none" stroke="#63b8ff" d="M232.8,-86.1C230.81,-90.13 225.04,-93 215.5,-93 198.54,-93 193.5,-83.94 200.39,-75.37"/>
<polygon fill="#63b8ff" stroke="#63b8ff" points="236.04,-85.46 230.61,-76.37 229.18,-86.87 236.04,-85.46"/>
</a>
</g>
</g>
<!-- Node6 -->
<g id="Node000006" class="node">
<title>Node6</title>
<g id="a_Node000006"><a xlink:href="kmain_8c.html#a666c17b307920a60e50fcf56312f9500" target="_top" xlink:title=" ">
<polygon fill="white" stroke="#666666" points="147,-75 79,-75 79,-56 147,-56 147,-75"/>
<text text-anchor="middle" x="113" y="-63" font-family="Helvetica,sans-Serif" font-size="10.00">kmain_start</text>
</a>
</g>
</g>
<!-- Node5&#45;&gt;Node6 -->
<g id="edge9_Node000005_Node000006" class="edge">
<title>Node5&#45;&gt;Node6</title>
<g id="a_edge9_Node000005_Node000006"><a xlink:title=" ">
<path fill="none" stroke="#63b8ff" d="M171.8,-65.5C163.61,-65.5 155.16,-65.5 147.33,-65.5"/>
<polygon fill="#63b8ff" stroke="#63b8ff" points="171.7,-69 181.7,-65.5 171.7,-62 171.7,-69"/>
</a>
</g>
</g>
<!-- Node7 -->
<g id="Node000007" class="node">
<title>Node7</title>
<g id="a_Node000007"><a xlink:href="arch_2aarch32_2board_2raspi2_2kmain_8c.html#a798325fe646ee31fccf3f735f9bbaf60" target="_top" xlink:title=" ">
<polygon fill="white" stroke="#666666" points="43,-94 0,-94 0,-75 43,-75 43,-94"/>
<text text-anchor="middle" x="21.5" y="-82" font-family="Helvetica,sans-Serif" font-size="10.00">kmain</text>
</a>
</g>
</g>
<!-- Node6&#45;&gt;Node7 -->
<g id="edge10_Node000006_Node000007" class="edge">
<title>Node6&#45;&gt;Node7</title>
<g id="a_edge10_Node000006_Node000007"><a xlink:title=" ">
<path fill="none" stroke="#63b8ff" d="M67.93,-74.86C59.36,-76.67 50.76,-78.5 43.38,-80.07"/>
<polygon fill="#63b8ff" stroke="#63b8ff" points="68.62,-78.08 77.67,-72.57 67.16,-71.23 68.62,-78.08"/>
</a>
</g>
</g>
<!-- Node8 -->
<g id="Node000008" class="node">
<title>Node8</title>
<g id="a_Node000008"><a xlink:href="arch_2x86__64_2kmain_8c.html#ad6d3bd9ddd2519d6040e79426dc57fb5" target="_top" xlink:title=" ">
<polygon fill="white" stroke="#666666" points="43,-57 0,-57 0,-38 43,-38 43,-57"/>
<text text-anchor="middle" x="21.5" y="-45" font-family="Helvetica,sans-Serif" font-size="10.00">kmain</text>
</a>
</g>
</g>
<!-- Node6&#45;&gt;Node8 -->
<g id="edge11_Node000006_Node000008" class="edge">
<title>Node6&#45;&gt;Node8</title>
<g id="a_edge11_Node000006_Node000008"><a xlink:title=" ">
<path fill="none" stroke="#63b8ff" d="M67.93,-56.64C59.36,-54.91 50.76,-53.18 43.38,-51.7"/>
<polygon fill="#63b8ff" stroke="#63b8ff" points="67.18,-60.26 77.67,-58.8 68.56,-53.39 67.18,-60.26"/>
</a>
</g>
</g>
<!-- Node9&#45;&gt;Node9 -->
<g id="edge16_Node000009_Node000009" class="edge">
<title>Node9&#45;&gt;Node9</title>
<g id="a_edge16_Node000009_Node000009"><a xlink:title=" ">
<path fill="none" stroke="#63b8ff" d="M327.78,-30.1C325.96,-34.13 320.7,-37 312,-37 296.53,-37 291.94,-27.94 298.22,-19.37"/>
<polygon fill="#63b8ff" stroke="#63b8ff" points="331.05,-29.56 325.78,-20.37 324.17,-30.84 331.05,-29.56"/>
</a>
</g>
</g>
<!-- Node10 -->
<g id="Node000010" class="node">
<title>Node10</title>
<g id="a_Node000010"><a xlink:href="inish_8c.html#a6c6783a2593b39ce4914819912297092" target="_top" xlink:title=" ">
<polygon fill="white" stroke="#666666" points="245.5,-19 185.5,-19 185.5,0 245.5,0 245.5,-19"/>
<text text-anchor="middle" x="215.5" y="-7" font-family="Helvetica,sans-Serif" font-size="10.00">inish_load</text>
</a>
</g>
</g>
<!-- Node9&#45;&gt;Node10 -->
<g id="edge14_Node000009_Node000010" class="edge">
<title>Node9&#45;&gt;Node10</title>
<g id="a_edge14_Node000009_Node000010"><a xlink:title=" ">
<path fill="none" stroke="#63b8ff" d="M281.99,-9.5C270.51,-9.5 257.33,-9.5 245.82,-9.5"/>
<polygon fill="#63b8ff" stroke="#63b8ff" points="281.78,-13 291.78,-9.5 281.78,-6 281.78,-13"/>
</a>
</g>
</g>
<!-- Node10&#45;&gt;Node10 -->
<g id="edge15_Node000010_Node000010" class="edge">
<title>Node10&#45;&gt;Node10</title>
<g id="a_edge15_Node000010_Node000010"><a xlink:title=" ">
<path fill="none" stroke="#63b8ff" d="M232.8,-30.1C230.81,-34.13 225.04,-37 215.5,-37 198.54,-37 193.5,-27.94 200.39,-19.37"/>
<polygon fill="#63b8ff" stroke="#63b8ff" points="236.04,-29.46 230.61,-20.37 229.18,-30.87 236.04,-29.46"/>
</a>
</g>
</g>
</g>
</svg>
