<?xml version="1.0" encoding="UTF-8" standalone="no"?>
<!DOCTYPE svg PUBLIC "-//W3C//DTD SVG 1.1//EN"
 "http://www.w3.org/Graphics/SVG/1.1/DTD/svg11.dtd">
<!-- Generated by graphviz version 8.0.2 (20230410.1723)
 -->
<!-- Title: include/kernel/proc/descriptor.h Pages: 1 -->
<svg width="202pt" height="203pt"
 viewBox="0.00 0.00 201.50 203.00" xmlns="http://www.w3.org/2000/svg" xmlns:xlink="http://www.w3.org/1999/xlink">
<g id="graph0" class="graph" transform="scale(1 1) rotate(0) translate(4 199)">
<title>include/kernel/proc/descriptor.h</title>
<!-- Node1 -->
<g id="Node000001" class="node">
<title>Node1</title>
<g id="a_Node000001"><a xlink:title=" ">
<polygon fill="#999999" stroke="#666666" points="138.5,-195 40.5,-195 40.5,-165 138.5,-165 138.5,-195"/>
<text text-anchor="start" x="48.5" y="-183" font-family="Helvetica,sans-Serif" font-size="10.00">include/kernel/proc</text>
<text text-anchor="middle" x="89.5" y="-172" font-family="Helvetica,sans-Serif" font-size="10.00">/descriptor.h</text>
</a>
</g>
</g>
<!-- Node2 -->
<g id="Node000002" class="node">
<title>Node2</title>
<g id="a_Node000002"><a xlink:href="vfs_8h.html" target="_top" xlink:title=" ">
<polygon fill="white" stroke="#666666" points="141.5,-129 91.5,-129 91.5,-110 141.5,-110 141.5,-129"/>
<text text-anchor="middle" x="116.5" y="-117" font-family="Helvetica,sans-Serif" font-size="10.00">fs/vfs.h</text>
</a>
</g>
</g>
<!-- Node1&#45;&gt;Node2 -->
<g id="edge1_Node000001_Node000002" class="edge">
<title>Node1&#45;&gt;Node2</title>
<g id="a_edge1_Node000001_Node000002"><a xlink:title=" ">
<path fill="none" stroke="#63b8ff" d="M96.17,-164.54C99.74,-156.82 104.16,-147.24 107.97,-138.99"/>
<polygon fill="#63b8ff" stroke="#63b8ff" points="111.48,-140.72 112.5,-130.18 105.13,-137.79 111.48,-140.72"/>
</a>
</g>
</g>
<!-- Node3 -->
<g id="Node000003" class="node">
<title>Node3</title>
<g id="a_Node000003"><a xlink:title=" ">
<polygon fill="#e0e0e0" stroke="#999999" points="193.5,-19 137.5,-19 137.5,0 193.5,0 193.5,-19"/>
<text text-anchor="middle" x="165.5" y="-7" font-family="Helvetica,sans-Serif" font-size="10.00">stdbool.h</text>
</a>
</g>
</g>
<!-- Node1&#45;&gt;Node3 -->
<g id="edge8_Node000001_Node000003" class="edge">
<title>Node1&#45;&gt;Node3</title>
<g id="a_edge8_Node000001_Node000003"><a xlink:title=" ">
<path fill="none" stroke="#63b8ff" d="M114.88,-164.68C127.72,-156.06 142.28,-143.86 150.5,-129 167.84,-97.64 168.6,-54.62 167.27,-29.97"/>
<polygon fill="#63b8ff" stroke="#63b8ff" points="170.7,-29.92 166.48,-20.2 163.72,-30.43 170.7,-29.92"/>
</a>
</g>
</g>
<!-- Node4 -->
<g id="Node000004" class="node">
<title>Node4</title>
<g id="a_Node000004"><a xlink:title=" ">
<polygon fill="#e0e0e0" stroke="#999999" points="49,-19 0,-19 0,0 49,0 49,-19"/>
<text text-anchor="middle" x="24.5" y="-7" font-family="Helvetica,sans-Serif" font-size="10.00">stdint.h</text>
</a>
</g>
</g>
<!-- Node1&#45;&gt;Node4 -->
<g id="edge9_Node000001_Node000004" class="edge">
<title>Node1&#45;&gt;Node4</title>
<g id="a_edge9_Node000001_Node000004"><a xlink:title=" ">
<path fill="none" stroke="#63b8ff" d="M80.33,-164.67C68.19,-145.01 46.96,-108.21 35.5,-74 30.71,-59.69 27.91,-42.83 26.34,-30.08"/>
<polygon fill="#63b8ff" stroke="#63b8ff" points="29.73,-29.9 25.18,-20.33 22.77,-30.65 29.73,-29.9"/>
</a>
</g>
</g>
<!-- Node5 -->
<g id="Node000005" class="node">
<title>Node5</title>
<g id="a_Node000005"><a xlink:href="types_8h.html" target="_top" xlink:title=" ">
<polygon fill="white" stroke="#666666" points="127.5,-74 59.5,-74 59.5,-55 127.5,-55 127.5,-74"/>
<text text-anchor="middle" x="93.5" y="-62" font-family="Helvetica,sans-Serif" font-size="10.00">sys/types.h</text>
</a>
</g>
</g>
<!-- Node1&#45;&gt;Node5 -->
<g id="edge10_Node000001_Node000005" class="edge">
<title>Node1&#45;&gt;Node5</title>
<g id="a_edge10_Node000001_Node000005"><a xlink:title=" ">
<path fill="none" stroke="#63b8ff" d="M86.2,-164.71C83.41,-150.74 80.2,-128.88 82.5,-110 83.52,-101.61 85.59,-92.51 87.66,-84.75"/>
<polygon fill="#63b8ff" stroke="#63b8ff" points="91.28,-85.82 90.67,-75.25 84.55,-83.9 91.28,-85.82"/>
</a>
</g>
</g>
<!-- Node2&#45;&gt;Node3 -->
<g id="edge2_Node000002_Node000003" class="edge">
<title>Node2&#45;&gt;Node3</title>
<g id="a_edge2_Node000002_Node000003"><a xlink:title=" ">
<path fill="none" stroke="#63b8ff" d="M120.51,-109.66C128.44,-92.18 146.29,-52.84 156.97,-29.3"/>
<polygon fill="#63b8ff" stroke="#63b8ff" points="160.49,-31.01 161.43,-20.46 154.12,-28.12 160.49,-31.01"/>
</a>
</g>
</g>
<!-- Node2&#45;&gt;Node4 -->
<g id="edge3_Node000002_Node000004" class="edge">
<title>Node2&#45;&gt;Node4</title>
<g id="a_edge3_Node000002_Node000004"><a xlink:title=" ">
<path fill="none" stroke="#63b8ff" d="M97.47,-109.58C82.91,-101.92 63.24,-89.65 50.5,-74 39.92,-60.99 33.11,-43.09 29.13,-29.61"/>
<polygon fill="#63b8ff" stroke="#63b8ff" points="32.29,-28.89 26.33,-20.13 25.53,-30.7 32.29,-28.89"/>
</a>
</g>
</g>
<!-- Node2&#45;&gt;Node5 -->
<g id="edge4_Node000002_Node000005" class="edge">
<title>Node2&#45;&gt;Node5</title>
<g id="a_edge4_Node000002_Node000005"><a xlink:title=" ">
<path fill="none" stroke="#63b8ff" d="M112.7,-109.75C109.72,-102.88 105.47,-93.08 101.72,-84.45"/>
<polygon fill="#63b8ff" stroke="#63b8ff" points="104.57,-83.22 97.38,-75.44 98.15,-86.01 104.57,-83.22"/>
</a>
</g>
</g>
<!-- Node5&#45;&gt;Node3 -->
<g id="edge5_Node000005_Node000003" class="edge">
<title>Node5&#45;&gt;Node3</title>
<g id="a_edge5_Node000005_Node000003"><a xlink:title=" ">
<path fill="none" stroke="#63b8ff" d="M105.71,-54.51C116.43,-46.62 132.24,-34.98 144.91,-25.65"/>
<polygon fill="#63b8ff" stroke="#63b8ff" points="146.49,-28.1 152.47,-19.36 142.34,-22.47 146.49,-28.1"/>
</a>
</g>
</g>
<!-- Node5&#45;&gt;Node4 -->
<g id="edge7_Node000005_Node000004" class="edge">
<title>Node5&#45;&gt;Node4</title>
<g id="a_edge7_Node000005_Node000004"><a xlink:title=" ">
<path fill="none" stroke="#63b8ff" d="M81.8,-54.51C71.62,-46.7 56.67,-35.21 44.58,-25.93"/>
<polygon fill="#63b8ff" stroke="#63b8ff" points="47.09,-22.67 37.03,-19.36 42.83,-28.23 47.09,-22.67"/>
</a>
</g>
</g>
<!-- Node6 -->
<g id="Node000006" class="node">
<title>Node6</title>
<g id="a_Node000006"><a xlink:title=" ">
<polygon fill="#e0e0e0" stroke="#999999" points="119.5,-19 67.5,-19 67.5,0 119.5,0 119.5,-19"/>
<text text-anchor="middle" x="93.5" y="-7" font-family="Helvetica,sans-Serif" font-size="10.00">stddef.h</text>
</a>
</g>
</g>
<!-- Node5&#45;&gt;Node6 -->
<g id="edge6_Node000005_Node000006" class="edge">
<title>Node5&#45;&gt;Node6</title>
<g id="a_edge6_Node000005_Node000006"><a xlink:title=" ">
<path fill="none" stroke="#63b8ff" d="M93.5,-54.75C93.5,-48.11 93.5,-38.73 93.5,-30.31"/>
<polygon fill="#63b8ff" stroke="#63b8ff" points="97,-30.44 93.5,-20.44 90,-30.44 97,-30.44"/>
</a>
</g>
</g>
</g>
</svg>
