<?xml version="1.0" encoding="UTF-8" standalone="no"?>
<!DOCTYPE svg PUBLIC "-//W3C//DTD SVG 1.1//EN"
 "http://www.w3.org/Graphics/SVG/1.1/DTD/svg11.dtd">
<!-- Generated by graphviz version 2.49.3 (20211023.0002)
 -->
<!-- Title: include/kernel/proc/descriptor.h Pages: 1 -->
<svg width="203pt" height="207pt"
 viewBox="0.00 0.00 203.00 207.00" xmlns="http://www.w3.org/2000/svg" xmlns:xlink="http://www.w3.org/1999/xlink">
<g id="graph0" class="graph" transform="scale(1 1) rotate(0) translate(4 203)">
<title>include/kernel/proc/descriptor.h</title>
<!-- Node1 -->
<g id="node1" class="node">
<title>Node1</title>
<g id="a_node1"><a xlink:title=" ">
<polygon fill="#bfbfbf" stroke="black" points="41.5,-168.5 41.5,-198.5 141.5,-198.5 141.5,-168.5 41.5,-168.5"/>
<text text-anchor="start" x="49.5" y="-186.5" font-family="Helvetica,sans-Serif" font-size="10.00">include/kernel/proc</text>
<text text-anchor="middle" x="91.5" y="-175.5" font-family="Helvetica,sans-Serif" font-size="10.00">/descriptor.h</text>
</a>
</g>
</g>
<!-- Node2 -->
<g id="node2" class="node">
<title>Node2</title>
<g id="a_node2"><a xlink:href="vfs_8h.html" target="_top" xlink:title=" ">
<polygon fill="none" stroke="black" points="93.5,-112.5 93.5,-131.5 141.5,-131.5 141.5,-112.5 93.5,-112.5"/>
<text text-anchor="middle" x="117.5" y="-119.5" font-family="Helvetica,sans-Serif" font-size="10.00">fs/vfs.h</text>
</a>
</g>
</g>
<!-- Node1&#45;&gt;Node2 -->
<g id="edge1" class="edge">
<title>Node1&#45;&gt;Node2</title>
<path fill="none" stroke="midnightblue" d="M97.66,-168.4C101.24,-160.2 105.8,-149.78 109.64,-140.99"/>
<polygon fill="midnightblue" stroke="midnightblue" points="112.92,-142.22 113.72,-131.66 106.51,-139.42 112.92,-142.22"/>
</g>
<!-- Node3 -->
<g id="node3" class="node">
<title>Node3</title>
<g id="a_node3"><a xlink:title=" ">
<polygon fill="none" stroke="#bfbfbf" points="138,-0.5 138,-19.5 195,-19.5 195,-0.5 138,-0.5"/>
<text text-anchor="middle" x="166.5" y="-7.5" font-family="Helvetica,sans-Serif" font-size="10.00">stdbool.h</text>
</a>
</g>
</g>
<!-- Node1&#45;&gt;Node3 -->
<g id="edge8" class="edge">
<title>Node1&#45;&gt;Node3</title>
<path fill="none" stroke="midnightblue" d="M115.12,-168.42C127.75,-159.6 142.33,-147.05 150.5,-132 168.21,-99.36 169.17,-54.71 168.02,-29.78"/>
<polygon fill="midnightblue" stroke="midnightblue" points="171.49,-29.31 167.36,-19.55 164.51,-29.75 171.49,-29.31"/>
</g>
<!-- Node4 -->
<g id="node4" class="node">
<title>Node4</title>
<g id="a_node4"><a xlink:title=" ">
<polygon fill="none" stroke="#bfbfbf" points="0,-0.5 0,-19.5 49,-19.5 49,-0.5 0,-0.5"/>
<text text-anchor="middle" x="24.5" y="-7.5" font-family="Helvetica,sans-Serif" font-size="10.00">stdint.h</text>
</a>
</g>
</g>
<!-- Node1&#45;&gt;Node4 -->
<g id="edge9" class="edge">
<title>Node1&#45;&gt;Node4</title>
<path fill="none" stroke="midnightblue" d="M81.92,-168.39C69,-148.64 46.25,-111.21 34.5,-76 29.47,-60.92 26.95,-43.02 25.7,-29.83"/>
<polygon fill="midnightblue" stroke="midnightblue" points="29.18,-29.32 24.9,-19.63 22.2,-29.87 29.18,-29.32"/>
</g>
<!-- Node5 -->
<g id="node5" class="node">
<title>Node5</title>
<g id="a_node5"><a xlink:href="types_8h.html" target="_top" xlink:title=" ">
<polygon fill="none" stroke="black" points="60,-56.5 60,-75.5 127,-75.5 127,-56.5 60,-56.5"/>
<text text-anchor="middle" x="93.5" y="-63.5" font-family="Helvetica,sans-Serif" font-size="10.00">sys/types.h</text>
</a>
</g>
</g>
<!-- Node1&#45;&gt;Node5 -->
<g id="edge10" class="edge">
<title>Node1&#45;&gt;Node5</title>
<path fill="none" stroke="midnightblue" d="M88.47,-168.46C85.78,-154.23 82.56,-131.58 84.5,-112 85.37,-103.17 87.19,-93.51 88.97,-85.4"/>
<polygon fill="midnightblue" stroke="midnightblue" points="92.4,-86.08 91.27,-75.55 85.58,-84.49 92.4,-86.08"/>
</g>
<!-- Node2&#45;&gt;Node3 -->
<g id="edge2" class="edge">
<title>Node2&#45;&gt;Node3</title>
<path fill="none" stroke="midnightblue" d="M121.34,-112.37C129.32,-94.46 147.83,-52.92 158.5,-28.95"/>
<polygon fill="midnightblue" stroke="midnightblue" points="161.8,-30.15 162.67,-19.59 155.41,-27.3 161.8,-30.15"/>
</g>
<!-- Node2&#45;&gt;Node4 -->
<g id="edge3" class="edge">
<title>Node2&#45;&gt;Node4</title>
<path fill="none" stroke="midnightblue" d="M99.38,-112.39C84.76,-104.64 64.54,-92.03 51.5,-76 40.42,-62.39 33.28,-43.59 29.14,-29.71"/>
<polygon fill="midnightblue" stroke="midnightblue" points="32.45,-28.56 26.45,-19.83 25.7,-30.4 32.45,-28.56"/>
</g>
<!-- Node2&#45;&gt;Node5 -->
<g id="edge4" class="edge">
<title>Node2&#45;&gt;Node5</title>
<path fill="none" stroke="midnightblue" d="M113.54,-112.08C110.29,-104.77 105.58,-94.18 101.55,-85.1"/>
<polygon fill="midnightblue" stroke="midnightblue" points="104.65,-83.47 97.39,-75.75 98.25,-86.31 104.65,-83.47"/>
</g>
<!-- Node5&#45;&gt;Node3 -->
<g id="edge5" class="edge">
<title>Node5&#45;&gt;Node3</title>
<path fill="none" stroke="midnightblue" d="M105.23,-56.32C116.34,-48.11 133.24,-35.6 146.48,-25.81"/>
<polygon fill="midnightblue" stroke="midnightblue" points="148.6,-28.59 154.56,-19.83 144.44,-22.97 148.6,-28.59"/>
</g>
<!-- Node5&#45;&gt;Node4 -->
<g id="edge7" class="edge">
<title>Node5&#45;&gt;Node4</title>
<path fill="none" stroke="midnightblue" d="M82.41,-56.32C72.01,-48.18 56.24,-35.84 43.78,-26.09"/>
<polygon fill="midnightblue" stroke="midnightblue" points="45.82,-23.24 35.79,-19.83 41.51,-28.75 45.82,-23.24"/>
</g>
<!-- Node6 -->
<g id="node6" class="node">
<title>Node6</title>
<g id="a_node6"><a xlink:title=" ">
<polygon fill="none" stroke="#bfbfbf" points="67.5,-0.5 67.5,-19.5 119.5,-19.5 119.5,-0.5 67.5,-0.5"/>
<text text-anchor="middle" x="93.5" y="-7.5" font-family="Helvetica,sans-Serif" font-size="10.00">stddef.h</text>
</a>
</g>
</g>
<!-- Node5&#45;&gt;Node6 -->
<g id="edge6" class="edge">
<title>Node5&#45;&gt;Node6</title>
<path fill="none" stroke="midnightblue" d="M93.5,-56.08C93.5,-49.01 93.5,-38.86 93.5,-29.99"/>
<polygon fill="midnightblue" stroke="midnightblue" points="97,-29.75 93.5,-19.75 90,-29.75 97,-29.75"/>
</g>
</g>
</svg>
