<?xml version="1.0" encoding="UTF-8" standalone="no"?>
<!DOCTYPE svg PUBLIC "-//W3C//DTD SVG 1.1//EN"
 "http://www.w3.org/Graphics/SVG/1.1/DTD/svg11.dtd">
<!-- Generated by graphviz version 9.0.0 (20230911.1827)
 -->
<!-- Title: include/kernel/proc/descriptor.h Pages: 1 -->
<svg width="200pt" height="204pt"
 viewBox="0.00 0.00 200.00 204.25" xmlns="http://www.w3.org/2000/svg" xmlns:xlink="http://www.w3.org/1999/xlink">
<g id="graph0" class="graph" transform="scale(1 1) rotate(0) translate(4 200.25)">
<title>include/kernel/proc/descriptor.h</title>
<!-- Node1 -->
<g id="Node000001" class="node">
<title>Node1</title>
<g id="a_Node000001"><a xlink:title=" ">
<polygon fill="#999999" stroke="#666666" points="137,-196.25 39.25,-196.25 39.25,-165.75 137,-165.75 137,-196.25"/>
<text text-anchor="start" x="47.25" y="-182.75" font-family="Helvetica,sans-Serif" font-size="10.00">include/kernel/proc</text>
<text text-anchor="middle" x="88.12" y="-171.5" font-family="Helvetica,sans-Serif" font-size="10.00">/descriptor.h</text>
</a>
</g>
</g>
<!-- Node2 -->
<g id="Node000002" class="node">
<title>Node2</title>
<g id="a_Node000002"><a xlink:href="vfs_8h.html" target="_top" xlink:title=" ">
<polygon fill="white" stroke="#666666" points="139.62,-129.75 90.62,-129.75 90.62,-110.5 139.62,-110.5 139.62,-129.75"/>
<text text-anchor="middle" x="115.12" y="-116.25" font-family="Helvetica,sans-Serif" font-size="10.00">fs/vfs.h</text>
</a>
</g>
</g>
<!-- Node1&#45;&gt;Node2 -->
<g id="edge1_Node000001_Node000002" class="edge">
<title>Node1&#45;&gt;Node2</title>
<g id="a_edge1_Node000001_Node000002"><a xlink:title=" ">
<path fill="none" stroke="#63b8ff" d="M94.8,-165.45C98.24,-157.95 102.48,-148.7 106.2,-140.6"/>
<polygon fill="#63b8ff" stroke="#63b8ff" points="109.34,-142.13 110.33,-131.58 102.98,-139.21 109.34,-142.13"/>
</a>
</g>
</g>
<!-- Node3 -->
<g id="Node000003" class="node">
<title>Node3</title>
<g id="a_Node000003"><a xlink:title=" ">
<polygon fill="#e0e0e0" stroke="#999999" points="192,-19.25 136.25,-19.25 136.25,0 192,0 192,-19.25"/>
<text text-anchor="middle" x="164.12" y="-5.75" font-family="Helvetica,sans-Serif" font-size="10.00">stdbool.h</text>
</a>
</g>
</g>
<!-- Node1&#45;&gt;Node3 -->
<g id="edge8_Node000001_Node000003" class="edge">
<title>Node1&#45;&gt;Node3</title>
<g id="a_edge8_Node000001_Node000003"><a xlink:title=" ">
<path fill="none" stroke="#63b8ff" d="M113.82,-165.37C126.58,-156.71 140.98,-144.53 149.12,-129.75 166.34,-98.5 167.24,-55.78 165.95,-30.91"/>
<polygon fill="#63b8ff" stroke="#63b8ff" points="169.46,-30.91 165.25,-21.19 162.47,-31.41 169.46,-30.91"/>
</a>
</g>
</g>
<!-- Node4 -->
<g id="Node000004" class="node">
<title>Node4</title>
<g id="a_Node000004"><a xlink:title=" ">
<polygon fill="#e0e0e0" stroke="#999999" points="48.25,-19.25 0,-19.25 0,0 48.25,0 48.25,-19.25"/>
<text text-anchor="middle" x="24.12" y="-5.75" font-family="Helvetica,sans-Serif" font-size="10.00">stdint.h</text>
</a>
</g>
</g>
<!-- Node1&#45;&gt;Node4 -->
<g id="edge9_Node000001_Node000004" class="edge">
<title>Node1&#45;&gt;Node4</title>
<g id="a_edge9_Node000001_Node000004"><a xlink:title=" ">
<path fill="none" stroke="#63b8ff" d="M78.67,-165.28C66.4,-145.47 45.25,-108.75 34.12,-74.5 29.49,-60.25 26.97,-43.49 25.62,-30.72"/>
<polygon fill="#63b8ff" stroke="#63b8ff" points="29.13,-30.67 24.76,-21.02 22.16,-31.29 29.13,-30.67"/>
</a>
</g>
</g>
<!-- Node5 -->
<g id="Node000005" class="node">
<title>Node5</title>
<g id="a_Node000005"><a xlink:href="types_8h.html" target="_top" xlink:title=" ">
<polygon fill="white" stroke="#666666" points="125.62,-74.5 58.62,-74.5 58.62,-55.25 125.62,-55.25 125.62,-74.5"/>
<text text-anchor="middle" x="92.12" y="-61" font-family="Helvetica,sans-Serif" font-size="10.00">sys/types.h</text>
</a>
</g>
</g>
<!-- Node1&#45;&gt;Node5 -->
<g id="edge10_Node000001_Node000005" class="edge">
<title>Node1&#45;&gt;Node5</title>
<g id="a_edge10_Node000001_Node000005"><a xlink:title=" ">
<path fill="none" stroke="#63b8ff" d="M85.19,-165.34C82.76,-151.26 80.03,-129.4 82.12,-110.5 83.03,-102.31 84.85,-93.43 86.68,-85.76"/>
<polygon fill="#63b8ff" stroke="#63b8ff" points="90.06,-86.69 89.17,-76.13 83.28,-84.94 90.06,-86.69"/>
</a>
</g>
</g>
<!-- Node2&#45;&gt;Node3 -->
<g id="edge2_Node000002_Node000003" class="edge">
<title>Node2&#45;&gt;Node3</title>
<g id="a_edge2_Node000002_Node000003"><a xlink:title=" ">
<path fill="none" stroke="#63b8ff" d="M119.13,-110.25C127.03,-92.76 144.75,-53.52 155.45,-29.84"/>
<polygon fill="#63b8ff" stroke="#63b8ff" points="158.51,-31.56 159.44,-21.01 152.13,-28.68 158.51,-31.56"/>
</a>
</g>
</g>
<!-- Node2&#45;&gt;Node4 -->
<g id="edge3_Node000002_Node000004" class="edge">
<title>Node2&#45;&gt;Node4</title>
<g id="a_edge3_Node000002_Node000004"><a xlink:title=" ">
<path fill="none" stroke="#63b8ff" d="M96.38,-110.11C82.04,-102.39 62.66,-90.07 50.12,-74.5 39.78,-61.65 33.04,-44.12 29.02,-30.68"/>
<polygon fill="#63b8ff" stroke="#63b8ff" points="32.44,-29.94 26.46,-21.19 25.68,-31.76 32.44,-29.94"/>
</a>
</g>
</g>
<!-- Node2&#45;&gt;Node5 -->
<g id="edge4_Node000002_Node000005" class="edge">
<title>Node2&#45;&gt;Node5</title>
<g id="a_edge4_Node000002_Node000005"><a xlink:title=" ">
<path fill="none" stroke="#63b8ff" d="M111.33,-110.33C108.38,-103.51 104.19,-93.81 100.47,-85.2"/>
<polygon fill="#63b8ff" stroke="#63b8ff" points="103.78,-84.04 96.61,-76.25 97.36,-86.82 103.78,-84.04"/>
</a>
</g>
</g>
<!-- Node5&#45;&gt;Node3 -->
<g id="edge5_Node000005_Node000003" class="edge">
<title>Node5&#45;&gt;Node3</title>
<g id="a_edge5_Node000005_Node000003"><a xlink:title=" ">
<path fill="none" stroke="#63b8ff" d="M104.34,-54.84C114.95,-46.99 130.56,-35.45 143.17,-26.12"/>
<polygon fill="#63b8ff" stroke="#63b8ff" points="144.92,-29.19 150.87,-20.42 140.75,-23.56 144.92,-29.19"/>
</a>
</g>
</g>
<!-- Node5&#45;&gt;Node4 -->
<g id="edge7_Node000005_Node000004" class="edge">
<title>Node5&#45;&gt;Node4</title>
<g id="a_edge7_Node000005_Node000004"><a xlink:title=" ">
<path fill="none" stroke="#63b8ff" d="M80.59,-54.84C70.66,-47.07 56.11,-35.67 44.27,-26.4"/>
<polygon fill="#63b8ff" stroke="#63b8ff" points="46.71,-23.87 36.68,-20.46 42.4,-29.38 46.71,-23.87"/>
</a>
</g>
</g>
<!-- Node6 -->
<g id="Node000006" class="node">
<title>Node6</title>
<g id="a_Node000006"><a xlink:title=" ">
<polygon fill="#e0e0e0" stroke="#999999" points="117.75,-19.25 66.5,-19.25 66.5,0 117.75,0 117.75,-19.25"/>
<text text-anchor="middle" x="92.12" y="-5.75" font-family="Helvetica,sans-Serif" font-size="10.00">stddef.h</text>
</a>
</g>
</g>
<!-- Node5&#45;&gt;Node6 -->
<g id="edge6_Node000005_Node000006" class="edge">
<title>Node5&#45;&gt;Node6</title>
<g id="a_edge6_Node000005_Node000006"><a xlink:title=" ">
<path fill="none" stroke="#63b8ff" d="M92.12,-55.08C92.12,-48.57 92.12,-39.42 92.12,-31.12"/>
<polygon fill="#63b8ff" stroke="#63b8ff" points="95.63,-31.12 92.13,-21.12 88.63,-31.12 95.63,-31.12"/>
</a>
</g>
</g>
</g>
</svg>
