<?xml version="1.0" encoding="UTF-8" standalone="no"?>
<!DOCTYPE svg PUBLIC "-//W3C//DTD SVG 1.1//EN"
 "http://www.w3.org/Graphics/SVG/1.1/DTD/svg11.dtd">
<!-- Generated by graphviz version 2.50.0 (20211204.2007)
 -->
<!-- Title: include/kernel/proc/descriptor.h Pages: 1 -->
<svg width="202pt" height="207pt"
 viewBox="0.00 0.00 201.50 207.00" xmlns="http://www.w3.org/2000/svg" xmlns:xlink="http://www.w3.org/1999/xlink">
<g id="graph0" class="graph" transform="scale(1 1) rotate(0) translate(4 203)">
<title>include/kernel/proc/descriptor.h</title>
<!-- Node1 -->
<g id="node1" class="node">
<title>Node1</title>
<g id="a_node1"><a xlink:title=" ">
<polygon fill="#bfbfbf" stroke="black" points="40.5,-168.5 40.5,-198.5 138.5,-198.5 138.5,-168.5 40.5,-168.5"/>
<text text-anchor="start" x="48.5" y="-186.5" font-family="Helvetica,sans-Serif" font-size="10.00">include/kernel/proc</text>
<text text-anchor="middle" x="89.5" y="-175.5" font-family="Helvetica,sans-Serif" font-size="10.00">/descriptor.h</text>
</a>
</g>
</g>
<!-- Node2 -->
<g id="node2" class="node">
<title>Node2</title>
<g id="a_node2"><a xlink:href="vfs_8h.html" target="_top" xlink:title=" ">
<polygon fill="none" stroke="black" points="91.5,-112.5 91.5,-131.5 141.5,-131.5 141.5,-112.5 91.5,-112.5"/>
<text text-anchor="middle" x="116.5" y="-119.5" font-family="Helvetica,sans-Serif" font-size="10.00">fs/vfs.h</text>
</a>
</g>
</g>
<!-- Node1&#45;&gt;Node2 -->
<g id="edge1" class="edge">
<title>Node1&#45;&gt;Node2</title>
<path fill="none" stroke="midnightblue" d="M95.9,-168.4C99.62,-160.2 104.35,-149.78 108.33,-140.99"/>
<polygon fill="midnightblue" stroke="midnightblue" points="111.63,-142.21 112.57,-131.66 105.25,-139.32 111.63,-142.21"/>
</g>
<!-- Node3 -->
<g id="node3" class="node">
<title>Node3</title>
<g id="a_node3"><a xlink:title=" ">
<polygon fill="none" stroke="#bfbfbf" points="137.5,-0.5 137.5,-19.5 193.5,-19.5 193.5,-0.5 137.5,-0.5"/>
<text text-anchor="middle" x="165.5" y="-7.5" font-family="Helvetica,sans-Serif" font-size="10.00">stdbool.h</text>
</a>
</g>
</g>
<!-- Node1&#45;&gt;Node3 -->
<g id="edge8" class="edge">
<title>Node1&#45;&gt;Node3</title>
<path fill="none" stroke="midnightblue" d="M114.27,-168.41C127.27,-159.66 142.17,-147.19 150.5,-132 168.33,-99.47 168.78,-54.77 167.29,-29.81"/>
<polygon fill="midnightblue" stroke="midnightblue" points="170.75,-29.27 166.49,-19.57 163.77,-29.81 170.75,-29.27"/>
</g>
<!-- Node4 -->
<g id="node4" class="node">
<title>Node4</title>
<g id="a_node4"><a xlink:title=" ">
<polygon fill="none" stroke="#bfbfbf" points="0,-0.5 0,-19.5 49,-19.5 49,-0.5 0,-0.5"/>
<text text-anchor="middle" x="24.5" y="-7.5" font-family="Helvetica,sans-Serif" font-size="10.00">stdint.h</text>
</a>
</g>
</g>
<!-- Node1&#45;&gt;Node4 -->
<g id="edge9" class="edge">
<title>Node1&#45;&gt;Node4</title>
<path fill="none" stroke="midnightblue" d="M80.28,-168.34C67.83,-148.53 45.9,-111.02 34.5,-76 29.58,-60.89 27.05,-42.99 25.77,-29.8"/>
<polygon fill="midnightblue" stroke="midnightblue" points="29.24,-29.3 24.94,-19.62 22.27,-29.87 29.24,-29.3"/>
</g>
<!-- Node5 -->
<g id="node5" class="node">
<title>Node5</title>
<g id="a_node5"><a xlink:href="types_8h.html" target="_top" xlink:title=" ">
<polygon fill="none" stroke="black" points="59.5,-56.5 59.5,-75.5 127.5,-75.5 127.5,-56.5 59.5,-56.5"/>
<text text-anchor="middle" x="93.5" y="-63.5" font-family="Helvetica,sans-Serif" font-size="10.00">sys/types.h</text>
</a>
</g>
</g>
<!-- Node1&#45;&gt;Node5 -->
<g id="edge10" class="edge">
<title>Node1&#45;&gt;Node5</title>
<path fill="none" stroke="midnightblue" d="M86.29,-168.44C83.47,-154.19 80.15,-131.54 82.5,-112 83.57,-103.11 85.79,-93.43 87.96,-85.34"/>
<polygon fill="midnightblue" stroke="midnightblue" points="91.39,-86.09 90.77,-75.51 84.66,-84.17 91.39,-86.09"/>
</g>
<!-- Node2&#45;&gt;Node3 -->
<g id="edge2" class="edge">
<title>Node2&#45;&gt;Node3</title>
<path fill="none" stroke="midnightblue" d="M120.34,-112.37C128.32,-94.46 146.83,-52.92 157.5,-28.95"/>
<polygon fill="midnightblue" stroke="midnightblue" points="160.8,-30.15 161.67,-19.59 154.41,-27.3 160.8,-30.15"/>
</g>
<!-- Node2&#45;&gt;Node4 -->
<g id="edge3" class="edge">
<title>Node2&#45;&gt;Node4</title>
<path fill="none" stroke="midnightblue" d="M98.33,-112.43C83.67,-104.71 63.44,-92.11 50.5,-76 39.57,-62.39 32.72,-43.59 28.82,-29.71"/>
<polygon fill="midnightblue" stroke="midnightblue" points="32.16,-28.65 26.29,-19.83 25.37,-30.38 32.16,-28.65"/>
</g>
<!-- Node2&#45;&gt;Node5 -->
<g id="edge4" class="edge">
<title>Node2&#45;&gt;Node5</title>
<path fill="none" stroke="midnightblue" d="M112.7,-112.08C109.59,-104.77 105.08,-94.18 101.21,-85.1"/>
<polygon fill="midnightblue" stroke="midnightblue" points="104.37,-83.58 97.23,-75.75 97.93,-86.32 104.37,-83.58"/>
</g>
<!-- Node5&#45;&gt;Node3 -->
<g id="edge5" class="edge">
<title>Node5&#45;&gt;Node3</title>
<path fill="none" stroke="midnightblue" d="M105.07,-56.32C115.92,-48.18 132.38,-35.84 145.38,-26.09"/>
<polygon fill="midnightblue" stroke="midnightblue" points="147.82,-28.63 153.72,-19.83 143.62,-23.03 147.82,-28.63"/>
</g>
<!-- Node5&#45;&gt;Node4 -->
<g id="edge7" class="edge">
<title>Node5&#45;&gt;Node4</title>
<path fill="none" stroke="midnightblue" d="M82.41,-56.32C72.01,-48.18 56.24,-35.84 43.78,-26.09"/>
<polygon fill="midnightblue" stroke="midnightblue" points="45.82,-23.24 35.79,-19.83 41.51,-28.75 45.82,-23.24"/>
</g>
<!-- Node6 -->
<g id="node6" class="node">
<title>Node6</title>
<g id="a_node6"><a xlink:title=" ">
<polygon fill="none" stroke="#bfbfbf" points="67.5,-0.5 67.5,-19.5 119.5,-19.5 119.5,-0.5 67.5,-0.5"/>
<text text-anchor="middle" x="93.5" y="-7.5" font-family="Helvetica,sans-Serif" font-size="10.00">stddef.h</text>
</a>
</g>
</g>
<!-- Node5&#45;&gt;Node6 -->
<g id="edge6" class="edge">
<title>Node5&#45;&gt;Node6</title>
<path fill="none" stroke="midnightblue" d="M93.5,-56.08C93.5,-49.01 93.5,-38.86 93.5,-29.99"/>
<polygon fill="midnightblue" stroke="midnightblue" points="97,-29.75 93.5,-19.75 90,-29.75 97,-29.75"/>
</g>
</g>
</svg>
