<?xml version="1.0" encoding="UTF-8" standalone="no"?>
<!DOCTYPE svg PUBLIC "-//W3C//DTD SVG 1.1//EN"
 "http://www.w3.org/Graphics/SVG/1.1/DTD/svg11.dtd">
<!-- Generated by graphviz version 8.0.2 (20230410.1723)
 -->
<!-- Title: include/kernel/net/dhcp.h Pages: 1 -->
<svg width="317pt" height="368pt"
 viewBox="0.00 0.00 317.00 368.00" xmlns="http://www.w3.org/2000/svg" xmlns:xlink="http://www.w3.org/1999/xlink">
<g id="graph0" class="graph" transform="scale(1 1) rotate(0) translate(4 364)">
<title>include/kernel/net/dhcp.h</title>
<!-- Node1 -->
<g id="Node000001" class="node">
<title>Node1</title>
<g id="a_Node000001"><a xlink:title=" ">
<polygon fill="#999999" stroke="#666666" points="202.5,-360 109.5,-360 109.5,-330 202.5,-330 202.5,-360"/>
<text text-anchor="start" x="117.5" y="-348" font-family="Helvetica,sans-Serif" font-size="10.00">include/kernel/net</text>
<text text-anchor="middle" x="156" y="-337" font-family="Helvetica,sans-Serif" font-size="10.00">/dhcp.h</text>
</a>
</g>
</g>
<!-- Node2 -->
<g id="Node000002" class="node">
<title>Node2</title>
<g id="a_Node000002"><a xlink:href="net_8h.html" target="_top" xlink:title="This module defines network interfaces and drivers.">
<polygon fill="white" stroke="#666666" points="74.5,-184 19.5,-184 19.5,-165 74.5,-165 74.5,-184"/>
<text text-anchor="middle" x="47" y="-172" font-family="Helvetica,sans-Serif" font-size="10.00">net/net.h</text>
</a>
</g>
</g>
<!-- Node1&#45;&gt;Node2 -->
<g id="edge1_Node000001_Node000002" class="edge">
<title>Node1&#45;&gt;Node2</title>
<g id="a_edge1_Node000001_Node000002"><a xlink:title=" ">
<path fill="none" stroke="#63b8ff" d="M141.99,-329.81C123.65,-310.59 91.43,-274.6 71,-239 62.92,-224.91 56.58,-207.59 52.45,-194.6"/>
<polygon fill="#63b8ff" stroke="#63b8ff" points="55.53,-193.67 49.3,-185.1 48.83,-195.69 55.53,-193.67"/>
</a>
</g>
</g>
<!-- Node5 -->
<g id="Node000005" class="node">
<title>Node5</title>
<g id="a_Node000005"><a xlink:href="udp_8h.html" target="_top" xlink:title=" ">
<polygon fill="white" stroke="#666666" points="184.5,-294 127.5,-294 127.5,-275 184.5,-275 184.5,-294"/>
<text text-anchor="middle" x="156" y="-282" font-family="Helvetica,sans-Serif" font-size="10.00">net/udp.h</text>
</a>
</g>
</g>
<!-- Node1&#45;&gt;Node5 -->
<g id="edge4_Node000001_Node000005" class="edge">
<title>Node1&#45;&gt;Node5</title>
<g id="a_edge4_Node000001_Node000005"><a xlink:title=" ">
<path fill="none" stroke="#63b8ff" d="M156,-329.54C156,-322.17 156,-313.1 156,-305.11"/>
<polygon fill="#63b8ff" stroke="#63b8ff" points="159.5,-305.18 156,-295.18 152.5,-305.18 159.5,-305.18"/>
</a>
</g>
</g>
<!-- Node8 -->
<g id="Node000008" class="node">
<title>Node8</title>
<g id="a_Node000008"><a xlink:href="types_8h.html" target="_top" xlink:title=" ">
<polygon fill="white" stroke="#666666" points="202,-74 134,-74 134,-55 202,-55 202,-74"/>
<text text-anchor="middle" x="168" y="-62" font-family="Helvetica,sans-Serif" font-size="10.00">sys/types.h</text>
</a>
</g>
</g>
<!-- Node1&#45;&gt;Node8 -->
<g id="edge18_Node000001_Node000008" class="edge">
<title>Node1&#45;&gt;Node8</title>
<g id="a_edge18_Node000001_Node000008"><a xlink:title=" ">
<path fill="none" stroke="#63b8ff" d="M202.74,-331C247.73,-315.3 309,-284.08 309,-230.5 309,-230.5 309,-230.5 309,-173.5 309,-123.19 251.72,-93.13 210.17,-77.96"/>
<polygon fill="#63b8ff" stroke="#63b8ff" points="211.59,-74.4 201,-74.41 209.29,-81.01 211.59,-74.4"/>
</a>
</g>
</g>
<!-- Node3 -->
<g id="Node000003" class="node">
<title>Node3</title>
<g id="a_Node000003"><a xlink:title=" ">
<polygon fill="#e0e0e0" stroke="#999999" points="56,-19 0,-19 0,0 56,0 56,-19"/>
<text text-anchor="middle" x="28" y="-7" font-family="Helvetica,sans-Serif" font-size="10.00">stdbool.h</text>
</a>
</g>
</g>
<!-- Node2&#45;&gt;Node3 -->
<g id="edge2_Node000002_Node000003" class="edge">
<title>Node2&#45;&gt;Node3</title>
<g id="a_edge2_Node000002_Node000003"><a xlink:title=" ">
<path fill="none" stroke="#63b8ff" d="M45.98,-164.74C43.03,-139.42 34.44,-65.72 30.29,-30.16"/>
<polygon fill="#63b8ff" stroke="#63b8ff" points="33.66,-29.83 29.03,-20.31 26.71,-30.64 33.66,-29.83"/>
</a>
</g>
</g>
<!-- Node4 -->
<g id="Node000004" class="node">
<title>Node4</title>
<g id="a_Node000004"><a xlink:title=" ">
<polygon fill="#e0e0e0" stroke="#999999" points="123.5,-19 74.5,-19 74.5,0 123.5,0 123.5,-19"/>
<text text-anchor="middle" x="99" y="-7" font-family="Helvetica,sans-Serif" font-size="10.00">stdint.h</text>
</a>
</g>
</g>
<!-- Node2&#45;&gt;Node4 -->
<g id="edge3_Node000002_Node000004" class="edge">
<title>Node2&#45;&gt;Node4</title>
<g id="a_edge3_Node000002_Node000004"><a xlink:title=" ">
<path fill="none" stroke="#63b8ff" d="M49.8,-164.74C57.91,-139.31 81.59,-65.08 92.88,-29.69"/>
<polygon fill="#63b8ff" stroke="#63b8ff" points="96.49,-30.9 96.19,-20.31 89.82,-28.77 96.49,-30.9"/>
</a>
</g>
</g>
<!-- Node5&#45;&gt;Node2 -->
<g id="edge16_Node000005_Node000002" class="edge">
<title>Node5&#45;&gt;Node2</title>
<g id="a_edge16_Node000005_Node000002"><a xlink:title=" ">
<path fill="none" stroke="#63b8ff" d="M138.66,-274.56C124.26,-266.55 103.8,-253.83 89,-239 75.59,-225.57 64.01,-207.22 56.42,-193.7"/>
<polygon fill="#63b8ff" stroke="#63b8ff" points="59.06,-192.22 51.24,-185.08 52.9,-195.55 59.06,-192.22"/>
</a>
</g>
</g>
<!-- Node6 -->
<g id="Node000006" class="node">
<title>Node6</title>
<g id="a_Node000006"><a xlink:href="inet_8h.html" target="_top" xlink:title=" ">
<polygon fill="white" stroke="#666666" points="207,-184 145,-184 145,-165 207,-165 207,-184"/>
<text text-anchor="middle" x="176" y="-172" font-family="Helvetica,sans-Serif" font-size="10.00">arpa/inet.h</text>
</a>
</g>
</g>
<!-- Node5&#45;&gt;Node6 -->
<g id="edge5_Node000005_Node000006" class="edge">
<title>Node5&#45;&gt;Node6</title>
<g id="a_edge5_Node000005_Node000006"><a xlink:title=" ">
<path fill="none" stroke="#63b8ff" d="M158.16,-274.67C160.31,-265.72 163.62,-251.44 166,-239 168.82,-224.21 171.45,-207.38 173.3,-194.76"/>
<polygon fill="#63b8ff" stroke="#63b8ff" points="176.86,-195.55 174.82,-185.16 169.93,-194.56 176.86,-195.55"/>
</a>
</g>
</g>
<!-- Node5&#45;&gt;Node8 -->
<g id="edge17_Node000005_Node000008" class="edge">
<title>Node5&#45;&gt;Node8</title>
<g id="a_edge17_Node000005_Node000008"><a xlink:title=" ">
<path fill="none" stroke="#63b8ff" d="M162.63,-274.68C174.93,-257.9 201.37,-219.86 216,-184 225.49,-160.74 226.09,-153.95 229,-129 229.98,-120.61 232.83,-117.53 229,-110 222.39,-97 210.01,-86.89 198.11,-79.62"/>
<polygon fill="#63b8ff" stroke="#63b8ff" points="200.23,-76.24 189.8,-74.4 196.81,-82.34 200.23,-76.24"/>
</a>
</g>
</g>
<!-- Node10 -->
<g id="Node000010" class="node">
<title>Node10</title>
<g id="a_Node000010"><a xlink:href="ipv4_8h.html" target="_top" xlink:title=" ">
<polygon fill="white" stroke="#666666" points="156.5,-239 97.5,-239 97.5,-220 156.5,-220 156.5,-239"/>
<text text-anchor="middle" x="127" y="-227" font-family="Helvetica,sans-Serif" font-size="10.00">net/ipv4.h</text>
</a>
</g>
</g>
<!-- Node5&#45;&gt;Node10 -->
<g id="edge12_Node000005_Node000010" class="edge">
<title>Node5&#45;&gt;Node10</title>
<g id="a_edge12_Node000005_Node000010"><a xlink:title=" ">
<path fill="none" stroke="#63b8ff" d="M151.21,-274.75C147.37,-267.73 141.85,-257.64 137.05,-248.87"/>
<polygon fill="#63b8ff" stroke="#63b8ff" points="139.76,-247.53 131.89,-240.44 133.62,-250.89 139.76,-247.53"/>
</a>
</g>
</g>
<!-- Node7 -->
<g id="Node000007" class="node">
<title>Node7</title>
<g id="a_Node000007"><a xlink:href="socket_8h.html" target="_top" xlink:title=" ">
<polygon fill="white" stroke="#666666" points="204.5,-129 131.5,-129 131.5,-110 204.5,-110 204.5,-129"/>
<text text-anchor="middle" x="168" y="-117" font-family="Helvetica,sans-Serif" font-size="10.00">sys/socket.h</text>
</a>
</g>
</g>
<!-- Node6&#45;&gt;Node7 -->
<g id="edge6_Node000006_Node000007" class="edge">
<title>Node6&#45;&gt;Node7</title>
<g id="a_edge6_Node000006_Node000007"><a xlink:title=" ">
<path fill="none" stroke="#63b8ff" d="M174.68,-164.75C173.68,-158.11 172.26,-148.73 170.99,-140.31"/>
<polygon fill="#63b8ff" stroke="#63b8ff" points="174.3,-139.81 169.35,-130.44 167.38,-140.85 174.3,-139.81"/>
</a>
</g>
</g>
<!-- Node6&#45;&gt;Node8 -->
<g id="edge11_Node000006_Node000008" class="edge">
<title>Node6&#45;&gt;Node8</title>
<g id="a_edge11_Node000006_Node000008"><a xlink:title=" ">
<path fill="none" stroke="#63b8ff" d="M187.4,-164.87C201.56,-153.02 222.83,-130.82 214,-110 209.19,-98.64 199.9,-88.77 190.92,-81.23"/>
<polygon fill="#63b8ff" stroke="#63b8ff" points="193.28,-77.85 183.23,-74.49 188.99,-83.38 193.28,-77.85"/>
</a>
</g>
</g>
<!-- Node7&#45;&gt;Node8 -->
<g id="edge7_Node000007_Node000008" class="edge">
<title>Node7&#45;&gt;Node8</title>
<g id="a_edge7_Node000007_Node000008"><a xlink:title=" ">
<path fill="none" stroke="#63b8ff" d="M168,-109.75C168,-103.11 168,-93.73 168,-85.31"/>
<polygon fill="#63b8ff" stroke="#63b8ff" points="171.5,-85.44 168,-75.44 164.5,-85.44 171.5,-85.44"/>
</a>
</g>
</g>
<!-- Node8&#45;&gt;Node3 -->
<g id="edge8_Node000008_Node000003" class="edge">
<title>Node8&#45;&gt;Node3</title>
<g id="a_edge8_Node000008_Node000003"><a xlink:title=" ">
<path fill="none" stroke="#63b8ff" d="M144.25,-54.51C121.49,-45.89 86.91,-32.8 61.38,-23.14"/>
<polygon fill="#63b8ff" stroke="#63b8ff" points="62.99,-19.63 52.4,-19.36 60.51,-26.17 62.99,-19.63"/>
</a>
</g>
</g>
<!-- Node8&#45;&gt;Node4 -->
<g id="edge10_Node000008_Node000004" class="edge">
<title>Node8&#45;&gt;Node4</title>
<g id="a_edge10_Node000008_Node000004"><a xlink:title=" ">
<path fill="none" stroke="#63b8ff" d="M156.3,-54.51C146.12,-46.7 131.17,-35.21 119.08,-25.93"/>
<polygon fill="#63b8ff" stroke="#63b8ff" points="121.59,-22.67 111.53,-19.36 117.33,-28.23 121.59,-22.67"/>
</a>
</g>
</g>
<!-- Node9 -->
<g id="Node000009" class="node">
<title>Node9</title>
<g id="a_Node000009"><a xlink:title=" ">
<polygon fill="#e0e0e0" stroke="#999999" points="194,-19 142,-19 142,0 194,0 194,-19"/>
<text text-anchor="middle" x="168" y="-7" font-family="Helvetica,sans-Serif" font-size="10.00">stddef.h</text>
</a>
</g>
</g>
<!-- Node8&#45;&gt;Node9 -->
<g id="edge9_Node000008_Node000009" class="edge">
<title>Node8&#45;&gt;Node9</title>
<g id="a_edge9_Node000008_Node000009"><a xlink:title=" ">
<path fill="none" stroke="#63b8ff" d="M168,-54.75C168,-48.11 168,-38.73 168,-30.31"/>
<polygon fill="#63b8ff" stroke="#63b8ff" points="171.5,-30.44 168,-20.44 164.5,-30.44 171.5,-30.44"/>
</a>
</g>
</g>
<!-- Node10&#45;&gt;Node2 -->
<g id="edge14_Node000010_Node000002" class="edge">
<title>Node10&#45;&gt;Node2</title>
<g id="a_edge14_Node000010_Node000002"><a xlink:title=" ">
<path fill="none" stroke="#63b8ff" d="M113.43,-219.51C101.4,-211.54 83.61,-199.75 69.47,-190.38"/>
<polygon fill="#63b8ff" stroke="#63b8ff" points="71.64,-186.96 61.37,-184.36 67.77,-192.8 71.64,-186.96"/>
</a>
</g>
</g>
<!-- Node10&#45;&gt;Node6 -->
<g id="edge13_Node000010_Node000006" class="edge">
<title>Node10&#45;&gt;Node6</title>
<g id="a_edge13_Node000010_Node000006"><a xlink:title=" ">
<path fill="none" stroke="#63b8ff" d="M135.09,-219.75C141.93,-212.35 151.93,-201.54 160.32,-192.45"/>
<polygon fill="#63b8ff" stroke="#63b8ff" points="162.51,-195.16 166.73,-185.44 157.37,-190.41 162.51,-195.16"/>
</a>
</g>
</g>
<!-- Node10&#45;&gt;Node8 -->
<g id="edge15_Node000010_Node000008" class="edge">
<title>Node10&#45;&gt;Node8</title>
<g id="a_edge15_Node000010_Node000008"><a xlink:title=" ">
<path fill="none" stroke="#63b8ff" d="M124.32,-219.73C118.62,-199.46 107.06,-148.18 123,-110 127.76,-98.59 137.03,-88.62 145.92,-81.02"/>
<polygon fill="#63b8ff" stroke="#63b8ff" points="147.82,-83.19 153.51,-74.25 143.49,-77.69 147.82,-83.19"/>
</a>
</g>
</g>
</g>
</svg>
