<?xml version="1.0" encoding="UTF-8" standalone="no"?>
<!DOCTYPE svg PUBLIC "-//W3C//DTD SVG 1.1//EN"
 "http://www.w3.org/Graphics/SVG/1.1/DTD/svg11.dtd">
<!-- Generated by graphviz version 2.49.3 (20211023.0002)
 -->
<!-- Title: include/kernel/net/dhcp.h Pages: 1 -->
<svg width="160pt" height="263pt"
 viewBox="0.00 0.00 159.50 263.00" xmlns="http://www.w3.org/2000/svg" xmlns:xlink="http://www.w3.org/1999/xlink">
<g id="graph0" class="graph" transform="scale(1 1) rotate(0) translate(4 259)">
<title>include/kernel/net/dhcp.h</title>
<!-- Node1 -->
<g id="node1" class="node">
<title>Node1</title>
<g id="a_node1"><a xlink:title=" ">
<polygon fill="#bfbfbf" stroke="black" points="6,-224.5 6,-254.5 101,-254.5 101,-224.5 6,-224.5"/>
<text text-anchor="start" x="14" y="-242.5" font-family="Helvetica,sans-Serif" font-size="10.00">include/kernel/net</text>
<text text-anchor="middle" x="53.5" y="-231.5" font-family="Helvetica,sans-Serif" font-size="10.00">/dhcp.h</text>
</a>
</g>
</g>
<!-- Node2 -->
<g id="node2" class="node">
<title>Node2</title>
<g id="a_node2"><a xlink:href="net_8h.html" target="_top" xlink:title="This module defines network interfaces and drivers.">
<polygon fill="none" stroke="black" points="36,-56.5 36,-75.5 91,-75.5 91,-56.5 36,-56.5"/>
<text text-anchor="middle" x="63.5" y="-63.5" font-family="Helvetica,sans-Serif" font-size="10.00">net/net.h</text>
</a>
</g>
</g>
<!-- Node1&#45;&gt;Node2 -->
<g id="edge1" class="edge">
<title>Node1&#45;&gt;Node2</title>
<path fill="none" stroke="midnightblue" d="M50.31,-224.44C48.19,-214.36 45.6,-200.42 44.5,-188 41.27,-151.43 51.04,-109.15 57.74,-85.5"/>
<polygon fill="midnightblue" stroke="midnightblue" points="61.14,-86.34 60.63,-75.76 54.43,-84.35 61.14,-86.34"/>
</g>
<!-- Node5 -->
<g id="node5" class="node">
<title>Node5</title>
<g id="a_node5"><a xlink:href="udp_8h.html" target="_top" xlink:title=" ">
<polygon fill="none" stroke="black" points="53.5,-168.5 53.5,-187.5 111.5,-187.5 111.5,-168.5 53.5,-168.5"/>
<text text-anchor="middle" x="82.5" y="-175.5" font-family="Helvetica,sans-Serif" font-size="10.00">net/udp.h</text>
</a>
</g>
</g>
<!-- Node1&#45;&gt;Node5 -->
<g id="edge4" class="edge">
<title>Node1&#45;&gt;Node5</title>
<path fill="none" stroke="midnightblue" d="M60.37,-224.4C64.41,-216.11 69.56,-205.55 73.87,-196.71"/>
<polygon fill="midnightblue" stroke="midnightblue" points="77.05,-198.18 78.28,-187.66 70.75,-195.11 77.05,-198.18"/>
</g>
<!-- Node3 -->
<g id="node3" class="node">
<title>Node3</title>
<g id="a_node3"><a xlink:title=" ">
<polygon fill="none" stroke="#bfbfbf" points="0,-0.5 0,-19.5 57,-19.5 57,-0.5 0,-0.5"/>
<text text-anchor="middle" x="28.5" y="-7.5" font-family="Helvetica,sans-Serif" font-size="10.00">stdbool.h</text>
</a>
</g>
</g>
<!-- Node2&#45;&gt;Node3 -->
<g id="edge2" class="edge">
<title>Node2&#45;&gt;Node3</title>
<path fill="none" stroke="midnightblue" d="M57.72,-56.08C52.83,-48.53 45.67,-37.49 39.67,-28.23"/>
<polygon fill="midnightblue" stroke="midnightblue" points="42.55,-26.24 34.17,-19.75 36.67,-30.05 42.55,-26.24"/>
</g>
<!-- Node4 -->
<g id="node4" class="node">
<title>Node4</title>
<g id="a_node4"><a xlink:title=" ">
<polygon fill="none" stroke="#bfbfbf" points="75,-0.5 75,-19.5 124,-19.5 124,-0.5 75,-0.5"/>
<text text-anchor="middle" x="99.5" y="-7.5" font-family="Helvetica,sans-Serif" font-size="10.00">stdint.h</text>
</a>
</g>
</g>
<!-- Node2&#45;&gt;Node4 -->
<g id="edge3" class="edge">
<title>Node2&#45;&gt;Node4</title>
<path fill="none" stroke="midnightblue" d="M69.44,-56.08C74.48,-48.53 81.84,-37.49 88.01,-28.23"/>
<polygon fill="midnightblue" stroke="midnightblue" points="91.03,-30.01 93.67,-19.75 85.21,-26.13 91.03,-30.01"/>
</g>
<!-- Node5&#45;&gt;Node2 -->
<g id="edge7" class="edge">
<title>Node5&#45;&gt;Node2</title>
<path fill="none" stroke="midnightblue" d="M81.01,-168.37C77.94,-150.62 70.87,-109.67 66.71,-85.6"/>
<polygon fill="midnightblue" stroke="midnightblue" points="70.14,-84.85 64.98,-75.59 63.24,-86.04 70.14,-84.85"/>
</g>
<!-- Node6 -->
<g id="node6" class="node">
<title>Node6</title>
<g id="a_node6"><a xlink:href="ipv4_8h.html" target="_top" xlink:title=" ">
<polygon fill="none" stroke="black" points="91.5,-112.5 91.5,-131.5 151.5,-131.5 151.5,-112.5 91.5,-112.5"/>
<text text-anchor="middle" x="121.5" y="-119.5" font-family="Helvetica,sans-Serif" font-size="10.00">net/ipv4.h</text>
</a>
</g>
</g>
<!-- Node5&#45;&gt;Node6 -->
<g id="edge5" class="edge">
<title>Node5&#45;&gt;Node6</title>
<path fill="none" stroke="midnightblue" d="M88.94,-168.08C94.45,-160.46 102.53,-149.26 109.26,-139.94"/>
<polygon fill="midnightblue" stroke="midnightblue" points="112.16,-141.91 115.18,-131.75 106.49,-137.81 112.16,-141.91"/>
</g>
<!-- Node6&#45;&gt;Node2 -->
<g id="edge6" class="edge">
<title>Node6&#45;&gt;Node2</title>
<path fill="none" stroke="midnightblue" d="M112.18,-112.32C103.61,-104.34 90.69,-92.31 80.31,-82.65"/>
<polygon fill="midnightblue" stroke="midnightblue" points="82.69,-80.09 72.99,-75.83 77.92,-85.21 82.69,-80.09"/>
</g>
</g>
</svg>
