<?xml version="1.0" encoding="UTF-8" standalone="no"?>
<!DOCTYPE svg PUBLIC "-//W3C//DTD SVG 1.1//EN"
 "http://www.w3.org/Graphics/SVG/1.1/DTD/svg11.dtd">
<!-- Generated by graphviz version 8.0.2 (20230410.1723)
 -->
<!-- Title: dhcp_negotiate Pages: 1 -->
<svg width="218pt" height="45pt"
 viewBox="0.00 0.00 218.00 45.00" xmlns="http://www.w3.org/2000/svg" xmlns:xlink="http://www.w3.org/1999/xlink">
<g id="graph0" class="graph" transform="scale(1 1) rotate(0) translate(4 41)">
<title>dhcp_negotiate</title>
<!-- Node1 -->
<g id="Node000001" class="node">
<title>Node1</title>
<g id="a_Node000001"><a xlink:title=" ">
<polygon fill="#999999" stroke="#666666" points="210,-19 127,-19 127,0 210,0 210,-19"/>
<text text-anchor="middle" x="168.5" y="-7" font-family="Helvetica,sans-Serif" font-size="10.00">dhcp_negotiate</text>
</a>
</g>
</g>
<!-- Node1&#45;&gt;Node1 -->
<g id="edge1_Node000001_Node000001" class="edge">
<title>Node1&#45;&gt;Node1</title>
<g id="a_edge1_Node000001_Node000001"><a xlink:title=" ">
<path fill="none" stroke="#63b8ff" d="M190.76,-29.76C188.42,-33.97 181,-37 168.5,-37 146.88,-37 140.46,-27.94 149.24,-19.37"/>
<polygon fill="#63b8ff" stroke="#63b8ff" points="193.89,-29.01 187.76,-20.37 187.17,-30.95 193.89,-29.01"/>
</a>
</g>
</g>
<!-- Node2 -->
<g id="Node000002" class="node">
<title>Node2</title>
<g id="a_Node000002"><a xlink:href="net_2net_8c.html#a5da8d53d480b13e24e293e0ab90a0ac3" target="_top" xlink:title=" ">
<polygon fill="white" stroke="#666666" points="91,-19 0,-19 0,0 91,0 91,-19"/>
<text text-anchor="middle" x="45.5" y="-7" font-family="Helvetica,sans-Serif" font-size="10.00">net_interface_init</text>
</a>
</g>
</g>
<!-- Node1&#45;&gt;Node2 -->
<g id="edge2_Node000001_Node000002" class="edge">
<title>Node1&#45;&gt;Node2</title>
<g id="a_edge2_Node000001_Node000002"><a xlink:title=" ">
<path fill="none" stroke="#63b8ff" d="M115.62,-9.5C107.48,-9.5 99.12,-9.5 91.16,-9.5"/>
<polygon fill="#63b8ff" stroke="#63b8ff" points="115.53,-13 125.53,-9.5 115.53,-6 115.53,-13"/>
</a>
</g>
</g>
<!-- Node2&#45;&gt;Node2 -->
<g id="edge3_Node000002_Node000002" class="edge">
<title>Node2&#45;&gt;Node2</title>
<g id="a_edge3_Node000002_Node000002"><a xlink:title=" ">
<path fill="none" stroke="#63b8ff" d="M67.76,-29.76C65.42,-33.97 58,-37 45.5,-37 23.88,-37 17.46,-27.94 26.24,-19.37"/>
<polygon fill="#63b8ff" stroke="#63b8ff" points="70.89,-29.01 64.76,-20.37 64.17,-30.95 70.89,-29.01"/>
</a>
</g>
</g>
</g>
</svg>
