<?xml version="1.0" encoding="UTF-8" standalone="no"?>
<!DOCTYPE svg PUBLIC "-//W3C//DTD SVG 1.1//EN"
 "http://www.w3.org/Graphics/SVG/1.1/DTD/svg11.dtd">
<!-- Generated by graphviz version 8.0.2 (20230410.1723)
 -->
<!-- Title: include/kernel Pages: 1 -->
<svg width="493pt" height="306pt"
 viewBox="0.00 0.00 493.00 306.00" xmlns="http://www.w3.org/2000/svg" xmlns:xlink="http://www.w3.org/1999/xlink">
<g id="graph0" class="graph" transform="scale(1 1) rotate(0) translate(4 302)">
<title>include/kernel</title>
<g id="clust1" class="cluster">
<title>clusterdir_d44c64559bbebec7f509842c48db8b23</title>
<g id="a_clust1"><a xlink:href="dir_d44c64559bbebec7f509842c48db8b23.html" target="_top" xlink:title="include">
<polygon fill="#edf0f7" stroke="#404040" stroke-dasharray="5,2" points="8,-8 8,-290 477,-290 477,-8 8,-8"/>
<text text-anchor="middle" x="242.5" y="-278" font-family="Helvetica,sans-Serif" font-size="10.00">include</text>
</a>
</g>
</g>
<g id="clust2" class="cluster">
<title>clusterdir_2ae24886e77657f82343b4b0154efdc1</title>
<g id="a_clust2"><a xlink:href="dir_2ae24886e77657f82343b4b0154efdc1.html" target="_top">
<polygon fill="#edf0f7" stroke="#404040" stroke-width="2" points="16,-63 16,-263 469,-263 469,-63 16,-63"/>
</a>
</g>
</g>
<!-- dir_f9f386f816a45f0ffce9eeb77a177fce -->
<g id="node1" class="node">
<title>dir_f9f386f816a45f0ffce9eeb77a177fce</title>
<g id="a_node1"><a xlink:href="dir_f9f386f816a45f0ffce9eeb77a177fce.html" target="_top" xlink:title="libc">
<polygon fill="#a2b4d6" stroke="red" points="196,-35 164,-35 164,-16 196,-16 196,-35"/>
<text text-anchor="middle" x="180" y="-23" font-family="Helvetica,sans-Serif" font-size="10.00">libc</text>
</a>
</g>
</g>
<!-- dir_2ae24886e77657f82343b4b0154efdc1 -->
<g id="node2" class="node">
<title>dir_2ae24886e77657f82343b4b0154efdc1</title>
<text text-anchor="middle" x="46" y="-243" font-family="Helvetica,sans-Serif" font-size="10.00">kernel</text>
</g>
<!-- dir_2ae24886e77657f82343b4b0154efdc1&#45;&gt;dir_f9f386f816a45f0ffce9eeb77a177fce -->
<g id="edge3" class="edge">
<title>dir_2ae24886e77657f82343b4b0154efdc1&#45;&gt;dir_f9f386f816a45f0ffce9eeb77a177fce</title>
<g id="a_edge3"><a xlink:href="dir_000041_000045.html" target="_top">
<path fill="none" stroke="#63b8ff" d="M67.34,-237.72C85.42,-230.92 110.76,-218.75 126,-200 145.65,-175.82 167.13,-85.63 175.92,-45.71"/>
<polygon fill="#63b8ff" stroke="#63b8ff" points="179.52,-46.58 178.22,-36.07 172.68,-45.1 179.52,-46.58"/>
</a>
</g>
<g id="a_edge3&#45;headlabel"><a xlink:href="dir_000041_000045.html" target="_top" xlink:title="20">
<text text-anchor="middle" x="181.54" y="-47.2" font-family="Helvetica,sans-Serif" font-size="10.00" fill="#63b8ff">20</text>
</a>
</g>
</g>
<!-- dir_1bef30f09c3bd1e4e4024186bdc41803 -->
<g id="node3" class="node">
<title>dir_1bef30f09c3bd1e4e4024186bdc41803</title>
<g id="a_node3"><a xlink:href="dir_1bef30f09c3bd1e4e4024186bdc41803.html" target="_top" xlink:title="arch">
<polygon fill="#a2b4d6" stroke="#404040" points="63.5,-200 28.5,-200 28.5,-181 63.5,-181 63.5,-200"/>
<text text-anchor="middle" x="46" y="-188" font-family="Helvetica,sans-Serif" font-size="10.00">arch</text>
</a>
</g>
</g>
<!-- dir_2ae24886e77657f82343b4b0154efdc1&#45;&gt;dir_1bef30f09c3bd1e4e4024186bdc41803 -->
<g id="edge2" class="edge">
<title>dir_2ae24886e77657f82343b4b0154efdc1&#45;&gt;dir_1bef30f09c3bd1e4e4024186bdc41803</title>
<g id="a_edge2"><a xlink:href="dir_000041_000002.html" target="_top">
<path fill="none" stroke="#63b8ff" d="M46,-236.22C46,-229.49 46,-219.73 46,-211.05"/>
<polygon fill="#63b8ff" stroke="#63b8ff" points="49.5,-211.25 46,-201.25 42.5,-211.25 49.5,-211.25"/>
</a>
</g>
<g id="a_edge2&#45;headlabel"><a xlink:href="dir_000041_000002.html" target="_top" xlink:title="1">
<text text-anchor="middle" x="52.34" y="-211.35" font-family="Helvetica,sans-Serif" font-size="10.00" fill="#63b8ff">1</text>
</a>
</g>
</g>
<!-- dir_12c6d725a1e624cd8ea115c6923f483d -->
<g id="node13" class="node">
<title>dir_12c6d725a1e624cd8ea115c6923f483d</title>
<g id="a_node13"><a xlink:href="dir_12c6d725a1e624cd8ea115c6923f483d.html" target="_top" xlink:title="time">
<polygon fill="#a2b4d6" stroke="#404040" points="116.5,-200 81.5,-200 81.5,-181 116.5,-181 116.5,-200"/>
<text text-anchor="middle" x="99" y="-188" font-family="Helvetica,sans-Serif" font-size="10.00">time</text>
</a>
</g>
</g>
<!-- dir_2ae24886e77657f82343b4b0154efdc1&#45;&gt;dir_12c6d725a1e624cd8ea115c6923f483d -->
<g id="edge1" class="edge">
<title>dir_2ae24886e77657f82343b4b0154efdc1&#45;&gt;dir_12c6d725a1e624cd8ea115c6923f483d</title>
<g id="a_edge1"><a xlink:href="dir_000041_000072.html" target="_top">
<path fill="none" stroke="#63b8ff" d="M54.28,-236.22C61.85,-228.65 73.25,-217.25 82.65,-207.85"/>
<polygon fill="#63b8ff" stroke="#63b8ff" points="84.65,-210.8 89.25,-201.25 79.7,-205.85 84.65,-210.8"/>
</a>
</g>
<g id="a_edge1&#45;headlabel"><a xlink:href="dir_000041_000072.html" target="_top" xlink:title="1">
<text text-anchor="middle" x="85.12" y="-211.85" font-family="Helvetica,sans-Serif" font-size="10.00" fill="#63b8ff">1</text>
</a>
</g>
</g>
<!-- dir_b74c2997ee101869ac325e0e63322356 -->
<g id="node11" class="node">
<title>dir_b74c2997ee101869ac325e0e63322356</title>
<g id="a_node11"><a xlink:href="dir_b74c2997ee101869ac325e0e63322356.html" target="_top" xlink:title="proc">
<polygon fill="#a2b4d6" stroke="#404040" points="123.5,-145 88.5,-145 88.5,-126 123.5,-126 123.5,-145"/>
<text text-anchor="middle" x="106" y="-133" font-family="Helvetica,sans-Serif" font-size="10.00">proc</text>
</a>
</g>
</g>
<!-- dir_1bef30f09c3bd1e4e4024186bdc41803&#45;&gt;dir_b74c2997ee101869ac325e0e63322356 -->
<g id="edge4" class="edge">
<title>dir_1bef30f09c3bd1e4e4024186bdc41803&#45;&gt;dir_b74c2997ee101869ac325e0e63322356</title>
<g id="a_edge4"><a xlink:href="dir_000002_000056.html" target="_top">
<path fill="none" stroke="#63b8ff" d="M56.18,-180.51C64.85,-172.85 77.52,-161.66 87.92,-152.47"/>
<polygon fill="#63b8ff" stroke="#63b8ff" points="89.79,-155.6 94.97,-146.36 85.16,-150.36 89.79,-155.6"/>
</a>
</g>
<g id="a_edge4&#45;headlabel"><a xlink:href="dir_000002_000056.html" target="_top" xlink:title="1">
<text text-anchor="middle" x="89.98" y="-156.61" font-family="Helvetica,sans-Serif" font-size="10.00" fill="#63b8ff">1</text>
</a>
</g>
</g>
<!-- dir_f5cbd4349b593bd5ea59bf7dffcf375a -->
<g id="node4" class="node">
<title>dir_f5cbd4349b593bd5ea59bf7dffcf375a</title>
<g id="a_node4"><a xlink:href="dir_f5cbd4349b593bd5ea59bf7dffcf375a.html" target="_top" xlink:title="config">
<polygon fill="#a2b4d6" stroke="#404040" points="128.5,-255 85.5,-255 85.5,-236 128.5,-236 128.5,-255"/>
<text text-anchor="middle" x="107" y="-243" font-family="Helvetica,sans-Serif" font-size="10.00">config</text>
</a>
</g>
</g>
<!-- dir_f5cbd4349b593bd5ea59bf7dffcf375a&#45;&gt;dir_f9f386f816a45f0ffce9eeb77a177fce -->
<g id="edge5" class="edge">
<title>dir_f5cbd4349b593bd5ea59bf7dffcf375a&#45;&gt;dir_f9f386f816a45f0ffce9eeb77a177fce</title>
<g id="a_edge5"><a xlink:href="dir_000020_000045.html" target="_top">
<path fill="none" stroke="#63b8ff" d="M125.55,-235.6C138.96,-228.1 156.22,-216.03 165,-200 179.26,-173.99 180.47,-85.91 180.26,-46.2"/>
<polygon fill="#63b8ff" stroke="#63b8ff" points="183.75,-46.32 180.16,-36.35 176.75,-46.38 183.75,-46.32"/>
</a>
</g>
<g id="a_edge5&#45;headlabel"><a xlink:href="dir_000020_000045.html" target="_top" xlink:title="2">
<text text-anchor="middle" x="186.62" y="-46.39" font-family="Helvetica,sans-Serif" font-size="10.00" fill="#63b8ff">2</text>
</a>
</g>
</g>
<!-- dir_5dcd48ca9f40364899464cc3f89e860e -->
<g id="node5" class="node">
<title>dir_5dcd48ca9f40364899464cc3f89e860e</title>
<g id="a_node5"><a xlink:href="dir_5dcd48ca9f40364899464cc3f89e860e.html" target="_top" xlink:title="core">
<polygon fill="#a2b4d6" stroke="#404040" points="362.5,-255 327.5,-255 327.5,-236 362.5,-236 362.5,-255"/>
<text text-anchor="middle" x="345" y="-243" font-family="Helvetica,sans-Serif" font-size="10.00">core</text>
</a>
</g>
</g>
<!-- dir_72ea8410cd25c3f19cac33d1776c95a7 -->
<g id="node6" class="node">
<title>dir_72ea8410cd25c3f19cac33d1776c95a7</title>
<g id="a_node6"><a xlink:href="dir_72ea8410cd25c3f19cac33d1776c95a7.html" target="_top" xlink:title="drivers">
<polygon fill="#a2b4d6" stroke="#404040" points="309,-255 263,-255 263,-236 309,-236 309,-255"/>
<text text-anchor="middle" x="286" y="-243" font-family="Helvetica,sans-Serif" font-size="10.00">drivers</text>
</a>
</g>
</g>
<!-- dir_579f575ab9bb80182679ffc66b079ac5 -->
<g id="node7" class="node">
<title>dir_579f575ab9bb80182679ffc66b079ac5</title>
<g id="a_node7"><a xlink:href="dir_579f575ab9bb80182679ffc66b079ac5.html" target="_top" xlink:title="fs">
<polygon fill="#a2b4d6" stroke="#404040" points="120.5,-90 91.5,-90 91.5,-71 120.5,-71 120.5,-90"/>
<text text-anchor="middle" x="106" y="-78" font-family="Helvetica,sans-Serif" font-size="10.00">fs</text>
</a>
</g>
</g>
<!-- dir_579f575ab9bb80182679ffc66b079ac5&#45;&gt;dir_f9f386f816a45f0ffce9eeb77a177fce -->
<g id="edge6" class="edge">
<title>dir_579f575ab9bb80182679ffc66b079ac5&#45;&gt;dir_f9f386f816a45f0ffce9eeb77a177fce</title>
<g id="a_edge6"><a xlink:href="dir_000035_000045.html" target="_top">
<path fill="none" stroke="#63b8ff" d="M115.86,-70.52C118.74,-68.01 121.94,-65.33 125,-63 134.99,-55.4 146.49,-47.62 156.39,-41.21"/>
<polygon fill="#63b8ff" stroke="#63b8ff" points="158.09,-43.64 164.64,-35.31 154.32,-37.74 158.09,-43.64"/>
</a>
</g>
<g id="a_edge6&#45;headlabel"><a xlink:href="dir_000035_000045.html" target="_top" xlink:title="2">
<text text-anchor="middle" x="157.59" y="-45.47" font-family="Helvetica,sans-Serif" font-size="10.00" fill="#63b8ff">2</text>
</a>
</g>
</g>
<!-- dir_626355b091f94f14b578c87f25101a76 -->
<g id="node8" class="node">
<title>dir_626355b091f94f14b578c87f25101a76</title>
<g id="a_node8"><a xlink:href="dir_626355b091f94f14b578c87f25101a76.html" target="_top" xlink:title="kshell">
<polygon fill="#a2b4d6" stroke="#404040" points="245,-255 203,-255 203,-236 245,-236 245,-255"/>
<text text-anchor="middle" x="224" y="-243" font-family="Helvetica,sans-Serif" font-size="10.00">kshell</text>
</a>
</g>
</g>
<!-- dir_626355b091f94f14b578c87f25101a76&#45;&gt;dir_f9f386f816a45f0ffce9eeb77a177fce -->
<g id="edge7" class="edge">
<title>dir_626355b091f94f14b578c87f25101a76&#45;&gt;dir_f9f386f816a45f0ffce9eeb77a177fce</title>
<g id="a_edge7"><a xlink:href="dir_000043_000045.html" target="_top">
<path fill="none" stroke="#63b8ff" d="M222.22,-235.68C215.71,-203.43 193.09,-91.38 183.92,-45.9"/>
<polygon fill="#63b8ff" stroke="#63b8ff" points="187.16,-45.3 181.75,-36.19 180.3,-46.68 187.16,-45.3"/>
</a>
</g>
<g id="a_edge7&#45;headlabel"><a xlink:href="dir_000043_000045.html" target="_top" xlink:title="1">
<text text-anchor="middle" x="190.66" y="-44.76" font-family="Helvetica,sans-Serif" font-size="10.00" fill="#63b8ff">1</text>
</a>
</g>
</g>
<!-- dir_5bbca552b03f18ea4c556679d80b42c9 -->
<g id="node9" class="node">
<title>dir_5bbca552b03f18ea4c556679d80b42c9</title>
<g id="a_node9"><a xlink:href="dir_5bbca552b03f18ea4c556679d80b42c9.html" target="_top" xlink:title="mmu">
<polygon fill="#a2b4d6" stroke="#404040" points="185,-255 147,-255 147,-236 185,-236 185,-255"/>
<text text-anchor="middle" x="166" y="-243" font-family="Helvetica,sans-Serif" font-size="10.00">mmu</text>
</a>
</g>
</g>
<!-- dir_0be85e67768b66452391783f935553f6 -->
<g id="node10" class="node">
<title>dir_0be85e67768b66452391783f935553f6</title>
<g id="a_node10"><a xlink:href="dir_0be85e67768b66452391783f935553f6.html" target="_top" xlink:title="net">
<polygon fill="#a2b4d6" stroke="#404040" points="411,-255 381,-255 381,-236 411,-236 411,-255"/>
<text text-anchor="middle" x="396" y="-243" font-family="Helvetica,sans-Serif" font-size="10.00">net</text>
</a>
</g>
</g>
<!-- dir_0be85e67768b66452391783f935553f6&#45;&gt;dir_f9f386f816a45f0ffce9eeb77a177fce -->
<g id="edge8" class="edge">
<title>dir_0be85e67768b66452391783f935553f6&#45;&gt;dir_f9f386f816a45f0ffce9eeb77a177fce</title>
<g id="a_edge8"><a xlink:href="dir_000053_000045.html" target="_top">
<path fill="none" stroke="#63b8ff" d="M387.27,-235.68C354.56,-202.68 239.03,-86.08 196.17,-42.82"/>
<polygon fill="#63b8ff" stroke="#63b8ff" points="199.13,-40.83 189.61,-36.19 194.16,-45.75 199.13,-40.83"/>
</a>
</g>
<g id="a_edge8&#45;headlabel"><a xlink:href="dir_000053_000045.html" target="_top" xlink:title="7">
<text text-anchor="middle" x="202.68" y="-37.88" font-family="Helvetica,sans-Serif" font-size="10.00" fill="#63b8ff">7</text>
</a>
</g>
</g>
<!-- dir_b74c2997ee101869ac325e0e63322356&#45;&gt;dir_f9f386f816a45f0ffce9eeb77a177fce -->
<g id="edge10" class="edge">
<title>dir_b74c2997ee101869ac325e0e63322356&#45;&gt;dir_f9f386f816a45f0ffce9eeb77a177fce</title>
<g id="a_edge10"><a xlink:href="dir_000056_000045.html" target="_top">
<path fill="none" stroke="#63b8ff" d="M112.06,-125.66C124.2,-107.94 151.72,-67.77 167.77,-44.35"/>
<polygon fill="#63b8ff" stroke="#63b8ff" points="171.1,-46.69 173.86,-36.46 165.32,-42.73 171.1,-46.69"/>
</a>
</g>
<g id="a_edge10&#45;headlabel"><a xlink:href="dir_000056_000045.html" target="_top" xlink:title="1">
<text text-anchor="middle" x="171.41" y="-47.76" font-family="Helvetica,sans-Serif" font-size="10.00" fill="#63b8ff">1</text>
</a>
</g>
</g>
<!-- dir_b74c2997ee101869ac325e0e63322356&#45;&gt;dir_579f575ab9bb80182679ffc66b079ac5 -->
<g id="edge9" class="edge">
<title>dir_b74c2997ee101869ac325e0e63322356&#45;&gt;dir_579f575ab9bb80182679ffc66b079ac5</title>
<g id="a_edge9"><a xlink:href="dir_000056_000035.html" target="_top">
<path fill="none" stroke="#63b8ff" d="M106,-125.75C106,-119.11 106,-109.73 106,-101.31"/>
<polygon fill="#63b8ff" stroke="#63b8ff" points="109.5,-101.44 106,-91.44 102.5,-101.44 109.5,-101.44"/>
</a>
</g>
<g id="a_edge9&#45;headlabel"><a xlink:href="dir_000056_000035.html" target="_top" xlink:title="1">
<text text-anchor="middle" x="112.34" y="-101.54" font-family="Helvetica,sans-Serif" font-size="10.00" fill="#63b8ff">1</text>
</a>
</g>
</g>
<!-- dir_a0ffd90eda9fe9d19fd364f796da6911 -->
<g id="node12" class="node">
<title>dir_a0ffd90eda9fe9d19fd364f796da6911</title>
<g id="a_node12"><a xlink:href="dir_a0ffd90eda9fe9d19fd364f796da6911.html" target="_top" xlink:title="sys">
<polygon fill="#a2b4d6" stroke="#404040" points="461,-255 429,-255 429,-236 461,-236 461,-255"/>
<text text-anchor="middle" x="445" y="-243" font-family="Helvetica,sans-Serif" font-size="10.00">sys</text>
</a>
</g>
</g>
<!-- dir_a0ffd90eda9fe9d19fd364f796da6911&#45;&gt;dir_f9f386f816a45f0ffce9eeb77a177fce -->
<g id="edge11" class="edge">
<title>dir_a0ffd90eda9fe9d19fd364f796da6911&#45;&gt;dir_f9f386f816a45f0ffce9eeb77a177fce</title>
<g id="a_edge11"><a xlink:href="dir_000065_000045.html" target="_top">
<path fill="none" stroke="#63b8ff" d="M435.73,-235.73C406.99,-208.7 316.37,-124.77 235,-63 225.01,-55.41 213.5,-47.64 203.6,-41.22"/>
<polygon fill="#63b8ff" stroke="#63b8ff" points="205.67,-37.75 195.36,-35.32 201.9,-43.65 205.67,-37.75"/>
</a>
</g>
<g id="a_edge11&#45;headlabel"><a xlink:href="dir_000065_000045.html" target="_top" xlink:title="5">
<text text-anchor="middle" x="209.23" y="-34.79" font-family="Helvetica,sans-Serif" font-size="10.00" fill="#63b8ff">5</text>
</a>
</g>
</g>
</g>
</svg>
