<?xml version="1.0" encoding="UTF-8" standalone="no"?>
<!DOCTYPE svg PUBLIC "-//W3C//DTD SVG 1.1//EN"
 "http://www.w3.org/Graphics/SVG/1.1/DTD/svg11.dtd">
<!-- Generated by graphviz version 2.50.0 (20211204.2007)
 -->
<!-- Title: src/kernel/arch/x86_64 Pages: 1 -->
<svg width="494pt" height="447pt"
 viewBox="0.00 0.00 494.24 447.00" xmlns="http://www.w3.org/2000/svg" xmlns:xlink="http://www.w3.org/1999/xlink">
<g id="graph0" class="graph" transform="scale(1 1) rotate(0) translate(4 443)">
<title>src/kernel/arch/x86_64</title>
<g id="clust1" class="cluster">
<title>clusterdir_76e3dd4d2fa719e8d3b096e9aa563982</title>
<g id="a_clust1"><a xlink:href="dir_76e3dd4d2fa719e8d3b096e9aa563982.html" target="_top" xlink:title="arch">
<polygon fill="#edf0f7" stroke="#7f7f7f" stroke-dasharray="5,2" points="8,-56 8,-431 358,-431 358,-56 8,-56"/>
<text text-anchor="middle" x="183" y="-419" font-family="Helvetica,sans-Serif" font-size="10.00">arch</text>
</a>
</g>
</g>
<g id="clust2" class="cluster">
<title>clusterdir_7c4c796ec9937bed8074dafcec3d25e4</title>
<g id="a_clust2"><a xlink:href="dir_7c4c796ec9937bed8074dafcec3d25e4.html" target="_top">
<polygon fill="#edf0f7" stroke="#404040" stroke-width="2" points="16,-64 16,-404 350,-404 350,-64 16,-64"/>
</a>
</g>
</g>
<!-- dir_7c4c796ec9937bed8074dafcec3d25e4 -->
<g id="node1" class="node">
<title>dir_7c4c796ec9937bed8074dafcec3d25e4</title>
<text text-anchor="middle" x="65" y="-375.5" font-family="Helvetica,sans-Serif" font-size="10.00">x86_64</text>
</g>
<!-- dir_42d4540ea64ab009ab7a7dcd79fe63e8 -->
<g id="node3" class="node">
<title>dir_42d4540ea64ab009ab7a7dcd79fe63e8</title>
<g id="a_node3"><a xlink:href="dir_42d4540ea64ab009ab7a7dcd79fe63e8.html" target="_top" xlink:title="console">
<polygon fill="#a2b4d6" stroke="#404040" points="138,-324 84,-324 84,-288 138,-288 138,-324"/>
<text text-anchor="middle" x="111" y="-303.5" font-family="Helvetica,sans-Serif" font-size="10.00">console</text>
</a>
</g>
</g>
<!-- dir_7c4c796ec9937bed8074dafcec3d25e4&#45;&gt;dir_42d4540ea64ab009ab7a7dcd79fe63e8 -->
<g id="edge3" class="edge">
<title>dir_7c4c796ec9937bed8074dafcec3d25e4&#45;&gt;dir_42d4540ea64ab009ab7a7dcd79fe63e8</title>
<path fill="none" stroke="black" d="M76.37,-359.7C81.72,-351.56 88.2,-341.69 94.11,-332.7"/>
<polygon fill="black" stroke="black" points="97.19,-334.38 99.76,-324.1 91.34,-330.54 97.19,-334.38"/>
<g id="a_edge3&#45;headlabel"><a xlink:href="dir_000084_000023.html" target="_top" xlink:title="2">
<text text-anchor="middle" x="97.59" y="-336.45" font-family="Helvetica,sans-Serif" font-size="10.00">2</text>
</a>
</g>
</g>
<!-- dir_1dc53930709e46457d0e1484ec309f4d -->
<g id="node4" class="node">
<title>dir_1dc53930709e46457d0e1484ec309f4d</title>
<g id="a_node4"><a xlink:href="dir_1dc53930709e46457d0e1484ec309f4d.html" target="_top" xlink:title="core">
<polygon fill="#a2b4d6" stroke="#404040" points="226,-180 172,-180 172,-144 226,-144 226,-180"/>
<text text-anchor="middle" x="199" y="-159.5" font-family="Helvetica,sans-Serif" font-size="10.00">core</text>
</a>
</g>
</g>
<!-- dir_7c4c796ec9937bed8074dafcec3d25e4&#45;&gt;dir_1dc53930709e46457d0e1484ec309f4d -->
<g id="edge1" class="edge">
<title>dir_7c4c796ec9937bed8074dafcec3d25e4&#45;&gt;dir_1dc53930709e46457d0e1484ec309f4d</title>
<path fill="none" stroke="black" d="M61.51,-359.96C55.94,-327.58 49.06,-256.78 85,-216 105.04,-193.26 136.88,-179.6 161.83,-171.85"/>
<polygon fill="black" stroke="black" points="163.07,-175.14 171.7,-168.98 161.12,-168.41 163.07,-175.14"/>
<g id="a_edge1&#45;headlabel"><a xlink:href="dir_000084_000029.html" target="_top" xlink:title="12">
<text text-anchor="middle" x="160.41" y="-176.37" font-family="Helvetica,sans-Serif" font-size="10.00">12</text>
</a>
</g>
</g>
<!-- dir_dfce509d3294b4958bedddff0a015025 -->
<g id="node5" class="node">
<title>dir_dfce509d3294b4958bedddff0a015025</title>
<g id="a_node5"><a xlink:href="dir_dfce509d3294b4958bedddff0a015025.html" target="_top" xlink:title="drivers">
<polygon fill="#a2b4d6" stroke="#404040" points="158,-252 104,-252 104,-216 158,-216 158,-252"/>
<text text-anchor="middle" x="131" y="-231.5" font-family="Helvetica,sans-Serif" font-size="10.00">drivers</text>
</a>
</g>
</g>
<!-- dir_7c4c796ec9937bed8074dafcec3d25e4&#45;&gt;dir_dfce509d3294b4958bedddff0a015025 -->
<g id="edge5" class="edge">
<title>dir_7c4c796ec9937bed8074dafcec3d25e4&#45;&gt;dir_dfce509d3294b4958bedddff0a015025</title>
<path fill="none" stroke="black" d="M63.55,-359.96C62.71,-341.3 63.56,-310.96 75,-288 80.55,-276.86 89.46,-266.82 98.55,-258.56"/>
<polygon fill="black" stroke="black" points="100.84,-261.2 106.16,-252.04 96.28,-255.89 100.84,-261.2"/>
<g id="a_edge5&#45;headlabel"><a xlink:href="dir_000084_000036.html" target="_top" xlink:title="10">
<text text-anchor="middle" x="99.95" y="-263.2" font-family="Helvetica,sans-Serif" font-size="10.00">10</text>
</a>
</g>
</g>
<!-- dir_3a646564ec239f35c01425f0e9da2ba2 -->
<g id="node7" class="node">
<title>dir_3a646564ec239f35c01425f0e9da2ba2</title>
<g id="a_node7"><a xlink:href="dir_3a646564ec239f35c01425f0e9da2ba2.html" target="_top" xlink:title="mmu">
<polygon fill="#a2b4d6" stroke="#404040" points="180,-108 126,-108 126,-72 180,-72 180,-108"/>
<text text-anchor="middle" x="153" y="-87.5" font-family="Helvetica,sans-Serif" font-size="10.00">mmu</text>
</a>
</g>
</g>
<!-- dir_7c4c796ec9937bed8074dafcec3d25e4&#45;&gt;dir_3a646564ec239f35c01425f0e9da2ba2 -->
<g id="edge2" class="edge">
<title>dir_7c4c796ec9937bed8074dafcec3d25e4&#45;&gt;dir_3a646564ec239f35c01425f0e9da2ba2</title>
<path fill="none" stroke="black" d="M60.54,-359.95C58.06,-349.63 55.25,-336.15 54,-324 49.08,-276.12 49.15,-262.39 62,-216 71.4,-182.08 74.26,-172.44 95,-144 102.72,-133.41 112.82,-123.3 122.42,-114.81"/>
<polygon fill="black" stroke="black" points="124.97,-117.23 130.31,-108.08 120.43,-111.91 124.97,-117.23"/>
<g id="a_edge2&#45;headlabel"><a xlink:href="dir_000084_000055.html" target="_top" xlink:title="7">
<text text-anchor="middle" x="124.08" y="-119.22" font-family="Helvetica,sans-Serif" font-size="10.00">7</text>
</a>
</g>
</g>
<!-- dir_d44c64559bbebec7f509842c48db8b23 -->
<g id="node10" class="node">
<title>dir_d44c64559bbebec7f509842c48db8b23</title>
<g id="a_node10"><a xlink:href="dir_d44c64559bbebec7f509842c48db8b23.html" target="_top" xlink:title="include">
<polygon fill="none" stroke="red" points="357,-36 303,-36 303,0 357,0 357,-36"/>
<text text-anchor="middle" x="330" y="-15.5" font-family="Helvetica,sans-Serif" font-size="10.00">include</text>
</a>
</g>
</g>
<!-- dir_7c4c796ec9937bed8074dafcec3d25e4&#45;&gt;dir_d44c64559bbebec7f509842c48db8b23 -->
<g id="edge4" class="edge">
<title>dir_7c4c796ec9937bed8074dafcec3d25e4&#45;&gt;dir_d44c64559bbebec7f509842c48db8b23</title>
<path fill="none" stroke="black" d="M92.1,-372.94C179.14,-359.13 446,-310.62 446,-235 446,-235 446,-235 446,-161 446,-111.52 442.21,-92.68 409,-56 397.74,-43.57 381.44,-34.97 366.57,-29.21"/>
<polygon fill="black" stroke="black" points="367.66,-25.88 357.07,-25.83 365.31,-32.48 367.66,-25.88"/>
<g id="a_edge4&#45;headlabel"><a xlink:href="dir_000084_000042.html" target="_top" xlink:title="113">
<text text-anchor="middle" x="372" y="-21.92" font-family="Helvetica,sans-Serif" font-size="10.00">113</text>
</a>
</g>
</g>
<!-- dir_2acc9ac41bab451ccb7f12c38e9a27aa -->
<g id="node2" class="node">
<title>dir_2acc9ac41bab451ccb7f12c38e9a27aa</title>
<g id="a_node2"><a xlink:href="dir_2acc9ac41bab451ccb7f12c38e9a27aa.html" target="_top" xlink:title="arch">
<polygon fill="#a2b4d6" stroke="#404040" points="230,-396 176,-396 176,-360 230,-360 230,-396"/>
<text text-anchor="middle" x="203" y="-375.5" font-family="Helvetica,sans-Serif" font-size="10.00">arch</text>
</a>
</g>
</g>
<!-- dir_2acc9ac41bab451ccb7f12c38e9a27aa&#45;&gt;dir_42d4540ea64ab009ab7a7dcd79fe63e8 -->
<g id="edge7" class="edge">
<title>dir_2acc9ac41bab451ccb7f12c38e9a27aa&#45;&gt;dir_42d4540ea64ab009ab7a7dcd79fe63e8</title>
<path fill="none" stroke="black" d="M180.26,-359.7C168.56,-350.8 154.14,-339.82 141.49,-330.2"/>
<polygon fill="black" stroke="black" points="143.56,-327.37 133.48,-324.1 139.32,-332.94 143.56,-327.37"/>
<g id="a_edge7&#45;headlabel"><a xlink:href="dir_000009_000023.html" target="_top" xlink:title="1">
<text text-anchor="middle" x="148.14" y="-324.79" font-family="Helvetica,sans-Serif" font-size="10.00">1</text>
</a>
</g>
</g>
<!-- dir_2acc9ac41bab451ccb7f12c38e9a27aa&#45;&gt;dir_1dc53930709e46457d0e1484ec309f4d -->
<g id="edge6" class="edge">
<title>dir_2acc9ac41bab451ccb7f12c38e9a27aa&#45;&gt;dir_1dc53930709e46457d0e1484ec309f4d</title>
<path fill="none" stroke="black" d="M218.61,-359.77C226.37,-350.03 234.95,-337.18 239,-324 243.7,-308.71 244.69,-302.96 239,-288 231.39,-267.99 215.5,-271.65 207,-252 198.6,-232.57 196.88,-208.57 197.11,-190.39"/>
<polygon fill="black" stroke="black" points="200.61,-190.28 197.44,-180.17 193.62,-190.05 200.61,-190.28"/>
<g id="a_edge6&#45;headlabel"><a xlink:href="dir_000009_000029.html" target="_top" xlink:title="2">
<text text-anchor="middle" x="203.33" y="-191.47" font-family="Helvetica,sans-Serif" font-size="10.00">2</text>
</a>
</g>
</g>
<!-- dir_2acc9ac41bab451ccb7f12c38e9a27aa&#45;&gt;dir_dfce509d3294b4958bedddff0a015025 -->
<g id="edge9" class="edge">
<title>dir_2acc9ac41bab451ccb7f12c38e9a27aa&#45;&gt;dir_dfce509d3294b4958bedddff0a015025</title>
<path fill="none" stroke="black" d="M190.03,-359.92C182.71,-349.81 173.71,-336.56 167,-324 156.25,-303.87 146.7,-279.82 140.15,-261.8"/>
<polygon fill="black" stroke="black" points="143.39,-260.46 136.73,-252.21 136.79,-262.81 143.39,-260.46"/>
<g id="a_edge9&#45;headlabel"><a xlink:href="dir_000009_000036.html" target="_top" xlink:title="5">
<text text-anchor="middle" x="147.27" y="-260.4" font-family="Helvetica,sans-Serif" font-size="10.00">5</text>
</a>
</g>
</g>
<!-- dir_2acc9ac41bab451ccb7f12c38e9a27aa&#45;&gt;dir_d44c64559bbebec7f509842c48db8b23 -->
<g id="edge8" class="edge">
<title>dir_2acc9ac41bab451ccb7f12c38e9a27aa&#45;&gt;dir_d44c64559bbebec7f509842c48db8b23</title>
<path fill="none" stroke="black" d="M230.2,-374.95C289.32,-369.94 426.92,-355.15 460,-324 489.83,-295.91 484,-275.97 484,-235 484,-235 484,-235 484,-161 484,-113.13 492.95,-90.73 460,-56 436.19,-30.91 396.7,-22.44 367.48,-19.78"/>
<polygon fill="black" stroke="black" points="367.46,-16.27 357.23,-19.04 366.95,-23.25 367.46,-16.27"/>
<g id="a_edge8&#45;headlabel"><a xlink:href="dir_000009_000042.html" target="_top" xlink:title="25">
<text text-anchor="middle" x="371.25" y="-11.2" font-family="Helvetica,sans-Serif" font-size="10.00">25</text>
</a>
</g>
</g>
<!-- dir_42d4540ea64ab009ab7a7dcd79fe63e8&#45;&gt;dir_1dc53930709e46457d0e1484ec309f4d -->
<g id="edge10" class="edge">
<title>dir_42d4540ea64ab009ab7a7dcd79fe63e8&#45;&gt;dir_1dc53930709e46457d0e1484ec309f4d</title>
<path fill="none" stroke="black" d="M101.41,-287.97C92.15,-269.05 81.38,-238.22 95,-216 109.54,-192.26 138.43,-178.74 162.07,-171.3"/>
<polygon fill="black" stroke="black" points="163.2,-174.62 171.83,-168.48 161.25,-167.9 163.2,-174.62"/>
<g id="a_edge10&#45;headlabel"><a xlink:href="dir_000023_000029.html" target="_top" xlink:title="1">
<text text-anchor="middle" x="160.53" y="-175.85" font-family="Helvetica,sans-Serif" font-size="10.00">1</text>
</a>
</g>
</g>
<!-- dir_42d4540ea64ab009ab7a7dcd79fe63e8&#45;&gt;dir_dfce509d3294b4958bedddff0a015025 -->
<g id="edge13" class="edge">
<title>dir_42d4540ea64ab009ab7a7dcd79fe63e8&#45;&gt;dir_dfce509d3294b4958bedddff0a015025</title>
<path fill="none" stroke="black" d="M115.94,-287.7C118.17,-279.9 120.85,-270.51 123.33,-261.83"/>
<polygon fill="black" stroke="black" points="126.73,-262.68 126.11,-252.1 120,-260.76 126.73,-262.68"/>
<g id="a_edge13&#45;headlabel"><a xlink:href="dir_000023_000036.html" target="_top" xlink:title="1">
<text text-anchor="middle" x="128.47" y="-264.42" font-family="Helvetica,sans-Serif" font-size="10.00">1</text>
</a>
</g>
</g>
<!-- dir_42d4540ea64ab009ab7a7dcd79fe63e8&#45;&gt;dir_3a646564ec239f35c01425f0e9da2ba2 -->
<g id="edge11" class="edge">
<title>dir_42d4540ea64ab009ab7a7dcd79fe63e8&#45;&gt;dir_3a646564ec239f35c01425f0e9da2ba2</title>
<path fill="none" stroke="black" d="M99.95,-287.61C94.26,-277.62 87.92,-264.58 85,-252 81.38,-236.41 81.06,-231.51 85,-216 94.49,-178.68 117.63,-140.47 134.28,-116.29"/>
<polygon fill="black" stroke="black" points="137.19,-118.23 140.09,-108.04 131.47,-114.2 137.19,-118.23"/>
<g id="a_edge11&#45;headlabel"><a xlink:href="dir_000023_000055.html" target="_top" xlink:title="1">
<text text-anchor="middle" x="137.45" y="-120.31" font-family="Helvetica,sans-Serif" font-size="10.00">1</text>
</a>
</g>
</g>
<!-- dir_42d4540ea64ab009ab7a7dcd79fe63e8&#45;&gt;dir_d44c64559bbebec7f509842c48db8b23 -->
<g id="edge12" class="edge">
<title>dir_42d4540ea64ab009ab7a7dcd79fe63e8&#45;&gt;dir_d44c64559bbebec7f509842c48db8b23</title>
<path fill="none" stroke="black" d="M138.19,-296.14C147.29,-293.34 157.53,-290.36 167,-288 247.86,-267.87 298.04,-316.33 351,-252 400.17,-192.28 364.55,-92.46 343.09,-45.26"/>
<polygon fill="black" stroke="black" points="346.18,-43.59 338.77,-36.02 339.84,-46.56 346.18,-43.59"/>
<g id="a_edge12&#45;headlabel"><a xlink:href="dir_000023_000042.html" target="_top" xlink:title="5">
<text text-anchor="middle" x="350.27" y="-43.14" font-family="Helvetica,sans-Serif" font-size="10.00">5</text>
</a>
</g>
</g>
<!-- dir_1dc53930709e46457d0e1484ec309f4d&#45;&gt;dir_3a646564ec239f35c01425f0e9da2ba2 -->
<g id="edge14" class="edge">
<title>dir_1dc53930709e46457d0e1484ec309f4d&#45;&gt;dir_3a646564ec239f35c01425f0e9da2ba2</title>
<path fill="none" stroke="black" d="M181.71,-143.7C175.59,-135.64 168.97,-125.89 163.53,-116.98"/>
<polygon fill="black" stroke="black" points="166.41,-114.98 158.34,-108.1 160.36,-118.51 166.41,-114.98"/>
<g id="a_edge14&#45;headlabel"><a xlink:href="dir_000029_000055.html" target="_top" xlink:title="1">
<text text-anchor="middle" x="170.67" y="-114.15" font-family="Helvetica,sans-Serif" font-size="10.00">1</text>
</a>
</g>
</g>
<!-- dir_1dc53930709e46457d0e1484ec309f4d&#45;&gt;dir_d44c64559bbebec7f509842c48db8b23 -->
<g id="edge15" class="edge">
<title>dir_1dc53930709e46457d0e1484ec309f4d&#45;&gt;dir_d44c64559bbebec7f509842c48db8b23</title>
<path fill="none" stroke="black" d="M201.44,-143.85C205.54,-120.99 215.86,-80.57 240,-56 254.28,-41.46 275.1,-32.41 293.11,-26.9"/>
<polygon fill="black" stroke="black" points="294.09,-30.26 302.77,-24.19 292.2,-23.52 294.09,-30.26"/>
<g id="a_edge15&#45;headlabel"><a xlink:href="dir_000029_000042.html" target="_top" xlink:title="5">
<text text-anchor="middle" x="291.39" y="-31.46" font-family="Helvetica,sans-Serif" font-size="10.00">5</text>
</a>
</g>
</g>
<!-- dir_dfce509d3294b4958bedddff0a015025&#45;&gt;dir_1dc53930709e46457d0e1484ec309f4d -->
<g id="edge16" class="edge">
<title>dir_dfce509d3294b4958bedddff0a015025&#45;&gt;dir_1dc53930709e46457d0e1484ec309f4d</title>
<path fill="none" stroke="black" d="M147.81,-215.7C156.13,-207.14 166.31,-196.66 175.39,-187.3"/>
<polygon fill="black" stroke="black" points="177.93,-189.72 182.38,-180.1 172.91,-184.84 177.93,-189.72"/>
<g id="a_edge16&#45;headlabel"><a xlink:href="dir_000036_000029.html" target="_top" xlink:title="3">
<text text-anchor="middle" x="177.46" y="-191.77" font-family="Helvetica,sans-Serif" font-size="10.00">3</text>
</a>
</g>
</g>
<!-- dir_dfce509d3294b4958bedddff0a015025&#45;&gt;dir_3a646564ec239f35c01425f0e9da2ba2 -->
<g id="edge17" class="edge">
<title>dir_dfce509d3294b4958bedddff0a015025&#45;&gt;dir_3a646564ec239f35c01425f0e9da2ba2</title>
<path fill="none" stroke="black" d="M133.65,-215.87C137.4,-191.67 144.29,-147.21 148.76,-118.39"/>
<polygon fill="black" stroke="black" points="152.26,-118.61 150.34,-108.19 145.35,-117.54 152.26,-118.61"/>
<g id="a_edge17&#45;headlabel"><a xlink:href="dir_000036_000055.html" target="_top" xlink:title="1">
<text text-anchor="middle" x="154.52" y="-120.09" font-family="Helvetica,sans-Serif" font-size="10.00">1</text>
</a>
</g>
</g>
<!-- dir_dfce509d3294b4958bedddff0a015025&#45;&gt;dir_d44c64559bbebec7f509842c48db8b23 -->
<g id="edge18" class="edge">
<title>dir_dfce509d3294b4958bedddff0a015025&#45;&gt;dir_d44c64559bbebec7f509842c48db8b23</title>
<path fill="none" stroke="black" d="M158.4,-224.67C181.37,-216.49 213.73,-202 235,-180 277.29,-136.26 258.07,-105.82 293,-56 295.99,-51.74 299.49,-47.53 303.13,-43.57"/>
<polygon fill="black" stroke="black" points="305.73,-45.91 310.19,-36.3 300.71,-41.03 305.73,-45.91"/>
<g id="a_edge18&#45;headlabel"><a xlink:href="dir_000036_000042.html" target="_top" xlink:title="25">
<text text-anchor="middle" x="305.27" y="-47.97" font-family="Helvetica,sans-Serif" font-size="10.00">25</text>
</a>
</g>
</g>
<!-- dir_9c24722037d5ac7f64b4abda7bbd8009 -->
<g id="node6" class="node">
<title>dir_9c24722037d5ac7f64b4abda7bbd8009</title>
<g id="a_node6"><a xlink:href="dir_9c24722037d5ac7f64b4abda7bbd8009.html" target="_top" xlink:title="fs">
<polygon fill="#a2b4d6" stroke="#404040" points="230,-324 176,-324 176,-288 230,-288 230,-324"/>
<text text-anchor="middle" x="203" y="-303.5" font-family="Helvetica,sans-Serif" font-size="10.00">fs</text>
</a>
</g>
</g>
<!-- dir_9c24722037d5ac7f64b4abda7bbd8009&#45;&gt;dir_dfce509d3294b4958bedddff0a015025 -->
<g id="edge20" class="edge">
<title>dir_9c24722037d5ac7f64b4abda7bbd8009&#45;&gt;dir_dfce509d3294b4958bedddff0a015025</title>
<path fill="none" stroke="black" d="M185.2,-287.7C176.4,-279.14 165.62,-268.66 156,-259.3"/>
<polygon fill="black" stroke="black" points="158.2,-256.57 148.59,-252.1 153.32,-261.58 158.2,-256.57"/>
<g id="a_edge20&#45;headlabel"><a xlink:href="dir_000039_000036.html" target="_top" xlink:title="1">
<text text-anchor="middle" x="162.76" y="-254.54" font-family="Helvetica,sans-Serif" font-size="10.00">1</text>
</a>
</g>
</g>
<!-- dir_9c24722037d5ac7f64b4abda7bbd8009&#45;&gt;dir_3a646564ec239f35c01425f0e9da2ba2 -->
<g id="edge21" class="edge">
<title>dir_9c24722037d5ac7f64b4abda7bbd8009&#45;&gt;dir_3a646564ec239f35c01425f0e9da2ba2</title>
<path fill="none" stroke="black" d="M196.33,-287.9C187.33,-264.1 171.44,-219.44 163,-180 158.64,-159.6 156.1,-136.14 154.67,-118.43"/>
<polygon fill="black" stroke="black" points="158.15,-117.94 153.92,-108.22 151.17,-118.45 158.15,-117.94"/>
<g id="a_edge21&#45;headlabel"><a xlink:href="dir_000039_000055.html" target="_top" xlink:title="1">
<text text-anchor="middle" x="161.24" y="-118.82" font-family="Helvetica,sans-Serif" font-size="10.00">1</text>
</a>
</g>
</g>
<!-- dir_9c24722037d5ac7f64b4abda7bbd8009&#45;&gt;dir_d44c64559bbebec7f509842c48db8b23 -->
<g id="edge19" class="edge">
<title>dir_9c24722037d5ac7f64b4abda7bbd8009&#45;&gt;dir_d44c64559bbebec7f509842c48db8b23</title>
<path fill="none" stroke="black" d="M230.26,-301.04C276.11,-293.76 365.5,-276.7 384,-252 436.23,-182.28 424.62,-133.06 384,-56 379.85,-48.12 373.18,-41.6 365.93,-36.35"/>
<polygon fill="black" stroke="black" points="367.55,-33.23 357.25,-30.75 363.76,-39.11 367.55,-33.23"/>
<g id="a_edge19&#45;headlabel"><a xlink:href="dir_000039_000042.html" target="_top" xlink:title="11">
<text text-anchor="middle" x="372.11" y="-30.29" font-family="Helvetica,sans-Serif" font-size="10.00">11</text>
</a>
</g>
</g>
<!-- dir_3a646564ec239f35c01425f0e9da2ba2&#45;&gt;dir_1dc53930709e46457d0e1484ec309f4d -->
<g id="edge22" class="edge">
<title>dir_3a646564ec239f35c01425f0e9da2ba2&#45;&gt;dir_1dc53930709e46457d0e1484ec309f4d</title>
<path fill="none" stroke="black" d="M170.14,-108.1C176.25,-116.13 182.87,-125.87 188.34,-134.8"/>
<polygon fill="black" stroke="black" points="185.47,-136.83 193.54,-143.7 191.52,-133.3 185.47,-136.83"/>
<g id="a_edge22&#45;headlabel"><a xlink:href="dir_000055_000029.html" target="_top" xlink:title="2">
<text text-anchor="middle" x="181.21" y="-132.66" font-family="Helvetica,sans-Serif" font-size="10.00">2</text>
</a>
</g>
</g>
<!-- dir_3a646564ec239f35c01425f0e9da2ba2&#45;&gt;dir_d44c64559bbebec7f509842c48db8b23 -->
<g id="edge23" class="edge">
<title>dir_3a646564ec239f35c01425f0e9da2ba2&#45;&gt;dir_d44c64559bbebec7f509842c48db8b23</title>
<path fill="none" stroke="black" d="M173.06,-71.9C180.52,-66.2 189.29,-60.24 198,-56 228.46,-41.17 265.84,-31.4 293.05,-25.64"/>
<polygon fill="black" stroke="black" points="293.83,-29.05 302.94,-23.63 292.44,-22.19 293.83,-29.05"/>
<g id="a_edge23&#45;headlabel"><a xlink:href="dir_000055_000042.html" target="_top" xlink:title="20">
<text text-anchor="middle" x="290.88" y="-30.05" font-family="Helvetica,sans-Serif" font-size="10.00">20</text>
</a>
</g>
</g>
<!-- dir_0794a827a31cb385182265d9bd06009e -->
<g id="node8" class="node">
<title>dir_0794a827a31cb385182265d9bd06009e</title>
<g id="a_node8"><a xlink:href="dir_0794a827a31cb385182265d9bd06009e.html" target="_top" xlink:title="proc">
<polygon fill="#a2b4d6" stroke="#404040" points="270,-252 216,-252 216,-216 270,-216 270,-252"/>
<text text-anchor="middle" x="243" y="-231.5" font-family="Helvetica,sans-Serif" font-size="10.00">proc</text>
</a>
</g>
</g>
<!-- dir_0794a827a31cb385182265d9bd06009e&#45;&gt;dir_1dc53930709e46457d0e1484ec309f4d -->
<g id="edge24" class="edge">
<title>dir_0794a827a31cb385182265d9bd06009e&#45;&gt;dir_1dc53930709e46457d0e1484ec309f4d</title>
<path fill="none" stroke="black" d="M232.12,-215.7C227.01,-207.56 220.8,-197.69 215.16,-188.7"/>
<polygon fill="black" stroke="black" points="218.04,-186.71 209.75,-180.1 212.11,-190.43 218.04,-186.71"/>
<g id="a_edge24&#45;headlabel"><a xlink:href="dir_000062_000029.html" target="_top" xlink:title="1">
<text text-anchor="middle" x="222.35" y="-185.74" font-family="Helvetica,sans-Serif" font-size="10.00">1</text>
</a>
</g>
</g>
<!-- dir_0794a827a31cb385182265d9bd06009e&#45;&gt;dir_d44c64559bbebec7f509842c48db8b23 -->
<g id="edge25" class="edge">
<title>dir_0794a827a31cb385182265d9bd06009e&#45;&gt;dir_d44c64559bbebec7f509842c48db8b23</title>
<path fill="none" stroke="black" d="M251.43,-215.96C256.43,-205.64 262.8,-192.16 268,-180 287.98,-133.28 308.71,-77.78 320.42,-45.65"/>
<polygon fill="black" stroke="black" points="323.77,-46.68 323.89,-36.09 317.19,-44.29 323.77,-46.68"/>
<g id="a_edge25&#45;headlabel"><a xlink:href="dir_000062_000042.html" target="_top" xlink:title="3">
<text text-anchor="middle" x="325.21" y="-48.53" font-family="Helvetica,sans-Serif" font-size="10.00">3</text>
</a>
</g>
</g>
<!-- dir_52e0345b35ead48aa8a113112cdfd0a3 -->
<g id="node9" class="node">
<title>dir_52e0345b35ead48aa8a113112cdfd0a3</title>
<g id="a_node9"><a xlink:href="dir_52e0345b35ead48aa8a113112cdfd0a3.html" target="_top" xlink:title="sys">
<polygon fill="#a2b4d6" stroke="#404040" points="342,-252 288,-252 288,-216 342,-216 342,-252"/>
<text text-anchor="middle" x="315" y="-231.5" font-family="Helvetica,sans-Serif" font-size="10.00">sys</text>
</a>
</g>
</g>
<!-- dir_52e0345b35ead48aa8a113112cdfd0a3&#45;&gt;dir_1dc53930709e46457d0e1484ec309f4d -->
<g id="edge26" class="edge">
<title>dir_52e0345b35ead48aa8a113112cdfd0a3&#45;&gt;dir_1dc53930709e46457d0e1484ec309f4d</title>
<path fill="none" stroke="black" d="M287.8,-216.59C271.95,-207.02 251.77,-194.85 234.66,-184.52"/>
<polygon fill="black" stroke="black" points="236.4,-181.48 226.03,-179.31 232.78,-187.47 236.4,-181.48"/>
<g id="a_edge26&#45;headlabel"><a xlink:href="dir_000074_000029.html" target="_top" xlink:title="1">
<text text-anchor="middle" x="240.94" y="-178.41" font-family="Helvetica,sans-Serif" font-size="10.00">1</text>
</a>
</g>
</g>
<!-- dir_52e0345b35ead48aa8a113112cdfd0a3&#45;&gt;dir_d44c64559bbebec7f509842c48db8b23 -->
<g id="edge27" class="edge">
<title>dir_52e0345b35ead48aa8a113112cdfd0a3&#45;&gt;dir_d44c64559bbebec7f509842c48db8b23</title>
<path fill="none" stroke="black" d="M316.2,-215.85C318.8,-178.83 324.94,-91.18 328.08,-46.39"/>
<polygon fill="black" stroke="black" points="331.58,-46.45 328.79,-36.23 324.6,-45.96 331.58,-46.45"/>
<g id="a_edge27&#45;headlabel"><a xlink:href="dir_000074_000042.html" target="_top" xlink:title="7">
<text text-anchor="middle" x="334.17" y="-47.74" font-family="Helvetica,sans-Serif" font-size="10.00">7</text>
</a>
</g>
</g>
</g>
</svg>
