<?xml version="1.0" encoding="UTF-8" standalone="no"?>
<!DOCTYPE svg PUBLIC "-//W3C//DTD SVG 1.1//EN"
 "http://www.w3.org/Graphics/SVG/1.1/DTD/svg11.dtd">
<!-- Generated by graphviz version 3.0.0 (20220226.1711)
 -->
<!-- Title: src/kernel/arch/x86_64 Pages: 1 -->
<svg width="395pt" height="447pt"
 viewBox="0.00 0.00 394.77 447.00" xmlns="http://www.w3.org/2000/svg" xmlns:xlink="http://www.w3.org/1999/xlink">
<g id="graph0" class="graph" transform="scale(1 1) rotate(0) translate(4 443)">
<title>src/kernel/arch/x86_64</title>
<g id="clust1" class="cluster">
<title>clusterdir_76e3dd4d2fa719e8d3b096e9aa563982</title>
<g id="a_clust1"><a xlink:href="dir_76e3dd4d2fa719e8d3b096e9aa563982.html" target="_top" xlink:title="arch">
<polygon fill="#edf0f7" stroke="#7f7f7f" stroke-dasharray="5,2" points="8,-56 8,-431 286,-431 286,-56 8,-56"/>
<text text-anchor="middle" x="147" y="-419" font-family="Helvetica,sans-Serif" font-size="10.00">arch</text>
</a>
</g>
</g>
<g id="clust2" class="cluster">
<title>clusterdir_7c4c796ec9937bed8074dafcec3d25e4</title>
<g id="a_clust2"><a xlink:href="dir_7c4c796ec9937bed8074dafcec3d25e4.html" target="_top">
<polygon fill="#edf0f7" stroke="#404040" stroke-width="2" points="16,-64 16,-404 278,-404 278,-64 16,-64"/>
</a>
</g>
</g>
<!-- dir_7c4c796ec9937bed8074dafcec3d25e4 -->
<g id="node1" class="node">
<title>dir_7c4c796ec9937bed8074dafcec3d25e4</title>
<text text-anchor="middle" x="177" y="-375.5" font-family="Helvetica,sans-Serif" font-size="10.00">x86_64</text>
</g>
<!-- dir_42d4540ea64ab009ab7a7dcd79fe63e8 -->
<g id="node3" class="node">
<title>dir_42d4540ea64ab009ab7a7dcd79fe63e8</title>
<g id="a_node3"><a xlink:href="dir_42d4540ea64ab009ab7a7dcd79fe63e8.html" target="_top" xlink:title="console">
<polygon fill="#a2b4d6" stroke="#404040" points="158,-324 104,-324 104,-288 158,-288 158,-324"/>
<text text-anchor="middle" x="131" y="-303.5" font-family="Helvetica,sans-Serif" font-size="10.00">console</text>
</a>
</g>
</g>
<!-- dir_7c4c796ec9937bed8074dafcec3d25e4&#45;&gt;dir_42d4540ea64ab009ab7a7dcd79fe63e8 -->
<g id="edge3" class="edge">
<title>dir_7c4c796ec9937bed8074dafcec3d25e4&#45;&gt;dir_42d4540ea64ab009ab7a7dcd79fe63e8</title>
<path fill="none" stroke="black" d="M165.63,-359.7C160.28,-351.56 153.8,-341.69 147.89,-332.7"/>
<polygon fill="black" stroke="black" points="150.66,-330.54 142.24,-324.1 144.81,-334.38 150.66,-330.54"/>
<g id="a_edge3&#45;headlabel"><a xlink:href="dir_000078_000022.html" target="_top" xlink:title="2">
<text text-anchor="middle" x="155" y="-329.48" font-family="Helvetica,sans-Serif" font-size="10.00">2</text>
</a>
</g>
</g>
<!-- dir_1dc53930709e46457d0e1484ec309f4d -->
<g id="node4" class="node">
<title>dir_1dc53930709e46457d0e1484ec309f4d</title>
<g id="a_node4"><a xlink:href="dir_1dc53930709e46457d0e1484ec309f4d.html" target="_top" xlink:title="core">
<polygon fill="#a2b4d6" stroke="#404040" points="130,-108 76,-108 76,-72 130,-72 130,-108"/>
<text text-anchor="middle" x="103" y="-87.5" font-family="Helvetica,sans-Serif" font-size="10.00">core</text>
</a>
</g>
</g>
<!-- dir_7c4c796ec9937bed8074dafcec3d25e4&#45;&gt;dir_1dc53930709e46457d0e1484ec309f4d -->
<g id="edge1" class="edge">
<title>dir_7c4c796ec9937bed8074dafcec3d25e4&#45;&gt;dir_1dc53930709e46457d0e1484ec309f4d</title>
<path fill="none" stroke="black" d="M149.95,-367.58C130.82,-359.33 106.59,-345.29 95,-324 58.73,-257.38 79.85,-163.44 93.77,-117.87"/>
<polygon fill="black" stroke="black" points="97.17,-118.73 96.86,-108.14 90.5,-116.61 97.17,-118.73"/>
<g id="a_edge1&#45;headlabel"><a xlink:href="dir_000078_000027.html" target="_top" xlink:title="9">
<text text-anchor="middle" x="98.79" y="-120.52" font-family="Helvetica,sans-Serif" font-size="10.00">9</text>
</a>
</g>
</g>
<!-- dir_dfce509d3294b4958bedddff0a015025 -->
<g id="node5" class="node">
<title>dir_dfce509d3294b4958bedddff0a015025</title>
<g id="a_node5"><a xlink:href="dir_dfce509d3294b4958bedddff0a015025.html" target="_top" xlink:title="drivers">
<polygon fill="#a2b4d6" stroke="#404040" points="224,-252 170,-252 170,-216 224,-216 224,-252"/>
<text text-anchor="middle" x="197" y="-231.5" font-family="Helvetica,sans-Serif" font-size="10.00">drivers</text>
</a>
</g>
</g>
<!-- dir_7c4c796ec9937bed8074dafcec3d25e4&#45;&gt;dir_dfce509d3294b4958bedddff0a015025 -->
<g id="edge5" class="edge">
<title>dir_7c4c796ec9937bed8074dafcec3d25e4&#45;&gt;dir_dfce509d3294b4958bedddff0a015025</title>
<path fill="none" stroke="black" d="M179.41,-359.87C182.82,-335.67 189.08,-291.21 193.14,-262.39"/>
<polygon fill="black" stroke="black" points="196.65,-262.58 194.58,-252.19 189.72,-261.6 196.65,-262.58"/>
<g id="a_edge5&#45;headlabel"><a xlink:href="dir_000078_000033.html" target="_top" xlink:title="10">
<text text-anchor="middle" x="198.96" y="-264.04" font-family="Helvetica,sans-Serif" font-size="10.00">10</text>
</a>
</g>
</g>
<!-- dir_3a646564ec239f35c01425f0e9da2ba2 -->
<g id="node7" class="node">
<title>dir_3a646564ec239f35c01425f0e9da2ba2</title>
<g id="a_node7"><a xlink:href="dir_3a646564ec239f35c01425f0e9da2ba2.html" target="_top" xlink:title="mmu">
<polygon fill="#a2b4d6" stroke="#404040" points="178,-180 124,-180 124,-144 178,-144 178,-180"/>
<text text-anchor="middle" x="151" y="-159.5" font-family="Helvetica,sans-Serif" font-size="10.00">mmu</text>
</a>
</g>
</g>
<!-- dir_7c4c796ec9937bed8074dafcec3d25e4&#45;&gt;dir_3a646564ec239f35c01425f0e9da2ba2 -->
<g id="edge2" class="edge">
<title>dir_7c4c796ec9937bed8074dafcec3d25e4&#45;&gt;dir_3a646564ec239f35c01425f0e9da2ba2</title>
<path fill="none" stroke="black" d="M175.35,-359.9C173.56,-341.96 170.48,-312.95 167,-288 164.76,-271.93 163.24,-268.07 161,-252 158.12,-231.34 155.51,-207.89 153.68,-190.25"/>
<polygon fill="black" stroke="black" points="157.14,-189.69 152.65,-180.1 150.18,-190.4 157.14,-189.69"/>
<g id="a_edge2&#45;headlabel"><a xlink:href="dir_000078_000051.html" target="_top" xlink:title="7">
<text text-anchor="middle" x="160.33" y="-190.48" font-family="Helvetica,sans-Serif" font-size="10.00">7</text>
</a>
</g>
</g>
<!-- dir_d44c64559bbebec7f509842c48db8b23 -->
<g id="node8" class="node">
<title>dir_d44c64559bbebec7f509842c48db8b23</title>
<g id="a_node8"><a xlink:href="dir_d44c64559bbebec7f509842c48db8b23.html" target="_top" xlink:title="include">
<polygon fill="none" stroke="red" points="299,-36 245,-36 245,0 299,0 299,-36"/>
<text text-anchor="middle" x="272" y="-15.5" font-family="Helvetica,sans-Serif" font-size="10.00">include</text>
</a>
</g>
</g>
<!-- dir_7c4c796ec9937bed8074dafcec3d25e4&#45;&gt;dir_d44c64559bbebec7f509842c48db8b23 -->
<g id="edge4" class="edge">
<title>dir_7c4c796ec9937bed8074dafcec3d25e4&#45;&gt;dir_d44c64559bbebec7f509842c48db8b23</title>
<path fill="none" stroke="black" d="M204.08,-377.13C244.25,-375.79 319.46,-367.21 362,-324 390.74,-294.81 386,-275.97 386,-235 386,-235 386,-235 386,-161 386,-113.13 392.94,-92.53 362,-56 348.64,-40.23 327.5,-31.08 309.06,-25.83"/>
<polygon fill="black" stroke="black" points="309.71,-22.38 299.16,-23.29 307.98,-29.16 309.71,-22.38"/>
<g id="a_edge4&#45;headlabel"><a xlink:href="dir_000078_000039.html" target="_top" xlink:title="106">
<text text-anchor="middle" x="313.9" y="-18.02" font-family="Helvetica,sans-Serif" font-size="10.00">106</text>
</a>
</g>
</g>
<!-- dir_2acc9ac41bab451ccb7f12c38e9a27aa -->
<g id="node2" class="node">
<title>dir_2acc9ac41bab451ccb7f12c38e9a27aa</title>
<g id="a_node2"><a xlink:href="dir_2acc9ac41bab451ccb7f12c38e9a27aa.html" target="_top" xlink:title="arch">
<polygon fill="#a2b4d6" stroke="#404040" points="92,-396 38,-396 38,-360 92,-360 92,-396"/>
<text text-anchor="middle" x="65" y="-375.5" font-family="Helvetica,sans-Serif" font-size="10.00">arch</text>
</a>
</g>
</g>
<!-- dir_2acc9ac41bab451ccb7f12c38e9a27aa&#45;&gt;dir_42d4540ea64ab009ab7a7dcd79fe63e8 -->
<g id="edge8" class="edge">
<title>dir_2acc9ac41bab451ccb7f12c38e9a27aa&#45;&gt;dir_42d4540ea64ab009ab7a7dcd79fe63e8</title>
<path fill="none" stroke="black" d="M81.31,-359.7C89.31,-351.22 99.07,-340.86 107.82,-331.58"/>
<polygon fill="black" stroke="black" points="110.56,-333.78 114.87,-324.1 105.47,-328.98 110.56,-333.78"/>
<g id="a_edge8&#45;headlabel"><a xlink:href="dir_000008_000022.html" target="_top" xlink:title="1">
<text text-anchor="middle" x="110.16" y="-335.84" font-family="Helvetica,sans-Serif" font-size="10.00">1</text>
</a>
</g>
</g>
<!-- dir_2acc9ac41bab451ccb7f12c38e9a27aa&#45;&gt;dir_1dc53930709e46457d0e1484ec309f4d -->
<g id="edge6" class="edge">
<title>dir_2acc9ac41bab451ccb7f12c38e9a27aa&#45;&gt;dir_1dc53930709e46457d0e1484ec309f4d</title>
<path fill="none" stroke="black" d="M61.46,-359.73C54.14,-320.24 40.06,-220.85 66,-144 69.3,-134.21 75.01,-124.62 80.97,-116.33"/>
<polygon fill="black" stroke="black" points="83.88,-118.29 87.18,-108.23 78.32,-114.04 83.88,-118.29"/>
<g id="a_edge6&#45;headlabel"><a xlink:href="dir_000008_000027.html" target="_top" xlink:title="2">
<text text-anchor="middle" x="83.95" y="-120.37" font-family="Helvetica,sans-Serif" font-size="10.00">2</text>
</a>
</g>
</g>
<!-- dir_2acc9ac41bab451ccb7f12c38e9a27aa&#45;&gt;dir_dfce509d3294b4958bedddff0a015025 -->
<g id="edge10" class="edge">
<title>dir_2acc9ac41bab451ccb7f12c38e9a27aa&#45;&gt;dir_dfce509d3294b4958bedddff0a015025</title>
<path fill="none" stroke="black" d="M66.93,-359.71C69.92,-340.25 77.28,-308.68 95,-288 112.11,-268.02 138.65,-254.57 160.36,-246.21"/>
<polygon fill="black" stroke="black" points="161.74,-249.43 169.95,-242.73 159.35,-242.86 161.74,-249.43"/>
<g id="a_edge10&#45;headlabel"><a xlink:href="dir_000008_000033.html" target="_top" xlink:title="5">
<text text-anchor="middle" x="159.34" y="-250.83" font-family="Helvetica,sans-Serif" font-size="10.00">5</text>
</a>
</g>
</g>
<!-- dir_2acc9ac41bab451ccb7f12c38e9a27aa&#45;&gt;dir_3a646564ec239f35c01425f0e9da2ba2 -->
<g id="edge7" class="edge">
<title>dir_2acc9ac41bab451ccb7f12c38e9a27aa&#45;&gt;dir_3a646564ec239f35c01425f0e9da2ba2</title>
<path fill="none" stroke="black" d="M63.67,-359.79C62.83,-341.5 63.1,-311.97 71,-288 83.55,-249.91 110.41,-211.93 129.54,-188.01"/>
<polygon fill="black" stroke="black" points="132.34,-190.11 135.95,-180.15 126.92,-185.69 132.34,-190.11"/>
<g id="a_edge7&#45;headlabel"><a xlink:href="dir_000008_000051.html" target="_top" xlink:title="1">
<text text-anchor="middle" x="132.27" y="-192.19" font-family="Helvetica,sans-Serif" font-size="10.00">1</text>
</a>
</g>
</g>
<!-- dir_2acc9ac41bab451ccb7f12c38e9a27aa&#45;&gt;dir_d44c64559bbebec7f509842c48db8b23 -->
<g id="edge9" class="edge">
<title>dir_2acc9ac41bab451ccb7f12c38e9a27aa&#45;&gt;dir_d44c64559bbebec7f509842c48db8b23</title>
<path fill="none" stroke="black" d="M92.18,-370.77C148.01,-357.9 271.08,-329.16 279,-324 320.95,-296.69 348,-285.05 348,-235 348,-235 348,-235 348,-161 348,-115.64 317.48,-70.75 295.12,-43.95"/>
<polygon fill="black" stroke="black" points="297.66,-41.53 288.49,-36.23 292.36,-46.09 297.66,-41.53"/>
<g id="a_edge9&#45;headlabel"><a xlink:href="dir_000008_000039.html" target="_top" xlink:title="25">
<text text-anchor="middle" x="302.16" y="-39.9" font-family="Helvetica,sans-Serif" font-size="10.00">25</text>
</a>
</g>
</g>
<!-- dir_42d4540ea64ab009ab7a7dcd79fe63e8&#45;&gt;dir_1dc53930709e46457d0e1484ec309f4d -->
<g id="edge11" class="edge">
<title>dir_42d4540ea64ab009ab7a7dcd79fe63e8&#45;&gt;dir_1dc53930709e46457d0e1484ec309f4d</title>
<path fill="none" stroke="black" d="M128.76,-287.85C123.91,-250.83 112.44,-163.18 106.58,-118.39"/>
<polygon fill="black" stroke="black" points="110.02,-117.69 105.25,-108.23 103.08,-118.6 110.02,-117.69"/>
<g id="a_edge11&#45;headlabel"><a xlink:href="dir_000022_000027.html" target="_top" xlink:title="1">
<text text-anchor="middle" x="113.3" y="-118.39" font-family="Helvetica,sans-Serif" font-size="10.00">1</text>
</a>
</g>
</g>
<!-- dir_42d4540ea64ab009ab7a7dcd79fe63e8&#45;&gt;dir_dfce509d3294b4958bedddff0a015025 -->
<g id="edge14" class="edge">
<title>dir_42d4540ea64ab009ab7a7dcd79fe63e8&#45;&gt;dir_dfce509d3294b4958bedddff0a015025</title>
<path fill="none" stroke="black" d="M147.31,-287.7C155.31,-279.22 165.07,-268.86 173.82,-259.58"/>
<polygon fill="black" stroke="black" points="176.56,-261.78 180.87,-252.1 171.47,-256.98 176.56,-261.78"/>
<g id="a_edge14&#45;headlabel"><a xlink:href="dir_000022_000033.html" target="_top" xlink:title="1">
<text text-anchor="middle" x="176.16" y="-263.84" font-family="Helvetica,sans-Serif" font-size="10.00">1</text>
</a>
</g>
</g>
<!-- dir_42d4540ea64ab009ab7a7dcd79fe63e8&#45;&gt;dir_3a646564ec239f35c01425f0e9da2ba2 -->
<g id="edge12" class="edge">
<title>dir_42d4540ea64ab009ab7a7dcd79fe63e8&#45;&gt;dir_3a646564ec239f35c01425f0e9da2ba2</title>
<path fill="none" stroke="black" d="M133.41,-287.87C136.82,-263.67 143.08,-219.21 147.14,-190.39"/>
<polygon fill="black" stroke="black" points="150.65,-190.58 148.58,-180.19 143.72,-189.6 150.65,-190.58"/>
<g id="a_edge12&#45;headlabel"><a xlink:href="dir_000022_000051.html" target="_top" xlink:title="1">
<text text-anchor="middle" x="152.96" y="-192.04" font-family="Helvetica,sans-Serif" font-size="10.00">1</text>
</a>
</g>
</g>
<!-- dir_42d4540ea64ab009ab7a7dcd79fe63e8&#45;&gt;dir_d44c64559bbebec7f509842c48db8b23 -->
<g id="edge13" class="edge">
<title>dir_42d4540ea64ab009ab7a7dcd79fe63e8&#45;&gt;dir_d44c64559bbebec7f509842c48db8b23</title>
<path fill="none" stroke="black" d="M158.03,-298.27C181.63,-290.94 214.85,-276.8 233,-252 278.62,-189.67 278.22,-92.95 274.83,-46.17"/>
<polygon fill="black" stroke="black" points="278.31,-45.86 274,-36.19 271.34,-46.44 278.31,-45.86"/>
<g id="a_edge13&#45;headlabel"><a xlink:href="dir_000022_000039.html" target="_top" xlink:title="7">
<text text-anchor="middle" x="281.44" y="-46.71" font-family="Helvetica,sans-Serif" font-size="10.00">7</text>
</a>
</g>
</g>
<!-- dir_1dc53930709e46457d0e1484ec309f4d&#45;&gt;dir_d44c64559bbebec7f509842c48db8b23 -->
<g id="edge15" class="edge">
<title>dir_1dc53930709e46457d0e1484ec309f4d&#45;&gt;dir_d44c64559bbebec7f509842c48db8b23</title>
<path fill="none" stroke="black" d="M130.01,-74.03C141.28,-68.06 154.6,-61.35 167,-56 189.27,-46.39 214.93,-37.31 235.31,-30.55"/>
<polygon fill="black" stroke="black" points="236.44,-33.87 244.85,-27.43 234.26,-27.21 236.44,-33.87"/>
<g id="a_edge15&#45;headlabel"><a xlink:href="dir_000027_000039.html" target="_top" xlink:title="3">
<text text-anchor="middle" x="233.9" y="-35.18" font-family="Helvetica,sans-Serif" font-size="10.00">3</text>
</a>
</g>
</g>
<!-- dir_dfce509d3294b4958bedddff0a015025&#45;&gt;dir_1dc53930709e46457d0e1484ec309f4d -->
<g id="edge16" class="edge">
<title>dir_dfce509d3294b4958bedddff0a015025&#45;&gt;dir_1dc53930709e46457d0e1484ec309f4d</title>
<path fill="none" stroke="black" d="M199.24,-215.84C200.84,-196.8 200.71,-165.87 187,-144 176.03,-126.49 156.93,-113.77 139.71,-105.18"/>
<polygon fill="black" stroke="black" points="140.94,-101.89 130.4,-100.83 137.98,-108.23 140.94,-101.89"/>
<g id="a_edge16&#45;headlabel"><a xlink:href="dir_000033_000027.html" target="_top" xlink:title="3">
<text text-anchor="middle" x="145.4" y="-98.34" font-family="Helvetica,sans-Serif" font-size="10.00">3</text>
</a>
</g>
</g>
<!-- dir_dfce509d3294b4958bedddff0a015025&#45;&gt;dir_3a646564ec239f35c01425f0e9da2ba2 -->
<g id="edge17" class="edge">
<title>dir_dfce509d3294b4958bedddff0a015025&#45;&gt;dir_3a646564ec239f35c01425f0e9da2ba2</title>
<path fill="none" stroke="black" d="M185.63,-215.7C180.28,-207.56 173.8,-197.69 167.89,-188.7"/>
<polygon fill="black" stroke="black" points="170.66,-186.54 162.24,-180.1 164.81,-190.38 170.66,-186.54"/>
<g id="a_edge17&#45;headlabel"><a xlink:href="dir_000033_000051.html" target="_top" xlink:title="1">
<text text-anchor="middle" x="175" y="-185.48" font-family="Helvetica,sans-Serif" font-size="10.00">1</text>
</a>
</g>
</g>
<!-- dir_dfce509d3294b4958bedddff0a015025&#45;&gt;dir_d44c64559bbebec7f509842c48db8b23 -->
<g id="edge18" class="edge">
<title>dir_dfce509d3294b4958bedddff0a015025&#45;&gt;dir_d44c64559bbebec7f509842c48db8b23</title>
<path fill="none" stroke="black" d="M202.72,-215.85C213.33,-184.18 236.9,-114.38 258,-56 259.2,-52.67 260.49,-49.18 261.78,-45.73"/>
<polygon fill="black" stroke="black" points="265.09,-46.87 265.34,-36.28 258.54,-44.4 265.09,-46.87"/>
<g id="a_edge18&#45;headlabel"><a xlink:href="dir_000033_000039.html" target="_top" xlink:title="26">
<text text-anchor="middle" x="266.48" y="-48.73" font-family="Helvetica,sans-Serif" font-size="10.00">26</text>
</a>
</g>
</g>
<!-- dir_9c24722037d5ac7f64b4abda7bbd8009 -->
<g id="node6" class="node">
<title>dir_9c24722037d5ac7f64b4abda7bbd8009</title>
<g id="a_node6"><a xlink:href="dir_9c24722037d5ac7f64b4abda7bbd8009.html" target="_top" xlink:title="fs">
<polygon fill="#a2b4d6" stroke="#404040" points="270,-324 216,-324 216,-288 270,-288 270,-324"/>
<text text-anchor="middle" x="243" y="-303.5" font-family="Helvetica,sans-Serif" font-size="10.00">fs</text>
</a>
</g>
</g>
<!-- dir_9c24722037d5ac7f64b4abda7bbd8009&#45;&gt;dir_dfce509d3294b4958bedddff0a015025 -->
<g id="edge20" class="edge">
<title>dir_9c24722037d5ac7f64b4abda7bbd8009&#45;&gt;dir_dfce509d3294b4958bedddff0a015025</title>
<path fill="none" stroke="black" d="M231.63,-287.7C226.28,-279.56 219.8,-269.69 213.89,-260.7"/>
<polygon fill="black" stroke="black" points="216.66,-258.54 208.24,-252.1 210.81,-262.38 216.66,-258.54"/>
<g id="a_edge20&#45;headlabel"><a xlink:href="dir_000036_000033.html" target="_top" xlink:title="1">
<text text-anchor="middle" x="221" y="-257.48" font-family="Helvetica,sans-Serif" font-size="10.00">1</text>
</a>
</g>
</g>
<!-- dir_9c24722037d5ac7f64b4abda7bbd8009&#45;&gt;dir_3a646564ec239f35c01425f0e9da2ba2 -->
<g id="edge21" class="edge">
<title>dir_9c24722037d5ac7f64b4abda7bbd8009&#45;&gt;dir_3a646564ec239f35c01425f0e9da2ba2</title>
<path fill="none" stroke="black" d="M245.2,-287.87C246.76,-268.85 246.59,-237.94 233,-216 222.38,-198.85 203.92,-186.2 187.21,-177.56"/>
<polygon fill="black" stroke="black" points="188.68,-174.39 178.16,-173.18 185.63,-180.69 188.68,-174.39"/>
<g id="a_edge21&#45;headlabel"><a xlink:href="dir_000036_000051.html" target="_top" xlink:title="1">
<text text-anchor="middle" x="193.16" y="-170.9" font-family="Helvetica,sans-Serif" font-size="10.00">1</text>
</a>
</g>
</g>
<!-- dir_9c24722037d5ac7f64b4abda7bbd8009&#45;&gt;dir_d44c64559bbebec7f509842c48db8b23 -->
<g id="edge19" class="edge">
<title>dir_9c24722037d5ac7f64b4abda7bbd8009&#45;&gt;dir_d44c64559bbebec7f509842c48db8b23</title>
<path fill="none" stroke="black" d="M262.04,-287.84C271.18,-278.3 281.17,-265.62 286,-252 315.12,-169.9 301.67,-141.69 286,-56 285.39,-52.69 284.51,-49.29 283.47,-45.96"/>
<polygon fill="black" stroke="black" points="286.69,-44.56 280.03,-36.32 280.09,-46.91 286.69,-44.56"/>
<g id="a_edge19&#45;headlabel"><a xlink:href="dir_000036_000039.html" target="_top" xlink:title="11">
<text text-anchor="middle" x="290.57" y="-44.49" font-family="Helvetica,sans-Serif" font-size="10.00">11</text>
</a>
</g>
</g>
<!-- dir_3a646564ec239f35c01425f0e9da2ba2&#45;&gt;dir_1dc53930709e46457d0e1484ec309f4d -->
<g id="edge22" class="edge">
<title>dir_3a646564ec239f35c01425f0e9da2ba2&#45;&gt;dir_1dc53930709e46457d0e1484ec309f4d</title>
<path fill="none" stroke="black" d="M139.13,-143.7C133.5,-135.47 126.65,-125.48 120.43,-116.42"/>
<polygon fill="black" stroke="black" points="123.27,-114.37 114.73,-108.1 117.5,-118.33 123.27,-114.37"/>
<g id="a_edge22&#45;headlabel"><a xlink:href="dir_000051_000027.html" target="_top" xlink:title="2">
<text text-anchor="middle" x="127.65" y="-113.23" font-family="Helvetica,sans-Serif" font-size="10.00">2</text>
</a>
</g>
</g>
<!-- dir_3a646564ec239f35c01425f0e9da2ba2&#45;&gt;dir_d44c64559bbebec7f509842c48db8b23 -->
<g id="edge23" class="edge">
<title>dir_3a646564ec239f35c01425f0e9da2ba2&#45;&gt;dir_d44c64559bbebec7f509842c48db8b23</title>
<path fill="none" stroke="black" d="M158.74,-143.82C169.32,-121.65 190.01,-82.77 216,-56 222.01,-49.81 229.23,-44.11 236.45,-39.13"/>
<polygon fill="black" stroke="black" points="238.41,-42.03 244.86,-33.62 234.58,-36.17 238.41,-42.03"/>
<g id="a_edge23&#45;headlabel"><a xlink:href="dir_000051_000039.html" target="_top" xlink:title="21">
<text text-anchor="middle" x="236.95" y="-43.87" font-family="Helvetica,sans-Serif" font-size="10.00">21</text>
</a>
</g>
</g>
</g>
</svg>
