<?xml version="1.0" encoding="UTF-8" standalone="no"?>
<!DOCTYPE svg PUBLIC "-//W3C//DTD SVG 1.1//EN"
 "http://www.w3.org/Graphics/SVG/1.1/DTD/svg11.dtd">
<!-- Generated by graphviz version 9.0.0 (20230911.1827)
 -->
<!-- Title: src/kernel/arch/aarch32 Pages: 1 -->
<svg width="375pt" height="126pt"
 viewBox="0.00 0.00 375.00 125.75" xmlns="http://www.w3.org/2000/svg" xmlns:xlink="http://www.w3.org/1999/xlink">
<g id="graph0" class="graph" transform="scale(1 1) rotate(0) translate(4 121.75)">
<title>src/kernel/arch/aarch32</title>
<g id="clust1" class="cluster">
<title>clusterdir_76e3dd4d2fa719e8d3b096e9aa563982</title>
<g id="a_clust1"><a xlink:href="dir_76e3dd4d2fa719e8d3b096e9aa563982.html" target="_top" xlink:title="arch">
<polygon fill="#edf0f7" stroke="#7f7f7f" stroke-dasharray="5,2" points="8,-39.25 8,-109.75 359,-109.75 359,-39.25 8,-39.25"/>
<text text-anchor="middle" x="183.5" y="-96.25" font-family="Helvetica,sans-Serif" font-size="10.00">arch</text>
</a>
</g>
</g>
<g id="clust2" class="cluster">
<title>clusterdir_164d9d2f5b0c525076e27a6a92d62d00</title>
<g id="a_clust2"><a xlink:href="dir_164d9d2f5b0c525076e27a6a92d62d00.html" target="_top">
<polygon fill="#edf0f7" stroke="#404040" stroke-width="2" points="16,-47.25 16,-82.5 351,-82.5 351,-47.25 16,-47.25"/>
</a>
</g>
</g>
<!-- dir_164d9d2f5b0c525076e27a6a92d62d00 -->
<g id="node1" class="node">
<title>dir_164d9d2f5b0c525076e27a6a92d62d00</title>
<text text-anchor="middle" x="318" y="-61" font-family="Helvetica,sans-Serif" font-size="10.00">aarch32</text>
</g>
<!-- dir_d44c64559bbebec7f509842c48db8b23 -->
<g id="node7" class="node">
<title>dir_d44c64559bbebec7f509842c48db8b23</title>
<g id="a_node7"><a xlink:href="dir_d44c64559bbebec7f509842c48db8b23.html" target="_top" xlink:title="include">
<polygon fill="#edf0f7" stroke="red" points="252.38,-19.25 205.62,-19.25 205.62,0 252.38,0 252.38,-19.25"/>
<text text-anchor="middle" x="229" y="-5.75" font-family="Helvetica,sans-Serif" font-size="10.00">include</text>
</a>
</g>
</g>
<!-- dir_164d9d2f5b0c525076e27a6a92d62d00&#45;&gt;dir_d44c64559bbebec7f509842c48db8b23 -->
<g id="edge1" class="edge">
<title>dir_164d9d2f5b0c525076e27a6a92d62d00&#45;&gt;dir_d44c64559bbebec7f509842c48db8b23</title>
<g id="a_edge1"><a xlink:href="dir_000000_000039.html" target="_top">
<path fill="none" stroke="#63b8ff" d="M306.58,-55.29C299.86,-50.38 291.11,-44.22 283,-39.25 274.92,-34.3 265.91,-29.31 257.6,-24.93"/>
<polygon fill="#63b8ff" stroke="#63b8ff" points="259.4,-21.92 248.91,-20.43 256.18,-28.14 259.4,-21.92"/>
</a>
</g>
<g id="a_edge1&#45;headlabel"><a xlink:href="dir_000000_000039.html" target="_top" xlink:title="28">
<text text-anchor="middle" x="262.55" y="-16.48" font-family="Helvetica,sans-Serif" font-size="10.00" fill="#63b8ff">28</text>
</a>
</g>
</g>
<!-- dir_127b28394ef68d7ee8832494ea6f06dd -->
<g id="node2" class="node">
<title>dir_127b28394ef68d7ee8832494ea6f06dd</title>
<g id="a_node2"><a xlink:href="dir_127b28394ef68d7ee8832494ea6f06dd.html" target="_top" xlink:title="arch">
<polygon fill="#a2b4d6" stroke="#404040" points="274.38,-74.5 239.62,-74.5 239.62,-55.25 274.38,-55.25 274.38,-74.5"/>
<text text-anchor="middle" x="257" y="-61" font-family="Helvetica,sans-Serif" font-size="10.00">arch</text>
</a>
</g>
</g>
<!-- dir_127b28394ef68d7ee8832494ea6f06dd&#45;&gt;dir_d44c64559bbebec7f509842c48db8b23 -->
<g id="edge2" class="edge">
<title>dir_127b28394ef68d7ee8832494ea6f06dd&#45;&gt;dir_d44c64559bbebec7f509842c48db8b23</title>
<g id="a_edge2"><a xlink:href="dir_000004_000039.html" target="_top">
<path fill="none" stroke="#63b8ff" d="M252.38,-55.08C248.75,-48.19 243.57,-38.34 239.01,-29.66"/>
<polygon fill="#63b8ff" stroke="#63b8ff" points="242.18,-28.17 234.43,-20.95 235.98,-31.43 242.18,-28.17"/>
</a>
</g>
<g id="a_edge2&#45;headlabel"><a xlink:href="dir_000004_000039.html" target="_top" xlink:title="12">
<text text-anchor="middle" x="245.66" y="-24.82" font-family="Helvetica,sans-Serif" font-size="10.00" fill="#63b8ff">12</text>
</a>
</g>
</g>
<!-- dir_8599ff620e2cfe485ca84e035b93a5ea -->
<g id="node3" class="node">
<title>dir_8599ff620e2cfe485ca84e035b93a5ea</title>
<g id="a_node3"><a xlink:href="dir_8599ff620e2cfe485ca84e035b93a5ea.html" target="_top" xlink:title="board">
<polygon fill="#a2b4d6" stroke="#404040" points="222,-74.5 182,-74.5 182,-55.25 222,-55.25 222,-74.5"/>
<text text-anchor="middle" x="202" y="-61" font-family="Helvetica,sans-Serif" font-size="10.00">board</text>
</a>
</g>
</g>
<!-- dir_8599ff620e2cfe485ca84e035b93a5ea&#45;&gt;dir_d44c64559bbebec7f509842c48db8b23 -->
<g id="edge3" class="edge">
<title>dir_8599ff620e2cfe485ca84e035b93a5ea&#45;&gt;dir_d44c64559bbebec7f509842c48db8b23</title>
<g id="a_edge3"><a xlink:href="dir_000015_000039.html" target="_top">
<path fill="none" stroke="#63b8ff" d="M206.46,-55.08C209.95,-48.19 214.95,-38.34 219.35,-29.66"/>
<polygon fill="#63b8ff" stroke="#63b8ff" points="222.36,-31.46 223.76,-20.96 216.12,-28.3 222.36,-31.46"/>
</a>
</g>
<g id="a_edge3&#45;headlabel"><a xlink:href="dir_000015_000039.html" target="_top" xlink:title="14">
<text text-anchor="middle" x="223.95" y="-30.73" font-family="Helvetica,sans-Serif" font-size="10.00" fill="#63b8ff">14</text>
</a>
</g>
</g>
<!-- dir_9f169674381755ff82f5c420aa567a6a -->
<g id="node4" class="node">
<title>dir_9f169674381755ff82f5c420aa567a6a</title>
<g id="a_node4"><a xlink:href="dir_9f169674381755ff82f5c420aa567a6a.html" target="_top" xlink:title="core">
<polygon fill="#a2b4d6" stroke="#404040" points="164.38,-74.5 129.62,-74.5 129.62,-55.25 164.38,-55.25 164.38,-74.5"/>
<text text-anchor="middle" x="147" y="-61" font-family="Helvetica,sans-Serif" font-size="10.00">core</text>
</a>
</g>
</g>
<!-- dir_4af6b765c4f87f8f02f55c09da1949c7 -->
<g id="node5" class="node">
<title>dir_4af6b765c4f87f8f02f55c09da1949c7</title>
<g id="a_node5"><a xlink:href="dir_4af6b765c4f87f8f02f55c09da1949c7.html" target="_top" xlink:title="mmu">
<polygon fill="#a2b4d6" stroke="#404040" points="111.88,-74.5 74.12,-74.5 74.12,-55.25 111.88,-55.25 111.88,-74.5"/>
<text text-anchor="middle" x="93" y="-61" font-family="Helvetica,sans-Serif" font-size="10.00">mmu</text>
</a>
</g>
</g>
<!-- dir_4af6b765c4f87f8f02f55c09da1949c7&#45;&gt;dir_d44c64559bbebec7f509842c48db8b23 -->
<g id="edge4" class="edge">
<title>dir_4af6b765c4f87f8f02f55c09da1949c7&#45;&gt;dir_d44c64559bbebec7f509842c48db8b23</title>
<g id="a_edge4"><a xlink:href="dir_000049_000039.html" target="_top">
<path fill="none" stroke="#63b8ff" d="M101.04,-54.97C106.25,-49.69 113.46,-43.27 121,-39.25 143.92,-27.02 172.42,-19.75 194.38,-15.6"/>
<polygon fill="#63b8ff" stroke="#63b8ff" points="194.78,-19.08 204.03,-13.91 193.58,-12.19 194.78,-19.08"/>
</a>
</g>
<g id="a_edge4&#45;headlabel"><a xlink:href="dir_000049_000039.html" target="_top" xlink:title="1">
<text text-anchor="middle" x="193.22" y="-18.36" font-family="Helvetica,sans-Serif" font-size="10.00" fill="#63b8ff">1</text>
</a>
</g>
</g>
<!-- dir_d73a7f2c621826688c2d98a755c1a743 -->
<g id="node6" class="node">
<title>dir_d73a7f2c621826688c2d98a755c1a743</title>
<g id="a_node6"><a xlink:href="dir_d73a7f2c621826688c2d98a755c1a743.html" target="_top" xlink:title="sys">
<polygon fill="#a2b4d6" stroke="#404040" points="55.88,-74.5 24.12,-74.5 24.12,-55.25 55.88,-55.25 55.88,-74.5"/>
<text text-anchor="middle" x="40" y="-61" font-family="Helvetica,sans-Serif" font-size="10.00">sys</text>
</a>
</g>
</g>
</g>
</svg>
