<?xml version="1.0" encoding="UTF-8" standalone="no"?>
<!DOCTYPE svg PUBLIC "-//W3C//DTD SVG 1.1//EN"
 "http://www.w3.org/Graphics/SVG/1.1/DTD/svg11.dtd">
<!-- Generated by graphviz version 2.50.0 (20211204.2007)
 -->
<!-- Title: src/kernel/arch/x86_64/core Pages: 1 -->
<svg width="150pt" height="167pt"
 viewBox="0.00 0.00 150.00 167.00" xmlns="http://www.w3.org/2000/svg" xmlns:xlink="http://www.w3.org/1999/xlink">
<g id="graph0" class="graph" transform="scale(1 1) rotate(0) translate(4 163)">
<title>src/kernel/arch/x86_64/core</title>
<g id="clust1" class="cluster">
<title>clusterdir_7c4c796ec9937bed8074dafcec3d25e4</title>
<g id="a_clust1"><a xlink:href="dir_7c4c796ec9937bed8074dafcec3d25e4.html" target="_top" xlink:title="x86_64">
<polygon fill="#edf0f7" stroke="#7f7f7f" stroke-dasharray="5,2" points="8,-8 8,-151 78,-151 78,-8 8,-8"/>
<text text-anchor="middle" x="43" y="-139" font-family="Helvetica,sans-Serif" font-size="10.00">x86_64</text>
</a>
</g>
</g>
<!-- dir_3a646564ec239f35c01425f0e9da2ba2 -->
<g id="node1" class="node">
<title>dir_3a646564ec239f35c01425f0e9da2ba2</title>
<g id="a_node1"><a xlink:href="dir_3a646564ec239f35c01425f0e9da2ba2.html" target="_top" xlink:title="mmu">
<polygon fill="#a2b4d6" stroke="#404040" points="70,-52 16,-52 16,-16 70,-16 70,-52"/>
<text text-anchor="middle" x="43" y="-31.5" font-family="Helvetica,sans-Serif" font-size="10.00">mmu</text>
</a>
</g>
</g>
<!-- dir_1dc53930709e46457d0e1484ec309f4d -->
<g id="node2" class="node">
<title>dir_1dc53930709e46457d0e1484ec309f4d</title>
<g id="a_node2"><a xlink:href="dir_1dc53930709e46457d0e1484ec309f4d.html" target="_top" xlink:title="core">
<polygon fill="#edf0f7" stroke="#404040" stroke-width="2" points="70,-124 16,-124 16,-88 70,-88 70,-124"/>
<text text-anchor="middle" x="43" y="-103.5" font-family="Helvetica,sans-Serif" font-size="10.00">core</text>
</a>
</g>
</g>
<!-- dir_1dc53930709e46457d0e1484ec309f4d&#45;&gt;dir_3a646564ec239f35c01425f0e9da2ba2 -->
<g id="edge1" class="edge">
<title>dir_1dc53930709e46457d0e1484ec309f4d&#45;&gt;dir_3a646564ec239f35c01425f0e9da2ba2</title>
<path fill="none" stroke="black" d="M43,-87.7C43,-79.98 43,-70.71 43,-62.11"/>
<polygon fill="black" stroke="black" points="46.5,-62.1 43,-52.1 39.5,-62.1 46.5,-62.1"/>
<g id="a_edge1&#45;headlabel"><a xlink:href="dir_000029_000055.html" target="_top" xlink:title="1">
<text text-anchor="middle" x="49.34" y="-63.2" font-family="Helvetica,sans-Serif" font-size="10.00">1</text>
</a>
</g>
</g>
<!-- dir_d44c64559bbebec7f509842c48db8b23 -->
<g id="node3" class="node">
<title>dir_d44c64559bbebec7f509842c48db8b23</title>
<g id="a_node3"><a xlink:href="dir_d44c64559bbebec7f509842c48db8b23.html" target="_top" xlink:title="include">
<polygon fill="none" stroke="red" points="142,-52 88,-52 88,-16 142,-16 142,-52"/>
<text text-anchor="middle" x="115" y="-31.5" font-family="Helvetica,sans-Serif" font-size="10.00">include</text>
</a>
</g>
</g>
<!-- dir_1dc53930709e46457d0e1484ec309f4d&#45;&gt;dir_d44c64559bbebec7f509842c48db8b23 -->
<g id="edge2" class="edge">
<title>dir_1dc53930709e46457d0e1484ec309f4d&#45;&gt;dir_d44c64559bbebec7f509842c48db8b23</title>
<path fill="none" stroke="black" d="M60.8,-87.7C69.6,-79.14 80.38,-68.66 90,-59.3"/>
<polygon fill="black" stroke="black" points="92.68,-61.58 97.41,-52.1 87.8,-56.57 92.68,-61.58"/>
<g id="a_edge2&#45;headlabel"><a xlink:href="dir_000029_000042.html" target="_top" xlink:title="5">
<text text-anchor="middle" x="92.08" y="-63.63" font-family="Helvetica,sans-Serif" font-size="10.00">5</text>
</a>
</g>
</g>
</g>
</svg>
