<?xml version="1.0" encoding="UTF-8" standalone="no"?>
<!DOCTYPE svg PUBLIC "-//W3C//DTD SVG 1.1//EN"
 "http://www.w3.org/Graphics/SVG/1.1/DTD/svg11.dtd">
<!-- Generated by graphviz version 2.49.3 (20211023.0002)
 -->
<!-- Title: src Pages: 1 -->
<svg width="312pt" height="132pt"
 viewBox="0.00 0.00 312.00 132.00" xmlns="http://www.w3.org/2000/svg" xmlns:xlink="http://www.w3.org/1999/xlink">
<g id="graph0" class="graph" transform="scale(1 1) rotate(0) translate(4 128)">
<title>src</title>
<g id="clust1" class="cluster">
<title>clusterdir_68267d1309a1af8e8297ef4c3efbcdba</title>
<g id="a_clust1"><a xlink:href="dir_68267d1309a1af8e8297ef4c3efbcdba.html" target="_top">
<polygon fill="#eeeeff" stroke="black" points="8,-64 8,-116 296,-116 296,-64 8,-64"/>
</a>
</g>
</g>
<!-- dir_68267d1309a1af8e8297ef4c3efbcdba -->
<g id="node1" class="node">
<title>dir_68267d1309a1af8e8297ef4c3efbcdba</title>
<text text-anchor="middle" x="261" y="-87.5" font-family="Helvetica,sans-Serif" font-size="10.00">src</text>
</g>
<!-- dir_cbd7f246bdf7dc0a50281a272327e6ed -->
<g id="node2" class="node">
<title>dir_cbd7f246bdf7dc0a50281a272327e6ed</title>
<g id="a_node2"><a xlink:href="dir_cbd7f246bdf7dc0a50281a272327e6ed.html" target="_top" xlink:title="kernel">
<polygon fill="white" stroke="red" points="216,-108 162,-108 162,-72 216,-72 216,-108"/>
<text text-anchor="middle" x="189" y="-87.5" font-family="Helvetica,sans-Serif" font-size="10.00">kernel</text>
</a>
</g>
</g>
<!-- dir_d44c64559bbebec7f509842c48db8b23 -->
<g id="node5" class="node">
<title>dir_d44c64559bbebec7f509842c48db8b23</title>
<g id="a_node5"><a xlink:href="dir_d44c64559bbebec7f509842c48db8b23.html" target="_top" xlink:title="include">
<polygon fill="none" stroke="red" points="144,-36 90,-36 90,0 144,0 144,-36"/>
<text text-anchor="middle" x="117" y="-15.5" font-family="Helvetica,sans-Serif" font-size="10.00">include</text>
</a>
</g>
</g>
<!-- dir_cbd7f246bdf7dc0a50281a272327e6ed&#45;&gt;dir_d44c64559bbebec7f509842c48db8b23 -->
<g id="edge2" class="edge">
<title>dir_cbd7f246bdf7dc0a50281a272327e6ed&#45;&gt;dir_d44c64559bbebec7f509842c48db8b23</title>
<path fill="none" stroke="black" d="M171.2,-71.7C162.4,-63.14 151.62,-52.66 142,-43.3"/>
<polygon fill="black" stroke="black" points="144.2,-40.57 134.59,-36.1 139.32,-45.58 144.2,-40.57"/>
<g id="a_edge2&#45;headlabel"><a xlink:href="dir_000005_000000.html" target="_top" xlink:title="451">
<text text-anchor="middle" x="148.76" y="-38.54" font-family="Helvetica,sans-Serif" font-size="10.00">451</text>
</a>
</g>
</g>
<!-- dir_ee3448fa1dc3d93b4fb7d6fba5be0d5c -->
<g id="node3" class="node">
<title>dir_ee3448fa1dc3d93b4fb7d6fba5be0d5c</title>
<g id="a_node3"><a xlink:href="dir_ee3448fa1dc3d93b4fb7d6fba5be0d5c.html" target="_top" xlink:title="libc">
<polygon fill="white" stroke="red" points="144,-108 90,-108 90,-72 144,-72 144,-108"/>
<text text-anchor="middle" x="117" y="-87.5" font-family="Helvetica,sans-Serif" font-size="10.00">libc</text>
</a>
</g>
</g>
<!-- dir_ee3448fa1dc3d93b4fb7d6fba5be0d5c&#45;&gt;dir_d44c64559bbebec7f509842c48db8b23 -->
<g id="edge3" class="edge">
<title>dir_ee3448fa1dc3d93b4fb7d6fba5be0d5c&#45;&gt;dir_d44c64559bbebec7f509842c48db8b23</title>
<path fill="none" stroke="black" d="M117,-71.7C117,-63.98 117,-54.71 117,-46.11"/>
<polygon fill="black" stroke="black" points="120.5,-46.1 117,-36.1 113.5,-46.1 120.5,-46.1"/>
<g id="a_edge3&#45;headlabel"><a xlink:href="dir_000032_000000.html" target="_top" xlink:title="82">
<text text-anchor="middle" x="123.34" y="-47.2" font-family="Helvetica,sans-Serif" font-size="10.00">82</text>
</a>
</g>
</g>
<!-- dir_173c9e88aa581eef1e30c63858f75f59 -->
<g id="node4" class="node">
<title>dir_173c9e88aa581eef1e30c63858f75f59</title>
<g id="a_node4"><a xlink:href="dir_173c9e88aa581eef1e30c63858f75f59.html" target="_top" xlink:title="userland">
<polygon fill="white" stroke="red" points="71.5,-108 16.5,-108 16.5,-72 71.5,-72 71.5,-108"/>
<text text-anchor="middle" x="44" y="-87.5" font-family="Helvetica,sans-Serif" font-size="10.00">userland</text>
</a>
</g>
</g>
<!-- dir_173c9e88aa581eef1e30c63858f75f59&#45;&gt;dir_d44c64559bbebec7f509842c48db8b23 -->
<g id="edge1" class="edge">
<title>dir_173c9e88aa581eef1e30c63858f75f59&#45;&gt;dir_d44c64559bbebec7f509842c48db8b23</title>
<path fill="none" stroke="black" d="M62.04,-71.7C71.06,-63.05 82.12,-52.45 91.94,-43.03"/>
<polygon fill="black" stroke="black" points="94.37,-45.55 99.16,-36.1 89.52,-40.5 94.37,-45.55"/>
<g id="a_edge1&#45;headlabel"><a xlink:href="dir_000033_000000.html" target="_top" xlink:title="57">
<text text-anchor="middle" x="93.74" y="-47.59" font-family="Helvetica,sans-Serif" font-size="10.00">57</text>
</a>
</g>
</g>
</g>
</svg>
