<?xml version="1.0" encoding="UTF-8" standalone="no"?>
<!DOCTYPE svg PUBLIC "-//W3C//DTD SVG 1.1//EN"
 "http://www.w3.org/Graphics/SVG/1.1/DTD/svg11.dtd">
<!-- Generated by graphviz version 2.49.3 (20211023.0002)
 -->
<!-- Title: src/kernel Pages: 1 -->
<svg width="902pt" height="159pt"
 viewBox="0.00 0.00 902.00 159.00" xmlns="http://www.w3.org/2000/svg" xmlns:xlink="http://www.w3.org/1999/xlink">
<g id="graph0" class="graph" transform="scale(1 1) rotate(0) translate(4 155)">
<title>src/kernel</title>
<g id="clust1" class="cluster">
<title>clusterdir_68267d1309a1af8e8297ef4c3efbcdba</title>
<g id="a_clust1"><a xlink:href="dir_68267d1309a1af8e8297ef4c3efbcdba.html" target="_top" xlink:title="src">
<polygon fill="#ddddee" stroke="black" points="8,-56 8,-143 886,-143 886,-56 8,-56"/>
<text text-anchor="middle" x="447" y="-131" font-family="Helvetica,sans-Serif" font-size="10.00">src</text>
</a>
</g>
</g>
<g id="clust2" class="cluster">
<title>clusterdir_cbd7f246bdf7dc0a50281a272327e6ed</title>
<g id="a_clust2"><a xlink:href="dir_cbd7f246bdf7dc0a50281a272327e6ed.html" target="_top">
<polygon fill="#eeeeff" stroke="black" points="16,-64 16,-116 878,-116 878,-64 16,-64"/>
</a>
</g>
</g>
<!-- dir_cbd7f246bdf7dc0a50281a272327e6ed -->
<g id="node1" class="node">
<title>dir_cbd7f246bdf7dc0a50281a272327e6ed</title>
<text text-anchor="middle" x="843" y="-87.5" font-family="Helvetica,sans-Serif" font-size="10.00">kernel</text>
</g>
<!-- dir_76e3dd4d2fa719e8d3b096e9aa563982 -->
<g id="node2" class="node">
<title>dir_76e3dd4d2fa719e8d3b096e9aa563982</title>
<g id="a_node2"><a xlink:href="dir_76e3dd4d2fa719e8d3b096e9aa563982.html" target="_top" xlink:title="arch">
<polygon fill="white" stroke="red" points="798,-108 744,-108 744,-72 798,-72 798,-108"/>
<text text-anchor="middle" x="771" y="-87.5" font-family="Helvetica,sans-Serif" font-size="10.00">arch</text>
</a>
</g>
</g>
<!-- dir_d44c64559bbebec7f509842c48db8b23 -->
<g id="node13" class="node">
<title>dir_d44c64559bbebec7f509842c48db8b23</title>
<g id="a_node13"><a xlink:href="dir_d44c64559bbebec7f509842c48db8b23.html" target="_top" xlink:title="include">
<polygon fill="none" stroke="red" points="438,-36 384,-36 384,0 438,0 438,-36"/>
<text text-anchor="middle" x="411" y="-15.5" font-family="Helvetica,sans-Serif" font-size="10.00">include</text>
</a>
</g>
</g>
<!-- dir_76e3dd4d2fa719e8d3b096e9aa563982&#45;&gt;dir_d44c64559bbebec7f509842c48db8b23 -->
<g id="edge6" class="edge">
<title>dir_76e3dd4d2fa719e8d3b096e9aa563982&#45;&gt;dir_d44c64559bbebec7f509842c48db8b23</title>
<path fill="none" stroke="black" d="M756.48,-71.78C750.47,-65.79 743.02,-59.66 735,-56 684.67,-33.05 522.43,-23.58 448.42,-20.38"/>
<polygon fill="black" stroke="black" points="448.3,-16.87 438.17,-19.95 448.01,-23.87 448.3,-16.87"/>
<g id="a_edge6&#45;headlabel"><a xlink:href="dir_000018_000000.html" target="_top" xlink:title="164">
<text text-anchor="middle" x="452.01" y="-11.69" font-family="Helvetica,sans-Serif" font-size="10.00">164</text>
</a>
</g>
</g>
<!-- dir_91ac63a6f1fcde128d29d4ab1613b3c5 -->
<g id="node3" class="node">
<title>dir_91ac63a6f1fcde128d29d4ab1613b3c5</title>
<g id="a_node3"><a xlink:href="dir_91ac63a6f1fcde128d29d4ab1613b3c5.html" target="_top" xlink:title="config">
<polygon fill="white" stroke="black" points="726,-108 672,-108 672,-72 726,-72 726,-108"/>
<text text-anchor="middle" x="699" y="-87.5" font-family="Helvetica,sans-Serif" font-size="10.00">config</text>
</a>
</g>
</g>
<!-- dir_91ac63a6f1fcde128d29d4ab1613b3c5&#45;&gt;dir_d44c64559bbebec7f509842c48db8b23 -->
<g id="edge7" class="edge">
<title>dir_91ac63a6f1fcde128d29d4ab1613b3c5&#45;&gt;dir_d44c64559bbebec7f509842c48db8b23</title>
<path fill="none" stroke="black" d="M684.42,-71.92C678.4,-65.94 670.96,-59.79 663,-56 625.8,-38.31 509.27,-26.77 448.58,-21.8"/>
<polygon fill="black" stroke="black" points="448.53,-18.28 438.29,-20.98 447.97,-25.26 448.53,-18.28"/>
<g id="a_edge7&#45;headlabel"><a xlink:href="dir_000056_000000.html" target="_top" xlink:title="7">
<text text-anchor="middle" x="452.34" y="-13.24" font-family="Helvetica,sans-Serif" font-size="10.00">7</text>
</a>
</g>
</g>
<!-- dir_bec13d53859e967dc83fcb104ab0b9fd -->
<g id="node4" class="node">
<title>dir_bec13d53859e967dc83fcb104ab0b9fd</title>
<g id="a_node4"><a xlink:href="dir_bec13d53859e967dc83fcb104ab0b9fd.html" target="_top" xlink:title="core">
<polygon fill="white" stroke="red" points="654,-108 600,-108 600,-72 654,-72 654,-108"/>
<text text-anchor="middle" x="627" y="-87.5" font-family="Helvetica,sans-Serif" font-size="10.00">core</text>
</a>
</g>
</g>
<!-- dir_bec13d53859e967dc83fcb104ab0b9fd&#45;&gt;dir_d44c64559bbebec7f509842c48db8b23 -->
<g id="edge1" class="edge">
<title>dir_bec13d53859e967dc83fcb104ab0b9fd&#45;&gt;dir_d44c64559bbebec7f509842c48db8b23</title>
<path fill="none" stroke="black" d="M611.95,-71.81C605.98,-65.97 598.7,-59.93 591,-56 545.3,-32.65 485.95,-24.03 448.16,-20.86"/>
<polygon fill="black" stroke="black" points="448.33,-17.36 438.1,-20.1 447.81,-24.34 448.33,-17.36"/>
<g id="a_edge1&#45;headlabel"><a xlink:href="dir_000057_000000.html" target="_top" xlink:title="5">
<text text-anchor="middle" x="452.13" y="-12.3" font-family="Helvetica,sans-Serif" font-size="10.00">5</text>
</a>
</g>
</g>
<!-- dir_aee9ab6fedb00380c94a3a6c6b09f99a -->
<g id="node5" class="node">
<title>dir_aee9ab6fedb00380c94a3a6c6b09f99a</title>
<g id="a_node5"><a xlink:href="dir_aee9ab6fedb00380c94a3a6c6b09f99a.html" target="_top" xlink:title="drivers">
<polygon fill="white" stroke="black" points="582,-108 528,-108 528,-72 582,-72 582,-108"/>
<text text-anchor="middle" x="555" y="-87.5" font-family="Helvetica,sans-Serif" font-size="10.00">drivers</text>
</a>
</g>
</g>
<!-- dir_aee9ab6fedb00380c94a3a6c6b09f99a&#45;&gt;dir_d44c64559bbebec7f509842c48db8b23 -->
<g id="edge2" class="edge">
<title>dir_aee9ab6fedb00380c94a3a6c6b09f99a&#45;&gt;dir_d44c64559bbebec7f509842c48db8b23</title>
<path fill="none" stroke="black" d="M539.31,-72C533.38,-66.31 526.29,-60.33 519,-56 496.93,-42.89 469.56,-33.58 447.89,-27.57"/>
<polygon fill="black" stroke="black" points="448.63,-24.15 438.07,-24.97 446.84,-30.92 448.63,-24.15"/>
<g id="a_edge2&#45;headlabel"><a xlink:href="dir_000059_000000.html" target="_top" xlink:title="1">
<text text-anchor="middle" x="452.83" y="-19.83" font-family="Helvetica,sans-Serif" font-size="10.00">1</text>
</a>
</g>
</g>
<!-- dir_f848a285e60993dcb3189737897d2857 -->
<g id="node6" class="node">
<title>dir_f848a285e60993dcb3189737897d2857</title>
<g id="a_node6"><a xlink:href="dir_f848a285e60993dcb3189737897d2857.html" target="_top" xlink:title="fs">
<polygon fill="white" stroke="red" points="510,-108 456,-108 456,-72 510,-72 510,-108"/>
<text text-anchor="middle" x="483" y="-87.5" font-family="Helvetica,sans-Serif" font-size="10.00">fs</text>
</a>
</g>
</g>
<!-- dir_f848a285e60993dcb3189737897d2857&#45;&gt;dir_d44c64559bbebec7f509842c48db8b23 -->
<g id="edge10" class="edge">
<title>dir_f848a285e60993dcb3189737897d2857&#45;&gt;dir_d44c64559bbebec7f509842c48db8b23</title>
<path fill="none" stroke="black" d="M465.2,-71.7C456.4,-63.14 445.62,-52.66 436,-43.3"/>
<polygon fill="black" stroke="black" points="438.2,-40.57 428.59,-36.1 433.32,-45.58 438.2,-40.57"/>
<g id="a_edge10&#45;headlabel"><a xlink:href="dir_000060_000000.html" target="_top" xlink:title="48">
<text text-anchor="middle" x="442.76" y="-38.54" font-family="Helvetica,sans-Serif" font-size="10.00">48</text>
</a>
</g>
</g>
<!-- dir_cb0724ac90fd85e97a72e956b33dc284 -->
<g id="node7" class="node">
<title>dir_cb0724ac90fd85e97a72e956b33dc284</title>
<g id="a_node7"><a xlink:href="dir_cb0724ac90fd85e97a72e956b33dc284.html" target="_top" xlink:title="kshell">
<polygon fill="white" stroke="black" points="438,-108 384,-108 384,-72 438,-72 438,-108"/>
<text text-anchor="middle" x="411" y="-87.5" font-family="Helvetica,sans-Serif" font-size="10.00">kshell</text>
</a>
</g>
</g>
<!-- dir_cb0724ac90fd85e97a72e956b33dc284&#45;&gt;dir_d44c64559bbebec7f509842c48db8b23 -->
<g id="edge9" class="edge">
<title>dir_cb0724ac90fd85e97a72e956b33dc284&#45;&gt;dir_d44c64559bbebec7f509842c48db8b23</title>
<path fill="none" stroke="black" d="M411,-71.7C411,-63.98 411,-54.71 411,-46.11"/>
<polygon fill="black" stroke="black" points="414.5,-46.1 411,-36.1 407.5,-46.1 414.5,-46.1"/>
<g id="a_edge9&#45;headlabel"><a xlink:href="dir_000006_000000.html" target="_top" xlink:title="58">
<text text-anchor="middle" x="417.34" y="-47.2" font-family="Helvetica,sans-Serif" font-size="10.00">58</text>
</a>
</g>
</g>
<!-- dir_29d7bd500ea2760b0490c582bc5917ca -->
<g id="node8" class="node">
<title>dir_29d7bd500ea2760b0490c582bc5917ca</title>
<g id="a_node8"><a xlink:href="dir_29d7bd500ea2760b0490c582bc5917ca.html" target="_top" xlink:title="mmu">
<polygon fill="white" stroke="black" points="366,-108 312,-108 312,-72 366,-72 366,-108"/>
<text text-anchor="middle" x="339" y="-87.5" font-family="Helvetica,sans-Serif" font-size="10.00">mmu</text>
</a>
</g>
</g>
<!-- dir_29d7bd500ea2760b0490c582bc5917ca&#45;&gt;dir_d44c64559bbebec7f509842c48db8b23 -->
<g id="edge4" class="edge">
<title>dir_29d7bd500ea2760b0490c582bc5917ca&#45;&gt;dir_d44c64559bbebec7f509842c48db8b23</title>
<path fill="none" stroke="black" d="M356.8,-71.7C365.6,-63.14 376.38,-52.66 386,-43.3"/>
<polygon fill="black" stroke="black" points="388.68,-45.58 393.41,-36.1 383.8,-40.57 388.68,-45.58"/>
<g id="a_edge4&#45;headlabel"><a xlink:href="dir_000065_000000.html" target="_top" xlink:title="1">
<text text-anchor="middle" x="388.08" y="-47.63" font-family="Helvetica,sans-Serif" font-size="10.00">1</text>
</a>
</g>
</g>
<!-- dir_7d5a55bffd9f0b5a19cf98f012f1d84d -->
<g id="node9" class="node">
<title>dir_7d5a55bffd9f0b5a19cf98f012f1d84d</title>
<g id="a_node9"><a xlink:href="dir_7d5a55bffd9f0b5a19cf98f012f1d84d.html" target="_top" xlink:title="net">
<polygon fill="white" stroke="black" points="294,-108 240,-108 240,-72 294,-72 294,-108"/>
<text text-anchor="middle" x="267" y="-87.5" font-family="Helvetica,sans-Serif" font-size="10.00">net</text>
</a>
</g>
</g>
<!-- dir_7d5a55bffd9f0b5a19cf98f012f1d84d&#45;&gt;dir_d44c64559bbebec7f509842c48db8b23 -->
<g id="edge3" class="edge">
<title>dir_7d5a55bffd9f0b5a19cf98f012f1d84d&#45;&gt;dir_d44c64559bbebec7f509842c48db8b23</title>
<path fill="none" stroke="black" d="M282.69,-72C288.62,-66.31 295.71,-60.33 303,-56 325.07,-42.89 352.44,-33.58 374.11,-27.57"/>
<polygon fill="black" stroke="black" points="375.16,-30.92 383.93,-24.97 373.37,-24.15 375.16,-30.92"/>
<g id="a_edge3&#45;headlabel"><a xlink:href="dir_000063_000000.html" target="_top" xlink:title="55">
<text text-anchor="middle" x="372.42" y="-32.08" font-family="Helvetica,sans-Serif" font-size="10.00">55</text>
</a>
</g>
</g>
<!-- dir_6799a15b2a75f7240f888daacd198be8 -->
<g id="node10" class="node">
<title>dir_6799a15b2a75f7240f888daacd198be8</title>
<g id="a_node10"><a xlink:href="dir_6799a15b2a75f7240f888daacd198be8.html" target="_top" xlink:title="proc">
<polygon fill="white" stroke="black" points="222,-108 168,-108 168,-72 222,-72 222,-108"/>
<text text-anchor="middle" x="195" y="-87.5" font-family="Helvetica,sans-Serif" font-size="10.00">proc</text>
</a>
</g>
</g>
<!-- dir_6799a15b2a75f7240f888daacd198be8&#45;&gt;dir_d44c64559bbebec7f509842c48db8b23 -->
<g id="edge8" class="edge">
<title>dir_6799a15b2a75f7240f888daacd198be8&#45;&gt;dir_d44c64559bbebec7f509842c48db8b23</title>
<path fill="none" stroke="black" d="M210.05,-71.81C216.02,-65.97 223.3,-59.93 231,-56 276.7,-32.65 336.05,-24.03 373.84,-20.86"/>
<polygon fill="black" stroke="black" points="374.19,-24.34 383.9,-20.1 373.67,-17.36 374.19,-24.34"/>
<g id="a_edge8&#45;headlabel"><a xlink:href="dir_000066_000000.html" target="_top" xlink:title="3">
<text text-anchor="middle" x="370.82" y="-24.94" font-family="Helvetica,sans-Serif" font-size="10.00">3</text>
</a>
</g>
</g>
<!-- dir_4b0b675971e8b75ff33680b3a878a76d -->
<g id="node11" class="node">
<title>dir_4b0b675971e8b75ff33680b3a878a76d</title>
<g id="a_node11"><a xlink:href="dir_4b0b675971e8b75ff33680b3a878a76d.html" target="_top" xlink:title="sys">
<polygon fill="white" stroke="black" points="150,-108 96,-108 96,-72 150,-72 150,-108"/>
<text text-anchor="middle" x="123" y="-87.5" font-family="Helvetica,sans-Serif" font-size="10.00">sys</text>
</a>
</g>
</g>
<!-- dir_4b0b675971e8b75ff33680b3a878a76d&#45;&gt;dir_d44c64559bbebec7f509842c48db8b23 -->
<g id="edge5" class="edge">
<title>dir_4b0b675971e8b75ff33680b3a878a76d&#45;&gt;dir_d44c64559bbebec7f509842c48db8b23</title>
<path fill="none" stroke="black" d="M137.58,-71.92C143.6,-65.94 151.04,-59.79 159,-56 196.2,-38.31 312.73,-26.77 373.42,-21.8"/>
<polygon fill="black" stroke="black" points="374.03,-25.26 383.71,-20.98 373.47,-18.28 374.03,-25.26"/>
<g id="a_edge5&#45;headlabel"><a xlink:href="dir_000067_000000.html" target="_top" xlink:title="71">
<text text-anchor="middle" x="370.67" y="-25.88" font-family="Helvetica,sans-Serif" font-size="10.00">71</text>
</a>
</g>
</g>
<!-- dir_fc5cfe600d892ad1b812a54c244fb6ca -->
<g id="node12" class="node">
<title>dir_fc5cfe600d892ad1b812a54c244fb6ca</title>
<g id="a_node12"><a xlink:href="dir_fc5cfe600d892ad1b812a54c244fb6ca.html" target="_top" xlink:title="time">
<polygon fill="white" stroke="black" points="78,-108 24,-108 24,-72 78,-72 78,-108"/>
<text text-anchor="middle" x="51" y="-87.5" font-family="Helvetica,sans-Serif" font-size="10.00">time</text>
</a>
</g>
</g>
<!-- dir_fc5cfe600d892ad1b812a54c244fb6ca&#45;&gt;dir_d44c64559bbebec7f509842c48db8b23 -->
<g id="edge11" class="edge">
<title>dir_fc5cfe600d892ad1b812a54c244fb6ca&#45;&gt;dir_d44c64559bbebec7f509842c48db8b23</title>
<path fill="none" stroke="black" d="M65.52,-71.78C71.53,-65.79 78.98,-59.66 87,-56 137.33,-33.05 299.57,-23.58 373.58,-20.38"/>
<polygon fill="black" stroke="black" points="373.99,-23.87 383.83,-19.95 373.7,-16.87 373.99,-23.87"/>
<g id="a_edge11&#45;headlabel"><a xlink:href="dir_000068_000000.html" target="_top" xlink:title="6">
<text text-anchor="middle" x="370.51" y="-24.35" font-family="Helvetica,sans-Serif" font-size="10.00">6</text>
</a>
</g>
</g>
</g>
</svg>
