<?xml version="1.0" encoding="UTF-8" standalone="no"?>
<!DOCTYPE svg PUBLIC "-//W3C//DTD SVG 1.1//EN"
 "http://www.w3.org/Graphics/SVG/1.1/DTD/svg11.dtd">
<!-- Generated by graphviz version 2.49.3 (20211023.0002)
 -->
<!-- Title: src/kernel/arch/x86_64 Pages: 1 -->
<svg width="414pt" height="447pt"
 viewBox="0.00 0.00 414.00 447.00" xmlns="http://www.w3.org/2000/svg" xmlns:xlink="http://www.w3.org/1999/xlink">
<g id="graph0" class="graph" transform="scale(1 1) rotate(0) translate(4 443)">
<title>src/kernel/arch/x86_64</title>
<g id="clust1" class="cluster">
<title>clusterdir_76e3dd4d2fa719e8d3b096e9aa563982</title>
<g id="a_clust1"><a xlink:href="dir_76e3dd4d2fa719e8d3b096e9aa563982.html" target="_top" xlink:title="arch">
<polygon fill="#ddddee" stroke="black" points="8,-56 8,-431 318,-431 318,-56 8,-56"/>
<text text-anchor="middle" x="163" y="-419" font-family="Helvetica,sans-Serif" font-size="10.00">arch</text>
</a>
</g>
</g>
<g id="clust2" class="cluster">
<title>clusterdir_7c4c796ec9937bed8074dafcec3d25e4</title>
<g id="a_clust2"><a xlink:href="dir_7c4c796ec9937bed8074dafcec3d25e4.html" target="_top">
<polygon fill="#eeeeff" stroke="black" points="16,-64 16,-404 310,-404 310,-64 16,-64"/>
</a>
</g>
</g>
<!-- dir_7c4c796ec9937bed8074dafcec3d25e4 -->
<g id="node1" class="node">
<title>dir_7c4c796ec9937bed8074dafcec3d25e4</title>
<text text-anchor="middle" x="260" y="-375.5" font-family="Helvetica,sans-Serif" font-size="10.00">x86_64</text>
</g>
<!-- dir_2acc9ac41bab451ccb7f12c38e9a27aa -->
<g id="node2" class="node">
<title>dir_2acc9ac41bab451ccb7f12c38e9a27aa</title>
<g id="a_node2"><a xlink:href="dir_2acc9ac41bab451ccb7f12c38e9a27aa.html" target="_top" xlink:title="arch">
<polygon fill="white" stroke="black" points="185,-396 131,-396 131,-360 185,-360 185,-396"/>
<text text-anchor="middle" x="158" y="-375.5" font-family="Helvetica,sans-Serif" font-size="10.00">arch</text>
</a>
</g>
</g>
<!-- dir_42d4540ea64ab009ab7a7dcd79fe63e8 -->
<g id="node3" class="node">
<title>dir_42d4540ea64ab009ab7a7dcd79fe63e8</title>
<g id="a_node3"><a xlink:href="dir_42d4540ea64ab009ab7a7dcd79fe63e8.html" target="_top" xlink:title="console">
<polygon fill="white" stroke="black" points="170,-324 116,-324 116,-288 170,-288 170,-324"/>
<text text-anchor="middle" x="143" y="-303.5" font-family="Helvetica,sans-Serif" font-size="10.00">console</text>
</a>
</g>
</g>
<!-- dir_2acc9ac41bab451ccb7f12c38e9a27aa&#45;&gt;dir_42d4540ea64ab009ab7a7dcd79fe63e8 -->
<g id="edge16" class="edge">
<title>dir_2acc9ac41bab451ccb7f12c38e9a27aa&#45;&gt;dir_42d4540ea64ab009ab7a7dcd79fe63e8</title>
<path fill="none" stroke="black" d="M154.29,-359.7C152.64,-351.98 150.65,-342.71 148.81,-334.11"/>
<polygon fill="black" stroke="black" points="152.18,-333.15 146.67,-324.1 145.34,-334.62 152.18,-333.15"/>
<g id="a_edge16&#45;headlabel"><a xlink:href="dir_000032_000044.html" target="_top" xlink:title="1">
<text text-anchor="middle" x="155.71" y="-333.57" font-family="Helvetica,sans-Serif" font-size="10.00">1</text>
</a>
</g>
</g>
<!-- dir_1dc53930709e46457d0e1484ec309f4d -->
<g id="node4" class="node">
<title>dir_1dc53930709e46457d0e1484ec309f4d</title>
<g id="a_node4"><a xlink:href="dir_1dc53930709e46457d0e1484ec309f4d.html" target="_top" xlink:title="core">
<polygon fill="white" stroke="black" points="188,-180 134,-180 134,-144 188,-144 188,-180"/>
<text text-anchor="middle" x="161" y="-159.5" font-family="Helvetica,sans-Serif" font-size="10.00">core</text>
</a>
</g>
</g>
<!-- dir_2acc9ac41bab451ccb7f12c38e9a27aa&#45;&gt;dir_1dc53930709e46457d0e1484ec309f4d -->
<g id="edge15" class="edge">
<title>dir_2acc9ac41bab451ccb7f12c38e9a27aa&#45;&gt;dir_1dc53930709e46457d0e1484ec309f4d</title>
<path fill="none" stroke="black" d="M166.72,-359.83C171.37,-349.69 176.62,-336.44 179,-324 182,-308.28 181.56,-303.79 179,-288 176.3,-271.35 170.26,-268.55 167,-252 162.98,-231.62 161.53,-208.15 161.05,-190.44"/>
<polygon fill="black" stroke="black" points="164.55,-190.17 160.87,-180.23 157.55,-190.29 164.55,-190.17"/>
<g id="a_edge15&#45;headlabel"><a xlink:href="dir_000032_000045.html" target="_top" xlink:title="2">
<text text-anchor="middle" x="167.45" y="-191.21" font-family="Helvetica,sans-Serif" font-size="10.00">2</text>
</a>
</g>
</g>
<!-- dir_dfce509d3294b4958bedddff0a015025 -->
<g id="node5" class="node">
<title>dir_dfce509d3294b4958bedddff0a015025</title>
<g id="a_node5"><a xlink:href="dir_dfce509d3294b4958bedddff0a015025.html" target="_top" xlink:title="drivers">
<polygon fill="white" stroke="black" points="98,-252 44,-252 44,-216 98,-216 98,-252"/>
<text text-anchor="middle" x="71" y="-231.5" font-family="Helvetica,sans-Serif" font-size="10.00">drivers</text>
</a>
</g>
</g>
<!-- dir_2acc9ac41bab451ccb7f12c38e9a27aa&#45;&gt;dir_dfce509d3294b4958bedddff0a015025 -->
<g id="edge18" class="edge">
<title>dir_2acc9ac41bab451ccb7f12c38e9a27aa&#45;&gt;dir_dfce509d3294b4958bedddff0a015025</title>
<path fill="none" stroke="black" d="M130.95,-373.91C101.64,-368.96 56.22,-356.24 35,-324 21.89,-304.08 34.68,-278.62 48.52,-260.04"/>
<polygon fill="black" stroke="black" points="51.39,-262.05 54.86,-252.03 45.91,-257.7 51.39,-262.05"/>
<g id="a_edge18&#45;headlabel"><a xlink:href="dir_000032_000046.html" target="_top" xlink:title="5">
<text text-anchor="middle" x="51.39" y="-264.13" font-family="Helvetica,sans-Serif" font-size="10.00">5</text>
</a>
</g>
</g>
<!-- dir_d44c64559bbebec7f509842c48db8b23 -->
<g id="node10" class="node">
<title>dir_d44c64559bbebec7f509842c48db8b23</title>
<g id="a_node10"><a xlink:href="dir_d44c64559bbebec7f509842c48db8b23.html" target="_top" xlink:title="include">
<polygon fill="none" stroke="red" points="300,-36 246,-36 246,0 300,0 300,-36"/>
<text text-anchor="middle" x="273" y="-15.5" font-family="Helvetica,sans-Serif" font-size="10.00">include</text>
</a>
</g>
</g>
<!-- dir_2acc9ac41bab451ccb7f12c38e9a27aa&#45;&gt;dir_d44c64559bbebec7f509842c48db8b23 -->
<g id="edge17" class="edge">
<title>dir_2acc9ac41bab451ccb7f12c38e9a27aa&#45;&gt;dir_d44c64559bbebec7f509842c48db8b23</title>
<path fill="none" stroke="black" d="M185.01,-367.9C249.29,-345.44 406,-285.48 406,-235 406,-235 406,-235 406,-161 406,-111.81 405.09,-91.46 371,-56 354.93,-39.29 330.57,-30.05 310.16,-24.98"/>
<polygon fill="black" stroke="black" points="310.73,-21.52 300.21,-22.75 309.2,-28.35 310.73,-21.52"/>
<g id="a_edge17&#45;headlabel"><a xlink:href="dir_000032_000000.html" target="_top" xlink:title="14">
<text text-anchor="middle" x="314.86" y="-17.03" font-family="Helvetica,sans-Serif" font-size="10.00">14</text>
</a>
</g>
</g>
<!-- dir_42d4540ea64ab009ab7a7dcd79fe63e8&#45;&gt;dir_1dc53930709e46457d0e1484ec309f4d -->
<g id="edge9" class="edge">
<title>dir_42d4540ea64ab009ab7a7dcd79fe63e8&#45;&gt;dir_1dc53930709e46457d0e1484ec309f4d</title>
<path fill="none" stroke="black" d="M144.38,-287.9C145.92,-269.95 148.63,-240.93 152,-216 153.14,-207.55 154.62,-198.37 156.04,-190.07"/>
<polygon fill="black" stroke="black" points="159.5,-190.6 157.79,-180.14 152.61,-189.38 159.5,-190.6"/>
<g id="a_edge9&#45;headlabel"><a xlink:href="dir_000044_000045.html" target="_top" xlink:title="1">
<text text-anchor="middle" x="161.68" y="-192.13" font-family="Helvetica,sans-Serif" font-size="10.00">1</text>
</a>
</g>
</g>
<!-- dir_42d4540ea64ab009ab7a7dcd79fe63e8&#45;&gt;dir_dfce509d3294b4958bedddff0a015025 -->
<g id="edge12" class="edge">
<title>dir_42d4540ea64ab009ab7a7dcd79fe63e8&#45;&gt;dir_dfce509d3294b4958bedddff0a015025</title>
<path fill="none" stroke="black" d="M125.2,-287.7C116.4,-279.14 105.62,-268.66 96,-259.3"/>
<polygon fill="black" stroke="black" points="98.2,-256.57 88.59,-252.1 93.32,-261.58 98.2,-256.57"/>
<g id="a_edge12&#45;headlabel"><a xlink:href="dir_000044_000046.html" target="_top" xlink:title="1">
<text text-anchor="middle" x="102.76" y="-254.54" font-family="Helvetica,sans-Serif" font-size="10.00">1</text>
</a>
</g>
</g>
<!-- dir_3a646564ec239f35c01425f0e9da2ba2 -->
<g id="node7" class="node">
<title>dir_3a646564ec239f35c01425f0e9da2ba2</title>
<g id="a_node7"><a xlink:href="dir_3a646564ec239f35c01425f0e9da2ba2.html" target="_top" xlink:title="mmu">
<polygon fill="white" stroke="black" points="144,-108 90,-108 90,-72 144,-72 144,-108"/>
<text text-anchor="middle" x="117" y="-87.5" font-family="Helvetica,sans-Serif" font-size="10.00">mmu</text>
</a>
</g>
</g>
<!-- dir_42d4540ea64ab009ab7a7dcd79fe63e8&#45;&gt;dir_3a646564ec239f35c01425f0e9da2ba2 -->
<g id="edge10" class="edge">
<title>dir_42d4540ea64ab009ab7a7dcd79fe63e8&#45;&gt;dir_3a646564ec239f35c01425f0e9da2ba2</title>
<path fill="none" stroke="black" d="M140.2,-287.65C136.38,-263.55 129.5,-218.55 125,-180 122.58,-159.33 120.5,-135.88 119.07,-118.24"/>
<polygon fill="black" stroke="black" points="122.54,-117.78 118.26,-108.09 115.57,-118.34 122.54,-117.78"/>
<g id="a_edge10&#45;headlabel"><a xlink:href="dir_000044_000038.html" target="_top" xlink:title="1">
<text text-anchor="middle" x="125.66" y="-118.64" font-family="Helvetica,sans-Serif" font-size="10.00">1</text>
</a>
</g>
</g>
<!-- dir_42d4540ea64ab009ab7a7dcd79fe63e8&#45;&gt;dir_d44c64559bbebec7f509842c48db8b23 -->
<g id="edge11" class="edge">
<title>dir_42d4540ea64ab009ab7a7dcd79fe63e8&#45;&gt;dir_d44c64559bbebec7f509842c48db8b23</title>
<path fill="none" stroke="black" d="M170.05,-301.91C219.83,-295.62 322.8,-279.52 344,-252 397.17,-183 389.17,-130.48 344,-56 336.34,-43.38 322.82,-34.86 309.61,-29.21"/>
<polygon fill="black" stroke="black" points="310.73,-25.89 300.14,-25.59 308.23,-32.43 310.73,-25.89"/>
<g id="a_edge11&#45;headlabel"><a xlink:href="dir_000044_000000.html" target="_top" xlink:title="5">
<text text-anchor="middle" x="315.1" y="-22.02" font-family="Helvetica,sans-Serif" font-size="10.00">5</text>
</a>
</g>
</g>
<!-- dir_1dc53930709e46457d0e1484ec309f4d&#45;&gt;dir_3a646564ec239f35c01425f0e9da2ba2 -->
<g id="edge19" class="edge">
<title>dir_1dc53930709e46457d0e1484ec309f4d&#45;&gt;dir_3a646564ec239f35c01425f0e9da2ba2</title>
<path fill="none" stroke="black" d="M144.21,-143.7C138.32,-135.64 131.98,-125.89 126.79,-116.98"/>
<polygon fill="black" stroke="black" points="129.77,-115.15 121.86,-108.1 123.65,-118.55 129.77,-115.15"/>
<g id="a_edge19&#45;headlabel"><a xlink:href="dir_000045_000038.html" target="_top" xlink:title="1">
<text text-anchor="middle" x="134" y="-114.41" font-family="Helvetica,sans-Serif" font-size="10.00">1</text>
</a>
</g>
</g>
<!-- dir_1dc53930709e46457d0e1484ec309f4d&#45;&gt;dir_d44c64559bbebec7f509842c48db8b23 -->
<g id="edge20" class="edge">
<title>dir_1dc53930709e46457d0e1484ec309f4d&#45;&gt;dir_d44c64559bbebec7f509842c48db8b23</title>
<path fill="none" stroke="black" d="M163.85,-143.77C168.37,-121.2 179.13,-81.49 202,-56 211.32,-45.61 224.25,-37.68 236.53,-31.88"/>
<polygon fill="black" stroke="black" points="237.96,-35.07 245.72,-27.85 235.15,-28.66 237.96,-35.07"/>
<g id="a_edge20&#45;headlabel"><a xlink:href="dir_000045_000000.html" target="_top" xlink:title="10">
<text text-anchor="middle" x="235.81" y="-36.61" font-family="Helvetica,sans-Serif" font-size="10.00">10</text>
</a>
</g>
</g>
<!-- dir_dfce509d3294b4958bedddff0a015025&#45;&gt;dir_1dc53930709e46457d0e1484ec309f4d -->
<g id="edge1" class="edge">
<title>dir_dfce509d3294b4958bedddff0a015025&#45;&gt;dir_1dc53930709e46457d0e1484ec309f4d</title>
<path fill="none" stroke="black" d="M93.25,-215.7C104.58,-206.88 118.53,-196.03 130.82,-186.47"/>
<polygon fill="black" stroke="black" points="133.26,-189.01 139.01,-180.1 128.97,-183.48 133.26,-189.01"/>
<g id="a_edge1&#45;headlabel"><a xlink:href="dir_000046_000045.html" target="_top" xlink:title="10">
<text text-anchor="middle" x="132.17" y="-190.95" font-family="Helvetica,sans-Serif" font-size="10.00">10</text>
</a>
</g>
</g>
<!-- dir_dfce509d3294b4958bedddff0a015025&#45;&gt;dir_3a646564ec239f35c01425f0e9da2ba2 -->
<g id="edge2" class="edge">
<title>dir_dfce509d3294b4958bedddff0a015025&#45;&gt;dir_3a646564ec239f35c01425f0e9da2ba2</title>
<path fill="none" stroke="black" d="M76.55,-215.87C84.42,-191.56 98.92,-146.82 108.25,-118.01"/>
<polygon fill="black" stroke="black" points="111.68,-118.78 111.43,-108.19 105.02,-116.62 111.68,-118.78"/>
<g id="a_edge2&#45;headlabel"><a xlink:href="dir_000046_000038.html" target="_top" xlink:title="1">
<text text-anchor="middle" x="113.27" y="-120.58" font-family="Helvetica,sans-Serif" font-size="10.00">1</text>
</a>
</g>
</g>
<!-- dir_dfce509d3294b4958bedddff0a015025&#45;&gt;dir_d44c64559bbebec7f509842c48db8b23 -->
<g id="edge3" class="edge">
<title>dir_dfce509d3294b4958bedddff0a015025&#45;&gt;dir_d44c64559bbebec7f509842c48db8b23</title>
<path fill="none" stroke="black" d="M98.24,-227.87C126.32,-221.28 169.75,-207.28 197,-180 239.23,-137.72 221.07,-108.83 249,-56 250.92,-52.37 253.08,-48.64 255.31,-45.01"/>
<polygon fill="black" stroke="black" points="258.44,-46.62 260.87,-36.3 252.54,-42.85 258.44,-46.62"/>
<g id="a_edge3&#45;headlabel"><a xlink:href="dir_000046_000000.html" target="_top" xlink:title="15">
<text text-anchor="middle" x="258.9" y="-48.67" font-family="Helvetica,sans-Serif" font-size="10.00">15</text>
</a>
</g>
</g>
<!-- dir_9c24722037d5ac7f64b4abda7bbd8009 -->
<g id="node6" class="node">
<title>dir_9c24722037d5ac7f64b4abda7bbd8009</title>
<g id="a_node6"><a xlink:href="dir_9c24722037d5ac7f64b4abda7bbd8009.html" target="_top" xlink:title="fs">
<polygon fill="white" stroke="red" points="98,-324 44,-324 44,-288 98,-288 98,-324"/>
<text text-anchor="middle" x="71" y="-303.5" font-family="Helvetica,sans-Serif" font-size="10.00">fs</text>
</a>
</g>
</g>
<!-- dir_9c24722037d5ac7f64b4abda7bbd8009&#45;&gt;dir_dfce509d3294b4958bedddff0a015025 -->
<g id="edge7" class="edge">
<title>dir_9c24722037d5ac7f64b4abda7bbd8009&#45;&gt;dir_dfce509d3294b4958bedddff0a015025</title>
<path fill="none" stroke="black" d="M71,-287.7C71,-279.98 71,-270.71 71,-262.11"/>
<polygon fill="black" stroke="black" points="74.5,-262.1 71,-252.1 67.5,-262.1 74.5,-262.1"/>
<g id="a_edge7&#45;headlabel"><a xlink:href="dir_000047_000046.html" target="_top" xlink:title="2">
<text text-anchor="middle" x="77.34" y="-263.2" font-family="Helvetica,sans-Serif" font-size="10.00">2</text>
</a>
</g>
</g>
<!-- dir_9c24722037d5ac7f64b4abda7bbd8009&#45;&gt;dir_3a646564ec239f35c01425f0e9da2ba2 -->
<g id="edge8" class="edge">
<title>dir_9c24722037d5ac7f64b4abda7bbd8009&#45;&gt;dir_3a646564ec239f35c01425f0e9da2ba2</title>
<path fill="none" stroke="black" d="M55.39,-287.77C47.63,-278.03 39.05,-265.18 35,-252 30.3,-236.71 30.42,-231.33 35,-216 46.5,-177.52 74.06,-139.88 94.06,-116.13"/>
<polygon fill="black" stroke="black" points="96.91,-118.19 100.78,-108.33 91.6,-113.62 96.91,-118.19"/>
<g id="a_edge8&#45;headlabel"><a xlink:href="dir_000047_000038.html" target="_top" xlink:title="1">
<text text-anchor="middle" x="96.71" y="-120.27" font-family="Helvetica,sans-Serif" font-size="10.00">1</text>
</a>
</g>
</g>
<!-- dir_9c24722037d5ac7f64b4abda7bbd8009&#45;&gt;dir_d44c64559bbebec7f509842c48db8b23 -->
<g id="edge6" class="edge">
<title>dir_9c24722037d5ac7f64b4abda7bbd8009&#45;&gt;dir_d44c64559bbebec7f509842c48db8b23</title>
<path fill="none" stroke="black" d="M98.21,-291.23C101.14,-290.03 104.1,-288.92 107,-288 194.74,-260.1 251.82,-322.53 311,-252 361.28,-192.07 315.47,-92 288.9,-44.95"/>
<polygon fill="black" stroke="black" points="291.76,-42.9 283.72,-36.01 285.7,-46.41 291.76,-42.9"/>
<g id="a_edge6&#45;headlabel"><a xlink:href="dir_000047_000000.html" target="_top" xlink:title="15">
<text text-anchor="middle" x="296.02" y="-42.09" font-family="Helvetica,sans-Serif" font-size="10.00">15</text>
</a>
</g>
</g>
<!-- dir_3a646564ec239f35c01425f0e9da2ba2&#45;&gt;dir_1dc53930709e46457d0e1484ec309f4d -->
<g id="edge4" class="edge">
<title>dir_3a646564ec239f35c01425f0e9da2ba2&#45;&gt;dir_1dc53930709e46457d0e1484ec309f4d</title>
<path fill="none" stroke="black" d="M133.65,-108.1C139.53,-116.13 145.88,-125.87 151.09,-134.8"/>
<polygon fill="black" stroke="black" points="148.12,-136.66 156.04,-143.7 154.23,-133.26 148.12,-136.66"/>
<g id="a_edge4&#45;headlabel"><a xlink:href="dir_000038_000045.html" target="_top" xlink:title="3">
<text text-anchor="middle" x="143.89" y="-132.4" font-family="Helvetica,sans-Serif" font-size="10.00">3</text>
</a>
</g>
</g>
<!-- dir_3a646564ec239f35c01425f0e9da2ba2&#45;&gt;dir_d44c64559bbebec7f509842c48db8b23 -->
<g id="edge5" class="edge">
<title>dir_3a646564ec239f35c01425f0e9da2ba2&#45;&gt;dir_d44c64559bbebec7f509842c48db8b23</title>
<path fill="none" stroke="black" d="M137.63,-71.79C145,-66.22 153.57,-60.36 162,-56 185.47,-43.86 213.75,-34.51 235.89,-28.24"/>
<polygon fill="black" stroke="black" points="236.87,-31.6 245.59,-25.58 235.02,-24.85 236.87,-31.6"/>
<g id="a_edge5&#45;headlabel"><a xlink:href="dir_000038_000000.html" target="_top" xlink:title="20">
<text text-anchor="middle" x="234.16" y="-32.79" font-family="Helvetica,sans-Serif" font-size="10.00">20</text>
</a>
</g>
</g>
<!-- dir_0794a827a31cb385182265d9bd06009e -->
<g id="node8" class="node">
<title>dir_0794a827a31cb385182265d9bd06009e</title>
<g id="a_node8"><a xlink:href="dir_0794a827a31cb385182265d9bd06009e.html" target="_top" xlink:title="proc">
<polygon fill="white" stroke="black" points="230,-252 176,-252 176,-216 230,-216 230,-252"/>
<text text-anchor="middle" x="203" y="-231.5" font-family="Helvetica,sans-Serif" font-size="10.00">proc</text>
</a>
</g>
</g>
<!-- dir_0794a827a31cb385182265d9bd06009e&#45;&gt;dir_1dc53930709e46457d0e1484ec309f4d -->
<g id="edge13" class="edge">
<title>dir_0794a827a31cb385182265d9bd06009e&#45;&gt;dir_1dc53930709e46457d0e1484ec309f4d</title>
<path fill="none" stroke="black" d="M192.62,-215.7C187.74,-207.56 181.81,-197.69 176.42,-188.7"/>
<polygon fill="black" stroke="black" points="179.41,-186.88 171.26,-180.1 173.41,-190.48 179.41,-186.88"/>
<g id="a_edge13&#45;headlabel"><a xlink:href="dir_000050_000045.html" target="_top" xlink:title="1">
<text text-anchor="middle" x="183.69" y="-186" font-family="Helvetica,sans-Serif" font-size="10.00">1</text>
</a>
</g>
</g>
<!-- dir_0794a827a31cb385182265d9bd06009e&#45;&gt;dir_d44c64559bbebec7f509842c48db8b23 -->
<g id="edge14" class="edge">
<title>dir_0794a827a31cb385182265d9bd06009e&#45;&gt;dir_d44c64559bbebec7f509842c48db8b23</title>
<path fill="none" stroke="black" d="M212.95,-215.76C218.52,-205.59 225.27,-192.34 230,-180 247.49,-134.37 260.62,-78.87 267.53,-46.38"/>
<polygon fill="black" stroke="black" points="271.02,-46.8 269.63,-36.29 264.16,-45.37 271.02,-46.8"/>
<g id="a_edge14&#45;headlabel"><a xlink:href="dir_000050_000000.html" target="_top" xlink:title="3">
<text text-anchor="middle" x="273.06" y="-48.4" font-family="Helvetica,sans-Serif" font-size="10.00">3</text>
</a>
</g>
</g>
<!-- dir_52e0345b35ead48aa8a113112cdfd0a3 -->
<g id="node9" class="node">
<title>dir_52e0345b35ead48aa8a113112cdfd0a3</title>
<g id="a_node9"><a xlink:href="dir_52e0345b35ead48aa8a113112cdfd0a3.html" target="_top" xlink:title="sys">
<polygon fill="white" stroke="black" points="302,-252 248,-252 248,-216 302,-216 302,-252"/>
<text text-anchor="middle" x="275" y="-231.5" font-family="Helvetica,sans-Serif" font-size="10.00">sys</text>
</a>
</g>
</g>
<!-- dir_52e0345b35ead48aa8a113112cdfd0a3&#45;&gt;dir_1dc53930709e46457d0e1484ec309f4d -->
<g id="edge21" class="edge">
<title>dir_52e0345b35ead48aa8a113112cdfd0a3&#45;&gt;dir_1dc53930709e46457d0e1484ec309f4d</title>
<path fill="none" stroke="black" d="M247.98,-216.41C232.76,-207.06 213.55,-195.27 197.06,-185.14"/>
<polygon fill="black" stroke="black" points="198.57,-181.96 188.22,-179.71 194.91,-187.93 198.57,-181.96"/>
<g id="a_edge21&#45;headlabel"><a xlink:href="dir_000041_000045.html" target="_top" xlink:title="3">
<text text-anchor="middle" x="203.12" y="-178.92" font-family="Helvetica,sans-Serif" font-size="10.00">3</text>
</a>
</g>
</g>
<!-- dir_52e0345b35ead48aa8a113112cdfd0a3&#45;&gt;dir_d44c64559bbebec7f509842c48db8b23 -->
<g id="edge22" class="edge">
<title>dir_52e0345b35ead48aa8a113112cdfd0a3&#45;&gt;dir_d44c64559bbebec7f509842c48db8b23</title>
<path fill="none" stroke="black" d="M274.84,-215.85C274.49,-178.83 273.67,-91.18 273.26,-46.39"/>
<polygon fill="black" stroke="black" points="276.75,-46.2 273.16,-36.23 269.75,-46.26 276.75,-46.2"/>
<g id="a_edge22&#45;headlabel"><a xlink:href="dir_000041_000000.html" target="_top" xlink:title="8">
<text text-anchor="middle" x="279.63" y="-47.27" font-family="Helvetica,sans-Serif" font-size="10.00">8</text>
</a>
</g>
</g>
</g>
</svg>
