<?xml version="1.0" encoding="UTF-8" standalone="no"?>
<!DOCTYPE svg PUBLIC "-//W3C//DTD SVG 1.1//EN"
 "http://www.w3.org/Graphics/SVG/1.1/DTD/svg11.dtd">
<!-- Generated by graphviz version 2.50.0 (20211204.2007)
 -->
<!-- Title: include/kernel Pages: 1 -->
<svg width="686pt" height="247pt"
 viewBox="0.00 0.00 686.00 247.00" xmlns="http://www.w3.org/2000/svg" xmlns:xlink="http://www.w3.org/1999/xlink">
<g id="graph0" class="graph" transform="scale(1 1) rotate(0) translate(4 243)">
<title>include/kernel</title>
<g id="clust1" class="cluster">
<title>clusterdir_d44c64559bbebec7f509842c48db8b23</title>
<g id="a_clust1"><a xlink:href="dir_d44c64559bbebec7f509842c48db8b23.html" target="_top" xlink:title="include">
<polygon fill="#edf0f7" stroke="#404040" stroke-dasharray="5,2" points="8,-8 8,-231 670,-231 670,-8 8,-8"/>
<text text-anchor="middle" x="339" y="-219" font-family="Helvetica,sans-Serif" font-size="10.00">include</text>
</a>
</g>
</g>
<g id="clust2" class="cluster">
<title>clusterdir_2ae24886e77657f82343b4b0154efdc1</title>
<g id="a_clust2"><a xlink:href="dir_2ae24886e77657f82343b4b0154efdc1.html" target="_top">
<polygon fill="#edf0f7" stroke="#404040" stroke-width="2" points="16,-80 16,-204 662,-204 662,-80 16,-80"/>
</a>
</g>
</g>
<!-- dir_f9f386f816a45f0ffce9eeb77a177fce -->
<g id="node1" class="node">
<title>dir_f9f386f816a45f0ffce9eeb77a177fce</title>
<g id="a_node1"><a xlink:href="dir_f9f386f816a45f0ffce9eeb77a177fce.html" target="_top" xlink:title="libc">
<polygon fill="#a2b4d6" stroke="red" points="308,-52 254,-52 254,-16 308,-16 308,-52"/>
<text text-anchor="middle" x="281" y="-31.5" font-family="Helvetica,sans-Serif" font-size="10.00">libc</text>
</a>
</g>
</g>
<!-- dir_2ae24886e77657f82343b4b0154efdc1 -->
<g id="node2" class="node">
<title>dir_2ae24886e77657f82343b4b0154efdc1</title>
<text text-anchor="middle" x="51" y="-175.5" font-family="Helvetica,sans-Serif" font-size="10.00">kernel</text>
</g>
<!-- dir_2ae24886e77657f82343b4b0154efdc1&#45;&gt;dir_f9f386f816a45f0ffce9eeb77a177fce -->
<g id="edge3" class="edge">
<title>dir_2ae24886e77657f82343b4b0154efdc1&#45;&gt;dir_f9f386f816a45f0ffce9eeb77a177fce</title>
<path fill="none" stroke="black" d="M78.28,-163.44C81.19,-162.2 84.14,-161.02 87,-160 149.13,-137.81 182.44,-168.66 231,-124 246.21,-110.01 236.19,-98.18 246,-80 249.68,-73.17 254.39,-66.31 259.15,-60.07"/>
<polygon fill="black" stroke="black" points="262.08,-62.01 265.59,-52.01 256.61,-57.64 262.08,-62.01"/>
<g id="a_edge3&#45;headlabel"><a xlink:href="dir_000044_000048.html" target="_top" xlink:title="20">
<text text-anchor="middle" x="262.06" y="-64.09" font-family="Helvetica,sans-Serif" font-size="10.00">20</text>
</a>
</g>
</g>
<!-- dir_1bef30f09c3bd1e4e4024186bdc41803 -->
<g id="node3" class="node">
<title>dir_1bef30f09c3bd1e4e4024186bdc41803</title>
<g id="a_node3"><a xlink:href="dir_1bef30f09c3bd1e4e4024186bdc41803.html" target="_top" xlink:title="arch">
<polygon fill="#a2b4d6" stroke="#404040" points="78,-124 24,-124 24,-88 78,-88 78,-124"/>
<text text-anchor="middle" x="51" y="-103.5" font-family="Helvetica,sans-Serif" font-size="10.00">arch</text>
</a>
</g>
</g>
<!-- dir_2ae24886e77657f82343b4b0154efdc1&#45;&gt;dir_1bef30f09c3bd1e4e4024186bdc41803 -->
<g id="edge2" class="edge">
<title>dir_2ae24886e77657f82343b4b0154efdc1&#45;&gt;dir_1bef30f09c3bd1e4e4024186bdc41803</title>
<path fill="none" stroke="black" d="M51,-159.7C51,-151.98 51,-142.71 51,-134.11"/>
<polygon fill="black" stroke="black" points="54.5,-134.1 51,-124.1 47.5,-134.1 54.5,-134.1"/>
<g id="a_edge2&#45;headlabel"><a xlink:href="dir_000044_000002.html" target="_top" xlink:title="2">
<text text-anchor="middle" x="57.34" y="-135.2" font-family="Helvetica,sans-Serif" font-size="10.00">2</text>
</a>
</g>
</g>
<!-- dir_12c6d725a1e624cd8ea115c6923f483d -->
<g id="node13" class="node">
<title>dir_12c6d725a1e624cd8ea115c6923f483d</title>
<g id="a_node13"><a xlink:href="dir_12c6d725a1e624cd8ea115c6923f483d.html" target="_top" xlink:title="time">
<polygon fill="#a2b4d6" stroke="#404040" points="150,-124 96,-124 96,-88 150,-88 150,-124"/>
<text text-anchor="middle" x="123" y="-103.5" font-family="Helvetica,sans-Serif" font-size="10.00">time</text>
</a>
</g>
</g>
<!-- dir_2ae24886e77657f82343b4b0154efdc1&#45;&gt;dir_12c6d725a1e624cd8ea115c6923f483d -->
<g id="edge1" class="edge">
<title>dir_2ae24886e77657f82343b4b0154efdc1&#45;&gt;dir_12c6d725a1e624cd8ea115c6923f483d</title>
<path fill="none" stroke="black" d="M68.8,-159.7C77.6,-151.14 88.38,-140.66 98,-131.3"/>
<polygon fill="black" stroke="black" points="100.68,-133.58 105.41,-124.1 95.8,-128.57 100.68,-133.58"/>
<g id="a_edge1&#45;headlabel"><a xlink:href="dir_000044_000078.html" target="_top" xlink:title="1">
<text text-anchor="middle" x="100.08" y="-135.63" font-family="Helvetica,sans-Serif" font-size="10.00">1</text>
</a>
</g>
</g>
<!-- dir_f5cbd4349b593bd5ea59bf7dffcf375a -->
<g id="node4" class="node">
<title>dir_f5cbd4349b593bd5ea59bf7dffcf375a</title>
<g id="a_node4"><a xlink:href="dir_f5cbd4349b593bd5ea59bf7dffcf375a.html" target="_top" xlink:title="config">
<polygon fill="#a2b4d6" stroke="#404040" points="222,-196 168,-196 168,-160 222,-160 222,-196"/>
<text text-anchor="middle" x="195" y="-175.5" font-family="Helvetica,sans-Serif" font-size="10.00">config</text>
</a>
</g>
</g>
<!-- dir_f5cbd4349b593bd5ea59bf7dffcf375a&#45;&gt;dir_f9f386f816a45f0ffce9eeb77a177fce -->
<g id="edge4" class="edge">
<title>dir_f5cbd4349b593bd5ea59bf7dffcf375a&#45;&gt;dir_f9f386f816a45f0ffce9eeb77a177fce</title>
<path fill="none" stroke="black" d="M222.09,-163.52C237.43,-154.47 255.58,-141.07 266,-124 277.33,-105.44 280.79,-80.85 281.57,-62.22"/>
<polygon fill="black" stroke="black" points="285.08,-62.1 281.77,-52.03 278.08,-61.97 285.08,-62.1"/>
<g id="a_edge4&#45;headlabel"><a xlink:href="dir_000021_000048.html" target="_top" xlink:title="2">
<text text-anchor="middle" x="287.85" y="-63.25" font-family="Helvetica,sans-Serif" font-size="10.00">2</text>
</a>
</g>
</g>
<!-- dir_5dcd48ca9f40364899464cc3f89e860e -->
<g id="node5" class="node">
<title>dir_5dcd48ca9f40364899464cc3f89e860e</title>
<g id="a_node5"><a xlink:href="dir_5dcd48ca9f40364899464cc3f89e860e.html" target="_top" xlink:title="core">
<polygon fill="#a2b4d6" stroke="#404040" points="510,-196 456,-196 456,-160 510,-160 510,-196"/>
<text text-anchor="middle" x="483" y="-175.5" font-family="Helvetica,sans-Serif" font-size="10.00">core</text>
</a>
</g>
</g>
<!-- dir_72ea8410cd25c3f19cac33d1776c95a7 -->
<g id="node6" class="node">
<title>dir_72ea8410cd25c3f19cac33d1776c95a7</title>
<g id="a_node6"><a xlink:href="dir_72ea8410cd25c3f19cac33d1776c95a7.html" target="_top" xlink:title="drivers">
<polygon fill="#a2b4d6" stroke="#404040" points="438,-196 384,-196 384,-160 438,-160 438,-196"/>
<text text-anchor="middle" x="411" y="-175.5" font-family="Helvetica,sans-Serif" font-size="10.00">drivers</text>
</a>
</g>
</g>
<!-- dir_579f575ab9bb80182679ffc66b079ac5 -->
<g id="node7" class="node">
<title>dir_579f575ab9bb80182679ffc66b079ac5</title>
<g id="a_node7"><a xlink:href="dir_579f575ab9bb80182679ffc66b079ac5.html" target="_top" xlink:title="fs">
<polygon fill="#a2b4d6" stroke="#404040" points="222,-124 168,-124 168,-88 222,-88 222,-124"/>
<text text-anchor="middle" x="195" y="-103.5" font-family="Helvetica,sans-Serif" font-size="10.00">fs</text>
</a>
</g>
</g>
<!-- dir_579f575ab9bb80182679ffc66b079ac5&#45;&gt;dir_f9f386f816a45f0ffce9eeb77a177fce -->
<g id="edge5" class="edge">
<title>dir_579f575ab9bb80182679ffc66b079ac5&#45;&gt;dir_f9f386f816a45f0ffce9eeb77a177fce</title>
<path fill="none" stroke="black" d="M216.26,-87.7C227.09,-78.88 240.42,-68.03 252.16,-58.47"/>
<polygon fill="black" stroke="black" points="254.44,-61.13 259.99,-52.1 250.02,-55.7 254.44,-61.13"/>
<g id="a_edge5&#45;headlabel"><a xlink:href="dir_000038_000048.html" target="_top" xlink:title="2">
<text text-anchor="middle" x="253.44" y="-63.1" font-family="Helvetica,sans-Serif" font-size="10.00">2</text>
</a>
</g>
</g>
<!-- dir_626355b091f94f14b578c87f25101a76 -->
<g id="node8" class="node">
<title>dir_626355b091f94f14b578c87f25101a76</title>
<g id="a_node8"><a xlink:href="dir_626355b091f94f14b578c87f25101a76.html" target="_top" xlink:title="kshell">
<polygon fill="#a2b4d6" stroke="#404040" points="366,-196 312,-196 312,-160 366,-160 366,-196"/>
<text text-anchor="middle" x="339" y="-175.5" font-family="Helvetica,sans-Serif" font-size="10.00">kshell</text>
</a>
</g>
</g>
<!-- dir_626355b091f94f14b578c87f25101a76&#45;&gt;dir_f9f386f816a45f0ffce9eeb77a177fce -->
<g id="edge6" class="edge">
<title>dir_626355b091f94f14b578c87f25101a76&#45;&gt;dir_f9f386f816a45f0ffce9eeb77a177fce</title>
<path fill="none" stroke="black" d="M332,-159.87C322.03,-135.46 303.64,-90.43 291.88,-61.64"/>
<polygon fill="black" stroke="black" points="295.04,-60.12 288.02,-52.19 288.56,-62.77 295.04,-60.12"/>
<g id="a_edge6&#45;headlabel"><a xlink:href="dir_000046_000048.html" target="_top" xlink:title="1">
<text text-anchor="middle" x="299.03" y="-59.88" font-family="Helvetica,sans-Serif" font-size="10.00">1</text>
</a>
</g>
</g>
<!-- dir_5bbca552b03f18ea4c556679d80b42c9 -->
<g id="node9" class="node">
<title>dir_5bbca552b03f18ea4c556679d80b42c9</title>
<g id="a_node9"><a xlink:href="dir_5bbca552b03f18ea4c556679d80b42c9.html" target="_top" xlink:title="mmu">
<polygon fill="#a2b4d6" stroke="#404040" points="294,-196 240,-196 240,-160 294,-160 294,-196"/>
<text text-anchor="middle" x="267" y="-175.5" font-family="Helvetica,sans-Serif" font-size="10.00">mmu</text>
</a>
</g>
</g>
<!-- dir_0be85e67768b66452391783f935553f6 -->
<g id="node10" class="node">
<title>dir_0be85e67768b66452391783f935553f6</title>
<g id="a_node10"><a xlink:href="dir_0be85e67768b66452391783f935553f6.html" target="_top" xlink:title="net">
<polygon fill="#a2b4d6" stroke="#404040" points="582,-196 528,-196 528,-160 582,-160 582,-196"/>
<text text-anchor="middle" x="555" y="-175.5" font-family="Helvetica,sans-Serif" font-size="10.00">net</text>
</a>
</g>
</g>
<!-- dir_0be85e67768b66452391783f935553f6&#45;&gt;dir_f9f386f816a45f0ffce9eeb77a177fce -->
<g id="edge7" class="edge">
<title>dir_0be85e67768b66452391783f935553f6&#45;&gt;dir_f9f386f816a45f0ffce9eeb77a177fce</title>
<path fill="none" stroke="black" d="M527.73,-162.87C478.08,-137.14 372.95,-82.65 317.3,-53.81"/>
<polygon fill="black" stroke="black" points="318.65,-50.57 308.16,-49.08 315.43,-56.79 318.65,-50.57"/>
<g id="a_edge7&#45;headlabel"><a xlink:href="dir_000057_000048.html" target="_top" xlink:title="7">
<text text-anchor="middle" x="323.15" y="-47.2" font-family="Helvetica,sans-Serif" font-size="10.00">7</text>
</a>
</g>
</g>
<!-- dir_b74c2997ee101869ac325e0e63322356 -->
<g id="node11" class="node">
<title>dir_b74c2997ee101869ac325e0e63322356</title>
<g id="a_node11"><a xlink:href="dir_b74c2997ee101869ac325e0e63322356.html" target="_top" xlink:title="proc">
<polygon fill="#a2b4d6" stroke="#404040" points="150,-196 96,-196 96,-160 150,-160 150,-196"/>
<text text-anchor="middle" x="123" y="-175.5" font-family="Helvetica,sans-Serif" font-size="10.00">proc</text>
</a>
</g>
</g>
<!-- dir_b74c2997ee101869ac325e0e63322356&#45;&gt;dir_f9f386f816a45f0ffce9eeb77a177fce -->
<g id="edge9" class="edge">
<title>dir_b74c2997ee101869ac325e0e63322356&#45;&gt;dir_f9f386f816a45f0ffce9eeb77a177fce</title>
<path fill="none" stroke="black" d="M150.06,-164.05C153.07,-162.66 156.09,-161.29 159,-160 197.26,-143.06 216.67,-153.85 246,-124 250.63,-119.29 263.02,-86.07 271.74,-61.58"/>
<polygon fill="black" stroke="black" points="275.07,-62.66 275.1,-52.06 268.47,-60.32 275.07,-62.66"/>
<g id="a_edge9&#45;headlabel"><a xlink:href="dir_000060_000048.html" target="_top" xlink:title="1">
<text text-anchor="middle" x="276.55" y="-64.49" font-family="Helvetica,sans-Serif" font-size="10.00">1</text>
</a>
</g>
</g>
<!-- dir_b74c2997ee101869ac325e0e63322356&#45;&gt;dir_579f575ab9bb80182679ffc66b079ac5 -->
<g id="edge8" class="edge">
<title>dir_b74c2997ee101869ac325e0e63322356&#45;&gt;dir_579f575ab9bb80182679ffc66b079ac5</title>
<path fill="none" stroke="black" d="M140.8,-159.7C149.6,-151.14 160.38,-140.66 170,-131.3"/>
<polygon fill="black" stroke="black" points="172.68,-133.58 177.41,-124.1 167.8,-128.57 172.68,-133.58"/>
<g id="a_edge8&#45;headlabel"><a xlink:href="dir_000060_000038.html" target="_top" xlink:title="1">
<text text-anchor="middle" x="172.08" y="-135.63" font-family="Helvetica,sans-Serif" font-size="10.00">1</text>
</a>
</g>
</g>
<!-- dir_a0ffd90eda9fe9d19fd364f796da6911 -->
<g id="node12" class="node">
<title>dir_a0ffd90eda9fe9d19fd364f796da6911</title>
<g id="a_node12"><a xlink:href="dir_a0ffd90eda9fe9d19fd364f796da6911.html" target="_top" xlink:title="sys">
<polygon fill="#a2b4d6" stroke="#404040" points="654,-196 600,-196 600,-160 654,-160 654,-196"/>
<text text-anchor="middle" x="627" y="-175.5" font-family="Helvetica,sans-Serif" font-size="10.00">sys</text>
</a>
</g>
</g>
<!-- dir_a0ffd90eda9fe9d19fd364f796da6911&#45;&gt;dir_f9f386f816a45f0ffce9eeb77a177fce -->
<g id="edge10" class="edge">
<title>dir_a0ffd90eda9fe9d19fd364f796da6911&#45;&gt;dir_f9f386f816a45f0ffce9eeb77a177fce</title>
<path fill="none" stroke="black" d="M599.89,-164.15C596.9,-162.74 593.88,-161.34 591,-160 513.04,-123.88 494.94,-111.5 415,-80 382.71,-67.28 345.2,-54.88 318.09,-46.33"/>
<polygon fill="black" stroke="black" points="318.83,-42.89 308.24,-43.25 316.74,-49.57 318.83,-42.89"/>
<g id="a_edge10&#45;headlabel"><a xlink:href="dir_000070_000048.html" target="_top" xlink:title="5">
<text text-anchor="middle" x="323.11" y="-38.76" font-family="Helvetica,sans-Serif" font-size="10.00">5</text>
</a>
</g>
</g>
</g>
</svg>
