<?xml version="1.0" encoding="UTF-8" standalone="no"?>
<!DOCTYPE svg PUBLIC "-//W3C//DTD SVG 1.1//EN"
 "http://www.w3.org/Graphics/SVG/1.1/DTD/svg11.dtd">
<!-- Generated by graphviz version 2.50.0 (20211204.2007)
 -->
<!-- Title: src/kernel/arch/x86_64/fs Pages: 1 -->
<svg width="308pt" height="175pt"
 viewBox="0.00 0.00 308.00 175.00" xmlns="http://www.w3.org/2000/svg" xmlns:xlink="http://www.w3.org/1999/xlink">
<g id="graph0" class="graph" transform="scale(1 1) rotate(0) translate(4 171)">
<title>src/kernel/arch/x86_64/fs</title>
<g id="clust1" class="cluster">
<title>clusterdir_7c4c796ec9937bed8074dafcec3d25e4</title>
<g id="a_clust1"><a xlink:href="dir_7c4c796ec9937bed8074dafcec3d25e4.html" target="_top" xlink:title="x86_64">
<polygon fill="#edf0f7" stroke="#7f7f7f" stroke-dasharray="5,2" points="8,-8 8,-159 238,-159 238,-8 8,-8"/>
<text text-anchor="middle" x="123" y="-147" font-family="Helvetica,sans-Serif" font-size="10.00">x86_64</text>
</a>
</g>
</g>
<g id="clust2" class="cluster">
<title>clusterdir_9c24722037d5ac7f64b4abda7bbd8009</title>
<g id="a_clust2"><a xlink:href="dir_9c24722037d5ac7f64b4abda7bbd8009.html" target="_top">
<polygon fill="#edf0f7" stroke="#404040" stroke-width="2" points="16,-80 16,-132 230,-132 230,-80 16,-80"/>
</a>
</g>
</g>
<!-- dir_dfce509d3294b4958bedddff0a015025 -->
<g id="node1" class="node">
<title>dir_dfce509d3294b4958bedddff0a015025</title>
<g id="a_node1"><a xlink:href="dir_dfce509d3294b4958bedddff0a015025.html" target="_top" xlink:title="drivers">
<polygon fill="#a2b4d6" stroke="#404040" points="78,-52 24,-52 24,-16 78,-16 78,-52"/>
<text text-anchor="middle" x="51" y="-31.5" font-family="Helvetica,sans-Serif" font-size="10.00">drivers</text>
</a>
</g>
</g>
<!-- dir_3a646564ec239f35c01425f0e9da2ba2 -->
<g id="node2" class="node">
<title>dir_3a646564ec239f35c01425f0e9da2ba2</title>
<g id="a_node2"><a xlink:href="dir_3a646564ec239f35c01425f0e9da2ba2.html" target="_top" xlink:title="mmu">
<polygon fill="#a2b4d6" stroke="#404040" points="150,-52 96,-52 96,-16 150,-16 150,-52"/>
<text text-anchor="middle" x="123" y="-31.5" font-family="Helvetica,sans-Serif" font-size="10.00">mmu</text>
</a>
</g>
</g>
<!-- dir_9c24722037d5ac7f64b4abda7bbd8009 -->
<g id="node3" class="node">
<title>dir_9c24722037d5ac7f64b4abda7bbd8009</title>
<text text-anchor="middle" x="195" y="-103.5" font-family="Helvetica,sans-Serif" font-size="10.00">fs</text>
</g>
<!-- dir_c5016f51ef7ea33491a800cac5f57ab8 -->
<g id="node4" class="node">
<title>dir_c5016f51ef7ea33491a800cac5f57ab8</title>
<g id="a_node4"><a xlink:href="dir_c5016f51ef7ea33491a800cac5f57ab8.html" target="_top" xlink:title="dev">
<polygon fill="#a2b4d6" stroke="#404040" points="78,-124 24,-124 24,-88 78,-88 78,-124"/>
<text text-anchor="middle" x="51" y="-103.5" font-family="Helvetica,sans-Serif" font-size="10.00">dev</text>
</a>
</g>
</g>
<!-- dir_c5016f51ef7ea33491a800cac5f57ab8&#45;&gt;dir_dfce509d3294b4958bedddff0a015025 -->
<g id="edge2" class="edge">
<title>dir_c5016f51ef7ea33491a800cac5f57ab8&#45;&gt;dir_dfce509d3294b4958bedddff0a015025</title>
<path fill="none" stroke="black" d="M51,-87.7C51,-79.98 51,-70.71 51,-62.11"/>
<polygon fill="black" stroke="black" points="54.5,-62.1 51,-52.1 47.5,-62.1 54.5,-62.1"/>
<g id="a_edge2&#45;headlabel"><a xlink:href="dir_000032_000036.html" target="_top" xlink:title="1">
<text text-anchor="middle" x="57.34" y="-63.2" font-family="Helvetica,sans-Serif" font-size="10.00">1</text>
</a>
</g>
</g>
<!-- dir_d44c64559bbebec7f509842c48db8b23 -->
<g id="node6" class="node">
<title>dir_d44c64559bbebec7f509842c48db8b23</title>
<g id="a_node6"><a xlink:href="dir_d44c64559bbebec7f509842c48db8b23.html" target="_top" xlink:title="include">
<polygon fill="none" stroke="red" points="300,-52 246,-52 246,-16 300,-16 300,-52"/>
<text text-anchor="middle" x="273" y="-31.5" font-family="Helvetica,sans-Serif" font-size="10.00">include</text>
</a>
</g>
</g>
<!-- dir_c5016f51ef7ea33491a800cac5f57ab8&#45;&gt;dir_d44c64559bbebec7f509842c48db8b23 -->
<g id="edge1" class="edge">
<title>dir_c5016f51ef7ea33491a800cac5f57ab8&#45;&gt;dir_d44c64559bbebec7f509842c48db8b23</title>
<path fill="none" stroke="black" d="M72.6,-87.81C77.16,-84.83 82.08,-82.04 87,-80 148.64,-54.46 173.64,-73.39 236.31,-53.71"/>
<polygon fill="black" stroke="black" points="237.47,-57.01 245.84,-50.52 235.24,-50.37 237.47,-57.01"/>
<g id="a_edge1&#45;headlabel"><a xlink:href="dir_000032_000042.html" target="_top" xlink:title="7">
<text text-anchor="middle" x="234.96" y="-58.35" font-family="Helvetica,sans-Serif" font-size="10.00">7</text>
</a>
</g>
</g>
<!-- dir_ca65bd5df30703bd21db9b8dced53388 -->
<g id="node5" class="node">
<title>dir_ca65bd5df30703bd21db9b8dced53388</title>
<g id="a_node5"><a xlink:href="dir_ca65bd5df30703bd21db9b8dced53388.html" target="_top" xlink:title="proc">
<polygon fill="#a2b4d6" stroke="#404040" points="150,-124 96,-124 96,-88 150,-88 150,-124"/>
<text text-anchor="middle" x="123" y="-103.5" font-family="Helvetica,sans-Serif" font-size="10.00">proc</text>
</a>
</g>
</g>
<!-- dir_ca65bd5df30703bd21db9b8dced53388&#45;&gt;dir_3a646564ec239f35c01425f0e9da2ba2 -->
<g id="edge3" class="edge">
<title>dir_ca65bd5df30703bd21db9b8dced53388&#45;&gt;dir_3a646564ec239f35c01425f0e9da2ba2</title>
<path fill="none" stroke="black" d="M123,-87.7C123,-79.98 123,-70.71 123,-62.11"/>
<polygon fill="black" stroke="black" points="126.5,-62.1 123,-52.1 119.5,-62.1 126.5,-62.1"/>
<g id="a_edge3&#45;headlabel"><a xlink:href="dir_000061_000055.html" target="_top" xlink:title="1">
<text text-anchor="middle" x="129.34" y="-63.2" font-family="Helvetica,sans-Serif" font-size="10.00">1</text>
</a>
</g>
</g>
<!-- dir_ca65bd5df30703bd21db9b8dced53388&#45;&gt;dir_d44c64559bbebec7f509842c48db8b23 -->
<g id="edge4" class="edge">
<title>dir_ca65bd5df30703bd21db9b8dced53388&#45;&gt;dir_d44c64559bbebec7f509842c48db8b23</title>
<path fill="none" stroke="black" d="M145.64,-87.86C149.95,-85.01 154.51,-82.26 159,-80 190.79,-64.01 204.02,-66.93 236.15,-54.29"/>
<polygon fill="black" stroke="black" points="237.87,-57.37 245.75,-50.28 235.17,-50.91 237.87,-57.37"/>
<g id="a_edge4&#45;headlabel"><a xlink:href="dir_000061_000042.html" target="_top" xlink:title="4">
<text text-anchor="middle" x="235.64" y="-58.87" font-family="Helvetica,sans-Serif" font-size="10.00">4</text>
</a>
</g>
</g>
</g>
</svg>
