<?xml version="1.0" encoding="UTF-8" standalone="no"?>
<!DOCTYPE svg PUBLIC "-//W3C//DTD SVG 1.1//EN"
 "http://www.w3.org/Graphics/SVG/1.1/DTD/svg11.dtd">
<!-- Generated by graphviz version 8.0.2 (20230410.1723)
 -->
<!-- Title: src/kernel/arch/x86_64/fs Pages: 1 -->
<svg width="254pt" height="303pt"
 viewBox="0.00 0.00 254.00 303.00" xmlns="http://www.w3.org/2000/svg" xmlns:xlink="http://www.w3.org/1999/xlink">
<g id="graph0" class="graph" transform="scale(1 1) rotate(0) translate(4 299)">
<title>src/kernel/arch/x86_64/fs</title>
<g id="clust1" class="cluster">
<title>clusterdir_7c4c796ec9937bed8074dafcec3d25e4</title>
<g id="a_clust1"><a xlink:href="dir_7c4c796ec9937bed8074dafcec3d25e4.html" target="_top" xlink:title="x86_64">
<polygon fill="#ddddee" stroke="black" points="8,-64 8,-287 238,-287 238,-64 8,-64"/>
<text text-anchor="middle" x="123" y="-275" font-family="Helvetica,sans-Serif" font-size="10.00">x86_64</text>
</a>
</g>
</g>
<g id="clust2" class="cluster">
<title>clusterdir_9c24722037d5ac7f64b4abda7bbd8009</title>
<g id="a_clust2"><a xlink:href="dir_9c24722037d5ac7f64b4abda7bbd8009.html" target="_top">
<polygon fill="#eeeeff" stroke="black" points="16,-208 16,-260 230,-260 230,-208 16,-208"/>
</a>
</g>
</g>
<!-- dir_dfce509d3294b4958bedddff0a015025 -->
<g id="node1" class="node">
<title>dir_dfce509d3294b4958bedddff0a015025</title>
<g id="a_node1"><a xlink:href="dir_dfce509d3294b4958bedddff0a015025.html" target="_top" xlink:title="drivers">
<polygon fill="none" stroke="black" points="116,-180 62,-180 62,-144 116,-144 116,-180"/>
<text text-anchor="middle" x="89" y="-159.5" font-family="Helvetica,sans-Serif" font-size="10.00">drivers</text>
</a>
</g>
</g>
<!-- dir_3a646564ec239f35c01425f0e9da2ba2 -->
<g id="node2" class="node">
<title>dir_3a646564ec239f35c01425f0e9da2ba2</title>
<g id="a_node2"><a xlink:href="dir_3a646564ec239f35c01425f0e9da2ba2.html" target="_top" xlink:title="mmu">
<polygon fill="none" stroke="black" points="78,-108 24,-108 24,-72 78,-72 78,-108"/>
<text text-anchor="middle" x="51" y="-87.5" font-family="Helvetica,sans-Serif" font-size="10.00">mmu</text>
</a>
</g>
</g>
<!-- dir_dfce509d3294b4958bedddff0a015025&#45;&gt;dir_3a646564ec239f35c01425f0e9da2ba2 -->
<g id="edge6" class="edge">
<title>dir_dfce509d3294b4958bedddff0a015025&#45;&gt;dir_3a646564ec239f35c01425f0e9da2ba2</title>
<path fill="none" stroke="black" d="M79.61,-143.7C75.33,-135.81 70.17,-126.3 65.41,-117.55"/>
<polygon fill="black" stroke="black" points="68.13,-116.22 60.29,-109.1 61.98,-119.56 68.13,-116.22"/>
<g id="a_edge6&#45;headlabel"><a xlink:href="dir_000048_000042.html" target="_top" xlink:title="1">
<text text-anchor="middle" x="72.34" y="-114.53" font-family="Helvetica,sans-Serif" font-size="10.00">1</text>
</a>
</g>
</g>
<!-- dir_d44c64559bbebec7f509842c48db8b23 -->
<g id="node6" class="node">
<title>dir_d44c64559bbebec7f509842c48db8b23</title>
<g id="a_node6"><a xlink:href="dir_d44c64559bbebec7f509842c48db8b23.html" target="_top" xlink:title="include">
<polygon fill="none" stroke="red" points="152,-36 98,-36 98,0 152,0 152,-36"/>
<text text-anchor="middle" x="125" y="-15.5" font-family="Helvetica,sans-Serif" font-size="10.00">include</text>
</a>
</g>
</g>
<!-- dir_dfce509d3294b4958bedddff0a015025&#45;&gt;dir_d44c64559bbebec7f509842c48db8b23 -->
<g id="edge7" class="edge">
<title>dir_dfce509d3294b4958bedddff0a015025&#45;&gt;dir_d44c64559bbebec7f509842c48db8b23</title>
<path fill="none" stroke="black" d="M93.41,-143.59C99.55,-119.4 110.71,-75.36 117.99,-46.65"/>
<polygon fill="black" stroke="black" points="121.6,-47.66 120.66,-37.11 114.81,-45.94 121.6,-47.66"/>
<g id="a_edge7&#45;headlabel"><a xlink:href="dir_000048_000000.html" target="_top" xlink:title="26">
<text text-anchor="middle" x="123.47" y="-48.35" font-family="Helvetica,sans-Serif" font-size="10.00">26</text>
</a>
</g>
</g>
<!-- dir_3a646564ec239f35c01425f0e9da2ba2&#45;&gt;dir_d44c64559bbebec7f509842c48db8b23 -->
<g id="edge1" class="edge">
<title>dir_3a646564ec239f35c01425f0e9da2ba2&#45;&gt;dir_d44c64559bbebec7f509842c48db8b23</title>
<path fill="none" stroke="black" d="M69.29,-71.7C78.19,-63.28 89.04,-53.02 98.79,-43.79"/>
<polygon fill="black" stroke="black" points="100.8,-46.76 105.66,-37.35 95.99,-41.68 100.8,-46.76"/>
<g id="a_edge1&#45;headlabel"><a xlink:href="dir_000042_000000.html" target="_top" xlink:title="21">
<text text-anchor="middle" x="101.14" y="-47.79" font-family="Helvetica,sans-Serif" font-size="10.00">21</text>
</a>
</g>
</g>
<!-- dir_9c24722037d5ac7f64b4abda7bbd8009 -->
<g id="node3" class="node">
<title>dir_9c24722037d5ac7f64b4abda7bbd8009</title>
<text text-anchor="middle" x="195" y="-231.5" font-family="Helvetica,sans-Serif" font-size="10.00">fs</text>
</g>
<!-- dir_c5016f51ef7ea33491a800cac5f57ab8 -->
<g id="node4" class="node">
<title>dir_c5016f51ef7ea33491a800cac5f57ab8</title>
<g id="a_node4"><a xlink:href="dir_c5016f51ef7ea33491a800cac5f57ab8.html" target="_top" xlink:title="dev">
<polygon fill="white" stroke="black" points="150,-252 96,-252 96,-216 150,-216 150,-252"/>
<text text-anchor="middle" x="123" y="-231.5" font-family="Helvetica,sans-Serif" font-size="10.00">dev</text>
</a>
</g>
</g>
<!-- dir_c5016f51ef7ea33491a800cac5f57ab8&#45;&gt;dir_dfce509d3294b4958bedddff0a015025 -->
<g id="edge3" class="edge">
<title>dir_c5016f51ef7ea33491a800cac5f57ab8&#45;&gt;dir_dfce509d3294b4958bedddff0a015025</title>
<path fill="none" stroke="black" d="M114.6,-215.7C110.81,-207.9 106.25,-198.51 102.03,-189.83"/>
<polygon fill="black" stroke="black" points="104.83,-188.57 97.31,-181.1 98.53,-191.63 104.83,-188.57"/>
<g id="a_edge3&#45;headlabel"><a xlink:href="dir_000050_000048.html" target="_top" xlink:title="1">
<text text-anchor="middle" x="108.95" y="-187.06" font-family="Helvetica,sans-Serif" font-size="10.00">1</text>
</a>
</g>
</g>
<!-- dir_c5016f51ef7ea33491a800cac5f57ab8&#45;&gt;dir_d44c64559bbebec7f509842c48db8b23 -->
<g id="edge2" class="edge">
<title>dir_c5016f51ef7ea33491a800cac5f57ab8&#45;&gt;dir_d44c64559bbebec7f509842c48db8b23</title>
<path fill="none" stroke="black" d="M138.18,-215.7C145.73,-205.94 154.07,-193.1 158,-180 172.83,-130.62 174.04,-113 158,-64 155.82,-57.35 152.25,-50.88 148.24,-45"/>
<polygon fill="black" stroke="black" points="150.53,-43.22 141.72,-37.33 144.93,-47.43 150.53,-43.22"/>
<g id="a_edge2&#45;headlabel"><a xlink:href="dir_000050_000000.html" target="_top" xlink:title="7">
<text text-anchor="middle" x="154.96" y="-40.89" font-family="Helvetica,sans-Serif" font-size="10.00">7</text>
</a>
</g>
</g>
<!-- dir_ca65bd5df30703bd21db9b8dced53388 -->
<g id="node5" class="node">
<title>dir_ca65bd5df30703bd21db9b8dced53388</title>
<g id="a_node5"><a xlink:href="dir_ca65bd5df30703bd21db9b8dced53388.html" target="_top" xlink:title="proc">
<polygon fill="white" stroke="black" points="78,-252 24,-252 24,-216 78,-216 78,-252"/>
<text text-anchor="middle" x="51" y="-231.5" font-family="Helvetica,sans-Serif" font-size="10.00">proc</text>
</a>
</g>
</g>
<!-- dir_ca65bd5df30703bd21db9b8dced53388&#45;&gt;dir_3a646564ec239f35c01425f0e9da2ba2 -->
<g id="edge4" class="edge">
<title>dir_ca65bd5df30703bd21db9b8dced53388&#45;&gt;dir_3a646564ec239f35c01425f0e9da2ba2</title>
<path fill="none" stroke="black" d="M51,-215.59C51,-191.5 51,-147.75 51,-119.03"/>
<polygon fill="black" stroke="black" points="54.5,-119.11 51,-109.11 47.5,-119.11 54.5,-119.11"/>
<g id="a_edge4&#45;headlabel"><a xlink:href="dir_000051_000042.html" target="_top" xlink:title="1">
<text text-anchor="middle" x="57.34" y="-119.21" font-family="Helvetica,sans-Serif" font-size="10.00">1</text>
</a>
</g>
</g>
<!-- dir_ca65bd5df30703bd21db9b8dced53388&#45;&gt;dir_d44c64559bbebec7f509842c48db8b23 -->
<g id="edge5" class="edge">
<title>dir_ca65bd5df30703bd21db9b8dced53388&#45;&gt;dir_d44c64559bbebec7f509842c48db8b23</title>
<path fill="none" stroke="black" d="M75.72,-215.69C79.49,-213.09 83.34,-210.46 87,-208 105.92,-195.27 119.13,-200.05 130,-180 152.75,-138.03 142.94,-80.45 133.87,-46.73"/>
<polygon fill="black" stroke="black" points="136.99,-45.92 130.88,-37.27 130.27,-47.85 136.99,-45.92"/>
<g id="a_edge5&#45;headlabel"><a xlink:href="dir_000051_000000.html" target="_top" xlink:title="4">
<text text-anchor="middle" x="140.71" y="-45.09" font-family="Helvetica,sans-Serif" font-size="10.00">4</text>
</a>
</g>
</g>
</g>
</svg>
