<?xml version="1.0" encoding="UTF-8" standalone="no"?>
<!DOCTYPE svg PUBLIC "-//W3C//DTD SVG 1.1//EN"
 "http://www.w3.org/Graphics/SVG/1.1/DTD/svg11.dtd">
<!-- Generated by graphviz version 8.0.2 (20230410.1723)
 -->
<!-- Title: src/libc Pages: 1 -->
<svg width="368pt" height="125pt"
 viewBox="0.00 0.00 368.00 125.00" xmlns="http://www.w3.org/2000/svg" xmlns:xlink="http://www.w3.org/1999/xlink">
<g id="graph0" class="graph" transform="scale(1 1) rotate(0) translate(4 121)">
<title>src/libc</title>
<g id="clust1" class="cluster">
<title>clusterdir_68267d1309a1af8e8297ef4c3efbcdba</title>
<g id="a_clust1"><a xlink:href="dir_68267d1309a1af8e8297ef4c3efbcdba.html" target="_top" xlink:title="src">
<polygon fill="#edf0f7" stroke="#404040" stroke-dasharray="5,2" points="8,-39 8,-109 352,-109 352,-39 8,-39"/>
<text text-anchor="middle" x="180" y="-97" font-family="Helvetica,sans-Serif" font-size="10.00">src</text>
</a>
</g>
</g>
<g id="clust2" class="cluster">
<title>clusterdir_ee3448fa1dc3d93b4fb7d6fba5be0d5c</title>
<g id="a_clust2"><a xlink:href="dir_ee3448fa1dc3d93b4fb7d6fba5be0d5c.html" target="_top">
<polygon fill="#edf0f7" stroke="#404040" stroke-width="2" points="16,-47 16,-82 344,-82 344,-47 16,-47"/>
</a>
</g>
</g>
<!-- dir_ee3448fa1dc3d93b4fb7d6fba5be0d5c -->
<g id="node1" class="node">
<title>dir_ee3448fa1dc3d93b4fb7d6fba5be0d5c</title>
<text text-anchor="middle" x="320" y="-62" font-family="Helvetica,sans-Serif" font-size="10.00">libc</text>
</g>
<!-- dir_d44c64559bbebec7f509842c48db8b23 -->
<g id="node7" class="node">
<title>dir_d44c64559bbebec7f509842c48db8b23</title>
<g id="a_node7"><a xlink:href="dir_d44c64559bbebec7f509842c48db8b23.html" target="_top" xlink:title="include">
<polygon fill="#edf0f7" stroke="red" points="202.5,-19 155.5,-19 155.5,0 202.5,0 202.5,-19"/>
<text text-anchor="middle" x="179" y="-7" font-family="Helvetica,sans-Serif" font-size="10.00">include</text>
</a>
</g>
</g>
<!-- dir_ee3448fa1dc3d93b4fb7d6fba5be0d5c&#45;&gt;dir_d44c64559bbebec7f509842c48db8b23 -->
<g id="edge1" class="edge">
<title>dir_ee3448fa1dc3d93b4fb7d6fba5be0d5c&#45;&gt;dir_d44c64559bbebec7f509842c48db8b23</title>
<g id="a_edge1"><a xlink:href="dir_000046_000039.html" target="_top">
<path fill="none" stroke="#63b8ff" d="M313.43,-55.05C308.82,-49.68 302.22,-43.02 295,-39 269.66,-24.89 237.39,-17.69 213.32,-14.06"/>
<polygon fill="#63b8ff" stroke="#63b8ff" points="213.94,-10.48 203.56,-12.59 213,-17.41 213.94,-10.48"/>
</a>
</g>
<g id="a_edge1&#45;headlabel"><a xlink:href="dir_000046_000039.html" target="_top" xlink:title="87">
<text text-anchor="middle" x="216.89" y="-5.65" font-family="Helvetica,sans-Serif" font-size="10.00" fill="#63b8ff">87</text>
</a>
</g>
</g>
<!-- dir_38bba0dc1bcec5102e4973ec0bd30b14 -->
<g id="node2" class="node">
<title>dir_38bba0dc1bcec5102e4973ec0bd30b14</title>
<g id="a_node2"><a xlink:href="dir_38bba0dc1bcec5102e4973ec0bd30b14.html" target="_top" xlink:title="arpa">
<polygon fill="#a2b4d6" stroke="#404040" points="285.5,-74 250.5,-74 250.5,-55 285.5,-55 285.5,-74"/>
<text text-anchor="middle" x="268" y="-62" font-family="Helvetica,sans-Serif" font-size="10.00">arpa</text>
</a>
</g>
</g>
<!-- dir_38bba0dc1bcec5102e4973ec0bd30b14&#45;&gt;dir_d44c64559bbebec7f509842c48db8b23 -->
<g id="edge2" class="edge">
<title>dir_38bba0dc1bcec5102e4973ec0bd30b14&#45;&gt;dir_d44c64559bbebec7f509842c48db8b23</title>
<g id="a_edge2"><a xlink:href="dir_000012_000039.html" target="_top">
<path fill="none" stroke="#63b8ff" d="M259.57,-54.6C254.51,-49.59 247.76,-43.47 241,-39 232.29,-33.24 222.23,-28.07 212.78,-23.77"/>
<polygon fill="#63b8ff" stroke="#63b8ff" points="214.43,-20.23 203.86,-19.45 211.63,-26.65 214.43,-20.23"/>
</a>
</g>
<g id="a_edge2&#45;headlabel"><a xlink:href="dir_000012_000039.html" target="_top" xlink:title="9">
<text text-anchor="middle" x="217.86" y="-16.56" font-family="Helvetica,sans-Serif" font-size="10.00" fill="#63b8ff">9</text>
</a>
</g>
</g>
<!-- dir_7f5ff376a441198f81b9afa317d68c79 -->
<g id="node3" class="node">
<title>dir_7f5ff376a441198f81b9afa317d68c79</title>
<g id="a_node3"><a xlink:href="dir_7f5ff376a441198f81b9afa317d68c79.html" target="_top" xlink:title="arvern">
<polygon fill="#a2b4d6" stroke="#404040" points="232,-74 188,-74 188,-55 232,-55 232,-74"/>
<text text-anchor="middle" x="210" y="-62" font-family="Helvetica,sans-Serif" font-size="10.00">arvern</text>
</a>
</g>
</g>
<!-- dir_7f5ff376a441198f81b9afa317d68c79&#45;&gt;dir_d44c64559bbebec7f509842c48db8b23 -->
<g id="edge3" class="edge">
<title>dir_7f5ff376a441198f81b9afa317d68c79&#45;&gt;dir_d44c64559bbebec7f509842c48db8b23</title>
<g id="a_edge3"><a xlink:href="dir_000014_000039.html" target="_top">
<path fill="none" stroke="#63b8ff" d="M204.88,-54.75C200.78,-47.73 194.88,-37.64 189.75,-28.87"/>
<polygon fill="#63b8ff" stroke="#63b8ff" points="192.3,-27.31 184.23,-20.44 186.26,-30.84 192.3,-27.31"/>
</a>
</g>
<g id="a_edge3&#45;headlabel"><a xlink:href="dir_000014_000039.html" target="_top" xlink:title="5">
<text text-anchor="middle" x="196.57" y="-25.48" font-family="Helvetica,sans-Serif" font-size="10.00" fill="#63b8ff">5</text>
</a>
</g>
</g>
<!-- dir_5ef8085f6cbda2e126b1ab3974e0a348 -->
<g id="node4" class="node">
<title>dir_5ef8085f6cbda2e126b1ab3974e0a348</title>
<g id="a_node4"><a xlink:href="dir_5ef8085f6cbda2e126b1ab3974e0a348.html" target="_top" xlink:title="string">
<polygon fill="#a2b4d6" stroke="#404040" points="169.5,-74 128.5,-74 128.5,-55 169.5,-55 169.5,-74"/>
<text text-anchor="middle" x="149" y="-62" font-family="Helvetica,sans-Serif" font-size="10.00">string</text>
</a>
</g>
</g>
<!-- dir_5ef8085f6cbda2e126b1ab3974e0a348&#45;&gt;dir_d44c64559bbebec7f509842c48db8b23 -->
<g id="edge4" class="edge">
<title>dir_5ef8085f6cbda2e126b1ab3974e0a348&#45;&gt;dir_d44c64559bbebec7f509842c48db8b23</title>
<g id="a_edge4"><a xlink:href="dir_000064_000039.html" target="_top">
<path fill="none" stroke="#63b8ff" d="M153.95,-54.75C157.93,-47.73 163.64,-37.64 168.6,-28.87"/>
<polygon fill="#63b8ff" stroke="#63b8ff" points="172.06,-30.87 173.94,-20.44 165.97,-27.42 172.06,-30.87"/>
</a>
</g>
<g id="a_edge4&#45;headlabel"><a xlink:href="dir_000064_000039.html" target="_top" xlink:title="19">
<text text-anchor="middle" x="172.76" y="-31.9" font-family="Helvetica,sans-Serif" font-size="10.00" fill="#63b8ff">19</text>
</a>
</g>
</g>
<!-- dir_5e66a34aa5f28d3b126d023efdd22628 -->
<g id="node5" class="node">
<title>dir_5e66a34aa5f28d3b126d023efdd22628</title>
<g id="a_node5"><a xlink:href="dir_5e66a34aa5f28d3b126d023efdd22628.html" target="_top" xlink:title="sys">
<polygon fill="#a2b4d6" stroke="#404040" points="110,-74 78,-74 78,-55 110,-55 110,-74"/>
<text text-anchor="middle" x="94" y="-62" font-family="Helvetica,sans-Serif" font-size="10.00">sys</text>
</a>
</g>
</g>
<!-- dir_5e66a34aa5f28d3b126d023efdd22628&#45;&gt;dir_d44c64559bbebec7f509842c48db8b23 -->
<g id="edge5" class="edge">
<title>dir_5e66a34aa5f28d3b126d023efdd22628&#45;&gt;dir_d44c64559bbebec7f509842c48db8b23</title>
<g id="a_edge5"><a xlink:href="dir_000070_000039.html" target="_top">
<path fill="none" stroke="#63b8ff" d="M102.1,-54.63C106.96,-49.63 113.46,-43.5 120,-39 128.24,-33.33 137.78,-28.19 146.75,-23.89"/>
<polygon fill="#63b8ff" stroke="#63b8ff" points="147.91,-26.75 155.54,-19.41 144.99,-20.39 147.91,-26.75"/>
</a>
</g>
<g id="a_edge5&#45;headlabel"><a xlink:href="dir_000070_000039.html" target="_top" xlink:title="18">
<text text-anchor="middle" x="146.82" y="-28.33" font-family="Helvetica,sans-Serif" font-size="10.00" fill="#63b8ff">18</text>
</a>
</g>
</g>
<!-- dir_77204929c56a0900b33c526a1ad6ba07 -->
<g id="node6" class="node">
<title>dir_77204929c56a0900b33c526a1ad6ba07</title>
<g id="a_node6"><a xlink:href="dir_77204929c56a0900b33c526a1ad6ba07.html" target="_top" xlink:title="time">
<polygon fill="#a2b4d6" stroke="#404040" points="59.5,-74 24.5,-74 24.5,-55 59.5,-55 59.5,-74"/>
<text text-anchor="middle" x="42" y="-62" font-family="Helvetica,sans-Serif" font-size="10.00">time</text>
</a>
</g>
</g>
<!-- dir_77204929c56a0900b33c526a1ad6ba07&#45;&gt;dir_d44c64559bbebec7f509842c48db8b23 -->
<g id="edge6" class="edge">
<title>dir_77204929c56a0900b33c526a1ad6ba07&#45;&gt;dir_d44c64559bbebec7f509842c48db8b23</title>
<g id="a_edge6"><a xlink:href="dir_000074_000039.html" target="_top">
<path fill="none" stroke="#63b8ff" d="M49.69,-54.62C54.7,-49.36 61.65,-42.97 69,-39 92.46,-26.33 121.81,-19.09 144.29,-15.09"/>
<polygon fill="#63b8ff" stroke="#63b8ff" points="144.74,-18.4 154.04,-13.32 143.6,-11.49 144.74,-18.4"/>
</a>
</g>
<g id="a_edge6&#45;headlabel"><a xlink:href="dir_000074_000039.html" target="_top" xlink:title="7">
<text text-anchor="middle" x="142.65" y="-19.28" font-family="Helvetica,sans-Serif" font-size="10.00" fill="#63b8ff">7</text>
</a>
</g>
</g>
</g>
</svg>
