<?xml version="1.0" encoding="UTF-8" standalone="no"?>
<!DOCTYPE svg PUBLIC "-//W3C//DTD SVG 1.1//EN"
 "http://www.w3.org/Graphics/SVG/1.1/DTD/svg11.dtd">
<!-- Generated by graphviz version 2.49.3 (20211023.0002)
 -->
<!-- Title: src/kernel/arch/aarch32 Pages: 1 -->
<svg width="326pt" height="159pt"
 viewBox="0.00 0.00 326.00 159.00" xmlns="http://www.w3.org/2000/svg" xmlns:xlink="http://www.w3.org/1999/xlink">
<g id="graph0" class="graph" transform="scale(1 1) rotate(0) translate(4 155)">
<title>src/kernel/arch/aarch32</title>
<g id="clust1" class="cluster">
<title>clusterdir_76e3dd4d2fa719e8d3b096e9aa563982</title>
<g id="a_clust1"><a xlink:href="dir_76e3dd4d2fa719e8d3b096e9aa563982.html" target="_top" xlink:title="arch">
<polygon fill="#ddddee" stroke="black" points="8,-56 8,-143 310,-143 310,-56 8,-56"/>
<text text-anchor="middle" x="159" y="-131" font-family="Helvetica,sans-Serif" font-size="10.00">arch</text>
</a>
</g>
</g>
<g id="clust2" class="cluster">
<title>clusterdir_164d9d2f5b0c525076e27a6a92d62d00</title>
<g id="a_clust2"><a xlink:href="dir_164d9d2f5b0c525076e27a6a92d62d00.html" target="_top">
<polygon fill="#eeeeff" stroke="black" points="16,-64 16,-116 302,-116 302,-64 16,-64"/>
</a>
</g>
</g>
<!-- dir_164d9d2f5b0c525076e27a6a92d62d00 -->
<g id="node1" class="node">
<title>dir_164d9d2f5b0c525076e27a6a92d62d00</title>
<text text-anchor="middle" x="267" y="-87.5" font-family="Helvetica,sans-Serif" font-size="10.00">aarch32</text>
</g>
<!-- dir_d44c64559bbebec7f509842c48db8b23 -->
<g id="node5" class="node">
<title>dir_d44c64559bbebec7f509842c48db8b23</title>
<g id="a_node5"><a xlink:href="dir_d44c64559bbebec7f509842c48db8b23.html" target="_top" xlink:title="include">
<polygon fill="none" stroke="red" points="222,-36 168,-36 168,0 222,0 222,-36"/>
<text text-anchor="middle" x="195" y="-15.5" font-family="Helvetica,sans-Serif" font-size="10.00">include</text>
</a>
</g>
</g>
<!-- dir_164d9d2f5b0c525076e27a6a92d62d00&#45;&gt;dir_d44c64559bbebec7f509842c48db8b23 -->
<g id="edge3" class="edge">
<title>dir_164d9d2f5b0c525076e27a6a92d62d00&#45;&gt;dir_d44c64559bbebec7f509842c48db8b23</title>
<path fill="none" stroke="black" d="M249.2,-71.7C240.4,-63.14 229.62,-52.66 220,-43.3"/>
<polygon fill="black" stroke="black" points="222.2,-40.57 212.59,-36.1 217.32,-45.58 222.2,-40.57"/>
<g id="a_edge3&#45;headlabel"><a xlink:href="dir_000018_000000.html" target="_top" xlink:title="13">
<text text-anchor="middle" x="226.76" y="-38.54" font-family="Helvetica,sans-Serif" font-size="10.00">13</text>
</a>
</g>
</g>
<!-- dir_8599ff620e2cfe485ca84e035b93a5ea -->
<g id="node2" class="node">
<title>dir_8599ff620e2cfe485ca84e035b93a5ea</title>
<g id="a_node2"><a xlink:href="dir_8599ff620e2cfe485ca84e035b93a5ea.html" target="_top" xlink:title="board">
<polygon fill="white" stroke="red" points="222,-108 168,-108 168,-72 222,-72 222,-108"/>
<text text-anchor="middle" x="195" y="-87.5" font-family="Helvetica,sans-Serif" font-size="10.00">board</text>
</a>
</g>
</g>
<!-- dir_8599ff620e2cfe485ca84e035b93a5ea&#45;&gt;dir_d44c64559bbebec7f509842c48db8b23 -->
<g id="edge2" class="edge">
<title>dir_8599ff620e2cfe485ca84e035b93a5ea&#45;&gt;dir_d44c64559bbebec7f509842c48db8b23</title>
<path fill="none" stroke="black" d="M195,-71.7C195,-63.98 195,-54.71 195,-46.11"/>
<polygon fill="black" stroke="black" points="198.5,-46.1 195,-36.1 191.5,-46.1 198.5,-46.1"/>
<g id="a_edge2&#45;headlabel"><a xlink:href="dir_000023_000000.html" target="_top" xlink:title="7">
<text text-anchor="middle" x="201.34" y="-47.2" font-family="Helvetica,sans-Serif" font-size="10.00">7</text>
</a>
</g>
</g>
<!-- dir_9f169674381755ff82f5c420aa567a6a -->
<g id="node3" class="node">
<title>dir_9f169674381755ff82f5c420aa567a6a</title>
<g id="a_node3"><a xlink:href="dir_9f169674381755ff82f5c420aa567a6a.html" target="_top" xlink:title="core">
<polygon fill="white" stroke="black" points="150,-108 96,-108 96,-72 150,-72 150,-108"/>
<text text-anchor="middle" x="123" y="-87.5" font-family="Helvetica,sans-Serif" font-size="10.00">core</text>
</a>
</g>
</g>
<!-- dir_9f169674381755ff82f5c420aa567a6a&#45;&gt;dir_d44c64559bbebec7f509842c48db8b23 -->
<g id="edge1" class="edge">
<title>dir_9f169674381755ff82f5c420aa567a6a&#45;&gt;dir_d44c64559bbebec7f509842c48db8b23</title>
<path fill="none" stroke="black" d="M140.8,-71.7C149.6,-63.14 160.38,-52.66 170,-43.3"/>
<polygon fill="black" stroke="black" points="172.68,-45.58 177.41,-36.1 167.8,-40.57 172.68,-45.58"/>
<g id="a_edge1&#45;headlabel"><a xlink:href="dir_000031_000000.html" target="_top" xlink:title="1">
<text text-anchor="middle" x="172.08" y="-47.63" font-family="Helvetica,sans-Serif" font-size="10.00">1</text>
</a>
</g>
</g>
<!-- dir_4af6b765c4f87f8f02f55c09da1949c7 -->
<g id="node4" class="node">
<title>dir_4af6b765c4f87f8f02f55c09da1949c7</title>
<g id="a_node4"><a xlink:href="dir_4af6b765c4f87f8f02f55c09da1949c7.html" target="_top" xlink:title="mmu">
<polygon fill="white" stroke="black" points="78,-108 24,-108 24,-72 78,-72 78,-108"/>
<text text-anchor="middle" x="51" y="-87.5" font-family="Helvetica,sans-Serif" font-size="10.00">mmu</text>
</a>
</g>
</g>
</g>
</svg>
