<?xml version="1.0" encoding="UTF-8" standalone="no"?>
<!DOCTYPE svg PUBLIC "-//W3C//DTD SVG 1.1//EN"
 "http://www.w3.org/Graphics/SVG/1.1/DTD/svg11.dtd">
<!-- Generated by graphviz version 8.0.2 (20230410.1723)
 -->
<!-- Title: src/kernel/arch/x86_64 Pages: 1 -->
<svg width="296pt" height="447pt"
 viewBox="0.00 0.00 296.00 447.00" xmlns="http://www.w3.org/2000/svg" xmlns:xlink="http://www.w3.org/1999/xlink">
<g id="graph0" class="graph" transform="scale(1 1) rotate(0) translate(4 443)">
<title>src/kernel/arch/x86_64</title>
<g id="clust1" class="cluster">
<title>clusterdir_76e3dd4d2fa719e8d3b096e9aa563982</title>
<g id="a_clust1"><a xlink:href="dir_76e3dd4d2fa719e8d3b096e9aa563982.html" target="_top" xlink:title="arch">
<polygon fill="#ddddee" stroke="black" points="8,-56 8,-431 226,-431 226,-56 8,-56"/>
<text text-anchor="middle" x="117" y="-419" font-family="Helvetica,sans-Serif" font-size="10.00">arch</text>
</a>
</g>
</g>
<g id="clust2" class="cluster">
<title>clusterdir_7c4c796ec9937bed8074dafcec3d25e4</title>
<g id="a_clust2"><a xlink:href="dir_7c4c796ec9937bed8074dafcec3d25e4.html" target="_top">
<polygon fill="#eeeeff" stroke="black" points="16,-64 16,-404 218,-404 218,-64 16,-64"/>
</a>
</g>
</g>
<!-- dir_7c4c796ec9937bed8074dafcec3d25e4 -->
<g id="node1" class="node">
<title>dir_7c4c796ec9937bed8074dafcec3d25e4</title>
<text text-anchor="middle" x="173" y="-375.5" font-family="Helvetica,sans-Serif" font-size="10.00">x86_64</text>
</g>
<!-- dir_2acc9ac41bab451ccb7f12c38e9a27aa -->
<g id="node2" class="node">
<title>dir_2acc9ac41bab451ccb7f12c38e9a27aa</title>
<g id="a_node2"><a xlink:href="dir_2acc9ac41bab451ccb7f12c38e9a27aa.html" target="_top" xlink:title="arch">
<polygon fill="white" stroke="black" points="118,-396 64,-396 64,-360 118,-360 118,-396"/>
<text text-anchor="middle" x="91" y="-375.5" font-family="Helvetica,sans-Serif" font-size="10.00">arch</text>
</a>
</g>
</g>
<!-- dir_42d4540ea64ab009ab7a7dcd79fe63e8 -->
<g id="node3" class="node">
<title>dir_42d4540ea64ab009ab7a7dcd79fe63e8</title>
<g id="a_node3"><a xlink:href="dir_42d4540ea64ab009ab7a7dcd79fe63e8.html" target="_top" xlink:title="console">
<polygon fill="white" stroke="black" points="118,-324 64,-324 64,-288 118,-288 118,-324"/>
<text text-anchor="middle" x="91" y="-303.5" font-family="Helvetica,sans-Serif" font-size="10.00">console</text>
</a>
</g>
</g>
<!-- dir_2acc9ac41bab451ccb7f12c38e9a27aa&#45;&gt;dir_42d4540ea64ab009ab7a7dcd79fe63e8 -->
<g id="edge4" class="edge">
<title>dir_2acc9ac41bab451ccb7f12c38e9a27aa&#45;&gt;dir_42d4540ea64ab009ab7a7dcd79fe63e8</title>
<path fill="none" stroke="black" d="M91,-359.7C91,-352.24 91,-343.32 91,-334.97"/>
<polygon fill="black" stroke="black" points="94.5,-335.1 91,-325.1 87.5,-335.1 94.5,-335.1"/>
<g id="a_edge4&#45;headlabel"><a xlink:href="dir_000026_000047.html" target="_top" xlink:title="1">
<text text-anchor="middle" x="97.34" y="-335.2" font-family="Helvetica,sans-Serif" font-size="10.00">1</text>
</a>
</g>
</g>
<!-- dir_1dc53930709e46457d0e1484ec309f4d -->
<g id="node4" class="node">
<title>dir_1dc53930709e46457d0e1484ec309f4d</title>
<g id="a_node4"><a xlink:href="dir_1dc53930709e46457d0e1484ec309f4d.html" target="_top" xlink:title="core">
<polygon fill="white" stroke="black" points="108,-108 54,-108 54,-72 108,-72 108,-108"/>
<text text-anchor="middle" x="81" y="-87.5" font-family="Helvetica,sans-Serif" font-size="10.00">core</text>
</a>
</g>
</g>
<!-- dir_2acc9ac41bab451ccb7f12c38e9a27aa&#45;&gt;dir_1dc53930709e46457d0e1484ec309f4d -->
<g id="edge2" class="edge">
<title>dir_2acc9ac41bab451ccb7f12c38e9a27aa&#45;&gt;dir_1dc53930709e46457d0e1484ec309f4d</title>
<path fill="none" stroke="black" d="M70.62,-359.53C61.19,-350.09 50.99,-337.6 46,-324 34.7,-293.23 25.14,-262.38 56,-144 58.31,-135.14 62.09,-125.96 66.01,-117.78"/>
<polygon fill="black" stroke="black" points="69.55,-119.55 70.96,-109.05 63.31,-116.37 69.55,-119.55"/>
<g id="a_edge2&#45;headlabel"><a xlink:href="dir_000026_000046.html" target="_top" xlink:title="2">
<text text-anchor="middle" x="70.45" y="-120.54" font-family="Helvetica,sans-Serif" font-size="10.00">2</text>
</a>
</g>
</g>
<!-- dir_dfce509d3294b4958bedddff0a015025 -->
<g id="node5" class="node">
<title>dir_dfce509d3294b4958bedddff0a015025</title>
<g id="a_node5"><a xlink:href="dir_dfce509d3294b4958bedddff0a015025.html" target="_top" xlink:title="drivers">
<polygon fill="white" stroke="black" points="164,-252 110,-252 110,-216 164,-216 164,-252"/>
<text text-anchor="middle" x="137" y="-231.5" font-family="Helvetica,sans-Serif" font-size="10.00">drivers</text>
</a>
</g>
</g>
<!-- dir_2acc9ac41bab451ccb7f12c38e9a27aa&#45;&gt;dir_dfce509d3294b4958bedddff0a015025 -->
<g id="edge6" class="edge">
<title>dir_2acc9ac41bab451ccb7f12c38e9a27aa&#45;&gt;dir_dfce509d3294b4958bedddff0a015025</title>
<path fill="none" stroke="black" d="M106.03,-359.58C113.62,-349.78 122.22,-336.94 127,-324 134.21,-304.5 136.62,-281.09 137.27,-263.18"/>
<polygon fill="black" stroke="black" points="140.79,-263.36 137.48,-253.29 133.79,-263.22 140.79,-263.36"/>
<g id="a_edge6&#45;headlabel"><a xlink:href="dir_000026_000048.html" target="_top" xlink:title="5">
<text text-anchor="middle" x="143.56" y="-263.51" font-family="Helvetica,sans-Serif" font-size="10.00">5</text>
</a>
</g>
</g>
<!-- dir_3a646564ec239f35c01425f0e9da2ba2 -->
<g id="node7" class="node">
<title>dir_3a646564ec239f35c01425f0e9da2ba2</title>
<g id="a_node7"><a xlink:href="dir_3a646564ec239f35c01425f0e9da2ba2.html" target="_top" xlink:title="mmu">
<polygon fill="white" stroke="black" points="126,-180 72,-180 72,-144 126,-144 126,-180"/>
<text text-anchor="middle" x="99" y="-159.5" font-family="Helvetica,sans-Serif" font-size="10.00">mmu</text>
</a>
</g>
</g>
<!-- dir_2acc9ac41bab451ccb7f12c38e9a27aa&#45;&gt;dir_3a646564ec239f35c01425f0e9da2ba2 -->
<g id="edge3" class="edge">
<title>dir_2acc9ac41bab451ccb7f12c38e9a27aa&#45;&gt;dir_3a646564ec239f35c01425f0e9da2ba2</title>
<path fill="none" stroke="black" d="M75.39,-359.77C67.63,-350.03 59.05,-337.18 55,-324 40.57,-277.06 64.52,-221.71 82.37,-189.66"/>
<polygon fill="black" stroke="black" points="85.69,-191.91 87.66,-181.5 79.63,-188.41 85.69,-191.91"/>
<g id="a_edge3&#45;headlabel"><a xlink:href="dir_000026_000042.html" target="_top" xlink:title="1">
<text text-anchor="middle" x="86.35" y="-192.94" font-family="Helvetica,sans-Serif" font-size="10.00">1</text>
</a>
</g>
</g>
<!-- dir_d44c64559bbebec7f509842c48db8b23 -->
<g id="node8" class="node">
<title>dir_d44c64559bbebec7f509842c48db8b23</title>
<g id="a_node8"><a xlink:href="dir_d44c64559bbebec7f509842c48db8b23.html" target="_top" xlink:title="include">
<polygon fill="none" stroke="red" points="220,-36 166,-36 166,0 220,0 220,-36"/>
<text text-anchor="middle" x="193" y="-15.5" font-family="Helvetica,sans-Serif" font-size="10.00">include</text>
</a>
</g>
</g>
<!-- dir_2acc9ac41bab451ccb7f12c38e9a27aa&#45;&gt;dir_d44c64559bbebec7f509842c48db8b23 -->
<g id="edge5" class="edge">
<title>dir_2acc9ac41bab451ccb7f12c38e9a27aa&#45;&gt;dir_d44c64559bbebec7f509842c48db8b23</title>
<path fill="none" stroke="black" d="M118.22,-366.59C153.24,-353.06 210.59,-330.42 219,-324 258.79,-293.63 288,-285.05 288,-235 288,-235 288,-235 288,-161 288,-111.06 279.06,-95.1 248,-56 242.77,-49.41 236.03,-43.57 229.09,-38.58"/>
<polygon fill="black" stroke="black" points="231.54,-35.34 221.27,-32.73 227.67,-41.18 231.54,-35.34"/>
<g id="a_edge5&#45;headlabel"><a xlink:href="dir_000026_000000.html" target="_top" xlink:title="25">
<text text-anchor="middle" x="235.1" y="-32.46" font-family="Helvetica,sans-Serif" font-size="10.00">25</text>
</a>
</g>
</g>
<!-- dir_42d4540ea64ab009ab7a7dcd79fe63e8&#45;&gt;dir_1dc53930709e46457d0e1484ec309f4d -->
<g id="edge9" class="edge">
<title>dir_42d4540ea64ab009ab7a7dcd79fe63e8&#45;&gt;dir_1dc53930709e46457d0e1484ec309f4d</title>
<path fill="none" stroke="black" d="M84.11,-287.62C73.28,-258.12 54.35,-196.34 63,-144 64.39,-135.56 66.96,-126.66 69.72,-118.62"/>
<polygon fill="black" stroke="black" points="73.35,-119.89 73.52,-109.3 66.78,-117.47 73.35,-119.89"/>
<g id="a_edge9&#45;headlabel"><a xlink:href="dir_000047_000046.html" target="_top" xlink:title="1">
<text text-anchor="middle" x="74.77" y="-120.74" font-family="Helvetica,sans-Serif" font-size="10.00">1</text>
</a>
</g>
</g>
<!-- dir_42d4540ea64ab009ab7a7dcd79fe63e8&#45;&gt;dir_dfce509d3294b4958bedddff0a015025 -->
<g id="edge12" class="edge">
<title>dir_42d4540ea64ab009ab7a7dcd79fe63e8&#45;&gt;dir_dfce509d3294b4958bedddff0a015025</title>
<path fill="none" stroke="black" d="M102.37,-287.7C107.61,-279.73 113.93,-270.1 119.74,-261.26"/>
<polygon fill="black" stroke="black" points="123.19,-263.38 125.76,-253.1 117.34,-259.54 123.19,-263.38"/>
<g id="a_edge12&#45;headlabel"><a xlink:href="dir_000047_000048.html" target="_top" xlink:title="1">
<text text-anchor="middle" x="123.59" y="-264.45" font-family="Helvetica,sans-Serif" font-size="10.00">1</text>
</a>
</g>
</g>
<!-- dir_42d4540ea64ab009ab7a7dcd79fe63e8&#45;&gt;dir_3a646564ec239f35c01425f0e9da2ba2 -->
<g id="edge10" class="edge">
<title>dir_42d4540ea64ab009ab7a7dcd79fe63e8&#45;&gt;dir_3a646564ec239f35c01425f0e9da2ba2</title>
<path fill="none" stroke="black" d="M91.98,-287.59C93.34,-263.5 95.8,-219.75 97.42,-191.03"/>
<polygon fill="black" stroke="black" points="100.97,-191.29 98.04,-181.11 93.98,-190.9 100.97,-191.29"/>
<g id="a_edge10&#45;headlabel"><a xlink:href="dir_000047_000042.html" target="_top" xlink:title="1">
<text text-anchor="middle" x="103.6" y="-191.54" font-family="Helvetica,sans-Serif" font-size="10.00">1</text>
</a>
</g>
</g>
<!-- dir_42d4540ea64ab009ab7a7dcd79fe63e8&#45;&gt;dir_d44c64559bbebec7f509842c48db8b23 -->
<g id="edge11" class="edge">
<title>dir_42d4540ea64ab009ab7a7dcd79fe63e8&#45;&gt;dir_d44c64559bbebec7f509842c48db8b23</title>
<path fill="none" stroke="black" d="M118.12,-294.8C136.77,-286.3 160.36,-272.28 173,-252 212.98,-187.83 205.38,-93.73 198.26,-47.2"/>
<polygon fill="black" stroke="black" points="201.57,-46.74 196.5,-37.44 194.66,-47.87 201.57,-46.74"/>
<g id="a_edge11&#45;headlabel"><a xlink:href="dir_000047_000000.html" target="_top" xlink:title="7">
<text text-anchor="middle" x="204.96" y="-46.32" font-family="Helvetica,sans-Serif" font-size="10.00">7</text>
</a>
</g>
</g>
<!-- dir_1dc53930709e46457d0e1484ec309f4d&#45;&gt;dir_d44c64559bbebec7f509842c48db8b23 -->
<g id="edge1" class="edge">
<title>dir_1dc53930709e46457d0e1484ec309f4d&#45;&gt;dir_d44c64559bbebec7f509842c48db8b23</title>
<path fill="none" stroke="black" d="M100.84,-71.73C107.37,-66.4 114.81,-60.7 122,-56 132.71,-49 144.89,-42.25 156.11,-36.48"/>
<polygon fill="black" stroke="black" points="157.3,-39.29 164.66,-31.67 154.15,-33.04 157.3,-39.29"/>
<g id="a_edge1&#45;headlabel"><a xlink:href="dir_000046_000000.html" target="_top" xlink:title="3">
<text text-anchor="middle" x="156.36" y="-40.95" font-family="Helvetica,sans-Serif" font-size="10.00">3</text>
</a>
</g>
</g>
<!-- dir_dfce509d3294b4958bedddff0a015025&#45;&gt;dir_1dc53930709e46457d0e1484ec309f4d -->
<g id="edge16" class="edge">
<title>dir_dfce509d3294b4958bedddff0a015025&#45;&gt;dir_1dc53930709e46457d0e1484ec309f4d</title>
<path fill="none" stroke="black" d="M140.31,-215.79C143.06,-197.24 145.07,-167.26 135,-144 130.37,-133.31 122.47,-123.67 114.12,-115.63"/>
<polygon fill="black" stroke="black" points="116.86,-113.49 107.07,-109.43 112.19,-118.71 116.86,-113.49"/>
<g id="a_edge16&#45;headlabel"><a xlink:href="dir_000048_000046.html" target="_top" xlink:title="3">
<text text-anchor="middle" x="120.43" y="-110.27" font-family="Helvetica,sans-Serif" font-size="10.00">3</text>
</a>
</g>
</g>
<!-- dir_dfce509d3294b4958bedddff0a015025&#45;&gt;dir_3a646564ec239f35c01425f0e9da2ba2 -->
<g id="edge17" class="edge">
<title>dir_dfce509d3294b4958bedddff0a015025&#45;&gt;dir_3a646564ec239f35c01425f0e9da2ba2</title>
<path fill="none" stroke="black" d="M127.61,-215.7C123.33,-207.81 118.17,-198.3 113.41,-189.55"/>
<polygon fill="black" stroke="black" points="116.13,-188.22 108.29,-181.1 109.98,-191.56 116.13,-188.22"/>
<g id="a_edge17&#45;headlabel"><a xlink:href="dir_000048_000042.html" target="_top" xlink:title="1">
<text text-anchor="middle" x="120.34" y="-186.53" font-family="Helvetica,sans-Serif" font-size="10.00">1</text>
</a>
</g>
</g>
<!-- dir_dfce509d3294b4958bedddff0a015025&#45;&gt;dir_d44c64559bbebec7f509842c48db8b23 -->
<g id="edge18" class="edge">
<title>dir_dfce509d3294b4958bedddff0a015025&#45;&gt;dir_d44c64559bbebec7f509842c48db8b23</title>
<path fill="none" stroke="black" d="M141.49,-215.85C151.15,-178.91 174.01,-91.55 185.76,-46.67"/>
<polygon fill="black" stroke="black" points="189.34,-47.79 188.49,-37.23 182.57,-46.02 189.34,-47.79"/>
<g id="a_edge18&#45;headlabel"><a xlink:href="dir_000048_000000.html" target="_top" xlink:title="26">
<text text-anchor="middle" x="191.18" y="-48.49" font-family="Helvetica,sans-Serif" font-size="10.00">26</text>
</a>
</g>
</g>
<!-- dir_9c24722037d5ac7f64b4abda7bbd8009 -->
<g id="node6" class="node">
<title>dir_9c24722037d5ac7f64b4abda7bbd8009</title>
<g id="a_node6"><a xlink:href="dir_9c24722037d5ac7f64b4abda7bbd8009.html" target="_top" xlink:title="fs">
<polygon fill="white" stroke="red" points="210,-324 156,-324 156,-288 210,-288 210,-324"/>
<text text-anchor="middle" x="183" y="-303.5" font-family="Helvetica,sans-Serif" font-size="10.00">fs</text>
</a>
</g>
</g>
<!-- dir_9c24722037d5ac7f64b4abda7bbd8009&#45;&gt;dir_dfce509d3294b4958bedddff0a015025 -->
<g id="edge14" class="edge">
<title>dir_9c24722037d5ac7f64b4abda7bbd8009&#45;&gt;dir_dfce509d3294b4958bedddff0a015025</title>
<path fill="none" stroke="black" d="M171.63,-287.7C166.39,-279.73 160.07,-270.1 154.26,-261.26"/>
<polygon fill="black" stroke="black" points="156.66,-259.54 148.24,-253.1 150.81,-263.38 156.66,-259.54"/>
<g id="a_edge14&#45;headlabel"><a xlink:href="dir_000049_000048.html" target="_top" xlink:title="1">
<text text-anchor="middle" x="161" y="-257.48" font-family="Helvetica,sans-Serif" font-size="10.00">1</text>
</a>
</g>
</g>
<!-- dir_9c24722037d5ac7f64b4abda7bbd8009&#45;&gt;dir_3a646564ec239f35c01425f0e9da2ba2 -->
<g id="edge15" class="edge">
<title>dir_9c24722037d5ac7f64b4abda7bbd8009&#45;&gt;dir_3a646564ec239f35c01425f0e9da2ba2</title>
<path fill="none" stroke="black" d="M185.03,-287.65C186.38,-268.7 185.98,-238.13 173,-216 164.36,-201.27 149.83,-189.53 135.92,-180.89"/>
<polygon fill="black" stroke="black" points="137.87,-177.39 127.47,-175.39 134.35,-183.44 137.87,-177.39"/>
<g id="a_edge15&#45;headlabel"><a xlink:href="dir_000049_000042.html" target="_top" xlink:title="1">
<text text-anchor="middle" x="141.41" y="-174.24" font-family="Helvetica,sans-Serif" font-size="10.00">1</text>
</a>
</g>
</g>
<!-- dir_9c24722037d5ac7f64b4abda7bbd8009&#45;&gt;dir_d44c64559bbebec7f509842c48db8b23 -->
<g id="edge13" class="edge">
<title>dir_9c24722037d5ac7f64b4abda7bbd8009&#45;&gt;dir_d44c64559bbebec7f509842c48db8b23</title>
<path fill="none" stroke="black" d="M202.04,-287.84C211.18,-278.3 221.17,-265.62 226,-252 255.12,-169.9 257.03,-137.4 226,-56 224.49,-52.04 222.34,-48.24 219.86,-44.67"/>
<polygon fill="black" stroke="black" points="222.16,-42.95 213.15,-37.37 216.71,-47.35 222.16,-42.95"/>
<g id="a_edge13&#45;headlabel"><a xlink:href="dir_000049_000000.html" target="_top" xlink:title="11">
<text text-anchor="middle" x="226.62" y="-40.46" font-family="Helvetica,sans-Serif" font-size="10.00">11</text>
</a>
</g>
</g>
<!-- dir_3a646564ec239f35c01425f0e9da2ba2&#45;&gt;dir_1dc53930709e46457d0e1484ec309f4d -->
<g id="edge7" class="edge">
<title>dir_3a646564ec239f35c01425f0e9da2ba2&#45;&gt;dir_1dc53930709e46457d0e1484ec309f4d</title>
<path fill="none" stroke="black" d="M94.55,-143.7C92.61,-136.15 90.29,-127.12 88.12,-118.68"/>
<polygon fill="black" stroke="black" points="91.28,-117.92 85.4,-109.1 84.5,-119.66 91.28,-117.92"/>
<g id="a_edge7&#45;headlabel"><a xlink:href="dir_000042_000046.html" target="_top" xlink:title="2">
<text text-anchor="middle" x="94.92" y="-117.19" font-family="Helvetica,sans-Serif" font-size="10.00">2</text>
</a>
</g>
</g>
<!-- dir_3a646564ec239f35c01425f0e9da2ba2&#45;&gt;dir_d44c64559bbebec7f509842c48db8b23 -->
<g id="edge8" class="edge">
<title>dir_3a646564ec239f35c01425f0e9da2ba2&#45;&gt;dir_d44c64559bbebec7f509842c48db8b23</title>
<path fill="none" stroke="black" d="M107.71,-143.61C118.73,-122.23 138.84,-85.19 160,-56 162.73,-52.24 165.77,-48.42 168.88,-44.73"/>
<polygon fill="black" stroke="black" points="172.17,-47.28 176.13,-37.45 166.9,-42.67 172.17,-47.28"/>
<g id="a_edge8&#45;headlabel"><a xlink:href="dir_000042_000000.html" target="_top" xlink:title="21">
<text text-anchor="middle" x="171.94" y="-48.36" font-family="Helvetica,sans-Serif" font-size="10.00">21</text>
</a>
</g>
</g>
</g>
</svg>
