<?xml version="1.0" encoding="UTF-8" standalone="no"?>
<!DOCTYPE svg PUBLIC "-//W3C//DTD SVG 1.1//EN"
 "http://www.w3.org/Graphics/SVG/1.1/DTD/svg11.dtd">
<!-- Generated by graphviz version 2.49.3 (20211023.0002)
 -->
<!-- Title: include/kernel Pages: 1 -->
<svg width="686pt" height="247pt"
 viewBox="0.00 0.00 686.00 247.00" xmlns="http://www.w3.org/2000/svg" xmlns:xlink="http://www.w3.org/1999/xlink">
<g id="graph0" class="graph" transform="scale(1 1) rotate(0) translate(4 243)">
<title>include/kernel</title>
<g id="clust1" class="cluster">
<title>clusterdir_d44c64559bbebec7f509842c48db8b23</title>
<g id="a_clust1"><a xlink:href="dir_d44c64559bbebec7f509842c48db8b23.html" target="_top" xlink:title="include">
<polygon fill="#ddddee" stroke="black" points="8,-8 8,-231 670,-231 670,-8 8,-8"/>
<text text-anchor="middle" x="339" y="-219" font-family="Helvetica,sans-Serif" font-size="10.00">include</text>
</a>
</g>
</g>
<g id="clust2" class="cluster">
<title>clusterdir_2ae24886e77657f82343b4b0154efdc1</title>
<g id="a_clust2"><a xlink:href="dir_2ae24886e77657f82343b4b0154efdc1.html" target="_top">
<polygon fill="#eeeeff" stroke="black" points="16,-80 16,-204 662,-204 662,-80 16,-80"/>
</a>
</g>
</g>
<!-- dir_f9f386f816a45f0ffce9eeb77a177fce -->
<g id="node1" class="node">
<title>dir_f9f386f816a45f0ffce9eeb77a177fce</title>
<g id="a_node1"><a xlink:href="dir_f9f386f816a45f0ffce9eeb77a177fce.html" target="_top" xlink:title="libc">
<polygon fill="none" stroke="red" points="350,-52 296,-52 296,-16 350,-16 350,-52"/>
<text text-anchor="middle" x="323" y="-31.5" font-family="Helvetica,sans-Serif" font-size="10.00">libc</text>
</a>
</g>
</g>
<!-- dir_2ae24886e77657f82343b4b0154efdc1 -->
<g id="node2" class="node">
<title>dir_2ae24886e77657f82343b4b0154efdc1</title>
<text text-anchor="middle" x="51" y="-175.5" font-family="Helvetica,sans-Serif" font-size="10.00">kernel</text>
</g>
<!-- dir_1bef30f09c3bd1e4e4024186bdc41803 -->
<g id="node3" class="node">
<title>dir_1bef30f09c3bd1e4e4024186bdc41803</title>
<g id="a_node3"><a xlink:href="dir_1bef30f09c3bd1e4e4024186bdc41803.html" target="_top" xlink:title="arch">
<polygon fill="white" stroke="black" points="150,-124 96,-124 96,-88 150,-88 150,-124"/>
<text text-anchor="middle" x="123" y="-103.5" font-family="Helvetica,sans-Serif" font-size="10.00">arch</text>
</a>
</g>
</g>
<!-- dir_2ae24886e77657f82343b4b0154efdc1&#45;&gt;dir_1bef30f09c3bd1e4e4024186bdc41803 -->
<g id="edge2" class="edge">
<title>dir_2ae24886e77657f82343b4b0154efdc1&#45;&gt;dir_1bef30f09c3bd1e4e4024186bdc41803</title>
<path fill="none" stroke="black" d="M68.8,-159.7C77.6,-151.14 88.38,-140.66 98,-131.3"/>
<polygon fill="black" stroke="black" points="100.68,-133.58 105.41,-124.1 95.8,-128.57 100.68,-133.58"/>
<g id="a_edge2&#45;headlabel"><a xlink:href="dir_000001_000002.html" target="_top" xlink:title="2">
<text text-anchor="middle" x="100.08" y="-135.63" font-family="Helvetica,sans-Serif" font-size="10.00">2</text>
</a>
</g>
</g>
<!-- dir_12c6d725a1e624cd8ea115c6923f483d -->
<g id="node13" class="node">
<title>dir_12c6d725a1e624cd8ea115c6923f483d</title>
<g id="a_node13"><a xlink:href="dir_12c6d725a1e624cd8ea115c6923f483d.html" target="_top" xlink:title="time">
<polygon fill="white" stroke="black" points="78,-124 24,-124 24,-88 78,-88 78,-124"/>
<text text-anchor="middle" x="51" y="-103.5" font-family="Helvetica,sans-Serif" font-size="10.00">time</text>
</a>
</g>
</g>
<!-- dir_2ae24886e77657f82343b4b0154efdc1&#45;&gt;dir_12c6d725a1e624cd8ea115c6923f483d -->
<g id="edge1" class="edge">
<title>dir_2ae24886e77657f82343b4b0154efdc1&#45;&gt;dir_12c6d725a1e624cd8ea115c6923f483d</title>
<path fill="none" stroke="black" d="M51,-159.7C51,-151.98 51,-142.71 51,-134.11"/>
<polygon fill="black" stroke="black" points="54.5,-134.1 51,-124.1 47.5,-134.1 54.5,-134.1"/>
<g id="a_edge1&#45;headlabel"><a xlink:href="dir_000001_000022.html" target="_top" xlink:title="1">
<text text-anchor="middle" x="57.34" y="-135.2" font-family="Helvetica,sans-Serif" font-size="10.00">1</text>
</a>
</g>
</g>
<!-- dir_f5cbd4349b593bd5ea59bf7dffcf375a -->
<g id="node4" class="node">
<title>dir_f5cbd4349b593bd5ea59bf7dffcf375a</title>
<g id="a_node4"><a xlink:href="dir_f5cbd4349b593bd5ea59bf7dffcf375a.html" target="_top" xlink:title="config">
<polygon fill="white" stroke="black" points="222,-196 168,-196 168,-160 222,-160 222,-196"/>
<text text-anchor="middle" x="195" y="-175.5" font-family="Helvetica,sans-Serif" font-size="10.00">config</text>
</a>
</g>
</g>
<!-- dir_f5cbd4349b593bd5ea59bf7dffcf375a&#45;&gt;dir_f9f386f816a45f0ffce9eeb77a177fce -->
<g id="edge7" class="edge">
<title>dir_f5cbd4349b593bd5ea59bf7dffcf375a&#45;&gt;dir_f9f386f816a45f0ffce9eeb77a177fce</title>
<path fill="none" stroke="black" d="M222.46,-164.12C246.64,-152.33 279.46,-135.07 289,-124 304.21,-106.34 312.98,-81.16 317.79,-62.09"/>
<polygon fill="black" stroke="black" points="321.23,-62.73 320.07,-52.2 314.41,-61.16 321.23,-62.73"/>
<g id="a_edge7&#45;headlabel"><a xlink:href="dir_000007_000014.html" target="_top" xlink:title="2">
<text text-anchor="middle" x="323.19" y="-64.38" font-family="Helvetica,sans-Serif" font-size="10.00">2</text>
</a>
</g>
</g>
<!-- dir_5dcd48ca9f40364899464cc3f89e860e -->
<g id="node5" class="node">
<title>dir_5dcd48ca9f40364899464cc3f89e860e</title>
<g id="a_node5"><a xlink:href="dir_5dcd48ca9f40364899464cc3f89e860e.html" target="_top" xlink:title="core">
<polygon fill="white" stroke="red" points="510,-196 456,-196 456,-160 510,-160 510,-196"/>
<text text-anchor="middle" x="483" y="-175.5" font-family="Helvetica,sans-Serif" font-size="10.00">core</text>
</a>
</g>
</g>
<!-- dir_72ea8410cd25c3f19cac33d1776c95a7 -->
<g id="node6" class="node">
<title>dir_72ea8410cd25c3f19cac33d1776c95a7</title>
<g id="a_node6"><a xlink:href="dir_72ea8410cd25c3f19cac33d1776c95a7.html" target="_top" xlink:title="drivers">
<polygon fill="white" stroke="black" points="438,-196 384,-196 384,-160 438,-160 438,-196"/>
<text text-anchor="middle" x="411" y="-175.5" font-family="Helvetica,sans-Serif" font-size="10.00">drivers</text>
</a>
</g>
</g>
<!-- dir_579f575ab9bb80182679ffc66b079ac5 -->
<g id="node7" class="node">
<title>dir_579f575ab9bb80182679ffc66b079ac5</title>
<g id="a_node7"><a xlink:href="dir_579f575ab9bb80182679ffc66b079ac5.html" target="_top" xlink:title="fs">
<polygon fill="white" stroke="black" points="251,-124 197,-124 197,-88 251,-88 251,-124"/>
<text text-anchor="middle" x="224" y="-103.5" font-family="Helvetica,sans-Serif" font-size="10.00">fs</text>
</a>
</g>
</g>
<!-- dir_579f575ab9bb80182679ffc66b079ac5&#45;&gt;dir_f9f386f816a45f0ffce9eeb77a177fce -->
<g id="edge9" class="edge">
<title>dir_579f575ab9bb80182679ffc66b079ac5&#45;&gt;dir_f9f386f816a45f0ffce9eeb77a177fce</title>
<path fill="none" stroke="black" d="M244.8,-87.78C248.17,-85.12 251.65,-82.45 255,-80 265.26,-72.49 276.7,-64.71 287.22,-57.77"/>
<polygon fill="black" stroke="black" points="289.34,-60.57 295.8,-52.17 285.51,-54.71 289.34,-60.57"/>
<g id="a_edge9&#45;headlabel"><a xlink:href="dir_000009_000014.html" target="_top" xlink:title="2">
<text text-anchor="middle" x="287.88" y="-62.41" font-family="Helvetica,sans-Serif" font-size="10.00">2</text>
</a>
</g>
</g>
<!-- dir_626355b091f94f14b578c87f25101a76 -->
<g id="node8" class="node">
<title>dir_626355b091f94f14b578c87f25101a76</title>
<g id="a_node8"><a xlink:href="dir_626355b091f94f14b578c87f25101a76.html" target="_top" xlink:title="kshell">
<polygon fill="white" stroke="black" points="366,-196 312,-196 312,-160 366,-160 366,-196"/>
<text text-anchor="middle" x="339" y="-175.5" font-family="Helvetica,sans-Serif" font-size="10.00">kshell</text>
</a>
</g>
</g>
<!-- dir_626355b091f94f14b578c87f25101a76&#45;&gt;dir_f9f386f816a45f0ffce9eeb77a177fce -->
<g id="edge4" class="edge">
<title>dir_626355b091f94f14b578c87f25101a76&#45;&gt;dir_f9f386f816a45f0ffce9eeb77a177fce</title>
<path fill="none" stroke="black" d="M337.07,-159.87C334.34,-135.67 329.33,-91.21 326.09,-62.39"/>
<polygon fill="black" stroke="black" points="329.53,-61.73 324.94,-52.19 322.58,-62.52 329.53,-61.73"/>
<g id="a_edge4&#45;headlabel"><a xlink:href="dir_000003_000014.html" target="_top" xlink:title="1">
<text text-anchor="middle" x="332.76" y="-62.49" font-family="Helvetica,sans-Serif" font-size="10.00">1</text>
</a>
</g>
</g>
<!-- dir_5bbca552b03f18ea4c556679d80b42c9 -->
<g id="node9" class="node">
<title>dir_5bbca552b03f18ea4c556679d80b42c9</title>
<g id="a_node9"><a xlink:href="dir_5bbca552b03f18ea4c556679d80b42c9.html" target="_top" xlink:title="mmu">
<polygon fill="white" stroke="black" points="294,-196 240,-196 240,-160 294,-160 294,-196"/>
<text text-anchor="middle" x="267" y="-175.5" font-family="Helvetica,sans-Serif" font-size="10.00">mmu</text>
</a>
</g>
</g>
<!-- dir_0be85e67768b66452391783f935553f6 -->
<g id="node10" class="node">
<title>dir_0be85e67768b66452391783f935553f6</title>
<g id="a_node10"><a xlink:href="dir_0be85e67768b66452391783f935553f6.html" target="_top" xlink:title="net">
<polygon fill="white" stroke="black" points="582,-196 528,-196 528,-160 582,-160 582,-196"/>
<text text-anchor="middle" x="555" y="-175.5" font-family="Helvetica,sans-Serif" font-size="10.00">net</text>
</a>
</g>
</g>
<!-- dir_0be85e67768b66452391783f935553f6&#45;&gt;dir_f9f386f816a45f0ffce9eeb77a177fce -->
<g id="edge3" class="edge">
<title>dir_0be85e67768b66452391783f935553f6&#45;&gt;dir_f9f386f816a45f0ffce9eeb77a177fce</title>
<path fill="none" stroke="black" d="M527.93,-160.43C486.05,-134.8 405.5,-85.5 358.84,-56.93"/>
<polygon fill="black" stroke="black" points="360.61,-53.92 350.25,-51.68 356.96,-59.89 360.61,-53.92"/>
<g id="a_edge3&#45;headlabel"><a xlink:href="dir_000011_000014.html" target="_top" xlink:title="7">
<text text-anchor="middle" x="365.16" y="-50.87" font-family="Helvetica,sans-Serif" font-size="10.00">7</text>
</a>
</g>
</g>
<!-- dir_b74c2997ee101869ac325e0e63322356 -->
<g id="node11" class="node">
<title>dir_b74c2997ee101869ac325e0e63322356</title>
<g id="a_node11"><a xlink:href="dir_b74c2997ee101869ac325e0e63322356.html" target="_top" xlink:title="proc">
<polygon fill="white" stroke="black" points="150,-196 96,-196 96,-160 150,-160 150,-196"/>
<text text-anchor="middle" x="123" y="-175.5" font-family="Helvetica,sans-Serif" font-size="10.00">proc</text>
</a>
</g>
</g>
<!-- dir_b74c2997ee101869ac325e0e63322356&#45;&gt;dir_f9f386f816a45f0ffce9eeb77a177fce -->
<g id="edge6" class="edge">
<title>dir_b74c2997ee101869ac325e0e63322356&#45;&gt;dir_f9f386f816a45f0ffce9eeb77a177fce</title>
<path fill="none" stroke="black" d="M150.39,-163.72C153.28,-162.43 156.19,-161.16 159,-160 203.04,-141.8 222.51,-153.41 260,-124 278.43,-109.54 275.49,-99.13 289,-80 293.5,-73.62 298.5,-66.85 303.25,-60.55"/>
<polygon fill="black" stroke="black" points="306.23,-62.41 309.5,-52.33 300.66,-58.17 306.23,-62.41"/>
<g id="a_edge6&#45;headlabel"><a xlink:href="dir_000012_000014.html" target="_top" xlink:title="1">
<text text-anchor="middle" x="306.32" y="-64.49" font-family="Helvetica,sans-Serif" font-size="10.00">1</text>
</a>
</g>
</g>
<!-- dir_b74c2997ee101869ac325e0e63322356&#45;&gt;dir_579f575ab9bb80182679ffc66b079ac5 -->
<g id="edge5" class="edge">
<title>dir_b74c2997ee101869ac325e0e63322356&#45;&gt;dir_579f575ab9bb80182679ffc66b079ac5</title>
<path fill="none" stroke="black" d="M147.71,-159.88C160.67,-150.89 176.73,-139.76 190.77,-130.03"/>
<polygon fill="black" stroke="black" points="192.97,-132.76 199.2,-124.19 188.98,-127.01 192.97,-132.76"/>
<g id="a_edge5&#45;headlabel"><a xlink:href="dir_000012_000009.html" target="_top" xlink:title="1">
<text text-anchor="middle" x="191.64" y="-134.64" font-family="Helvetica,sans-Serif" font-size="10.00">1</text>
</a>
</g>
</g>
<!-- dir_a0ffd90eda9fe9d19fd364f796da6911 -->
<g id="node12" class="node">
<title>dir_a0ffd90eda9fe9d19fd364f796da6911</title>
<g id="a_node12"><a xlink:href="dir_a0ffd90eda9fe9d19fd364f796da6911.html" target="_top" xlink:title="sys">
<polygon fill="white" stroke="black" points="654,-196 600,-196 600,-160 654,-160 654,-196"/>
<text text-anchor="middle" x="627" y="-175.5" font-family="Helvetica,sans-Serif" font-size="10.00">sys</text>
</a>
</g>
</g>
<!-- dir_a0ffd90eda9fe9d19fd364f796da6911&#45;&gt;dir_f9f386f816a45f0ffce9eeb77a177fce -->
<g id="edge8" class="edge">
<title>dir_a0ffd90eda9fe9d19fd364f796da6911&#45;&gt;dir_f9f386f816a45f0ffce9eeb77a177fce</title>
<path fill="none" stroke="black" d="M599.71,-162.02C563.17,-142.2 496.07,-106.66 437,-80 411.49,-68.49 382.1,-56.92 359.55,-48.4"/>
<polygon fill="black" stroke="black" points="360.61,-45.06 350.02,-44.83 358.16,-51.62 360.61,-45.06"/>
<g id="a_edge8&#45;headlabel"><a xlink:href="dir_000013_000014.html" target="_top" xlink:title="5">
<text text-anchor="middle" x="364.98" y="-41.17" font-family="Helvetica,sans-Serif" font-size="10.00">5</text>
</a>
</g>
</g>
</g>
</svg>
