<?xml version="1.0" encoding="UTF-8" standalone="no"?>
<!DOCTYPE svg PUBLIC "-//W3C//DTD SVG 1.1//EN"
 "http://www.w3.org/Graphics/SVG/1.1/DTD/svg11.dtd">
<!-- Generated by graphviz version 3.0.0 (20220226.1711)
 -->
<!-- Title: include/kernel Pages: 1 -->
<svg width="614pt" height="391pt"
 viewBox="0.00 0.00 614.00 391.00" xmlns="http://www.w3.org/2000/svg" xmlns:xlink="http://www.w3.org/1999/xlink">
<g id="graph0" class="graph" transform="scale(1 1) rotate(0) translate(4 387)">
<title>include/kernel</title>
<g id="clust1" class="cluster">
<title>clusterdir_d44c64559bbebec7f509842c48db8b23</title>
<g id="a_clust1"><a xlink:href="dir_d44c64559bbebec7f509842c48db8b23.html" target="_top" xlink:title="include">
<polygon fill="#edf0f7" stroke="#404040" stroke-dasharray="5,2" points="8,-8 8,-375 598,-375 598,-8 8,-8"/>
<text text-anchor="middle" x="303" y="-363" font-family="Helvetica,sans-Serif" font-size="10.00">include</text>
</a>
</g>
</g>
<g id="clust2" class="cluster">
<title>clusterdir_2ae24886e77657f82343b4b0154efdc1</title>
<g id="a_clust2"><a xlink:href="dir_2ae24886e77657f82343b4b0154efdc1.html" target="_top">
<polygon fill="#edf0f7" stroke="#404040" stroke-width="2" points="16,-80 16,-348 590,-348 590,-80 16,-80"/>
</a>
</g>
</g>
<!-- dir_f9f386f816a45f0ffce9eeb77a177fce -->
<g id="node1" class="node">
<title>dir_f9f386f816a45f0ffce9eeb77a177fce</title>
<g id="a_node1"><a xlink:href="dir_f9f386f816a45f0ffce9eeb77a177fce.html" target="_top" xlink:title="libc">
<polygon fill="#a2b4d6" stroke="red" points="245,-52 191,-52 191,-16 245,-16 245,-52"/>
<text text-anchor="middle" x="218" y="-31.5" font-family="Helvetica,sans-Serif" font-size="10.00">libc</text>
</a>
</g>
</g>
<!-- dir_2ae24886e77657f82343b4b0154efdc1 -->
<g id="node2" class="node">
<title>dir_2ae24886e77657f82343b4b0154efdc1</title>
<text text-anchor="middle" x="51" y="-319.5" font-family="Helvetica,sans-Serif" font-size="10.00">kernel</text>
</g>
<!-- dir_2ae24886e77657f82343b4b0154efdc1&#45;&gt;dir_f9f386f816a45f0ffce9eeb77a177fce -->
<g id="edge3" class="edge">
<title>dir_2ae24886e77657f82343b4b0154efdc1&#45;&gt;dir_f9f386f816a45f0ffce9eeb77a177fce</title>
<path fill="none" stroke="black" d="M78.07,-308.06C109.6,-292.93 157.59,-269.74 159,-268 184.75,-236.25 205.64,-116.61 214.03,-62.22"/>
<polygon fill="black" stroke="black" points="217.5,-62.66 215.54,-52.25 210.58,-61.62 217.5,-62.66"/>
<g id="a_edge3&#45;headlabel"><a xlink:href="dir_000041_000045.html" target="_top" xlink:title="20">
<text text-anchor="middle" x="219.77" y="-64.14" font-family="Helvetica,sans-Serif" font-size="10.00">20</text>
</a>
</g>
</g>
<!-- dir_1bef30f09c3bd1e4e4024186bdc41803 -->
<g id="node3" class="node">
<title>dir_1bef30f09c3bd1e4e4024186bdc41803</title>
<g id="a_node3"><a xlink:href="dir_1bef30f09c3bd1e4e4024186bdc41803.html" target="_top" xlink:title="arch">
<polygon fill="#a2b4d6" stroke="#404040" points="78,-268 24,-268 24,-232 78,-232 78,-268"/>
<text text-anchor="middle" x="51" y="-247.5" font-family="Helvetica,sans-Serif" font-size="10.00">arch</text>
</a>
</g>
</g>
<!-- dir_2ae24886e77657f82343b4b0154efdc1&#45;&gt;dir_1bef30f09c3bd1e4e4024186bdc41803 -->
<g id="edge2" class="edge">
<title>dir_2ae24886e77657f82343b4b0154efdc1&#45;&gt;dir_1bef30f09c3bd1e4e4024186bdc41803</title>
<path fill="none" stroke="black" d="M51,-303.7C51,-295.98 51,-286.71 51,-278.11"/>
<polygon fill="black" stroke="black" points="54.5,-278.1 51,-268.1 47.5,-278.1 54.5,-278.1"/>
<g id="a_edge2&#45;headlabel"><a xlink:href="dir_000041_000002.html" target="_top" xlink:title="1">
<text text-anchor="middle" x="57.34" y="-279.2" font-family="Helvetica,sans-Serif" font-size="10.00">1</text>
</a>
</g>
</g>
<!-- dir_12c6d725a1e624cd8ea115c6923f483d -->
<g id="node13" class="node">
<title>dir_12c6d725a1e624cd8ea115c6923f483d</title>
<g id="a_node13"><a xlink:href="dir_12c6d725a1e624cd8ea115c6923f483d.html" target="_top" xlink:title="time">
<polygon fill="#a2b4d6" stroke="#404040" points="150,-268 96,-268 96,-232 150,-232 150,-268"/>
<text text-anchor="middle" x="123" y="-247.5" font-family="Helvetica,sans-Serif" font-size="10.00">time</text>
</a>
</g>
</g>
<!-- dir_2ae24886e77657f82343b4b0154efdc1&#45;&gt;dir_12c6d725a1e624cd8ea115c6923f483d -->
<g id="edge1" class="edge">
<title>dir_2ae24886e77657f82343b4b0154efdc1&#45;&gt;dir_12c6d725a1e624cd8ea115c6923f483d</title>
<path fill="none" stroke="black" d="M68.8,-303.7C77.6,-295.14 88.38,-284.66 98,-275.3"/>
<polygon fill="black" stroke="black" points="100.68,-277.58 105.41,-268.1 95.8,-272.57 100.68,-277.58"/>
<g id="a_edge1&#45;headlabel"><a xlink:href="dir_000041_000072.html" target="_top" xlink:title="1">
<text text-anchor="middle" x="100.08" y="-279.63" font-family="Helvetica,sans-Serif" font-size="10.00">1</text>
</a>
</g>
</g>
<!-- dir_b74c2997ee101869ac325e0e63322356 -->
<g id="node11" class="node">
<title>dir_b74c2997ee101869ac325e0e63322356</title>
<g id="a_node11"><a xlink:href="dir_b74c2997ee101869ac325e0e63322356.html" target="_top" xlink:title="proc">
<polygon fill="#a2b4d6" stroke="#404040" points="159,-196 105,-196 105,-160 159,-160 159,-196"/>
<text text-anchor="middle" x="132" y="-175.5" font-family="Helvetica,sans-Serif" font-size="10.00">proc</text>
</a>
</g>
</g>
<!-- dir_1bef30f09c3bd1e4e4024186bdc41803&#45;&gt;dir_b74c2997ee101869ac325e0e63322356 -->
<g id="edge4" class="edge">
<title>dir_1bef30f09c3bd1e4e4024186bdc41803&#45;&gt;dir_b74c2997ee101869ac325e0e63322356</title>
<path fill="none" stroke="black" d="M71.02,-231.7C81.13,-222.97 93.54,-212.24 104.52,-202.75"/>
<polygon fill="black" stroke="black" points="106.93,-205.29 112.21,-196.1 102.35,-199.99 106.93,-205.29"/>
<g id="a_edge4&#45;headlabel"><a xlink:href="dir_000002_000056.html" target="_top" xlink:title="1">
<text text-anchor="middle" x="106.07" y="-207.29" font-family="Helvetica,sans-Serif" font-size="10.00">1</text>
</a>
</g>
</g>
<!-- dir_f5cbd4349b593bd5ea59bf7dffcf375a -->
<g id="node4" class="node">
<title>dir_f5cbd4349b593bd5ea59bf7dffcf375a</title>
<g id="a_node4"><a xlink:href="dir_f5cbd4349b593bd5ea59bf7dffcf375a.html" target="_top" xlink:title="config">
<polygon fill="#a2b4d6" stroke="#404040" points="150,-340 96,-340 96,-304 150,-304 150,-340"/>
<text text-anchor="middle" x="123" y="-319.5" font-family="Helvetica,sans-Serif" font-size="10.00">config</text>
</a>
</g>
</g>
<!-- dir_f5cbd4349b593bd5ea59bf7dffcf375a&#45;&gt;dir_f9f386f816a45f0ffce9eeb77a177fce -->
<g id="edge5" class="edge">
<title>dir_f5cbd4349b593bd5ea59bf7dffcf375a&#45;&gt;dir_f9f386f816a45f0ffce9eeb77a177fce</title>
<path fill="none" stroke="black" d="M150.4,-306.36C171.05,-294.72 196.82,-278.67 203,-268 222.81,-233.79 221.14,-116.44 219.22,-62.51"/>
<polygon fill="black" stroke="black" points="222.71,-62.17 218.83,-52.31 215.72,-62.44 222.71,-62.17"/>
<g id="a_edge5&#45;headlabel"><a xlink:href="dir_000020_000045.html" target="_top" xlink:title="2">
<text text-anchor="middle" x="225.69" y="-63.15" font-family="Helvetica,sans-Serif" font-size="10.00">2</text>
</a>
</g>
</g>
<!-- dir_5dcd48ca9f40364899464cc3f89e860e -->
<g id="node5" class="node">
<title>dir_5dcd48ca9f40364899464cc3f89e860e</title>
<g id="a_node5"><a xlink:href="dir_5dcd48ca9f40364899464cc3f89e860e.html" target="_top" xlink:title="core">
<polygon fill="#a2b4d6" stroke="#404040" points="438,-340 384,-340 384,-304 438,-304 438,-340"/>
<text text-anchor="middle" x="411" y="-319.5" font-family="Helvetica,sans-Serif" font-size="10.00">core</text>
</a>
</g>
</g>
<!-- dir_72ea8410cd25c3f19cac33d1776c95a7 -->
<g id="node6" class="node">
<title>dir_72ea8410cd25c3f19cac33d1776c95a7</title>
<g id="a_node6"><a xlink:href="dir_72ea8410cd25c3f19cac33d1776c95a7.html" target="_top" xlink:title="drivers">
<polygon fill="#a2b4d6" stroke="#404040" points="366,-340 312,-340 312,-304 366,-304 366,-340"/>
<text text-anchor="middle" x="339" y="-319.5" font-family="Helvetica,sans-Serif" font-size="10.00">drivers</text>
</a>
</g>
</g>
<!-- dir_579f575ab9bb80182679ffc66b079ac5 -->
<g id="node7" class="node">
<title>dir_579f575ab9bb80182679ffc66b079ac5</title>
<g id="a_node7"><a xlink:href="dir_579f575ab9bb80182679ffc66b079ac5.html" target="_top" xlink:title="fs">
<polygon fill="#a2b4d6" stroke="#404040" points="159,-124 105,-124 105,-88 159,-88 159,-124"/>
<text text-anchor="middle" x="132" y="-103.5" font-family="Helvetica,sans-Serif" font-size="10.00">fs</text>
</a>
</g>
</g>
<!-- dir_579f575ab9bb80182679ffc66b079ac5&#45;&gt;dir_f9f386f816a45f0ffce9eeb77a177fce -->
<g id="edge6" class="edge">
<title>dir_579f575ab9bb80182679ffc66b079ac5&#45;&gt;dir_f9f386f816a45f0ffce9eeb77a177fce</title>
<path fill="none" stroke="black" d="M153.26,-87.7C164.09,-78.88 177.42,-68.03 189.16,-58.47"/>
<polygon fill="black" stroke="black" points="191.44,-61.13 196.99,-52.1 187.02,-55.7 191.44,-61.13"/>
<g id="a_edge6&#45;headlabel"><a xlink:href="dir_000035_000045.html" target="_top" xlink:title="2">
<text text-anchor="middle" x="190.44" y="-63.1" font-family="Helvetica,sans-Serif" font-size="10.00">2</text>
</a>
</g>
</g>
<!-- dir_626355b091f94f14b578c87f25101a76 -->
<g id="node8" class="node">
<title>dir_626355b091f94f14b578c87f25101a76</title>
<g id="a_node8"><a xlink:href="dir_626355b091f94f14b578c87f25101a76.html" target="_top" xlink:title="kshell">
<polygon fill="#a2b4d6" stroke="#404040" points="294,-340 240,-340 240,-304 294,-304 294,-340"/>
<text text-anchor="middle" x="267" y="-319.5" font-family="Helvetica,sans-Serif" font-size="10.00">kshell</text>
</a>
</g>
</g>
<!-- dir_626355b091f94f14b578c87f25101a76&#45;&gt;dir_f9f386f816a45f0ffce9eeb77a177fce -->
<g id="edge7" class="edge">
<title>dir_626355b091f94f14b578c87f25101a76&#45;&gt;dir_f9f386f816a45f0ffce9eeb77a177fce</title>
<path fill="none" stroke="black" d="M264.08,-303.97C255.9,-256.19 232.67,-120.62 222.67,-62.27"/>
<polygon fill="black" stroke="black" points="226.1,-61.57 220.97,-52.31 219.2,-62.75 226.1,-61.57"/>
<g id="a_edge7&#45;headlabel"><a xlink:href="dir_000043_000045.html" target="_top" xlink:title="1">
<text text-anchor="middle" x="229.51" y="-62.14" font-family="Helvetica,sans-Serif" font-size="10.00">1</text>
</a>
</g>
</g>
<!-- dir_5bbca552b03f18ea4c556679d80b42c9 -->
<g id="node9" class="node">
<title>dir_5bbca552b03f18ea4c556679d80b42c9</title>
<g id="a_node9"><a xlink:href="dir_5bbca552b03f18ea4c556679d80b42c9.html" target="_top" xlink:title="mmu">
<polygon fill="#a2b4d6" stroke="#404040" points="222,-340 168,-340 168,-304 222,-304 222,-340"/>
<text text-anchor="middle" x="195" y="-319.5" font-family="Helvetica,sans-Serif" font-size="10.00">mmu</text>
</a>
</g>
</g>
<!-- dir_0be85e67768b66452391783f935553f6 -->
<g id="node10" class="node">
<title>dir_0be85e67768b66452391783f935553f6</title>
<g id="a_node10"><a xlink:href="dir_0be85e67768b66452391783f935553f6.html" target="_top" xlink:title="net">
<polygon fill="#a2b4d6" stroke="#404040" points="510,-340 456,-340 456,-304 510,-304 510,-340"/>
<text text-anchor="middle" x="483" y="-319.5" font-family="Helvetica,sans-Serif" font-size="10.00">net</text>
</a>
</g>
</g>
<!-- dir_0be85e67768b66452391783f935553f6&#45;&gt;dir_f9f386f816a45f0ffce9eeb77a177fce -->
<g id="edge8" class="edge">
<title>dir_0be85e67768b66452391783f935553f6&#45;&gt;dir_f9f386f816a45f0ffce9eeb77a177fce</title>
<path fill="none" stroke="black" d="M467.22,-303.97C422.31,-255.5 293.67,-116.67 240.95,-59.77"/>
<polygon fill="black" stroke="black" points="243.4,-57.26 234.04,-52.31 238.27,-62.02 243.4,-57.26"/>
<g id="a_edge8&#45;headlabel"><a xlink:href="dir_000053_000045.html" target="_top" xlink:title="7">
<text text-anchor="middle" x="247.93" y="-55.47" font-family="Helvetica,sans-Serif" font-size="10.00">7</text>
</a>
</g>
</g>
<!-- dir_b74c2997ee101869ac325e0e63322356&#45;&gt;dir_f9f386f816a45f0ffce9eeb77a177fce -->
<g id="edge10" class="edge">
<title>dir_b74c2997ee101869ac325e0e63322356&#45;&gt;dir_f9f386f816a45f0ffce9eeb77a177fce</title>
<path fill="none" stroke="black" d="M144.38,-159.58C151.51,-149.36 160.51,-136.11 168,-124 171.71,-118.01 190.08,-85.17 203.48,-61.11"/>
<polygon fill="black" stroke="black" points="206.7,-62.52 208.51,-52.08 200.58,-59.12 206.7,-62.52"/>
<g id="a_edge10&#45;headlabel"><a xlink:href="dir_000056_000045.html" target="_top" xlink:title="1">
<text text-anchor="middle" x="207.43" y="-64.54" font-family="Helvetica,sans-Serif" font-size="10.00">1</text>
</a>
</g>
</g>
<!-- dir_b74c2997ee101869ac325e0e63322356&#45;&gt;dir_579f575ab9bb80182679ffc66b079ac5 -->
<g id="edge9" class="edge">
<title>dir_b74c2997ee101869ac325e0e63322356&#45;&gt;dir_579f575ab9bb80182679ffc66b079ac5</title>
<path fill="none" stroke="black" d="M132,-159.7C132,-151.98 132,-142.71 132,-134.11"/>
<polygon fill="black" stroke="black" points="135.5,-134.1 132,-124.1 128.5,-134.1 135.5,-134.1"/>
<g id="a_edge9&#45;headlabel"><a xlink:href="dir_000056_000035.html" target="_top" xlink:title="1">
<text text-anchor="middle" x="138.34" y="-135.2" font-family="Helvetica,sans-Serif" font-size="10.00">1</text>
</a>
</g>
</g>
<!-- dir_a0ffd90eda9fe9d19fd364f796da6911 -->
<g id="node12" class="node">
<title>dir_a0ffd90eda9fe9d19fd364f796da6911</title>
<g id="a_node12"><a xlink:href="dir_a0ffd90eda9fe9d19fd364f796da6911.html" target="_top" xlink:title="sys">
<polygon fill="#a2b4d6" stroke="#404040" points="582,-340 528,-340 528,-304 582,-304 582,-340"/>
<text text-anchor="middle" x="555" y="-319.5" font-family="Helvetica,sans-Serif" font-size="10.00">sys</text>
</a>
</g>
</g>
<!-- dir_a0ffd90eda9fe9d19fd364f796da6911&#45;&gt;dir_f9f386f816a45f0ffce9eeb77a177fce -->
<g id="edge11" class="edge">
<title>dir_a0ffd90eda9fe9d19fd364f796da6911&#45;&gt;dir_f9f386f816a45f0ffce9eeb77a177fce</title>
<path fill="none" stroke="black" d="M537.3,-303.8C495.03,-263.06 384.27,-158.24 284,-80 274.36,-72.48 263.53,-64.8 253.48,-57.96"/>
<polygon fill="black" stroke="black" points="255.14,-54.87 244.89,-52.2 251.24,-60.68 255.14,-54.87"/>
<g id="a_edge11&#45;headlabel"><a xlink:href="dir_000065_000045.html" target="_top" xlink:title="5">
<text text-anchor="middle" x="259.71" y="-52.01" font-family="Helvetica,sans-Serif" font-size="10.00">5</text>
</a>
</g>
</g>
</g>
</svg>
