<?xml version="1.0" encoding="UTF-8" standalone="no"?>
<!DOCTYPE svg PUBLIC "-//W3C//DTD SVG 1.1//EN"
 "http://www.w3.org/Graphics/SVG/1.1/DTD/svg11.dtd">
<!-- Generated by graphviz version 2.50.0 (20211204.2007)
 -->
<!-- Title: include/libc Pages: 1 -->
<svg width="182pt" height="255pt"
 viewBox="0.00 0.00 182.00 255.00" xmlns="http://www.w3.org/2000/svg" xmlns:xlink="http://www.w3.org/1999/xlink">
<g id="graph0" class="graph" transform="scale(1 1) rotate(0) translate(4 251)">
<title>include/libc</title>
<g id="clust1" class="cluster">
<title>clusterdir_d44c64559bbebec7f509842c48db8b23</title>
<g id="a_clust1"><a xlink:href="dir_d44c64559bbebec7f509842c48db8b23.html" target="_top" xlink:title="include">
<polygon fill="#edf0f7" stroke="#404040" stroke-dasharray="5,2" points="8,-8 8,-239 166,-239 166,-8 8,-8"/>
<text text-anchor="middle" x="87" y="-227" font-family="Helvetica,sans-Serif" font-size="10.00">include</text>
</a>
</g>
</g>
<g id="clust2" class="cluster">
<title>clusterdir_f9f386f816a45f0ffce9eeb77a177fce</title>
<g id="a_clust2"><a xlink:href="dir_f9f386f816a45f0ffce9eeb77a177fce.html" target="_top">
<polygon fill="#edf0f7" stroke="#404040" stroke-width="2" points="16,-16 16,-212 158,-212 158,-16 16,-16"/>
</a>
</g>
</g>
<!-- dir_f9f386f816a45f0ffce9eeb77a177fce -->
<g id="node1" class="node">
<title>dir_f9f386f816a45f0ffce9eeb77a177fce</title>
<text text-anchor="middle" x="123" y="-183.5" font-family="Helvetica,sans-Serif" font-size="10.00">libc</text>
</g>
<!-- dir_384e8044a4a3017e1583fef77edf0684 -->
<g id="node4" class="node">
<title>dir_384e8044a4a3017e1583fef77edf0684</title>
<g id="a_node4"><a xlink:href="dir_384e8044a4a3017e1583fef77edf0684.html" target="_top" xlink:title="sys">
<polygon fill="#a2b4d6" stroke="#404040" points="114,-132 60,-132 60,-96 114,-96 114,-132"/>
<text text-anchor="middle" x="87" y="-111.5" font-family="Helvetica,sans-Serif" font-size="10.00">sys</text>
</a>
</g>
</g>
<!-- dir_f9f386f816a45f0ffce9eeb77a177fce&#45;&gt;dir_384e8044a4a3017e1583fef77edf0684 -->
<g id="edge1" class="edge">
<title>dir_f9f386f816a45f0ffce9eeb77a177fce&#45;&gt;dir_384e8044a4a3017e1583fef77edf0684</title>
<path fill="none" stroke="black" d="M114.1,-167.7C110,-159.73 105.05,-150.1 100.51,-141.26"/>
<polygon fill="black" stroke="black" points="103.48,-139.4 95.8,-132.1 97.26,-142.6 103.48,-139.4"/>
<g id="a_edge1&#45;headlabel"><a xlink:href="dir_000048_000071.html" target="_top" xlink:title="6">
<text text-anchor="middle" x="107.65" y="-138.79" font-family="Helvetica,sans-Serif" font-size="10.00">6</text>
</a>
</g>
</g>
<!-- dir_4808aa484d0a013f0d2313f6f625fe90 -->
<g id="node2" class="node">
<title>dir_4808aa484d0a013f0d2313f6f625fe90</title>
<g id="a_node2"><a xlink:href="dir_4808aa484d0a013f0d2313f6f625fe90.html" target="_top" xlink:title="arpa">
<polygon fill="#a2b4d6" stroke="#404040" points="114,-60 60,-60 60,-24 114,-24 114,-60"/>
<text text-anchor="middle" x="87" y="-39.5" font-family="Helvetica,sans-Serif" font-size="10.00">arpa</text>
</a>
</g>
</g>
<!-- dir_4808aa484d0a013f0d2313f6f625fe90&#45;&gt;dir_384e8044a4a3017e1583fef77edf0684 -->
<g id="edge2" class="edge">
<title>dir_4808aa484d0a013f0d2313f6f625fe90&#45;&gt;dir_384e8044a4a3017e1583fef77edf0684</title>
<path fill="none" stroke="black" d="M92.9,-60.1C93.7,-67.79 93.94,-77.05 93.6,-85.67"/>
<polygon fill="black" stroke="black" points="90.11,-85.48 92.92,-95.7 97.09,-85.96 90.11,-85.48"/>
<g id="a_edge2&#45;headlabel"><a xlink:href="dir_000012_000071.html" target="_top" xlink:title="2">
<text text-anchor="middle" x="87.52" y="-79.2" font-family="Helvetica,sans-Serif" font-size="10.00">2</text>
</a>
</g>
</g>
<!-- dir_653c1a25392178c2d302b93665b057ba -->
<g id="node3" class="node">
<title>dir_653c1a25392178c2d302b93665b057ba</title>
<g id="a_node3"><a xlink:href="dir_653c1a25392178c2d302b93665b057ba.html" target="_top" xlink:title="arvern">
<polygon fill="#a2b4d6" stroke="#404040" points="78,-204 24,-204 24,-168 78,-168 78,-204"/>
<text text-anchor="middle" x="51" y="-183.5" font-family="Helvetica,sans-Serif" font-size="10.00">arvern</text>
</a>
</g>
</g>
<!-- dir_653c1a25392178c2d302b93665b057ba&#45;&gt;dir_384e8044a4a3017e1583fef77edf0684 -->
<g id="edge3" class="edge">
<title>dir_653c1a25392178c2d302b93665b057ba&#45;&gt;dir_384e8044a4a3017e1583fef77edf0684</title>
<path fill="none" stroke="black" d="M59.9,-167.7C64,-159.73 68.95,-150.1 73.49,-141.26"/>
<polygon fill="black" stroke="black" points="76.74,-142.6 78.2,-132.1 70.52,-139.4 76.74,-142.6"/>
<g id="a_edge3&#45;headlabel"><a xlink:href="dir_000014_000071.html" target="_top" xlink:title="1">
<text text-anchor="middle" x="77.62" y="-144.59" font-family="Helvetica,sans-Serif" font-size="10.00">1</text>
</a>
</g>
</g>
<!-- dir_384e8044a4a3017e1583fef77edf0684&#45;&gt;dir_4808aa484d0a013f0d2313f6f625fe90 -->
<g id="edge4" class="edge">
<title>dir_384e8044a4a3017e1583fef77edf0684&#45;&gt;dir_4808aa484d0a013f0d2313f6f625fe90</title>
<path fill="none" stroke="black" d="M81.08,-95.7C80.29,-87.98 80.06,-78.71 80.4,-70.11"/>
<polygon fill="black" stroke="black" points="83.9,-70.32 81.1,-60.1 76.92,-69.84 83.9,-70.32"/>
<g id="a_edge4&#45;headlabel"><a xlink:href="dir_000071_000012.html" target="_top" xlink:title="1">
<text text-anchor="middle" x="86.48" y="-71.61" font-family="Helvetica,sans-Serif" font-size="10.00">1</text>
</a>
</g>
</g>
</g>
</svg>
