<?xml version="1.0" encoding="UTF-8" standalone="no"?>
<!DOCTYPE svg PUBLIC "-//W3C//DTD SVG 1.1//EN"
 "http://www.w3.org/Graphics/SVG/1.1/DTD/svg11.dtd">
<!-- Generated by graphviz version 2.49.3 (20211023.0002)
 -->
<!-- Title: src/kernel/arch/x86_64/arch Pages: 1 -->
<svg width="158pt" height="367pt"
 viewBox="0.00 0.00 158.32 367.00" xmlns="http://www.w3.org/2000/svg" xmlns:xlink="http://www.w3.org/1999/xlink">
<g id="graph0" class="graph" transform="scale(1 1) rotate(0) translate(4 363)">
<title>src/kernel/arch/x86_64/arch</title>
<g id="clust1" class="cluster">
<title>clusterdir_7c4c796ec9937bed8074dafcec3d25e4</title>
<g id="a_clust1"><a xlink:href="dir_7c4c796ec9937bed8074dafcec3d25e4.html" target="_top" xlink:title="x86_64">
<polygon fill="#ddddee" stroke="black" points="8,-64 8,-351 118,-351 118,-64 8,-64"/>
<text text-anchor="middle" x="63" y="-339" font-family="Helvetica,sans-Serif" font-size="10.00">x86_64</text>
</a>
</g>
</g>
<!-- dir_1dc53930709e46457d0e1484ec309f4d -->
<g id="node1" class="node">
<title>dir_1dc53930709e46457d0e1484ec309f4d</title>
<g id="a_node1"><a xlink:href="dir_1dc53930709e46457d0e1484ec309f4d.html" target="_top" xlink:title="core">
<polygon fill="none" stroke="black" points="71,-108 17,-108 17,-72 71,-72 71,-108"/>
<text text-anchor="middle" x="44" y="-87.5" font-family="Helvetica,sans-Serif" font-size="10.00">core</text>
</a>
</g>
</g>
<!-- dir_d44c64559bbebec7f509842c48db8b23 -->
<g id="node5" class="node">
<title>dir_d44c64559bbebec7f509842c48db8b23</title>
<g id="a_node5"><a xlink:href="dir_d44c64559bbebec7f509842c48db8b23.html" target="_top" xlink:title="include">
<polygon fill="none" stroke="red" points="146,-36 92,-36 92,0 146,0 146,-36"/>
<text text-anchor="middle" x="119" y="-15.5" font-family="Helvetica,sans-Serif" font-size="10.00">include</text>
</a>
</g>
</g>
<!-- dir_1dc53930709e46457d0e1484ec309f4d&#45;&gt;dir_d44c64559bbebec7f509842c48db8b23 -->
<g id="edge10" class="edge">
<title>dir_1dc53930709e46457d0e1484ec309f4d&#45;&gt;dir_d44c64559bbebec7f509842c48db8b23</title>
<path fill="none" stroke="black" d="M62.54,-71.7C71.8,-63.05 83.16,-52.45 93.26,-43.03"/>
<polygon fill="black" stroke="black" points="95.75,-45.49 100.67,-36.1 90.98,-40.37 95.75,-45.49"/>
<g id="a_edge10&#45;headlabel"><a xlink:href="dir_000043_000000.html" target="_top" xlink:title="4">
<text text-anchor="middle" x="95.06" y="-47.51" font-family="Helvetica,sans-Serif" font-size="10.00">4</text>
</a>
</g>
</g>
<!-- dir_42d4540ea64ab009ab7a7dcd79fe63e8 -->
<g id="node2" class="node">
<title>dir_42d4540ea64ab009ab7a7dcd79fe63e8</title>
<g id="a_node2"><a xlink:href="dir_42d4540ea64ab009ab7a7dcd79fe63e8.html" target="_top" xlink:title="console">
<polygon fill="none" stroke="black" points="90,-252 36,-252 36,-216 90,-216 90,-252"/>
<text text-anchor="middle" x="63" y="-231.5" font-family="Helvetica,sans-Serif" font-size="10.00">console</text>
</a>
</g>
</g>
<!-- dir_42d4540ea64ab009ab7a7dcd79fe63e8&#45;&gt;dir_1dc53930709e46457d0e1484ec309f4d -->
<g id="edge3" class="edge">
<title>dir_42d4540ea64ab009ab7a7dcd79fe63e8&#45;&gt;dir_1dc53930709e46457d0e1484ec309f4d</title>
<path fill="none" stroke="black" d="M56.5,-215.6C53,-205.39 49,-192.14 47,-180 43.63,-159.54 42.96,-136.08 43.1,-118.38"/>
<polygon fill="black" stroke="black" points="46.6,-118.25 43.27,-108.19 39.6,-118.13 46.6,-118.25"/>
<g id="a_edge3&#45;headlabel"><a xlink:href="dir_000042_000043.html" target="_top" xlink:title="1">
<text text-anchor="middle" x="49.38" y="-119.39" font-family="Helvetica,sans-Serif" font-size="10.00">1</text>
</a>
</g>
</g>
<!-- dir_dfce509d3294b4958bedddff0a015025 -->
<g id="node3" class="node">
<title>dir_dfce509d3294b4958bedddff0a015025</title>
<g id="a_node3"><a xlink:href="dir_dfce509d3294b4958bedddff0a015025.html" target="_top" xlink:title="drivers">
<polygon fill="none" stroke="black" points="110,-180 56,-180 56,-144 110,-144 110,-180"/>
<text text-anchor="middle" x="83" y="-159.5" font-family="Helvetica,sans-Serif" font-size="10.00">drivers</text>
</a>
</g>
</g>
<!-- dir_42d4540ea64ab009ab7a7dcd79fe63e8&#45;&gt;dir_dfce509d3294b4958bedddff0a015025 -->
<g id="edge5" class="edge">
<title>dir_42d4540ea64ab009ab7a7dcd79fe63e8&#45;&gt;dir_dfce509d3294b4958bedddff0a015025</title>
<path fill="none" stroke="black" d="M67.94,-215.7C70.17,-207.9 72.85,-198.51 75.33,-189.83"/>
<polygon fill="black" stroke="black" points="78.73,-190.68 78.11,-180.1 72,-188.76 78.73,-190.68"/>
<g id="a_edge5&#45;headlabel"><a xlink:href="dir_000042_000044.html" target="_top" xlink:title="1">
<text text-anchor="middle" x="80.47" y="-192.42" font-family="Helvetica,sans-Serif" font-size="10.00">1</text>
</a>
</g>
</g>
<!-- dir_42d4540ea64ab009ab7a7dcd79fe63e8&#45;&gt;dir_d44c64559bbebec7f509842c48db8b23 -->
<g id="edge4" class="edge">
<title>dir_42d4540ea64ab009ab7a7dcd79fe63e8&#45;&gt;dir_d44c64559bbebec7f509842c48db8b23</title>
<path fill="none" stroke="black" d="M89.12,-215.82C100.58,-206.69 112.81,-194.39 119,-180 137.85,-136.21 131.58,-79.32 125.3,-46.21"/>
<polygon fill="black" stroke="black" points="128.72,-45.44 123.29,-36.34 121.86,-46.84 128.72,-45.44"/>
<g id="a_edge4&#45;headlabel"><a xlink:href="dir_000042_000000.html" target="_top" xlink:title="2">
<text text-anchor="middle" x="132.22" y="-45.9" font-family="Helvetica,sans-Serif" font-size="10.00">2</text>
</a>
</g>
</g>
<!-- dir_dfce509d3294b4958bedddff0a015025&#45;&gt;dir_1dc53930709e46457d0e1484ec309f4d -->
<g id="edge1" class="edge">
<title>dir_dfce509d3294b4958bedddff0a015025&#45;&gt;dir_1dc53930709e46457d0e1484ec309f4d</title>
<path fill="none" stroke="black" d="M73.36,-143.7C68.87,-135.64 63.44,-125.89 58.48,-116.98"/>
<polygon fill="black" stroke="black" points="61.45,-115.14 53.53,-108.1 55.34,-118.54 61.45,-115.14"/>
<g id="a_edge1&#45;headlabel"><a xlink:href="dir_000044_000043.html" target="_top" xlink:title="10">
<text text-anchor="middle" x="65.68" y="-114.39" font-family="Helvetica,sans-Serif" font-size="10.00">10</text>
</a>
</g>
</g>
<!-- dir_dfce509d3294b4958bedddff0a015025&#45;&gt;dir_d44c64559bbebec7f509842c48db8b23 -->
<g id="edge2" class="edge">
<title>dir_dfce509d3294b4958bedddff0a015025&#45;&gt;dir_d44c64559bbebec7f509842c48db8b23</title>
<path fill="none" stroke="black" d="M87.34,-143.87C93.5,-119.56 104.85,-74.82 112.15,-46.01"/>
<polygon fill="black" stroke="black" points="115.58,-46.74 114.64,-36.19 108.79,-45.02 115.58,-46.74"/>
<g id="a_edge2&#45;headlabel"><a xlink:href="dir_000044_000000.html" target="_top" xlink:title="7">
<text text-anchor="middle" x="117.45" y="-48.42" font-family="Helvetica,sans-Serif" font-size="10.00">7</text>
</a>
</g>
</g>
<!-- dir_2acc9ac41bab451ccb7f12c38e9a27aa -->
<g id="node4" class="node">
<title>dir_2acc9ac41bab451ccb7f12c38e9a27aa</title>
<g id="a_node4"><a xlink:href="dir_2acc9ac41bab451ccb7f12c38e9a27aa.html" target="_top" xlink:title="arch">
<polygon fill="#eeeeff" stroke="black" points="100,-324 46,-324 46,-288 100,-288 100,-324"/>
<text text-anchor="middle" x="73" y="-303.5" font-family="Helvetica,sans-Serif" font-size="10.00">arch</text>
</a>
</g>
</g>
<!-- dir_2acc9ac41bab451ccb7f12c38e9a27aa&#45;&gt;dir_1dc53930709e46457d0e1484ec309f4d -->
<g id="edge6" class="edge">
<title>dir_2acc9ac41bab451ccb7f12c38e9a27aa&#45;&gt;dir_1dc53930709e46457d0e1484ec309f4d</title>
<path fill="none" stroke="black" d="M52.18,-287.62C42.54,-278.2 32.11,-265.7 27,-252 10.23,-207.09 23.35,-150.57 33.98,-117.83"/>
<polygon fill="black" stroke="black" points="37.38,-118.68 37.3,-108.09 30.76,-116.42 37.38,-118.68"/>
<g id="a_edge6&#45;headlabel"><a xlink:href="dir_000038_000043.html" target="_top" xlink:title="2">
<text text-anchor="middle" x="38.91" y="-120.5" font-family="Helvetica,sans-Serif" font-size="10.00">2</text>
</a>
</g>
</g>
<!-- dir_2acc9ac41bab451ccb7f12c38e9a27aa&#45;&gt;dir_42d4540ea64ab009ab7a7dcd79fe63e8 -->
<g id="edge7" class="edge">
<title>dir_2acc9ac41bab451ccb7f12c38e9a27aa&#45;&gt;dir_42d4540ea64ab009ab7a7dcd79fe63e8</title>
<path fill="none" stroke="black" d="M70.53,-287.7C69.43,-279.98 68.1,-270.71 66.87,-262.11"/>
<polygon fill="black" stroke="black" points="70.32,-261.51 65.44,-252.1 63.39,-262.5 70.32,-261.51"/>
<g id="a_edge7&#45;headlabel"><a xlink:href="dir_000038_000042.html" target="_top" xlink:title="1">
<text text-anchor="middle" x="73.64" y="-262.17" font-family="Helvetica,sans-Serif" font-size="10.00">1</text>
</a>
</g>
</g>
<!-- dir_2acc9ac41bab451ccb7f12c38e9a27aa&#45;&gt;dir_dfce509d3294b4958bedddff0a015025 -->
<g id="edge9" class="edge">
<title>dir_2acc9ac41bab451ccb7f12c38e9a27aa&#45;&gt;dir_dfce509d3294b4958bedddff0a015025</title>
<path fill="none" stroke="black" d="M84.05,-287.61C89.74,-277.62 96.08,-264.58 99,-252 103.81,-231.29 99.05,-207.59 93.5,-189.85"/>
<polygon fill="black" stroke="black" points="96.74,-188.51 90.21,-180.17 90.12,-190.76 96.74,-188.51"/>
<g id="a_edge9&#45;headlabel"><a xlink:href="dir_000038_000044.html" target="_top" xlink:title="5">
<text text-anchor="middle" x="100.59" y="-188.5" font-family="Helvetica,sans-Serif" font-size="10.00">5</text>
</a>
</g>
</g>
<!-- dir_2acc9ac41bab451ccb7f12c38e9a27aa&#45;&gt;dir_d44c64559bbebec7f509842c48db8b23 -->
<g id="edge8" class="edge">
<title>dir_2acc9ac41bab451ccb7f12c38e9a27aa&#45;&gt;dir_d44c64559bbebec7f509842c48db8b23</title>
<path fill="none" stroke="black" d="M84.92,-287.77C100.24,-264.53 126.18,-221.27 137,-180 150.09,-130.06 155.52,-114.08 143,-64 141.39,-57.57 138.68,-51.06 135.63,-45.06"/>
<polygon fill="black" stroke="black" points="138.6,-43.2 130.7,-36.14 132.48,-46.58 138.6,-43.2"/>
<g id="a_edge8&#45;headlabel"><a xlink:href="dir_000038_000000.html" target="_top" xlink:title="10">
<text text-anchor="middle" x="142.83" y="-42.47" font-family="Helvetica,sans-Serif" font-size="10.00">10</text>
</a>
</g>
</g>
</g>
</svg>
