<?xml version="1.0" encoding="UTF-8" standalone="no"?>
<!DOCTYPE svg PUBLIC "-//W3C//DTD SVG 1.1//EN"
 "http://www.w3.org/Graphics/SVG/1.1/DTD/svg11.dtd">
<!-- Generated by graphviz version 2.49.3 (20211023.0002)
 -->
<!-- Title: src/kernel/arch Pages: 1 -->
<svg width="326pt" height="159pt"
 viewBox="0.00 0.00 326.00 159.00" xmlns="http://www.w3.org/2000/svg" xmlns:xlink="http://www.w3.org/1999/xlink">
<g id="graph0" class="graph" transform="scale(1 1) rotate(0) translate(4 155)">
<title>src/kernel/arch</title>
<g id="clust1" class="cluster">
<title>clusterdir_cbd7f246bdf7dc0a50281a272327e6ed</title>
<g id="a_clust1"><a xlink:href="dir_cbd7f246bdf7dc0a50281a272327e6ed.html" target="_top" xlink:title="kernel">
<polygon fill="#ddddee" stroke="black" points="8,-56 8,-143 310,-143 310,-56 8,-56"/>
<text text-anchor="middle" x="159" y="-131" font-family="Helvetica,sans-Serif" font-size="10.00">kernel</text>
</a>
</g>
</g>
<g id="clust2" class="cluster">
<title>clusterdir_76e3dd4d2fa719e8d3b096e9aa563982</title>
<g id="a_clust2"><a xlink:href="dir_76e3dd4d2fa719e8d3b096e9aa563982.html" target="_top">
<polygon fill="#eeeeff" stroke="black" points="16,-64 16,-116 302,-116 302,-64 16,-64"/>
</a>
</g>
</g>
<!-- dir_76e3dd4d2fa719e8d3b096e9aa563982 -->
<g id="node1" class="node">
<title>dir_76e3dd4d2fa719e8d3b096e9aa563982</title>
<text text-anchor="middle" x="267" y="-87.5" font-family="Helvetica,sans-Serif" font-size="10.00">arch</text>
</g>
<!-- dir_164d9d2f5b0c525076e27a6a92d62d00 -->
<g id="node2" class="node">
<title>dir_164d9d2f5b0c525076e27a6a92d62d00</title>
<g id="a_node2"><a xlink:href="dir_164d9d2f5b0c525076e27a6a92d62d00.html" target="_top" xlink:title="aarch32">
<polygon fill="white" stroke="red" points="222,-108 168,-108 168,-72 222,-72 222,-108"/>
<text text-anchor="middle" x="195" y="-87.5" font-family="Helvetica,sans-Serif" font-size="10.00">aarch32</text>
</a>
</g>
</g>
<!-- dir_d44c64559bbebec7f509842c48db8b23 -->
<g id="node5" class="node">
<title>dir_d44c64559bbebec7f509842c48db8b23</title>
<g id="a_node5"><a xlink:href="dir_d44c64559bbebec7f509842c48db8b23.html" target="_top" xlink:title="include">
<polygon fill="none" stroke="red" points="150,-36 96,-36 96,0 150,0 150,-36"/>
<text text-anchor="middle" x="123" y="-15.5" font-family="Helvetica,sans-Serif" font-size="10.00">include</text>
</a>
</g>
</g>
<!-- dir_164d9d2f5b0c525076e27a6a92d62d00&#45;&gt;dir_d44c64559bbebec7f509842c48db8b23 -->
<g id="edge3" class="edge">
<title>dir_164d9d2f5b0c525076e27a6a92d62d00&#45;&gt;dir_d44c64559bbebec7f509842c48db8b23</title>
<path fill="none" stroke="black" d="M177.2,-71.7C168.4,-63.14 157.62,-52.66 148,-43.3"/>
<polygon fill="black" stroke="black" points="150.2,-40.57 140.59,-36.1 145.32,-45.58 150.2,-40.57"/>
<g id="a_edge3&#45;headlabel"><a xlink:href="dir_000018_000000.html" target="_top" xlink:title="20">
<text text-anchor="middle" x="154.76" y="-38.54" font-family="Helvetica,sans-Serif" font-size="10.00">20</text>
</a>
</g>
</g>
<!-- dir_0acad8e611f5f3679e26f7f6ddf45d1c -->
<g id="node3" class="node">
<title>dir_0acad8e611f5f3679e26f7f6ddf45d1c</title>
<g id="a_node3"><a xlink:href="dir_0acad8e611f5f3679e26f7f6ddf45d1c.html" target="_top" xlink:title="aarch64">
<polygon fill="white" stroke="red" points="150,-108 96,-108 96,-72 150,-72 150,-108"/>
<text text-anchor="middle" x="123" y="-87.5" font-family="Helvetica,sans-Serif" font-size="10.00">aarch64</text>
</a>
</g>
</g>
<!-- dir_0acad8e611f5f3679e26f7f6ddf45d1c&#45;&gt;dir_d44c64559bbebec7f509842c48db8b23 -->
<g id="edge1" class="edge">
<title>dir_0acad8e611f5f3679e26f7f6ddf45d1c&#45;&gt;dir_d44c64559bbebec7f509842c48db8b23</title>
<path fill="none" stroke="black" d="M123,-71.7C123,-63.98 123,-54.71 123,-46.11"/>
<polygon fill="black" stroke="black" points="126.5,-46.1 123,-36.1 119.5,-46.1 126.5,-46.1"/>
<g id="a_edge1&#45;headlabel"><a xlink:href="dir_000019_000000.html" target="_top" xlink:title="24">
<text text-anchor="middle" x="129.34" y="-47.2" font-family="Helvetica,sans-Serif" font-size="10.00">24</text>
</a>
</g>
</g>
<!-- dir_7c4c796ec9937bed8074dafcec3d25e4 -->
<g id="node4" class="node">
<title>dir_7c4c796ec9937bed8074dafcec3d25e4</title>
<g id="a_node4"><a xlink:href="dir_7c4c796ec9937bed8074dafcec3d25e4.html" target="_top" xlink:title="x86_64">
<polygon fill="white" stroke="red" points="78,-108 24,-108 24,-72 78,-72 78,-108"/>
<text text-anchor="middle" x="51" y="-87.5" font-family="Helvetica,sans-Serif" font-size="10.00">x86_64</text>
</a>
</g>
</g>
<!-- dir_7c4c796ec9937bed8074dafcec3d25e4&#45;&gt;dir_d44c64559bbebec7f509842c48db8b23 -->
<g id="edge2" class="edge">
<title>dir_7c4c796ec9937bed8074dafcec3d25e4&#45;&gt;dir_d44c64559bbebec7f509842c48db8b23</title>
<path fill="none" stroke="black" d="M68.8,-71.7C77.6,-63.14 88.38,-52.66 98,-43.3"/>
<polygon fill="black" stroke="black" points="100.68,-45.58 105.41,-36.1 95.8,-40.57 100.68,-45.58"/>
<g id="a_edge2&#45;headlabel"><a xlink:href="dir_000020_000000.html" target="_top" xlink:title="100">
<text text-anchor="middle" x="100.08" y="-47.63" font-family="Helvetica,sans-Serif" font-size="10.00">100</text>
</a>
</g>
</g>
</g>
</svg>
