<?xml version="1.0" encoding="UTF-8" standalone="no"?>
<!DOCTYPE svg PUBLIC "-//W3C//DTD SVG 1.1//EN"
 "http://www.w3.org/Graphics/SVG/1.1/DTD/svg11.dtd">
<!-- Generated by graphviz version 2.49.3 (20211023.0002)
 -->
<!-- Title: src/kernel/arch/x86_64/core Pages: 1 -->
<svg width="105pt" height="223pt"
 viewBox="0.00 0.00 105.00 223.00" xmlns="http://www.w3.org/2000/svg" xmlns:xlink="http://www.w3.org/1999/xlink">
<g id="graph0" class="graph" transform="scale(1 1) rotate(0) translate(4 219)">
<title>src/kernel/arch/x86_64/core</title>
<g id="clust1" class="cluster">
<title>clusterdir_7c4c796ec9937bed8074dafcec3d25e4</title>
<g id="a_clust1"><a xlink:href="dir_7c4c796ec9937bed8074dafcec3d25e4.html" target="_top" xlink:title="x86_64">
<polygon fill="#ddddee" stroke="black" points="8,-64 8,-207 78,-207 78,-64 8,-64"/>
<text text-anchor="middle" x="43" y="-195" font-family="Helvetica,sans-Serif" font-size="10.00">x86_64</text>
</a>
</g>
</g>
<!-- dir_3a646564ec239f35c01425f0e9da2ba2 -->
<g id="node1" class="node">
<title>dir_3a646564ec239f35c01425f0e9da2ba2</title>
<g id="a_node1"><a xlink:href="dir_3a646564ec239f35c01425f0e9da2ba2.html" target="_top" xlink:title="mmu">
<polygon fill="none" stroke="black" points="70,-180 16,-180 16,-144 70,-144 70,-180"/>
<text text-anchor="middle" x="43" y="-159.5" font-family="Helvetica,sans-Serif" font-size="10.00">mmu</text>
</a>
</g>
</g>
<!-- dir_1dc53930709e46457d0e1484ec309f4d -->
<g id="node2" class="node">
<title>dir_1dc53930709e46457d0e1484ec309f4d</title>
<g id="a_node2"><a xlink:href="dir_1dc53930709e46457d0e1484ec309f4d.html" target="_top" xlink:title="core">
<polygon fill="#eeeeff" stroke="black" points="70,-108 16,-108 16,-72 70,-72 70,-108"/>
<text text-anchor="middle" x="43" y="-87.5" font-family="Helvetica,sans-Serif" font-size="10.00">core</text>
</a>
</g>
</g>
<!-- dir_3a646564ec239f35c01425f0e9da2ba2&#45;&gt;dir_1dc53930709e46457d0e1484ec309f4d -->
<g id="edge1" class="edge">
<title>dir_3a646564ec239f35c01425f0e9da2ba2&#45;&gt;dir_1dc53930709e46457d0e1484ec309f4d</title>
<path fill="none" stroke="black" d="M37.08,-143.7C36.29,-135.98 36.06,-126.71 36.4,-118.11"/>
<polygon fill="black" stroke="black" points="39.9,-118.32 37.1,-108.1 32.92,-117.84 39.9,-118.32"/>
<g id="a_edge1&#45;headlabel"><a xlink:href="dir_000036_000043.html" target="_top" xlink:title="3">
<text text-anchor="middle" x="42.48" y="-119.61" font-family="Helvetica,sans-Serif" font-size="10.00">3</text>
</a>
</g>
</g>
<!-- dir_d44c64559bbebec7f509842c48db8b23 -->
<g id="node3" class="node">
<title>dir_d44c64559bbebec7f509842c48db8b23</title>
<g id="a_node3"><a xlink:href="dir_d44c64559bbebec7f509842c48db8b23.html" target="_top" xlink:title="include">
<polygon fill="none" stroke="red" points="97,-36 43,-36 43,0 97,0 97,-36"/>
<text text-anchor="middle" x="70" y="-15.5" font-family="Helvetica,sans-Serif" font-size="10.00">include</text>
</a>
</g>
</g>
<!-- dir_3a646564ec239f35c01425f0e9da2ba2&#45;&gt;dir_d44c64559bbebec7f509842c48db8b23 -->
<g id="edge2" class="edge">
<title>dir_3a646564ec239f35c01425f0e9da2ba2&#45;&gt;dir_d44c64559bbebec7f509842c48db8b23</title>
<path fill="none" stroke="black" d="M58.61,-143.77C66.37,-134.03 74.95,-121.18 79,-108 85.22,-87.77 82.27,-63.87 78.15,-45.92"/>
<polygon fill="black" stroke="black" points="81.51,-44.95 75.65,-36.12 74.73,-46.68 81.51,-44.95"/>
<g id="a_edge2&#45;headlabel"><a xlink:href="dir_000036_000000.html" target="_top" xlink:title="8">
<text text-anchor="middle" x="85.15" y="-45.23" font-family="Helvetica,sans-Serif" font-size="10.00">8</text>
</a>
</g>
</g>
<!-- dir_1dc53930709e46457d0e1484ec309f4d&#45;&gt;dir_3a646564ec239f35c01425f0e9da2ba2 -->
<g id="edge3" class="edge">
<title>dir_1dc53930709e46457d0e1484ec309f4d&#45;&gt;dir_3a646564ec239f35c01425f0e9da2ba2</title>
<path fill="none" stroke="black" d="M48.9,-108.1C49.7,-115.79 49.94,-125.05 49.6,-133.67"/>
<polygon fill="black" stroke="black" points="46.11,-133.48 48.92,-143.7 53.09,-133.96 46.11,-133.48"/>
<g id="a_edge3&#45;headlabel"><a xlink:href="dir_000043_000036.html" target="_top" xlink:title="1">
<text text-anchor="middle" x="43.52" y="-127.2" font-family="Helvetica,sans-Serif" font-size="10.00">1</text>
</a>
</g>
</g>
<!-- dir_1dc53930709e46457d0e1484ec309f4d&#45;&gt;dir_d44c64559bbebec7f509842c48db8b23 -->
<g id="edge4" class="edge">
<title>dir_1dc53930709e46457d0e1484ec309f4d&#45;&gt;dir_d44c64559bbebec7f509842c48db8b23</title>
<path fill="none" stroke="black" d="M49.67,-71.7C52.71,-63.81 56.38,-54.3 59.76,-45.55"/>
<polygon fill="black" stroke="black" points="63.07,-46.69 63.4,-36.1 56.54,-44.17 63.07,-46.69"/>
<g id="a_edge4&#45;headlabel"><a xlink:href="dir_000043_000000.html" target="_top" xlink:title="4">
<text text-anchor="middle" x="64.42" y="-48.57" font-family="Helvetica,sans-Serif" font-size="10.00">4</text>
</a>
</g>
</g>
</g>
</svg>
