<?xml version="1.0" encoding="UTF-8" standalone="no"?>
<!DOCTYPE svg PUBLIC "-//W3C//DTD SVG 1.1//EN"
 "http://www.w3.org/Graphics/SVG/1.1/DTD/svg11.dtd">
<!-- Generated by graphviz version 8.0.2 (20230410.1723)
 -->
<!-- Title: src/kernel/arch/x86_64/fs Pages: 1 -->
<svg width="237pt" height="141pt"
 viewBox="0.00 0.00 236.50 141.00" xmlns="http://www.w3.org/2000/svg" xmlns:xlink="http://www.w3.org/1999/xlink">
<g id="graph0" class="graph" transform="scale(1 1) rotate(0) translate(4 137)">
<title>src/kernel/arch/x86_64/fs</title>
<g id="clust1" class="cluster">
<title>clusterdir_7c4c796ec9937bed8074dafcec3d25e4</title>
<g id="a_clust1"><a xlink:href="dir_7c4c796ec9937bed8074dafcec3d25e4.html" target="_top" xlink:title="x86_64">
<polygon fill="#edf0f7" stroke="#7f7f7f" stroke-dasharray="5,2" points="8,-8 8,-125 173,-125 173,-8 8,-8"/>
<text text-anchor="middle" x="90.5" y="-113" font-family="Helvetica,sans-Serif" font-size="10.00">x86_64</text>
</a>
</g>
</g>
<g id="clust2" class="cluster">
<title>clusterdir_9c24722037d5ac7f64b4abda7bbd8009</title>
<g id="a_clust2"><a xlink:href="dir_9c24722037d5ac7f64b4abda7bbd8009.html" target="_top">
<polygon fill="#edf0f7" stroke="#404040" stroke-width="2" points="16,-63 16,-98 165,-98 165,-63 16,-63"/>
</a>
</g>
</g>
<!-- dir_dfce509d3294b4958bedddff0a015025 -->
<g id="node1" class="node">
<title>dir_dfce509d3294b4958bedddff0a015025</title>
<g id="a_node1"><a xlink:href="dir_dfce509d3294b4958bedddff0a015025.html" target="_top" xlink:title="drivers">
<polygon fill="#a2b4d6" stroke="#404040" points="62,-35 16,-35 16,-16 62,-16 62,-35"/>
<text text-anchor="middle" x="39" y="-23" font-family="Helvetica,sans-Serif" font-size="10.00">drivers</text>
</a>
</g>
</g>
<!-- dir_3a646564ec239f35c01425f0e9da2ba2 -->
<g id="node2" class="node">
<title>dir_3a646564ec239f35c01425f0e9da2ba2</title>
<g id="a_node2"><a xlink:href="dir_3a646564ec239f35c01425f0e9da2ba2.html" target="_top" xlink:title="mmu">
<polygon fill="#a2b4d6" stroke="#404040" points="118,-35 80,-35 80,-16 118,-16 118,-35"/>
<text text-anchor="middle" x="99" y="-23" font-family="Helvetica,sans-Serif" font-size="10.00">mmu</text>
</a>
</g>
</g>
<!-- dir_9c24722037d5ac7f64b4abda7bbd8009 -->
<g id="node3" class="node">
<title>dir_9c24722037d5ac7f64b4abda7bbd8009</title>
<text text-anchor="middle" x="142" y="-78" font-family="Helvetica,sans-Serif" font-size="10.00">fs</text>
</g>
<!-- dir_c5016f51ef7ea33491a800cac5f57ab8 -->
<g id="node4" class="node">
<title>dir_c5016f51ef7ea33491a800cac5f57ab8</title>
<g id="a_node4"><a xlink:href="dir_c5016f51ef7ea33491a800cac5f57ab8.html" target="_top" xlink:title="dev">
<polygon fill="#a2b4d6" stroke="#404040" points="56,-90 24,-90 24,-71 56,-71 56,-90"/>
<text text-anchor="middle" x="40" y="-78" font-family="Helvetica,sans-Serif" font-size="10.00">dev</text>
</a>
</g>
</g>
<!-- dir_c5016f51ef7ea33491a800cac5f57ab8&#45;&gt;dir_dfce509d3294b4958bedddff0a015025 -->
<g id="edge2" class="edge">
<title>dir_c5016f51ef7ea33491a800cac5f57ab8&#45;&gt;dir_dfce509d3294b4958bedddff0a015025</title>
<g id="a_edge2"><a xlink:href="dir_000030_000033.html" target="_top">
<path fill="none" stroke="#63b8ff" d="M39.83,-70.75C39.71,-64.11 39.53,-54.73 39.37,-46.31"/>
<polygon fill="#63b8ff" stroke="#63b8ff" points="42.86,-46.37 39.17,-36.44 35.86,-46.51 42.86,-46.37"/>
</a>
</g>
<g id="a_edge2&#45;headlabel"><a xlink:href="dir_000030_000033.html" target="_top" xlink:title="1">
<text text-anchor="middle" x="45.76" y="-46.41" font-family="Helvetica,sans-Serif" font-size="10.00" fill="#63b8ff">1</text>
</a>
</g>
</g>
<!-- dir_d44c64559bbebec7f509842c48db8b23 -->
<g id="node6" class="node">
<title>dir_d44c64559bbebec7f509842c48db8b23</title>
<g id="a_node6"><a xlink:href="dir_d44c64559bbebec7f509842c48db8b23.html" target="_top" xlink:title="include">
<polygon fill="#edf0f7" stroke="red" points="228.5,-35 181.5,-35 181.5,-16 228.5,-16 228.5,-35"/>
<text text-anchor="middle" x="205" y="-23" font-family="Helvetica,sans-Serif" font-size="10.00">include</text>
</a>
</g>
</g>
<!-- dir_c5016f51ef7ea33491a800cac5f57ab8&#45;&gt;dir_d44c64559bbebec7f509842c48db8b23 -->
<g id="edge1" class="edge">
<title>dir_c5016f51ef7ea33491a800cac5f57ab8&#45;&gt;dir_d44c64559bbebec7f509842c48db8b23</title>
<g id="a_edge1"><a xlink:href="dir_000030_000039.html" target="_top">
<path fill="none" stroke="#63b8ff" d="M51.73,-70.58C55.77,-67.83 60.43,-65.01 65,-63 108.76,-43.76 125.27,-47.94 170.7,-36.58"/>
<polygon fill="#63b8ff" stroke="#63b8ff" points="171.42,-39.75 180.19,-33.81 169.63,-32.98 171.42,-39.75"/>
</a>
</g>
<g id="a_edge1&#45;headlabel"><a xlink:href="dir_000030_000039.html" target="_top" xlink:title="7">
<text text-anchor="middle" x="169.67" y="-40.91" font-family="Helvetica,sans-Serif" font-size="10.00" fill="#63b8ff">7</text>
</a>
</g>
</g>
<!-- dir_ca65bd5df30703bd21db9b8dced53388 -->
<g id="node5" class="node">
<title>dir_ca65bd5df30703bd21db9b8dced53388</title>
<g id="a_node5"><a xlink:href="dir_ca65bd5df30703bd21db9b8dced53388.html" target="_top" xlink:title="proc">
<polygon fill="#a2b4d6" stroke="#404040" points="109.5,-90 74.5,-90 74.5,-71 109.5,-71 109.5,-90"/>
<text text-anchor="middle" x="92" y="-78" font-family="Helvetica,sans-Serif" font-size="10.00">proc</text>
</a>
</g>
</g>
<!-- dir_ca65bd5df30703bd21db9b8dced53388&#45;&gt;dir_3a646564ec239f35c01425f0e9da2ba2 -->
<g id="edge3" class="edge">
<title>dir_ca65bd5df30703bd21db9b8dced53388&#45;&gt;dir_3a646564ec239f35c01425f0e9da2ba2</title>
<g id="a_edge3"><a xlink:href="dir_000057_000051.html" target="_top">
<path fill="none" stroke="#63b8ff" d="M93.16,-70.75C94.03,-64.11 95.27,-54.73 96.38,-46.31"/>
<polygon fill="#63b8ff" stroke="#63b8ff" points="99.98,-46.81 97.82,-36.44 93.04,-45.9 99.98,-46.81"/>
</a>
</g>
<g id="a_edge3&#45;headlabel"><a xlink:href="dir_000057_000051.html" target="_top" xlink:title="1">
<text text-anchor="middle" x="102.32" y="-47.25" font-family="Helvetica,sans-Serif" font-size="10.00" fill="#63b8ff">1</text>
</a>
</g>
</g>
<!-- dir_ca65bd5df30703bd21db9b8dced53388&#45;&gt;dir_d44c64559bbebec7f509842c48db8b23 -->
<g id="edge4" class="edge">
<title>dir_ca65bd5df30703bd21db9b8dced53388&#45;&gt;dir_d44c64559bbebec7f509842c48db8b23</title>
<g id="a_edge4"><a xlink:href="dir_000057_000039.html" target="_top">
<path fill="none" stroke="#63b8ff" d="M105.79,-70.54C109.96,-67.97 114.6,-65.26 119,-63 135.92,-54.3 155.39,-45.91 171.52,-39.37"/>
<polygon fill="#63b8ff" stroke="#63b8ff" points="172.59,-42.31 180.58,-35.36 170,-35.81 172.59,-42.31"/>
</a>
</g>
<g id="a_edge4&#45;headlabel"><a xlink:href="dir_000057_000039.html" target="_top" xlink:title="4">
<text text-anchor="middle" x="171.3" y="-43.78" font-family="Helvetica,sans-Serif" font-size="10.00" fill="#63b8ff">4</text>
</a>
</g>
</g>
</g>
</svg>
