<?xml version="1.0" encoding="UTF-8" standalone="no"?>
<!DOCTYPE svg PUBLIC "-//W3C//DTD SVG 1.1//EN"
 "http://www.w3.org/Graphics/SVG/1.1/DTD/svg11.dtd">
<!-- Generated by graphviz version 3.0.0 (20220226.1711)
 -->
<!-- Title: src/kernel/arch/aarch32 Pages: 1 -->
<svg width="470pt" height="159pt"
 viewBox="0.00 0.00 470.00 159.00" xmlns="http://www.w3.org/2000/svg" xmlns:xlink="http://www.w3.org/1999/xlink">
<g id="graph0" class="graph" transform="scale(1 1) rotate(0) translate(4 155)">
<title>src/kernel/arch/aarch32</title>
<g id="clust1" class="cluster">
<title>clusterdir_76e3dd4d2fa719e8d3b096e9aa563982</title>
<g id="a_clust1"><a xlink:href="dir_76e3dd4d2fa719e8d3b096e9aa563982.html" target="_top" xlink:title="arch">
<polygon fill="#edf0f7" stroke="#7f7f7f" stroke-dasharray="5,2" points="8,-56 8,-143 454,-143 454,-56 8,-56"/>
<text text-anchor="middle" x="231" y="-131" font-family="Helvetica,sans-Serif" font-size="10.00">arch</text>
</a>
</g>
</g>
<g id="clust2" class="cluster">
<title>clusterdir_164d9d2f5b0c525076e27a6a92d62d00</title>
<g id="a_clust2"><a xlink:href="dir_164d9d2f5b0c525076e27a6a92d62d00.html" target="_top">
<polygon fill="#edf0f7" stroke="#404040" stroke-width="2" points="16,-64 16,-116 446,-116 446,-64 16,-64"/>
</a>
</g>
</g>
<!-- dir_164d9d2f5b0c525076e27a6a92d62d00 -->
<g id="node1" class="node">
<title>dir_164d9d2f5b0c525076e27a6a92d62d00</title>
<text text-anchor="middle" x="411" y="-87.5" font-family="Helvetica,sans-Serif" font-size="10.00">aarch32</text>
</g>
<!-- dir_d44c64559bbebec7f509842c48db8b23 -->
<g id="node7" class="node">
<title>dir_d44c64559bbebec7f509842c48db8b23</title>
<g id="a_node7"><a xlink:href="dir_d44c64559bbebec7f509842c48db8b23.html" target="_top" xlink:title="include">
<polygon fill="none" stroke="red" points="330,-36 276,-36 276,0 330,0 330,-36"/>
<text text-anchor="middle" x="303" y="-15.5" font-family="Helvetica,sans-Serif" font-size="10.00">include</text>
</a>
</g>
</g>
<!-- dir_164d9d2f5b0c525076e27a6a92d62d00&#45;&gt;dir_d44c64559bbebec7f509842c48db8b23 -->
<g id="edge1" class="edge">
<title>dir_164d9d2f5b0c525076e27a6a92d62d00&#45;&gt;dir_d44c64559bbebec7f509842c48db8b23</title>
<path fill="none" stroke="black" d="M394.22,-71.89C388.41,-66.46 381.68,-60.65 375,-56 363.99,-48.33 351.18,-41.24 339.44,-35.35"/>
<polygon fill="black" stroke="black" points="340.83,-32.14 330.31,-30.91 337.77,-38.43 340.83,-32.14"/>
<g id="a_edge1&#45;headlabel"><a xlink:href="dir_000000_000039.html" target="_top" xlink:title="28">
<text text-anchor="middle" x="345.31" y="-28.66" font-family="Helvetica,sans-Serif" font-size="10.00">28</text>
</a>
</g>
</g>
<!-- dir_127b28394ef68d7ee8832494ea6f06dd -->
<g id="node2" class="node">
<title>dir_127b28394ef68d7ee8832494ea6f06dd</title>
<g id="a_node2"><a xlink:href="dir_127b28394ef68d7ee8832494ea6f06dd.html" target="_top" xlink:title="arch">
<polygon fill="#a2b4d6" stroke="#404040" points="366,-108 312,-108 312,-72 366,-72 366,-108"/>
<text text-anchor="middle" x="339" y="-87.5" font-family="Helvetica,sans-Serif" font-size="10.00">arch</text>
</a>
</g>
</g>
<!-- dir_127b28394ef68d7ee8832494ea6f06dd&#45;&gt;dir_d44c64559bbebec7f509842c48db8b23 -->
<g id="edge2" class="edge">
<title>dir_127b28394ef68d7ee8832494ea6f06dd&#45;&gt;dir_d44c64559bbebec7f509842c48db8b23</title>
<path fill="none" stroke="black" d="M330.1,-71.7C326,-63.73 321.05,-54.1 316.51,-45.26"/>
<polygon fill="black" stroke="black" points="319.48,-43.4 311.8,-36.1 313.26,-46.6 319.48,-43.4"/>
<g id="a_edge2&#45;headlabel"><a xlink:href="dir_000004_000039.html" target="_top" xlink:title="12">
<text text-anchor="middle" x="323.65" y="-42.79" font-family="Helvetica,sans-Serif" font-size="10.00">12</text>
</a>
</g>
</g>
<!-- dir_8599ff620e2cfe485ca84e035b93a5ea -->
<g id="node3" class="node">
<title>dir_8599ff620e2cfe485ca84e035b93a5ea</title>
<g id="a_node3"><a xlink:href="dir_8599ff620e2cfe485ca84e035b93a5ea.html" target="_top" xlink:title="board">
<polygon fill="#a2b4d6" stroke="#404040" points="294,-108 240,-108 240,-72 294,-72 294,-108"/>
<text text-anchor="middle" x="267" y="-87.5" font-family="Helvetica,sans-Serif" font-size="10.00">board</text>
</a>
</g>
</g>
<!-- dir_8599ff620e2cfe485ca84e035b93a5ea&#45;&gt;dir_d44c64559bbebec7f509842c48db8b23 -->
<g id="edge3" class="edge">
<title>dir_8599ff620e2cfe485ca84e035b93a5ea&#45;&gt;dir_d44c64559bbebec7f509842c48db8b23</title>
<path fill="none" stroke="black" d="M275.9,-71.7C280,-63.73 284.95,-54.1 289.49,-45.26"/>
<polygon fill="black" stroke="black" points="292.74,-46.6 294.2,-36.1 286.52,-43.4 292.74,-46.6"/>
<g id="a_edge3&#45;headlabel"><a xlink:href="dir_000015_000039.html" target="_top" xlink:title="14">
<text text-anchor="middle" x="293.62" y="-48.59" font-family="Helvetica,sans-Serif" font-size="10.00">14</text>
</a>
</g>
</g>
<!-- dir_9f169674381755ff82f5c420aa567a6a -->
<g id="node4" class="node">
<title>dir_9f169674381755ff82f5c420aa567a6a</title>
<g id="a_node4"><a xlink:href="dir_9f169674381755ff82f5c420aa567a6a.html" target="_top" xlink:title="core">
<polygon fill="#a2b4d6" stroke="#404040" points="222,-108 168,-108 168,-72 222,-72 222,-108"/>
<text text-anchor="middle" x="195" y="-87.5" font-family="Helvetica,sans-Serif" font-size="10.00">core</text>
</a>
</g>
</g>
<!-- dir_4af6b765c4f87f8f02f55c09da1949c7 -->
<g id="node5" class="node">
<title>dir_4af6b765c4f87f8f02f55c09da1949c7</title>
<g id="a_node5"><a xlink:href="dir_4af6b765c4f87f8f02f55c09da1949c7.html" target="_top" xlink:title="mmu">
<polygon fill="#a2b4d6" stroke="#404040" points="150,-108 96,-108 96,-72 150,-72 150,-108"/>
<text text-anchor="middle" x="123" y="-87.5" font-family="Helvetica,sans-Serif" font-size="10.00">mmu</text>
</a>
</g>
</g>
<!-- dir_4af6b765c4f87f8f02f55c09da1949c7&#45;&gt;dir_d44c64559bbebec7f509842c48db8b23 -->
<g id="edge4" class="edge">
<title>dir_4af6b765c4f87f8f02f55c09da1949c7&#45;&gt;dir_d44c64559bbebec7f509842c48db8b23</title>
<path fill="none" stroke="black" d="M138.51,-71.67C144.42,-65.96 151.55,-60.04 159,-56 192.6,-37.79 235.49,-28.27 265.7,-23.47"/>
<polygon fill="black" stroke="black" points="266.44,-26.9 275.82,-21.97 265.41,-19.98 266.44,-26.9"/>
<g id="a_edge4&#45;headlabel"><a xlink:href="dir_000049_000039.html" target="_top" xlink:title="1">
<text text-anchor="middle" x="263.3" y="-27.74" font-family="Helvetica,sans-Serif" font-size="10.00">1</text>
</a>
</g>
</g>
<!-- dir_d73a7f2c621826688c2d98a755c1a743 -->
<g id="node6" class="node">
<title>dir_d73a7f2c621826688c2d98a755c1a743</title>
<g id="a_node6"><a xlink:href="dir_d73a7f2c621826688c2d98a755c1a743.html" target="_top" xlink:title="sys">
<polygon fill="#a2b4d6" stroke="#404040" points="78,-108 24,-108 24,-72 78,-72 78,-108"/>
<text text-anchor="middle" x="51" y="-87.5" font-family="Helvetica,sans-Serif" font-size="10.00">sys</text>
</a>
</g>
</g>
</g>
</svg>
