<?xml version="1.0" encoding="UTF-8" standalone="no"?>
<!DOCTYPE svg PUBLIC "-//W3C//DTD SVG 1.1//EN"
 "http://www.w3.org/Graphics/SVG/1.1/DTD/svg11.dtd">
<!-- Generated by graphviz version 3.0.0 (20220226.1711)
 -->
<!-- Title: include/libc/arpa Pages: 1 -->
<svg width="94pt" height="167pt"
 viewBox="0.00 0.00 94.00 167.00" xmlns="http://www.w3.org/2000/svg" xmlns:xlink="http://www.w3.org/1999/xlink">
<g id="graph0" class="graph" transform="scale(1 1) rotate(0) translate(4 163)">
<title>include/libc/arpa</title>
<g id="clust1" class="cluster">
<title>clusterdir_f9f386f816a45f0ffce9eeb77a177fce</title>
<g id="a_clust1"><a xlink:href="dir_f9f386f816a45f0ffce9eeb77a177fce.html" target="_top" xlink:title="libc">
<polygon fill="#ddddee" stroke="black" points="8,-8 8,-151 78,-151 78,-8 8,-8"/>
<text text-anchor="middle" x="43" y="-139" font-family="Helvetica,sans-Serif" font-size="10.00">libc</text>
</a>
</g>
</g>
<!-- dir_384e8044a4a3017e1583fef77edf0684 -->
<g id="node1" class="node">
<title>dir_384e8044a4a3017e1583fef77edf0684</title>
<g id="a_node1"><a xlink:href="dir_384e8044a4a3017e1583fef77edf0684.html" target="_top" xlink:title="sys">
<polygon fill="none" stroke="black" points="70,-124 16,-124 16,-88 70,-88 70,-124"/>
<text text-anchor="middle" x="43" y="-103.5" font-family="Helvetica,sans-Serif" font-size="10.00">sys</text>
</a>
</g>
</g>
<!-- dir_4808aa484d0a013f0d2313f6f625fe90 -->
<g id="node2" class="node">
<title>dir_4808aa484d0a013f0d2313f6f625fe90</title>
<g id="a_node2"><a xlink:href="dir_4808aa484d0a013f0d2313f6f625fe90.html" target="_top" xlink:title="arpa">
<polygon fill="#eeeeff" stroke="black" points="70,-52 16,-52 16,-16 70,-16 70,-52"/>
<text text-anchor="middle" x="43" y="-31.5" font-family="Helvetica,sans-Serif" font-size="10.00">arpa</text>
</a>
</g>
</g>
<!-- dir_384e8044a4a3017e1583fef77edf0684&#45;&gt;dir_4808aa484d0a013f0d2313f6f625fe90 -->
<g id="edge1" class="edge">
<title>dir_384e8044a4a3017e1583fef77edf0684&#45;&gt;dir_4808aa484d0a013f0d2313f6f625fe90</title>
<path fill="none" stroke="black" d="M37.08,-87.7C36.29,-79.98 36.06,-70.71 36.4,-62.11"/>
<polygon fill="black" stroke="black" points="39.9,-62.32 37.1,-52.1 32.92,-61.84 39.9,-62.32"/>
<g id="a_edge1&#45;headlabel"><a xlink:href="dir_000033_000029.html" target="_top" xlink:title="1">
<text text-anchor="middle" x="42.48" y="-63.61" font-family="Helvetica,sans-Serif" font-size="10.00">1</text>
</a>
</g>
</g>
<!-- dir_4808aa484d0a013f0d2313f6f625fe90&#45;&gt;dir_384e8044a4a3017e1583fef77edf0684 -->
<g id="edge2" class="edge">
<title>dir_4808aa484d0a013f0d2313f6f625fe90&#45;&gt;dir_384e8044a4a3017e1583fef77edf0684</title>
<path fill="none" stroke="black" d="M48.9,-52.1C49.7,-59.79 49.94,-69.05 49.6,-77.67"/>
<polygon fill="black" stroke="black" points="46.11,-77.48 48.92,-87.7 53.09,-77.96 46.11,-77.48"/>
<g id="a_edge2&#45;headlabel"><a xlink:href="dir_000029_000033.html" target="_top" xlink:title="2">
<text text-anchor="middle" x="43.52" y="-71.2" font-family="Helvetica,sans-Serif" font-size="10.00">2</text>
</a>
</g>
</g>
</g>
</svg>
