<?xml version="1.0" encoding="UTF-8" standalone="no"?>
<!DOCTYPE svg PUBLIC "-//W3C//DTD SVG 1.1//EN"
 "http://www.w3.org/Graphics/SVG/1.1/DTD/svg11.dtd">
<!-- Generated by graphviz version 9.0.0 (20230911.1827)
 -->
<!-- Title: src/kernel/arch/x86_64/fs Pages: 1 -->
<svg width="233pt" height="142pt"
 viewBox="0.00 0.00 233.38 141.75" xmlns="http://www.w3.org/2000/svg" xmlns:xlink="http://www.w3.org/1999/xlink">
<g id="graph0" class="graph" transform="scale(1 1) rotate(0) translate(4 137.75)">
<title>src/kernel/arch/x86_64/fs</title>
<g id="clust1" class="cluster">
<title>clusterdir_7c4c796ec9937bed8074dafcec3d25e4</title>
<g id="a_clust1"><a xlink:href="dir_7c4c796ec9937bed8074dafcec3d25e4.html" target="_top" xlink:title="x86_64">
<polygon fill="#edf0f7" stroke="#7f7f7f" stroke-dasharray="5,2" points="8,-8 8,-125.75 171,-125.75 171,-8 8,-8"/>
<text text-anchor="middle" x="89.5" y="-112.25" font-family="Helvetica,sans-Serif" font-size="10.00">x86_64</text>
</a>
</g>
</g>
<g id="clust2" class="cluster">
<title>clusterdir_9c24722037d5ac7f64b4abda7bbd8009</title>
<g id="a_clust2"><a xlink:href="dir_9c24722037d5ac7f64b4abda7bbd8009.html" target="_top">
<polygon fill="#edf0f7" stroke="#404040" stroke-width="2" points="16,-63.25 16,-98.5 163,-98.5 163,-63.25 16,-63.25"/>
</a>
</g>
</g>
<!-- dir_dfce509d3294b4958bedddff0a015025 -->
<g id="node1" class="node">
<title>dir_dfce509d3294b4958bedddff0a015025</title>
<g id="a_node1"><a xlink:href="dir_dfce509d3294b4958bedddff0a015025.html" target="_top" xlink:title="drivers">
<polygon fill="#a2b4d6" stroke="#404040" points="61.62,-35.25 16.38,-35.25 16.38,-16 61.62,-16 61.62,-35.25"/>
<text text-anchor="middle" x="39" y="-21.75" font-family="Helvetica,sans-Serif" font-size="10.00">drivers</text>
</a>
</g>
</g>
<!-- dir_3a646564ec239f35c01425f0e9da2ba2 -->
<g id="node2" class="node">
<title>dir_3a646564ec239f35c01425f0e9da2ba2</title>
<g id="a_node2"><a xlink:href="dir_3a646564ec239f35c01425f0e9da2ba2.html" target="_top" xlink:title="mmu">
<polygon fill="#a2b4d6" stroke="#404040" points="117.88,-35.25 80.12,-35.25 80.12,-16 117.88,-16 117.88,-35.25"/>
<text text-anchor="middle" x="99" y="-21.75" font-family="Helvetica,sans-Serif" font-size="10.00">mmu</text>
</a>
</g>
</g>
<!-- dir_9c24722037d5ac7f64b4abda7bbd8009 -->
<g id="node3" class="node">
<title>dir_9c24722037d5ac7f64b4abda7bbd8009</title>
<text text-anchor="middle" x="141" y="-77" font-family="Helvetica,sans-Serif" font-size="10.00">fs</text>
</g>
<!-- dir_c5016f51ef7ea33491a800cac5f57ab8 -->
<g id="node4" class="node">
<title>dir_c5016f51ef7ea33491a800cac5f57ab8</title>
<g id="a_node4"><a xlink:href="dir_c5016f51ef7ea33491a800cac5f57ab8.html" target="_top" xlink:title="dev">
<polygon fill="#a2b4d6" stroke="#404040" points="55.88,-90.5 24.12,-90.5 24.12,-71.25 55.88,-71.25 55.88,-90.5"/>
<text text-anchor="middle" x="40" y="-77" font-family="Helvetica,sans-Serif" font-size="10.00">dev</text>
</a>
</g>
</g>
<!-- dir_c5016f51ef7ea33491a800cac5f57ab8&#45;&gt;dir_dfce509d3294b4958bedddff0a015025 -->
<g id="edge2" class="edge">
<title>dir_c5016f51ef7ea33491a800cac5f57ab8&#45;&gt;dir_dfce509d3294b4958bedddff0a015025</title>
<g id="a_edge2"><a xlink:href="dir_000030_000033.html" target="_top">
<path fill="none" stroke="#63b8ff" d="M39.83,-71.08C39.71,-64.57 39.54,-55.42 39.38,-47.12"/>
<polygon fill="#63b8ff" stroke="#63b8ff" points="42.88,-47.05 39.2,-37.12 35.89,-47.19 42.88,-47.05"/>
</a>
</g>
<g id="a_edge2&#45;headlabel"><a xlink:href="dir_000030_000033.html" target="_top" xlink:title="1">
<text text-anchor="middle" x="45.76" y="-45.21" font-family="Helvetica,sans-Serif" font-size="10.00" fill="#63b8ff">1</text>
</a>
</g>
</g>
<!-- dir_d44c64559bbebec7f509842c48db8b23 -->
<g id="node6" class="node">
<title>dir_d44c64559bbebec7f509842c48db8b23</title>
<g id="a_node6"><a xlink:href="dir_d44c64559bbebec7f509842c48db8b23.html" target="_top" xlink:title="include">
<polygon fill="#edf0f7" stroke="red" points="225.38,-35.25 178.62,-35.25 178.62,-16 225.38,-16 225.38,-35.25"/>
<text text-anchor="middle" x="202" y="-21.75" font-family="Helvetica,sans-Serif" font-size="10.00">include</text>
</a>
</g>
</g>
<!-- dir_c5016f51ef7ea33491a800cac5f57ab8&#45;&gt;dir_d44c64559bbebec7f509842c48db8b23 -->
<g id="edge1" class="edge">
<title>dir_c5016f51ef7ea33491a800cac5f57ab8&#45;&gt;dir_d44c64559bbebec7f509842c48db8b23</title>
<g id="a_edge1"><a xlink:href="dir_000030_000039.html" target="_top">
<path fill="none" stroke="#63b8ff" d="M51.73,-70.89C55.77,-68.13 60.43,-65.28 65,-63.25 107.68,-44.29 124.05,-48.35 167.24,-37.29"/>
<polygon fill="#63b8ff" stroke="#63b8ff" points="167.98,-40.72 176.71,-34.72 166.14,-33.96 167.98,-40.72"/>
</a>
</g>
<g id="a_edge1&#45;headlabel"><a xlink:href="dir_000030_000039.html" target="_top" xlink:title="7">
<text text-anchor="middle" x="166.72" y="-40.13" font-family="Helvetica,sans-Serif" font-size="10.00" fill="#63b8ff">7</text>
</a>
</g>
</g>
<!-- dir_ca65bd5df30703bd21db9b8dced53388 -->
<g id="node5" class="node">
<title>dir_ca65bd5df30703bd21db9b8dced53388</title>
<g id="a_node5"><a xlink:href="dir_ca65bd5df30703bd21db9b8dced53388.html" target="_top" xlink:title="proc">
<polygon fill="#a2b4d6" stroke="#404040" points="108.38,-90.5 73.62,-90.5 73.62,-71.25 108.38,-71.25 108.38,-90.5"/>
<text text-anchor="middle" x="91" y="-77" font-family="Helvetica,sans-Serif" font-size="10.00">proc</text>
</a>
</g>
</g>
<!-- dir_ca65bd5df30703bd21db9b8dced53388&#45;&gt;dir_3a646564ec239f35c01425f0e9da2ba2 -->
<g id="edge3" class="edge">
<title>dir_ca65bd5df30703bd21db9b8dced53388&#45;&gt;dir_3a646564ec239f35c01425f0e9da2ba2</title>
<g id="a_edge3"><a xlink:href="dir_000057_000051.html" target="_top">
<path fill="none" stroke="#63b8ff" d="M92.32,-71.08C93.31,-64.49 94.71,-55.21 95.97,-46.82"/>
<polygon fill="#63b8ff" stroke="#63b8ff" points="99.4,-47.51 97.43,-37.11 92.48,-46.47 99.4,-47.51"/>
</a>
</g>
<g id="a_edge3&#45;headlabel"><a xlink:href="dir_000057_000051.html" target="_top" xlink:title="1">
<text text-anchor="middle" x="101.9" y="-46.12" font-family="Helvetica,sans-Serif" font-size="10.00" fill="#63b8ff">1</text>
</a>
</g>
</g>
<!-- dir_ca65bd5df30703bd21db9b8dced53388&#45;&gt;dir_d44c64559bbebec7f509842c48db8b23 -->
<g id="edge4" class="edge">
<title>dir_ca65bd5df30703bd21db9b8dced53388&#45;&gt;dir_d44c64559bbebec7f509842c48db8b23</title>
<g id="a_edge4"><a xlink:href="dir_000057_000039.html" target="_top">
<path fill="none" stroke="#63b8ff" d="M104.8,-70.86C108.97,-68.28 113.61,-65.54 118,-63.25 134.27,-54.75 152.93,-46.47 168.53,-39.94"/>
<polygon fill="#63b8ff" stroke="#63b8ff" points="169.46,-43.34 177.38,-36.3 166.8,-36.87 169.46,-43.34"/>
</a>
</g>
<g id="a_edge4&#45;headlabel"><a xlink:href="dir_000057_000039.html" target="_top" xlink:title="4">
<text text-anchor="middle" x="168.62" y="-42.89" font-family="Helvetica,sans-Serif" font-size="10.00" fill="#63b8ff">4</text>
</a>
</g>
</g>
</g>
</svg>
