<?xml version="1.0" encoding="UTF-8" standalone="no"?>
<!DOCTYPE svg PUBLIC "-//W3C//DTD SVG 1.1//EN"
 "http://www.w3.org/Graphics/SVG/1.1/DTD/svg11.dtd">
<!-- Generated by graphviz version 3.0.0 (20220226.1711)
 -->
<!-- Title: include/kernel Pages: 1 -->
<svg width="614pt" height="391pt"
 viewBox="0.00 0.00 614.00 391.00" xmlns="http://www.w3.org/2000/svg" xmlns:xlink="http://www.w3.org/1999/xlink">
<g id="graph0" class="graph" transform="scale(1 1) rotate(0) translate(4 387)">
<title>include/kernel</title>
<g id="clust1" class="cluster">
<title>clusterdir_d44c64559bbebec7f509842c48db8b23</title>
<g id="a_clust1"><a xlink:href="dir_d44c64559bbebec7f509842c48db8b23.html" target="_top" xlink:title="include">
<polygon fill="#ddddee" stroke="black" points="8,-8 8,-375 598,-375 598,-8 8,-8"/>
<text text-anchor="middle" x="303" y="-363" font-family="Helvetica,sans-Serif" font-size="10.00">include</text>
</a>
</g>
</g>
<g id="clust2" class="cluster">
<title>clusterdir_2ae24886e77657f82343b4b0154efdc1</title>
<g id="a_clust2"><a xlink:href="dir_2ae24886e77657f82343b4b0154efdc1.html" target="_top">
<polygon fill="#eeeeff" stroke="black" points="16,-80 16,-348 590,-348 590,-80 16,-80"/>
</a>
</g>
</g>
<!-- dir_f9f386f816a45f0ffce9eeb77a177fce -->
<g id="node1" class="node">
<title>dir_f9f386f816a45f0ffce9eeb77a177fce</title>
<g id="a_node1"><a xlink:href="dir_f9f386f816a45f0ffce9eeb77a177fce.html" target="_top" xlink:title="libc">
<polygon fill="none" stroke="red" points="284,-52 230,-52 230,-16 284,-16 284,-52"/>
<text text-anchor="middle" x="257" y="-31.5" font-family="Helvetica,sans-Serif" font-size="10.00">libc</text>
</a>
</g>
</g>
<!-- dir_2ae24886e77657f82343b4b0154efdc1 -->
<g id="node2" class="node">
<title>dir_2ae24886e77657f82343b4b0154efdc1</title>
<text text-anchor="middle" x="51" y="-319.5" font-family="Helvetica,sans-Serif" font-size="10.00">kernel</text>
</g>
<!-- dir_1bef30f09c3bd1e4e4024186bdc41803 -->
<g id="node3" class="node">
<title>dir_1bef30f09c3bd1e4e4024186bdc41803</title>
<g id="a_node3"><a xlink:href="dir_1bef30f09c3bd1e4e4024186bdc41803.html" target="_top" xlink:title="arch">
<polygon fill="white" stroke="black" points="78,-268 24,-268 24,-232 78,-232 78,-268"/>
<text text-anchor="middle" x="51" y="-247.5" font-family="Helvetica,sans-Serif" font-size="10.00">arch</text>
</a>
</g>
</g>
<!-- dir_2ae24886e77657f82343b4b0154efdc1&#45;&gt;dir_1bef30f09c3bd1e4e4024186bdc41803 -->
<g id="edge4" class="edge">
<title>dir_2ae24886e77657f82343b4b0154efdc1&#45;&gt;dir_1bef30f09c3bd1e4e4024186bdc41803</title>
<path fill="none" stroke="black" d="M51,-303.7C51,-295.98 51,-286.71 51,-278.11"/>
<polygon fill="black" stroke="black" points="54.5,-278.1 51,-268.1 47.5,-278.1 54.5,-278.1"/>
<g id="a_edge4&#45;headlabel"><a xlink:href="dir_000001_000002.html" target="_top" xlink:title="1">
<text text-anchor="middle" x="57.34" y="-279.2" font-family="Helvetica,sans-Serif" font-size="10.00">1</text>
</a>
</g>
</g>
<!-- dir_12c6d725a1e624cd8ea115c6923f483d -->
<g id="node13" class="node">
<title>dir_12c6d725a1e624cd8ea115c6923f483d</title>
<g id="a_node13"><a xlink:href="dir_12c6d725a1e624cd8ea115c6923f483d.html" target="_top" xlink:title="time">
<polygon fill="white" stroke="black" points="150,-268 96,-268 96,-232 150,-232 150,-268"/>
<text text-anchor="middle" x="123" y="-247.5" font-family="Helvetica,sans-Serif" font-size="10.00">time</text>
</a>
</g>
</g>
<!-- dir_2ae24886e77657f82343b4b0154efdc1&#45;&gt;dir_12c6d725a1e624cd8ea115c6923f483d -->
<g id="edge3" class="edge">
<title>dir_2ae24886e77657f82343b4b0154efdc1&#45;&gt;dir_12c6d725a1e624cd8ea115c6923f483d</title>
<path fill="none" stroke="black" d="M68.8,-303.7C77.6,-295.14 88.38,-284.66 98,-275.3"/>
<polygon fill="black" stroke="black" points="100.68,-277.58 105.41,-268.1 95.8,-272.57 100.68,-277.58"/>
<g id="a_edge3&#45;headlabel"><a xlink:href="dir_000001_000027.html" target="_top" xlink:title="1">
<text text-anchor="middle" x="100.08" y="-279.63" font-family="Helvetica,sans-Serif" font-size="10.00">1</text>
</a>
</g>
</g>
<!-- dir_b74c2997ee101869ac325e0e63322356 -->
<g id="node11" class="node">
<title>dir_b74c2997ee101869ac325e0e63322356</title>
<g id="a_node11"><a xlink:href="dir_b74c2997ee101869ac325e0e63322356.html" target="_top" xlink:title="proc">
<polygon fill="white" stroke="black" points="208,-196 154,-196 154,-160 208,-160 208,-196"/>
<text text-anchor="middle" x="181" y="-175.5" font-family="Helvetica,sans-Serif" font-size="10.00">proc</text>
</a>
</g>
</g>
<!-- dir_1bef30f09c3bd1e4e4024186bdc41803&#45;&gt;dir_b74c2997ee101869ac325e0e63322356 -->
<g id="edge2" class="edge">
<title>dir_1bef30f09c3bd1e4e4024186bdc41803&#45;&gt;dir_b74c2997ee101869ac325e0e63322356</title>
<path fill="none" stroke="black" d="M78.25,-234.33C97.58,-223.92 123.72,-209.84 144.8,-198.49"/>
<polygon fill="black" stroke="black" points="146.64,-201.48 153.78,-193.65 143.32,-195.31 146.64,-201.48"/>
<g id="a_edge2&#45;headlabel"><a xlink:href="dir_000002_000018.html" target="_top" xlink:title="1">
<text text-anchor="middle" x="144.82" y="-203.18" font-family="Helvetica,sans-Serif" font-size="10.00">1</text>
</a>
</g>
</g>
<!-- dir_f5cbd4349b593bd5ea59bf7dffcf375a -->
<g id="node4" class="node">
<title>dir_f5cbd4349b593bd5ea59bf7dffcf375a</title>
<g id="a_node4"><a xlink:href="dir_f5cbd4349b593bd5ea59bf7dffcf375a.html" target="_top" xlink:title="config">
<polygon fill="white" stroke="black" points="150,-340 96,-340 96,-304 150,-304 150,-340"/>
<text text-anchor="middle" x="123" y="-319.5" font-family="Helvetica,sans-Serif" font-size="10.00">config</text>
</a>
</g>
</g>
<!-- dir_f5cbd4349b593bd5ea59bf7dffcf375a&#45;&gt;dir_f9f386f816a45f0ffce9eeb77a177fce -->
<g id="edge10" class="edge">
<title>dir_f5cbd4349b593bd5ea59bf7dffcf375a&#45;&gt;dir_f9f386f816a45f0ffce9eeb77a177fce</title>
<path fill="none" stroke="black" d="M139.51,-303.87C160.57,-281.08 196.7,-238.66 217,-196 238.01,-151.84 248.75,-95.43 253.6,-62.45"/>
<polygon fill="black" stroke="black" points="257.11,-62.6 255.02,-52.21 250.18,-61.63 257.11,-62.6"/>
<g id="a_edge10&#45;headlabel"><a xlink:href="dir_000008_000028.html" target="_top" xlink:title="2">
<text text-anchor="middle" x="259.43" y="-64.05" font-family="Helvetica,sans-Serif" font-size="10.00">2</text>
</a>
</g>
</g>
<!-- dir_5dcd48ca9f40364899464cc3f89e860e -->
<g id="node5" class="node">
<title>dir_5dcd48ca9f40364899464cc3f89e860e</title>
<g id="a_node5"><a xlink:href="dir_5dcd48ca9f40364899464cc3f89e860e.html" target="_top" xlink:title="core">
<polygon fill="white" stroke="red" points="438,-340 384,-340 384,-304 438,-304 438,-340"/>
<text text-anchor="middle" x="411" y="-319.5" font-family="Helvetica,sans-Serif" font-size="10.00">core</text>
</a>
</g>
</g>
<!-- dir_72ea8410cd25c3f19cac33d1776c95a7 -->
<g id="node6" class="node">
<title>dir_72ea8410cd25c3f19cac33d1776c95a7</title>
<g id="a_node6"><a xlink:href="dir_72ea8410cd25c3f19cac33d1776c95a7.html" target="_top" xlink:title="drivers">
<polygon fill="white" stroke="black" points="366,-340 312,-340 312,-304 366,-304 366,-340"/>
<text text-anchor="middle" x="339" y="-319.5" font-family="Helvetica,sans-Serif" font-size="10.00">drivers</text>
</a>
</g>
</g>
<!-- dir_579f575ab9bb80182679ffc66b079ac5 -->
<g id="node7" class="node">
<title>dir_579f575ab9bb80182679ffc66b079ac5</title>
<g id="a_node7"><a xlink:href="dir_579f575ab9bb80182679ffc66b079ac5.html" target="_top" xlink:title="fs">
<polygon fill="white" stroke="black" points="208,-124 154,-124 154,-88 208,-88 208,-124"/>
<text text-anchor="middle" x="181" y="-103.5" font-family="Helvetica,sans-Serif" font-size="10.00">fs</text>
</a>
</g>
</g>
<!-- dir_579f575ab9bb80182679ffc66b079ac5&#45;&gt;dir_f9f386f816a45f0ffce9eeb77a177fce -->
<g id="edge5" class="edge">
<title>dir_579f575ab9bb80182679ffc66b079ac5&#45;&gt;dir_f9f386f816a45f0ffce9eeb77a177fce</title>
<path fill="none" stroke="black" d="M199.79,-87.7C209.17,-79.05 220.68,-68.45 230.91,-59.03"/>
<polygon fill="black" stroke="black" points="233.45,-61.45 238.43,-52.1 228.7,-56.3 233.45,-61.45"/>
<g id="a_edge5&#45;headlabel"><a xlink:href="dir_000007_000028.html" target="_top" xlink:title="2">
<text text-anchor="middle" x="232.72" y="-63.48" font-family="Helvetica,sans-Serif" font-size="10.00">2</text>
</a>
</g>
</g>
<!-- dir_626355b091f94f14b578c87f25101a76 -->
<g id="node8" class="node">
<title>dir_626355b091f94f14b578c87f25101a76</title>
<g id="a_node8"><a xlink:href="dir_626355b091f94f14b578c87f25101a76.html" target="_top" xlink:title="kshell">
<polygon fill="white" stroke="black" points="294,-340 240,-340 240,-304 294,-304 294,-340"/>
<text text-anchor="middle" x="267" y="-319.5" font-family="Helvetica,sans-Serif" font-size="10.00">kshell</text>
</a>
</g>
</g>
<!-- dir_626355b091f94f14b578c87f25101a76&#45;&gt;dir_f9f386f816a45f0ffce9eeb77a177fce -->
<g id="edge6" class="edge">
<title>dir_626355b091f94f14b578c87f25101a76&#45;&gt;dir_f9f386f816a45f0ffce9eeb77a177fce</title>
<path fill="none" stroke="black" d="M266.4,-303.97C264.74,-256.29 260.01,-121.18 257.97,-62.63"/>
<polygon fill="black" stroke="black" points="261.45,-62.18 257.61,-52.31 254.46,-62.42 261.45,-62.18"/>
<g id="a_edge6&#45;headlabel"><a xlink:href="dir_000003_000028.html" target="_top" xlink:title="1">
<text text-anchor="middle" x="264.42" y="-63.17" font-family="Helvetica,sans-Serif" font-size="10.00">1</text>
</a>
</g>
</g>
<!-- dir_5bbca552b03f18ea4c556679d80b42c9 -->
<g id="node9" class="node">
<title>dir_5bbca552b03f18ea4c556679d80b42c9</title>
<g id="a_node9"><a xlink:href="dir_5bbca552b03f18ea4c556679d80b42c9.html" target="_top" xlink:title="mmu">
<polygon fill="white" stroke="black" points="222,-340 168,-340 168,-304 222,-304 222,-340"/>
<text text-anchor="middle" x="195" y="-319.5" font-family="Helvetica,sans-Serif" font-size="10.00">mmu</text>
</a>
</g>
</g>
<!-- dir_0be85e67768b66452391783f935553f6 -->
<g id="node10" class="node">
<title>dir_0be85e67768b66452391783f935553f6</title>
<g id="a_node10"><a xlink:href="dir_0be85e67768b66452391783f935553f6.html" target="_top" xlink:title="net">
<polygon fill="white" stroke="black" points="510,-340 456,-340 456,-304 510,-304 510,-340"/>
<text text-anchor="middle" x="483" y="-319.5" font-family="Helvetica,sans-Serif" font-size="10.00">net</text>
</a>
</g>
</g>
<!-- dir_0be85e67768b66452391783f935553f6&#45;&gt;dir_f9f386f816a45f0ffce9eeb77a177fce -->
<g id="edge1" class="edge">
<title>dir_0be85e67768b66452391783f935553f6&#45;&gt;dir_f9f386f816a45f0ffce9eeb77a177fce</title>
<path fill="none" stroke="black" d="M469.54,-303.97C431.4,-255.7 322.43,-117.8 277.13,-60.47"/>
<polygon fill="black" stroke="black" points="279.62,-57.98 270.68,-52.31 274.13,-62.32 279.62,-57.98"/>
<g id="a_edge1&#45;headlabel"><a xlink:href="dir_000017_000028.html" target="_top" xlink:title="7">
<text text-anchor="middle" x="284.08" y="-56.54" font-family="Helvetica,sans-Serif" font-size="10.00">7</text>
</a>
</g>
</g>
<!-- dir_b74c2997ee101869ac325e0e63322356&#45;&gt;dir_f9f386f816a45f0ffce9eeb77a177fce -->
<g id="edge9" class="edge">
<title>dir_b74c2997ee101869ac325e0e63322356&#45;&gt;dir_f9f386f816a45f0ffce9eeb77a177fce</title>
<path fill="none" stroke="black" d="M193.79,-159.82C201.06,-149.68 210.06,-136.43 217,-124 228.36,-103.66 239.06,-79.49 246.53,-61.47"/>
<polygon fill="black" stroke="black" points="249.79,-62.74 250.33,-52.16 243.31,-60.1 249.79,-62.74"/>
<g id="a_edge9&#45;headlabel"><a xlink:href="dir_000018_000028.html" target="_top" xlink:title="1">
<text text-anchor="middle" x="251.06" y="-64.64" font-family="Helvetica,sans-Serif" font-size="10.00">1</text>
</a>
</g>
</g>
<!-- dir_b74c2997ee101869ac325e0e63322356&#45;&gt;dir_579f575ab9bb80182679ffc66b079ac5 -->
<g id="edge8" class="edge">
<title>dir_b74c2997ee101869ac325e0e63322356&#45;&gt;dir_579f575ab9bb80182679ffc66b079ac5</title>
<path fill="none" stroke="black" d="M181,-159.7C181,-151.98 181,-142.71 181,-134.11"/>
<polygon fill="black" stroke="black" points="184.5,-134.1 181,-124.1 177.5,-134.1 184.5,-134.1"/>
<g id="a_edge8&#45;headlabel"><a xlink:href="dir_000018_000007.html" target="_top" xlink:title="1">
<text text-anchor="middle" x="187.34" y="-135.2" font-family="Helvetica,sans-Serif" font-size="10.00">1</text>
</a>
</g>
</g>
<!-- dir_a0ffd90eda9fe9d19fd364f796da6911 -->
<g id="node12" class="node">
<title>dir_a0ffd90eda9fe9d19fd364f796da6911</title>
<g id="a_node12"><a xlink:href="dir_a0ffd90eda9fe9d19fd364f796da6911.html" target="_top" xlink:title="sys">
<polygon fill="white" stroke="black" points="582,-340 528,-340 528,-304 582,-304 582,-340"/>
<text text-anchor="middle" x="555" y="-319.5" font-family="Helvetica,sans-Serif" font-size="10.00">sys</text>
</a>
</g>
</g>
<!-- dir_a0ffd90eda9fe9d19fd364f796da6911&#45;&gt;dir_f9f386f816a45f0ffce9eeb77a177fce -->
<g id="edge7" class="edge">
<title>dir_a0ffd90eda9fe9d19fd364f796da6911&#45;&gt;dir_f9f386f816a45f0ffce9eeb77a177fce</title>
<path fill="none" stroke="black" d="M539.28,-303.96C501.73,-263.56 403.32,-159.43 314,-80 305.79,-72.7 296.56,-65.15 287.96,-58.38"/>
<polygon fill="black" stroke="black" points="290.01,-55.53 279.97,-52.15 285.71,-61.05 290.01,-55.53"/>
<g id="a_edge7&#45;headlabel"><a xlink:href="dir_000019_000028.html" target="_top" xlink:title="5">
<text text-anchor="middle" x="294.59" y="-53" font-family="Helvetica,sans-Serif" font-size="10.00">5</text>
</a>
</g>
</g>
</g>
</svg>
