<?xml version="1.0" encoding="UTF-8" standalone="no"?>
<!DOCTYPE svg PUBLIC "-//W3C//DTD SVG 1.1//EN"
 "http://www.w3.org/Graphics/SVG/1.1/DTD/svg11.dtd">
<!-- Generated by graphviz version 2.49.3 (20211023.0002)
 -->
<!-- Title: include/kernel Pages: 1 -->
<svg width="676pt" height="183pt"
 viewBox="0.00 0.00 676.00 183.00" xmlns="http://www.w3.org/2000/svg" xmlns:xlink="http://www.w3.org/1999/xlink">
<g id="graph0" class="graph" transform="scale(1 1) rotate(0) translate(4 179)">
<title>include/kernel</title>
<g id="clust1" class="cluster">
<title>clusterdir_d44c64559bbebec7f509842c48db8b23</title>
<g id="a_clust1"><a xlink:href="dir_d44c64559bbebec7f509842c48db8b23.html" target="_top" xlink:title="include">
<polygon fill="#ddddee" stroke="black" points="8,-8 8,-167 660,-167 660,-8 8,-8"/>
<text text-anchor="middle" x="334" y="-155" font-family="Helvetica,sans-Serif" font-size="10.00">include</text>
</a>
</g>
</g>
<g id="clust2" class="cluster">
<title>clusterdir_2ae24886e77657f82343b4b0154efdc1</title>
<g id="a_clust2"><a xlink:href="dir_2ae24886e77657f82343b4b0154efdc1.html" target="_top">
<polygon fill="#eeeeff" stroke="black" points="16,-16 16,-140 590,-140 590,-16 16,-16"/>
</a>
</g>
</g>
<!-- dir_f9f386f816a45f0ffce9eeb77a177fce -->
<g id="node1" class="node">
<title>dir_f9f386f816a45f0ffce9eeb77a177fce</title>
<g id="a_node1"><a xlink:href="dir_f9f386f816a45f0ffce9eeb77a177fce.html" target="_top" xlink:title="libc">
<polygon fill="none" stroke="red" points="652,-60 598,-60 598,-24 652,-24 652,-60"/>
<text text-anchor="middle" x="625" y="-39.5" font-family="Helvetica,sans-Serif" font-size="10.00">libc</text>
</a>
</g>
</g>
<!-- dir_2ae24886e77657f82343b4b0154efdc1 -->
<g id="node2" class="node">
<title>dir_2ae24886e77657f82343b4b0154efdc1</title>
<text text-anchor="middle" x="339" y="-111.5" font-family="Helvetica,sans-Serif" font-size="10.00">kernel</text>
</g>
<!-- dir_2ae24886e77657f82343b4b0154efdc1&#45;&gt;dir_f9f386f816a45f0ffce9eeb77a177fce -->
<g id="edge2" class="edge">
<title>dir_2ae24886e77657f82343b4b0154efdc1&#45;&gt;dir_f9f386f816a45f0ffce9eeb77a177fce</title>
<path fill="none" stroke="black" d="M366.2,-99.2C369.13,-98 372.1,-96.9 375,-96 465.96,-67.66 498.52,-90.49 588.12,-61.79"/>
<polygon fill="black" stroke="black" points="589.47,-65.03 597.85,-58.54 587.25,-58.39 589.47,-65.03"/>
<g id="a_edge2&#45;headlabel"><a xlink:href="dir_000001_000014.html" target="_top" xlink:title="2">
<text text-anchor="middle" x="586.96" y="-66.36" font-family="Helvetica,sans-Serif" font-size="10.00">2</text>
</a>
</g>
</g>
<!-- dir_1bef30f09c3bd1e4e4024186bdc41803 -->
<g id="node3" class="node">
<title>dir_1bef30f09c3bd1e4e4024186bdc41803</title>
<g id="a_node3"><a xlink:href="dir_1bef30f09c3bd1e4e4024186bdc41803.html" target="_top" xlink:title="arch">
<polygon fill="white" stroke="black" points="366,-60 312,-60 312,-24 366,-24 366,-60"/>
<text text-anchor="middle" x="339" y="-39.5" font-family="Helvetica,sans-Serif" font-size="10.00">arch</text>
</a>
</g>
</g>
<!-- dir_2ae24886e77657f82343b4b0154efdc1&#45;&gt;dir_1bef30f09c3bd1e4e4024186bdc41803 -->
<g id="edge1" class="edge">
<title>dir_2ae24886e77657f82343b4b0154efdc1&#45;&gt;dir_1bef30f09c3bd1e4e4024186bdc41803</title>
<path fill="none" stroke="black" d="M339,-95.7C339,-87.98 339,-78.71 339,-70.11"/>
<polygon fill="black" stroke="black" points="342.5,-70.1 339,-60.1 335.5,-70.1 342.5,-70.1"/>
<g id="a_edge1&#45;headlabel"><a xlink:href="dir_000001_000002.html" target="_top" xlink:title="2">
<text text-anchor="middle" x="345.34" y="-71.2" font-family="Helvetica,sans-Serif" font-size="10.00">2</text>
</a>
</g>
</g>
<!-- dir_f5cbd4349b593bd5ea59bf7dffcf375a -->
<g id="node4" class="node">
<title>dir_f5cbd4349b593bd5ea59bf7dffcf375a</title>
<g id="a_node4"><a xlink:href="dir_f5cbd4349b593bd5ea59bf7dffcf375a.html" target="_top" xlink:title="config">
<polygon fill="white" stroke="black" points="510,-132 456,-132 456,-96 510,-96 510,-132"/>
<text text-anchor="middle" x="483" y="-111.5" font-family="Helvetica,sans-Serif" font-size="10.00">config</text>
</a>
</g>
</g>
<!-- dir_5dcd48ca9f40364899464cc3f89e860e -->
<g id="node5" class="node">
<title>dir_5dcd48ca9f40364899464cc3f89e860e</title>
<g id="a_node5"><a xlink:href="dir_5dcd48ca9f40364899464cc3f89e860e.html" target="_top" xlink:title="core">
<polygon fill="white" stroke="red" points="438,-132 384,-132 384,-96 438,-96 438,-132"/>
<text text-anchor="middle" x="411" y="-111.5" font-family="Helvetica,sans-Serif" font-size="10.00">core</text>
</a>
</g>
</g>
<!-- dir_579f575ab9bb80182679ffc66b079ac5 -->
<g id="node6" class="node">
<title>dir_579f575ab9bb80182679ffc66b079ac5</title>
<g id="a_node6"><a xlink:href="dir_579f575ab9bb80182679ffc66b079ac5.html" target="_top" xlink:title="fs">
<polygon fill="white" stroke="black" points="150,-60 96,-60 96,-24 150,-24 150,-60"/>
<text text-anchor="middle" x="123" y="-39.5" font-family="Helvetica,sans-Serif" font-size="10.00">fs</text>
</a>
</g>
</g>
<!-- dir_626355b091f94f14b578c87f25101a76 -->
<g id="node7" class="node">
<title>dir_626355b091f94f14b578c87f25101a76</title>
<g id="a_node7"><a xlink:href="dir_626355b091f94f14b578c87f25101a76.html" target="_top" xlink:title="kshell">
<polygon fill="white" stroke="black" points="582,-132 528,-132 528,-96 582,-96 582,-132"/>
<text text-anchor="middle" x="555" y="-111.5" font-family="Helvetica,sans-Serif" font-size="10.00">kshell</text>
</a>
</g>
</g>
<!-- dir_626355b091f94f14b578c87f25101a76&#45;&gt;dir_f9f386f816a45f0ffce9eeb77a177fce -->
<g id="edge3" class="edge">
<title>dir_626355b091f94f14b578c87f25101a76&#45;&gt;dir_f9f386f816a45f0ffce9eeb77a177fce</title>
<path fill="none" stroke="black" d="M572.3,-95.7C580.86,-87.14 591.34,-76.66 600.7,-67.3"/>
<polygon fill="black" stroke="black" points="603.3,-69.65 607.9,-60.1 598.35,-64.7 603.3,-69.65"/>
<g id="a_edge3&#45;headlabel"><a xlink:href="dir_000003_000014.html" target="_top" xlink:title="1">
<text text-anchor="middle" x="602.77" y="-71.7" font-family="Helvetica,sans-Serif" font-size="10.00">1</text>
</a>
</g>
</g>
<!-- dir_5bbca552b03f18ea4c556679d80b42c9 -->
<g id="node8" class="node">
<title>dir_5bbca552b03f18ea4c556679d80b42c9</title>
<g id="a_node8"><a xlink:href="dir_5bbca552b03f18ea4c556679d80b42c9.html" target="_top" xlink:title="mmu">
<polygon fill="white" stroke="black" points="294,-132 240,-132 240,-96 294,-96 294,-132"/>
<text text-anchor="middle" x="267" y="-111.5" font-family="Helvetica,sans-Serif" font-size="10.00">mmu</text>
</a>
</g>
</g>
<!-- dir_0be85e67768b66452391783f935553f6 -->
<g id="node9" class="node">
<title>dir_0be85e67768b66452391783f935553f6</title>
<g id="a_node9"><a xlink:href="dir_0be85e67768b66452391783f935553f6.html" target="_top" xlink:title="net">
<polygon fill="white" stroke="black" points="222,-132 168,-132 168,-96 222,-96 222,-132"/>
<text text-anchor="middle" x="195" y="-111.5" font-family="Helvetica,sans-Serif" font-size="10.00">net</text>
</a>
</g>
</g>
<!-- dir_b74c2997ee101869ac325e0e63322356 -->
<g id="node10" class="node">
<title>dir_b74c2997ee101869ac325e0e63322356</title>
<g id="a_node10"><a xlink:href="dir_b74c2997ee101869ac325e0e63322356.html" target="_top" xlink:title="proc">
<polygon fill="white" stroke="black" points="150,-132 96,-132 96,-96 150,-96 150,-132"/>
<text text-anchor="middle" x="123" y="-111.5" font-family="Helvetica,sans-Serif" font-size="10.00">proc</text>
</a>
</g>
</g>
<!-- dir_b74c2997ee101869ac325e0e63322356&#45;&gt;dir_579f575ab9bb80182679ffc66b079ac5 -->
<g id="edge4" class="edge">
<title>dir_b74c2997ee101869ac325e0e63322356&#45;&gt;dir_579f575ab9bb80182679ffc66b079ac5</title>
<path fill="none" stroke="black" d="M123,-95.7C123,-87.98 123,-78.71 123,-70.11"/>
<polygon fill="black" stroke="black" points="126.5,-70.1 123,-60.1 119.5,-70.1 126.5,-70.1"/>
<g id="a_edge4&#45;headlabel"><a xlink:href="dir_000012_000009.html" target="_top" xlink:title="1">
<text text-anchor="middle" x="129.34" y="-71.2" font-family="Helvetica,sans-Serif" font-size="10.00">1</text>
</a>
</g>
</g>
<!-- dir_a0ffd90eda9fe9d19fd364f796da6911 -->
<g id="node11" class="node">
<title>dir_a0ffd90eda9fe9d19fd364f796da6911</title>
<g id="a_node11"><a xlink:href="dir_a0ffd90eda9fe9d19fd364f796da6911.html" target="_top" xlink:title="sys">
<polygon fill="white" stroke="black" points="78,-132 24,-132 24,-96 78,-96 78,-132"/>
<text text-anchor="middle" x="51" y="-111.5" font-family="Helvetica,sans-Serif" font-size="10.00">sys</text>
</a>
</g>
</g>
</g>
</svg>
