<?xml version="1.0" encoding="UTF-8" standalone="no"?>
<!DOCTYPE svg PUBLIC "-//W3C//DTD SVG 1.1//EN"
 "http://www.w3.org/Graphics/SVG/1.1/DTD/svg11.dtd">
<!-- Generated by graphviz version 8.0.2 (20230410.1723)
 -->
<!-- Title: src/kernel Pages: 1 -->
<svg width="902pt" height="159pt"
 viewBox="0.00 0.00 902.00 159.00" xmlns="http://www.w3.org/2000/svg" xmlns:xlink="http://www.w3.org/1999/xlink">
<g id="graph0" class="graph" transform="scale(1 1) rotate(0) translate(4 155)">
<title>src/kernel</title>
<g id="clust1" class="cluster">
<title>clusterdir_68267d1309a1af8e8297ef4c3efbcdba</title>
<g id="a_clust1"><a xlink:href="dir_68267d1309a1af8e8297ef4c3efbcdba.html" target="_top" xlink:title="src">
<polygon fill="#ddddee" stroke="black" points="8,-56 8,-143 886,-143 886,-56 8,-56"/>
<text text-anchor="middle" x="447" y="-131" font-family="Helvetica,sans-Serif" font-size="10.00">src</text>
</a>
</g>
</g>
<g id="clust2" class="cluster">
<title>clusterdir_cbd7f246bdf7dc0a50281a272327e6ed</title>
<g id="a_clust2"><a xlink:href="dir_cbd7f246bdf7dc0a50281a272327e6ed.html" target="_top">
<polygon fill="#eeeeff" stroke="black" points="16,-64 16,-116 878,-116 878,-64 16,-64"/>
</a>
</g>
</g>
<!-- dir_cbd7f246bdf7dc0a50281a272327e6ed -->
<g id="node1" class="node">
<title>dir_cbd7f246bdf7dc0a50281a272327e6ed</title>
<text text-anchor="middle" x="843" y="-87.5" font-family="Helvetica,sans-Serif" font-size="10.00">kernel</text>
</g>
<!-- dir_76e3dd4d2fa719e8d3b096e9aa563982 -->
<g id="node2" class="node">
<title>dir_76e3dd4d2fa719e8d3b096e9aa563982</title>
<g id="a_node2"><a xlink:href="dir_76e3dd4d2fa719e8d3b096e9aa563982.html" target="_top" xlink:title="arch">
<polygon fill="white" stroke="red" points="798,-108 744,-108 744,-72 798,-72 798,-108"/>
<text text-anchor="middle" x="771" y="-87.5" font-family="Helvetica,sans-Serif" font-size="10.00">arch</text>
</a>
</g>
</g>
<!-- dir_d44c64559bbebec7f509842c48db8b23 -->
<g id="node13" class="node">
<title>dir_d44c64559bbebec7f509842c48db8b23</title>
<g id="a_node13"><a xlink:href="dir_d44c64559bbebec7f509842c48db8b23.html" target="_top" xlink:title="include">
<polygon fill="none" stroke="red" points="438,-36 384,-36 384,0 438,0 438,-36"/>
<text text-anchor="middle" x="411" y="-15.5" font-family="Helvetica,sans-Serif" font-size="10.00">include</text>
</a>
</g>
</g>
<!-- dir_76e3dd4d2fa719e8d3b096e9aa563982&#45;&gt;dir_d44c64559bbebec7f509842c48db8b23 -->
<g id="edge4" class="edge">
<title>dir_76e3dd4d2fa719e8d3b096e9aa563982&#45;&gt;dir_d44c64559bbebec7f509842c48db8b23</title>
<path fill="none" stroke="black" d="M756.48,-71.78C750.47,-65.79 743.02,-59.66 735,-56 684.78,-33.1 523.09,-23.62 448.88,-20.4"/>
<polygon fill="black" stroke="black" points="449.3,-16.87 439.17,-19.95 449.01,-23.87 449.3,-16.87"/>
<g id="a_edge4&#45;headlabel"><a xlink:href="dir_000012_000000.html" target="_top" xlink:title="163">
<text text-anchor="middle" x="452.01" y="-11.69" font-family="Helvetica,sans-Serif" font-size="10.00">163</text>
</a>
</g>
</g>
<!-- dir_91ac63a6f1fcde128d29d4ab1613b3c5 -->
<g id="node3" class="node">
<title>dir_91ac63a6f1fcde128d29d4ab1613b3c5</title>
<g id="a_node3"><a xlink:href="dir_91ac63a6f1fcde128d29d4ab1613b3c5.html" target="_top" xlink:title="config">
<polygon fill="white" stroke="black" points="726,-108 672,-108 672,-72 726,-72 726,-108"/>
<text text-anchor="middle" x="699" y="-87.5" font-family="Helvetica,sans-Serif" font-size="10.00">config</text>
</a>
</g>
</g>
<!-- dir_91ac63a6f1fcde128d29d4ab1613b3c5&#45;&gt;dir_d44c64559bbebec7f509842c48db8b23 -->
<g id="edge6" class="edge">
<title>dir_91ac63a6f1fcde128d29d4ab1613b3c5&#45;&gt;dir_d44c64559bbebec7f509842c48db8b23</title>
<path fill="none" stroke="black" d="M684.07,-71.57C678.11,-65.71 670.81,-59.71 663,-56 625.88,-38.35 509.75,-26.82 448.96,-21.83"/>
<polygon fill="black" stroke="black" points="449.53,-18.29 439.29,-20.98 448.97,-25.26 449.53,-18.29"/>
<g id="a_edge6&#45;headlabel"><a xlink:href="dir_000052_000000.html" target="_top" xlink:title="7">
<text text-anchor="middle" x="452.34" y="-13.24" font-family="Helvetica,sans-Serif" font-size="10.00">7</text>
</a>
</g>
</g>
<!-- dir_bec13d53859e967dc83fcb104ab0b9fd -->
<g id="node4" class="node">
<title>dir_bec13d53859e967dc83fcb104ab0b9fd</title>
<g id="a_node4"><a xlink:href="dir_bec13d53859e967dc83fcb104ab0b9fd.html" target="_top" xlink:title="core">
<polygon fill="white" stroke="red" points="654,-108 600,-108 600,-72 654,-72 654,-108"/>
<text text-anchor="middle" x="627" y="-87.5" font-family="Helvetica,sans-Serif" font-size="10.00">core</text>
</a>
</g>
</g>
<!-- dir_bec13d53859e967dc83fcb104ab0b9fd&#45;&gt;dir_d44c64559bbebec7f509842c48db8b23 -->
<g id="edge8" class="edge">
<title>dir_bec13d53859e967dc83fcb104ab0b9fd&#45;&gt;dir_d44c64559bbebec7f509842c48db8b23</title>
<path fill="none" stroke="black" d="M611.95,-71.81C605.98,-65.97 598.7,-59.93 591,-56 545.62,-32.81 486.79,-24.16 448.97,-20.93"/>
<polygon fill="black" stroke="black" points="449.65,-17.39 439.41,-20.12 449.12,-24.37 449.65,-17.39"/>
<g id="a_edge8&#45;headlabel"><a xlink:href="dir_000053_000000.html" target="_top" xlink:title="11">
<text text-anchor="middle" x="452.45" y="-12.33" font-family="Helvetica,sans-Serif" font-size="10.00">11</text>
</a>
</g>
</g>
<!-- dir_aee9ab6fedb00380c94a3a6c6b09f99a -->
<g id="node5" class="node">
<title>dir_aee9ab6fedb00380c94a3a6c6b09f99a</title>
<g id="a_node5"><a xlink:href="dir_aee9ab6fedb00380c94a3a6c6b09f99a.html" target="_top" xlink:title="drivers">
<polygon fill="white" stroke="black" points="582,-108 528,-108 528,-72 582,-72 582,-108"/>
<text text-anchor="middle" x="555" y="-87.5" font-family="Helvetica,sans-Serif" font-size="10.00">drivers</text>
</a>
</g>
</g>
<!-- dir_aee9ab6fedb00380c94a3a6c6b09f99a&#45;&gt;dir_d44c64559bbebec7f509842c48db8b23 -->
<g id="edge7" class="edge">
<title>dir_aee9ab6fedb00380c94a3a6c6b09f99a&#45;&gt;dir_d44c64559bbebec7f509842c48db8b23</title>
<path fill="none" stroke="black" d="M538.95,-71.65C533.09,-66.07 526.14,-60.24 519,-56 497.13,-43.01 470.05,-33.75 448.48,-27.74"/>
<polygon fill="black" stroke="black" points="449.63,-24.16 439.07,-24.97 447.83,-30.92 449.63,-24.16"/>
<g id="a_edge7&#45;headlabel"><a xlink:href="dir_000055_000000.html" target="_top" xlink:title="4">
<text text-anchor="middle" x="452.84" y="-19.84" font-family="Helvetica,sans-Serif" font-size="10.00">4</text>
</a>
</g>
</g>
<!-- dir_f848a285e60993dcb3189737897d2857 -->
<g id="node6" class="node">
<title>dir_f848a285e60993dcb3189737897d2857</title>
<g id="a_node6"><a xlink:href="dir_f848a285e60993dcb3189737897d2857.html" target="_top" xlink:title="fs">
<polygon fill="white" stroke="red" points="510,-108 456,-108 456,-72 510,-72 510,-108"/>
<text text-anchor="middle" x="483" y="-87.5" font-family="Helvetica,sans-Serif" font-size="10.00">fs</text>
</a>
</g>
</g>
<!-- dir_f848a285e60993dcb3189737897d2857&#45;&gt;dir_d44c64559bbebec7f509842c48db8b23 -->
<g id="edge10" class="edge">
<title>dir_f848a285e60993dcb3189737897d2857&#45;&gt;dir_d44c64559bbebec7f509842c48db8b23</title>
<path fill="none" stroke="black" d="M465.2,-71.7C456.55,-63.28 445.99,-53.02 436.5,-43.79"/>
<polygon fill="black" stroke="black" points="439.45,-41.81 429.84,-37.35 434.57,-46.83 439.45,-41.81"/>
<g id="a_edge10&#45;headlabel"><a xlink:href="dir_000039_000000.html" target="_top" xlink:title="49">
<text text-anchor="middle" x="443.01" y="-38.78" font-family="Helvetica,sans-Serif" font-size="10.00">49</text>
</a>
</g>
</g>
<!-- dir_cb0724ac90fd85e97a72e956b33dc284 -->
<g id="node7" class="node">
<title>dir_cb0724ac90fd85e97a72e956b33dc284</title>
<g id="a_node7"><a xlink:href="dir_cb0724ac90fd85e97a72e956b33dc284.html" target="_top" xlink:title="kshell">
<polygon fill="white" stroke="black" points="438,-108 384,-108 384,-72 438,-72 438,-108"/>
<text text-anchor="middle" x="411" y="-87.5" font-family="Helvetica,sans-Serif" font-size="10.00">kshell</text>
</a>
</g>
</g>
<!-- dir_cb0724ac90fd85e97a72e956b33dc284&#45;&gt;dir_d44c64559bbebec7f509842c48db8b23 -->
<g id="edge9" class="edge">
<title>dir_cb0724ac90fd85e97a72e956b33dc284&#45;&gt;dir_d44c64559bbebec7f509842c48db8b23</title>
<path fill="none" stroke="black" d="M411,-71.7C411,-64.24 411,-55.32 411,-46.97"/>
<polygon fill="black" stroke="black" points="414.5,-47.1 411,-37.1 407.5,-47.1 414.5,-47.1"/>
<g id="a_edge9&#45;headlabel"><a xlink:href="dir_000006_000000.html" target="_top" xlink:title="61">
<text text-anchor="middle" x="417.34" y="-47.2" font-family="Helvetica,sans-Serif" font-size="10.00">61</text>
</a>
</g>
</g>
<!-- dir_29d7bd500ea2760b0490c582bc5917ca -->
<g id="node8" class="node">
<title>dir_29d7bd500ea2760b0490c582bc5917ca</title>
<g id="a_node8"><a xlink:href="dir_29d7bd500ea2760b0490c582bc5917ca.html" target="_top" xlink:title="mmu">
<polygon fill="white" stroke="black" points="366,-108 312,-108 312,-72 366,-72 366,-108"/>
<text text-anchor="middle" x="339" y="-87.5" font-family="Helvetica,sans-Serif" font-size="10.00">mmu</text>
</a>
</g>
</g>
<!-- dir_29d7bd500ea2760b0490c582bc5917ca&#45;&gt;dir_d44c64559bbebec7f509842c48db8b23 -->
<g id="edge1" class="edge">
<title>dir_29d7bd500ea2760b0490c582bc5917ca&#45;&gt;dir_d44c64559bbebec7f509842c48db8b23</title>
<path fill="none" stroke="black" d="M356.8,-71.7C365.45,-63.28 376.01,-53.02 385.5,-43.79"/>
<polygon fill="black" stroke="black" points="387.43,-46.83 392.16,-37.35 382.55,-41.81 387.43,-46.83"/>
<g id="a_edge1&#45;headlabel"><a xlink:href="dir_000058_000000.html" target="_top" xlink:title="1">
<text text-anchor="middle" x="387.83" y="-47.87" font-family="Helvetica,sans-Serif" font-size="10.00">1</text>
</a>
</g>
</g>
<!-- dir_7d5a55bffd9f0b5a19cf98f012f1d84d -->
<g id="node9" class="node">
<title>dir_7d5a55bffd9f0b5a19cf98f012f1d84d</title>
<g id="a_node9"><a xlink:href="dir_7d5a55bffd9f0b5a19cf98f012f1d84d.html" target="_top" xlink:title="net">
<polygon fill="white" stroke="black" points="294,-108 240,-108 240,-72 294,-72 294,-108"/>
<text text-anchor="middle" x="267" y="-87.5" font-family="Helvetica,sans-Serif" font-size="10.00">net</text>
</a>
</g>
</g>
<!-- dir_7d5a55bffd9f0b5a19cf98f012f1d84d&#45;&gt;dir_d44c64559bbebec7f509842c48db8b23 -->
<g id="edge5" class="edge">
<title>dir_7d5a55bffd9f0b5a19cf98f012f1d84d&#45;&gt;dir_d44c64559bbebec7f509842c48db8b23</title>
<path fill="none" stroke="black" d="M283.05,-71.65C288.91,-66.07 295.86,-60.24 303,-56 324.87,-43.01 351.95,-33.75 373.52,-27.74"/>
<polygon fill="black" stroke="black" points="374.17,-30.92 382.93,-24.97 372.37,-24.16 374.17,-30.92"/>
<g id="a_edge5&#45;headlabel"><a xlink:href="dir_000059_000000.html" target="_top" xlink:title="60">
<text text-anchor="middle" x="372.42" y="-32.09" font-family="Helvetica,sans-Serif" font-size="10.00">60</text>
</a>
</g>
</g>
<!-- dir_6799a15b2a75f7240f888daacd198be8 -->
<g id="node10" class="node">
<title>dir_6799a15b2a75f7240f888daacd198be8</title>
<g id="a_node10"><a xlink:href="dir_6799a15b2a75f7240f888daacd198be8.html" target="_top" xlink:title="proc">
<polygon fill="white" stroke="black" points="222,-108 168,-108 168,-72 222,-72 222,-108"/>
<text text-anchor="middle" x="195" y="-87.5" font-family="Helvetica,sans-Serif" font-size="10.00">proc</text>
</a>
</g>
</g>
<!-- dir_6799a15b2a75f7240f888daacd198be8&#45;&gt;dir_d44c64559bbebec7f509842c48db8b23 -->
<g id="edge3" class="edge">
<title>dir_6799a15b2a75f7240f888daacd198be8&#45;&gt;dir_d44c64559bbebec7f509842c48db8b23</title>
<path fill="none" stroke="black" d="M210.05,-71.81C216.02,-65.97 223.3,-59.93 231,-56 276.38,-32.81 335.21,-24.16 373.03,-20.93"/>
<polygon fill="black" stroke="black" points="372.88,-24.37 382.59,-20.12 372.35,-17.39 372.88,-24.37"/>
<g id="a_edge3&#45;headlabel"><a xlink:href="dir_000060_000000.html" target="_top" xlink:title="9">
<text text-anchor="middle" x="370.52" y="-24.98" font-family="Helvetica,sans-Serif" font-size="10.00">9</text>
</a>
</g>
</g>
<!-- dir_4b0b675971e8b75ff33680b3a878a76d -->
<g id="node11" class="node">
<title>dir_4b0b675971e8b75ff33680b3a878a76d</title>
<g id="a_node11"><a xlink:href="dir_4b0b675971e8b75ff33680b3a878a76d.html" target="_top" xlink:title="sys">
<polygon fill="white" stroke="black" points="150,-108 96,-108 96,-72 150,-72 150,-108"/>
<text text-anchor="middle" x="123" y="-87.5" font-family="Helvetica,sans-Serif" font-size="10.00">sys</text>
</a>
</g>
</g>
<!-- dir_4b0b675971e8b75ff33680b3a878a76d&#45;&gt;dir_d44c64559bbebec7f509842c48db8b23 -->
<g id="edge2" class="edge">
<title>dir_4b0b675971e8b75ff33680b3a878a76d&#45;&gt;dir_d44c64559bbebec7f509842c48db8b23</title>
<path fill="none" stroke="black" d="M137.93,-71.57C143.89,-65.71 151.19,-59.71 159,-56 196.12,-38.35 312.25,-26.82 373.04,-21.83"/>
<polygon fill="black" stroke="black" points="373.03,-25.26 382.71,-20.98 372.47,-18.29 373.03,-25.26"/>
<g id="a_edge2&#45;headlabel"><a xlink:href="dir_000061_000000.html" target="_top" xlink:title="80">
<text text-anchor="middle" x="370.67" y="-25.88" font-family="Helvetica,sans-Serif" font-size="10.00">80</text>
</a>
</g>
</g>
<!-- dir_fc5cfe600d892ad1b812a54c244fb6ca -->
<g id="node12" class="node">
<title>dir_fc5cfe600d892ad1b812a54c244fb6ca</title>
<g id="a_node12"><a xlink:href="dir_fc5cfe600d892ad1b812a54c244fb6ca.html" target="_top" xlink:title="time">
<polygon fill="white" stroke="black" points="78,-108 24,-108 24,-72 78,-72 78,-108"/>
<text text-anchor="middle" x="51" y="-87.5" font-family="Helvetica,sans-Serif" font-size="10.00">time</text>
</a>
</g>
</g>
<!-- dir_fc5cfe600d892ad1b812a54c244fb6ca&#45;&gt;dir_d44c64559bbebec7f509842c48db8b23 -->
<g id="edge11" class="edge">
<title>dir_fc5cfe600d892ad1b812a54c244fb6ca&#45;&gt;dir_d44c64559bbebec7f509842c48db8b23</title>
<path fill="none" stroke="black" d="M65.52,-71.78C71.53,-65.79 78.98,-59.66 87,-56 137.22,-33.1 298.91,-23.62 373.12,-20.4"/>
<polygon fill="black" stroke="black" points="372.99,-23.87 382.83,-19.95 372.7,-16.87 372.99,-23.87"/>
<g id="a_edge11&#45;headlabel"><a xlink:href="dir_000062_000000.html" target="_top" xlink:title="8">
<text text-anchor="middle" x="370.51" y="-24.35" font-family="Helvetica,sans-Serif" font-size="10.00">8</text>
</a>
</g>
</g>
</g>
</svg>
