<?xml version="1.0" encoding="UTF-8" standalone="no"?>
<!DOCTYPE svg PUBLIC "-//W3C//DTD SVG 1.1//EN"
 "http://www.w3.org/Graphics/SVG/1.1/DTD/svg11.dtd">
<!-- Generated by graphviz version 2.50.0 (20211204.2007)
 -->
<!-- Title: src/userland Pages: 1 -->
<svg width="986pt" height="159pt"
 viewBox="0.00 0.00 986.00 159.00" xmlns="http://www.w3.org/2000/svg" xmlns:xlink="http://www.w3.org/1999/xlink">
<g id="graph0" class="graph" transform="scale(1 1) rotate(0) translate(4 155)">
<title>src/userland</title>
<g id="clust1" class="cluster">
<title>clusterdir_68267d1309a1af8e8297ef4c3efbcdba</title>
<g id="a_clust1"><a xlink:href="dir_68267d1309a1af8e8297ef4c3efbcdba.html" target="_top" xlink:title="src">
<polygon fill="#edf0f7" stroke="#404040" stroke-dasharray="5,2" points="8,-56 8,-143 970,-143 970,-56 8,-56"/>
<text text-anchor="middle" x="489" y="-131" font-family="Helvetica,sans-Serif" font-size="10.00">src</text>
</a>
</g>
</g>
<g id="clust2" class="cluster">
<title>clusterdir_173c9e88aa581eef1e30c63858f75f59</title>
<g id="a_clust2"><a xlink:href="dir_173c9e88aa581eef1e30c63858f75f59.html" target="_top">
<polygon fill="#edf0f7" stroke="#404040" stroke-width="2" points="16,-64 16,-116 962,-116 962,-64 16,-64"/>
</a>
</g>
</g>
<!-- dir_173c9e88aa581eef1e30c63858f75f59 -->
<g id="node1" class="node">
<title>dir_173c9e88aa581eef1e30c63858f75f59</title>
<text text-anchor="middle" x="927" y="-87.5" font-family="Helvetica,sans-Serif" font-size="10.00">userland</text>
</g>
<!-- dir_ff40e54e40c9569df6fbe33f6c8a1bc1 -->
<g id="node2" class="node">
<title>dir_ff40e54e40c9569df6fbe33f6c8a1bc1</title>
<g id="a_node2"><a xlink:href="dir_ff40e54e40c9569df6fbe33f6c8a1bc1.html" target="_top" xlink:title="cal">
<polygon fill="#a2b4d6" stroke="#404040" points="882,-108 828,-108 828,-72 882,-72 882,-108"/>
<text text-anchor="middle" x="855" y="-87.5" font-family="Helvetica,sans-Serif" font-size="10.00">cal</text>
</a>
</g>
</g>
<!-- dir_d44c64559bbebec7f509842c48db8b23 -->
<g id="node14" class="node">
<title>dir_d44c64559bbebec7f509842c48db8b23</title>
<g id="a_node14"><a xlink:href="dir_d44c64559bbebec7f509842c48db8b23.html" target="_top" xlink:title="include">
<polygon fill="none" stroke="red" points="516,-36 462,-36 462,0 516,0 516,-36"/>
<text text-anchor="middle" x="489" y="-15.5" font-family="Helvetica,sans-Serif" font-size="10.00">include</text>
</a>
</g>
</g>
<!-- dir_ff40e54e40c9569df6fbe33f6c8a1bc1&#45;&gt;dir_d44c64559bbebec7f509842c48db8b23 -->
<g id="edge1" class="edge">
<title>dir_ff40e54e40c9569df6fbe33f6c8a1bc1&#45;&gt;dir_d44c64559bbebec7f509842c48db8b23</title>
<path fill="none" stroke="black" d="M840.49,-71.77C834.47,-65.78 827.03,-59.65 819,-56 767.61,-32.63 601.68,-23.36 526.56,-20.3"/>
<polygon fill="black" stroke="black" points="526.29,-16.78 516.16,-19.89 526.02,-23.78 526.29,-16.78"/>
<g id="a_edge1&#45;headlabel"><a xlink:href="dir_000018_000042.html" target="_top" xlink:title="4">
<text text-anchor="middle" x="530" y="-11.59" font-family="Helvetica,sans-Serif" font-size="10.00">4</text>
</a>
</g>
</g>
<!-- dir_e1e6baff1b46d4bfd06d3776fb6d7587 -->
<g id="node3" class="node">
<title>dir_e1e6baff1b46d4bfd06d3776fb6d7587</title>
<g id="a_node3"><a xlink:href="dir_e1e6baff1b46d4bfd06d3776fb6d7587.html" target="_top" xlink:title="cat">
<polygon fill="#a2b4d6" stroke="#404040" points="810,-108 756,-108 756,-72 810,-72 810,-108"/>
<text text-anchor="middle" x="783" y="-87.5" font-family="Helvetica,sans-Serif" font-size="10.00">cat</text>
</a>
</g>
</g>
<!-- dir_e1e6baff1b46d4bfd06d3776fb6d7587&#45;&gt;dir_d44c64559bbebec7f509842c48db8b23 -->
<g id="edge2" class="edge">
<title>dir_e1e6baff1b46d4bfd06d3776fb6d7587&#45;&gt;dir_d44c64559bbebec7f509842c48db8b23</title>
<path fill="none" stroke="black" d="M768.43,-71.9C762.41,-65.93 754.97,-59.77 747,-56 708.63,-37.83 587.89,-26.42 526.15,-21.62"/>
<polygon fill="black" stroke="black" points="526.29,-18.12 516.06,-20.85 525.76,-25.1 526.29,-18.12"/>
<g id="a_edge2&#45;headlabel"><a xlink:href="dir_000019_000042.html" target="_top" xlink:title="5">
<text text-anchor="middle" x="530.09" y="-13.06" font-family="Helvetica,sans-Serif" font-size="10.00">5</text>
</a>
</g>
</g>
<!-- dir_6b10eb6658bb42cff98abf7e4e75291f -->
<g id="node4" class="node">
<title>dir_6b10eb6658bb42cff98abf7e4e75291f</title>
<g id="a_node4"><a xlink:href="dir_6b10eb6658bb42cff98abf7e4e75291f.html" target="_top" xlink:title="clear">
<polygon fill="#a2b4d6" stroke="#404040" points="738,-108 684,-108 684,-72 738,-72 738,-108"/>
<text text-anchor="middle" x="711" y="-87.5" font-family="Helvetica,sans-Serif" font-size="10.00">clear</text>
</a>
</g>
</g>
<!-- dir_6b10eb6658bb42cff98abf7e4e75291f&#45;&gt;dir_d44c64559bbebec7f509842c48db8b23 -->
<g id="edge3" class="edge">
<title>dir_6b10eb6658bb42cff98abf7e4e75291f&#45;&gt;dir_d44c64559bbebec7f509842c48db8b23</title>
<path fill="none" stroke="black" d="M695.97,-71.79C690,-65.94 682.71,-59.91 675,-56 627.35,-31.85 565.39,-23.45 526.4,-20.53"/>
<polygon fill="black" stroke="black" points="526.25,-17.02 516.04,-19.85 525.79,-24 526.25,-17.02"/>
<g id="a_edge3&#45;headlabel"><a xlink:href="dir_000020_000042.html" target="_top" xlink:title="1">
<text text-anchor="middle" x="530.02" y="-11.92" font-family="Helvetica,sans-Serif" font-size="10.00">1</text>
</a>
</g>
</g>
<!-- dir_7958b23ead370ae23f6a05235dd92599 -->
<g id="node5" class="node">
<title>dir_7958b23ead370ae23f6a05235dd92599</title>
<g id="a_node5"><a xlink:href="dir_7958b23ead370ae23f6a05235dd92599.html" target="_top" xlink:title="date">
<polygon fill="#a2b4d6" stroke="#404040" points="666,-108 612,-108 612,-72 666,-72 666,-108"/>
<text text-anchor="middle" x="639" y="-87.5" font-family="Helvetica,sans-Serif" font-size="10.00">date</text>
</a>
</g>
</g>
<!-- dir_7958b23ead370ae23f6a05235dd92599&#45;&gt;dir_d44c64559bbebec7f509842c48db8b23 -->
<g id="edge4" class="edge">
<title>dir_7958b23ead370ae23f6a05235dd92599&#45;&gt;dir_d44c64559bbebec7f509842c48db8b23</title>
<path fill="none" stroke="black" d="M623.35,-71.93C617.42,-66.24 610.32,-60.27 603,-56 579.04,-42.03 549.13,-32.58 525.96,-26.73"/>
<polygon fill="black" stroke="black" points="526.7,-23.3 516.16,-24.36 525.06,-30.11 526.7,-23.3"/>
<g id="a_edge4&#45;headlabel"><a xlink:href="dir_000031_000042.html" target="_top" xlink:title="2">
<text text-anchor="middle" x="530.86" y="-18.89" font-family="Helvetica,sans-Serif" font-size="10.00">2</text>
</a>
</g>
</g>
<!-- dir_eb43e55597aac8a9b4d196d33ee8e0dc -->
<g id="node6" class="node">
<title>dir_eb43e55597aac8a9b4d196d33ee8e0dc</title>
<g id="a_node6"><a xlink:href="dir_eb43e55597aac8a9b4d196d33ee8e0dc.html" target="_top" xlink:title="hostname">
<polygon fill="#a2b4d6" stroke="#404040" points="593.5,-108 534.5,-108 534.5,-72 593.5,-72 593.5,-108"/>
<text text-anchor="middle" x="564" y="-87.5" font-family="Helvetica,sans-Serif" font-size="10.00">hostname</text>
</a>
</g>
</g>
<!-- dir_eb43e55597aac8a9b4d196d33ee8e0dc&#45;&gt;dir_d44c64559bbebec7f509842c48db8b23 -->
<g id="edge5" class="edge">
<title>dir_eb43e55597aac8a9b4d196d33ee8e0dc&#45;&gt;dir_d44c64559bbebec7f509842c48db8b23</title>
<path fill="none" stroke="black" d="M545.46,-71.7C536.2,-63.05 524.84,-52.45 514.74,-43.03"/>
<polygon fill="black" stroke="black" points="517.02,-40.37 507.33,-36.1 512.25,-45.49 517.02,-40.37"/>
<g id="a_edge5&#45;headlabel"><a xlink:href="dir_000041_000042.html" target="_top" xlink:title="5">
<text text-anchor="middle" x="521.59" y="-38.25" font-family="Helvetica,sans-Serif" font-size="10.00">5</text>
</a>
</g>
</g>
<!-- dir_c3d47065b72cafd3fddb954266dfcaab -->
<g id="node7" class="node">
<title>dir_c3d47065b72cafd3fddb954266dfcaab</title>
<g id="a_node7"><a xlink:href="dir_c3d47065b72cafd3fddb954266dfcaab.html" target="_top" xlink:title="init">
<polygon fill="#a2b4d6" stroke="#404040" points="516,-108 462,-108 462,-72 516,-72 516,-108"/>
<text text-anchor="middle" x="489" y="-87.5" font-family="Helvetica,sans-Serif" font-size="10.00">init</text>
</a>
</g>
</g>
<!-- dir_c3d47065b72cafd3fddb954266dfcaab&#45;&gt;dir_d44c64559bbebec7f509842c48db8b23 -->
<g id="edge6" class="edge">
<title>dir_c3d47065b72cafd3fddb954266dfcaab&#45;&gt;dir_d44c64559bbebec7f509842c48db8b23</title>
<path fill="none" stroke="black" d="M489,-71.7C489,-63.98 489,-54.71 489,-46.11"/>
<polygon fill="black" stroke="black" points="492.5,-46.1 489,-36.1 485.5,-46.1 492.5,-46.1"/>
<g id="a_edge6&#45;headlabel"><a xlink:href="dir_000043_000042.html" target="_top" xlink:title="3">
<text text-anchor="middle" x="495.34" y="-47.2" font-family="Helvetica,sans-Serif" font-size="10.00">3</text>
</a>
</g>
</g>
<!-- dir_ea273b443b966abbebf68ac90005349e -->
<g id="node8" class="node">
<title>dir_ea273b443b966abbebf68ac90005349e</title>
<g id="a_node8"><a xlink:href="dir_ea273b443b966abbebf68ac90005349e.html" target="_top" xlink:title="meminfo">
<polygon fill="#a2b4d6" stroke="#404040" points="444,-108 390,-108 390,-72 444,-72 444,-108"/>
<text text-anchor="middle" x="417" y="-87.5" font-family="Helvetica,sans-Serif" font-size="10.00">meminfo</text>
</a>
</g>
</g>
<!-- dir_ea273b443b966abbebf68ac90005349e&#45;&gt;dir_d44c64559bbebec7f509842c48db8b23 -->
<g id="edge7" class="edge">
<title>dir_ea273b443b966abbebf68ac90005349e&#45;&gt;dir_d44c64559bbebec7f509842c48db8b23</title>
<path fill="none" stroke="black" d="M434.8,-71.7C443.6,-63.14 454.38,-52.66 464,-43.3"/>
<polygon fill="black" stroke="black" points="466.68,-45.58 471.41,-36.1 461.8,-40.57 466.68,-45.58"/>
<g id="a_edge7&#45;headlabel"><a xlink:href="dir_000051_000042.html" target="_top" xlink:title="5">
<text text-anchor="middle" x="466.08" y="-47.63" font-family="Helvetica,sans-Serif" font-size="10.00">5</text>
</a>
</g>
</g>
<!-- dir_3481310df4fd510591ecbb734fa3af1c -->
<g id="node9" class="node">
<title>dir_3481310df4fd510591ecbb734fa3af1c</title>
<g id="a_node9"><a xlink:href="dir_3481310df4fd510591ecbb734fa3af1c.html" target="_top" xlink:title="noop">
<polygon fill="#a2b4d6" stroke="#404040" points="372,-108 318,-108 318,-72 372,-72 372,-108"/>
<text text-anchor="middle" x="345" y="-87.5" font-family="Helvetica,sans-Serif" font-size="10.00">noop</text>
</a>
</g>
</g>
<!-- dir_8188d2403f8782d47de5ea4ccc1ebd5f -->
<g id="node10" class="node">
<title>dir_8188d2403f8782d47de5ea4ccc1ebd5f</title>
<g id="a_node10"><a xlink:href="dir_8188d2403f8782d47de5ea4ccc1ebd5f.html" target="_top" xlink:title="shell">
<polygon fill="#a2b4d6" stroke="#404040" points="300,-108 246,-108 246,-72 300,-72 300,-108"/>
<text text-anchor="middle" x="273" y="-87.5" font-family="Helvetica,sans-Serif" font-size="10.00">shell</text>
</a>
</g>
</g>
<!-- dir_8188d2403f8782d47de5ea4ccc1ebd5f&#45;&gt;dir_d44c64559bbebec7f509842c48db8b23 -->
<g id="edge8" class="edge">
<title>dir_8188d2403f8782d47de5ea4ccc1ebd5f&#45;&gt;dir_d44c64559bbebec7f509842c48db8b23</title>
<path fill="none" stroke="black" d="M288.05,-71.81C294.02,-65.97 301.3,-59.93 309,-56 354.7,-32.65 414.05,-24.03 451.84,-20.86"/>
<polygon fill="black" stroke="black" points="452.19,-24.34 461.9,-20.1 451.67,-17.36 452.19,-24.34"/>
<g id="a_edge8&#45;headlabel"><a xlink:href="dir_000067_000042.html" target="_top" xlink:title="17">
<text text-anchor="middle" x="448.82" y="-24.94" font-family="Helvetica,sans-Serif" font-size="10.00">17</text>
</a>
</g>
</g>
<!-- dir_fc871caaf90a108feaa87099fb59ff14 -->
<g id="node11" class="node">
<title>dir_fc871caaf90a108feaa87099fb59ff14</title>
<g id="a_node11"><a xlink:href="dir_fc871caaf90a108feaa87099fb59ff14.html" target="_top" xlink:title="testsuite">
<polygon fill="#a2b4d6" stroke="#404040" points="228,-108 174,-108 174,-72 228,-72 228,-108"/>
<text text-anchor="middle" x="201" y="-87.5" font-family="Helvetica,sans-Serif" font-size="10.00">testsuite</text>
</a>
</g>
</g>
<!-- dir_fc871caaf90a108feaa87099fb59ff14&#45;&gt;dir_d44c64559bbebec7f509842c48db8b23 -->
<g id="edge9" class="edge">
<title>dir_fc871caaf90a108feaa87099fb59ff14&#45;&gt;dir_d44c64559bbebec7f509842c48db8b23</title>
<path fill="none" stroke="black" d="M215.58,-71.92C221.6,-65.94 229.04,-59.79 237,-56 274.2,-38.31 390.73,-26.77 451.42,-21.8"/>
<polygon fill="black" stroke="black" points="452.03,-25.26 461.71,-20.98 451.47,-18.28 452.03,-25.26"/>
<g id="a_edge9&#45;headlabel"><a xlink:href="dir_000077_000042.html" target="_top" xlink:title="5">
<text text-anchor="middle" x="448.67" y="-25.88" font-family="Helvetica,sans-Serif" font-size="10.00">5</text>
</a>
</g>
</g>
<!-- dir_580ecf3b0494669f5045460edd2f65b6 -->
<g id="node12" class="node">
<title>dir_580ecf3b0494669f5045460edd2f65b6</title>
<g id="a_node12"><a xlink:href="dir_580ecf3b0494669f5045460edd2f65b6.html" target="_top" xlink:title="udp&#45;client">
<polygon fill="#a2b4d6" stroke="#404040" points="155.5,-108 96.5,-108 96.5,-72 155.5,-72 155.5,-108"/>
<text text-anchor="middle" x="126" y="-87.5" font-family="Helvetica,sans-Serif" font-size="10.00">udp&#45;client</text>
</a>
</g>
</g>
<!-- dir_580ecf3b0494669f5045460edd2f65b6&#45;&gt;dir_d44c64559bbebec7f509842c48db8b23 -->
<g id="edge10" class="edge">
<title>dir_580ecf3b0494669f5045460edd2f65b6&#45;&gt;dir_d44c64559bbebec7f509842c48db8b23</title>
<path fill="none" stroke="black" d="M141.97,-71.78C148.51,-65.79 156.53,-59.66 165,-56 215.77,-34.06 377.78,-24.05 451.65,-20.55"/>
<polygon fill="black" stroke="black" points="452.06,-24.03 461.89,-20.08 451.74,-17.04 452.06,-24.03"/>
<g id="a_edge10&#45;headlabel"><a xlink:href="dir_000081_000042.html" target="_top" xlink:title="5">
<text text-anchor="middle" x="448.6" y="-24.54" font-family="Helvetica,sans-Serif" font-size="10.00">5</text>
</a>
</g>
</g>
<!-- dir_a399c65094449806f3301ab00825c20b -->
<g id="node13" class="node">
<title>dir_a399c65094449806f3301ab00825c20b</title>
<g id="a_node13"><a xlink:href="dir_a399c65094449806f3301ab00825c20b.html" target="_top" xlink:title="uptime">
<polygon fill="#a2b4d6" stroke="#404040" points="78,-108 24,-108 24,-72 78,-72 78,-108"/>
<text text-anchor="middle" x="51" y="-87.5" font-family="Helvetica,sans-Serif" font-size="10.00">uptime</text>
</a>
</g>
</g>
<!-- dir_a399c65094449806f3301ab00825c20b&#45;&gt;dir_d44c64559bbebec7f509842c48db8b23 -->
<g id="edge11" class="edge">
<title>dir_a399c65094449806f3301ab00825c20b&#45;&gt;dir_d44c64559bbebec7f509842c48db8b23</title>
<path fill="none" stroke="black" d="M65.96,-71.69C72.15,-65.69 79.79,-59.57 88,-56 152.78,-27.83 365.14,-21.08 451.74,-19.48"/>
<polygon fill="black" stroke="black" points="451.96,-22.98 461.9,-19.31 451.84,-15.98 451.96,-22.98"/>
<g id="a_edge11&#45;headlabel"><a xlink:href="dir_000082_000042.html" target="_top" xlink:title="5">
<text text-anchor="middle" x="448.41" y="-23.38" font-family="Helvetica,sans-Serif" font-size="10.00">5</text>
</a>
</g>
</g>
</g>
</svg>
