<?xml version="1.0" encoding="UTF-8" standalone="no"?>
<!DOCTYPE svg PUBLIC "-//W3C//DTD SVG 1.1//EN"
 "http://www.w3.org/Graphics/SVG/1.1/DTD/svg11.dtd">
<!-- Generated by graphviz version 2.50.0 (20211204.2007)
 -->
<!-- Title: src/kernel/arch/x86_64 Pages: 1 -->
<svg width="387pt" height="447pt"
 viewBox="0.00 0.00 386.77 447.00" xmlns="http://www.w3.org/2000/svg" xmlns:xlink="http://www.w3.org/1999/xlink">
<g id="graph0" class="graph" transform="scale(1 1) rotate(0) translate(4 443)">
<title>src/kernel/arch/x86_64</title>
<g id="clust1" class="cluster">
<title>clusterdir_76e3dd4d2fa719e8d3b096e9aa563982</title>
<g id="a_clust1"><a xlink:href="dir_76e3dd4d2fa719e8d3b096e9aa563982.html" target="_top" xlink:title="arch">
<polygon fill="#edf0f7" stroke="#7f7f7f" stroke-dasharray="5,2" points="8,-56 8,-431 286,-431 286,-56 8,-56"/>
<text text-anchor="middle" x="147" y="-419" font-family="Helvetica,sans-Serif" font-size="10.00">arch</text>
</a>
</g>
</g>
<g id="clust2" class="cluster">
<title>clusterdir_7c4c796ec9937bed8074dafcec3d25e4</title>
<g id="a_clust2"><a xlink:href="dir_7c4c796ec9937bed8074dafcec3d25e4.html" target="_top">
<polygon fill="#edf0f7" stroke="#404040" stroke-width="2" points="16,-64 16,-404 278,-404 278,-64 16,-64"/>
</a>
</g>
</g>
<!-- dir_7c4c796ec9937bed8074dafcec3d25e4 -->
<g id="node1" class="node">
<title>dir_7c4c796ec9937bed8074dafcec3d25e4</title>
<text text-anchor="middle" x="170" y="-375.5" font-family="Helvetica,sans-Serif" font-size="10.00">x86_64</text>
</g>
<!-- dir_42d4540ea64ab009ab7a7dcd79fe63e8 -->
<g id="node3" class="node">
<title>dir_42d4540ea64ab009ab7a7dcd79fe63e8</title>
<g id="a_node3"><a xlink:href="dir_42d4540ea64ab009ab7a7dcd79fe63e8.html" target="_top" xlink:title="console">
<polygon fill="#a2b4d6" stroke="#404040" points="138,-324 84,-324 84,-288 138,-288 138,-324"/>
<text text-anchor="middle" x="111" y="-303.5" font-family="Helvetica,sans-Serif" font-size="10.00">console</text>
</a>
</g>
</g>
<!-- dir_7c4c796ec9937bed8074dafcec3d25e4&#45;&gt;dir_42d4540ea64ab009ab7a7dcd79fe63e8 -->
<g id="edge3" class="edge">
<title>dir_7c4c796ec9937bed8074dafcec3d25e4&#45;&gt;dir_42d4540ea64ab009ab7a7dcd79fe63e8</title>
<path fill="none" stroke="black" d="M155.42,-359.7C148.34,-351.3 139.72,-341.07 131.95,-331.86"/>
<polygon fill="black" stroke="black" points="134.54,-329.49 125.42,-324.1 129.19,-334.01 134.54,-329.49"/>
<g id="a_edge3&#45;headlabel"><a xlink:href="dir_000082_000023.html" target="_top" xlink:title="2">
<text text-anchor="middle" x="139.03" y="-327.91" font-family="Helvetica,sans-Serif" font-size="10.00">2</text>
</a>
</g>
</g>
<!-- dir_1dc53930709e46457d0e1484ec309f4d -->
<g id="node4" class="node">
<title>dir_1dc53930709e46457d0e1484ec309f4d</title>
<g id="a_node4"><a xlink:href="dir_1dc53930709e46457d0e1484ec309f4d.html" target="_top" xlink:title="core">
<polygon fill="#a2b4d6" stroke="#404040" points="158,-180 104,-180 104,-144 158,-144 158,-180"/>
<text text-anchor="middle" x="131" y="-159.5" font-family="Helvetica,sans-Serif" font-size="10.00">core</text>
</a>
</g>
</g>
<!-- dir_7c4c796ec9937bed8074dafcec3d25e4&#45;&gt;dir_1dc53930709e46457d0e1484ec309f4d -->
<g id="edge1" class="edge">
<title>dir_7c4c796ec9937bed8074dafcec3d25e4&#45;&gt;dir_1dc53930709e46457d0e1484ec309f4d</title>
<path fill="none" stroke="black" d="M165.32,-359.74C158.98,-335.74 147.67,-290.86 141,-252 137.47,-231.44 134.9,-207.99 133.24,-190.32"/>
<polygon fill="black" stroke="black" points="136.71,-189.79 132.33,-180.14 129.74,-190.42 136.71,-189.79"/>
<g id="a_edge1&#45;headlabel"><a xlink:href="dir_000082_000029.html" target="_top" xlink:title="10">
<text text-anchor="middle" x="139.86" y="-190.62" font-family="Helvetica,sans-Serif" font-size="10.00">10</text>
</a>
</g>
</g>
<!-- dir_dfce509d3294b4958bedddff0a015025 -->
<g id="node5" class="node">
<title>dir_dfce509d3294b4958bedddff0a015025</title>
<g id="a_node5"><a xlink:href="dir_dfce509d3294b4958bedddff0a015025.html" target="_top" xlink:title="drivers">
<polygon fill="#a2b4d6" stroke="#404040" points="204,-252 150,-252 150,-216 204,-216 204,-252"/>
<text text-anchor="middle" x="177" y="-231.5" font-family="Helvetica,sans-Serif" font-size="10.00">drivers</text>
</a>
</g>
</g>
<!-- dir_7c4c796ec9937bed8074dafcec3d25e4&#45;&gt;dir_dfce509d3294b4958bedddff0a015025 -->
<g id="edge5" class="edge">
<title>dir_7c4c796ec9937bed8074dafcec3d25e4&#45;&gt;dir_dfce509d3294b4958bedddff0a015025</title>
<path fill="none" stroke="black" d="M174.87,-359.98C177.56,-349.67 180.64,-336.19 182,-324 184.31,-303.37 182.82,-279.92 180.89,-262.27"/>
<polygon fill="black" stroke="black" points="184.33,-261.61 179.65,-252.11 177.38,-262.46 184.33,-261.61"/>
<g id="a_edge5&#45;headlabel"><a xlink:href="dir_000082_000036.html" target="_top" xlink:title="10">
<text text-anchor="middle" x="187.59" y="-262.34" font-family="Helvetica,sans-Serif" font-size="10.00">10</text>
</a>
</g>
</g>
<!-- dir_3a646564ec239f35c01425f0e9da2ba2 -->
<g id="node7" class="node">
<title>dir_3a646564ec239f35c01425f0e9da2ba2</title>
<g id="a_node7"><a xlink:href="dir_3a646564ec239f35c01425f0e9da2ba2.html" target="_top" xlink:title="mmu">
<polygon fill="#a2b4d6" stroke="#404040" points="158,-108 104,-108 104,-72 158,-72 158,-108"/>
<text text-anchor="middle" x="131" y="-87.5" font-family="Helvetica,sans-Serif" font-size="10.00">mmu</text>
</a>
</g>
</g>
<!-- dir_7c4c796ec9937bed8074dafcec3d25e4&#45;&gt;dir_3a646564ec239f35c01425f0e9da2ba2 -->
<g id="edge2" class="edge">
<title>dir_7c4c796ec9937bed8074dafcec3d25e4&#45;&gt;dir_3a646564ec239f35c01425f0e9da2ba2</title>
<path fill="none" stroke="black" d="M142.55,-363.48C115.89,-350.07 78.87,-330.6 75,-324 66.63,-309.74 58.66,-207.71 85,-144 89.3,-133.59 96.5,-123.79 103.94,-115.51"/>
<polygon fill="black" stroke="black" points="106.67,-117.72 111.05,-108.07 101.61,-112.88 106.67,-117.72"/>
<g id="a_edge2&#45;headlabel"><a xlink:href="dir_000082_000055.html" target="_top" xlink:title="8">
<text text-anchor="middle" x="106.23" y="-119.78" font-family="Helvetica,sans-Serif" font-size="10.00">8</text>
</a>
</g>
</g>
<!-- dir_d44c64559bbebec7f509842c48db8b23 -->
<g id="node8" class="node">
<title>dir_d44c64559bbebec7f509842c48db8b23</title>
<g id="a_node8"><a xlink:href="dir_d44c64559bbebec7f509842c48db8b23.html" target="_top" xlink:title="include">
<polygon fill="none" stroke="red" points="291,-36 237,-36 237,0 291,0 291,-36"/>
<text text-anchor="middle" x="264" y="-15.5" font-family="Helvetica,sans-Serif" font-size="10.00">include</text>
</a>
</g>
</g>
<!-- dir_7c4c796ec9937bed8074dafcec3d25e4&#45;&gt;dir_d44c64559bbebec7f509842c48db8b23 -->
<g id="edge4" class="edge">
<title>dir_7c4c796ec9937bed8074dafcec3d25e4&#45;&gt;dir_d44c64559bbebec7f509842c48db8b23</title>
<path fill="none" stroke="black" d="M197.26,-377.07C237.3,-375.64 311.82,-366.91 354,-324 382.72,-294.78 378,-275.97 378,-235 378,-235 378,-235 378,-161 378,-113.13 384.94,-92.53 354,-56 340.64,-40.23 319.5,-31.08 301.06,-25.83"/>
<polygon fill="black" stroke="black" points="301.71,-22.38 291.16,-23.29 299.98,-29.16 301.71,-22.38"/>
<g id="a_edge4&#45;headlabel"><a xlink:href="dir_000082_000042.html" target="_top" xlink:title="107">
<text text-anchor="middle" x="305.9" y="-18.02" font-family="Helvetica,sans-Serif" font-size="10.00">107</text>
</a>
</g>
</g>
<!-- dir_2acc9ac41bab451ccb7f12c38e9a27aa -->
<g id="node2" class="node">
<title>dir_2acc9ac41bab451ccb7f12c38e9a27aa</title>
<g id="a_node2"><a xlink:href="dir_2acc9ac41bab451ccb7f12c38e9a27aa.html" target="_top" xlink:title="arch">
<polygon fill="#a2b4d6" stroke="#404040" points="125,-396 71,-396 71,-360 125,-360 125,-396"/>
<text text-anchor="middle" x="98" y="-375.5" font-family="Helvetica,sans-Serif" font-size="10.00">arch</text>
</a>
</g>
</g>
<!-- dir_2acc9ac41bab451ccb7f12c38e9a27aa&#45;&gt;dir_42d4540ea64ab009ab7a7dcd79fe63e8 -->
<g id="edge8" class="edge">
<title>dir_2acc9ac41bab451ccb7f12c38e9a27aa&#45;&gt;dir_42d4540ea64ab009ab7a7dcd79fe63e8</title>
<path fill="none" stroke="black" d="M101.21,-359.7C102.65,-351.98 104.37,-342.71 105.96,-334.11"/>
<polygon fill="black" stroke="black" points="109.44,-334.58 107.82,-324.1 102.56,-333.3 109.44,-334.58"/>
<g id="a_edge8&#45;headlabel"><a xlink:href="dir_000009_000023.html" target="_top" xlink:title="1">
<text text-anchor="middle" x="111.57" y="-336.13" font-family="Helvetica,sans-Serif" font-size="10.00">1</text>
</a>
</g>
</g>
<!-- dir_2acc9ac41bab451ccb7f12c38e9a27aa&#45;&gt;dir_1dc53930709e46457d0e1484ec309f4d -->
<g id="edge6" class="edge">
<title>dir_2acc9ac41bab451ccb7f12c38e9a27aa&#45;&gt;dir_1dc53930709e46457d0e1484ec309f4d</title>
<path fill="none" stroke="black" d="M88.46,-359.93C83.36,-349.82 77.61,-336.57 75,-324 71.75,-308.33 71.66,-303.65 75,-288 82.76,-251.71 101.87,-213.21 115.61,-188.68"/>
<polygon fill="black" stroke="black" points="118.65,-190.42 120.57,-180 112.57,-186.94 118.65,-190.42"/>
<g id="a_edge6&#45;headlabel"><a xlink:href="dir_000009_000029.html" target="_top" xlink:title="2">
<text text-anchor="middle" x="119.33" y="-192.45" font-family="Helvetica,sans-Serif" font-size="10.00">2</text>
</a>
</g>
</g>
<!-- dir_2acc9ac41bab451ccb7f12c38e9a27aa&#45;&gt;dir_dfce509d3294b4958bedddff0a015025 -->
<g id="edge10" class="edge">
<title>dir_2acc9ac41bab451ccb7f12c38e9a27aa&#45;&gt;dir_dfce509d3294b4958bedddff0a015025</title>
<path fill="none" stroke="black" d="M117.32,-359.92C127.32,-350.21 139.07,-337.36 147,-324 158.46,-304.69 166.28,-280.39 171.05,-262.07"/>
<polygon fill="black" stroke="black" points="174.46,-262.86 173.45,-252.31 167.66,-261.18 174.46,-262.86"/>
<g id="a_edge10&#45;headlabel"><a xlink:href="dir_000009_000036.html" target="_top" xlink:title="5">
<text text-anchor="middle" x="176.35" y="-264.53" font-family="Helvetica,sans-Serif" font-size="10.00">5</text>
</a>
</g>
</g>
<!-- dir_2acc9ac41bab451ccb7f12c38e9a27aa&#45;&gt;dir_3a646564ec239f35c01425f0e9da2ba2 -->
<g id="edge7" class="edge">
<title>dir_2acc9ac41bab451ccb7f12c38e9a27aa&#45;&gt;dir_3a646564ec239f35c01425f0e9da2ba2</title>
<path fill="none" stroke="black" d="M85.54,-359.72C58.11,-319.36 -1.86,-216.82 40,-144 51.67,-123.7 74.43,-110.45 94.27,-102.27"/>
<polygon fill="black" stroke="black" points="95.62,-105.5 103.71,-98.66 93.12,-98.97 95.62,-105.5"/>
<g id="a_edge7&#45;headlabel"><a xlink:href="dir_000009_000055.html" target="_top" xlink:title="1">
<text text-anchor="middle" x="93.28" y="-106.94" font-family="Helvetica,sans-Serif" font-size="10.00">1</text>
</a>
</g>
</g>
<!-- dir_2acc9ac41bab451ccb7f12c38e9a27aa&#45;&gt;dir_d44c64559bbebec7f509842c48db8b23 -->
<g id="edge9" class="edge">
<title>dir_2acc9ac41bab451ccb7f12c38e9a27aa&#45;&gt;dir_d44c64559bbebec7f509842c48db8b23</title>
<path fill="none" stroke="black" d="M125.28,-363.43C128.19,-362.19 131.14,-361.02 134,-360 196.55,-337.71 224.45,-361.86 279,-324 318.4,-296.66 340,-282.95 340,-235 340,-235 340,-235 340,-161 340,-115.64 309.48,-70.75 287.12,-43.95"/>
<polygon fill="black" stroke="black" points="289.66,-41.53 280.49,-36.23 284.36,-46.09 289.66,-41.53"/>
<g id="a_edge9&#45;headlabel"><a xlink:href="dir_000009_000042.html" target="_top" xlink:title="25">
<text text-anchor="middle" x="294.16" y="-39.9" font-family="Helvetica,sans-Serif" font-size="10.00">25</text>
</a>
</g>
</g>
<!-- dir_42d4540ea64ab009ab7a7dcd79fe63e8&#45;&gt;dir_1dc53930709e46457d0e1484ec309f4d -->
<g id="edge11" class="edge">
<title>dir_42d4540ea64ab009ab7a7dcd79fe63e8&#45;&gt;dir_1dc53930709e46457d0e1484ec309f4d</title>
<path fill="none" stroke="black" d="M113.41,-287.87C116.82,-263.67 123.08,-219.21 127.14,-190.39"/>
<polygon fill="black" stroke="black" points="130.65,-190.58 128.58,-180.19 123.72,-189.6 130.65,-190.58"/>
<g id="a_edge11&#45;headlabel"><a xlink:href="dir_000023_000029.html" target="_top" xlink:title="1">
<text text-anchor="middle" x="132.96" y="-192.04" font-family="Helvetica,sans-Serif" font-size="10.00">1</text>
</a>
</g>
</g>
<!-- dir_42d4540ea64ab009ab7a7dcd79fe63e8&#45;&gt;dir_dfce509d3294b4958bedddff0a015025 -->
<g id="edge14" class="edge">
<title>dir_42d4540ea64ab009ab7a7dcd79fe63e8&#45;&gt;dir_dfce509d3294b4958bedddff0a015025</title>
<path fill="none" stroke="black" d="M127.31,-287.7C135.31,-279.22 145.07,-268.86 153.82,-259.58"/>
<polygon fill="black" stroke="black" points="156.56,-261.78 160.87,-252.1 151.47,-256.98 156.56,-261.78"/>
<g id="a_edge14&#45;headlabel"><a xlink:href="dir_000023_000036.html" target="_top" xlink:title="1">
<text text-anchor="middle" x="156.16" y="-263.84" font-family="Helvetica,sans-Serif" font-size="10.00">1</text>
</a>
</g>
</g>
<!-- dir_42d4540ea64ab009ab7a7dcd79fe63e8&#45;&gt;dir_3a646564ec239f35c01425f0e9da2ba2 -->
<g id="edge12" class="edge">
<title>dir_42d4540ea64ab009ab7a7dcd79fe63e8&#45;&gt;dir_3a646564ec239f35c01425f0e9da2ba2</title>
<path fill="none" stroke="black" d="M104.93,-287.64C95.38,-257.64 79.48,-194.47 95,-144 98.01,-134.22 103.51,-124.62 109.32,-116.33"/>
<polygon fill="black" stroke="black" points="112.19,-118.33 115.39,-108.23 106.59,-114.13 112.19,-118.33"/>
<g id="a_edge12&#45;headlabel"><a xlink:href="dir_000023_000055.html" target="_top" xlink:title="1">
<text text-anchor="middle" x="112.31" y="-120.41" font-family="Helvetica,sans-Serif" font-size="10.00">1</text>
</a>
</g>
</g>
<!-- dir_42d4540ea64ab009ab7a7dcd79fe63e8&#45;&gt;dir_d44c64559bbebec7f509842c48db8b23 -->
<g id="edge13" class="edge">
<title>dir_42d4540ea64ab009ab7a7dcd79fe63e8&#45;&gt;dir_d44c64559bbebec7f509842c48db8b23</title>
<path fill="none" stroke="black" d="M138.02,-297.77C161.28,-290.17 194,-275.9 213,-252 261.64,-190.8 266.28,-93.14 265.36,-46.09"/>
<polygon fill="black" stroke="black" points="268.86,-45.95 265.06,-36.06 261.86,-46.15 268.86,-45.95"/>
<g id="a_edge13&#45;headlabel"><a xlink:href="dir_000023_000042.html" target="_top" xlink:title="7">
<text text-anchor="middle" x="271.8" y="-46.96" font-family="Helvetica,sans-Serif" font-size="10.00">7</text>
</a>
</g>
</g>
<!-- dir_1dc53930709e46457d0e1484ec309f4d&#45;&gt;dir_3a646564ec239f35c01425f0e9da2ba2 -->
<g id="edge15" class="edge">
<title>dir_1dc53930709e46457d0e1484ec309f4d&#45;&gt;dir_3a646564ec239f35c01425f0e9da2ba2</title>
<path fill="none" stroke="black" d="M125.08,-143.7C124.29,-135.98 124.06,-126.71 124.4,-118.11"/>
<polygon fill="black" stroke="black" points="127.9,-118.32 125.1,-108.1 120.92,-117.84 127.9,-118.32"/>
<g id="a_edge15&#45;headlabel"><a xlink:href="dir_000029_000055.html" target="_top" xlink:title="1">
<text text-anchor="middle" x="130.48" y="-119.61" font-family="Helvetica,sans-Serif" font-size="10.00">1</text>
</a>
</g>
</g>
<!-- dir_1dc53930709e46457d0e1484ec309f4d&#45;&gt;dir_d44c64559bbebec7f509842c48db8b23 -->
<g id="edge16" class="edge">
<title>dir_1dc53930709e46457d0e1484ec309f4d&#45;&gt;dir_d44c64559bbebec7f509842c48db8b23</title>
<path fill="none" stroke="black" d="M141.97,-143.75C156.4,-121.86 183.3,-83.61 212,-56 217.04,-51.15 222.76,-46.44 228.52,-42.1"/>
<polygon fill="black" stroke="black" points="230.86,-44.72 236.9,-36.02 226.75,-39.06 230.86,-44.72"/>
<g id="a_edge16&#45;headlabel"><a xlink:href="dir_000029_000042.html" target="_top" xlink:title="5">
<text text-anchor="middle" x="229.61" y="-46.63" font-family="Helvetica,sans-Serif" font-size="10.00">5</text>
</a>
</g>
</g>
<!-- dir_dfce509d3294b4958bedddff0a015025&#45;&gt;dir_1dc53930709e46457d0e1484ec309f4d -->
<g id="edge17" class="edge">
<title>dir_dfce509d3294b4958bedddff0a015025&#45;&gt;dir_1dc53930709e46457d0e1484ec309f4d</title>
<path fill="none" stroke="black" d="M165.63,-215.7C160.28,-207.56 153.8,-197.69 147.89,-188.7"/>
<polygon fill="black" stroke="black" points="150.66,-186.54 142.24,-180.1 144.81,-190.38 150.66,-186.54"/>
<g id="a_edge17&#45;headlabel"><a xlink:href="dir_000036_000029.html" target="_top" xlink:title="3">
<text text-anchor="middle" x="155" y="-185.48" font-family="Helvetica,sans-Serif" font-size="10.00">3</text>
</a>
</g>
</g>
<!-- dir_dfce509d3294b4958bedddff0a015025&#45;&gt;dir_3a646564ec239f35c01425f0e9da2ba2 -->
<g id="edge18" class="edge">
<title>dir_dfce509d3294b4958bedddff0a015025&#45;&gt;dir_3a646564ec239f35c01425f0e9da2ba2</title>
<path fill="none" stroke="black" d="M177.48,-215.71C177.44,-197.35 175.79,-167.77 167,-144 163.45,-134.4 157.8,-124.85 152.02,-116.56"/>
<polygon fill="black" stroke="black" points="154.77,-114.4 146.03,-108.42 149.14,-118.55 154.77,-114.4"/>
<g id="a_edge18&#45;headlabel"><a xlink:href="dir_000036_000055.html" target="_top" xlink:title="1">
<text text-anchor="middle" x="159.19" y="-113.11" font-family="Helvetica,sans-Serif" font-size="10.00">1</text>
</a>
</g>
</g>
<!-- dir_dfce509d3294b4958bedddff0a015025&#45;&gt;dir_d44c64559bbebec7f509842c48db8b23 -->
<g id="edge19" class="edge">
<title>dir_dfce509d3294b4958bedddff0a015025&#45;&gt;dir_d44c64559bbebec7f509842c48db8b23</title>
<path fill="none" stroke="black" d="M183.97,-215.85C199.12,-178.6 235.11,-90.07 253.21,-45.54"/>
<polygon fill="black" stroke="black" points="256.47,-46.81 256.99,-36.23 249.99,-44.18 256.47,-46.81"/>
<g id="a_edge19&#45;headlabel"><a xlink:href="dir_000036_000042.html" target="_top" xlink:title="26">
<text text-anchor="middle" x="257.75" y="-48.71" font-family="Helvetica,sans-Serif" font-size="10.00">26</text>
</a>
</g>
</g>
<!-- dir_9c24722037d5ac7f64b4abda7bbd8009 -->
<g id="node6" class="node">
<title>dir_9c24722037d5ac7f64b4abda7bbd8009</title>
<g id="a_node6"><a xlink:href="dir_9c24722037d5ac7f64b4abda7bbd8009.html" target="_top" xlink:title="fs">
<polygon fill="#a2b4d6" stroke="#404040" points="270,-324 216,-324 216,-288 270,-288 270,-324"/>
<text text-anchor="middle" x="243" y="-303.5" font-family="Helvetica,sans-Serif" font-size="10.00">fs</text>
</a>
</g>
</g>
<!-- dir_9c24722037d5ac7f64b4abda7bbd8009&#45;&gt;dir_dfce509d3294b4958bedddff0a015025 -->
<g id="edge21" class="edge">
<title>dir_9c24722037d5ac7f64b4abda7bbd8009&#45;&gt;dir_dfce509d3294b4958bedddff0a015025</title>
<path fill="none" stroke="black" d="M226.69,-287.7C218.69,-279.22 208.93,-268.86 200.18,-259.58"/>
<polygon fill="black" stroke="black" points="202.53,-256.98 193.13,-252.1 197.44,-261.78 202.53,-256.98"/>
<g id="a_edge21&#45;headlabel"><a xlink:href="dir_000039_000036.html" target="_top" xlink:title="1">
<text text-anchor="middle" x="207.07" y="-255.15" font-family="Helvetica,sans-Serif" font-size="10.00">1</text>
</a>
</g>
</g>
<!-- dir_9c24722037d5ac7f64b4abda7bbd8009&#45;&gt;dir_3a646564ec239f35c01425f0e9da2ba2 -->
<g id="edge22" class="edge">
<title>dir_9c24722037d5ac7f64b4abda7bbd8009&#45;&gt;dir_3a646564ec239f35c01425f0e9da2ba2</title>
<path fill="none" stroke="black" d="M238.46,-287.93C229.8,-257.29 208.9,-191.72 177,-144 170.47,-134.23 162.33,-124.3 154.72,-115.71"/>
<polygon fill="black" stroke="black" points="157.25,-113.3 147.94,-108.25 152.07,-118 157.25,-113.3"/>
<g id="a_edge22&#45;headlabel"><a xlink:href="dir_000039_000055.html" target="_top" xlink:title="1">
<text text-anchor="middle" x="161.77" y="-111.55" font-family="Helvetica,sans-Serif" font-size="10.00">1</text>
</a>
</g>
</g>
<!-- dir_9c24722037d5ac7f64b4abda7bbd8009&#45;&gt;dir_d44c64559bbebec7f509842c48db8b23 -->
<g id="edge20" class="edge">
<title>dir_9c24722037d5ac7f64b4abda7bbd8009&#45;&gt;dir_d44c64559bbebec7f509842c48db8b23</title>
<path fill="none" stroke="black" d="M258.18,-287.7C265.73,-277.94 274.07,-265.1 278,-252 303.06,-168.57 293.67,-141.69 278,-56 277.39,-52.69 276.51,-49.29 275.47,-45.96"/>
<polygon fill="black" stroke="black" points="278.69,-44.56 272.03,-36.32 272.09,-46.91 278.69,-44.56"/>
<g id="a_edge20&#45;headlabel"><a xlink:href="dir_000039_000042.html" target="_top" xlink:title="11">
<text text-anchor="middle" x="282.57" y="-44.49" font-family="Helvetica,sans-Serif" font-size="10.00">11</text>
</a>
</g>
</g>
<!-- dir_3a646564ec239f35c01425f0e9da2ba2&#45;&gt;dir_1dc53930709e46457d0e1484ec309f4d -->
<g id="edge23" class="edge">
<title>dir_3a646564ec239f35c01425f0e9da2ba2&#45;&gt;dir_1dc53930709e46457d0e1484ec309f4d</title>
<path fill="none" stroke="black" d="M136.9,-108.1C137.7,-115.79 137.94,-125.05 137.6,-133.67"/>
<polygon fill="black" stroke="black" points="134.11,-133.48 136.92,-143.7 141.09,-133.96 134.11,-133.48"/>
<g id="a_edge23&#45;headlabel"><a xlink:href="dir_000055_000029.html" target="_top" xlink:title="2">
<text text-anchor="middle" x="131.52" y="-127.2" font-family="Helvetica,sans-Serif" font-size="10.00">2</text>
</a>
</g>
</g>
<!-- dir_3a646564ec239f35c01425f0e9da2ba2&#45;&gt;dir_d44c64559bbebec7f509842c48db8b23 -->
<g id="edge24" class="edge">
<title>dir_3a646564ec239f35c01425f0e9da2ba2&#45;&gt;dir_d44c64559bbebec7f509842c48db8b23</title>
<path fill="none" stroke="black" d="M150.69,-71.68C157.47,-66.23 165.3,-60.47 173,-56 190.01,-46.12 210.17,-37.63 227.19,-31.29"/>
<polygon fill="black" stroke="black" points="228.59,-34.5 236.79,-27.8 226.2,-27.92 228.59,-34.5"/>
<g id="a_edge24&#45;headlabel"><a xlink:href="dir_000055_000042.html" target="_top" xlink:title="21">
<text text-anchor="middle" x="226.17" y="-35.9" font-family="Helvetica,sans-Serif" font-size="10.00">21</text>
</a>
</g>
</g>
</g>
</svg>
