<?xml version="1.0" encoding="UTF-8" standalone="no"?>
<!DOCTYPE svg PUBLIC "-//W3C//DTD SVG 1.1//EN"
 "http://www.w3.org/Graphics/SVG/1.1/DTD/svg11.dtd">
<!-- Generated by graphviz version 8.0.2 (20230410.1723)
 -->
<!-- Title: src/kernel/fs Pages: 1 -->
<svg width="254pt" height="159pt"
 viewBox="0.00 0.00 254.00 159.00" xmlns="http://www.w3.org/2000/svg" xmlns:xlink="http://www.w3.org/1999/xlink">
<g id="graph0" class="graph" transform="scale(1 1) rotate(0) translate(4 155)">
<title>src/kernel/fs</title>
<g id="clust1" class="cluster">
<title>clusterdir_cbd7f246bdf7dc0a50281a272327e6ed</title>
<g id="a_clust1"><a xlink:href="dir_cbd7f246bdf7dc0a50281a272327e6ed.html" target="_top" xlink:title="kernel">
<polygon fill="#ddddee" stroke="black" points="8,-56 8,-143 238,-143 238,-56 8,-56"/>
<text text-anchor="middle" x="123" y="-131" font-family="Helvetica,sans-Serif" font-size="10.00">kernel</text>
</a>
</g>
</g>
<g id="clust2" class="cluster">
<title>clusterdir_f848a285e60993dcb3189737897d2857</title>
<g id="a_clust2"><a xlink:href="dir_f848a285e60993dcb3189737897d2857.html" target="_top">
<polygon fill="#eeeeff" stroke="black" points="16,-64 16,-116 230,-116 230,-64 16,-64"/>
</a>
</g>
</g>
<!-- dir_f848a285e60993dcb3189737897d2857 -->
<g id="node1" class="node">
<title>dir_f848a285e60993dcb3189737897d2857</title>
<text text-anchor="middle" x="195" y="-87.5" font-family="Helvetica,sans-Serif" font-size="10.00">fs</text>
</g>
<!-- dir_2e95ce4a5068cdb7f763a419080ea446 -->
<g id="node2" class="node">
<title>dir_2e95ce4a5068cdb7f763a419080ea446</title>
<g id="a_node2"><a xlink:href="dir_2e95ce4a5068cdb7f763a419080ea446.html" target="_top" xlink:title="dev">
<polygon fill="white" stroke="black" points="150,-108 96,-108 96,-72 150,-72 150,-108"/>
<text text-anchor="middle" x="123" y="-87.5" font-family="Helvetica,sans-Serif" font-size="10.00">dev</text>
</a>
</g>
</g>
<!-- dir_d44c64559bbebec7f509842c48db8b23 -->
<g id="node4" class="node">
<title>dir_d44c64559bbebec7f509842c48db8b23</title>
<g id="a_node4"><a xlink:href="dir_d44c64559bbebec7f509842c48db8b23.html" target="_top" xlink:title="include">
<polygon fill="none" stroke="red" points="114,-36 60,-36 60,0 114,0 114,-36"/>
<text text-anchor="middle" x="87" y="-15.5" font-family="Helvetica,sans-Serif" font-size="10.00">include</text>
</a>
</g>
</g>
<!-- dir_2e95ce4a5068cdb7f763a419080ea446&#45;&gt;dir_d44c64559bbebec7f509842c48db8b23 -->
<g id="edge2" class="edge">
<title>dir_2e95ce4a5068cdb7f763a419080ea446&#45;&gt;dir_d44c64559bbebec7f509842c48db8b23</title>
<path fill="none" stroke="black" d="M114.1,-71.7C110.09,-63.9 105.26,-54.51 100.8,-45.83"/>
<polygon fill="black" stroke="black" points="103.48,-44.4 95.8,-37.1 97.26,-47.6 103.48,-44.4"/>
<g id="a_edge2&#45;headlabel"><a xlink:href="dir_000056_000000.html" target="_top" xlink:title="10">
<text text-anchor="middle" x="107.65" y="-42.79" font-family="Helvetica,sans-Serif" font-size="10.00">10</text>
</a>
</g>
</g>
<!-- dir_1944056f6d006c62539e1c7c6fbe9447 -->
<g id="node3" class="node">
<title>dir_1944056f6d006c62539e1c7c6fbe9447</title>
<g id="a_node3"><a xlink:href="dir_1944056f6d006c62539e1c7c6fbe9447.html" target="_top" xlink:title="proc">
<polygon fill="white" stroke="black" points="78,-108 24,-108 24,-72 78,-72 78,-108"/>
<text text-anchor="middle" x="51" y="-87.5" font-family="Helvetica,sans-Serif" font-size="10.00">proc</text>
</a>
</g>
</g>
<!-- dir_1944056f6d006c62539e1c7c6fbe9447&#45;&gt;dir_d44c64559bbebec7f509842c48db8b23 -->
<g id="edge1" class="edge">
<title>dir_1944056f6d006c62539e1c7c6fbe9447&#45;&gt;dir_d44c64559bbebec7f509842c48db8b23</title>
<path fill="none" stroke="black" d="M59.9,-71.7C63.91,-63.9 68.74,-54.51 73.2,-45.83"/>
<polygon fill="black" stroke="black" points="76.74,-47.6 78.2,-37.1 70.52,-44.4 76.74,-47.6"/>
<g id="a_edge1&#45;headlabel"><a xlink:href="dir_000057_000000.html" target="_top" xlink:title="12">
<text text-anchor="middle" x="77.62" y="-48.59" font-family="Helvetica,sans-Serif" font-size="10.00">12</text>
</a>
</g>
</g>
</g>
</svg>
