<?xml version="1.0" encoding="UTF-8" standalone="no"?>
<!DOCTYPE svg PUBLIC "-//W3C//DTD SVG 1.1//EN"
 "http://www.w3.org/Graphics/SVG/1.1/DTD/svg11.dtd">
<!-- Generated by graphviz version 3.0.0 (20220226.1711)
 -->
<!-- Title: src/kernel/arch/aarch64/board/raspi3 Pages: 1 -->
<svg width="326pt" height="159pt"
 viewBox="0.00 0.00 326.00 159.00" xmlns="http://www.w3.org/2000/svg" xmlns:xlink="http://www.w3.org/1999/xlink">
<g id="graph0" class="graph" transform="scale(1 1) rotate(0) translate(4 155)">
<title>src/kernel/arch/aarch64/board/raspi3</title>
<g id="clust1" class="cluster">
<title>clusterdir_b30df4826c7011c0e76e14e84665bb61</title>
<g id="a_clust1"><a xlink:href="dir_b30df4826c7011c0e76e14e84665bb61.html" target="_top" xlink:title="board">
<polygon fill="#ddddee" stroke="black" points="8,-56 8,-143 310,-143 310,-56 8,-56"/>
<text text-anchor="middle" x="159" y="-131" font-family="Helvetica,sans-Serif" font-size="10.00">board</text>
</a>
</g>
</g>
<g id="clust2" class="cluster">
<title>clusterdir_0ee13ef8e704275bb683062618b87174</title>
<g id="a_clust2"><a xlink:href="dir_0ee13ef8e704275bb683062618b87174.html" target="_top">
<polygon fill="#eeeeff" stroke="black" points="16,-64 16,-116 302,-116 302,-64 16,-64"/>
</a>
</g>
</g>
<!-- dir_0ee13ef8e704275bb683062618b87174 -->
<g id="node1" class="node">
<title>dir_0ee13ef8e704275bb683062618b87174</title>
<text text-anchor="middle" x="267" y="-87.5" font-family="Helvetica,sans-Serif" font-size="10.00">raspi3</text>
</g>
<!-- dir_1742f59156db57e3c3c19d5377929d16 -->
<g id="node2" class="node">
<title>dir_1742f59156db57e3c3c19d5377929d16</title>
<g id="a_node2"><a xlink:href="dir_1742f59156db57e3c3c19d5377929d16.html" target="_top" xlink:title="arch">
<polygon fill="white" stroke="black" points="222,-108 168,-108 168,-72 222,-72 222,-108"/>
<text text-anchor="middle" x="195" y="-87.5" font-family="Helvetica,sans-Serif" font-size="10.00">arch</text>
</a>
</g>
</g>
<!-- dir_d44c64559bbebec7f509842c48db8b23 -->
<g id="node5" class="node">
<title>dir_d44c64559bbebec7f509842c48db8b23</title>
<g id="a_node5"><a xlink:href="dir_d44c64559bbebec7f509842c48db8b23.html" target="_top" xlink:title="include">
<polygon fill="none" stroke="red" points="150,-36 96,-36 96,0 150,0 150,-36"/>
<text text-anchor="middle" x="123" y="-15.5" font-family="Helvetica,sans-Serif" font-size="10.00">include</text>
</a>
</g>
</g>
<!-- dir_1742f59156db57e3c3c19d5377929d16&#45;&gt;dir_d44c64559bbebec7f509842c48db8b23 -->
<g id="edge1" class="edge">
<title>dir_1742f59156db57e3c3c19d5377929d16&#45;&gt;dir_d44c64559bbebec7f509842c48db8b23</title>
<path fill="none" stroke="black" d="M177.2,-71.7C168.4,-63.14 157.62,-52.66 148,-43.3"/>
<polygon fill="black" stroke="black" points="150.2,-40.57 140.59,-36.1 145.32,-45.58 150.2,-40.57"/>
<g id="a_edge1&#45;headlabel"><a xlink:href="dir_000025_000000.html" target="_top" xlink:title="12">
<text text-anchor="middle" x="154.76" y="-38.54" font-family="Helvetica,sans-Serif" font-size="10.00">12</text>
</a>
</g>
</g>
<!-- dir_115e9e33fc1490a9fac5bf904c60a358 -->
<g id="node3" class="node">
<title>dir_115e9e33fc1490a9fac5bf904c60a358</title>
<g id="a_node3"><a xlink:href="dir_115e9e33fc1490a9fac5bf904c60a358.html" target="_top" xlink:title="core">
<polygon fill="white" stroke="black" points="150,-108 96,-108 96,-72 150,-72 150,-108"/>
<text text-anchor="middle" x="123" y="-87.5" font-family="Helvetica,sans-Serif" font-size="10.00">core</text>
</a>
</g>
</g>
<!-- dir_b5c5136b0a2ed351fa08c658cfa1f98a -->
<g id="node4" class="node">
<title>dir_b5c5136b0a2ed351fa08c658cfa1f98a</title>
<g id="a_node4"><a xlink:href="dir_b5c5136b0a2ed351fa08c658cfa1f98a.html" target="_top" xlink:title="mmu">
<polygon fill="white" stroke="black" points="78,-108 24,-108 24,-72 78,-72 78,-108"/>
<text text-anchor="middle" x="51" y="-87.5" font-family="Helvetica,sans-Serif" font-size="10.00">mmu</text>
</a>
</g>
</g>
<!-- dir_b5c5136b0a2ed351fa08c658cfa1f98a&#45;&gt;dir_d44c64559bbebec7f509842c48db8b23 -->
<g id="edge2" class="edge">
<title>dir_b5c5136b0a2ed351fa08c658cfa1f98a&#45;&gt;dir_d44c64559bbebec7f509842c48db8b23</title>
<path fill="none" stroke="black" d="M68.8,-71.7C77.6,-63.14 88.38,-52.66 98,-43.3"/>
<polygon fill="black" stroke="black" points="100.68,-45.58 105.41,-36.1 95.8,-40.57 100.68,-45.58"/>
<g id="a_edge2&#45;headlabel"><a xlink:href="dir_000041_000000.html" target="_top" xlink:title="1">
<text text-anchor="middle" x="100.08" y="-47.63" font-family="Helvetica,sans-Serif" font-size="10.00">1</text>
</a>
</g>
</g>
</g>
</svg>
