<?xml version="1.0" encoding="UTF-8" standalone="no"?>
<!DOCTYPE svg PUBLIC "-//W3C//DTD SVG 1.1//EN"
 "http://www.w3.org/Graphics/SVG/1.1/DTD/svg11.dtd">
<!-- Generated by graphviz version 8.0.2 (20230410.1723)
 -->
<!-- Title: include/kernel/sys Pages: 1 -->
<svg width="94pt" height="151pt"
 viewBox="0.00 0.00 94.00 151.00" xmlns="http://www.w3.org/2000/svg" xmlns:xlink="http://www.w3.org/1999/xlink">
<g id="graph0" class="graph" transform="scale(1 1) rotate(0) translate(4 147)">
<title>include/kernel/sys</title>
<g id="clust1" class="cluster">
<title>clusterdir_2ae24886e77657f82343b4b0154efdc1</title>
<g id="a_clust1"><a xlink:href="dir_2ae24886e77657f82343b4b0154efdc1.html" target="_top" xlink:title="kernel">
<polygon fill="#ddddee" stroke="black" points="8,-64 8,-135 78,-135 78,-64 8,-64"/>
<text text-anchor="middle" x="43" y="-123" font-family="Helvetica,sans-Serif" font-size="10.00">kernel</text>
</a>
</g>
</g>
<!-- dir_a0ffd90eda9fe9d19fd364f796da6911 -->
<g id="node1" class="node">
<title>dir_a0ffd90eda9fe9d19fd364f796da6911</title>
<g id="a_node1"><a xlink:href="dir_a0ffd90eda9fe9d19fd364f796da6911.html" target="_top" xlink:title="sys">
<polygon fill="#eeeeff" stroke="black" points="70,-108 16,-108 16,-72 70,-72 70,-108"/>
<text text-anchor="middle" x="43" y="-87.5" font-family="Helvetica,sans-Serif" font-size="10.00">sys</text>
</a>
</g>
</g>
<!-- dir_f9f386f816a45f0ffce9eeb77a177fce -->
<g id="node2" class="node">
<title>dir_f9f386f816a45f0ffce9eeb77a177fce</title>
<g id="a_node2"><a xlink:href="dir_f9f386f816a45f0ffce9eeb77a177fce.html" target="_top" xlink:title="libc">
<polygon fill="none" stroke="red" points="70,-36 16,-36 16,0 70,0 70,-36"/>
<text text-anchor="middle" x="43" y="-15.5" font-family="Helvetica,sans-Serif" font-size="10.00">libc</text>
</a>
</g>
</g>
<!-- dir_a0ffd90eda9fe9d19fd364f796da6911&#45;&gt;dir_f9f386f816a45f0ffce9eeb77a177fce -->
<g id="edge1" class="edge">
<title>dir_a0ffd90eda9fe9d19fd364f796da6911&#45;&gt;dir_f9f386f816a45f0ffce9eeb77a177fce</title>
<path fill="none" stroke="black" d="M43,-71.7C43,-64.24 43,-55.32 43,-46.97"/>
<polygon fill="black" stroke="black" points="46.5,-47.1 43,-37.1 39.5,-47.1 46.5,-47.1"/>
<g id="a_edge1&#45;headlabel"><a xlink:href="dir_000019_000028.html" target="_top" xlink:title="5">
<text text-anchor="middle" x="49.34" y="-47.2" font-family="Helvetica,sans-Serif" font-size="10.00">5</text>
</a>
</g>
</g>
</g>
</svg>
