<?xml version="1.0" encoding="UTF-8" standalone="no"?>
<!DOCTYPE svg PUBLIC "-//W3C//DTD SVG 1.1//EN"
 "http://www.w3.org/Graphics/SVG/1.1/DTD/svg11.dtd">
<!-- Generated by graphviz version 3.0.0 (20220226.1711)
 -->
<!-- Title: src/kernel/arch/x86_64 Pages: 1 -->
<svg width="296pt" height="447pt"
 viewBox="0.00 0.00 296.00 447.00" xmlns="http://www.w3.org/2000/svg" xmlns:xlink="http://www.w3.org/1999/xlink">
<g id="graph0" class="graph" transform="scale(1 1) rotate(0) translate(4 443)">
<title>src/kernel/arch/x86_64</title>
<g id="clust1" class="cluster">
<title>clusterdir_76e3dd4d2fa719e8d3b096e9aa563982</title>
<g id="a_clust1"><a xlink:href="dir_76e3dd4d2fa719e8d3b096e9aa563982.html" target="_top" xlink:title="arch">
<polygon fill="#ddddee" stroke="black" points="8,-56 8,-431 226,-431 226,-56 8,-56"/>
<text text-anchor="middle" x="117" y="-419" font-family="Helvetica,sans-Serif" font-size="10.00">arch</text>
</a>
</g>
</g>
<g id="clust2" class="cluster">
<title>clusterdir_7c4c796ec9937bed8074dafcec3d25e4</title>
<g id="a_clust2"><a xlink:href="dir_7c4c796ec9937bed8074dafcec3d25e4.html" target="_top">
<polygon fill="#eeeeff" stroke="black" points="16,-64 16,-404 218,-404 218,-64 16,-64"/>
</a>
</g>
</g>
<!-- dir_7c4c796ec9937bed8074dafcec3d25e4 -->
<g id="node1" class="node">
<title>dir_7c4c796ec9937bed8074dafcec3d25e4</title>
<text text-anchor="middle" x="173" y="-375.5" font-family="Helvetica,sans-Serif" font-size="10.00">x86_64</text>
</g>
<!-- dir_2acc9ac41bab451ccb7f12c38e9a27aa -->
<g id="node2" class="node">
<title>dir_2acc9ac41bab451ccb7f12c38e9a27aa</title>
<g id="a_node2"><a xlink:href="dir_2acc9ac41bab451ccb7f12c38e9a27aa.html" target="_top" xlink:title="arch">
<polygon fill="white" stroke="black" points="118,-396 64,-396 64,-360 118,-360 118,-396"/>
<text text-anchor="middle" x="91" y="-375.5" font-family="Helvetica,sans-Serif" font-size="10.00">arch</text>
</a>
</g>
</g>
<!-- dir_42d4540ea64ab009ab7a7dcd79fe63e8 -->
<g id="node3" class="node">
<title>dir_42d4540ea64ab009ab7a7dcd79fe63e8</title>
<g id="a_node3"><a xlink:href="dir_42d4540ea64ab009ab7a7dcd79fe63e8.html" target="_top" xlink:title="console">
<polygon fill="white" stroke="black" points="118,-324 64,-324 64,-288 118,-288 118,-324"/>
<text text-anchor="middle" x="91" y="-303.5" font-family="Helvetica,sans-Serif" font-size="10.00">console</text>
</a>
</g>
</g>
<!-- dir_2acc9ac41bab451ccb7f12c38e9a27aa&#45;&gt;dir_42d4540ea64ab009ab7a7dcd79fe63e8 -->
<g id="edge4" class="edge">
<title>dir_2acc9ac41bab451ccb7f12c38e9a27aa&#45;&gt;dir_42d4540ea64ab009ab7a7dcd79fe63e8</title>
<path fill="none" stroke="black" d="M91,-359.7C91,-351.98 91,-342.71 91,-334.11"/>
<polygon fill="black" stroke="black" points="94.5,-334.1 91,-324.1 87.5,-334.1 94.5,-334.1"/>
<g id="a_edge4&#45;headlabel"><a xlink:href="dir_000026_000047.html" target="_top" xlink:title="1">
<text text-anchor="middle" x="97.34" y="-335.2" font-family="Helvetica,sans-Serif" font-size="10.00">1</text>
</a>
</g>
</g>
<!-- dir_1dc53930709e46457d0e1484ec309f4d -->
<g id="node4" class="node">
<title>dir_1dc53930709e46457d0e1484ec309f4d</title>
<g id="a_node4"><a xlink:href="dir_1dc53930709e46457d0e1484ec309f4d.html" target="_top" xlink:title="core">
<polygon fill="white" stroke="black" points="108,-108 54,-108 54,-72 108,-72 108,-108"/>
<text text-anchor="middle" x="81" y="-87.5" font-family="Helvetica,sans-Serif" font-size="10.00">core</text>
</a>
</g>
</g>
<!-- dir_2acc9ac41bab451ccb7f12c38e9a27aa&#45;&gt;dir_1dc53930709e46457d0e1484ec309f4d -->
<g id="edge2" class="edge">
<title>dir_2acc9ac41bab451ccb7f12c38e9a27aa&#45;&gt;dir_1dc53930709e46457d0e1484ec309f4d</title>
<path fill="none" stroke="black" d="M70.62,-359.53C61.19,-350.09 50.99,-337.6 46,-324 34.7,-293.23 25.14,-262.38 56,-144 58.39,-134.84 62.34,-125.35 66.4,-116.96"/>
<polygon fill="black" stroke="black" points="69.53,-118.55 70.96,-108.05 63.29,-115.36 69.53,-118.55"/>
<g id="a_edge2&#45;headlabel"><a xlink:href="dir_000026_000046.html" target="_top" xlink:title="2">
<text text-anchor="middle" x="70.42" y="-120.54" font-family="Helvetica,sans-Serif" font-size="10.00">2</text>
</a>
</g>
</g>
<!-- dir_dfce509d3294b4958bedddff0a015025 -->
<g id="node5" class="node">
<title>dir_dfce509d3294b4958bedddff0a015025</title>
<g id="a_node5"><a xlink:href="dir_dfce509d3294b4958bedddff0a015025.html" target="_top" xlink:title="drivers">
<polygon fill="white" stroke="black" points="164,-252 110,-252 110,-216 164,-216 164,-252"/>
<text text-anchor="middle" x="137" y="-231.5" font-family="Helvetica,sans-Serif" font-size="10.00">drivers</text>
</a>
</g>
</g>
<!-- dir_2acc9ac41bab451ccb7f12c38e9a27aa&#45;&gt;dir_dfce509d3294b4958bedddff0a015025 -->
<g id="edge6" class="edge">
<title>dir_2acc9ac41bab451ccb7f12c38e9a27aa&#45;&gt;dir_dfce509d3294b4958bedddff0a015025</title>
<path fill="none" stroke="black" d="M106.03,-359.58C113.62,-349.78 122.22,-336.94 127,-324 134.32,-304.22 136.69,-280.42 137.3,-262.41"/>
<polygon fill="black" stroke="black" points="140.8,-262.35 137.48,-252.29 133.8,-262.23 140.8,-262.35"/>
<g id="a_edge6&#45;headlabel"><a xlink:href="dir_000026_000048.html" target="_top" xlink:title="5">
<text text-anchor="middle" x="143.57" y="-263.5" font-family="Helvetica,sans-Serif" font-size="10.00">5</text>
</a>
</g>
</g>
<!-- dir_3a646564ec239f35c01425f0e9da2ba2 -->
<g id="node7" class="node">
<title>dir_3a646564ec239f35c01425f0e9da2ba2</title>
<g id="a_node7"><a xlink:href="dir_3a646564ec239f35c01425f0e9da2ba2.html" target="_top" xlink:title="mmu">
<polygon fill="white" stroke="black" points="126,-180 72,-180 72,-144 126,-144 126,-180"/>
<text text-anchor="middle" x="99" y="-159.5" font-family="Helvetica,sans-Serif" font-size="10.00">mmu</text>
</a>
</g>
</g>
<!-- dir_2acc9ac41bab451ccb7f12c38e9a27aa&#45;&gt;dir_3a646564ec239f35c01425f0e9da2ba2 -->
<g id="edge3" class="edge">
<title>dir_2acc9ac41bab451ccb7f12c38e9a27aa&#45;&gt;dir_3a646564ec239f35c01425f0e9da2ba2</title>
<path fill="none" stroke="black" d="M75.39,-359.77C67.63,-350.03 59.05,-337.18 55,-324 40.43,-276.61 64.99,-220.64 82.89,-188.74"/>
<polygon fill="black" stroke="black" points="85.95,-190.43 87.95,-180.02 79.9,-186.91 85.95,-190.43"/>
<g id="a_edge3&#45;headlabel"><a xlink:href="dir_000026_000042.html" target="_top" xlink:title="1">
<text text-anchor="middle" x="86.6" y="-192.46" font-family="Helvetica,sans-Serif" font-size="10.00">1</text>
</a>
</g>
</g>
<!-- dir_d44c64559bbebec7f509842c48db8b23 -->
<g id="node8" class="node">
<title>dir_d44c64559bbebec7f509842c48db8b23</title>
<g id="a_node8"><a xlink:href="dir_d44c64559bbebec7f509842c48db8b23.html" target="_top" xlink:title="include">
<polygon fill="none" stroke="red" points="220,-36 166,-36 166,0 220,0 220,-36"/>
<text text-anchor="middle" x="193" y="-15.5" font-family="Helvetica,sans-Serif" font-size="10.00">include</text>
</a>
</g>
</g>
<!-- dir_2acc9ac41bab451ccb7f12c38e9a27aa&#45;&gt;dir_d44c64559bbebec7f509842c48db8b23 -->
<g id="edge5" class="edge">
<title>dir_2acc9ac41bab451ccb7f12c38e9a27aa&#45;&gt;dir_d44c64559bbebec7f509842c48db8b23</title>
<path fill="none" stroke="black" d="M118.22,-366.59C153.24,-353.06 210.59,-330.42 219,-324 258.79,-293.63 288,-285.05 288,-235 288,-235 288,-235 288,-161 288,-111.06 279.06,-95.1 248,-56 242.65,-49.26 235.73,-43.31 228.62,-38.25"/>
<polygon fill="black" stroke="black" points="230.54,-35.32 220.27,-32.73 226.69,-41.16 230.54,-35.32"/>
<g id="a_edge5&#45;headlabel"><a xlink:href="dir_000026_000000.html" target="_top" xlink:title="25">
<text text-anchor="middle" x="235.11" y="-32.43" font-family="Helvetica,sans-Serif" font-size="10.00">25</text>
</a>
</g>
</g>
<!-- dir_42d4540ea64ab009ab7a7dcd79fe63e8&#45;&gt;dir_1dc53930709e46457d0e1484ec309f4d -->
<g id="edge9" class="edge">
<title>dir_42d4540ea64ab009ab7a7dcd79fe63e8&#45;&gt;dir_1dc53930709e46457d0e1484ec309f4d</title>
<path fill="none" stroke="black" d="M84.11,-287.62C73.28,-258.12 54.35,-196.34 63,-144 64.44,-135.28 67.13,-126.06 70,-117.8"/>
<polygon fill="black" stroke="black" points="73.33,-118.89 73.52,-108.3 66.77,-116.46 73.33,-118.89"/>
<g id="a_edge9&#45;headlabel"><a xlink:href="dir_000047_000046.html" target="_top" xlink:title="1">
<text text-anchor="middle" x="74.74" y="-120.75" font-family="Helvetica,sans-Serif" font-size="10.00">1</text>
</a>
</g>
</g>
<!-- dir_42d4540ea64ab009ab7a7dcd79fe63e8&#45;&gt;dir_dfce509d3294b4958bedddff0a015025 -->
<g id="edge12" class="edge">
<title>dir_42d4540ea64ab009ab7a7dcd79fe63e8&#45;&gt;dir_dfce509d3294b4958bedddff0a015025</title>
<path fill="none" stroke="black" d="M102.37,-287.7C107.72,-279.56 114.2,-269.69 120.11,-260.7"/>
<polygon fill="black" stroke="black" points="123.19,-262.38 125.76,-252.1 117.34,-258.54 123.19,-262.38"/>
<g id="a_edge12&#45;headlabel"><a xlink:href="dir_000047_000048.html" target="_top" xlink:title="1">
<text text-anchor="middle" x="123.59" y="-264.45" font-family="Helvetica,sans-Serif" font-size="10.00">1</text>
</a>
</g>
</g>
<!-- dir_42d4540ea64ab009ab7a7dcd79fe63e8&#45;&gt;dir_3a646564ec239f35c01425f0e9da2ba2 -->
<g id="edge10" class="edge">
<title>dir_42d4540ea64ab009ab7a7dcd79fe63e8&#45;&gt;dir_3a646564ec239f35c01425f0e9da2ba2</title>
<path fill="none" stroke="black" d="M91.96,-287.87C93.33,-263.67 95.83,-219.21 97.46,-190.39"/>
<polygon fill="black" stroke="black" points="100.96,-190.37 98.03,-180.19 93.97,-189.98 100.96,-190.37"/>
<g id="a_edge10&#45;headlabel"><a xlink:href="dir_000047_000042.html" target="_top" xlink:title="1">
<text text-anchor="middle" x="103.6" y="-191.62" font-family="Helvetica,sans-Serif" font-size="10.00">1</text>
</a>
</g>
</g>
<!-- dir_42d4540ea64ab009ab7a7dcd79fe63e8&#45;&gt;dir_d44c64559bbebec7f509842c48db8b23 -->
<g id="edge11" class="edge">
<title>dir_42d4540ea64ab009ab7a7dcd79fe63e8&#45;&gt;dir_d44c64559bbebec7f509842c48db8b23</title>
<path fill="none" stroke="black" d="M118.12,-294.8C136.77,-286.3 160.36,-272.28 173,-252 213.25,-187.4 205.28,-92.46 198.12,-46.26"/>
<polygon fill="black" stroke="black" points="201.53,-45.43 196.44,-36.13 194.62,-46.57 201.53,-45.43"/>
<g id="a_edge11&#45;headlabel"><a xlink:href="dir_000047_000000.html" target="_top" xlink:title="7">
<text text-anchor="middle" x="204.92" y="-46.01" font-family="Helvetica,sans-Serif" font-size="10.00">7</text>
</a>
</g>
</g>
<!-- dir_1dc53930709e46457d0e1484ec309f4d&#45;&gt;dir_d44c64559bbebec7f509842c48db8b23 -->
<g id="edge1" class="edge">
<title>dir_1dc53930709e46457d0e1484ec309f4d&#45;&gt;dir_d44c64559bbebec7f509842c48db8b23</title>
<path fill="none" stroke="black" d="M100.84,-71.73C107.37,-66.4 114.81,-60.7 122,-56 132.91,-48.87 145.35,-42 156.73,-36.15"/>
<polygon fill="black" stroke="black" points="158.63,-39.12 166,-31.5 155.49,-32.86 158.63,-39.12"/>
<g id="a_edge1&#45;headlabel"><a xlink:href="dir_000046_000000.html" target="_top" xlink:title="3">
<text text-anchor="middle" x="156.69" y="-40.77" font-family="Helvetica,sans-Serif" font-size="10.00">3</text>
</a>
</g>
</g>
<!-- dir_dfce509d3294b4958bedddff0a015025&#45;&gt;dir_1dc53930709e46457d0e1484ec309f4d -->
<g id="edge16" class="edge">
<title>dir_dfce509d3294b4958bedddff0a015025&#45;&gt;dir_1dc53930709e46457d0e1484ec309f4d</title>
<path fill="none" stroke="black" d="M140.31,-215.79C143.06,-197.24 145.07,-167.26 135,-144 130.24,-133 122.01,-123.1 113.39,-114.93"/>
<polygon fill="black" stroke="black" points="115.6,-112.21 105.79,-108.2 110.95,-117.45 115.6,-112.21"/>
<g id="a_edge16&#45;headlabel"><a xlink:href="dir_000048_000046.html" target="_top" xlink:title="3">
<text text-anchor="middle" x="120.17" y="-109.97" font-family="Helvetica,sans-Serif" font-size="10.00">3</text>
</a>
</g>
</g>
<!-- dir_dfce509d3294b4958bedddff0a015025&#45;&gt;dir_3a646564ec239f35c01425f0e9da2ba2 -->
<g id="edge17" class="edge">
<title>dir_dfce509d3294b4958bedddff0a015025&#45;&gt;dir_3a646564ec239f35c01425f0e9da2ba2</title>
<path fill="none" stroke="black" d="M127.61,-215.7C123.24,-207.64 117.94,-197.89 113.1,-188.98"/>
<polygon fill="black" stroke="black" points="116.13,-187.22 108.29,-180.1 109.98,-190.56 116.13,-187.22"/>
<g id="a_edge17&#45;headlabel"><a xlink:href="dir_000048_000042.html" target="_top" xlink:title="1">
<text text-anchor="middle" x="120.34" y="-186.53" font-family="Helvetica,sans-Serif" font-size="10.00">1</text>
</a>
</g>
</g>
<!-- dir_dfce509d3294b4958bedddff0a015025&#45;&gt;dir_d44c64559bbebec7f509842c48db8b23 -->
<g id="edge18" class="edge">
<title>dir_dfce509d3294b4958bedddff0a015025&#45;&gt;dir_d44c64559bbebec7f509842c48db8b23</title>
<path fill="none" stroke="black" d="M141.49,-215.85C151.2,-178.75 174.21,-90.81 185.91,-46.1"/>
<polygon fill="black" stroke="black" points="189.34,-46.79 188.49,-36.23 182.57,-45.02 189.34,-46.79"/>
<g id="a_edge18&#45;headlabel"><a xlink:href="dir_000048_000000.html" target="_top" xlink:title="26">
<text text-anchor="middle" x="191.18" y="-48.49" font-family="Helvetica,sans-Serif" font-size="10.00">26</text>
</a>
</g>
</g>
<!-- dir_9c24722037d5ac7f64b4abda7bbd8009 -->
<g id="node6" class="node">
<title>dir_9c24722037d5ac7f64b4abda7bbd8009</title>
<g id="a_node6"><a xlink:href="dir_9c24722037d5ac7f64b4abda7bbd8009.html" target="_top" xlink:title="fs">
<polygon fill="white" stroke="red" points="210,-324 156,-324 156,-288 210,-288 210,-324"/>
<text text-anchor="middle" x="183" y="-303.5" font-family="Helvetica,sans-Serif" font-size="10.00">fs</text>
</a>
</g>
</g>
<!-- dir_9c24722037d5ac7f64b4abda7bbd8009&#45;&gt;dir_dfce509d3294b4958bedddff0a015025 -->
<g id="edge14" class="edge">
<title>dir_9c24722037d5ac7f64b4abda7bbd8009&#45;&gt;dir_dfce509d3294b4958bedddff0a015025</title>
<path fill="none" stroke="black" d="M171.63,-287.7C166.28,-279.56 159.8,-269.69 153.89,-260.7"/>
<polygon fill="black" stroke="black" points="156.66,-258.54 148.24,-252.1 150.81,-262.38 156.66,-258.54"/>
<g id="a_edge14&#45;headlabel"><a xlink:href="dir_000049_000048.html" target="_top" xlink:title="1">
<text text-anchor="middle" x="161" y="-257.48" font-family="Helvetica,sans-Serif" font-size="10.00">1</text>
</a>
</g>
</g>
<!-- dir_9c24722037d5ac7f64b4abda7bbd8009&#45;&gt;dir_3a646564ec239f35c01425f0e9da2ba2 -->
<g id="edge15" class="edge">
<title>dir_9c24722037d5ac7f64b4abda7bbd8009&#45;&gt;dir_3a646564ec239f35c01425f0e9da2ba2</title>
<path fill="none" stroke="black" d="M185,-287.99C186.39,-269.07 186.06,-238.26 173,-216 164.13,-200.88 149.04,-188.9 134.8,-180.19"/>
<polygon fill="black" stroke="black" points="136.51,-177.14 126.1,-175.19 133.02,-183.21 136.51,-177.14"/>
<g id="a_edge15&#45;headlabel"><a xlink:href="dir_000049_000042.html" target="_top" xlink:title="1">
<text text-anchor="middle" x="141.04" y="-173.97" font-family="Helvetica,sans-Serif" font-size="10.00">1</text>
</a>
</g>
</g>
<!-- dir_9c24722037d5ac7f64b4abda7bbd8009&#45;&gt;dir_d44c64559bbebec7f509842c48db8b23 -->
<g id="edge13" class="edge">
<title>dir_9c24722037d5ac7f64b4abda7bbd8009&#45;&gt;dir_d44c64559bbebec7f509842c48db8b23</title>
<path fill="none" stroke="black" d="M202.04,-287.84C211.18,-278.3 221.17,-265.62 226,-252 255.12,-169.9 257.03,-137.4 226,-56 224.45,-51.93 222.22,-48.02 219.64,-44.37"/>
<polygon fill="black" stroke="black" points="222.17,-41.93 213.15,-36.37 216.73,-46.34 222.17,-41.93"/>
<g id="a_edge13&#45;headlabel"><a xlink:href="dir_000049_000000.html" target="_top" xlink:title="11">
<text text-anchor="middle" x="226.64" y="-40.43" font-family="Helvetica,sans-Serif" font-size="10.00">11</text>
</a>
</g>
</g>
<!-- dir_3a646564ec239f35c01425f0e9da2ba2&#45;&gt;dir_1dc53930709e46457d0e1484ec309f4d -->
<g id="edge7" class="edge">
<title>dir_3a646564ec239f35c01425f0e9da2ba2&#45;&gt;dir_1dc53930709e46457d0e1484ec309f4d</title>
<path fill="none" stroke="black" d="M94.55,-143.7C92.55,-135.9 90.13,-126.51 87.9,-117.83"/>
<polygon fill="black" stroke="black" points="91.28,-116.92 85.4,-108.1 84.5,-118.66 91.28,-116.92"/>
<g id="a_edge7&#45;headlabel"><a xlink:href="dir_000042_000046.html" target="_top" xlink:title="2">
<text text-anchor="middle" x="94.92" y="-117.19" font-family="Helvetica,sans-Serif" font-size="10.00">2</text>
</a>
</g>
</g>
<!-- dir_3a646564ec239f35c01425f0e9da2ba2&#45;&gt;dir_d44c64559bbebec7f509842c48db8b23 -->
<g id="edge8" class="edge">
<title>dir_3a646564ec239f35c01425f0e9da2ba2&#45;&gt;dir_d44c64559bbebec7f509842c48db8b23</title>
<path fill="none" stroke="black" d="M107.52,-143.99C118.5,-122.66 138.72,-85.36 160,-56 162.94,-51.95 166.25,-47.82 169.61,-43.87"/>
<polygon fill="black" stroke="black" points="172.48,-45.9 176.46,-36.08 167.23,-41.27 172.48,-45.9"/>
<g id="a_edge8&#45;headlabel"><a xlink:href="dir_000042_000000.html" target="_top" xlink:title="21">
<text text-anchor="middle" x="172.24" y="-47.97" font-family="Helvetica,sans-Serif" font-size="10.00">21</text>
</a>
</g>
</g>
</g>
</svg>
