<?xml version="1.0" encoding="UTF-8" standalone="no"?>
<!DOCTYPE svg PUBLIC "-//W3C//DTD SVG 1.1//EN"
 "http://www.w3.org/Graphics/SVG/1.1/DTD/svg11.dtd">
<!-- Generated by graphviz version 9.0.0 (20230911.1827)
 -->
<!-- Title: src/userland Pages: 1 -->
<svg width="827pt" height="126pt"
 viewBox="0.00 0.00 827.00 126.08" xmlns="http://www.w3.org/2000/svg" xmlns:xlink="http://www.w3.org/1999/xlink">
<g id="graph0" class="graph" transform="scale(1 1) rotate(0) translate(4 122.08)">
<title>src/userland</title>
<g id="clust1" class="cluster">
<title>clusterdir_68267d1309a1af8e8297ef4c3efbcdba</title>
<g id="a_clust1"><a xlink:href="dir_68267d1309a1af8e8297ef4c3efbcdba.html" target="_top" xlink:title="src">
<polygon fill="#edf0f7" stroke="#404040" stroke-dasharray="5,2" points="8,-39.58 8,-110.08 811,-110.08 811,-39.58 8,-39.58"/>
<text text-anchor="middle" x="409.5" y="-96.58" font-family="Helvetica,sans-Serif" font-size="10.00">src</text>
</a>
</g>
</g>
<g id="clust2" class="cluster">
<title>clusterdir_173c9e88aa581eef1e30c63858f75f59</title>
<g id="a_clust2"><a xlink:href="dir_173c9e88aa581eef1e30c63858f75f59.html" target="_top">
<polygon fill="#edf0f7" stroke="#404040" stroke-width="2" points="16,-47.58 16,-82.83 803,-82.83 803,-47.58 16,-47.58"/>
</a>
</g>
</g>
<!-- dir_173c9e88aa581eef1e30c63858f75f59 -->
<g id="node1" class="node">
<title>dir_173c9e88aa581eef1e30c63858f75f59</title>
<text text-anchor="middle" x="769" y="-61.33" font-family="Helvetica,sans-Serif" font-size="10.00">userland</text>
</g>
<!-- dir_ff40e54e40c9569df6fbe33f6c8a1bc1 -->
<g id="node2" class="node">
<title>dir_ff40e54e40c9569df6fbe33f6c8a1bc1</title>
<g id="a_node2"><a xlink:href="dir_ff40e54e40c9569df6fbe33f6c8a1bc1.html" target="_top" xlink:title="cal">
<polygon fill="#a2b4d6" stroke="#404040" points="724.4,-74.83 695.6,-74.83 695.6,-55.58 724.4,-55.58 724.4,-74.83"/>
<text text-anchor="middle" x="710" y="-61.33" font-family="Helvetica,sans-Serif" font-size="10.00">cal</text>
</a>
</g>
</g>
<!-- dir_d44c64559bbebec7f509842c48db8b23 -->
<g id="node14" class="node">
<title>dir_d44c64559bbebec7f509842c48db8b23</title>
<g id="a_node14"><a xlink:href="dir_d44c64559bbebec7f509842c48db8b23.html" target="_top" xlink:title="include">
<polygon fill="#edf0f7" stroke="red" points="454.38,-19.58 407.62,-19.58 407.62,-0.33 454.38,-0.33 454.38,-19.58"/>
<text text-anchor="middle" x="431" y="-6.08" font-family="Helvetica,sans-Serif" font-size="10.00">include</text>
</a>
</g>
</g>
<!-- dir_ff40e54e40c9569df6fbe33f6c8a1bc1&#45;&gt;dir_d44c64559bbebec7f509842c48db8b23 -->
<g id="edge1" class="edge">
<title>dir_ff40e54e40c9569df6fbe33f6c8a1bc1&#45;&gt;dir_d44c64559bbebec7f509842c48db8b23</title>
<g id="a_edge1"><a xlink:href="dir_000017_000039.html" target="_top">
<path fill="none" stroke="#63b8ff" d="M704.26,-55.4C700.16,-49.88 694.11,-43.15 687,-39.58 649.07,-20.53 526.61,-13.99 465.85,-11.89"/>
<polygon fill="#63b8ff" stroke="#63b8ff" points="466.19,-8.4 456.08,-11.57 465.96,-15.39 466.19,-8.4"/>
</a>
</g>
<g id="a_edge1&#45;headlabel"><a xlink:href="dir_000017_000039.html" target="_top" xlink:title="4">
<text text-anchor="middle" x="468.36" y="-1.75" font-family="Helvetica,sans-Serif" font-size="10.00" fill="#63b8ff">4</text>
</a>
</g>
</g>
<!-- dir_e1e6baff1b46d4bfd06d3776fb6d7587 -->
<g id="node3" class="node">
<title>dir_e1e6baff1b46d4bfd06d3776fb6d7587</title>
<g id="a_node3"><a xlink:href="dir_e1e6baff1b46d4bfd06d3776fb6d7587.html" target="_top" xlink:title="cat">
<polygon fill="#a2b4d6" stroke="#404040" points="677.75,-74.83 648.25,-74.83 648.25,-55.58 677.75,-55.58 677.75,-74.83"/>
<text text-anchor="middle" x="663" y="-61.33" font-family="Helvetica,sans-Serif" font-size="10.00">cat</text>
</a>
</g>
</g>
<!-- dir_e1e6baff1b46d4bfd06d3776fb6d7587&#45;&gt;dir_d44c64559bbebec7f509842c48db8b23 -->
<g id="edge2" class="edge">
<title>dir_e1e6baff1b46d4bfd06d3776fb6d7587&#45;&gt;dir_d44c64559bbebec7f509842c48db8b23</title>
<g id="a_edge2"><a xlink:href="dir_000018_000039.html" target="_top">
<path fill="none" stroke="#63b8ff" d="M657.23,-55.46C653.11,-49.96 647.06,-43.24 640,-39.58 610.43,-24.27 517.42,-16.27 466.01,-12.92"/>
<polygon fill="#63b8ff" stroke="#63b8ff" points="466.52,-9.44 456.32,-12.31 466.08,-16.43 466.52,-9.44"/>
</a>
</g>
<g id="a_edge2&#45;headlabel"><a xlink:href="dir_000018_000039.html" target="_top" xlink:title="5">
<text text-anchor="middle" x="468.77" y="-2.86" font-family="Helvetica,sans-Serif" font-size="10.00" fill="#63b8ff">5</text>
</a>
</g>
</g>
<!-- dir_6b10eb6658bb42cff98abf7e4e75291f -->
<g id="node4" class="node">
<title>dir_6b10eb6658bb42cff98abf7e4e75291f</title>
<g id="a_node4"><a xlink:href="dir_6b10eb6658bb42cff98abf7e4e75291f.html" target="_top" xlink:title="clear">
<polygon fill="#a2b4d6" stroke="#404040" points="630.5,-74.83 593.5,-74.83 593.5,-55.58 630.5,-55.58 630.5,-74.83"/>
<text text-anchor="middle" x="612" y="-61.33" font-family="Helvetica,sans-Serif" font-size="10.00">clear</text>
</a>
</g>
</g>
<!-- dir_6b10eb6658bb42cff98abf7e4e75291f&#45;&gt;dir_d44c64559bbebec7f509842c48db8b23 -->
<g id="edge3" class="edge">
<title>dir_6b10eb6658bb42cff98abf7e4e75291f&#45;&gt;dir_d44c64559bbebec7f509842c48db8b23</title>
<g id="a_edge3"><a xlink:href="dir_000019_000039.html" target="_top">
<path fill="none" stroke="#63b8ff" d="M604.06,-55.1C598.89,-49.75 591.68,-43.32 584,-39.58 546.41,-21.28 498.36,-14.64 466.24,-12.26"/>
<polygon fill="#63b8ff" stroke="#63b8ff" points="466.47,-8.76 456.27,-11.63 466.03,-15.75 466.47,-8.76"/>
</a>
</g>
<g id="a_edge3&#45;headlabel"><a xlink:href="dir_000019_000039.html" target="_top" xlink:title="1">
<text text-anchor="middle" x="468.72" y="-2.19" font-family="Helvetica,sans-Serif" font-size="10.00" fill="#63b8ff">1</text>
</a>
</g>
</g>
<!-- dir_7958b23ead370ae23f6a05235dd92599 -->
<g id="node5" class="node">
<title>dir_7958b23ead370ae23f6a05235dd92599</title>
<g id="a_node5"><a xlink:href="dir_7958b23ead370ae23f6a05235dd92599.html" target="_top" xlink:title="date">
<polygon fill="#a2b4d6" stroke="#404040" points="575.38,-74.83 540.62,-74.83 540.62,-55.58 575.38,-55.58 575.38,-74.83"/>
<text text-anchor="middle" x="558" y="-61.33" font-family="Helvetica,sans-Serif" font-size="10.00">date</text>
</a>
</g>
</g>
<!-- dir_7958b23ead370ae23f6a05235dd92599&#45;&gt;dir_d44c64559bbebec7f509842c48db8b23 -->
<g id="edge4" class="edge">
<title>dir_7958b23ead370ae23f6a05235dd92599&#45;&gt;dir_d44c64559bbebec7f509842c48db8b23</title>
<g id="a_edge4"><a xlink:href="dir_000029_000039.html" target="_top">
<path fill="none" stroke="#63b8ff" d="M550.28,-55.34C545.26,-50.08 538.31,-43.66 531,-39.58 510.83,-28.32 485.86,-21.17 465.91,-16.83"/>
<polygon fill="#63b8ff" stroke="#63b8ff" points="466.8,-13.44 456.31,-14.89 465.41,-20.3 466.8,-13.44"/>
</a>
</g>
<g id="a_edge4&#45;headlabel"><a xlink:href="dir_000029_000039.html" target="_top" xlink:title="2">
<text text-anchor="middle" x="469.4" y="-7.19" font-family="Helvetica,sans-Serif" font-size="10.00" fill="#63b8ff">2</text>
</a>
</g>
</g>
<!-- dir_eb43e55597aac8a9b4d196d33ee8e0dc -->
<g id="node6" class="node">
<title>dir_eb43e55597aac8a9b4d196d33ee8e0dc</title>
<g id="a_node6"><a xlink:href="dir_eb43e55597aac8a9b4d196d33ee8e0dc.html" target="_top" xlink:title="hostname">
<polygon fill="#a2b4d6" stroke="#404040" points="522.38,-74.83 463.62,-74.83 463.62,-55.58 522.38,-55.58 522.38,-74.83"/>
<text text-anchor="middle" x="493" y="-61.33" font-family="Helvetica,sans-Serif" font-size="10.00">hostname</text>
</a>
</g>
</g>
<!-- dir_eb43e55597aac8a9b4d196d33ee8e0dc&#45;&gt;dir_d44c64559bbebec7f509842c48db8b23 -->
<g id="edge5" class="edge">
<title>dir_eb43e55597aac8a9b4d196d33ee8e0dc&#45;&gt;dir_d44c64559bbebec7f509842c48db8b23</title>
<g id="a_edge5"><a xlink:href="dir_000038_000039.html" target="_top">
<path fill="none" stroke="#63b8ff" d="M482.48,-55.17C473.61,-47.55 460.69,-36.46 450.01,-27.28"/>
<polygon fill="#63b8ff" stroke="#63b8ff" points="452.38,-24.7 442.51,-20.84 447.82,-30.01 452.38,-24.7"/>
</a>
</g>
<g id="a_edge5&#45;headlabel"><a xlink:href="dir_000038_000039.html" target="_top" xlink:title="5">
<text text-anchor="middle" x="455.81" y="-20.03" font-family="Helvetica,sans-Serif" font-size="10.00" fill="#63b8ff">5</text>
</a>
</g>
</g>
<!-- dir_c3d47065b72cafd3fddb954266dfcaab -->
<g id="node7" class="node">
<title>dir_c3d47065b72cafd3fddb954266dfcaab</title>
<g id="a_node7"><a xlink:href="dir_c3d47065b72cafd3fddb954266dfcaab.html" target="_top" xlink:title="init">
<polygon fill="#a2b4d6" stroke="#404040" points="445.4,-74.83 416.6,-74.83 416.6,-55.58 445.4,-55.58 445.4,-74.83"/>
<text text-anchor="middle" x="431" y="-61.33" font-family="Helvetica,sans-Serif" font-size="10.00">init</text>
</a>
</g>
</g>
<!-- dir_c3d47065b72cafd3fddb954266dfcaab&#45;&gt;dir_d44c64559bbebec7f509842c48db8b23 -->
<g id="edge6" class="edge">
<title>dir_c3d47065b72cafd3fddb954266dfcaab&#45;&gt;dir_d44c64559bbebec7f509842c48db8b23</title>
<g id="a_edge6"><a xlink:href="dir_000040_000039.html" target="_top">
<path fill="none" stroke="#63b8ff" d="M431,-55.41C431,-48.9 431,-39.75 431,-31.45"/>
<polygon fill="#63b8ff" stroke="#63b8ff" points="434.5,-31.45 431,-21.45 427.5,-31.45 434.5,-31.45"/>
</a>
</g>
<g id="a_edge6&#45;headlabel"><a xlink:href="dir_000040_000039.html" target="_top" xlink:title="3">
<text text-anchor="middle" x="437.34" y="-29.66" font-family="Helvetica,sans-Serif" font-size="10.00" fill="#63b8ff">3</text>
</a>
</g>
</g>
<!-- dir_ea273b443b966abbebf68ac90005349e -->
<g id="node8" class="node">
<title>dir_ea273b443b966abbebf68ac90005349e</title>
<g id="a_node8"><a xlink:href="dir_ea273b443b966abbebf68ac90005349e.html" target="_top" xlink:title="meminfo">
<polygon fill="#a2b4d6" stroke="#404040" points="398.75,-74.83 345.25,-74.83 345.25,-55.58 398.75,-55.58 398.75,-74.83"/>
<text text-anchor="middle" x="372" y="-61.33" font-family="Helvetica,sans-Serif" font-size="10.00">meminfo</text>
</a>
</g>
</g>
<!-- dir_ea273b443b966abbebf68ac90005349e&#45;&gt;dir_d44c64559bbebec7f509842c48db8b23 -->
<g id="edge7" class="edge">
<title>dir_ea273b443b966abbebf68ac90005349e&#45;&gt;dir_d44c64559bbebec7f509842c48db8b23</title>
<g id="a_edge7"><a xlink:href="dir_000047_000039.html" target="_top">
<path fill="none" stroke="#63b8ff" d="M382.01,-55.17C390.37,-47.63 402.5,-36.68 412.6,-27.56"/>
<polygon fill="#63b8ff" stroke="#63b8ff" points="414.94,-30.17 420.02,-20.87 410.25,-24.97 414.94,-30.17"/>
</a>
</g>
<g id="a_edge7&#45;headlabel"><a xlink:href="dir_000047_000039.html" target="_top" xlink:title="5">
<text text-anchor="middle" x="415.29" y="-29.8" font-family="Helvetica,sans-Serif" font-size="10.00" fill="#63b8ff">5</text>
</a>
</g>
</g>
<!-- dir_3481310df4fd510591ecbb734fa3af1c -->
<g id="node9" class="node">
<title>dir_3481310df4fd510591ecbb734fa3af1c</title>
<g id="a_node9"><a xlink:href="dir_3481310df4fd510591ecbb734fa3af1c.html" target="_top" xlink:title="noop">
<polygon fill="#a2b4d6" stroke="#404040" points="327.5,-74.83 290.5,-74.83 290.5,-55.58 327.5,-55.58 327.5,-74.83"/>
<text text-anchor="middle" x="309" y="-61.33" font-family="Helvetica,sans-Serif" font-size="10.00">noop</text>
</a>
</g>
</g>
<!-- dir_8188d2403f8782d47de5ea4ccc1ebd5f -->
<g id="node10" class="node">
<title>dir_8188d2403f8782d47de5ea4ccc1ebd5f</title>
<g id="a_node10"><a xlink:href="dir_8188d2403f8782d47de5ea4ccc1ebd5f.html" target="_top" xlink:title="shell">
<polygon fill="#a2b4d6" stroke="#404040" points="272.12,-74.83 235.88,-74.83 235.88,-55.58 272.12,-55.58 272.12,-74.83"/>
<text text-anchor="middle" x="254" y="-61.33" font-family="Helvetica,sans-Serif" font-size="10.00">shell</text>
</a>
</g>
</g>
<!-- dir_8188d2403f8782d47de5ea4ccc1ebd5f&#45;&gt;dir_d44c64559bbebec7f509842c48db8b23 -->
<g id="edge8" class="edge">
<title>dir_8188d2403f8782d47de5ea4ccc1ebd5f&#45;&gt;dir_d44c64559bbebec7f509842c48db8b23</title>
<g id="a_edge8"><a xlink:href="dir_000062_000039.html" target="_top">
<path fill="none" stroke="#63b8ff" d="M261.94,-55.12C267.12,-49.77 274.33,-43.34 282,-39.58 318.39,-21.75 364.86,-15.01 396.14,-12.48"/>
<polygon fill="#63b8ff" stroke="#63b8ff" points="396.1,-15.99 405.83,-11.8 395.61,-9 396.1,-15.99"/>
</a>
</g>
<g id="a_edge8&#45;headlabel"><a xlink:href="dir_000062_000039.html" target="_top" xlink:title="17">
<text text-anchor="middle" x="394.22" y="-15.09" font-family="Helvetica,sans-Serif" font-size="10.00" fill="#63b8ff">17</text>
</a>
</g>
</g>
<!-- dir_fc871caaf90a108feaa87099fb59ff14 -->
<g id="node11" class="node">
<title>dir_fc871caaf90a108feaa87099fb59ff14</title>
<g id="a_node11"><a xlink:href="dir_fc871caaf90a108feaa87099fb59ff14.html" target="_top" xlink:title="testsuite">
<polygon fill="#a2b4d6" stroke="#404040" points="217.75,-74.83 164.25,-74.83 164.25,-55.58 217.75,-55.58 217.75,-74.83"/>
<text text-anchor="middle" x="191" y="-61.33" font-family="Helvetica,sans-Serif" font-size="10.00">testsuite</text>
</a>
</g>
</g>
<!-- dir_fc871caaf90a108feaa87099fb59ff14&#45;&gt;dir_d44c64559bbebec7f509842c48db8b23 -->
<g id="edge9" class="edge">
<title>dir_fc871caaf90a108feaa87099fb59ff14&#45;&gt;dir_d44c64559bbebec7f509842c48db8b23</title>
<g id="a_edge9"><a xlink:href="dir_000071_000039.html" target="_top">
<path fill="none" stroke="#63b8ff" d="M201.29,-55.26C208.12,-49.82 217.54,-43.25 227,-39.58 283.3,-17.77 354.07,-12.27 395.74,-11.06"/>
<polygon fill="#63b8ff" stroke="#63b8ff" points="395.75,-14.57 405.67,-10.85 395.6,-7.57 395.75,-14.57"/>
</a>
</g>
<g id="a_edge9&#45;headlabel"><a xlink:href="dir_000071_000039.html" target="_top" xlink:title="5">
<text text-anchor="middle" x="393.73" y="-13.57" font-family="Helvetica,sans-Serif" font-size="10.00" fill="#63b8ff">5</text>
</a>
</g>
</g>
<!-- dir_580ecf3b0494669f5045460edd2f65b6 -->
<g id="node12" class="node">
<title>dir_580ecf3b0494669f5045460edd2f65b6</title>
<g id="a_node12"><a xlink:href="dir_580ecf3b0494669f5045460edd2f65b6.html" target="_top" xlink:title="udp&#45;client">
<polygon fill="#a2b4d6" stroke="#404040" points="146,-74.83 88,-74.83 88,-55.58 146,-55.58 146,-74.83"/>
<text text-anchor="middle" x="117" y="-61.33" font-family="Helvetica,sans-Serif" font-size="10.00">udp&#45;client</text>
</a>
</g>
</g>
<!-- dir_580ecf3b0494669f5045460edd2f65b6&#45;&gt;dir_d44c64559bbebec7f509842c48db8b23 -->
<g id="edge10" class="edge">
<title>dir_580ecf3b0494669f5045460edd2f65b6&#45;&gt;dir_d44c64559bbebec7f509842c48db8b23</title>
<g id="a_edge10"><a xlink:href="dir_000075_000039.html" target="_top">
<path fill="none" stroke="#63b8ff" d="M127.9,-55.15C135.12,-49.67 145.07,-43.09 155,-39.58 198.53,-24.22 331.57,-15.82 395.7,-12.56"/>
<polygon fill="#63b8ff" stroke="#63b8ff" points="395.87,-16.06 405.69,-12.07 395.53,-9.07 395.87,-16.06"/>
</a>
</g>
<g id="a_edge10&#45;headlabel"><a xlink:href="dir_000075_000039.html" target="_top" xlink:title="5">
<text text-anchor="middle" x="393.93" y="-15.12" font-family="Helvetica,sans-Serif" font-size="10.00" fill="#63b8ff">5</text>
</a>
</g>
</g>
<!-- dir_a399c65094449806f3301ab00825c20b -->
<g id="node13" class="node">
<title>dir_a399c65094449806f3301ab00825c20b</title>
<g id="a_node13"><a xlink:href="dir_a399c65094449806f3301ab00825c20b.html" target="_top" xlink:title="uptime">
<polygon fill="#a2b4d6" stroke="#404040" points="69.62,-74.83 24.38,-74.83 24.38,-55.58 69.62,-55.58 69.62,-74.83"/>
<text text-anchor="middle" x="47" y="-61.33" font-family="Helvetica,sans-Serif" font-size="10.00">uptime</text>
</a>
</g>
</g>
<!-- dir_a399c65094449806f3301ab00825c20b&#45;&gt;dir_d44c64559bbebec7f509842c48db8b23 -->
<g id="edge11" class="edge">
<title>dir_a399c65094449806f3301ab00825c20b&#45;&gt;dir_d44c64559bbebec7f509842c48db8b23</title>
<g id="a_edge11"><a xlink:href="dir_000076_000039.html" target="_top">
<path fill="none" stroke="#63b8ff" d="M55.64,-55.31C61.63,-49.75 70.11,-43.02 79,-39.58 136.14,-17.52 318.52,-12.46 395.83,-11.3"/>
<polygon fill="#63b8ff" stroke="#63b8ff" points="395.83,-14.8 405.79,-11.17 395.74,-7.8 395.83,-14.8"/>
</a>
</g>
<g id="a_edge11&#45;headlabel"><a xlink:href="dir_000076_000039.html" target="_top" xlink:title="5">
<text text-anchor="middle" x="393.79" y="-13.79" font-family="Helvetica,sans-Serif" font-size="10.00" fill="#63b8ff">5</text>
</a>
</g>
</g>
</g>
</svg>
