<?xml version="1.0" encoding="UTF-8" standalone="no"?>
<!DOCTYPE svg PUBLIC "-//W3C//DTD SVG 1.1//EN"
 "http://www.w3.org/Graphics/SVG/1.1/DTD/svg11.dtd">
<!-- Generated by graphviz version 8.0.2 (20230410.1723)
 -->
<!-- Title: include/libc Pages: 1 -->
<svg width="254pt" height="183pt"
 viewBox="0.00 0.00 254.00 183.00" xmlns="http://www.w3.org/2000/svg" xmlns:xlink="http://www.w3.org/1999/xlink">
<g id="graph0" class="graph" transform="scale(1 1) rotate(0) translate(4 179)">
<title>include/libc</title>
<g id="clust1" class="cluster">
<title>clusterdir_d44c64559bbebec7f509842c48db8b23</title>
<g id="a_clust1"><a xlink:href="dir_d44c64559bbebec7f509842c48db8b23.html" target="_top" xlink:title="include">
<polygon fill="#ddddee" stroke="black" points="8,-8 8,-167 238,-167 238,-8 8,-8"/>
<text text-anchor="middle" x="123" y="-155" font-family="Helvetica,sans-Serif" font-size="10.00">include</text>
</a>
</g>
</g>
<g id="clust2" class="cluster">
<title>clusterdir_f9f386f816a45f0ffce9eeb77a177fce</title>
<g id="a_clust2"><a xlink:href="dir_f9f386f816a45f0ffce9eeb77a177fce.html" target="_top">
<polygon fill="#eeeeff" stroke="black" points="16,-16 16,-140 230,-140 230,-16 16,-16"/>
</a>
</g>
</g>
<!-- dir_f9f386f816a45f0ffce9eeb77a177fce -->
<g id="node1" class="node">
<title>dir_f9f386f816a45f0ffce9eeb77a177fce</title>
<text text-anchor="middle" x="195" y="-111.5" font-family="Helvetica,sans-Serif" font-size="10.00">libc</text>
</g>
<!-- dir_4808aa484d0a013f0d2313f6f625fe90 -->
<g id="node2" class="node">
<title>dir_4808aa484d0a013f0d2313f6f625fe90</title>
<g id="a_node2"><a xlink:href="dir_4808aa484d0a013f0d2313f6f625fe90.html" target="_top" xlink:title="arpa">
<polygon fill="white" stroke="black" points="150,-132 96,-132 96,-96 150,-96 150,-132"/>
<text text-anchor="middle" x="123" y="-111.5" font-family="Helvetica,sans-Serif" font-size="10.00">arpa</text>
</a>
</g>
</g>
<!-- dir_384e8044a4a3017e1583fef77edf0684 -->
<g id="node4" class="node">
<title>dir_384e8044a4a3017e1583fef77edf0684</title>
<g id="a_node4"><a xlink:href="dir_384e8044a4a3017e1583fef77edf0684.html" target="_top" xlink:title="sys">
<polygon fill="white" stroke="black" points="150,-60 96,-60 96,-24 150,-24 150,-60"/>
<text text-anchor="middle" x="123" y="-39.5" font-family="Helvetica,sans-Serif" font-size="10.00">sys</text>
</a>
</g>
</g>
<!-- dir_4808aa484d0a013f0d2313f6f625fe90&#45;&gt;dir_384e8044a4a3017e1583fef77edf0684 -->
<g id="edge2" class="edge">
<title>dir_4808aa484d0a013f0d2313f6f625fe90&#45;&gt;dir_384e8044a4a3017e1583fef77edf0684</title>
<path fill="none" stroke="black" d="M117.08,-95.7C116.31,-88.24 116.08,-79.32 116.37,-70.97"/>
<polygon fill="black" stroke="black" points="119.92,-71.32 117.1,-61.1 112.94,-70.85 119.92,-71.32"/>
<g id="a_edge2&#45;headlabel"><a xlink:href="dir_000029_000033.html" target="_top" xlink:title="2">
<text text-anchor="middle" x="122.52" y="-71.59" font-family="Helvetica,sans-Serif" font-size="10.00">2</text>
</a>
</g>
</g>
<!-- dir_653c1a25392178c2d302b93665b057ba -->
<g id="node3" class="node">
<title>dir_653c1a25392178c2d302b93665b057ba</title>
<g id="a_node3"><a xlink:href="dir_653c1a25392178c2d302b93665b057ba.html" target="_top" xlink:title="arvern">
<polygon fill="white" stroke="black" points="78,-132 24,-132 24,-96 78,-96 78,-132"/>
<text text-anchor="middle" x="51" y="-111.5" font-family="Helvetica,sans-Serif" font-size="10.00">arvern</text>
</a>
</g>
</g>
<!-- dir_653c1a25392178c2d302b93665b057ba&#45;&gt;dir_384e8044a4a3017e1583fef77edf0684 -->
<g id="edge3" class="edge">
<title>dir_653c1a25392178c2d302b93665b057ba&#45;&gt;dir_384e8044a4a3017e1583fef77edf0684</title>
<path fill="none" stroke="black" d="M68.8,-95.7C77.45,-87.28 88.01,-77.02 97.5,-67.79"/>
<polygon fill="black" stroke="black" points="99.43,-70.83 104.16,-61.35 94.55,-65.81 99.43,-70.83"/>
<g id="a_edge3&#45;headlabel"><a xlink:href="dir_000030_000033.html" target="_top" xlink:title="1">
<text text-anchor="middle" x="99.83" y="-71.87" font-family="Helvetica,sans-Serif" font-size="10.00">1</text>
</a>
</g>
</g>
<!-- dir_384e8044a4a3017e1583fef77edf0684&#45;&gt;dir_4808aa484d0a013f0d2313f6f625fe90 -->
<g id="edge1" class="edge">
<title>dir_384e8044a4a3017e1583fef77edf0684&#45;&gt;dir_4808aa484d0a013f0d2313f6f625fe90</title>
<path fill="none" stroke="black" d="M128.9,-60.1C129.67,-67.54 129.92,-76.44 129.64,-84.81"/>
<polygon fill="black" stroke="black" points="126.08,-84.49 128.92,-94.7 133.07,-84.95 126.08,-84.49"/>
<g id="a_edge1&#45;headlabel"><a xlink:href="dir_000033_000029.html" target="_top" xlink:title="1">
<text text-anchor="middle" x="123.49" y="-79.21" font-family="Helvetica,sans-Serif" font-size="10.00">1</text>
</a>
</g>
</g>
</g>
</svg>
