<?xml version="1.0" encoding="UTF-8" standalone="no"?>
<!DOCTYPE svg PUBLIC "-//W3C//DTD SVG 1.1//EN"
 "http://www.w3.org/Graphics/SVG/1.1/DTD/svg11.dtd">
<!-- Generated by graphviz version 9.0.0 (20230911.1827)
 -->
<!-- Title: src/kernel/arch/x86_64 Pages: 1 -->
<svg width="380pt" height="347pt"
 viewBox="0.00 0.00 380.12 346.75" xmlns="http://www.w3.org/2000/svg" xmlns:xlink="http://www.w3.org/1999/xlink">
<g id="graph0" class="graph" transform="scale(1 1) rotate(0) translate(4 342.75)">
<title>src/kernel/arch/x86_64</title>
<g id="clust1" class="cluster">
<title>clusterdir_76e3dd4d2fa719e8d3b096e9aa563982</title>
<g id="a_clust1"><a xlink:href="dir_76e3dd4d2fa719e8d3b096e9aa563982.html" target="_top" xlink:title="arch">
<polygon fill="#edf0f7" stroke="#7f7f7f" stroke-dasharray="5,2" points="8,-39.25 8,-330.75 256,-330.75 256,-39.25 8,-39.25"/>
<text text-anchor="middle" x="132" y="-317.25" font-family="Helvetica,sans-Serif" font-size="10.00">arch</text>
</a>
</g>
</g>
<g id="clust2" class="cluster">
<title>clusterdir_7c4c796ec9937bed8074dafcec3d25e4</title>
<g id="a_clust2"><a xlink:href="dir_7c4c796ec9937bed8074dafcec3d25e4.html" target="_top">
<polygon fill="#edf0f7" stroke="#404040" stroke-width="2" points="16,-47.25 16,-303.5 248,-303.5 248,-47.25 16,-47.25"/>
</a>
</g>
</g>
<!-- dir_7c4c796ec9937bed8074dafcec3d25e4 -->
<g id="node1" class="node">
<title>dir_7c4c796ec9937bed8074dafcec3d25e4</title>
<text text-anchor="middle" x="173" y="-282" font-family="Helvetica,sans-Serif" font-size="10.00">x86_64</text>
</g>
<!-- dir_42d4540ea64ab009ab7a7dcd79fe63e8 -->
<g id="node3" class="node">
<title>dir_42d4540ea64ab009ab7a7dcd79fe63e8</title>
<g id="a_node3"><a xlink:href="dir_42d4540ea64ab009ab7a7dcd79fe63e8.html" target="_top" xlink:title="console">
<polygon fill="#a2b4d6" stroke="#404040" points="153.88,-240.25 104.12,-240.25 104.12,-221 153.88,-221 153.88,-240.25"/>
<text text-anchor="middle" x="129" y="-226.75" font-family="Helvetica,sans-Serif" font-size="10.00">console</text>
</a>
</g>
</g>
<!-- dir_7c4c796ec9937bed8074dafcec3d25e4&#45;&gt;dir_42d4540ea64ab009ab7a7dcd79fe63e8 -->
<g id="edge3" class="edge">
<title>dir_7c4c796ec9937bed8074dafcec3d25e4&#45;&gt;dir_42d4540ea64ab009ab7a7dcd79fe63e8</title>
<g id="a_edge3"><a xlink:href="dir_000078_000022.html" target="_top">
<path fill="none" stroke="#63b8ff" d="M166.12,-276.55C160.1,-269.26 151.13,-258.41 143.53,-249.2"/>
<polygon fill="#63b8ff" stroke="#63b8ff" points="146.3,-247.06 137.23,-241.58 140.9,-251.52 146.3,-247.06"/>
</a>
</g>
<g id="a_edge3&#45;headlabel"><a xlink:href="dir_000078_000022.html" target="_top" xlink:title="2">
<text text-anchor="middle" x="149.81" y="-242.99" font-family="Helvetica,sans-Serif" font-size="10.00" fill="#63b8ff">2</text>
</a>
</g>
</g>
<!-- dir_1dc53930709e46457d0e1484ec309f4d -->
<g id="node4" class="node">
<title>dir_1dc53930709e46457d0e1484ec309f4d</title>
<g id="a_node4"><a xlink:href="dir_1dc53930709e46457d0e1484ec309f4d.html" target="_top" xlink:title="core">
<polygon fill="#a2b4d6" stroke="#404040" points="115.38,-74.5 80.62,-74.5 80.62,-55.25 115.38,-55.25 115.38,-74.5"/>
<text text-anchor="middle" x="98" y="-61" font-family="Helvetica,sans-Serif" font-size="10.00">core</text>
</a>
</g>
</g>
<!-- dir_7c4c796ec9937bed8074dafcec3d25e4&#45;&gt;dir_1dc53930709e46457d0e1484ec309f4d -->
<g id="edge1" class="edge">
<title>dir_7c4c796ec9937bed8074dafcec3d25e4&#45;&gt;dir_1dc53930709e46457d0e1484ec309f4d</title>
<g id="a_edge1"><a xlink:href="dir_000078_000027.html" target="_top">
<path fill="none" stroke="#63b8ff" d="M149.25,-278.41C130.84,-272.02 106.58,-260.22 95,-240.25 66.32,-190.8 81.58,-119.44 91.56,-85.38"/>
<polygon fill="#63b8ff" stroke="#63b8ff" points="94.83,-86.67 94.46,-76.08 88.14,-84.59 94.83,-86.67"/>
</a>
</g>
<g id="a_edge1&#45;headlabel"><a xlink:href="dir_000078_000027.html" target="_top" xlink:title="9">
<text text-anchor="middle" x="96.92" y="-85.63" font-family="Helvetica,sans-Serif" font-size="10.00" fill="#63b8ff">9</text>
</a>
</g>
</g>
<!-- dir_dfce509d3294b4958bedddff0a015025 -->
<g id="node5" class="node">
<title>dir_dfce509d3294b4958bedddff0a015025</title>
<g id="a_node5"><a xlink:href="dir_dfce509d3294b4958bedddff0a015025.html" target="_top" xlink:title="drivers">
<polygon fill="#a2b4d6" stroke="#404040" points="209.62,-185 164.38,-185 164.38,-165.75 209.62,-165.75 209.62,-185"/>
<text text-anchor="middle" x="187" y="-171.5" font-family="Helvetica,sans-Serif" font-size="10.00">drivers</text>
</a>
</g>
</g>
<!-- dir_7c4c796ec9937bed8074dafcec3d25e4&#45;&gt;dir_dfce509d3294b4958bedddff0a015025 -->
<g id="edge5" class="edge">
<title>dir_7c4c796ec9937bed8074dafcec3d25e4&#45;&gt;dir_dfce509d3294b4958bedddff0a015025</title>
<g id="a_edge5"><a xlink:href="dir_000078_000033.html" target="_top">
<path fill="none" stroke="#63b8ff" d="M174.1,-276.36C176.3,-259.34 181.28,-220.69 184.37,-196.73"/>
<polygon fill="#63b8ff" stroke="#63b8ff" points="187.83,-197.32 185.63,-186.96 180.88,-196.43 187.83,-197.32"/>
</a>
</g>
<g id="a_edge5&#45;headlabel"><a xlink:href="dir_000078_000033.html" target="_top" xlink:title="10">
<text text-anchor="middle" x="190.38" y="-195.88" font-family="Helvetica,sans-Serif" font-size="10.00" fill="#63b8ff">10</text>
</a>
</g>
</g>
<!-- dir_3a646564ec239f35c01425f0e9da2ba2 -->
<g id="node7" class="node">
<title>dir_3a646564ec239f35c01425f0e9da2ba2</title>
<g id="a_node7"><a xlink:href="dir_3a646564ec239f35c01425f0e9da2ba2.html" target="_top" xlink:title="mmu">
<polygon fill="#a2b4d6" stroke="#404040" points="163.88,-129.75 126.12,-129.75 126.12,-110.5 163.88,-110.5 163.88,-129.75"/>
<text text-anchor="middle" x="145" y="-116.25" font-family="Helvetica,sans-Serif" font-size="10.00">mmu</text>
</a>
</g>
</g>
<!-- dir_7c4c796ec9937bed8074dafcec3d25e4&#45;&gt;dir_3a646564ec239f35c01425f0e9da2ba2 -->
<g id="edge2" class="edge">
<title>dir_7c4c796ec9937bed8074dafcec3d25e4&#45;&gt;dir_3a646564ec239f35c01425f0e9da2ba2</title>
<g id="a_edge2"><a xlink:href="dir_000078_000051.html" target="_top">
<path fill="none" stroke="#63b8ff" d="M171.87,-276.58C170.17,-264.37 166.76,-240.85 163,-221 159.95,-204.9 158.05,-201.1 155,-185 152.21,-170.28 149.61,-153.54 147.76,-140.89"/>
<polygon fill="#63b8ff" stroke="#63b8ff" points="151.28,-140.74 146.4,-131.33 144.35,-141.73 151.28,-140.74"/>
</a>
</g>
<g id="a_edge2&#45;headlabel"><a xlink:href="dir_000078_000051.html" target="_top" xlink:title="7">
<text text-anchor="middle" x="154.38" y="-138.52" font-family="Helvetica,sans-Serif" font-size="10.00" fill="#63b8ff">7</text>
</a>
</g>
</g>
<!-- dir_d44c64559bbebec7f509842c48db8b23 -->
<g id="node8" class="node">
<title>dir_d44c64559bbebec7f509842c48db8b23</title>
<g id="a_node8"><a xlink:href="dir_d44c64559bbebec7f509842c48db8b23.html" target="_top" xlink:title="include">
<polygon fill="#edf0f7" stroke="red" points="281.38,-19.25 234.62,-19.25 234.62,0 281.38,0 281.38,-19.25"/>
<text text-anchor="middle" x="258" y="-5.75" font-family="Helvetica,sans-Serif" font-size="10.00">include</text>
</a>
</g>
</g>
<!-- dir_7c4c796ec9937bed8074dafcec3d25e4&#45;&gt;dir_d44c64559bbebec7f509842c48db8b23 -->
<g id="edge4" class="edge">
<title>dir_7c4c796ec9937bed8074dafcec3d25e4&#45;&gt;dir_d44c64559bbebec7f509842c48db8b23</title>
<g id="a_edge4"><a xlink:href="dir_000078_000039.html" target="_top">
<path fill="none" stroke="#63b8ff" d="M196.54,-285.41C233.42,-284.96 305.03,-278.75 348,-240.25 370.59,-220.01 372,-206.7 372,-176.38 372,-176.38 372,-176.38 372,-119.12 372,-82.06 374,-65.67 348,-39.25 333.59,-24.61 311.73,-17.44 293.16,-13.94"/>
<polygon fill="#63b8ff" stroke="#63b8ff" points="293.75,-10.49 283.33,-12.4 292.67,-17.41 293.75,-10.49"/>
</a>
</g>
<g id="a_edge4&#45;headlabel"><a xlink:href="dir_000078_000039.html" target="_top" xlink:title="106">
<text text-anchor="middle" x="296.25" y="-4.13" font-family="Helvetica,sans-Serif" font-size="10.00" fill="#63b8ff">106</text>
</a>
</g>
</g>
<!-- dir_2acc9ac41bab451ccb7f12c38e9a27aa -->
<g id="node2" class="node">
<title>dir_2acc9ac41bab451ccb7f12c38e9a27aa</title>
<g id="a_node2"><a xlink:href="dir_2acc9ac41bab451ccb7f12c38e9a27aa.html" target="_top" xlink:title="arch">
<polygon fill="#a2b4d6" stroke="#404040" points="82.38,-295.5 47.62,-295.5 47.62,-276.25 82.38,-276.25 82.38,-295.5"/>
<text text-anchor="middle" x="65" y="-282" font-family="Helvetica,sans-Serif" font-size="10.00">arch</text>
</a>
</g>
</g>
<!-- dir_2acc9ac41bab451ccb7f12c38e9a27aa&#45;&gt;dir_42d4540ea64ab009ab7a7dcd79fe63e8 -->
<g id="edge8" class="edge">
<title>dir_2acc9ac41bab451ccb7f12c38e9a27aa&#45;&gt;dir_42d4540ea64ab009ab7a7dcd79fe63e8</title>
<g id="a_edge8"><a xlink:href="dir_000008_000022.html" target="_top">
<path fill="none" stroke="#63b8ff" d="M75.86,-275.84C85.11,-268.15 98.62,-256.9 109.71,-247.68"/>
<polygon fill="#63b8ff" stroke="#63b8ff" points="111.69,-250.58 117.14,-241.49 107.21,-245.2 111.69,-250.58"/>
</a>
</g>
<g id="a_edge8&#45;headlabel"><a xlink:href="dir_000008_000022.html" target="_top" xlink:title="1">
<text text-anchor="middle" x="111.91" y="-250.22" font-family="Helvetica,sans-Serif" font-size="10.00" fill="#63b8ff">1</text>
</a>
</g>
</g>
<!-- dir_2acc9ac41bab451ccb7f12c38e9a27aa&#45;&gt;dir_1dc53930709e46457d0e1484ec309f4d -->
<g id="edge6" class="edge">
<title>dir_2acc9ac41bab451ccb7f12c38e9a27aa&#45;&gt;dir_1dc53930709e46457d0e1484ec309f4d</title>
<g id="a_edge6"><a xlink:href="dir_000008_000027.html" target="_top">
<path fill="none" stroke="#63b8ff" d="M62.45,-275.79C55.47,-249.29 38.03,-170.19 60,-110.5 63.84,-100.07 71.32,-90.41 78.64,-82.77"/>
<polygon fill="#63b8ff" stroke="#63b8ff" points="81.06,-85.3 85.84,-75.85 76.2,-80.26 81.06,-85.3"/>
</a>
</g>
<g id="a_edge6&#45;headlabel"><a xlink:href="dir_000008_000027.html" target="_top" xlink:title="2">
<text text-anchor="middle" x="81.52" y="-84.92" font-family="Helvetica,sans-Serif" font-size="10.00" fill="#63b8ff">2</text>
</a>
</g>
</g>
<!-- dir_2acc9ac41bab451ccb7f12c38e9a27aa&#45;&gt;dir_dfce509d3294b4958bedddff0a015025 -->
<g id="edge10" class="edge">
<title>dir_2acc9ac41bab451ccb7f12c38e9a27aa&#45;&gt;dir_dfce509d3294b4958bedddff0a015025</title>
<g id="a_edge10"><a xlink:href="dir_000008_000033.html" target="_top">
<path fill="none" stroke="#63b8ff" d="M67.14,-275.93C70.78,-262.46 79.33,-236.87 95,-221 111.06,-204.74 134.23,-193.55 153.3,-186.44"/>
<polygon fill="#63b8ff" stroke="#63b8ff" points="154.25,-189.81 162.54,-183.22 151.95,-183.21 154.25,-189.81"/>
</a>
</g>
<g id="a_edge10&#45;headlabel"><a xlink:href="dir_000008_000033.html" target="_top" xlink:title="5">
<text text-anchor="middle" x="153.22" y="-189.31" font-family="Helvetica,sans-Serif" font-size="10.00" fill="#63b8ff">5</text>
</a>
</g>
</g>
<!-- dir_2acc9ac41bab451ccb7f12c38e9a27aa&#45;&gt;dir_3a646564ec239f35c01425f0e9da2ba2 -->
<g id="edge7" class="edge">
<title>dir_2acc9ac41bab451ccb7f12c38e9a27aa&#45;&gt;dir_3a646564ec239f35c01425f0e9da2ba2</title>
<g id="a_edge7"><a xlink:href="dir_000008_000051.html" target="_top">
<path fill="none" stroke="#63b8ff" d="M65.53,-275.87C66.53,-263.19 69.33,-239.56 77,-221 90.03,-189.47 113.95,-157.69 129.66,-138.7"/>
<polygon fill="#63b8ff" stroke="#63b8ff" points="132.26,-141.06 136.05,-131.16 126.92,-136.53 132.26,-141.06"/>
</a>
</g>
<g id="a_edge7&#45;headlabel"><a xlink:href="dir_000008_000051.html" target="_top" xlink:title="1">
<text text-anchor="middle" x="133.08" y="-140.6" font-family="Helvetica,sans-Serif" font-size="10.00" fill="#63b8ff">1</text>
</a>
</g>
</g>
<!-- dir_2acc9ac41bab451ccb7f12c38e9a27aa&#45;&gt;dir_d44c64559bbebec7f509842c48db8b23 -->
<g id="edge9" class="edge">
<title>dir_2acc9ac41bab451ccb7f12c38e9a27aa&#45;&gt;dir_d44c64559bbebec7f509842c48db8b23</title>
<g id="a_edge9"><a xlink:href="dir_000008_000039.html" target="_top">
<path fill="none" stroke="#63b8ff" d="M82.79,-282.99C116.58,-278.89 191.78,-267.27 249,-240.25 291.73,-220.07 334,-223.63 334,-176.38 334,-176.38 334,-176.38 334,-119.12 334,-80.52 301.32,-45.89 278.82,-26.62"/>
<polygon fill="#63b8ff" stroke="#63b8ff" points="281.33,-24.16 271.38,-20.52 276.89,-29.57 281.33,-24.16"/>
</a>
</g>
<g id="a_edge9&#45;headlabel"><a xlink:href="dir_000008_000039.html" target="_top" xlink:title="25">
<text text-anchor="middle" x="284.74" y="-19.41" font-family="Helvetica,sans-Serif" font-size="10.00" fill="#63b8ff">25</text>
</a>
</g>
</g>
<!-- dir_42d4540ea64ab009ab7a7dcd79fe63e8&#45;&gt;dir_1dc53930709e46457d0e1484ec309f4d -->
<g id="edge11" class="edge">
<title>dir_42d4540ea64ab009ab7a7dcd79fe63e8&#45;&gt;dir_1dc53930709e46457d0e1484ec309f4d</title>
<g id="a_edge11"><a xlink:href="dir_000022_000027.html" target="_top">
<path fill="none" stroke="#63b8ff" d="M127.33,-220.82C122.52,-195.39 108.5,-121.35 101.74,-85.62"/>
<polygon fill="#63b8ff" stroke="#63b8ff" points="105.26,-85.38 99.96,-76.21 98.38,-86.69 105.26,-85.38"/>
</a>
</g>
<g id="a_edge11&#45;headlabel"><a xlink:href="dir_000022_000027.html" target="_top" xlink:title="1">
<text text-anchor="middle" x="108.43" y="-83.03" font-family="Helvetica,sans-Serif" font-size="10.00" fill="#63b8ff">1</text>
</a>
</g>
</g>
<!-- dir_42d4540ea64ab009ab7a7dcd79fe63e8&#45;&gt;dir_dfce509d3294b4958bedddff0a015025 -->
<g id="edge14" class="edge">
<title>dir_42d4540ea64ab009ab7a7dcd79fe63e8&#45;&gt;dir_dfce509d3294b4958bedddff0a015025</title>
<g id="a_edge14"><a xlink:href="dir_000022_000033.html" target="_top">
<path fill="none" stroke="#63b8ff" d="M138.84,-220.59C147.05,-213.05 158.98,-202.1 168.91,-192.98"/>
<polygon fill="#63b8ff" stroke="#63b8ff" points="171.19,-195.64 176.19,-186.3 166.46,-190.48 171.19,-195.64"/>
</a>
</g>
<g id="a_edge14&#45;headlabel"><a xlink:href="dir_000022_000033.html" target="_top" xlink:title="1">
<text text-anchor="middle" x="171.58" y="-195.26" font-family="Helvetica,sans-Serif" font-size="10.00" fill="#63b8ff">1</text>
</a>
</g>
</g>
<!-- dir_42d4540ea64ab009ab7a7dcd79fe63e8&#45;&gt;dir_3a646564ec239f35c01425f0e9da2ba2 -->
<g id="edge12" class="edge">
<title>dir_42d4540ea64ab009ab7a7dcd79fe63e8&#45;&gt;dir_3a646564ec239f35c01425f0e9da2ba2</title>
<g id="a_edge12"><a xlink:href="dir_000022_000051.html" target="_top">
<path fill="none" stroke="#63b8ff" d="M130.31,-220.75C132.85,-203.5 138.52,-165.08 142.02,-141.31"/>
<polygon fill="#63b8ff" stroke="#63b8ff" points="145.46,-142.03 143.45,-131.62 138.53,-141.01 145.46,-142.03"/>
</a>
</g>
<g id="a_edge12&#45;headlabel"><a xlink:href="dir_000022_000051.html" target="_top" xlink:title="1">
<text text-anchor="middle" x="147.96" y="-140.63" font-family="Helvetica,sans-Serif" font-size="10.00" fill="#63b8ff">1</text>
</a>
</g>
</g>
<!-- dir_42d4540ea64ab009ab7a7dcd79fe63e8&#45;&gt;dir_d44c64559bbebec7f509842c48db8b23 -->
<g id="edge13" class="edge">
<title>dir_42d4540ea64ab009ab7a7dcd79fe63e8&#45;&gt;dir_d44c64559bbebec7f509842c48db8b23</title>
<g id="a_edge13"><a xlink:href="dir_000022_000039.html" target="_top">
<path fill="none" stroke="#63b8ff" d="M154.19,-223.58C174.71,-217.35 202.83,-205.56 219,-185 255.21,-138.96 259.22,-65.98 258.83,-30.84"/>
<polygon fill="#63b8ff" stroke="#63b8ff" points="262.34,-31.14 258.58,-21.24 255.35,-31.33 262.34,-31.14"/>
</a>
</g>
<g id="a_edge13&#45;headlabel"><a xlink:href="dir_000022_000039.html" target="_top" xlink:title="7">
<text text-anchor="middle" x="265.24" y="-29.28" font-family="Helvetica,sans-Serif" font-size="10.00" fill="#63b8ff">7</text>
</a>
</g>
</g>
<!-- dir_1dc53930709e46457d0e1484ec309f4d&#45;&gt;dir_d44c64559bbebec7f509842c48db8b23 -->
<g id="edge15" class="edge">
<title>dir_1dc53930709e46457d0e1484ec309f4d&#45;&gt;dir_d44c64559bbebec7f509842c48db8b23</title>
<g id="a_edge15"><a xlink:href="dir_000027_000039.html" target="_top">
<path fill="none" stroke="#63b8ff" d="M115.55,-55.18C126.21,-50.11 140.19,-43.83 153,-39.25 176.01,-31.02 202.57,-23.8 223.22,-18.67"/>
<polygon fill="#63b8ff" stroke="#63b8ff" points="223.96,-22.09 232.85,-16.33 222.31,-15.29 223.96,-22.09"/>
</a>
</g>
<g id="a_edge15&#45;headlabel"><a xlink:href="dir_000027_000039.html" target="_top" xlink:title="3">
<text text-anchor="middle" x="222.61" y="-21.46" font-family="Helvetica,sans-Serif" font-size="10.00" fill="#63b8ff">3</text>
</a>
</g>
</g>
<!-- dir_dfce509d3294b4958bedddff0a015025&#45;&gt;dir_1dc53930709e46457d0e1484ec309f4d -->
<g id="edge16" class="edge">
<title>dir_dfce509d3294b4958bedddff0a015025&#45;&gt;dir_1dc53930709e46457d0e1484ec309f4d</title>
<g id="a_edge16"><a xlink:href="dir_000033_000027.html" target="_top">
<path fill="none" stroke="#63b8ff" d="M187.2,-165.65C187.06,-152.47 185.09,-127.26 173,-110.5 161.48,-94.53 142.32,-83.27 126.25,-76.06"/>
<polygon fill="#63b8ff" stroke="#63b8ff" points="127.72,-72.88 117.15,-72.28 125.04,-79.34 127.72,-72.88"/>
</a>
</g>
<g id="a_edge16&#45;headlabel"><a xlink:href="dir_000033_000027.html" target="_top" xlink:title="3">
<text text-anchor="middle" x="130.73" y="-67.18" font-family="Helvetica,sans-Serif" font-size="10.00" fill="#63b8ff">3</text>
</a>
</g>
</g>
<!-- dir_dfce509d3294b4958bedddff0a015025&#45;&gt;dir_3a646564ec239f35c01425f0e9da2ba2 -->
<g id="edge17" class="edge">
<title>dir_dfce509d3294b4958bedddff0a015025&#45;&gt;dir_3a646564ec239f35c01425f0e9da2ba2</title>
<g id="a_edge17"><a xlink:href="dir_000033_000051.html" target="_top">
<path fill="none" stroke="#63b8ff" d="M180.06,-165.58C174.38,-158.38 166.16,-147.96 159.11,-139.01"/>
<polygon fill="#63b8ff" stroke="#63b8ff" points="161.96,-136.98 153.02,-131.3 156.47,-141.32 161.96,-136.98"/>
</a>
</g>
<g id="a_edge17&#45;headlabel"><a xlink:href="dir_000033_000051.html" target="_top" xlink:title="1">
<text text-anchor="middle" x="165.48" y="-132.98" font-family="Helvetica,sans-Serif" font-size="10.00" fill="#63b8ff">1</text>
</a>
</g>
</g>
<!-- dir_dfce509d3294b4958bedddff0a015025&#45;&gt;dir_d44c64559bbebec7f509842c48db8b23 -->
<g id="edge18" class="edge">
<title>dir_dfce509d3294b4958bedddff0a015025&#45;&gt;dir_d44c64559bbebec7f509842c48db8b23</title>
<g id="a_edge18"><a xlink:href="dir_000033_000039.html" target="_top">
<path fill="none" stroke="#63b8ff" d="M190.57,-165.45C199.29,-143.7 222.59,-86.29 244,-39.25 245.42,-36.13 246.97,-32.85 248.5,-29.67"/>
<polygon fill="#63b8ff" stroke="#63b8ff" points="251.52,-31.47 252.79,-20.95 245.24,-28.38 251.52,-31.47"/>
</a>
</g>
<g id="a_edge18&#45;headlabel"><a xlink:href="dir_000033_000039.html" target="_top" xlink:title="26">
<text text-anchor="middle" x="253.15" y="-30.71" font-family="Helvetica,sans-Serif" font-size="10.00" fill="#63b8ff">26</text>
</a>
</g>
</g>
<!-- dir_9c24722037d5ac7f64b4abda7bbd8009 -->
<g id="node6" class="node">
<title>dir_9c24722037d5ac7f64b4abda7bbd8009</title>
<g id="a_node6"><a xlink:href="dir_9c24722037d5ac7f64b4abda7bbd8009.html" target="_top" xlink:title="fs">
<polygon fill="#a2b4d6" stroke="#404040" points="240.4,-240.25 211.6,-240.25 211.6,-221 240.4,-221 240.4,-240.25"/>
<text text-anchor="middle" x="226" y="-226.75" font-family="Helvetica,sans-Serif" font-size="10.00">fs</text>
</a>
</g>
</g>
<!-- dir_9c24722037d5ac7f64b4abda7bbd8009&#45;&gt;dir_dfce509d3294b4958bedddff0a015025 -->
<g id="edge20" class="edge">
<title>dir_9c24722037d5ac7f64b4abda7bbd8009&#45;&gt;dir_dfce509d3294b4958bedddff0a015025</title>
<g id="a_edge20"><a xlink:href="dir_000036_000033.html" target="_top">
<path fill="none" stroke="#63b8ff" d="M219.56,-220.83C214.34,-213.71 206.81,-203.43 200.31,-194.55"/>
<polygon fill="#63b8ff" stroke="#63b8ff" points="203.21,-192.58 194.47,-186.58 197.56,-196.72 203.21,-192.58"/>
</a>
</g>
<g id="a_edge20&#45;headlabel"><a xlink:href="dir_000036_000033.html" target="_top" xlink:title="1">
<text text-anchor="middle" x="206.73" y="-188.71" font-family="Helvetica,sans-Serif" font-size="10.00" fill="#63b8ff">1</text>
</a>
</g>
</g>
<!-- dir_9c24722037d5ac7f64b4abda7bbd8009&#45;&gt;dir_3a646564ec239f35c01425f0e9da2ba2 -->
<g id="edge21" class="edge">
<title>dir_9c24722037d5ac7f64b4abda7bbd8009&#45;&gt;dir_3a646564ec239f35c01425f0e9da2ba2</title>
<g id="a_edge21"><a xlink:href="dir_000036_000051.html" target="_top">
<path fill="none" stroke="#63b8ff" d="M227.37,-220.55C228.88,-207.38 229.81,-182.67 219,-165.75 208.76,-149.73 190.52,-138.63 174.71,-131.51"/>
<polygon fill="#63b8ff" stroke="#63b8ff" points="176.26,-128.36 165.68,-127.78 173.59,-134.83 176.26,-128.36"/>
</a>
</g>
<g id="a_edge21&#45;headlabel"><a xlink:href="dir_000036_000051.html" target="_top" xlink:title="1">
<text text-anchor="middle" x="179.27" y="-122.66" font-family="Helvetica,sans-Serif" font-size="10.00" fill="#63b8ff">1</text>
</a>
</g>
</g>
<!-- dir_9c24722037d5ac7f64b4abda7bbd8009&#45;&gt;dir_d44c64559bbebec7f509842c48db8b23 -->
<g id="edge19" class="edge">
<title>dir_9c24722037d5ac7f64b4abda7bbd8009&#45;&gt;dir_d44c64559bbebec7f509842c48db8b23</title>
<g id="a_edge19"><a xlink:href="dir_000036_000039.html" target="_top">
<path fill="none" stroke="#63b8ff" d="M240.23,-220.6C251.21,-212.71 265.58,-200.17 272,-185 297.24,-125.34 286.61,-102.36 272,-39.25 271.23,-35.92 270.01,-32.52 268.61,-29.29"/>
<polygon fill="#63b8ff" stroke="#63b8ff" points="271.85,-27.94 264.2,-20.61 265.61,-31.11 271.85,-27.94"/>
</a>
</g>
<g id="a_edge19&#45;headlabel"><a xlink:href="dir_000036_000039.html" target="_top" xlink:title="11">
<text text-anchor="middle" x="275.32" y="-24.63" font-family="Helvetica,sans-Serif" font-size="10.00" fill="#63b8ff">11</text>
</a>
</g>
</g>
<!-- dir_3a646564ec239f35c01425f0e9da2ba2&#45;&gt;dir_1dc53930709e46457d0e1484ec309f4d -->
<g id="edge22" class="edge">
<title>dir_3a646564ec239f35c01425f0e9da2ba2&#45;&gt;dir_1dc53930709e46457d0e1484ec309f4d</title>
<g id="a_edge22"><a xlink:href="dir_000051_000027.html" target="_top">
<path fill="none" stroke="#63b8ff" d="M137.24,-110.33C130.81,-103.05 121.49,-92.48 113.54,-83.48"/>
<polygon fill="#63b8ff" stroke="#63b8ff" points="116.17,-81.18 106.93,-75.99 110.92,-85.81 116.17,-81.18"/>
</a>
</g>
<g id="a_edge22&#45;headlabel"><a xlink:href="dir_000051_000027.html" target="_top" xlink:title="2">
<text text-anchor="middle" x="119.68" y="-76.98" font-family="Helvetica,sans-Serif" font-size="10.00" fill="#63b8ff">2</text>
</a>
</g>
</g>
<!-- dir_3a646564ec239f35c01425f0e9da2ba2&#45;&gt;dir_d44c64559bbebec7f509842c48db8b23 -->
<g id="edge23" class="edge">
<title>dir_3a646564ec239f35c01425f0e9da2ba2&#45;&gt;dir_d44c64559bbebec7f509842c48db8b23</title>
<g id="a_edge23"><a xlink:href="dir_000051_000039.html" target="_top">
<path fill="none" stroke="#63b8ff" d="M149.66,-110.17C158.33,-94.21 178.33,-60.51 203,-39.25 209.5,-33.65 217.29,-28.76 224.93,-24.68"/>
<polygon fill="#63b8ff" stroke="#63b8ff" points="226.36,-27.87 233.77,-20.3 223.26,-21.6 226.36,-27.87"/>
</a>
</g>
<g id="a_edge23&#45;headlabel"><a xlink:href="dir_000051_000039.html" target="_top" xlink:title="21">
<text text-anchor="middle" x="225.76" y="-27.47" font-family="Helvetica,sans-Serif" font-size="10.00" fill="#63b8ff">21</text>
</a>
</g>
</g>
</g>
</svg>
