<?xml version="1.0" encoding="UTF-8" standalone="no"?>
<!DOCTYPE svg PUBLIC "-//W3C//DTD SVG 1.1//EN"
 "http://www.w3.org/Graphics/SVG/1.1/DTD/svg11.dtd">
<!-- Generated by graphviz version 8.0.2 (20230410.1723)
 -->
<!-- Title: src/kernel/arch/x86_64 Pages: 1 -->
<svg width="381pt" height="345pt"
 viewBox="0.00 0.00 381.12 345.00" xmlns="http://www.w3.org/2000/svg" xmlns:xlink="http://www.w3.org/1999/xlink">
<g id="graph0" class="graph" transform="scale(1 1) rotate(0) translate(4 341)">
<title>src/kernel/arch/x86_64</title>
<g id="clust1" class="cluster">
<title>clusterdir_76e3dd4d2fa719e8d3b096e9aa563982</title>
<g id="a_clust1"><a xlink:href="dir_76e3dd4d2fa719e8d3b096e9aa563982.html" target="_top" xlink:title="arch">
<polygon fill="#edf0f7" stroke="#7f7f7f" stroke-dasharray="5,2" points="8,-39 8,-329 258,-329 258,-39 8,-39"/>
<text text-anchor="middle" x="133" y="-317" font-family="Helvetica,sans-Serif" font-size="10.00">arch</text>
</a>
</g>
</g>
<g id="clust2" class="cluster">
<title>clusterdir_7c4c796ec9937bed8074dafcec3d25e4</title>
<g id="a_clust2"><a xlink:href="dir_7c4c796ec9937bed8074dafcec3d25e4.html" target="_top">
<polygon fill="#edf0f7" stroke="#404040" stroke-width="2" points="16,-47 16,-302 250,-302 250,-47 16,-47"/>
</a>
</g>
</g>
<!-- dir_7c4c796ec9937bed8074dafcec3d25e4 -->
<g id="node1" class="node">
<title>dir_7c4c796ec9937bed8074dafcec3d25e4</title>
<text text-anchor="middle" x="173" y="-282" font-family="Helvetica,sans-Serif" font-size="10.00">x86_64</text>
</g>
<!-- dir_42d4540ea64ab009ab7a7dcd79fe63e8 -->
<g id="node3" class="node">
<title>dir_42d4540ea64ab009ab7a7dcd79fe63e8</title>
<g id="a_node3"><a xlink:href="dir_42d4540ea64ab009ab7a7dcd79fe63e8.html" target="_top" xlink:title="console">
<polygon fill="#a2b4d6" stroke="#404040" points="154,-239 104,-239 104,-220 154,-220 154,-239"/>
<text text-anchor="middle" x="129" y="-227" font-family="Helvetica,sans-Serif" font-size="10.00">console</text>
</a>
</g>
</g>
<!-- dir_7c4c796ec9937bed8074dafcec3d25e4&#45;&gt;dir_42d4540ea64ab009ab7a7dcd79fe63e8 -->
<g id="edge3" class="edge">
<title>dir_7c4c796ec9937bed8074dafcec3d25e4&#45;&gt;dir_42d4540ea64ab009ab7a7dcd79fe63e8</title>
<g id="a_edge3"><a xlink:href="dir_000078_000022.html" target="_top">
<path fill="none" stroke="#63b8ff" d="M166.12,-275.22C160.03,-267.88 150.95,-256.93 143.29,-247.71"/>
<polygon fill="#63b8ff" stroke="#63b8ff" points="145.35,-245.71 136.27,-240.25 139.96,-250.18 145.35,-245.71"/>
</a>
</g>
<g id="a_edge3&#45;headlabel"><a xlink:href="dir_000078_000022.html" target="_top" xlink:title="2">
<text text-anchor="middle" x="149.83" y="-243.16" font-family="Helvetica,sans-Serif" font-size="10.00" fill="#63b8ff">2</text>
</a>
</g>
</g>
<!-- dir_1dc53930709e46457d0e1484ec309f4d -->
<g id="node4" class="node">
<title>dir_1dc53930709e46457d0e1484ec309f4d</title>
<g id="a_node4"><a xlink:href="dir_1dc53930709e46457d0e1484ec309f4d.html" target="_top" xlink:title="core">
<polygon fill="#a2b4d6" stroke="#404040" points="115.5,-74 80.5,-74 80.5,-55 115.5,-55 115.5,-74"/>
<text text-anchor="middle" x="98" y="-62" font-family="Helvetica,sans-Serif" font-size="10.00">core</text>
</a>
</g>
</g>
<!-- dir_7c4c796ec9937bed8074dafcec3d25e4&#45;&gt;dir_1dc53930709e46457d0e1484ec309f4d -->
<g id="edge1" class="edge">
<title>dir_7c4c796ec9937bed8074dafcec3d25e4&#45;&gt;dir_1dc53930709e46457d0e1484ec309f4d</title>
<g id="a_edge1"><a xlink:href="dir_000078_000027.html" target="_top">
<path fill="none" stroke="#63b8ff" d="M149.25,-277.08C130.85,-270.71 106.59,-258.95 95,-239 66.31,-189.6 81.77,-118.18 91.72,-84.47"/>
<polygon fill="#63b8ff" stroke="#63b8ff" points="95.28,-85.81 94.92,-75.22 88.6,-83.72 95.28,-85.81"/>
</a>
</g>
<g id="a_edge1&#45;headlabel"><a xlink:href="dir_000078_000027.html" target="_top" xlink:title="9">
<text text-anchor="middle" x="96.91" y="-86.59" font-family="Helvetica,sans-Serif" font-size="10.00" fill="#63b8ff">9</text>
</a>
</g>
</g>
<!-- dir_dfce509d3294b4958bedddff0a015025 -->
<g id="node5" class="node">
<title>dir_dfce509d3294b4958bedddff0a015025</title>
<g id="a_node5"><a xlink:href="dir_dfce509d3294b4958bedddff0a015025.html" target="_top" xlink:title="drivers">
<polygon fill="#a2b4d6" stroke="#404040" points="211,-184 165,-184 165,-165 211,-165 211,-184"/>
<text text-anchor="middle" x="188" y="-172" font-family="Helvetica,sans-Serif" font-size="10.00">drivers</text>
</a>
</g>
</g>
<!-- dir_7c4c796ec9937bed8074dafcec3d25e4&#45;&gt;dir_dfce509d3294b4958bedddff0a015025 -->
<g id="edge5" class="edge">
<title>dir_7c4c796ec9937bed8074dafcec3d25e4&#45;&gt;dir_dfce509d3294b4958bedddff0a015025</title>
<g id="a_edge5"><a xlink:href="dir_000078_000033.html" target="_top">
<path fill="none" stroke="#63b8ff" d="M174.18,-275.03C176.55,-257.92 181.98,-218.87 185.28,-195.08"/>
<polygon fill="#63b8ff" stroke="#63b8ff" points="188.88,-195.62 186.79,-185.24 181.94,-194.66 188.88,-195.62"/>
</a>
</g>
<g id="a_edge5&#45;headlabel"><a xlink:href="dir_000078_000033.html" target="_top" xlink:title="10">
<text text-anchor="middle" x="191.2" y="-196.07" font-family="Helvetica,sans-Serif" font-size="10.00" fill="#63b8ff">10</text>
</a>
</g>
</g>
<!-- dir_3a646564ec239f35c01425f0e9da2ba2 -->
<g id="node7" class="node">
<title>dir_3a646564ec239f35c01425f0e9da2ba2</title>
<g id="a_node7"><a xlink:href="dir_3a646564ec239f35c01425f0e9da2ba2.html" target="_top" xlink:title="mmu">
<polygon fill="#a2b4d6" stroke="#404040" points="165,-129 127,-129 127,-110 165,-110 165,-129"/>
<text text-anchor="middle" x="146" y="-117" font-family="Helvetica,sans-Serif" font-size="10.00">mmu</text>
</a>
</g>
</g>
<!-- dir_7c4c796ec9937bed8074dafcec3d25e4&#45;&gt;dir_3a646564ec239f35c01425f0e9da2ba2 -->
<g id="edge2" class="edge">
<title>dir_7c4c796ec9937bed8074dafcec3d25e4&#45;&gt;dir_3a646564ec239f35c01425f0e9da2ba2</title>
<g id="a_edge2"><a xlink:href="dir_000078_000051.html" target="_top">
<path fill="none" stroke="#63b8ff" d="M171.8,-275.26C170.01,-263.14 166.48,-239.78 163,-220 160.18,-203.95 158.82,-200.05 156,-184 153.39,-169.17 150.76,-152.34 148.85,-139.73"/>
<polygon fill="#63b8ff" stroke="#63b8ff" points="152.2,-139.52 147.26,-130.14 145.28,-140.55 152.2,-139.52"/>
</a>
</g>
<g id="a_edge2&#45;headlabel"><a xlink:href="dir_000078_000051.html" target="_top" xlink:title="7">
<text text-anchor="middle" x="155.54" y="-139.15" font-family="Helvetica,sans-Serif" font-size="10.00" fill="#63b8ff">7</text>
</a>
</g>
</g>
<!-- dir_d44c64559bbebec7f509842c48db8b23 -->
<g id="node8" class="node">
<title>dir_d44c64559bbebec7f509842c48db8b23</title>
<g id="a_node8"><a xlink:href="dir_d44c64559bbebec7f509842c48db8b23.html" target="_top" xlink:title="include">
<polygon fill="#edf0f7" stroke="red" points="282.5,-19 235.5,-19 235.5,0 282.5,0 282.5,-19"/>
<text text-anchor="middle" x="259" y="-7" font-family="Helvetica,sans-Serif" font-size="10.00">include</text>
</a>
</g>
</g>
<!-- dir_7c4c796ec9937bed8074dafcec3d25e4&#45;&gt;dir_d44c64559bbebec7f509842c48db8b23 -->
<g id="edge4" class="edge">
<title>dir_7c4c796ec9937bed8074dafcec3d25e4&#45;&gt;dir_d44c64559bbebec7f509842c48db8b23</title>
<g id="a_edge4"><a xlink:href="dir_000078_000039.html" target="_top">
<path fill="none" stroke="#63b8ff" d="M196.97,-284.08C234.13,-283.67 305.85,-277.5 349,-239 371.51,-218.91 373,-205.67 373,-175.5 373,-175.5 373,-175.5 373,-118.5 373,-81.59 374.92,-65.27 349,-39 334.44,-24.24 312.3,-17.11 293.63,-13.67"/>
<polygon fill="#63b8ff" stroke="#63b8ff" points="294.25,-10.07 283.83,-12.01 293.18,-16.99 294.25,-10.07"/>
</a>
</g>
<g id="a_edge4&#45;headlabel"><a xlink:href="dir_000078_000039.html" target="_top" xlink:title="106">
<text text-anchor="middle" x="297.23" y="-5.31" font-family="Helvetica,sans-Serif" font-size="10.00" fill="#63b8ff">106</text>
</a>
</g>
</g>
<!-- dir_2acc9ac41bab451ccb7f12c38e9a27aa -->
<g id="node2" class="node">
<title>dir_2acc9ac41bab451ccb7f12c38e9a27aa</title>
<g id="a_node2"><a xlink:href="dir_2acc9ac41bab451ccb7f12c38e9a27aa.html" target="_top" xlink:title="arch">
<polygon fill="#a2b4d6" stroke="#404040" points="82.5,-294 47.5,-294 47.5,-275 82.5,-275 82.5,-294"/>
<text text-anchor="middle" x="65" y="-282" font-family="Helvetica,sans-Serif" font-size="10.00">arch</text>
</a>
</g>
</g>
<!-- dir_2acc9ac41bab451ccb7f12c38e9a27aa&#45;&gt;dir_42d4540ea64ab009ab7a7dcd79fe63e8 -->
<g id="edge8" class="edge">
<title>dir_2acc9ac41bab451ccb7f12c38e9a27aa&#45;&gt;dir_42d4540ea64ab009ab7a7dcd79fe63e8</title>
<g id="a_edge8"><a xlink:href="dir_000008_000022.html" target="_top">
<path fill="none" stroke="#63b8ff" d="M75.86,-274.51C85.2,-266.77 98.89,-255.43 110.04,-246.2"/>
<polygon fill="#63b8ff" stroke="#63b8ff" points="111.83,-248.43 117.3,-239.36 107.37,-243.04 111.83,-248.43"/>
</a>
</g>
<g id="a_edge8&#45;headlabel"><a xlink:href="dir_000008_000022.html" target="_top" xlink:title="1">
<text text-anchor="middle" x="111.88" y="-250.41" font-family="Helvetica,sans-Serif" font-size="10.00" fill="#63b8ff">1</text>
</a>
</g>
</g>
<!-- dir_2acc9ac41bab451ccb7f12c38e9a27aa&#45;&gt;dir_1dc53930709e46457d0e1484ec309f4d -->
<g id="edge6" class="edge">
<title>dir_2acc9ac41bab451ccb7f12c38e9a27aa&#45;&gt;dir_1dc53930709e46457d0e1484ec309f4d</title>
<g id="a_edge6"><a xlink:href="dir_000008_000027.html" target="_top">
<path fill="none" stroke="#63b8ff" d="M62.67,-274.84C56.12,-248.88 39.39,-169.79 61,-110 64.81,-99.45 72.33,-89.64 79.61,-81.93"/>
<polygon fill="#63b8ff" stroke="#63b8ff" points="81.54,-84.96 86.21,-75.45 76.63,-79.97 81.54,-84.96"/>
</a>
</g>
<g id="a_edge6&#45;headlabel"><a xlink:href="dir_000008_000027.html" target="_top" xlink:title="2">
<text text-anchor="middle" x="81.96" y="-86.01" font-family="Helvetica,sans-Serif" font-size="10.00" fill="#63b8ff">2</text>
</a>
</g>
</g>
<!-- dir_2acc9ac41bab451ccb7f12c38e9a27aa&#45;&gt;dir_dfce509d3294b4958bedddff0a015025 -->
<g id="edge10" class="edge">
<title>dir_2acc9ac41bab451ccb7f12c38e9a27aa&#45;&gt;dir_dfce509d3294b4958bedddff0a015025</title>
<g id="a_edge10"><a xlink:href="dir_000008_000033.html" target="_top">
<path fill="none" stroke="#63b8ff" d="M67.15,-274.59C70.79,-261.19 79.35,-235.73 95,-220 111.4,-203.51 135.12,-192.3 154.49,-185.25"/>
<polygon fill="#63b8ff" stroke="#63b8ff" points="155.4,-188.3 163.73,-181.76 153.14,-181.67 155.4,-188.3"/>
</a>
</g>
<g id="a_edge10&#45;headlabel"><a xlink:href="dir_000008_000033.html" target="_top" xlink:title="5">
<text text-anchor="middle" x="153.91" y="-189.65" font-family="Helvetica,sans-Serif" font-size="10.00" fill="#63b8ff">5</text>
</a>
</g>
</g>
<!-- dir_2acc9ac41bab451ccb7f12c38e9a27aa&#45;&gt;dir_3a646564ec239f35c01425f0e9da2ba2 -->
<g id="edge7" class="edge">
<title>dir_2acc9ac41bab451ccb7f12c38e9a27aa&#45;&gt;dir_3a646564ec239f35c01425f0e9da2ba2</title>
<g id="a_edge7"><a xlink:href="dir_000008_000051.html" target="_top">
<path fill="none" stroke="#63b8ff" d="M65.51,-274.54C66.5,-261.92 69.29,-238.42 77,-220 90.33,-188.17 114.93,-156.25 130.87,-137.45"/>
<polygon fill="#63b8ff" stroke="#63b8ff" points="134.01,-140.17 137.91,-130.32 128.72,-135.59 134.01,-140.17"/>
</a>
</g>
<g id="a_edge7&#45;headlabel"><a xlink:href="dir_000008_000051.html" target="_top" xlink:title="1">
<text text-anchor="middle" x="133.8" y="-141.25" font-family="Helvetica,sans-Serif" font-size="10.00" fill="#63b8ff">1</text>
</a>
</g>
</g>
<!-- dir_2acc9ac41bab451ccb7f12c38e9a27aa&#45;&gt;dir_d44c64559bbebec7f509842c48db8b23 -->
<g id="edge9" class="edge">
<title>dir_2acc9ac41bab451ccb7f12c38e9a27aa&#45;&gt;dir_d44c64559bbebec7f509842c48db8b23</title>
<g id="a_edge9"><a xlink:href="dir_000008_000039.html" target="_top">
<path fill="none" stroke="#63b8ff" d="M82.99,-281.68C117.16,-277.7 193.2,-266.29 251,-239 293.32,-219.02 335,-222.3 335,-175.5 335,-175.5 335,-175.5 335,-118.5 335,-79.84 302.03,-45.25 279.52,-26.15"/>
<polygon fill="#63b8ff" stroke="#63b8ff" points="282.18,-22.98 272.21,-19.38 277.76,-28.41 282.18,-22.98"/>
</a>
</g>
<g id="a_edge9&#45;headlabel"><a xlink:href="dir_000008_000039.html" target="_top" xlink:title="25">
<text text-anchor="middle" x="285.76" y="-20.55" font-family="Helvetica,sans-Serif" font-size="10.00" fill="#63b8ff">25</text>
</a>
</g>
</g>
<!-- dir_42d4540ea64ab009ab7a7dcd79fe63e8&#45;&gt;dir_1dc53930709e46457d0e1484ec309f4d -->
<g id="edge11" class="edge">
<title>dir_42d4540ea64ab009ab7a7dcd79fe63e8&#45;&gt;dir_1dc53930709e46457d0e1484ec309f4d</title>
<g id="a_edge11"><a xlink:href="dir_000022_000027.html" target="_top">
<path fill="none" stroke="#63b8ff" d="M127.33,-219.74C122.5,-194.31 108.38,-120.08 101.65,-84.69"/>
<polygon fill="#63b8ff" stroke="#63b8ff" points="104.98,-84.48 99.67,-75.31 98.1,-85.78 104.98,-84.48"/>
</a>
</g>
<g id="a_edge11&#45;headlabel"><a xlink:href="dir_000022_000027.html" target="_top" xlink:title="1">
<text text-anchor="middle" x="108.44" y="-83.98" font-family="Helvetica,sans-Serif" font-size="10.00" fill="#63b8ff">1</text>
</a>
</g>
</g>
<!-- dir_42d4540ea64ab009ab7a7dcd79fe63e8&#45;&gt;dir_dfce509d3294b4958bedddff0a015025 -->
<g id="edge14" class="edge">
<title>dir_42d4540ea64ab009ab7a7dcd79fe63e8&#45;&gt;dir_dfce509d3294b4958bedddff0a015025</title>
<g id="a_edge14"><a xlink:href="dir_000022_000033.html" target="_top">
<path fill="none" stroke="#63b8ff" d="M139.01,-219.51C147.54,-211.85 160,-200.66 170.22,-191.47"/>
<polygon fill="#63b8ff" stroke="#63b8ff" points="172.04,-194.64 177.14,-185.36 167.36,-189.44 172.04,-194.64"/>
</a>
</g>
<g id="a_edge14&#45;headlabel"><a xlink:href="dir_000022_000033.html" target="_top" xlink:title="1">
<text text-anchor="middle" x="172.26" y="-195.66" font-family="Helvetica,sans-Serif" font-size="10.00" fill="#63b8ff">1</text>
</a>
</g>
</g>
<!-- dir_42d4540ea64ab009ab7a7dcd79fe63e8&#45;&gt;dir_3a646564ec239f35c01425f0e9da2ba2 -->
<g id="edge12" class="edge">
<title>dir_42d4540ea64ab009ab7a7dcd79fe63e8&#45;&gt;dir_3a646564ec239f35c01425f0e9da2ba2</title>
<g id="a_edge12"><a xlink:href="dir_000022_000051.html" target="_top">
<path fill="none" stroke="#63b8ff" d="M130.39,-219.66C133.11,-202.42 139.17,-163.9 142.89,-140.27"/>
<polygon fill="#63b8ff" stroke="#63b8ff" points="146.49,-140.88 144.59,-130.46 139.58,-139.79 146.49,-140.88"/>
</a>
</g>
<g id="a_edge12&#45;headlabel"><a xlink:href="dir_000022_000051.html" target="_top" xlink:title="1">
<text text-anchor="middle" x="148.74" y="-141.38" font-family="Helvetica,sans-Serif" font-size="10.00" fill="#63b8ff">1</text>
</a>
</g>
</g>
<!-- dir_42d4540ea64ab009ab7a7dcd79fe63e8&#45;&gt;dir_d44c64559bbebec7f509842c48db8b23 -->
<g id="edge13" class="edge">
<title>dir_42d4540ea64ab009ab7a7dcd79fe63e8&#45;&gt;dir_d44c64559bbebec7f509842c48db8b23</title>
<g id="a_edge13"><a xlink:href="dir_000022_000039.html" target="_top">
<path fill="none" stroke="#63b8ff" d="M154.46,-222.57C175.2,-216.4 203.62,-204.68 220,-184 256.36,-138.08 260.25,-64.95 259.82,-30.14"/>
<polygon fill="#63b8ff" stroke="#63b8ff" points="263.3,-30.08 259.52,-20.18 256.3,-30.27 263.3,-30.08"/>
</a>
</g>
<g id="a_edge13&#45;headlabel"><a xlink:href="dir_000022_000039.html" target="_top" xlink:title="7">
<text text-anchor="middle" x="266.23" y="-30.09" font-family="Helvetica,sans-Serif" font-size="10.00" fill="#63b8ff">7</text>
</a>
</g>
</g>
<!-- dir_1dc53930709e46457d0e1484ec309f4d&#45;&gt;dir_d44c64559bbebec7f509842c48db8b23 -->
<g id="edge15" class="edge">
<title>dir_1dc53930709e46457d0e1484ec309f4d&#45;&gt;dir_d44c64559bbebec7f509842c48db8b23</title>
<g id="a_edge15"><a xlink:href="dir_000027_000039.html" target="_top">
<path fill="none" stroke="#63b8ff" d="M115.89,-54.87C126.75,-49.83 140.99,-43.58 154,-39 177.26,-30.81 204.1,-23.56 224.82,-18.42"/>
<polygon fill="#63b8ff" stroke="#63b8ff" points="225.45,-21.63 234.34,-15.86 223.8,-14.83 225.45,-21.63"/>
</a>
</g>
<g id="a_edge15&#45;headlabel"><a xlink:href="dir_000027_000039.html" target="_top" xlink:title="3">
<text text-anchor="middle" x="223.63" y="-22.74" font-family="Helvetica,sans-Serif" font-size="10.00" fill="#63b8ff">3</text>
</a>
</g>
</g>
<!-- dir_dfce509d3294b4958bedddff0a015025&#45;&gt;dir_1dc53930709e46457d0e1484ec309f4d -->
<g id="edge16" class="edge">
<title>dir_dfce509d3294b4958bedddff0a015025&#45;&gt;dir_1dc53930709e46457d0e1484ec309f4d</title>
<g id="a_edge16"><a xlink:href="dir_000033_000027.html" target="_top">
<path fill="none" stroke="#63b8ff" d="M188.2,-164.81C188.06,-151.7 186.09,-126.61 174,-110 162.19,-93.77 142.52,-82.49 126.14,-75.34"/>
<polygon fill="#63b8ff" stroke="#63b8ff" points="127.56,-71.74 116.97,-71.23 124.94,-78.23 127.56,-71.74"/>
</a>
</g>
<g id="a_edge16&#45;headlabel"><a xlink:href="dir_000033_000027.html" target="_top" xlink:title="3">
<text text-anchor="middle" x="130.95" y="-67.95" font-family="Helvetica,sans-Serif" font-size="10.00" fill="#63b8ff">3</text>
</a>
</g>
</g>
<!-- dir_dfce509d3294b4958bedddff0a015025&#45;&gt;dir_3a646564ec239f35c01425f0e9da2ba2 -->
<g id="edge17" class="edge">
<title>dir_dfce509d3294b4958bedddff0a015025&#45;&gt;dir_3a646564ec239f35c01425f0e9da2ba2</title>
<g id="a_edge17"><a xlink:href="dir_000033_000051.html" target="_top">
<path fill="none" stroke="#63b8ff" d="M181.06,-164.75C175.32,-157.5 166.99,-146.98 159.88,-138.02"/>
<polygon fill="#63b8ff" stroke="#63b8ff" points="162.04,-136.11 153.09,-130.44 156.55,-140.45 162.04,-136.11"/>
</a>
</g>
<g id="a_edge17&#45;headlabel"><a xlink:href="dir_000033_000051.html" target="_top" xlink:title="1">
<text text-anchor="middle" x="166.5" y="-133.66" font-family="Helvetica,sans-Serif" font-size="10.00" fill="#63b8ff">1</text>
</a>
</g>
</g>
<!-- dir_dfce509d3294b4958bedddff0a015025&#45;&gt;dir_d44c64559bbebec7f509842c48db8b23 -->
<g id="edge18" class="edge">
<title>dir_dfce509d3294b4958bedddff0a015025&#45;&gt;dir_d44c64559bbebec7f509842c48db8b23</title>
<g id="a_edge18"><a xlink:href="dir_000033_000039.html" target="_top">
<path fill="none" stroke="#63b8ff" d="M191.57,-164.61C200.3,-142.96 223.6,-85.82 245,-39 246.47,-35.79 248.07,-32.41 249.66,-29.14"/>
<polygon fill="#63b8ff" stroke="#63b8ff" points="253.17,-30.94 254.46,-20.42 246.89,-27.84 253.17,-30.94"/>
</a>
</g>
<g id="a_edge18&#45;headlabel"><a xlink:href="dir_000033_000039.html" target="_top" xlink:title="26">
<text text-anchor="middle" x="254.12" y="-31.92" font-family="Helvetica,sans-Serif" font-size="10.00" fill="#63b8ff">26</text>
</a>
</g>
</g>
<!-- dir_9c24722037d5ac7f64b4abda7bbd8009 -->
<g id="node6" class="node">
<title>dir_9c24722037d5ac7f64b4abda7bbd8009</title>
<g id="a_node6"><a xlink:href="dir_9c24722037d5ac7f64b4abda7bbd8009.html" target="_top" xlink:title="fs">
<polygon fill="#a2b4d6" stroke="#404040" points="241.5,-239 212.5,-239 212.5,-220 241.5,-220 241.5,-239"/>
<text text-anchor="middle" x="227" y="-227" font-family="Helvetica,sans-Serif" font-size="10.00">fs</text>
</a>
</g>
</g>
<!-- dir_9c24722037d5ac7f64b4abda7bbd8009&#45;&gt;dir_dfce509d3294b4958bedddff0a015025 -->
<g id="edge20" class="edge">
<title>dir_9c24722037d5ac7f64b4abda7bbd8009&#45;&gt;dir_dfce509d3294b4958bedddff0a015025</title>
<g id="a_edge20"><a xlink:href="dir_000036_000033.html" target="_top">
<path fill="none" stroke="#63b8ff" d="M220.56,-219.75C215.23,-212.5 207.49,-201.98 200.89,-193.02"/>
<polygon fill="#63b8ff" stroke="#63b8ff" points="203.33,-191.42 194.58,-185.44 197.69,-195.57 203.33,-191.42"/>
</a>
</g>
<g id="a_edge20&#45;headlabel"><a xlink:href="dir_000036_000033.html" target="_top" xlink:title="1">
<text text-anchor="middle" x="207.74" y="-189.13" font-family="Helvetica,sans-Serif" font-size="10.00" fill="#63b8ff">1</text>
</a>
</g>
</g>
<!-- dir_9c24722037d5ac7f64b4abda7bbd8009&#45;&gt;dir_3a646564ec239f35c01425f0e9da2ba2 -->
<g id="edge21" class="edge">
<title>dir_9c24722037d5ac7f64b4abda7bbd8009&#45;&gt;dir_3a646564ec239f35c01425f0e9da2ba2</title>
<g id="a_edge21"><a xlink:href="dir_000036_000051.html" target="_top">
<path fill="none" stroke="#63b8ff" d="M228.31,-219.91C229.83,-206.92 230.89,-182 220,-165 209.65,-148.84 191.16,-137.72 175.25,-130.64"/>
<polygon fill="#63b8ff" stroke="#63b8ff" points="176.86,-127.1 166.28,-126.55 174.21,-133.58 176.86,-127.1"/>
</a>
</g>
<g id="a_edge21&#45;headlabel"><a xlink:href="dir_000036_000051.html" target="_top" xlink:title="1">
<text text-anchor="middle" x="180.26" y="-123.34" font-family="Helvetica,sans-Serif" font-size="10.00" fill="#63b8ff">1</text>
</a>
</g>
</g>
<!-- dir_9c24722037d5ac7f64b4abda7bbd8009&#45;&gt;dir_d44c64559bbebec7f509842c48db8b23 -->
<g id="edge19" class="edge">
<title>dir_9c24722037d5ac7f64b4abda7bbd8009&#45;&gt;dir_d44c64559bbebec7f509842c48db8b23</title>
<g id="a_edge19"><a xlink:href="dir_000036_000039.html" target="_top">
<path fill="none" stroke="#63b8ff" d="M241.23,-219.51C252.21,-211.65 266.58,-199.14 273,-184 298.15,-124.67 287.59,-101.77 273,-39 272.2,-35.57 270.93,-32.07 269.47,-28.76"/>
<polygon fill="#63b8ff" stroke="#63b8ff" points="272.19,-27.39 264.51,-20.09 265.96,-30.59 272.19,-27.39"/>
</a>
</g>
<g id="a_edge19&#45;headlabel"><a xlink:href="dir_000036_000039.html" target="_top" xlink:title="11">
<text text-anchor="middle" x="276.36" y="-25.8" font-family="Helvetica,sans-Serif" font-size="10.00" fill="#63b8ff">11</text>
</a>
</g>
</g>
<!-- dir_3a646564ec239f35c01425f0e9da2ba2&#45;&gt;dir_1dc53930709e46457d0e1484ec309f4d -->
<g id="edge22" class="edge">
<title>dir_3a646564ec239f35c01425f0e9da2ba2&#45;&gt;dir_1dc53930709e46457d0e1484ec309f4d</title>
<g id="a_edge22"><a xlink:href="dir_000051_000027.html" target="_top">
<path fill="none" stroke="#63b8ff" d="M138.07,-109.75C131.37,-102.35 121.58,-91.54 113.36,-82.45"/>
<polygon fill="#63b8ff" stroke="#63b8ff" points="116.41,-80.5 107.1,-75.44 111.22,-85.2 116.41,-80.5"/>
</a>
</g>
<g id="a_edge22&#45;headlabel"><a xlink:href="dir_000051_000027.html" target="_top" xlink:title="2">
<text text-anchor="middle" x="119.92" y="-77.76" font-family="Helvetica,sans-Serif" font-size="10.00" fill="#63b8ff">2</text>
</a>
</g>
</g>
<!-- dir_3a646564ec239f35c01425f0e9da2ba2&#45;&gt;dir_d44c64559bbebec7f509842c48db8b23 -->
<g id="edge23" class="edge">
<title>dir_3a646564ec239f35c01425f0e9da2ba2&#45;&gt;dir_d44c64559bbebec7f509842c48db8b23</title>
<g id="a_edge23"><a xlink:href="dir_000051_000039.html" target="_top">
<path fill="none" stroke="#63b8ff" d="M150.67,-109.59C159.35,-93.69 179.37,-60.14 204,-39 210.66,-33.29 218.65,-28.32 226.46,-24.21"/>
<polygon fill="#63b8ff" stroke="#63b8ff" points="227.7,-27.01 235.14,-19.46 224.62,-20.72 227.7,-27.01"/>
</a>
</g>
<g id="a_edge23&#45;headlabel"><a xlink:href="dir_000051_000039.html" target="_top" xlink:title="21">
<text text-anchor="middle" x="226.73" y="-28.64" font-family="Helvetica,sans-Serif" font-size="10.00" fill="#63b8ff">21</text>
</a>
</g>
</g>
</g>
</svg>
