<?xml version="1.0" encoding="UTF-8" standalone="no"?>
<!DOCTYPE svg PUBLIC "-//W3C//DTD SVG 1.1//EN"
 "http://www.w3.org/Graphics/SVG/1.1/DTD/svg11.dtd">
<!-- Generated by graphviz version 8.0.2 (20230410.1723)
 -->
<!-- Title: src/kernel/arch/aarch32 Pages: 1 -->
<svg width="379pt" height="125pt"
 viewBox="0.00 0.00 379.00 125.00" xmlns="http://www.w3.org/2000/svg" xmlns:xlink="http://www.w3.org/1999/xlink">
<g id="graph0" class="graph" transform="scale(1 1) rotate(0) translate(4 121)">
<title>src/kernel/arch/aarch32</title>
<g id="clust1" class="cluster">
<title>clusterdir_76e3dd4d2fa719e8d3b096e9aa563982</title>
<g id="a_clust1"><a xlink:href="dir_76e3dd4d2fa719e8d3b096e9aa563982.html" target="_top" xlink:title="arch">
<polygon fill="#edf0f7" stroke="#7f7f7f" stroke-dasharray="5,2" points="8,-39 8,-109 363,-109 363,-39 8,-39"/>
<text text-anchor="middle" x="185.5" y="-97" font-family="Helvetica,sans-Serif" font-size="10.00">arch</text>
</a>
</g>
</g>
<g id="clust2" class="cluster">
<title>clusterdir_164d9d2f5b0c525076e27a6a92d62d00</title>
<g id="a_clust2"><a xlink:href="dir_164d9d2f5b0c525076e27a6a92d62d00.html" target="_top">
<polygon fill="#edf0f7" stroke="#404040" stroke-width="2" points="16,-47 16,-82 355,-82 355,-47 16,-47"/>
</a>
</g>
</g>
<!-- dir_164d9d2f5b0c525076e27a6a92d62d00 -->
<g id="node1" class="node">
<title>dir_164d9d2f5b0c525076e27a6a92d62d00</title>
<text text-anchor="middle" x="321" y="-62" font-family="Helvetica,sans-Serif" font-size="10.00">aarch32</text>
</g>
<!-- dir_d44c64559bbebec7f509842c48db8b23 -->
<g id="node7" class="node">
<title>dir_d44c64559bbebec7f509842c48db8b23</title>
<g id="a_node7"><a xlink:href="dir_d44c64559bbebec7f509842c48db8b23.html" target="_top" xlink:title="include">
<polygon fill="#edf0f7" stroke="red" points="255.5,-19 208.5,-19 208.5,0 255.5,0 255.5,-19"/>
<text text-anchor="middle" x="232" y="-7" font-family="Helvetica,sans-Serif" font-size="10.00">include</text>
</a>
</g>
</g>
<!-- dir_164d9d2f5b0c525076e27a6a92d62d00&#45;&gt;dir_d44c64559bbebec7f509842c48db8b23 -->
<g id="edge1" class="edge">
<title>dir_164d9d2f5b0c525076e27a6a92d62d00&#45;&gt;dir_d44c64559bbebec7f509842c48db8b23</title>
<g id="a_edge1"><a xlink:href="dir_000000_000039.html" target="_top">
<path fill="none" stroke="#63b8ff" d="M310.25,-55.14C303.7,-50.19 295.06,-43.95 287,-39 278.64,-33.86 269.25,-28.76 260.62,-24.33"/>
<polygon fill="#63b8ff" stroke="#63b8ff" points="262.47,-20.83 251.96,-19.47 259.32,-27.09 262.47,-20.83"/>
</a>
</g>
<g id="a_edge1&#45;headlabel"><a xlink:href="dir_000000_000039.html" target="_top" xlink:title="28">
<text text-anchor="middle" x="265.95" y="-17.41" font-family="Helvetica,sans-Serif" font-size="10.00" fill="#63b8ff">28</text>
</a>
</g>
</g>
<!-- dir_127b28394ef68d7ee8832494ea6f06dd -->
<g id="node2" class="node">
<title>dir_127b28394ef68d7ee8832494ea6f06dd</title>
<g id="a_node2"><a xlink:href="dir_127b28394ef68d7ee8832494ea6f06dd.html" target="_top" xlink:title="arch">
<polygon fill="#a2b4d6" stroke="#404040" points="277.5,-74 242.5,-74 242.5,-55 277.5,-55 277.5,-74"/>
<text text-anchor="middle" x="260" y="-62" font-family="Helvetica,sans-Serif" font-size="10.00">arch</text>
</a>
</g>
</g>
<!-- dir_127b28394ef68d7ee8832494ea6f06dd&#45;&gt;dir_d44c64559bbebec7f509842c48db8b23 -->
<g id="edge2" class="edge">
<title>dir_127b28394ef68d7ee8832494ea6f06dd&#45;&gt;dir_d44c64559bbebec7f509842c48db8b23</title>
<g id="a_edge2"><a xlink:href="dir_000004_000039.html" target="_top">
<path fill="none" stroke="#63b8ff" d="M255.38,-54.75C251.71,-47.81 246.46,-37.86 241.86,-29.16"/>
<polygon fill="#63b8ff" stroke="#63b8ff" points="244.49,-27.65 236.72,-20.44 238.3,-30.92 244.49,-27.65"/>
</a>
</g>
<g id="a_edge2&#45;headlabel"><a xlink:href="dir_000004_000039.html" target="_top" xlink:title="12">
<text text-anchor="middle" x="248.68" y="-26" font-family="Helvetica,sans-Serif" font-size="10.00" fill="#63b8ff">12</text>
</a>
</g>
</g>
<!-- dir_8599ff620e2cfe485ca84e035b93a5ea -->
<g id="node3" class="node">
<title>dir_8599ff620e2cfe485ca84e035b93a5ea</title>
<g id="a_node3"><a xlink:href="dir_8599ff620e2cfe485ca84e035b93a5ea.html" target="_top" xlink:title="board">
<polygon fill="#a2b4d6" stroke="#404040" points="224.5,-74 183.5,-74 183.5,-55 224.5,-55 224.5,-74"/>
<text text-anchor="middle" x="204" y="-62" font-family="Helvetica,sans-Serif" font-size="10.00">board</text>
</a>
</g>
</g>
<!-- dir_8599ff620e2cfe485ca84e035b93a5ea&#45;&gt;dir_d44c64559bbebec7f509842c48db8b23 -->
<g id="edge3" class="edge">
<title>dir_8599ff620e2cfe485ca84e035b93a5ea&#45;&gt;dir_d44c64559bbebec7f509842c48db8b23</title>
<g id="a_edge3"><a xlink:href="dir_000015_000039.html" target="_top">
<path fill="none" stroke="#63b8ff" d="M208.62,-54.75C212.29,-47.81 217.54,-37.86 222.14,-29.16"/>
<polygon fill="#63b8ff" stroke="#63b8ff" points="225.7,-30.92 227.28,-20.44 219.51,-27.65 225.7,-30.92"/>
</a>
</g>
<g id="a_edge3&#45;headlabel"><a xlink:href="dir_000015_000039.html" target="_top" xlink:title="14">
<text text-anchor="middle" x="226.53" y="-31.92" font-family="Helvetica,sans-Serif" font-size="10.00" fill="#63b8ff">14</text>
</a>
</g>
</g>
<!-- dir_9f169674381755ff82f5c420aa567a6a -->
<g id="node4" class="node">
<title>dir_9f169674381755ff82f5c420aa567a6a</title>
<g id="a_node4"><a xlink:href="dir_9f169674381755ff82f5c420aa567a6a.html" target="_top" xlink:title="core">
<polygon fill="#a2b4d6" stroke="#404040" points="165.5,-74 130.5,-74 130.5,-55 165.5,-55 165.5,-74"/>
<text text-anchor="middle" x="148" y="-62" font-family="Helvetica,sans-Serif" font-size="10.00">core</text>
</a>
</g>
</g>
<!-- dir_4af6b765c4f87f8f02f55c09da1949c7 -->
<g id="node5" class="node">
<title>dir_4af6b765c4f87f8f02f55c09da1949c7</title>
<g id="a_node5"><a xlink:href="dir_4af6b765c4f87f8f02f55c09da1949c7.html" target="_top" xlink:title="mmu">
<polygon fill="#a2b4d6" stroke="#404040" points="112,-74 74,-74 74,-55 112,-55 112,-74"/>
<text text-anchor="middle" x="93" y="-62" font-family="Helvetica,sans-Serif" font-size="10.00">mmu</text>
</a>
</g>
</g>
<!-- dir_4af6b765c4f87f8f02f55c09da1949c7&#45;&gt;dir_d44c64559bbebec7f509842c48db8b23 -->
<g id="edge4" class="edge">
<title>dir_4af6b765c4f87f8f02f55c09da1949c7&#45;&gt;dir_d44c64559bbebec7f509842c48db8b23</title>
<g id="a_edge4"><a xlink:href="dir_000049_000039.html" target="_top">
<path fill="none" stroke="#63b8ff" d="M101.38,-54.64C106.8,-49.39 114.27,-43 122,-39 145.68,-26.75 175.02,-19.49 197.44,-15.36"/>
<polygon fill="#63b8ff" stroke="#63b8ff" points="197.88,-18.67 207.15,-13.53 196.71,-11.77 197.88,-18.67"/>
</a>
</g>
<g id="a_edge4&#45;headlabel"><a xlink:href="dir_000049_000039.html" target="_top" xlink:title="1">
<text text-anchor="middle" x="195.82" y="-19.57" font-family="Helvetica,sans-Serif" font-size="10.00" fill="#63b8ff">1</text>
</a>
</g>
</g>
<!-- dir_d73a7f2c621826688c2d98a755c1a743 -->
<g id="node6" class="node">
<title>dir_d73a7f2c621826688c2d98a755c1a743</title>
<g id="a_node6"><a xlink:href="dir_d73a7f2c621826688c2d98a755c1a743.html" target="_top" xlink:title="sys">
<polygon fill="#a2b4d6" stroke="#404040" points="56,-74 24,-74 24,-55 56,-55 56,-74"/>
<text text-anchor="middle" x="40" y="-62" font-family="Helvetica,sans-Serif" font-size="10.00">sys</text>
</a>
</g>
</g>
</g>
</svg>
