<?xml version="1.0" encoding="UTF-8" standalone="no"?>
<!DOCTYPE svg PUBLIC "-//W3C//DTD SVG 1.1//EN"
 "http://www.w3.org/Graphics/SVG/1.1/DTD/svg11.dtd">
<!-- Generated by graphviz version 8.0.2 (20230410.1723)
 -->
<!-- Title: src/userland Pages: 1 -->
<svg width="837pt" height="125pt"
 viewBox="0.00 0.00 837.00 125.29" xmlns="http://www.w3.org/2000/svg" xmlns:xlink="http://www.w3.org/1999/xlink">
<g id="graph0" class="graph" transform="scale(1 1) rotate(0) translate(4 121.29)">
<title>src/userland</title>
<g id="clust1" class="cluster">
<title>clusterdir_68267d1309a1af8e8297ef4c3efbcdba</title>
<g id="a_clust1"><a xlink:href="dir_68267d1309a1af8e8297ef4c3efbcdba.html" target="_top" xlink:title="src">
<polygon fill="#edf0f7" stroke="#404040" stroke-dasharray="5,2" points="8,-39.29 8,-109.29 821,-109.29 821,-39.29 8,-39.29"/>
<text text-anchor="middle" x="414.5" y="-97.29" font-family="Helvetica,sans-Serif" font-size="10.00">src</text>
</a>
</g>
</g>
<g id="clust2" class="cluster">
<title>clusterdir_173c9e88aa581eef1e30c63858f75f59</title>
<g id="a_clust2"><a xlink:href="dir_173c9e88aa581eef1e30c63858f75f59.html" target="_top">
<polygon fill="#edf0f7" stroke="#404040" stroke-width="2" points="16,-47.29 16,-82.29 813,-82.29 813,-47.29 16,-47.29"/>
</a>
</g>
</g>
<!-- dir_173c9e88aa581eef1e30c63858f75f59 -->
<g id="node1" class="node">
<title>dir_173c9e88aa581eef1e30c63858f75f59</title>
<text text-anchor="middle" x="778" y="-62.29" font-family="Helvetica,sans-Serif" font-size="10.00">userland</text>
</g>
<!-- dir_ff40e54e40c9569df6fbe33f6c8a1bc1 -->
<g id="node2" class="node">
<title>dir_ff40e54e40c9569df6fbe33f6c8a1bc1</title>
<g id="a_node2"><a xlink:href="dir_ff40e54e40c9569df6fbe33f6c8a1bc1.html" target="_top" xlink:title="cal">
<polygon fill="#a2b4d6" stroke="#404040" points="733.5,-74.29 704.5,-74.29 704.5,-55.29 733.5,-55.29 733.5,-74.29"/>
<text text-anchor="middle" x="719" y="-62.29" font-family="Helvetica,sans-Serif" font-size="10.00">cal</text>
</a>
</g>
</g>
<!-- dir_d44c64559bbebec7f509842c48db8b23 -->
<g id="node14" class="node">
<title>dir_d44c64559bbebec7f509842c48db8b23</title>
<g id="a_node14"><a xlink:href="dir_d44c64559bbebec7f509842c48db8b23.html" target="_top" xlink:title="include">
<polygon fill="#edf0f7" stroke="red" points="460.5,-19.29 413.5,-19.29 413.5,-0.29 460.5,-0.29 460.5,-19.29"/>
<text text-anchor="middle" x="437" y="-7.29" font-family="Helvetica,sans-Serif" font-size="10.00">include</text>
</a>
</g>
</g>
<!-- dir_ff40e54e40c9569df6fbe33f6c8a1bc1&#45;&gt;dir_d44c64559bbebec7f509842c48db8b23 -->
<g id="edge1" class="edge">
<title>dir_ff40e54e40c9569df6fbe33f6c8a1bc1&#45;&gt;dir_d44c64559bbebec7f509842c48db8b23</title>
<g id="a_edge1"><a xlink:href="dir_000017_000039.html" target="_top">
<path fill="none" stroke="#63b8ff" d="M712.92,-55.02C708.6,-49.52 702.28,-42.83 695,-39.29 656.46,-20.53 532.72,-13.91 471.7,-11.75"/>
<polygon fill="#63b8ff" stroke="#63b8ff" points="471.83,-8.22 461.72,-11.38 471.6,-15.21 471.83,-8.22"/>
</a>
</g>
<g id="a_edge1&#45;headlabel"><a xlink:href="dir_000017_000039.html" target="_top" xlink:title="4">
<text text-anchor="middle" x="474.52" y="-3" font-family="Helvetica,sans-Serif" font-size="10.00" fill="#63b8ff">4</text>
</a>
</g>
</g>
<!-- dir_e1e6baff1b46d4bfd06d3776fb6d7587 -->
<g id="node3" class="node">
<title>dir_e1e6baff1b46d4bfd06d3776fb6d7587</title>
<g id="a_node3"><a xlink:href="dir_e1e6baff1b46d4bfd06d3776fb6d7587.html" target="_top" xlink:title="cat">
<polygon fill="#a2b4d6" stroke="#404040" points="686,-74.29 656,-74.29 656,-55.29 686,-55.29 686,-74.29"/>
<text text-anchor="middle" x="671" y="-62.29" font-family="Helvetica,sans-Serif" font-size="10.00">cat</text>
</a>
</g>
</g>
<!-- dir_e1e6baff1b46d4bfd06d3776fb6d7587&#45;&gt;dir_d44c64559bbebec7f509842c48db8b23 -->
<g id="edge2" class="edge">
<title>dir_e1e6baff1b46d4bfd06d3776fb6d7587&#45;&gt;dir_d44c64559bbebec7f509842c48db8b23</title>
<g id="a_edge2"><a xlink:href="dir_000018_000039.html" target="_top">
<path fill="none" stroke="#63b8ff" d="M664.89,-55.08C660.56,-49.61 654.24,-42.92 647,-39.29 617.04,-24.25 523.34,-16.18 471.81,-12.78"/>
<polygon fill="#63b8ff" stroke="#63b8ff" points="472.09,-9.22 461.89,-12.08 471.65,-16.21 472.09,-9.22"/>
</a>
</g>
<g id="a_edge2&#45;headlabel"><a xlink:href="dir_000018_000039.html" target="_top" xlink:title="5">
<text text-anchor="middle" x="474.86" y="-4.12" font-family="Helvetica,sans-Serif" font-size="10.00" fill="#63b8ff">5</text>
</a>
</g>
</g>
<!-- dir_6b10eb6658bb42cff98abf7e4e75291f -->
<g id="node4" class="node">
<title>dir_6b10eb6658bb42cff98abf7e4e75291f</title>
<g id="a_node4"><a xlink:href="dir_6b10eb6658bb42cff98abf7e4e75291f.html" target="_top" xlink:title="clear">
<polygon fill="#a2b4d6" stroke="#404040" points="638,-74.29 600,-74.29 600,-55.29 638,-55.29 638,-74.29"/>
<text text-anchor="middle" x="619" y="-62.29" font-family="Helvetica,sans-Serif" font-size="10.00">clear</text>
</a>
</g>
</g>
<!-- dir_6b10eb6658bb42cff98abf7e4e75291f&#45;&gt;dir_d44c64559bbebec7f509842c48db8b23 -->
<g id="edge3" class="edge">
<title>dir_6b10eb6658bb42cff98abf7e4e75291f&#45;&gt;dir_d44c64559bbebec7f509842c48db8b23</title>
<g id="a_edge3"><a xlink:href="dir_000019_000039.html" target="_top">
<path fill="none" stroke="#63b8ff" d="M611.52,-55.21C606.31,-49.79 598.91,-43.11 591,-39.29 552.8,-20.79 503.93,-14.25 471.6,-11.97"/>
<polygon fill="#63b8ff" stroke="#63b8ff" points="472.09,-8.43 461.9,-11.33 471.67,-15.42 472.09,-8.43"/>
</a>
</g>
<g id="a_edge3&#45;headlabel"><a xlink:href="dir_000019_000039.html" target="_top" xlink:title="1">
<text text-anchor="middle" x="474.85" y="-3.31" font-family="Helvetica,sans-Serif" font-size="10.00" fill="#63b8ff">1</text>
</a>
</g>
</g>
<!-- dir_7958b23ead370ae23f6a05235dd92599 -->
<g id="node5" class="node">
<title>dir_7958b23ead370ae23f6a05235dd92599</title>
<g id="a_node5"><a xlink:href="dir_7958b23ead370ae23f6a05235dd92599.html" target="_top" xlink:title="date">
<polygon fill="#a2b4d6" stroke="#404040" points="581.5,-74.29 546.5,-74.29 546.5,-55.29 581.5,-55.29 581.5,-74.29"/>
<text text-anchor="middle" x="564" y="-62.29" font-family="Helvetica,sans-Serif" font-size="10.00">date</text>
</a>
</g>
</g>
<!-- dir_7958b23ead370ae23f6a05235dd92599&#45;&gt;dir_d44c64559bbebec7f509842c48db8b23 -->
<g id="edge4" class="edge">
<title>dir_7958b23ead370ae23f6a05235dd92599&#45;&gt;dir_d44c64559bbebec7f509842c48db8b23</title>
<g id="a_edge4"><a xlink:href="dir_000029_000039.html" target="_top">
<path fill="none" stroke="#63b8ff" d="M556.62,-54.95C551.81,-49.71 545.12,-43.32 538,-39.29 517.4,-27.62 491.69,-20.45 471.37,-16.22"/>
<polygon fill="#63b8ff" stroke="#63b8ff" points="472.18,-12.62 461.7,-14.17 470.85,-19.5 472.18,-12.62"/>
</a>
</g>
<g id="a_edge4&#45;headlabel"><a xlink:href="dir_000029_000039.html" target="_top" xlink:title="2">
<text text-anchor="middle" x="475.25" y="-8.02" font-family="Helvetica,sans-Serif" font-size="10.00" fill="#63b8ff">2</text>
</a>
</g>
</g>
<!-- dir_eb43e55597aac8a9b4d196d33ee8e0dc -->
<g id="node6" class="node">
<title>dir_eb43e55597aac8a9b4d196d33ee8e0dc</title>
<g id="a_node6"><a xlink:href="dir_eb43e55597aac8a9b4d196d33ee8e0dc.html" target="_top" xlink:title="hostname">
<polygon fill="#a2b4d6" stroke="#404040" points="528.5,-74.29 469.5,-74.29 469.5,-55.29 528.5,-55.29 528.5,-74.29"/>
<text text-anchor="middle" x="499" y="-62.29" font-family="Helvetica,sans-Serif" font-size="10.00">hostname</text>
</a>
</g>
</g>
<!-- dir_eb43e55597aac8a9b4d196d33ee8e0dc&#45;&gt;dir_d44c64559bbebec7f509842c48db8b23 -->
<g id="edge5" class="edge">
<title>dir_eb43e55597aac8a9b4d196d33ee8e0dc&#45;&gt;dir_d44c64559bbebec7f509842c48db8b23</title>
<g id="a_edge5"><a xlink:href="dir_000038_000039.html" target="_top">
<path fill="none" stroke="#63b8ff" d="M488.48,-54.8C479.52,-47.14 466.43,-35.94 455.69,-26.76"/>
<polygon fill="#63b8ff" stroke="#63b8ff" points="458.24,-23.48 448.36,-19.64 453.69,-28.8 458.24,-23.48"/>
</a>
</g>
<g id="a_edge5&#45;headlabel"><a xlink:href="dir_000038_000039.html" target="_top" xlink:title="5">
<text text-anchor="middle" x="461.81" y="-21.16" font-family="Helvetica,sans-Serif" font-size="10.00" fill="#63b8ff">5</text>
</a>
</g>
</g>
<!-- dir_c3d47065b72cafd3fddb954266dfcaab -->
<g id="node7" class="node">
<title>dir_c3d47065b72cafd3fddb954266dfcaab</title>
<g id="a_node7"><a xlink:href="dir_c3d47065b72cafd3fddb954266dfcaab.html" target="_top" xlink:title="init">
<polygon fill="#a2b4d6" stroke="#404040" points="451.5,-74.29 422.5,-74.29 422.5,-55.29 451.5,-55.29 451.5,-74.29"/>
<text text-anchor="middle" x="437" y="-62.29" font-family="Helvetica,sans-Serif" font-size="10.00">init</text>
</a>
</g>
</g>
<!-- dir_c3d47065b72cafd3fddb954266dfcaab&#45;&gt;dir_d44c64559bbebec7f509842c48db8b23 -->
<g id="edge6" class="edge">
<title>dir_c3d47065b72cafd3fddb954266dfcaab&#45;&gt;dir_d44c64559bbebec7f509842c48db8b23</title>
<g id="a_edge6"><a xlink:href="dir_000040_000039.html" target="_top">
<path fill="none" stroke="#63b8ff" d="M437,-55.03C437,-48.4 437,-39.02 437,-30.6"/>
<polygon fill="#63b8ff" stroke="#63b8ff" points="440.5,-30.73 437,-20.73 433.5,-30.73 440.5,-30.73"/>
</a>
</g>
<g id="a_edge6&#45;headlabel"><a xlink:href="dir_000040_000039.html" target="_top" xlink:title="3">
<text text-anchor="middle" x="443.34" y="-30.82" font-family="Helvetica,sans-Serif" font-size="10.00" fill="#63b8ff">3</text>
</a>
</g>
</g>
<!-- dir_ea273b443b966abbebf68ac90005349e -->
<g id="node8" class="node">
<title>dir_ea273b443b966abbebf68ac90005349e</title>
<g id="a_node8"><a xlink:href="dir_ea273b443b966abbebf68ac90005349e.html" target="_top" xlink:title="meminfo">
<polygon fill="#a2b4d6" stroke="#404040" points="404,-74.29 350,-74.29 350,-55.29 404,-55.29 404,-74.29"/>
<text text-anchor="middle" x="377" y="-62.29" font-family="Helvetica,sans-Serif" font-size="10.00">meminfo</text>
</a>
</g>
</g>
<!-- dir_ea273b443b966abbebf68ac90005349e&#45;&gt;dir_d44c64559bbebec7f509842c48db8b23 -->
<g id="edge7" class="edge">
<title>dir_ea273b443b966abbebf68ac90005349e&#45;&gt;dir_d44c64559bbebec7f509842c48db8b23</title>
<g id="a_edge7"><a xlink:href="dir_000047_000039.html" target="_top">
<path fill="none" stroke="#63b8ff" d="M387.18,-54.8C395.85,-47.14 408.52,-35.94 418.92,-26.76"/>
<polygon fill="#63b8ff" stroke="#63b8ff" points="420.79,-29.89 425.97,-20.64 416.16,-24.64 420.79,-29.89"/>
</a>
</g>
<g id="a_edge7&#45;headlabel"><a xlink:href="dir_000047_000039.html" target="_top" xlink:title="5">
<text text-anchor="middle" x="420.98" y="-30.9" font-family="Helvetica,sans-Serif" font-size="10.00" fill="#63b8ff">5</text>
</a>
</g>
</g>
<!-- dir_3481310df4fd510591ecbb734fa3af1c -->
<g id="node9" class="node">
<title>dir_3481310df4fd510591ecbb734fa3af1c</title>
<g id="a_node9"><a xlink:href="dir_3481310df4fd510591ecbb734fa3af1c.html" target="_top" xlink:title="noop">
<polygon fill="#a2b4d6" stroke="#404040" points="332,-74.29 294,-74.29 294,-55.29 332,-55.29 332,-74.29"/>
<text text-anchor="middle" x="313" y="-62.29" font-family="Helvetica,sans-Serif" font-size="10.00">noop</text>
</a>
</g>
</g>
<!-- dir_8188d2403f8782d47de5ea4ccc1ebd5f -->
<g id="node10" class="node">
<title>dir_8188d2403f8782d47de5ea4ccc1ebd5f</title>
<g id="a_node10"><a xlink:href="dir_8188d2403f8782d47de5ea4ccc1ebd5f.html" target="_top" xlink:title="shell">
<polygon fill="#a2b4d6" stroke="#404040" points="275.5,-74.29 238.5,-74.29 238.5,-55.29 275.5,-55.29 275.5,-74.29"/>
<text text-anchor="middle" x="257" y="-62.29" font-family="Helvetica,sans-Serif" font-size="10.00">shell</text>
</a>
</g>
</g>
<!-- dir_8188d2403f8782d47de5ea4ccc1ebd5f&#45;&gt;dir_d44c64559bbebec7f509842c48db8b23 -->
<g id="edge8" class="edge">
<title>dir_8188d2403f8782d47de5ea4ccc1ebd5f&#45;&gt;dir_d44c64559bbebec7f509842c48db8b23</title>
<g id="a_edge8"><a xlink:href="dir_000062_000039.html" target="_top">
<path fill="none" stroke="#63b8ff" d="M264.48,-55.21C269.69,-49.8 277.1,-43.12 285,-39.29 322.59,-21.03 370.66,-14.44 402.57,-12.08"/>
<polygon fill="#63b8ff" stroke="#63b8ff" points="402.38,-15.53 412.14,-11.4 401.94,-8.54 402.38,-15.53"/>
</a>
</g>
<g id="a_edge8&#45;headlabel"><a xlink:href="dir_000062_000039.html" target="_top" xlink:title="17">
<text text-anchor="middle" x="399.97" y="-16.09" font-family="Helvetica,sans-Serif" font-size="10.00" fill="#63b8ff">17</text>
</a>
</g>
</g>
<!-- dir_fc871caaf90a108feaa87099fb59ff14 -->
<g id="node11" class="node">
<title>dir_fc871caaf90a108feaa87099fb59ff14</title>
<g id="a_node11"><a xlink:href="dir_fc871caaf90a108feaa87099fb59ff14.html" target="_top" xlink:title="testsuite">
<polygon fill="#a2b4d6" stroke="#404040" points="220,-74.29 166,-74.29 166,-55.29 220,-55.29 220,-74.29"/>
<text text-anchor="middle" x="193" y="-62.29" font-family="Helvetica,sans-Serif" font-size="10.00">testsuite</text>
</a>
</g>
</g>
<!-- dir_fc871caaf90a108feaa87099fb59ff14&#45;&gt;dir_d44c64559bbebec7f509842c48db8b23 -->
<g id="edge9" class="edge">
<title>dir_fc871caaf90a108feaa87099fb59ff14&#45;&gt;dir_d44c64559bbebec7f509842c48db8b23</title>
<g id="a_edge9"><a xlink:href="dir_000071_000039.html" target="_top">
<path fill="none" stroke="#63b8ff" d="M203.62,-54.88C210.66,-49.47 220.34,-42.93 230,-39.29 287.83,-17.46 360.37,-12.06 402.43,-10.89"/>
<polygon fill="#63b8ff" stroke="#63b8ff" points="402.27,-14.38 412.19,-10.67 402.12,-7.38 402.27,-14.38"/>
</a>
</g>
<g id="a_edge9&#45;headlabel"><a xlink:href="dir_000071_000039.html" target="_top" xlink:title="5">
<text text-anchor="middle" x="399.73" y="-14.79" font-family="Helvetica,sans-Serif" font-size="10.00" fill="#63b8ff">5</text>
</a>
</g>
</g>
<!-- dir_580ecf3b0494669f5045460edd2f65b6 -->
<g id="node12" class="node">
<title>dir_580ecf3b0494669f5045460edd2f65b6</title>
<g id="a_node12"><a xlink:href="dir_580ecf3b0494669f5045460edd2f65b6.html" target="_top" xlink:title="udp&#45;client">
<polygon fill="#a2b4d6" stroke="#404040" points="147.5,-74.29 88.5,-74.29 88.5,-55.29 147.5,-55.29 147.5,-74.29"/>
<text text-anchor="middle" x="118" y="-62.29" font-family="Helvetica,sans-Serif" font-size="10.00">udp&#45;client</text>
</a>
</g>
</g>
<!-- dir_580ecf3b0494669f5045460edd2f65b6&#45;&gt;dir_d44c64559bbebec7f509842c48db8b23 -->
<g id="edge10" class="edge">
<title>dir_580ecf3b0494669f5045460edd2f65b6&#45;&gt;dir_d44c64559bbebec7f509842c48db8b23</title>
<g id="a_edge10"><a xlink:href="dir_000075_000039.html" target="_top">
<path fill="none" stroke="#63b8ff" d="M128.9,-55.01C136.35,-49.52 146.72,-42.82 157,-39.29 201.57,-23.96 337.97,-15.55 402.49,-12.33"/>
<polygon fill="#63b8ff" stroke="#63b8ff" points="402.48,-15.79 412.3,-11.81 402.14,-8.8 402.48,-15.79"/>
</a>
</g>
<g id="a_edge10&#45;headlabel"><a xlink:href="dir_000075_000039.html" target="_top" xlink:title="5">
<text text-anchor="middle" x="400.03" y="-16.3" font-family="Helvetica,sans-Serif" font-size="10.00" fill="#63b8ff">5</text>
</a>
</g>
</g>
<!-- dir_a399c65094449806f3301ab00825c20b -->
<g id="node13" class="node">
<title>dir_a399c65094449806f3301ab00825c20b</title>
<g id="a_node13"><a xlink:href="dir_a399c65094449806f3301ab00825c20b.html" target="_top" xlink:title="uptime">
<polygon fill="#a2b4d6" stroke="#404040" points="70,-74.29 24,-74.29 24,-55.29 70,-55.29 70,-74.29"/>
<text text-anchor="middle" x="47" y="-62.29" font-family="Helvetica,sans-Serif" font-size="10.00">uptime</text>
</a>
</g>
</g>
<!-- dir_a399c65094449806f3301ab00825c20b&#45;&gt;dir_d44c64559bbebec7f509842c48db8b23 -->
<g id="edge11" class="edge">
<title>dir_a399c65094449806f3301ab00825c20b&#45;&gt;dir_d44c64559bbebec7f509842c48db8b23</title>
<g id="a_edge11"><a xlink:href="dir_000076_000039.html" target="_top">
<path fill="none" stroke="#63b8ff" d="M55.97,-54.93C62.17,-49.4 70.91,-42.7 80,-39.29 138.53,-17.31 325.42,-12.27 402.87,-11.12"/>
<polygon fill="#63b8ff" stroke="#63b8ff" points="402.53,-14.62 412.48,-10.98 402.43,-7.62 402.53,-14.62"/>
</a>
</g>
<g id="a_edge11&#45;headlabel"><a xlink:href="dir_000076_000039.html" target="_top" xlink:title="5">
<text text-anchor="middle" x="399.97" y="-15" font-family="Helvetica,sans-Serif" font-size="10.00" fill="#63b8ff">5</text>
</a>
</g>
</g>
</g>
</svg>
