<?xml version="1.0" encoding="UTF-8" standalone="no"?>
<!DOCTYPE svg PUBLIC "-//W3C//DTD SVG 1.1//EN"
 "http://www.w3.org/Graphics/SVG/1.1/DTD/svg11.dtd">
<!-- Generated by graphviz version 2.49.3 (20211023.0002)
 -->
<!-- Title: include/kernel Pages: 1 -->
<svg width="758pt" height="247pt"
 viewBox="0.00 0.00 758.00 247.00" xmlns="http://www.w3.org/2000/svg" xmlns:xlink="http://www.w3.org/1999/xlink">
<g id="graph0" class="graph" transform="scale(1 1) rotate(0) translate(4 243)">
<title>include/kernel</title>
<g id="clust1" class="cluster">
<title>clusterdir_d44c64559bbebec7f509842c48db8b23</title>
<g id="a_clust1"><a xlink:href="dir_d44c64559bbebec7f509842c48db8b23.html" target="_top" xlink:title="include">
<polygon fill="#ddddee" stroke="black" points="8,-8 8,-231 742,-231 742,-8 8,-8"/>
<text text-anchor="middle" x="375" y="-219" font-family="Helvetica,sans-Serif" font-size="10.00">include</text>
</a>
</g>
</g>
<g id="clust2" class="cluster">
<title>clusterdir_2ae24886e77657f82343b4b0154efdc1</title>
<g id="a_clust2"><a xlink:href="dir_2ae24886e77657f82343b4b0154efdc1.html" target="_top">
<polygon fill="#eeeeff" stroke="black" points="16,-80 16,-204 734,-204 734,-80 16,-80"/>
</a>
</g>
</g>
<!-- dir_f9f386f816a45f0ffce9eeb77a177fce -->
<g id="node1" class="node">
<title>dir_f9f386f816a45f0ffce9eeb77a177fce</title>
<g id="a_node1"><a xlink:href="dir_f9f386f816a45f0ffce9eeb77a177fce.html" target="_top" xlink:title="libc">
<polygon fill="none" stroke="red" points="366,-52 312,-52 312,-16 366,-16 366,-52"/>
<text text-anchor="middle" x="339" y="-31.5" font-family="Helvetica,sans-Serif" font-size="10.00">libc</text>
</a>
</g>
</g>
<!-- dir_2ae24886e77657f82343b4b0154efdc1 -->
<g id="node2" class="node">
<title>dir_2ae24886e77657f82343b4b0154efdc1</title>
<text text-anchor="middle" x="123" y="-175.5" font-family="Helvetica,sans-Serif" font-size="10.00">kernel</text>
</g>
<!-- dir_1bef30f09c3bd1e4e4024186bdc41803 -->
<g id="node3" class="node">
<title>dir_1bef30f09c3bd1e4e4024186bdc41803</title>
<g id="a_node3"><a xlink:href="dir_1bef30f09c3bd1e4e4024186bdc41803.html" target="_top" xlink:title="arch">
<polygon fill="white" stroke="black" points="150,-124 96,-124 96,-88 150,-88 150,-124"/>
<text text-anchor="middle" x="123" y="-103.5" font-family="Helvetica,sans-Serif" font-size="10.00">arch</text>
</a>
</g>
</g>
<!-- dir_2ae24886e77657f82343b4b0154efdc1&#45;&gt;dir_1bef30f09c3bd1e4e4024186bdc41803 -->
<g id="edge1" class="edge">
<title>dir_2ae24886e77657f82343b4b0154efdc1&#45;&gt;dir_1bef30f09c3bd1e4e4024186bdc41803</title>
<path fill="none" stroke="black" d="M123,-159.7C123,-151.98 123,-142.71 123,-134.11"/>
<polygon fill="black" stroke="black" points="126.5,-134.1 123,-124.1 119.5,-134.1 126.5,-134.1"/>
<g id="a_edge1&#45;headlabel"><a xlink:href="dir_000001_000002.html" target="_top" xlink:title="2">
<text text-anchor="middle" x="129.34" y="-135.2" font-family="Helvetica,sans-Serif" font-size="10.00">2</text>
</a>
</g>
</g>
<!-- dir_f5cbd4349b593bd5ea59bf7dffcf375a -->
<g id="node4" class="node">
<title>dir_f5cbd4349b593bd5ea59bf7dffcf375a</title>
<g id="a_node4"><a xlink:href="dir_f5cbd4349b593bd5ea59bf7dffcf375a.html" target="_top" xlink:title="config">
<polygon fill="white" stroke="black" points="294,-196 240,-196 240,-160 294,-160 294,-196"/>
<text text-anchor="middle" x="267" y="-175.5" font-family="Helvetica,sans-Serif" font-size="10.00">config</text>
</a>
</g>
</g>
<!-- dir_f5cbd4349b593bd5ea59bf7dffcf375a&#45;&gt;dir_f9f386f816a45f0ffce9eeb77a177fce -->
<g id="edge6" class="edge">
<title>dir_f5cbd4349b593bd5ea59bf7dffcf375a&#45;&gt;dir_f9f386f816a45f0ffce9eeb77a177fce</title>
<path fill="none" stroke="black" d="M275.68,-159.87C288.12,-135.35 311.1,-90.03 325.69,-61.26"/>
<polygon fill="black" stroke="black" points="328.88,-62.69 330.28,-52.19 322.64,-59.53 328.88,-62.69"/>
<g id="a_edge6&#45;headlabel"><a xlink:href="dir_000007_000014.html" target="_top" xlink:title="2">
<text text-anchor="middle" x="329.79" y="-64.68" font-family="Helvetica,sans-Serif" font-size="10.00">2</text>
</a>
</g>
</g>
<!-- dir_5dcd48ca9f40364899464cc3f89e860e -->
<g id="node5" class="node">
<title>dir_5dcd48ca9f40364899464cc3f89e860e</title>
<g id="a_node5"><a xlink:href="dir_5dcd48ca9f40364899464cc3f89e860e.html" target="_top" xlink:title="core">
<polygon fill="white" stroke="red" points="582,-196 528,-196 528,-160 582,-160 582,-196"/>
<text text-anchor="middle" x="555" y="-175.5" font-family="Helvetica,sans-Serif" font-size="10.00">core</text>
</a>
</g>
</g>
<!-- dir_72ea8410cd25c3f19cac33d1776c95a7 -->
<g id="node6" class="node">
<title>dir_72ea8410cd25c3f19cac33d1776c95a7</title>
<g id="a_node6"><a xlink:href="dir_72ea8410cd25c3f19cac33d1776c95a7.html" target="_top" xlink:title="drivers">
<polygon fill="white" stroke="black" points="510,-196 456,-196 456,-160 510,-160 510,-196"/>
<text text-anchor="middle" x="483" y="-175.5" font-family="Helvetica,sans-Serif" font-size="10.00">drivers</text>
</a>
</g>
</g>
<!-- dir_579f575ab9bb80182679ffc66b079ac5 -->
<g id="node7" class="node">
<title>dir_579f575ab9bb80182679ffc66b079ac5</title>
<g id="a_node7"><a xlink:href="dir_579f575ab9bb80182679ffc66b079ac5.html" target="_top" xlink:title="fs">
<polygon fill="white" stroke="black" points="239,-124 185,-124 185,-88 239,-88 239,-124"/>
<text text-anchor="middle" x="212" y="-103.5" font-family="Helvetica,sans-Serif" font-size="10.00">fs</text>
</a>
</g>
</g>
<!-- dir_579f575ab9bb80182679ffc66b079ac5&#45;&gt;dir_f9f386f816a45f0ffce9eeb77a177fce -->
<g id="edge8" class="edge">
<title>dir_579f575ab9bb80182679ffc66b079ac5&#45;&gt;dir_f9f386f816a45f0ffce9eeb77a177fce</title>
<path fill="none" stroke="black" d="M231.82,-87.86C235.43,-85.08 239.25,-82.34 243,-80 261.74,-68.29 284.02,-57.66 302.4,-49.68"/>
<polygon fill="black" stroke="black" points="303.78,-52.9 311.61,-45.76 301.04,-46.46 303.78,-52.9"/>
<g id="a_edge8&#45;headlabel"><a xlink:href="dir_000009_000014.html" target="_top" xlink:title="2">
<text text-anchor="middle" x="301.59" y="-54.42" font-family="Helvetica,sans-Serif" font-size="10.00">2</text>
</a>
</g>
</g>
<!-- dir_626355b091f94f14b578c87f25101a76 -->
<g id="node8" class="node">
<title>dir_626355b091f94f14b578c87f25101a76</title>
<g id="a_node8"><a xlink:href="dir_626355b091f94f14b578c87f25101a76.html" target="_top" xlink:title="kshell">
<polygon fill="white" stroke="black" points="438,-196 384,-196 384,-160 438,-160 438,-196"/>
<text text-anchor="middle" x="411" y="-175.5" font-family="Helvetica,sans-Serif" font-size="10.00">kshell</text>
</a>
</g>
</g>
<!-- dir_626355b091f94f14b578c87f25101a76&#45;&gt;dir_f9f386f816a45f0ffce9eeb77a177fce -->
<g id="edge3" class="edge">
<title>dir_626355b091f94f14b578c87f25101a76&#45;&gt;dir_f9f386f816a45f0ffce9eeb77a177fce</title>
<path fill="none" stroke="black" d="M402.32,-159.87C389.88,-135.35 366.9,-90.03 352.31,-61.26"/>
<polygon fill="black" stroke="black" points="355.36,-59.53 347.72,-52.19 349.12,-62.69 355.36,-59.53"/>
<g id="a_edge3&#45;headlabel"><a xlink:href="dir_000003_000014.html" target="_top" xlink:title="1">
<text text-anchor="middle" x="359.52" y="-58.95" font-family="Helvetica,sans-Serif" font-size="10.00">1</text>
</a>
</g>
</g>
<!-- dir_5bbca552b03f18ea4c556679d80b42c9 -->
<g id="node9" class="node">
<title>dir_5bbca552b03f18ea4c556679d80b42c9</title>
<g id="a_node9"><a xlink:href="dir_5bbca552b03f18ea4c556679d80b42c9.html" target="_top" xlink:title="mmu">
<polygon fill="white" stroke="black" points="366,-196 312,-196 312,-160 366,-160 366,-196"/>
<text text-anchor="middle" x="339" y="-175.5" font-family="Helvetica,sans-Serif" font-size="10.00">mmu</text>
</a>
</g>
</g>
<!-- dir_0be85e67768b66452391783f935553f6 -->
<g id="node10" class="node">
<title>dir_0be85e67768b66452391783f935553f6</title>
<g id="a_node10"><a xlink:href="dir_0be85e67768b66452391783f935553f6.html" target="_top" xlink:title="net">
<polygon fill="white" stroke="black" points="654,-196 600,-196 600,-160 654,-160 654,-196"/>
<text text-anchor="middle" x="627" y="-175.5" font-family="Helvetica,sans-Serif" font-size="10.00">net</text>
</a>
</g>
</g>
<!-- dir_0be85e67768b66452391783f935553f6&#45;&gt;dir_f9f386f816a45f0ffce9eeb77a177fce -->
<g id="edge2" class="edge">
<title>dir_0be85e67768b66452391783f935553f6&#45;&gt;dir_f9f386f816a45f0ffce9eeb77a177fce</title>
<path fill="none" stroke="black" d="M599.91,-163.64C547.91,-138 434.1,-81.89 375.49,-52.99"/>
<polygon fill="black" stroke="black" points="376.75,-49.71 366.23,-48.43 373.65,-55.99 376.75,-49.71"/>
<g id="a_edge2&#45;headlabel"><a xlink:href="dir_000011_000014.html" target="_top" xlink:title="7">
<text text-anchor="middle" x="381.23" y="-46.25" font-family="Helvetica,sans-Serif" font-size="10.00">7</text>
</a>
</g>
</g>
<!-- dir_b74c2997ee101869ac325e0e63322356 -->
<g id="node11" class="node">
<title>dir_b74c2997ee101869ac325e0e63322356</title>
<g id="a_node11"><a xlink:href="dir_b74c2997ee101869ac325e0e63322356.html" target="_top" xlink:title="proc">
<polygon fill="white" stroke="black" points="222,-196 168,-196 168,-160 222,-160 222,-196"/>
<text text-anchor="middle" x="195" y="-175.5" font-family="Helvetica,sans-Serif" font-size="10.00">proc</text>
</a>
</g>
</g>
<!-- dir_b74c2997ee101869ac325e0e63322356&#45;&gt;dir_f9f386f816a45f0ffce9eeb77a177fce -->
<g id="edge5" class="edge">
<title>dir_b74c2997ee101869ac325e0e63322356&#45;&gt;dir_f9f386f816a45f0ffce9eeb77a177fce</title>
<path fill="none" stroke="black" d="M212.29,-159.91C222.7,-149.58 236.18,-136.1 248,-124 266.89,-104.66 270.7,-98.93 290,-80 297.02,-73.11 304.8,-65.82 312.05,-59.17"/>
<polygon fill="black" stroke="black" points="314.62,-61.56 319.65,-52.24 309.9,-56.39 314.62,-61.56"/>
<g id="a_edge5&#45;headlabel"><a xlink:href="dir_000012_000014.html" target="_top" xlink:title="1">
<text text-anchor="middle" x="313.87" y="-63.58" font-family="Helvetica,sans-Serif" font-size="10.00">1</text>
</a>
</g>
</g>
<!-- dir_b74c2997ee101869ac325e0e63322356&#45;&gt;dir_579f575ab9bb80182679ffc66b079ac5 -->
<g id="edge4" class="edge">
<title>dir_b74c2997ee101869ac325e0e63322356&#45;&gt;dir_579f575ab9bb80182679ffc66b079ac5</title>
<path fill="none" stroke="black" d="M199.2,-159.7C201.1,-151.9 203.38,-142.51 205.48,-133.83"/>
<polygon fill="black" stroke="black" points="208.89,-134.65 207.85,-124.1 202.08,-133 208.89,-134.65"/>
<g id="a_edge4&#45;headlabel"><a xlink:href="dir_000012_000009.html" target="_top" xlink:title="1">
<text text-anchor="middle" x="210.8" y="-136.31" font-family="Helvetica,sans-Serif" font-size="10.00">1</text>
</a>
</g>
</g>
<!-- dir_a0ffd90eda9fe9d19fd364f796da6911 -->
<g id="node12" class="node">
<title>dir_a0ffd90eda9fe9d19fd364f796da6911</title>
<g id="a_node12"><a xlink:href="dir_a0ffd90eda9fe9d19fd364f796da6911.html" target="_top" xlink:title="sys">
<polygon fill="white" stroke="black" points="726,-196 672,-196 672,-160 726,-160 726,-196"/>
<text text-anchor="middle" x="699" y="-175.5" font-family="Helvetica,sans-Serif" font-size="10.00">sys</text>
</a>
</g>
</g>
<!-- dir_a0ffd90eda9fe9d19fd364f796da6911&#45;&gt;dir_f9f386f816a45f0ffce9eeb77a177fce -->
<g id="edge7" class="edge">
<title>dir_a0ffd90eda9fe9d19fd364f796da6911&#45;&gt;dir_f9f386f816a45f0ffce9eeb77a177fce</title>
<path fill="none" stroke="black" d="M671.92,-164.1C668.91,-162.7 665.9,-161.31 663,-160 581.78,-123.18 562.44,-111.46 479,-80 444.53,-67 404.45,-54.36 376.02,-45.81"/>
<polygon fill="black" stroke="black" points="376.7,-42.35 366.11,-42.84 374.69,-49.06 376.7,-42.35"/>
<g id="a_edge7&#45;headlabel"><a xlink:href="dir_000013_000014.html" target="_top" xlink:title="5">
<text text-anchor="middle" x="380.95" y="-38.16" font-family="Helvetica,sans-Serif" font-size="10.00">5</text>
</a>
</g>
</g>
<!-- dir_12c6d725a1e624cd8ea115c6923f483d -->
<g id="node13" class="node">
<title>dir_12c6d725a1e624cd8ea115c6923f483d</title>
<g id="a_node13"><a xlink:href="dir_12c6d725a1e624cd8ea115c6923f483d.html" target="_top" xlink:title="time">
<polygon fill="white" stroke="black" points="78,-196 24,-196 24,-160 78,-160 78,-196"/>
<text text-anchor="middle" x="51" y="-175.5" font-family="Helvetica,sans-Serif" font-size="10.00">time</text>
</a>
</g>
</g>
</g>
</svg>
