<?xml version="1.0" encoding="UTF-8" standalone="no"?>
<!DOCTYPE svg PUBLIC "-//W3C//DTD SVG 1.1//EN"
 "http://www.w3.org/Graphics/SVG/1.1/DTD/svg11.dtd">
<!-- Generated by graphviz version 2.49.3 (20211023.0002)
 -->
<!-- Title: src/kernel Pages: 1 -->
<svg width="758pt" height="159pt"
 viewBox="0.00 0.00 758.00 159.00" xmlns="http://www.w3.org/2000/svg" xmlns:xlink="http://www.w3.org/1999/xlink">
<g id="graph0" class="graph" transform="scale(1 1) rotate(0) translate(4 155)">
<title>src/kernel</title>
<g id="clust1" class="cluster">
<title>clusterdir_68267d1309a1af8e8297ef4c3efbcdba</title>
<g id="a_clust1"><a xlink:href="dir_68267d1309a1af8e8297ef4c3efbcdba.html" target="_top" xlink:title="src">
<polygon fill="#ddddee" stroke="black" points="8,-56 8,-143 742,-143 742,-56 8,-56"/>
<text text-anchor="middle" x="375" y="-131" font-family="Helvetica,sans-Serif" font-size="10.00">src</text>
</a>
</g>
</g>
<g id="clust2" class="cluster">
<title>clusterdir_cbd7f246bdf7dc0a50281a272327e6ed</title>
<g id="a_clust2"><a xlink:href="dir_cbd7f246bdf7dc0a50281a272327e6ed.html" target="_top">
<polygon fill="#eeeeff" stroke="black" points="16,-64 16,-116 734,-116 734,-64 16,-64"/>
</a>
</g>
</g>
<!-- dir_cbd7f246bdf7dc0a50281a272327e6ed -->
<g id="node1" class="node">
<title>dir_cbd7f246bdf7dc0a50281a272327e6ed</title>
<text text-anchor="middle" x="699" y="-87.5" font-family="Helvetica,sans-Serif" font-size="10.00">kernel</text>
</g>
<!-- dir_76e3dd4d2fa719e8d3b096e9aa563982 -->
<g id="node2" class="node">
<title>dir_76e3dd4d2fa719e8d3b096e9aa563982</title>
<g id="a_node2"><a xlink:href="dir_76e3dd4d2fa719e8d3b096e9aa563982.html" target="_top" xlink:title="arch">
<polygon fill="white" stroke="red" points="654,-108 600,-108 600,-72 654,-72 654,-108"/>
<text text-anchor="middle" x="627" y="-87.5" font-family="Helvetica,sans-Serif" font-size="10.00">arch</text>
</a>
</g>
</g>
<!-- dir_d44c64559bbebec7f509842c48db8b23 -->
<g id="node11" class="node">
<title>dir_d44c64559bbebec7f509842c48db8b23</title>
<g id="a_node11"><a xlink:href="dir_d44c64559bbebec7f509842c48db8b23.html" target="_top" xlink:title="include">
<polygon fill="none" stroke="red" points="366,-36 312,-36 312,0 366,0 366,-36"/>
<text text-anchor="middle" x="339" y="-15.5" font-family="Helvetica,sans-Serif" font-size="10.00">include</text>
</a>
</g>
</g>
<!-- dir_76e3dd4d2fa719e8d3b096e9aa563982&#45;&gt;dir_d44c64559bbebec7f509842c48db8b23 -->
<g id="edge5" class="edge">
<title>dir_76e3dd4d2fa719e8d3b096e9aa563982&#45;&gt;dir_d44c64559bbebec7f509842c48db8b23</title>
<path fill="none" stroke="black" d="M612.42,-71.92C606.4,-65.94 598.96,-59.79 591,-56 553.8,-38.31 437.27,-26.77 376.58,-21.8"/>
<polygon fill="black" stroke="black" points="376.53,-18.28 366.29,-20.98 375.97,-25.26 376.53,-18.28"/>
<g id="a_edge5&#45;headlabel"><a xlink:href="dir_000017_000000.html" target="_top" xlink:title="144">
<text text-anchor="middle" x="380.34" y="-13.24" font-family="Helvetica,sans-Serif" font-size="10.00">144</text>
</a>
</g>
</g>
<!-- dir_91ac63a6f1fcde128d29d4ab1613b3c5 -->
<g id="node3" class="node">
<title>dir_91ac63a6f1fcde128d29d4ab1613b3c5</title>
<g id="a_node3"><a xlink:href="dir_91ac63a6f1fcde128d29d4ab1613b3c5.html" target="_top" xlink:title="config">
<polygon fill="white" stroke="black" points="582,-108 528,-108 528,-72 582,-72 582,-108"/>
<text text-anchor="middle" x="555" y="-87.5" font-family="Helvetica,sans-Serif" font-size="10.00">config</text>
</a>
</g>
</g>
<!-- dir_91ac63a6f1fcde128d29d4ab1613b3c5&#45;&gt;dir_d44c64559bbebec7f509842c48db8b23 -->
<g id="edge6" class="edge">
<title>dir_91ac63a6f1fcde128d29d4ab1613b3c5&#45;&gt;dir_d44c64559bbebec7f509842c48db8b23</title>
<path fill="none" stroke="black" d="M539.95,-71.81C533.98,-65.97 526.7,-59.93 519,-56 473.3,-32.65 413.95,-24.03 376.16,-20.86"/>
<polygon fill="black" stroke="black" points="376.33,-17.36 366.1,-20.1 375.81,-24.34 376.33,-17.36"/>
<g id="a_edge6&#45;headlabel"><a xlink:href="dir_000051_000000.html" target="_top" xlink:title="7">
<text text-anchor="middle" x="380.13" y="-12.3" font-family="Helvetica,sans-Serif" font-size="10.00">7</text>
</a>
</g>
</g>
<!-- dir_bec13d53859e967dc83fcb104ab0b9fd -->
<g id="node4" class="node">
<title>dir_bec13d53859e967dc83fcb104ab0b9fd</title>
<g id="a_node4"><a xlink:href="dir_bec13d53859e967dc83fcb104ab0b9fd.html" target="_top" xlink:title="core">
<polygon fill="white" stroke="red" points="510,-108 456,-108 456,-72 510,-72 510,-108"/>
<text text-anchor="middle" x="483" y="-87.5" font-family="Helvetica,sans-Serif" font-size="10.00">core</text>
</a>
</g>
</g>
<!-- dir_bec13d53859e967dc83fcb104ab0b9fd&#45;&gt;dir_d44c64559bbebec7f509842c48db8b23 -->
<g id="edge1" class="edge">
<title>dir_bec13d53859e967dc83fcb104ab0b9fd&#45;&gt;dir_d44c64559bbebec7f509842c48db8b23</title>
<path fill="none" stroke="black" d="M467.31,-72C461.38,-66.31 454.29,-60.33 447,-56 424.93,-42.89 397.56,-33.58 375.89,-27.57"/>
<polygon fill="black" stroke="black" points="376.63,-24.15 366.07,-24.97 374.84,-30.92 376.63,-24.15"/>
<g id="a_edge1&#45;headlabel"><a xlink:href="dir_000052_000000.html" target="_top" xlink:title="3">
<text text-anchor="middle" x="380.83" y="-19.83" font-family="Helvetica,sans-Serif" font-size="10.00">3</text>
</a>
</g>
</g>
<!-- dir_f848a285e60993dcb3189737897d2857 -->
<g id="node5" class="node">
<title>dir_f848a285e60993dcb3189737897d2857</title>
<g id="a_node5"><a xlink:href="dir_f848a285e60993dcb3189737897d2857.html" target="_top" xlink:title="fs">
<polygon fill="white" stroke="red" points="438,-108 384,-108 384,-72 438,-72 438,-108"/>
<text text-anchor="middle" x="411" y="-87.5" font-family="Helvetica,sans-Serif" font-size="10.00">fs</text>
</a>
</g>
</g>
<!-- dir_f848a285e60993dcb3189737897d2857&#45;&gt;dir_d44c64559bbebec7f509842c48db8b23 -->
<g id="edge9" class="edge">
<title>dir_f848a285e60993dcb3189737897d2857&#45;&gt;dir_d44c64559bbebec7f509842c48db8b23</title>
<path fill="none" stroke="black" d="M393.2,-71.7C384.4,-63.14 373.62,-52.66 364,-43.3"/>
<polygon fill="black" stroke="black" points="366.2,-40.57 356.59,-36.1 361.32,-45.58 366.2,-40.57"/>
<g id="a_edge9&#45;headlabel"><a xlink:href="dir_000054_000000.html" target="_top" xlink:title="43">
<text text-anchor="middle" x="370.76" y="-38.54" font-family="Helvetica,sans-Serif" font-size="10.00">43</text>
</a>
</g>
</g>
<!-- dir_cb0724ac90fd85e97a72e956b33dc284 -->
<g id="node6" class="node">
<title>dir_cb0724ac90fd85e97a72e956b33dc284</title>
<g id="a_node6"><a xlink:href="dir_cb0724ac90fd85e97a72e956b33dc284.html" target="_top" xlink:title="kshell">
<polygon fill="white" stroke="black" points="366,-108 312,-108 312,-72 366,-72 366,-108"/>
<text text-anchor="middle" x="339" y="-87.5" font-family="Helvetica,sans-Serif" font-size="10.00">kshell</text>
</a>
</g>
</g>
<!-- dir_cb0724ac90fd85e97a72e956b33dc284&#45;&gt;dir_d44c64559bbebec7f509842c48db8b23 -->
<g id="edge8" class="edge">
<title>dir_cb0724ac90fd85e97a72e956b33dc284&#45;&gt;dir_d44c64559bbebec7f509842c48db8b23</title>
<path fill="none" stroke="black" d="M339,-71.7C339,-63.98 339,-54.71 339,-46.11"/>
<polygon fill="black" stroke="black" points="342.5,-46.1 339,-36.1 335.5,-46.1 342.5,-46.1"/>
<g id="a_edge8&#45;headlabel"><a xlink:href="dir_000006_000000.html" target="_top" xlink:title="58">
<text text-anchor="middle" x="345.34" y="-47.2" font-family="Helvetica,sans-Serif" font-size="10.00">58</text>
</a>
</g>
</g>
<!-- dir_29d7bd500ea2760b0490c582bc5917ca -->
<g id="node7" class="node">
<title>dir_29d7bd500ea2760b0490c582bc5917ca</title>
<g id="a_node7"><a xlink:href="dir_29d7bd500ea2760b0490c582bc5917ca.html" target="_top" xlink:title="mmu">
<polygon fill="white" stroke="black" points="294,-108 240,-108 240,-72 294,-72 294,-108"/>
<text text-anchor="middle" x="267" y="-87.5" font-family="Helvetica,sans-Serif" font-size="10.00">mmu</text>
</a>
</g>
</g>
<!-- dir_29d7bd500ea2760b0490c582bc5917ca&#45;&gt;dir_d44c64559bbebec7f509842c48db8b23 -->
<g id="edge3" class="edge">
<title>dir_29d7bd500ea2760b0490c582bc5917ca&#45;&gt;dir_d44c64559bbebec7f509842c48db8b23</title>
<path fill="none" stroke="black" d="M284.8,-71.7C293.6,-63.14 304.38,-52.66 314,-43.3"/>
<polygon fill="black" stroke="black" points="316.68,-45.58 321.41,-36.1 311.8,-40.57 316.68,-45.58"/>
<g id="a_edge3&#45;headlabel"><a xlink:href="dir_000059_000000.html" target="_top" xlink:title="1">
<text text-anchor="middle" x="316.08" y="-47.63" font-family="Helvetica,sans-Serif" font-size="10.00">1</text>
</a>
</g>
</g>
<!-- dir_7d5a55bffd9f0b5a19cf98f012f1d84d -->
<g id="node8" class="node">
<title>dir_7d5a55bffd9f0b5a19cf98f012f1d84d</title>
<g id="a_node8"><a xlink:href="dir_7d5a55bffd9f0b5a19cf98f012f1d84d.html" target="_top" xlink:title="net">
<polygon fill="white" stroke="black" points="222,-108 168,-108 168,-72 222,-72 222,-108"/>
<text text-anchor="middle" x="195" y="-87.5" font-family="Helvetica,sans-Serif" font-size="10.00">net</text>
</a>
</g>
</g>
<!-- dir_7d5a55bffd9f0b5a19cf98f012f1d84d&#45;&gt;dir_d44c64559bbebec7f509842c48db8b23 -->
<g id="edge2" class="edge">
<title>dir_7d5a55bffd9f0b5a19cf98f012f1d84d&#45;&gt;dir_d44c64559bbebec7f509842c48db8b23</title>
<path fill="none" stroke="black" d="M210.69,-72C216.62,-66.31 223.71,-60.33 231,-56 253.07,-42.89 280.44,-33.58 302.11,-27.57"/>
<polygon fill="black" stroke="black" points="303.16,-30.92 311.93,-24.97 301.37,-24.15 303.16,-30.92"/>
<g id="a_edge2&#45;headlabel"><a xlink:href="dir_000057_000000.html" target="_top" xlink:title="55">
<text text-anchor="middle" x="300.42" y="-32.08" font-family="Helvetica,sans-Serif" font-size="10.00">55</text>
</a>
</g>
</g>
<!-- dir_6799a15b2a75f7240f888daacd198be8 -->
<g id="node9" class="node">
<title>dir_6799a15b2a75f7240f888daacd198be8</title>
<g id="a_node9"><a xlink:href="dir_6799a15b2a75f7240f888daacd198be8.html" target="_top" xlink:title="proc">
<polygon fill="white" stroke="black" points="150,-108 96,-108 96,-72 150,-72 150,-108"/>
<text text-anchor="middle" x="123" y="-87.5" font-family="Helvetica,sans-Serif" font-size="10.00">proc</text>
</a>
</g>
</g>
<!-- dir_6799a15b2a75f7240f888daacd198be8&#45;&gt;dir_d44c64559bbebec7f509842c48db8b23 -->
<g id="edge7" class="edge">
<title>dir_6799a15b2a75f7240f888daacd198be8&#45;&gt;dir_d44c64559bbebec7f509842c48db8b23</title>
<path fill="none" stroke="black" d="M138.05,-71.81C144.02,-65.97 151.3,-59.93 159,-56 204.7,-32.65 264.05,-24.03 301.84,-20.86"/>
<polygon fill="black" stroke="black" points="302.19,-24.34 311.9,-20.1 301.67,-17.36 302.19,-24.34"/>
<g id="a_edge7&#45;headlabel"><a xlink:href="dir_000060_000000.html" target="_top" xlink:title="3">
<text text-anchor="middle" x="298.82" y="-24.94" font-family="Helvetica,sans-Serif" font-size="10.00">3</text>
</a>
</g>
</g>
<!-- dir_4b0b675971e8b75ff33680b3a878a76d -->
<g id="node10" class="node">
<title>dir_4b0b675971e8b75ff33680b3a878a76d</title>
<g id="a_node10"><a xlink:href="dir_4b0b675971e8b75ff33680b3a878a76d.html" target="_top" xlink:title="sys">
<polygon fill="white" stroke="black" points="78,-108 24,-108 24,-72 78,-72 78,-108"/>
<text text-anchor="middle" x="51" y="-87.5" font-family="Helvetica,sans-Serif" font-size="10.00">sys</text>
</a>
</g>
</g>
<!-- dir_4b0b675971e8b75ff33680b3a878a76d&#45;&gt;dir_d44c64559bbebec7f509842c48db8b23 -->
<g id="edge4" class="edge">
<title>dir_4b0b675971e8b75ff33680b3a878a76d&#45;&gt;dir_d44c64559bbebec7f509842c48db8b23</title>
<path fill="none" stroke="black" d="M65.58,-71.92C71.6,-65.94 79.04,-59.79 87,-56 124.2,-38.31 240.73,-26.77 301.42,-21.8"/>
<polygon fill="black" stroke="black" points="302.03,-25.26 311.71,-20.98 301.47,-18.28 302.03,-25.26"/>
<g id="a_edge4&#45;headlabel"><a xlink:href="dir_000061_000000.html" target="_top" xlink:title="67">
<text text-anchor="middle" x="298.67" y="-25.88" font-family="Helvetica,sans-Serif" font-size="10.00">67</text>
</a>
</g>
</g>
</g>
</svg>
