<?xml version="1.0" encoding="UTF-8" standalone="no"?>
<!DOCTYPE svg PUBLIC "-//W3C//DTD SVG 1.1//EN"
 "http://www.w3.org/Graphics/SVG/1.1/DTD/svg11.dtd">
<!-- Generated by graphviz version 9.0.0 (20230911.1827)
 -->
<!-- Title: src/kernel Pages: 1 -->
<svg width="693pt" height="126pt"
 viewBox="0.00 0.00 693.00 125.95" xmlns="http://www.w3.org/2000/svg" xmlns:xlink="http://www.w3.org/1999/xlink">
<g id="graph0" class="graph" transform="scale(1 1) rotate(0) translate(4 121.95)">
<title>src/kernel</title>
<g id="clust1" class="cluster">
<title>clusterdir_68267d1309a1af8e8297ef4c3efbcdba</title>
<g id="a_clust1"><a xlink:href="dir_68267d1309a1af8e8297ef4c3efbcdba.html" target="_top" xlink:title="src">
<polygon fill="#edf0f7" stroke="#404040" stroke-dasharray="5,2" points="8,-39.45 8,-109.95 677,-109.95 677,-39.45 8,-39.45"/>
<text text-anchor="middle" x="342.5" y="-96.45" font-family="Helvetica,sans-Serif" font-size="10.00">src</text>
</a>
</g>
</g>
<g id="clust2" class="cluster">
<title>clusterdir_cbd7f246bdf7dc0a50281a272327e6ed</title>
<g id="a_clust2"><a xlink:href="dir_cbd7f246bdf7dc0a50281a272327e6ed.html" target="_top">
<polygon fill="#edf0f7" stroke="#404040" stroke-width="2" points="16,-47.45 16,-82.7 669,-82.7 669,-47.45 16,-47.45"/>
</a>
</g>
</g>
<!-- dir_cbd7f246bdf7dc0a50281a272327e6ed -->
<g id="node1" class="node">
<title>dir_cbd7f246bdf7dc0a50281a272327e6ed</title>
<text text-anchor="middle" x="640" y="-61.2" font-family="Helvetica,sans-Serif" font-size="10.00">kernel</text>
</g>
<!-- dir_d44c64559bbebec7f509842c48db8b23 -->
<g id="node13" class="node">
<title>dir_d44c64559bbebec7f509842c48db8b23</title>
<g id="a_node13"><a xlink:href="dir_d44c64559bbebec7f509842c48db8b23.html" target="_top" xlink:title="include">
<polygon fill="#edf0f7" stroke="red" points="352.38,-19.45 305.62,-19.45 305.62,-0.2 352.38,-0.2 352.38,-19.45"/>
<text text-anchor="middle" x="329" y="-5.95" font-family="Helvetica,sans-Serif" font-size="10.00">include</text>
</a>
</g>
</g>
<!-- dir_cbd7f246bdf7dc0a50281a272327e6ed&#45;&gt;dir_d44c64559bbebec7f509842c48db8b23 -->
<g id="edge1" class="edge">
<title>dir_cbd7f246bdf7dc0a50281a272327e6ed&#45;&gt;dir_d44c64559bbebec7f509842c48db8b23</title>
<g id="a_edge1"><a xlink:href="dir_000042_000039.html" target="_top">
<path fill="none" stroke="#63b8ff" d="M631.91,-55.48C626.11,-49.9 617.79,-43.02 609,-39.45 565.43,-21.71 429.04,-14.46 364.08,-11.96"/>
<polygon fill="#63b8ff" stroke="#63b8ff" points="364.45,-8.47 354.33,-11.6 364.19,-15.47 364.45,-8.47"/>
</a>
</g>
<g id="a_edge1&#45;headlabel"><a xlink:href="dir_000042_000039.html" target="_top" xlink:title="479">
<text text-anchor="middle" x="366.64" y="-1.83" font-family="Helvetica,sans-Serif" font-size="10.00" fill="#63b8ff">479</text>
</a>
</g>
</g>
<!-- dir_76e3dd4d2fa719e8d3b096e9aa563982 -->
<g id="node2" class="node">
<title>dir_76e3dd4d2fa719e8d3b096e9aa563982</title>
<g id="a_node2"><a xlink:href="dir_76e3dd4d2fa719e8d3b096e9aa563982.html" target="_top" xlink:title="arch">
<polygon fill="#a2b4d6" stroke="#404040" points="600.38,-74.7 565.62,-74.7 565.62,-55.45 600.38,-55.45 600.38,-74.7"/>
<text text-anchor="middle" x="583" y="-61.2" font-family="Helvetica,sans-Serif" font-size="10.00">arch</text>
</a>
</g>
</g>
<!-- dir_76e3dd4d2fa719e8d3b096e9aa563982&#45;&gt;dir_d44c64559bbebec7f509842c48db8b23 -->
<g id="edge2" class="edge">
<title>dir_76e3dd4d2fa719e8d3b096e9aa563982&#45;&gt;dir_d44c64559bbebec7f509842c48db8b23</title>
<g id="a_edge2"><a xlink:href="dir_000003_000039.html" target="_top">
<path fill="none" stroke="#63b8ff" d="M575.93,-55.3C570.96,-49.79 563.83,-43.06 556,-39.45 522.65,-24.06 419.03,-15.96 364.06,-12.66"/>
<polygon fill="#63b8ff" stroke="#63b8ff" points="364.49,-9.18 354.31,-12.09 364.09,-16.16 364.49,-9.18"/>
</a>
</g>
<g id="a_edge2&#45;headlabel"><a xlink:href="dir_000003_000039.html" target="_top" xlink:title="163">
<text text-anchor="middle" x="366.73" y="-2.59" font-family="Helvetica,sans-Serif" font-size="10.00" fill="#63b8ff">163</text>
</a>
</g>
</g>
<!-- dir_91ac63a6f1fcde128d29d4ab1613b3c5 -->
<g id="node3" class="node">
<title>dir_91ac63a6f1fcde128d29d4ab1613b3c5</title>
<g id="a_node3"><a xlink:href="dir_91ac63a6f1fcde128d29d4ab1613b3c5.html" target="_top" xlink:title="config">
<polygon fill="#a2b4d6" stroke="#404040" points="547.12,-74.7 504.88,-74.7 504.88,-55.45 547.12,-55.45 547.12,-74.7"/>
<text text-anchor="middle" x="526" y="-61.2" font-family="Helvetica,sans-Serif" font-size="10.00">config</text>
</a>
</g>
</g>
<!-- dir_91ac63a6f1fcde128d29d4ab1613b3c5&#45;&gt;dir_d44c64559bbebec7f509842c48db8b23 -->
<g id="edge3" class="edge">
<title>dir_91ac63a6f1fcde128d29d4ab1613b3c5&#45;&gt;dir_d44c64559bbebec7f509842c48db8b23</title>
<g id="a_edge3"><a xlink:href="dir_000021_000039.html" target="_top">
<path fill="none" stroke="#63b8ff" d="M517.32,-55.19C511.51,-49.78 503.41,-43.21 495,-39.45 452.5,-20.42 398.65,-13.99 364.01,-11.84"/>
<polygon fill="#63b8ff" stroke="#63b8ff" points="364.29,-8.35 354.12,-11.33 363.93,-15.34 364.29,-8.35"/>
</a>
</g>
<g id="a_edge3&#45;headlabel"><a xlink:href="dir_000021_000039.html" target="_top" xlink:title="7">
<text text-anchor="middle" x="366.51" y="-1.75" font-family="Helvetica,sans-Serif" font-size="10.00" fill="#63b8ff">7</text>
</a>
</g>
</g>
<!-- dir_bec13d53859e967dc83fcb104ab0b9fd -->
<g id="node4" class="node">
<title>dir_bec13d53859e967dc83fcb104ab0b9fd</title>
<g id="a_node4"><a xlink:href="dir_bec13d53859e967dc83fcb104ab0b9fd.html" target="_top" xlink:title="core">
<polygon fill="#a2b4d6" stroke="#404040" points="486.38,-74.7 451.62,-74.7 451.62,-55.45 486.38,-55.45 486.38,-74.7"/>
<text text-anchor="middle" x="469" y="-61.2" font-family="Helvetica,sans-Serif" font-size="10.00">core</text>
</a>
</g>
</g>
<!-- dir_bec13d53859e967dc83fcb104ab0b9fd&#45;&gt;dir_d44c64559bbebec7f509842c48db8b23 -->
<g id="edge4" class="edge">
<title>dir_bec13d53859e967dc83fcb104ab0b9fd&#45;&gt;dir_d44c64559bbebec7f509842c48db8b23</title>
<g id="a_edge4"><a xlink:href="dir_000028_000039.html" target="_top">
<path fill="none" stroke="#63b8ff" d="M461.67,-55.12C456.88,-49.82 450.19,-43.4 443,-39.45 418.36,-25.92 387.24,-18.66 363.74,-14.84"/>
<polygon fill="#63b8ff" stroke="#63b8ff" points="364.45,-11.41 354.05,-13.41 363.43,-18.34 364.45,-11.41"/>
</a>
</g>
<g id="a_edge4&#45;headlabel"><a xlink:href="dir_000028_000039.html" target="_top" xlink:title="11">
<text text-anchor="middle" x="366.92" y="-5.03" font-family="Helvetica,sans-Serif" font-size="10.00" fill="#63b8ff">11</text>
</a>
</g>
</g>
<!-- dir_aee9ab6fedb00380c94a3a6c6b09f99a -->
<g id="node5" class="node">
<title>dir_aee9ab6fedb00380c94a3a6c6b09f99a</title>
<g id="a_node5"><a xlink:href="dir_aee9ab6fedb00380c94a3a6c6b09f99a.html" target="_top" xlink:title="drivers">
<polygon fill="#a2b4d6" stroke="#404040" points="433.62,-74.7 388.38,-74.7 388.38,-55.45 433.62,-55.45 433.62,-74.7"/>
<text text-anchor="middle" x="411" y="-61.2" font-family="Helvetica,sans-Serif" font-size="10.00">drivers</text>
</a>
</g>
</g>
<!-- dir_aee9ab6fedb00380c94a3a6c6b09f99a&#45;&gt;dir_d44c64559bbebec7f509842c48db8b23 -->
<g id="edge5" class="edge">
<title>dir_aee9ab6fedb00380c94a3a6c6b09f99a&#45;&gt;dir_d44c64559bbebec7f509842c48db8b23</title>
<g id="a_edge5"><a xlink:href="dir_000034_000039.html" target="_top">
<path fill="none" stroke="#63b8ff" d="M400.02,-55.03C393.97,-50.2 386.23,-44.27 379,-39.45 371.68,-34.57 363.48,-29.66 355.87,-25.32"/>
<polygon fill="#63b8ff" stroke="#63b8ff" points="357.77,-22.37 347.33,-20.55 354.36,-28.48 357.77,-22.37"/>
</a>
</g>
<g id="a_edge5&#45;headlabel"><a xlink:href="dir_000034_000039.html" target="_top" xlink:title="5">
<text text-anchor="middle" x="360.97" y="-17.03" font-family="Helvetica,sans-Serif" font-size="10.00" fill="#63b8ff">5</text>
</a>
</g>
</g>
<!-- dir_f848a285e60993dcb3189737897d2857 -->
<g id="node6" class="node">
<title>dir_f848a285e60993dcb3189737897d2857</title>
<g id="a_node6"><a xlink:href="dir_f848a285e60993dcb3189737897d2857.html" target="_top" xlink:title="fs">
<polygon fill="#a2b4d6" stroke="#404040" points="370.4,-74.7 341.6,-74.7 341.6,-55.45 370.4,-55.45 370.4,-74.7"/>
<text text-anchor="middle" x="356" y="-61.2" font-family="Helvetica,sans-Serif" font-size="10.00">fs</text>
</a>
</g>
</g>
<!-- dir_f848a285e60993dcb3189737897d2857&#45;&gt;dir_d44c64559bbebec7f509842c48db8b23 -->
<g id="edge6" class="edge">
<title>dir_f848a285e60993dcb3189737897d2857&#45;&gt;dir_d44c64559bbebec7f509842c48db8b23</title>
<g id="a_edge6"><a xlink:href="dir_000037_000039.html" target="_top">
<path fill="none" stroke="#63b8ff" d="M351.54,-55.28C348.05,-48.38 343.05,-38.53 338.65,-29.86"/>
<polygon fill="#63b8ff" stroke="#63b8ff" points="341.88,-28.49 334.24,-21.16 335.64,-31.66 341.88,-28.49"/>
</a>
</g>
<g id="a_edge6&#45;headlabel"><a xlink:href="dir_000037_000039.html" target="_top" xlink:title="49">
<text text-anchor="middle" x="345.36" y="-25.19" font-family="Helvetica,sans-Serif" font-size="10.00" fill="#63b8ff">49</text>
</a>
</g>
</g>
<!-- dir_cb0724ac90fd85e97a72e956b33dc284 -->
<g id="node7" class="node">
<title>dir_cb0724ac90fd85e97a72e956b33dc284</title>
<g id="a_node7"><a xlink:href="dir_cb0724ac90fd85e97a72e956b33dc284.html" target="_top" xlink:title="kshell">
<polygon fill="#a2b4d6" stroke="#404040" points="323.75,-74.7 282.25,-74.7 282.25,-55.45 323.75,-55.45 323.75,-74.7"/>
<text text-anchor="middle" x="303" y="-61.2" font-family="Helvetica,sans-Serif" font-size="10.00">kshell</text>
</a>
</g>
</g>
<!-- dir_cb0724ac90fd85e97a72e956b33dc284&#45;&gt;dir_d44c64559bbebec7f509842c48db8b23 -->
<g id="edge7" class="edge">
<title>dir_cb0724ac90fd85e97a72e956b33dc284&#45;&gt;dir_d44c64559bbebec7f509842c48db8b23</title>
<g id="a_edge7"><a xlink:href="dir_000044_000039.html" target="_top">
<path fill="none" stroke="#63b8ff" d="M307.29,-55.28C310.62,-48.46 315.36,-38.75 319.56,-30.15"/>
<polygon fill="#63b8ff" stroke="#63b8ff" points="322.71,-31.69 323.95,-21.17 316.42,-28.62 322.71,-31.69"/>
</a>
</g>
<g id="a_edge7&#45;headlabel"><a xlink:href="dir_000044_000039.html" target="_top" xlink:title="61">
<text text-anchor="middle" x="324.35" y="-30.93" font-family="Helvetica,sans-Serif" font-size="10.00" fill="#63b8ff">61</text>
</a>
</g>
</g>
<!-- dir_29d7bd500ea2760b0490c582bc5917ca -->
<g id="node8" class="node">
<title>dir_29d7bd500ea2760b0490c582bc5917ca</title>
<g id="a_node8"><a xlink:href="dir_29d7bd500ea2760b0490c582bc5917ca.html" target="_top" xlink:title="mmu">
<polygon fill="#a2b4d6" stroke="#404040" points="263.88,-74.7 226.12,-74.7 226.12,-55.45 263.88,-55.45 263.88,-74.7"/>
<text text-anchor="middle" x="245" y="-61.2" font-family="Helvetica,sans-Serif" font-size="10.00">mmu</text>
</a>
</g>
</g>
<!-- dir_29d7bd500ea2760b0490c582bc5917ca&#45;&gt;dir_d44c64559bbebec7f509842c48db8b23 -->
<g id="edge8" class="edge">
<title>dir_29d7bd500ea2760b0490c582bc5917ca&#45;&gt;dir_d44c64559bbebec7f509842c48db8b23</title>
<g id="a_edge8"><a xlink:href="dir_000052_000039.html" target="_top">
<path fill="none" stroke="#63b8ff" d="M254.11,-55.02C259.37,-50.07 266.25,-44.03 273,-39.45 280.81,-34.14 289.73,-29.15 298.13,-24.87"/>
<polygon fill="#63b8ff" stroke="#63b8ff" points="299.56,-28.07 307,-20.53 296.48,-21.78 299.56,-28.07"/>
</a>
</g>
<g id="a_edge8&#45;headlabel"><a xlink:href="dir_000052_000039.html" target="_top" xlink:title="1">
<text text-anchor="middle" x="298.94" y="-27.66" font-family="Helvetica,sans-Serif" font-size="10.00" fill="#63b8ff">1</text>
</a>
</g>
</g>
<!-- dir_7d5a55bffd9f0b5a19cf98f012f1d84d -->
<g id="node9" class="node">
<title>dir_7d5a55bffd9f0b5a19cf98f012f1d84d</title>
<g id="a_node9"><a xlink:href="dir_7d5a55bffd9f0b5a19cf98f012f1d84d.html" target="_top" xlink:title="net">
<polygon fill="#a2b4d6" stroke="#404040" points="207.75,-74.7 178.25,-74.7 178.25,-55.45 207.75,-55.45 207.75,-74.7"/>
<text text-anchor="middle" x="193" y="-61.2" font-family="Helvetica,sans-Serif" font-size="10.00">net</text>
</a>
</g>
</g>
<!-- dir_7d5a55bffd9f0b5a19cf98f012f1d84d&#45;&gt;dir_d44c64559bbebec7f509842c48db8b23 -->
<g id="edge9" class="edge">
<title>dir_7d5a55bffd9f0b5a19cf98f012f1d84d&#45;&gt;dir_d44c64559bbebec7f509842c48db8b23</title>
<g id="a_edge9"><a xlink:href="dir_000054_000039.html" target="_top">
<path fill="none" stroke="#63b8ff" d="M199.64,-55.11C204.01,-49.82 210.18,-43.39 217,-39.45 240.67,-25.76 270.87,-18.53 293.95,-14.77"/>
<polygon fill="#63b8ff" stroke="#63b8ff" points="294.41,-18.24 303.79,-13.32 293.39,-11.31 294.41,-18.24"/>
</a>
</g>
<g id="a_edge9&#45;headlabel"><a xlink:href="dir_000054_000039.html" target="_top" xlink:title="60">
<text text-anchor="middle" x="292.76" y="-17.47" font-family="Helvetica,sans-Serif" font-size="10.00" fill="#63b8ff">60</text>
</a>
</g>
</g>
<!-- dir_6799a15b2a75f7240f888daacd198be8 -->
<g id="node10" class="node">
<title>dir_6799a15b2a75f7240f888daacd198be8</title>
<g id="a_node10"><a xlink:href="dir_6799a15b2a75f7240f888daacd198be8.html" target="_top" xlink:title="proc">
<polygon fill="#a2b4d6" stroke="#404040" points="160.38,-74.7 125.62,-74.7 125.62,-55.45 160.38,-55.45 160.38,-74.7"/>
<text text-anchor="middle" x="143" y="-61.2" font-family="Helvetica,sans-Serif" font-size="10.00">proc</text>
</a>
</g>
</g>
<!-- dir_6799a15b2a75f7240f888daacd198be8&#45;&gt;dir_d44c64559bbebec7f509842c48db8b23 -->
<g id="edge10" class="edge">
<title>dir_6799a15b2a75f7240f888daacd198be8&#45;&gt;dir_d44c64559bbebec7f509842c48db8b23</title>
<g id="a_edge10"><a xlink:href="dir_000059_000039.html" target="_top">
<path fill="none" stroke="#63b8ff" d="M149.81,-55.43C154.59,-49.97 161.45,-43.26 169,-39.45 208.77,-19.36 260.34,-13.16 294.03,-11.36"/>
<polygon fill="#63b8ff" stroke="#63b8ff" points="293.8,-14.88 303.64,-10.96 293.5,-7.88 293.8,-14.88"/>
</a>
</g>
<g id="a_edge10&#45;headlabel"><a xlink:href="dir_000059_000039.html" target="_top" xlink:title="9">
<text text-anchor="middle" x="291.84" y="-13.93" font-family="Helvetica,sans-Serif" font-size="10.00" fill="#63b8ff">9</text>
</a>
</g>
</g>
<!-- dir_4b0b675971e8b75ff33680b3a878a76d -->
<g id="node11" class="node">
<title>dir_4b0b675971e8b75ff33680b3a878a76d</title>
<g id="a_node11"><a xlink:href="dir_4b0b675971e8b75ff33680b3a878a76d.html" target="_top" xlink:title="sys">
<polygon fill="#a2b4d6" stroke="#404040" points="107.88,-74.7 76.12,-74.7 76.12,-55.45 107.88,-55.45 107.88,-74.7"/>
<text text-anchor="middle" x="92" y="-61.2" font-family="Helvetica,sans-Serif" font-size="10.00">sys</text>
</a>
</g>
</g>
<!-- dir_4b0b675971e8b75ff33680b3a878a76d&#45;&gt;dir_d44c64559bbebec7f509842c48db8b23 -->
<g id="edge11" class="edge">
<title>dir_4b0b675971e8b75ff33680b3a878a76d&#45;&gt;dir_d44c64559bbebec7f509842c48db8b23</title>
<g id="a_edge11"><a xlink:href="dir_000069_000039.html" target="_top">
<path fill="none" stroke="#63b8ff" d="M98.43,-55.32C102.97,-49.82 109.56,-43.1 117,-39.45 147.39,-24.54 242,-16.35 293.96,-12.87"/>
<polygon fill="#63b8ff" stroke="#63b8ff" points="294.01,-16.37 303.77,-12.24 293.56,-9.39 294.01,-16.37"/>
</a>
</g>
<g id="a_edge11&#45;headlabel"><a xlink:href="dir_000069_000039.html" target="_top" xlink:title="80">
<text text-anchor="middle" x="292.12" y="-15.46" font-family="Helvetica,sans-Serif" font-size="10.00" fill="#63b8ff">80</text>
</a>
</g>
</g>
<!-- dir_fc5cfe600d892ad1b812a54c244fb6ca -->
<g id="node12" class="node">
<title>dir_fc5cfe600d892ad1b812a54c244fb6ca</title>
<g id="a_node12"><a xlink:href="dir_fc5cfe600d892ad1b812a54c244fb6ca.html" target="_top" xlink:title="time">
<polygon fill="#a2b4d6" stroke="#404040" points="58.38,-74.7 23.62,-74.7 23.62,-55.45 58.38,-55.45 58.38,-74.7"/>
<text text-anchor="middle" x="41" y="-61.2" font-family="Helvetica,sans-Serif" font-size="10.00">time</text>
</a>
</g>
</g>
<!-- dir_fc5cfe600d892ad1b812a54c244fb6ca&#45;&gt;dir_d44c64559bbebec7f509842c48db8b23 -->
<g id="edge12" class="edge">
<title>dir_fc5cfe600d892ad1b812a54c244fb6ca&#45;&gt;dir_d44c64559bbebec7f509842c48db8b23</title>
<g id="a_edge12"><a xlink:href="dir_000073_000039.html" target="_top">
<path fill="none" stroke="#63b8ff" d="M47.72,-55.25C52.47,-49.73 59.33,-43 67,-39.45 106.51,-21.16 232.07,-14.24 293.91,-11.9"/>
<polygon fill="#63b8ff" stroke="#63b8ff" points="294,-15.4 303.87,-11.54 293.75,-8.4 294,-15.4"/>
</a>
</g>
<g id="a_edge12&#45;headlabel"><a xlink:href="dir_000073_000039.html" target="_top" xlink:title="8">
<text text-anchor="middle" x="292.02" y="-14.43" font-family="Helvetica,sans-Serif" font-size="10.00" fill="#63b8ff">8</text>
</a>
</g>
</g>
</g>
</svg>
