<?xml version="1.0" encoding="UTF-8" standalone="no"?>
<!DOCTYPE svg PUBLIC "-//W3C//DTD SVG 1.1//EN"
 "http://www.w3.org/Graphics/SVG/1.1/DTD/svg11.dtd">
<!-- Generated by graphviz version 2.49.3 (20211023.0002)
 -->
<!-- Title: src/kernel/arch/aarch64/board/raspi3 Pages: 1 -->
<svg width="326pt" height="159pt"
 viewBox="0.00 0.00 326.00 159.00" xmlns="http://www.w3.org/2000/svg" xmlns:xlink="http://www.w3.org/1999/xlink">
<g id="graph0" class="graph" transform="scale(1 1) rotate(0) translate(4 155)">
<title>src/kernel/arch/aarch64/board/raspi3</title>
<g id="clust1" class="cluster">
<title>clusterdir_b30df4826c7011c0e76e14e84665bb61</title>
<g id="a_clust1"><a xlink:href="dir_b30df4826c7011c0e76e14e84665bb61.html" target="_top" xlink:title="board">
<polygon fill="#ddddee" stroke="black" points="8,-56 8,-143 310,-143 310,-56 8,-56"/>
<text text-anchor="middle" x="159" y="-131" font-family="Helvetica,sans-Serif" font-size="10.00">board</text>
</a>
</g>
</g>
<g id="clust2" class="cluster">
<title>clusterdir_0ee13ef8e704275bb683062618b87174</title>
<g id="a_clust2"><a xlink:href="dir_0ee13ef8e704275bb683062618b87174.html" target="_top">
<polygon fill="#eeeeff" stroke="black" points="16,-64 16,-116 302,-116 302,-64 16,-64"/>
</a>
</g>
</g>
<!-- dir_0ee13ef8e704275bb683062618b87174 -->
<g id="node1" class="node">
<title>dir_0ee13ef8e704275bb683062618b87174</title>
<text text-anchor="middle" x="267" y="-87.5" font-family="Helvetica,sans-Serif" font-size="10.00">raspi3</text>
</g>
<!-- dir_1742f59156db57e3c3c19d5377929d16 -->
<g id="node2" class="node">
<title>dir_1742f59156db57e3c3c19d5377929d16</title>
<g id="a_node2"><a xlink:href="dir_1742f59156db57e3c3c19d5377929d16.html" target="_top" xlink:title="arch">
<polygon fill="white" stroke="black" points="222,-108 168,-108 168,-72 222,-72 222,-108"/>
<text text-anchor="middle" x="195" y="-87.5" font-family="Helvetica,sans-Serif" font-size="10.00">arch</text>
</a>
</g>
</g>
<!-- dir_d44c64559bbebec7f509842c48db8b23 -->
<g id="node5" class="node">
<title>dir_d44c64559bbebec7f509842c48db8b23</title>
<g id="a_node5"><a xlink:href="dir_d44c64559bbebec7f509842c48db8b23.html" target="_top" xlink:title="include">
<polygon fill="none" stroke="red" points="186,-36 132,-36 132,0 186,0 186,-36"/>
<text text-anchor="middle" x="159" y="-15.5" font-family="Helvetica,sans-Serif" font-size="10.00">include</text>
</a>
</g>
</g>
<!-- dir_1742f59156db57e3c3c19d5377929d16&#45;&gt;dir_d44c64559bbebec7f509842c48db8b23 -->
<g id="edge2" class="edge">
<title>dir_1742f59156db57e3c3c19d5377929d16&#45;&gt;dir_d44c64559bbebec7f509842c48db8b23</title>
<path fill="none" stroke="black" d="M186.1,-71.7C182,-63.73 177.05,-54.1 172.51,-45.26"/>
<polygon fill="black" stroke="black" points="175.48,-43.4 167.8,-36.1 169.26,-46.6 175.48,-43.4"/>
<g id="a_edge2&#45;headlabel"><a xlink:href="dir_000040_000000.html" target="_top" xlink:title="2">
<text text-anchor="middle" x="179.65" y="-42.79" font-family="Helvetica,sans-Serif" font-size="10.00">2</text>
</a>
</g>
</g>
<!-- dir_05b87e84258f1802cc4a47c2e5dce39d -->
<g id="node3" class="node">
<title>dir_05b87e84258f1802cc4a47c2e5dce39d</title>
<g id="a_node3"><a xlink:href="dir_05b87e84258f1802cc4a47c2e5dce39d.html" target="_top" xlink:title="drivers">
<polygon fill="white" stroke="black" points="150,-108 96,-108 96,-72 150,-72 150,-108"/>
<text text-anchor="middle" x="123" y="-87.5" font-family="Helvetica,sans-Serif" font-size="10.00">drivers</text>
</a>
</g>
</g>
<!-- dir_05b87e84258f1802cc4a47c2e5dce39d&#45;&gt;dir_d44c64559bbebec7f509842c48db8b23 -->
<g id="edge1" class="edge">
<title>dir_05b87e84258f1802cc4a47c2e5dce39d&#45;&gt;dir_d44c64559bbebec7f509842c48db8b23</title>
<path fill="none" stroke="black" d="M131.9,-71.7C136,-63.73 140.95,-54.1 145.49,-45.26"/>
<polygon fill="black" stroke="black" points="148.74,-46.6 150.2,-36.1 142.52,-43.4 148.74,-46.6"/>
<g id="a_edge1&#45;headlabel"><a xlink:href="dir_000041_000000.html" target="_top" xlink:title="1">
<text text-anchor="middle" x="149.62" y="-48.59" font-family="Helvetica,sans-Serif" font-size="10.00">1</text>
</a>
</g>
</g>
<!-- dir_b5c5136b0a2ed351fa08c658cfa1f98a -->
<g id="node4" class="node">
<title>dir_b5c5136b0a2ed351fa08c658cfa1f98a</title>
<g id="a_node4"><a xlink:href="dir_b5c5136b0a2ed351fa08c658cfa1f98a.html" target="_top" xlink:title="mmu">
<polygon fill="white" stroke="black" points="78,-108 24,-108 24,-72 78,-72 78,-108"/>
<text text-anchor="middle" x="51" y="-87.5" font-family="Helvetica,sans-Serif" font-size="10.00">mmu</text>
</a>
</g>
</g>
</g>
</svg>
