<?xml version="1.0" encoding="UTF-8" standalone="no"?>
<!DOCTYPE svg PUBLIC "-//W3C//DTD SVG 1.1//EN"
 "http://www.w3.org/Graphics/SVG/1.1/DTD/svg11.dtd">
<!-- Generated by graphviz version 8.0.2 (20230410.1723)
 -->
<!-- Title: src/kernel Pages: 1 -->
<svg width="701pt" height="126pt"
 viewBox="0.00 0.00 701.00 125.53" xmlns="http://www.w3.org/2000/svg" xmlns:xlink="http://www.w3.org/1999/xlink">
<g id="graph0" class="graph" transform="scale(1 1) rotate(0) translate(4 121.53)">
<title>src/kernel</title>
<g id="clust1" class="cluster">
<title>clusterdir_68267d1309a1af8e8297ef4c3efbcdba</title>
<g id="a_clust1"><a xlink:href="dir_68267d1309a1af8e8297ef4c3efbcdba.html" target="_top" xlink:title="src">
<polygon fill="#edf0f7" stroke="#404040" stroke-dasharray="5,2" points="8,-39.53 8,-109.53 685,-109.53 685,-39.53 8,-39.53"/>
<text text-anchor="middle" x="346.5" y="-97.53" font-family="Helvetica,sans-Serif" font-size="10.00">src</text>
</a>
</g>
</g>
<g id="clust2" class="cluster">
<title>clusterdir_cbd7f246bdf7dc0a50281a272327e6ed</title>
<g id="a_clust2"><a xlink:href="dir_cbd7f246bdf7dc0a50281a272327e6ed.html" target="_top">
<polygon fill="#edf0f7" stroke="#404040" stroke-width="2" points="16,-47.53 16,-82.53 677,-82.53 677,-47.53 16,-47.53"/>
</a>
</g>
</g>
<!-- dir_cbd7f246bdf7dc0a50281a272327e6ed -->
<g id="node1" class="node">
<title>dir_cbd7f246bdf7dc0a50281a272327e6ed</title>
<text text-anchor="middle" x="647" y="-62.53" font-family="Helvetica,sans-Serif" font-size="10.00">kernel</text>
</g>
<!-- dir_d44c64559bbebec7f509842c48db8b23 -->
<g id="node13" class="node">
<title>dir_d44c64559bbebec7f509842c48db8b23</title>
<g id="a_node13"><a xlink:href="dir_d44c64559bbebec7f509842c48db8b23.html" target="_top" xlink:title="include">
<polygon fill="#edf0f7" stroke="red" points="357.5,-19.53 310.5,-19.53 310.5,-0.53 357.5,-0.53 357.5,-19.53"/>
<text text-anchor="middle" x="334" y="-7.53" font-family="Helvetica,sans-Serif" font-size="10.00">include</text>
</a>
</g>
</g>
<!-- dir_cbd7f246bdf7dc0a50281a272327e6ed&#45;&gt;dir_d44c64559bbebec7f509842c48db8b23 -->
<g id="edge1" class="edge">
<title>dir_cbd7f246bdf7dc0a50281a272327e6ed&#45;&gt;dir_d44c64559bbebec7f509842c48db8b23</title>
<g id="a_edge1"><a xlink:href="dir_000042_000039.html" target="_top">
<path fill="none" stroke="#63b8ff" d="M639.46,-55.71C633.85,-50.12 625.7,-43.13 617,-39.53 572.88,-21.26 433.92,-14.33 368.59,-12.03"/>
<polygon fill="#63b8ff" stroke="#63b8ff" points="368.76,-8.5 358.65,-11.66 368.53,-15.5 368.76,-8.5"/>
</a>
</g>
<g id="a_edge1&#45;headlabel"><a xlink:href="dir_000042_000039.html" target="_top" xlink:title="478">
<text text-anchor="middle" x="371.45" y="-3.28" font-family="Helvetica,sans-Serif" font-size="10.00" fill="#63b8ff">478</text>
</a>
</g>
</g>
<!-- dir_76e3dd4d2fa719e8d3b096e9aa563982 -->
<g id="node2" class="node">
<title>dir_76e3dd4d2fa719e8d3b096e9aa563982</title>
<g id="a_node2"><a xlink:href="dir_76e3dd4d2fa719e8d3b096e9aa563982.html" target="_top" xlink:title="arch">
<polygon fill="#a2b4d6" stroke="#404040" points="607.5,-74.53 572.5,-74.53 572.5,-55.53 607.5,-55.53 607.5,-74.53"/>
<text text-anchor="middle" x="590" y="-62.53" font-family="Helvetica,sans-Serif" font-size="10.00">arch</text>
</a>
</g>
</g>
<!-- dir_76e3dd4d2fa719e8d3b096e9aa563982&#45;&gt;dir_d44c64559bbebec7f509842c48db8b23 -->
<g id="edge2" class="edge">
<title>dir_76e3dd4d2fa719e8d3b096e9aa563982&#45;&gt;dir_d44c64559bbebec7f509842c48db8b23</title>
<g id="a_edge2"><a xlink:href="dir_000003_000039.html" target="_top">
<path fill="none" stroke="#63b8ff" d="M583.25,-55.29C578.49,-49.81 571.63,-43.12 564,-39.53 530.11,-23.59 423.87,-15.76 368.43,-12.67"/>
<polygon fill="#63b8ff" stroke="#63b8ff" points="368.91,-9.14 358.74,-12.1 368.54,-16.13 368.91,-9.14"/>
</a>
</g>
<g id="a_edge2&#45;headlabel"><a xlink:href="dir_000003_000039.html" target="_top" xlink:title="163">
<text text-anchor="middle" x="371.65" y="-4" font-family="Helvetica,sans-Serif" font-size="10.00" fill="#63b8ff">163</text>
</a>
</g>
</g>
<!-- dir_91ac63a6f1fcde128d29d4ab1613b3c5 -->
<g id="node3" class="node">
<title>dir_91ac63a6f1fcde128d29d4ab1613b3c5</title>
<g id="a_node3"><a xlink:href="dir_91ac63a6f1fcde128d29d4ab1613b3c5.html" target="_top" xlink:title="config">
<polygon fill="#a2b4d6" stroke="#404040" points="554.5,-74.53 511.5,-74.53 511.5,-55.53 554.5,-55.53 554.5,-74.53"/>
<text text-anchor="middle" x="533" y="-62.53" font-family="Helvetica,sans-Serif" font-size="10.00">config</text>
</a>
</g>
</g>
<!-- dir_91ac63a6f1fcde128d29d4ab1613b3c5&#45;&gt;dir_d44c64559bbebec7f509842c48db8b23 -->
<g id="edge3" class="edge">
<title>dir_91ac63a6f1fcde128d29d4ab1613b3c5&#45;&gt;dir_d44c64559bbebec7f509842c48db8b23</title>
<g id="a_edge3"><a xlink:href="dir_000021_000039.html" target="_top">
<path fill="none" stroke="#63b8ff" d="M524.64,-55.17C519.04,-49.79 511.21,-43.25 503,-39.53 459.36,-19.73 403.73,-13.56 368.48,-11.71"/>
<polygon fill="#63b8ff" stroke="#63b8ff" points="368.93,-8.18 358.79,-11.25 368.63,-15.18 368.93,-8.18"/>
</a>
</g>
<g id="a_edge3&#45;headlabel"><a xlink:href="dir_000021_000039.html" target="_top" xlink:title="7">
<text text-anchor="middle" x="371.64" y="-3" font-family="Helvetica,sans-Serif" font-size="10.00" fill="#63b8ff">7</text>
</a>
</g>
</g>
<!-- dir_bec13d53859e967dc83fcb104ab0b9fd -->
<g id="node4" class="node">
<title>dir_bec13d53859e967dc83fcb104ab0b9fd</title>
<g id="a_node4"><a xlink:href="dir_bec13d53859e967dc83fcb104ab0b9fd.html" target="_top" xlink:title="core">
<polygon fill="#a2b4d6" stroke="#404040" points="493.5,-74.53 458.5,-74.53 458.5,-55.53 493.5,-55.53 493.5,-74.53"/>
<text text-anchor="middle" x="476" y="-62.53" font-family="Helvetica,sans-Serif" font-size="10.00">core</text>
</a>
</g>
</g>
<!-- dir_bec13d53859e967dc83fcb104ab0b9fd&#45;&gt;dir_d44c64559bbebec7f509842c48db8b23 -->
<g id="edge4" class="edge">
<title>dir_bec13d53859e967dc83fcb104ab0b9fd&#45;&gt;dir_d44c64559bbebec7f509842c48db8b23</title>
<g id="a_edge4"><a xlink:href="dir_000028_000039.html" target="_top">
<path fill="none" stroke="#63b8ff" d="M468.32,-55.12C463.32,-49.85 456.37,-43.46 449,-39.53 423.77,-26.07 392.04,-18.83 368.3,-15.02"/>
<polygon fill="#63b8ff" stroke="#63b8ff" points="369.09,-11.45 358.68,-13.45 368.07,-18.37 369.09,-11.45"/>
</a>
</g>
<g id="a_edge4&#45;headlabel"><a xlink:href="dir_000028_000039.html" target="_top" xlink:title="11">
<text text-anchor="middle" x="372.06" y="-6.66" font-family="Helvetica,sans-Serif" font-size="10.00" fill="#63b8ff">11</text>
</a>
</g>
</g>
<!-- dir_aee9ab6fedb00380c94a3a6c6b09f99a -->
<g id="node5" class="node">
<title>dir_aee9ab6fedb00380c94a3a6c6b09f99a</title>
<g id="a_node5"><a xlink:href="dir_aee9ab6fedb00380c94a3a6c6b09f99a.html" target="_top" xlink:title="drivers">
<polygon fill="#a2b4d6" stroke="#404040" points="440,-74.53 394,-74.53 394,-55.53 440,-55.53 440,-74.53"/>
<text text-anchor="middle" x="417" y="-62.53" font-family="Helvetica,sans-Serif" font-size="10.00">drivers</text>
</a>
</g>
</g>
<!-- dir_aee9ab6fedb00380c94a3a6c6b09f99a&#45;&gt;dir_d44c64559bbebec7f509842c48db8b23 -->
<g id="edge5" class="edge">
<title>dir_aee9ab6fedb00380c94a3a6c6b09f99a&#45;&gt;dir_d44c64559bbebec7f509842c48db8b23</title>
<g id="a_edge5"><a xlink:href="dir_000034_000039.html" target="_top">
<path fill="none" stroke="#63b8ff" d="M406.32,-55.24C400.23,-50.38 392.37,-44.37 385,-39.53 377.37,-34.51 368.8,-29.5 360.9,-25.11"/>
<polygon fill="#63b8ff" stroke="#63b8ff" points="362.82,-21.63 352.36,-19.93 359.48,-27.78 362.82,-21.63"/>
</a>
</g>
<g id="a_edge5&#45;headlabel"><a xlink:href="dir_000034_000039.html" target="_top" xlink:title="4">
<text text-anchor="middle" x="366.33" y="-18.35" font-family="Helvetica,sans-Serif" font-size="10.00" fill="#63b8ff">4</text>
</a>
</g>
</g>
<!-- dir_f848a285e60993dcb3189737897d2857 -->
<g id="node6" class="node">
<title>dir_f848a285e60993dcb3189737897d2857</title>
<g id="a_node6"><a xlink:href="dir_f848a285e60993dcb3189737897d2857.html" target="_top" xlink:title="fs">
<polygon fill="#a2b4d6" stroke="#404040" points="375.5,-74.53 346.5,-74.53 346.5,-55.53 375.5,-55.53 375.5,-74.53"/>
<text text-anchor="middle" x="361" y="-62.53" font-family="Helvetica,sans-Serif" font-size="10.00">fs</text>
</a>
</g>
</g>
<!-- dir_f848a285e60993dcb3189737897d2857&#45;&gt;dir_d44c64559bbebec7f509842c48db8b23 -->
<g id="edge6" class="edge">
<title>dir_f848a285e60993dcb3189737897d2857&#45;&gt;dir_d44c64559bbebec7f509842c48db8b23</title>
<g id="a_edge6"><a xlink:href="dir_000037_000039.html" target="_top">
<path fill="none" stroke="#63b8ff" d="M356.54,-55.28C353.01,-48.34 347.94,-38.39 343.51,-29.69"/>
<polygon fill="#63b8ff" stroke="#63b8ff" points="346.21,-28.29 338.56,-20.97 339.98,-31.47 346.21,-28.29"/>
</a>
</g>
<g id="a_edge6&#45;headlabel"><a xlink:href="dir_000037_000039.html" target="_top" xlink:title="49">
<text text-anchor="middle" x="350.37" y="-26.7" font-family="Helvetica,sans-Serif" font-size="10.00" fill="#63b8ff">49</text>
</a>
</g>
</g>
<!-- dir_cb0724ac90fd85e97a72e956b33dc284 -->
<g id="node7" class="node">
<title>dir_cb0724ac90fd85e97a72e956b33dc284</title>
<g id="a_node7"><a xlink:href="dir_cb0724ac90fd85e97a72e956b33dc284.html" target="_top" xlink:title="kshell">
<polygon fill="#a2b4d6" stroke="#404040" points="328,-74.53 286,-74.53 286,-55.53 328,-55.53 328,-74.53"/>
<text text-anchor="middle" x="307" y="-62.53" font-family="Helvetica,sans-Serif" font-size="10.00">kshell</text>
</a>
</g>
</g>
<!-- dir_cb0724ac90fd85e97a72e956b33dc284&#45;&gt;dir_d44c64559bbebec7f509842c48db8b23 -->
<g id="edge7" class="edge">
<title>dir_cb0724ac90fd85e97a72e956b33dc284&#45;&gt;dir_d44c64559bbebec7f509842c48db8b23</title>
<g id="a_edge7"><a xlink:href="dir_000044_000039.html" target="_top">
<path fill="none" stroke="#63b8ff" d="M311.46,-55.28C314.99,-48.34 320.06,-38.39 324.49,-29.69"/>
<polygon fill="#63b8ff" stroke="#63b8ff" points="328.02,-31.47 329.44,-20.97 321.79,-28.29 328.02,-31.47"/>
</a>
</g>
<g id="a_edge7&#45;headlabel"><a xlink:href="dir_000044_000039.html" target="_top" xlink:title="61">
<text text-anchor="middle" x="328.92" y="-32.46" font-family="Helvetica,sans-Serif" font-size="10.00" fill="#63b8ff">61</text>
</a>
</g>
</g>
<!-- dir_29d7bd500ea2760b0490c582bc5917ca -->
<g id="node8" class="node">
<title>dir_29d7bd500ea2760b0490c582bc5917ca</title>
<g id="a_node8"><a xlink:href="dir_29d7bd500ea2760b0490c582bc5917ca.html" target="_top" xlink:title="mmu">
<polygon fill="#a2b4d6" stroke="#404040" points="268,-74.53 230,-74.53 230,-55.53 268,-55.53 268,-74.53"/>
<text text-anchor="middle" x="249" y="-62.53" font-family="Helvetica,sans-Serif" font-size="10.00">mmu</text>
</a>
</g>
</g>
<!-- dir_29d7bd500ea2760b0490c582bc5917ca&#45;&gt;dir_d44c64559bbebec7f509842c48db8b23 -->
<g id="edge8" class="edge">
<title>dir_29d7bd500ea2760b0490c582bc5917ca&#45;&gt;dir_d44c64559bbebec7f509842c48db8b23</title>
<g id="a_edge8"><a xlink:href="dir_000052_000039.html" target="_top">
<path fill="none" stroke="#63b8ff" d="M257.85,-55.23C263.14,-50.26 270.14,-44.14 277,-39.53 285.12,-34.07 294.43,-28.99 303.14,-24.67"/>
<polygon fill="#63b8ff" stroke="#63b8ff" points="304.46,-27.44 311.98,-19.97 301.45,-21.12 304.46,-27.44"/>
</a>
</g>
<g id="a_edge8&#45;headlabel"><a xlink:href="dir_000052_000039.html" target="_top" xlink:title="1">
<text text-anchor="middle" x="303.44" y="-29.05" font-family="Helvetica,sans-Serif" font-size="10.00" fill="#63b8ff">1</text>
</a>
</g>
</g>
<!-- dir_7d5a55bffd9f0b5a19cf98f012f1d84d -->
<g id="node9" class="node">
<title>dir_7d5a55bffd9f0b5a19cf98f012f1d84d</title>
<g id="a_node9"><a xlink:href="dir_7d5a55bffd9f0b5a19cf98f012f1d84d.html" target="_top" xlink:title="net">
<polygon fill="#a2b4d6" stroke="#404040" points="212,-74.53 182,-74.53 182,-55.53 212,-55.53 212,-74.53"/>
<text text-anchor="middle" x="197" y="-62.53" font-family="Helvetica,sans-Serif" font-size="10.00">net</text>
</a>
</g>
</g>
<!-- dir_7d5a55bffd9f0b5a19cf98f012f1d84d&#45;&gt;dir_d44c64559bbebec7f509842c48db8b23 -->
<g id="edge9" class="edge">
<title>dir_7d5a55bffd9f0b5a19cf98f012f1d84d&#45;&gt;dir_d44c64559bbebec7f509842c48db8b23</title>
<g id="a_edge9"><a xlink:href="dir_000054_000039.html" target="_top">
<path fill="none" stroke="#63b8ff" d="M203.64,-55.11C208.02,-49.83 214.18,-43.44 221,-39.53 245.12,-25.67 275.93,-18.48 299.28,-14.79"/>
<polygon fill="#63b8ff" stroke="#63b8ff" points="299.68,-18.12 309.09,-13.24 298.69,-11.19 299.68,-18.12"/>
</a>
</g>
<g id="a_edge9&#45;headlabel"><a xlink:href="dir_000054_000039.html" target="_top" xlink:title="60">
<text text-anchor="middle" x="297.53" y="-18.94" font-family="Helvetica,sans-Serif" font-size="10.00" fill="#63b8ff">60</text>
</a>
</g>
</g>
<!-- dir_6799a15b2a75f7240f888daacd198be8 -->
<g id="node10" class="node">
<title>dir_6799a15b2a75f7240f888daacd198be8</title>
<g id="a_node10"><a xlink:href="dir_6799a15b2a75f7240f888daacd198be8.html" target="_top" xlink:title="proc">
<polygon fill="#a2b4d6" stroke="#404040" points="163.5,-74.53 128.5,-74.53 128.5,-55.53 163.5,-55.53 163.5,-74.53"/>
<text text-anchor="middle" x="146" y="-62.53" font-family="Helvetica,sans-Serif" font-size="10.00">proc</text>
</a>
</g>
</g>
<!-- dir_6799a15b2a75f7240f888daacd198be8&#45;&gt;dir_d44c64559bbebec7f509842c48db8b23 -->
<g id="edge10" class="edge">
<title>dir_6799a15b2a75f7240f888daacd198be8&#45;&gt;dir_d44c64559bbebec7f509842c48db8b23</title>
<g id="a_edge10"><a xlink:href="dir_000059_000039.html" target="_top">
<path fill="none" stroke="#63b8ff" d="M153.14,-55.42C158.13,-50 165.27,-43.32 173,-39.53 213.41,-19.7 265.53,-13.5 299.35,-11.65"/>
<polygon fill="#63b8ff" stroke="#63b8ff" points="299.24,-15.12 309.08,-11.18 298.93,-8.13 299.24,-15.12"/>
</a>
</g>
<g id="a_edge10&#45;headlabel"><a xlink:href="dir_000059_000039.html" target="_top" xlink:title="9">
<text text-anchor="middle" x="296.78" y="-15.61" font-family="Helvetica,sans-Serif" font-size="10.00" fill="#63b8ff">9</text>
</a>
</g>
</g>
<!-- dir_4b0b675971e8b75ff33680b3a878a76d -->
<g id="node11" class="node">
<title>dir_4b0b675971e8b75ff33680b3a878a76d</title>
<g id="a_node11"><a xlink:href="dir_4b0b675971e8b75ff33680b3a878a76d.html" target="_top" xlink:title="sys">
<polygon fill="#a2b4d6" stroke="#404040" points="110,-74.53 78,-74.53 78,-55.53 110,-55.53 110,-74.53"/>
<text text-anchor="middle" x="94" y="-62.53" font-family="Helvetica,sans-Serif" font-size="10.00">sys</text>
</a>
</g>
</g>
<!-- dir_4b0b675971e8b75ff33680b3a878a76d&#45;&gt;dir_d44c64559bbebec7f509842c48db8b23 -->
<g id="edge11" class="edge">
<title>dir_4b0b675971e8b75ff33680b3a878a76d&#45;&gt;dir_d44c64559bbebec7f509842c48db8b23</title>
<g id="a_edge11"><a xlink:href="dir_000069_000039.html" target="_top">
<path fill="none" stroke="#63b8ff" d="M100.76,-55.31C105.52,-49.84 112.38,-43.15 120,-39.53 150.98,-24.79 247.09,-16.55 299.33,-13.06"/>
<polygon fill="#63b8ff" stroke="#63b8ff" points="299.33,-16.5 309.08,-12.37 298.88,-9.52 299.33,-16.5"/>
</a>
</g>
<g id="a_edge11&#45;headlabel"><a xlink:href="dir_000069_000039.html" target="_top" xlink:title="80">
<text text-anchor="middle" x="296.92" y="-17.07" font-family="Helvetica,sans-Serif" font-size="10.00" fill="#63b8ff">80</text>
</a>
</g>
</g>
<!-- dir_fc5cfe600d892ad1b812a54c244fb6ca -->
<g id="node12" class="node">
<title>dir_fc5cfe600d892ad1b812a54c244fb6ca</title>
<g id="a_node12"><a xlink:href="dir_fc5cfe600d892ad1b812a54c244fb6ca.html" target="_top" xlink:title="time">
<polygon fill="#a2b4d6" stroke="#404040" points="59.5,-74.53 24.5,-74.53 24.5,-55.53 59.5,-55.53 59.5,-74.53"/>
<text text-anchor="middle" x="42" y="-62.53" font-family="Helvetica,sans-Serif" font-size="10.00">time</text>
</a>
</g>
</g>
<!-- dir_fc5cfe600d892ad1b812a54c244fb6ca&#45;&gt;dir_d44c64559bbebec7f509842c48db8b23 -->
<g id="edge12" class="edge">
<title>dir_fc5cfe600d892ad1b812a54c244fb6ca&#45;&gt;dir_d44c64559bbebec7f509842c48db8b23</title>
<g id="a_edge12"><a xlink:href="dir_000073_000039.html" target="_top">
<path fill="none" stroke="#63b8ff" d="M49.06,-55.25C54.02,-49.75 61.15,-43.05 69,-39.53 109.34,-21.42 237.13,-14.46 299.32,-12.1"/>
<polygon fill="#63b8ff" stroke="#63b8ff" points="299.27,-15.57 309.14,-11.71 299.02,-8.57 299.27,-15.57"/>
</a>
</g>
<g id="a_edge12&#45;headlabel"><a xlink:href="dir_000073_000039.html" target="_top" xlink:title="8">
<text text-anchor="middle" x="296.78" y="-16.04" font-family="Helvetica,sans-Serif" font-size="10.00" fill="#63b8ff">8</text>
</a>
</g>
</g>
</g>
</svg>
