<?xml version="1.0" encoding="UTF-8" standalone="no"?>
<!DOCTYPE svg PUBLIC "-//W3C//DTD SVG 1.1//EN"
 "http://www.w3.org/Graphics/SVG/1.1/DTD/svg11.dtd">
<!-- Generated by graphviz version 2.49.3 (20211023.0002)
 -->
<!-- Title: src/kernel/arch/x86_64/fs Pages: 1 -->
<svg width="254pt" height="303pt"
 viewBox="0.00 0.00 254.00 303.00" xmlns="http://www.w3.org/2000/svg" xmlns:xlink="http://www.w3.org/1999/xlink">
<g id="graph0" class="graph" transform="scale(1 1) rotate(0) translate(4 299)">
<title>src/kernel/arch/x86_64/fs</title>
<g id="clust1" class="cluster">
<title>clusterdir_7c4c796ec9937bed8074dafcec3d25e4</title>
<g id="a_clust1"><a xlink:href="dir_7c4c796ec9937bed8074dafcec3d25e4.html" target="_top" xlink:title="x86_64">
<polygon fill="#ddddee" stroke="black" points="8,-64 8,-287 238,-287 238,-64 8,-64"/>
<text text-anchor="middle" x="123" y="-275" font-family="Helvetica,sans-Serif" font-size="10.00">x86_64</text>
</a>
</g>
</g>
<g id="clust2" class="cluster">
<title>clusterdir_9c24722037d5ac7f64b4abda7bbd8009</title>
<g id="a_clust2"><a xlink:href="dir_9c24722037d5ac7f64b4abda7bbd8009.html" target="_top">
<polygon fill="#eeeeff" stroke="black" points="16,-208 16,-260 230,-260 230,-208 16,-208"/>
</a>
</g>
</g>
<!-- dir_dfce509d3294b4958bedddff0a015025 -->
<g id="node1" class="node">
<title>dir_dfce509d3294b4958bedddff0a015025</title>
<g id="a_node1"><a xlink:href="dir_dfce509d3294b4958bedddff0a015025.html" target="_top" xlink:title="drivers">
<polygon fill="none" stroke="black" points="108,-180 54,-180 54,-144 108,-144 108,-180"/>
<text text-anchor="middle" x="81" y="-159.5" font-family="Helvetica,sans-Serif" font-size="10.00">drivers</text>
</a>
</g>
</g>
<!-- dir_3a646564ec239f35c01425f0e9da2ba2 -->
<g id="node2" class="node">
<title>dir_3a646564ec239f35c01425f0e9da2ba2</title>
<g id="a_node2"><a xlink:href="dir_3a646564ec239f35c01425f0e9da2ba2.html" target="_top" xlink:title="mmu">
<polygon fill="none" stroke="black" points="70,-108 16,-108 16,-72 70,-72 70,-108"/>
<text text-anchor="middle" x="43" y="-87.5" font-family="Helvetica,sans-Serif" font-size="10.00">mmu</text>
</a>
</g>
</g>
<!-- dir_dfce509d3294b4958bedddff0a015025&#45;&gt;dir_3a646564ec239f35c01425f0e9da2ba2 -->
<g id="edge1" class="edge">
<title>dir_dfce509d3294b4958bedddff0a015025&#45;&gt;dir_3a646564ec239f35c01425f0e9da2ba2</title>
<path fill="none" stroke="black" d="M71.61,-143.7C67.24,-135.64 61.94,-125.89 57.1,-116.98"/>
<polygon fill="black" stroke="black" points="60.13,-115.22 52.29,-108.1 53.98,-118.56 60.13,-115.22"/>
<g id="a_edge1&#45;headlabel"><a xlink:href="dir_000044_000036.html" target="_top" xlink:title="1">
<text text-anchor="middle" x="64.34" y="-114.53" font-family="Helvetica,sans-Serif" font-size="10.00">1</text>
</a>
</g>
</g>
<!-- dir_d44c64559bbebec7f509842c48db8b23 -->
<g id="node6" class="node">
<title>dir_d44c64559bbebec7f509842c48db8b23</title>
<g id="a_node6"><a xlink:href="dir_d44c64559bbebec7f509842c48db8b23.html" target="_top" xlink:title="include">
<polygon fill="none" stroke="red" points="144,-36 90,-36 90,0 144,0 144,-36"/>
<text text-anchor="middle" x="117" y="-15.5" font-family="Helvetica,sans-Serif" font-size="10.00">include</text>
</a>
</g>
</g>
<!-- dir_dfce509d3294b4958bedddff0a015025&#45;&gt;dir_d44c64559bbebec7f509842c48db8b23 -->
<g id="edge2" class="edge">
<title>dir_dfce509d3294b4958bedddff0a015025&#45;&gt;dir_d44c64559bbebec7f509842c48db8b23</title>
<path fill="none" stroke="black" d="M85.34,-143.87C91.5,-119.56 102.85,-74.82 110.15,-46.01"/>
<polygon fill="black" stroke="black" points="113.58,-46.74 112.64,-36.19 106.79,-45.02 113.58,-46.74"/>
<g id="a_edge2&#45;headlabel"><a xlink:href="dir_000044_000000.html" target="_top" xlink:title="7">
<text text-anchor="middle" x="115.45" y="-48.42" font-family="Helvetica,sans-Serif" font-size="10.00">7</text>
</a>
</g>
</g>
<!-- dir_3a646564ec239f35c01425f0e9da2ba2&#45;&gt;dir_d44c64559bbebec7f509842c48db8b23 -->
<g id="edge3" class="edge">
<title>dir_3a646564ec239f35c01425f0e9da2ba2&#45;&gt;dir_d44c64559bbebec7f509842c48db8b23</title>
<path fill="none" stroke="black" d="M61.29,-71.7C70.43,-63.05 81.64,-52.45 91.6,-43.03"/>
<polygon fill="black" stroke="black" points="94.06,-45.52 98.92,-36.1 89.25,-40.43 94.06,-45.52"/>
<g id="a_edge3&#45;headlabel"><a xlink:href="dir_000036_000000.html" target="_top" xlink:title="8">
<text text-anchor="middle" x="93.4" y="-47.55" font-family="Helvetica,sans-Serif" font-size="10.00">8</text>
</a>
</g>
</g>
<!-- dir_9c24722037d5ac7f64b4abda7bbd8009 -->
<g id="node3" class="node">
<title>dir_9c24722037d5ac7f64b4abda7bbd8009</title>
<text text-anchor="middle" x="195" y="-231.5" font-family="Helvetica,sans-Serif" font-size="10.00">fs</text>
</g>
<!-- dir_c5016f51ef7ea33491a800cac5f57ab8 -->
<g id="node4" class="node">
<title>dir_c5016f51ef7ea33491a800cac5f57ab8</title>
<g id="a_node4"><a xlink:href="dir_c5016f51ef7ea33491a800cac5f57ab8.html" target="_top" xlink:title="dev">
<polygon fill="white" stroke="black" points="150,-252 96,-252 96,-216 150,-216 150,-252"/>
<text text-anchor="middle" x="123" y="-231.5" font-family="Helvetica,sans-Serif" font-size="10.00">dev</text>
</a>
</g>
</g>
<!-- dir_c5016f51ef7ea33491a800cac5f57ab8&#45;&gt;dir_dfce509d3294b4958bedddff0a015025 -->
<g id="edge8" class="edge">
<title>dir_c5016f51ef7ea33491a800cac5f57ab8&#45;&gt;dir_dfce509d3294b4958bedddff0a015025</title>
<path fill="none" stroke="black" d="M112.62,-215.7C107.74,-207.56 101.81,-197.69 96.42,-188.7"/>
<polygon fill="black" stroke="black" points="99.41,-186.88 91.26,-180.1 93.41,-190.48 99.41,-186.88"/>
<g id="a_edge8&#45;headlabel"><a xlink:href="dir_000046_000044.html" target="_top" xlink:title="1">
<text text-anchor="middle" x="103.69" y="-186" font-family="Helvetica,sans-Serif" font-size="10.00">1</text>
</a>
</g>
</g>
<!-- dir_c5016f51ef7ea33491a800cac5f57ab8&#45;&gt;dir_d44c64559bbebec7f509842c48db8b23 -->
<g id="edge7" class="edge">
<title>dir_c5016f51ef7ea33491a800cac5f57ab8&#45;&gt;dir_d44c64559bbebec7f509842c48db8b23</title>
<path fill="none" stroke="black" d="M134.47,-215.67C140.37,-205.69 146.96,-192.65 150,-180 162.03,-129.87 166.04,-113 150,-64 147.77,-57.2 144.08,-50.57 139.96,-44.59"/>
<polygon fill="black" stroke="black" points="142.54,-42.2 133.72,-36.33 136.96,-46.42 142.54,-42.2"/>
<g id="a_edge7&#45;headlabel"><a xlink:href="dir_000046_000000.html" target="_top" xlink:title="4">
<text text-anchor="middle" x="146.97" y="-40.86" font-family="Helvetica,sans-Serif" font-size="10.00">4</text>
</a>
</g>
</g>
<!-- dir_ca65bd5df30703bd21db9b8dced53388 -->
<g id="node5" class="node">
<title>dir_ca65bd5df30703bd21db9b8dced53388</title>
<g id="a_node5"><a xlink:href="dir_ca65bd5df30703bd21db9b8dced53388.html" target="_top" xlink:title="proc">
<polygon fill="white" stroke="black" points="78,-252 24,-252 24,-216 78,-216 78,-252"/>
<text text-anchor="middle" x="51" y="-231.5" font-family="Helvetica,sans-Serif" font-size="10.00">proc</text>
</a>
</g>
</g>
<!-- dir_ca65bd5df30703bd21db9b8dced53388&#45;&gt;dir_dfce509d3294b4958bedddff0a015025 -->
<g id="edge6" class="edge">
<title>dir_ca65bd5df30703bd21db9b8dced53388&#45;&gt;dir_dfce509d3294b4958bedddff0a015025</title>
<path fill="none" stroke="black" d="M58.42,-215.7C61.79,-207.81 65.87,-198.3 69.62,-189.55"/>
<polygon fill="black" stroke="black" points="72.95,-190.67 73.67,-180.1 66.51,-187.92 72.95,-190.67"/>
<g id="a_edge6&#45;headlabel"><a xlink:href="dir_000047_000044.html" target="_top" xlink:title="1">
<text text-anchor="middle" x="74.14" y="-192.6" font-family="Helvetica,sans-Serif" font-size="10.00">1</text>
</a>
</g>
</g>
<!-- dir_ca65bd5df30703bd21db9b8dced53388&#45;&gt;dir_3a646564ec239f35c01425f0e9da2ba2 -->
<g id="edge4" class="edge">
<title>dir_ca65bd5df30703bd21db9b8dced53388&#45;&gt;dir_3a646564ec239f35c01425f0e9da2ba2</title>
<path fill="none" stroke="black" d="M48.66,-215.85C47.35,-205.49 45.81,-192.01 45,-180 43.6,-159.31 43.12,-135.87 42.98,-118.23"/>
<polygon fill="black" stroke="black" points="46.48,-118.07 42.93,-108.08 39.48,-118.1 46.48,-118.07"/>
<g id="a_edge4&#45;headlabel"><a xlink:href="dir_000047_000036.html" target="_top" xlink:title="1">
<text text-anchor="middle" x="49.33" y="-119.15" font-family="Helvetica,sans-Serif" font-size="10.00">1</text>
</a>
</g>
</g>
<!-- dir_ca65bd5df30703bd21db9b8dced53388&#45;&gt;dir_d44c64559bbebec7f509842c48db8b23 -->
<g id="edge5" class="edge">
<title>dir_ca65bd5df30703bd21db9b8dced53388&#45;&gt;dir_d44c64559bbebec7f509842c48db8b23</title>
<path fill="none" stroke="black" d="M75.2,-215.72C95.25,-201.29 120.67,-182.65 122,-180 143.49,-137.14 133.95,-79.48 125.31,-46.06"/>
<polygon fill="black" stroke="black" points="128.6,-44.83 122.57,-36.11 121.85,-46.68 128.6,-44.83"/>
<g id="a_edge5&#45;headlabel"><a xlink:href="dir_000047_000000.html" target="_top" xlink:title="6">
<text text-anchor="middle" x="132.29" y="-45.04" font-family="Helvetica,sans-Serif" font-size="10.00">6</text>
</a>
</g>
</g>
</g>
</svg>
