<?xml version="1.0" encoding="UTF-8" standalone="no"?>
<!DOCTYPE svg PUBLIC "-//W3C//DTD SVG 1.1//EN"
 "http://www.w3.org/Graphics/SVG/1.1/DTD/svg11.dtd">
<!-- Generated by graphviz version 2.50.0 (20211204.2007)
 -->
<!-- Title: src/kernel Pages: 1 -->
<svg width="902pt" height="159pt"
 viewBox="0.00 0.00 902.00 159.00" xmlns="http://www.w3.org/2000/svg" xmlns:xlink="http://www.w3.org/1999/xlink">
<g id="graph0" class="graph" transform="scale(1 1) rotate(0) translate(4 155)">
<title>src/kernel</title>
<g id="clust1" class="cluster">
<title>clusterdir_68267d1309a1af8e8297ef4c3efbcdba</title>
<g id="a_clust1"><a xlink:href="dir_68267d1309a1af8e8297ef4c3efbcdba.html" target="_top" xlink:title="src">
<polygon fill="#edf0f7" stroke="#404040" stroke-dasharray="5,2" points="8,-56 8,-143 886,-143 886,-56 8,-56"/>
<text text-anchor="middle" x="447" y="-131" font-family="Helvetica,sans-Serif" font-size="10.00">src</text>
</a>
</g>
</g>
<g id="clust2" class="cluster">
<title>clusterdir_cbd7f246bdf7dc0a50281a272327e6ed</title>
<g id="a_clust2"><a xlink:href="dir_cbd7f246bdf7dc0a50281a272327e6ed.html" target="_top">
<polygon fill="#edf0f7" stroke="#404040" stroke-width="2" points="16,-64 16,-116 878,-116 878,-64 16,-64"/>
</a>
</g>
</g>
<!-- dir_cbd7f246bdf7dc0a50281a272327e6ed -->
<g id="node1" class="node">
<title>dir_cbd7f246bdf7dc0a50281a272327e6ed</title>
<text text-anchor="middle" x="843" y="-87.5" font-family="Helvetica,sans-Serif" font-size="10.00">kernel</text>
</g>
<!-- dir_d44c64559bbebec7f509842c48db8b23 -->
<g id="node13" class="node">
<title>dir_d44c64559bbebec7f509842c48db8b23</title>
<g id="a_node13"><a xlink:href="dir_d44c64559bbebec7f509842c48db8b23.html" target="_top" xlink:title="include">
<polygon fill="none" stroke="red" points="474,-36 420,-36 420,0 474,0 474,-36"/>
<text text-anchor="middle" x="447" y="-15.5" font-family="Helvetica,sans-Serif" font-size="10.00">include</text>
</a>
</g>
</g>
<!-- dir_cbd7f246bdf7dc0a50281a272327e6ed&#45;&gt;dir_d44c64559bbebec7f509842c48db8b23 -->
<g id="edge1" class="edge">
<title>dir_cbd7f246bdf7dc0a50281a272327e6ed&#45;&gt;dir_d44c64559bbebec7f509842c48db8b23</title>
<path fill="none" stroke="black" d="M828.5,-71.74C822.49,-65.74 815.04,-59.61 807,-56 750.02,-30.41 564.4,-22.25 484.33,-19.88"/>
<polygon fill="black" stroke="black" points="484.29,-16.38 474.2,-19.6 484.1,-23.38 484.29,-16.38"/>
<g id="a_edge1&#45;headlabel"><a xlink:href="dir_000045_000042.html" target="_top" xlink:title="484">
<text text-anchor="middle" x="487.97" y="-11.14" font-family="Helvetica,sans-Serif" font-size="10.00">484</text>
</a>
</g>
</g>
<!-- dir_76e3dd4d2fa719e8d3b096e9aa563982 -->
<g id="node2" class="node">
<title>dir_76e3dd4d2fa719e8d3b096e9aa563982</title>
<g id="a_node2"><a xlink:href="dir_76e3dd4d2fa719e8d3b096e9aa563982.html" target="_top" xlink:title="arch">
<polygon fill="#a2b4d6" stroke="#404040" points="798,-108 744,-108 744,-72 798,-72 798,-108"/>
<text text-anchor="middle" x="771" y="-87.5" font-family="Helvetica,sans-Serif" font-size="10.00">arch</text>
</a>
</g>
</g>
<!-- dir_76e3dd4d2fa719e8d3b096e9aa563982&#45;&gt;dir_d44c64559bbebec7f509842c48db8b23 -->
<g id="edge2" class="edge">
<title>dir_76e3dd4d2fa719e8d3b096e9aa563982&#45;&gt;dir_d44c64559bbebec7f509842c48db8b23</title>
<path fill="none" stroke="black" d="M756.45,-71.84C750.44,-65.86 743,-59.71 735,-56 691.28,-35.69 552.12,-25.07 484.54,-21.01"/>
<polygon fill="black" stroke="black" points="484.53,-17.5 474.34,-20.41 484.12,-24.49 484.53,-17.5"/>
<g id="a_edge2&#45;headlabel"><a xlink:href="dir_000003_000042.html" target="_top" xlink:title="175">
<text text-anchor="middle" x="488.28" y="-12.37" font-family="Helvetica,sans-Serif" font-size="10.00">175</text>
</a>
</g>
</g>
<!-- dir_91ac63a6f1fcde128d29d4ab1613b3c5 -->
<g id="node3" class="node">
<title>dir_91ac63a6f1fcde128d29d4ab1613b3c5</title>
<g id="a_node3"><a xlink:href="dir_91ac63a6f1fcde128d29d4ab1613b3c5.html" target="_top" xlink:title="config">
<polygon fill="#a2b4d6" stroke="#404040" points="726,-108 672,-108 672,-72 726,-72 726,-108"/>
<text text-anchor="middle" x="699" y="-87.5" font-family="Helvetica,sans-Serif" font-size="10.00">config</text>
</a>
</g>
</g>
<!-- dir_91ac63a6f1fcde128d29d4ab1613b3c5&#45;&gt;dir_d44c64559bbebec7f509842c48db8b23 -->
<g id="edge3" class="edge">
<title>dir_91ac63a6f1fcde128d29d4ab1613b3c5&#45;&gt;dir_d44c64559bbebec7f509842c48db8b23</title>
<path fill="none" stroke="black" d="M684.02,-71.67C678.06,-65.82 670.77,-59.81 663,-56 604.97,-27.55 528.84,-20.57 484.18,-19.09"/>
<polygon fill="black" stroke="black" points="484.16,-15.58 474.08,-18.83 483.98,-22.58 484.16,-15.58"/>
<g id="a_edge3&#45;headlabel"><a xlink:href="dir_000022_000042.html" target="_top" xlink:title="7">
<text text-anchor="middle" x="487.83" y="-10.34" font-family="Helvetica,sans-Serif" font-size="10.00">7</text>
</a>
</g>
</g>
<!-- dir_bec13d53859e967dc83fcb104ab0b9fd -->
<g id="node4" class="node">
<title>dir_bec13d53859e967dc83fcb104ab0b9fd</title>
<g id="a_node4"><a xlink:href="dir_bec13d53859e967dc83fcb104ab0b9fd.html" target="_top" xlink:title="core">
<polygon fill="#a2b4d6" stroke="#404040" points="654,-108 600,-108 600,-72 654,-72 654,-108"/>
<text text-anchor="middle" x="627" y="-87.5" font-family="Helvetica,sans-Serif" font-size="10.00">core</text>
</a>
</g>
</g>
<!-- dir_bec13d53859e967dc83fcb104ab0b9fd&#45;&gt;dir_d44c64559bbebec7f509842c48db8b23 -->
<g id="edge4" class="edge">
<title>dir_bec13d53859e967dc83fcb104ab0b9fd&#45;&gt;dir_d44c64559bbebec7f509842c48db8b23</title>
<path fill="none" stroke="black" d="M611.49,-71.67C605.58,-65.96 598.45,-60.04 591,-56 557.4,-37.79 514.51,-28.27 484.3,-23.47"/>
<polygon fill="black" stroke="black" points="484.59,-19.98 474.18,-21.97 483.56,-26.9 484.59,-19.98"/>
<g id="a_edge4&#45;headlabel"><a xlink:href="dir_000030_000042.html" target="_top" xlink:title="8">
<text text-anchor="middle" x="488.56" y="-15.2" font-family="Helvetica,sans-Serif" font-size="10.00">8</text>
</a>
</g>
</g>
<!-- dir_aee9ab6fedb00380c94a3a6c6b09f99a -->
<g id="node5" class="node">
<title>dir_aee9ab6fedb00380c94a3a6c6b09f99a</title>
<g id="a_node5"><a xlink:href="dir_aee9ab6fedb00380c94a3a6c6b09f99a.html" target="_top" xlink:title="drivers">
<polygon fill="#a2b4d6" stroke="#404040" points="582,-108 528,-108 528,-72 582,-72 582,-108"/>
<text text-anchor="middle" x="555" y="-87.5" font-family="Helvetica,sans-Serif" font-size="10.00">drivers</text>
</a>
</g>
</g>
<!-- dir_aee9ab6fedb00380c94a3a6c6b09f99a&#45;&gt;dir_d44c64559bbebec7f509842c48db8b23 -->
<g id="edge5" class="edge">
<title>dir_aee9ab6fedb00380c94a3a6c6b09f99a&#45;&gt;dir_d44c64559bbebec7f509842c48db8b23</title>
<path fill="none" stroke="black" d="M538.22,-71.89C532.41,-66.46 525.68,-60.65 519,-56 507.99,-48.33 495.18,-41.24 483.44,-35.35"/>
<polygon fill="black" stroke="black" points="484.83,-32.14 474.31,-30.91 481.77,-38.43 484.83,-32.14"/>
<g id="a_edge5&#45;headlabel"><a xlink:href="dir_000037_000042.html" target="_top" xlink:title="4">
<text text-anchor="middle" x="489.31" y="-28.66" font-family="Helvetica,sans-Serif" font-size="10.00">4</text>
</a>
</g>
</g>
<!-- dir_f848a285e60993dcb3189737897d2857 -->
<g id="node6" class="node">
<title>dir_f848a285e60993dcb3189737897d2857</title>
<g id="a_node6"><a xlink:href="dir_f848a285e60993dcb3189737897d2857.html" target="_top" xlink:title="fs">
<polygon fill="#a2b4d6" stroke="#404040" points="510,-108 456,-108 456,-72 510,-72 510,-108"/>
<text text-anchor="middle" x="483" y="-87.5" font-family="Helvetica,sans-Serif" font-size="10.00">fs</text>
</a>
</g>
</g>
<!-- dir_f848a285e60993dcb3189737897d2857&#45;&gt;dir_d44c64559bbebec7f509842c48db8b23 -->
<g id="edge6" class="edge">
<title>dir_f848a285e60993dcb3189737897d2857&#45;&gt;dir_d44c64559bbebec7f509842c48db8b23</title>
<path fill="none" stroke="black" d="M474.1,-71.7C470,-63.73 465.05,-54.1 460.51,-45.26"/>
<polygon fill="black" stroke="black" points="463.48,-43.4 455.8,-36.1 457.26,-46.6 463.48,-43.4"/>
<g id="a_edge6&#45;headlabel"><a xlink:href="dir_000040_000042.html" target="_top" xlink:title="49">
<text text-anchor="middle" x="467.65" y="-42.79" font-family="Helvetica,sans-Serif" font-size="10.00">49</text>
</a>
</g>
</g>
<!-- dir_cb0724ac90fd85e97a72e956b33dc284 -->
<g id="node7" class="node">
<title>dir_cb0724ac90fd85e97a72e956b33dc284</title>
<g id="a_node7"><a xlink:href="dir_cb0724ac90fd85e97a72e956b33dc284.html" target="_top" xlink:title="kshell">
<polygon fill="#a2b4d6" stroke="#404040" points="438,-108 384,-108 384,-72 438,-72 438,-108"/>
<text text-anchor="middle" x="411" y="-87.5" font-family="Helvetica,sans-Serif" font-size="10.00">kshell</text>
</a>
</g>
</g>
<!-- dir_cb0724ac90fd85e97a72e956b33dc284&#45;&gt;dir_d44c64559bbebec7f509842c48db8b23 -->
<g id="edge7" class="edge">
<title>dir_cb0724ac90fd85e97a72e956b33dc284&#45;&gt;dir_d44c64559bbebec7f509842c48db8b23</title>
<path fill="none" stroke="black" d="M419.9,-71.7C424,-63.73 428.95,-54.1 433.49,-45.26"/>
<polygon fill="black" stroke="black" points="436.74,-46.6 438.2,-36.1 430.52,-43.4 436.74,-46.6"/>
<g id="a_edge7&#45;headlabel"><a xlink:href="dir_000047_000042.html" target="_top" xlink:title="58">
<text text-anchor="middle" x="437.62" y="-48.59" font-family="Helvetica,sans-Serif" font-size="10.00">58</text>
</a>
</g>
</g>
<!-- dir_29d7bd500ea2760b0490c582bc5917ca -->
<g id="node8" class="node">
<title>dir_29d7bd500ea2760b0490c582bc5917ca</title>
<g id="a_node8"><a xlink:href="dir_29d7bd500ea2760b0490c582bc5917ca.html" target="_top" xlink:title="mmu">
<polygon fill="#a2b4d6" stroke="#404040" points="366,-108 312,-108 312,-72 366,-72 366,-108"/>
<text text-anchor="middle" x="339" y="-87.5" font-family="Helvetica,sans-Serif" font-size="10.00">mmu</text>
</a>
</g>
</g>
<!-- dir_29d7bd500ea2760b0490c582bc5917ca&#45;&gt;dir_d44c64559bbebec7f509842c48db8b23 -->
<g id="edge8" class="edge">
<title>dir_29d7bd500ea2760b0490c582bc5917ca&#45;&gt;dir_d44c64559bbebec7f509842c48db8b23</title>
<path fill="none" stroke="black" d="M355.78,-71.89C361.59,-66.46 368.32,-60.65 375,-56 386.01,-48.33 398.82,-41.24 410.56,-35.35"/>
<polygon fill="black" stroke="black" points="412.23,-38.43 419.69,-30.91 409.17,-32.14 412.23,-38.43"/>
<g id="a_edge8&#45;headlabel"><a xlink:href="dir_000056_000042.html" target="_top" xlink:title="1">
<text text-anchor="middle" x="410.24" y="-40.06" font-family="Helvetica,sans-Serif" font-size="10.00">1</text>
</a>
</g>
</g>
<!-- dir_7d5a55bffd9f0b5a19cf98f012f1d84d -->
<g id="node9" class="node">
<title>dir_7d5a55bffd9f0b5a19cf98f012f1d84d</title>
<g id="a_node9"><a xlink:href="dir_7d5a55bffd9f0b5a19cf98f012f1d84d.html" target="_top" xlink:title="net">
<polygon fill="#a2b4d6" stroke="#404040" points="294,-108 240,-108 240,-72 294,-72 294,-108"/>
<text text-anchor="middle" x="267" y="-87.5" font-family="Helvetica,sans-Serif" font-size="10.00">net</text>
</a>
</g>
</g>
<!-- dir_7d5a55bffd9f0b5a19cf98f012f1d84d&#45;&gt;dir_d44c64559bbebec7f509842c48db8b23 -->
<g id="edge9" class="edge">
<title>dir_7d5a55bffd9f0b5a19cf98f012f1d84d&#45;&gt;dir_d44c64559bbebec7f509842c48db8b23</title>
<path fill="none" stroke="black" d="M282.51,-71.67C288.42,-65.96 295.55,-60.04 303,-56 336.6,-37.79 379.49,-28.27 409.7,-23.47"/>
<polygon fill="black" stroke="black" points="410.44,-26.9 419.82,-21.97 409.41,-19.98 410.44,-26.9"/>
<g id="a_edge9&#45;headlabel"><a xlink:href="dir_000058_000042.html" target="_top" xlink:title="60">
<text text-anchor="middle" x="407.3" y="-27.74" font-family="Helvetica,sans-Serif" font-size="10.00">60</text>
</a>
</g>
</g>
<!-- dir_6799a15b2a75f7240f888daacd198be8 -->
<g id="node10" class="node">
<title>dir_6799a15b2a75f7240f888daacd198be8</title>
<g id="a_node10"><a xlink:href="dir_6799a15b2a75f7240f888daacd198be8.html" target="_top" xlink:title="proc">
<polygon fill="#a2b4d6" stroke="#404040" points="222,-108 168,-108 168,-72 222,-72 222,-108"/>
<text text-anchor="middle" x="195" y="-87.5" font-family="Helvetica,sans-Serif" font-size="10.00">proc</text>
</a>
</g>
</g>
<!-- dir_6799a15b2a75f7240f888daacd198be8&#45;&gt;dir_d44c64559bbebec7f509842c48db8b23 -->
<g id="edge10" class="edge">
<title>dir_6799a15b2a75f7240f888daacd198be8&#45;&gt;dir_d44c64559bbebec7f509842c48db8b23</title>
<path fill="none" stroke="black" d="M209.98,-71.67C215.94,-65.82 223.23,-59.81 231,-56 289.03,-27.55 365.16,-20.57 409.82,-19.09"/>
<polygon fill="black" stroke="black" points="410.02,-22.58 419.92,-18.83 409.84,-15.58 410.02,-22.58"/>
<g id="a_edge10&#45;headlabel"><a xlink:href="dir_000063_000042.html" target="_top" xlink:title="9">
<text text-anchor="middle" x="406.5" y="-23.01" font-family="Helvetica,sans-Serif" font-size="10.00">9</text>
</a>
</g>
</g>
<!-- dir_4b0b675971e8b75ff33680b3a878a76d -->
<g id="node11" class="node">
<title>dir_4b0b675971e8b75ff33680b3a878a76d</title>
<g id="a_node11"><a xlink:href="dir_4b0b675971e8b75ff33680b3a878a76d.html" target="_top" xlink:title="sys">
<polygon fill="#a2b4d6" stroke="#404040" points="150,-108 96,-108 96,-72 150,-72 150,-108"/>
<text text-anchor="middle" x="123" y="-87.5" font-family="Helvetica,sans-Serif" font-size="10.00">sys</text>
</a>
</g>
</g>
<!-- dir_4b0b675971e8b75ff33680b3a878a76d&#45;&gt;dir_d44c64559bbebec7f509842c48db8b23 -->
<g id="edge11" class="edge">
<title>dir_4b0b675971e8b75ff33680b3a878a76d&#45;&gt;dir_d44c64559bbebec7f509842c48db8b23</title>
<path fill="none" stroke="black" d="M137.55,-71.84C143.56,-65.86 151,-59.71 159,-56 202.72,-35.69 341.88,-25.07 409.46,-21.01"/>
<polygon fill="black" stroke="black" points="409.88,-24.49 419.66,-20.41 409.47,-17.5 409.88,-24.49"/>
<g id="a_edge11&#45;headlabel"><a xlink:href="dir_000073_000042.html" target="_top" xlink:title="80">
<text text-anchor="middle" x="406.46" y="-25.03" font-family="Helvetica,sans-Serif" font-size="10.00">80</text>
</a>
</g>
</g>
<!-- dir_fc5cfe600d892ad1b812a54c244fb6ca -->
<g id="node12" class="node">
<title>dir_fc5cfe600d892ad1b812a54c244fb6ca</title>
<g id="a_node12"><a xlink:href="dir_fc5cfe600d892ad1b812a54c244fb6ca.html" target="_top" xlink:title="time">
<polygon fill="#a2b4d6" stroke="#404040" points="78,-108 24,-108 24,-72 78,-72 78,-108"/>
<text text-anchor="middle" x="51" y="-87.5" font-family="Helvetica,sans-Serif" font-size="10.00">time</text>
</a>
</g>
</g>
<!-- dir_fc5cfe600d892ad1b812a54c244fb6ca&#45;&gt;dir_d44c64559bbebec7f509842c48db8b23 -->
<g id="edge12" class="edge">
<title>dir_fc5cfe600d892ad1b812a54c244fb6ca&#45;&gt;dir_d44c64559bbebec7f509842c48db8b23</title>
<path fill="none" stroke="black" d="M65.5,-71.74C71.51,-65.74 78.96,-59.61 87,-56 143.98,-30.41 329.6,-22.25 409.67,-19.88"/>
<polygon fill="black" stroke="black" points="409.9,-23.38 419.8,-19.6 409.71,-16.38 409.9,-23.38"/>
<g id="a_edge12&#45;headlabel"><a xlink:href="dir_000077_000042.html" target="_top" xlink:title="8">
<text text-anchor="middle" x="406.39" y="-23.82" font-family="Helvetica,sans-Serif" font-size="10.00">8</text>
</a>
</g>
</g>
</g>
</svg>
