<?xml version="1.0" encoding="UTF-8" standalone="no"?>
<!DOCTYPE svg PUBLIC "-//W3C//DTD SVG 1.1//EN"
 "http://www.w3.org/Graphics/SVG/1.1/DTD/svg11.dtd">
<!-- Generated by graphviz version 2.49.3 (20211023.0002)
 -->
<!-- Title: src/userland Pages: 1 -->
<svg width="990pt" height="159pt"
 viewBox="0.00 0.00 990.00 159.00" xmlns="http://www.w3.org/2000/svg" xmlns:xlink="http://www.w3.org/1999/xlink">
<g id="graph0" class="graph" transform="scale(1 1) rotate(0) translate(4 155)">
<title>src/userland</title>
<g id="clust1" class="cluster">
<title>clusterdir_68267d1309a1af8e8297ef4c3efbcdba</title>
<g id="a_clust1"><a xlink:href="dir_68267d1309a1af8e8297ef4c3efbcdba.html" target="_top" xlink:title="src">
<polygon fill="#ddddee" stroke="black" points="8,-56 8,-143 974,-143 974,-56 8,-56"/>
<text text-anchor="middle" x="491" y="-131" font-family="Helvetica,sans-Serif" font-size="10.00">src</text>
</a>
</g>
</g>
<g id="clust2" class="cluster">
<title>clusterdir_173c9e88aa581eef1e30c63858f75f59</title>
<g id="a_clust2"><a xlink:href="dir_173c9e88aa581eef1e30c63858f75f59.html" target="_top">
<polygon fill="#eeeeff" stroke="black" points="16,-64 16,-116 966,-116 966,-64 16,-64"/>
</a>
</g>
</g>
<!-- dir_173c9e88aa581eef1e30c63858f75f59 -->
<g id="node1" class="node">
<title>dir_173c9e88aa581eef1e30c63858f75f59</title>
<text text-anchor="middle" x="930" y="-87.5" font-family="Helvetica,sans-Serif" font-size="10.00">userland</text>
</g>
<!-- dir_ff40e54e40c9569df6fbe33f6c8a1bc1 -->
<g id="node2" class="node">
<title>dir_ff40e54e40c9569df6fbe33f6c8a1bc1</title>
<g id="a_node2"><a xlink:href="dir_ff40e54e40c9569df6fbe33f6c8a1bc1.html" target="_top" xlink:title="cal">
<polygon fill="white" stroke="black" points="884,-108 830,-108 830,-72 884,-72 884,-108"/>
<text text-anchor="middle" x="857" y="-87.5" font-family="Helvetica,sans-Serif" font-size="10.00">cal</text>
</a>
</g>
</g>
<!-- dir_d44c64559bbebec7f509842c48db8b23 -->
<g id="node14" class="node">
<title>dir_d44c64559bbebec7f509842c48db8b23</title>
<g id="a_node14"><a xlink:href="dir_d44c64559bbebec7f509842c48db8b23.html" target="_top" xlink:title="include">
<polygon fill="none" stroke="red" points="518,-36 464,-36 464,0 518,0 518,-36"/>
<text text-anchor="middle" x="491" y="-15.5" font-family="Helvetica,sans-Serif" font-size="10.00">include</text>
</a>
</g>
</g>
<!-- dir_ff40e54e40c9569df6fbe33f6c8a1bc1&#45;&gt;dir_d44c64559bbebec7f509842c48db8b23 -->
<g id="edge8" class="edge">
<title>dir_ff40e54e40c9569df6fbe33f6c8a1bc1&#45;&gt;dir_d44c64559bbebec7f509842c48db8b23</title>
<path fill="none" stroke="black" d="M842.49,-71.77C836.47,-65.78 829.03,-59.65 821,-56 769.61,-32.63 603.68,-23.36 528.56,-20.3"/>
<polygon fill="black" stroke="black" points="528.29,-16.78 518.16,-19.89 528.02,-23.78 528.29,-16.78"/>
<g id="a_edge8&#45;headlabel"><a xlink:href="dir_000069_000000.html" target="_top" xlink:title="4">
<text text-anchor="middle" x="532" y="-11.59" font-family="Helvetica,sans-Serif" font-size="10.00">4</text>
</a>
</g>
</g>
<!-- dir_e1e6baff1b46d4bfd06d3776fb6d7587 -->
<g id="node3" class="node">
<title>dir_e1e6baff1b46d4bfd06d3776fb6d7587</title>
<g id="a_node3"><a xlink:href="dir_e1e6baff1b46d4bfd06d3776fb6d7587.html" target="_top" xlink:title="cat">
<polygon fill="white" stroke="black" points="812,-108 758,-108 758,-72 812,-72 812,-108"/>
<text text-anchor="middle" x="785" y="-87.5" font-family="Helvetica,sans-Serif" font-size="10.00">cat</text>
</a>
</g>
</g>
<!-- dir_e1e6baff1b46d4bfd06d3776fb6d7587&#45;&gt;dir_d44c64559bbebec7f509842c48db8b23 -->
<g id="edge11" class="edge">
<title>dir_e1e6baff1b46d4bfd06d3776fb6d7587&#45;&gt;dir_d44c64559bbebec7f509842c48db8b23</title>
<path fill="none" stroke="black" d="M770.43,-71.9C764.41,-65.93 756.97,-59.77 749,-56 710.63,-37.83 589.89,-26.42 528.15,-21.62"/>
<polygon fill="black" stroke="black" points="528.29,-18.12 518.06,-20.85 527.76,-25.1 528.29,-18.12"/>
<g id="a_edge11&#45;headlabel"><a xlink:href="dir_000070_000000.html" target="_top" xlink:title="5">
<text text-anchor="middle" x="532.09" y="-13.06" font-family="Helvetica,sans-Serif" font-size="10.00">5</text>
</a>
</g>
</g>
<!-- dir_6b10eb6658bb42cff98abf7e4e75291f -->
<g id="node4" class="node">
<title>dir_6b10eb6658bb42cff98abf7e4e75291f</title>
<g id="a_node4"><a xlink:href="dir_6b10eb6658bb42cff98abf7e4e75291f.html" target="_top" xlink:title="clear">
<polygon fill="white" stroke="black" points="740,-108 686,-108 686,-72 740,-72 740,-108"/>
<text text-anchor="middle" x="713" y="-87.5" font-family="Helvetica,sans-Serif" font-size="10.00">clear</text>
</a>
</g>
</g>
<!-- dir_6b10eb6658bb42cff98abf7e4e75291f&#45;&gt;dir_d44c64559bbebec7f509842c48db8b23 -->
<g id="edge2" class="edge">
<title>dir_6b10eb6658bb42cff98abf7e4e75291f&#45;&gt;dir_d44c64559bbebec7f509842c48db8b23</title>
<path fill="none" stroke="black" d="M697.97,-71.79C692,-65.94 684.71,-59.91 677,-56 629.35,-31.85 567.39,-23.45 528.4,-20.53"/>
<polygon fill="black" stroke="black" points="528.25,-17.02 518.04,-19.85 527.79,-24 528.25,-17.02"/>
<g id="a_edge2&#45;headlabel"><a xlink:href="dir_000071_000000.html" target="_top" xlink:title="1">
<text text-anchor="middle" x="532.02" y="-11.92" font-family="Helvetica,sans-Serif" font-size="10.00">1</text>
</a>
</g>
</g>
<!-- dir_7958b23ead370ae23f6a05235dd92599 -->
<g id="node5" class="node">
<title>dir_7958b23ead370ae23f6a05235dd92599</title>
<g id="a_node5"><a xlink:href="dir_7958b23ead370ae23f6a05235dd92599.html" target="_top" xlink:title="date">
<polygon fill="white" stroke="black" points="668,-108 614,-108 614,-72 668,-72 668,-108"/>
<text text-anchor="middle" x="641" y="-87.5" font-family="Helvetica,sans-Serif" font-size="10.00">date</text>
</a>
</g>
</g>
<!-- dir_7958b23ead370ae23f6a05235dd92599&#45;&gt;dir_d44c64559bbebec7f509842c48db8b23 -->
<g id="edge4" class="edge">
<title>dir_7958b23ead370ae23f6a05235dd92599&#45;&gt;dir_d44c64559bbebec7f509842c48db8b23</title>
<path fill="none" stroke="black" d="M625.35,-71.93C619.42,-66.24 612.32,-60.27 605,-56 581.04,-42.03 551.13,-32.58 527.96,-26.73"/>
<polygon fill="black" stroke="black" points="528.7,-23.3 518.16,-24.36 527.06,-30.11 528.7,-23.3"/>
<g id="a_edge4&#45;headlabel"><a xlink:href="dir_000072_000000.html" target="_top" xlink:title="2">
<text text-anchor="middle" x="532.86" y="-18.89" font-family="Helvetica,sans-Serif" font-size="10.00">2</text>
</a>
</g>
</g>
<!-- dir_eb43e55597aac8a9b4d196d33ee8e0dc -->
<g id="node6" class="node">
<title>dir_eb43e55597aac8a9b4d196d33ee8e0dc</title>
<g id="a_node6"><a xlink:href="dir_eb43e55597aac8a9b4d196d33ee8e0dc.html" target="_top" xlink:title="hostname">
<polygon fill="white" stroke="black" points="596,-108 536,-108 536,-72 596,-72 596,-108"/>
<text text-anchor="middle" x="566" y="-87.5" font-family="Helvetica,sans-Serif" font-size="10.00">hostname</text>
</a>
</g>
</g>
<!-- dir_eb43e55597aac8a9b4d196d33ee8e0dc&#45;&gt;dir_d44c64559bbebec7f509842c48db8b23 -->
<g id="edge5" class="edge">
<title>dir_eb43e55597aac8a9b4d196d33ee8e0dc&#45;&gt;dir_d44c64559bbebec7f509842c48db8b23</title>
<path fill="none" stroke="black" d="M547.46,-71.7C538.2,-63.05 526.84,-52.45 516.74,-43.03"/>
<polygon fill="black" stroke="black" points="519.02,-40.37 509.33,-36.1 514.25,-45.49 519.02,-40.37"/>
<g id="a_edge5&#45;headlabel"><a xlink:href="dir_000073_000000.html" target="_top" xlink:title="5">
<text text-anchor="middle" x="523.59" y="-38.25" font-family="Helvetica,sans-Serif" font-size="10.00">5</text>
</a>
</g>
</g>
<!-- dir_c3d47065b72cafd3fddb954266dfcaab -->
<g id="node7" class="node">
<title>dir_c3d47065b72cafd3fddb954266dfcaab</title>
<g id="a_node7"><a xlink:href="dir_c3d47065b72cafd3fddb954266dfcaab.html" target="_top" xlink:title="init">
<polygon fill="white" stroke="black" points="518,-108 464,-108 464,-72 518,-72 518,-108"/>
<text text-anchor="middle" x="491" y="-87.5" font-family="Helvetica,sans-Serif" font-size="10.00">init</text>
</a>
</g>
</g>
<!-- dir_c3d47065b72cafd3fddb954266dfcaab&#45;&gt;dir_d44c64559bbebec7f509842c48db8b23 -->
<g id="edge10" class="edge">
<title>dir_c3d47065b72cafd3fddb954266dfcaab&#45;&gt;dir_d44c64559bbebec7f509842c48db8b23</title>
<path fill="none" stroke="black" d="M491,-71.7C491,-63.98 491,-54.71 491,-46.11"/>
<polygon fill="black" stroke="black" points="494.5,-46.1 491,-36.1 487.5,-46.1 494.5,-46.1"/>
<g id="a_edge10&#45;headlabel"><a xlink:href="dir_000031_000000.html" target="_top" xlink:title="3">
<text text-anchor="middle" x="497.34" y="-47.2" font-family="Helvetica,sans-Serif" font-size="10.00">3</text>
</a>
</g>
</g>
<!-- dir_ea273b443b966abbebf68ac90005349e -->
<g id="node8" class="node">
<title>dir_ea273b443b966abbebf68ac90005349e</title>
<g id="a_node8"><a xlink:href="dir_ea273b443b966abbebf68ac90005349e.html" target="_top" xlink:title="meminfo">
<polygon fill="white" stroke="black" points="445.5,-108 390.5,-108 390.5,-72 445.5,-72 445.5,-108"/>
<text text-anchor="middle" x="418" y="-87.5" font-family="Helvetica,sans-Serif" font-size="10.00">meminfo</text>
</a>
</g>
</g>
<!-- dir_ea273b443b966abbebf68ac90005349e&#45;&gt;dir_d44c64559bbebec7f509842c48db8b23 -->
<g id="edge1" class="edge">
<title>dir_ea273b443b966abbebf68ac90005349e&#45;&gt;dir_d44c64559bbebec7f509842c48db8b23</title>
<path fill="none" stroke="black" d="M436.04,-71.7C445.06,-63.05 456.12,-52.45 465.94,-43.03"/>
<polygon fill="black" stroke="black" points="468.37,-45.55 473.16,-36.1 463.52,-40.5 468.37,-45.55"/>
<g id="a_edge1&#45;headlabel"><a xlink:href="dir_000074_000000.html" target="_top" xlink:title="5">
<text text-anchor="middle" x="467.74" y="-47.59" font-family="Helvetica,sans-Serif" font-size="10.00">5</text>
</a>
</g>
</g>
<!-- dir_3481310df4fd510591ecbb734fa3af1c -->
<g id="node9" class="node">
<title>dir_3481310df4fd510591ecbb734fa3af1c</title>
<g id="a_node9"><a xlink:href="dir_3481310df4fd510591ecbb734fa3af1c.html" target="_top" xlink:title="noop">
<polygon fill="white" stroke="black" points="372,-108 318,-108 318,-72 372,-72 372,-108"/>
<text text-anchor="middle" x="345" y="-87.5" font-family="Helvetica,sans-Serif" font-size="10.00">noop</text>
</a>
</g>
</g>
<!-- dir_8188d2403f8782d47de5ea4ccc1ebd5f -->
<g id="node10" class="node">
<title>dir_8188d2403f8782d47de5ea4ccc1ebd5f</title>
<g id="a_node10"><a xlink:href="dir_8188d2403f8782d47de5ea4ccc1ebd5f.html" target="_top" xlink:title="shell">
<polygon fill="white" stroke="black" points="300,-108 246,-108 246,-72 300,-72 300,-108"/>
<text text-anchor="middle" x="273" y="-87.5" font-family="Helvetica,sans-Serif" font-size="10.00">shell</text>
</a>
</g>
</g>
<!-- dir_8188d2403f8782d47de5ea4ccc1ebd5f&#45;&gt;dir_d44c64559bbebec7f509842c48db8b23 -->
<g id="edge6" class="edge">
<title>dir_8188d2403f8782d47de5ea4ccc1ebd5f&#45;&gt;dir_d44c64559bbebec7f509842c48db8b23</title>
<path fill="none" stroke="black" d="M288.04,-71.8C294.01,-65.96 301.29,-59.93 309,-56 355.35,-32.38 415.56,-23.84 453.76,-20.75"/>
<polygon fill="black" stroke="black" points="454.19,-24.23 463.92,-20.01 453.69,-17.24 454.19,-24.23"/>
<g id="a_edge6&#45;headlabel"><a xlink:href="dir_000060_000000.html" target="_top" xlink:title="17">
<text text-anchor="middle" x="450.81" y="-24.82" font-family="Helvetica,sans-Serif" font-size="10.00">17</text>
</a>
</g>
</g>
<!-- dir_fc871caaf90a108feaa87099fb59ff14 -->
<g id="node11" class="node">
<title>dir_fc871caaf90a108feaa87099fb59ff14</title>
<g id="a_node11"><a xlink:href="dir_fc871caaf90a108feaa87099fb59ff14.html" target="_top" xlink:title="testsuite">
<polygon fill="white" stroke="black" points="228,-108 174,-108 174,-72 228,-72 228,-108"/>
<text text-anchor="middle" x="201" y="-87.5" font-family="Helvetica,sans-Serif" font-size="10.00">testsuite</text>
</a>
</g>
</g>
<!-- dir_fc871caaf90a108feaa87099fb59ff14&#45;&gt;dir_d44c64559bbebec7f509842c48db8b23 -->
<g id="edge7" class="edge">
<title>dir_fc871caaf90a108feaa87099fb59ff14&#45;&gt;dir_d44c64559bbebec7f509842c48db8b23</title>
<path fill="none" stroke="black" d="M215.58,-71.91C221.6,-65.94 229.03,-59.78 237,-56 274.67,-38.11 393.04,-26.6 453.96,-21.71"/>
<polygon fill="black" stroke="black" points="454.24,-25.2 463.93,-20.92 453.69,-18.22 454.24,-25.2"/>
<g id="a_edge7&#45;headlabel"><a xlink:href="dir_000076_000000.html" target="_top" xlink:title="5">
<text text-anchor="middle" x="450.87" y="-25.81" font-family="Helvetica,sans-Serif" font-size="10.00">5</text>
</a>
</g>
</g>
<!-- dir_580ecf3b0494669f5045460edd2f65b6 -->
<g id="node12" class="node">
<title>dir_580ecf3b0494669f5045460edd2f65b6</title>
<g id="a_node12"><a xlink:href="dir_580ecf3b0494669f5045460edd2f65b6.html" target="_top" xlink:title="udp&#45;client">
<polygon fill="white" stroke="black" points="156,-108 96,-108 96,-72 156,-72 156,-108"/>
<text text-anchor="middle" x="126" y="-87.5" font-family="Helvetica,sans-Serif" font-size="10.00">udp&#45;client</text>
</a>
</g>
</g>
<!-- dir_580ecf3b0494669f5045460edd2f65b6&#45;&gt;dir_d44c64559bbebec7f509842c48db8b23 -->
<g id="edge3" class="edge">
<title>dir_580ecf3b0494669f5045460edd2f65b6&#45;&gt;dir_d44c64559bbebec7f509842c48db8b23</title>
<path fill="none" stroke="black" d="M141.96,-71.78C148.51,-65.79 156.53,-59.66 165,-56 216.09,-33.94 379.1,-24 453.42,-20.53"/>
<polygon fill="black" stroke="black" points="453.89,-24.01 463.72,-20.06 453.57,-17.02 453.89,-24.01"/>
<g id="a_edge3&#45;headlabel"><a xlink:href="dir_000077_000000.html" target="_top" xlink:title="5">
<text text-anchor="middle" x="450.43" y="-24.51" font-family="Helvetica,sans-Serif" font-size="10.00">5</text>
</a>
</g>
</g>
<!-- dir_a399c65094449806f3301ab00825c20b -->
<g id="node13" class="node">
<title>dir_a399c65094449806f3301ab00825c20b</title>
<g id="a_node13"><a xlink:href="dir_a399c65094449806f3301ab00825c20b.html" target="_top" xlink:title="uptime">
<polygon fill="white" stroke="black" points="78,-108 24,-108 24,-72 78,-72 78,-108"/>
<text text-anchor="middle" x="51" y="-87.5" font-family="Helvetica,sans-Serif" font-size="10.00">uptime</text>
</a>
</g>
</g>
<!-- dir_a399c65094449806f3301ab00825c20b&#45;&gt;dir_d44c64559bbebec7f509842c48db8b23 -->
<g id="edge9" class="edge">
<title>dir_a399c65094449806f3301ab00825c20b&#45;&gt;dir_d44c64559bbebec7f509842c48db8b23</title>
<path fill="none" stroke="black" d="M65.48,-71.69C71.48,-65.68 78.94,-59.57 87,-56 152.15,-27.17 366.64,-20.8 453.74,-19.4"/>
<polygon fill="black" stroke="black" points="454.01,-22.89 463.96,-19.24 453.91,-15.89 454.01,-22.89"/>
<g id="a_edge9&#45;headlabel"><a xlink:href="dir_000078_000000.html" target="_top" xlink:title="5">
<text text-anchor="middle" x="450.46" y="-23.28" font-family="Helvetica,sans-Serif" font-size="10.00">5</text>
</a>
</g>
</g>
</g>
</svg>
