<?xml version="1.0" encoding="UTF-8" standalone="no"?>
<!DOCTYPE svg PUBLIC "-//W3C//DTD SVG 1.1//EN"
 "http://www.w3.org/Graphics/SVG/1.1/DTD/svg11.dtd">
<!-- Generated by graphviz version 2.50.0 (20211204.2007)
 -->
<!-- Title: src/libc Pages: 1 -->
<svg width="470pt" height="159pt"
 viewBox="0.00 0.00 470.00 159.00" xmlns="http://www.w3.org/2000/svg" xmlns:xlink="http://www.w3.org/1999/xlink">
<g id="graph0" class="graph" transform="scale(1 1) rotate(0) translate(4 155)">
<title>src/libc</title>
<g id="clust1" class="cluster">
<title>clusterdir_68267d1309a1af8e8297ef4c3efbcdba</title>
<g id="a_clust1"><a xlink:href="dir_68267d1309a1af8e8297ef4c3efbcdba.html" target="_top" xlink:title="src">
<polygon fill="#edf0f7" stroke="#404040" stroke-dasharray="5,2" points="8,-56 8,-143 454,-143 454,-56 8,-56"/>
<text text-anchor="middle" x="231" y="-131" font-family="Helvetica,sans-Serif" font-size="10.00">src</text>
</a>
</g>
</g>
<g id="clust2" class="cluster">
<title>clusterdir_ee3448fa1dc3d93b4fb7d6fba5be0d5c</title>
<g id="a_clust2"><a xlink:href="dir_ee3448fa1dc3d93b4fb7d6fba5be0d5c.html" target="_top">
<polygon fill="#edf0f7" stroke="#404040" stroke-width="2" points="16,-64 16,-116 446,-116 446,-64 16,-64"/>
</a>
</g>
</g>
<!-- dir_ee3448fa1dc3d93b4fb7d6fba5be0d5c -->
<g id="node1" class="node">
<title>dir_ee3448fa1dc3d93b4fb7d6fba5be0d5c</title>
<text text-anchor="middle" x="411" y="-87.5" font-family="Helvetica,sans-Serif" font-size="10.00">libc</text>
</g>
<!-- dir_d44c64559bbebec7f509842c48db8b23 -->
<g id="node7" class="node">
<title>dir_d44c64559bbebec7f509842c48db8b23</title>
<g id="a_node7"><a xlink:href="dir_d44c64559bbebec7f509842c48db8b23.html" target="_top" xlink:title="include">
<polygon fill="none" stroke="red" points="258,-36 204,-36 204,0 258,0 258,-36"/>
<text text-anchor="middle" x="231" y="-15.5" font-family="Helvetica,sans-Serif" font-size="10.00">include</text>
</a>
</g>
</g>
<!-- dir_ee3448fa1dc3d93b4fb7d6fba5be0d5c&#45;&gt;dir_d44c64559bbebec7f509842c48db8b23 -->
<g id="edge1" class="edge">
<title>dir_ee3448fa1dc3d93b4fb7d6fba5be0d5c&#45;&gt;dir_d44c64559bbebec7f509842c48db8b23</title>
<path fill="none" stroke="black" d="M395.49,-71.67C389.58,-65.96 382.45,-60.04 375,-56 341.4,-37.79 298.51,-28.27 268.3,-23.47"/>
<polygon fill="black" stroke="black" points="268.59,-19.98 258.18,-21.97 267.56,-26.9 268.59,-19.98"/>
<g id="a_edge1&#45;headlabel"><a xlink:href="dir_000049_000042.html" target="_top" xlink:title="87">
<text text-anchor="middle" x="272.56" y="-15.2" font-family="Helvetica,sans-Serif" font-size="10.00">87</text>
</a>
</g>
</g>
<!-- dir_38bba0dc1bcec5102e4973ec0bd30b14 -->
<g id="node2" class="node">
<title>dir_38bba0dc1bcec5102e4973ec0bd30b14</title>
<g id="a_node2"><a xlink:href="dir_38bba0dc1bcec5102e4973ec0bd30b14.html" target="_top" xlink:title="arpa">
<polygon fill="#a2b4d6" stroke="#404040" points="366,-108 312,-108 312,-72 366,-72 366,-108"/>
<text text-anchor="middle" x="339" y="-87.5" font-family="Helvetica,sans-Serif" font-size="10.00">arpa</text>
</a>
</g>
</g>
<!-- dir_38bba0dc1bcec5102e4973ec0bd30b14&#45;&gt;dir_d44c64559bbebec7f509842c48db8b23 -->
<g id="edge2" class="edge">
<title>dir_38bba0dc1bcec5102e4973ec0bd30b14&#45;&gt;dir_d44c64559bbebec7f509842c48db8b23</title>
<path fill="none" stroke="black" d="M322.22,-71.89C316.41,-66.46 309.68,-60.65 303,-56 291.99,-48.33 279.18,-41.24 267.44,-35.35"/>
<polygon fill="black" stroke="black" points="268.83,-32.14 258.31,-30.91 265.77,-38.43 268.83,-32.14"/>
<g id="a_edge2&#45;headlabel"><a xlink:href="dir_000013_000042.html" target="_top" xlink:title="9">
<text text-anchor="middle" x="273.31" y="-28.66" font-family="Helvetica,sans-Serif" font-size="10.00">9</text>
</a>
</g>
</g>
<!-- dir_7f5ff376a441198f81b9afa317d68c79 -->
<g id="node3" class="node">
<title>dir_7f5ff376a441198f81b9afa317d68c79</title>
<g id="a_node3"><a xlink:href="dir_7f5ff376a441198f81b9afa317d68c79.html" target="_top" xlink:title="arvern">
<polygon fill="#a2b4d6" stroke="#404040" points="294,-108 240,-108 240,-72 294,-72 294,-108"/>
<text text-anchor="middle" x="267" y="-87.5" font-family="Helvetica,sans-Serif" font-size="10.00">arvern</text>
</a>
</g>
</g>
<!-- dir_7f5ff376a441198f81b9afa317d68c79&#45;&gt;dir_d44c64559bbebec7f509842c48db8b23 -->
<g id="edge3" class="edge">
<title>dir_7f5ff376a441198f81b9afa317d68c79&#45;&gt;dir_d44c64559bbebec7f509842c48db8b23</title>
<path fill="none" stroke="black" d="M258.1,-71.7C254,-63.73 249.05,-54.1 244.51,-45.26"/>
<polygon fill="black" stroke="black" points="247.48,-43.4 239.8,-36.1 241.26,-46.6 247.48,-43.4"/>
<g id="a_edge3&#45;headlabel"><a xlink:href="dir_000015_000042.html" target="_top" xlink:title="5">
<text text-anchor="middle" x="251.65" y="-42.79" font-family="Helvetica,sans-Serif" font-size="10.00">5</text>
</a>
</g>
</g>
<!-- dir_5ef8085f6cbda2e126b1ab3974e0a348 -->
<g id="node4" class="node">
<title>dir_5ef8085f6cbda2e126b1ab3974e0a348</title>
<g id="a_node4"><a xlink:href="dir_5ef8085f6cbda2e126b1ab3974e0a348.html" target="_top" xlink:title="string">
<polygon fill="#a2b4d6" stroke="#404040" points="222,-108 168,-108 168,-72 222,-72 222,-108"/>
<text text-anchor="middle" x="195" y="-87.5" font-family="Helvetica,sans-Serif" font-size="10.00">string</text>
</a>
</g>
</g>
<!-- dir_5ef8085f6cbda2e126b1ab3974e0a348&#45;&gt;dir_d44c64559bbebec7f509842c48db8b23 -->
<g id="edge4" class="edge">
<title>dir_5ef8085f6cbda2e126b1ab3974e0a348&#45;&gt;dir_d44c64559bbebec7f509842c48db8b23</title>
<path fill="none" stroke="black" d="M203.9,-71.7C208,-63.73 212.95,-54.1 217.49,-45.26"/>
<polygon fill="black" stroke="black" points="220.74,-46.6 222.2,-36.1 214.52,-43.4 220.74,-46.6"/>
<g id="a_edge4&#45;headlabel"><a xlink:href="dir_000069_000042.html" target="_top" xlink:title="19">
<text text-anchor="middle" x="221.62" y="-48.59" font-family="Helvetica,sans-Serif" font-size="10.00">19</text>
</a>
</g>
</g>
<!-- dir_5e66a34aa5f28d3b126d023efdd22628 -->
<g id="node5" class="node">
<title>dir_5e66a34aa5f28d3b126d023efdd22628</title>
<g id="a_node5"><a xlink:href="dir_5e66a34aa5f28d3b126d023efdd22628.html" target="_top" xlink:title="sys">
<polygon fill="#a2b4d6" stroke="#404040" points="150,-108 96,-108 96,-72 150,-72 150,-108"/>
<text text-anchor="middle" x="123" y="-87.5" font-family="Helvetica,sans-Serif" font-size="10.00">sys</text>
</a>
</g>
</g>
<!-- dir_5e66a34aa5f28d3b126d023efdd22628&#45;&gt;dir_d44c64559bbebec7f509842c48db8b23 -->
<g id="edge5" class="edge">
<title>dir_5e66a34aa5f28d3b126d023efdd22628&#45;&gt;dir_d44c64559bbebec7f509842c48db8b23</title>
<path fill="none" stroke="black" d="M139.78,-71.89C145.59,-66.46 152.32,-60.65 159,-56 170.01,-48.33 182.82,-41.24 194.56,-35.35"/>
<polygon fill="black" stroke="black" points="196.23,-38.43 203.69,-30.91 193.17,-32.14 196.23,-38.43"/>
<g id="a_edge5&#45;headlabel"><a xlink:href="dir_000076_000042.html" target="_top" xlink:title="18">
<text text-anchor="middle" x="194.24" y="-40.06" font-family="Helvetica,sans-Serif" font-size="10.00">18</text>
</a>
</g>
</g>
<!-- dir_77204929c56a0900b33c526a1ad6ba07 -->
<g id="node6" class="node">
<title>dir_77204929c56a0900b33c526a1ad6ba07</title>
<g id="a_node6"><a xlink:href="dir_77204929c56a0900b33c526a1ad6ba07.html" target="_top" xlink:title="time">
<polygon fill="#a2b4d6" stroke="#404040" points="78,-108 24,-108 24,-72 78,-72 78,-108"/>
<text text-anchor="middle" x="51" y="-87.5" font-family="Helvetica,sans-Serif" font-size="10.00">time</text>
</a>
</g>
</g>
<!-- dir_77204929c56a0900b33c526a1ad6ba07&#45;&gt;dir_d44c64559bbebec7f509842c48db8b23 -->
<g id="edge6" class="edge">
<title>dir_77204929c56a0900b33c526a1ad6ba07&#45;&gt;dir_d44c64559bbebec7f509842c48db8b23</title>
<path fill="none" stroke="black" d="M66.51,-71.67C72.42,-65.96 79.55,-60.04 87,-56 120.6,-37.79 163.49,-28.27 193.7,-23.47"/>
<polygon fill="black" stroke="black" points="194.44,-26.9 203.82,-21.97 193.41,-19.98 194.44,-26.9"/>
<g id="a_edge6&#45;headlabel"><a xlink:href="dir_000080_000042.html" target="_top" xlink:title="7">
<text text-anchor="middle" x="191.3" y="-27.74" font-family="Helvetica,sans-Serif" font-size="10.00">7</text>
</a>
</g>
</g>
</g>
</svg>
