<?xml version="1.0" encoding="UTF-8" standalone="no"?>
<!DOCTYPE svg PUBLIC "-//W3C//DTD SVG 1.1//EN"
 "http://www.w3.org/Graphics/SVG/1.1/DTD/svg11.dtd">
<!-- Generated by graphviz version 9.0.0 (20230911.1827)
 -->
<!-- Title: src/libc Pages: 1 -->
<svg width="362pt" height="126pt"
 viewBox="0.00 0.00 362.00 125.75" xmlns="http://www.w3.org/2000/svg" xmlns:xlink="http://www.w3.org/1999/xlink">
<g id="graph0" class="graph" transform="scale(1 1) rotate(0) translate(4 121.75)">
<title>src/libc</title>
<g id="clust1" class="cluster">
<title>clusterdir_68267d1309a1af8e8297ef4c3efbcdba</title>
<g id="a_clust1"><a xlink:href="dir_68267d1309a1af8e8297ef4c3efbcdba.html" target="_top" xlink:title="src">
<polygon fill="#edf0f7" stroke="#404040" stroke-dasharray="5,2" points="8,-39.25 8,-109.75 346,-109.75 346,-39.25 8,-39.25"/>
<text text-anchor="middle" x="177" y="-96.25" font-family="Helvetica,sans-Serif" font-size="10.00">src</text>
</a>
</g>
</g>
<g id="clust2" class="cluster">
<title>clusterdir_ee3448fa1dc3d93b4fb7d6fba5be0d5c</title>
<g id="a_clust2"><a xlink:href="dir_ee3448fa1dc3d93b4fb7d6fba5be0d5c.html" target="_top">
<polygon fill="#edf0f7" stroke="#404040" stroke-width="2" points="16,-47.25 16,-82.5 338,-82.5 338,-47.25 16,-47.25"/>
</a>
</g>
</g>
<!-- dir_ee3448fa1dc3d93b4fb7d6fba5be0d5c -->
<g id="node1" class="node">
<title>dir_ee3448fa1dc3d93b4fb7d6fba5be0d5c</title>
<text text-anchor="middle" x="314" y="-61" font-family="Helvetica,sans-Serif" font-size="10.00">libc</text>
</g>
<!-- dir_d44c64559bbebec7f509842c48db8b23 -->
<g id="node7" class="node">
<title>dir_d44c64559bbebec7f509842c48db8b23</title>
<g id="a_node7"><a xlink:href="dir_d44c64559bbebec7f509842c48db8b23.html" target="_top" xlink:title="include">
<polygon fill="#edf0f7" stroke="red" points="199.38,-19.25 152.62,-19.25 152.62,0 199.38,0 199.38,-19.25"/>
<text text-anchor="middle" x="176" y="-5.75" font-family="Helvetica,sans-Serif" font-size="10.00">include</text>
</a>
</g>
</g>
<!-- dir_ee3448fa1dc3d93b4fb7d6fba5be0d5c&#45;&gt;dir_d44c64559bbebec7f509842c48db8b23 -->
<g id="edge1" class="edge">
<title>dir_ee3448fa1dc3d93b4fb7d6fba5be0d5c&#45;&gt;dir_d44c64559bbebec7f509842c48db8b23</title>
<g id="a_edge1"><a xlink:href="dir_000046_000039.html" target="_top">
<path fill="none" stroke="#63b8ff" d="M307.43,-55.4C302.82,-50.01 296.22,-43.32 289,-39.25 264.86,-25.66 234.24,-18.42 210.96,-14.62"/>
<polygon fill="#63b8ff" stroke="#63b8ff" points="211.75,-11.2 201.35,-13.2 210.73,-18.13 211.75,-11.2"/>
</a>
</g>
<g id="a_edge1&#45;headlabel"><a xlink:href="dir_000046_000039.html" target="_top" xlink:title="87">
<text text-anchor="middle" x="214.23" y="-4.82" font-family="Helvetica,sans-Serif" font-size="10.00" fill="#63b8ff">87</text>
</a>
</g>
</g>
<!-- dir_38bba0dc1bcec5102e4973ec0bd30b14 -->
<g id="node2" class="node">
<title>dir_38bba0dc1bcec5102e4973ec0bd30b14</title>
<g id="a_node2"><a xlink:href="dir_38bba0dc1bcec5102e4973ec0bd30b14.html" target="_top" xlink:title="arpa">
<polygon fill="#a2b4d6" stroke="#404040" points="280.38,-74.5 245.62,-74.5 245.62,-55.25 280.38,-55.25 280.38,-74.5"/>
<text text-anchor="middle" x="263" y="-61" font-family="Helvetica,sans-Serif" font-size="10.00">arpa</text>
</a>
</g>
</g>
<!-- dir_38bba0dc1bcec5102e4973ec0bd30b14&#45;&gt;dir_d44c64559bbebec7f509842c48db8b23 -->
<g id="edge2" class="edge">
<title>dir_38bba0dc1bcec5102e4973ec0bd30b14&#45;&gt;dir_d44c64559bbebec7f509842c48db8b23</title>
<g id="a_edge2"><a xlink:href="dir_000012_000039.html" target="_top">
<path fill="none" stroke="#63b8ff" d="M254.93,-54.93C250.07,-49.89 243.57,-43.73 237,-39.25 228.73,-33.61 219.18,-28.55 210.13,-24.3"/>
<polygon fill="#63b8ff" stroke="#63b8ff" points="211.77,-21.2 201.21,-20.32 208.92,-27.59 211.77,-21.2"/>
</a>
</g>
<g id="a_edge2&#45;headlabel"><a xlink:href="dir_000012_000039.html" target="_top" xlink:title="9">
<text text-anchor="middle" x="214.83" y="-15.58" font-family="Helvetica,sans-Serif" font-size="10.00" fill="#63b8ff">9</text>
</a>
</g>
</g>
<!-- dir_7f5ff376a441198f81b9afa317d68c79 -->
<g id="node3" class="node">
<title>dir_7f5ff376a441198f81b9afa317d68c79</title>
<g id="a_node3"><a xlink:href="dir_7f5ff376a441198f81b9afa317d68c79.html" target="_top" xlink:title="arvern">
<polygon fill="#a2b4d6" stroke="#404040" points="227.5,-74.5 184.5,-74.5 184.5,-55.25 227.5,-55.25 227.5,-74.5"/>
<text text-anchor="middle" x="206" y="-61" font-family="Helvetica,sans-Serif" font-size="10.00">arvern</text>
</a>
</g>
</g>
<!-- dir_7f5ff376a441198f81b9afa317d68c79&#45;&gt;dir_d44c64559bbebec7f509842c48db8b23 -->
<g id="edge3" class="edge">
<title>dir_7f5ff376a441198f81b9afa317d68c79&#45;&gt;dir_d44c64559bbebec7f509842c48db8b23</title>
<g id="a_edge3"><a xlink:href="dir_000014_000039.html" target="_top">
<path fill="none" stroke="#63b8ff" d="M201.05,-55.08C197.12,-48.11 191.49,-38.12 186.56,-29.37"/>
<polygon fill="#63b8ff" stroke="#63b8ff" points="189.76,-27.92 181.8,-20.93 183.66,-31.36 189.76,-27.92"/>
</a>
</g>
<g id="a_edge3&#45;headlabel"><a xlink:href="dir_000014_000039.html" target="_top" xlink:title="5">
<text text-anchor="middle" x="193.26" y="-24.47" font-family="Helvetica,sans-Serif" font-size="10.00" fill="#63b8ff">5</text>
</a>
</g>
</g>
<!-- dir_5ef8085f6cbda2e126b1ab3974e0a348 -->
<g id="node4" class="node">
<title>dir_5ef8085f6cbda2e126b1ab3974e0a348</title>
<g id="a_node4"><a xlink:href="dir_5ef8085f6cbda2e126b1ab3974e0a348.html" target="_top" xlink:title="string">
<polygon fill="#a2b4d6" stroke="#404040" points="166,-74.5 126,-74.5 126,-55.25 166,-55.25 166,-74.5"/>
<text text-anchor="middle" x="146" y="-61" font-family="Helvetica,sans-Serif" font-size="10.00">string</text>
</a>
</g>
</g>
<!-- dir_5ef8085f6cbda2e126b1ab3974e0a348&#45;&gt;dir_d44c64559bbebec7f509842c48db8b23 -->
<g id="edge4" class="edge">
<title>dir_5ef8085f6cbda2e126b1ab3974e0a348&#45;&gt;dir_d44c64559bbebec7f509842c48db8b23</title>
<g id="a_edge4"><a xlink:href="dir_000064_000039.html" target="_top">
<path fill="none" stroke="#63b8ff" d="M150.95,-55.08C154.88,-48.11 160.51,-38.12 165.44,-29.37"/>
<polygon fill="#63b8ff" stroke="#63b8ff" points="168.34,-31.36 170.2,-20.93 162.24,-27.92 168.34,-31.36"/>
</a>
</g>
<g id="a_edge4&#45;headlabel"><a xlink:href="dir_000064_000039.html" target="_top" xlink:title="19">
<text text-anchor="middle" x="169.79" y="-30.69" font-family="Helvetica,sans-Serif" font-size="10.00" fill="#63b8ff">19</text>
</a>
</g>
</g>
<!-- dir_5e66a34aa5f28d3b126d023efdd22628 -->
<g id="node5" class="node">
<title>dir_5e66a34aa5f28d3b126d023efdd22628</title>
<g id="a_node5"><a xlink:href="dir_5e66a34aa5f28d3b126d023efdd22628.html" target="_top" xlink:title="sys">
<polygon fill="#a2b4d6" stroke="#404040" points="107.88,-74.5 76.12,-74.5 76.12,-55.25 107.88,-55.25 107.88,-74.5"/>
<text text-anchor="middle" x="92" y="-61" font-family="Helvetica,sans-Serif" font-size="10.00">sys</text>
</a>
</g>
</g>
<!-- dir_5e66a34aa5f28d3b126d023efdd22628&#45;&gt;dir_d44c64559bbebec7f509842c48db8b23 -->
<g id="edge5" class="edge">
<title>dir_5e66a34aa5f28d3b126d023efdd22628&#45;&gt;dir_d44c64559bbebec7f509842c48db8b23</title>
<g id="a_edge5"><a xlink:href="dir_000070_000039.html" target="_top">
<path fill="none" stroke="#63b8ff" d="M99.72,-54.94C104.38,-49.9 110.63,-43.75 117,-39.25 124.87,-33.69 133.98,-28.68 142.65,-24.47"/>
<polygon fill="#63b8ff" stroke="#63b8ff" points="143.92,-27.74 151.53,-20.37 140.98,-21.38 143.92,-27.74"/>
</a>
</g>
<g id="a_edge5&#45;headlabel"><a xlink:href="dir_000070_000039.html" target="_top" xlink:title="18">
<text text-anchor="middle" x="143.22" y="-27.31" font-family="Helvetica,sans-Serif" font-size="10.00" fill="#63b8ff">18</text>
</a>
</g>
</g>
<!-- dir_77204929c56a0900b33c526a1ad6ba07 -->
<g id="node6" class="node">
<title>dir_77204929c56a0900b33c526a1ad6ba07</title>
<g id="a_node6"><a xlink:href="dir_77204929c56a0900b33c526a1ad6ba07.html" target="_top" xlink:title="time">
<polygon fill="#a2b4d6" stroke="#404040" points="58.38,-74.5 23.62,-74.5 23.62,-55.25 58.38,-55.25 58.38,-74.5"/>
<text text-anchor="middle" x="41" y="-61" font-family="Helvetica,sans-Serif" font-size="10.00">time</text>
</a>
</g>
</g>
<!-- dir_77204929c56a0900b33c526a1ad6ba07&#45;&gt;dir_d44c64559bbebec7f509842c48db8b23 -->
<g id="edge6" class="edge">
<title>dir_77204929c56a0900b33c526a1ad6ba07&#45;&gt;dir_d44c64559bbebec7f509842c48db8b23</title>
<g id="a_edge6"><a xlink:href="dir_000074_000039.html" target="_top">
<path fill="none" stroke="#63b8ff" d="M48.34,-54.95C53.14,-49.66 59.83,-43.24 67,-39.25 89.9,-26.51 118.67,-19.27 140.91,-15.26"/>
<polygon fill="#63b8ff" stroke="#63b8ff" points="141.4,-18.72 150.69,-13.64 140.26,-11.82 141.4,-18.72"/>
</a>
</g>
<g id="a_edge6&#45;headlabel"><a xlink:href="dir_000074_000039.html" target="_top" xlink:title="7">
<text text-anchor="middle" x="139.81" y="-17.99" font-family="Helvetica,sans-Serif" font-size="10.00" fill="#63b8ff">7</text>
</a>
</g>
</g>
</g>
</svg>
