<?xml version="1.0" encoding="UTF-8" standalone="no"?>
<!DOCTYPE svg PUBLIC "-//W3C//DTD SVG 1.1//EN"
 "http://www.w3.org/Graphics/SVG/1.1/DTD/svg11.dtd">
<!-- Generated by graphviz version 3.0.0 (20220226.1711)
 -->
<!-- Title: src/kernel/arch/x86_64/arch Pages: 1 -->
<svg width="242pt" height="439pt"
 viewBox="0.00 0.00 242.00 439.00" xmlns="http://www.w3.org/2000/svg" xmlns:xlink="http://www.w3.org/1999/xlink">
<g id="graph0" class="graph" transform="scale(1 1) rotate(0) translate(4 435)">
<title>src/kernel/arch/x86_64/arch</title>
<g id="clust1" class="cluster">
<title>clusterdir_7c4c796ec9937bed8074dafcec3d25e4</title>
<g id="a_clust1"><a xlink:href="dir_7c4c796ec9937bed8074dafcec3d25e4.html" target="_top" xlink:title="x86_64">
<polygon fill="#ddddee" stroke="black" points="8,-64 8,-423 158,-423 158,-64 8,-64"/>
<text text-anchor="middle" x="83" y="-411" font-family="Helvetica,sans-Serif" font-size="10.00">x86_64</text>
</a>
</g>
</g>
<!-- dir_1dc53930709e46457d0e1484ec309f4d -->
<g id="node1" class="node">
<title>dir_1dc53930709e46457d0e1484ec309f4d</title>
<g id="a_node1"><a xlink:href="dir_1dc53930709e46457d0e1484ec309f4d.html" target="_top" xlink:title="core">
<polygon fill="none" stroke="black" points="92,-108 38,-108 38,-72 92,-72 92,-108"/>
<text text-anchor="middle" x="65" y="-87.5" font-family="Helvetica,sans-Serif" font-size="10.00">core</text>
</a>
</g>
</g>
<!-- dir_d44c64559bbebec7f509842c48db8b23 -->
<g id="node6" class="node">
<title>dir_d44c64559bbebec7f509842c48db8b23</title>
<g id="a_node6"><a xlink:href="dir_d44c64559bbebec7f509842c48db8b23.html" target="_top" xlink:title="include">
<polygon fill="none" stroke="red" points="185,-36 131,-36 131,0 185,0 185,-36"/>
<text text-anchor="middle" x="158" y="-15.5" font-family="Helvetica,sans-Serif" font-size="10.00">include</text>
</a>
</g>
</g>
<!-- dir_1dc53930709e46457d0e1484ec309f4d&#45;&gt;dir_d44c64559bbebec7f509842c48db8b23 -->
<g id="edge1" class="edge">
<title>dir_1dc53930709e46457d0e1484ec309f4d&#45;&gt;dir_d44c64559bbebec7f509842c48db8b23</title>
<path fill="none" stroke="black" d="M87.99,-71.7C99.81,-62.8 114.39,-51.82 127.18,-42.2"/>
<polygon fill="black" stroke="black" points="129.39,-44.91 135.28,-36.1 125.18,-39.32 129.39,-44.91"/>
<g id="a_edge1&#45;headlabel"><a xlink:href="dir_000046_000000.html" target="_top" xlink:title="3">
<text text-anchor="middle" x="128.23" y="-46.84" font-family="Helvetica,sans-Serif" font-size="10.00">3</text>
</a>
</g>
</g>
<!-- dir_3a646564ec239f35c01425f0e9da2ba2 -->
<g id="node2" class="node">
<title>dir_3a646564ec239f35c01425f0e9da2ba2</title>
<g id="a_node2"><a xlink:href="dir_3a646564ec239f35c01425f0e9da2ba2.html" target="_top" xlink:title="mmu">
<polygon fill="none" stroke="black" points="110,-180 56,-180 56,-144 110,-144 110,-180"/>
<text text-anchor="middle" x="83" y="-159.5" font-family="Helvetica,sans-Serif" font-size="10.00">mmu</text>
</a>
</g>
</g>
<!-- dir_3a646564ec239f35c01425f0e9da2ba2&#45;&gt;dir_1dc53930709e46457d0e1484ec309f4d -->
<g id="edge7" class="edge">
<title>dir_3a646564ec239f35c01425f0e9da2ba2&#45;&gt;dir_1dc53930709e46457d0e1484ec309f4d</title>
<path fill="none" stroke="black" d="M78.55,-143.7C76.55,-135.9 74.13,-126.51 71.9,-117.83"/>
<polygon fill="black" stroke="black" points="75.28,-116.92 69.4,-108.1 68.5,-118.66 75.28,-116.92"/>
<g id="a_edge7&#45;headlabel"><a xlink:href="dir_000042_000046.html" target="_top" xlink:title="2">
<text text-anchor="middle" x="78.92" y="-117.19" font-family="Helvetica,sans-Serif" font-size="10.00">2</text>
</a>
</g>
</g>
<!-- dir_3a646564ec239f35c01425f0e9da2ba2&#45;&gt;dir_d44c64559bbebec7f509842c48db8b23 -->
<g id="edge8" class="edge">
<title>dir_3a646564ec239f35c01425f0e9da2ba2&#45;&gt;dir_d44c64559bbebec7f509842c48db8b23</title>
<path fill="none" stroke="black" d="M92.05,-143.87C105,-119.35 128.93,-74.03 144.13,-45.26"/>
<polygon fill="black" stroke="black" points="147.35,-46.67 148.92,-36.19 141.16,-43.4 147.35,-46.67"/>
<g id="a_edge8&#45;headlabel"><a xlink:href="dir_000042_000000.html" target="_top" xlink:title="21">
<text text-anchor="middle" x="148.18" y="-48.67" font-family="Helvetica,sans-Serif" font-size="10.00">21</text>
</a>
</g>
</g>
<!-- dir_42d4540ea64ab009ab7a7dcd79fe63e8 -->
<g id="node3" class="node">
<title>dir_42d4540ea64ab009ab7a7dcd79fe63e8</title>
<g id="a_node3"><a xlink:href="dir_42d4540ea64ab009ab7a7dcd79fe63e8.html" target="_top" xlink:title="console">
<polygon fill="none" stroke="black" points="110,-324 56,-324 56,-288 110,-288 110,-324"/>
<text text-anchor="middle" x="83" y="-303.5" font-family="Helvetica,sans-Serif" font-size="10.00">console</text>
</a>
</g>
</g>
<!-- dir_42d4540ea64ab009ab7a7dcd79fe63e8&#45;&gt;dir_1dc53930709e46457d0e1484ec309f4d -->
<g id="edge9" class="edge">
<title>dir_42d4540ea64ab009ab7a7dcd79fe63e8&#45;&gt;dir_1dc53930709e46457d0e1484ec309f4d</title>
<path fill="none" stroke="black" d="M74.66,-287.73C61.5,-258.39 38.27,-196.84 47,-144 48.44,-135.28 51.13,-126.06 54,-117.8"/>
<polygon fill="black" stroke="black" points="57.33,-118.89 57.52,-108.3 50.77,-116.46 57.33,-118.89"/>
<g id="a_edge9&#45;headlabel"><a xlink:href="dir_000047_000046.html" target="_top" xlink:title="1">
<text text-anchor="middle" x="58.74" y="-120.75" font-family="Helvetica,sans-Serif" font-size="10.00">1</text>
</a>
</g>
</g>
<!-- dir_42d4540ea64ab009ab7a7dcd79fe63e8&#45;&gt;dir_3a646564ec239f35c01425f0e9da2ba2 -->
<g id="edge10" class="edge">
<title>dir_42d4540ea64ab009ab7a7dcd79fe63e8&#45;&gt;dir_3a646564ec239f35c01425f0e9da2ba2</title>
<path fill="none" stroke="black" d="M83,-287.87C83,-263.67 83,-219.21 83,-190.39"/>
<polygon fill="black" stroke="black" points="86.5,-190.19 83,-180.19 79.5,-190.19 86.5,-190.19"/>
<g id="a_edge10&#45;headlabel"><a xlink:href="dir_000047_000042.html" target="_top" xlink:title="1">
<text text-anchor="middle" x="89.34" y="-191.28" font-family="Helvetica,sans-Serif" font-size="10.00">1</text>
</a>
</g>
</g>
<!-- dir_dfce509d3294b4958bedddff0a015025 -->
<g id="node4" class="node">
<title>dir_dfce509d3294b4958bedddff0a015025</title>
<g id="a_node4"><a xlink:href="dir_dfce509d3294b4958bedddff0a015025.html" target="_top" xlink:title="drivers">
<polygon fill="none" stroke="black" points="150,-252 96,-252 96,-216 150,-216 150,-252"/>
<text text-anchor="middle" x="123" y="-231.5" font-family="Helvetica,sans-Serif" font-size="10.00">drivers</text>
</a>
</g>
</g>
<!-- dir_42d4540ea64ab009ab7a7dcd79fe63e8&#45;&gt;dir_dfce509d3294b4958bedddff0a015025 -->
<g id="edge12" class="edge">
<title>dir_42d4540ea64ab009ab7a7dcd79fe63e8&#45;&gt;dir_dfce509d3294b4958bedddff0a015025</title>
<path fill="none" stroke="black" d="M92.89,-287.7C97.49,-279.64 103.06,-269.89 108.15,-260.98"/>
<polygon fill="black" stroke="black" points="111.3,-262.52 113.23,-252.1 105.23,-259.05 111.3,-262.52"/>
<g id="a_edge12&#45;headlabel"><a xlink:href="dir_000047_000048.html" target="_top" xlink:title="1">
<text text-anchor="middle" x="111.99" y="-264.55" font-family="Helvetica,sans-Serif" font-size="10.00">1</text>
</a>
</g>
</g>
<!-- dir_42d4540ea64ab009ab7a7dcd79fe63e8&#45;&gt;dir_d44c64559bbebec7f509842c48db8b23 -->
<g id="edge11" class="edge">
<title>dir_42d4540ea64ab009ab7a7dcd79fe63e8&#45;&gt;dir_d44c64559bbebec7f509842c48db8b23</title>
<path fill="none" stroke="black" d="M110.35,-293.93C127.69,-285.31 148.74,-271.5 159,-252 194.3,-184.91 177.38,-91.19 165.78,-45.77"/>
<polygon fill="black" stroke="black" points="169.15,-44.84 163.19,-36.08 162.39,-46.64 169.15,-44.84"/>
<g id="a_edge11&#45;headlabel"><a xlink:href="dir_000047_000000.html" target="_top" xlink:title="7">
<text text-anchor="middle" x="172.82" y="-45.08" font-family="Helvetica,sans-Serif" font-size="10.00">7</text>
</a>
</g>
</g>
<!-- dir_dfce509d3294b4958bedddff0a015025&#45;&gt;dir_1dc53930709e46457d0e1484ec309f4d -->
<g id="edge13" class="edge">
<title>dir_dfce509d3294b4958bedddff0a015025&#45;&gt;dir_1dc53930709e46457d0e1484ec309f4d</title>
<path fill="none" stroke="black" d="M125.83,-215.75C128.07,-197.17 129.34,-167.16 119,-144 114.07,-132.96 105.71,-123.01 97.01,-114.79"/>
<polygon fill="black" stroke="black" points="99.18,-112.03 89.37,-108.03 94.54,-117.27 99.18,-112.03"/>
<g id="a_edge13&#45;headlabel"><a xlink:href="dir_000048_000046.html" target="_top" xlink:title="3">
<text text-anchor="middle" x="103.75" y="-109.78" font-family="Helvetica,sans-Serif" font-size="10.00">3</text>
</a>
</g>
</g>
<!-- dir_dfce509d3294b4958bedddff0a015025&#45;&gt;dir_3a646564ec239f35c01425f0e9da2ba2 -->
<g id="edge14" class="edge">
<title>dir_dfce509d3294b4958bedddff0a015025&#45;&gt;dir_3a646564ec239f35c01425f0e9da2ba2</title>
<path fill="none" stroke="black" d="M113.11,-215.7C108.51,-207.64 102.94,-197.89 97.85,-188.98"/>
<polygon fill="black" stroke="black" points="100.77,-187.05 92.77,-180.1 94.7,-190.52 100.77,-187.05"/>
<g id="a_edge14&#45;headlabel"><a xlink:href="dir_000048_000042.html" target="_top" xlink:title="1">
<text text-anchor="middle" x="105.02" y="-186.26" font-family="Helvetica,sans-Serif" font-size="10.00">1</text>
</a>
</g>
</g>
<!-- dir_dfce509d3294b4958bedddff0a015025&#45;&gt;dir_d44c64559bbebec7f509842c48db8b23 -->
<g id="edge15" class="edge">
<title>dir_dfce509d3294b4958bedddff0a015025&#45;&gt;dir_d44c64559bbebec7f509842c48db8b23</title>
<path fill="none" stroke="black" d="M125.81,-215.85C131.87,-178.75 146.26,-90.81 153.57,-46.1"/>
<polygon fill="black" stroke="black" points="157.02,-46.67 155.18,-36.23 150.11,-45.54 157.02,-46.67"/>
<g id="a_edge15&#45;headlabel"><a xlink:href="dir_000048_000000.html" target="_top" xlink:title="26">
<text text-anchor="middle" x="159.24" y="-48.17" font-family="Helvetica,sans-Serif" font-size="10.00">26</text>
</a>
</g>
</g>
<!-- dir_2acc9ac41bab451ccb7f12c38e9a27aa -->
<g id="node5" class="node">
<title>dir_2acc9ac41bab451ccb7f12c38e9a27aa</title>
<g id="a_node5"><a xlink:href="dir_2acc9ac41bab451ccb7f12c38e9a27aa.html" target="_top" xlink:title="arch">
<polygon fill="#eeeeff" stroke="black" points="110,-396 56,-396 56,-360 110,-360 110,-396"/>
<text text-anchor="middle" x="83" y="-375.5" font-family="Helvetica,sans-Serif" font-size="10.00">arch</text>
</a>
</g>
</g>
<!-- dir_2acc9ac41bab451ccb7f12c38e9a27aa&#45;&gt;dir_1dc53930709e46457d0e1484ec309f4d -->
<g id="edge2" class="edge">
<title>dir_2acc9ac41bab451ccb7f12c38e9a27aa&#45;&gt;dir_1dc53930709e46457d0e1484ec309f4d</title>
<path fill="none" stroke="black" d="M62.62,-359.53C53.19,-350.09 42.99,-337.6 38,-324 28.91,-299.26 8.98,-285.18 41,-144 43.06,-134.94 46.73,-125.54 50.6,-117.23"/>
<polygon fill="black" stroke="black" points="53.85,-118.56 55.14,-108.04 47.57,-115.45 53.85,-118.56"/>
<g id="a_edge2&#45;headlabel"><a xlink:href="dir_000026_000046.html" target="_top" xlink:title="2">
<text text-anchor="middle" x="54.8" y="-120.54" font-family="Helvetica,sans-Serif" font-size="10.00">2</text>
</a>
</g>
</g>
<!-- dir_2acc9ac41bab451ccb7f12c38e9a27aa&#45;&gt;dir_3a646564ec239f35c01425f0e9da2ba2 -->
<g id="edge3" class="edge">
<title>dir_2acc9ac41bab451ccb7f12c38e9a27aa&#45;&gt;dir_3a646564ec239f35c01425f0e9da2ba2</title>
<path fill="none" stroke="black" d="M67.39,-359.77C59.63,-350.03 51.05,-337.18 47,-324 32.66,-277.36 53.35,-221.49 68.8,-189.33"/>
<polygon fill="black" stroke="black" points="72.05,-190.66 73.38,-180.15 65.78,-187.54 72.05,-190.66"/>
<g id="a_edge3&#45;headlabel"><a xlink:href="dir_000026_000042.html" target="_top" xlink:title="1">
<text text-anchor="middle" x="72.98" y="-192.64" font-family="Helvetica,sans-Serif" font-size="10.00">1</text>
</a>
</g>
</g>
<!-- dir_2acc9ac41bab451ccb7f12c38e9a27aa&#45;&gt;dir_42d4540ea64ab009ab7a7dcd79fe63e8 -->
<g id="edge4" class="edge">
<title>dir_2acc9ac41bab451ccb7f12c38e9a27aa&#45;&gt;dir_42d4540ea64ab009ab7a7dcd79fe63e8</title>
<path fill="none" stroke="black" d="M83,-359.7C83,-351.98 83,-342.71 83,-334.11"/>
<polygon fill="black" stroke="black" points="86.5,-334.1 83,-324.1 79.5,-334.1 86.5,-334.1"/>
<g id="a_edge4&#45;headlabel"><a xlink:href="dir_000026_000047.html" target="_top" xlink:title="1">
<text text-anchor="middle" x="89.34" y="-335.2" font-family="Helvetica,sans-Serif" font-size="10.00">1</text>
</a>
</g>
</g>
<!-- dir_2acc9ac41bab451ccb7f12c38e9a27aa&#45;&gt;dir_dfce509d3294b4958bedddff0a015025 -->
<g id="edge6" class="edge">
<title>dir_2acc9ac41bab451ccb7f12c38e9a27aa&#45;&gt;dir_dfce509d3294b4958bedddff0a015025</title>
<path fill="none" stroke="black" d="M98.37,-359.7C106.07,-349.93 114.65,-337.09 119,-324 125.61,-304.09 126.34,-280.3 125.57,-262.33"/>
<polygon fill="black" stroke="black" points="129.05,-262 124.95,-252.23 122.07,-262.43 129.05,-262"/>
<g id="a_edge6&#45;headlabel"><a xlink:href="dir_000026_000048.html" target="_top" xlink:title="5">
<text text-anchor="middle" x="132.11" y="-262.91" font-family="Helvetica,sans-Serif" font-size="10.00">5</text>
</a>
</g>
</g>
<!-- dir_2acc9ac41bab451ccb7f12c38e9a27aa&#45;&gt;dir_d44c64559bbebec7f509842c48db8b23 -->
<g id="edge5" class="edge">
<title>dir_2acc9ac41bab451ccb7f12c38e9a27aa&#45;&gt;dir_d44c64559bbebec7f509842c48db8b23</title>
<path fill="none" stroke="black" d="M110.34,-366.12C153.86,-346.81 234,-302.11 234,-235 234,-235 234,-235 234,-161 234,-115.64 203.48,-70.75 181.12,-43.95"/>
<polygon fill="black" stroke="black" points="183.66,-41.53 174.49,-36.23 178.36,-46.09 183.66,-41.53"/>
<g id="a_edge5&#45;headlabel"><a xlink:href="dir_000026_000000.html" target="_top" xlink:title="25">
<text text-anchor="middle" x="188.16" y="-39.9" font-family="Helvetica,sans-Serif" font-size="10.00">25</text>
</a>
</g>
</g>
</g>
</svg>
