<?xml version="1.0" encoding="UTF-8" standalone="no"?>
<!DOCTYPE svg PUBLIC "-//W3C//DTD SVG 1.1//EN"
 "http://www.w3.org/Graphics/SVG/1.1/DTD/svg11.dtd">
<!-- Generated by graphviz version 9.0.0 (20230911.1827)
 -->
<!-- Title: include/kernel Pages: 1 -->
<svg width="487pt" height="308pt"
 viewBox="0.00 0.00 487.00 307.50" xmlns="http://www.w3.org/2000/svg" xmlns:xlink="http://www.w3.org/1999/xlink">
<g id="graph0" class="graph" transform="scale(1 1) rotate(0) translate(4 303.5)">
<title>include/kernel</title>
<g id="clust1" class="cluster">
<title>clusterdir_d44c64559bbebec7f509842c48db8b23</title>
<g id="a_clust1"><a xlink:href="dir_d44c64559bbebec7f509842c48db8b23.html" target="_top" xlink:title="include">
<polygon fill="#edf0f7" stroke="#404040" stroke-dasharray="5,2" points="8,-8 8,-291.5 471,-291.5 471,-8 8,-8"/>
<text text-anchor="middle" x="239.5" y="-278" font-family="Helvetica,sans-Serif" font-size="10.00">include</text>
</a>
</g>
</g>
<g id="clust2" class="cluster">
<title>clusterdir_2ae24886e77657f82343b4b0154efdc1</title>
<g id="a_clust2"><a xlink:href="dir_2ae24886e77657f82343b4b0154efdc1.html" target="_top">
<polygon fill="#edf0f7" stroke="#404040" stroke-width="2" points="16,-63.25 16,-264.25 463,-264.25 463,-63.25 16,-63.25"/>
</a>
</g>
</g>
<!-- dir_f9f386f816a45f0ffce9eeb77a177fce -->
<g id="node1" class="node">
<title>dir_f9f386f816a45f0ffce9eeb77a177fce</title>
<g id="a_node1"><a xlink:href="dir_f9f386f816a45f0ffce9eeb77a177fce.html" target="_top" xlink:title="libc">
<polygon fill="#a2b4d6" stroke="red" points="192.5,-35.25 161.5,-35.25 161.5,-16 192.5,-16 192.5,-35.25"/>
<text text-anchor="middle" x="177" y="-21.75" font-family="Helvetica,sans-Serif" font-size="10.00">libc</text>
</a>
</g>
</g>
<!-- dir_2ae24886e77657f82343b4b0154efdc1 -->
<g id="node2" class="node">
<title>dir_2ae24886e77657f82343b4b0154efdc1</title>
<text text-anchor="middle" x="45" y="-242.75" font-family="Helvetica,sans-Serif" font-size="10.00">kernel</text>
</g>
<!-- dir_2ae24886e77657f82343b4b0154efdc1&#45;&gt;dir_f9f386f816a45f0ffce9eeb77a177fce -->
<g id="edge3" class="edge">
<title>dir_2ae24886e77657f82343b4b0154efdc1&#45;&gt;dir_f9f386f816a45f0ffce9eeb77a177fce</title>
<g id="a_edge3"><a xlink:href="dir_000041_000045.html" target="_top">
<path fill="none" stroke="#63b8ff" d="M66.11,-238.76C83.98,-231.91 109.02,-219.68 124,-201 143.42,-176.78 164.21,-87.23 172.86,-46.74"/>
<polygon fill="#63b8ff" stroke="#63b8ff" points="176.24,-47.65 174.87,-37.15 169.39,-46.22 176.24,-47.65"/>
</a>
</g>
<g id="a_edge3&#45;headlabel"><a xlink:href="dir_000041_000045.html" target="_top" xlink:title="20">
<text text-anchor="middle" x="178.59" y="-46.4" font-family="Helvetica,sans-Serif" font-size="10.00" fill="#63b8ff">20</text>
</a>
</g>
</g>
<!-- dir_1bef30f09c3bd1e4e4024186bdc41803 -->
<g id="node3" class="node">
<title>dir_1bef30f09c3bd1e4e4024186bdc41803</title>
<g id="a_node3"><a xlink:href="dir_1bef30f09c3bd1e4e4024186bdc41803.html" target="_top" xlink:title="arch">
<polygon fill="#a2b4d6" stroke="#404040" points="62.38,-201 27.62,-201 27.62,-181.75 62.38,-181.75 62.38,-201"/>
<text text-anchor="middle" x="45" y="-187.5" font-family="Helvetica,sans-Serif" font-size="10.00">arch</text>
</a>
</g>
</g>
<!-- dir_2ae24886e77657f82343b4b0154efdc1&#45;&gt;dir_1bef30f09c3bd1e4e4024186bdc41803 -->
<g id="edge2" class="edge">
<title>dir_2ae24886e77657f82343b4b0154efdc1&#45;&gt;dir_1bef30f09c3bd1e4e4024186bdc41803</title>
<g id="a_edge2"><a xlink:href="dir_000041_000002.html" target="_top">
<path fill="none" stroke="#63b8ff" d="M45,-237.3C45,-230.7 45,-221.19 45,-212.61"/>
<polygon fill="#63b8ff" stroke="#63b8ff" points="48.5,-212.68 45,-202.68 41.5,-212.68 48.5,-212.68"/>
</a>
</g>
<g id="a_edge2&#45;headlabel"><a xlink:href="dir_000041_000002.html" target="_top" xlink:title="1">
<text text-anchor="middle" x="51.34" y="-210.89" font-family="Helvetica,sans-Serif" font-size="10.00" fill="#63b8ff">1</text>
</a>
</g>
</g>
<!-- dir_12c6d725a1e624cd8ea115c6923f483d -->
<g id="node13" class="node">
<title>dir_12c6d725a1e624cd8ea115c6923f483d</title>
<g id="a_node13"><a xlink:href="dir_12c6d725a1e624cd8ea115c6923f483d.html" target="_top" xlink:title="time">
<polygon fill="#a2b4d6" stroke="#404040" points="115.38,-201 80.62,-201 80.62,-181.75 115.38,-181.75 115.38,-201"/>
<text text-anchor="middle" x="98" y="-187.5" font-family="Helvetica,sans-Serif" font-size="10.00">time</text>
</a>
</g>
</g>
<!-- dir_2ae24886e77657f82343b4b0154efdc1&#45;&gt;dir_12c6d725a1e624cd8ea115c6923f483d -->
<g id="edge1" class="edge">
<title>dir_2ae24886e77657f82343b4b0154efdc1&#45;&gt;dir_12c6d725a1e624cd8ea115c6923f483d</title>
<g id="a_edge1"><a xlink:href="dir_000041_000072.html" target="_top">
<path fill="none" stroke="#63b8ff" d="M53.28,-237.3C60.77,-229.78 72.02,-218.47 81.37,-209.09"/>
<polygon fill="#63b8ff" stroke="#63b8ff" points="83.61,-211.8 88.18,-202.24 78.65,-206.86 83.61,-211.8"/>
</a>
</g>
<g id="a_edge1&#45;headlabel"><a xlink:href="dir_000041_000072.html" target="_top" xlink:title="1">
<text text-anchor="middle" x="84.15" y="-211.4" font-family="Helvetica,sans-Serif" font-size="10.00" fill="#63b8ff">1</text>
</a>
</g>
</g>
<!-- dir_b74c2997ee101869ac325e0e63322356 -->
<g id="node11" class="node">
<title>dir_b74c2997ee101869ac325e0e63322356</title>
<g id="a_node11"><a xlink:href="dir_b74c2997ee101869ac325e0e63322356.html" target="_top" xlink:title="proc">
<polygon fill="#a2b4d6" stroke="#404040" points="121.38,-145.75 86.62,-145.75 86.62,-126.5 121.38,-126.5 121.38,-145.75"/>
<text text-anchor="middle" x="104" y="-132.25" font-family="Helvetica,sans-Serif" font-size="10.00">proc</text>
</a>
</g>
</g>
<!-- dir_1bef30f09c3bd1e4e4024186bdc41803&#45;&gt;dir_b74c2997ee101869ac325e0e63322356 -->
<g id="edge4" class="edge">
<title>dir_1bef30f09c3bd1e4e4024186bdc41803&#45;&gt;dir_b74c2997ee101869ac325e0e63322356</title>
<g id="a_edge4"><a xlink:href="dir_000002_000056.html" target="_top">
<path fill="none" stroke="#63b8ff" d="M55.01,-181.34C63.37,-173.8 75.5,-162.85 85.6,-153.73"/>
<polygon fill="#63b8ff" stroke="#63b8ff" points="87.94,-156.34 93.02,-147.04 83.25,-151.14 87.94,-156.34"/>
</a>
</g>
<g id="a_edge4&#45;headlabel"><a xlink:href="dir_000002_000056.html" target="_top" xlink:title="1">
<text text-anchor="middle" x="88.29" y="-155.96" font-family="Helvetica,sans-Serif" font-size="10.00" fill="#63b8ff">1</text>
</a>
</g>
</g>
<!-- dir_f5cbd4349b593bd5ea59bf7dffcf375a -->
<g id="node4" class="node">
<title>dir_f5cbd4349b593bd5ea59bf7dffcf375a</title>
<g id="a_node4"><a xlink:href="dir_f5cbd4349b593bd5ea59bf7dffcf375a.html" target="_top" xlink:title="config">
<polygon fill="#a2b4d6" stroke="#404040" points="126.12,-256.25 83.88,-256.25 83.88,-237 126.12,-237 126.12,-256.25"/>
<text text-anchor="middle" x="105" y="-242.75" font-family="Helvetica,sans-Serif" font-size="10.00">config</text>
</a>
</g>
</g>
<!-- dir_f5cbd4349b593bd5ea59bf7dffcf375a&#45;&gt;dir_f9f386f816a45f0ffce9eeb77a177fce -->
<g id="edge5" class="edge">
<title>dir_f5cbd4349b593bd5ea59bf7dffcf375a&#45;&gt;dir_f9f386f816a45f0ffce9eeb77a177fce</title>
<g id="a_edge5"><a xlink:href="dir_000020_000045.html" target="_top">
<path fill="none" stroke="#63b8ff" d="M123.24,-236.61C136.43,-229.05 153.38,-216.92 162,-201 176.13,-174.9 177.43,-87.06 177.25,-46.93"/>
<polygon fill="#63b8ff" stroke="#63b8ff" points="180.75,-47 177.17,-37.03 173.75,-47.06 180.75,-47"/>
</a>
</g>
<g id="a_edge5&#45;headlabel"><a xlink:href="dir_000020_000045.html" target="_top" xlink:title="2">
<text text-anchor="middle" x="183.61" y="-45.18" font-family="Helvetica,sans-Serif" font-size="10.00" fill="#63b8ff">2</text>
</a>
</g>
</g>
<!-- dir_5dcd48ca9f40364899464cc3f89e860e -->
<g id="node5" class="node">
<title>dir_5dcd48ca9f40364899464cc3f89e860e</title>
<g id="a_node5"><a xlink:href="dir_5dcd48ca9f40364899464cc3f89e860e.html" target="_top" xlink:title="core">
<polygon fill="#a2b4d6" stroke="#404040" points="357.38,-256.25 322.62,-256.25 322.62,-237 357.38,-237 357.38,-256.25"/>
<text text-anchor="middle" x="340" y="-242.75" font-family="Helvetica,sans-Serif" font-size="10.00">core</text>
</a>
</g>
</g>
<!-- dir_72ea8410cd25c3f19cac33d1776c95a7 -->
<g id="node6" class="node">
<title>dir_72ea8410cd25c3f19cac33d1776c95a7</title>
<g id="a_node6"><a xlink:href="dir_72ea8410cd25c3f19cac33d1776c95a7.html" target="_top" xlink:title="drivers">
<polygon fill="#a2b4d6" stroke="#404040" points="304.62,-256.25 259.38,-256.25 259.38,-237 304.62,-237 304.62,-256.25"/>
<text text-anchor="middle" x="282" y="-242.75" font-family="Helvetica,sans-Serif" font-size="10.00">drivers</text>
</a>
</g>
</g>
<!-- dir_579f575ab9bb80182679ffc66b079ac5 -->
<g id="node7" class="node">
<title>dir_579f575ab9bb80182679ffc66b079ac5</title>
<g id="a_node7"><a xlink:href="dir_579f575ab9bb80182679ffc66b079ac5.html" target="_top" xlink:title="fs">
<polygon fill="#a2b4d6" stroke="#404040" points="118.4,-90.5 89.6,-90.5 89.6,-71.25 118.4,-71.25 118.4,-90.5"/>
<text text-anchor="middle" x="104" y="-77" font-family="Helvetica,sans-Serif" font-size="10.00">fs</text>
</a>
</g>
</g>
<!-- dir_579f575ab9bb80182679ffc66b079ac5&#45;&gt;dir_f9f386f816a45f0ffce9eeb77a177fce -->
<g id="edge6" class="edge">
<title>dir_579f575ab9bb80182679ffc66b079ac5&#45;&gt;dir_f9f386f816a45f0ffce9eeb77a177fce</title>
<g id="a_edge6"><a xlink:href="dir_000035_000045.html" target="_top">
<path fill="none" stroke="#63b8ff" d="M113.28,-70.78C116.01,-68.25 119.06,-65.56 122,-63.25 131.64,-55.67 142.81,-48.03 152.56,-41.71"/>
<polygon fill="#63b8ff" stroke="#63b8ff" points="154.25,-44.79 160.81,-36.47 150.49,-38.88 154.25,-44.79"/>
</a>
</g>
<g id="a_edge6&#45;headlabel"><a xlink:href="dir_000035_000045.html" target="_top" xlink:title="2">
<text text-anchor="middle" x="154.02" y="-44.43" font-family="Helvetica,sans-Serif" font-size="10.00" fill="#63b8ff">2</text>
</a>
</g>
</g>
<!-- dir_626355b091f94f14b578c87f25101a76 -->
<g id="node8" class="node">
<title>dir_626355b091f94f14b578c87f25101a76</title>
<g id="a_node8"><a xlink:href="dir_626355b091f94f14b578c87f25101a76.html" target="_top" xlink:title="kshell">
<polygon fill="#a2b4d6" stroke="#404040" points="241.75,-256.25 200.25,-256.25 200.25,-237 241.75,-237 241.75,-256.25"/>
<text text-anchor="middle" x="221" y="-242.75" font-family="Helvetica,sans-Serif" font-size="10.00">kshell</text>
</a>
</g>
</g>
<!-- dir_626355b091f94f14b578c87f25101a76&#45;&gt;dir_f9f386f816a45f0ffce9eeb77a177fce -->
<g id="edge7" class="edge">
<title>dir_626355b091f94f14b578c87f25101a76&#45;&gt;dir_f9f386f816a45f0ffce9eeb77a177fce</title>
<g id="a_edge7"><a xlink:href="dir_000043_000045.html" target="_top">
<path fill="none" stroke="#63b8ff" d="M219.22,-236.77C212.73,-204.44 190.19,-92.28 180.98,-46.41"/>
<polygon fill="#63b8ff" stroke="#63b8ff" points="184.45,-45.95 179.05,-36.84 177.59,-47.33 184.45,-45.95"/>
</a>
</g>
<g id="a_edge7&#45;headlabel"><a xlink:href="dir_000043_000045.html" target="_top" xlink:title="1">
<text text-anchor="middle" x="187.65" y="-43.56" font-family="Helvetica,sans-Serif" font-size="10.00" fill="#63b8ff">1</text>
</a>
</g>
</g>
<!-- dir_5bbca552b03f18ea4c556679d80b42c9 -->
<g id="node9" class="node">
<title>dir_5bbca552b03f18ea4c556679d80b42c9</title>
<g id="a_node9"><a xlink:href="dir_5bbca552b03f18ea4c556679d80b42c9.html" target="_top" xlink:title="mmu">
<polygon fill="#a2b4d6" stroke="#404040" points="181.88,-256.25 144.12,-256.25 144.12,-237 181.88,-237 181.88,-256.25"/>
<text text-anchor="middle" x="163" y="-242.75" font-family="Helvetica,sans-Serif" font-size="10.00">mmu</text>
</a>
</g>
</g>
<!-- dir_0be85e67768b66452391783f935553f6 -->
<g id="node10" class="node">
<title>dir_0be85e67768b66452391783f935553f6</title>
<g id="a_node10"><a xlink:href="dir_0be85e67768b66452391783f935553f6.html" target="_top" xlink:title="net">
<polygon fill="#a2b4d6" stroke="#404040" points="404.75,-256.25 375.25,-256.25 375.25,-237 404.75,-237 404.75,-256.25"/>
<text text-anchor="middle" x="390" y="-242.75" font-family="Helvetica,sans-Serif" font-size="10.00">net</text>
</a>
</g>
</g>
<!-- dir_0be85e67768b66452391783f935553f6&#45;&gt;dir_f9f386f816a45f0ffce9eeb77a177fce -->
<g id="edge8" class="edge">
<title>dir_0be85e67768b66452391783f935553f6&#45;&gt;dir_f9f386f816a45f0ffce9eeb77a177fce</title>
<g id="a_edge8"><a xlink:href="dir_000053_000045.html" target="_top">
<path fill="none" stroke="#63b8ff" d="M381.39,-236.77C349.27,-203.75 236.16,-87.45 193.47,-43.56"/>
<polygon fill="#63b8ff" stroke="#63b8ff" points="196.02,-41.16 186.54,-36.44 191.01,-46.05 196.02,-41.16"/>
</a>
</g>
<g id="a_edge8&#45;headlabel"><a xlink:href="dir_000053_000045.html" target="_top" xlink:title="7">
<text text-anchor="middle" x="199.51" y="-36.8" font-family="Helvetica,sans-Serif" font-size="10.00" fill="#63b8ff">7</text>
</a>
</g>
</g>
<!-- dir_b74c2997ee101869ac325e0e63322356&#45;&gt;dir_f9f386f816a45f0ffce9eeb77a177fce -->
<g id="edge10" class="edge">
<title>dir_b74c2997ee101869ac325e0e63322356&#45;&gt;dir_f9f386f816a45f0ffce9eeb77a177fce</title>
<g id="a_edge10"><a xlink:href="dir_000056_000045.html" target="_top">
<path fill="none" stroke="#63b8ff" d="M109.88,-126.25C118.9,-112.66 136.72,-85.88 152,-63.25 155.98,-57.35 160.35,-50.93 164.31,-45.14"/>
<polygon fill="#63b8ff" stroke="#63b8ff" points="167.2,-47.12 169.96,-36.89 161.42,-43.16 167.2,-47.12"/>
</a>
</g>
<g id="a_edge10&#45;headlabel"><a xlink:href="dir_000056_000045.html" target="_top" xlink:title="1">
<text text-anchor="middle" x="168.36" y="-46.56" font-family="Helvetica,sans-Serif" font-size="10.00" fill="#63b8ff">1</text>
</a>
</g>
</g>
<!-- dir_b74c2997ee101869ac325e0e63322356&#45;&gt;dir_579f575ab9bb80182679ffc66b079ac5 -->
<g id="edge9" class="edge">
<title>dir_b74c2997ee101869ac325e0e63322356&#45;&gt;dir_579f575ab9bb80182679ffc66b079ac5</title>
<g id="a_edge9"><a xlink:href="dir_000056_000035.html" target="_top">
<path fill="none" stroke="#63b8ff" d="M104,-126.33C104,-119.82 104,-110.67 104,-102.37"/>
<polygon fill="#63b8ff" stroke="#63b8ff" points="107.5,-102.37 104,-92.37 100.5,-102.37 107.5,-102.37"/>
</a>
</g>
<g id="a_edge9&#45;headlabel"><a xlink:href="dir_000056_000035.html" target="_top" xlink:title="1">
<text text-anchor="middle" x="110.34" y="-100.58" font-family="Helvetica,sans-Serif" font-size="10.00" fill="#63b8ff">1</text>
</a>
</g>
</g>
<!-- dir_a0ffd90eda9fe9d19fd364f796da6911 -->
<g id="node12" class="node">
<title>dir_a0ffd90eda9fe9d19fd364f796da6911</title>
<g id="a_node12"><a xlink:href="dir_a0ffd90eda9fe9d19fd364f796da6911.html" target="_top" xlink:title="sys">
<polygon fill="#a2b4d6" stroke="#404040" points="454.88,-256.25 423.12,-256.25 423.12,-237 454.88,-237 454.88,-256.25"/>
<text text-anchor="middle" x="439" y="-242.75" font-family="Helvetica,sans-Serif" font-size="10.00">sys</text>
</a>
</g>
</g>
<!-- dir_a0ffd90eda9fe9d19fd364f796da6911&#45;&gt;dir_f9f386f816a45f0ffce9eeb77a177fce -->
<g id="edge11" class="edge">
<title>dir_a0ffd90eda9fe9d19fd364f796da6911&#45;&gt;dir_f9f386f816a45f0ffce9eeb77a177fce</title>
<g id="a_edge11"><a xlink:href="dir_000065_000045.html" target="_top">
<path fill="none" stroke="#63b8ff" d="M429.82,-236.83C401.34,-209.72 311.56,-125.51 231,-63.25 221.29,-55.74 210.12,-48.03 200.47,-41.63"/>
<polygon fill="#63b8ff" stroke="#63b8ff" points="202.65,-38.87 192.36,-36.33 198.82,-44.73 202.65,-38.87"/>
</a>
</g>
<g id="a_edge11&#45;headlabel"><a xlink:href="dir_000065_000045.html" target="_top" xlink:title="5">
<text text-anchor="middle" x="205.94" y="-33.76" font-family="Helvetica,sans-Serif" font-size="10.00" fill="#63b8ff">5</text>
</a>
</g>
</g>
</g>
</svg>
