<?xml version="1.0" encoding="UTF-8" standalone="no"?>
<!DOCTYPE svg PUBLIC "-//W3C//DTD SVG 1.1//EN"
 "http://www.w3.org/Graphics/SVG/1.1/DTD/svg11.dtd">
<!-- Generated by graphviz version 2.49.3 (20211023.0002)
 -->
<!-- Title: src/kernel/arch/aarch32 Pages: 1 -->
<svg width="470pt" height="159pt"
 viewBox="0.00 0.00 470.00 159.00" xmlns="http://www.w3.org/2000/svg" xmlns:xlink="http://www.w3.org/1999/xlink">
<g id="graph0" class="graph" transform="scale(1 1) rotate(0) translate(4 155)">
<title>src/kernel/arch/aarch32</title>
<g id="clust1" class="cluster">
<title>clusterdir_76e3dd4d2fa719e8d3b096e9aa563982</title>
<g id="a_clust1"><a xlink:href="dir_76e3dd4d2fa719e8d3b096e9aa563982.html" target="_top" xlink:title="arch">
<polygon fill="#ddddee" stroke="black" points="8,-56 8,-143 454,-143 454,-56 8,-56"/>
<text text-anchor="middle" x="231" y="-131" font-family="Helvetica,sans-Serif" font-size="10.00">arch</text>
</a>
</g>
</g>
<g id="clust2" class="cluster">
<title>clusterdir_164d9d2f5b0c525076e27a6a92d62d00</title>
<g id="a_clust2"><a xlink:href="dir_164d9d2f5b0c525076e27a6a92d62d00.html" target="_top">
<polygon fill="#eeeeff" stroke="black" points="16,-64 16,-116 446,-116 446,-64 16,-64"/>
</a>
</g>
</g>
<!-- dir_164d9d2f5b0c525076e27a6a92d62d00 -->
<g id="node1" class="node">
<title>dir_164d9d2f5b0c525076e27a6a92d62d00</title>
<text text-anchor="middle" x="411" y="-87.5" font-family="Helvetica,sans-Serif" font-size="10.00">aarch32</text>
</g>
<!-- dir_d44c64559bbebec7f509842c48db8b23 -->
<g id="node7" class="node">
<title>dir_d44c64559bbebec7f509842c48db8b23</title>
<g id="a_node7"><a xlink:href="dir_d44c64559bbebec7f509842c48db8b23.html" target="_top" xlink:title="include">
<polygon fill="none" stroke="red" points="258,-36 204,-36 204,0 258,0 258,-36"/>
<text text-anchor="middle" x="231" y="-15.5" font-family="Helvetica,sans-Serif" font-size="10.00">include</text>
</a>
</g>
</g>
<!-- dir_164d9d2f5b0c525076e27a6a92d62d00&#45;&gt;dir_d44c64559bbebec7f509842c48db8b23 -->
<g id="edge5" class="edge">
<title>dir_164d9d2f5b0c525076e27a6a92d62d00&#45;&gt;dir_d44c64559bbebec7f509842c48db8b23</title>
<path fill="none" stroke="black" d="M395.49,-71.67C389.58,-65.96 382.45,-60.04 375,-56 341.4,-37.79 298.51,-28.27 268.3,-23.47"/>
<polygon fill="black" stroke="black" points="268.59,-19.98 258.18,-21.97 267.56,-26.9 268.59,-19.98"/>
<g id="a_edge5&#45;headlabel"><a xlink:href="dir_000018_000000.html" target="_top" xlink:title="20">
<text text-anchor="middle" x="272.56" y="-15.2" font-family="Helvetica,sans-Serif" font-size="10.00">20</text>
</a>
</g>
</g>
<!-- dir_127b28394ef68d7ee8832494ea6f06dd -->
<g id="node2" class="node">
<title>dir_127b28394ef68d7ee8832494ea6f06dd</title>
<g id="a_node2"><a xlink:href="dir_127b28394ef68d7ee8832494ea6f06dd.html" target="_top" xlink:title="arch">
<polygon fill="white" stroke="black" points="366,-108 312,-108 312,-72 366,-72 366,-108"/>
<text text-anchor="middle" x="339" y="-87.5" font-family="Helvetica,sans-Serif" font-size="10.00">arch</text>
</a>
</g>
</g>
<!-- dir_127b28394ef68d7ee8832494ea6f06dd&#45;&gt;dir_d44c64559bbebec7f509842c48db8b23 -->
<g id="edge4" class="edge">
<title>dir_127b28394ef68d7ee8832494ea6f06dd&#45;&gt;dir_d44c64559bbebec7f509842c48db8b23</title>
<path fill="none" stroke="black" d="M322.22,-71.89C316.41,-66.46 309.68,-60.65 303,-56 291.99,-48.33 279.18,-41.24 267.44,-35.35"/>
<polygon fill="black" stroke="black" points="268.83,-32.14 258.31,-30.91 265.77,-38.43 268.83,-32.14"/>
<g id="a_edge4&#45;headlabel"><a xlink:href="dir_000031_000000.html" target="_top" xlink:title="6">
<text text-anchor="middle" x="273.31" y="-28.66" font-family="Helvetica,sans-Serif" font-size="10.00">6</text>
</a>
</g>
</g>
<!-- dir_8599ff620e2cfe485ca84e035b93a5ea -->
<g id="node3" class="node">
<title>dir_8599ff620e2cfe485ca84e035b93a5ea</title>
<g id="a_node3"><a xlink:href="dir_8599ff620e2cfe485ca84e035b93a5ea.html" target="_top" xlink:title="board">
<polygon fill="white" stroke="red" points="294,-108 240,-108 240,-72 294,-72 294,-108"/>
<text text-anchor="middle" x="267" y="-87.5" font-family="Helvetica,sans-Serif" font-size="10.00">board</text>
</a>
</g>
</g>
<!-- dir_8599ff620e2cfe485ca84e035b93a5ea&#45;&gt;dir_d44c64559bbebec7f509842c48db8b23 -->
<g id="edge3" class="edge">
<title>dir_8599ff620e2cfe485ca84e035b93a5ea&#45;&gt;dir_d44c64559bbebec7f509842c48db8b23</title>
<path fill="none" stroke="black" d="M258.1,-71.7C254,-63.73 249.05,-54.1 244.51,-45.26"/>
<polygon fill="black" stroke="black" points="247.48,-43.4 239.8,-36.1 241.26,-46.6 247.48,-43.4"/>
<g id="a_edge3&#45;headlabel"><a xlink:href="dir_000024_000000.html" target="_top" xlink:title="9">
<text text-anchor="middle" x="251.65" y="-42.79" font-family="Helvetica,sans-Serif" font-size="10.00">9</text>
</a>
</g>
</g>
<!-- dir_9f169674381755ff82f5c420aa567a6a -->
<g id="node4" class="node">
<title>dir_9f169674381755ff82f5c420aa567a6a</title>
<g id="a_node4"><a xlink:href="dir_9f169674381755ff82f5c420aa567a6a.html" target="_top" xlink:title="core">
<polygon fill="white" stroke="black" points="222,-108 168,-108 168,-72 222,-72 222,-108"/>
<text text-anchor="middle" x="195" y="-87.5" font-family="Helvetica,sans-Serif" font-size="10.00">core</text>
</a>
</g>
</g>
<!-- dir_9f169674381755ff82f5c420aa567a6a&#45;&gt;dir_d44c64559bbebec7f509842c48db8b23 -->
<g id="edge2" class="edge">
<title>dir_9f169674381755ff82f5c420aa567a6a&#45;&gt;dir_d44c64559bbebec7f509842c48db8b23</title>
<path fill="none" stroke="black" d="M203.9,-71.7C208,-63.73 212.95,-54.1 217.49,-45.26"/>
<polygon fill="black" stroke="black" points="220.74,-46.6 222.2,-36.1 214.52,-43.4 220.74,-46.6"/>
<g id="a_edge2&#45;headlabel"><a xlink:href="dir_000036_000000.html" target="_top" xlink:title="1">
<text text-anchor="middle" x="221.62" y="-48.59" font-family="Helvetica,sans-Serif" font-size="10.00">1</text>
</a>
</g>
</g>
<!-- dir_4af6b765c4f87f8f02f55c09da1949c7 -->
<g id="node5" class="node">
<title>dir_4af6b765c4f87f8f02f55c09da1949c7</title>
<g id="a_node5"><a xlink:href="dir_4af6b765c4f87f8f02f55c09da1949c7.html" target="_top" xlink:title="mmu">
<polygon fill="white" stroke="black" points="150,-108 96,-108 96,-72 150,-72 150,-108"/>
<text text-anchor="middle" x="123" y="-87.5" font-family="Helvetica,sans-Serif" font-size="10.00">mmu</text>
</a>
</g>
</g>
<!-- dir_4af6b765c4f87f8f02f55c09da1949c7&#45;&gt;dir_d44c64559bbebec7f509842c48db8b23 -->
<g id="edge6" class="edge">
<title>dir_4af6b765c4f87f8f02f55c09da1949c7&#45;&gt;dir_d44c64559bbebec7f509842c48db8b23</title>
<path fill="none" stroke="black" d="M139.78,-71.89C145.59,-66.46 152.32,-60.65 159,-56 170.01,-48.33 182.82,-41.24 194.56,-35.35"/>
<polygon fill="black" stroke="black" points="196.23,-38.43 203.69,-30.91 193.17,-32.14 196.23,-38.43"/>
<g id="a_edge6&#45;headlabel"><a xlink:href="dir_000037_000000.html" target="_top" xlink:title="1">
<text text-anchor="middle" x="194.24" y="-40.06" font-family="Helvetica,sans-Serif" font-size="10.00">1</text>
</a>
</g>
</g>
<!-- dir_d73a7f2c621826688c2d98a755c1a743 -->
<g id="node6" class="node">
<title>dir_d73a7f2c621826688c2d98a755c1a743</title>
<g id="a_node6"><a xlink:href="dir_d73a7f2c621826688c2d98a755c1a743.html" target="_top" xlink:title="sys">
<polygon fill="white" stroke="black" points="78,-108 24,-108 24,-72 78,-72 78,-108"/>
<text text-anchor="middle" x="51" y="-87.5" font-family="Helvetica,sans-Serif" font-size="10.00">sys</text>
</a>
</g>
</g>
<!-- dir_d73a7f2c621826688c2d98a755c1a743&#45;&gt;dir_d44c64559bbebec7f509842c48db8b23 -->
<g id="edge1" class="edge">
<title>dir_d73a7f2c621826688c2d98a755c1a743&#45;&gt;dir_d44c64559bbebec7f509842c48db8b23</title>
<path fill="none" stroke="black" d="M66.51,-71.67C72.42,-65.96 79.55,-60.04 87,-56 120.6,-37.79 163.49,-28.27 193.7,-23.47"/>
<polygon fill="black" stroke="black" points="194.44,-26.9 203.82,-21.97 193.41,-19.98 194.44,-26.9"/>
<g id="a_edge1&#45;headlabel"><a xlink:href="dir_000040_000000.html" target="_top" xlink:title="2">
<text text-anchor="middle" x="191.3" y="-27.74" font-family="Helvetica,sans-Serif" font-size="10.00">2</text>
</a>
</g>
</g>
</g>
</svg>
