<?xml version="1.0" encoding="UTF-8" standalone="no"?>
<!DOCTYPE svg PUBLIC "-//W3C//DTD SVG 1.1//EN"
 "http://www.w3.org/Graphics/SVG/1.1/DTD/svg11.dtd">
<!-- Generated by graphviz version 8.0.2 (20230410.1723)
 -->
<!-- Title: src/userland Pages: 1 -->
<svg width="986pt" height="159pt"
 viewBox="0.00 0.00 986.00 159.00" xmlns="http://www.w3.org/2000/svg" xmlns:xlink="http://www.w3.org/1999/xlink">
<g id="graph0" class="graph" transform="scale(1 1) rotate(0) translate(4 155)">
<title>src/userland</title>
<g id="clust1" class="cluster">
<title>clusterdir_68267d1309a1af8e8297ef4c3efbcdba</title>
<g id="a_clust1"><a xlink:href="dir_68267d1309a1af8e8297ef4c3efbcdba.html" target="_top" xlink:title="src">
<polygon fill="#ddddee" stroke="black" points="8,-56 8,-143 970,-143 970,-56 8,-56"/>
<text text-anchor="middle" x="489" y="-131" font-family="Helvetica,sans-Serif" font-size="10.00">src</text>
</a>
</g>
</g>
<g id="clust2" class="cluster">
<title>clusterdir_173c9e88aa581eef1e30c63858f75f59</title>
<g id="a_clust2"><a xlink:href="dir_173c9e88aa581eef1e30c63858f75f59.html" target="_top">
<polygon fill="#eeeeff" stroke="black" points="16,-64 16,-116 962,-116 962,-64 16,-64"/>
</a>
</g>
</g>
<!-- dir_173c9e88aa581eef1e30c63858f75f59 -->
<g id="node1" class="node">
<title>dir_173c9e88aa581eef1e30c63858f75f59</title>
<text text-anchor="middle" x="927" y="-87.5" font-family="Helvetica,sans-Serif" font-size="10.00">userland</text>
</g>
<!-- dir_ff40e54e40c9569df6fbe33f6c8a1bc1 -->
<g id="node2" class="node">
<title>dir_ff40e54e40c9569df6fbe33f6c8a1bc1</title>
<g id="a_node2"><a xlink:href="dir_ff40e54e40c9569df6fbe33f6c8a1bc1.html" target="_top" xlink:title="cal">
<polygon fill="white" stroke="black" points="882,-108 828,-108 828,-72 882,-72 882,-108"/>
<text text-anchor="middle" x="855" y="-87.5" font-family="Helvetica,sans-Serif" font-size="10.00">cal</text>
</a>
</g>
</g>
<!-- dir_d44c64559bbebec7f509842c48db8b23 -->
<g id="node14" class="node">
<title>dir_d44c64559bbebec7f509842c48db8b23</title>
<g id="a_node14"><a xlink:href="dir_d44c64559bbebec7f509842c48db8b23.html" target="_top" xlink:title="include">
<polygon fill="none" stroke="red" points="516,-36 462,-36 462,0 516,0 516,-36"/>
<text text-anchor="middle" x="489" y="-15.5" font-family="Helvetica,sans-Serif" font-size="10.00">include</text>
</a>
</g>
</g>
<!-- dir_ff40e54e40c9569df6fbe33f6c8a1bc1&#45;&gt;dir_d44c64559bbebec7f509842c48db8b23 -->
<g id="edge11" class="edge">
<title>dir_ff40e54e40c9569df6fbe33f6c8a1bc1&#45;&gt;dir_d44c64559bbebec7f509842c48db8b23</title>
<path fill="none" stroke="black" d="M840.49,-71.77C834.47,-65.78 827.03,-59.65 819,-56 767.77,-32.7 602.76,-23.42 527.3,-20.33"/>
<polygon fill="black" stroke="black" points="527.55,-16.79 517.42,-19.9 527.27,-23.79 527.55,-16.79"/>
<g id="a_edge11&#45;headlabel"><a xlink:href="dir_000069_000000.html" target="_top" xlink:title="4">
<text text-anchor="middle" x="530.25" y="-11.6" font-family="Helvetica,sans-Serif" font-size="10.00">4</text>
</a>
</g>
</g>
<!-- dir_e1e6baff1b46d4bfd06d3776fb6d7587 -->
<g id="node3" class="node">
<title>dir_e1e6baff1b46d4bfd06d3776fb6d7587</title>
<g id="a_node3"><a xlink:href="dir_e1e6baff1b46d4bfd06d3776fb6d7587.html" target="_top" xlink:title="cat">
<polygon fill="white" stroke="black" points="810,-108 756,-108 756,-72 810,-72 810,-108"/>
<text text-anchor="middle" x="783" y="-87.5" font-family="Helvetica,sans-Serif" font-size="10.00">cat</text>
</a>
</g>
</g>
<!-- dir_e1e6baff1b46d4bfd06d3776fb6d7587&#45;&gt;dir_d44c64559bbebec7f509842c48db8b23 -->
<g id="edge7" class="edge">
<title>dir_e1e6baff1b46d4bfd06d3776fb6d7587&#45;&gt;dir_d44c64559bbebec7f509842c48db8b23</title>
<path fill="none" stroke="black" d="M768.08,-71.56C762.12,-65.69 754.82,-59.7 747,-56 708.88,-37.95 589.49,-26.57 527.39,-21.72"/>
<polygon fill="black" stroke="black" points="527.73,-18.16 517.49,-20.89 527.2,-25.14 527.73,-18.16"/>
<g id="a_edge7&#45;headlabel"><a xlink:href="dir_000070_000000.html" target="_top" xlink:title="5">
<text text-anchor="middle" x="530.53" y="-13.1" font-family="Helvetica,sans-Serif" font-size="10.00">5</text>
</a>
</g>
</g>
<!-- dir_6b10eb6658bb42cff98abf7e4e75291f -->
<g id="node4" class="node">
<title>dir_6b10eb6658bb42cff98abf7e4e75291f</title>
<g id="a_node4"><a xlink:href="dir_6b10eb6658bb42cff98abf7e4e75291f.html" target="_top" xlink:title="clear">
<polygon fill="white" stroke="black" points="738,-108 684,-108 684,-72 738,-72 738,-108"/>
<text text-anchor="middle" x="711" y="-87.5" font-family="Helvetica,sans-Serif" font-size="10.00">clear</text>
</a>
</g>
</g>
<!-- dir_6b10eb6658bb42cff98abf7e4e75291f&#45;&gt;dir_d44c64559bbebec7f509842c48db8b23 -->
<g id="edge2" class="edge">
<title>dir_6b10eb6658bb42cff98abf7e4e75291f&#45;&gt;dir_d44c64559bbebec7f509842c48db8b23</title>
<path fill="none" stroke="black" d="M695.97,-71.79C690,-65.94 682.71,-59.91 675,-56 627.69,-32.02 566.27,-23.57 527.23,-20.6"/>
<polygon fill="black" stroke="black" points="527.57,-17.05 517.36,-19.87 527.1,-24.03 527.57,-17.05"/>
<g id="a_edge2&#45;headlabel"><a xlink:href="dir_000071_000000.html" target="_top" xlink:title="1">
<text text-anchor="middle" x="530.34" y="-11.95" font-family="Helvetica,sans-Serif" font-size="10.00">1</text>
</a>
</g>
</g>
<!-- dir_7958b23ead370ae23f6a05235dd92599 -->
<g id="node5" class="node">
<title>dir_7958b23ead370ae23f6a05235dd92599</title>
<g id="a_node5"><a xlink:href="dir_7958b23ead370ae23f6a05235dd92599.html" target="_top" xlink:title="date">
<polygon fill="white" stroke="black" points="666,-108 612,-108 612,-72 666,-72 666,-108"/>
<text text-anchor="middle" x="639" y="-87.5" font-family="Helvetica,sans-Serif" font-size="10.00">date</text>
</a>
</g>
</g>
<!-- dir_7958b23ead370ae23f6a05235dd92599&#45;&gt;dir_d44c64559bbebec7f509842c48db8b23 -->
<g id="edge3" class="edge">
<title>dir_7958b23ead370ae23f6a05235dd92599&#45;&gt;dir_d44c64559bbebec7f509842c48db8b23</title>
<path fill="none" stroke="black" d="M622.99,-71.59C617.14,-66 610.18,-60.19 603,-56 579.26,-42.16 549.67,-32.75 526.59,-26.88"/>
<polygon fill="black" stroke="black" points="527.7,-23.31 517.16,-24.36 526.05,-30.11 527.7,-23.31"/>
<g id="a_edge3&#45;headlabel"><a xlink:href="dir_000072_000000.html" target="_top" xlink:title="2">
<text text-anchor="middle" x="530.86" y="-18.9" font-family="Helvetica,sans-Serif" font-size="10.00">2</text>
</a>
</g>
</g>
<!-- dir_eb43e55597aac8a9b4d196d33ee8e0dc -->
<g id="node6" class="node">
<title>dir_eb43e55597aac8a9b4d196d33ee8e0dc</title>
<g id="a_node6"><a xlink:href="dir_eb43e55597aac8a9b4d196d33ee8e0dc.html" target="_top" xlink:title="hostname">
<polygon fill="white" stroke="black" points="593.5,-108 534.5,-108 534.5,-72 593.5,-72 593.5,-108"/>
<text text-anchor="middle" x="564" y="-87.5" font-family="Helvetica,sans-Serif" font-size="10.00">hostname</text>
</a>
</g>
</g>
<!-- dir_eb43e55597aac8a9b4d196d33ee8e0dc&#45;&gt;dir_d44c64559bbebec7f509842c48db8b23 -->
<g id="edge9" class="edge">
<title>dir_eb43e55597aac8a9b4d196d33ee8e0dc&#45;&gt;dir_d44c64559bbebec7f509842c48db8b23</title>
<path fill="none" stroke="black" d="M545.46,-71.7C536.45,-63.28 525.45,-53.02 515.56,-43.79"/>
<polygon fill="black" stroke="black" points="518.28,-41.61 508.59,-37.35 513.51,-46.73 518.28,-41.61"/>
<g id="a_edge9&#45;headlabel"><a xlink:href="dir_000073_000000.html" target="_top" xlink:title="5">
<text text-anchor="middle" x="521.85" y="-38.49" font-family="Helvetica,sans-Serif" font-size="10.00">5</text>
</a>
</g>
</g>
<!-- dir_c3d47065b72cafd3fddb954266dfcaab -->
<g id="node7" class="node">
<title>dir_c3d47065b72cafd3fddb954266dfcaab</title>
<g id="a_node7"><a xlink:href="dir_c3d47065b72cafd3fddb954266dfcaab.html" target="_top" xlink:title="init">
<polygon fill="white" stroke="black" points="516,-108 462,-108 462,-72 516,-72 516,-108"/>
<text text-anchor="middle" x="489" y="-87.5" font-family="Helvetica,sans-Serif" font-size="10.00">init</text>
</a>
</g>
</g>
<!-- dir_c3d47065b72cafd3fddb954266dfcaab&#45;&gt;dir_d44c64559bbebec7f509842c48db8b23 -->
<g id="edge6" class="edge">
<title>dir_c3d47065b72cafd3fddb954266dfcaab&#45;&gt;dir_d44c64559bbebec7f509842c48db8b23</title>
<path fill="none" stroke="black" d="M489,-71.7C489,-64.24 489,-55.32 489,-46.97"/>
<polygon fill="black" stroke="black" points="492.5,-47.1 489,-37.1 485.5,-47.1 492.5,-47.1"/>
<g id="a_edge6&#45;headlabel"><a xlink:href="dir_000036_000000.html" target="_top" xlink:title="3">
<text text-anchor="middle" x="495.34" y="-47.2" font-family="Helvetica,sans-Serif" font-size="10.00">3</text>
</a>
</g>
</g>
<!-- dir_ea273b443b966abbebf68ac90005349e -->
<g id="node8" class="node">
<title>dir_ea273b443b966abbebf68ac90005349e</title>
<g id="a_node8"><a xlink:href="dir_ea273b443b966abbebf68ac90005349e.html" target="_top" xlink:title="meminfo">
<polygon fill="white" stroke="black" points="444,-108 390,-108 390,-72 444,-72 444,-108"/>
<text text-anchor="middle" x="417" y="-87.5" font-family="Helvetica,sans-Serif" font-size="10.00">meminfo</text>
</a>
</g>
</g>
<!-- dir_ea273b443b966abbebf68ac90005349e&#45;&gt;dir_d44c64559bbebec7f509842c48db8b23 -->
<g id="edge8" class="edge">
<title>dir_ea273b443b966abbebf68ac90005349e&#45;&gt;dir_d44c64559bbebec7f509842c48db8b23</title>
<path fill="none" stroke="black" d="M434.8,-71.7C443.45,-63.28 454.01,-53.02 463.5,-43.79"/>
<polygon fill="black" stroke="black" points="465.43,-46.83 470.16,-37.35 460.55,-41.81 465.43,-46.83"/>
<g id="a_edge8&#45;headlabel"><a xlink:href="dir_000074_000000.html" target="_top" xlink:title="5">
<text text-anchor="middle" x="465.83" y="-47.87" font-family="Helvetica,sans-Serif" font-size="10.00">5</text>
</a>
</g>
</g>
<!-- dir_3481310df4fd510591ecbb734fa3af1c -->
<g id="node9" class="node">
<title>dir_3481310df4fd510591ecbb734fa3af1c</title>
<g id="a_node9"><a xlink:href="dir_3481310df4fd510591ecbb734fa3af1c.html" target="_top" xlink:title="noop">
<polygon fill="white" stroke="black" points="372,-108 318,-108 318,-72 372,-72 372,-108"/>
<text text-anchor="middle" x="345" y="-87.5" font-family="Helvetica,sans-Serif" font-size="10.00">noop</text>
</a>
</g>
</g>
<!-- dir_8188d2403f8782d47de5ea4ccc1ebd5f -->
<g id="node10" class="node">
<title>dir_8188d2403f8782d47de5ea4ccc1ebd5f</title>
<g id="a_node10"><a xlink:href="dir_8188d2403f8782d47de5ea4ccc1ebd5f.html" target="_top" xlink:title="shell">
<polygon fill="white" stroke="black" points="300,-108 246,-108 246,-72 300,-72 300,-108"/>
<text text-anchor="middle" x="273" y="-87.5" font-family="Helvetica,sans-Serif" font-size="10.00">shell</text>
</a>
</g>
</g>
<!-- dir_8188d2403f8782d47de5ea4ccc1ebd5f&#45;&gt;dir_d44c64559bbebec7f509842c48db8b23 -->
<g id="edge4" class="edge">
<title>dir_8188d2403f8782d47de5ea4ccc1ebd5f&#45;&gt;dir_d44c64559bbebec7f509842c48db8b23</title>
<path fill="none" stroke="black" d="M288.05,-71.81C294.02,-65.97 301.3,-59.93 309,-56 354.38,-32.81 413.21,-24.16 451.03,-20.93"/>
<polygon fill="black" stroke="black" points="450.88,-24.37 460.59,-20.12 450.35,-17.39 450.88,-24.37"/>
<g id="a_edge4&#45;headlabel"><a xlink:href="dir_000067_000000.html" target="_top" xlink:title="17">
<text text-anchor="middle" x="448.52" y="-24.98" font-family="Helvetica,sans-Serif" font-size="10.00">17</text>
</a>
</g>
</g>
<!-- dir_fc871caaf90a108feaa87099fb59ff14 -->
<g id="node11" class="node">
<title>dir_fc871caaf90a108feaa87099fb59ff14</title>
<g id="a_node11"><a xlink:href="dir_fc871caaf90a108feaa87099fb59ff14.html" target="_top" xlink:title="testsuite">
<polygon fill="white" stroke="black" points="228,-108 174,-108 174,-72 228,-72 228,-108"/>
<text text-anchor="middle" x="201" y="-87.5" font-family="Helvetica,sans-Serif" font-size="10.00">testsuite</text>
</a>
</g>
</g>
<!-- dir_fc871caaf90a108feaa87099fb59ff14&#45;&gt;dir_d44c64559bbebec7f509842c48db8b23 -->
<g id="edge10" class="edge">
<title>dir_fc871caaf90a108feaa87099fb59ff14&#45;&gt;dir_d44c64559bbebec7f509842c48db8b23</title>
<path fill="none" stroke="black" d="M215.93,-71.57C221.89,-65.71 229.19,-59.71 237,-56 274.12,-38.35 390.25,-26.82 451.04,-21.83"/>
<polygon fill="black" stroke="black" points="451.03,-25.26 460.71,-20.98 450.47,-18.29 451.03,-25.26"/>
<g id="a_edge10&#45;headlabel"><a xlink:href="dir_000076_000000.html" target="_top" xlink:title="5">
<text text-anchor="middle" x="448.67" y="-25.88" font-family="Helvetica,sans-Serif" font-size="10.00">5</text>
</a>
</g>
</g>
<!-- dir_580ecf3b0494669f5045460edd2f65b6 -->
<g id="node12" class="node">
<title>dir_580ecf3b0494669f5045460edd2f65b6</title>
<g id="a_node12"><a xlink:href="dir_580ecf3b0494669f5045460edd2f65b6.html" target="_top" xlink:title="udp&#45;client">
<polygon fill="white" stroke="black" points="155.5,-108 96.5,-108 96.5,-72 155.5,-72 155.5,-108"/>
<text text-anchor="middle" x="126" y="-87.5" font-family="Helvetica,sans-Serif" font-size="10.00">udp&#45;client</text>
</a>
</g>
</g>
<!-- dir_580ecf3b0494669f5045460edd2f65b6&#45;&gt;dir_d44c64559bbebec7f509842c48db8b23 -->
<g id="edge1" class="edge">
<title>dir_580ecf3b0494669f5045460edd2f65b6&#45;&gt;dir_d44c64559bbebec7f509842c48db8b23</title>
<path fill="none" stroke="black" d="M141.97,-71.78C148.51,-65.79 156.53,-59.66 165,-56 215.67,-34.1 377.12,-24.1 451.2,-20.57"/>
<polygon fill="black" stroke="black" points="451.06,-24.04 460.89,-20.08 450.74,-17.04 451.06,-24.04"/>
<g id="a_edge1&#45;headlabel"><a xlink:href="dir_000077_000000.html" target="_top" xlink:title="5">
<text text-anchor="middle" x="448.6" y="-24.54" font-family="Helvetica,sans-Serif" font-size="10.00">5</text>
</a>
</g>
</g>
<!-- dir_a399c65094449806f3301ab00825c20b -->
<g id="node13" class="node">
<title>dir_a399c65094449806f3301ab00825c20b</title>
<g id="a_node13"><a xlink:href="dir_a399c65094449806f3301ab00825c20b.html" target="_top" xlink:title="uptime">
<polygon fill="white" stroke="black" points="78,-108 24,-108 24,-72 78,-72 78,-108"/>
<text text-anchor="middle" x="51" y="-87.5" font-family="Helvetica,sans-Serif" font-size="10.00">uptime</text>
</a>
</g>
</g>
<!-- dir_a399c65094449806f3301ab00825c20b&#45;&gt;dir_d44c64559bbebec7f509842c48db8b23 -->
<g id="edge5" class="edge">
<title>dir_a399c65094449806f3301ab00825c20b&#45;&gt;dir_d44c64559bbebec7f509842c48db8b23</title>
<path fill="none" stroke="black" d="M65.96,-71.69C72.15,-65.69 79.79,-59.57 88,-56 152.5,-27.95 363.34,-21.14 450.63,-19.5"/>
<polygon fill="black" stroke="black" points="450.68,-22.99 460.61,-19.31 450.56,-15.99 450.68,-22.99"/>
<g id="a_edge5&#45;headlabel"><a xlink:href="dir_000078_000000.html" target="_top" xlink:title="5">
<text text-anchor="middle" x="448.13" y="-23.39" font-family="Helvetica,sans-Serif" font-size="10.00">5</text>
</a>
</g>
</g>
</g>
</svg>
