<?xml version="1.0" encoding="UTF-8" standalone="no"?>
<!DOCTYPE svg PUBLIC "-//W3C//DTD SVG 1.1//EN"
 "http://www.w3.org/Graphics/SVG/1.1/DTD/svg11.dtd">
<!-- Generated by graphviz version 2.49.3 (20211023.0002)
 -->
<!-- Title: src/kernel/arch/aarch64 Pages: 1 -->
<svg width="398pt" height="159pt"
 viewBox="0.00 0.00 398.00 159.00" xmlns="http://www.w3.org/2000/svg" xmlns:xlink="http://www.w3.org/1999/xlink">
<g id="graph0" class="graph" transform="scale(1 1) rotate(0) translate(4 155)">
<title>src/kernel/arch/aarch64</title>
<g id="clust1" class="cluster">
<title>clusterdir_76e3dd4d2fa719e8d3b096e9aa563982</title>
<g id="a_clust1"><a xlink:href="dir_76e3dd4d2fa719e8d3b096e9aa563982.html" target="_top" xlink:title="arch">
<polygon fill="#ddddee" stroke="black" points="8,-56 8,-143 382,-143 382,-56 8,-56"/>
<text text-anchor="middle" x="195" y="-131" font-family="Helvetica,sans-Serif" font-size="10.00">arch</text>
</a>
</g>
</g>
<g id="clust2" class="cluster">
<title>clusterdir_0acad8e611f5f3679e26f7f6ddf45d1c</title>
<g id="a_clust2"><a xlink:href="dir_0acad8e611f5f3679e26f7f6ddf45d1c.html" target="_top">
<polygon fill="#eeeeff" stroke="black" points="16,-64 16,-116 374,-116 374,-64 16,-64"/>
</a>
</g>
</g>
<!-- dir_0acad8e611f5f3679e26f7f6ddf45d1c -->
<g id="node1" class="node">
<title>dir_0acad8e611f5f3679e26f7f6ddf45d1c</title>
<text text-anchor="middle" x="339" y="-87.5" font-family="Helvetica,sans-Serif" font-size="10.00">aarch64</text>
</g>
<!-- dir_922e4240191c9342efc227a45e56af96 -->
<g id="node2" class="node">
<title>dir_922e4240191c9342efc227a45e56af96</title>
<g id="a_node2"><a xlink:href="dir_922e4240191c9342efc227a45e56af96.html" target="_top" xlink:title="arch">
<polygon fill="white" stroke="black" points="294,-108 240,-108 240,-72 294,-72 294,-108"/>
<text text-anchor="middle" x="267" y="-87.5" font-family="Helvetica,sans-Serif" font-size="10.00">arch</text>
</a>
</g>
</g>
<!-- dir_d44c64559bbebec7f509842c48db8b23 -->
<g id="node6" class="node">
<title>dir_d44c64559bbebec7f509842c48db8b23</title>
<g id="a_node6"><a xlink:href="dir_d44c64559bbebec7f509842c48db8b23.html" target="_top" xlink:title="include">
<polygon fill="none" stroke="red" points="222,-36 168,-36 168,0 222,0 222,-36"/>
<text text-anchor="middle" x="195" y="-15.5" font-family="Helvetica,sans-Serif" font-size="10.00">include</text>
</a>
</g>
</g>
<!-- dir_922e4240191c9342efc227a45e56af96&#45;&gt;dir_d44c64559bbebec7f509842c48db8b23 -->
<g id="edge2" class="edge">
<title>dir_922e4240191c9342efc227a45e56af96&#45;&gt;dir_d44c64559bbebec7f509842c48db8b23</title>
<path fill="none" stroke="black" d="M249.2,-71.7C240.4,-63.14 229.62,-52.66 220,-43.3"/>
<polygon fill="black" stroke="black" points="222.2,-40.57 212.59,-36.1 217.32,-45.58 222.2,-40.57"/>
<g id="a_edge2&#45;headlabel"><a xlink:href="dir_000036_000000.html" target="_top" xlink:title="10">
<text text-anchor="middle" x="226.76" y="-38.54" font-family="Helvetica,sans-Serif" font-size="10.00">10</text>
</a>
</g>
</g>
<!-- dir_b30df4826c7011c0e76e14e84665bb61 -->
<g id="node3" class="node">
<title>dir_b30df4826c7011c0e76e14e84665bb61</title>
<g id="a_node3"><a xlink:href="dir_b30df4826c7011c0e76e14e84665bb61.html" target="_top" xlink:title="board">
<polygon fill="white" stroke="red" points="222,-108 168,-108 168,-72 222,-72 222,-108"/>
<text text-anchor="middle" x="195" y="-87.5" font-family="Helvetica,sans-Serif" font-size="10.00">board</text>
</a>
</g>
</g>
<!-- dir_b30df4826c7011c0e76e14e84665bb61&#45;&gt;dir_d44c64559bbebec7f509842c48db8b23 -->
<g id="edge3" class="edge">
<title>dir_b30df4826c7011c0e76e14e84665bb61&#45;&gt;dir_d44c64559bbebec7f509842c48db8b23</title>
<path fill="none" stroke="black" d="M195,-71.7C195,-63.98 195,-54.71 195,-46.11"/>
<polygon fill="black" stroke="black" points="198.5,-46.1 195,-36.1 191.5,-46.1 198.5,-46.1"/>
<g id="a_edge3&#45;headlabel"><a xlink:href="dir_000030_000000.html" target="_top" xlink:title="15">
<text text-anchor="middle" x="201.34" y="-47.2" font-family="Helvetica,sans-Serif" font-size="10.00">15</text>
</a>
</g>
</g>
<!-- dir_c99d3106865f5fbeed45a494138d8e38 -->
<g id="node4" class="node">
<title>dir_c99d3106865f5fbeed45a494138d8e38</title>
<g id="a_node4"><a xlink:href="dir_c99d3106865f5fbeed45a494138d8e38.html" target="_top" xlink:title="core">
<polygon fill="white" stroke="black" points="150,-108 96,-108 96,-72 150,-72 150,-108"/>
<text text-anchor="middle" x="123" y="-87.5" font-family="Helvetica,sans-Serif" font-size="10.00">core</text>
</a>
</g>
</g>
<!-- dir_0f827869332299a842b5a35094de2ac5 -->
<g id="node5" class="node">
<title>dir_0f827869332299a842b5a35094de2ac5</title>
<g id="a_node5"><a xlink:href="dir_0f827869332299a842b5a35094de2ac5.html" target="_top" xlink:title="sys">
<polygon fill="white" stroke="black" points="78,-108 24,-108 24,-72 78,-72 78,-108"/>
<text text-anchor="middle" x="51" y="-87.5" font-family="Helvetica,sans-Serif" font-size="10.00">sys</text>
</a>
</g>
</g>
<!-- dir_0f827869332299a842b5a35094de2ac5&#45;&gt;dir_d44c64559bbebec7f509842c48db8b23 -->
<g id="edge1" class="edge">
<title>dir_0f827869332299a842b5a35094de2ac5&#45;&gt;dir_d44c64559bbebec7f509842c48db8b23</title>
<path fill="none" stroke="black" d="M66.69,-72C72.62,-66.31 79.71,-60.33 87,-56 109.07,-42.89 136.44,-33.58 158.11,-27.57"/>
<polygon fill="black" stroke="black" points="159.16,-30.92 167.93,-24.97 157.37,-24.15 159.16,-30.92"/>
<g id="a_edge1&#45;headlabel"><a xlink:href="dir_000047_000000.html" target="_top" xlink:title="3">
<text text-anchor="middle" x="156.42" y="-32.08" font-family="Helvetica,sans-Serif" font-size="10.00">3</text>
</a>
</g>
</g>
</g>
</svg>
