<?xml version="1.0" encoding="UTF-8" standalone="no"?>
<!DOCTYPE svg PUBLIC "-//W3C//DTD SVG 1.1//EN"
 "http://www.w3.org/Graphics/SVG/1.1/DTD/svg11.dtd">
<!-- Generated by graphviz version 2.50.0 (20211204.2007)
 -->
<!-- Title: src/kernel/arch/aarch32/board/licheepi&#45;nano Pages: 1 -->
<svg width="346pt" height="159pt"
 viewBox="0.00 0.00 346.00 159.00" xmlns="http://www.w3.org/2000/svg" xmlns:xlink="http://www.w3.org/1999/xlink">
<g id="graph0" class="graph" transform="scale(1 1) rotate(0) translate(4 155)">
<title>src/kernel/arch/aarch32/board/licheepi&#45;nano</title>
<g id="clust1" class="cluster">
<title>clusterdir_8599ff620e2cfe485ca84e035b93a5ea</title>
<g id="a_clust1"><a xlink:href="dir_8599ff620e2cfe485ca84e035b93a5ea.html" target="_top" xlink:title="board">
<polygon fill="#edf0f7" stroke="#7f7f7f" stroke-dasharray="5,2" points="8,-56 8,-143 330,-143 330,-56 8,-56"/>
<text text-anchor="middle" x="169" y="-131" font-family="Helvetica,sans-Serif" font-size="10.00">board</text>
</a>
</g>
</g>
<g id="clust2" class="cluster">
<title>clusterdir_a7ee6c9298091a0c54a173c0e72c7899</title>
<g id="a_clust2"><a xlink:href="dir_a7ee6c9298091a0c54a173c0e72c7899.html" target="_top">
<polygon fill="#edf0f7" stroke="#404040" stroke-width="2" points="16,-64 16,-116 322,-116 322,-64 16,-64"/>
</a>
</g>
</g>
<!-- dir_a7ee6c9298091a0c54a173c0e72c7899 -->
<g id="node1" class="node">
<title>dir_a7ee6c9298091a0c54a173c0e72c7899</title>
<text text-anchor="middle" x="277" y="-87.5" font-family="Helvetica,sans-Serif" font-size="10.00">licheepi&#45;nano</text>
</g>
<!-- dir_d44c64559bbebec7f509842c48db8b23 -->
<g id="node5" class="node">
<title>dir_d44c64559bbebec7f509842c48db8b23</title>
<g id="a_node5"><a xlink:href="dir_d44c64559bbebec7f509842c48db8b23.html" target="_top" xlink:title="include">
<polygon fill="none" stroke="red" points="186,-36 132,-36 132,0 186,0 186,-36"/>
<text text-anchor="middle" x="159" y="-15.5" font-family="Helvetica,sans-Serif" font-size="10.00">include</text>
</a>
</g>
</g>
<!-- dir_a7ee6c9298091a0c54a173c0e72c7899&#45;&gt;dir_d44c64559bbebec7f509842c48db8b23 -->
<g id="edge1" class="edge">
<title>dir_a7ee6c9298091a0c54a173c0e72c7899&#45;&gt;dir_d44c64559bbebec7f509842c48db8b23</title>
<path fill="none" stroke="black" d="M254.52,-71.87C247.18,-66.55 238.88,-60.82 231,-56 219.64,-49.06 206.84,-42.19 195.21,-36.29"/>
<polygon fill="black" stroke="black" points="196.7,-33.12 186.19,-31.79 193.57,-39.39 196.7,-33.12"/>
<g id="a_edge1&#45;headlabel"><a xlink:href="dir_000050_000042.html" target="_top" xlink:title="15">
<text text-anchor="middle" x="201.18" y="-29.69" font-family="Helvetica,sans-Serif" font-size="10.00">15</text>
</a>
</g>
</g>
<!-- dir_0360dfcbdb2a59b61c3f0b17d4465893 -->
<g id="node2" class="node">
<title>dir_0360dfcbdb2a59b61c3f0b17d4465893</title>
<g id="a_node2"><a xlink:href="dir_0360dfcbdb2a59b61c3f0b17d4465893.html" target="_top" xlink:title="arch">
<polygon fill="#a2b4d6" stroke="#404040" points="222,-108 168,-108 168,-72 222,-72 222,-108"/>
<text text-anchor="middle" x="195" y="-87.5" font-family="Helvetica,sans-Serif" font-size="10.00">arch</text>
</a>
</g>
</g>
<!-- dir_0360dfcbdb2a59b61c3f0b17d4465893&#45;&gt;dir_d44c64559bbebec7f509842c48db8b23 -->
<g id="edge2" class="edge">
<title>dir_0360dfcbdb2a59b61c3f0b17d4465893&#45;&gt;dir_d44c64559bbebec7f509842c48db8b23</title>
<path fill="none" stroke="black" d="M186.1,-71.7C182,-63.73 177.05,-54.1 172.51,-45.26"/>
<polygon fill="black" stroke="black" points="175.48,-43.4 167.8,-36.1 169.26,-46.6 175.48,-43.4"/>
<g id="a_edge2&#45;headlabel"><a xlink:href="dir_000005_000042.html" target="_top" xlink:title="8">
<text text-anchor="middle" x="179.65" y="-42.79" font-family="Helvetica,sans-Serif" font-size="10.00">8</text>
</a>
</g>
</g>
<!-- dir_e692e62e9b0e641e01810cc888559dee -->
<g id="node3" class="node">
<title>dir_e692e62e9b0e641e01810cc888559dee</title>
<g id="a_node3"><a xlink:href="dir_e692e62e9b0e641e01810cc888559dee.html" target="_top" xlink:title="core">
<polygon fill="#a2b4d6" stroke="#404040" points="150,-108 96,-108 96,-72 150,-72 150,-108"/>
<text text-anchor="middle" x="123" y="-87.5" font-family="Helvetica,sans-Serif" font-size="10.00">core</text>
</a>
</g>
</g>
<!-- dir_e692e62e9b0e641e01810cc888559dee&#45;&gt;dir_d44c64559bbebec7f509842c48db8b23 -->
<g id="edge3" class="edge">
<title>dir_e692e62e9b0e641e01810cc888559dee&#45;&gt;dir_d44c64559bbebec7f509842c48db8b23</title>
<path fill="none" stroke="black" d="M131.9,-71.7C136,-63.73 140.95,-54.1 145.49,-45.26"/>
<polygon fill="black" stroke="black" points="148.74,-46.6 150.2,-36.1 142.52,-43.4 148.74,-46.6"/>
<g id="a_edge3&#45;headlabel"><a xlink:href="dir_000025_000042.html" target="_top" xlink:title="1">
<text text-anchor="middle" x="149.62" y="-48.59" font-family="Helvetica,sans-Serif" font-size="10.00">1</text>
</a>
</g>
</g>
<!-- dir_37cf210b5e2517fc989d9aa303895f36 -->
<g id="node4" class="node">
<title>dir_37cf210b5e2517fc989d9aa303895f36</title>
<g id="a_node4"><a xlink:href="dir_37cf210b5e2517fc989d9aa303895f36.html" target="_top" xlink:title="drivers">
<polygon fill="#a2b4d6" stroke="#404040" points="78,-108 24,-108 24,-72 78,-72 78,-108"/>
<text text-anchor="middle" x="51" y="-87.5" font-family="Helvetica,sans-Serif" font-size="10.00">drivers</text>
</a>
</g>
</g>
<!-- dir_37cf210b5e2517fc989d9aa303895f36&#45;&gt;dir_d44c64559bbebec7f509842c48db8b23 -->
<g id="edge4" class="edge">
<title>dir_37cf210b5e2517fc989d9aa303895f36&#45;&gt;dir_d44c64559bbebec7f509842c48db8b23</title>
<path fill="none" stroke="black" d="M67.78,-71.89C73.59,-66.46 80.32,-60.65 87,-56 98.01,-48.33 110.82,-41.24 122.56,-35.35"/>
<polygon fill="black" stroke="black" points="124.23,-38.43 131.69,-30.91 121.17,-32.14 124.23,-38.43"/>
<g id="a_edge4&#45;headlabel"><a xlink:href="dir_000035_000042.html" target="_top" xlink:title="2">
<text text-anchor="middle" x="122.24" y="-40.06" font-family="Helvetica,sans-Serif" font-size="10.00">2</text>
</a>
</g>
</g>
</g>
</svg>
