<?xml version="1.0" encoding="UTF-8" standalone="no"?>
<!DOCTYPE svg PUBLIC "-//W3C//DTD SVG 1.1//EN"
 "http://www.w3.org/Graphics/SVG/1.1/DTD/svg11.dtd">
<!-- Generated by graphviz version 2.49.3 (20211023.0002)
 -->
<!-- Title: include/kernel/net/dns.h Pages: 1 -->
<svg width="317pt" height="375pt"
 viewBox="0.00 0.00 316.50 375.00" xmlns="http://www.w3.org/2000/svg" xmlns:xlink="http://www.w3.org/1999/xlink">
<g id="graph0" class="graph" transform="scale(1 1) rotate(0) translate(4 371)">
<title>include/kernel/net/dns.h</title>
<!-- Node1 -->
<g id="node1" class="node">
<title>Node1</title>
<g id="a_node1"><a xlink:title=" ">
<polygon fill="#bfbfbf" stroke="black" points="109,-336.5 109,-366.5 204,-366.5 204,-336.5 109,-336.5"/>
<text text-anchor="start" x="117" y="-354.5" font-family="Helvetica,sans-Serif" font-size="10.00">include/kernel/net</text>
<text text-anchor="middle" x="156.5" y="-343.5" font-family="Helvetica,sans-Serif" font-size="10.00">/dns.h</text>
</a>
</g>
</g>
<!-- Node2 -->
<g id="node2" class="node">
<title>Node2</title>
<g id="a_node2"><a xlink:href="net_8h.html" target="_top" xlink:title="This module defines network interfaces and drivers.">
<polygon fill="none" stroke="black" points="21,-168.5 21,-187.5 76,-187.5 76,-168.5 21,-168.5"/>
<text text-anchor="middle" x="48.5" y="-175.5" font-family="Helvetica,sans-Serif" font-size="10.00">net/net.h</text>
</a>
</g>
</g>
<!-- Node1&#45;&gt;Node2 -->
<g id="edge1" class="edge">
<title>Node1&#45;&gt;Node2</title>
<path fill="none" stroke="midnightblue" d="M141.88,-336.28C122.8,-316.99 89.48,-280.69 69.5,-244 61.52,-229.35 55.97,-211.19 52.59,-197.78"/>
<polygon fill="midnightblue" stroke="midnightblue" points="55.95,-196.76 50.25,-187.83 49.13,-198.36 55.95,-196.76"/>
</g>
<!-- Node5 -->
<g id="node5" class="node">
<title>Node5</title>
<g id="a_node5"><a xlink:href="udp_8h.html" target="_top" xlink:title=" ">
<polygon fill="none" stroke="black" points="127.5,-280.5 127.5,-299.5 185.5,-299.5 185.5,-280.5 127.5,-280.5"/>
<text text-anchor="middle" x="156.5" y="-287.5" font-family="Helvetica,sans-Serif" font-size="10.00">net/udp.h</text>
</a>
</g>
</g>
<!-- Node1&#45;&gt;Node5 -->
<g id="edge4" class="edge">
<title>Node1&#45;&gt;Node5</title>
<path fill="none" stroke="midnightblue" d="M156.5,-336.4C156.5,-328.47 156.5,-318.46 156.5,-309.86"/>
<polygon fill="midnightblue" stroke="midnightblue" points="160,-309.66 156.5,-299.66 153,-309.66 160,-309.66"/>
</g>
<!-- Node8 -->
<g id="node8" class="node">
<title>Node8</title>
<g id="a_node8"><a xlink:href="types_8h.html" target="_top" xlink:title=" ">
<polygon fill="none" stroke="black" points="135,-56.5 135,-75.5 202,-75.5 202,-56.5 135,-56.5"/>
<text text-anchor="middle" x="168.5" y="-63.5" font-family="Helvetica,sans-Serif" font-size="10.00">sys/types.h</text>
</a>
</g>
</g>
<!-- Node1&#45;&gt;Node8 -->
<g id="edge18" class="edge">
<title>Node1&#45;&gt;Node8</title>
<path fill="none" stroke="midnightblue" d="M204.18,-336.48C248.75,-320.09 308.5,-288.19 308.5,-235 308.5,-235 308.5,-235 308.5,-177 308.5,-125.35 248.85,-94.26 207.42,-78.9"/>
<polygon fill="midnightblue" stroke="midnightblue" points="208.44,-75.54 197.85,-75.5 206.1,-82.14 208.44,-75.54"/>
</g>
<!-- Node3 -->
<g id="node3" class="node">
<title>Node3</title>
<g id="a_node3"><a xlink:title=" ">
<polygon fill="none" stroke="#bfbfbf" points="0,-0.5 0,-19.5 57,-19.5 57,-0.5 0,-0.5"/>
<text text-anchor="middle" x="28.5" y="-7.5" font-family="Helvetica,sans-Serif" font-size="10.00">stdbool.h</text>
</a>
</g>
</g>
<!-- Node2&#45;&gt;Node3 -->
<g id="edge2" class="edge">
<title>Node2&#45;&gt;Node3</title>
<path fill="none" stroke="midnightblue" d="M47.42,-168.08C44.28,-141.95 35.03,-65.21 30.74,-29.58"/>
<polygon fill="midnightblue" stroke="midnightblue" points="34.2,-29.08 29.53,-19.57 27.25,-29.92 34.2,-29.08"/>
</g>
<!-- Node4 -->
<g id="node4" class="node">
<title>Node4</title>
<g id="a_node4"><a xlink:title=" ">
<polygon fill="none" stroke="#bfbfbf" points="75,-0.5 75,-19.5 124,-19.5 124,-0.5 75,-0.5"/>
<text text-anchor="middle" x="99.5" y="-7.5" font-family="Helvetica,sans-Serif" font-size="10.00">stdint.h</text>
</a>
</g>
</g>
<!-- Node2&#45;&gt;Node4 -->
<g id="edge3" class="edge">
<title>Node2&#45;&gt;Node4</title>
<path fill="none" stroke="midnightblue" d="M51.24,-168.08C59.27,-141.95 82.84,-65.21 93.79,-29.58"/>
<polygon fill="midnightblue" stroke="midnightblue" points="97.28,-30.16 96.87,-19.57 90.59,-28.1 97.28,-30.16"/>
</g>
<!-- Node5&#45;&gt;Node2 -->
<g id="edge16" class="edge">
<title>Node5&#45;&gt;Node2</title>
<path fill="none" stroke="midnightblue" d="M139.36,-280.41C124.63,-272.43 103.46,-259.46 88.5,-244 75.01,-230.05 63.86,-210.79 56.79,-196.86"/>
<polygon fill="midnightblue" stroke="midnightblue" points="59.91,-195.27 52.39,-187.81 53.62,-198.33 59.91,-195.27"/>
</g>
<!-- Node6 -->
<g id="node6" class="node">
<title>Node6</title>
<g id="a_node6"><a xlink:href="inet_8h.html" target="_top" xlink:title=" ">
<polygon fill="none" stroke="black" points="144.5,-168.5 144.5,-187.5 208.5,-187.5 208.5,-168.5 144.5,-168.5"/>
<text text-anchor="middle" x="176.5" y="-175.5" font-family="Helvetica,sans-Serif" font-size="10.00">arpa/inet.h</text>
</a>
</g>
</g>
<!-- Node5&#45;&gt;Node6 -->
<g id="edge5" class="edge">
<title>Node5&#45;&gt;Node6</title>
<path fill="none" stroke="midnightblue" d="M158.59,-280.41C160.74,-271.38 164.11,-256.74 166.5,-244 169.4,-228.55 172.07,-210.92 173.93,-197.92"/>
<polygon fill="midnightblue" stroke="midnightblue" points="177.41,-198.25 175.33,-187.86 170.48,-197.28 177.41,-198.25"/>
</g>
<!-- Node5&#45;&gt;Node8 -->
<g id="edge17" class="edge">
<title>Node5&#45;&gt;Node8</title>
<path fill="none" stroke="midnightblue" d="M163.18,-280.36C175.82,-263.56 203.25,-224.88 217.5,-188 226.64,-164.34 226.04,-157.25 228.5,-132 229.36,-123.15 232.48,-119.95 228.5,-112 221.77,-98.54 208.89,-88.07 196.79,-80.62"/>
<polygon fill="midnightblue" stroke="midnightblue" points="198.22,-77.41 187.8,-75.52 194.77,-83.5 198.22,-77.41"/>
</g>
<!-- Node10 -->
<g id="node10" class="node">
<title>Node10</title>
<g id="a_node10"><a xlink:href="ipv4_8h.html" target="_top" xlink:title=" ">
<polygon fill="none" stroke="black" points="97.5,-224.5 97.5,-243.5 157.5,-243.5 157.5,-224.5 97.5,-224.5"/>
<text text-anchor="middle" x="127.5" y="-231.5" font-family="Helvetica,sans-Serif" font-size="10.00">net/ipv4.h</text>
</a>
</g>
</g>
<!-- Node5&#45;&gt;Node10 -->
<g id="edge12" class="edge">
<title>Node5&#45;&gt;Node10</title>
<path fill="none" stroke="midnightblue" d="M151.71,-280.08C147.74,-272.69 141.97,-261.95 137.07,-252.81"/>
<polygon fill="midnightblue" stroke="midnightblue" points="140.01,-250.91 132.2,-243.75 133.85,-254.22 140.01,-250.91"/>
</g>
<!-- Node7 -->
<g id="node7" class="node">
<title>Node7</title>
<g id="a_node7"><a xlink:href="socket_8h.html" target="_top" xlink:title=" ">
<polygon fill="none" stroke="black" points="132.5,-112.5 132.5,-131.5 204.5,-131.5 204.5,-112.5 132.5,-112.5"/>
<text text-anchor="middle" x="168.5" y="-119.5" font-family="Helvetica,sans-Serif" font-size="10.00">sys/socket.h</text>
</a>
</g>
</g>
<!-- Node6&#45;&gt;Node7 -->
<g id="edge6" class="edge">
<title>Node6&#45;&gt;Node7</title>
<path fill="none" stroke="midnightblue" d="M175.18,-168.08C174.12,-160.93 172.59,-150.64 171.27,-141.69"/>
<polygon fill="midnightblue" stroke="midnightblue" points="174.72,-141.13 169.8,-131.75 167.8,-142.16 174.72,-141.13"/>
</g>
<!-- Node6&#45;&gt;Node8 -->
<g id="edge11" class="edge">
<title>Node6&#45;&gt;Node8</title>
<path fill="none" stroke="midnightblue" d="M187.64,-168.11C201.48,-155.92 222.25,-133.11 213.5,-112 208.58,-100.12 198.83,-89.74 189.67,-81.96"/>
<polygon fill="midnightblue" stroke="midnightblue" points="191.58,-79.01 181.56,-75.56 187.25,-84.51 191.58,-79.01"/>
</g>
<!-- Node7&#45;&gt;Node8 -->
<g id="edge7" class="edge">
<title>Node7&#45;&gt;Node8</title>
<path fill="none" stroke="midnightblue" d="M168.5,-112.08C168.5,-105.01 168.5,-94.86 168.5,-85.99"/>
<polygon fill="midnightblue" stroke="midnightblue" points="172,-85.75 168.5,-75.75 165,-85.75 172,-85.75"/>
</g>
<!-- Node8&#45;&gt;Node3 -->
<g id="edge8" class="edge">
<title>Node8&#45;&gt;Node3</title>
<path fill="none" stroke="midnightblue" d="M146.32,-56.44C123.07,-47.48 86.35,-33.31 60.08,-23.18"/>
<polygon fill="midnightblue" stroke="midnightblue" points="61.17,-19.85 50.58,-19.52 58.65,-26.38 61.17,-19.85"/>
</g>
<!-- Node8&#45;&gt;Node4 -->
<g id="edge10" class="edge">
<title>Node8&#45;&gt;Node4</title>
<path fill="none" stroke="midnightblue" d="M157.41,-56.32C147.01,-48.18 131.24,-35.84 118.78,-26.09"/>
<polygon fill="midnightblue" stroke="midnightblue" points="120.82,-23.24 110.79,-19.83 116.51,-28.75 120.82,-23.24"/>
</g>
<!-- Node9 -->
<g id="node9" class="node">
<title>Node9</title>
<g id="a_node9"><a xlink:title=" ">
<polygon fill="none" stroke="#bfbfbf" points="142.5,-0.5 142.5,-19.5 194.5,-19.5 194.5,-0.5 142.5,-0.5"/>
<text text-anchor="middle" x="168.5" y="-7.5" font-family="Helvetica,sans-Serif" font-size="10.00">stddef.h</text>
</a>
</g>
</g>
<!-- Node8&#45;&gt;Node9 -->
<g id="edge9" class="edge">
<title>Node8&#45;&gt;Node9</title>
<path fill="none" stroke="midnightblue" d="M168.5,-56.08C168.5,-49.01 168.5,-38.86 168.5,-29.99"/>
<polygon fill="midnightblue" stroke="midnightblue" points="172,-29.75 168.5,-19.75 165,-29.75 172,-29.75"/>
</g>
<!-- Node10&#45;&gt;Node2 -->
<g id="edge14" class="edge">
<title>Node10&#45;&gt;Node2</title>
<path fill="none" stroke="midnightblue" d="M114.81,-224.32C102.6,-215.98 83.92,-203.21 69.5,-193.35"/>
<polygon fill="midnightblue" stroke="midnightblue" points="71.39,-190.41 61.16,-187.65 67.44,-196.19 71.39,-190.41"/>
</g>
<!-- Node10&#45;&gt;Node6 -->
<g id="edge13" class="edge">
<title>Node10&#45;&gt;Node6</title>
<path fill="none" stroke="midnightblue" d="M135.59,-224.08C142.66,-216.3 153.09,-204.8 161.65,-195.37"/>
<polygon fill="midnightblue" stroke="midnightblue" points="164.43,-197.51 168.56,-187.75 159.25,-192.8 164.43,-197.51"/>
</g>
<!-- Node10&#45;&gt;Node8 -->
<g id="edge15" class="edge">
<title>Node10&#45;&gt;Node8</title>
<path fill="none" stroke="midnightblue" d="M124.87,-224.36C119.14,-203.89 107.25,-151.23 123.5,-112 128.42,-100.12 138.17,-89.74 147.33,-81.96"/>
<polygon fill="midnightblue" stroke="midnightblue" points="149.75,-84.51 155.44,-75.56 145.42,-79.01 149.75,-84.51"/>
</g>
</g>
</svg>
