<?xml version="1.0" encoding="UTF-8" standalone="no"?>
<!DOCTYPE svg PUBLIC "-//W3C//DTD SVG 1.1//EN"
 "http://www.w3.org/Graphics/SVG/1.1/DTD/svg11.dtd">
<!-- Generated by graphviz version 2.50.0 (20211204.2007)
 -->
<!-- Title: include/kernel/net/dns.h Pages: 1 -->
<svg width="317pt" height="375pt"
 viewBox="0.00 0.00 317.00 375.00" xmlns="http://www.w3.org/2000/svg" xmlns:xlink="http://www.w3.org/1999/xlink">
<g id="graph0" class="graph" transform="scale(1 1) rotate(0) translate(4 371)">
<title>include/kernel/net/dns.h</title>
<!-- Node1 -->
<g id="node1" class="node">
<title>Node1</title>
<g id="a_node1"><a xlink:title=" ">
<polygon fill="#bfbfbf" stroke="black" points="109.5,-336.5 109.5,-366.5 202.5,-366.5 202.5,-336.5 109.5,-336.5"/>
<text text-anchor="start" x="117.5" y="-354.5" font-family="Helvetica,sans-Serif" font-size="10.00">include/kernel/net</text>
<text text-anchor="middle" x="156" y="-343.5" font-family="Helvetica,sans-Serif" font-size="10.00">/dns.h</text>
</a>
</g>
</g>
<!-- Node2 -->
<g id="node2" class="node">
<title>Node2</title>
<g id="a_node2"><a xlink:href="net_8h.html" target="_top" xlink:title="This module defines network interfaces and drivers.">
<polygon fill="none" stroke="black" points="19.5,-168.5 19.5,-187.5 74.5,-187.5 74.5,-168.5 19.5,-168.5"/>
<text text-anchor="middle" x="47" y="-175.5" font-family="Helvetica,sans-Serif" font-size="10.00">net/net.h</text>
</a>
</g>
</g>
<!-- Node1&#45;&gt;Node2 -->
<g id="edge1" class="edge">
<title>Node1&#45;&gt;Node2</title>
<path fill="none" stroke="midnightblue" d="M141.46,-336.24C122.46,-316.9 89.24,-280.55 69,-244 60.88,-229.34 55.05,-211.18 51.43,-197.78"/>
<polygon fill="midnightblue" stroke="midnightblue" points="54.76,-196.66 48.92,-187.82 47.97,-198.38 54.76,-196.66"/>
</g>
<!-- Node5 -->
<g id="node5" class="node">
<title>Node5</title>
<g id="a_node5"><a xlink:href="udp_8h.html" target="_top" xlink:title=" ">
<polygon fill="none" stroke="black" points="127.5,-280.5 127.5,-299.5 184.5,-299.5 184.5,-280.5 127.5,-280.5"/>
<text text-anchor="middle" x="156" y="-287.5" font-family="Helvetica,sans-Serif" font-size="10.00">net/udp.h</text>
</a>
</g>
</g>
<!-- Node1&#45;&gt;Node5 -->
<g id="edge4" class="edge">
<title>Node1&#45;&gt;Node5</title>
<path fill="none" stroke="midnightblue" d="M156,-336.4C156,-328.47 156,-318.46 156,-309.86"/>
<polygon fill="midnightblue" stroke="midnightblue" points="159.5,-309.66 156,-299.66 152.5,-309.66 159.5,-309.66"/>
</g>
<!-- Node8 -->
<g id="node8" class="node">
<title>Node8</title>
<g id="a_node8"><a xlink:href="types_8h.html" target="_top" xlink:title=" ">
<polygon fill="none" stroke="black" points="134,-56.5 134,-75.5 202,-75.5 202,-56.5 134,-56.5"/>
<text text-anchor="middle" x="168" y="-63.5" font-family="Helvetica,sans-Serif" font-size="10.00">sys/types.h</text>
</a>
</g>
</g>
<!-- Node1&#45;&gt;Node8 -->
<g id="edge18" class="edge">
<title>Node1&#45;&gt;Node8</title>
<path fill="none" stroke="midnightblue" d="M202.74,-337.03C247.73,-320.85 309,-288.92 309,-235 309,-235 309,-235 309,-177 309,-125.26 249.26,-94.27 207.55,-78.94"/>
<polygon fill="midnightblue" stroke="midnightblue" points="208.5,-75.56 197.9,-75.55 206.18,-82.17 208.5,-75.56"/>
</g>
<!-- Node3 -->
<g id="node3" class="node">
<title>Node3</title>
<g id="a_node3"><a xlink:title=" ">
<polygon fill="none" stroke="#bfbfbf" points="0,-0.5 0,-19.5 56,-19.5 56,-0.5 0,-0.5"/>
<text text-anchor="middle" x="28" y="-7.5" font-family="Helvetica,sans-Serif" font-size="10.00">stdbool.h</text>
</a>
</g>
</g>
<!-- Node2&#45;&gt;Node3 -->
<g id="edge2" class="edge">
<title>Node2&#45;&gt;Node3</title>
<path fill="none" stroke="midnightblue" d="M45.98,-168.08C42.99,-141.95 34.2,-65.21 30.13,-29.58"/>
<polygon fill="midnightblue" stroke="midnightblue" points="33.6,-29.11 28.98,-19.57 26.64,-29.9 33.6,-29.11"/>
</g>
<!-- Node4 -->
<g id="node4" class="node">
<title>Node4</title>
<g id="a_node4"><a xlink:title=" ">
<polygon fill="none" stroke="#bfbfbf" points="74.5,-0.5 74.5,-19.5 123.5,-19.5 123.5,-0.5 74.5,-0.5"/>
<text text-anchor="middle" x="99" y="-7.5" font-family="Helvetica,sans-Serif" font-size="10.00">stdint.h</text>
</a>
</g>
</g>
<!-- Node2&#45;&gt;Node4 -->
<g id="edge3" class="edge">
<title>Node2&#45;&gt;Node4</title>
<path fill="none" stroke="midnightblue" d="M49.8,-168.08C58.02,-141.83 82.23,-64.55 93.32,-29.12"/>
<polygon fill="midnightblue" stroke="midnightblue" points="96.67,-30.16 96.32,-19.57 89.99,-28.06 96.67,-30.16"/>
</g>
<!-- Node5&#45;&gt;Node2 -->
<g id="edge16" class="edge">
<title>Node5&#45;&gt;Node2</title>
<path fill="none" stroke="midnightblue" d="M139.49,-280.44C125.02,-272.38 104.02,-259.29 89,-244 75.21,-229.96 63.45,-210.71 55.92,-196.81"/>
<polygon fill="midnightblue" stroke="midnightblue" points="58.93,-195.03 51.2,-187.78 52.73,-198.27 58.93,-195.03"/>
</g>
<!-- Node6 -->
<g id="node6" class="node">
<title>Node6</title>
<g id="a_node6"><a xlink:href="inet_8h.html" target="_top" xlink:title=" ">
<polygon fill="none" stroke="black" points="145,-168.5 145,-187.5 207,-187.5 207,-168.5 145,-168.5"/>
<text text-anchor="middle" x="176" y="-175.5" font-family="Helvetica,sans-Serif" font-size="10.00">arpa/inet.h</text>
</a>
</g>
</g>
<!-- Node5&#45;&gt;Node6 -->
<g id="edge5" class="edge">
<title>Node5&#45;&gt;Node6</title>
<path fill="none" stroke="midnightblue" d="M158.09,-280.41C160.24,-271.38 163.61,-256.74 166,-244 168.9,-228.55 171.57,-210.92 173.43,-197.92"/>
<polygon fill="midnightblue" stroke="midnightblue" points="176.91,-198.25 174.83,-187.86 169.98,-197.28 176.91,-198.25"/>
</g>
<!-- Node5&#45;&gt;Node8 -->
<g id="edge17" class="edge">
<title>Node5&#45;&gt;Node8</title>
<path fill="none" stroke="midnightblue" d="M162.45,-280.3C174.67,-263.38 201.32,-224.52 216,-188 225.53,-164.29 226.09,-157.38 229,-132 230.01,-123.17 233.01,-119.93 229,-112 222.19,-98.52 209.23,-88.08 197,-80.67"/>
<polygon fill="midnightblue" stroke="midnightblue" points="198.34,-77.41 187.91,-75.59 194.93,-83.52 198.34,-77.41"/>
</g>
<!-- Node10 -->
<g id="node10" class="node">
<title>Node10</title>
<g id="a_node10"><a xlink:href="ipv4_8h.html" target="_top" xlink:title=" ">
<polygon fill="none" stroke="black" points="97.5,-224.5 97.5,-243.5 156.5,-243.5 156.5,-224.5 97.5,-224.5"/>
<text text-anchor="middle" x="127" y="-231.5" font-family="Helvetica,sans-Serif" font-size="10.00">net/ipv4.h</text>
</a>
</g>
</g>
<!-- Node5&#45;&gt;Node10 -->
<g id="edge12" class="edge">
<title>Node5&#45;&gt;Node10</title>
<path fill="none" stroke="midnightblue" d="M151.21,-280.08C147.24,-272.69 141.47,-261.95 136.57,-252.81"/>
<polygon fill="midnightblue" stroke="midnightblue" points="139.51,-250.91 131.7,-243.75 133.35,-254.22 139.51,-250.91"/>
</g>
<!-- Node7 -->
<g id="node7" class="node">
<title>Node7</title>
<g id="a_node7"><a xlink:href="socket_8h.html" target="_top" xlink:title=" ">
<polygon fill="none" stroke="black" points="131.5,-112.5 131.5,-131.5 204.5,-131.5 204.5,-112.5 131.5,-112.5"/>
<text text-anchor="middle" x="168" y="-119.5" font-family="Helvetica,sans-Serif" font-size="10.00">sys/socket.h</text>
</a>
</g>
</g>
<!-- Node6&#45;&gt;Node7 -->
<g id="edge6" class="edge">
<title>Node6&#45;&gt;Node7</title>
<path fill="none" stroke="midnightblue" d="M174.68,-168.08C173.62,-160.93 172.09,-150.64 170.77,-141.69"/>
<polygon fill="midnightblue" stroke="midnightblue" points="174.22,-141.13 169.3,-131.75 167.3,-142.16 174.22,-141.13"/>
</g>
<!-- Node6&#45;&gt;Node8 -->
<g id="edge11" class="edge">
<title>Node6&#45;&gt;Node8</title>
<path fill="none" stroke="midnightblue" d="M187.43,-168.14C201.61,-155.98 222.92,-133.21 214,-112 208.97,-100.05 199.06,-89.69 189.71,-81.93"/>
<polygon fill="midnightblue" stroke="midnightblue" points="191.84,-79.15 181.79,-75.81 187.56,-84.69 191.84,-79.15"/>
</g>
<!-- Node7&#45;&gt;Node8 -->
<g id="edge7" class="edge">
<title>Node7&#45;&gt;Node8</title>
<path fill="none" stroke="midnightblue" d="M168,-112.08C168,-105.01 168,-94.86 168,-85.99"/>
<polygon fill="midnightblue" stroke="midnightblue" points="171.5,-85.75 168,-75.75 164.5,-85.75 171.5,-85.75"/>
</g>
<!-- Node8&#45;&gt;Node3 -->
<g id="edge8" class="edge">
<title>Node8&#45;&gt;Node3</title>
<path fill="none" stroke="midnightblue" d="M145.82,-56.44C122.57,-47.48 85.85,-33.31 59.58,-23.18"/>
<polygon fill="midnightblue" stroke="midnightblue" points="60.67,-19.85 50.08,-19.52 58.15,-26.38 60.67,-19.85"/>
</g>
<!-- Node8&#45;&gt;Node4 -->
<g id="edge10" class="edge">
<title>Node8&#45;&gt;Node4</title>
<path fill="none" stroke="midnightblue" d="M156.91,-56.32C146.51,-48.18 130.74,-35.84 118.28,-26.09"/>
<polygon fill="midnightblue" stroke="midnightblue" points="120.32,-23.24 110.29,-19.83 116.01,-28.75 120.32,-23.24"/>
</g>
<!-- Node9 -->
<g id="node9" class="node">
<title>Node9</title>
<g id="a_node9"><a xlink:title=" ">
<polygon fill="none" stroke="#bfbfbf" points="142,-0.5 142,-19.5 194,-19.5 194,-0.5 142,-0.5"/>
<text text-anchor="middle" x="168" y="-7.5" font-family="Helvetica,sans-Serif" font-size="10.00">stddef.h</text>
</a>
</g>
</g>
<!-- Node8&#45;&gt;Node9 -->
<g id="edge9" class="edge">
<title>Node8&#45;&gt;Node9</title>
<path fill="none" stroke="midnightblue" d="M168,-56.08C168,-49.01 168,-38.86 168,-29.99"/>
<polygon fill="midnightblue" stroke="midnightblue" points="171.5,-29.75 168,-19.75 164.5,-29.75 171.5,-29.75"/>
</g>
<!-- Node10&#45;&gt;Node2 -->
<g id="edge14" class="edge">
<title>Node10&#45;&gt;Node2</title>
<path fill="none" stroke="midnightblue" d="M114.15,-224.32C101.78,-215.98 82.87,-203.21 68.26,-193.35"/>
<polygon fill="midnightblue" stroke="midnightblue" points="70.07,-190.35 59.82,-187.65 66.15,-196.15 70.07,-190.35"/>
</g>
<!-- Node10&#45;&gt;Node6 -->
<g id="edge13" class="edge">
<title>Node10&#45;&gt;Node6</title>
<path fill="none" stroke="midnightblue" d="M135.09,-224.08C142.16,-216.3 152.59,-204.8 161.15,-195.37"/>
<polygon fill="midnightblue" stroke="midnightblue" points="163.93,-197.51 168.06,-187.75 158.75,-192.8 163.93,-197.51"/>
</g>
<!-- Node10&#45;&gt;Node8 -->
<g id="edge15" class="edge">
<title>Node10&#45;&gt;Node8</title>
<path fill="none" stroke="midnightblue" d="M124.37,-224.36C118.64,-203.89 106.75,-151.23 123,-112 127.92,-100.12 137.67,-89.74 146.83,-81.96"/>
<polygon fill="midnightblue" stroke="midnightblue" points="149.25,-84.51 154.94,-75.56 144.92,-79.01 149.25,-84.51"/>
</g>
</g>
</svg>
