<?xml version="1.0" encoding="UTF-8" standalone="no"?>
<!DOCTYPE svg PUBLIC "-//W3C//DTD SVG 1.1//EN"
 "http://www.w3.org/Graphics/SVG/1.1/DTD/svg11.dtd">
<!-- Generated by graphviz version 8.0.2 (20230410.1723)
 -->
<!-- Title: dns_lookup Pages: 1 -->
<svg width="165pt" height="210pt"
 viewBox="0.00 0.00 165.00 210.00" xmlns="http://www.w3.org/2000/svg" xmlns:xlink="http://www.w3.org/1999/xlink">
<g id="graph0" class="graph" transform="scale(1 1) rotate(0) translate(4 206)">
<title>dns_lookup</title>
<!-- Node1 -->
<g id="Node000001" class="node">
<title>Node1</title>
<g id="a_Node000001"><a xlink:title=" ">
<polygon fill="#999999" stroke="#666666" points="66,-101 0,-101 0,-82 66,-82 66,-101"/>
<text text-anchor="middle" x="33" y="-89" font-family="Helvetica,sans-Serif" font-size="10.00">dns_lookup</text>
</a>
</g>
</g>
<!-- Node1&#45;&gt;Node1 -->
<g id="edge3_Node000001_Node000001" class="edge">
<title>Node1&#45;&gt;Node1</title>
<g id="a_edge3_Node000001_Node000001"><a xlink:title=" ">
<path fill="none" stroke="#63b8ff" d="M17.89,-101.37C11,-109.94 16.04,-119 33,-119 42.54,-119 48.31,-116.13 50.3,-112.1"/>
<polygon fill="#63b8ff" stroke="#63b8ff" points="53.54,-111.46 48.11,-102.37 46.68,-112.87 53.54,-111.46"/>
</a>
</g>
</g>
<!-- Node2 -->
<g id="Node000002" class="node">
<title>Node2</title>
<g id="a_Node000002"><a xlink:href="close_8c.html#aafbcde67669a1b96577e735ddebd8634" target="_top" xlink:title=" ">
<polygon fill="white" stroke="#666666" points="149.5,-184 109.5,-184 109.5,-165 149.5,-165 149.5,-184"/>
<text text-anchor="middle" x="129.5" y="-172" font-family="Helvetica,sans-Serif" font-size="10.00">close</text>
</a>
</g>
</g>
<!-- Node1&#45;&gt;Node2 -->
<g id="edge1_Node000001_Node000002" class="edge">
<title>Node1&#45;&gt;Node2</title>
<g id="a_edge1_Node000001_Node000002"><a xlink:title=" ">
<path fill="none" stroke="#63b8ff" d="M43.22,-101.28C55.89,-114.48 79.65,-138.43 102,-156.5 102.76,-157.11 103.53,-157.72 104.33,-158.33"/>
<polygon fill="#63b8ff" stroke="#63b8ff" points="101.9,-161.62 112.05,-164.64 106,-155.95 101.9,-161.62"/>
</a>
</g>
</g>
<!-- Node3 -->
<g id="Node000003" class="node">
<title>Node3</title>
<g id="a_Node000003"><a xlink:href="recvfrom_8c.html#ad144bb8d4119d5fa0ee5b6c4d06bc645" target="_top" xlink:title=" ">
<polygon fill="white" stroke="#666666" points="157,-129 102,-129 102,-110 157,-110 157,-129"/>
<text text-anchor="middle" x="129.5" y="-117" font-family="Helvetica,sans-Serif" font-size="10.00">recvfrom</text>
</a>
</g>
</g>
<!-- Node1&#45;&gt;Node3 -->
<g id="edge4_Node000001_Node000003" class="edge">
<title>Node1&#45;&gt;Node3</title>
<g id="a_edge4_Node000001_Node000003"><a xlink:title=" ">
<path fill="none" stroke="#63b8ff" d="M66.26,-101.06C74.29,-103.44 82.96,-106.01 91.21,-108.45"/>
<polygon fill="#63b8ff" stroke="#63b8ff" points="90.14,-112.08 100.72,-111.57 92.13,-105.37 90.14,-112.08"/>
</a>
</g>
</g>
<!-- Node4 -->
<g id="Node000004" class="node">
<title>Node4</title>
<g id="a_Node000004"><a xlink:href="sendto_8c.html#ae19bbc8361e8a64914e6d5d5d2258748" target="_top" xlink:title=" ">
<polygon fill="white" stroke="#666666" points="152.5,-74 106.5,-74 106.5,-55 152.5,-55 152.5,-74"/>
<text text-anchor="middle" x="129.5" y="-62" font-family="Helvetica,sans-Serif" font-size="10.00">sendto</text>
</a>
</g>
</g>
<!-- Node1&#45;&gt;Node4 -->
<g id="edge6_Node000001_Node000004" class="edge">
<title>Node1&#45;&gt;Node4</title>
<g id="a_edge6_Node000001_Node000004"><a xlink:title=" ">
<path fill="none" stroke="#63b8ff" d="M66.26,-82.28C75.81,-79.55 86.28,-76.56 95.86,-73.82"/>
<polygon fill="#63b8ff" stroke="#63b8ff" points="96.55,-76.98 105.21,-70.87 94.63,-70.25 96.55,-76.98"/>
</a>
</g>
</g>
<!-- Node5 -->
<g id="Node000005" class="node">
<title>Node5</title>
<g id="a_Node000005"><a xlink:href="socket_8c.html#af4e0711877c45a41168ac677b0670ccd" target="_top" xlink:title=" ">
<polygon fill="white" stroke="#666666" points="152.5,-19 106.5,-19 106.5,0 152.5,0 152.5,-19"/>
<text text-anchor="middle" x="129.5" y="-7" font-family="Helvetica,sans-Serif" font-size="10.00">socket</text>
</a>
</g>
</g>
<!-- Node1&#45;&gt;Node5 -->
<g id="edge8_Node000001_Node000005" class="edge">
<title>Node1&#45;&gt;Node5</title>
<g id="a_edge8_Node000001_Node000005"><a xlink:title=" ">
<path fill="none" stroke="#63b8ff" d="M45.21,-81.77C60.9,-68.16 89.63,-43.23 108.9,-26.51"/>
<polygon fill="#63b8ff" stroke="#63b8ff" points="110.75,-28.67 116.01,-19.47 106.16,-23.38 110.75,-28.67"/>
</a>
</g>
</g>
<!-- Node2&#45;&gt;Node2 -->
<g id="edge2_Node000002_Node000002" class="edge">
<title>Node2&#45;&gt;Node2</title>
<g id="a_edge2_Node000002_Node000002"><a xlink:title=" ">
<path fill="none" stroke="#63b8ff" d="M114.39,-184.37C107.5,-192.94 112.54,-202 129.5,-202 139.04,-202 144.81,-199.13 146.8,-195.1"/>
<polygon fill="#63b8ff" stroke="#63b8ff" points="150.04,-194.46 144.61,-185.37 143.18,-195.87 150.04,-194.46"/>
</a>
</g>
</g>
<!-- Node3&#45;&gt;Node3 -->
<g id="edge5_Node000003_Node000003" class="edge">
<title>Node3&#45;&gt;Node3</title>
<g id="a_edge5_Node000003_Node000003"><a xlink:title=" ">
<path fill="none" stroke="#63b8ff" d="M114.39,-129.37C107.5,-137.94 112.54,-147 129.5,-147 139.04,-147 144.81,-144.13 146.8,-140.1"/>
<polygon fill="#63b8ff" stroke="#63b8ff" points="150.04,-139.46 144.61,-130.37 143.18,-140.87 150.04,-139.46"/>
</a>
</g>
</g>
<!-- Node4&#45;&gt;Node4 -->
<g id="edge7_Node000004_Node000004" class="edge">
<title>Node4&#45;&gt;Node4</title>
<g id="a_edge7_Node000004_Node000004"><a xlink:title=" ">
<path fill="none" stroke="#63b8ff" d="M114.39,-74.37C107.5,-82.94 112.54,-92 129.5,-92 139.04,-92 144.81,-89.13 146.8,-85.1"/>
<polygon fill="#63b8ff" stroke="#63b8ff" points="150.04,-84.46 144.61,-75.37 143.18,-85.87 150.04,-84.46"/>
</a>
</g>
</g>
<!-- Node5&#45;&gt;Node5 -->
<g id="edge9_Node000005_Node000005" class="edge">
<title>Node5&#45;&gt;Node5</title>
<g id="a_edge9_Node000005_Node000005"><a xlink:title=" ">
<path fill="none" stroke="#63b8ff" d="M114.39,-19.37C107.5,-27.94 112.54,-37 129.5,-37 139.04,-37 144.81,-34.13 146.8,-30.1"/>
<polygon fill="#63b8ff" stroke="#63b8ff" points="150.04,-29.46 144.61,-20.37 143.18,-30.87 150.04,-29.46"/>
</a>
</g>
</g>
</g>
</svg>
