<?xml version="1.0" encoding="UTF-8" standalone="no"?>
<!DOCTYPE svg PUBLIC "-//W3C//DTD SVG 1.1//EN"
 "http://www.w3.org/Graphics/SVG/1.1/DTD/svg11.dtd">
<!-- Generated by graphviz version 8.0.2 (20230410.1723)
 -->
<!-- Title: ethernet_send_frame Pages: 1 -->
<svg width="392pt" height="155pt"
 viewBox="0.00 0.00 392.00 155.00" xmlns="http://www.w3.org/2000/svg" xmlns:xlink="http://www.w3.org/1999/xlink">
<g id="graph0" class="graph" transform="scale(1 1) rotate(0) translate(4 151)">
<title>ethernet_send_frame</title>
<!-- Node1 -->
<g id="Node000001" class="node">
<title>Node1</title>
<g id="a_Node000001"><a xlink:title=" ">
<polygon fill="#999999" stroke="#666666" points="384,-101 276,-101 276,-82 384,-82 384,-101"/>
<text text-anchor="middle" x="330" y="-89" font-family="Helvetica,sans-Serif" font-size="10.00">ethernet_send_frame</text>
</a>
</g>
</g>
<!-- Node1&#45;&gt;Node1 -->
<g id="edge5_Node000001_Node000001" class="edge">
<title>Node1&#45;&gt;Node1</title>
<g id="a_edge5_Node000001_Node000001"><a xlink:title=" ">
<path fill="none" stroke="#63b8ff" d="M354.88,-111.76C352.27,-115.97 343.97,-119 330,-119 305.83,-119 298.65,-109.94 308.47,-101.37"/>
<polygon fill="#63b8ff" stroke="#63b8ff" points="357.93,-110.81 351.53,-102.37 351.27,-112.96 357.93,-110.81"/>
</a>
</g>
</g>
<!-- Node2 -->
<g id="Node000002" class="node">
<title>Node2</title>
<g id="a_Node000002"><a xlink:href="arp_8c.html#a666f814a224975572b1d3fe88a7425af" target="_top" xlink:title=" ">
<polygon fill="white" stroke="#666666" points="226.5,-129 158.5,-129 158.5,-110 226.5,-110 226.5,-129"/>
<text text-anchor="middle" x="192.5" y="-117" font-family="Helvetica,sans-Serif" font-size="10.00">arp_request</text>
</a>
</g>
</g>
<!-- Node1&#45;&gt;Node2 -->
<g id="edge1_Node000001_Node000002" class="edge">
<title>Node1&#45;&gt;Node2</title>
<g id="a_edge1_Node000001_Node000002"><a xlink:title=" ">
<path fill="none" stroke="#63b8ff" d="M270.14,-103.66C255.24,-106.74 239.75,-109.94 226.63,-112.65"/>
<polygon fill="#63b8ff" stroke="#63b8ff" points="270.76,-106.9 279.85,-101.45 269.34,-100.05 270.76,-106.9"/>
</a>
</g>
</g>
<!-- Node4 -->
<g id="Node000004" class="node">
<title>Node4</title>
<g id="a_Node000004"><a xlink:href="ipv4_8c.html#a8f913ffc3ba073a5a2018ff80d0e8212" target="_top" xlink:title=" ">
<polygon fill="white" stroke="#666666" points="240,-74 145,-74 145,-55 240,-55 240,-74"/>
<text text-anchor="middle" x="192.5" y="-62" font-family="Helvetica,sans-Serif" font-size="10.00">ipv4_send_packet</text>
</a>
</g>
</g>
<!-- Node1&#45;&gt;Node4 -->
<g id="edge6_Node000001_Node000004" class="edge">
<title>Node1&#45;&gt;Node4</title>
<g id="a_edge6_Node000001_Node000004"><a xlink:title=" ">
<path fill="none" stroke="#63b8ff" d="M268.38,-79.42C258.93,-77.54 249.3,-75.62 240.22,-73.81"/>
<polygon fill="#63b8ff" stroke="#63b8ff" points="267.44,-83 277.93,-81.52 268.81,-76.14 267.44,-83"/>
</a>
</g>
</g>
<!-- Node2&#45;&gt;Node2 -->
<g id="edge2_Node000002_Node000002" class="edge">
<title>Node2&#45;&gt;Node2</title>
<g id="a_edge2_Node000002_Node000002"><a xlink:title=" ">
<path fill="none" stroke="#63b8ff" d="M217.38,-139.76C214.77,-143.97 206.47,-147 192.5,-147 168.33,-147 161.15,-137.94 170.97,-129.37"/>
<polygon fill="#63b8ff" stroke="#63b8ff" points="220.43,-138.81 214.03,-130.37 213.77,-140.96 220.43,-138.81"/>
</a>
</g>
</g>
<!-- Node3 -->
<g id="Node000003" class="node">
<title>Node3</title>
<g id="a_Node000003"><a xlink:href="net_2net_8c.html#a5da8d53d480b13e24e293e0ab90a0ac3" target="_top" xlink:title=" ">
<polygon fill="white" stroke="#666666" points="100,-129 9,-129 9,-110 100,-110 100,-129"/>
<text text-anchor="middle" x="54.5" y="-117" font-family="Helvetica,sans-Serif" font-size="10.00">net_interface_init</text>
</a>
</g>
</g>
<!-- Node2&#45;&gt;Node3 -->
<g id="edge3_Node000002_Node000003" class="edge">
<title>Node2&#45;&gt;Node3</title>
<g id="a_edge3_Node000002_Node000003"><a xlink:title=" ">
<path fill="none" stroke="#63b8ff" d="M147.62,-119.5C132.55,-119.5 115.66,-119.5 100.49,-119.5"/>
<polygon fill="#63b8ff" stroke="#63b8ff" points="147.23,-123 157.23,-119.5 147.23,-116 147.23,-123"/>
</a>
</g>
</g>
<!-- Node3&#45;&gt;Node3 -->
<g id="edge4_Node000003_Node000003" class="edge">
<title>Node3&#45;&gt;Node3</title>
<g id="a_edge4_Node000003_Node000003"><a xlink:title=" ">
<path fill="none" stroke="#63b8ff" d="M79.47,-139.76C76.85,-143.97 68.52,-147 54.5,-147 30.24,-147 23.04,-137.94 32.9,-129.37"/>
<polygon fill="#63b8ff" stroke="#63b8ff" points="82.52,-138.8 76.1,-130.37 75.86,-140.96 82.52,-138.8"/>
</a>
</g>
</g>
<!-- Node4&#45;&gt;Node4 -->
<g id="edge9_Node000004_Node000004" class="edge">
<title>Node4&#45;&gt;Node4</title>
<g id="a_edge9_Node000004_Node000004"><a xlink:title=" ">
<path fill="none" stroke="#63b8ff" d="M217.38,-84.76C214.77,-88.97 206.47,-92 192.5,-92 168.33,-92 161.15,-82.94 170.97,-74.37"/>
<polygon fill="#63b8ff" stroke="#63b8ff" points="220.43,-83.81 214.03,-75.37 213.77,-85.96 220.43,-83.81"/>
</a>
</g>
</g>
<!-- Node5 -->
<g id="Node000005" class="node">
<title>Node5</title>
<g id="a_Node000005"><a xlink:href="icmpv4_8c.html#a24958014ffd38662c69aff53c25046a5" target="_top" xlink:title=" ">
<polygon fill="white" stroke="#666666" points="109,-74 0,-74 0,-55 109,-55 109,-74"/>
<text text-anchor="middle" x="54.5" y="-62" font-family="Helvetica,sans-Serif" font-size="10.00">icmpv4_send_packet</text>
</a>
</g>
</g>
<!-- Node4&#45;&gt;Node5 -->
<g id="edge7_Node000004_Node000005" class="edge">
<title>Node4&#45;&gt;Node5</title>
<g id="a_edge7_Node000004_Node000005"><a xlink:title=" ">
<path fill="none" stroke="#63b8ff" d="M133.82,-64.5C125.72,-64.5 117.43,-64.5 109.4,-64.5"/>
<polygon fill="#63b8ff" stroke="#63b8ff" points="133.7,-68 143.7,-64.5 133.7,-61 133.7,-68"/>
</a>
</g>
</g>
<!-- Node6 -->
<g id="Node000006" class="node">
<title>Node6</title>
<g id="a_Node000006"><a xlink:href="udp_8c.html#ac78d90d0d505eb6b507d0cf93c7499fb" target="_top" xlink:title=" ">
<polygon fill="white" stroke="#666666" points="101,-19 8,-19 8,0 101,0 101,-19"/>
<text text-anchor="middle" x="54.5" y="-7" font-family="Helvetica,sans-Serif" font-size="10.00">udp_send_packet</text>
</a>
</g>
</g>
<!-- Node4&#45;&gt;Node6 -->
<g id="edge10_Node000004_Node000006" class="edge">
<title>Node4&#45;&gt;Node6</title>
<g id="a_edge10_Node000004_Node000006"><a xlink:title=" ">
<path fill="none" stroke="#63b8ff" d="M156.75,-50.44C132.72,-40.73 101.36,-28.05 79.95,-19.39"/>
<polygon fill="#63b8ff" stroke="#63b8ff" points="155.29,-54.04 165.87,-54.54 157.91,-47.55 155.29,-54.04"/>
</a>
</g>
</g>
<!-- Node5&#45;&gt;Node5 -->
<g id="edge8_Node000005_Node000005" class="edge">
<title>Node5&#45;&gt;Node5</title>
<g id="a_edge8_Node000005_Node000005"><a xlink:title=" ">
<path fill="none" stroke="#63b8ff" d="M79.47,-84.76C76.85,-88.97 68.52,-92 54.5,-92 30.24,-92 23.04,-82.94 32.9,-74.37"/>
<polygon fill="#63b8ff" stroke="#63b8ff" points="82.52,-83.8 76.1,-75.37 75.86,-85.96 82.52,-83.8"/>
</a>
</g>
</g>
<!-- Node6&#45;&gt;Node6 -->
<g id="edge11_Node000006_Node000006" class="edge">
<title>Node6&#45;&gt;Node6</title>
<g id="a_edge11_Node000006_Node000006"><a xlink:title=" ">
<path fill="none" stroke="#63b8ff" d="M79.47,-29.76C76.85,-33.97 68.52,-37 54.5,-37 30.24,-37 23.04,-27.94 32.9,-19.37"/>
<polygon fill="#63b8ff" stroke="#63b8ff" points="82.52,-28.8 76.1,-20.37 75.86,-30.96 82.52,-28.8"/>
</a>
</g>
</g>
</g>
</svg>
