<?xml version="1.0" encoding="UTF-8" standalone="no"?>
<!DOCTYPE svg PUBLIC "-//W3C//DTD SVG 1.1//EN"
 "http://www.w3.org/Graphics/SVG/1.1/DTD/svg11.dtd">
<!-- Generated by graphviz version 8.0.2 (20230410.1723)
 -->
<!-- Title: ethernet_receive_frame Pages: 1 -->
<svg width="574pt" height="182pt"
 viewBox="0.00 0.00 574.00 182.00" xmlns="http://www.w3.org/2000/svg" xmlns:xlink="http://www.w3.org/1999/xlink">
<g id="graph0" class="graph" transform="scale(1 1) rotate(0) translate(4 178)">
<title>ethernet_receive_frame</title>
<!-- Node1 -->
<g id="Node000001" class="node">
<title>Node1</title>
<g id="a_Node000001"><a xlink:title=" ">
<polygon fill="#999999" stroke="#666666" points="119,-128 0,-128 0,-109 119,-109 119,-128"/>
<text text-anchor="middle" x="59.5" y="-116" font-family="Helvetica,sans-Serif" font-size="10.00">ethernet_receive_frame</text>
</a>
</g>
</g>
<!-- Node1&#45;&gt;Node1 -->
<g id="edge3_Node000001_Node000001" class="edge">
<title>Node1&#45;&gt;Node1</title>
<g id="a_edge3_Node000001_Node000001"><a xlink:title=" ">
<path fill="none" stroke="#63b8ff" d="M36.25,-128.37C25.65,-136.94 33.4,-146 59.5,-146 75,-146 84.03,-142.8 86.59,-138.42"/>
<polygon fill="#63b8ff" stroke="#63b8ff" points="89.59,-137.46 82.75,-129.37 83.05,-139.96 89.59,-137.46"/>
</a>
</g>
</g>
<!-- Node2 -->
<g id="Node000002" class="node">
<title>Node2</title>
<g id="a_Node000002"><a xlink:href="arp_8c.html#af8fccdaff0afb0830351393a2ec87df6" target="_top" xlink:title=" ">
<polygon fill="white" stroke="#666666" points="258.5,-156 157.5,-156 157.5,-137 258.5,-137 258.5,-156"/>
<text text-anchor="middle" x="208" y="-144" font-family="Helvetica,sans-Serif" font-size="10.00">arp_receive_packet</text>
</a>
</g>
</g>
<!-- Node1&#45;&gt;Node2 -->
<g id="edge1_Node000001_Node000002" class="edge">
<title>Node1&#45;&gt;Node2</title>
<g id="a_edge1_Node000001_Node000002"><a xlink:title=" ">
<path fill="none" stroke="#63b8ff" d="M112.56,-128.45C123.53,-130.55 135.19,-132.78 146.45,-134.93"/>
<polygon fill="#63b8ff" stroke="#63b8ff" points="145.59,-138.52 156.07,-136.96 146.9,-131.64 145.59,-138.52"/>
</a>
</g>
</g>
<!-- Node3 -->
<g id="Node000003" class="node">
<title>Node3</title>
<g id="a_Node000003"><a xlink:href="ipv4_8c.html#a6c04a1a0613bd9fae6de26f01ba5958b" target="_top" xlink:title=" ">
<polygon fill="white" stroke="#666666" points="261,-101 155,-101 155,-82 261,-82 261,-101"/>
<text text-anchor="middle" x="208" y="-89" font-family="Helvetica,sans-Serif" font-size="10.00">ipv4_receive_packet</text>
</a>
</g>
</g>
<!-- Node1&#45;&gt;Node3 -->
<g id="edge4_Node000001_Node000003" class="edge">
<title>Node1&#45;&gt;Node3</title>
<g id="a_edge4_Node000001_Node000003"><a xlink:title=" ">
<path fill="none" stroke="#63b8ff" d="M114.63,-108.52C124.11,-106.78 134.04,-104.95 143.74,-103.16"/>
<polygon fill="#63b8ff" stroke="#63b8ff" points="144.35,-106.42 153.55,-101.17 143.08,-99.54 144.35,-106.42"/>
</a>
</g>
</g>
<!-- Node2&#45;&gt;Node2 -->
<g id="edge2_Node000002_Node000002" class="edge">
<title>Node2&#45;&gt;Node2</title>
<g id="a_edge2_Node000002_Node000002"><a xlink:title=" ">
<path fill="none" stroke="#63b8ff" d="M184.75,-156.37C174.15,-164.94 181.9,-174 208,-174 223.5,-174 232.53,-170.8 235.09,-166.42"/>
<polygon fill="#63b8ff" stroke="#63b8ff" points="238.09,-165.46 231.25,-157.37 231.55,-167.96 238.09,-165.46"/>
</a>
</g>
</g>
<!-- Node3&#45;&gt;Node3 -->
<g id="edge7_Node000003_Node000003" class="edge">
<title>Node3&#45;&gt;Node3</title>
<g id="a_edge7_Node000003_Node000003"><a xlink:title=" ">
<path fill="none" stroke="#63b8ff" d="M184.75,-101.37C174.15,-109.94 181.9,-119 208,-119 223.5,-119 232.53,-115.8 235.09,-111.42"/>
<polygon fill="#63b8ff" stroke="#63b8ff" points="238.09,-110.46 231.25,-102.37 231.55,-112.96 238.09,-110.46"/>
</a>
</g>
</g>
<!-- Node4 -->
<g id="Node000004" class="node">
<title>Node4</title>
<g id="a_Node000004"><a xlink:href="icmpv4_8c.html#a90e2d1fb25fc1f4dd40c60d4b464bb63" target="_top" xlink:title=" ">
<polygon fill="white" stroke="#666666" points="416,-129 297,-129 297,-110 416,-110 416,-129"/>
<text text-anchor="middle" x="356.5" y="-117" font-family="Helvetica,sans-Serif" font-size="10.00">icmpv4_receive_packet</text>
</a>
</g>
</g>
<!-- Node3&#45;&gt;Node4 -->
<g id="edge5_Node000003_Node000004" class="edge">
<title>Node3&#45;&gt;Node4</title>
<g id="a_edge5_Node000003_Node000004"><a xlink:title=" ">
<path fill="none" stroke="#63b8ff" d="M261.06,-101.45C271.43,-103.43 282.41,-105.53 293.08,-107.57"/>
<polygon fill="#63b8ff" stroke="#63b8ff" points="292.13,-111.14 302.6,-109.58 293.44,-104.27 292.13,-111.14"/>
</a>
</g>
</g>
<!-- Node5 -->
<g id="Node000005" class="node">
<title>Node5</title>
<g id="a_Node000005"><a xlink:href="udp_8c.html#a1e9dad20351b1ebb8b51196d2563c591" target="_top" xlink:title=" ">
<polygon fill="white" stroke="#666666" points="408.5,-74 304.5,-74 304.5,-55 408.5,-55 408.5,-74"/>
<text text-anchor="middle" x="356.5" y="-62" font-family="Helvetica,sans-Serif" font-size="10.00">udp_receive_packet</text>
</a>
</g>
</g>
<!-- Node3&#45;&gt;Node5 -->
<g id="edge8_Node000003_Node000005" class="edge">
<title>Node3&#45;&gt;Node5</title>
<g id="a_edge8_Node000003_Node000005"><a xlink:title=" ">
<path fill="none" stroke="#63b8ff" d="M261.48,-81.83C271.94,-79.9 283.03,-77.86 293.78,-75.88"/>
<polygon fill="#63b8ff" stroke="#63b8ff" points="294.17,-79.18 303.37,-73.92 292.9,-72.29 294.17,-79.18"/>
</a>
</g>
</g>
<!-- Node4&#45;&gt;Node4 -->
<g id="edge6_Node000004_Node000004" class="edge">
<title>Node4&#45;&gt;Node4</title>
<g id="a_edge6_Node000004_Node000004"><a xlink:title=" ">
<path fill="none" stroke="#63b8ff" d="M333.25,-129.37C322.65,-137.94 330.4,-147 356.5,-147 372,-147 381.03,-143.8 383.59,-139.42"/>
<polygon fill="#63b8ff" stroke="#63b8ff" points="386.59,-138.46 379.75,-130.37 380.05,-140.96 386.59,-138.46"/>
</a>
</g>
</g>
<!-- Node5&#45;&gt;Node5 -->
<g id="edge12_Node000005_Node000005" class="edge">
<title>Node5&#45;&gt;Node5</title>
<g id="a_edge12_Node000005_Node000005"><a xlink:title=" ">
<path fill="none" stroke="#63b8ff" d="M333.25,-74.37C322.65,-82.94 330.4,-92 356.5,-92 372,-92 381.03,-88.8 383.59,-84.42"/>
<polygon fill="#63b8ff" stroke="#63b8ff" points="386.59,-83.46 379.75,-75.37 380.05,-85.96 386.59,-83.46"/>
</a>
</g>
</g>
<!-- Node6 -->
<g id="Node000006" class="node">
<title>Node6</title>
<g id="a_Node000006"><a xlink:href="descriptor_8c.html#a3a4a85ff782854b3c65aacf9ff4574d5" target="_top" xlink:title=" ">
<polygon fill="white" stroke="#666666" points="566,-111 452,-111 452,-92 566,-92 566,-111"/>
<text text-anchor="middle" x="509" y="-99" font-family="Helvetica,sans-Serif" font-size="10.00">descriptor_udp_lookup</text>
</a>
</g>
</g>
<!-- Node5&#45;&gt;Node6 -->
<g id="edge9_Node000005_Node000006" class="edge">
<title>Node5&#45;&gt;Node6</title>
<g id="a_edge9_Node000005_Node000006"><a xlink:title=" ">
<path fill="none" stroke="#63b8ff" d="M397.83,-74.42C416.05,-78.89 437.78,-84.24 457.11,-88.99"/>
<polygon fill="#63b8ff" stroke="#63b8ff" points="456.01,-92.57 466.56,-91.56 457.68,-85.77 456.01,-92.57"/>
</a>
</g>
</g>
<!-- Node7 -->
<g id="Node000007" class="node">
<title>Node7</title>
<g id="a_Node000007"><a xlink:href="dhcp_8c.html#aaeb6c2139785dacf8f0c6f1cdf580c27" target="_top" xlink:title=" ">
<polygon fill="white" stroke="#666666" points="563.5,-74 454.5,-74 454.5,-55 563.5,-55 563.5,-74"/>
<text text-anchor="middle" x="509" y="-62" font-family="Helvetica,sans-Serif" font-size="10.00">dhcp_receive_packet</text>
</a>
</g>
</g>
<!-- Node5&#45;&gt;Node7 -->
<g id="edge11_Node000005_Node000007" class="edge">
<title>Node5&#45;&gt;Node7</title>
<g id="a_edge11_Node000005_Node000007"><a xlink:title=" ">
<path fill="none" stroke="#63b8ff" d="M408.87,-64.5C419.91,-64.5 431.71,-64.5 443.18,-64.5"/>
<polygon fill="#63b8ff" stroke="#63b8ff" points="443.04,-68 453.04,-64.5 443.04,-61 443.04,-68"/>
</a>
</g>
</g>
<!-- Node8 -->
<g id="Node000008" class="node">
<title>Node8</title>
<g id="a_Node000008"><a xlink:href="write_8c.html#abb39b21888372e95ad3e5c59b166f5c8" target="_top" xlink:title=" ">
<polygon fill="white" stroke="#666666" points="528,-19 490,-19 490,0 528,0 528,-19"/>
<text text-anchor="middle" x="509" y="-7" font-family="Helvetica,sans-Serif" font-size="10.00">write</text>
</a>
</g>
</g>
<!-- Node5&#45;&gt;Node8 -->
<g id="edge13_Node000005_Node000008" class="edge">
<title>Node5&#45;&gt;Node8</title>
<g id="a_edge13_Node000005_Node000008"><a xlink:title=" ">
<path fill="none" stroke="#63b8ff" d="M384.75,-54.54C411.68,-44.7 452.66,-29.72 479.88,-19.78"/>
<polygon fill="#63b8ff" stroke="#63b8ff" points="480.73,-22.83 488.93,-16.11 478.33,-16.25 480.73,-22.83"/>
</a>
</g>
</g>
<!-- Node6&#45;&gt;Node6 -->
<g id="edge10_Node000006_Node000006" class="edge">
<title>Node6&#45;&gt;Node6</title>
<g id="a_edge10_Node000006_Node000006"><a xlink:title=" ">
<path fill="none" stroke="#63b8ff" d="M485.13,-111.37C474.24,-119.94 482.19,-129 509,-129 524.92,-129 534.19,-125.8 536.81,-121.42"/>
<polygon fill="#63b8ff" stroke="#63b8ff" points="539.78,-120.4 532.87,-112.37 533.27,-122.96 539.78,-120.4"/>
</a>
</g>
</g>
<!-- Node8&#45;&gt;Node8 -->
<g id="edge14_Node000008_Node000008" class="edge">
<title>Node8&#45;&gt;Node8</title>
<g id="a_edge14_Node000008_Node000008"><a xlink:title=" ">
<path fill="none" stroke="#63b8ff" d="M489.71,-16.4C472.63,-25.7 479.07,-37 509,-37 531.92,-37 541.06,-30.38 536.42,-23.1"/>
<polygon fill="#63b8ff" stroke="#63b8ff" points="539.24,-20.06 529.29,-16.4 534.79,-25.46 539.24,-20.06"/>
</a>
</g>
</g>
</g>
</svg>
