<?xml version="1.0" encoding="UTF-8" standalone="no"?>
<!DOCTYPE svg PUBLIC "-//W3C//DTD SVG 1.1//EN"
 "http://www.w3.org/Graphics/SVG/1.1/DTD/svg11.dtd">
<!-- Generated by graphviz version 3.0.0 (20220226.1711)
 -->
<!-- Title: include/kernel/net/ethernet.h Pages: 1 -->
<svg width="132pt" height="151pt"
 viewBox="0.00 0.00 131.50 151.00" xmlns="http://www.w3.org/2000/svg" xmlns:xlink="http://www.w3.org/1999/xlink">
<g id="graph0" class="graph" transform="scale(1 1) rotate(0) translate(4 147)">
<title>include/kernel/net/ethernet.h</title>
<!-- Node1 -->
<g id="node1" class="node">
<title>Node1</title>
<g id="a_node1"><a xlink:title=" ">
<polygon fill="#bfbfbf" stroke="black" points="24.5,-112.5 24.5,-142.5 117.5,-142.5 117.5,-112.5 24.5,-112.5"/>
<text text-anchor="start" x="32.5" y="-130.5" font-family="Helvetica,sans-Serif" font-size="10.00">include/kernel/net</text>
<text text-anchor="middle" x="71" y="-119.5" font-family="Helvetica,sans-Serif" font-size="10.00">/ethernet.h</text>
</a>
</g>
</g>
<!-- Node2 -->
<g id="node2" class="node">
<title>Node2</title>
<g id="a_node2"><a xlink:href="net_8h.html" target="_top" xlink:title="This module defines network interfaces and drivers.">
<polygon fill="none" stroke="black" points="15.5,-56.5 15.5,-75.5 70.5,-75.5 70.5,-56.5 15.5,-56.5"/>
<text text-anchor="middle" x="43" y="-63.5" font-family="Helvetica,sans-Serif" font-size="10.00">net/net.h</text>
</a>
</g>
</g>
<!-- Node1&#45;&gt;Node2 -->
<g id="edge1" class="edge">
<title>Node1&#45;&gt;Node2</title>
<path fill="none" stroke="midnightblue" d="M64.36,-112.4C60.46,-104.11 55.5,-93.55 51.33,-84.71"/>
<polygon fill="midnightblue" stroke="midnightblue" points="54.5,-83.22 47.07,-75.66 48.17,-86.2 54.5,-83.22"/>
</g>
<!-- Node4 -->
<g id="node4" class="node">
<title>Node4</title>
<g id="a_node4"><a xlink:title=" ">
<polygon fill="none" stroke="#bfbfbf" points="74.5,-0.5 74.5,-19.5 123.5,-19.5 123.5,-0.5 74.5,-0.5"/>
<text text-anchor="middle" x="99" y="-7.5" font-family="Helvetica,sans-Serif" font-size="10.00">stdint.h</text>
</a>
</g>
</g>
<!-- Node1&#45;&gt;Node4 -->
<g id="edge4" class="edge">
<title>Node1&#45;&gt;Node4</title>
<path fill="none" stroke="midnightblue" d="M74.43,-112.34C79.48,-91.53 88.9,-52.66 94.49,-29.58"/>
<polygon fill="midnightblue" stroke="midnightblue" points="97.94,-30.21 96.9,-19.67 91.14,-28.56 97.94,-30.21"/>
</g>
<!-- Node3 -->
<g id="node3" class="node">
<title>Node3</title>
<g id="a_node3"><a xlink:title=" ">
<polygon fill="none" stroke="#bfbfbf" points="0,-0.5 0,-19.5 56,-19.5 56,-0.5 0,-0.5"/>
<text text-anchor="middle" x="28" y="-7.5" font-family="Helvetica,sans-Serif" font-size="10.00">stdbool.h</text>
</a>
</g>
</g>
<!-- Node2&#45;&gt;Node3 -->
<g id="edge2" class="edge">
<title>Node2&#45;&gt;Node3</title>
<path fill="none" stroke="midnightblue" d="M40.52,-56.08C38.51,-48.85 35.61,-38.41 33.11,-29.4"/>
<polygon fill="midnightblue" stroke="midnightblue" points="36.48,-28.45 30.43,-19.75 29.74,-30.32 36.48,-28.45"/>
</g>
<!-- Node2&#45;&gt;Node4 -->
<g id="edge3" class="edge">
<title>Node2&#45;&gt;Node4</title>
<path fill="none" stroke="midnightblue" d="M52,-56.32C60.19,-48.42 72.51,-36.55 82.47,-26.94"/>
<polygon fill="midnightblue" stroke="midnightblue" points="85.07,-29.29 89.84,-19.83 80.21,-24.26 85.07,-29.29"/>
</g>
</g>
</svg>
