<?xml version="1.0" encoding="UTF-8" standalone="no"?>
<!DOCTYPE svg PUBLIC "-//W3C//DTD SVG 1.1//EN"
 "http://www.w3.org/Graphics/SVG/1.1/DTD/svg11.dtd">
<!-- Generated by graphviz version 8.0.2 (20230410.1723)
 -->
<!-- Title: fake_clock_init Pages: 1 -->
<svg width="485pt" height="64pt"
 viewBox="0.00 0.00 485.00 64.00" xmlns="http://www.w3.org/2000/svg" xmlns:xlink="http://www.w3.org/1999/xlink">
<g id="graph0" class="graph" transform="scale(1 1) rotate(0) translate(4 60)">
<title>fake_clock_init</title>
<!-- Node1 -->
<g id="Node000001" class="node">
<title>Node1</title>
<g id="a_Node000001"><a xlink:title=" ">
<polygon fill="#999999" stroke="#666666" points="477,-37 395,-37 395,-18 477,-18 477,-37"/>
<text text-anchor="middle" x="436" y="-25" font-family="Helvetica,sans-Serif" font-size="10.00">fake_clock_init</text>
</a>
</g>
</g>
<!-- Node1&#45;&gt;Node1 -->
<g id="edge8_Node000001_Node000001" class="edge">
<title>Node1&#45;&gt;Node1</title>
<g id="a_edge8_Node000001_Node000001"><a xlink:title=" ">
<path fill="none" stroke="#63b8ff" d="M457.35,-47.76C455.11,-51.97 447.99,-55 436,-55 415.26,-55 409.1,-45.94 417.53,-37.37"/>
<polygon fill="#63b8ff" stroke="#63b8ff" points="460.52,-47.07 454.47,-38.37 453.77,-48.94 460.52,-47.07"/>
</a>
</g>
</g>
<!-- Node2 -->
<g id="Node000002" class="node">
<title>Node2</title>
<g id="a_Node000002"><a xlink:href="kernel_2arch_2x86__64_2arch_2time_8c.html#a6a77f2fd7f917b183c433543789a542b" target="_top" xlink:title=" ">
<polygon fill="white" stroke="#666666" points="359,-37 277,-37 277,-18 359,-18 359,-37"/>
<text text-anchor="middle" x="318" y="-25" font-family="Helvetica,sans-Serif" font-size="10.00">arch_clock_init</text>
</a>
</g>
</g>
<!-- Node1&#45;&gt;Node2 -->
<g id="edge1_Node000001_Node000002" class="edge">
<title>Node1&#45;&gt;Node2</title>
<g id="a_edge1_Node000001_Node000002"><a xlink:title=" ">
<path fill="none" stroke="#63b8ff" d="M384,-27.5C375.69,-27.5 367.18,-27.5 359.17,-27.5"/>
<polygon fill="#63b8ff" stroke="#63b8ff" points="383.75,-31 393.75,-27.5 383.75,-24 383.75,-31"/>
</a>
</g>
</g>
<!-- Node2&#45;&gt;Node2 -->
<g id="edge2_Node000002_Node000002" class="edge">
<title>Node2&#45;&gt;Node2</title>
<g id="a_edge2_Node000002_Node000002"><a xlink:title=" ">
<path fill="none" stroke="#63b8ff" d="M337.01,-48.1C334.82,-52.13 328.48,-55 318,-55 299.37,-55 293.84,-45.94 301.41,-37.37"/>
<polygon fill="#63b8ff" stroke="#63b8ff" points="340.2,-47.36 334.59,-38.37 333.37,-48.89 340.2,-47.36"/>
</a>
</g>
</g>
<!-- Node3 -->
<g id="Node000003" class="node">
<title>Node3</title>
<g id="a_Node000003"><a xlink:href="clock_8c.html#ae9cc0a879e88eea28e4e8b57318ef8e5" target="_top" xlink:title=" ">
<polygon fill="white" stroke="#666666" points="241,-37 183,-37 183,-18 241,-18 241,-37"/>
<text text-anchor="middle" x="212" y="-25" font-family="Helvetica,sans-Serif" font-size="10.00">clock_init</text>
</a>
</g>
</g>
<!-- Node2&#45;&gt;Node3 -->
<g id="edge3_Node000002_Node000003" class="edge">
<title>Node2&#45;&gt;Node3</title>
<g id="a_edge3_Node000002_Node000003"><a xlink:title=" ">
<path fill="none" stroke="#63b8ff" d="M266.04,-27.5C257.49,-27.5 248.89,-27.5 241.19,-27.5"/>
<polygon fill="#63b8ff" stroke="#63b8ff" points="265.79,-31 275.79,-27.5 265.79,-24 265.79,-31"/>
</a>
</g>
</g>
<!-- Node3&#45;&gt;Node3 -->
<g id="edge4_Node000003_Node000003" class="edge">
<title>Node3&#45;&gt;Node3</title>
<g id="a_edge4_Node000003_Node000003"><a xlink:title=" ">
<path fill="none" stroke="#63b8ff" d="M229.75,-48.1C227.71,-52.13 221.79,-55 212,-55 194.6,-55 189.43,-45.94 196.5,-37.37"/>
<polygon fill="#63b8ff" stroke="#63b8ff" points="232.98,-47.44 227.5,-38.37 226.13,-48.87 232.98,-47.44"/>
</a>
</g>
</g>
<!-- Node4 -->
<g id="Node000004" class="node">
<title>Node4</title>
<g id="a_Node000004"><a xlink:href="kmain_8c.html#a666c17b307920a60e50fcf56312f9500" target="_top" xlink:title=" ">
<polygon fill="white" stroke="#666666" points="147,-37 79,-37 79,-18 147,-18 147,-37"/>
<text text-anchor="middle" x="113" y="-25" font-family="Helvetica,sans-Serif" font-size="10.00">kmain_start</text>
</a>
</g>
</g>
<!-- Node3&#45;&gt;Node4 -->
<g id="edge5_Node000003_Node000004" class="edge">
<title>Node3&#45;&gt;Node4</title>
<g id="a_edge5_Node000003_Node000004"><a xlink:title=" ">
<path fill="none" stroke="#63b8ff" d="M171.89,-27.5C163.75,-27.5 155.23,-27.5 147.32,-27.5"/>
<polygon fill="#63b8ff" stroke="#63b8ff" points="171.68,-31 181.68,-27.5 171.68,-24 171.68,-31"/>
</a>
</g>
</g>
<!-- Node5 -->
<g id="Node000005" class="node">
<title>Node5</title>
<g id="a_Node000005"><a xlink:href="arch_2aarch32_2board_2raspi2_2kmain_8c.html#a798325fe646ee31fccf3f735f9bbaf60" target="_top" xlink:title=" ">
<polygon fill="white" stroke="#666666" points="43,-56 0,-56 0,-37 43,-37 43,-56"/>
<text text-anchor="middle" x="21.5" y="-44" font-family="Helvetica,sans-Serif" font-size="10.00">kmain</text>
</a>
</g>
</g>
<!-- Node4&#45;&gt;Node5 -->
<g id="edge6_Node000004_Node000005" class="edge">
<title>Node4&#45;&gt;Node5</title>
<g id="a_edge6_Node000004_Node000005"><a xlink:title=" ">
<path fill="none" stroke="#63b8ff" d="M67.93,-36.86C59.36,-38.67 50.76,-40.5 43.38,-42.07"/>
<polygon fill="#63b8ff" stroke="#63b8ff" points="68.62,-40.08 77.67,-34.57 67.16,-33.23 68.62,-40.08"/>
</a>
</g>
</g>
<!-- Node6 -->
<g id="Node000006" class="node">
<title>Node6</title>
<g id="a_Node000006"><a xlink:href="arch_2x86__64_2kmain_8c.html#ad6d3bd9ddd2519d6040e79426dc57fb5" target="_top" xlink:title=" ">
<polygon fill="white" stroke="#666666" points="43,-19 0,-19 0,0 43,0 43,-19"/>
<text text-anchor="middle" x="21.5" y="-7" font-family="Helvetica,sans-Serif" font-size="10.00">kmain</text>
</a>
</g>
</g>
<!-- Node4&#45;&gt;Node6 -->
<g id="edge7_Node000004_Node000006" class="edge">
<title>Node4&#45;&gt;Node6</title>
<g id="a_edge7_Node000004_Node000006"><a xlink:title=" ">
<path fill="none" stroke="#63b8ff" d="M67.93,-18.64C59.36,-16.91 50.76,-15.18 43.38,-13.7"/>
<polygon fill="#63b8ff" stroke="#63b8ff" points="67.18,-22.26 77.67,-20.8 68.56,-15.39 67.18,-22.26"/>
</a>
</g>
</g>
</g>
</svg>
