<?xml version="1.0" encoding="UTF-8" standalone="no"?>
<!DOCTYPE svg PUBLIC "-//W3C//DTD SVG 1.1//EN"
 "http://www.w3.org/Graphics/SVG/1.1/DTD/svg11.dtd">
<!-- Generated by graphviz version 8.0.2 (20230410.1723)
 -->
<!-- Title: fake_clock_get_current_microseconds Pages: 1 -->
<svg width="654pt" height="56pt"
 viewBox="0.00 0.00 654.00 56.00" xmlns="http://www.w3.org/2000/svg" xmlns:xlink="http://www.w3.org/1999/xlink">
<g id="graph0" class="graph" transform="scale(1 1) rotate(0) translate(4 52)">
<title>fake_clock_get_current_microseconds</title>
<!-- Node1 -->
<g id="Node000001" class="node">
<title>Node1</title>
<g id="a_Node000001"><a xlink:title=" ">
<polygon fill="#999999" stroke="#666666" points="118,-30 0,-30 0,0 118,0 118,-30"/>
<text text-anchor="start" x="8" y="-18" font-family="Helvetica,sans-Serif" font-size="10.00">fake_clock_get_current</text>
<text text-anchor="middle" x="59" y="-7" font-family="Helvetica,sans-Serif" font-size="10.00">_microseconds</text>
</a>
</g>
</g>
<!-- Node1&#45;&gt;Node1 -->
<g id="edge1_Node000001_Node000001" class="edge">
<title>Node1&#45;&gt;Node1</title>
<g id="a_edge1_Node000001_Node000001"><a xlink:title=" ">
<path fill="none" stroke="#63b8ff" d="M30.08,-30.28C23.66,-39.41 33.3,-48 59,-48 73.86,-48 83.35,-45.13 87.47,-40.94"/>
<polygon fill="#63b8ff" stroke="#63b8ff" points="91,-41.41 87.92,-31.28 84,-41.12 91,-41.41"/>
</a>
</g>
</g>
<!-- Node2 -->
<g id="Node000002" class="node">
<title>Node2</title>
<g id="a_Node000002"><a xlink:href="timer_8c.html#a9e237401e78bbceb0c0070ef2ecb4569" target="_top" xlink:title=" ">
<polygon fill="white" stroke="#666666" points="293,-24.5 154,-24.5 154,-5.5 293,-5.5 293,-24.5"/>
<text text-anchor="middle" x="223.5" y="-12.5" font-family="Helvetica,sans-Serif" font-size="10.00">timer_uptime_microseconds</text>
</a>
</g>
</g>
<!-- Node1&#45;&gt;Node2 -->
<g id="edge2_Node000001_Node000002" class="edge">
<title>Node1&#45;&gt;Node2</title>
<g id="a_edge2_Node000001_Node000002"><a xlink:title=" ">
<path fill="none" stroke="#63b8ff" d="M118.21,-15C126.19,-15 134.49,-15 142.77,-15"/>
<polygon fill="#63b8ff" stroke="#63b8ff" points="142.61,-18.5 152.61,-15 142.61,-11.5 142.61,-18.5"/>
</a>
</g>
</g>
<!-- Node2&#45;&gt;Node2 -->
<g id="edge7_Node000002_Node000002" class="edge">
<title>Node2&#45;&gt;Node2</title>
<g id="a_edge7_Node000002_Node000002"><a xlink:title=" ">
<path fill="none" stroke="#63b8ff" d="M197.75,-24.87C186,-33.44 194.58,-42.5 223.5,-42.5 240.67,-42.5 250.67,-39.3 253.5,-34.92"/>
<polygon fill="#63b8ff" stroke="#63b8ff" points="256.37,-33.71 249.25,-25.87 249.93,-36.44 256.37,-33.71"/>
</a>
</g>
</g>
<!-- Node3 -->
<g id="Node000003" class="node">
<title>Node3</title>
<g id="a_Node000003"><a xlink:href="kernel_2arch_2x86__64_2arch_2time_8c.html#af8e08f88e4ec6768891cfce52318c3d3" target="_top" xlink:title=" ">
<polygon fill="white" stroke="#666666" points="492,-24.5 329,-24.5 329,-5.5 492,-5.5 492,-24.5"/>
<text text-anchor="middle" x="410.5" y="-12.5" font-family="Helvetica,sans-Serif" font-size="10.00">arch_timer_uptime_microseconds</text>
</a>
</g>
</g>
<!-- Node2&#45;&gt;Node3 -->
<g id="edge3_Node000002_Node000003" class="edge">
<title>Node2&#45;&gt;Node3</title>
<g id="a_edge3_Node000002_Node000003"><a xlink:title=" ">
<path fill="none" stroke="#63b8ff" d="M293.39,-15C301.39,-15 309.64,-15 317.88,-15"/>
<polygon fill="#63b8ff" stroke="#63b8ff" points="317.69,-18.5 327.69,-15 317.69,-11.5 317.69,-18.5"/>
</a>
</g>
</g>
<!-- Node3&#45;&gt;Node3 -->
<g id="edge4_Node000003_Node000003" class="edge">
<title>Node3&#45;&gt;Node3</title>
<g id="a_edge4_Node000003_Node000003"><a xlink:title=" ">
<path fill="none" stroke="#63b8ff" d="M382.87,-24.87C370.26,-33.44 379.47,-42.5 410.5,-42.5 429.41,-42.5 440.21,-39.13 442.92,-34.57"/>
<polygon fill="#63b8ff" stroke="#63b8ff" points="445.7,-33.29 438.13,-25.87 439.42,-36.38 445.7,-33.29"/>
</a>
</g>
</g>
<!-- Node4 -->
<g id="Node000004" class="node">
<title>Node4</title>
<g id="a_Node000004"><a xlink:href="bcm2835__timer_8c.html#aa5e375169036beb10f6778afb7eddecd" target="_top" xlink:title=" ">
<polygon fill="white" stroke="#666666" points="646,-30 528,-30 528,0 646,0 646,-30"/>
<text text-anchor="start" x="536" y="-18" font-family="Helvetica,sans-Serif" font-size="10.00">bcm2835_timer_uptime</text>
<text text-anchor="middle" x="587" y="-7" font-family="Helvetica,sans-Serif" font-size="10.00">_microseconds</text>
</a>
</g>
</g>
<!-- Node3&#45;&gt;Node4 -->
<g id="edge5_Node000003_Node000004" class="edge">
<title>Node3&#45;&gt;Node4</title>
<g id="a_edge5_Node000003_Node000004"><a xlink:title=" ">
<path fill="none" stroke="#63b8ff" d="M492.36,-15C500.52,-15 508.74,-15 516.76,-15"/>
<polygon fill="#63b8ff" stroke="#63b8ff" points="516.53,-18.5 526.53,-15 516.53,-11.5 516.53,-18.5"/>
</a>
</g>
</g>
<!-- Node4&#45;&gt;Node4 -->
<g id="edge6_Node000004_Node000004" class="edge">
<title>Node4&#45;&gt;Node4</title>
<g id="a_edge6_Node000004_Node000004"><a xlink:title=" ">
<path fill="none" stroke="#63b8ff" d="M555.97,-30.28C549.08,-39.41 559.42,-48 587,-48 602.94,-48 613.13,-45.13 617.55,-40.94"/>
<polygon fill="#63b8ff" stroke="#63b8ff" points="621.07,-41.42 618.03,-31.28 614.08,-41.11 621.07,-41.42"/>
</a>
</g>
</g>
</g>
</svg>
