<?xml version="1.0" encoding="UTF-8" standalone="no"?>
<!DOCTYPE svg PUBLIC "-//W3C//DTD SVG 1.1//EN"
 "http://www.w3.org/Graphics/SVG/1.1/DTD/svg11.dtd">
<!-- Generated by graphviz version 8.0.2 (20230410.1723)
 -->
<!-- Title: fake_clock_get_current_microseconds Pages: 1 -->
<svg width="654pt" height="39pt"
 viewBox="0.00 0.00 654.00 39.00" xmlns="http://www.w3.org/2000/svg" xmlns:xlink="http://www.w3.org/1999/xlink">
<g id="graph0" class="graph" transform="scale(1 1) rotate(0) translate(4 35)">
<title>fake_clock_get_current_microseconds</title>
<!-- Node1 -->
<g id="node1" class="node">
<title>Node1</title>
<g id="a_node1"><a xlink:title=" ">
<polygon fill="#bfbfbf" stroke="black" points="0,-0.5 0,-30.5 118,-30.5 118,-0.5 0,-0.5"/>
<text text-anchor="start" x="8" y="-18.5" font-family="Helvetica,sans-Serif" font-size="10.00">fake_clock_get_current</text>
<text text-anchor="middle" x="59" y="-7.5" font-family="Helvetica,sans-Serif" font-size="10.00">_microseconds</text>
</a>
</g>
</g>
<!-- Node2 -->
<g id="node2" class="node">
<title>Node2</title>
<g id="a_node2"><a xlink:href="timer_8c.html#a9e237401e78bbceb0c0070ef2ecb4569" target="_top" xlink:title=" ">
<polygon fill="none" stroke="black" points="154,-6 154,-25 293,-25 293,-6 154,-6"/>
<text text-anchor="middle" x="223.5" y="-13" font-family="Helvetica,sans-Serif" font-size="10.00">timer_uptime_microseconds</text>
</a>
</g>
</g>
<!-- Node1&#45;&gt;Node2 -->
<g id="edge1" class="edge">
<title>Node1&#45;&gt;Node2</title>
<path fill="none" stroke="midnightblue" d="M117.75,-15.5C126.02,-15.5 134.65,-15.5 143.25,-15.5"/>
<polygon fill="midnightblue" stroke="midnightblue" points="143.1,-19 153.1,-15.5 143.1,-12 143.1,-19"/>
</g>
<!-- Node3 -->
<g id="node3" class="node">
<title>Node3</title>
<g id="a_node3"><a xlink:href="kernel_2arch_2x86__64_2arch_2time_8c.html#af8e08f88e4ec6768891cfce52318c3d3" target="_top" xlink:title=" ">
<polygon fill="none" stroke="black" points="329,-6 329,-25 492,-25 492,-6 329,-6"/>
<text text-anchor="middle" x="410.5" y="-13" font-family="Helvetica,sans-Serif" font-size="10.00">arch_timer_uptime_microseconds</text>
</a>
</g>
</g>
<!-- Node2&#45;&gt;Node3 -->
<g id="edge2" class="edge">
<title>Node2&#45;&gt;Node3</title>
<path fill="none" stroke="midnightblue" d="M292.86,-15.5C301.18,-15.5 309.79,-15.5 318.37,-15.5"/>
<polygon fill="midnightblue" stroke="midnightblue" points="318.22,-19 328.22,-15.5 318.22,-12 318.22,-19"/>
</g>
<!-- Node4 -->
<g id="node4" class="node">
<title>Node4</title>
<g id="a_node4"><a xlink:href="bcm2835__timer_8c.html#aa5e375169036beb10f6778afb7eddecd" target="_top" xlink:title=" ">
<polygon fill="none" stroke="black" points="528,-0.5 528,-30.5 646,-30.5 646,-0.5 528,-0.5"/>
<text text-anchor="start" x="536" y="-18.5" font-family="Helvetica,sans-Serif" font-size="10.00">bcm2835_timer_uptime</text>
<text text-anchor="middle" x="587" y="-7.5" font-family="Helvetica,sans-Serif" font-size="10.00">_microseconds</text>
</a>
</g>
</g>
<!-- Node3&#45;&gt;Node4 -->
<g id="edge3" class="edge">
<title>Node3&#45;&gt;Node4</title>
<path fill="none" stroke="midnightblue" d="M491.85,-15.5C500.38,-15.5 508.98,-15.5 517.35,-15.5"/>
<polygon fill="midnightblue" stroke="midnightblue" points="517.19,-19 527.19,-15.5 517.19,-12 517.19,-19"/>
</g>
</g>
</svg>
