<?xml version="1.0" encoding="UTF-8" standalone="no"?>
<!DOCTYPE svg PUBLIC "-//W3C//DTD SVG 1.1//EN"
 "http://www.w3.org/Graphics/SVG/1.1/DTD/svg11.dtd">
<!-- Generated by graphviz version 2.49.3 (20211023.0002)
 -->
<!-- Title: fake_clock_get_current_microseconds Pages: 1 -->
<svg width="483pt" height="39pt"
 viewBox="0.00 0.00 483.00 39.00" xmlns="http://www.w3.org/2000/svg" xmlns:xlink="http://www.w3.org/1999/xlink">
<g id="graph0" class="graph" transform="scale(1 1) rotate(0) translate(4 35)">
<title>fake_clock_get_current_microseconds</title>
<!-- Node1 -->
<g id="node1" class="node">
<title>Node1</title>
<g id="a_node1"><a xlink:title=" ">
<polygon fill="#bfbfbf" stroke="black" points="355,-0.5 355,-30.5 475,-30.5 475,-0.5 355,-0.5"/>
<text text-anchor="start" x="363" y="-18.5" font-family="Helvetica,sans-Serif" font-size="10.00">fake_clock_get_current</text>
<text text-anchor="middle" x="415" y="-7.5" font-family="Helvetica,sans-Serif" font-size="10.00">_microseconds</text>
</a>
</g>
</g>
<!-- Node2 -->
<g id="node2" class="node">
<title>Node2</title>
<g id="a_node2"><a xlink:href="kernel_2arch_2x86__64_2arch_2time_8c.html#ab4bc50190a5180744036f0962b00c364" target="_top" xlink:title=" ">
<polygon fill="none" stroke="black" points="199,-0.5 199,-30.5 319,-30.5 319,-0.5 199,-0.5"/>
<text text-anchor="start" x="207" y="-18.5" font-family="Helvetica,sans-Serif" font-size="10.00">arch_clock_get_current</text>
<text text-anchor="middle" x="259" y="-7.5" font-family="Helvetica,sans-Serif" font-size="10.00">_microseconds</text>
</a>
</g>
</g>
<!-- Node1&#45;&gt;Node2 -->
<g id="edge1" class="edge">
<title>Node1&#45;&gt;Node2</title>
<path fill="none" stroke="midnightblue" d="M344.63,-15.5C336.14,-15.5 327.52,-15.5 319.2,-15.5"/>
<polygon fill="midnightblue" stroke="midnightblue" points="344.9,-19 354.9,-15.5 344.9,-12 344.9,-19"/>
</g>
<!-- Node3 -->
<g id="node3" class="node">
<title>Node3</title>
<g id="a_node3"><a xlink:href="clock_8c.html#add4ef47919811f366e7c7561c71088fb" target="_top" xlink:title=" ">
<polygon fill="none" stroke="black" points="0,-6 0,-25 163,-25 163,-6 0,-6"/>
<text text-anchor="middle" x="81.5" y="-13" font-family="Helvetica,sans-Serif" font-size="10.00">clock_get_current_microseconds</text>
</a>
</g>
</g>
<!-- Node2&#45;&gt;Node3 -->
<g id="edge2" class="edge">
<title>Node2&#45;&gt;Node3</title>
<path fill="none" stroke="midnightblue" d="M188.51,-15.5C180.14,-15.5 171.53,-15.5 163.02,-15.5"/>
<polygon fill="midnightblue" stroke="midnightblue" points="188.58,-19 198.58,-15.5 188.58,-12 188.58,-19"/>
</g>
</g>
</svg>
