<?xml version="1.0" encoding="UTF-8" standalone="no"?>
<!DOCTYPE svg PUBLIC "-//W3C//DTD SVG 1.1//EN"
 "http://www.w3.org/Graphics/SVG/1.1/DTD/svg11.dtd">
<!-- Generated by graphviz version 2.49.3 (20211023.0002)
 -->
<!-- Title: src/kernel/arch/x86_64/mmu/frame.h Pages: 1 -->
<svg width="280pt" height="151pt"
 viewBox="0.00 0.00 279.50 151.00" xmlns="http://www.w3.org/2000/svg" xmlns:xlink="http://www.w3.org/1999/xlink">
<g id="graph0" class="graph" transform="scale(1 1) rotate(0) translate(4 147)">
<title>src/kernel/arch/x86_64/mmu/frame.h</title>
<!-- Node1 -->
<g id="node1" class="node">
<title>Node1</title>
<g id="a_node1"><a xlink:title=" ">
<polygon fill="#bfbfbf" stroke="black" points="79,-112.5 79,-142.5 180,-142.5 180,-112.5 79,-112.5"/>
<text text-anchor="start" x="87" y="-130.5" font-family="Helvetica,sans-Serif" font-size="10.00">src/kernel/arch/x86</text>
<text text-anchor="middle" x="129.5" y="-119.5" font-family="Helvetica,sans-Serif" font-size="10.00">_64/mmu/frame.h</text>
</a>
</g>
</g>
<!-- Node2 -->
<g id="node2" class="node">
<title>Node2</title>
<g id="a_node2"><a xlink:href="multiboot_8h.html" target="_top" xlink:title=" ">
<polygon fill="none" stroke="black" points="85.5,-56.5 85.5,-75.5 173.5,-75.5 173.5,-56.5 85.5,-56.5"/>
<text text-anchor="middle" x="129.5" y="-63.5" font-family="Helvetica,sans-Serif" font-size="10.00">core/multiboot.h</text>
</a>
</g>
</g>
<!-- Node1&#45;&gt;Node2 -->
<g id="edge1" class="edge">
<title>Node1&#45;&gt;Node2</title>
<path fill="none" stroke="midnightblue" d="M129.5,-112.4C129.5,-104.47 129.5,-94.46 129.5,-85.86"/>
<polygon fill="midnightblue" stroke="midnightblue" points="133,-85.66 129.5,-75.66 126,-85.66 133,-85.66"/>
</g>
<!-- Node5 -->
<g id="node5" class="node">
<title>Node5</title>
<g id="a_node5"><a xlink:href="bitmap_8h.html" target="_top" xlink:title=" ">
<polygon fill="none" stroke="black" points="191.5,-56.5 191.5,-75.5 271.5,-75.5 271.5,-56.5 191.5,-56.5"/>
<text text-anchor="middle" x="231.5" y="-63.5" font-family="Helvetica,sans-Serif" font-size="10.00">mmu/bitmap.h</text>
</a>
</g>
</g>
<!-- Node1&#45;&gt;Node5 -->
<g id="edge4" class="edge">
<title>Node1&#45;&gt;Node5</title>
<path fill="none" stroke="midnightblue" d="M153.67,-112.4C170.02,-102.86 191.51,-90.32 207.77,-80.84"/>
<polygon fill="midnightblue" stroke="midnightblue" points="209.78,-83.72 216.66,-75.66 206.26,-77.67 209.78,-83.72"/>
</g>
<!-- Node7 -->
<g id="node7" class="node">
<title>Node7</title>
<g id="a_node7"><a xlink:href="types_8h.html" target="_top" xlink:title=" ">
<polygon fill="none" stroke="black" points="0,-56.5 0,-75.5 67,-75.5 67,-56.5 0,-56.5"/>
<text text-anchor="middle" x="33.5" y="-63.5" font-family="Helvetica,sans-Serif" font-size="10.00">sys/types.h</text>
</a>
</g>
</g>
<!-- Node1&#45;&gt;Node7 -->
<g id="edge8" class="edge">
<title>Node1&#45;&gt;Node7</title>
<path fill="none" stroke="midnightblue" d="M106.75,-112.4C91.51,-102.95 71.51,-90.56 56.26,-81.11"/>
<polygon fill="midnightblue" stroke="midnightblue" points="57.81,-77.95 47.47,-75.66 54.12,-83.9 57.81,-77.95"/>
</g>
<!-- Node3 -->
<g id="node3" class="node">
<title>Node3</title>
<g id="a_node3"><a xlink:title=" ">
<polygon fill="none" stroke="#bfbfbf" points="139,-0.5 139,-19.5 196,-19.5 196,-0.5 139,-0.5"/>
<text text-anchor="middle" x="167.5" y="-7.5" font-family="Helvetica,sans-Serif" font-size="10.00">stdbool.h</text>
</a>
</g>
</g>
<!-- Node2&#45;&gt;Node3 -->
<g id="edge2" class="edge">
<title>Node2&#45;&gt;Node3</title>
<path fill="none" stroke="midnightblue" d="M135.77,-56.08C141.14,-48.46 149.02,-37.26 155.58,-27.94"/>
<polygon fill="midnightblue" stroke="midnightblue" points="158.45,-29.94 161.34,-19.75 152.72,-25.91 158.45,-29.94"/>
</g>
<!-- Node4 -->
<g id="node4" class="node">
<title>Node4</title>
<g id="a_node4"><a xlink:title=" ">
<polygon fill="none" stroke="#bfbfbf" points="72,-0.5 72,-19.5 121,-19.5 121,-0.5 72,-0.5"/>
<text text-anchor="middle" x="96.5" y="-7.5" font-family="Helvetica,sans-Serif" font-size="10.00">stdint.h</text>
</a>
</g>
</g>
<!-- Node2&#45;&gt;Node4 -->
<g id="edge3" class="edge">
<title>Node2&#45;&gt;Node4</title>
<path fill="none" stroke="midnightblue" d="M124.05,-56.08C119.49,-48.61 112.83,-37.72 107.21,-28.52"/>
<polygon fill="midnightblue" stroke="midnightblue" points="110.05,-26.46 101.85,-19.75 104.08,-30.11 110.05,-26.46"/>
</g>
<!-- Node5&#45;&gt;Node3 -->
<g id="edge6" class="edge">
<title>Node5&#45;&gt;Node3</title>
<path fill="none" stroke="midnightblue" d="M221.22,-56.32C211.66,-48.26 197.22,-36.08 185.72,-26.37"/>
<polygon fill="midnightblue" stroke="midnightblue" points="187.87,-23.61 177.97,-19.83 183.36,-28.96 187.87,-23.61"/>
</g>
<!-- Node5&#45;&gt;Node4 -->
<g id="edge7" class="edge">
<title>Node5&#45;&gt;Node4</title>
<path fill="none" stroke="midnightblue" d="M210.11,-56.44C187.79,-47.52 152.6,-33.44 127.29,-23.32"/>
<polygon fill="midnightblue" stroke="midnightblue" points="128.38,-19.98 117.79,-19.52 125.78,-26.48 128.38,-19.98"/>
</g>
<!-- Node6 -->
<g id="node6" class="node">
<title>Node6</title>
<g id="a_node6"><a xlink:title=" ">
<polygon fill="none" stroke="#bfbfbf" points="214.5,-0.5 214.5,-19.5 262.5,-19.5 262.5,-0.5 214.5,-0.5"/>
<text text-anchor="middle" x="238.5" y="-7.5" font-family="Helvetica,sans-Serif" font-size="10.00">limits.h</text>
</a>
</g>
</g>
<!-- Node5&#45;&gt;Node6 -->
<g id="edge5" class="edge">
<title>Node5&#45;&gt;Node6</title>
<path fill="none" stroke="midnightblue" d="M232.66,-56.08C233.58,-48.93 234.92,-38.64 236.08,-29.69"/>
<polygon fill="midnightblue" stroke="midnightblue" points="239.55,-30.12 237.37,-19.75 232.61,-29.22 239.55,-30.12"/>
</g>
<!-- Node7&#45;&gt;Node3 -->
<g id="edge9" class="edge">
<title>Node7&#45;&gt;Node3</title>
<path fill="none" stroke="midnightblue" d="M54.73,-56.44C76.88,-47.52 111.82,-33.44 136.94,-23.32"/>
<polygon fill="midnightblue" stroke="midnightblue" points="138.4,-26.5 146.37,-19.52 135.78,-20.01 138.4,-26.5"/>
</g>
<!-- Node7&#45;&gt;Node4 -->
<g id="edge11" class="edge">
<title>Node7&#45;&gt;Node4</title>
<path fill="none" stroke="midnightblue" d="M43.62,-56.32C53.03,-48.26 67.24,-36.08 78.57,-26.37"/>
<polygon fill="midnightblue" stroke="midnightblue" points="80.88,-29 86.19,-19.83 76.32,-23.68 80.88,-29"/>
</g>
<!-- Node8 -->
<g id="node8" class="node">
<title>Node8</title>
<g id="a_node8"><a xlink:title=" ">
<polygon fill="none" stroke="#bfbfbf" points="1.5,-0.5 1.5,-19.5 53.5,-19.5 53.5,-0.5 1.5,-0.5"/>
<text text-anchor="middle" x="27.5" y="-7.5" font-family="Helvetica,sans-Serif" font-size="10.00">stddef.h</text>
</a>
</g>
</g>
<!-- Node7&#45;&gt;Node8 -->
<g id="edge10" class="edge">
<title>Node7&#45;&gt;Node8</title>
<path fill="none" stroke="midnightblue" d="M32.51,-56.08C31.71,-48.93 30.57,-38.64 29.58,-29.69"/>
<polygon fill="midnightblue" stroke="midnightblue" points="33.06,-29.3 28.47,-19.75 26.1,-30.08 33.06,-29.3"/>
</g>
</g>
</svg>
