<?xml version="1.0" encoding="UTF-8" standalone="no"?>
<!DOCTYPE svg PUBLIC "-//W3C//DTD SVG 1.1//EN"
 "http://www.w3.org/Graphics/SVG/1.1/DTD/svg11.dtd">
<!-- Generated by graphviz version 8.0.2 (20230410.1723)
 -->
<!-- Title: frame_deallocate Pages: 1 -->
<svg width="207pt" height="45pt"
 viewBox="0.00 0.00 207.00 45.00" xmlns="http://www.w3.org/2000/svg" xmlns:xlink="http://www.w3.org/1999/xlink">
<g id="graph0" class="graph" transform="scale(1 1) rotate(0) translate(4 41)">
<title>frame_deallocate</title>
<!-- Node1 -->
<g id="Node000001" class="node">
<title>Node1</title>
<g id="a_Node000001"><a xlink:title=" ">
<polygon fill="#999999" stroke="#666666" points="91,-19 0,-19 0,0 91,0 91,-19"/>
<text text-anchor="middle" x="45.5" y="-7" font-family="Helvetica,sans-Serif" font-size="10.00">frame_deallocate</text>
</a>
</g>
</g>
<!-- Node2 -->
<g id="Node000002" class="node">
<title>Node2</title>
<g id="a_Node000002"><a xlink:href="bitmap_8c.html#acbd3f5323acaf517704e69c47396119f" target="_top" xlink:title=" ">
<polygon fill="white" stroke="#666666" points="199,-19 127,-19 127,0 199,0 199,-19"/>
<text text-anchor="middle" x="163" y="-7" font-family="Helvetica,sans-Serif" font-size="10.00">bitmap_clear</text>
</a>
</g>
</g>
<!-- Node1&#45;&gt;Node2 -->
<g id="edge1_Node000001_Node000002" class="edge">
<title>Node1&#45;&gt;Node2</title>
<g id="a_edge1_Node000001_Node000002"><a xlink:title=" ">
<path fill="none" stroke="#63b8ff" d="M91.49,-9.5C99.41,-9.5 107.67,-9.5 115.63,-9.5"/>
<polygon fill="#63b8ff" stroke="#63b8ff" points="115.61,-13 125.61,-9.5 115.61,-6 115.61,-13"/>
</a>
</g>
</g>
<!-- Node2&#45;&gt;Node2 -->
<g id="edge2_Node000002_Node000002" class="edge">
<title>Node2&#45;&gt;Node2</title>
<g id="a_edge2_Node000002_Node000002"><a xlink:title=" ">
<path fill="none" stroke="#63b8ff" d="M144.6,-19.37C136.21,-27.94 142.35,-37 163,-37 174.94,-37 182.03,-33.97 184.26,-29.76"/>
<polygon fill="#63b8ff" stroke="#63b8ff" points="187.43,-29.08 181.4,-20.37 180.68,-30.94 187.43,-29.08"/>
</a>
</g>
</g>
</g>
</svg>
