<?xml version="1.0" encoding="UTF-8" standalone="no"?>
<!DOCTYPE svg PUBLIC "-//W3C//DTD SVG 1.1//EN"
 "http://www.w3.org/Graphics/SVG/1.1/DTD/svg11.dtd">
<!-- Generated by graphviz version 2.49.3 (20211023.0002)
 -->
<!-- Title: src/kernel/arch/x86_64/mmu/frame.h Pages: 1 -->
<svg width="194pt" height="151pt"
 viewBox="0.00 0.00 194.00 151.00" xmlns="http://www.w3.org/2000/svg" xmlns:xlink="http://www.w3.org/1999/xlink">
<g id="graph0" class="graph" transform="scale(1 1) rotate(0) translate(4 147)">
<title>src/kernel/arch/x86_64/mmu/frame.h</title>
<!-- Node1 -->
<g id="node1" class="node">
<title>Node1</title>
<g id="a_node1"><a xlink:title=" ">
<polygon fill="#bfbfbf" stroke="black" points="44.5,-112.5 44.5,-142.5 145.5,-142.5 145.5,-112.5 44.5,-112.5"/>
<text text-anchor="start" x="52.5" y="-130.5" font-family="Helvetica,sans-Serif" font-size="10.00">src/kernel/arch/x86</text>
<text text-anchor="middle" x="95" y="-119.5" font-family="Helvetica,sans-Serif" font-size="10.00">_64/mmu/frame.h</text>
</a>
</g>
</g>
<!-- Node2 -->
<g id="node2" class="node">
<title>Node2</title>
<g id="a_node2"><a xlink:href="multiboot_8h.html" target="_top" xlink:title=" ">
<polygon fill="none" stroke="black" points="0,-56.5 0,-75.5 88,-75.5 88,-56.5 0,-56.5"/>
<text text-anchor="middle" x="44" y="-63.5" font-family="Helvetica,sans-Serif" font-size="10.00">core/multiboot.h</text>
</a>
</g>
</g>
<!-- Node1&#45;&gt;Node2 -->
<g id="edge1" class="edge">
<title>Node1&#45;&gt;Node2</title>
<path fill="none" stroke="midnightblue" d="M82.91,-112.4C75.43,-103.66 65.78,-92.41 57.97,-83.3"/>
<polygon fill="midnightblue" stroke="midnightblue" points="60.59,-80.97 51.42,-75.66 55.27,-85.53 60.59,-80.97"/>
</g>
<!-- Node5 -->
<g id="node5" class="node">
<title>Node5</title>
<g id="a_node5"><a xlink:href="bitmap_8h.html" target="_top" xlink:title=" ">
<polygon fill="none" stroke="black" points="106,-56.5 106,-75.5 186,-75.5 186,-56.5 106,-56.5"/>
<text text-anchor="middle" x="146" y="-63.5" font-family="Helvetica,sans-Serif" font-size="10.00">mmu/bitmap.h</text>
</a>
</g>
</g>
<!-- Node1&#45;&gt;Node5 -->
<g id="edge4" class="edge">
<title>Node1&#45;&gt;Node5</title>
<path fill="none" stroke="midnightblue" d="M107.09,-112.4C114.57,-103.66 124.22,-92.41 132.03,-83.3"/>
<polygon fill="midnightblue" stroke="midnightblue" points="134.73,-85.53 138.58,-75.66 129.41,-80.97 134.73,-85.53"/>
</g>
<!-- Node3 -->
<g id="node3" class="node">
<title>Node3</title>
<g id="a_node3"><a xlink:title=" ">
<polygon fill="none" stroke="#bfbfbf" points="23.5,-0.5 23.5,-19.5 80.5,-19.5 80.5,-0.5 23.5,-0.5"/>
<text text-anchor="middle" x="52" y="-7.5" font-family="Helvetica,sans-Serif" font-size="10.00">stdbool.h</text>
</a>
</g>
</g>
<!-- Node2&#45;&gt;Node3 -->
<g id="edge2" class="edge">
<title>Node2&#45;&gt;Node3</title>
<path fill="none" stroke="midnightblue" d="M45.32,-56.08C46.38,-48.93 47.91,-38.64 49.23,-29.69"/>
<polygon fill="midnightblue" stroke="midnightblue" points="52.7,-30.16 50.7,-19.75 45.78,-29.13 52.7,-30.16"/>
</g>
<!-- Node4 -->
<g id="node4" class="node">
<title>Node4</title>
<g id="a_node4"><a xlink:title=" ">
<polygon fill="none" stroke="#bfbfbf" points="113.5,-0.5 113.5,-19.5 162.5,-19.5 162.5,-0.5 113.5,-0.5"/>
<text text-anchor="middle" x="138" y="-7.5" font-family="Helvetica,sans-Serif" font-size="10.00">stdint.h</text>
</a>
</g>
</g>
<!-- Node2&#45;&gt;Node4 -->
<g id="edge3" class="edge">
<title>Node2&#45;&gt;Node4</title>
<path fill="none" stroke="midnightblue" d="M59.1,-56.32C73.9,-47.82 96.69,-34.73 113.98,-24.8"/>
<polygon fill="midnightblue" stroke="midnightblue" points="116.01,-27.67 122.93,-19.65 112.52,-21.6 116.01,-27.67"/>
</g>
<!-- Node5&#45;&gt;Node3 -->
<g id="edge5" class="edge">
<title>Node5&#45;&gt;Node3</title>
<path fill="none" stroke="midnightblue" d="M130.9,-56.32C116.1,-47.82 93.31,-34.73 76.02,-24.8"/>
<polygon fill="midnightblue" stroke="midnightblue" points="77.48,-21.6 67.07,-19.65 73.99,-27.67 77.48,-21.6"/>
</g>
<!-- Node5&#45;&gt;Node4 -->
<g id="edge6" class="edge">
<title>Node5&#45;&gt;Node4</title>
<path fill="none" stroke="midnightblue" d="M144.68,-56.08C143.62,-48.93 142.09,-38.64 140.77,-29.69"/>
<polygon fill="midnightblue" stroke="midnightblue" points="144.22,-29.13 139.3,-19.75 137.3,-30.16 144.22,-29.13"/>
</g>
</g>
</svg>
