<?xml version="1.0" encoding="UTF-8" standalone="no"?>
<!DOCTYPE svg PUBLIC "-//W3C//DTD SVG 1.1//EN"
 "http://www.w3.org/Graphics/SVG/1.1/DTD/svg11.dtd">
<!-- Generated by graphviz version 9.0.0 (20230911.1827)
 -->
<!-- Title: src/kernel/arch/x86_64/mmu/frame.h Pages: 1 -->
<svg width="275pt" height="149pt"
 viewBox="0.00 0.00 274.62 149.00" xmlns="http://www.w3.org/2000/svg" xmlns:xlink="http://www.w3.org/1999/xlink">
<g id="graph0" class="graph" transform="scale(1 1) rotate(0) translate(4 145)">
<title>src/kernel/arch/x86_64/mmu/frame.h</title>
<!-- Node1 -->
<g id="Node000001" class="node">
<title>Node1</title>
<g id="a_Node000001"><a xlink:title=" ">
<polygon fill="#999999" stroke="#666666" points="177.12,-141 77.88,-141 77.88,-110.5 177.12,-110.5 177.12,-141"/>
<text text-anchor="start" x="85.88" y="-127.5" font-family="Helvetica,sans-Serif" font-size="10.00">src/kernel/arch/x86</text>
<text text-anchor="middle" x="127.5" y="-116.25" font-family="Helvetica,sans-Serif" font-size="10.00">_64/mmu/frame.h</text>
</a>
</g>
</g>
<!-- Node2 -->
<g id="Node000002" class="node">
<title>Node2</title>
<g id="a_Node000002"><a xlink:href="multiboot_8h.html" target="_top" xlink:title=" ">
<polygon fill="white" stroke="#666666" points="170.38,-74.5 84.62,-74.5 84.62,-55.25 170.38,-55.25 170.38,-74.5"/>
<text text-anchor="middle" x="127.5" y="-61" font-family="Helvetica,sans-Serif" font-size="10.00">core/multiboot.h</text>
</a>
</g>
</g>
<!-- Node1&#45;&gt;Node2 -->
<g id="edge1_Node000001_Node000002" class="edge">
<title>Node1&#45;&gt;Node2</title>
<g id="a_edge1_Node000001_Node000002"><a xlink:title=" ">
<path fill="none" stroke="#63b8ff" d="M127.5,-110.2C127.5,-102.96 127.5,-94.09 127.5,-86.19"/>
<polygon fill="#63b8ff" stroke="#63b8ff" points="131,-86.46 127.5,-76.46 124,-86.46 131,-86.46"/>
</a>
</g>
</g>
<!-- Node5 -->
<g id="Node000005" class="node">
<title>Node5</title>
<g id="a_Node000005"><a xlink:href="bitmap_8h.html" target="_top" xlink:title=" ">
<polygon fill="white" stroke="#666666" points="266.62,-74.5 188.38,-74.5 188.38,-55.25 266.62,-55.25 266.62,-74.5"/>
<text text-anchor="middle" x="227.5" y="-61" font-family="Helvetica,sans-Serif" font-size="10.00">mmu/bitmap.h</text>
</a>
</g>
</g>
<!-- Node1&#45;&gt;Node5 -->
<g id="edge4_Node000001_Node000005" class="edge">
<title>Node1&#45;&gt;Node5</title>
<g id="a_edge4_Node000001_Node000005"><a xlink:title=" ">
<path fill="none" stroke="#63b8ff" d="M152.48,-110.05C167.71,-101.08 187.11,-89.66 202.37,-80.67"/>
<polygon fill="#63b8ff" stroke="#63b8ff" points="204.02,-83.76 210.86,-75.67 200.47,-77.73 204.02,-83.76"/>
</a>
</g>
</g>
<!-- Node7 -->
<g id="Node000007" class="node">
<title>Node7</title>
<g id="a_Node000007"><a xlink:href="types_8h.html" target="_top" xlink:title=" ">
<polygon fill="white" stroke="#666666" points="67,-74.5 0,-74.5 0,-55.25 67,-55.25 67,-74.5"/>
<text text-anchor="middle" x="33.5" y="-61" font-family="Helvetica,sans-Serif" font-size="10.00">sys/types.h</text>
</a>
</g>
</g>
<!-- Node1&#45;&gt;Node7 -->
<g id="edge8_Node000001_Node000007" class="edge">
<title>Node1&#45;&gt;Node7</title>
<g id="a_edge8_Node000001_Node000007"><a xlink:title=" ">
<path fill="none" stroke="#63b8ff" d="M104.26,-110.2C90.09,-101.32 72,-89.99 57.66,-81.01"/>
<polygon fill="#63b8ff" stroke="#63b8ff" points="59.61,-78.1 49.27,-75.75 55.89,-84.03 59.61,-78.1"/>
</a>
</g>
</g>
<!-- Node3 -->
<g id="Node000003" class="node">
<title>Node3</title>
<g id="a_Node000003"><a xlink:title=" ">
<polygon fill="#e0e0e0" stroke="#999999" points="192.38,-19.25 136.62,-19.25 136.62,0 192.38,0 192.38,-19.25"/>
<text text-anchor="middle" x="164.5" y="-5.75" font-family="Helvetica,sans-Serif" font-size="10.00">stdbool.h</text>
</a>
</g>
</g>
<!-- Node2&#45;&gt;Node3 -->
<g id="edge2_Node000002_Node000003" class="edge">
<title>Node2&#45;&gt;Node3</title>
<g id="a_edge2_Node000002_Node000003"><a xlink:title=" ">
<path fill="none" stroke="#63b8ff" d="M133.61,-55.08C138.56,-47.96 145.7,-37.68 151.87,-28.8"/>
<polygon fill="#63b8ff" stroke="#63b8ff" points="154.56,-31.06 157.39,-20.85 148.81,-27.07 154.56,-31.06"/>
</a>
</g>
</g>
<!-- Node4 -->
<g id="Node000004" class="node">
<title>Node4</title>
<g id="a_Node000004"><a xlink:title=" ">
<polygon fill="#e0e0e0" stroke="#999999" points="118.62,-19.25 70.38,-19.25 70.38,0 118.62,0 118.62,-19.25"/>
<text text-anchor="middle" x="94.5" y="-5.75" font-family="Helvetica,sans-Serif" font-size="10.00">stdint.h</text>
</a>
</g>
</g>
<!-- Node2&#45;&gt;Node4 -->
<g id="edge3_Node000002_Node000004" class="edge">
<title>Node2&#45;&gt;Node4</title>
<g id="a_edge3_Node000002_Node000004"><a xlink:title=" ">
<path fill="none" stroke="#63b8ff" d="M122.05,-55.08C117.73,-48.11 111.54,-38.12 106.12,-29.37"/>
<polygon fill="#63b8ff" stroke="#63b8ff" points="109.11,-27.55 100.86,-20.9 103.16,-31.24 109.11,-27.55"/>
</a>
</g>
</g>
<!-- Node5&#45;&gt;Node3 -->
<g id="edge6_Node000005_Node000003" class="edge">
<title>Node5&#45;&gt;Node3</title>
<g id="a_edge6_Node000005_Node000003"><a xlink:title=" ">
<path fill="none" stroke="#63b8ff" d="M216.81,-54.84C207.8,-47.22 194.67,-36.12 183.82,-26.95"/>
<polygon fill="#63b8ff" stroke="#63b8ff" points="186.08,-24.28 176.19,-20.5 181.56,-29.63 186.08,-24.28"/>
</a>
</g>
</g>
<!-- Node5&#45;&gt;Node4 -->
<g id="edge7_Node000005_Node000004" class="edge">
<title>Node5&#45;&gt;Node4</title>
<g id="a_edge7_Node000005_Node000004"><a xlink:title=" ">
<path fill="none" stroke="#63b8ff" d="M204.94,-54.84C183.73,-46.35 151.73,-33.54 127.62,-23.89"/>
<polygon fill="#63b8ff" stroke="#63b8ff" points="129.16,-20.73 118.58,-20.27 126.56,-27.23 129.16,-20.73"/>
</a>
</g>
</g>
<!-- Node6 -->
<g id="Node000006" class="node">
<title>Node6</title>
<g id="a_Node000006"><a xlink:title=" ">
<polygon fill="#e0e0e0" stroke="#999999" points="258.25,-19.25 210.75,-19.25 210.75,0 258.25,0 258.25,-19.25"/>
<text text-anchor="middle" x="234.5" y="-5.75" font-family="Helvetica,sans-Serif" font-size="10.00">limits.h</text>
</a>
</g>
</g>
<!-- Node5&#45;&gt;Node6 -->
<g id="edge5_Node000005_Node000006" class="edge">
<title>Node5&#45;&gt;Node6</title>
<g id="a_edge5_Node000005_Node000006"><a xlink:title=" ">
<path fill="none" stroke="#63b8ff" d="M228.66,-55.08C229.52,-48.49 230.74,-39.21 231.84,-30.82"/>
<polygon fill="#63b8ff" stroke="#63b8ff" points="235.29,-31.48 233.12,-21.11 228.35,-30.57 235.29,-31.48"/>
</a>
</g>
</g>
<!-- Node7&#45;&gt;Node3 -->
<g id="edge9_Node000007_Node000003" class="edge">
<title>Node7&#45;&gt;Node3</title>
<g id="a_edge9_Node000007_Node000003"><a xlink:title=" ">
<path fill="none" stroke="#63b8ff" d="M55.72,-54.84C76.52,-46.39 107.85,-33.65 131.55,-24.02"/>
<polygon fill="#63b8ff" stroke="#63b8ff" points="132.82,-27.28 140.77,-20.27 130.18,-20.8 132.82,-27.28"/>
</a>
</g>
</g>
<!-- Node7&#45;&gt;Node4 -->
<g id="edge11_Node000007_Node000004" class="edge">
<title>Node7&#45;&gt;Node4</title>
<g id="a_edge11_Node000007_Node000004"><a xlink:title=" ">
<path fill="none" stroke="#63b8ff" d="M43.85,-54.84C52.58,-47.22 65.29,-36.12 75.8,-26.95"/>
<polygon fill="#63b8ff" stroke="#63b8ff" points="77.93,-29.73 83.16,-20.52 73.33,-24.46 77.93,-29.73"/>
</a>
</g>
</g>
<!-- Node8 -->
<g id="Node000008" class="node">
<title>Node8</title>
<g id="a_Node000008"><a xlink:title=" ">
<polygon fill="#e0e0e0" stroke="#999999" points="52.12,-19.25 0.88,-19.25 0.88,0 52.12,0 52.12,-19.25"/>
<text text-anchor="middle" x="26.5" y="-5.75" font-family="Helvetica,sans-Serif" font-size="10.00">stddef.h</text>
</a>
</g>
</g>
<!-- Node7&#45;&gt;Node8 -->
<g id="edge10_Node000007_Node000008" class="edge">
<title>Node7&#45;&gt;Node8</title>
<g id="a_edge10_Node000007_Node000008"><a xlink:title=" ">
<path fill="none" stroke="#63b8ff" d="M32.34,-55.08C31.48,-48.49 30.26,-39.21 29.16,-30.82"/>
<polygon fill="#63b8ff" stroke="#63b8ff" points="32.65,-30.57 27.88,-21.11 25.71,-31.48 32.65,-30.57"/>
</a>
</g>
</g>
</g>
</svg>
