<?xml version="1.0" encoding="UTF-8" standalone="no"?>
<!DOCTYPE svg PUBLIC "-//W3C//DTD SVG 1.1//EN"
 "http://www.w3.org/Graphics/SVG/1.1/DTD/svg11.dtd">
<!-- Generated by graphviz version 8.0.2 (20230410.1723)
 -->
<!-- Title: src/kernel/arch/x86_64/mmu/frame.h Pages: 1 -->
<svg width="278pt" height="148pt"
 viewBox="0.00 0.00 277.50 148.00" xmlns="http://www.w3.org/2000/svg" xmlns:xlink="http://www.w3.org/1999/xlink">
<g id="graph0" class="graph" transform="scale(1 1) rotate(0) translate(4 144)">
<title>src/kernel/arch/x86_64/mmu/frame.h</title>
<!-- Node1 -->
<g id="Node000001" class="node">
<title>Node1</title>
<g id="a_Node000001"><a xlink:title=" ">
<polygon fill="#999999" stroke="#666666" points="179,-140 79,-140 79,-110 179,-110 179,-140"/>
<text text-anchor="start" x="87" y="-128" font-family="Helvetica,sans-Serif" font-size="10.00">src/kernel/arch/x86</text>
<text text-anchor="middle" x="129" y="-117" font-family="Helvetica,sans-Serif" font-size="10.00">_64/mmu/frame.h</text>
</a>
</g>
</g>
<!-- Node2 -->
<g id="Node000002" class="node">
<title>Node2</title>
<g id="a_Node000002"><a xlink:href="multiboot_8h.html" target="_top" xlink:title=" ">
<polygon fill="white" stroke="#666666" points="172,-74 86,-74 86,-55 172,-55 172,-74"/>
<text text-anchor="middle" x="129" y="-62" font-family="Helvetica,sans-Serif" font-size="10.00">core/multiboot.h</text>
</a>
</g>
</g>
<!-- Node1&#45;&gt;Node2 -->
<g id="edge1_Node000001_Node000002" class="edge">
<title>Node1&#45;&gt;Node2</title>
<g id="a_edge1_Node000001_Node000002"><a xlink:title=" ">
<path fill="none" stroke="#63b8ff" d="M129,-109.54C129,-102.17 129,-93.1 129,-85.11"/>
<polygon fill="#63b8ff" stroke="#63b8ff" points="132.5,-85.18 129,-75.18 125.5,-85.18 132.5,-85.18"/>
</a>
</g>
</g>
<!-- Node5 -->
<g id="Node000005" class="node">
<title>Node5</title>
<g id="a_Node000005"><a xlink:href="bitmap_8h.html" target="_top" xlink:title=" ">
<polygon fill="white" stroke="#666666" points="269.5,-74 190.5,-74 190.5,-55 269.5,-55 269.5,-74"/>
<text text-anchor="middle" x="230" y="-62" font-family="Helvetica,sans-Serif" font-size="10.00">mmu/bitmap.h</text>
</a>
</g>
</g>
<!-- Node1&#45;&gt;Node5 -->
<g id="edge4_Node000001_Node000005" class="edge">
<title>Node1&#45;&gt;Node5</title>
<g id="a_edge4_Node000001_Node000005"><a xlink:title=" ">
<path fill="none" stroke="#63b8ff" d="M153.97,-109.54C169.59,-100.49 189.63,-88.88 205.22,-79.85"/>
<polygon fill="#63b8ff" stroke="#63b8ff" points="206.83,-82.39 213.73,-74.35 203.32,-76.33 206.83,-82.39"/>
</a>
</g>
</g>
<!-- Node7 -->
<g id="Node000007" class="node">
<title>Node7</title>
<g id="a_Node000007"><a xlink:href="types_8h.html" target="_top" xlink:title=" ">
<polygon fill="white" stroke="#666666" points="68,-74 0,-74 0,-55 68,-55 68,-74"/>
<text text-anchor="middle" x="34" y="-62" font-family="Helvetica,sans-Serif" font-size="10.00">sys/types.h</text>
</a>
</g>
</g>
<!-- Node1&#45;&gt;Node7 -->
<g id="edge8_Node000001_Node000007" class="edge">
<title>Node1&#45;&gt;Node7</title>
<g id="a_edge8_Node000001_Node000007"><a xlink:title=" ">
<path fill="none" stroke="#63b8ff" d="M105.52,-109.54C90.96,-100.58 72.33,-89.1 57.73,-80.11"/>
<polygon fill="#63b8ff" stroke="#63b8ff" points="59.72,-76.61 49.37,-74.35 56.05,-82.57 59.72,-76.61"/>
</a>
</g>
</g>
<!-- Node3 -->
<g id="Node000003" class="node">
<title>Node3</title>
<g id="a_Node000003"><a xlink:title=" ">
<polygon fill="#e0e0e0" stroke="#999999" points="195,-19 139,-19 139,0 195,0 195,-19"/>
<text text-anchor="middle" x="167" y="-7" font-family="Helvetica,sans-Serif" font-size="10.00">stdbool.h</text>
</a>
</g>
</g>
<!-- Node2&#45;&gt;Node3 -->
<g id="edge2_Node000002_Node000003" class="edge">
<title>Node2&#45;&gt;Node3</title>
<g id="a_edge2_Node000002_Node000003"><a xlink:title=" ">
<path fill="none" stroke="#63b8ff" d="M135.27,-54.75C140.41,-47.58 147.85,-37.2 154.24,-28.3"/>
<polygon fill="#63b8ff" stroke="#63b8ff" points="157.61,-30.61 160.59,-20.44 151.92,-26.53 157.61,-30.61"/>
</a>
</g>
</g>
<!-- Node4 -->
<g id="Node000004" class="node">
<title>Node4</title>
<g id="a_Node000004"><a xlink:title=" ">
<polygon fill="#e0e0e0" stroke="#999999" points="120.5,-19 71.5,-19 71.5,0 120.5,0 120.5,-19"/>
<text text-anchor="middle" x="96" y="-7" font-family="Helvetica,sans-Serif" font-size="10.00">stdint.h</text>
</a>
</g>
</g>
<!-- Node2&#45;&gt;Node4 -->
<g id="edge3_Node000002_Node000004" class="edge">
<title>Node2&#45;&gt;Node4</title>
<g id="a_edge3_Node000002_Node000004"><a xlink:title=" ">
<path fill="none" stroke="#63b8ff" d="M123.55,-54.75C119.13,-47.66 112.76,-37.42 107.26,-28.59"/>
<polygon fill="#63b8ff" stroke="#63b8ff" points="109.82,-27.08 101.57,-20.44 103.88,-30.78 109.82,-27.08"/>
</a>
</g>
</g>
<!-- Node5&#45;&gt;Node3 -->
<g id="edge6_Node000005_Node000003" class="edge">
<title>Node5&#45;&gt;Node3</title>
<g id="a_edge6_Node000005_Node000003"><a xlink:title=" ">
<path fill="none" stroke="#63b8ff" d="M219.31,-54.51C210.12,-46.77 196.64,-35.43 185.66,-26.2"/>
<polygon fill="#63b8ff" stroke="#63b8ff" points="188.43,-23.12 178.53,-19.36 183.93,-28.47 188.43,-23.12"/>
</a>
</g>
</g>
<!-- Node5&#45;&gt;Node4 -->
<g id="edge7_Node000005_Node000004" class="edge">
<title>Node5&#45;&gt;Node4</title>
<g id="a_edge7_Node000005_Node000004"><a xlink:title=" ">
<path fill="none" stroke="#63b8ff" d="M207.27,-54.51C185.67,-45.97 152.97,-33.03 128.6,-23.4"/>
<polygon fill="#63b8ff" stroke="#63b8ff" points="129.98,-19.78 119.4,-19.36 127.41,-26.29 129.98,-19.78"/>
</a>
</g>
</g>
<!-- Node6 -->
<g id="Node000006" class="node">
<title>Node6</title>
<g id="a_Node000006"><a xlink:title=" ">
<polygon fill="#e0e0e0" stroke="#999999" points="261,-19 213,-19 213,0 261,0 261,-19"/>
<text text-anchor="middle" x="237" y="-7" font-family="Helvetica,sans-Serif" font-size="10.00">limits.h</text>
</a>
</g>
</g>
<!-- Node5&#45;&gt;Node6 -->
<g id="edge5_Node000005_Node000006" class="edge">
<title>Node5&#45;&gt;Node6</title>
<g id="a_edge5_Node000005_Node000006"><a xlink:title=" ">
<path fill="none" stroke="#63b8ff" d="M231.16,-54.75C232.03,-48.11 233.27,-38.73 234.38,-30.31"/>
<polygon fill="#63b8ff" stroke="#63b8ff" points="237.98,-30.81 235.82,-20.44 231.04,-29.9 237.98,-30.81"/>
</a>
</g>
</g>
<!-- Node7&#45;&gt;Node3 -->
<g id="edge9_Node000007_Node000003" class="edge">
<title>Node7&#45;&gt;Node3</title>
<g id="a_edge9_Node000007_Node000003"><a xlink:title=" ">
<path fill="none" stroke="#63b8ff" d="M56.56,-54.51C78,-45.97 110.45,-33.03 134.64,-23.4"/>
<polygon fill="#63b8ff" stroke="#63b8ff" points="135.78,-26.31 143.77,-19.36 133.19,-19.81 135.78,-26.31"/>
</a>
</g>
</g>
<!-- Node7&#45;&gt;Node4 -->
<g id="edge11_Node000007_Node000004" class="edge">
<title>Node7&#45;&gt;Node4</title>
<g id="a_edge11_Node000007_Node000004"><a xlink:title=" ">
<path fill="none" stroke="#63b8ff" d="M44.52,-54.51C53.48,-46.85 66.57,-35.66 77.31,-26.47"/>
<polygon fill="#63b8ff" stroke="#63b8ff" points="79.31,-28.52 84.64,-19.36 74.76,-23.2 79.31,-28.52"/>
</a>
</g>
</g>
<!-- Node8 -->
<g id="Node000008" class="node">
<title>Node8</title>
<g id="a_Node000008"><a xlink:title=" ">
<polygon fill="#e0e0e0" stroke="#999999" points="53,-19 1,-19 1,0 53,0 53,-19"/>
<text text-anchor="middle" x="27" y="-7" font-family="Helvetica,sans-Serif" font-size="10.00">stddef.h</text>
</a>
</g>
</g>
<!-- Node7&#45;&gt;Node8 -->
<g id="edge10_Node000007_Node000008" class="edge">
<title>Node7&#45;&gt;Node8</title>
<g id="a_edge10_Node000007_Node000008"><a xlink:title=" ">
<path fill="none" stroke="#63b8ff" d="M32.84,-54.75C31.97,-48.11 30.73,-38.73 29.62,-30.31"/>
<polygon fill="#63b8ff" stroke="#63b8ff" points="32.96,-29.9 28.18,-20.44 26.02,-30.81 32.96,-29.9"/>
</a>
</g>
</g>
</g>
</svg>
