<?xml version="1.0" encoding="UTF-8" standalone="no"?>
<!DOCTYPE svg PUBLIC "-//W3C//DTD SVG 1.1//EN"
 "http://www.w3.org/Graphics/SVG/1.1/DTD/svg11.dtd">
<!-- Generated by graphviz version 8.0.2 (20230410.1723)
 -->
<!-- Title: frame_get_used_count Pages: 1 -->
<svg width="225pt" height="45pt"
 viewBox="0.00 0.00 225.00 45.00" xmlns="http://www.w3.org/2000/svg" xmlns:xlink="http://www.w3.org/1999/xlink">
<g id="graph0" class="graph" transform="scale(1 1) rotate(0) translate(4 41)">
<title>frame_get_used_count</title>
<!-- Node1 -->
<g id="Node000001" class="node">
<title>Node1</title>
<g id="a_Node000001"><a xlink:title=" ">
<polygon fill="#999999" stroke="#666666" points="116,-19 0,-19 0,0 116,0 116,-19"/>
<text text-anchor="middle" x="58" y="-7" font-family="Helvetica,sans-Serif" font-size="10.00">frame_get_used_count</text>
</a>
</g>
</g>
<!-- Node2 -->
<g id="Node000002" class="node">
<title>Node2</title>
<g id="a_Node000002"><a xlink:href="bitmap_8c.html#a7ed3c2384b34eafa2aba19aa6e856865" target="_top" xlink:title=" ">
<polygon fill="white" stroke="#666666" points="217,-19 152,-19 152,0 217,0 217,-19"/>
<text text-anchor="middle" x="184.5" y="-7" font-family="Helvetica,sans-Serif" font-size="10.00">bitmap_get</text>
</a>
</g>
</g>
<!-- Node1&#45;&gt;Node2 -->
<g id="edge1_Node000001_Node000002" class="edge">
<title>Node1&#45;&gt;Node2</title>
<g id="a_edge1_Node000001_Node000002"><a xlink:title=" ">
<path fill="none" stroke="#63b8ff" d="M116.15,-9.5C124.4,-9.5 132.78,-9.5 140.69,-9.5"/>
<polygon fill="#63b8ff" stroke="#63b8ff" points="140.5,-13 150.5,-9.5 140.5,-6 140.5,-13"/>
</a>
</g>
</g>
<!-- Node2&#45;&gt;Node2 -->
<g id="edge2_Node000002_Node000002" class="edge">
<title>Node2&#45;&gt;Node2</title>
<g id="a_edge2_Node000002_Node000002"><a xlink:title=" ">
<path fill="none" stroke="#63b8ff" d="M164.7,-19.37C155.66,-27.94 162.26,-37 184.5,-37 197.36,-37 204.99,-33.97 207.39,-29.76"/>
<polygon fill="#63b8ff" stroke="#63b8ff" points="210.51,-28.96 204.3,-20.37 203.8,-30.95 210.51,-28.96"/>
</a>
</g>
</g>
</g>
</svg>
