<?xml version="1.0" encoding="UTF-8" standalone="no"?>
<!DOCTYPE svg PUBLIC "-//W3C//DTD SVG 1.1//EN"
 "http://www.w3.org/Graphics/SVG/1.1/DTD/svg11.dtd">
<!-- Generated by graphviz version 8.0.2 (20230410.1723)
 -->
<!-- Title: src/kernel/arch/x86_64/mmu/frame.h Pages: 1 -->
<svg width="278pt" height="151pt"
 viewBox="0.00 0.00 277.50 151.00" xmlns="http://www.w3.org/2000/svg" xmlns:xlink="http://www.w3.org/1999/xlink">
<g id="graph0" class="graph" transform="scale(1 1) rotate(0) translate(4 147)">
<title>src/kernel/arch/x86_64/mmu/frame.h</title>
<!-- Node1 -->
<g id="node1" class="node">
<title>Node1</title>
<g id="a_node1"><a xlink:title=" ">
<polygon fill="#bfbfbf" stroke="black" points="79,-112.5 79,-142.5 179,-142.5 179,-112.5 79,-112.5"/>
<text text-anchor="start" x="87" y="-130.5" font-family="Helvetica,sans-Serif" font-size="10.00">src/kernel/arch/x86</text>
<text text-anchor="middle" x="129" y="-119.5" font-family="Helvetica,sans-Serif" font-size="10.00">_64/mmu/frame.h</text>
</a>
</g>
</g>
<!-- Node2 -->
<g id="node2" class="node">
<title>Node2</title>
<g id="a_node2"><a xlink:href="multiboot_8h.html" target="_top" xlink:title=" ">
<polygon fill="none" stroke="black" points="86,-56.5 86,-75.5 172,-75.5 172,-56.5 86,-56.5"/>
<text text-anchor="middle" x="129" y="-63.5" font-family="Helvetica,sans-Serif" font-size="10.00">core/multiboot.h</text>
</a>
</g>
</g>
<!-- Node1&#45;&gt;Node2 -->
<g id="edge1" class="edge">
<title>Node1&#45;&gt;Node2</title>
<path fill="none" stroke="midnightblue" d="M129,-112.7C129,-104.86 129,-94.92 129,-86.32"/>
<polygon fill="midnightblue" stroke="midnightblue" points="132.5,-86.4 129,-76.4 125.5,-86.4 132.5,-86.4"/>
</g>
<!-- Node5 -->
<g id="node5" class="node">
<title>Node5</title>
<g id="a_node5"><a xlink:href="bitmap_8h.html" target="_top" xlink:title=" ">
<polygon fill="none" stroke="black" points="190.5,-56.5 190.5,-75.5 269.5,-75.5 269.5,-56.5 190.5,-56.5"/>
<text text-anchor="middle" x="230" y="-63.5" font-family="Helvetica,sans-Serif" font-size="10.00">mmu/bitmap.h</text>
</a>
</g>
</g>
<!-- Node1&#45;&gt;Node5 -->
<g id="edge4" class="edge">
<title>Node1&#45;&gt;Node5</title>
<path fill="none" stroke="midnightblue" d="M152.68,-112.55C168.9,-102.99 190.33,-90.37 206.51,-80.84"/>
<polygon fill="midnightblue" stroke="midnightblue" points="207.98,-83.45 214.82,-75.36 204.42,-77.42 207.98,-83.45"/>
</g>
<!-- Node7 -->
<g id="node7" class="node">
<title>Node7</title>
<g id="a_node7"><a xlink:href="types_8h.html" target="_top" xlink:title=" ">
<polygon fill="none" stroke="black" points="0,-56.5 0,-75.5 68,-75.5 68,-56.5 0,-56.5"/>
<text text-anchor="middle" x="34" y="-63.5" font-family="Helvetica,sans-Serif" font-size="10.00">sys/types.h</text>
</a>
</g>
</g>
<!-- Node1&#45;&gt;Node7 -->
<g id="edge8" class="edge">
<title>Node1&#45;&gt;Node7</title>
<path fill="none" stroke="midnightblue" d="M106.97,-112.7C91.86,-103.24 71.87,-90.72 56.64,-81.18"/>
<polygon fill="midnightblue" stroke="midnightblue" points="58.74,-77.74 48.41,-75.4 55.03,-83.67 58.74,-77.74"/>
</g>
<!-- Node3 -->
<g id="node3" class="node">
<title>Node3</title>
<g id="a_node3"><a xlink:title=" ">
<polygon fill="none" stroke="#bfbfbf" points="139,-0.5 139,-19.5 195,-19.5 195,-0.5 139,-0.5"/>
<text text-anchor="middle" x="167" y="-7.5" font-family="Helvetica,sans-Serif" font-size="10.00">stdbool.h</text>
</a>
</g>
</g>
<!-- Node2&#45;&gt;Node3 -->
<g id="edge2" class="edge">
<title>Node2&#45;&gt;Node3</title>
<path fill="none" stroke="midnightblue" d="M134.94,-56.56C140.27,-48.99 148.25,-37.64 154.92,-28.16"/>
<polygon fill="midnightblue" stroke="midnightblue" points="158.34,-30.39 161.23,-20.2 152.61,-26.37 158.34,-30.39"/>
</g>
<!-- Node4 -->
<g id="node4" class="node">
<title>Node4</title>
<g id="a_node4"><a xlink:title=" ">
<polygon fill="none" stroke="#bfbfbf" points="71.5,-0.5 71.5,-19.5 120.5,-19.5 120.5,-0.5 71.5,-0.5"/>
<text text-anchor="middle" x="96" y="-7.5" font-family="Helvetica,sans-Serif" font-size="10.00">stdint.h</text>
</a>
</g>
</g>
<!-- Node2&#45;&gt;Node4 -->
<g id="edge3" class="edge">
<title>Node2&#45;&gt;Node4</title>
<path fill="none" stroke="midnightblue" d="M123.84,-56.56C119.26,-49.07 112.43,-37.88 106.67,-28.46"/>
<polygon fill="midnightblue" stroke="midnightblue" points="109.21,-26.91 101.01,-20.2 103.24,-30.56 109.21,-26.91"/>
</g>
<!-- Node5&#45;&gt;Node3 -->
<g id="edge6" class="edge">
<title>Node5&#45;&gt;Node3</title>
<path fill="none" stroke="midnightblue" d="M220.16,-56.56C210.67,-48.43 196.1,-35.95 184.62,-26.1"/>
<polygon fill="midnightblue" stroke="midnightblue" points="187.44,-23.05 177.57,-19.2 182.88,-28.37 187.44,-23.05"/>
</g>
<!-- Node5&#45;&gt;Node4 -->
<g id="edge7" class="edge">
<title>Node5&#45;&gt;Node4</title>
<path fill="none" stroke="midnightblue" d="M209.06,-56.56C187.04,-47.69 152.13,-33.62 126.93,-23.46"/>
<polygon fill="midnightblue" stroke="midnightblue" points="128.37,-19.87 117.79,-19.38 125.76,-26.36 128.37,-19.87"/>
</g>
<!-- Node6 -->
<g id="node6" class="node">
<title>Node6</title>
<g id="a_node6"><a xlink:title=" ">
<polygon fill="none" stroke="#bfbfbf" points="213,-0.5 213,-19.5 261,-19.5 261,-0.5 213,-0.5"/>
<text text-anchor="middle" x="237" y="-7.5" font-family="Helvetica,sans-Serif" font-size="10.00">limits.h</text>
</a>
</g>
</g>
<!-- Node5&#45;&gt;Node6 -->
<g id="edge5" class="edge">
<title>Node5&#45;&gt;Node6</title>
<path fill="none" stroke="midnightblue" d="M231.09,-56.56C232.01,-49.47 233.36,-39.06 234.54,-29.98"/>
<polygon fill="midnightblue" stroke="midnightblue" points="238.12,-30.57 235.94,-20.2 231.18,-29.67 238.12,-30.57"/>
</g>
<!-- Node7&#45;&gt;Node3 -->
<g id="edge9" class="edge">
<title>Node7&#45;&gt;Node3</title>
<path fill="none" stroke="midnightblue" d="M54.78,-56.56C76.64,-47.69 111.29,-33.62 136.3,-23.46"/>
<polygon fill="midnightblue" stroke="midnightblue" points="137.42,-26.38 145.36,-19.38 134.78,-19.9 137.42,-26.38"/>
</g>
<!-- Node7&#45;&gt;Node4 -->
<g id="edge11" class="edge">
<title>Node7&#45;&gt;Node4</title>
<path fill="none" stroke="midnightblue" d="M43.69,-56.56C52.93,-48.51 67.08,-36.19 78.33,-26.39"/>
<polygon fill="midnightblue" stroke="midnightblue" points="80.34,-28.41 85.58,-19.2 75.74,-23.13 80.34,-28.41"/>
</g>
<!-- Node8 -->
<g id="node8" class="node">
<title>Node8</title>
<g id="a_node8"><a xlink:title=" ">
<polygon fill="none" stroke="#bfbfbf" points="1,-0.5 1,-19.5 53,-19.5 53,-0.5 1,-0.5"/>
<text text-anchor="middle" x="27" y="-7.5" font-family="Helvetica,sans-Serif" font-size="10.00">stddef.h</text>
</a>
</g>
</g>
<!-- Node7&#45;&gt;Node8 -->
<g id="edge10" class="edge">
<title>Node7&#45;&gt;Node8</title>
<path fill="none" stroke="midnightblue" d="M32.91,-56.56C31.99,-49.47 30.64,-39.06 29.46,-29.98"/>
<polygon fill="midnightblue" stroke="midnightblue" points="32.82,-29.67 28.06,-20.2 25.88,-30.57 32.82,-29.67"/>
</g>
</g>
</svg>
