<?xml version="1.0" encoding="UTF-8" standalone="no"?>
<!DOCTYPE svg PUBLIC "-//W3C//DTD SVG 1.1//EN"
 "http://www.w3.org/Graphics/SVG/1.1/DTD/svg11.dtd">
<!-- Generated by graphviz version 8.0.2 (20230410.1723)
 -->
<!-- Title: frame_allocate Pages: 1 -->
<svg width="189pt" height="100pt"
 viewBox="0.00 0.00 189.00 100.00" xmlns="http://www.w3.org/2000/svg" xmlns:xlink="http://www.w3.org/1999/xlink">
<g id="graph0" class="graph" transform="scale(1 1) rotate(0) translate(4 96)">
<title>frame_allocate</title>
<!-- Node1 -->
<g id="Node000001" class="node">
<title>Node1</title>
<g id="a_Node000001"><a xlink:title=" ">
<polygon fill="#999999" stroke="#666666" points="80,-46 0,-46 0,-27 80,-27 80,-46"/>
<text text-anchor="middle" x="40" y="-34" font-family="Helvetica,sans-Serif" font-size="10.00">frame_allocate</text>
</a>
</g>
</g>
<!-- Node2 -->
<g id="Node000002" class="node">
<title>Node2</title>
<g id="a_Node000002"><a xlink:href="bitmap_8c.html#a7ed3c2384b34eafa2aba19aa6e856865" target="_top" xlink:title=" ">
<polygon fill="white" stroke="#666666" points="181,-74 116,-74 116,-55 181,-55 181,-74"/>
<text text-anchor="middle" x="148.5" y="-62" font-family="Helvetica,sans-Serif" font-size="10.00">bitmap_get</text>
</a>
</g>
</g>
<!-- Node1&#45;&gt;Node2 -->
<g id="edge1_Node000001_Node000002" class="edge">
<title>Node1&#45;&gt;Node2</title>
<g id="a_edge1_Node000001_Node000002"><a xlink:title=" ">
<path fill="none" stroke="#63b8ff" d="M78.85,-46.45C87.43,-48.71 96.6,-51.12 105.36,-53.42"/>
<polygon fill="#63b8ff" stroke="#63b8ff" points="104.19,-57 114.76,-56.15 105.97,-50.23 104.19,-57"/>
</a>
</g>
</g>
<!-- Node3 -->
<g id="Node000003" class="node">
<title>Node3</title>
<g id="a_Node000003"><a xlink:href="bitmap_8c.html#ae60e1e9970fe0c4f68ee27902adbebfa" target="_top" xlink:title=" ">
<polygon fill="white" stroke="#666666" points="181,-19 116,-19 116,0 181,0 181,-19"/>
<text text-anchor="middle" x="148.5" y="-7" font-family="Helvetica,sans-Serif" font-size="10.00">bitmap_set</text>
</a>
</g>
</g>
<!-- Node1&#45;&gt;Node3 -->
<g id="edge3_Node000001_Node000003" class="edge">
<title>Node1&#45;&gt;Node3</title>
<g id="a_edge3_Node000001_Node000003"><a xlink:title=" ">
<path fill="none" stroke="#63b8ff" d="M80.35,-26.52C88.43,-24.48 96.96,-22.31 105.14,-20.24"/>
<polygon fill="#63b8ff" stroke="#63b8ff" points="105.78,-23.43 114.61,-17.58 104.06,-16.65 105.78,-23.43"/>
</a>
</g>
</g>
<!-- Node2&#45;&gt;Node2 -->
<g id="edge2_Node000002_Node000002" class="edge">
<title>Node2&#45;&gt;Node2</title>
<g id="a_edge2_Node000002_Node000002"><a xlink:title=" ">
<path fill="none" stroke="#63b8ff" d="M131.51,-74.37C123.77,-82.94 129.43,-92 148.5,-92 159.53,-92 166.07,-88.97 168.13,-84.76"/>
<polygon fill="#63b8ff" stroke="#63b8ff" points="171.35,-84.2 165.49,-75.37 164.56,-85.92 171.35,-84.2"/>
</a>
</g>
</g>
<!-- Node3&#45;&gt;Node3 -->
<g id="edge4_Node000003_Node000003" class="edge">
<title>Node3&#45;&gt;Node3</title>
<g id="a_edge4_Node000003_Node000003"><a xlink:title=" ">
<path fill="none" stroke="#63b8ff" d="M131.51,-19.37C123.77,-27.94 129.43,-37 148.5,-37 159.53,-37 166.07,-33.97 168.13,-29.76"/>
<polygon fill="#63b8ff" stroke="#63b8ff" points="171.35,-29.2 165.49,-20.37 164.56,-30.92 171.35,-29.2"/>
</a>
</g>
</g>
</g>
</svg>
