<?xml version="1.0" encoding="UTF-8" standalone="no"?>
<!DOCTYPE svg PUBLIC "-//W3C//DTD SVG 1.1//EN"
 "http://www.w3.org/Graphics/SVG/1.1/DTD/svg11.dtd">
<!-- Generated by graphviz version 8.0.2 (20230410.1723)
 -->
<!-- Title: include/kernel/fs/proc.h Pages: 1 -->
<svg width="218pt" height="192pt"
 viewBox="0.00 0.00 218.00 192.00" xmlns="http://www.w3.org/2000/svg" xmlns:xlink="http://www.w3.org/1999/xlink">
<g id="graph0" class="graph" transform="scale(1 1) rotate(0) translate(4 188)">
<title>include/kernel/fs/proc.h</title>
<!-- Node1 -->
<g id="Node000001" class="node">
<title>Node1</title>
<g id="a_Node000001"><a xlink:title=" ">
<polygon fill="#999999" stroke="#666666" points="149,-184 31,-184 31,-165 149,-165 149,-184"/>
<text text-anchor="middle" x="90" y="-172" font-family="Helvetica,sans-Serif" font-size="10.00">include/kernel/fs/proc.h</text>
</a>
</g>
</g>
<!-- Node2 -->
<g id="Node000002" class="node">
<title>Node2</title>
<g id="a_Node000002"><a xlink:href="vfs_8h.html" target="_top" xlink:title=" ">
<polygon fill="white" stroke="#666666" points="115,-129 65,-129 65,-110 115,-110 115,-129"/>
<text text-anchor="middle" x="90" y="-117" font-family="Helvetica,sans-Serif" font-size="10.00">fs/vfs.h</text>
</a>
</g>
</g>
<!-- Node1&#45;&gt;Node2 -->
<g id="edge1_Node000001_Node000002" class="edge">
<title>Node1&#45;&gt;Node2</title>
<g id="a_edge1_Node000001_Node000002"><a xlink:title=" ">
<path fill="none" stroke="#63b8ff" d="M90,-164.75C90,-158.11 90,-148.73 90,-140.31"/>
<polygon fill="#63b8ff" stroke="#63b8ff" points="93.5,-140.44 90,-130.44 86.5,-140.44 93.5,-140.44"/>
</a>
</g>
</g>
<!-- Node3 -->
<g id="Node000003" class="node">
<title>Node3</title>
<g id="a_Node000003"><a xlink:title=" ">
<polygon fill="#e0e0e0" stroke="#999999" points="56,-19 0,-19 0,0 56,0 56,-19"/>
<text text-anchor="middle" x="28" y="-7" font-family="Helvetica,sans-Serif" font-size="10.00">stdbool.h</text>
</a>
</g>
</g>
<!-- Node1&#45;&gt;Node3 -->
<g id="edge8_Node000001_Node000003" class="edge">
<title>Node1&#45;&gt;Node3</title>
<g id="a_edge8_Node000001_Node000003"><a xlink:title=" ">
<path fill="none" stroke="#63b8ff" d="M82.16,-164.83C74.68,-156.22 63.48,-142.42 56,-129 43.26,-106.15 41.15,-99.43 35,-74 31.48,-59.46 29.73,-42.61 28.86,-29.93"/>
<polygon fill="#63b8ff" stroke="#63b8ff" points="32.31,-30.04 28.26,-20.25 25.32,-30.43 32.31,-30.04"/>
</a>
</g>
</g>
<!-- Node6 -->
<g id="Node000006" class="node">
<title>Node6</title>
<g id="a_Node000006"><a xlink:title=" ">
<polygon fill="#e0e0e0" stroke="#999999" points="210,-19 158,-19 158,0 210,0 210,-19"/>
<text text-anchor="middle" x="184" y="-7" font-family="Helvetica,sans-Serif" font-size="10.00">stddef.h</text>
</a>
</g>
</g>
<!-- Node1&#45;&gt;Node6 -->
<g id="edge9_Node000001_Node000006" class="edge">
<title>Node1&#45;&gt;Node6</title>
<g id="a_edge9_Node000001_Node000006"><a xlink:title=" ">
<path fill="none" stroke="#63b8ff" d="M97.54,-164.65C104.8,-155.91 115.83,-142.01 124,-129 145.17,-95.28 165.07,-53.14 175.79,-29.28"/>
<polygon fill="#63b8ff" stroke="#63b8ff" points="179.31,-30.98 180.16,-20.42 172.91,-28.15 179.31,-30.98"/>
</a>
</g>
</g>
<!-- Node2&#45;&gt;Node3 -->
<g id="edge2_Node000002_Node000003" class="edge">
<title>Node2&#45;&gt;Node3</title>
<g id="a_edge2_Node000002_Node000003"><a xlink:title=" ">
<path fill="none" stroke="#63b8ff" d="M78.94,-109.74C69.22,-101.48 55.36,-88.28 47,-74 38.99,-60.31 34.1,-42.96 31.29,-29.85"/>
<polygon fill="#63b8ff" stroke="#63b8ff" points="34.58,-29.41 29.26,-20.24 27.7,-30.72 34.58,-29.41"/>
</a>
</g>
</g>
<!-- Node4 -->
<g id="Node000004" class="node">
<title>Node4</title>
<g id="a_Node000004"><a xlink:title=" ">
<polygon fill="#e0e0e0" stroke="#999999" points="134.5,-19 85.5,-19 85.5,0 134.5,0 134.5,-19"/>
<text text-anchor="middle" x="110" y="-7" font-family="Helvetica,sans-Serif" font-size="10.00">stdint.h</text>
</a>
</g>
</g>
<!-- Node2&#45;&gt;Node4 -->
<g id="edge3_Node000002_Node000004" class="edge">
<title>Node2&#45;&gt;Node4</title>
<g id="a_edge3_Node000002_Node000004"><a xlink:title=" ">
<path fill="none" stroke="#63b8ff" d="M102.91,-109.61C113.24,-101.65 126.96,-88.94 133,-74 139.23,-58.58 131.5,-40.75 123.36,-27.92"/>
<polygon fill="#63b8ff" stroke="#63b8ff" points="125.87,-26.41 117.28,-20.2 120.13,-30.41 125.87,-26.41"/>
</a>
</g>
</g>
<!-- Node5 -->
<g id="Node000005" class="node">
<title>Node5</title>
<g id="a_Node000005"><a xlink:href="types_8h.html" target="_top" xlink:title=" ">
<polygon fill="white" stroke="#666666" points="124,-74 56,-74 56,-55 124,-55 124,-74"/>
<text text-anchor="middle" x="90" y="-62" font-family="Helvetica,sans-Serif" font-size="10.00">sys/types.h</text>
</a>
</g>
</g>
<!-- Node2&#45;&gt;Node5 -->
<g id="edge4_Node000002_Node000005" class="edge">
<title>Node2&#45;&gt;Node5</title>
<g id="a_edge4_Node000002_Node000005"><a xlink:title=" ">
<path fill="none" stroke="#63b8ff" d="M90,-109.75C90,-103.11 90,-93.73 90,-85.31"/>
<polygon fill="#63b8ff" stroke="#63b8ff" points="93.5,-85.44 90,-75.44 86.5,-85.44 93.5,-85.44"/>
</a>
</g>
</g>
<!-- Node5&#45;&gt;Node3 -->
<g id="edge5_Node000005_Node000003" class="edge">
<title>Node5&#45;&gt;Node3</title>
<g id="a_edge5_Node000005_Node000003"><a xlink:title=" ">
<path fill="none" stroke="#63b8ff" d="M79.48,-54.51C70.52,-46.85 57.43,-35.66 46.69,-26.47"/>
<polygon fill="#63b8ff" stroke="#63b8ff" points="49.24,-23.2 39.36,-19.36 44.69,-28.52 49.24,-23.2"/>
</a>
</g>
</g>
<!-- Node5&#45;&gt;Node4 -->
<g id="edge7_Node000005_Node000004" class="edge">
<title>Node5&#45;&gt;Node4</title>
<g id="a_edge7_Node000005_Node000004"><a xlink:title=" ">
<path fill="none" stroke="#63b8ff" d="M93.3,-54.75C95.89,-47.88 99.59,-38.08 102.85,-29.45"/>
<polygon fill="#63b8ff" stroke="#63b8ff" points="106.37,-31.03 106.63,-20.44 99.82,-28.56 106.37,-31.03"/>
</a>
</g>
</g>
<!-- Node5&#45;&gt;Node6 -->
<g id="edge6_Node000005_Node000006" class="edge">
<title>Node5&#45;&gt;Node6</title>
<g id="a_edge6_Node000005_Node000006"><a xlink:title=" ">
<path fill="none" stroke="#63b8ff" d="M105.95,-54.51C120.48,-46.31 142.19,-34.07 159.03,-24.58"/>
<polygon fill="#63b8ff" stroke="#63b8ff" points="160.3,-27.32 167.29,-19.36 156.86,-21.22 160.3,-27.32"/>
</a>
</g>
</g>
</g>
</svg>
