<?xml version="1.0" encoding="UTF-8" standalone="no"?>
<!DOCTYPE svg PUBLIC "-//W3C//DTD SVG 1.1//EN"
 "http://www.w3.org/Graphics/SVG/1.1/DTD/svg11.dtd">
<!-- Generated by graphviz version 9.0.0 (20230911.1827)
 -->
<!-- Title: include/kernel/fs/proc.h Pages: 1 -->
<svg width="218pt" height="193pt"
 viewBox="0.00 0.00 217.50 193.00" xmlns="http://www.w3.org/2000/svg" xmlns:xlink="http://www.w3.org/1999/xlink">
<g id="graph0" class="graph" transform="scale(1 1) rotate(0) translate(4 189)">
<title>include/kernel/fs/proc.h</title>
<!-- Node1 -->
<g id="Node000001" class="node">
<title>Node1</title>
<g id="a_Node000001"><a xlink:title=" ">
<polygon fill="#999999" stroke="#666666" points="148.5,-185 31.25,-185 31.25,-165.75 148.5,-165.75 148.5,-185"/>
<text text-anchor="middle" x="89.88" y="-171.5" font-family="Helvetica,sans-Serif" font-size="10.00">include/kernel/fs/proc.h</text>
</a>
</g>
</g>
<!-- Node2 -->
<g id="Node000002" class="node">
<title>Node2</title>
<g id="a_Node000002"><a xlink:href="vfs_8h.html" target="_top" xlink:title=" ">
<polygon fill="white" stroke="#666666" points="114.38,-129.75 65.38,-129.75 65.38,-110.5 114.38,-110.5 114.38,-129.75"/>
<text text-anchor="middle" x="89.88" y="-116.25" font-family="Helvetica,sans-Serif" font-size="10.00">fs/vfs.h</text>
</a>
</g>
</g>
<!-- Node1&#45;&gt;Node2 -->
<g id="edge1_Node000001_Node000002" class="edge">
<title>Node1&#45;&gt;Node2</title>
<g id="a_edge1_Node000001_Node000002"><a xlink:title=" ">
<path fill="none" stroke="#63b8ff" d="M89.88,-165.58C89.88,-159.07 89.88,-149.92 89.88,-141.62"/>
<polygon fill="#63b8ff" stroke="#63b8ff" points="93.38,-141.62 89.88,-131.62 86.38,-141.62 93.38,-141.62"/>
</a>
</g>
</g>
<!-- Node3 -->
<g id="Node000003" class="node">
<title>Node3</title>
<g id="a_Node000003"><a xlink:title=" ">
<polygon fill="#e0e0e0" stroke="#999999" points="55.75,-19.25 0,-19.25 0,0 55.75,0 55.75,-19.25"/>
<text text-anchor="middle" x="27.88" y="-5.75" font-family="Helvetica,sans-Serif" font-size="10.00">stdbool.h</text>
</a>
</g>
</g>
<!-- Node1&#45;&gt;Node3 -->
<g id="edge8_Node000001_Node000003" class="edge">
<title>Node1&#45;&gt;Node3</title>
<g id="a_edge8_Node000001_Node000003"><a xlink:title=" ">
<path fill="none" stroke="#63b8ff" d="M81.74,-165.35C74.27,-156.7 63.25,-143.03 55.88,-129.75 43.12,-106.79 41.02,-100.04 34.88,-74.5 31.39,-60.02 29.64,-43.27 28.76,-30.56"/>
<polygon fill="#63b8ff" stroke="#63b8ff" points="32.27,-30.72 28.22,-20.94 25.28,-31.11 32.27,-30.72"/>
</a>
</g>
</g>
<!-- Node6 -->
<g id="Node000006" class="node">
<title>Node6</title>
<g id="a_Node000006"><a xlink:title=" ">
<polygon fill="#e0e0e0" stroke="#999999" points="209.5,-19.25 158.25,-19.25 158.25,0 209.5,0 209.5,-19.25"/>
<text text-anchor="middle" x="183.88" y="-5.75" font-family="Helvetica,sans-Serif" font-size="10.00">stddef.h</text>
</a>
</g>
</g>
<!-- Node1&#45;&gt;Node6 -->
<g id="edge9_Node000001_Node000006" class="edge">
<title>Node1&#45;&gt;Node6</title>
<g id="a_edge9_Node000001_Node000006"><a xlink:title=" ">
<path fill="none" stroke="#63b8ff" d="M97.15,-165.45C104.16,-156.66 114.85,-142.69 122.88,-129.75 143.92,-95.81 164.2,-53.75 175.26,-29.77"/>
<polygon fill="#63b8ff" stroke="#63b8ff" points="178.32,-31.49 179.28,-20.94 171.95,-28.59 178.32,-31.49"/>
</a>
</g>
</g>
<!-- Node2&#45;&gt;Node3 -->
<g id="edge2_Node000002_Node000003" class="edge">
<title>Node2&#45;&gt;Node3</title>
<g id="a_edge2_Node000002_Node000003"><a xlink:title=" ">
<path fill="none" stroke="#63b8ff" d="M78.43,-110.01C68.73,-101.71 55.11,-88.63 46.88,-74.5 38.92,-60.87 34.05,-43.63 31.23,-30.5"/>
<polygon fill="#63b8ff" stroke="#63b8ff" points="34.72,-30.07 29.41,-20.9 27.84,-31.38 34.72,-30.07"/>
</a>
</g>
</g>
<!-- Node4 -->
<g id="Node000004" class="node">
<title>Node4</title>
<g id="a_Node000004"><a xlink:title=" ">
<polygon fill="#e0e0e0" stroke="#999999" points="134,-19.25 85.75,-19.25 85.75,0 134,0 134,-19.25"/>
<text text-anchor="middle" x="109.88" y="-5.75" font-family="Helvetica,sans-Serif" font-size="10.00">stdint.h</text>
</a>
</g>
</g>
<!-- Node2&#45;&gt;Node4 -->
<g id="edge3_Node000002_Node000004" class="edge">
<title>Node2&#45;&gt;Node4</title>
<g id="a_edge3_Node000002_Node000004"><a xlink:title=" ">
<path fill="none" stroke="#63b8ff" d="M102.49,-110.14C112.58,-102.11 125.99,-89.33 131.88,-74.5 137.89,-59.34 130.88,-41.8 123.22,-28.94"/>
<polygon fill="#63b8ff" stroke="#63b8ff" points="126.17,-27.07 117.74,-20.66 120.33,-30.93 126.17,-27.07"/>
</a>
</g>
</g>
<!-- Node5 -->
<g id="Node000005" class="node">
<title>Node5</title>
<g id="a_Node000005"><a xlink:href="types_8h.html" target="_top" xlink:title=" ">
<polygon fill="white" stroke="#666666" points="123.38,-74.5 56.38,-74.5 56.38,-55.25 123.38,-55.25 123.38,-74.5"/>
<text text-anchor="middle" x="89.88" y="-61" font-family="Helvetica,sans-Serif" font-size="10.00">sys/types.h</text>
</a>
</g>
</g>
<!-- Node2&#45;&gt;Node5 -->
<g id="edge4_Node000002_Node000005" class="edge">
<title>Node2&#45;&gt;Node5</title>
<g id="a_edge4_Node000002_Node000005"><a xlink:title=" ">
<path fill="none" stroke="#63b8ff" d="M89.88,-110.33C89.88,-103.82 89.88,-94.67 89.88,-86.37"/>
<polygon fill="#63b8ff" stroke="#63b8ff" points="93.38,-86.37 89.88,-76.37 86.38,-86.37 93.38,-86.37"/>
</a>
</g>
</g>
<!-- Node5&#45;&gt;Node3 -->
<g id="edge5_Node000005_Node000003" class="edge">
<title>Node5&#45;&gt;Node3</title>
<g id="a_edge5_Node000005_Node000003"><a xlink:title=" ">
<path fill="none" stroke="#63b8ff" d="M79.36,-54.84C70.49,-47.22 57.56,-36.12 46.89,-26.95"/>
<polygon fill="#63b8ff" stroke="#63b8ff" points="49.25,-24.37 39.39,-20.51 44.69,-29.68 49.25,-24.37"/>
</a>
</g>
</g>
<!-- Node5&#45;&gt;Node4 -->
<g id="edge7_Node000005_Node000004" class="edge">
<title>Node5&#45;&gt;Node4</title>
<g id="a_edge7_Node000005_Node000004"><a xlink:title=" ">
<path fill="none" stroke="#63b8ff" d="M93.18,-55.08C95.71,-48.34 99.3,-38.77 102.51,-30.24"/>
<polygon fill="#63b8ff" stroke="#63b8ff" points="105.73,-31.62 105.97,-21.03 99.18,-29.16 105.73,-31.62"/>
</a>
</g>
</g>
<!-- Node5&#45;&gt;Node6 -->
<g id="edge6_Node000005_Node000006" class="edge">
<title>Node5&#45;&gt;Node6</title>
<g id="a_edge6_Node000005_Node000006"><a xlink:title=" ">
<path fill="none" stroke="#63b8ff" d="M105.82,-54.84C120.14,-46.73 141.41,-34.68 158.13,-25.21"/>
<polygon fill="#63b8ff" stroke="#63b8ff" points="159.56,-28.42 166.53,-20.45 156.11,-22.33 159.56,-28.42"/>
</a>
</g>
</g>
</g>
</svg>
