<?xml version="1.0" encoding="UTF-8" standalone="no"?>
<!DOCTYPE svg PUBLIC "-//W3C//DTD SVG 1.1//EN"
 "http://www.w3.org/Graphics/SVG/1.1/DTD/svg11.dtd">
<!-- Generated by graphviz version 8.0.2 (20230410.1723)
 -->
<!-- Title: include/kernel/fs/proc.h Pages: 1 -->
<svg width="218pt" height="196pt"
 viewBox="0.00 0.00 218.00 196.00" xmlns="http://www.w3.org/2000/svg" xmlns:xlink="http://www.w3.org/1999/xlink">
<g id="graph0" class="graph" transform="scale(1 1) rotate(0) translate(4 192)">
<title>include/kernel/fs/proc.h</title>
<!-- Node1 -->
<g id="node1" class="node">
<title>Node1</title>
<g id="a_node1"><a xlink:title=" ">
<polygon fill="#bfbfbf" stroke="black" points="31,-168.5 31,-187.5 149,-187.5 149,-168.5 31,-168.5"/>
<text text-anchor="middle" x="90" y="-175.5" font-family="Helvetica,sans-Serif" font-size="10.00">include/kernel/fs/proc.h</text>
</a>
</g>
</g>
<!-- Node2 -->
<g id="node2" class="node">
<title>Node2</title>
<g id="a_node2"><a xlink:href="vfs_8h.html" target="_top" xlink:title=" ">
<polygon fill="none" stroke="black" points="65,-112.5 65,-131.5 115,-131.5 115,-112.5 65,-112.5"/>
<text text-anchor="middle" x="90" y="-119.5" font-family="Helvetica,sans-Serif" font-size="10.00">fs/vfs.h</text>
</a>
</g>
</g>
<!-- Node1&#45;&gt;Node2 -->
<g id="edge1" class="edge">
<title>Node1&#45;&gt;Node2</title>
<path fill="none" stroke="midnightblue" d="M90,-168.56C90,-161.47 90,-151.06 90,-141.98"/>
<polygon fill="midnightblue" stroke="midnightblue" points="93.5,-142.2 90,-132.2 86.5,-142.2 93.5,-142.2"/>
</g>
<!-- Node3 -->
<g id="node3" class="node">
<title>Node3</title>
<g id="a_node3"><a xlink:title=" ">
<polygon fill="none" stroke="#bfbfbf" points="0,-0.5 0,-19.5 56,-19.5 56,-0.5 0,-0.5"/>
<text text-anchor="middle" x="28" y="-7.5" font-family="Helvetica,sans-Serif" font-size="10.00">stdbool.h</text>
</a>
</g>
</g>
<!-- Node1&#45;&gt;Node3 -->
<g id="edge8" class="edge">
<title>Node1&#45;&gt;Node3</title>
<path fill="none" stroke="midnightblue" d="M82.43,-168.55C74.94,-159.87 63.55,-145.73 56,-132 43.19,-108.71 41.14,-101.86 35,-76 31.39,-60.77 29.63,-43.08 28.79,-30.01"/>
<polygon fill="midnightblue" stroke="midnightblue" points="32.24,-29.92 28.22,-20.12 25.24,-30.28 32.24,-29.92"/>
</g>
<!-- Node6 -->
<g id="node6" class="node">
<title>Node6</title>
<g id="a_node6"><a xlink:title=" ">
<polygon fill="none" stroke="#bfbfbf" points="158,-0.5 158,-19.5 210,-19.5 210,-0.5 158,-0.5"/>
<text text-anchor="middle" x="184" y="-7.5" font-family="Helvetica,sans-Serif" font-size="10.00">stddef.h</text>
</a>
</g>
</g>
<!-- Node1&#45;&gt;Node6 -->
<g id="edge9" class="edge">
<title>Node1&#45;&gt;Node6</title>
<path fill="none" stroke="midnightblue" d="M97.01,-168.71C104.26,-159.93 115.66,-145.49 124,-132 145.61,-97.05 165.75,-53.25 176.31,-29.09"/>
<polygon fill="midnightblue" stroke="midnightblue" points="179.82,-30.77 180.57,-20.21 173.39,-28 179.82,-30.77"/>
</g>
<!-- Node2&#45;&gt;Node3 -->
<g id="edge2" class="edge">
<title>Node2&#45;&gt;Node3</title>
<path fill="none" stroke="midnightblue" d="M79.67,-112.77C69.91,-104.46 55.54,-90.79 47,-76 38.72,-61.66 33.8,-43.42 31.05,-29.91"/>
<polygon fill="midnightblue" stroke="midnightblue" points="34.32,-29.31 29.1,-20.09 27.43,-30.55 34.32,-29.31"/>
</g>
<!-- Node4 -->
<g id="node4" class="node">
<title>Node4</title>
<g id="a_node4"><a xlink:title=" ">
<polygon fill="none" stroke="#bfbfbf" points="85.5,-0.5 85.5,-19.5 134.5,-19.5 134.5,-0.5 85.5,-0.5"/>
<text text-anchor="middle" x="110" y="-7.5" font-family="Helvetica,sans-Serif" font-size="10.00">stdint.h</text>
</a>
</g>
</g>
<!-- Node2&#45;&gt;Node4 -->
<g id="edge3" class="edge">
<title>Node2&#45;&gt;Node4</title>
<path fill="none" stroke="midnightblue" d="M102.09,-112.62C112.5,-104.59 126.81,-91.45 133,-76 139.39,-60.06 131.4,-41.58 123.14,-28.41"/>
<polygon fill="midnightblue" stroke="midnightblue" points="125.55,-26.75 117,-20.5 119.79,-30.72 125.55,-26.75"/>
</g>
<!-- Node5 -->
<g id="node5" class="node">
<title>Node5</title>
<g id="a_node5"><a xlink:href="types_8h.html" target="_top" xlink:title=" ">
<polygon fill="none" stroke="black" points="56,-56.5 56,-75.5 124,-75.5 124,-56.5 56,-56.5"/>
<text text-anchor="middle" x="90" y="-63.5" font-family="Helvetica,sans-Serif" font-size="10.00">sys/types.h</text>
</a>
</g>
</g>
<!-- Node2&#45;&gt;Node5 -->
<g id="edge4" class="edge">
<title>Node2&#45;&gt;Node5</title>
<path fill="none" stroke="midnightblue" d="M90,-112.56C90,-105.47 90,-95.06 90,-85.98"/>
<polygon fill="midnightblue" stroke="midnightblue" points="93.5,-86.2 90,-76.2 86.5,-86.2 93.5,-86.2"/>
</g>
<!-- Node5&#45;&gt;Node3 -->
<g id="edge5" class="edge">
<title>Node5&#45;&gt;Node3</title>
<path fill="none" stroke="midnightblue" d="M80.31,-56.56C71.07,-48.51 56.92,-36.19 45.67,-26.39"/>
<polygon fill="midnightblue" stroke="midnightblue" points="48.26,-23.13 38.42,-19.2 43.66,-28.41 48.26,-23.13"/>
</g>
<!-- Node5&#45;&gt;Node4 -->
<g id="edge7" class="edge">
<title>Node5&#45;&gt;Node4</title>
<path fill="none" stroke="midnightblue" d="M93.12,-56.56C95.81,-49.31 99.78,-38.59 103.2,-29.37"/>
<polygon fill="midnightblue" stroke="midnightblue" points="106.77,-30.79 106.96,-20.2 100.21,-28.36 106.77,-30.79"/>
</g>
<!-- Node5&#45;&gt;Node6 -->
<g id="edge6" class="edge">
<title>Node5&#45;&gt;Node6</title>
<path fill="none" stroke="midnightblue" d="M104.69,-56.56C119.45,-48.08 142.45,-34.87 159.89,-24.85"/>
<polygon fill="midnightblue" stroke="midnightblue" points="161.49,-27.39 168.42,-19.38 158,-21.32 161.49,-27.39"/>
</g>
</g>
</svg>
