<?xml version="1.0" encoding="UTF-8" standalone="no"?>
<!DOCTYPE svg PUBLIC "-//W3C//DTD SVG 1.1//EN"
 "http://www.w3.org/Graphics/SVG/1.1/DTD/svg11.dtd">
<!-- Generated by graphviz version 8.0.2 (20230410.1723)
 -->
<!-- Title: icmpv4_send_packet Pages: 1 -->
<svg width="392pt" height="100pt"
 viewBox="0.00 0.00 392.00 100.00" xmlns="http://www.w3.org/2000/svg" xmlns:xlink="http://www.w3.org/1999/xlink">
<g id="graph0" class="graph" transform="scale(1 1) rotate(0) translate(4 96)">
<title>icmpv4_send_packet</title>
<!-- Node1 -->
<g id="Node000001" class="node">
<title>Node1</title>
<g id="a_Node000001"><a xlink:title=" ">
<polygon fill="#999999" stroke="#666666" points="109,-46 0,-46 0,-27 109,-27 109,-46"/>
<text text-anchor="middle" x="54.5" y="-34" font-family="Helvetica,sans-Serif" font-size="10.00">icmpv4_send_packet</text>
</a>
</g>
</g>
<!-- Node1&#45;&gt;Node1 -->
<g id="edge1_Node000001_Node000001" class="edge">
<title>Node1&#45;&gt;Node1</title>
<g id="a_edge1_Node000001_Node000001"><a xlink:title=" ">
<path fill="none" stroke="#63b8ff" d="M32.9,-46.37C23.04,-54.94 30.24,-64 54.5,-64 68.52,-64 76.85,-60.97 79.47,-56.76"/>
<polygon fill="#63b8ff" stroke="#63b8ff" points="82.52,-55.8 76.1,-47.37 75.86,-57.96 82.52,-55.8"/>
</a>
</g>
</g>
<!-- Node2 -->
<g id="Node000002" class="node">
<title>Node2</title>
<g id="a_Node000002"><a xlink:href="ipv4_8c.html#a70757066dd9950d01c1c5366d1bb36a5" target="_top" xlink:title="From: https://tools.ietf.org/html/rfc1071.">
<polygon fill="white" stroke="#666666" points="235,-74 150,-74 150,-55 235,-55 235,-74"/>
<text text-anchor="middle" x="192.5" y="-62" font-family="Helvetica,sans-Serif" font-size="10.00">ipv4_checksum</text>
</a>
</g>
</g>
<!-- Node1&#45;&gt;Node2 -->
<g id="edge2_Node000001_Node000002" class="edge">
<title>Node1&#45;&gt;Node2</title>
<g id="a_edge2_Node000001_Node000002"><a xlink:title=" ">
<path fill="none" stroke="#63b8ff" d="M103.83,-46.45C115.29,-48.81 127.56,-51.34 139.19,-53.73"/>
<polygon fill="#63b8ff" stroke="#63b8ff" points="138.14,-57.29 148.64,-55.88 139.55,-50.44 138.14,-57.29"/>
</a>
</g>
</g>
<!-- Node3 -->
<g id="Node000003" class="node">
<title>Node3</title>
<g id="a_Node000003"><a xlink:href="ipv4_8c.html#a8f913ffc3ba073a5a2018ff80d0e8212" target="_top" xlink:title=" ">
<polygon fill="white" stroke="#666666" points="240,-19 145,-19 145,0 240,0 240,-19"/>
<text text-anchor="middle" x="192.5" y="-7" font-family="Helvetica,sans-Serif" font-size="10.00">ipv4_send_packet</text>
</a>
</g>
</g>
<!-- Node1&#45;&gt;Node3 -->
<g id="edge4_Node000001_Node000003" class="edge">
<title>Node1&#45;&gt;Node3</title>
<g id="a_edge4_Node000001_Node000003"><a xlink:title=" ">
<path fill="none" stroke="#63b8ff" d="M105.75,-26.52C114.89,-24.71 124.49,-22.8 133.82,-20.95"/>
<polygon fill="#63b8ff" stroke="#63b8ff" points="134.48,-24.19 143.61,-18.81 133.12,-17.32 134.48,-24.19"/>
</a>
</g>
</g>
<!-- Node2&#45;&gt;Node2 -->
<g id="edge3_Node000002_Node000002" class="edge">
<title>Node2&#45;&gt;Node2</title>
<g id="a_edge3_Node000002_Node000002"><a xlink:title=" ">
<path fill="none" stroke="#63b8ff" d="M170.97,-74.37C161.15,-82.94 168.33,-92 192.5,-92 206.47,-92 214.77,-88.97 217.38,-84.76"/>
<polygon fill="#63b8ff" stroke="#63b8ff" points="220.43,-83.81 214.03,-75.37 213.77,-85.96 220.43,-83.81"/>
</a>
</g>
</g>
<!-- Node3&#45;&gt;Node3 -->
<g id="edge7_Node000003_Node000003" class="edge">
<title>Node3&#45;&gt;Node3</title>
<g id="a_edge7_Node000003_Node000003"><a xlink:title=" ">
<path fill="none" stroke="#63b8ff" d="M170.97,-19.37C161.15,-27.94 168.33,-37 192.5,-37 206.47,-37 214.77,-33.97 217.38,-29.76"/>
<polygon fill="#63b8ff" stroke="#63b8ff" points="220.43,-28.81 214.03,-20.37 213.77,-30.96 220.43,-28.81"/>
</a>
</g>
</g>
<!-- Node4 -->
<g id="Node000004" class="node">
<title>Node4</title>
<g id="a_Node000004"><a xlink:href="ethernet_8c.html#ae0adc121b615550b0366f4354a1936b4" target="_top" xlink:title=" ">
<polygon fill="white" stroke="#666666" points="384,-19 276,-19 276,0 384,0 384,-19"/>
<text text-anchor="middle" x="330" y="-7" font-family="Helvetica,sans-Serif" font-size="10.00">ethernet_send_frame</text>
</a>
</g>
</g>
<!-- Node3&#45;&gt;Node4 -->
<g id="edge5_Node000003_Node000004" class="edge">
<title>Node3&#45;&gt;Node4</title>
<g id="a_edge5_Node000003_Node000004"><a xlink:title=" ">
<path fill="none" stroke="#63b8ff" d="M240.13,-9.5C248.12,-9.5 256.53,-9.5 264.88,-9.5"/>
<polygon fill="#63b8ff" stroke="#63b8ff" points="264.77,-13 274.77,-9.5 264.77,-6 264.77,-13"/>
</a>
</g>
</g>
<!-- Node4&#45;&gt;Node4 -->
<g id="edge6_Node000004_Node000004" class="edge">
<title>Node4&#45;&gt;Node4</title>
<g id="a_edge6_Node000004_Node000004"><a xlink:title=" ">
<path fill="none" stroke="#63b8ff" d="M308.47,-19.37C298.65,-27.94 305.83,-37 330,-37 343.97,-37 352.27,-33.97 354.88,-29.76"/>
<polygon fill="#63b8ff" stroke="#63b8ff" points="357.93,-28.81 351.53,-20.37 351.27,-30.96 357.93,-28.81"/>
</a>
</g>
</g>
</g>
</svg>
