<?xml version="1.0" encoding="UTF-8" standalone="no"?>
<!DOCTYPE svg PUBLIC "-//W3C//DTD SVG 1.1//EN"
 "http://www.w3.org/Graphics/SVG/1.1/DTD/svg11.dtd">
<!-- Generated by graphviz version 8.0.2 (20230410.1723)
 -->
<!-- Title: include/kernel/net/icmpv4.h Pages: 1 -->
<svg width="274pt" height="313pt"
 viewBox="0.00 0.00 274.00 313.00" xmlns="http://www.w3.org/2000/svg" xmlns:xlink="http://www.w3.org/1999/xlink">
<g id="graph0" class="graph" transform="scale(1 1) rotate(0) translate(4 309)">
<title>include/kernel/net/icmpv4.h</title>
<!-- Node1 -->
<g id="Node000001" class="node">
<title>Node1</title>
<g id="a_Node000001"><a xlink:title=" ">
<polygon fill="#999999" stroke="#666666" points="262,-305 169,-305 169,-275 262,-275 262,-305"/>
<text text-anchor="start" x="177" y="-293" font-family="Helvetica,sans-Serif" font-size="10.00">include/kernel/net</text>
<text text-anchor="middle" x="215.5" y="-282" font-family="Helvetica,sans-Serif" font-size="10.00">/icmpv4.h</text>
</a>
</g>
</g>
<!-- Node2 -->
<g id="Node000002" class="node">
<title>Node2</title>
<g id="a_Node000002"><a xlink:href="ipv4_8h.html" target="_top" xlink:title=" ">
<polygon fill="white" stroke="#666666" points="178,-239 119,-239 119,-220 178,-220 178,-239"/>
<text text-anchor="middle" x="148.5" y="-227" font-family="Helvetica,sans-Serif" font-size="10.00">net/ipv4.h</text>
</a>
</g>
</g>
<!-- Node1&#45;&gt;Node2 -->
<g id="edge1_Node000001_Node000002" class="edge">
<title>Node1&#45;&gt;Node2</title>
<g id="a_edge1_Node000001_Node000002"><a xlink:title=" ">
<path fill="none" stroke="#63b8ff" d="M198.94,-274.54C189.11,-265.96 176.64,-255.07 166.55,-246.26"/>
<polygon fill="#63b8ff" stroke="#63b8ff" points="169.27,-243.12 159.44,-239.18 164.67,-248.39 169.27,-243.12"/>
</a>
</g>
</g>
<!-- Node8 -->
<g id="Node000008" class="node">
<title>Node8</title>
<g id="a_Node000008"><a xlink:title=" ">
<polygon fill="#e0e0e0" stroke="#999999" points="266,-19 217,-19 217,0 266,0 266,-19"/>
<text text-anchor="middle" x="241.5" y="-7" font-family="Helvetica,sans-Serif" font-size="10.00">stdint.h</text>
</a>
</g>
</g>
<!-- Node1&#45;&gt;Node8 -->
<g id="edge14_Node000001_Node000008" class="edge">
<title>Node1&#45;&gt;Node8</title>
<g id="a_edge14_Node000001_Node000008"><a xlink:title=" ">
<path fill="none" stroke="#63b8ff" d="M223.56,-274.82C234.71,-253.82 253.5,-212.9 253.5,-175.5 253.5,-175.5 253.5,-175.5 253.5,-118.5 253.5,-87.45 248.54,-51.67 245,-30.09"/>
<polygon fill="#63b8ff" stroke="#63b8ff" points="248.31,-29.69 243.17,-20.42 241.41,-30.87 248.31,-29.69"/>
</a>
</g>
</g>
<!-- Node9 -->
<g id="Node000009" class="node">
<title>Node9</title>
<g id="a_Node000009"><a xlink:href="net_8h.html" target="_top" xlink:title="This module defines network interfaces and drivers.">
<polygon fill="white" stroke="#666666" points="224,-129 169,-129 169,-110 224,-110 224,-129"/>
<text text-anchor="middle" x="196.5" y="-117" font-family="Helvetica,sans-Serif" font-size="10.00">net/net.h</text>
</a>
</g>
</g>
<!-- Node1&#45;&gt;Node9 -->
<g id="edge13_Node000001_Node000009" class="edge">
<title>Node1&#45;&gt;Node9</title>
<g id="a_edge13_Node000001_Node000009"><a xlink:title=" ">
<path fill="none" stroke="#63b8ff" d="M213.88,-274.63C210.48,-244.44 202.57,-174.36 198.71,-140.08"/>
<polygon fill="#63b8ff" stroke="#63b8ff" points="202.08,-139.76 197.48,-130.22 195.13,-140.54 202.08,-139.76"/>
</a>
</g>
</g>
<!-- Node3 -->
<g id="Node000003" class="node">
<title>Node3</title>
<g id="a_Node000003"><a xlink:href="inet_8h.html" target="_top" xlink:title=" ">
<polygon fill="white" stroke="#666666" points="111.5,-184 49.5,-184 49.5,-165 111.5,-165 111.5,-184"/>
<text text-anchor="middle" x="80.5" y="-172" font-family="Helvetica,sans-Serif" font-size="10.00">arpa/inet.h</text>
</a>
</g>
</g>
<!-- Node2&#45;&gt;Node3 -->
<g id="edge2_Node000002_Node000003" class="edge">
<title>Node2&#45;&gt;Node3</title>
<g id="a_edge2_Node000002_Node000003"><a xlink:title=" ">
<path fill="none" stroke="#63b8ff" d="M136.96,-219.51C126.94,-211.7 112.2,-200.21 100.29,-190.93"/>
<polygon fill="#63b8ff" stroke="#63b8ff" points="102.9,-187.74 92.86,-184.36 98.6,-193.27 102.9,-187.74"/>
</a>
</g>
</g>
<!-- Node5 -->
<g id="Node000005" class="node">
<title>Node5</title>
<g id="a_Node000005"><a xlink:href="types_8h.html" target="_top" xlink:title=" ">
<polygon fill="white" stroke="#666666" points="137.5,-74 69.5,-74 69.5,-55 137.5,-55 137.5,-74"/>
<text text-anchor="middle" x="103.5" y="-62" font-family="Helvetica,sans-Serif" font-size="10.00">sys/types.h</text>
</a>
</g>
</g>
<!-- Node2&#45;&gt;Node5 -->
<g id="edge12_Node000002_Node000005" class="edge">
<title>Node2&#45;&gt;Node5</title>
<g id="a_edge12_Node000002_Node000005"><a xlink:title=" ">
<path fill="none" stroke="#63b8ff" d="M146.08,-219.74C139.06,-194.31 118.57,-120.08 108.8,-84.69"/>
<polygon fill="#63b8ff" stroke="#63b8ff" points="111.97,-84.01 105.93,-75.31 105.22,-85.88 111.97,-84.01"/>
</a>
</g>
</g>
<!-- Node2&#45;&gt;Node9 -->
<g id="edge9_Node000002_Node000009" class="edge">
<title>Node2&#45;&gt;Node9</title>
<g id="a_edge9_Node000002_Node000009"><a xlink:title=" ">
<path fill="none" stroke="#63b8ff" d="M152.43,-219.66C160.2,-202.18 177.68,-162.84 188.14,-139.3"/>
<polygon fill="#63b8ff" stroke="#63b8ff" points="191.65,-141.02 192.52,-130.46 185.26,-138.18 191.65,-141.02"/>
</a>
</g>
</g>
<!-- Node4 -->
<g id="Node000004" class="node">
<title>Node4</title>
<g id="a_Node000004"><a xlink:href="socket_8h.html" target="_top" xlink:title=" ">
<polygon fill="white" stroke="#666666" points="73,-129 0,-129 0,-110 73,-110 73,-129"/>
<text text-anchor="middle" x="36.5" y="-117" font-family="Helvetica,sans-Serif" font-size="10.00">sys/socket.h</text>
</a>
</g>
</g>
<!-- Node3&#45;&gt;Node4 -->
<g id="edge3_Node000003_Node000004" class="edge">
<title>Node3&#45;&gt;Node4</title>
<g id="a_edge3_Node000003_Node000004"><a xlink:title=" ">
<path fill="none" stroke="#63b8ff" d="M73.23,-164.75C67.16,-157.43 58.3,-146.76 50.81,-137.74"/>
<polygon fill="#63b8ff" stroke="#63b8ff" points="53,-135.9 43.92,-130.44 47.62,-140.37 53,-135.9"/>
</a>
</g>
</g>
<!-- Node3&#45;&gt;Node5 -->
<g id="edge8_Node000003_Node000005" class="edge">
<title>Node3&#45;&gt;Node5</title>
<g id="a_edge8_Node000003_Node000005"><a xlink:title=" ">
<path fill="none" stroke="#63b8ff" d="M82.38,-164.66C86.07,-147.34 94.33,-108.55 99.36,-84.95"/>
<polygon fill="#63b8ff" stroke="#63b8ff" points="102.93,-85.97 101.59,-75.46 96.09,-84.51 102.93,-85.97"/>
</a>
</g>
</g>
<!-- Node4&#45;&gt;Node5 -->
<g id="edge4_Node000004_Node000005" class="edge">
<title>Node4&#45;&gt;Node5</title>
<g id="a_edge4_Node000004_Node000005"><a xlink:title=" ">
<path fill="none" stroke="#63b8ff" d="M47.87,-109.51C57.74,-101.7 72.27,-90.21 84,-80.93"/>
<polygon fill="#63b8ff" stroke="#63b8ff" points="85.63,-83.31 91.3,-74.36 81.29,-77.82 85.63,-83.31"/>
</a>
</g>
</g>
<!-- Node6 -->
<g id="Node000006" class="node">
<title>Node6</title>
<g id="a_Node000006"><a xlink:title=" ">
<polygon fill="#e0e0e0" stroke="#999999" points="198.5,-19 142.5,-19 142.5,0 198.5,0 198.5,-19"/>
<text text-anchor="middle" x="170.5" y="-7" font-family="Helvetica,sans-Serif" font-size="10.00">stdbool.h</text>
</a>
</g>
</g>
<!-- Node5&#45;&gt;Node6 -->
<g id="edge5_Node000005_Node000006" class="edge">
<title>Node5&#45;&gt;Node6</title>
<g id="a_edge5_Node000005_Node000006"><a xlink:title=" ">
<path fill="none" stroke="#63b8ff" d="M114.87,-54.51C124.74,-46.7 139.27,-35.21 151,-25.93"/>
<polygon fill="#63b8ff" stroke="#63b8ff" points="152.63,-28.31 158.3,-19.36 148.29,-22.82 152.63,-28.31"/>
</a>
</g>
</g>
<!-- Node7 -->
<g id="Node000007" class="node">
<title>Node7</title>
<g id="a_Node000007"><a xlink:title=" ">
<polygon fill="#e0e0e0" stroke="#999999" points="124.5,-19 72.5,-19 72.5,0 124.5,0 124.5,-19"/>
<text text-anchor="middle" x="98.5" y="-7" font-family="Helvetica,sans-Serif" font-size="10.00">stddef.h</text>
</a>
</g>
</g>
<!-- Node5&#45;&gt;Node7 -->
<g id="edge6_Node000005_Node000007" class="edge">
<title>Node5&#45;&gt;Node7</title>
<g id="a_edge6_Node000005_Node000007"><a xlink:title=" ">
<path fill="none" stroke="#63b8ff" d="M102.67,-54.75C102.05,-48.11 101.16,-38.73 100.37,-30.31"/>
<polygon fill="#63b8ff" stroke="#63b8ff" points="103.77,-30.07 99.34,-20.44 96.8,-30.73 103.77,-30.07"/>
</a>
</g>
</g>
<!-- Node5&#45;&gt;Node8 -->
<g id="edge7_Node000005_Node000008" class="edge">
<title>Node5&#45;&gt;Node8</title>
<g id="a_edge7_Node000005_Node000008"><a xlink:title=" ">
<path fill="none" stroke="#63b8ff" d="M126.91,-54.51C149.25,-45.93 183.13,-32.92 208.26,-23.27"/>
<polygon fill="#63b8ff" stroke="#63b8ff" points="209.36,-26.21 217.44,-19.36 206.85,-19.68 209.36,-26.21"/>
</a>
</g>
</g>
<!-- Node9&#45;&gt;Node6 -->
<g id="edge10_Node000009_Node000006" class="edge">
<title>Node9&#45;&gt;Node6</title>
<g id="a_edge10_Node000009_Node000006"><a xlink:title=" ">
<path fill="none" stroke="#63b8ff" d="M194.37,-109.66C190.2,-92.34 180.86,-53.55 175.18,-29.95"/>
<polygon fill="#63b8ff" stroke="#63b8ff" points="178.4,-29.36 172.66,-20.46 171.59,-31 178.4,-29.36"/>
</a>
</g>
</g>
<!-- Node9&#45;&gt;Node8 -->
<g id="edge11_Node000009_Node000008" class="edge">
<title>Node9&#45;&gt;Node8</title>
<g id="a_edge11_Node000009_Node000008"><a xlink:title=" ">
<path fill="none" stroke="#63b8ff" d="M200.18,-109.66C207.47,-92.18 223.86,-52.84 233.67,-29.3"/>
<polygon fill="#63b8ff" stroke="#63b8ff" points="237.15,-31.04 237.77,-20.46 230.69,-28.34 237.15,-31.04"/>
</a>
</g>
</g>
</g>
</svg>
