<?xml version="1.0" encoding="UTF-8" standalone="no"?>
<!DOCTYPE svg PUBLIC "-//W3C//DTD SVG 1.1//EN"
 "http://www.w3.org/Graphics/SVG/1.1/DTD/svg11.dtd">
<!-- Generated by graphviz version 9.0.0 (20230911.1827)
 -->
<!-- Title: include/kernel/net/icmpv4.h Pages: 1 -->
<svg width="271pt" height="315pt"
 viewBox="0.00 0.00 271.25 314.75" xmlns="http://www.w3.org/2000/svg" xmlns:xlink="http://www.w3.org/1999/xlink">
<g id="graph0" class="graph" transform="scale(1 1) rotate(0) translate(4 310.75)">
<title>include/kernel/net/icmpv4.h</title>
<!-- Node1 -->
<g id="Node000001" class="node">
<title>Node1</title>
<g id="a_Node000001"><a xlink:title=" ">
<polygon fill="#999999" stroke="#666666" points="260.38,-306.75 167.88,-306.75 167.88,-276.25 260.38,-276.25 260.38,-306.75"/>
<text text-anchor="start" x="175.88" y="-293.25" font-family="Helvetica,sans-Serif" font-size="10.00">include/kernel/net</text>
<text text-anchor="middle" x="214.12" y="-282" font-family="Helvetica,sans-Serif" font-size="10.00">/icmpv4.h</text>
</a>
</g>
</g>
<!-- Node2 -->
<g id="Node000002" class="node">
<title>Node2</title>
<g id="a_Node000002"><a xlink:href="ipv4_8h.html" target="_top" xlink:title=" ">
<polygon fill="white" stroke="#666666" points="177.5,-240.25 118.75,-240.25 118.75,-221 177.5,-221 177.5,-240.25"/>
<text text-anchor="middle" x="148.12" y="-226.75" font-family="Helvetica,sans-Serif" font-size="10.00">net/ipv4.h</text>
</a>
</g>
</g>
<!-- Node1&#45;&gt;Node2 -->
<g id="edge1_Node000001_Node000002" class="edge">
<title>Node1&#45;&gt;Node2</title>
<g id="a_edge1_Node000001_Node000002"><a xlink:title=" ">
<path fill="none" stroke="#63b8ff" d="M197.81,-275.95C188.44,-267.59 176.63,-257.05 166.87,-248.35"/>
<polygon fill="#63b8ff" stroke="#63b8ff" points="169.22,-245.75 159.43,-241.71 164.56,-250.98 169.22,-245.75"/>
</a>
</g>
</g>
<!-- Node8 -->
<g id="Node000008" class="node">
<title>Node8</title>
<g id="a_Node000008"><a xlink:title=" ">
<polygon fill="#e0e0e0" stroke="#999999" points="263.25,-19.25 215,-19.25 215,0 263.25,0 263.25,-19.25"/>
<text text-anchor="middle" x="239.12" y="-5.75" font-family="Helvetica,sans-Serif" font-size="10.00">stdint.h</text>
</a>
</g>
</g>
<!-- Node1&#45;&gt;Node8 -->
<g id="edge14_Node000001_Node000008" class="edge">
<title>Node1&#45;&gt;Node8</title>
<g id="a_edge14_Node000001_Node000008"><a xlink:title=" ">
<path fill="none" stroke="#63b8ff" d="M222.37,-275.88C233.55,-254.66 252.12,-213.76 252.12,-176.38 252.12,-176.38 252.12,-176.38 252.12,-119.12 252.12,-88.19 246.85,-52.64 243.02,-30.9"/>
<polygon fill="#63b8ff" stroke="#63b8ff" points="246.46,-30.27 241.21,-21.07 239.58,-31.54 246.46,-30.27"/>
</a>
</g>
</g>
<!-- Node9 -->
<g id="Node000009" class="node">
<title>Node9</title>
<g id="a_Node000009"><a xlink:href="net_8h.html" target="_top" xlink:title="This module defines network interfaces and drivers.">
<polygon fill="white" stroke="#666666" points="222.25,-129.75 168,-129.75 168,-110.5 222.25,-110.5 222.25,-129.75"/>
<text text-anchor="middle" x="195.12" y="-116.25" font-family="Helvetica,sans-Serif" font-size="10.00">net/net.h</text>
</a>
</g>
</g>
<!-- Node1&#45;&gt;Node9 -->
<g id="edge13_Node000001_Node000009" class="edge">
<title>Node1&#45;&gt;Node9</title>
<g id="a_edge13_Node000001_Node000009"><a xlink:title=" ">
<path fill="none" stroke="#63b8ff" d="M212.47,-275.77C209.08,-245.51 201.31,-176.3 197.43,-141.66"/>
<polygon fill="#63b8ff" stroke="#63b8ff" points="200.91,-141.29 196.32,-131.74 193.95,-142.07 200.91,-141.29"/>
</a>
</g>
</g>
<!-- Node3 -->
<g id="Node000003" class="node">
<title>Node3</title>
<g id="a_Node000003"><a xlink:href="inet_8h.html" target="_top" xlink:title=" ">
<polygon fill="white" stroke="#666666" points="110,-185 48.25,-185 48.25,-165.75 110,-165.75 110,-185"/>
<text text-anchor="middle" x="79.12" y="-171.5" font-family="Helvetica,sans-Serif" font-size="10.00">arpa/inet.h</text>
</a>
</g>
</g>
<!-- Node2&#45;&gt;Node3 -->
<g id="edge2_Node000002_Node000003" class="edge">
<title>Node2&#45;&gt;Node3</title>
<g id="a_edge2_Node000002_Node000003"><a xlink:title=" ">
<path fill="none" stroke="#63b8ff" d="M136.42,-220.59C126.35,-212.82 111.58,-201.42 99.56,-192.15"/>
<polygon fill="#63b8ff" stroke="#63b8ff" points="101.91,-189.54 91.86,-186.2 97.63,-195.08 101.91,-189.54"/>
</a>
</g>
</g>
<!-- Node5 -->
<g id="Node000005" class="node">
<title>Node5</title>
<g id="a_Node000005"><a xlink:href="types_8h.html" target="_top" xlink:title=" ">
<polygon fill="white" stroke="#666666" points="135.62,-74.5 68.62,-74.5 68.62,-55.25 135.62,-55.25 135.62,-74.5"/>
<text text-anchor="middle" x="102.12" y="-61" font-family="Helvetica,sans-Serif" font-size="10.00">sys/types.h</text>
</a>
</g>
</g>
<!-- Node2&#45;&gt;Node5 -->
<g id="edge12_Node000002_Node000005" class="edge">
<title>Node2&#45;&gt;Node5</title>
<g id="a_edge12_Node000002_Node000005"><a xlink:title=" ">
<path fill="none" stroke="#63b8ff" d="M145.65,-220.82C138.51,-195.39 117.71,-121.35 107.67,-85.62"/>
<polygon fill="#63b8ff" stroke="#63b8ff" points="111.09,-84.86 105.02,-76.18 104.35,-86.75 111.09,-84.86"/>
</a>
</g>
</g>
<!-- Node2&#45;&gt;Node9 -->
<g id="edge9_Node000002_Node000009" class="edge">
<title>Node2&#45;&gt;Node9</title>
<g id="a_edge9_Node000002_Node000009"><a xlink:title=" ">
<path fill="none" stroke="#63b8ff" d="M151.97,-220.75C159.51,-203.34 176.39,-164.37 186.66,-140.66"/>
<polygon fill="#63b8ff" stroke="#63b8ff" points="189.86,-142.08 190.62,-131.52 183.44,-139.3 189.86,-142.08"/>
</a>
</g>
</g>
<!-- Node4 -->
<g id="Node000004" class="node">
<title>Node4</title>
<g id="a_Node000004"><a xlink:href="socket_8h.html" target="_top" xlink:title=" ">
<polygon fill="white" stroke="#666666" points="72.25,-129.75 0,-129.75 0,-110.5 72.25,-110.5 72.25,-129.75"/>
<text text-anchor="middle" x="36.12" y="-116.25" font-family="Helvetica,sans-Serif" font-size="10.00">sys/socket.h</text>
</a>
</g>
</g>
<!-- Node3&#45;&gt;Node4 -->
<g id="edge3_Node000003_Node000004" class="edge">
<title>Node3&#45;&gt;Node4</title>
<g id="a_edge3_Node000003_Node000004"><a xlink:title=" ">
<path fill="none" stroke="#63b8ff" d="M72.02,-165.58C66.21,-158.38 57.79,-147.96 50.57,-139.01"/>
<polygon fill="#63b8ff" stroke="#63b8ff" points="53.34,-136.87 44.33,-131.29 47.89,-141.27 53.34,-136.87"/>
</a>
</g>
</g>
<!-- Node3&#45;&gt;Node5 -->
<g id="edge8_Node000003_Node000005" class="edge">
<title>Node3&#45;&gt;Node5</title>
<g id="a_edge8_Node000003_Node000005"><a xlink:title=" ">
<path fill="none" stroke="#63b8ff" d="M81.01,-165.5C84.66,-148.25 92.81,-109.83 97.85,-86.06"/>
<polygon fill="#63b8ff" stroke="#63b8ff" points="101.25,-86.87 99.9,-76.36 94.41,-85.41 101.25,-86.87"/>
</a>
</g>
</g>
<!-- Node4&#45;&gt;Node5 -->
<g id="edge4_Node000004_Node000005" class="edge">
<title>Node4&#45;&gt;Node5</title>
<g id="a_edge4_Node000004_Node000005"><a xlink:title=" ">
<path fill="none" stroke="#63b8ff" d="M47.32,-110.09C56.86,-102.4 70.8,-91.15 82.23,-81.93"/>
<polygon fill="#63b8ff" stroke="#63b8ff" points="84.33,-84.73 89.92,-75.73 79.94,-79.28 84.33,-84.73"/>
</a>
</g>
</g>
<!-- Node6 -->
<g id="Node000006" class="node">
<title>Node6</title>
<g id="a_Node000006"><a xlink:title=" ">
<polygon fill="#e0e0e0" stroke="#999999" points="197,-19.25 141.25,-19.25 141.25,0 197,0 197,-19.25"/>
<text text-anchor="middle" x="169.12" y="-5.75" font-family="Helvetica,sans-Serif" font-size="10.00">stdbool.h</text>
</a>
</g>
</g>
<!-- Node5&#45;&gt;Node6 -->
<g id="edge5_Node000005_Node000006" class="edge">
<title>Node5&#45;&gt;Node6</title>
<g id="a_edge5_Node000005_Node000006"><a xlink:title=" ">
<path fill="none" stroke="#63b8ff" d="M113.49,-54.84C123.17,-47.15 137.32,-35.9 148.93,-26.68"/>
<polygon fill="#63b8ff" stroke="#63b8ff" points="151.09,-29.43 156.74,-20.47 146.74,-23.95 151.09,-29.43"/>
</a>
</g>
</g>
<!-- Node7 -->
<g id="Node000007" class="node">
<title>Node7</title>
<g id="a_Node000007"><a xlink:title=" ">
<polygon fill="#e0e0e0" stroke="#999999" points="122.75,-19.25 71.5,-19.25 71.5,0 122.75,0 122.75,-19.25"/>
<text text-anchor="middle" x="97.12" y="-5.75" font-family="Helvetica,sans-Serif" font-size="10.00">stddef.h</text>
</a>
</g>
</g>
<!-- Node5&#45;&gt;Node7 -->
<g id="edge6_Node000005_Node000007" class="edge">
<title>Node5&#45;&gt;Node7</title>
<g id="a_edge6_Node000005_Node000007"><a xlink:title=" ">
<path fill="none" stroke="#63b8ff" d="M101.3,-55.08C100.68,-48.49 99.81,-39.21 99.02,-30.82"/>
<polygon fill="#63b8ff" stroke="#63b8ff" points="102.53,-30.75 98.11,-21.12 95.56,-31.4 102.53,-30.75"/>
</a>
</g>
</g>
<!-- Node5&#45;&gt;Node8 -->
<g id="edge7_Node000005_Node000008" class="edge">
<title>Node5&#45;&gt;Node8</title>
<g id="a_edge7_Node000005_Node000008"><a xlink:title=" ">
<path fill="none" stroke="#63b8ff" d="M125.37,-54.84C147.31,-46.31 180.47,-33.42 205.34,-23.76"/>
<polygon fill="#63b8ff" stroke="#63b8ff" points="206.31,-27.14 214.36,-20.25 203.77,-20.61 206.31,-27.14"/>
</a>
</g>
</g>
<!-- Node9&#45;&gt;Node6 -->
<g id="edge10_Node000009_Node000006" class="edge">
<title>Node9&#45;&gt;Node6</title>
<g id="a_edge10_Node000009_Node000006"><a xlink:title=" ">
<path fill="none" stroke="#63b8ff" d="M193,-110.25C188.86,-93 179.66,-54.58 173.96,-30.81"/>
<polygon fill="#63b8ff" stroke="#63b8ff" points="177.37,-30.01 171.63,-21.1 170.56,-31.64 177.37,-30.01"/>
</a>
</g>
</g>
<!-- Node9&#45;&gt;Node8 -->
<g id="edge11_Node000009_Node000008" class="edge">
<title>Node9&#45;&gt;Node8</title>
<g id="a_edge11_Node000009_Node000008"><a xlink:title=" ">
<path fill="none" stroke="#63b8ff" d="M198.73,-110.25C205.78,-92.84 221.59,-53.87 231.2,-30.16"/>
<polygon fill="#63b8ff" stroke="#63b8ff" points="234.39,-31.61 234.91,-21.03 227.9,-28.98 234.39,-31.61"/>
</a>
</g>
</g>
</g>
</svg>
