<?xml version="1.0" encoding="UTF-8" standalone="no"?>
<!DOCTYPE svg PUBLIC "-//W3C//DTD SVG 1.1//EN"
 "http://www.w3.org/Graphics/SVG/1.1/DTD/svg11.dtd">
<!-- Generated by graphviz version 8.0.2 (20230410.1723)
 -->
<!-- Title: include/kernel/net/icmpv4.h Pages: 1 -->
<svg width="274pt" height="319pt"
 viewBox="0.00 0.00 274.00 319.00" xmlns="http://www.w3.org/2000/svg" xmlns:xlink="http://www.w3.org/1999/xlink">
<g id="graph0" class="graph" transform="scale(1 1) rotate(0) translate(4 315)">
<title>include/kernel/net/icmpv4.h</title>
<!-- Node1 -->
<g id="node1" class="node">
<title>Node1</title>
<g id="a_node1"><a xlink:title=" ">
<polygon fill="#bfbfbf" stroke="black" points="169,-280.5 169,-310.5 262,-310.5 262,-280.5 169,-280.5"/>
<text text-anchor="start" x="177" y="-298.5" font-family="Helvetica,sans-Serif" font-size="10.00">include/kernel/net</text>
<text text-anchor="middle" x="215.5" y="-287.5" font-family="Helvetica,sans-Serif" font-size="10.00">/icmpv4.h</text>
</a>
</g>
</g>
<!-- Node2 -->
<g id="node2" class="node">
<title>Node2</title>
<g id="a_node2"><a xlink:href="ipv4_8h.html" target="_top" xlink:title=" ">
<polygon fill="none" stroke="black" points="119,-224.5 119,-243.5 178,-243.5 178,-224.5 119,-224.5"/>
<text text-anchor="middle" x="148.5" y="-231.5" font-family="Helvetica,sans-Serif" font-size="10.00">net/ipv4.h</text>
</a>
</g>
</g>
<!-- Node1&#45;&gt;Node2 -->
<g id="edge1" class="edge">
<title>Node1&#45;&gt;Node2</title>
<path fill="none" stroke="midnightblue" d="M199.96,-280.7C189.81,-271.69 176.54,-259.9 166.02,-250.56"/>
<polygon fill="midnightblue" stroke="midnightblue" points="168.76,-248.42 158.96,-244.4 164.11,-253.66 168.76,-248.42"/>
</g>
<!-- Node8 -->
<g id="node8" class="node">
<title>Node8</title>
<g id="a_node8"><a xlink:title=" ">
<polygon fill="none" stroke="#bfbfbf" points="217,-0.5 217,-19.5 266,-19.5 266,-0.5 217,-0.5"/>
<text text-anchor="middle" x="241.5" y="-7.5" font-family="Helvetica,sans-Serif" font-size="10.00">stdint.h</text>
</a>
</g>
</g>
<!-- Node1&#45;&gt;Node8 -->
<g id="edge14" class="edge">
<title>Node1&#45;&gt;Node8</title>
<path fill="none" stroke="midnightblue" d="M223.19,-280.76C234.29,-259.59 253.5,-217.42 253.5,-179 253.5,-179 253.5,-179 253.5,-121 253.5,-88.89 248.39,-51.83 244.83,-29.96"/>
<polygon fill="midnightblue" stroke="midnightblue" points="248.14,-29.52 243.02,-20.25 241.24,-30.69 248.14,-29.52"/>
</g>
<!-- Node9 -->
<g id="node9" class="node">
<title>Node9</title>
<g id="a_node9"><a xlink:href="net_8h.html" target="_top" xlink:title="This module defines network interfaces and drivers.">
<polygon fill="none" stroke="black" points="169,-112.5 169,-131.5 224,-131.5 224,-112.5 169,-112.5"/>
<text text-anchor="middle" x="196.5" y="-119.5" font-family="Helvetica,sans-Serif" font-size="10.00">net/net.h</text>
</a>
</g>
</g>
<!-- Node1&#45;&gt;Node9 -->
<g id="edge13" class="edge">
<title>Node1&#45;&gt;Node9</title>
<path fill="none" stroke="midnightblue" d="M213.98,-280.76C210.59,-250.18 202.43,-176.51 198.58,-141.75"/>
<polygon fill="midnightblue" stroke="midnightblue" points="201.99,-141.77 197.41,-132.21 195.03,-142.54 201.99,-141.77"/>
</g>
<!-- Node3 -->
<g id="node3" class="node">
<title>Node3</title>
<g id="a_node3"><a xlink:href="inet_8h.html" target="_top" xlink:title=" ">
<polygon fill="none" stroke="black" points="49.5,-168.5 49.5,-187.5 111.5,-187.5 111.5,-168.5 49.5,-168.5"/>
<text text-anchor="middle" x="80.5" y="-175.5" font-family="Helvetica,sans-Serif" font-size="10.00">arpa/inet.h</text>
</a>
</g>
</g>
<!-- Node2&#45;&gt;Node3 -->
<g id="edge2" class="edge">
<title>Node2&#45;&gt;Node3</title>
<path fill="none" stroke="midnightblue" d="M137.88,-224.56C127.54,-216.35 111.6,-203.7 99.15,-193.81"/>
<polygon fill="midnightblue" stroke="midnightblue" points="101.84,-190.68 91.83,-187.2 97.48,-196.16 101.84,-190.68"/>
</g>
<!-- Node5 -->
<g id="node5" class="node">
<title>Node5</title>
<g id="a_node5"><a xlink:href="types_8h.html" target="_top" xlink:title=" ">
<polygon fill="none" stroke="black" points="69.5,-56.5 69.5,-75.5 137.5,-75.5 137.5,-56.5 69.5,-56.5"/>
<text text-anchor="middle" x="103.5" y="-63.5" font-family="Helvetica,sans-Serif" font-size="10.00">sys/types.h</text>
</a>
</g>
</g>
<!-- Node2&#45;&gt;Node5 -->
<g id="edge12" class="edge">
<title>Node2&#45;&gt;Node5</title>
<path fill="none" stroke="midnightblue" d="M146.21,-224.54C139.26,-198.9 118.3,-121.6 108.57,-85.7"/>
<polygon fill="midnightblue" stroke="midnightblue" points="111.73,-84.98 105.74,-76.25 104.97,-86.81 111.73,-84.98"/>
</g>
<!-- Node2&#45;&gt;Node9 -->
<g id="edge9" class="edge">
<title>Node2&#45;&gt;Node9</title>
<path fill="none" stroke="midnightblue" d="M152.11,-224.73C159.79,-207.13 177.91,-165.6 188.47,-141.4"/>
<polygon fill="midnightblue" stroke="midnightblue" points="192.06,-142.93 192.85,-132.36 185.64,-140.13 192.06,-142.93"/>
</g>
<!-- Node4 -->
<g id="node4" class="node">
<title>Node4</title>
<g id="a_node4"><a xlink:href="socket_8h.html" target="_top" xlink:title=" ">
<polygon fill="none" stroke="black" points="0,-112.5 0,-131.5 73,-131.5 73,-112.5 0,-112.5"/>
<text text-anchor="middle" x="36.5" y="-119.5" font-family="Helvetica,sans-Serif" font-size="10.00">sys/socket.h</text>
</a>
</g>
</g>
<!-- Node3&#45;&gt;Node4 -->
<g id="edge3" class="edge">
<title>Node3&#45;&gt;Node4</title>
<path fill="none" stroke="midnightblue" d="M73.62,-168.56C67.32,-160.83 57.82,-149.16 50,-139.57"/>
<polygon fill="midnightblue" stroke="midnightblue" points="52.21,-137.74 43.18,-132.2 46.79,-142.16 52.21,-137.74"/>
</g>
<!-- Node3&#45;&gt;Node5 -->
<g id="edge8" class="edge">
<title>Node3&#45;&gt;Node5</title>
<path fill="none" stroke="midnightblue" d="M82.23,-168.73C85.88,-151.29 94.44,-110.35 99.51,-86.06"/>
<polygon fill="midnightblue" stroke="midnightblue" points="103.13,-86.87 101.75,-76.36 96.28,-85.44 103.13,-86.87"/>
</g>
<!-- Node4&#45;&gt;Node5 -->
<g id="edge4" class="edge">
<title>Node4&#45;&gt;Node5</title>
<path fill="none" stroke="midnightblue" d="M46.97,-112.56C57.06,-104.43 72.55,-91.95 84.76,-82.1"/>
<polygon fill="midnightblue" stroke="midnightblue" points="86.73,-84.2 92.32,-75.2 82.34,-78.75 86.73,-84.2"/>
</g>
<!-- Node6 -->
<g id="node6" class="node">
<title>Node6</title>
<g id="a_node6"><a xlink:title=" ">
<polygon fill="none" stroke="#bfbfbf" points="142.5,-0.5 142.5,-19.5 198.5,-19.5 198.5,-0.5 142.5,-0.5"/>
<text text-anchor="middle" x="170.5" y="-7.5" font-family="Helvetica,sans-Serif" font-size="10.00">stdbool.h</text>
</a>
</g>
</g>
<!-- Node5&#45;&gt;Node6 -->
<g id="edge5" class="edge">
<title>Node5&#45;&gt;Node6</title>
<path fill="none" stroke="midnightblue" d="M113.97,-56.56C124.06,-48.43 139.55,-35.95 151.76,-26.1"/>
<polygon fill="midnightblue" stroke="midnightblue" points="153.73,-28.2 159.32,-19.2 149.34,-22.75 153.73,-28.2"/>
</g>
<!-- Node7 -->
<g id="node7" class="node">
<title>Node7</title>
<g id="a_node7"><a xlink:title=" ">
<polygon fill="none" stroke="#bfbfbf" points="72.5,-0.5 72.5,-19.5 124.5,-19.5 124.5,-0.5 72.5,-0.5"/>
<text text-anchor="middle" x="98.5" y="-7.5" font-family="Helvetica,sans-Serif" font-size="10.00">stddef.h</text>
</a>
</g>
</g>
<!-- Node5&#45;&gt;Node7 -->
<g id="edge6" class="edge">
<title>Node5&#45;&gt;Node7</title>
<path fill="none" stroke="midnightblue" d="M102.72,-56.56C102.06,-49.47 101.1,-39.06 100.26,-29.98"/>
<polygon fill="midnightblue" stroke="midnightblue" points="103.67,-29.84 99.26,-20.2 96.7,-30.48 103.67,-29.84"/>
</g>
<!-- Node5&#45;&gt;Node8 -->
<g id="edge7" class="edge">
<title>Node5&#45;&gt;Node8</title>
<path fill="none" stroke="midnightblue" d="M125.06,-56.56C147.85,-47.65 184.01,-33.5 209.99,-23.33"/>
<polygon fill="midnightblue" stroke="midnightblue" points="211.05,-26.28 219.09,-19.38 208.5,-19.76 211.05,-26.28"/>
</g>
<!-- Node9&#45;&gt;Node6 -->
<g id="edge10" class="edge">
<title>Node9&#45;&gt;Node6</title>
<path fill="none" stroke="midnightblue" d="M194.55,-112.73C190.42,-95.29 180.75,-54.35 175,-30.06"/>
<polygon fill="midnightblue" stroke="midnightblue" points="178.18,-29.29 172.48,-20.36 171.37,-30.9 178.18,-29.29"/>
</g>
<!-- Node9&#45;&gt;Node8 -->
<g id="edge11" class="edge">
<title>Node9&#45;&gt;Node8</title>
<path fill="none" stroke="midnightblue" d="M199.88,-112.73C207.08,-95.13 224.07,-53.6 233.97,-29.4"/>
<polygon fill="midnightblue" stroke="midnightblue" points="237.53,-30.94 238.08,-20.36 231.05,-28.29 237.53,-30.94"/>
</g>
</g>
</svg>
