<?xml version="1.0" encoding="UTF-8" standalone="no"?>
<!DOCTYPE svg PUBLIC "-//W3C//DTD SVG 1.1//EN"
 "http://www.w3.org/Graphics/SVG/1.1/DTD/svg11.dtd">
<!-- Generated by graphviz version 8.0.2 (20230410.1723)
 -->
<!-- Title: icmpv4_receive_packet Pages: 1 -->
<svg width="551pt" height="45pt"
 viewBox="0.00 0.00 551.00 45.00" xmlns="http://www.w3.org/2000/svg" xmlns:xlink="http://www.w3.org/1999/xlink">
<g id="graph0" class="graph" transform="scale(1 1) rotate(0) translate(4 41)">
<title>icmpv4_receive_packet</title>
<!-- Node1 -->
<g id="Node000001" class="node">
<title>Node1</title>
<g id="a_Node000001"><a xlink:title=" ">
<polygon fill="#999999" stroke="#666666" points="543,-19 424,-19 424,0 543,0 543,-19"/>
<text text-anchor="middle" x="483.5" y="-7" font-family="Helvetica,sans-Serif" font-size="10.00">icmpv4_receive_packet</text>
</a>
</g>
</g>
<!-- Node1&#45;&gt;Node1 -->
<g id="edge1_Node000001_Node000001" class="edge">
<title>Node1&#45;&gt;Node1</title>
<g id="a_edge1_Node000001_Node000001"><a xlink:title=" ">
<path fill="none" stroke="#63b8ff" d="M510.59,-29.42C508.03,-33.8 499,-37 483.5,-37 457.4,-37 449.65,-27.94 460.25,-19.37"/>
<polygon fill="#63b8ff" stroke="#63b8ff" points="513.59,-28.46 506.75,-20.37 507.05,-30.96 513.59,-28.46"/>
</a>
</g>
</g>
<!-- Node2 -->
<g id="Node000002" class="node">
<title>Node2</title>
<g id="a_Node000002"><a xlink:href="ipv4_8c.html#a6c04a1a0613bd9fae6de26f01ba5958b" target="_top" xlink:title=" ">
<polygon fill="white" stroke="#666666" points="388,-19 282,-19 282,0 388,0 388,-19"/>
<text text-anchor="middle" x="335" y="-7" font-family="Helvetica,sans-Serif" font-size="10.00">ipv4_receive_packet</text>
</a>
</g>
</g>
<!-- Node1&#45;&gt;Node2 -->
<g id="edge2_Node000001_Node000002" class="edge">
<title>Node1&#45;&gt;Node2</title>
<g id="a_edge2_Node000001_Node000002"><a xlink:title=" ">
<path fill="none" stroke="#63b8ff" d="M412.88,-9.5C404.55,-9.5 396.16,-9.5 388.13,-9.5"/>
<polygon fill="#63b8ff" stroke="#63b8ff" points="412.76,-13 422.76,-9.5 412.76,-6 412.76,-13"/>
</a>
</g>
</g>
<!-- Node2&#45;&gt;Node2 -->
<g id="edge7_Node000002_Node000002" class="edge">
<title>Node2&#45;&gt;Node2</title>
<g id="a_edge7_Node000002_Node000002"><a xlink:title=" ">
<path fill="none" stroke="#63b8ff" d="M362.09,-29.42C359.53,-33.8 350.5,-37 335,-37 308.9,-37 301.15,-27.94 311.75,-19.37"/>
<polygon fill="#63b8ff" stroke="#63b8ff" points="365.09,-28.46 358.25,-20.37 358.55,-30.96 365.09,-28.46"/>
</a>
</g>
</g>
<!-- Node3 -->
<g id="Node000003" class="node">
<title>Node3</title>
<g id="a_Node000003"><a xlink:href="ethernet_8c.html#aafb24417f47cd11c95b81566e3b7fc78" target="_top" xlink:title=" ">
<polygon fill="white" stroke="#666666" points="246,-19 127,-19 127,0 246,0 246,-19"/>
<text text-anchor="middle" x="186.5" y="-7" font-family="Helvetica,sans-Serif" font-size="10.00">ethernet_receive_frame</text>
</a>
</g>
</g>
<!-- Node2&#45;&gt;Node3 -->
<g id="edge3_Node000002_Node000003" class="edge">
<title>Node2&#45;&gt;Node3</title>
<g id="a_edge3_Node000002_Node000003"><a xlink:title=" ">
<path fill="none" stroke="#63b8ff" d="M270.65,-9.5C262.57,-9.5 254.33,-9.5 246.33,-9.5"/>
<polygon fill="#63b8ff" stroke="#63b8ff" points="270.52,-13 280.52,-9.5 270.52,-6 270.52,-13"/>
</a>
</g>
</g>
<!-- Node3&#45;&gt;Node3 -->
<g id="edge4_Node000003_Node000003" class="edge">
<title>Node3&#45;&gt;Node3</title>
<g id="a_edge4_Node000003_Node000003"><a xlink:title=" ">
<path fill="none" stroke="#63b8ff" d="M212.01,-29.76C209.33,-33.97 200.83,-37 186.5,-37 161.71,-37 154.36,-27.94 164.43,-19.37"/>
<polygon fill="#63b8ff" stroke="#63b8ff" points="215.04,-28.76 208.57,-20.37 208.39,-30.96 215.04,-28.76"/>
</a>
</g>
</g>
<!-- Node4 -->
<g id="Node000004" class="node">
<title>Node4</title>
<g id="a_Node000004"><a xlink:href="net_2net_8c.html#a5da8d53d480b13e24e293e0ab90a0ac3" target="_top" xlink:title=" ">
<polygon fill="white" stroke="#666666" points="91,-19 0,-19 0,0 91,0 91,-19"/>
<text text-anchor="middle" x="45.5" y="-7" font-family="Helvetica,sans-Serif" font-size="10.00">net_interface_init</text>
</a>
</g>
</g>
<!-- Node3&#45;&gt;Node4 -->
<g id="edge5_Node000003_Node000004" class="edge">
<title>Node3&#45;&gt;Node4</title>
<g id="a_edge5_Node000003_Node000004"><a xlink:title=" ">
<path fill="none" stroke="#63b8ff" d="M115.65,-9.5C107.34,-9.5 99.03,-9.5 91.2,-9.5"/>
<polygon fill="#63b8ff" stroke="#63b8ff" points="115.55,-13 125.55,-9.5 115.55,-6 115.55,-13"/>
</a>
</g>
</g>
<!-- Node4&#45;&gt;Node4 -->
<g id="edge6_Node000004_Node000004" class="edge">
<title>Node4&#45;&gt;Node4</title>
<g id="a_edge6_Node000004_Node000004"><a xlink:title=" ">
<path fill="none" stroke="#63b8ff" d="M71.01,-29.76C68.33,-33.97 59.83,-37 45.5,-37 20.71,-37 13.36,-27.94 23.43,-19.37"/>
<polygon fill="#63b8ff" stroke="#63b8ff" points="74.04,-28.76 67.57,-20.37 67.39,-30.96 74.04,-28.76"/>
</a>
</g>
</g>
</g>
</svg>
