<?xml version="1.0" encoding="UTF-8" standalone="no"?>
<!DOCTYPE svg PUBLIC "-//W3C//DTD SVG 1.1//EN"
 "http://www.w3.org/Graphics/SVG/1.1/DTD/svg11.dtd">
<!-- Generated by graphviz version 2.50.0 (20211204.2007)
 -->
<!-- Title: include/kernel/net/icmpv4.h Pages: 1 -->
<svg width="274pt" height="319pt"
 viewBox="0.00 0.00 274.00 319.00" xmlns="http://www.w3.org/2000/svg" xmlns:xlink="http://www.w3.org/1999/xlink">
<g id="graph0" class="graph" transform="scale(1 1) rotate(0) translate(4 315)">
<title>include/kernel/net/icmpv4.h</title>
<!-- Node1 -->
<g id="node1" class="node">
<title>Node1</title>
<g id="a_node1"><a xlink:title=" ">
<polygon fill="#bfbfbf" stroke="black" points="169,-280.5 169,-310.5 262,-310.5 262,-280.5 169,-280.5"/>
<text text-anchor="start" x="177" y="-298.5" font-family="Helvetica,sans-Serif" font-size="10.00">include/kernel/net</text>
<text text-anchor="middle" x="215.5" y="-287.5" font-family="Helvetica,sans-Serif" font-size="10.00">/icmpv4.h</text>
</a>
</g>
</g>
<!-- Node2 -->
<g id="node2" class="node">
<title>Node2</title>
<g id="a_node2"><a xlink:href="ipv4_8h.html" target="_top" xlink:title=" ">
<polygon fill="none" stroke="black" points="119,-224.5 119,-243.5 178,-243.5 178,-224.5 119,-224.5"/>
<text text-anchor="middle" x="148.5" y="-231.5" font-family="Helvetica,sans-Serif" font-size="10.00">net/ipv4.h</text>
</a>
</g>
</g>
<!-- Node1&#45;&gt;Node2 -->
<g id="edge1" class="edge">
<title>Node1&#45;&gt;Node2</title>
<path fill="none" stroke="midnightblue" d="M199.62,-280.4C189.48,-271.4 176.34,-259.72 165.91,-250.47"/>
<polygon fill="midnightblue" stroke="midnightblue" points="168.05,-247.68 158.25,-243.66 163.4,-252.92 168.05,-247.68"/>
</g>
<!-- Node8 -->
<g id="node8" class="node">
<title>Node8</title>
<g id="a_node8"><a xlink:title=" ">
<polygon fill="none" stroke="#bfbfbf" points="217,-0.5 217,-19.5 266,-19.5 266,-0.5 217,-0.5"/>
<text text-anchor="middle" x="241.5" y="-7.5" font-family="Helvetica,sans-Serif" font-size="10.00">stdint.h</text>
</a>
</g>
</g>
<!-- Node1&#45;&gt;Node8 -->
<g id="edge14" class="edge">
<title>Node1&#45;&gt;Node8</title>
<path fill="none" stroke="midnightblue" d="M223.37,-280.41C234.5,-259.13 253.5,-217.21 253.5,-179 253.5,-179 253.5,-179 253.5,-121 253.5,-88.76 248.34,-51.51 244.79,-29.68"/>
<polygon fill="midnightblue" stroke="midnightblue" points="248.19,-28.8 243.07,-19.52 241.29,-29.97 248.19,-28.8"/>
</g>
<!-- Node9 -->
<g id="node9" class="node">
<title>Node9</title>
<g id="a_node9"><a xlink:href="net_8h.html" target="_top" xlink:title="This module defines network interfaces and drivers.">
<polygon fill="none" stroke="black" points="169,-112.5 169,-131.5 224,-131.5 224,-112.5 169,-112.5"/>
<text text-anchor="middle" x="196.5" y="-119.5" font-family="Helvetica,sans-Serif" font-size="10.00">net/net.h</text>
</a>
</g>
</g>
<!-- Node1&#45;&gt;Node9 -->
<g id="edge13" class="edge">
<title>Node1&#45;&gt;Node9</title>
<path fill="none" stroke="midnightblue" d="M213.95,-280.47C210.54,-249.7 202.41,-176.33 198.57,-141.7"/>
<polygon fill="midnightblue" stroke="midnightblue" points="202.03,-141.11 197.45,-131.56 195.07,-141.88 202.03,-141.11"/>
</g>
<!-- Node3 -->
<g id="node3" class="node">
<title>Node3</title>
<g id="a_node3"><a xlink:href="inet_8h.html" target="_top" xlink:title=" ">
<polygon fill="none" stroke="black" points="49.5,-168.5 49.5,-187.5 111.5,-187.5 111.5,-168.5 49.5,-168.5"/>
<text text-anchor="middle" x="80.5" y="-175.5" font-family="Helvetica,sans-Serif" font-size="10.00">arpa/inet.h</text>
</a>
</g>
</g>
<!-- Node2&#45;&gt;Node3 -->
<g id="edge2" class="edge">
<title>Node2&#45;&gt;Node3</title>
<path fill="none" stroke="midnightblue" d="M137.57,-224.32C127.33,-216.18 111.78,-203.84 99.5,-194.09"/>
<polygon fill="midnightblue" stroke="midnightblue" points="101.63,-191.31 91.62,-187.83 97.28,-196.79 101.63,-191.31"/>
</g>
<!-- Node5 -->
<g id="node5" class="node">
<title>Node5</title>
<g id="a_node5"><a xlink:href="types_8h.html" target="_top" xlink:title=" ">
<polygon fill="none" stroke="black" points="69.5,-56.5 69.5,-75.5 137.5,-75.5 137.5,-56.5 69.5,-56.5"/>
<text text-anchor="middle" x="103.5" y="-63.5" font-family="Helvetica,sans-Serif" font-size="10.00">sys/types.h</text>
</a>
</g>
</g>
<!-- Node2&#45;&gt;Node5 -->
<g id="edge12" class="edge">
<title>Node2&#45;&gt;Node5</title>
<path fill="none" stroke="midnightblue" d="M146.08,-224.08C139,-197.95 118.2,-121.21 108.54,-85.58"/>
<polygon fill="midnightblue" stroke="midnightblue" points="111.82,-84.3 105.82,-75.57 105.06,-86.14 111.82,-84.3"/>
</g>
<!-- Node2&#45;&gt;Node9 -->
<g id="edge9" class="edge">
<title>Node2&#45;&gt;Node9</title>
<path fill="none" stroke="midnightblue" d="M152.27,-224.37C160.08,-206.46 178.21,-164.92 188.67,-140.95"/>
<polygon fill="midnightblue" stroke="midnightblue" points="191.96,-142.16 192.75,-131.59 185.54,-139.36 191.96,-142.16"/>
</g>
<!-- Node4 -->
<g id="node4" class="node">
<title>Node4</title>
<g id="a_node4"><a xlink:href="socket_8h.html" target="_top" xlink:title=" ">
<polygon fill="none" stroke="black" points="0,-112.5 0,-131.5 73,-131.5 73,-112.5 0,-112.5"/>
<text text-anchor="middle" x="36.5" y="-119.5" font-family="Helvetica,sans-Serif" font-size="10.00">sys/socket.h</text>
</a>
</g>
</g>
<!-- Node3&#45;&gt;Node4 -->
<g id="edge3" class="edge">
<title>Node3&#45;&gt;Node4</title>
<path fill="none" stroke="midnightblue" d="M73.23,-168.08C66.96,-160.38 57.71,-149.03 50.07,-139.65"/>
<polygon fill="midnightblue" stroke="midnightblue" points="52.66,-137.29 43.63,-131.75 47.23,-141.71 52.66,-137.29"/>
</g>
<!-- Node3&#45;&gt;Node5 -->
<g id="edge8" class="edge">
<title>Node3&#45;&gt;Node5</title>
<path fill="none" stroke="midnightblue" d="M82.3,-168.37C86.02,-150.62 94.58,-109.67 99.61,-85.6"/>
<polygon fill="midnightblue" stroke="midnightblue" points="103.08,-86.1 101.7,-75.59 96.23,-84.66 103.08,-86.1"/>
</g>
<!-- Node4&#45;&gt;Node5 -->
<g id="edge4" class="edge">
<title>Node4&#45;&gt;Node5</title>
<path fill="none" stroke="midnightblue" d="M47.26,-112.32C57.27,-104.26 72.39,-92.08 84.43,-82.37"/>
<polygon fill="midnightblue" stroke="midnightblue" points="86.95,-84.83 92.54,-75.83 82.56,-79.38 86.95,-84.83"/>
</g>
<!-- Node6 -->
<g id="node6" class="node">
<title>Node6</title>
<g id="a_node6"><a xlink:title=" ">
<polygon fill="none" stroke="#bfbfbf" points="142.5,-0.5 142.5,-19.5 198.5,-19.5 198.5,-0.5 142.5,-0.5"/>
<text text-anchor="middle" x="170.5" y="-7.5" font-family="Helvetica,sans-Serif" font-size="10.00">stdbool.h</text>
</a>
</g>
</g>
<!-- Node5&#45;&gt;Node6 -->
<g id="edge5" class="edge">
<title>Node5&#45;&gt;Node6</title>
<path fill="none" stroke="midnightblue" d="M114.26,-56.32C124.27,-48.26 139.39,-36.08 151.43,-26.37"/>
<polygon fill="midnightblue" stroke="midnightblue" points="153.95,-28.83 159.54,-19.83 149.56,-23.38 153.95,-28.83"/>
</g>
<!-- Node7 -->
<g id="node7" class="node">
<title>Node7</title>
<g id="a_node7"><a xlink:title=" ">
<polygon fill="none" stroke="#bfbfbf" points="72.5,-0.5 72.5,-19.5 124.5,-19.5 124.5,-0.5 72.5,-0.5"/>
<text text-anchor="middle" x="98.5" y="-7.5" font-family="Helvetica,sans-Serif" font-size="10.00">stddef.h</text>
</a>
</g>
</g>
<!-- Node5&#45;&gt;Node7 -->
<g id="edge6" class="edge">
<title>Node5&#45;&gt;Node7</title>
<path fill="none" stroke="midnightblue" d="M102.67,-56.08C102.02,-49.01 101.08,-38.86 100.26,-29.99"/>
<polygon fill="midnightblue" stroke="midnightblue" points="103.72,-29.39 99.31,-19.75 96.75,-30.03 103.72,-29.39"/>
</g>
<!-- Node5&#45;&gt;Node8 -->
<g id="edge7" class="edge">
<title>Node5&#45;&gt;Node8</title>
<path fill="none" stroke="midnightblue" d="M125.37,-56.44C148.28,-47.48 184.48,-33.31 210.37,-23.18"/>
<polygon fill="midnightblue" stroke="midnightblue" points="211.7,-26.42 219.74,-19.52 209.15,-19.9 211.7,-26.42"/>
</g>
<!-- Node9&#45;&gt;Node6 -->
<g id="edge10" class="edge">
<title>Node9&#45;&gt;Node6</title>
<path fill="none" stroke="midnightblue" d="M194.46,-112.37C190.26,-94.62 180.58,-53.67 174.9,-29.6"/>
<polygon fill="midnightblue" stroke="midnightblue" points="178.24,-28.52 172.53,-19.59 171.42,-30.13 178.24,-28.52"/>
</g>
<!-- Node9&#45;&gt;Node8 -->
<g id="edge11" class="edge">
<title>Node9&#45;&gt;Node8</title>
<path fill="none" stroke="midnightblue" d="M200.03,-112.37C207.36,-94.46 224.35,-52.92 234.16,-28.95"/>
<polygon fill="midnightblue" stroke="midnightblue" points="237.44,-30.17 237.99,-19.59 230.96,-27.52 237.44,-30.17"/>
</g>
</g>
</svg>
