<?xml version="1.0" encoding="UTF-8" standalone="no"?>
<!DOCTYPE svg PUBLIC "-//W3C//DTD SVG 1.1//EN"
 "http://www.w3.org/Graphics/SVG/1.1/DTD/svg11.dtd">
<!-- Generated by graphviz version 2.50.0 (20211204.2007)
 -->
<!-- Title: task_create Pages: 1 -->
<svg width="204pt" height="66pt"
 viewBox="0.00 0.00 204.00 66.00" xmlns="http://www.w3.org/2000/svg" xmlns:xlink="http://www.w3.org/1999/xlink">
<g id="graph0" class="graph" transform="scale(1 1) rotate(0) translate(4 62)">
<title>task_create</title>
<!-- Node1 -->
<g id="node1" class="node">
<title>Node1</title>
<g id="a_node1"><a xlink:title=" ">
<polygon fill="#bfbfbf" stroke="black" points="0,-19.5 0,-38.5 68,-38.5 68,-19.5 0,-19.5"/>
<text text-anchor="middle" x="34" y="-26.5" font-family="Helvetica,sans-Serif" font-size="10.00">task_create</text>
</a>
</g>
</g>
<!-- Node2 -->
<g id="node2" class="node">
<title>Node2</title>
<g id="a_node2"><a xlink:href="arch_2x86__64_2arch_2proc_8c.html#a491927dc191869338fab4ad37da1a743" target="_top" xlink:title=" ">
<polygon fill="none" stroke="black" points="104,-38.5 104,-57.5 196,-57.5 196,-38.5 104,-38.5"/>
<text text-anchor="middle" x="150" y="-45.5" font-family="Helvetica,sans-Serif" font-size="10.00">arch_task_create</text>
</a>
</g>
</g>
<!-- Node1&#45;&gt;Node2 -->
<g id="edge1" class="edge">
<title>Node1&#45;&gt;Node2</title>
<path fill="none" stroke="midnightblue" d="M68.28,-34.55C76.22,-35.87 84.9,-37.32 93.53,-38.76"/>
<polygon fill="midnightblue" stroke="midnightblue" points="93.16,-42.24 103.6,-40.43 94.31,-35.34 93.16,-42.24"/>
</g>
<!-- Node3 -->
<g id="node3" class="node">
<title>Node3</title>
<g id="a_node3"><a xlink:href="strncpy_8c.html#a9456973049933ecacd5ad9c4b4f080d8" target="_top" xlink:title="This is actually a safer implementation based on strlcpy().">
<polygon fill="none" stroke="black" points="125.5,-0.5 125.5,-19.5 174.5,-19.5 174.5,-0.5 125.5,-0.5"/>
<text text-anchor="middle" x="150" y="-7.5" font-family="Helvetica,sans-Serif" font-size="10.00">strncpy</text>
</a>
</g>
</g>
<!-- Node1&#45;&gt;Node3 -->
<g id="edge2" class="edge">
<title>Node1&#45;&gt;Node3</title>
<path fill="none" stroke="midnightblue" d="M68.28,-23.45C82.98,-21 100.25,-18.13 115.03,-15.66"/>
<polygon fill="midnightblue" stroke="midnightblue" points="115.99,-19.05 125.28,-13.95 114.84,-12.15 115.99,-19.05"/>
</g>
</g>
</svg>
