<?xml version="1.0" encoding="UTF-8" standalone="no"?>
<!DOCTYPE svg PUBLIC "-//W3C//DTD SVG 1.1//EN"
 "http://www.w3.org/Graphics/SVG/1.1/DTD/svg11.dtd">
<!-- Generated by graphviz version 8.0.2 (20230410.1723)
 -->
<!-- Title: task_exit Pages: 1 -->
<svg width="180pt" height="45pt"
 viewBox="0.00 0.00 180.00 45.00" xmlns="http://www.w3.org/2000/svg" xmlns:xlink="http://www.w3.org/1999/xlink">
<g id="graph0" class="graph" transform="scale(1 1) rotate(0) translate(4 41)">
<title>task_exit</title>
<!-- Node1 -->
<g id="Node000001" class="node">
<title>Node1</title>
<g id="a_Node000001"><a xlink:title=" ">
<polygon fill="#999999" stroke="#666666" points="56,-19 0,-19 0,0 56,0 56,-19"/>
<text text-anchor="middle" x="28" y="-7" font-family="Helvetica,sans-Serif" font-size="10.00">task_exit</text>
</a>
</g>
</g>
<!-- Node1&#45;&gt;Node1 -->
<g id="edge1_Node000001_Node000001" class="edge">
<title>Node1&#45;&gt;Node1</title>
<g id="a_edge1_Node000001_Node000001"><a xlink:title=" ">
<path fill="none" stroke="#63b8ff" d="M11.72,-19.37C4.29,-27.94 9.72,-37 28,-37 38.28,-37 44.5,-34.13 46.65,-30.1"/>
<polygon fill="#63b8ff" stroke="#63b8ff" points="49.85,-29.38 44.28,-20.37 43.02,-30.89 49.85,-29.38"/>
</a>
</g>
</g>
<!-- Node2 -->
<g id="Node000002" class="node">
<title>Node2</title>
<g id="a_Node000002"><a xlink:href="task_8c.html#a7b77adca1da85233e213a9a0eacd8086" target="_top" xlink:title=" ">
<polygon fill="white" stroke="#666666" points="172,-19 92,-19 92,0 172,0 172,-19"/>
<text text-anchor="middle" x="132" y="-7" font-family="Helvetica,sans-Serif" font-size="10.00">task_schedule</text>
</a>
</g>
</g>
<!-- Node1&#45;&gt;Node2 -->
<g id="edge2_Node000001_Node000002" class="edge">
<title>Node1&#45;&gt;Node2</title>
<g id="a_edge2_Node000001_Node000002"><a xlink:title=" ">
<path fill="none" stroke="#63b8ff" d="M56.33,-9.5C63.88,-9.5 72.32,-9.5 80.73,-9.5"/>
<polygon fill="#63b8ff" stroke="#63b8ff" points="80.7,-13 90.7,-9.5 80.7,-6 80.7,-13"/>
</a>
</g>
</g>
<!-- Node2&#45;&gt;Node2 -->
<g id="edge3_Node000002_Node000002" class="edge">
<title>Node2&#45;&gt;Node2</title>
<g id="a_edge3_Node000002_Node000002"><a xlink:title=" ">
<path fill="none" stroke="#63b8ff" d="M115.72,-19.37C108.29,-27.94 113.72,-37 132,-37 142.28,-37 148.5,-34.13 150.65,-30.1"/>
<polygon fill="#63b8ff" stroke="#63b8ff" points="153.85,-29.38 148.28,-20.37 147.02,-30.89 153.85,-29.38"/>
</a>
</g>
</g>
</g>
</svg>
