<?xml version="1.0" encoding="UTF-8" standalone="no"?>
<!DOCTYPE svg PUBLIC "-//W3C//DTD SVG 1.1//EN"
 "http://www.w3.org/Graphics/SVG/1.1/DTD/svg11.dtd">
<!-- Generated by graphviz version 2.49.3 (20211023.0002)
 -->
<!-- Title: include/kernel/kshell/kshell.h Pages: 1 -->
<svg width="128pt" height="151pt"
 viewBox="0.00 0.00 127.50 151.00" xmlns="http://www.w3.org/2000/svg" xmlns:xlink="http://www.w3.org/1999/xlink">
<g id="graph0" class="graph" transform="scale(1 1) rotate(0) translate(4 147)">
<title>include/kernel/kshell/kshell.h</title>
<!-- Node1 -->
<g id="node1" class="node">
<title>Node1</title>
<g id="a_node1"><a xlink:title=" ">
<polygon fill="#bfbfbf" stroke="black" points="6.5,-112.5 6.5,-142.5 113.5,-142.5 113.5,-112.5 6.5,-112.5"/>
<text text-anchor="start" x="14.5" y="-130.5" font-family="Helvetica,sans-Serif" font-size="10.00">include/kernel/kshell</text>
<text text-anchor="middle" x="60" y="-119.5" font-family="Helvetica,sans-Serif" font-size="10.00">/kshell.h</text>
</a>
</g>
</g>
<!-- Node2 -->
<g id="node2" class="node">
<title>Node2</title>
<g id="a_node2"><a xlink:href="stdlib_8h.html" target="_top" xlink:title=" ">
<polygon fill="none" stroke="black" points="36,-56.5 36,-75.5 84,-75.5 84,-56.5 36,-56.5"/>
<text text-anchor="middle" x="60" y="-63.5" font-family="Helvetica,sans-Serif" font-size="10.00">stdlib.h</text>
</a>
</g>
</g>
<!-- Node1&#45;&gt;Node2 -->
<g id="edge1" class="edge">
<title>Node1&#45;&gt;Node2</title>
<path fill="none" stroke="midnightblue" d="M60,-112.4C60,-104.47 60,-94.46 60,-85.86"/>
<polygon fill="midnightblue" stroke="midnightblue" points="63.5,-85.66 60,-75.66 56.5,-85.66 63.5,-85.66"/>
</g>
<!-- Node3 -->
<g id="node3" class="node">
<title>Node3</title>
<g id="a_node3"><a xlink:title=" ">
<polygon fill="none" stroke="#bfbfbf" points="0,-0.5 0,-19.5 52,-19.5 52,-0.5 0,-0.5"/>
<text text-anchor="middle" x="26" y="-7.5" font-family="Helvetica,sans-Serif" font-size="10.00">stddef.h</text>
</a>
</g>
</g>
<!-- Node2&#45;&gt;Node3 -->
<g id="edge2" class="edge">
<title>Node2&#45;&gt;Node3</title>
<path fill="none" stroke="midnightblue" d="M54.39,-56.08C49.63,-48.53 42.68,-37.49 36.85,-28.23"/>
<polygon fill="midnightblue" stroke="midnightblue" points="39.8,-26.35 31.51,-19.75 33.88,-30.08 39.8,-26.35"/>
</g>
<!-- Node4 -->
<g id="node4" class="node">
<title>Node4</title>
<g id="a_node4"><a xlink:title=" ">
<polygon fill="none" stroke="#bfbfbf" points="70.5,-0.5 70.5,-19.5 119.5,-19.5 119.5,-0.5 70.5,-0.5"/>
<text text-anchor="middle" x="95" y="-7.5" font-family="Helvetica,sans-Serif" font-size="10.00">stdint.h</text>
</a>
</g>
</g>
<!-- Node2&#45;&gt;Node4 -->
<g id="edge3" class="edge">
<title>Node2&#45;&gt;Node4</title>
<path fill="none" stroke="midnightblue" d="M65.78,-56.08C70.67,-48.53 77.83,-37.49 83.83,-28.23"/>
<polygon fill="midnightblue" stroke="midnightblue" points="86.83,-30.05 89.33,-19.75 80.95,-26.24 86.83,-30.05"/>
</g>
</g>
</svg>
