<?xml version="1.0" encoding="UTF-8" standalone="no"?>
<!DOCTYPE svg PUBLIC "-//W3C//DTD SVG 1.1//EN"
 "http://www.w3.org/Graphics/SVG/1.1/DTD/svg11.dtd">
<!-- Generated by graphviz version 8.0.2 (20230410.1723)
 -->
<!-- Title: task_create Pages: 1 -->
<svg width="204pt" height="100pt"
 viewBox="0.00 0.00 204.00 100.00" xmlns="http://www.w3.org/2000/svg" xmlns:xlink="http://www.w3.org/1999/xlink">
<g id="graph0" class="graph" transform="scale(1 1) rotate(0) translate(4 96)">
<title>task_create</title>
<!-- Node1 -->
<g id="Node000001" class="node">
<title>Node1</title>
<g id="a_Node000001"><a xlink:title=" ">
<polygon fill="#999999" stroke="#666666" points="68,-46 0,-46 0,-27 68,-27 68,-46"/>
<text text-anchor="middle" x="34" y="-34" font-family="Helvetica,sans-Serif" font-size="10.00">task_create</text>
</a>
</g>
</g>
<!-- Node1&#45;&gt;Node1 -->
<g id="edge5_Node000001_Node000001" class="edge">
<title>Node1&#45;&gt;Node1</title>
<g id="a_edge5_Node000001_Node000001"><a xlink:title=" ">
<path fill="none" stroke="#63b8ff" d="M15.84,-46.37C7.56,-54.94 13.61,-64 34,-64 45.79,-64 52.78,-60.97 54.99,-56.76"/>
<polygon fill="#63b8ff" stroke="#63b8ff" points="58.16,-56.1 52.16,-47.37 51.41,-57.94 58.16,-56.1"/>
</a>
</g>
</g>
<!-- Node2 -->
<g id="Node000002" class="node">
<title>Node2</title>
<g id="a_Node000002"><a xlink:href="arch_2x86__64_2arch_2proc_8c.html#a491927dc191869338fab4ad37da1a743" target="_top" xlink:title=" ">
<polygon fill="white" stroke="#666666" points="196,-74 104,-74 104,-55 196,-55 196,-74"/>
<text text-anchor="middle" x="150" y="-62" font-family="Helvetica,sans-Serif" font-size="10.00">arch_task_create</text>
</a>
</g>
</g>
<!-- Node1&#45;&gt;Node2 -->
<g id="edge1_Node000001_Node000002" class="edge">
<title>Node1&#45;&gt;Node2</title>
<g id="a_edge1_Node000001_Node000002"><a xlink:title=" ">
<path fill="none" stroke="#63b8ff" d="M68.28,-44.67C77.65,-46.97 88.05,-49.53 98.19,-52.02"/>
<polygon fill="#63b8ff" stroke="#63b8ff" points="97.06,-55.59 107.61,-54.58 98.73,-48.79 97.06,-55.59"/>
</a>
</g>
</g>
<!-- Node3 -->
<g id="Node000003" class="node">
<title>Node3</title>
<g id="a_Node000003"><a xlink:href="strncpy_8c.html#a9456973049933ecacd5ad9c4b4f080d8" target="_top" xlink:title="This is actually a safer implementation based on strlcpy().">
<polygon fill="white" stroke="#666666" points="174.5,-19 125.5,-19 125.5,0 174.5,0 174.5,-19"/>
<text text-anchor="middle" x="150" y="-7" font-family="Helvetica,sans-Serif" font-size="10.00">strncpy</text>
</a>
</g>
</g>
<!-- Node1&#45;&gt;Node3 -->
<g id="edge3_Node000001_Node000003" class="edge">
<title>Node1&#45;&gt;Node3</title>
<g id="a_edge3_Node000001_Node000003"><a xlink:title=" ">
<path fill="none" stroke="#63b8ff" d="M68.28,-28.62C82.84,-25.17 99.91,-21.13 114.6,-17.65"/>
<polygon fill="#63b8ff" stroke="#63b8ff" points="115.35,-20.83 124.28,-15.12 113.74,-14.02 115.35,-20.83"/>
</a>
</g>
</g>
<!-- Node2&#45;&gt;Node2 -->
<g id="edge2_Node000002_Node000002" class="edge">
<title>Node2&#45;&gt;Node2</title>
<g id="a_edge2_Node000002_Node000002"><a xlink:title=" ">
<path fill="none" stroke="#63b8ff" d="M131.84,-74.37C123.56,-82.94 129.61,-92 150,-92 161.79,-92 168.78,-88.97 170.99,-84.76"/>
<polygon fill="#63b8ff" stroke="#63b8ff" points="174.16,-84.1 168.16,-75.37 167.41,-85.94 174.16,-84.1"/>
</a>
</g>
</g>
<!-- Node3&#45;&gt;Node3 -->
<g id="edge4_Node000003_Node000003" class="edge">
<title>Node3&#45;&gt;Node3</title>
<g id="a_edge4_Node000003_Node000003"><a xlink:title=" ">
<path fill="none" stroke="#63b8ff" d="M131.84,-19.37C123.56,-27.94 129.61,-37 150,-37 161.79,-37 168.78,-33.97 170.99,-29.76"/>
<polygon fill="#63b8ff" stroke="#63b8ff" points="174.16,-29.1 168.16,-20.37 167.41,-30.94 174.16,-29.1"/>
</a>
</g>
</g>
</g>
</svg>
