<?xml version="1.0" encoding="UTF-8" standalone="no"?>
<!DOCTYPE svg PUBLIC "-//W3C//DTD SVG 1.1//EN"
 "http://www.w3.org/Graphics/SVG/1.1/DTD/svg11.dtd">
<!-- Generated by graphviz version 8.0.2 (20230410.1723)
 -->
<!-- Title: kshell Pages: 1 -->
<svg width="159pt" height="100pt"
 viewBox="0.00 0.00 159.00 100.00" xmlns="http://www.w3.org/2000/svg" xmlns:xlink="http://www.w3.org/1999/xlink">
<g id="graph0" class="graph" transform="scale(1 1) rotate(0) translate(4 96)">
<title>kshell</title>
<!-- Node1 -->
<g id="Node000001" class="node">
<title>Node1</title>
<g id="a_Node000001"><a xlink:title=" ">
<polygon fill="#999999" stroke="#666666" points="42,-46 0,-46 0,-27 42,-27 42,-46"/>
<text text-anchor="middle" x="21" y="-34" font-family="Helvetica,sans-Serif" font-size="10.00">kshell</text>
</a>
</g>
</g>
<!-- Node1&#45;&gt;Node1 -->
<g id="edge3_Node000001_Node000001" class="edge">
<title>Node1&#45;&gt;Node1</title>
<g id="a_edge3_Node000001_Node000001"><a xlink:title=" ">
<path fill="none" stroke="#63b8ff" d="M6.36,-46.37C-0.31,-54.94 4.56,-64 21,-64 30.24,-64 35.83,-61.13 37.77,-57.1"/>
<polygon fill="#63b8ff" stroke="#63b8ff" points="41.02,-56.5 35.64,-47.37 34.15,-57.86 41.02,-56.5"/>
</a>
</g>
</g>
<!-- Node2 -->
<g id="Node000002" class="node">
<title>Node2</title>
<g id="a_Node000002"><a xlink:href="x86__64_2arch_2io_8c.html#a34512cf4b7563b16dab78467797aa5d8" target="_top" xlink:title=" ">
<polygon fill="white" stroke="#666666" points="151,-74 78,-74 78,-55 151,-55 151,-74"/>
<text text-anchor="middle" x="114.5" y="-62" font-family="Helvetica,sans-Serif" font-size="10.00">arch_getchar</text>
</a>
</g>
</g>
<!-- Node1&#45;&gt;Node2 -->
<g id="edge1_Node000001_Node000002" class="edge">
<title>Node1&#45;&gt;Node2</title>
<g id="a_edge1_Node000001_Node000002"><a xlink:title=" ">
<path fill="none" stroke="#63b8ff" d="M42.31,-42.71C50.75,-45.3 60.88,-48.4 70.82,-51.44"/>
<polygon fill="#63b8ff" stroke="#63b8ff" points="69.44,-54.98 80.03,-54.56 71.49,-48.29 69.44,-54.98"/>
</a>
</g>
</g>
<!-- Node3 -->
<g id="Node000003" class="node">
<title>Node3</title>
<g id="a_Node000003"><a xlink:href="strncpy_8c.html#a9456973049933ecacd5ad9c4b4f080d8" target="_top" xlink:title="This is actually a safer implementation based on strlcpy().">
<polygon fill="white" stroke="#666666" points="139,-19 90,-19 90,0 139,0 139,-19"/>
<text text-anchor="middle" x="114.5" y="-7" font-family="Helvetica,sans-Serif" font-size="10.00">strncpy</text>
</a>
</g>
</g>
<!-- Node1&#45;&gt;Node3 -->
<g id="edge4_Node000001_Node000003" class="edge">
<title>Node1&#45;&gt;Node3</title>
<g id="a_edge4_Node000001_Node000003"><a xlink:title=" ">
<path fill="none" stroke="#63b8ff" d="M42.31,-30.51C53.14,-27.31 66.76,-23.29 79.18,-19.63"/>
<polygon fill="#63b8ff" stroke="#63b8ff" points="80.09,-22.71 88.69,-16.53 78.11,-16 80.09,-22.71"/>
</a>
</g>
</g>
<!-- Node2&#45;&gt;Node2 -->
<g id="edge2_Node000002_Node000002" class="edge">
<title>Node2&#45;&gt;Node2</title>
<g id="a_edge2_Node000002_Node000002"><a xlink:title=" ">
<path fill="none" stroke="#63b8ff" d="M99.86,-74.37C93.19,-82.94 98.06,-92 114.5,-92 123.74,-92 129.33,-89.13 131.27,-85.1"/>
<polygon fill="#63b8ff" stroke="#63b8ff" points="134.52,-84.5 129.14,-75.37 127.65,-85.86 134.52,-84.5"/>
</a>
</g>
</g>
<!-- Node3&#45;&gt;Node3 -->
<g id="edge5_Node000003_Node000003" class="edge">
<title>Node3&#45;&gt;Node3</title>
<g id="a_edge5_Node000003_Node000003"><a xlink:title=" ">
<path fill="none" stroke="#63b8ff" d="M99.86,-19.37C93.19,-27.94 98.06,-37 114.5,-37 123.74,-37 129.33,-34.13 131.27,-30.1"/>
<polygon fill="#63b8ff" stroke="#63b8ff" points="134.52,-29.5 129.14,-20.37 127.65,-30.86 134.52,-29.5"/>
</a>
</g>
</g>
</g>
</svg>
