<?xml version="1.0" encoding="UTF-8" standalone="no"?>
<!DOCTYPE svg PUBLIC "-//W3C//DTD SVG 1.1//EN"
 "http://www.w3.org/Graphics/SVG/1.1/DTD/svg11.dtd">
<!-- Generated by graphviz version 8.0.2 (20230410.1723)
 -->
<!-- Title: task_schedule Pages: 1 -->
<svg width="271pt" height="100pt"
 viewBox="0.00 0.00 271.00 100.00" xmlns="http://www.w3.org/2000/svg" xmlns:xlink="http://www.w3.org/1999/xlink">
<g id="graph0" class="graph" transform="scale(1 1) rotate(0) translate(4 96)">
<title>task_schedule</title>
<!-- Node1 -->
<g id="Node000001" class="node">
<title>Node1</title>
<g id="a_Node000001"><a xlink:title=" ">
<polygon fill="#999999" stroke="#666666" points="263,-46 183,-46 183,-27 263,-27 263,-46"/>
<text text-anchor="middle" x="223" y="-34" font-family="Helvetica,sans-Serif" font-size="10.00">task_schedule</text>
</a>
</g>
</g>
<!-- Node1&#45;&gt;Node1 -->
<g id="edge6_Node000001_Node000001" class="edge">
<title>Node1&#45;&gt;Node1</title>
<g id="a_edge6_Node000001_Node000001"><a xlink:title=" ">
<path fill="none" stroke="#63b8ff" d="M242.9,-56.76C240.81,-60.97 234.18,-64 223,-64 203.66,-64 197.92,-54.94 205.78,-46.37"/>
<polygon fill="#63b8ff" stroke="#63b8ff" points="246.11,-56.18 240.22,-47.37 239.33,-57.93 246.11,-56.18"/>
</a>
</g>
</g>
<!-- Node2 -->
<g id="Node000002" class="node">
<title>Node2</title>
<g id="a_Node000002"><a xlink:href="kmain_8c.html#a666c17b307920a60e50fcf56312f9500" target="_top" xlink:title=" ">
<polygon fill="white" stroke="#666666" points="147,-74 79,-74 79,-55 147,-55 147,-74"/>
<text text-anchor="middle" x="113" y="-62" font-family="Helvetica,sans-Serif" font-size="10.00">kmain_start</text>
</a>
</g>
</g>
<!-- Node1&#45;&gt;Node2 -->
<g id="edge1_Node000001_Node000002" class="edge">
<title>Node1&#45;&gt;Node2</title>
<g id="a_edge1_Node000001_Node000002"><a xlink:title=" ">
<path fill="none" stroke="#63b8ff" d="M173.1,-49.18C164.35,-51.45 155.42,-53.76 147.24,-55.88"/>
<polygon fill="#63b8ff" stroke="#63b8ff" points="173.82,-52.35 182.62,-46.45 172.06,-45.57 173.82,-52.35"/>
</a>
</g>
</g>
<!-- Node5 -->
<g id="Node000005" class="node">
<title>Node5</title>
<g id="a_Node000005"><a xlink:href="task_8c.html#ae4bc8886787eac6213c6cd0eab9b2893" target="_top" xlink:title=" ">
<polygon fill="white" stroke="#666666" points="141,-19 85,-19 85,0 141,0 141,-19"/>
<text text-anchor="middle" x="113" y="-7" font-family="Helvetica,sans-Serif" font-size="10.00">task_exit</text>
</a>
</g>
</g>
<!-- Node1&#45;&gt;Node5 -->
<g id="edge4_Node000001_Node000005" class="edge">
<title>Node1&#45;&gt;Node5</title>
<g id="a_edge4_Node000001_Node000005"><a xlink:title=" ">
<path fill="none" stroke="#63b8ff" d="M172.19,-24.05C161.55,-21.39 150.69,-18.67 141.27,-16.32"/>
<polygon fill="#63b8ff" stroke="#63b8ff" points="171.15,-27.65 181.7,-26.68 172.85,-20.86 171.15,-27.65"/>
</a>
</g>
</g>
<!-- Node3 -->
<g id="Node000003" class="node">
<title>Node3</title>
<g id="a_Node000003"><a xlink:href="arch_2aarch32_2board_2raspi2_2kmain_8c.html#a798325fe646ee31fccf3f735f9bbaf60" target="_top" xlink:title=" ">
<polygon fill="white" stroke="#666666" points="43,-92 0,-92 0,-73 43,-73 43,-92"/>
<text text-anchor="middle" x="21.5" y="-80" font-family="Helvetica,sans-Serif" font-size="10.00">kmain</text>
</a>
</g>
</g>
<!-- Node2&#45;&gt;Node3 -->
<g id="edge2_Node000002_Node000003" class="edge">
<title>Node2&#45;&gt;Node3</title>
<g id="a_edge2_Node000002_Node000003"><a xlink:title=" ">
<path fill="none" stroke="#63b8ff" d="M67.93,-73.36C59.36,-75.09 50.76,-76.82 43.38,-78.3"/>
<polygon fill="#63b8ff" stroke="#63b8ff" points="68.56,-76.61 77.67,-71.2 67.18,-69.74 68.56,-76.61"/>
</a>
</g>
</g>
<!-- Node4 -->
<g id="Node000004" class="node">
<title>Node4</title>
<g id="a_Node000004"><a xlink:href="arch_2x86__64_2kmain_8c.html#ad6d3bd9ddd2519d6040e79426dc57fb5" target="_top" xlink:title=" ">
<polygon fill="white" stroke="#666666" points="43,-55 0,-55 0,-36 43,-36 43,-55"/>
<text text-anchor="middle" x="21.5" y="-43" font-family="Helvetica,sans-Serif" font-size="10.00">kmain</text>
</a>
</g>
</g>
<!-- Node2&#45;&gt;Node4 -->
<g id="edge3_Node000002_Node000004" class="edge">
<title>Node2&#45;&gt;Node4</title>
<g id="a_edge3_Node000002_Node000004"><a xlink:title=" ">
<path fill="none" stroke="#63b8ff" d="M67.93,-55.14C59.36,-53.33 50.76,-51.5 43.38,-49.93"/>
<polygon fill="#63b8ff" stroke="#63b8ff" points="67.16,-58.77 77.67,-57.43 68.62,-51.92 67.16,-58.77"/>
</a>
</g>
</g>
<!-- Node5&#45;&gt;Node5 -->
<g id="edge5_Node000005_Node000005" class="edge">
<title>Node5&#45;&gt;Node5</title>
<g id="a_edge5_Node000005_Node000005"><a xlink:title=" ">
<path fill="none" stroke="#63b8ff" d="M129.41,-30.1C127.52,-34.13 122.05,-37 113,-37 96.92,-37 92.14,-27.94 98.68,-19.37"/>
<polygon fill="#63b8ff" stroke="#63b8ff" points="132.67,-29.52 127.32,-20.37 125.79,-30.85 132.67,-29.52"/>
</a>
</g>
</g>
</g>
</svg>
