<?xml version="1.0" encoding="UTF-8" standalone="no"?>
<!DOCTYPE svg PUBLIC "-//W3C//DTD SVG 1.1//EN"
 "http://www.w3.org/Graphics/SVG/1.1/DTD/svg11.dtd">
<!-- Generated by graphviz version 8.0.2 (20230410.1723)
 -->
<!-- Title: kmain_start Pages: 1 -->
<svg width="648pt" height="524pt"
 viewBox="0.00 0.00 648.00 524.00" xmlns="http://www.w3.org/2000/svg" xmlns:xlink="http://www.w3.org/1999/xlink">
<g id="graph0" class="graph" transform="scale(1 1) rotate(0) translate(4 520)">
<title>kmain_start</title>
<!-- Node1 -->
<g id="Node000001" class="node">
<title>Node1</title>
<g id="a_Node000001"><a xlink:title=" ">
<polygon fill="#999999" stroke="#666666" points="68,-180 0,-180 0,-161 68,-161 68,-180"/>
<text text-anchor="middle" x="34" y="-168" font-family="Helvetica,sans-Serif" font-size="10.00">kmain_start</text>
</a>
</g>
</g>
<!-- Node2 -->
<g id="Node000002" class="node">
<title>Node2</title>
<g id="a_Node000002"><a xlink:href="clock_8c.html#ae9cc0a879e88eea28e4e8b57318ef8e5" target="_top" xlink:title=" ">
<polygon fill="white" stroke="#666666" points="173,-470 115,-470 115,-451 173,-451 173,-470"/>
<text text-anchor="middle" x="144" y="-458" font-family="Helvetica,sans-Serif" font-size="10.00">clock_init</text>
</a>
</g>
</g>
<!-- Node1&#45;&gt;Node2 -->
<g id="edge1_Node000001_Node000002" class="edge">
<title>Node1&#45;&gt;Node2</title>
<g id="a_edge1_Node000001_Node000002"><a xlink:title=" ">
<path fill="none" stroke="#63b8ff" d="M36.21,-180.42C40.73,-214.82 58.72,-331.48 104,-415.5 109.4,-425.53 117.38,-435.25 124.71,-443.09"/>
<polygon fill="#63b8ff" stroke="#63b8ff" points="121.75,-445.09 131.26,-449.77 126.74,-440.18 121.75,-445.09"/>
</a>
</g>
</g>
<!-- Node5 -->
<g id="Node000005" class="node">
<title>Node5</title>
<g id="a_Node000005"><a xlink:href="isr_8c.html#a2ea31f33125954459edbe7f4d7971ffa" target="_top" xlink:title=" ">
<polygon fill="white" stroke="#666666" points="166.5,-388 121.5,-388 121.5,-369 166.5,-369 166.5,-388"/>
<text text-anchor="middle" x="144" y="-376" font-family="Helvetica,sans-Serif" font-size="10.00">isr_init</text>
</a>
</g>
</g>
<!-- Node1&#45;&gt;Node5 -->
<g id="edge7_Node000001_Node000005" class="edge">
<title>Node1&#45;&gt;Node5</title>
<g id="a_edge7_Node000001_Node000005"><a xlink:title=" ">
<path fill="none" stroke="#63b8ff" d="M40.06,-180.25C56.75,-212.39 110.21,-315.36 132.79,-358.83"/>
<polygon fill="#63b8ff" stroke="#63b8ff" points="130.11,-360.26 137.82,-367.53 136.32,-357.04 130.11,-360.26"/>
</a>
</g>
</g>
<!-- Node9 -->
<g id="Node000009" class="node">
<title>Node9</title>
<g id="a_Node000009"><a xlink:href="k__syscall_8c.html#a581ed37968ead91b6d3a0b3b7a71da9d" target="_top" xlink:title=" ">
<polygon fill="white" stroke="#666666" points="176.5,-240 111.5,-240 111.5,-221 176.5,-221 176.5,-240"/>
<text text-anchor="middle" x="144" y="-228" font-family="Helvetica,sans-Serif" font-size="10.00">syscall_init</text>
</a>
</g>
</g>
<!-- Node1&#45;&gt;Node9 -->
<g id="edge15_Node000001_Node000009" class="edge">
<title>Node1&#45;&gt;Node9</title>
<g id="a_edge15_Node000001_Node000009"><a xlink:title=" ">
<path fill="none" stroke="#63b8ff" d="M52.83,-180.41C69.95,-189.92 96.05,-204.41 115.76,-215.37"/>
<polygon fill="#63b8ff" stroke="#63b8ff" points="113.7,-218.78 124.14,-220.58 117.1,-212.66 113.7,-218.78"/>
</a>
</g>
</g>
<!-- Node16 -->
<g id="Node000016" class="node">
<title>Node16</title>
<g id="a_Node000016"><a xlink:href="task_8c.html#a953e6c75292fb9898a9e25af47321da0" target="_top" xlink:title=" ">
<polygon fill="white" stroke="#666666" points="178,-180 110,-180 110,-161 178,-161 178,-180"/>
<text text-anchor="middle" x="144" y="-168" font-family="Helvetica,sans-Serif" font-size="10.00">task_create</text>
</a>
</g>
</g>
<!-- Node1&#45;&gt;Node16 -->
<g id="edge30_Node000001_Node000016" class="edge">
<title>Node1&#45;&gt;Node16</title>
<g id="a_edge30_Node000001_Node000016"><a xlink:title=" ">
<path fill="none" stroke="#63b8ff" d="M68.28,-170.5C77.93,-170.5 88.62,-170.5 98.83,-170.5"/>
<polygon fill="#63b8ff" stroke="#63b8ff" points="98.64,-174 108.64,-170.5 98.64,-167 98.64,-174"/>
</a>
</g>
</g>
<!-- Node19 -->
<g id="Node000019" class="node">
<title>Node19</title>
<g id="a_Node000019"><a xlink:href="include_2kernel_2proc_2task_8h.html#a0dd765564611ce3bf2bd466fe2ca4ae5" target="_top" xlink:title=" ">
<polygon fill="white" stroke="#666666" points="170.5,-143 117.5,-143 117.5,-124 170.5,-124 170.5,-143"/>
<text text-anchor="middle" x="144" y="-131" font-family="Helvetica,sans-Serif" font-size="10.00">task_init</text>
</a>
</g>
</g>
<!-- Node1&#45;&gt;Node19 -->
<g id="edge36_Node000001_Node000019" class="edge">
<title>Node1&#45;&gt;Node19</title>
<g id="a_edge36_Node000001_Node000019"><a xlink:title=" ">
<path fill="none" stroke="#63b8ff" d="M63.94,-160.58C77.19,-156.05 93.01,-150.62 107.02,-145.83"/>
<polygon fill="#63b8ff" stroke="#63b8ff" points="107.97,-148.86 116.3,-142.31 105.7,-142.24 107.97,-148.86"/>
</a>
</g>
</g>
<!-- Node20 -->
<g id="Node000020" class="node">
<title>Node20</title>
<g id="a_Node000020"><a xlink:href="task_8c.html#a7b77adca1da85233e213a9a0eacd8086" target="_top" xlink:title=" ">
<polygon fill="white" stroke="#666666" points="184,-88 104,-88 104,-69 184,-69 184,-88"/>
<text text-anchor="middle" x="144" y="-76" font-family="Helvetica,sans-Serif" font-size="10.00">task_schedule</text>
</a>
</g>
</g>
<!-- Node1&#45;&gt;Node20 -->
<g id="edge37_Node000001_Node000020" class="edge">
<title>Node1&#45;&gt;Node20</title>
<g id="a_edge37_Node000001_Node000020"><a xlink:title=" ">
<path fill="none" stroke="#63b8ff" d="M46.56,-160.65C64.91,-145.02 100.93,-114.34 123.38,-95.22"/>
<polygon fill="#63b8ff" stroke="#63b8ff" points="125.18,-97.42 130.53,-88.27 120.64,-92.1 125.18,-97.42"/>
</a>
</g>
</g>
<!-- Node21 -->
<g id="Node000021" class="node">
<title>Node21</title>
<g id="a_Node000021"><a xlink:href="timer_8c.html#a896a4c37c6ecf8868ef0dc758e5a598c" target="_top" xlink:title=" ">
<polygon fill="white" stroke="#666666" points="172,-24 116,-24 116,-5 172,-5 172,-24"/>
<text text-anchor="middle" x="144" y="-12" font-family="Helvetica,sans-Serif" font-size="10.00">timer_init</text>
</a>
</g>
</g>
<!-- Node1&#45;&gt;Node21 -->
<g id="edge39_Node000001_Node000021" class="edge">
<title>Node1&#45;&gt;Node21</title>
<g id="a_edge39_Node000001_Node000021"><a xlink:title=" ">
<path fill="none" stroke="#63b8ff" d="M40.41,-160.66C51.46,-140.88 77.75,-95.12 104,-59.5 110.85,-50.21 119.14,-40.47 126.31,-32.43"/>
<polygon fill="#63b8ff" stroke="#63b8ff" points="128.4,-35.24 132.54,-25.48 123.22,-30.53 128.4,-35.24"/>
</a>
</g>
</g>
<!-- Node2&#45;&gt;Node2 -->
<g id="edge6_Node000002_Node000002" class="edge">
<title>Node2&#45;&gt;Node2</title>
<g id="a_edge6_Node000002_Node000002"><a xlink:title=" ">
<path fill="none" stroke="#63b8ff" d="M126.78,-470.37C118.92,-478.94 124.66,-488 144,-488 155.18,-488 161.81,-484.97 163.9,-480.76"/>
<polygon fill="#63b8ff" stroke="#63b8ff" points="167.11,-480.18 161.22,-471.37 160.33,-481.93 167.11,-480.18"/>
</a>
</g>
</g>
<!-- Node3 -->
<g id="Node000003" class="node">
<title>Node3</title>
<g id="a_Node000003"><a xlink:href="kernel_2arch_2x86__64_2arch_2time_8c.html#a6a77f2fd7f917b183c433543789a542b" target="_top" xlink:title=" ">
<polygon fill="white" stroke="#666666" points="314.5,-498 232.5,-498 232.5,-479 314.5,-479 314.5,-498"/>
<text text-anchor="middle" x="273.5" y="-486" font-family="Helvetica,sans-Serif" font-size="10.00">arch_clock_init</text>
</a>
</g>
</g>
<!-- Node2&#45;&gt;Node3 -->
<g id="edge2_Node000002_Node000003" class="edge">
<title>Node2&#45;&gt;Node3</title>
<g id="a_edge2_Node000002_Node000003"><a xlink:title=" ">
<path fill="none" stroke="#63b8ff" d="M173.3,-466.71C187.5,-469.83 205.14,-473.71 221.6,-477.32"/>
<polygon fill="#63b8ff" stroke="#63b8ff" points="220.67,-480.92 231.19,-479.65 222.17,-474.08 220.67,-480.92"/>
</a>
</g>
</g>
<!-- Node3&#45;&gt;Node3 -->
<g id="edge3_Node000003_Node000003" class="edge">
<title>Node3&#45;&gt;Node3</title>
<g id="a_edge3_Node000003_Node000003"><a xlink:title=" ">
<path fill="none" stroke="#63b8ff" d="M253.23,-498.37C243.98,-506.94 250.74,-516 273.5,-516 286.66,-516 294.47,-512.97 296.93,-508.76"/>
<polygon fill="#63b8ff" stroke="#63b8ff" points="300.03,-507.92 293.77,-499.37 293.33,-509.95 300.03,-507.92"/>
</a>
</g>
</g>
<!-- Node4 -->
<g id="Node000004" class="node">
<title>Node4</title>
<g id="a_Node000004"><a xlink:href="fake__clock_8c.html#ae57838590d8d0853b8a6036fbdd0b0d0" target="_top" xlink:title=" ">
<polygon fill="white" stroke="#666666" points="469.5,-498 387.5,-498 387.5,-479 469.5,-479 469.5,-498"/>
<text text-anchor="middle" x="428.5" y="-486" font-family="Helvetica,sans-Serif" font-size="10.00">fake_clock_init</text>
</a>
</g>
</g>
<!-- Node3&#45;&gt;Node4 -->
<g id="edge4_Node000003_Node000004" class="edge">
<title>Node3&#45;&gt;Node4</title>
<g id="a_edge4_Node000003_Node000004"><a xlink:title=" ">
<path fill="none" stroke="#63b8ff" d="M314.7,-488.5C333.52,-488.5 356.17,-488.5 376.21,-488.5"/>
<polygon fill="#63b8ff" stroke="#63b8ff" points="376.04,-492 386.04,-488.5 376.04,-485 376.04,-492"/>
</a>
</g>
</g>
<!-- Node4&#45;&gt;Node4 -->
<g id="edge5_Node000004_Node000004" class="edge">
<title>Node4&#45;&gt;Node4</title>
<g id="a_edge5_Node000004_Node000004"><a xlink:title=" ">
<path fill="none" stroke="#63b8ff" d="M404.23,-498.37C393.17,-506.94 401.25,-516 428.5,-516 444.68,-516 454.1,-512.8 456.77,-508.42"/>
<polygon fill="#63b8ff" stroke="#63b8ff" points="459.72,-507.36 452.77,-499.37 453.22,-509.95 459.72,-507.36"/>
</a>
</g>
</g>
<!-- Node5&#45;&gt;Node5 -->
<g id="edge14_Node000005_Node000005" class="edge">
<title>Node5&#45;&gt;Node5</title>
<g id="a_edge14_Node000005_Node000005"><a xlink:title=" ">
<path fill="none" stroke="#63b8ff" d="M126.78,-388.37C118.92,-396.94 124.66,-406 144,-406 155.18,-406 161.81,-402.97 163.9,-398.76"/>
<polygon fill="#63b8ff" stroke="#63b8ff" points="167.11,-398.18 161.22,-389.37 160.33,-399.93 167.11,-398.18"/>
</a>
</g>
</g>
<!-- Node6 -->
<g id="Node000006" class="node">
<title>Node6</title>
<g id="a_Node000006"><a xlink:href="x86__64_2arch_2core_8c.html#a47cab1ce00bd311c9d2bffeda438fb3f" target="_top" xlink:title=" ">
<polygon fill="white" stroke="#666666" points="308,-443 239,-443 239,-424 308,-424 308,-443"/>
<text text-anchor="middle" x="273.5" y="-431" font-family="Helvetica,sans-Serif" font-size="10.00">arch_isr_init</text>
</a>
</g>
</g>
<!-- Node5&#45;&gt;Node6 -->
<g id="edge8_Node000005_Node000006" class="edge">
<title>Node5&#45;&gt;Node6</title>
<g id="a_edge8_Node000005_Node000006"><a xlink:title=" ">
<path fill="none" stroke="#63b8ff" d="M163.49,-388.45C178.49,-396.32 200.29,-407.3 220,-415.5 223.64,-417.01 227.46,-418.5 231.3,-419.94"/>
<polygon fill="#63b8ff" stroke="#63b8ff" points="229.84,-423.49 240.44,-423.59 232.21,-416.91 229.84,-423.49"/>
</a>
</g>
</g>
<!-- Node7 -->
<g id="Node000007" class="node">
<title>Node7</title>
<g id="a_Node000007"><a xlink:href="isr_8c.html#ab3c2f37893bf0fe6a7efc06e3d908834" target="_top" xlink:title=" ">
<polygon fill="white" stroke="#666666" points="327,-388 220,-388 220,-369 327,-369 327,-388"/>
<text text-anchor="middle" x="273.5" y="-376" font-family="Helvetica,sans-Serif" font-size="10.00">isr_enable_interrupts</text>
</a>
</g>
</g>
<!-- Node5&#45;&gt;Node7 -->
<g id="edge10_Node000005_Node000007" class="edge">
<title>Node5&#45;&gt;Node7</title>
<g id="a_edge10_Node000005_Node000007"><a xlink:title=" ">
<path fill="none" stroke="#63b8ff" d="M166.92,-378.5C178.61,-378.5 193.65,-378.5 208.7,-378.5"/>
<polygon fill="#63b8ff" stroke="#63b8ff" points="208.61,-382 218.61,-378.5 208.61,-375 208.61,-382"/>
</a>
</g>
</g>
<!-- Node6&#45;&gt;Node6 -->
<g id="edge9_Node000006_Node000006" class="edge">
<title>Node6&#45;&gt;Node6</title>
<g id="a_edge9_Node000006_Node000006"><a xlink:title=" ">
<path fill="none" stroke="#63b8ff" d="M253.23,-443.37C243.98,-451.94 250.74,-461 273.5,-461 286.66,-461 294.47,-457.97 296.93,-453.76"/>
<polygon fill="#63b8ff" stroke="#63b8ff" points="300.03,-452.92 293.77,-444.37 293.33,-454.95 300.03,-452.92"/>
</a>
</g>
</g>
<!-- Node7&#45;&gt;Node7 -->
<g id="edge13_Node000007_Node000007" class="edge">
<title>Node7&#45;&gt;Node7</title>
<g id="a_edge13_Node000007_Node000007"><a xlink:title=" ">
<path fill="none" stroke="#63b8ff" d="M253.23,-388.37C243.98,-396.94 250.74,-406 273.5,-406 286.66,-406 294.47,-402.97 296.93,-398.76"/>
<polygon fill="#63b8ff" stroke="#63b8ff" points="300.03,-397.92 293.77,-389.37 293.33,-399.95 300.03,-397.92"/>
</a>
</g>
</g>
<!-- Node8 -->
<g id="Node000008" class="node">
<title>Node8</title>
<g id="a_Node000008"><a xlink:href="x86__64_2arch_2core_8c.html#aa7731a0b3790e18502b0a7b0ea779e4d" target="_top" xlink:title=" ">
<polygon fill="white" stroke="#666666" points="494,-388 363,-388 363,-369 494,-369 494,-388"/>
<text text-anchor="middle" x="428.5" y="-376" font-family="Helvetica,sans-Serif" font-size="10.00">arch_isr_enable_interrupts</text>
</a>
</g>
</g>
<!-- Node7&#45;&gt;Node8 -->
<g id="edge11_Node000007_Node000008" class="edge">
<title>Node7&#45;&gt;Node8</title>
<g id="a_edge11_Node000007_Node000008"><a xlink:title=" ">
<path fill="none" stroke="#63b8ff" d="M327.15,-378.5C335.09,-378.5 343.4,-378.5 351.7,-378.5"/>
<polygon fill="#63b8ff" stroke="#63b8ff" points="351.58,-382 361.58,-378.5 351.58,-375 351.58,-382"/>
</a>
</g>
</g>
<!-- Node8&#45;&gt;Node8 -->
<g id="edge12_Node000008_Node000008" class="edge">
<title>Node8&#45;&gt;Node8</title>
<g id="a_edge12_Node000008_Node000008"><a xlink:title=" ">
<path fill="none" stroke="#63b8ff" d="M404.23,-388.37C393.17,-396.94 401.25,-406 428.5,-406 444.68,-406 454.1,-402.8 456.77,-398.42"/>
<polygon fill="#63b8ff" stroke="#63b8ff" points="459.72,-397.36 452.77,-389.37 453.22,-399.95 459.72,-397.36"/>
</a>
</g>
</g>
<!-- Node9&#45;&gt;Node9 -->
<g id="edge29_Node000009_Node000009" class="edge">
<title>Node9&#45;&gt;Node9</title>
<g id="a_edge29_Node000009_Node000009"><a xlink:title=" ">
<path fill="none" stroke="#63b8ff" d="M126.78,-240.37C118.92,-248.94 124.66,-258 144,-258 155.18,-258 161.81,-254.97 163.9,-250.76"/>
<polygon fill="#63b8ff" stroke="#63b8ff" points="167.11,-250.18 161.22,-241.37 160.33,-251.93 167.11,-250.18"/>
</a>
</g>
</g>
<!-- Node10 -->
<g id="Node000010" class="node">
<title>Node10</title>
<g id="a_Node000010"><a xlink:href="x86__64_2arch_2sys_8c.html#aa375add58c700abbcaa8c54dcab6eea0" target="_top" xlink:title=" ">
<polygon fill="white" stroke="#666666" points="318,-333 229,-333 229,-314 318,-314 318,-333"/>
<text text-anchor="middle" x="273.5" y="-321" font-family="Helvetica,sans-Serif" font-size="10.00">arch_syscall_init</text>
</a>
</g>
</g>
<!-- Node9&#45;&gt;Node10 -->
<g id="edge16_Node000009_Node000010" class="edge">
<title>Node9&#45;&gt;Node10</title>
<g id="a_edge16_Node000009_Node000010"><a xlink:title=" ">
<path fill="none" stroke="#63b8ff" d="M152.44,-240.45C164.8,-256.33 191.1,-287.47 220,-305.5 222.06,-306.78 224.22,-307.99 226.45,-309.12"/>
<polygon fill="#63b8ff" stroke="#63b8ff" points="224.92,-312.72 235.48,-313.6 227.78,-306.33 224.92,-312.72"/>
</a>
</g>
</g>
<!-- Node11 -->
<g id="Node000011" class="node">
<title>Node11</title>
<g id="a_Node000011"><a xlink:href="k__lseek_8c.html#aca2b074f62174df41781abb400ac6c67" target="_top" xlink:title=" ">
<polygon fill="white" stroke="#666666" points="298.5,-278 248.5,-278 248.5,-259 298.5,-259 298.5,-278"/>
<text text-anchor="middle" x="273.5" y="-266" font-family="Helvetica,sans-Serif" font-size="10.00">k_lseek</text>
</a>
</g>
</g>
<!-- Node9&#45;&gt;Node11 -->
<g id="edge18_Node000009_Node000011" class="edge">
<title>Node9&#45;&gt;Node11</title>
<g id="a_edge18_Node000009_Node000011"><a xlink:title=" ">
<path fill="none" stroke="#63b8ff" d="M176.84,-239.99C195.43,-245.53 218.89,-252.52 237.92,-258.19"/>
<polygon fill="#63b8ff" stroke="#63b8ff" points="236.68,-261.77 247.26,-261.28 238.68,-255.07 236.68,-261.77"/>
</a>
</g>
</g>
<!-- Node13 -->
<g id="Node000013" class="node">
<title>Node13</title>
<g id="a_Node000013"><a xlink:href="k__open_8c.html#a8665b78926682de513294b0733aa72e4" target="_top" xlink:title=" ">
<polygon fill="white" stroke="#666666" points="452.5,-203 404.5,-203 404.5,-184 452.5,-184 452.5,-203"/>
<text text-anchor="middle" x="428.5" y="-191" font-family="Helvetica,sans-Serif" font-size="10.00">k_open</text>
</a>
</g>
</g>
<!-- Node9&#45;&gt;Node13 -->
<g id="edge22_Node000009_Node000013" class="edge">
<title>Node9&#45;&gt;Node13</title>
<g id="a_edge22_Node000009_Node000013"><a xlink:title=" ">
<path fill="none" stroke="#63b8ff" d="M176.98,-227.88C213.39,-224.72 274.63,-218.91 327,-211.5 349.15,-208.36 373.89,-203.94 393.28,-200.27"/>
<polygon fill="#63b8ff" stroke="#63b8ff" points="393.86,-203.53 403.02,-198.21 392.54,-196.66 393.86,-203.53"/>
</a>
</g>
</g>
<!-- Node15 -->
<g id="Node000015" class="node">
<title>Node15</title>
<g id="a_Node000015"><a xlink:href="k__openat_8c.html#a256d0b3f99e3a51b61a5f92da3237787" target="_top" xlink:title=" ">
<polygon fill="white" stroke="#666666" points="301.5,-184 245.5,-184 245.5,-165 301.5,-165 301.5,-184"/>
<text text-anchor="middle" x="273.5" y="-172" font-family="Helvetica,sans-Serif" font-size="10.00">k_openat</text>
</a>
</g>
</g>
<!-- Node9&#45;&gt;Node15 -->
<g id="edge26_Node000009_Node000015" class="edge">
<title>Node9&#45;&gt;Node15</title>
<g id="a_edge26_Node000009_Node000015"><a xlink:title=" ">
<path fill="none" stroke="#63b8ff" d="M167.5,-220.62C187.59,-211.79 217.25,-198.77 239.93,-188.81"/>
<polygon fill="#63b8ff" stroke="#63b8ff" points="241.05,-191.7 248.8,-184.47 238.23,-185.29 241.05,-191.7"/>
</a>
</g>
</g>
<!-- Node10&#45;&gt;Node10 -->
<g id="edge17_Node000010_Node000010" class="edge">
<title>Node10&#45;&gt;Node10</title>
<g id="a_edge17_Node000010_Node000010"><a xlink:title=" ">
<path fill="none" stroke="#63b8ff" d="M253.23,-333.37C243.98,-341.94 250.74,-351 273.5,-351 286.66,-351 294.47,-347.97 296.93,-343.76"/>
<polygon fill="#63b8ff" stroke="#63b8ff" points="300.03,-342.92 293.77,-334.37 293.33,-344.95 300.03,-342.92"/>
</a>
</g>
</g>
<!-- Node11&#45;&gt;Node11 -->
<g id="edge21_Node000011_Node000011" class="edge">
<title>Node11&#45;&gt;Node11</title>
<g id="a_edge21_Node000011_Node000011"><a xlink:title=" ">
<path fill="none" stroke="#63b8ff" d="M253.23,-278.37C243.98,-286.94 250.74,-296 273.5,-296 286.66,-296 294.47,-292.97 296.93,-288.76"/>
<polygon fill="#63b8ff" stroke="#63b8ff" points="300.03,-287.92 293.77,-279.37 293.33,-289.95 300.03,-287.92"/>
</a>
</g>
</g>
<!-- Node12 -->
<g id="Node000012" class="node">
<title>Node12</title>
<g id="a_Node000012"><a xlink:href="descriptor_8c.html#ab813e27b51b02aab5c7c6c174ad482a1" target="_top" xlink:title=" ">
<polygon fill="white" stroke="#666666" points="467.5,-278 389.5,-278 389.5,-259 467.5,-259 467.5,-278"/>
<text text-anchor="middle" x="428.5" y="-266" font-family="Helvetica,sans-Serif" font-size="10.00">get_descriptor</text>
</a>
</g>
</g>
<!-- Node11&#45;&gt;Node12 -->
<g id="edge19_Node000011_Node000012" class="edge">
<title>Node11&#45;&gt;Node12</title>
<g id="a_edge19_Node000011_Node000012"><a xlink:title=" ">
<path fill="none" stroke="#63b8ff" d="M298.74,-268.5C320.07,-268.5 351.78,-268.5 378.4,-268.5"/>
<polygon fill="#63b8ff" stroke="#63b8ff" points="378.06,-272 388.06,-268.5 378.06,-265 378.06,-272"/>
</a>
</g>
</g>
<!-- Node12&#45;&gt;Node12 -->
<g id="edge20_Node000012_Node000012" class="edge">
<title>Node12&#45;&gt;Node12</title>
<g id="a_edge20_Node000012_Node000012"><a xlink:title=" ">
<path fill="none" stroke="#63b8ff" d="M404.23,-278.37C393.17,-286.94 401.25,-296 428.5,-296 444.68,-296 454.1,-292.8 456.77,-288.42"/>
<polygon fill="#63b8ff" stroke="#63b8ff" points="459.72,-287.36 452.77,-279.37 453.22,-289.95 459.72,-287.36"/>
</a>
</g>
</g>
<!-- Node13&#45;&gt;Node13 -->
<g id="edge25_Node000013_Node000013" class="edge">
<title>Node13&#45;&gt;Node13</title>
<g id="a_edge25_Node000013_Node000013"><a xlink:title=" ">
<path fill="none" stroke="#63b8ff" d="M404.23,-203.37C393.17,-211.94 401.25,-221 428.5,-221 444.68,-221 454.1,-217.8 456.77,-213.42"/>
<polygon fill="#63b8ff" stroke="#63b8ff" points="459.72,-212.36 452.77,-204.37 453.22,-214.95 459.72,-212.36"/>
</a>
</g>
</g>
<!-- Node14 -->
<g id="Node000014" class="node">
<title>Node14</title>
<g id="a_Node000014"><a xlink:href="descriptor_8c.html#a9d772be036ad7ec4e9e926a190b76003" target="_top" xlink:title=" ">
<polygon fill="white" stroke="#666666" points="640,-203 530,-203 530,-184 640,-184 640,-203"/>
<text text-anchor="middle" x="585" y="-191" font-family="Helvetica,sans-Serif" font-size="10.00">create_file_descriptor</text>
</a>
</g>
</g>
<!-- Node13&#45;&gt;Node14 -->
<g id="edge23_Node000013_Node000014" class="edge">
<title>Node13&#45;&gt;Node14</title>
<g id="a_edge23_Node000013_Node000014"><a xlink:title=" ">
<path fill="none" stroke="#63b8ff" d="M452.97,-193.5C470.46,-193.5 495.25,-193.5 518.57,-193.5"/>
<polygon fill="#63b8ff" stroke="#63b8ff" points="518.5,-197 528.5,-193.5 518.5,-190 518.5,-197"/>
</a>
</g>
</g>
<!-- Node14&#45;&gt;Node14 -->
<g id="edge24_Node000014_Node000014" class="edge">
<title>Node14&#45;&gt;Node14</title>
<g id="a_edge24_Node000014_Node000014"><a xlink:title=" ">
<path fill="none" stroke="#63b8ff" d="M560.5,-203.37C549.32,-211.94 557.49,-221 585,-221 601.33,-221 610.85,-217.8 613.54,-213.42"/>
<polygon fill="#63b8ff" stroke="#63b8ff" points="616.48,-212.34 609.5,-204.37 609.99,-214.95 616.48,-212.34"/>
</a>
</g>
</g>
<!-- Node15&#45;&gt;Node13 -->
<g id="edge27_Node000015_Node000013" class="edge">
<title>Node15&#45;&gt;Node13</title>
<g id="a_edge27_Node000015_Node000013"><a xlink:title=" ">
<path fill="none" stroke="#63b8ff" d="M301.85,-177.9C327.54,-181.09 366.04,-185.87 393.65,-189.3"/>
<polygon fill="#63b8ff" stroke="#63b8ff" points="393.03,-192.87 403.38,-190.63 393.89,-185.92 393.03,-192.87"/>
</a>
</g>
</g>
<!-- Node15&#45;&gt;Node15 -->
<g id="edge28_Node000015_Node000015" class="edge">
<title>Node15&#45;&gt;Node15</title>
<g id="a_edge28_Node000015_Node000015"><a xlink:title=" ">
<path fill="none" stroke="#63b8ff" d="M253.23,-184.37C243.98,-192.94 250.74,-202 273.5,-202 286.66,-202 294.47,-198.97 296.93,-194.76"/>
<polygon fill="#63b8ff" stroke="#63b8ff" points="300.03,-193.92 293.77,-185.37 293.33,-195.95 300.03,-193.92"/>
</a>
</g>
</g>
<!-- Node16&#45;&gt;Node16 -->
<g id="edge35_Node000016_Node000016" class="edge">
<title>Node16&#45;&gt;Node16</title>
<g id="a_edge35_Node000016_Node000016"><a xlink:title=" ">
<path fill="none" stroke="#63b8ff" d="M126.78,-180.37C118.92,-188.94 124.66,-198 144,-198 155.18,-198 161.81,-194.97 163.9,-190.76"/>
<polygon fill="#63b8ff" stroke="#63b8ff" points="167.11,-190.18 161.22,-181.37 160.33,-191.93 167.11,-190.18"/>
</a>
</g>
</g>
<!-- Node17 -->
<g id="Node000017" class="node">
<title>Node17</title>
<g id="a_Node000017"><a xlink:href="arch_2x86__64_2arch_2proc_8c.html#a491927dc191869338fab4ad37da1a743" target="_top" xlink:title=" ">
<polygon fill="white" stroke="#666666" points="319.5,-129 227.5,-129 227.5,-110 319.5,-110 319.5,-129"/>
<text text-anchor="middle" x="273.5" y="-117" font-family="Helvetica,sans-Serif" font-size="10.00">arch_task_create</text>
</a>
</g>
</g>
<!-- Node16&#45;&gt;Node17 -->
<g id="edge31_Node000016_Node000017" class="edge">
<title>Node16&#45;&gt;Node17</title>
<g id="a_edge31_Node000016_Node000017"><a xlink:title=" ">
<path fill="none" stroke="#63b8ff" d="M169.89,-160.55C189.19,-152.82 216.19,-142.02 237.65,-133.44"/>
<polygon fill="#63b8ff" stroke="#63b8ff" points="238.69,-136.39 246.68,-129.43 236.09,-129.89 238.69,-136.39"/>
</a>
</g>
</g>
<!-- Node18 -->
<g id="Node000018" class="node">
<title>Node18</title>
<g id="a_Node000018"><a xlink:href="strncpy_8c.html#a9456973049933ecacd5ad9c4b4f080d8" target="_top" xlink:title="This is actually a safer implementation based on strlcpy().">
<polygon fill="white" stroke="#666666" points="298,-74 249,-74 249,-55 298,-55 298,-74"/>
<text text-anchor="middle" x="273.5" y="-62" font-family="Helvetica,sans-Serif" font-size="10.00">strncpy</text>
</a>
</g>
</g>
<!-- Node16&#45;&gt;Node18 -->
<g id="edge33_Node000016_Node000018" class="edge">
<title>Node16&#45;&gt;Node18</title>
<g id="a_edge33_Node000016_Node000018"><a xlink:title=" ">
<path fill="none" stroke="#63b8ff" d="M171.31,-160.68C175.79,-158.37 180.22,-155.65 184,-152.5 205.32,-134.75 200.37,-121.11 220,-101.5 227.96,-93.54 237.81,-86.11 246.81,-80.02"/>
<polygon fill="#63b8ff" stroke="#63b8ff" points="248.3,-82.58 254.78,-74.2 244.49,-76.71 248.3,-82.58"/>
</a>
</g>
</g>
<!-- Node17&#45;&gt;Node17 -->
<g id="edge32_Node000017_Node000017" class="edge">
<title>Node17&#45;&gt;Node17</title>
<g id="a_edge32_Node000017_Node000017"><a xlink:title=" ">
<path fill="none" stroke="#63b8ff" d="M253.23,-129.37C243.98,-137.94 250.74,-147 273.5,-147 286.66,-147 294.47,-143.97 296.93,-139.76"/>
<polygon fill="#63b8ff" stroke="#63b8ff" points="300.03,-138.92 293.77,-130.37 293.33,-140.95 300.03,-138.92"/>
</a>
</g>
</g>
<!-- Node18&#45;&gt;Node18 -->
<g id="edge34_Node000018_Node000018" class="edge">
<title>Node18&#45;&gt;Node18</title>
<g id="a_edge34_Node000018_Node000018"><a xlink:title=" ">
<path fill="none" stroke="#63b8ff" d="M253.23,-74.37C243.98,-82.94 250.74,-92 273.5,-92 286.66,-92 294.47,-88.97 296.93,-84.76"/>
<polygon fill="#63b8ff" stroke="#63b8ff" points="300.03,-83.92 293.77,-75.37 293.33,-85.95 300.03,-83.92"/>
</a>
</g>
</g>
<!-- Node20&#45;&gt;Node20 -->
<g id="edge38_Node000020_Node000020" class="edge">
<title>Node20&#45;&gt;Node20</title>
<g id="a_edge38_Node000020_Node000020"><a xlink:title=" ">
<path fill="none" stroke="#63b8ff" d="M126.78,-88.37C118.92,-96.94 124.66,-106 144,-106 155.18,-106 161.81,-102.97 163.9,-98.76"/>
<polygon fill="#63b8ff" stroke="#63b8ff" points="167.11,-98.18 161.22,-89.37 160.33,-99.93 167.11,-98.18"/>
</a>
</g>
</g>
<!-- Node21&#45;&gt;Node21 -->
<g id="edge46_Node000021_Node000021" class="edge">
<title>Node21&#45;&gt;Node21</title>
<g id="a_edge46_Node000021_Node000021"><a xlink:title=" ">
<path fill="none" stroke="#63b8ff" d="M126.78,-24.37C118.92,-32.94 124.66,-42 144,-42 155.18,-42 161.81,-38.97 163.9,-34.76"/>
<polygon fill="#63b8ff" stroke="#63b8ff" points="167.11,-34.18 161.22,-25.37 160.33,-35.93 167.11,-34.18"/>
</a>
</g>
</g>
<!-- Node22 -->
<g id="Node000022" class="node">
<title>Node22</title>
<g id="a_Node000022"><a xlink:href="kernel_2arch_2x86__64_2arch_2time_8c.html#a92a37cf9da6c3705b6ef829f1978ab54" target="_top" xlink:title=" ">
<polygon fill="white" stroke="#666666" points="313.5,-19 233.5,-19 233.5,0 313.5,0 313.5,-19"/>
<text text-anchor="middle" x="273.5" y="-7" font-family="Helvetica,sans-Serif" font-size="10.00">arch_timer_init</text>
</a>
</g>
</g>
<!-- Node21&#45;&gt;Node22 -->
<g id="edge40_Node000021_Node000022" class="edge">
<title>Node21&#45;&gt;Node22</title>
<g id="a_edge40_Node000021_Node000022"><a xlink:title=" ">
<path fill="none" stroke="#63b8ff" d="M172.35,-13.43C186.88,-12.86 205.19,-12.14 222.18,-11.47"/>
<polygon fill="#63b8ff" stroke="#63b8ff" points="222.24,-14.93 232.1,-11.05 221.97,-7.94 222.24,-14.93"/>
</a>
</g>
</g>
<!-- Node22&#45;&gt;Node22 -->
<g id="edge41_Node000022_Node000022" class="edge">
<title>Node22&#45;&gt;Node22</title>
<g id="a_edge41_Node000022_Node000022"><a xlink:title=" ">
<path fill="none" stroke="#63b8ff" d="M253.23,-19.37C243.98,-27.94 250.74,-37 273.5,-37 286.66,-37 294.47,-33.97 296.93,-29.76"/>
<polygon fill="#63b8ff" stroke="#63b8ff" points="300.03,-28.92 293.77,-20.37 293.33,-30.95 300.03,-28.92"/>
</a>
</g>
</g>
<!-- Node23 -->
<g id="Node000023" class="node">
<title>Node23</title>
<g id="a_Node000023"><a xlink:href="bcm2835__timer_8c.html#af1c06e30d4cc124b212c408dceaadbd0" target="_top" xlink:title=" ">
<polygon fill="white" stroke="#666666" points="479,-19 378,-19 378,0 479,0 479,-19"/>
<text text-anchor="middle" x="428.5" y="-7" font-family="Helvetica,sans-Serif" font-size="10.00">bcm2835_timer_init</text>
</a>
</g>
</g>
<!-- Node22&#45;&gt;Node23 -->
<g id="edge42_Node000022_Node000023" class="edge">
<title>Node22&#45;&gt;Node23</title>
<g id="a_edge42_Node000022_Node000023"><a xlink:title=" ">
<path fill="none" stroke="#63b8ff" d="M313.9,-9.5C329.96,-9.5 348.89,-9.5 366.65,-9.5"/>
<polygon fill="#63b8ff" stroke="#63b8ff" points="366.52,-13 376.52,-9.5 366.52,-6 366.52,-13"/>
</a>
</g>
</g>
<!-- Node23&#45;&gt;Node23 -->
<g id="edge43_Node000023_Node000023" class="edge">
<title>Node23&#45;&gt;Node23</title>
<g id="a_edge43_Node000023_Node000023"><a xlink:title=" ">
<path fill="none" stroke="#63b8ff" d="M404.23,-19.37C393.17,-27.94 401.25,-37 428.5,-37 444.68,-37 454.1,-33.8 456.77,-29.42"/>
<polygon fill="#63b8ff" stroke="#63b8ff" points="459.72,-28.36 452.77,-20.37 453.22,-30.95 459.72,-28.36"/>
</a>
</g>
</g>
<!-- Node24 -->
<g id="Node000024" class="node">
<title>Node24</title>
<g id="a_Node000024"><a xlink:href="isr_8c.html#a919e035afe984042c7fb8672b16aaf1e" target="_top" xlink:title=" ">
<polygon fill="white" stroke="#666666" points="635.5,-19 534.5,-19 534.5,0 635.5,0 635.5,-19"/>
<text text-anchor="middle" x="585" y="-7" font-family="Helvetica,sans-Serif" font-size="10.00">isr_register_handler</text>
</a>
</g>
</g>
<!-- Node23&#45;&gt;Node24 -->
<g id="edge44_Node000023_Node000024" class="edge">
<title>Node23&#45;&gt;Node24</title>
<g id="a_edge44_Node000023_Node000024"><a xlink:title=" ">
<path fill="none" stroke="#63b8ff" d="M479.24,-9.5C493.22,-9.5 508.6,-9.5 523.16,-9.5"/>
<polygon fill="#63b8ff" stroke="#63b8ff" points="523.09,-13 533.09,-9.5 523.09,-6 523.09,-13"/>
</a>
</g>
</g>
<!-- Node24&#45;&gt;Node24 -->
<g id="edge45_Node000024_Node000024" class="edge">
<title>Node24&#45;&gt;Node24</title>
<g id="a_edge45_Node000024_Node000024"><a xlink:title=" ">
<path fill="none" stroke="#63b8ff" d="M560.5,-19.37C549.32,-27.94 557.49,-37 585,-37 601.33,-37 610.85,-33.8 613.54,-29.42"/>
<polygon fill="#63b8ff" stroke="#63b8ff" points="616.48,-28.34 609.5,-20.37 609.99,-30.95 616.48,-28.34"/>
</a>
</g>
</g>
</g>
</svg>
