<?xml version="1.0" encoding="UTF-8" standalone="no"?>
<!DOCTYPE svg PUBLIC "-//W3C//DTD SVG 1.1//EN"
 "http://www.w3.org/Graphics/SVG/1.1/DTD/svg11.dtd">
<!-- Generated by graphviz version 9.0.0 (20230911.1827)
 -->
<!-- Title: include/kernel/kshell/kshell.h Pages: 1 -->
<svg width="126pt" height="149pt"
 viewBox="0.00 0.00 125.75 149.00" xmlns="http://www.w3.org/2000/svg" xmlns:xlink="http://www.w3.org/1999/xlink">
<g id="graph0" class="graph" transform="scale(1 1) rotate(0) translate(4 145)">
<title>include/kernel/kshell/kshell.h</title>
<!-- Node1 -->
<g id="Node000001" class="node">
<title>Node1</title>
<g id="a_Node000001"><a xlink:title=" ">
<polygon fill="#999999" stroke="#666666" points="111.88,-141 7.38,-141 7.38,-110.5 111.88,-110.5 111.88,-141"/>
<text text-anchor="start" x="15.38" y="-127.5" font-family="Helvetica,sans-Serif" font-size="10.00">include/kernel/kshell</text>
<text text-anchor="middle" x="59.62" y="-116.25" font-family="Helvetica,sans-Serif" font-size="10.00">/kshell.h</text>
</a>
</g>
</g>
<!-- Node2 -->
<g id="Node000002" class="node">
<title>Node2</title>
<g id="a_Node000002"><a xlink:href="stdlib_8h.html" target="_top" xlink:title=" ">
<polygon fill="white" stroke="#666666" points="83.38,-74.5 35.88,-74.5 35.88,-55.25 83.38,-55.25 83.38,-74.5"/>
<text text-anchor="middle" x="59.62" y="-61" font-family="Helvetica,sans-Serif" font-size="10.00">stdlib.h</text>
</a>
</g>
</g>
<!-- Node1&#45;&gt;Node2 -->
<g id="edge1_Node000001_Node000002" class="edge">
<title>Node1&#45;&gt;Node2</title>
<g id="a_edge1_Node000001_Node000002"><a xlink:title=" ">
<path fill="none" stroke="#63b8ff" d="M59.62,-110.2C59.62,-102.96 59.62,-94.09 59.62,-86.19"/>
<polygon fill="#63b8ff" stroke="#63b8ff" points="63.13,-86.46 59.63,-76.46 56.13,-86.46 63.13,-86.46"/>
</a>
</g>
</g>
<!-- Node3 -->
<g id="Node000003" class="node">
<title>Node3</title>
<g id="a_Node000003"><a xlink:title=" ">
<polygon fill="#e0e0e0" stroke="#999999" points="51.25,-19.25 0,-19.25 0,0 51.25,0 51.25,-19.25"/>
<text text-anchor="middle" x="25.62" y="-5.75" font-family="Helvetica,sans-Serif" font-size="10.00">stddef.h</text>
</a>
</g>
</g>
<!-- Node2&#45;&gt;Node3 -->
<g id="edge2_Node000002_Node000003" class="edge">
<title>Node2&#45;&gt;Node3</title>
<g id="a_edge2_Node000002_Node000003"><a xlink:title=" ">
<path fill="none" stroke="#63b8ff" d="M54.01,-55.08C49.51,-48.03 43.04,-37.9 37.41,-29.08"/>
<polygon fill="#63b8ff" stroke="#63b8ff" points="40.51,-27.43 32.18,-20.88 34.61,-31.2 40.51,-27.43"/>
</a>
</g>
</g>
<!-- Node4 -->
<g id="Node000004" class="node">
<title>Node4</title>
<g id="a_Node000004"><a xlink:title=" ">
<polygon fill="#e0e0e0" stroke="#999999" points="117.75,-19.25 69.5,-19.25 69.5,0 117.75,0 117.75,-19.25"/>
<text text-anchor="middle" x="93.62" y="-5.75" font-family="Helvetica,sans-Serif" font-size="10.00">stdint.h</text>
</a>
</g>
</g>
<!-- Node2&#45;&gt;Node4 -->
<g id="edge3_Node000002_Node000004" class="edge">
<title>Node2&#45;&gt;Node4</title>
<g id="a_edge3_Node000002_Node000004"><a xlink:title=" ">
<path fill="none" stroke="#63b8ff" d="M65.24,-55.08C69.74,-48.03 76.21,-37.9 81.84,-29.08"/>
<polygon fill="#63b8ff" stroke="#63b8ff" points="84.64,-31.2 87.07,-20.88 78.74,-27.43 84.64,-31.2"/>
</a>
</g>
</g>
</g>
</svg>
