<?xml version="1.0" encoding="UTF-8" standalone="no"?>
<!DOCTYPE svg PUBLIC "-//W3C//DTD SVG 1.1//EN"
 "http://www.w3.org/Graphics/SVG/1.1/DTD/svg11.dtd">
<!-- Generated by graphviz version 8.0.2 (20230410.1723)
 -->
<!-- Title: include/libc/arpa/inet.h Pages: 1 -->
<svg width="434pt" height="225pt"
 viewBox="0.00 0.00 433.50 225.00" xmlns="http://www.w3.org/2000/svg" xmlns:xlink="http://www.w3.org/1999/xlink">
<g id="graph0" class="graph" transform="scale(1 1) rotate(0) translate(4 221)">
<title>include/libc/arpa/inet.h</title>
<!-- Node1 -->
<g id="Node000001" class="node">
<title>Node1</title>
<g id="a_Node000001"><a xlink:title=" ">
<polygon fill="#999999" stroke="#666666" points="252.5,-217 138.5,-217 138.5,-198 252.5,-198 252.5,-217"/>
<text text-anchor="middle" x="195.5" y="-205" font-family="Helvetica,sans-Serif" font-size="10.00">include/libc/arpa/inet.h</text>
</a>
</g>
</g>
<!-- Node2 -->
<g id="Node000002" class="node">
<title>Node2</title>
<g id="a_Node000002"><a xlink:href="ipv4_8h.html" target="_top" xlink:title=" ">
<polygon fill="white" stroke="#666666" points="129,-162 36,-162 36,-132 129,-132 129,-162"/>
<text text-anchor="start" x="44" y="-150" font-family="Helvetica,sans-Serif" font-size="10.00">include/kernel/net</text>
<text text-anchor="middle" x="82.5" y="-139" font-family="Helvetica,sans-Serif" font-size="10.00">/ipv4.h</text>
</a>
</g>
</g>
<!-- Node1&#45;&gt;Node2 -->
<g id="edge1_Node000001_Node000002" class="edge">
<title>Node1&#45;&gt;Node2</title>
<g id="a_edge1_Node000001_Node000002"><a xlink:title=" ">
<path fill="none" stroke="#63b8ff" d="M168.69,-192.62C151.11,-183.52 128.18,-171.65 110.39,-162.44"/>
<polygon fill="#63b8ff" stroke="#63b8ff" points="166.85,-196.13 177.34,-197.62 170.07,-189.91 166.85,-196.13"/>
</a>
</g>
</g>
<!-- Node4 -->
<g id="Node000004" class="node">
<title>Node4</title>
<g id="a_Node000004"><a xlink:href="udp_8h.html" target="_top" xlink:title=" ">
<polygon fill="white" stroke="#666666" points="204,-96 111,-96 111,-66 204,-66 204,-96"/>
<text text-anchor="start" x="119" y="-84" font-family="Helvetica,sans-Serif" font-size="10.00">include/kernel/net</text>
<text text-anchor="middle" x="157.5" y="-73" font-family="Helvetica,sans-Serif" font-size="10.00">/udp.h</text>
</a>
</g>
</g>
<!-- Node1&#45;&gt;Node4 -->
<g id="edge7_Node000001_Node000004" class="edge">
<title>Node1&#45;&gt;Node4</title>
<g id="a_edge7_Node000001_Node000004"><a xlink:title=" ">
<path fill="none" stroke="#63b8ff" d="M186.71,-187.88C183.22,-180.01 179.36,-170.68 176.5,-162 169.08,-139.49 163.3,-112.54 160.14,-96.37"/>
<polygon fill="#63b8ff" stroke="#63b8ff" points="183.91,-189.17 191.26,-196.81 190.28,-186.26 183.91,-189.17"/>
</a>
</g>
</g>
<!-- Node8 -->
<g id="Node000008" class="node">
<title>Node8</title>
<g id="a_Node000008"><a xlink:href="k__syscall_8h.html" target="_top" xlink:title=" ">
<polygon fill="white" stroke="#666666" points="281,-162 186,-162 186,-132 281,-132 281,-162"/>
<text text-anchor="start" x="194" y="-150" font-family="Helvetica,sans-Serif" font-size="10.00">include/kernel/sys</text>
<text text-anchor="middle" x="233.5" y="-139" font-family="Helvetica,sans-Serif" font-size="10.00">/k_syscall.h</text>
</a>
</g>
</g>
<!-- Node1&#45;&gt;Node8 -->
<g id="edge8_Node000001_Node000008" class="edge">
<title>Node1&#45;&gt;Node8</title>
<g id="a_edge8_Node000001_Node000008"><a xlink:title=" ">
<path fill="none" stroke="#63b8ff" d="M207.01,-188.78C212.56,-180.23 219.13,-170.13 224.33,-162.11"/>
<polygon fill="#63b8ff" stroke="#63b8ff" points="203.62,-186.58 201.11,-196.87 209.49,-190.39 203.62,-186.58"/>
</a>
</g>
</g>
<!-- Node9 -->
<g id="Node000009" class="node">
<title>Node9</title>
<g id="a_Node000009"><a xlink:href="syscall_8h.html" target="_top" xlink:title=" ">
<polygon fill="white" stroke="#666666" points="425.5,-156.5 299.5,-156.5 299.5,-137.5 425.5,-137.5 425.5,-156.5"/>
<text text-anchor="middle" x="362.5" y="-144.5" font-family="Helvetica,sans-Serif" font-size="10.00">include/libc/sys/syscall.h</text>
</a>
</g>
</g>
<!-- Node1&#45;&gt;Node9 -->
<g id="edge9_Node000001_Node000009" class="edge">
<title>Node1&#45;&gt;Node9</title>
<g id="a_edge9_Node000001_Node000009"><a xlink:title=" ">
<path fill="none" stroke="#63b8ff" d="M231.06,-194.05C262.82,-182.92 308.6,-166.88 336.9,-156.97"/>
<polygon fill="#63b8ff" stroke="#63b8ff" points="230.14,-191.01 221.86,-197.62 232.46,-197.61 230.14,-191.01"/>
</a>
</g>
</g>
<!-- Node3 -->
<g id="Node000003" class="node">
<title>Node3</title>
<g id="a_Node000003"><a xlink:href="icmpv4_8h.html" target="_top" xlink:title=" ">
<polygon fill="white" stroke="#666666" points="93,-96 0,-96 0,-66 93,-66 93,-96"/>
<text text-anchor="start" x="8" y="-84" font-family="Helvetica,sans-Serif" font-size="10.00">include/kernel/net</text>
<text text-anchor="middle" x="46.5" y="-73" font-family="Helvetica,sans-Serif" font-size="10.00">/icmpv4.h</text>
</a>
</g>
</g>
<!-- Node2&#45;&gt;Node3 -->
<g id="edge2_Node000002_Node000003" class="edge">
<title>Node2&#45;&gt;Node3</title>
<g id="a_edge2_Node000002_Node000003"><a xlink:title=" ">
<path fill="none" stroke="#63b8ff" d="M69.22,-122.39C64.27,-113.59 58.8,-103.86 54.47,-96.16"/>
<polygon fill="#63b8ff" stroke="#63b8ff" points="66.56,-123.8 74.51,-130.8 72.66,-120.36 66.56,-123.8"/>
</a>
</g>
</g>
<!-- Node2&#45;&gt;Node4 -->
<g id="edge3_Node000002_Node000004" class="edge">
<title>Node2&#45;&gt;Node4</title>
<g id="a_edge3_Node000002_Node000004"><a xlink:title=" ">
<path fill="none" stroke="#63b8ff" d="M107.46,-124.7C118.36,-115.4 130.86,-104.73 140.64,-96.39"/>
<polygon fill="#63b8ff" stroke="#63b8ff" points="105.48,-122.64 100.14,-131.8 110.02,-127.97 105.48,-122.64"/>
</a>
</g>
</g>
<!-- Node5 -->
<g id="Node000005" class="node">
<title>Node5</title>
<g id="a_Node000005"><a xlink:href="dhcp_8h.html" target="_top" xlink:title=" ">
<polygon fill="white" stroke="#666666" points="93,-30 0,-30 0,0 93,0 93,-30"/>
<text text-anchor="start" x="8" y="-18" font-family="Helvetica,sans-Serif" font-size="10.00">include/kernel/net</text>
<text text-anchor="middle" x="46.5" y="-7" font-family="Helvetica,sans-Serif" font-size="10.00">/dhcp.h</text>
</a>
</g>
</g>
<!-- Node4&#45;&gt;Node5 -->
<g id="edge4_Node000004_Node000005" class="edge">
<title>Node4&#45;&gt;Node5</title>
<g id="a_edge4_Node000004_Node000005"><a xlink:title=" ">
<path fill="none" stroke="#63b8ff" d="M123.13,-60.18C106.37,-50.52 86.59,-39.12 71.33,-30.31"/>
<polygon fill="#63b8ff" stroke="#63b8ff" points="121.18,-63.67 131.59,-65.64 124.67,-57.61 121.18,-63.67"/>
</a>
</g>
</g>
<!-- Node6 -->
<g id="Node000006" class="node">
<title>Node6</title>
<g id="a_Node000006"><a xlink:href="dns_8h.html" target="_top" xlink:title=" ">
<polygon fill="white" stroke="#666666" points="204,-30 111,-30 111,0 204,0 204,-30"/>
<text text-anchor="start" x="119" y="-18" font-family="Helvetica,sans-Serif" font-size="10.00">include/kernel/net</text>
<text text-anchor="middle" x="157.5" y="-7" font-family="Helvetica,sans-Serif" font-size="10.00">/dns.h</text>
</a>
</g>
</g>
<!-- Node4&#45;&gt;Node6 -->
<g id="edge5_Node000004_Node000006" class="edge">
<title>Node4&#45;&gt;Node6</title>
<g id="a_edge5_Node000004_Node000006"><a xlink:title=" ">
<path fill="none" stroke="#63b8ff" d="M157.5,-54.97C157.5,-46.55 157.5,-37.45 157.5,-30.16"/>
<polygon fill="#63b8ff" stroke="#63b8ff" points="154,-54.8 157.5,-64.8 161,-54.8 154,-54.8"/>
</a>
</g>
</g>
<!-- Node7 -->
<g id="Node000007" class="node">
<title>Node7</title>
<g id="a_Node000007"><a xlink:href="ntp_8h.html" target="_top" xlink:title=" ">
<polygon fill="white" stroke="#666666" points="315,-30 222,-30 222,0 315,0 315,-30"/>
<text text-anchor="start" x="230" y="-18" font-family="Helvetica,sans-Serif" font-size="10.00">include/kernel/net</text>
<text text-anchor="middle" x="268.5" y="-7" font-family="Helvetica,sans-Serif" font-size="10.00">/ntp.h</text>
</a>
</g>
</g>
<!-- Node4&#45;&gt;Node7 -->
<g id="edge6_Node000004_Node000007" class="edge">
<title>Node4&#45;&gt;Node7</title>
<g id="a_edge6_Node000004_Node000007"><a xlink:title=" ">
<path fill="none" stroke="#63b8ff" d="M191.87,-60.18C208.63,-50.52 228.41,-39.12 243.67,-30.31"/>
<polygon fill="#63b8ff" stroke="#63b8ff" points="190.33,-57.61 183.41,-65.64 193.82,-63.67 190.33,-57.61"/>
</a>
</g>
</g>
<!-- Node10 -->
<g id="Node000010" class="node">
<title>Node10</title>
<g id="a_Node000010"><a xlink:href="unistd_8h.html" target="_top" xlink:title=" ">
<polygon fill="white" stroke="#666666" points="414,-90.5 311,-90.5 311,-71.5 414,-71.5 414,-90.5"/>
<text text-anchor="middle" x="362.5" y="-78.5" font-family="Helvetica,sans-Serif" font-size="10.00">include/libc/unistd.h</text>
</a>
</g>
</g>
<!-- Node9&#45;&gt;Node10 -->
<g id="edge10_Node000009_Node000010" class="edge">
<title>Node9&#45;&gt;Node10</title>
<g id="a_edge10_Node000009_Node000010"><a xlink:title=" ">
<path fill="none" stroke="#63b8ff" d="M362.5,-126.43C362.5,-114.55 362.5,-99.96 362.5,-90.82"/>
<polygon fill="#63b8ff" stroke="#63b8ff" points="359,-126.1 362.5,-136.1 366,-126.1 359,-126.1"/>
</a>
</g>
</g>
</g>
</svg>
