<?xml version="1.0" encoding="UTF-8" standalone="no"?>
<!DOCTYPE svg PUBLIC "-//W3C//DTD SVG 1.1//EN"
 "http://www.w3.org/Graphics/SVG/1.1/DTD/svg11.dtd">
<!-- Generated by graphviz version 2.49.3 (20211023.0002)
 -->
<!-- Title: include/libc/arpa/inet.h Pages: 1 -->
<svg width="474pt" height="229pt"
 viewBox="0.00 0.00 474.00 229.00" xmlns="http://www.w3.org/2000/svg" xmlns:xlink="http://www.w3.org/1999/xlink">
<g id="graph0" class="graph" transform="scale(1 1) rotate(0) translate(4 225)">
<title>include/libc/arpa/inet.h</title>
<!-- Node1 -->
<g id="node1" class="node">
<title>Node1</title>
<g id="a_node1"><a xlink:title=" ">
<polygon fill="#bfbfbf" stroke="black" points="178.5,-201.5 178.5,-220.5 294.5,-220.5 294.5,-201.5 178.5,-201.5"/>
<text text-anchor="middle" x="236.5" y="-208.5" font-family="Helvetica,sans-Serif" font-size="10.00">include/libc/arpa/inet.h</text>
</a>
</g>
</g>
<!-- Node2 -->
<g id="node2" class="node">
<title>Node2</title>
<g id="a_node2"><a xlink:href="ipv4_8h.html" target="_top" xlink:title=" ">
<polygon fill="none" stroke="black" points="75,-134.5 75,-164.5 170,-164.5 170,-134.5 75,-134.5"/>
<text text-anchor="start" x="83" y="-152.5" font-family="Helvetica,sans-Serif" font-size="10.00">include/kernel/net</text>
<text text-anchor="middle" x="122.5" y="-141.5" font-family="Helvetica,sans-Serif" font-size="10.00">/ipv4.h</text>
</a>
</g>
</g>
<!-- Node1&#45;&gt;Node2 -->
<g id="edge1" class="edge">
<title>Node1&#45;&gt;Node2</title>
<path fill="none" stroke="midnightblue" d="M211.22,-196.81C192.87,-187.23 168.08,-174.29 149.37,-164.52"/>
<polygon fill="midnightblue" stroke="midnightblue" points="209.68,-199.95 220.17,-201.48 212.92,-193.75 209.68,-199.95"/>
</g>
<!-- Node3 -->
<g id="node3" class="node">
<title>Node3</title>
<g id="a_node3"><a xlink:href="udp_8h.html" target="_top" xlink:title=" ">
<polygon fill="none" stroke="black" points="113,-67.5 113,-97.5 208,-97.5 208,-67.5 113,-67.5"/>
<text text-anchor="start" x="121" y="-85.5" font-family="Helvetica,sans-Serif" font-size="10.00">include/kernel/net</text>
<text text-anchor="middle" x="160.5" y="-74.5" font-family="Helvetica,sans-Serif" font-size="10.00">/udp.h</text>
</a>
</g>
</g>
<!-- Node1&#45;&gt;Node3 -->
<g id="edge6" class="edge">
<title>Node1&#45;&gt;Node3</title>
<path fill="none" stroke="midnightblue" d="M225.97,-192.47C210.82,-167.25 183.16,-121.22 169.14,-97.89"/>
<polygon fill="midnightblue" stroke="midnightblue" points="223.13,-194.54 231.28,-201.31 229.13,-190.93 223.13,-194.54"/>
</g>
<!-- Node7 -->
<g id="node7" class="node">
<title>Node7</title>
<g id="a_node7"><a xlink:href="k__syscall_8h.html" target="_top" xlink:title=" ">
<polygon fill="none" stroke="black" points="226.5,-134.5 226.5,-164.5 322.5,-164.5 322.5,-134.5 226.5,-134.5"/>
<text text-anchor="start" x="234.5" y="-152.5" font-family="Helvetica,sans-Serif" font-size="10.00">include/kernel/sys</text>
<text text-anchor="middle" x="274.5" y="-141.5" font-family="Helvetica,sans-Serif" font-size="10.00">/k_syscall.h</text>
</a>
</g>
</g>
<!-- Node1&#45;&gt;Node7 -->
<g id="edge7" class="edge">
<title>Node1&#45;&gt;Node7</title>
<path fill="none" stroke="midnightblue" d="M247.38,-192.96C253.13,-183.96 260.11,-173.03 265.54,-164.52"/>
<polygon fill="midnightblue" stroke="midnightblue" points="244.38,-191.16 241.94,-201.48 250.28,-194.93 244.38,-191.16"/>
</g>
<!-- Node8 -->
<g id="node8" class="node">
<title>Node8</title>
<g id="a_node8"><a xlink:href="syscall_8h.html" target="_top" xlink:title=" ">
<polygon fill="none" stroke="black" points="341,-140 341,-159 466,-159 466,-140 341,-140"/>
<text text-anchor="middle" x="403.5" y="-147" font-family="Helvetica,sans-Serif" font-size="10.00">include/libc/sys/syscall.h</text>
</a>
</g>
</g>
<!-- Node1&#45;&gt;Node8 -->
<g id="edge8" class="edge">
<title>Node1&#45;&gt;Node8</title>
<path fill="none" stroke="midnightblue" d="M269.95,-198.08C302.41,-186.52 350.87,-169.25 379.62,-159.01"/>
<polygon fill="midnightblue" stroke="midnightblue" points="268.67,-194.82 260.43,-201.48 271.02,-201.42 268.67,-194.82"/>
</g>
<!-- Node2&#45;&gt;Node3 -->
<g id="edge2" class="edge">
<title>Node2&#45;&gt;Node3</title>
<path fill="none" stroke="midnightblue" d="M135.9,-125.58C141.36,-116.24 147.49,-105.75 152.27,-97.58"/>
<polygon fill="midnightblue" stroke="midnightblue" points="132.77,-124 130.75,-134.4 138.81,-127.53 132.77,-124"/>
</g>
<!-- Node4 -->
<g id="node4" class="node">
<title>Node4</title>
<g id="a_node4"><a xlink:href="dhcp_8h.html" target="_top" xlink:title=" ">
<polygon fill="none" stroke="black" points="0,-0.5 0,-30.5 95,-30.5 95,-0.5 0,-0.5"/>
<text text-anchor="start" x="8" y="-18.5" font-family="Helvetica,sans-Serif" font-size="10.00">include/kernel/net</text>
<text text-anchor="middle" x="47.5" y="-7.5" font-family="Helvetica,sans-Serif" font-size="10.00">/dhcp.h</text>
</a>
</g>
</g>
<!-- Node3&#45;&gt;Node4 -->
<g id="edge3" class="edge">
<title>Node3&#45;&gt;Node4</title>
<path fill="none" stroke="midnightblue" d="M127.11,-62.3C109.43,-52.12 88.1,-39.85 71.97,-30.58"/>
<polygon fill="midnightblue" stroke="midnightblue" points="125.57,-65.44 135.98,-67.4 129.06,-59.38 125.57,-65.44"/>
</g>
<!-- Node5 -->
<g id="node5" class="node">
<title>Node5</title>
<g id="a_node5"><a xlink:href="dns_8h.html" target="_top" xlink:title=" ">
<polygon fill="none" stroke="black" points="113,-0.5 113,-30.5 208,-30.5 208,-0.5 113,-0.5"/>
<text text-anchor="start" x="121" y="-18.5" font-family="Helvetica,sans-Serif" font-size="10.00">include/kernel/net</text>
<text text-anchor="middle" x="160.5" y="-7.5" font-family="Helvetica,sans-Serif" font-size="10.00">/dns.h</text>
</a>
</g>
</g>
<!-- Node3&#45;&gt;Node5 -->
<g id="edge4" class="edge">
<title>Node3&#45;&gt;Node5</title>
<path fill="none" stroke="midnightblue" d="M160.5,-57.11C160.5,-48.15 160.5,-38.32 160.5,-30.58"/>
<polygon fill="midnightblue" stroke="midnightblue" points="157,-57.4 160.5,-67.4 164,-57.4 157,-57.4"/>
</g>
<!-- Node6 -->
<g id="node6" class="node">
<title>Node6</title>
<g id="a_node6"><a xlink:href="ntp_8h.html" target="_top" xlink:title=" ">
<polygon fill="none" stroke="black" points="226,-0.5 226,-30.5 321,-30.5 321,-0.5 226,-0.5"/>
<text text-anchor="start" x="234" y="-18.5" font-family="Helvetica,sans-Serif" font-size="10.00">include/kernel/net</text>
<text text-anchor="middle" x="273.5" y="-7.5" font-family="Helvetica,sans-Serif" font-size="10.00">/ntp.h</text>
</a>
</g>
</g>
<!-- Node3&#45;&gt;Node6 -->
<g id="edge5" class="edge">
<title>Node3&#45;&gt;Node6</title>
<path fill="none" stroke="midnightblue" d="M193.89,-62.3C211.57,-52.12 232.9,-39.85 249.03,-30.58"/>
<polygon fill="midnightblue" stroke="midnightblue" points="191.94,-59.38 185.02,-67.4 195.43,-65.44 191.94,-59.38"/>
</g>
<!-- Node9 -->
<g id="node9" class="node">
<title>Node9</title>
<g id="a_node9"><a xlink:href="unistd_8h.html" target="_top" xlink:title=" ">
<polygon fill="none" stroke="black" points="351.5,-73 351.5,-92 455.5,-92 455.5,-73 351.5,-73"/>
<text text-anchor="middle" x="403.5" y="-80" font-family="Helvetica,sans-Serif" font-size="10.00">include/libc/unistd.h</text>
</a>
</g>
</g>
<!-- Node8&#45;&gt;Node9 -->
<g id="edge9" class="edge">
<title>Node8&#45;&gt;Node9</title>
<path fill="none" stroke="midnightblue" d="M403.5,-129.54C403.5,-117.17 403.5,-101.62 403.5,-92.13"/>
<polygon fill="midnightblue" stroke="midnightblue" points="400,-129.73 403.5,-139.73 407,-129.73 400,-129.73"/>
</g>
</g>
</svg>
