<?xml version="1.0" encoding="UTF-8" standalone="no"?>
<!DOCTYPE svg PUBLIC "-//W3C//DTD SVG 1.1//EN"
 "http://www.w3.org/Graphics/SVG/1.1/DTD/svg11.dtd">
<!-- Generated by graphviz version 2.49.3 (20211023.0002)
 -->
<!-- Title: include/libc/arpa/inet.h Pages: 1 -->
<svg width="203pt" height="196pt"
 viewBox="0.00 0.00 203.00 196.00" xmlns="http://www.w3.org/2000/svg" xmlns:xlink="http://www.w3.org/1999/xlink">
<g id="graph0" class="graph" transform="scale(1 1) rotate(0) translate(4 192)">
<title>include/libc/arpa/inet.h</title>
<!-- Node1 -->
<g id="node1" class="node">
<title>Node1</title>
<g id="a_node1"><a xlink:title=" ">
<polygon fill="#bfbfbf" stroke="black" points="43.5,-168.5 43.5,-187.5 159.5,-187.5 159.5,-168.5 43.5,-168.5"/>
<text text-anchor="middle" x="101.5" y="-175.5" font-family="Helvetica,sans-Serif" font-size="10.00">include/libc/arpa/inet.h</text>
</a>
</g>
</g>
<!-- Node2 -->
<g id="node2" class="node">
<title>Node2</title>
<g id="a_node2"><a xlink:href="socket_8h.html" target="_top" xlink:title=" ">
<polygon fill="none" stroke="black" points="33.5,-112.5 33.5,-131.5 105.5,-131.5 105.5,-112.5 33.5,-112.5"/>
<text text-anchor="middle" x="69.5" y="-119.5" font-family="Helvetica,sans-Serif" font-size="10.00">sys/socket.h</text>
</a>
</g>
</g>
<!-- Node1&#45;&gt;Node2 -->
<g id="edge1" class="edge">
<title>Node1&#45;&gt;Node2</title>
<path fill="none" stroke="midnightblue" d="M96.22,-168.08C91.79,-160.61 85.34,-149.72 79.88,-140.52"/>
<polygon fill="midnightblue" stroke="midnightblue" points="82.79,-138.57 74.69,-131.75 76.77,-142.14 82.79,-138.57"/>
</g>
<!-- Node3 -->
<g id="node3" class="node">
<title>Node3</title>
<g id="a_node3"><a xlink:href="types_8h.html" target="_top" xlink:title=" ">
<polygon fill="none" stroke="black" points="68,-56.5 68,-75.5 135,-75.5 135,-56.5 68,-56.5"/>
<text text-anchor="middle" x="101.5" y="-63.5" font-family="Helvetica,sans-Serif" font-size="10.00">sys/types.h</text>
</a>
</g>
</g>
<!-- Node1&#45;&gt;Node3 -->
<g id="edge6" class="edge">
<title>Node1&#45;&gt;Node3</title>
<path fill="none" stroke="midnightblue" d="M104.84,-168.2C108.05,-159.24 112.68,-144.88 114.5,-132 116.74,-116.15 112.71,-98.34 108.56,-85.38"/>
<polygon fill="midnightblue" stroke="midnightblue" points="111.81,-84.05 105.18,-75.78 105.2,-86.37 111.81,-84.05"/>
</g>
<!-- Node2&#45;&gt;Node3 -->
<g id="edge2" class="edge">
<title>Node2&#45;&gt;Node3</title>
<path fill="none" stroke="midnightblue" d="M74.78,-112.08C79.21,-104.61 85.66,-93.72 91.12,-84.52"/>
<polygon fill="midnightblue" stroke="midnightblue" points="94.23,-86.14 96.31,-75.75 88.21,-82.57 94.23,-86.14"/>
</g>
<!-- Node4 -->
<g id="node4" class="node">
<title>Node4</title>
<g id="a_node4"><a xlink:title=" ">
<polygon fill="none" stroke="#bfbfbf" points="0,-0.5 0,-19.5 57,-19.5 57,-0.5 0,-0.5"/>
<text text-anchor="middle" x="28.5" y="-7.5" font-family="Helvetica,sans-Serif" font-size="10.00">stdbool.h</text>
</a>
</g>
</g>
<!-- Node3&#45;&gt;Node4 -->
<g id="edge3" class="edge">
<title>Node3&#45;&gt;Node4</title>
<path fill="none" stroke="midnightblue" d="M89.77,-56.32C78.66,-48.11 61.76,-35.6 48.52,-25.81"/>
<polygon fill="midnightblue" stroke="midnightblue" points="50.56,-22.97 40.44,-19.83 46.4,-28.59 50.56,-22.97"/>
</g>
<!-- Node5 -->
<g id="node5" class="node">
<title>Node5</title>
<g id="a_node5"><a xlink:title=" ">
<polygon fill="none" stroke="#bfbfbf" points="75.5,-0.5 75.5,-19.5 127.5,-19.5 127.5,-0.5 75.5,-0.5"/>
<text text-anchor="middle" x="101.5" y="-7.5" font-family="Helvetica,sans-Serif" font-size="10.00">stddef.h</text>
</a>
</g>
</g>
<!-- Node3&#45;&gt;Node5 -->
<g id="edge4" class="edge">
<title>Node3&#45;&gt;Node5</title>
<path fill="none" stroke="midnightblue" d="M101.5,-56.08C101.5,-49.01 101.5,-38.86 101.5,-29.99"/>
<polygon fill="midnightblue" stroke="midnightblue" points="105,-29.75 101.5,-19.75 98,-29.75 105,-29.75"/>
</g>
<!-- Node6 -->
<g id="node6" class="node">
<title>Node6</title>
<g id="a_node6"><a xlink:title=" ">
<polygon fill="none" stroke="#bfbfbf" points="146,-0.5 146,-19.5 195,-19.5 195,-0.5 146,-0.5"/>
<text text-anchor="middle" x="170.5" y="-7.5" font-family="Helvetica,sans-Serif" font-size="10.00">stdint.h</text>
</a>
</g>
</g>
<!-- Node3&#45;&gt;Node6 -->
<g id="edge5" class="edge">
<title>Node3&#45;&gt;Node6</title>
<path fill="none" stroke="midnightblue" d="M112.59,-56.32C122.99,-48.18 138.76,-35.84 151.22,-26.09"/>
<polygon fill="midnightblue" stroke="midnightblue" points="153.49,-28.75 159.21,-19.83 149.18,-23.24 153.49,-28.75"/>
</g>
</g>
</svg>
