<?xml version="1.0" encoding="UTF-8" standalone="no"?>
<!DOCTYPE svg PUBLIC "-//W3C//DTD SVG 1.1//EN"
 "http://www.w3.org/Graphics/SVG/1.1/DTD/svg11.dtd">
<!-- Generated by graphviz version 3.0.0 (20220226.1711)
 -->
<!-- Title: include/kernel/config/inish.h Pages: 1 -->
<svg width="211pt" height="207pt"
 viewBox="0.00 0.00 210.50 207.00" xmlns="http://www.w3.org/2000/svg" xmlns:xlink="http://www.w3.org/1999/xlink">
<g id="graph0" class="graph" transform="scale(1 1) rotate(0) translate(4 203)">
<title>include/kernel/config/inish.h</title>
<!-- Node1 -->
<g id="node1" class="node">
<title>Node1</title>
<g id="a_node1"><a xlink:title=" ">
<polygon fill="#bfbfbf" stroke="black" points="40,-168.5 40,-198.5 146,-198.5 146,-168.5 40,-168.5"/>
<text text-anchor="start" x="48" y="-186.5" font-family="Helvetica,sans-Serif" font-size="10.00">include/kernel/config</text>
<text text-anchor="middle" x="93" y="-175.5" font-family="Helvetica,sans-Serif" font-size="10.00">/inish.h</text>
</a>
</g>
</g>
<!-- Node2 -->
<g id="node2" class="node">
<title>Node2</title>
<g id="a_node2"><a xlink:title=" ">
<polygon fill="none" stroke="#bfbfbf" points="0,-0.5 0,-19.5 56,-19.5 56,-0.5 0,-0.5"/>
<text text-anchor="middle" x="28" y="-7.5" font-family="Helvetica,sans-Serif" font-size="10.00">stdbool.h</text>
</a>
</g>
</g>
<!-- Node1&#45;&gt;Node2 -->
<g id="edge1" class="edge">
<title>Node1&#45;&gt;Node2</title>
<path fill="none" stroke="midnightblue" d="M87.68,-168.47C75.97,-137.57 47.97,-63.69 34.92,-29.25"/>
<polygon fill="midnightblue" stroke="midnightblue" points="38.06,-27.67 31.24,-19.56 31.52,-30.15 38.06,-27.67"/>
</g>
<!-- Node3 -->
<g id="node3" class="node">
<title>Node3</title>
<g id="a_node3"><a xlink:title=" ">
<polygon fill="none" stroke="#bfbfbf" points="153.5,-0.5 153.5,-19.5 202.5,-19.5 202.5,-0.5 153.5,-0.5"/>
<text text-anchor="middle" x="178" y="-7.5" font-family="Helvetica,sans-Serif" font-size="10.00">stdint.h</text>
</a>
</g>
</g>
<!-- Node1&#45;&gt;Node3 -->
<g id="edge2" class="edge">
<title>Node1&#45;&gt;Node3</title>
<path fill="none" stroke="midnightblue" d="M121.51,-168.36C135.71,-159.82 151.77,-147.55 161,-132 180.07,-99.89 180.95,-54.72 179.64,-29.64"/>
<polygon fill="midnightblue" stroke="midnightblue" points="183.13,-29.38 178.94,-19.65 176.15,-29.87 183.13,-29.38"/>
</g>
<!-- Node4 -->
<g id="node4" class="node">
<title>Node4</title>
<g id="a_node4"><a xlink:href="stat_8h.html" target="_top" xlink:title=" ">
<polygon fill="none" stroke="black" points="92,-112.5 92,-131.5 152,-131.5 152,-112.5 92,-112.5"/>
<text text-anchor="middle" x="122" y="-119.5" font-family="Helvetica,sans-Serif" font-size="10.00">sys/stat.h</text>
</a>
</g>
</g>
<!-- Node1&#45;&gt;Node4 -->
<g id="edge3" class="edge">
<title>Node1&#45;&gt;Node4</title>
<path fill="none" stroke="midnightblue" d="M99.87,-168.4C103.91,-160.11 109.06,-149.55 113.37,-140.71"/>
<polygon fill="midnightblue" stroke="midnightblue" points="116.55,-142.18 117.78,-131.66 110.25,-139.11 116.55,-142.18"/>
</g>
<!-- Node5 -->
<g id="node5" class="node">
<title>Node5</title>
<g id="a_node5"><a xlink:href="types_8h.html" target="_top" xlink:title=" ">
<polygon fill="none" stroke="black" points="72,-56.5 72,-75.5 140,-75.5 140,-56.5 72,-56.5"/>
<text text-anchor="middle" x="106" y="-63.5" font-family="Helvetica,sans-Serif" font-size="10.00">sys/types.h</text>
</a>
</g>
</g>
<!-- Node1&#45;&gt;Node5 -->
<g id="edge8" class="edge">
<title>Node1&#45;&gt;Node5</title>
<path fill="none" stroke="midnightblue" d="M87.88,-168.31C83.43,-153.96 78.37,-131.23 83,-112 85.31,-102.42 90.02,-92.58 94.58,-84.56"/>
<polygon fill="midnightblue" stroke="midnightblue" points="97.69,-86.17 99.9,-75.81 91.71,-82.54 97.69,-86.17"/>
</g>
<!-- Node4&#45;&gt;Node5 -->
<g id="edge4" class="edge">
<title>Node4&#45;&gt;Node5</title>
<path fill="none" stroke="midnightblue" d="M119.36,-112.08C117.21,-104.85 114.12,-94.41 111.45,-85.4"/>
<polygon fill="midnightblue" stroke="midnightblue" points="114.79,-84.34 108.59,-75.75 108.08,-86.33 114.79,-84.34"/>
</g>
<!-- Node5&#45;&gt;Node2 -->
<g id="edge5" class="edge">
<title>Node5&#45;&gt;Node2</title>
<path fill="none" stroke="midnightblue" d="M93.47,-56.32C81.41,-47.98 62.97,-35.21 48.73,-25.35"/>
<polygon fill="midnightblue" stroke="midnightblue" points="50.72,-22.47 40.5,-19.65 46.73,-28.22 50.72,-22.47"/>
</g>
<!-- Node5&#45;&gt;Node3 -->
<g id="edge7" class="edge">
<title>Node5&#45;&gt;Node3</title>
<path fill="none" stroke="midnightblue" d="M117.57,-56.32C128.42,-48.18 144.88,-35.84 157.88,-26.09"/>
<polygon fill="midnightblue" stroke="midnightblue" points="160.32,-28.63 166.22,-19.83 156.12,-23.03 160.32,-28.63"/>
</g>
<!-- Node6 -->
<g id="node6" class="node">
<title>Node6</title>
<g id="a_node6"><a xlink:title=" ">
<polygon fill="none" stroke="#bfbfbf" points="80,-0.5 80,-19.5 132,-19.5 132,-0.5 80,-0.5"/>
<text text-anchor="middle" x="106" y="-7.5" font-family="Helvetica,sans-Serif" font-size="10.00">stddef.h</text>
</a>
</g>
</g>
<!-- Node5&#45;&gt;Node6 -->
<g id="edge6" class="edge">
<title>Node5&#45;&gt;Node6</title>
<path fill="none" stroke="midnightblue" d="M106,-56.08C106,-49.01 106,-38.86 106,-29.99"/>
<polygon fill="midnightblue" stroke="midnightblue" points="109.5,-29.75 106,-19.75 102.5,-29.75 109.5,-29.75"/>
</g>
</g>
</svg>
