<?xml version="1.0" encoding="UTF-8" standalone="no"?>
<!DOCTYPE svg PUBLIC "-//W3C//DTD SVG 1.1//EN"
 "http://www.w3.org/Graphics/SVG/1.1/DTD/svg11.dtd">
<!-- Generated by graphviz version 8.0.2 (20230410.1723)
 -->
<!-- Title: inish_get_kv_pair Pages: 1 -->
<svg width="221pt" height="210pt"
 viewBox="0.00 0.00 221.00 210.00" xmlns="http://www.w3.org/2000/svg" xmlns:xlink="http://www.w3.org/1999/xlink">
<g id="graph0" class="graph" transform="scale(1 1) rotate(0) translate(4 206)">
<title>inish_get_kv_pair</title>
<!-- Node1 -->
<g id="Node000001" class="node">
<title>Node1</title>
<g id="a_Node000001"><a xlink:title=" ">
<polygon fill="#999999" stroke="#666666" points="213,-101 121,-101 121,-82 213,-82 213,-101"/>
<text text-anchor="middle" x="167" y="-89" font-family="Helvetica,sans-Serif" font-size="10.00">inish_get_kv_pair</text>
</a>
</g>
</g>
<!-- Node1&#45;&gt;Node1 -->
<g id="edge7_Node000001_Node000001" class="edge">
<title>Node1&#45;&gt;Node1</title>
<g id="a_edge7_Node000001_Node000001"><a xlink:title=" ">
<path fill="none" stroke="#63b8ff" d="M189.53,-111.76C187.16,-115.97 179.65,-119 167,-119 145.12,-119 138.62,-109.94 147.51,-101.37"/>
<polygon fill="#63b8ff" stroke="#63b8ff" points="192.66,-110.99 186.49,-102.37 185.94,-112.95 192.66,-110.99"/>
</a>
</g>
</g>
<!-- Node2 -->
<g id="Node000002" class="node">
<title>Node2</title>
<g id="a_Node000002"><a xlink:href="inish_8c.html#a40db81930c9627ef29d70791e003a8cd" target="_top" xlink:title=" ">
<polygon fill="white" stroke="#666666" points="82,-184 3,-184 3,-165 82,-165 82,-184"/>
<text text-anchor="middle" x="42.5" y="-172" font-family="Helvetica,sans-Serif" font-size="10.00">inish_get_bool</text>
</a>
</g>
</g>
<!-- Node1&#45;&gt;Node2 -->
<g id="edge1_Node000001_Node000002" class="edge">
<title>Node1&#45;&gt;Node2</title>
<g id="a_edge1_Node000001_Node000002"><a xlink:title=" ">
<path fill="none" stroke="#63b8ff" d="M147.81,-108.47C132.05,-122.57 108.19,-142.51 85,-156.5 80.02,-159.5 74.46,-162.27 69.06,-164.69"/>
<polygon fill="#63b8ff" stroke="#63b8ff" points="149.64,-111.63 154.68,-102.31 144.92,-106.45 149.64,-111.63"/>
</a>
</g>
</g>
<!-- Node3 -->
<g id="Node000003" class="node">
<title>Node3</title>
<g id="a_Node000003"><a xlink:href="inish_8c.html#a48978dc4fe4de1765edba0031a2f1f47" target="_top" xlink:title=" ">
<polygon fill="white" stroke="#666666" points="78,-129 7,-129 7,-110 78,-110 78,-129"/>
<text text-anchor="middle" x="42.5" y="-117" font-family="Helvetica,sans-Serif" font-size="10.00">inish_get_int</text>
</a>
</g>
</g>
<!-- Node1&#45;&gt;Node3 -->
<g id="edge3_Node000001_Node000003" class="edge">
<title>Node1&#45;&gt;Node3</title>
<g id="a_edge3_Node000001_Node000003"><a xlink:title=" ">
<path fill="none" stroke="#63b8ff" d="M111.77,-103.9C100.46,-106.48 88.83,-109.14 78.44,-111.51"/>
<polygon fill="#63b8ff" stroke="#63b8ff" points="112.5,-107.09 121.47,-101.45 110.94,-100.27 112.5,-107.09"/>
</a>
</g>
</g>
<!-- Node4 -->
<g id="Node000004" class="node">
<title>Node4</title>
<g id="a_Node000004"><a xlink:href="inish_8c.html#a7149712e2a187c4054c29d94b92470e5" target="_top" xlink:title=" ">
<polygon fill="white" stroke="#666666" points="82,-74 3,-74 3,-55 82,-55 82,-74"/>
<text text-anchor="middle" x="42.5" y="-62" font-family="Helvetica,sans-Serif" font-size="10.00">inish_get_ipv4</text>
</a>
</g>
</g>
<!-- Node1&#45;&gt;Node4 -->
<g id="edge5_Node000001_Node000004" class="edge">
<title>Node1&#45;&gt;Node4</title>
<g id="a_edge5_Node000001_Node000004"><a xlink:title=" ">
<path fill="none" stroke="#63b8ff" d="M110.16,-79.19C100.69,-77.11 91.05,-74.98 82.14,-73.02"/>
<polygon fill="#63b8ff" stroke="#63b8ff" points="109.21,-82.79 119.73,-81.52 110.72,-75.95 109.21,-82.79"/>
</a>
</g>
</g>
<!-- Node5 -->
<g id="Node000005" class="node">
<title>Node5</title>
<g id="a_Node000005"><a xlink:href="inish_8c.html#a8a888b751353eb11e233c0d32a29d10c" target="_top" xlink:title=" ">
<polygon fill="white" stroke="#666666" points="85,-19 0,-19 0,0 85,0 85,-19"/>
<text text-anchor="middle" x="42.5" y="-7" font-family="Helvetica,sans-Serif" font-size="10.00">inish_get_string</text>
</a>
</g>
</g>
<!-- Node1&#45;&gt;Node5 -->
<g id="edge8_Node000001_Node000005" class="edge">
<title>Node1&#45;&gt;Node5</title>
<g id="a_edge8_Node000001_Node000005"><a xlink:title=" ">
<path fill="none" stroke="#63b8ff" d="M142.37,-75.68C117.56,-59.07 79.3,-33.46 58.4,-19.47"/>
<polygon fill="#63b8ff" stroke="#63b8ff" points="140.21,-79.12 150.47,-81.77 144.1,-73.3 140.21,-79.12"/>
</a>
</g>
</g>
<!-- Node2&#45;&gt;Node2 -->
<g id="edge2_Node000002_Node000002" class="edge">
<title>Node2&#45;&gt;Node2</title>
<g id="a_edge2_Node000002_Node000002"><a xlink:title=" ">
<path fill="none" stroke="#63b8ff" d="M65.03,-194.76C62.66,-198.97 55.15,-202 42.5,-202 20.62,-202 14.12,-192.94 23.01,-184.37"/>
<polygon fill="#63b8ff" stroke="#63b8ff" points="68.16,-193.99 61.99,-185.37 61.44,-195.95 68.16,-193.99"/>
</a>
</g>
</g>
<!-- Node3&#45;&gt;Node3 -->
<g id="edge4_Node000003_Node000003" class="edge">
<title>Node3&#45;&gt;Node3</title>
<g id="a_edge4_Node000003_Node000003"><a xlink:title=" ">
<path fill="none" stroke="#63b8ff" d="M65.03,-139.76C62.66,-143.97 55.15,-147 42.5,-147 20.62,-147 14.12,-137.94 23.01,-129.37"/>
<polygon fill="#63b8ff" stroke="#63b8ff" points="68.16,-138.99 61.99,-130.37 61.44,-140.95 68.16,-138.99"/>
</a>
</g>
</g>
<!-- Node4&#45;&gt;Node4 -->
<g id="edge6_Node000004_Node000004" class="edge">
<title>Node4&#45;&gt;Node4</title>
<g id="a_edge6_Node000004_Node000004"><a xlink:title=" ">
<path fill="none" stroke="#63b8ff" d="M65.03,-84.76C62.66,-88.97 55.15,-92 42.5,-92 20.62,-92 14.12,-82.94 23.01,-74.37"/>
<polygon fill="#63b8ff" stroke="#63b8ff" points="68.16,-83.99 61.99,-75.37 61.44,-85.95 68.16,-83.99"/>
</a>
</g>
</g>
<!-- Node5&#45;&gt;Node5 -->
<g id="edge9_Node000005_Node000005" class="edge">
<title>Node5&#45;&gt;Node5</title>
<g id="a_edge9_Node000005_Node000005"><a xlink:title=" ">
<path fill="none" stroke="#63b8ff" d="M65.03,-29.76C62.66,-33.97 55.15,-37 42.5,-37 20.62,-37 14.12,-27.94 23.01,-19.37"/>
<polygon fill="#63b8ff" stroke="#63b8ff" points="68.16,-28.99 61.99,-20.37 61.44,-30.95 68.16,-28.99"/>
</a>
</g>
</g>
</g>
</svg>
