<?xml version="1.0" encoding="UTF-8" standalone="no"?>
<!DOCTYPE svg PUBLIC "-//W3C//DTD SVG 1.1//EN"
 "http://www.w3.org/Graphics/SVG/1.1/DTD/svg11.dtd">
<!-- Generated by graphviz version 8.0.2 (20230410.1723)
 -->
<!-- Title: inish_get_int Pages: 1 -->
<svg width="207pt" height="100pt"
 viewBox="0.00 0.00 207.00 100.00" xmlns="http://www.w3.org/2000/svg" xmlns:xlink="http://www.w3.org/1999/xlink">
<g id="graph0" class="graph" transform="scale(1 1) rotate(0) translate(4 96)">
<title>inish_get_int</title>
<!-- Node1 -->
<g id="Node000001" class="node">
<title>Node1</title>
<g id="a_Node000001"><a xlink:title=" ">
<polygon fill="#999999" stroke="#666666" points="71,-46 0,-46 0,-27 71,-27 71,-46"/>
<text text-anchor="middle" x="35.5" y="-34" font-family="Helvetica,sans-Serif" font-size="10.00">inish_get_int</text>
</a>
</g>
</g>
<!-- Node1&#45;&gt;Node1 -->
<g id="edge3_Node000001_Node000001" class="edge">
<title>Node1&#45;&gt;Node1</title>
<g id="a_edge3_Node000001_Node000001"><a xlink:title=" ">
<path fill="none" stroke="#63b8ff" d="M17.1,-46.37C8.71,-54.94 14.85,-64 35.5,-64 47.44,-64 54.53,-60.97 56.76,-56.76"/>
<polygon fill="#63b8ff" stroke="#63b8ff" points="59.93,-56.08 53.9,-47.37 53.18,-57.94 59.93,-56.08"/>
</a>
</g>
</g>
<!-- Node2 -->
<g id="Node000002" class="node">
<title>Node2</title>
<g id="a_Node000002"><a xlink:href="atoi_8c.html#aba146acbba01116cafaa55f720913ed8" target="_top" xlink:title=" ">
<polygon fill="white" stroke="#666666" points="169,-74 137,-74 137,-55 169,-55 169,-74"/>
<text text-anchor="middle" x="153" y="-62" font-family="Helvetica,sans-Serif" font-size="10.00">atoi</text>
</a>
</g>
</g>
<!-- Node1&#45;&gt;Node2 -->
<g id="edge1_Node000001_Node000002" class="edge">
<title>Node1&#45;&gt;Node2</title>
<g id="a_edge1_Node000001_Node000002"><a xlink:title=" ">
<path fill="none" stroke="#63b8ff" d="M71.47,-44.98C89.16,-49.27 110.25,-54.38 126.41,-58.3"/>
<polygon fill="#63b8ff" stroke="#63b8ff" points="125.17,-61.84 135.71,-60.79 126.82,-55.04 125.17,-61.84"/>
</a>
</g>
</g>
<!-- Node3 -->
<g id="Node000003" class="node">
<title>Node3</title>
<g id="a_Node000003"><a xlink:href="inish_8c.html#ab82e6fa9e31051b59219a253d556f5fa" target="_top" xlink:title=" ">
<polygon fill="white" stroke="#666666" points="199,-19 107,-19 107,0 199,0 199,-19"/>
<text text-anchor="middle" x="153" y="-7" font-family="Helvetica,sans-Serif" font-size="10.00">inish_get_kv_pair</text>
</a>
</g>
</g>
<!-- Node1&#45;&gt;Node3 -->
<g id="edge4_Node000001_Node000003" class="edge">
<title>Node1&#45;&gt;Node3</title>
<g id="a_edge4_Node000001_Node000003"><a xlink:title=" ">
<path fill="none" stroke="#63b8ff" d="M71.47,-28.33C80.15,-26.3 89.65,-24.07 98.99,-21.89"/>
<polygon fill="#63b8ff" stroke="#63b8ff" points="99.46,-25.14 108.4,-19.46 97.87,-18.33 99.46,-25.14"/>
</a>
</g>
</g>
<!-- Node2&#45;&gt;Node2 -->
<g id="edge2_Node000002_Node000002" class="edge">
<title>Node2&#45;&gt;Node2</title>
<g id="a_edge2_Node000002_Node000002"><a xlink:title=" ">
<path fill="none" stroke="#63b8ff" d="M136.83,-72.38C125.35,-81.47 130.74,-92 153,-92 167.96,-92 175.3,-87.25 175.02,-81.37"/>
<polygon fill="#63b8ff" stroke="#63b8ff" points="177.56,-79.85 169.17,-73.38 171.69,-83.67 177.56,-79.85"/>
</a>
</g>
</g>
<!-- Node3&#45;&gt;Node3 -->
<g id="edge5_Node000003_Node000003" class="edge">
<title>Node3&#45;&gt;Node3</title>
<g id="a_edge5_Node000003_Node000003"><a xlink:title=" ">
<path fill="none" stroke="#63b8ff" d="M134.6,-19.37C126.21,-27.94 132.35,-37 153,-37 164.94,-37 172.03,-33.97 174.26,-29.76"/>
<polygon fill="#63b8ff" stroke="#63b8ff" points="177.43,-29.08 171.4,-20.37 170.68,-30.94 177.43,-29.08"/>
</a>
</g>
</g>
</g>
</svg>
