<?xml version="1.0" encoding="UTF-8" standalone="no"?>
<!DOCTYPE svg PUBLIC "-//W3C//DTD SVG 1.1//EN"
 "http://www.w3.org/Graphics/SVG/1.1/DTD/svg11.dtd">
<!-- Generated by graphviz version 8.0.2 (20230410.1723)
 -->
<!-- Title: include/kernel/config/inish.h Pages: 1 -->
<svg width="211pt" height="207pt"
 viewBox="0.00 0.00 210.50 207.00" xmlns="http://www.w3.org/2000/svg" xmlns:xlink="http://www.w3.org/1999/xlink">
<g id="graph0" class="graph" transform="scale(1 1) rotate(0) translate(4 203)">
<title>include/kernel/config/inish.h</title>
<!-- Node1 -->
<g id="node1" class="node">
<title>Node1</title>
<g id="a_node1"><a xlink:title=" ">
<polygon fill="#bfbfbf" stroke="black" points="40,-168.5 40,-198.5 146,-198.5 146,-168.5 40,-168.5"/>
<text text-anchor="start" x="48" y="-186.5" font-family="Helvetica,sans-Serif" font-size="10.00">include/kernel/config</text>
<text text-anchor="middle" x="93" y="-175.5" font-family="Helvetica,sans-Serif" font-size="10.00">/inish.h</text>
</a>
</g>
</g>
<!-- Node2 -->
<g id="node2" class="node">
<title>Node2</title>
<g id="a_node2"><a xlink:title=" ">
<polygon fill="none" stroke="#bfbfbf" points="0,-0.5 0,-19.5 56,-19.5 56,-0.5 0,-0.5"/>
<text text-anchor="middle" x="28" y="-7.5" font-family="Helvetica,sans-Serif" font-size="10.00">stdbool.h</text>
</a>
</g>
</g>
<!-- Node1&#45;&gt;Node2 -->
<g id="edge1" class="edge">
<title>Node1&#45;&gt;Node2</title>
<path fill="none" stroke="midnightblue" d="M87.79,-168.76C76.15,-138.05 48.04,-63.86 34.93,-29.3"/>
<polygon fill="midnightblue" stroke="midnightblue" points="37.93,-28.32 31.11,-20.21 31.38,-30.8 37.93,-28.32"/>
</g>
<!-- Node3 -->
<g id="node3" class="node">
<title>Node3</title>
<g id="a_node3"><a xlink:title=" ">
<polygon fill="none" stroke="#bfbfbf" points="153.5,-0.5 153.5,-19.5 202.5,-19.5 202.5,-0.5 153.5,-0.5"/>
<text text-anchor="middle" x="178" y="-7.5" font-family="Helvetica,sans-Serif" font-size="10.00">stdint.h</text>
</a>
</g>
</g>
<!-- Node1&#45;&gt;Node3 -->
<g id="edge2" class="edge">
<title>Node1&#45;&gt;Node3</title>
<path fill="none" stroke="midnightblue" d="M121.17,-168.57C135.45,-160.02 151.69,-147.68 161,-132 179.9,-100.17 180.93,-55.5 179.67,-30.3"/>
<polygon fill="midnightblue" stroke="midnightblue" points="183.1,-30.08 178.92,-20.34 176.11,-30.56 183.1,-30.08"/>
</g>
<!-- Node4 -->
<g id="node4" class="node">
<title>Node4</title>
<g id="a_node4"><a xlink:href="stat_8h.html" target="_top" xlink:title=" ">
<polygon fill="none" stroke="black" points="92,-112.5 92,-131.5 152,-131.5 152,-112.5 92,-112.5"/>
<text text-anchor="middle" x="122" y="-119.5" font-family="Helvetica,sans-Serif" font-size="10.00">sys/stat.h</text>
</a>
</g>
</g>
<!-- Node1&#45;&gt;Node4 -->
<g id="edge3" class="edge">
<title>Node1&#45;&gt;Node4</title>
<path fill="none" stroke="midnightblue" d="M99.73,-168.7C103.72,-160.5 108.84,-150 113.16,-141.14"/>
<polygon fill="midnightblue" stroke="midnightblue" points="116.67,-142.92 117.91,-132.4 110.38,-139.85 116.67,-142.92"/>
</g>
<!-- Node5 -->
<g id="node5" class="node">
<title>Node5</title>
<g id="a_node5"><a xlink:href="types_8h.html" target="_top" xlink:title=" ">
<polygon fill="none" stroke="black" points="72,-56.5 72,-75.5 140,-75.5 140,-56.5 72,-56.5"/>
<text text-anchor="middle" x="106" y="-63.5" font-family="Helvetica,sans-Serif" font-size="10.00">sys/types.h</text>
</a>
</g>
</g>
<!-- Node1&#45;&gt;Node5 -->
<g id="edge8" class="edge">
<title>Node1&#45;&gt;Node5</title>
<path fill="none" stroke="midnightblue" d="M87.97,-168.57C83.5,-154.25 78.34,-131.35 83,-112 85.28,-102.51 89.93,-92.77 94.45,-84.79"/>
<polygon fill="midnightblue" stroke="midnightblue" points="97.9,-86.84 100.11,-76.48 91.92,-83.21 97.9,-86.84"/>
</g>
<!-- Node4&#45;&gt;Node5 -->
<g id="edge4" class="edge">
<title>Node4&#45;&gt;Node5</title>
<path fill="none" stroke="midnightblue" d="M119.5,-112.56C117.37,-105.39 114.24,-94.82 111.53,-85.67"/>
<polygon fill="midnightblue" stroke="midnightblue" points="114.63,-84.8 108.43,-76.2 107.92,-86.78 114.63,-84.8"/>
</g>
<!-- Node5&#45;&gt;Node2 -->
<g id="edge5" class="edge">
<title>Node5&#45;&gt;Node2</title>
<path fill="none" stroke="midnightblue" d="M93.81,-56.56C81.79,-48.24 63.18,-35.36 48.82,-25.41"/>
<polygon fill="midnightblue" stroke="midnightblue" points="51.32,-22.19 41.1,-19.38 47.33,-27.95 51.32,-22.19"/>
</g>
<!-- Node5&#45;&gt;Node3 -->
<g id="edge7" class="edge">
<title>Node5&#45;&gt;Node3</title>
<path fill="none" stroke="midnightblue" d="M117.25,-56.56C128.3,-48.27 145.39,-35.45 158.63,-25.52"/>
<polygon fill="midnightblue" stroke="midnightblue" points="160.16,-28 166.06,-19.2 155.96,-22.4 160.16,-28"/>
</g>
<!-- Node6 -->
<g id="node6" class="node">
<title>Node6</title>
<g id="a_node6"><a xlink:title=" ">
<polygon fill="none" stroke="#bfbfbf" points="80,-0.5 80,-19.5 132,-19.5 132,-0.5 80,-0.5"/>
<text text-anchor="middle" x="106" y="-7.5" font-family="Helvetica,sans-Serif" font-size="10.00">stddef.h</text>
</a>
</g>
</g>
<!-- Node5&#45;&gt;Node6 -->
<g id="edge6" class="edge">
<title>Node5&#45;&gt;Node6</title>
<path fill="none" stroke="midnightblue" d="M106,-56.56C106,-49.47 106,-39.06 106,-29.98"/>
<polygon fill="midnightblue" stroke="midnightblue" points="109.5,-30.2 106,-20.2 102.5,-30.2 109.5,-30.2"/>
</g>
</g>
</svg>
