<?xml version="1.0" encoding="UTF-8" standalone="no"?>
<!DOCTYPE svg PUBLIC "-//W3C//DTD SVG 1.1//EN"
 "http://www.w3.org/Graphics/SVG/1.1/DTD/svg11.dtd">
<!-- Generated by graphviz version 8.0.2 (20230410.1723)
 -->
<!-- Title: inish_load Pages: 1 -->
<svg width="374pt" height="100pt"
 viewBox="0.00 0.00 374.00 100.00" xmlns="http://www.w3.org/2000/svg" xmlns:xlink="http://www.w3.org/1999/xlink">
<g id="graph0" class="graph" transform="scale(1 1) rotate(0) translate(4 96)">
<title>inish_load</title>
<!-- Node1 -->
<g id="Node000001" class="node">
<title>Node1</title>
<g id="a_Node000001"><a xlink:title=" ">
<polygon fill="#999999" stroke="#666666" points="60,-46 0,-46 0,-27 60,-27 60,-46"/>
<text text-anchor="middle" x="30" y="-34" font-family="Helvetica,sans-Serif" font-size="10.00">inish_load</text>
</a>
</g>
</g>
<!-- Node1&#45;&gt;Node1 -->
<g id="edge3_Node000001_Node000001" class="edge">
<title>Node1&#45;&gt;Node1</title>
<g id="a_edge3_Node000001_Node000001"><a xlink:title=" ">
<path fill="none" stroke="#63b8ff" d="M16.54,-46.37C10.39,-54.94 14.88,-64 30,-64 38.5,-64 43.64,-61.13 45.42,-57.1"/>
<polygon fill="#63b8ff" stroke="#63b8ff" points="48.7,-56.58 43.46,-47.37 41.81,-57.83 48.7,-56.58"/>
</a>
</g>
</g>
<!-- Node2 -->
<g id="Node000002" class="node">
<title>Node2</title>
<g id="a_Node000002"><a xlink:href="close_8c.html#aafbcde67669a1b96577e735ddebd8634" target="_top" xlink:title=" ">
<polygon fill="white" stroke="#666666" points="136,-74 96,-74 96,-55 136,-55 136,-74"/>
<text text-anchor="middle" x="116" y="-62" font-family="Helvetica,sans-Serif" font-size="10.00">close</text>
</a>
</g>
</g>
<!-- Node1&#45;&gt;Node2 -->
<g id="edge1_Node000001_Node000002" class="edge">
<title>Node1&#45;&gt;Node2</title>
<g id="a_edge1_Node000001_Node000002"><a xlink:title=" ">
<path fill="none" stroke="#63b8ff" d="M60.38,-46.29C68.38,-48.96 77.06,-51.85 85.09,-54.53"/>
<polygon fill="#63b8ff" stroke="#63b8ff" points="83.92,-58.16 94.51,-58 86.13,-51.52 83.92,-58.16"/>
</a>
</g>
</g>
<!-- Node3 -->
<g id="Node000003" class="node">
<title>Node3</title>
<g id="a_Node000003"><a xlink:href="open_8c.html#ab7c31bf64ff68f61762bda6e72e255d6" target="_top" xlink:title=" ">
<polygon fill="white" stroke="#666666" points="135,-19 97,-19 97,0 135,0 135,-19"/>
<text text-anchor="middle" x="116" y="-7" font-family="Helvetica,sans-Serif" font-size="10.00">open</text>
</a>
</g>
</g>
<!-- Node1&#45;&gt;Node3 -->
<g id="edge4_Node000001_Node000003" class="edge">
<title>Node1&#45;&gt;Node3</title>
<g id="a_edge4_Node000001_Node000003"><a xlink:title=" ">
<path fill="none" stroke="#63b8ff" d="M60.38,-27.06C68.73,-24.37 77.82,-21.45 86.15,-18.77"/>
<polygon fill="#63b8ff" stroke="#63b8ff" points="87.07,-21.83 95.52,-15.44 84.93,-15.17 87.07,-21.83"/>
</a>
</g>
</g>
<!-- Node2&#45;&gt;Node2 -->
<g id="edge2_Node000002_Node000002" class="edge">
<title>Node2&#45;&gt;Node2</title>
<g id="a_edge2_Node000002_Node000002"><a xlink:title=" ">
<path fill="none" stroke="#63b8ff" d="M103.48,-74.37C97.76,-82.94 101.94,-92 116,-92 123.91,-92 128.69,-89.13 130.34,-85.1"/>
<polygon fill="#63b8ff" stroke="#63b8ff" points="133.65,-84.64 128.52,-75.37 126.75,-85.81 133.65,-84.64"/>
</a>
</g>
</g>
<!-- Node3&#45;&gt;Node3 -->
<g id="edge9_Node000003_Node000003" class="edge">
<title>Node3&#45;&gt;Node3</title>
<g id="a_edge9_Node000003_Node000003"><a xlink:title=" ">
<path fill="none" stroke="#63b8ff" d="M103.48,-19.37C97.76,-27.94 101.94,-37 116,-37 123.91,-37 128.69,-34.13 130.34,-30.1"/>
<polygon fill="#63b8ff" stroke="#63b8ff" points="133.65,-29.64 128.52,-20.37 126.75,-30.81 133.65,-29.64"/>
</a>
</g>
</g>
<!-- Node4 -->
<g id="Node000004" class="node">
<title>Node4</title>
<g id="a_Node000004"><a xlink:href="k__open_8c.html#a8665b78926682de513294b0733aa72e4" target="_top" xlink:title=" ">
<polygon fill="white" stroke="#666666" points="220,-19 172,-19 172,0 220,0 220,-19"/>
<text text-anchor="middle" x="196" y="-7" font-family="Helvetica,sans-Serif" font-size="10.00">k_open</text>
</a>
</g>
</g>
<!-- Node3&#45;&gt;Node4 -->
<g id="edge5_Node000003_Node000004" class="edge">
<title>Node3&#45;&gt;Node4</title>
<g id="a_edge5_Node000003_Node000004"><a xlink:title=" ">
<path fill="none" stroke="#63b8ff" d="M135.48,-9.5C143.09,-9.5 152.14,-9.5 160.87,-9.5"/>
<polygon fill="#63b8ff" stroke="#63b8ff" points="160.61,-13 170.61,-9.5 160.61,-6 160.61,-13"/>
</a>
</g>
</g>
<!-- Node4&#45;&gt;Node4 -->
<g id="edge8_Node000004_Node000004" class="edge">
<title>Node4&#45;&gt;Node4</title>
<g id="a_edge8_Node000004_Node000004"><a xlink:title=" ">
<path fill="none" stroke="#63b8ff" d="M183.48,-19.37C177.76,-27.94 181.94,-37 196,-37 203.91,-37 208.69,-34.13 210.34,-30.1"/>
<polygon fill="#63b8ff" stroke="#63b8ff" points="213.65,-29.64 208.52,-20.37 206.75,-30.81 213.65,-29.64"/>
</a>
</g>
</g>
<!-- Node5 -->
<g id="Node000005" class="node">
<title>Node5</title>
<g id="a_Node000005"><a xlink:href="descriptor_8c.html#a9d772be036ad7ec4e9e926a190b76003" target="_top" xlink:title=" ">
<polygon fill="white" stroke="#666666" points="366,-19 256,-19 256,0 366,0 366,-19"/>
<text text-anchor="middle" x="311" y="-7" font-family="Helvetica,sans-Serif" font-size="10.00">create_file_descriptor</text>
</a>
</g>
</g>
<!-- Node4&#45;&gt;Node5 -->
<g id="edge6_Node000004_Node000005" class="edge">
<title>Node4&#45;&gt;Node5</title>
<g id="a_edge6_Node000004_Node000005"><a xlink:title=" ">
<path fill="none" stroke="#63b8ff" d="M220.41,-9.5C227.77,-9.5 236.27,-9.5 245.06,-9.5"/>
<polygon fill="#63b8ff" stroke="#63b8ff" points="244.86,-13 254.86,-9.5 244.86,-6 244.86,-13"/>
</a>
</g>
</g>
<!-- Node5&#45;&gt;Node5 -->
<g id="edge7_Node000005_Node000005" class="edge">
<title>Node5&#45;&gt;Node5</title>
<g id="a_edge7_Node000005_Node000005"><a xlink:title=" ">
<path fill="none" stroke="#63b8ff" d="M293,-19.37C284.78,-27.94 290.79,-37 311,-37 322.69,-37 329.62,-33.97 331.81,-29.76"/>
<polygon fill="#63b8ff" stroke="#63b8ff" points="334.99,-29.11 329,-20.37 328.23,-30.93 334.99,-29.11"/>
</a>
</g>
</g>
</g>
</svg>
