<?xml version="1.0" encoding="UTF-8" standalone="no"?>
<!DOCTYPE svg PUBLIC "-//W3C//DTD SVG 1.1//EN"
 "http://www.w3.org/Graphics/SVG/1.1/DTD/svg11.dtd">
<!-- Generated by graphviz version 2.49.3 (20211023.0002)
 -->
<!-- Title: inish_load Pages: 1 -->
<svg width="146pt" height="66pt"
 viewBox="0.00 0.00 146.00 66.00" xmlns="http://www.w3.org/2000/svg" xmlns:xlink="http://www.w3.org/1999/xlink">
<g id="graph0" class="graph" transform="scale(1 1) rotate(0) translate(4 62)">
<title>inish_load</title>
<!-- Node1 -->
<g id="node1" class="node">
<title>Node1</title>
<g id="a_node1"><a xlink:title=" ">
<polygon fill="#bfbfbf" stroke="black" points="0,-19.5 0,-38.5 62,-38.5 62,-19.5 0,-19.5"/>
<text text-anchor="middle" x="31" y="-26.5" font-family="Helvetica,sans-Serif" font-size="10.00">inish_load</text>
</a>
</g>
</g>
<!-- Node2 -->
<g id="node2" class="node">
<title>Node2</title>
<g id="a_node2"><a xlink:href="syscall_8h.html#aafbcde67669a1b96577e735ddebd8634" target="_top" xlink:title=" ">
<polygon fill="none" stroke="black" points="98,-38.5 98,-57.5 138,-57.5 138,-38.5 98,-38.5"/>
<text text-anchor="middle" x="118" y="-45.5" font-family="Helvetica,sans-Serif" font-size="10.00">close</text>
</a>
</g>
</g>
<!-- Node1&#45;&gt;Node2 -->
<g id="edge1" class="edge">
<title>Node1&#45;&gt;Node2</title>
<path fill="none" stroke="midnightblue" d="M62.21,-35.75C70.53,-37.61 79.54,-39.63 87.8,-41.47"/>
<polygon fill="midnightblue" stroke="midnightblue" points="87.24,-44.93 97.76,-43.7 88.76,-38.1 87.24,-44.93"/>
</g>
<!-- Node3 -->
<g id="node3" class="node">
<title>Node3</title>
<g id="a_node3"><a xlink:href="syscall_8h.html#ab7c31bf64ff68f61762bda6e72e255d6" target="_top" xlink:title=" ">
<polygon fill="none" stroke="black" points="98.5,-0.5 98.5,-19.5 137.5,-19.5 137.5,-0.5 98.5,-0.5"/>
<text text-anchor="middle" x="118" y="-7.5" font-family="Helvetica,sans-Serif" font-size="10.00">open</text>
</a>
</g>
</g>
<!-- Node1&#45;&gt;Node3 -->
<g id="edge2" class="edge">
<title>Node1&#45;&gt;Node3</title>
<path fill="none" stroke="midnightblue" d="M62.21,-22.25C70.76,-20.34 80.03,-18.26 88.48,-16.38"/>
<polygon fill="midnightblue" stroke="midnightblue" points="89.27,-19.79 98.26,-14.19 87.74,-12.95 89.27,-19.79"/>
</g>
</g>
</svg>
