<?xml version="1.0" encoding="UTF-8" standalone="no"?>
<!DOCTYPE svg PUBLIC "-//W3C//DTD SVG 1.1//EN"
 "http://www.w3.org/Graphics/SVG/1.1/DTD/svg11.dtd">
<!-- Generated by graphviz version 8.0.2 (20230410.1723)
 -->
<!-- Title: inish_get_ipv4 Pages: 1 -->
<svg width="215pt" height="100pt"
 viewBox="0.00 0.00 215.00 100.00" xmlns="http://www.w3.org/2000/svg" xmlns:xlink="http://www.w3.org/1999/xlink">
<g id="graph0" class="graph" transform="scale(1 1) rotate(0) translate(4 96)">
<title>inish_get_ipv4</title>
<!-- Node1 -->
<g id="Node000001" class="node">
<title>Node1</title>
<g id="a_Node000001"><a xlink:title=" ">
<polygon fill="#999999" stroke="#666666" points="79,-46 0,-46 0,-27 79,-27 79,-46"/>
<text text-anchor="middle" x="39.5" y="-34" font-family="Helvetica,sans-Serif" font-size="10.00">inish_get_ipv4</text>
</a>
</g>
</g>
<!-- Node1&#45;&gt;Node1 -->
<g id="edge3_Node000001_Node000001" class="edge">
<title>Node1&#45;&gt;Node1</title>
<g id="a_edge3_Node000001_Node000001"><a xlink:title=" ">
<path fill="none" stroke="#63b8ff" d="M20.48,-46.37C11.8,-54.94 18.14,-64 39.5,-64 51.85,-64 59.18,-60.97 61.48,-56.76"/>
<polygon fill="#63b8ff" stroke="#63b8ff" points="64.63,-56.03 58.52,-47.37 57.9,-57.94 64.63,-56.03"/>
</a>
</g>
</g>
<!-- Node2 -->
<g id="Node000002" class="node">
<title>Node2</title>
<g id="a_Node000002"><a xlink:href="atoi_8c.html#aba146acbba01116cafaa55f720913ed8" target="_top" xlink:title=" ">
<polygon fill="white" stroke="#666666" points="177,-74 145,-74 145,-55 177,-55 177,-74"/>
<text text-anchor="middle" x="161" y="-62" font-family="Helvetica,sans-Serif" font-size="10.00">atoi</text>
</a>
</g>
</g>
<!-- Node1&#45;&gt;Node2 -->
<g id="edge1_Node000001_Node000002" class="edge">
<title>Node1&#45;&gt;Node2</title>
<g id="a_edge1_Node000001_Node000002"><a xlink:title=" ">
<path fill="none" stroke="#63b8ff" d="M79.3,-45.59C97.18,-49.78 117.92,-54.64 133.9,-58.38"/>
<polygon fill="#63b8ff" stroke="#63b8ff" points="133.05,-62.01 143.58,-60.89 134.65,-55.2 133.05,-62.01"/>
</a>
</g>
</g>
<!-- Node3 -->
<g id="Node000003" class="node">
<title>Node3</title>
<g id="a_Node000003"><a xlink:href="inish_8c.html#ab82e6fa9e31051b59219a253d556f5fa" target="_top" xlink:title=" ">
<polygon fill="white" stroke="#666666" points="207,-19 115,-19 115,0 207,0 207,-19"/>
<text text-anchor="middle" x="161" y="-7" font-family="Helvetica,sans-Serif" font-size="10.00">inish_get_kv_pair</text>
</a>
</g>
</g>
<!-- Node1&#45;&gt;Node3 -->
<g id="edge4_Node000001_Node000003" class="edge">
<title>Node1&#45;&gt;Node3</title>
<g id="a_edge4_Node000001_Node000003"><a xlink:title=" ">
<path fill="none" stroke="#63b8ff" d="M79.3,-27.73C87.63,-25.85 96.59,-23.83 105.39,-21.84"/>
<polygon fill="#63b8ff" stroke="#63b8ff" points="106.03,-25.06 115.01,-19.44 104.48,-18.23 106.03,-25.06"/>
</a>
</g>
</g>
<!-- Node2&#45;&gt;Node2 -->
<g id="edge2_Node000002_Node000002" class="edge">
<title>Node2&#45;&gt;Node2</title>
<g id="a_edge2_Node000002_Node000002"><a xlink:title=" ">
<path fill="none" stroke="#63b8ff" d="M144.65,-72.1C132.29,-81.25 137.74,-92 161,-92 176.99,-92 184.56,-86.92 183.72,-80.77"/>
<polygon fill="#63b8ff" stroke="#63b8ff" points="186.09,-79.09 177.35,-73.1 180.45,-83.23 186.09,-79.09"/>
</a>
</g>
</g>
<!-- Node3&#45;&gt;Node3 -->
<g id="edge5_Node000003_Node000003" class="edge">
<title>Node3&#45;&gt;Node3</title>
<g id="a_edge5_Node000003_Node000003"><a xlink:title=" ">
<path fill="none" stroke="#63b8ff" d="M141.98,-19.37C133.3,-27.94 139.64,-37 161,-37 173.35,-37 180.68,-33.97 182.98,-29.76"/>
<polygon fill="#63b8ff" stroke="#63b8ff" points="186.13,-29.03 180.02,-20.37 179.4,-30.94 186.13,-29.03"/>
</a>
</g>
</g>
</g>
</svg>
