<?xml version="1.0" encoding="UTF-8" standalone="no"?>
<!DOCTYPE svg PUBLIC "-//W3C//DTD SVG 1.1//EN"
 "http://www.w3.org/Graphics/SVG/1.1/DTD/svg11.dtd">
<!-- Generated by graphviz version 8.0.2 (20230410.1723)
 -->
<!-- Title: inish_get_kv_pair Pages: 1 -->
<svg width="221pt" height="142pt"
 viewBox="0.00 0.00 221.00 142.00" xmlns="http://www.w3.org/2000/svg" xmlns:xlink="http://www.w3.org/1999/xlink">
<g id="graph0" class="graph" transform="scale(1 1) rotate(0) translate(4 138)">
<title>inish_get_kv_pair</title>
<!-- Node1 -->
<g id="node1" class="node">
<title>Node1</title>
<g id="a_node1"><a xlink:title=" ">
<polygon fill="#bfbfbf" stroke="black" points="121,-57.5 121,-76.5 213,-76.5 213,-57.5 121,-57.5"/>
<text text-anchor="middle" x="167" y="-64.5" font-family="Helvetica,sans-Serif" font-size="10.00">inish_get_kv_pair</text>
</a>
</g>
</g>
<!-- Node2 -->
<g id="node2" class="node">
<title>Node2</title>
<g id="a_node2"><a xlink:href="inish_8c.html#a40db81930c9627ef29d70791e003a8cd" target="_top" xlink:title=" ">
<polygon fill="none" stroke="black" points="3,-114.5 3,-133.5 82,-133.5 82,-114.5 3,-114.5"/>
<text text-anchor="middle" x="42.5" y="-121.5" font-family="Helvetica,sans-Serif" font-size="10.00">inish_get_bool</text>
</a>
</g>
</g>
<!-- Node1&#45;&gt;Node2 -->
<g id="edge1" class="edge">
<title>Node1&#45;&gt;Node2</title>
<path fill="none" stroke="midnightblue" d="M136.12,-81.1C120.85,-88.29 101.95,-97.15 85,-105 78.24,-108.13 70.85,-111.53 64.2,-114.57"/>
<polygon fill="midnightblue" stroke="midnightblue" points="137.5,-83.85 145.05,-76.42 134.51,-77.52 137.5,-83.85"/>
</g>
<!-- Node3 -->
<g id="node3" class="node">
<title>Node3</title>
<g id="a_node3"><a xlink:href="inish_8c.html#a48978dc4fe4de1765edba0031a2f1f47" target="_top" xlink:title=" ">
<polygon fill="none" stroke="black" points="7,-76.5 7,-95.5 78,-95.5 78,-76.5 7,-76.5"/>
<text text-anchor="middle" x="42.5" y="-83.5" font-family="Helvetica,sans-Serif" font-size="10.00">inish_get_int</text>
</a>
</g>
</g>
<!-- Node1&#45;&gt;Node3 -->
<g id="edge2" class="edge">
<title>Node1&#45;&gt;Node3</title>
<path fill="none" stroke="midnightblue" d="M110.49,-75.61C99.3,-77.35 87.86,-79.12 77.67,-80.7"/>
<polygon fill="midnightblue" stroke="midnightblue" points="110.74,-78.96 120.08,-73.97 109.66,-72.04 110.74,-78.96"/>
</g>
<!-- Node4 -->
<g id="node4" class="node">
<title>Node4</title>
<g id="a_node4"><a xlink:href="inish_8c.html#a7149712e2a187c4054c29d94b92470e5" target="_top" xlink:title=" ">
<polygon fill="none" stroke="black" points="3,-38.5 3,-57.5 82,-57.5 82,-38.5 3,-38.5"/>
<text text-anchor="middle" x="42.5" y="-45.5" font-family="Helvetica,sans-Serif" font-size="10.00">inish_get_ipv4</text>
</a>
</g>
</g>
<!-- Node1&#45;&gt;Node4 -->
<g id="edge3" class="edge">
<title>Node1&#45;&gt;Node4</title>
<path fill="none" stroke="midnightblue" d="M110.37,-58.37C100.77,-56.88 90.98,-55.36 81.96,-53.97"/>
<polygon fill="midnightblue" stroke="midnightblue" points="109.66,-61.96 120.08,-60.03 110.74,-55.04 109.66,-61.96"/>
</g>
<!-- Node5 -->
<g id="node5" class="node">
<title>Node5</title>
<g id="a_node5"><a xlink:href="inish_8c.html#a8a888b751353eb11e233c0d32a29d10c" target="_top" xlink:title=" ">
<polygon fill="none" stroke="black" points="0,-0.5 0,-19.5 85,-19.5 85,-0.5 0,-0.5"/>
<text text-anchor="middle" x="42.5" y="-7.5" font-family="Helvetica,sans-Serif" font-size="10.00">inish_get_string</text>
</a>
</g>
</g>
<!-- Node1&#45;&gt;Node5 -->
<g id="edge4" class="edge">
<title>Node1&#45;&gt;Node5</title>
<path fill="none" stroke="midnightblue" d="M136.12,-52.9C120.85,-45.71 101.95,-36.85 85,-29 78.24,-25.87 70.85,-22.47 64.2,-19.43"/>
<polygon fill="midnightblue" stroke="midnightblue" points="134.51,-56.48 145.05,-57.58 137.5,-50.15 134.51,-56.48"/>
</g>
</g>
</svg>
