<?xml version="1.0" encoding="UTF-8" standalone="no"?>
<!DOCTYPE svg PUBLIC "-//W3C//DTD SVG 1.1//EN"
 "http://www.w3.org/Graphics/SVG/1.1/DTD/svg11.dtd">
<!-- Generated by graphviz version 8.0.2 (20230410.1723)
 -->
<!-- Title: inish_get_bool Pages: 1 -->
<svg width="215pt" height="45pt"
 viewBox="0.00 0.00 215.00 45.00" xmlns="http://www.w3.org/2000/svg" xmlns:xlink="http://www.w3.org/1999/xlink">
<g id="graph0" class="graph" transform="scale(1 1) rotate(0) translate(4 41)">
<title>inish_get_bool</title>
<!-- Node1 -->
<g id="Node000001" class="node">
<title>Node1</title>
<g id="a_Node000001"><a xlink:title=" ">
<polygon fill="#999999" stroke="#666666" points="79,-19 0,-19 0,0 79,0 79,-19"/>
<text text-anchor="middle" x="39.5" y="-7" font-family="Helvetica,sans-Serif" font-size="10.00">inish_get_bool</text>
</a>
</g>
</g>
<!-- Node1&#45;&gt;Node1 -->
<g id="edge1_Node000001_Node000001" class="edge">
<title>Node1&#45;&gt;Node1</title>
<g id="a_edge1_Node000001_Node000001"><a xlink:title=" ">
<path fill="none" stroke="#63b8ff" d="M20.48,-19.37C11.8,-27.94 18.14,-37 39.5,-37 51.85,-37 59.18,-33.97 61.48,-29.76"/>
<polygon fill="#63b8ff" stroke="#63b8ff" points="64.63,-29.03 58.52,-20.37 57.9,-30.94 64.63,-29.03"/>
</a>
</g>
</g>
<!-- Node2 -->
<g id="Node000002" class="node">
<title>Node2</title>
<g id="a_Node000002"><a xlink:href="inish_8c.html#ab82e6fa9e31051b59219a253d556f5fa" target="_top" xlink:title=" ">
<polygon fill="white" stroke="#666666" points="207,-19 115,-19 115,0 207,0 207,-19"/>
<text text-anchor="middle" x="161" y="-7" font-family="Helvetica,sans-Serif" font-size="10.00">inish_get_kv_pair</text>
</a>
</g>
</g>
<!-- Node1&#45;&gt;Node2 -->
<g id="edge2_Node000001_Node000002" class="edge">
<title>Node1&#45;&gt;Node2</title>
<g id="a_edge2_Node000001_Node000002"><a xlink:title=" ">
<path fill="none" stroke="#63b8ff" d="M79.3,-9.5C87.16,-9.5 95.59,-9.5 103.91,-9.5"/>
<polygon fill="#63b8ff" stroke="#63b8ff" points="103.75,-13 113.75,-9.5 103.75,-6 103.75,-13"/>
</a>
</g>
</g>
<!-- Node2&#45;&gt;Node2 -->
<g id="edge3_Node000002_Node000002" class="edge">
<title>Node2&#45;&gt;Node2</title>
<g id="a_edge3_Node000002_Node000002"><a xlink:title=" ">
<path fill="none" stroke="#63b8ff" d="M141.98,-19.37C133.3,-27.94 139.64,-37 161,-37 173.35,-37 180.68,-33.97 182.98,-29.76"/>
<polygon fill="#63b8ff" stroke="#63b8ff" points="186.13,-29.03 180.02,-20.37 179.4,-30.94 186.13,-29.03"/>
</a>
</g>
</g>
</g>
</svg>
