<?xml version="1.0" encoding="UTF-8" standalone="no"?>
<!DOCTYPE svg PUBLIC "-//W3C//DTD SVG 1.1//EN"
 "http://www.w3.org/Graphics/SVG/1.1/DTD/svg11.dtd">
<!-- Generated by graphviz version 9.0.0 (20230911.1827)
 -->
<!-- Title: include/kernel/config/inish.h Pages: 1 -->
<svg width="210pt" height="204pt"
 viewBox="0.00 0.00 210.00 204.25" xmlns="http://www.w3.org/2000/svg" xmlns:xlink="http://www.w3.org/1999/xlink">
<g id="graph0" class="graph" transform="scale(1 1) rotate(0) translate(4 200.25)">
<title>include/kernel/config/inish.h</title>
<!-- Node1 -->
<g id="Node000001" class="node">
<title>Node1</title>
<g id="a_Node000001"><a xlink:title=" ">
<polygon fill="#999999" stroke="#666666" points="145.5,-196.25 40.25,-196.25 40.25,-165.75 145.5,-165.75 145.5,-196.25"/>
<text text-anchor="start" x="48.25" y="-182.75" font-family="Helvetica,sans-Serif" font-size="10.00">include/kernel/config</text>
<text text-anchor="middle" x="92.88" y="-171.5" font-family="Helvetica,sans-Serif" font-size="10.00">/inish.h</text>
</a>
</g>
</g>
<!-- Node2 -->
<g id="Node000002" class="node">
<title>Node2</title>
<g id="a_Node000002"><a xlink:title=" ">
<polygon fill="#e0e0e0" stroke="#999999" points="55.75,-19.25 0,-19.25 0,0 55.75,0 55.75,-19.25"/>
<text text-anchor="middle" x="27.88" y="-5.75" font-family="Helvetica,sans-Serif" font-size="10.00">stdbool.h</text>
</a>
</g>
</g>
<!-- Node1&#45;&gt;Node2 -->
<g id="edge1_Node000001_Node000002" class="edge">
<title>Node1&#45;&gt;Node2</title>
<g id="a_edge1_Node000001_Node000002"><a xlink:title=" ">
<path fill="none" stroke="#63b8ff" d="M87.22,-165.27C75.51,-134.74 48.58,-64.58 35.41,-30.26"/>
<polygon fill="#63b8ff" stroke="#63b8ff" points="38.76,-29.23 31.91,-21.15 32.23,-31.74 38.76,-29.23"/>
</a>
</g>
</g>
<!-- Node3 -->
<g id="Node000003" class="node">
<title>Node3</title>
<g id="a_Node000003"><a xlink:title=" ">
<polygon fill="#e0e0e0" stroke="#999999" points="202,-19.25 153.75,-19.25 153.75,0 202,0 202,-19.25"/>
<text text-anchor="middle" x="177.88" y="-5.75" font-family="Helvetica,sans-Serif" font-size="10.00">stdint.h</text>
</a>
</g>
</g>
<!-- Node1&#45;&gt;Node3 -->
<g id="edge2_Node000001_Node000003" class="edge">
<title>Node1&#45;&gt;Node3</title>
<g id="a_edge2_Node000001_Node000003"><a xlink:title=" ">
<path fill="none" stroke="#63b8ff" d="M122.42,-165.33C136.34,-156.86 151.85,-144.88 160.88,-129.75 179.29,-98.89 180.63,-55.72 179.53,-30.71"/>
<polygon fill="#63b8ff" stroke="#63b8ff" points="183.04,-30.72 178.91,-20.96 176.05,-31.17 183.04,-30.72"/>
</a>
</g>
</g>
<!-- Node4 -->
<g id="Node000004" class="node">
<title>Node4</title>
<g id="a_Node000004"><a xlink:href="stat_8h.html" target="_top" xlink:title=" ">
<polygon fill="white" stroke="#666666" points="151.62,-129.75 92.12,-129.75 92.12,-110.5 151.62,-110.5 151.62,-129.75"/>
<text text-anchor="middle" x="121.88" y="-116.25" font-family="Helvetica,sans-Serif" font-size="10.00">sys/stat.h</text>
</a>
</g>
</g>
<!-- Node1&#45;&gt;Node4 -->
<g id="edge3_Node000001_Node000004" class="edge">
<title>Node1&#45;&gt;Node4</title>
<g id="a_edge3_Node000001_Node000004"><a xlink:title=" ">
<path fill="none" stroke="#63b8ff" d="M100.04,-165.45C103.78,-157.86 108.4,-148.49 112.42,-140.32"/>
<polygon fill="#63b8ff" stroke="#63b8ff" points="115.46,-142.08 116.74,-131.56 109.18,-138.98 115.46,-142.08"/>
</a>
</g>
</g>
<!-- Node5 -->
<g id="Node000005" class="node">
<title>Node5</title>
<g id="a_Node000005"><a xlink:href="types_8h.html" target="_top" xlink:title=" ">
<polygon fill="white" stroke="#666666" points="140.38,-74.5 73.38,-74.5 73.38,-55.25 140.38,-55.25 140.38,-74.5"/>
<text text-anchor="middle" x="106.88" y="-61" font-family="Helvetica,sans-Serif" font-size="10.00">sys/types.h</text>
</a>
</g>
</g>
<!-- Node1&#45;&gt;Node5 -->
<g id="edge8_Node000001_Node000005" class="edge">
<title>Node1&#45;&gt;Node5</title>
<g id="a_edge8_Node000001_Node000005"><a xlink:title=" ">
<path fill="none" stroke="#63b8ff" d="M87.53,-165.45C83.08,-151.27 78.17,-129.18 82.88,-110.5 85.15,-101.46 89.66,-92.25 94.16,-84.56"/>
<polygon fill="#63b8ff" stroke="#63b8ff" points="97.08,-86.49 99.47,-76.17 91.17,-82.75 97.08,-86.49"/>
</a>
</g>
</g>
<!-- Node4&#45;&gt;Node5 -->
<g id="edge4_Node000004_Node000005" class="edge">
<title>Node4&#45;&gt;Node5</title>
<g id="a_edge4_Node000004_Node000005"><a xlink:title=" ">
<path fill="none" stroke="#63b8ff" d="M119.4,-110.33C117.52,-103.67 114.87,-94.24 112.48,-85.78"/>
<polygon fill="#63b8ff" stroke="#63b8ff" points="115.9,-84.99 109.82,-76.32 109.16,-86.89 115.9,-84.99"/>
</a>
</g>
</g>
<!-- Node5&#45;&gt;Node2 -->
<g id="edge5_Node000005_Node000002" class="edge">
<title>Node5&#45;&gt;Node2</title>
<g id="a_edge5_Node000005_Node000002"><a xlink:title=" ">
<path fill="none" stroke="#63b8ff" d="M93.47,-54.84C81.78,-46.96 64.57,-35.36 50.71,-26.02"/>
<polygon fill="#63b8ff" stroke="#63b8ff" points="52.85,-23.24 42.6,-20.55 48.93,-29.04 52.85,-23.24"/>
</a>
</g>
</g>
<!-- Node5&#45;&gt;Node3 -->
<g id="edge7_Node000005_Node000003" class="edge">
<title>Node5&#45;&gt;Node3</title>
<g id="a_edge7_Node000005_Node000003"><a xlink:title=" ">
<path fill="none" stroke="#63b8ff" d="M118.92,-54.84C129.28,-47.07 144.48,-35.67 156.84,-26.4"/>
<polygon fill="#63b8ff" stroke="#63b8ff" points="158.9,-29.23 164.8,-20.43 154.7,-23.63 158.9,-29.23"/>
</a>
</g>
</g>
<!-- Node6 -->
<g id="Node000006" class="node">
<title>Node6</title>
<g id="a_Node000006"><a xlink:title=" ">
<polygon fill="#e0e0e0" stroke="#999999" points="132.5,-19.25 81.25,-19.25 81.25,0 132.5,0 132.5,-19.25"/>
<text text-anchor="middle" x="106.88" y="-5.75" font-family="Helvetica,sans-Serif" font-size="10.00">stddef.h</text>
</a>
</g>
</g>
<!-- Node5&#45;&gt;Node6 -->
<g id="edge6_Node000005_Node000006" class="edge">
<title>Node5&#45;&gt;Node6</title>
<g id="a_edge6_Node000005_Node000006"><a xlink:title=" ">
<path fill="none" stroke="#63b8ff" d="M106.88,-55.08C106.88,-48.57 106.88,-39.42 106.88,-31.12"/>
<polygon fill="#63b8ff" stroke="#63b8ff" points="110.38,-31.12 106.88,-21.12 103.38,-31.12 110.38,-31.12"/>
</a>
</g>
</g>
</g>
</svg>
