<?xml version="1.0" encoding="UTF-8" standalone="no"?>
<!DOCTYPE svg PUBLIC "-//W3C//DTD SVG 1.1//EN"
 "http://www.w3.org/Graphics/SVG/1.1/DTD/svg11.dtd">
<!-- Generated by graphviz version 2.49.3 (20211023.0002)
 -->
<!-- Title: inish_get_int Pages: 1 -->
<svg width="211pt" height="66pt"
 viewBox="0.00 0.00 211.00 66.00" xmlns="http://www.w3.org/2000/svg" xmlns:xlink="http://www.w3.org/1999/xlink">
<g id="graph0" class="graph" transform="scale(1 1) rotate(0) translate(4 62)">
<title>inish_get_int</title>
<!-- Node1 -->
<g id="node1" class="node">
<title>Node1</title>
<g id="a_node1"><a xlink:title=" ">
<polygon fill="#bfbfbf" stroke="black" points="0,-19.5 0,-38.5 73,-38.5 73,-19.5 0,-19.5"/>
<text text-anchor="middle" x="36.5" y="-26.5" font-family="Helvetica,sans-Serif" font-size="10.00">inish_get_int</text>
</a>
</g>
</g>
<!-- Node2 -->
<g id="node2" class="node">
<title>Node2</title>
<g id="a_node2"><a xlink:href="atoi_8c.html#aba146acbba01116cafaa55f720913ed8" target="_top" xlink:title=" ">
<polygon fill="none" stroke="black" points="139.5,-38.5 139.5,-57.5 172.5,-57.5 172.5,-38.5 139.5,-38.5"/>
<text text-anchor="middle" x="156" y="-45.5" font-family="Helvetica,sans-Serif" font-size="10.00">atoi</text>
</a>
</g>
</g>
<!-- Node1&#45;&gt;Node2 -->
<g id="edge1" class="edge">
<title>Node1&#45;&gt;Node2</title>
<path fill="none" stroke="midnightblue" d="M73.07,-34.75C91.25,-37.69 112.94,-41.2 129.44,-43.87"/>
<polygon fill="midnightblue" stroke="midnightblue" points="129.02,-47.34 139.45,-45.48 130.13,-40.43 129.02,-47.34"/>
</g>
<!-- Node3 -->
<g id="node3" class="node">
<title>Node3</title>
<g id="a_node3"><a xlink:href="inish_8c.html#ab82e6fa9e31051b59219a253d556f5fa" target="_top" xlink:title=" ">
<polygon fill="none" stroke="black" points="109,-0.5 109,-19.5 203,-19.5 203,-0.5 109,-0.5"/>
<text text-anchor="middle" x="156" y="-7.5" font-family="Helvetica,sans-Serif" font-size="10.00">inish_get_kv_pair</text>
</a>
</g>
</g>
<!-- Node1&#45;&gt;Node3 -->
<g id="edge2" class="edge">
<title>Node1&#45;&gt;Node3</title>
<path fill="none" stroke="midnightblue" d="M73.07,-23.25C81.13,-21.94 89.88,-20.53 98.57,-19.13"/>
<polygon fill="midnightblue" stroke="midnightblue" points="99.37,-22.54 108.69,-17.49 98.26,-15.63 99.37,-22.54"/>
</g>
</g>
</svg>
