<?xml version="1.0" encoding="UTF-8" standalone="no"?>
<!DOCTYPE svg PUBLIC "-//W3C//DTD SVG 1.1//EN"
 "http://www.w3.org/Graphics/SVG/1.1/DTD/svg11.dtd">
<!-- Generated by graphviz version 2.50.0 (20211204.2007)
 -->
<!-- Title: inish_get_kv_pair Pages: 1 -->
<svg width="221pt" height="142pt"
 viewBox="0.00 0.00 221.00 142.00" xmlns="http://www.w3.org/2000/svg" xmlns:xlink="http://www.w3.org/1999/xlink">
<g id="graph0" class="graph" transform="scale(1 1) rotate(0) translate(4 138)">
<title>inish_get_kv_pair</title>
<!-- Node1 -->
<g id="node1" class="node">
<title>Node1</title>
<g id="a_node1"><a xlink:title=" ">
<polygon fill="#bfbfbf" stroke="black" points="121,-57.5 121,-76.5 213,-76.5 213,-57.5 121,-57.5"/>
<text text-anchor="middle" x="167" y="-64.5" font-family="Helvetica,sans-Serif" font-size="10.00">inish_get_kv_pair</text>
</a>
</g>
</g>
<!-- Node2 -->
<g id="node2" class="node">
<title>Node2</title>
<g id="a_node2"><a xlink:href="inish_8c.html#a40db81930c9627ef29d70791e003a8cd" target="_top" xlink:title=" ">
<polygon fill="none" stroke="black" points="3,-114.5 3,-133.5 82,-133.5 82,-114.5 3,-114.5"/>
<text text-anchor="middle" x="42.5" y="-121.5" font-family="Helvetica,sans-Serif" font-size="10.00">inish_get_bool</text>
</a>
</g>
</g>
<!-- Node1&#45;&gt;Node2 -->
<g id="edge1" class="edge">
<title>Node1&#45;&gt;Node2</title>
<path fill="none" stroke="midnightblue" d="M136.25,-81.04C120.95,-88.24 101.99,-97.12 85,-105 78.39,-108.07 71.17,-111.38 64.63,-114.37"/>
<polygon fill="midnightblue" stroke="midnightblue" points="138.16,-84.01 145.72,-76.58 135.18,-77.67 138.16,-84.01"/>
</g>
<!-- Node3 -->
<g id="node3" class="node">
<title>Node3</title>
<g id="a_node3"><a xlink:href="inish_8c.html#a48978dc4fe4de1765edba0031a2f1f47" target="_top" xlink:title=" ">
<polygon fill="none" stroke="black" points="7,-76.5 7,-95.5 78,-95.5 78,-76.5 7,-76.5"/>
<text text-anchor="middle" x="42.5" y="-83.5" font-family="Helvetica,sans-Serif" font-size="10.00">inish_get_int</text>
</a>
</g>
</g>
<!-- Node1&#45;&gt;Node3 -->
<g id="edge2" class="edge">
<title>Node1&#45;&gt;Node3</title>
<path fill="none" stroke="midnightblue" d="M110.7,-75.58C99.66,-77.29 88.35,-79.04 78.24,-80.61"/>
<polygon fill="midnightblue" stroke="midnightblue" points="111.39,-79.01 120.73,-74.02 110.32,-72.1 111.39,-79.01"/>
</g>
<!-- Node4 -->
<g id="node4" class="node">
<title>Node4</title>
<g id="a_node4"><a xlink:href="inish_8c.html#a7149712e2a187c4054c29d94b92470e5" target="_top" xlink:title=" ">
<polygon fill="none" stroke="black" points="3,-38.5 3,-57.5 82,-57.5 82,-38.5 3,-38.5"/>
<text text-anchor="middle" x="42.5" y="-45.5" font-family="Helvetica,sans-Serif" font-size="10.00">inish_get_ipv4</text>
</a>
</g>
</g>
<!-- Node1&#45;&gt;Node4 -->
<g id="edge3" class="edge">
<title>Node1&#45;&gt;Node4</title>
<path fill="none" stroke="midnightblue" d="M110.77,-58.43C101.11,-56.93 91.24,-55.4 82.14,-53.99"/>
<polygon fill="midnightblue" stroke="midnightblue" points="110.32,-61.9 120.73,-59.98 111.39,-54.99 110.32,-61.9"/>
</g>
<!-- Node5 -->
<g id="node5" class="node">
<title>Node5</title>
<g id="a_node5"><a xlink:href="inish_8c.html#a8a888b751353eb11e233c0d32a29d10c" target="_top" xlink:title=" ">
<polygon fill="none" stroke="black" points="0,-0.5 0,-19.5 85,-19.5 85,-0.5 0,-0.5"/>
<text text-anchor="middle" x="42.5" y="-7.5" font-family="Helvetica,sans-Serif" font-size="10.00">inish_get_string</text>
</a>
</g>
</g>
<!-- Node1&#45;&gt;Node5 -->
<g id="edge4" class="edge">
<title>Node1&#45;&gt;Node5</title>
<path fill="none" stroke="midnightblue" d="M136.25,-52.96C120.95,-45.76 101.99,-36.88 85,-29 78.39,-25.93 71.17,-22.62 64.63,-19.63"/>
<polygon fill="midnightblue" stroke="midnightblue" points="135.18,-56.33 145.72,-57.42 138.16,-49.99 135.18,-56.33"/>
</g>
</g>
</svg>
