<?xml version="1.0" encoding="UTF-8" standalone="no"?>
<!DOCTYPE svg PUBLIC "-//W3C//DTD SVG 1.1//EN"
 "http://www.w3.org/Graphics/SVG/1.1/DTD/svg11.dtd">
<!-- Generated by graphviz version 8.0.2 (20230410.1723)
 -->
<!-- Title: inish_get_string Pages: 1 -->
<svg width="221pt" height="45pt"
 viewBox="0.00 0.00 221.00 45.00" xmlns="http://www.w3.org/2000/svg" xmlns:xlink="http://www.w3.org/1999/xlink">
<g id="graph0" class="graph" transform="scale(1 1) rotate(0) translate(4 41)">
<title>inish_get_string</title>
<!-- Node1 -->
<g id="Node000001" class="node">
<title>Node1</title>
<g id="a_Node000001"><a xlink:title=" ">
<polygon fill="#999999" stroke="#666666" points="85,-19 0,-19 0,0 85,0 85,-19"/>
<text text-anchor="middle" x="42.5" y="-7" font-family="Helvetica,sans-Serif" font-size="10.00">inish_get_string</text>
</a>
</g>
</g>
<!-- Node1&#45;&gt;Node1 -->
<g id="edge3_Node000001_Node000001" class="edge">
<title>Node1&#45;&gt;Node1</title>
<g id="a_edge3_Node000001_Node000001"><a xlink:title=" ">
<path fill="none" stroke="#63b8ff" d="M23.01,-19.37C14.12,-27.94 20.62,-37 42.5,-37 55.15,-37 62.66,-33.97 65.03,-29.76"/>
<polygon fill="#63b8ff" stroke="#63b8ff" points="68.16,-28.99 61.99,-20.37 61.44,-30.95 68.16,-28.99"/>
</a>
</g>
</g>
<!-- Node2 -->
<g id="Node000002" class="node">
<title>Node2</title>
<g id="a_Node000002"><a xlink:href="inish_8c.html#ab82e6fa9e31051b59219a253d556f5fa" target="_top" xlink:title=" ">
<polygon fill="white" stroke="#666666" points="213,-19 121,-19 121,0 213,0 213,-19"/>
<text text-anchor="middle" x="167" y="-7" font-family="Helvetica,sans-Serif" font-size="10.00">inish_get_kv_pair</text>
</a>
</g>
</g>
<!-- Node1&#45;&gt;Node2 -->
<g id="edge1_Node000001_Node000002" class="edge">
<title>Node1&#45;&gt;Node2</title>
<g id="a_edge1_Node000001_Node000002"><a xlink:title=" ">
<path fill="none" stroke="#63b8ff" d="M85.31,-9.5C93.22,-9.5 101.6,-9.5 109.86,-9.5"/>
<polygon fill="#63b8ff" stroke="#63b8ff" points="109.6,-13 119.6,-9.5 109.6,-6 109.6,-13"/>
</a>
</g>
</g>
<!-- Node2&#45;&gt;Node2 -->
<g id="edge2_Node000002_Node000002" class="edge">
<title>Node2&#45;&gt;Node2</title>
<g id="a_edge2_Node000002_Node000002"><a xlink:title=" ">
<path fill="none" stroke="#63b8ff" d="M147.51,-19.37C138.62,-27.94 145.12,-37 167,-37 179.65,-37 187.16,-33.97 189.53,-29.76"/>
<polygon fill="#63b8ff" stroke="#63b8ff" points="192.66,-28.99 186.49,-20.37 185.94,-30.95 192.66,-28.99"/>
</a>
</g>
</g>
</g>
</svg>
