<?xml version="1.0" encoding="UTF-8" standalone="no"?>
<!DOCTYPE svg PUBLIC "-//W3C//DTD SVG 1.1//EN"
 "http://www.w3.org/Graphics/SVG/1.1/DTD/svg11.dtd">
<!-- Generated by graphviz version 2.50.0 (20211204.2007)
 -->
<!-- Title: inish_get_int Pages: 1 -->
<svg width="207pt" height="66pt"
 viewBox="0.00 0.00 207.00 66.00" xmlns="http://www.w3.org/2000/svg" xmlns:xlink="http://www.w3.org/1999/xlink">
<g id="graph0" class="graph" transform="scale(1 1) rotate(0) translate(4 62)">
<title>inish_get_int</title>
<!-- Node1 -->
<g id="node1" class="node">
<title>Node1</title>
<g id="a_node1"><a xlink:title=" ">
<polygon fill="#bfbfbf" stroke="black" points="0,-19.5 0,-38.5 71,-38.5 71,-19.5 0,-19.5"/>
<text text-anchor="middle" x="35.5" y="-26.5" font-family="Helvetica,sans-Serif" font-size="10.00">inish_get_int</text>
</a>
</g>
</g>
<!-- Node2 -->
<g id="node2" class="node">
<title>Node2</title>
<g id="a_node2"><a xlink:href="atoi_8c.html#aba146acbba01116cafaa55f720913ed8" target="_top" xlink:title=" ">
<polygon fill="none" stroke="black" points="137,-38.5 137,-57.5 169,-57.5 169,-38.5 137,-38.5"/>
<text text-anchor="middle" x="153" y="-45.5" font-family="Helvetica,sans-Serif" font-size="10.00">atoi</text>
</a>
</g>
</g>
<!-- Node1&#45;&gt;Node2 -->
<g id="edge1" class="edge">
<title>Node1&#45;&gt;Node2</title>
<path fill="none" stroke="midnightblue" d="M71.15,-34.7C89.14,-37.66 110.71,-41.21 127.04,-43.89"/>
<polygon fill="midnightblue" stroke="midnightblue" points="126.49,-47.35 136.93,-45.52 127.63,-40.44 126.49,-47.35"/>
</g>
<!-- Node3 -->
<g id="node3" class="node">
<title>Node3</title>
<g id="a_node3"><a xlink:href="inish_8c.html#ab82e6fa9e31051b59219a253d556f5fa" target="_top" xlink:title=" ">
<polygon fill="none" stroke="black" points="107,-0.5 107,-19.5 199,-19.5 199,-0.5 107,-0.5"/>
<text text-anchor="middle" x="153" y="-7.5" font-family="Helvetica,sans-Serif" font-size="10.00">inish_get_kv_pair</text>
</a>
</g>
</g>
<!-- Node1&#45;&gt;Node3 -->
<g id="edge2" class="edge">
<title>Node1&#45;&gt;Node3</title>
<path fill="none" stroke="midnightblue" d="M71.15,-23.3C79.18,-21.98 87.91,-20.54 96.58,-19.12"/>
<polygon fill="midnightblue" stroke="midnightblue" points="97.37,-22.53 106.67,-17.46 96.24,-15.63 97.37,-22.53"/>
</g>
</g>
</svg>
