<?xml version="1.0" encoding="UTF-8" standalone="no"?>
<!DOCTYPE svg PUBLIC "-//W3C//DTD SVG 1.1//EN"
 "http://www.w3.org/Graphics/SVG/1.1/DTD/svg11.dtd">
<!-- Generated by graphviz version 2.49.3 (20211023.0002)
 -->
<!-- Title: include/kernel/config/inish.h Pages: 1 -->
<svg width="212pt" height="207pt"
 viewBox="0.00 0.00 212.00 207.00" xmlns="http://www.w3.org/2000/svg" xmlns:xlink="http://www.w3.org/1999/xlink">
<g id="graph0" class="graph" transform="scale(1 1) rotate(0) translate(4 203)">
<title>include/kernel/config/inish.h</title>
<!-- Node1 -->
<g id="node1" class="node">
<title>Node1</title>
<g id="a_node1"><a xlink:title=" ">
<polygon fill="#bfbfbf" stroke="black" points="39.5,-168.5 39.5,-198.5 147.5,-198.5 147.5,-168.5 39.5,-168.5"/>
<text text-anchor="start" x="47.5" y="-186.5" font-family="Helvetica,sans-Serif" font-size="10.00">include/kernel/config</text>
<text text-anchor="middle" x="93.5" y="-175.5" font-family="Helvetica,sans-Serif" font-size="10.00">/inish.h</text>
</a>
</g>
</g>
<!-- Node2 -->
<g id="node2" class="node">
<title>Node2</title>
<g id="a_node2"><a xlink:title=" ">
<polygon fill="none" stroke="#bfbfbf" points="0,-0.5 0,-19.5 57,-19.5 57,-0.5 0,-0.5"/>
<text text-anchor="middle" x="28.5" y="-7.5" font-family="Helvetica,sans-Serif" font-size="10.00">stdbool.h</text>
</a>
</g>
</g>
<!-- Node1&#45;&gt;Node2 -->
<g id="edge1" class="edge">
<title>Node1&#45;&gt;Node2</title>
<path fill="none" stroke="midnightblue" d="M88.18,-168.47C76.47,-137.57 48.47,-63.69 35.42,-29.25"/>
<polygon fill="midnightblue" stroke="midnightblue" points="38.56,-27.67 31.74,-19.56 32.02,-30.15 38.56,-27.67"/>
</g>
<!-- Node3 -->
<g id="node3" class="node">
<title>Node3</title>
<g id="a_node3"><a xlink:title=" ">
<polygon fill="none" stroke="#bfbfbf" points="155,-0.5 155,-19.5 204,-19.5 204,-0.5 155,-0.5"/>
<text text-anchor="middle" x="179.5" y="-7.5" font-family="Helvetica,sans-Serif" font-size="10.00">stdint.h</text>
</a>
</g>
</g>
<!-- Node1&#45;&gt;Node3 -->
<g id="edge2" class="edge">
<title>Node1&#45;&gt;Node3</title>
<path fill="none" stroke="midnightblue" d="M121.96,-168.33C136.14,-159.78 152.2,-147.51 161.5,-132 180.72,-99.93 182.02,-54.75 180.95,-29.65"/>
<polygon fill="midnightblue" stroke="midnightblue" points="184.45,-29.43 180.35,-19.66 177.46,-29.85 184.45,-29.43"/>
</g>
<!-- Node4 -->
<g id="node4" class="node">
<title>Node4</title>
<g id="a_node4"><a xlink:href="stat_8h.html" target="_top" xlink:title=" ">
<polygon fill="none" stroke="black" points="93,-112.5 93,-131.5 152,-131.5 152,-112.5 93,-112.5"/>
<text text-anchor="middle" x="122.5" y="-119.5" font-family="Helvetica,sans-Serif" font-size="10.00">sys/stat.h</text>
</a>
</g>
</g>
<!-- Node1&#45;&gt;Node4 -->
<g id="edge3" class="edge">
<title>Node1&#45;&gt;Node4</title>
<path fill="none" stroke="midnightblue" d="M100.37,-168.4C104.41,-160.11 109.56,-149.55 113.87,-140.71"/>
<polygon fill="midnightblue" stroke="midnightblue" points="117.05,-142.18 118.28,-131.66 110.75,-139.11 117.05,-142.18"/>
</g>
<!-- Node5 -->
<g id="node5" class="node">
<title>Node5</title>
<g id="a_node5"><a xlink:href="types_8h.html" target="_top" xlink:title=" ">
<polygon fill="none" stroke="black" points="74,-56.5 74,-75.5 141,-75.5 141,-56.5 74,-56.5"/>
<text text-anchor="middle" x="107.5" y="-63.5" font-family="Helvetica,sans-Serif" font-size="10.00">sys/types.h</text>
</a>
</g>
</g>
<!-- Node1&#45;&gt;Node5 -->
<g id="edge8" class="edge">
<title>Node1&#45;&gt;Node5</title>
<path fill="none" stroke="midnightblue" d="M88.7,-168.29C84.55,-153.93 79.88,-131.19 84.5,-112 86.81,-102.42 91.52,-92.58 96.08,-84.56"/>
<polygon fill="midnightblue" stroke="midnightblue" points="99.19,-86.17 101.4,-75.81 93.21,-82.54 99.19,-86.17"/>
</g>
<!-- Node4&#45;&gt;Node5 -->
<g id="edge4" class="edge">
<title>Node4&#45;&gt;Node5</title>
<path fill="none" stroke="midnightblue" d="M120.02,-112.08C118.01,-104.85 115.11,-94.41 112.61,-85.4"/>
<polygon fill="midnightblue" stroke="midnightblue" points="115.98,-84.45 109.93,-75.75 109.24,-86.32 115.98,-84.45"/>
</g>
<!-- Node5&#45;&gt;Node2 -->
<g id="edge5" class="edge">
<title>Node5&#45;&gt;Node2</title>
<path fill="none" stroke="midnightblue" d="M94.81,-56.32C82.6,-47.98 63.92,-35.21 49.5,-25.35"/>
<polygon fill="midnightblue" stroke="midnightblue" points="51.39,-22.41 41.16,-19.65 47.44,-28.19 51.39,-22.41"/>
</g>
<!-- Node5&#45;&gt;Node3 -->
<g id="edge7" class="edge">
<title>Node5&#45;&gt;Node3</title>
<path fill="none" stroke="midnightblue" d="M119.07,-56.32C129.92,-48.18 146.38,-35.84 159.38,-26.09"/>
<polygon fill="midnightblue" stroke="midnightblue" points="161.82,-28.63 167.72,-19.83 157.62,-23.03 161.82,-28.63"/>
</g>
<!-- Node6 -->
<g id="node6" class="node">
<title>Node6</title>
<g id="a_node6"><a xlink:title=" ">
<polygon fill="none" stroke="#bfbfbf" points="81.5,-0.5 81.5,-19.5 133.5,-19.5 133.5,-0.5 81.5,-0.5"/>
<text text-anchor="middle" x="107.5" y="-7.5" font-family="Helvetica,sans-Serif" font-size="10.00">stddef.h</text>
</a>
</g>
</g>
<!-- Node5&#45;&gt;Node6 -->
<g id="edge6" class="edge">
<title>Node5&#45;&gt;Node6</title>
<path fill="none" stroke="midnightblue" d="M107.5,-56.08C107.5,-49.01 107.5,-38.86 107.5,-29.99"/>
<polygon fill="midnightblue" stroke="midnightblue" points="111,-29.75 107.5,-19.75 104,-29.75 111,-29.75"/>
</g>
</g>
</svg>
