<?xml version="1.0" encoding="UTF-8" standalone="no"?>
<!DOCTYPE svg PUBLIC "-//W3C//DTD SVG 1.1//EN"
 "http://www.w3.org/Graphics/SVG/1.1/DTD/svg11.dtd">
<!-- Generated by graphviz version 2.49.3 (20211023.0002)
 -->
<!-- Title: inish_get_kv_pair Pages: 1 -->
<svg width="225pt" height="142pt"
 viewBox="0.00 0.00 225.00 142.00" xmlns="http://www.w3.org/2000/svg" xmlns:xlink="http://www.w3.org/1999/xlink">
<g id="graph0" class="graph" transform="scale(1 1) rotate(0) translate(4 138)">
<title>inish_get_kv_pair</title>
<!-- Node1 -->
<g id="node1" class="node">
<title>Node1</title>
<g id="a_node1"><a xlink:title=" ">
<polygon fill="#bfbfbf" stroke="black" points="123,-57.5 123,-76.5 217,-76.5 217,-57.5 123,-57.5"/>
<text text-anchor="middle" x="170" y="-64.5" font-family="Helvetica,sans-Serif" font-size="10.00">inish_get_kv_pair</text>
</a>
</g>
</g>
<!-- Node2 -->
<g id="node2" class="node">
<title>Node2</title>
<g id="a_node2"><a xlink:href="inish_8c.html#a40db81930c9627ef29d70791e003a8cd" target="_top" xlink:title=" ">
<polygon fill="none" stroke="black" points="3,-114.5 3,-133.5 84,-133.5 84,-114.5 3,-114.5"/>
<text text-anchor="middle" x="43.5" y="-121.5" font-family="Helvetica,sans-Serif" font-size="10.00">inish_get_bool</text>
</a>
</g>
</g>
<!-- Node1&#45;&gt;Node2 -->
<g id="edge1" class="edge">
<title>Node1&#45;&gt;Node2</title>
<path fill="none" stroke="midnightblue" d="M139.34,-80.86C123.78,-88.11 104.38,-97.09 87,-105 80.23,-108.08 72.84,-111.4 66.15,-114.39"/>
<polygon fill="midnightblue" stroke="midnightblue" points="140.89,-84 148.48,-76.6 137.94,-77.66 140.89,-84"/>
</g>
<!-- Node3 -->
<g id="node3" class="node">
<title>Node3</title>
<g id="a_node3"><a xlink:href="inish_8c.html#a48978dc4fe4de1765edba0031a2f1f47" target="_top" xlink:title=" ">
<polygon fill="none" stroke="black" points="7,-76.5 7,-95.5 80,-95.5 80,-76.5 7,-76.5"/>
<text text-anchor="middle" x="43.5" y="-83.5" font-family="Helvetica,sans-Serif" font-size="10.00">inish_get_int</text>
</a>
</g>
</g>
<!-- Node1&#45;&gt;Node3 -->
<g id="edge2" class="edge">
<title>Node1&#45;&gt;Node3</title>
<path fill="none" stroke="midnightblue" d="M112.9,-75.56C101.79,-77.26 90.41,-78.99 80.2,-80.55"/>
<polygon fill="midnightblue" stroke="midnightblue" points="113.64,-78.99 122.99,-74.02 112.58,-72.07 113.64,-78.99"/>
</g>
<!-- Node4 -->
<g id="node4" class="node">
<title>Node4</title>
<g id="a_node4"><a xlink:href="inish_8c.html#a7149712e2a187c4054c29d94b92470e5" target="_top" xlink:title=" ">
<polygon fill="none" stroke="black" points="3.5,-38.5 3.5,-57.5 83.5,-57.5 83.5,-38.5 3.5,-38.5"/>
<text text-anchor="middle" x="43.5" y="-45.5" font-family="Helvetica,sans-Serif" font-size="10.00">inish_get_ipv4</text>
</a>
</g>
</g>
<!-- Node1&#45;&gt;Node4 -->
<g id="edge3" class="edge">
<title>Node1&#45;&gt;Node4</title>
<path fill="none" stroke="midnightblue" d="M112.87,-58.43C103.05,-56.93 93.02,-55.4 83.77,-53.99"/>
<polygon fill="midnightblue" stroke="midnightblue" points="112.58,-61.93 122.99,-59.98 113.64,-55.01 112.58,-61.93"/>
</g>
<!-- Node5 -->
<g id="node5" class="node">
<title>Node5</title>
<g id="a_node5"><a xlink:href="inish_8c.html#a8a888b751353eb11e233c0d32a29d10c" target="_top" xlink:title=" ">
<polygon fill="none" stroke="black" points="0,-0.5 0,-19.5 87,-19.5 87,-0.5 0,-0.5"/>
<text text-anchor="middle" x="43.5" y="-7.5" font-family="Helvetica,sans-Serif" font-size="10.00">inish_get_string</text>
</a>
</g>
</g>
<!-- Node1&#45;&gt;Node5 -->
<g id="edge4" class="edge">
<title>Node1&#45;&gt;Node5</title>
<path fill="none" stroke="midnightblue" d="M139.34,-53.14C123.78,-45.89 104.38,-36.91 87,-29 80.23,-25.92 72.84,-22.6 66.15,-19.61"/>
<polygon fill="midnightblue" stroke="midnightblue" points="137.94,-56.34 148.48,-57.4 140.89,-50 137.94,-56.34"/>
</g>
</g>
</svg>
