<?xml version="1.0" encoding="UTF-8" standalone="no"?>
<!DOCTYPE svg PUBLIC "-//W3C//DTD SVG 1.1//EN"
 "http://www.w3.org/Graphics/SVG/1.1/DTD/svg11.dtd">
<!-- Generated by graphviz version 8.0.2 (20230410.1723)
 -->
<!-- Title: arch_getchar Pages: 1 -->
<svg width="166pt" height="100pt"
 viewBox="0.00 0.00 166.00 100.00" xmlns="http://www.w3.org/2000/svg" xmlns:xlink="http://www.w3.org/1999/xlink">
<g id="graph0" class="graph" transform="scale(1 1) rotate(0) translate(4 96)">
<title>arch_getchar</title>
<!-- Node1 -->
<g id="Node000001" class="node">
<title>Node1</title>
<g id="a_Node000001"><a xlink:title=" ">
<polygon fill="#999999" stroke="#666666" points="158,-46 85,-46 85,-27 158,-27 158,-46"/>
<text text-anchor="middle" x="121.5" y="-34" font-family="Helvetica,sans-Serif" font-size="10.00">arch_getchar</text>
</a>
</g>
</g>
<!-- Node1&#45;&gt;Node1 -->
<g id="edge1_Node000001_Node000001" class="edge">
<title>Node1&#45;&gt;Node1</title>
<g id="a_edge1_Node000001_Node000001"><a xlink:title=" ">
<path fill="none" stroke="#63b8ff" d="M138.89,-57.1C136.89,-61.13 131.09,-64 121.5,-64 104.45,-64 99.39,-54.94 106.31,-46.37"/>
<polygon fill="#63b8ff" stroke="#63b8ff" points="142.13,-56.46 136.69,-47.37 135.27,-57.87 142.13,-56.46"/>
</a>
</g>
</g>
<!-- Node2 -->
<g id="Node000002" class="node">
<title>Node2</title>
<g id="a_Node000002"><a xlink:href="getchar_8c.html#a92292ba4fd255fe335e84aac9e952f5f" target="_top" xlink:title=" ">
<polygon fill="white" stroke="#666666" points="49,-74 0,-74 0,-55 49,-55 49,-74"/>
<text text-anchor="middle" x="24.5" y="-62" font-family="Helvetica,sans-Serif" font-size="10.00">getchar</text>
</a>
</g>
</g>
<!-- Node1&#45;&gt;Node2 -->
<g id="edge2_Node000001_Node000002" class="edge">
<title>Node1&#45;&gt;Node2</title>
<g id="a_edge2_Node000001_Node000002"><a xlink:title=" ">
<path fill="none" stroke="#63b8ff" d="M76.36,-49.51C67.04,-52.26 57.54,-55.06 49.31,-57.48"/>
<polygon fill="#63b8ff" stroke="#63b8ff" points="77.14,-52.64 85.74,-46.45 75.16,-45.92 77.14,-52.64"/>
</a>
</g>
</g>
<!-- Node3 -->
<g id="Node000003" class="node">
<title>Node3</title>
<g id="a_Node000003"><a xlink:href="kshell_2kshell_8c.html#aad18a222bff0651aa52eec3b29218d9a" target="_top" xlink:title=" ">
<polygon fill="white" stroke="#666666" points="45.5,-19 3.5,-19 3.5,0 45.5,0 45.5,-19"/>
<text text-anchor="middle" x="24.5" y="-7" font-family="Helvetica,sans-Serif" font-size="10.00">kshell</text>
</a>
</g>
</g>
<!-- Node1&#45;&gt;Node3 -->
<g id="edge4_Node000001_Node000003" class="edge">
<title>Node1&#45;&gt;Node3</title>
<g id="a_edge4_Node000001_Node000003"><a xlink:title=" ">
<path fill="none" stroke="#63b8ff" d="M74.89,-23.54C64.7,-20.64 54.39,-17.71 45.85,-15.28"/>
<polygon fill="#63b8ff" stroke="#63b8ff" points="73.82,-27.16 84.4,-26.52 75.73,-20.42 73.82,-27.16"/>
</a>
</g>
</g>
<!-- Node2&#45;&gt;Node2 -->
<g id="edge3_Node000002_Node000002" class="edge">
<title>Node2&#45;&gt;Node2</title>
<g id="a_edge3_Node000002_Node000002"><a xlink:title=" ">
<path fill="none" stroke="#63b8ff" d="M41.89,-85.1C39.89,-89.13 34.09,-92 24.5,-92 7.45,-92 2.39,-82.94 9.31,-74.37"/>
<polygon fill="#63b8ff" stroke="#63b8ff" points="45.13,-84.46 39.69,-75.37 38.27,-85.87 45.13,-84.46"/>
</a>
</g>
</g>
<!-- Node3&#45;&gt;Node3 -->
<g id="edge5_Node000003_Node000003" class="edge">
<title>Node3&#45;&gt;Node3</title>
<g id="a_edge5_Node000003_Node000003"><a xlink:title=" ">
<path fill="none" stroke="#63b8ff" d="M41.89,-30.1C39.89,-34.13 34.09,-37 24.5,-37 7.45,-37 2.39,-27.94 9.31,-19.37"/>
<polygon fill="#63b8ff" stroke="#63b8ff" points="45.13,-29.46 39.69,-20.37 38.27,-30.87 45.13,-29.46"/>
</a>
</g>
</g>
</g>
</svg>
