<?xml version="1.0" encoding="UTF-8" standalone="no"?>
<!DOCTYPE svg PUBLIC "-//W3C//DTD SVG 1.1//EN"
 "http://www.w3.org/Graphics/SVG/1.1/DTD/svg11.dtd">
<!-- Generated by graphviz version 8.0.2 (20230410.1723)
 -->
<!-- Title: ipv4_checksum Pages: 1 -->
<svg width="238pt" height="100pt"
 viewBox="0.00 0.00 238.00 100.00" xmlns="http://www.w3.org/2000/svg" xmlns:xlink="http://www.w3.org/1999/xlink">
<g id="graph0" class="graph" transform="scale(1 1) rotate(0) translate(4 96)">
<title>ipv4_checksum</title>
<!-- Node1 -->
<g id="Node000001" class="node">
<title>Node1</title>
<g id="a_Node000001"><a xlink:title="From: https://tools.ietf.org/html/rfc1071.">
<polygon fill="#999999" stroke="#666666" points="230,-46 145,-46 145,-27 230,-27 230,-46"/>
<text text-anchor="middle" x="187.5" y="-34" font-family="Helvetica,sans-Serif" font-size="10.00">ipv4_checksum</text>
</a>
</g>
</g>
<!-- Node1&#45;&gt;Node1 -->
<g id="edge3_Node000001_Node000001" class="edge">
<title>Node1&#45;&gt;Node1</title>
<g id="a_edge3_Node000001_Node000001"><a xlink:title=" ">
<path fill="none" stroke="#63b8ff" d="M211.57,-56.76C209.04,-60.97 201.02,-64 187.5,-64 164.12,-64 157.18,-54.94 166.68,-46.37"/>
<polygon fill="#63b8ff" stroke="#63b8ff" points="214.64,-55.87 208.32,-47.37 207.96,-57.96 214.64,-55.87"/>
</a>
</g>
</g>
<!-- Node2 -->
<g id="Node000002" class="node">
<title>Node2</title>
<g id="a_Node000002"><a xlink:href="icmpv4_8c.html#a24958014ffd38662c69aff53c25046a5" target="_top" xlink:title=" ">
<polygon fill="white" stroke="#666666" points="109,-74 0,-74 0,-55 109,-55 109,-74"/>
<text text-anchor="middle" x="54.5" y="-62" font-family="Helvetica,sans-Serif" font-size="10.00">icmpv4_send_packet</text>
</a>
</g>
</g>
<!-- Node1&#45;&gt;Node2 -->
<g id="edge1_Node000001_Node000002" class="edge">
<title>Node1&#45;&gt;Node2</title>
<g id="a_edge1_Node000001_Node000002"><a xlink:title=" ">
<path fill="none" stroke="#63b8ff" d="M134.22,-47.67C123.54,-49.96 112.37,-52.35 101.91,-54.58"/>
<polygon fill="#63b8ff" stroke="#63b8ff" points="134.64,-50.95 143.69,-45.44 133.18,-44.1 134.64,-50.95"/>
</a>
</g>
</g>
<!-- Node3 -->
<g id="Node000003" class="node">
<title>Node3</title>
<g id="a_Node000003"><a xlink:href="udp_8c.html#ac78d90d0d505eb6b507d0cf93c7499fb" target="_top" xlink:title=" ">
<polygon fill="white" stroke="#666666" points="101,-19 8,-19 8,0 101,0 101,-19"/>
<text text-anchor="middle" x="54.5" y="-7" font-family="Helvetica,sans-Serif" font-size="10.00">udp_send_packet</text>
</a>
</g>
</g>
<!-- Node1&#45;&gt;Node3 -->
<g id="edge4_Node000001_Node000003" class="edge">
<title>Node1&#45;&gt;Node3</title>
<g id="a_edge4_Node000001_Node000003"><a xlink:title=" ">
<path fill="none" stroke="#63b8ff" d="M134.1,-25.7C123.3,-23.47 112,-21.15 101.45,-18.97"/>
<polygon fill="#63b8ff" stroke="#63b8ff" points="133.19,-29.29 143.69,-27.88 134.6,-22.44 133.19,-29.29"/>
</a>
</g>
</g>
<!-- Node2&#45;&gt;Node2 -->
<g id="edge2_Node000002_Node000002" class="edge">
<title>Node2&#45;&gt;Node2</title>
<g id="a_edge2_Node000002_Node000002"><a xlink:title=" ">
<path fill="none" stroke="#63b8ff" d="M78.57,-84.76C76.04,-88.97 68.02,-92 54.5,-92 31.12,-92 24.18,-82.94 33.68,-74.37"/>
<polygon fill="#63b8ff" stroke="#63b8ff" points="81.64,-83.87 75.32,-75.37 74.96,-85.96 81.64,-83.87"/>
</a>
</g>
</g>
<!-- Node3&#45;&gt;Node3 -->
<g id="edge5_Node000003_Node000003" class="edge">
<title>Node3&#45;&gt;Node3</title>
<g id="a_edge5_Node000003_Node000003"><a xlink:title=" ">
<path fill="none" stroke="#63b8ff" d="M78.57,-29.76C76.04,-33.97 68.02,-37 54.5,-37 31.12,-37 24.18,-27.94 33.68,-19.37"/>
<polygon fill="#63b8ff" stroke="#63b8ff" points="81.64,-28.87 75.32,-20.37 74.96,-30.96 81.64,-28.87"/>
</a>
</g>
</g>
</g>
</svg>
