<?xml version="1.0" encoding="UTF-8" standalone="no"?>
<!DOCTYPE svg PUBLIC "-//W3C//DTD SVG 1.1//EN"
 "http://www.w3.org/Graphics/SVG/1.1/DTD/svg11.dtd">
<!-- Generated by graphviz version 8.0.2 (20230410.1723)
 -->
<!-- Title: ipv4_receive_packet Pages: 1 -->
<svg width="419pt" height="155pt"
 viewBox="0.00 0.00 419.00 155.00" xmlns="http://www.w3.org/2000/svg" xmlns:xlink="http://www.w3.org/1999/xlink">
<g id="graph0" class="graph" transform="scale(1 1) rotate(0) translate(4 151)">
<title>ipv4_receive_packet</title>
<!-- Node1 -->
<g id="Node000001" class="node">
<title>Node1</title>
<g id="a_Node000001"><a xlink:title=" ">
<polygon fill="#999999" stroke="#666666" points="106,-101 0,-101 0,-82 106,-82 106,-101"/>
<text text-anchor="middle" x="53" y="-89" font-family="Helvetica,sans-Serif" font-size="10.00">ipv4_receive_packet</text>
</a>
</g>
</g>
<!-- Node1&#45;&gt;Node1 -->
<g id="edge3_Node000001_Node000001" class="edge">
<title>Node1&#45;&gt;Node1</title>
<g id="a_edge3_Node000001_Node000001"><a xlink:title=" ">
<path fill="none" stroke="#63b8ff" d="M29.75,-101.37C19.15,-109.94 26.9,-119 53,-119 68.5,-119 77.53,-115.8 80.09,-111.42"/>
<polygon fill="#63b8ff" stroke="#63b8ff" points="83.09,-110.46 76.25,-102.37 76.55,-112.96 83.09,-110.46"/>
</a>
</g>
</g>
<!-- Node2 -->
<g id="Node000002" class="node">
<title>Node2</title>
<g id="a_Node000002"><a xlink:href="icmpv4_8c.html#a90e2d1fb25fc1f4dd40c60d4b464bb63" target="_top" xlink:title=" ">
<polygon fill="white" stroke="#666666" points="261,-129 142,-129 142,-110 261,-110 261,-129"/>
<text text-anchor="middle" x="201.5" y="-117" font-family="Helvetica,sans-Serif" font-size="10.00">icmpv4_receive_packet</text>
</a>
</g>
</g>
<!-- Node1&#45;&gt;Node2 -->
<g id="edge1_Node000001_Node000002" class="edge">
<title>Node1&#45;&gt;Node2</title>
<g id="a_edge1_Node000001_Node000002"><a xlink:title=" ">
<path fill="none" stroke="#63b8ff" d="M106.06,-101.45C116.43,-103.43 127.41,-105.53 138.08,-107.57"/>
<polygon fill="#63b8ff" stroke="#63b8ff" points="137.13,-111.14 147.6,-109.58 138.44,-104.27 137.13,-111.14"/>
</a>
</g>
</g>
<!-- Node3 -->
<g id="Node000003" class="node">
<title>Node3</title>
<g id="a_Node000003"><a xlink:href="udp_8c.html#a1e9dad20351b1ebb8b51196d2563c591" target="_top" xlink:title=" ">
<polygon fill="white" stroke="#666666" points="253.5,-74 149.5,-74 149.5,-55 253.5,-55 253.5,-74"/>
<text text-anchor="middle" x="201.5" y="-62" font-family="Helvetica,sans-Serif" font-size="10.00">udp_receive_packet</text>
</a>
</g>
</g>
<!-- Node1&#45;&gt;Node3 -->
<g id="edge4_Node000001_Node000003" class="edge">
<title>Node1&#45;&gt;Node3</title>
<g id="a_edge4_Node000001_Node000003"><a xlink:title=" ">
<path fill="none" stroke="#63b8ff" d="M106.48,-81.83C116.94,-79.9 128.03,-77.86 138.78,-75.88"/>
<polygon fill="#63b8ff" stroke="#63b8ff" points="139.17,-79.18 148.37,-73.92 137.9,-72.29 139.17,-79.18"/>
</a>
</g>
</g>
<!-- Node2&#45;&gt;Node2 -->
<g id="edge2_Node000002_Node000002" class="edge">
<title>Node2&#45;&gt;Node2</title>
<g id="a_edge2_Node000002_Node000002"><a xlink:title=" ">
<path fill="none" stroke="#63b8ff" d="M178.25,-129.37C167.65,-137.94 175.4,-147 201.5,-147 217,-147 226.03,-143.8 228.59,-139.42"/>
<polygon fill="#63b8ff" stroke="#63b8ff" points="231.59,-138.46 224.75,-130.37 225.05,-140.96 231.59,-138.46"/>
</a>
</g>
</g>
<!-- Node3&#45;&gt;Node3 -->
<g id="edge8_Node000003_Node000003" class="edge">
<title>Node3&#45;&gt;Node3</title>
<g id="a_edge8_Node000003_Node000003"><a xlink:title=" ">
<path fill="none" stroke="#63b8ff" d="M178.25,-74.37C167.65,-82.94 175.4,-92 201.5,-92 217,-92 226.03,-88.8 228.59,-84.42"/>
<polygon fill="#63b8ff" stroke="#63b8ff" points="231.59,-83.46 224.75,-75.37 225.05,-85.96 231.59,-83.46"/>
</a>
</g>
</g>
<!-- Node4 -->
<g id="Node000004" class="node">
<title>Node4</title>
<g id="a_Node000004"><a xlink:href="descriptor_8c.html#a3a4a85ff782854b3c65aacf9ff4574d5" target="_top" xlink:title=" ">
<polygon fill="white" stroke="#666666" points="411,-111 297,-111 297,-92 411,-92 411,-111"/>
<text text-anchor="middle" x="354" y="-99" font-family="Helvetica,sans-Serif" font-size="10.00">descriptor_udp_lookup</text>
</a>
</g>
</g>
<!-- Node3&#45;&gt;Node4 -->
<g id="edge5_Node000003_Node000004" class="edge">
<title>Node3&#45;&gt;Node4</title>
<g id="a_edge5_Node000003_Node000004"><a xlink:title=" ">
<path fill="none" stroke="#63b8ff" d="M242.83,-74.42C261.05,-78.89 282.78,-84.24 302.11,-88.99"/>
<polygon fill="#63b8ff" stroke="#63b8ff" points="301.01,-92.57 311.56,-91.56 302.68,-85.77 301.01,-92.57"/>
</a>
</g>
</g>
<!-- Node5 -->
<g id="Node000005" class="node">
<title>Node5</title>
<g id="a_Node000005"><a xlink:href="dhcp_8c.html#aaeb6c2139785dacf8f0c6f1cdf580c27" target="_top" xlink:title=" ">
<polygon fill="white" stroke="#666666" points="408.5,-74 299.5,-74 299.5,-55 408.5,-55 408.5,-74"/>
<text text-anchor="middle" x="354" y="-62" font-family="Helvetica,sans-Serif" font-size="10.00">dhcp_receive_packet</text>
</a>
</g>
</g>
<!-- Node3&#45;&gt;Node5 -->
<g id="edge7_Node000003_Node000005" class="edge">
<title>Node3&#45;&gt;Node5</title>
<g id="a_edge7_Node000003_Node000005"><a xlink:title=" ">
<path fill="none" stroke="#63b8ff" d="M253.87,-64.5C264.91,-64.5 276.71,-64.5 288.18,-64.5"/>
<polygon fill="#63b8ff" stroke="#63b8ff" points="288.04,-68 298.04,-64.5 288.04,-61 288.04,-68"/>
</a>
</g>
</g>
<!-- Node6 -->
<g id="Node000006" class="node">
<title>Node6</title>
<g id="a_Node000006"><a xlink:href="write_8c.html#abb39b21888372e95ad3e5c59b166f5c8" target="_top" xlink:title=" ">
<polygon fill="white" stroke="#666666" points="373,-19 335,-19 335,0 373,0 373,-19"/>
<text text-anchor="middle" x="354" y="-7" font-family="Helvetica,sans-Serif" font-size="10.00">write</text>
</a>
</g>
</g>
<!-- Node3&#45;&gt;Node6 -->
<g id="edge9_Node000003_Node000006" class="edge">
<title>Node3&#45;&gt;Node6</title>
<g id="a_edge9_Node000003_Node000006"><a xlink:title=" ">
<path fill="none" stroke="#63b8ff" d="M229.75,-54.54C256.68,-44.7 297.66,-29.72 324.88,-19.78"/>
<polygon fill="#63b8ff" stroke="#63b8ff" points="325.73,-22.83 333.93,-16.11 323.33,-16.25 325.73,-22.83"/>
</a>
</g>
</g>
<!-- Node4&#45;&gt;Node4 -->
<g id="edge6_Node000004_Node000004" class="edge">
<title>Node4&#45;&gt;Node4</title>
<g id="a_edge6_Node000004_Node000004"><a xlink:title=" ">
<path fill="none" stroke="#63b8ff" d="M330.13,-111.37C319.24,-119.94 327.19,-129 354,-129 369.92,-129 379.19,-125.8 381.81,-121.42"/>
<polygon fill="#63b8ff" stroke="#63b8ff" points="384.78,-120.4 377.87,-112.37 378.27,-122.96 384.78,-120.4"/>
</a>
</g>
</g>
<!-- Node6&#45;&gt;Node6 -->
<g id="edge10_Node000006_Node000006" class="edge">
<title>Node6&#45;&gt;Node6</title>
<g id="a_edge10_Node000006_Node000006"><a xlink:title=" ">
<path fill="none" stroke="#63b8ff" d="M334.71,-16.4C317.63,-25.7 324.07,-37 354,-37 376.92,-37 386.06,-30.38 381.42,-23.1"/>
<polygon fill="#63b8ff" stroke="#63b8ff" points="384.24,-20.06 374.29,-16.4 379.79,-25.46 384.24,-20.06"/>
</a>
</g>
</g>
</g>
</svg>
