<?xml version="1.0" encoding="UTF-8" standalone="no"?>
<!DOCTYPE svg PUBLIC "-//W3C//DTD SVG 1.1//EN"
 "http://www.w3.org/Graphics/SVG/1.1/DTD/svg11.dtd">
<!-- Generated by graphviz version 2.49.3 (20211023.0002)
 -->
<!-- Title: include/kernel/net/ipv4.h Pages: 1 -->
<svg width="215pt" height="263pt"
 viewBox="0.00 0.00 214.50 263.00" xmlns="http://www.w3.org/2000/svg" xmlns:xlink="http://www.w3.org/1999/xlink">
<g id="graph0" class="graph" transform="scale(1 1) rotate(0) translate(4 259)">
<title>include/kernel/net/ipv4.h</title>
<!-- Node1 -->
<g id="node1" class="node">
<title>Node1</title>
<g id="a_node1"><a xlink:title=" ">
<polygon fill="#bfbfbf" stroke="black" points="91.5,-224.5 91.5,-254.5 186.5,-254.5 186.5,-224.5 91.5,-224.5"/>
<text text-anchor="start" x="99.5" y="-242.5" font-family="Helvetica,sans-Serif" font-size="10.00">include/kernel/net</text>
<text text-anchor="middle" x="139" y="-231.5" font-family="Helvetica,sans-Serif" font-size="10.00">/ipv4.h</text>
</a>
</g>
</g>
<!-- Node2 -->
<g id="node2" class="node">
<title>Node2</title>
<g id="a_node2"><a xlink:href="inet_8h.html" target="_top" xlink:title=" ">
<polygon fill="none" stroke="black" points="47,-168.5 47,-187.5 111,-187.5 111,-168.5 47,-168.5"/>
<text text-anchor="middle" x="79" y="-175.5" font-family="Helvetica,sans-Serif" font-size="10.00">arpa/inet.h</text>
</a>
</g>
</g>
<!-- Node1&#45;&gt;Node2 -->
<g id="edge1" class="edge">
<title>Node1&#45;&gt;Node2</title>
<path fill="none" stroke="midnightblue" d="M124.78,-224.4C115.79,-215.49 104.16,-203.95 94.87,-194.74"/>
<polygon fill="midnightblue" stroke="midnightblue" points="97.3,-192.21 87.73,-187.66 92.37,-197.18 97.3,-192.21"/>
</g>
<!-- Node4 -->
<g id="node4" class="node">
<title>Node4</title>
<g id="a_node4"><a xlink:href="types_8h.html" target="_top" xlink:title=" ">
<polygon fill="none" stroke="black" points="65.5,-56.5 65.5,-75.5 132.5,-75.5 132.5,-56.5 65.5,-56.5"/>
<text text-anchor="middle" x="99" y="-63.5" font-family="Helvetica,sans-Serif" font-size="10.00">sys/types.h</text>
</a>
</g>
</g>
<!-- Node1&#45;&gt;Node4 -->
<g id="edge11" class="edge">
<title>Node1&#45;&gt;Node4</title>
<path fill="none" stroke="midnightblue" d="M135.73,-224.47C128.55,-193.7 111.44,-120.33 103.36,-85.7"/>
<polygon fill="midnightblue" stroke="midnightblue" points="106.68,-84.5 101,-75.56 99.86,-86.09 106.68,-84.5"/>
</g>
<!-- Node8 -->
<g id="node8" class="node">
<title>Node8</title>
<g id="a_node8"><a xlink:href="net_8h.html" target="_top" xlink:title="This module defines network interfaces and drivers.">
<polygon fill="none" stroke="black" points="150.5,-56.5 150.5,-75.5 205.5,-75.5 205.5,-56.5 150.5,-56.5"/>
<text text-anchor="middle" x="178" y="-63.5" font-family="Helvetica,sans-Serif" font-size="10.00">net/net.h</text>
</a>
</g>
</g>
<!-- Node1&#45;&gt;Node8 -->
<g id="edge8" class="edge">
<title>Node1&#45;&gt;Node8</title>
<path fill="none" stroke="midnightblue" d="M143.18,-224.42C146.1,-214.32 150.01,-200.38 153,-188 161.7,-151.98 170.04,-109.48 174.55,-85.64"/>
<polygon fill="midnightblue" stroke="midnightblue" points="178.04,-86.03 176.44,-75.55 171.16,-84.74 178.04,-86.03"/>
</g>
<!-- Node3 -->
<g id="node3" class="node">
<title>Node3</title>
<g id="a_node3"><a xlink:href="socket_8h.html" target="_top" xlink:title=" ">
<polygon fill="none" stroke="black" points="0,-112.5 0,-131.5 72,-131.5 72,-112.5 0,-112.5"/>
<text text-anchor="middle" x="36" y="-119.5" font-family="Helvetica,sans-Serif" font-size="10.00">sys/socket.h</text>
</a>
</g>
</g>
<!-- Node2&#45;&gt;Node3 -->
<g id="edge2" class="edge">
<title>Node2&#45;&gt;Node3</title>
<path fill="none" stroke="midnightblue" d="M71.9,-168.08C65.76,-160.38 56.73,-149.03 49.26,-139.65"/>
<polygon fill="midnightblue" stroke="midnightblue" points="51.94,-137.39 42.97,-131.75 46.46,-141.75 51.94,-137.39"/>
</g>
<!-- Node2&#45;&gt;Node4 -->
<g id="edge7" class="edge">
<title>Node2&#45;&gt;Node4</title>
<path fill="none" stroke="midnightblue" d="M80.57,-168.37C83.8,-150.62 91.24,-109.67 95.62,-85.6"/>
<polygon fill="midnightblue" stroke="midnightblue" points="99.09,-86.06 97.44,-75.59 92.21,-84.8 99.09,-86.06"/>
</g>
<!-- Node3&#45;&gt;Node4 -->
<g id="edge3" class="edge">
<title>Node3&#45;&gt;Node4</title>
<path fill="none" stroke="midnightblue" d="M46.12,-112.32C55.53,-104.26 69.74,-92.08 81.07,-82.37"/>
<polygon fill="midnightblue" stroke="midnightblue" points="83.38,-85 88.69,-75.83 78.82,-79.68 83.38,-85"/>
</g>
<!-- Node5 -->
<g id="node5" class="node">
<title>Node5</title>
<g id="a_node5"><a xlink:title=" ">
<polygon fill="none" stroke="#bfbfbf" points="149.5,-0.5 149.5,-19.5 206.5,-19.5 206.5,-0.5 149.5,-0.5"/>
<text text-anchor="middle" x="178" y="-7.5" font-family="Helvetica,sans-Serif" font-size="10.00">stdbool.h</text>
</a>
</g>
</g>
<!-- Node4&#45;&gt;Node5 -->
<g id="edge4" class="edge">
<title>Node4&#45;&gt;Node5</title>
<path fill="none" stroke="midnightblue" d="M111.69,-56.32C123.9,-47.98 142.58,-35.21 157,-25.35"/>
<polygon fill="midnightblue" stroke="midnightblue" points="159.06,-28.19 165.34,-19.65 155.11,-22.41 159.06,-28.19"/>
</g>
<!-- Node6 -->
<g id="node6" class="node">
<title>Node6</title>
<g id="a_node6"><a xlink:title=" ">
<polygon fill="none" stroke="#bfbfbf" points="12,-0.5 12,-19.5 64,-19.5 64,-0.5 12,-0.5"/>
<text text-anchor="middle" x="38" y="-7.5" font-family="Helvetica,sans-Serif" font-size="10.00">stddef.h</text>
</a>
</g>
</g>
<!-- Node4&#45;&gt;Node6 -->
<g id="edge5" class="edge">
<title>Node4&#45;&gt;Node6</title>
<path fill="none" stroke="midnightblue" d="M89.2,-56.32C80.18,-48.34 66.59,-36.31 55.68,-26.65"/>
<polygon fill="midnightblue" stroke="midnightblue" points="57.79,-23.84 47.98,-19.83 53.15,-29.08 57.79,-23.84"/>
</g>
<!-- Node7 -->
<g id="node7" class="node">
<title>Node7</title>
<g id="a_node7"><a xlink:title=" ">
<polygon fill="none" stroke="#bfbfbf" points="82.5,-0.5 82.5,-19.5 131.5,-19.5 131.5,-0.5 82.5,-0.5"/>
<text text-anchor="middle" x="107" y="-7.5" font-family="Helvetica,sans-Serif" font-size="10.00">stdint.h</text>
</a>
</g>
</g>
<!-- Node4&#45;&gt;Node7 -->
<g id="edge6" class="edge">
<title>Node4&#45;&gt;Node7</title>
<path fill="none" stroke="midnightblue" d="M100.32,-56.08C101.38,-48.93 102.91,-38.64 104.23,-29.69"/>
<polygon fill="midnightblue" stroke="midnightblue" points="107.7,-30.16 105.7,-19.75 100.78,-29.13 107.7,-30.16"/>
</g>
<!-- Node8&#45;&gt;Node5 -->
<g id="edge9" class="edge">
<title>Node8&#45;&gt;Node5</title>
<path fill="none" stroke="midnightblue" d="M178,-56.08C178,-49.01 178,-38.86 178,-29.99"/>
<polygon fill="midnightblue" stroke="midnightblue" points="181.5,-29.75 178,-19.75 174.5,-29.75 181.5,-29.75"/>
</g>
<!-- Node8&#45;&gt;Node7 -->
<g id="edge10" class="edge">
<title>Node8&#45;&gt;Node7</title>
<path fill="none" stroke="midnightblue" d="M166.59,-56.32C155.89,-48.18 139.66,-35.84 126.84,-26.09"/>
<polygon fill="midnightblue" stroke="midnightblue" points="128.69,-23.1 118.61,-19.83 124.46,-28.67 128.69,-23.1"/>
</g>
</g>
</svg>
