<?xml version="1.0" encoding="UTF-8" standalone="no"?>
<!DOCTYPE svg PUBLIC "-//W3C//DTD SVG 1.1//EN"
 "http://www.w3.org/Graphics/SVG/1.1/DTD/svg11.dtd">
<!-- Generated by graphviz version 8.0.2 (20230410.1723)
 -->
<!-- Title: include/kernel/net/ipv4.h Pages: 1 -->
<svg width="323pt" height="170pt"
 viewBox="0.00 0.00 323.00 170.00" xmlns="http://www.w3.org/2000/svg" xmlns:xlink="http://www.w3.org/1999/xlink">
<g id="graph0" class="graph" transform="scale(1 1) rotate(0) translate(4 166)">
<title>include/kernel/net/ipv4.h</title>
<!-- Node1 -->
<g id="Node000001" class="node">
<title>Node1</title>
<g id="a_Node000001"><a xlink:title=" ">
<polygon fill="#999999" stroke="#666666" points="148,-162 55,-162 55,-132 148,-132 148,-162"/>
<text text-anchor="start" x="63" y="-150" font-family="Helvetica,sans-Serif" font-size="10.00">include/kernel/net</text>
<text text-anchor="middle" x="101.5" y="-139" font-family="Helvetica,sans-Serif" font-size="10.00">/ipv4.h</text>
</a>
</g>
</g>
<!-- Node2 -->
<g id="Node000002" class="node">
<title>Node2</title>
<g id="a_Node000002"><a xlink:href="icmpv4_8h.html" target="_top" xlink:title=" ">
<polygon fill="white" stroke="#666666" points="93,-96 0,-96 0,-66 93,-66 93,-96"/>
<text text-anchor="start" x="8" y="-84" font-family="Helvetica,sans-Serif" font-size="10.00">include/kernel/net</text>
<text text-anchor="middle" x="46.5" y="-73" font-family="Helvetica,sans-Serif" font-size="10.00">/icmpv4.h</text>
</a>
</g>
</g>
<!-- Node1&#45;&gt;Node2 -->
<g id="edge1_Node000001_Node000002" class="edge">
<title>Node1&#45;&gt;Node2</title>
<g id="a_edge1_Node000001_Node000002"><a xlink:title=" ">
<path fill="none" stroke="#63b8ff" d="M82.19,-123.53C74.37,-114.43 65.57,-104.19 58.67,-96.16"/>
<polygon fill="#63b8ff" stroke="#63b8ff" points="80.12,-125.49 89.29,-130.8 85.43,-120.93 80.12,-125.49"/>
</a>
</g>
</g>
<!-- Node3 -->
<g id="Node000003" class="node">
<title>Node3</title>
<g id="a_Node000003"><a xlink:href="udp_8h.html" target="_top" xlink:title=" ">
<polygon fill="white" stroke="#666666" points="204,-96 111,-96 111,-66 204,-66 204,-96"/>
<text text-anchor="start" x="119" y="-84" font-family="Helvetica,sans-Serif" font-size="10.00">include/kernel/net</text>
<text text-anchor="middle" x="157.5" y="-73" font-family="Helvetica,sans-Serif" font-size="10.00">/udp.h</text>
</a>
</g>
</g>
<!-- Node1&#45;&gt;Node3 -->
<g id="edge2_Node000001_Node000003" class="edge">
<title>Node1&#45;&gt;Node3</title>
<g id="a_edge2_Node000001_Node000003"><a xlink:title=" ">
<path fill="none" stroke="#63b8ff" d="M121.16,-123.53C129.13,-114.43 138.08,-104.19 145.11,-96.16"/>
<polygon fill="#63b8ff" stroke="#63b8ff" points="117.88,-120.97 113.93,-130.8 123.15,-125.58 117.88,-120.97"/>
</a>
</g>
</g>
<!-- Node4 -->
<g id="Node000004" class="node">
<title>Node4</title>
<g id="a_Node000004"><a xlink:href="dhcp_8h.html" target="_top" xlink:title=" ">
<polygon fill="white" stroke="#666666" points="93,-30 0,-30 0,0 93,0 93,-30"/>
<text text-anchor="start" x="8" y="-18" font-family="Helvetica,sans-Serif" font-size="10.00">include/kernel/net</text>
<text text-anchor="middle" x="46.5" y="-7" font-family="Helvetica,sans-Serif" font-size="10.00">/dhcp.h</text>
</a>
</g>
</g>
<!-- Node3&#45;&gt;Node4 -->
<g id="edge3_Node000003_Node000004" class="edge">
<title>Node3&#45;&gt;Node4</title>
<g id="a_edge3_Node000003_Node000004"><a xlink:title=" ">
<path fill="none" stroke="#63b8ff" d="M123.13,-60.18C106.37,-50.52 86.59,-39.12 71.33,-30.31"/>
<polygon fill="#63b8ff" stroke="#63b8ff" points="121.18,-63.67 131.59,-65.64 124.67,-57.61 121.18,-63.67"/>
</a>
</g>
</g>
<!-- Node5 -->
<g id="Node000005" class="node">
<title>Node5</title>
<g id="a_Node000005"><a xlink:href="dns_8h.html" target="_top" xlink:title=" ">
<polygon fill="white" stroke="#666666" points="204,-30 111,-30 111,0 204,0 204,-30"/>
<text text-anchor="start" x="119" y="-18" font-family="Helvetica,sans-Serif" font-size="10.00">include/kernel/net</text>
<text text-anchor="middle" x="157.5" y="-7" font-family="Helvetica,sans-Serif" font-size="10.00">/dns.h</text>
</a>
</g>
</g>
<!-- Node3&#45;&gt;Node5 -->
<g id="edge4_Node000003_Node000005" class="edge">
<title>Node3&#45;&gt;Node5</title>
<g id="a_edge4_Node000003_Node000005"><a xlink:title=" ">
<path fill="none" stroke="#63b8ff" d="M157.5,-54.97C157.5,-46.55 157.5,-37.45 157.5,-30.16"/>
<polygon fill="#63b8ff" stroke="#63b8ff" points="154,-54.8 157.5,-64.8 161,-54.8 154,-54.8"/>
</a>
</g>
</g>
<!-- Node6 -->
<g id="Node000006" class="node">
<title>Node6</title>
<g id="a_Node000006"><a xlink:href="ntp_8h.html" target="_top" xlink:title=" ">
<polygon fill="white" stroke="#666666" points="315,-30 222,-30 222,0 315,0 315,-30"/>
<text text-anchor="start" x="230" y="-18" font-family="Helvetica,sans-Serif" font-size="10.00">include/kernel/net</text>
<text text-anchor="middle" x="268.5" y="-7" font-family="Helvetica,sans-Serif" font-size="10.00">/ntp.h</text>
</a>
</g>
</g>
<!-- Node3&#45;&gt;Node6 -->
<g id="edge5_Node000003_Node000006" class="edge">
<title>Node3&#45;&gt;Node6</title>
<g id="a_edge5_Node000003_Node000006"><a xlink:title=" ">
<path fill="none" stroke="#63b8ff" d="M191.87,-60.18C208.63,-50.52 228.41,-39.12 243.67,-30.31"/>
<polygon fill="#63b8ff" stroke="#63b8ff" points="190.33,-57.61 183.41,-65.64 193.82,-63.67 190.33,-57.61"/>
</a>
</g>
</g>
</g>
</svg>
