<?xml version="1.0" encoding="UTF-8" standalone="no"?>
<!DOCTYPE svg PUBLIC "-//W3C//DTD SVG 1.1//EN"
 "http://www.w3.org/Graphics/SVG/1.1/DTD/svg11.dtd">
<!-- Generated by graphviz version 9.0.0 (20230911.1827)
 -->
<!-- Title: include/kernel/net/ipv4.h Pages: 1 -->
<svg width="323pt" height="172pt"
 viewBox="0.00 0.00 322.50 171.50" xmlns="http://www.w3.org/2000/svg" xmlns:xlink="http://www.w3.org/1999/xlink">
<g id="graph0" class="graph" transform="scale(1 1) rotate(0) translate(4 167.5)">
<title>include/kernel/net/ipv4.h</title>
<!-- Node1 -->
<g id="Node000001" class="node">
<title>Node1</title>
<g id="a_Node000001"><a xlink:title=" ">
<polygon fill="#999999" stroke="#666666" points="147.5,-163.5 55,-163.5 55,-133 147.5,-133 147.5,-163.5"/>
<text text-anchor="start" x="63" y="-150" font-family="Helvetica,sans-Serif" font-size="10.00">include/kernel/net</text>
<text text-anchor="middle" x="101.25" y="-138.75" font-family="Helvetica,sans-Serif" font-size="10.00">/ipv4.h</text>
</a>
</g>
</g>
<!-- Node2 -->
<g id="Node000002" class="node">
<title>Node2</title>
<g id="a_Node000002"><a xlink:href="icmpv4_8h.html" target="_top" xlink:title=" ">
<polygon fill="white" stroke="#666666" points="92.5,-97 0,-97 0,-66.5 92.5,-66.5 92.5,-97"/>
<text text-anchor="start" x="8" y="-83.5" font-family="Helvetica,sans-Serif" font-size="10.00">include/kernel/net</text>
<text text-anchor="middle" x="46.25" y="-72.25" font-family="Helvetica,sans-Serif" font-size="10.00">/icmpv4.h</text>
</a>
</g>
</g>
<!-- Node1&#45;&gt;Node2 -->
<g id="edge1_Node000001_Node000002" class="edge">
<title>Node1&#45;&gt;Node2</title>
<g id="a_edge1_Node000001_Node000002"><a xlink:title=" ">
<path fill="none" stroke="#63b8ff" d="M81.54,-124.13C73.91,-115.19 65.42,-105.24 58.68,-97.33"/>
<polygon fill="#63b8ff" stroke="#63b8ff" points="78.64,-126.12 87.79,-131.46 83.96,-121.58 78.64,-126.12"/>
</a>
</g>
</g>
<!-- Node3 -->
<g id="Node000003" class="node">
<title>Node3</title>
<g id="a_Node000003"><a xlink:href="udp_8h.html" target="_top" xlink:title=" ">
<polygon fill="white" stroke="#666666" points="203.5,-97 111,-97 111,-66.5 203.5,-66.5 203.5,-97"/>
<text text-anchor="start" x="119" y="-83.5" font-family="Helvetica,sans-Serif" font-size="10.00">include/kernel/net</text>
<text text-anchor="middle" x="157.25" y="-72.25" font-family="Helvetica,sans-Serif" font-size="10.00">/udp.h</text>
</a>
</g>
</g>
<!-- Node1&#45;&gt;Node3 -->
<g id="edge2_Node000001_Node000003" class="edge">
<title>Node1&#45;&gt;Node3</title>
<g id="a_edge2_Node000001_Node000003"><a xlink:title=" ">
<path fill="none" stroke="#63b8ff" d="M121.32,-124.13C129.08,-115.19 137.73,-105.24 144.59,-97.33"/>
<polygon fill="#63b8ff" stroke="#63b8ff" points="118.86,-121.63 114.95,-131.47 124.15,-126.21 118.86,-121.63"/>
</a>
</g>
</g>
<!-- Node4 -->
<g id="Node000004" class="node">
<title>Node4</title>
<g id="a_Node000004"><a xlink:href="dhcp_8h.html" target="_top" xlink:title=" ">
<polygon fill="white" stroke="#666666" points="92.5,-30.5 0,-30.5 0,0 92.5,0 92.5,-30.5"/>
<text text-anchor="start" x="8" y="-17" font-family="Helvetica,sans-Serif" font-size="10.00">include/kernel/net</text>
<text text-anchor="middle" x="46.25" y="-5.75" font-family="Helvetica,sans-Serif" font-size="10.00">/dhcp.h</text>
</a>
</g>
</g>
<!-- Node3&#45;&gt;Node4 -->
<g id="edge3_Node000003_Node000004" class="edge">
<title>Node3&#45;&gt;Node4</title>
<g id="a_edge3_Node000003_Node000004"><a xlink:title=" ">
<path fill="none" stroke="#63b8ff" d="M122.21,-60.39C105.69,-50.79 86.36,-39.56 71.34,-30.83"/>
<polygon fill="#63b8ff" stroke="#63b8ff" points="120.35,-63.36 130.75,-65.35 123.87,-57.3 120.35,-63.36"/>
</a>
</g>
</g>
<!-- Node5 -->
<g id="Node000005" class="node">
<title>Node5</title>
<g id="a_Node000005"><a xlink:href="dns_8h.html" target="_top" xlink:title=" ">
<polygon fill="white" stroke="#666666" points="203.5,-30.5 111,-30.5 111,0 203.5,0 203.5,-30.5"/>
<text text-anchor="start" x="119" y="-17" font-family="Helvetica,sans-Serif" font-size="10.00">include/kernel/net</text>
<text text-anchor="middle" x="157.25" y="-5.75" font-family="Helvetica,sans-Serif" font-size="10.00">/dns.h</text>
</a>
</g>
</g>
<!-- Node3&#45;&gt;Node5 -->
<g id="edge4_Node000003_Node000005" class="edge">
<title>Node3&#45;&gt;Node5</title>
<g id="a_edge4_Node000003_Node000005"><a xlink:title=" ">
<path fill="none" stroke="#63b8ff" d="M157.25,-54.81C157.25,-46.64 157.25,-37.91 157.25,-30.83"/>
<polygon fill="#63b8ff" stroke="#63b8ff" points="153.75,-54.6 157.25,-64.6 160.75,-54.6 153.75,-54.6"/>
</a>
</g>
</g>
<!-- Node6 -->
<g id="Node000006" class="node">
<title>Node6</title>
<g id="a_Node000006"><a xlink:href="ntp_8h.html" target="_top" xlink:title=" ">
<polygon fill="white" stroke="#666666" points="314.5,-30.5 222,-30.5 222,0 314.5,0 314.5,-30.5"/>
<text text-anchor="start" x="230" y="-17" font-family="Helvetica,sans-Serif" font-size="10.00">include/kernel/net</text>
<text text-anchor="middle" x="268.25" y="-5.75" font-family="Helvetica,sans-Serif" font-size="10.00">/ntp.h</text>
</a>
</g>
</g>
<!-- Node3&#45;&gt;Node6 -->
<g id="edge5_Node000003_Node000006" class="edge">
<title>Node3&#45;&gt;Node6</title>
<g id="a_edge5_Node000003_Node000006"><a xlink:title=" ">
<path fill="none" stroke="#63b8ff" d="M192.29,-60.39C208.81,-50.79 228.14,-39.56 243.16,-30.83"/>
<polygon fill="#63b8ff" stroke="#63b8ff" points="190.63,-57.3 183.75,-65.35 194.15,-63.36 190.63,-57.3"/>
</a>
</g>
</g>
</g>
</svg>
