<?xml version="1.0" encoding="UTF-8" standalone="no"?>
<!DOCTYPE svg PUBLIC "-//W3C//DTD SVG 1.1//EN"
 "http://www.w3.org/Graphics/SVG/1.1/DTD/svg11.dtd">
<!-- Generated by graphviz version 8.0.2 (20230410.1723)
 -->
<!-- Title: ipv4_send_packet Pages: 1 -->
<svg width="248pt" height="100pt"
 viewBox="0.00 0.00 248.00 100.00" xmlns="http://www.w3.org/2000/svg" xmlns:xlink="http://www.w3.org/1999/xlink">
<g id="graph0" class="graph" transform="scale(1 1) rotate(0) translate(4 96)">
<title>ipv4_send_packet</title>
<!-- Node1 -->
<g id="Node000001" class="node">
<title>Node1</title>
<g id="a_Node000001"><a xlink:title=" ">
<polygon fill="#999999" stroke="#666666" points="240,-46 145,-46 145,-27 240,-27 240,-46"/>
<text text-anchor="middle" x="192.5" y="-34" font-family="Helvetica,sans-Serif" font-size="10.00">ipv4_send_packet</text>
</a>
</g>
</g>
<!-- Node1&#45;&gt;Node1 -->
<g id="edge3_Node000001_Node000001" class="edge">
<title>Node1&#45;&gt;Node1</title>
<g id="a_edge3_Node000001_Node000001"><a xlink:title=" ">
<path fill="none" stroke="#63b8ff" d="M217.47,-56.76C214.85,-60.97 206.52,-64 192.5,-64 168.24,-64 161.04,-54.94 170.9,-46.37"/>
<polygon fill="#63b8ff" stroke="#63b8ff" points="220.52,-55.8 214.1,-47.37 213.86,-57.96 220.52,-55.8"/>
</a>
</g>
</g>
<!-- Node2 -->
<g id="Node000002" class="node">
<title>Node2</title>
<g id="a_Node000002"><a xlink:href="icmpv4_8c.html#a24958014ffd38662c69aff53c25046a5" target="_top" xlink:title=" ">
<polygon fill="white" stroke="#666666" points="109,-74 0,-74 0,-55 109,-55 109,-74"/>
<text text-anchor="middle" x="54.5" y="-62" font-family="Helvetica,sans-Serif" font-size="10.00">icmpv4_send_packet</text>
</a>
</g>
</g>
<!-- Node1&#45;&gt;Node2 -->
<g id="edge1_Node000001_Node000002" class="edge">
<title>Node1&#45;&gt;Node2</title>
<g id="a_edge1_Node000001_Node000002"><a xlink:title=" ">
<path fill="none" stroke="#63b8ff" d="M133.96,-48.35C123.91,-50.42 113.55,-52.55 103.78,-54.56"/>
<polygon fill="#63b8ff" stroke="#63b8ff" points="134.61,-51.58 143.7,-46.14 133.2,-44.72 134.61,-51.58"/>
</a>
</g>
</g>
<!-- Node3 -->
<g id="Node000003" class="node">
<title>Node3</title>
<g id="a_Node000003"><a xlink:href="udp_8c.html#ac78d90d0d505eb6b507d0cf93c7499fb" target="_top" xlink:title=" ">
<polygon fill="white" stroke="#666666" points="101,-19 8,-19 8,0 101,0 101,-19"/>
<text text-anchor="middle" x="54.5" y="-7" font-family="Helvetica,sans-Serif" font-size="10.00">udp_send_packet</text>
</a>
</g>
</g>
<!-- Node1&#45;&gt;Node3 -->
<g id="edge4_Node000001_Node000003" class="edge">
<title>Node1&#45;&gt;Node3</title>
<g id="a_edge4_Node000001_Node000003"><a xlink:title=" ">
<path fill="none" stroke="#63b8ff" d="M134,-25.08C123.14,-22.93 111.92,-20.7 101.47,-18.63"/>
<polygon fill="#63b8ff" stroke="#63b8ff" points="133.21,-28.69 143.7,-27.21 134.57,-21.83 133.21,-28.69"/>
</a>
</g>
</g>
<!-- Node2&#45;&gt;Node2 -->
<g id="edge2_Node000002_Node000002" class="edge">
<title>Node2&#45;&gt;Node2</title>
<g id="a_edge2_Node000002_Node000002"><a xlink:title=" ">
<path fill="none" stroke="#63b8ff" d="M79.47,-84.76C76.85,-88.97 68.52,-92 54.5,-92 30.24,-92 23.04,-82.94 32.9,-74.37"/>
<polygon fill="#63b8ff" stroke="#63b8ff" points="82.52,-83.8 76.1,-75.37 75.86,-85.96 82.52,-83.8"/>
</a>
</g>
</g>
<!-- Node3&#45;&gt;Node3 -->
<g id="edge5_Node000003_Node000003" class="edge">
<title>Node3&#45;&gt;Node3</title>
<g id="a_edge5_Node000003_Node000003"><a xlink:title=" ">
<path fill="none" stroke="#63b8ff" d="M79.47,-29.76C76.85,-33.97 68.52,-37 54.5,-37 30.24,-37 23.04,-27.94 32.9,-19.37"/>
<polygon fill="#63b8ff" stroke="#63b8ff" points="82.52,-28.8 76.1,-20.37 75.86,-30.96 82.52,-28.8"/>
</a>
</g>
</g>
</g>
</svg>
