<?xml version="1.0" encoding="UTF-8" standalone="no"?>
<!DOCTYPE svg PUBLIC "-//W3C//DTD SVG 1.1//EN"
 "http://www.w3.org/Graphics/SVG/1.1/DTD/svg11.dtd">
<!-- Generated by graphviz version 8.0.2 (20230410.1723)
 -->
<!-- Title: ipv4_send_packet Pages: 1 -->
<svg width="247pt" height="45pt"
 viewBox="0.00 0.00 247.00 45.00" xmlns="http://www.w3.org/2000/svg" xmlns:xlink="http://www.w3.org/1999/xlink">
<g id="graph0" class="graph" transform="scale(1 1) rotate(0) translate(4 41)">
<title>ipv4_send_packet</title>
<!-- Node1 -->
<g id="Node000001" class="node">
<title>Node1</title>
<g id="a_Node000001"><a xlink:title=" ">
<polygon fill="#999999" stroke="#666666" points="95,-19 0,-19 0,0 95,0 95,-19"/>
<text text-anchor="middle" x="47.5" y="-7" font-family="Helvetica,sans-Serif" font-size="10.00">ipv4_send_packet</text>
</a>
</g>
</g>
<!-- Node1&#45;&gt;Node1 -->
<g id="edge3_Node000001_Node000001" class="edge">
<title>Node1&#45;&gt;Node1</title>
<g id="a_edge3_Node000001_Node000001"><a xlink:title=" ">
<path fill="none" stroke="#63b8ff" d="M25.97,-19.37C16.15,-27.94 23.33,-37 47.5,-37 61.47,-37 69.77,-33.97 72.38,-29.76"/>
<polygon fill="#63b8ff" stroke="#63b8ff" points="75.43,-28.81 69.03,-20.37 68.77,-30.96 75.43,-28.81"/>
</a>
</g>
</g>
<!-- Node2 -->
<g id="Node000002" class="node">
<title>Node2</title>
<g id="a_Node000002"><a xlink:href="ethernet_8c.html#ae0adc121b615550b0366f4354a1936b4" target="_top" xlink:title=" ">
<polygon fill="white" stroke="#666666" points="239,-19 131,-19 131,0 239,0 239,-19"/>
<text text-anchor="middle" x="185" y="-7" font-family="Helvetica,sans-Serif" font-size="10.00">ethernet_send_frame</text>
</a>
</g>
</g>
<!-- Node1&#45;&gt;Node2 -->
<g id="edge1_Node000001_Node000002" class="edge">
<title>Node1&#45;&gt;Node2</title>
<g id="a_edge1_Node000001_Node000002"><a xlink:title=" ">
<path fill="none" stroke="#63b8ff" d="M95.13,-9.5C103.12,-9.5 111.53,-9.5 119.88,-9.5"/>
<polygon fill="#63b8ff" stroke="#63b8ff" points="119.77,-13 129.77,-9.5 119.77,-6 119.77,-13"/>
</a>
</g>
</g>
<!-- Node2&#45;&gt;Node2 -->
<g id="edge2_Node000002_Node000002" class="edge">
<title>Node2&#45;&gt;Node2</title>
<g id="a_edge2_Node000002_Node000002"><a xlink:title=" ">
<path fill="none" stroke="#63b8ff" d="M163.47,-19.37C153.65,-27.94 160.83,-37 185,-37 198.97,-37 207.27,-33.97 209.88,-29.76"/>
<polygon fill="#63b8ff" stroke="#63b8ff" points="212.93,-28.81 206.53,-20.37 206.27,-30.96 212.93,-28.81"/>
</a>
</g>
</g>
</g>
</svg>
