<?xml version="1.0" encoding="UTF-8" standalone="no"?>
<!DOCTYPE svg PUBLIC "-//W3C//DTD SVG 1.1//EN"
 "http://www.w3.org/Graphics/SVG/1.1/DTD/svg11.dtd">
<!-- Generated by graphviz version 8.0.2 (20230410.1723)
 -->
<!-- Title: include/kernel/net/ipv4.h Pages: 1 -->
<svg width="217pt" height="263pt"
 viewBox="0.00 0.00 216.50 263.00" xmlns="http://www.w3.org/2000/svg" xmlns:xlink="http://www.w3.org/1999/xlink">
<g id="graph0" class="graph" transform="scale(1 1) rotate(0) translate(4 259)">
<title>include/kernel/net/ipv4.h</title>
<!-- Node1 -->
<g id="node1" class="node">
<title>Node1</title>
<g id="a_node1"><a xlink:title=" ">
<polygon fill="#bfbfbf" stroke="black" points="94,-224.5 94,-254.5 187,-254.5 187,-224.5 94,-224.5"/>
<text text-anchor="start" x="102" y="-242.5" font-family="Helvetica,sans-Serif" font-size="10.00">include/kernel/net</text>
<text text-anchor="middle" x="140.5" y="-231.5" font-family="Helvetica,sans-Serif" font-size="10.00">/ipv4.h</text>
</a>
</g>
</g>
<!-- Node2 -->
<g id="node2" class="node">
<title>Node2</title>
<g id="a_node2"><a xlink:href="inet_8h.html" target="_top" xlink:title=" ">
<polygon fill="none" stroke="black" points="50.5,-168.5 50.5,-187.5 112.5,-187.5 112.5,-168.5 50.5,-168.5"/>
<text text-anchor="middle" x="81.5" y="-175.5" font-family="Helvetica,sans-Serif" font-size="10.00">arpa/inet.h</text>
</a>
</g>
</g>
<!-- Node1&#45;&gt;Node2 -->
<g id="edge1" class="edge">
<title>Node1&#45;&gt;Node2</title>
<path fill="none" stroke="midnightblue" d="M126.82,-224.7C118.06,-215.87 106.66,-204.37 97.49,-195.12"/>
<polygon fill="midnightblue" stroke="midnightblue" points="100.35,-193.04 90.83,-188.4 95.38,-197.96 100.35,-193.04"/>
</g>
<!-- Node4 -->
<g id="node4" class="node">
<title>Node4</title>
<g id="a_node4"><a xlink:href="types_8h.html" target="_top" xlink:title=" ">
<polygon fill="none" stroke="black" points="66.5,-56.5 66.5,-75.5 134.5,-75.5 134.5,-56.5 66.5,-56.5"/>
<text text-anchor="middle" x="100.5" y="-63.5" font-family="Helvetica,sans-Serif" font-size="10.00">sys/types.h</text>
</a>
</g>
</g>
<!-- Node1&#45;&gt;Node4 -->
<g id="edge11" class="edge">
<title>Node1&#45;&gt;Node4</title>
<path fill="none" stroke="midnightblue" d="M137.29,-224.76C130.16,-194.18 112.98,-120.51 104.87,-85.75"/>
<polygon fill="midnightblue" stroke="midnightblue" points="108.1,-85.16 102.42,-76.21 101.28,-86.75 108.1,-85.16"/>
</g>
<!-- Node8 -->
<g id="node8" class="node">
<title>Node8</title>
<g id="a_node8"><a xlink:href="net_8h.html" target="_top" xlink:title="This module defines network interfaces and drivers.">
<polygon fill="none" stroke="black" points="153,-56.5 153,-75.5 208,-75.5 208,-56.5 153,-56.5"/>
<text text-anchor="middle" x="180.5" y="-63.5" font-family="Helvetica,sans-Serif" font-size="10.00">net/net.h</text>
</a>
</g>
</g>
<!-- Node1&#45;&gt;Node8 -->
<g id="edge8" class="edge">
<title>Node1&#45;&gt;Node8</title>
<path fill="none" stroke="midnightblue" d="M144.52,-224.84C147.45,-214.71 151.42,-200.55 154.5,-188 163.32,-152.11 172.03,-109.82 176.79,-85.94"/>
<polygon fill="midnightblue" stroke="midnightblue" points="180.4,-86.74 178.9,-76.25 173.53,-85.39 180.4,-86.74"/>
</g>
<!-- Node3 -->
<g id="node3" class="node">
<title>Node3</title>
<g id="a_node3"><a xlink:href="socket_8h.html" target="_top" xlink:title=" ">
<polygon fill="none" stroke="black" points="0,-112.5 0,-131.5 73,-131.5 73,-112.5 0,-112.5"/>
<text text-anchor="middle" x="36.5" y="-119.5" font-family="Helvetica,sans-Serif" font-size="10.00">sys/socket.h</text>
</a>
</g>
</g>
<!-- Node2&#45;&gt;Node3 -->
<g id="edge2" class="edge">
<title>Node2&#45;&gt;Node3</title>
<path fill="none" stroke="midnightblue" d="M74.47,-168.56C68.02,-160.83 58.3,-149.16 50.31,-139.57"/>
<polygon fill="midnightblue" stroke="midnightblue" points="52.43,-137.64 43.33,-132.2 47.05,-142.12 52.43,-137.64"/>
</g>
<!-- Node2&#45;&gt;Node4 -->
<g id="edge7" class="edge">
<title>Node2&#45;&gt;Node4</title>
<path fill="none" stroke="midnightblue" d="M82.93,-168.73C85.94,-151.29 93.01,-110.35 97.21,-86.06"/>
<polygon fill="midnightblue" stroke="midnightblue" points="100.8,-86.81 99.06,-76.36 93.9,-85.62 100.8,-86.81"/>
</g>
<!-- Node3&#45;&gt;Node4 -->
<g id="edge3" class="edge">
<title>Node3&#45;&gt;Node4</title>
<path fill="none" stroke="midnightblue" d="M46.5,-112.56C56.14,-104.43 70.93,-91.95 82.6,-82.1"/>
<polygon fill="midnightblue" stroke="midnightblue" points="84.39,-84.33 89.78,-75.2 79.88,-78.98 84.39,-84.33"/>
</g>
<!-- Node5 -->
<g id="node5" class="node">
<title>Node5</title>
<g id="a_node5"><a xlink:title=" ">
<polygon fill="none" stroke="#bfbfbf" points="152.5,-0.5 152.5,-19.5 208.5,-19.5 208.5,-0.5 152.5,-0.5"/>
<text text-anchor="middle" x="180.5" y="-7.5" font-family="Helvetica,sans-Serif" font-size="10.00">stdbool.h</text>
</a>
</g>
</g>
<!-- Node4&#45;&gt;Node5 -->
<g id="edge4" class="edge">
<title>Node4&#45;&gt;Node5</title>
<path fill="none" stroke="midnightblue" d="M113,-56.56C125.33,-48.24 144.41,-35.36 159.15,-25.41"/>
<polygon fill="midnightblue" stroke="midnightblue" points="160.76,-27.87 167.09,-19.38 156.84,-22.07 160.76,-27.87"/>
</g>
<!-- Node6 -->
<g id="node6" class="node">
<title>Node6</title>
<g id="a_node6"><a xlink:title=" ">
<polygon fill="none" stroke="#bfbfbf" points="14.5,-0.5 14.5,-19.5 66.5,-19.5 66.5,-0.5 14.5,-0.5"/>
<text text-anchor="middle" x="40.5" y="-7.5" font-family="Helvetica,sans-Serif" font-size="10.00">stddef.h</text>
</a>
</g>
</g>
<!-- Node4&#45;&gt;Node6 -->
<g id="edge5" class="edge">
<title>Node4&#45;&gt;Node6</title>
<path fill="none" stroke="midnightblue" d="M91.12,-56.56C82.18,-48.51 68.49,-36.19 57.6,-26.39"/>
<polygon fill="midnightblue" stroke="midnightblue" points="60.39,-24.29 50.61,-20.2 55.7,-29.49 60.39,-24.29"/>
</g>
<!-- Node7 -->
<g id="node7" class="node">
<title>Node7</title>
<g id="a_node7"><a xlink:title=" ">
<polygon fill="none" stroke="#bfbfbf" points="85,-0.5 85,-19.5 134,-19.5 134,-0.5 85,-0.5"/>
<text text-anchor="middle" x="109.5" y="-7.5" font-family="Helvetica,sans-Serif" font-size="10.00">stdint.h</text>
</a>
</g>
</g>
<!-- Node4&#45;&gt;Node7 -->
<g id="edge6" class="edge">
<title>Node4&#45;&gt;Node7</title>
<path fill="none" stroke="midnightblue" d="M101.91,-56.56C103.09,-49.47 104.82,-39.06 106.34,-29.98"/>
<polygon fill="midnightblue" stroke="midnightblue" points="109.94,-30.64 108.13,-20.2 103.04,-29.49 109.94,-30.64"/>
</g>
<!-- Node8&#45;&gt;Node5 -->
<g id="edge9" class="edge">
<title>Node8&#45;&gt;Node5</title>
<path fill="none" stroke="midnightblue" d="M180.5,-56.56C180.5,-49.47 180.5,-39.06 180.5,-29.98"/>
<polygon fill="midnightblue" stroke="midnightblue" points="184,-30.2 180.5,-20.2 177,-30.2 184,-30.2"/>
</g>
<!-- Node8&#45;&gt;Node7 -->
<g id="edge10" class="edge">
<title>Node8&#45;&gt;Node7</title>
<path fill="none" stroke="midnightblue" d="M169.41,-56.56C158.61,-48.35 141.98,-35.7 128.97,-25.81"/>
<polygon fill="midnightblue" stroke="midnightblue" points="131.36,-22.47 121.28,-19.2 127.12,-28.04 131.36,-22.47"/>
</g>
</g>
</svg>
