<?xml version="1.0" encoding="UTF-8" standalone="no"?>
<!DOCTYPE svg PUBLIC "-//W3C//DTD SVG 1.1//EN"
 "http://www.w3.org/Graphics/SVG/1.1/DTD/svg11.dtd">
<!-- Generated by graphviz version 9.0.0 (20230911.1827)
 -->
<!-- Title: include/kernel/net/ipv4.h Pages: 1 -->
<svg width="214pt" height="260pt"
 viewBox="0.00 0.00 214.00 259.50" xmlns="http://www.w3.org/2000/svg" xmlns:xlink="http://www.w3.org/1999/xlink">
<g id="graph0" class="graph" transform="scale(1 1) rotate(0) translate(4 255.5)">
<title>include/kernel/net/ipv4.h</title>
<!-- Node1 -->
<g id="Node000001" class="node">
<title>Node1</title>
<g id="a_Node000001"><a xlink:title=" ">
<polygon fill="#999999" stroke="#666666" points="185.38,-251.5 92.88,-251.5 92.88,-221 185.38,-221 185.38,-251.5"/>
<text text-anchor="start" x="100.88" y="-238" font-family="Helvetica,sans-Serif" font-size="10.00">include/kernel/net</text>
<text text-anchor="middle" x="139.12" y="-226.75" font-family="Helvetica,sans-Serif" font-size="10.00">/ipv4.h</text>
</a>
</g>
</g>
<!-- Node2 -->
<g id="Node000002" class="node">
<title>Node2</title>
<g id="a_Node000002"><a xlink:href="inet_8h.html" target="_top" xlink:title=" ">
<polygon fill="white" stroke="#666666" points="111,-185 49.25,-185 49.25,-165.75 111,-165.75 111,-185"/>
<text text-anchor="middle" x="80.12" y="-171.5" font-family="Helvetica,sans-Serif" font-size="10.00">arpa/inet.h</text>
</a>
</g>
</g>
<!-- Node1&#45;&gt;Node2 -->
<g id="edge1_Node000001_Node000002" class="edge">
<title>Node1&#45;&gt;Node2</title>
<g id="a_edge1_Node000001_Node000002"><a xlink:title=" ">
<path fill="none" stroke="#63b8ff" d="M124.54,-220.7C116.25,-212.42 105.82,-202.02 97.16,-193.37"/>
<polygon fill="#63b8ff" stroke="#63b8ff" points="99.84,-191.11 90.29,-186.52 94.9,-196.06 99.84,-191.11"/>
</a>
</g>
</g>
<!-- Node4 -->
<g id="Node000004" class="node">
<title>Node4</title>
<g id="a_Node000004"><a xlink:href="types_8h.html" target="_top" xlink:title=" ">
<polygon fill="white" stroke="#666666" points="132.62,-74.5 65.62,-74.5 65.62,-55.25 132.62,-55.25 132.62,-74.5"/>
<text text-anchor="middle" x="99.12" y="-61" font-family="Helvetica,sans-Serif" font-size="10.00">sys/types.h</text>
</a>
</g>
</g>
<!-- Node1&#45;&gt;Node4 -->
<g id="edge11_Node000001_Node000004" class="edge">
<title>Node1&#45;&gt;Node4</title>
<g id="a_edge11_Node000001_Node000004"><a xlink:title=" ">
<path fill="none" stroke="#63b8ff" d="M135.65,-220.52C128.47,-190.12 112.01,-120.44 103.87,-85.96"/>
<polygon fill="#63b8ff" stroke="#63b8ff" points="107.33,-85.39 101.62,-76.46 100.52,-86.99 107.33,-85.39"/>
</a>
</g>
</g>
<!-- Node8 -->
<g id="Node000008" class="node">
<title>Node8</title>
<g id="a_Node000008"><a xlink:href="net_8h.html" target="_top" xlink:title="This module defines network interfaces and drivers.">
<polygon fill="white" stroke="#666666" points="205.25,-74.5 151,-74.5 151,-55.25 205.25,-55.25 205.25,-74.5"/>
<text text-anchor="middle" x="178.12" y="-61" font-family="Helvetica,sans-Serif" font-size="10.00">net/net.h</text>
</a>
</g>
</g>
<!-- Node1&#45;&gt;Node8 -->
<g id="edge8_Node000001_Node000008" class="edge">
<title>Node1&#45;&gt;Node8</title>
<g id="a_edge8_Node000001_Node000008"><a xlink:title=" ">
<path fill="none" stroke="#63b8ff" d="M143.42,-220.8C146.33,-210.79 150.16,-197.14 153.12,-185 161.57,-150.37 169.74,-109.66 174.33,-85.91"/>
<polygon fill="#63b8ff" stroke="#63b8ff" points="177.72,-86.85 176.16,-76.37 170.84,-85.54 177.72,-86.85"/>
</a>
</g>
</g>
<!-- Node3 -->
<g id="Node000003" class="node">
<title>Node3</title>
<g id="a_Node000003"><a xlink:href="socket_8h.html" target="_top" xlink:title=" ">
<polygon fill="white" stroke="#666666" points="72.25,-129.75 0,-129.75 0,-110.5 72.25,-110.5 72.25,-129.75"/>
<text text-anchor="middle" x="36.12" y="-116.25" font-family="Helvetica,sans-Serif" font-size="10.00">sys/socket.h</text>
</a>
</g>
</g>
<!-- Node2&#45;&gt;Node3 -->
<g id="edge2_Node000002_Node000003" class="edge">
<title>Node2&#45;&gt;Node3</title>
<g id="a_edge2_Node000002_Node000003"><a xlink:title=" ">
<path fill="none" stroke="#63b8ff" d="M72.86,-165.58C66.84,-158.3 58.11,-147.73 50.67,-138.73"/>
<polygon fill="#63b8ff" stroke="#63b8ff" points="53.58,-136.76 44.51,-131.28 48.18,-141.21 53.58,-136.76"/>
</a>
</g>
</g>
<!-- Node2&#45;&gt;Node4 -->
<g id="edge7_Node000002_Node000004" class="edge">
<title>Node2&#45;&gt;Node4</title>
<g id="a_edge7_Node000002_Node000004"><a xlink:title=" ">
<path fill="none" stroke="#63b8ff" d="M81.68,-165.5C84.7,-148.25 91.43,-109.83 95.59,-86.06"/>
<polygon fill="#63b8ff" stroke="#63b8ff" points="99.01,-86.82 97.29,-76.37 92.12,-85.61 99.01,-86.82"/>
</a>
</g>
</g>
<!-- Node3&#45;&gt;Node4 -->
<g id="edge3_Node000003_Node000004" class="edge">
<title>Node3&#45;&gt;Node4</title>
<g id="a_edge3_Node000003_Node000004"><a xlink:title=" ">
<path fill="none" stroke="#63b8ff" d="M46.81,-110.09C55.83,-102.47 68.96,-91.37 79.81,-82.2"/>
<polygon fill="#63b8ff" stroke="#63b8ff" points="82.06,-84.88 87.44,-75.75 77.54,-79.53 82.06,-84.88"/>
</a>
</g>
</g>
<!-- Node5 -->
<g id="Node000005" class="node">
<title>Node5</title>
<g id="a_Node000005"><a xlink:title=" ">
<polygon fill="#e0e0e0" stroke="#999999" points="206,-19.25 150.25,-19.25 150.25,0 206,0 206,-19.25"/>
<text text-anchor="middle" x="178.12" y="-5.75" font-family="Helvetica,sans-Serif" font-size="10.00">stdbool.h</text>
</a>
</g>
</g>
<!-- Node4&#45;&gt;Node5 -->
<g id="edge4_Node000004_Node000005" class="edge">
<title>Node4&#45;&gt;Node5</title>
<g id="a_edge4_Node000004_Node000005"><a xlink:title=" ">
<path fill="none" stroke="#63b8ff" d="M112.53,-54.84C124.22,-46.96 141.43,-35.36 155.29,-26.02"/>
<polygon fill="#63b8ff" stroke="#63b8ff" points="157.07,-29.04 163.4,-20.55 153.15,-23.24 157.07,-29.04"/>
</a>
</g>
</g>
<!-- Node6 -->
<g id="Node000006" class="node">
<title>Node6</title>
<g id="a_Node000006"><a xlink:title=" ">
<polygon fill="#e0e0e0" stroke="#999999" points="65.75,-19.25 14.5,-19.25 14.5,0 65.75,0 65.75,-19.25"/>
<text text-anchor="middle" x="40.12" y="-5.75" font-family="Helvetica,sans-Serif" font-size="10.00">stddef.h</text>
</a>
</g>
</g>
<!-- Node4&#45;&gt;Node6 -->
<g id="edge5_Node000004_Node000006" class="edge">
<title>Node4&#45;&gt;Node6</title>
<g id="a_edge5_Node000004_Node000006"><a xlink:title=" ">
<path fill="none" stroke="#63b8ff" d="M89.12,-54.84C80.76,-47.3 68.63,-36.35 58.52,-27.23"/>
<polygon fill="#63b8ff" stroke="#63b8ff" points="60.88,-24.64 51.11,-20.54 56.19,-29.84 60.88,-24.64"/>
</a>
</g>
</g>
<!-- Node7 -->
<g id="Node000007" class="node">
<title>Node7</title>
<g id="a_Node000007"><a xlink:title=" ">
<polygon fill="#e0e0e0" stroke="#999999" points="132.25,-19.25 84,-19.25 84,0 132.25,0 132.25,-19.25"/>
<text text-anchor="middle" x="108.12" y="-5.75" font-family="Helvetica,sans-Serif" font-size="10.00">stdint.h</text>
</a>
</g>
</g>
<!-- Node4&#45;&gt;Node7 -->
<g id="edge6_Node000004_Node000007" class="edge">
<title>Node4&#45;&gt;Node7</title>
<g id="a_edge6_Node000004_Node000007"><a xlink:title=" ">
<path fill="none" stroke="#63b8ff" d="M100.61,-55.08C101.72,-48.49 103.29,-39.21 104.71,-30.82"/>
<polygon fill="#63b8ff" stroke="#63b8ff" points="108.14,-31.55 106.35,-21.1 101.24,-30.38 108.14,-31.55"/>
</a>
</g>
</g>
<!-- Node8&#45;&gt;Node5 -->
<g id="edge9_Node000008_Node000005" class="edge">
<title>Node8&#45;&gt;Node5</title>
<g id="a_edge9_Node000008_Node000005"><a xlink:title=" ">
<path fill="none" stroke="#63b8ff" d="M178.12,-55.08C178.12,-48.57 178.12,-39.42 178.12,-31.12"/>
<polygon fill="#63b8ff" stroke="#63b8ff" points="181.63,-31.12 178.13,-21.12 174.63,-31.12 181.63,-31.12"/>
</a>
</g>
</g>
<!-- Node8&#45;&gt;Node7 -->
<g id="edge10_Node000008_Node000007" class="edge">
<title>Node8&#45;&gt;Node7</title>
<g id="a_edge10_Node000008_Node000007"><a xlink:title=" ">
<path fill="none" stroke="#63b8ff" d="M166.25,-54.84C156.03,-47.07 141.05,-35.67 128.86,-26.4"/>
<polygon fill="#63b8ff" stroke="#63b8ff" points="131.11,-23.71 121.03,-20.44 126.87,-29.28 131.11,-23.71"/>
</a>
</g>
</g>
</g>
</svg>
