<?xml version="1.0" encoding="UTF-8" standalone="no"?>
<!DOCTYPE svg PUBLIC "-//W3C//DTD SVG 1.1//EN"
 "http://www.w3.org/Graphics/SVG/1.1/DTD/svg11.dtd">
<!-- Generated by graphviz version 2.49.3 (20211023.0002)
 -->
<!-- Title: isr_init Pages: 1 -->
<svg width="370pt" height="66pt"
 viewBox="0.00 0.00 370.00 66.00" xmlns="http://www.w3.org/2000/svg" xmlns:xlink="http://www.w3.org/1999/xlink">
<g id="graph0" class="graph" transform="scale(1 1) rotate(0) translate(4 62)">
<title>isr_init</title>
<!-- Node1 -->
<g id="node1" class="node">
<title>Node1</title>
<g id="a_node1"><a xlink:title=" ">
<polygon fill="#bfbfbf" stroke="black" points="0,-19.5 0,-38.5 45,-38.5 45,-19.5 0,-19.5"/>
<text text-anchor="middle" x="22.5" y="-26.5" font-family="Helvetica,sans-Serif" font-size="10.00">isr_init</text>
</a>
</g>
</g>
<!-- Node2 -->
<g id="node2" class="node">
<title>Node2</title>
<g id="a_node2"><a xlink:href="core_8h.html#a47cab1ce00bd311c9d2bffeda438fb3f" target="_top" xlink:title=" ">
<polygon fill="none" stroke="black" points="101,-38.5 101,-57.5 171,-57.5 171,-38.5 101,-38.5"/>
<text text-anchor="middle" x="136" y="-45.5" font-family="Helvetica,sans-Serif" font-size="10.00">arch_isr_init</text>
</a>
</g>
</g>
<!-- Node1&#45;&gt;Node2 -->
<g id="edge1" class="edge">
<title>Node1&#45;&gt;Node2</title>
<path fill="none" stroke="midnightblue" d="M45.26,-32.71C58.16,-34.91 74.97,-37.77 90.56,-40.43"/>
<polygon fill="midnightblue" stroke="midnightblue" points="90.12,-43.9 100.57,-42.13 91.3,-37 90.12,-43.9"/>
</g>
<!-- Node3 -->
<g id="node3" class="node">
<title>Node3</title>
<g id="a_node3"><a xlink:href="isr_8h.html#ab3c2f37893bf0fe6a7efc06e3d908834" target="_top" xlink:title=" ">
<polygon fill="none" stroke="black" points="81,-0.5 81,-19.5 191,-19.5 191,-0.5 81,-0.5"/>
<text text-anchor="middle" x="136" y="-7.5" font-family="Helvetica,sans-Serif" font-size="10.00">isr_enable_interrupts</text>
</a>
</g>
</g>
<!-- Node1&#45;&gt;Node3 -->
<g id="edge2" class="edge">
<title>Node1&#45;&gt;Node3</title>
<path fill="none" stroke="midnightblue" d="M45.26,-25.29C52.8,-24.01 61.68,-22.49 70.88,-20.93"/>
<polygon fill="midnightblue" stroke="midnightblue" points="71.65,-24.35 80.92,-19.21 70.48,-17.44 71.65,-24.35"/>
</g>
<!-- Node4 -->
<g id="node4" class="node">
<title>Node4</title>
<g id="a_node4"><a xlink:href="core_8h.html#aa7731a0b3790e18502b0a7b0ea779e4d" target="_top" xlink:title=" ">
<polygon fill="none" stroke="black" points="227,-0.5 227,-19.5 362,-19.5 362,-0.5 227,-0.5"/>
<text text-anchor="middle" x="294.5" y="-7.5" font-family="Helvetica,sans-Serif" font-size="10.00">arch_isr_enable_interrupts</text>
</a>
</g>
</g>
<!-- Node3&#45;&gt;Node4 -->
<g id="edge3" class="edge">
<title>Node3&#45;&gt;Node4</title>
<path fill="none" stroke="midnightblue" d="M191.3,-10C199.55,-10 208.19,-10 216.8,-10"/>
<polygon fill="midnightblue" stroke="midnightblue" points="216.88,-13.5 226.88,-10 216.88,-6.5 216.88,-13.5"/>
</g>
</g>
</svg>
