<?xml version="1.0" encoding="UTF-8" standalone="no"?>
<!DOCTYPE svg PUBLIC "-//W3C//DTD SVG 1.1//EN"
 "http://www.w3.org/Graphics/SVG/1.1/DTD/svg11.dtd">
<!-- Generated by graphviz version 8.0.2 (20230410.1723)
 -->
<!-- Title: isr_register_handler Pages: 1 -->
<svg width="637pt" height="157pt"
 viewBox="0.00 0.00 637.00 157.00" xmlns="http://www.w3.org/2000/svg" xmlns:xlink="http://www.w3.org/1999/xlink">
<g id="graph0" class="graph" transform="scale(1 1) rotate(0) translate(4 153)">
<title>isr_register_handler</title>
<!-- Node1 -->
<g id="Node000001" class="node">
<title>Node1</title>
<g id="a_Node000001"><a xlink:title=" ">
<polygon fill="#999999" stroke="#666666" points="629,-74 528,-74 528,-55 629,-55 629,-74"/>
<text text-anchor="middle" x="578.5" y="-62" font-family="Helvetica,sans-Serif" font-size="10.00">isr_register_handler</text>
</a>
</g>
</g>
<!-- Node1&#45;&gt;Node1 -->
<g id="edge10_Node000001_Node000001" class="edge">
<title>Node1&#45;&gt;Node1</title>
<g id="a_edge10_Node000001_Node000001"><a xlink:title=" ">
<path fill="none" stroke="#63b8ff" d="M603.29,-84.76C600.69,-88.97 592.42,-92 578.5,-92 554.42,-92 547.27,-82.94 557.05,-74.37"/>
<polygon fill="#63b8ff" stroke="#63b8ff" points="606.34,-83.82 599.95,-75.37 599.68,-85.96 606.34,-83.82"/>
</a>
</g>
</g>
<!-- Node2 -->
<g id="Node000002" class="node">
<title>Node2</title>
<g id="a_Node000002"><a xlink:href="bcm2835__timer_8c.html#af1c06e30d4cc124b212c408dceaadbd0" target="_top" xlink:title=" ">
<polygon fill="white" stroke="#666666" points="492,-130 391,-130 391,-111 492,-111 492,-130"/>
<text text-anchor="middle" x="441.5" y="-118" font-family="Helvetica,sans-Serif" font-size="10.00">bcm2835_timer_init</text>
</a>
</g>
</g>
<!-- Node1&#45;&gt;Node2 -->
<g id="edge1_Node000001_Node000002" class="edge">
<title>Node1&#45;&gt;Node2</title>
<g id="a_edge1_Node000001_Node000002"><a xlink:title=" ">
<path fill="none" stroke="#63b8ff" d="M546.29,-79C530.19,-86.32 510.16,-95.17 492,-102.5 485.22,-105.24 477.84,-108.02 470.9,-110.56"/>
<polygon fill="#63b8ff" stroke="#63b8ff" points="547.61,-81.79 555.24,-74.44 544.69,-75.42 547.61,-81.79"/>
</a>
</g>
</g>
<!-- Node8 -->
<g id="Node000008" class="node">
<title>Node8</title>
<g id="a_Node000008"><a xlink:href="keyboard_8c.html#aaeb4e4a3c4813ee1efc6b98bba9ec781" target="_top" xlink:title=" ">
<polygon fill="white" stroke="#666666" points="478.5,-93 404.5,-93 404.5,-74 478.5,-74 478.5,-93"/>
<text text-anchor="middle" x="441.5" y="-81" font-family="Helvetica,sans-Serif" font-size="10.00">keyboard_init</text>
</a>
</g>
</g>
<!-- Node1&#45;&gt;Node8 -->
<g id="edge11_Node000001_Node000008" class="edge">
<title>Node1&#45;&gt;Node8</title>
<g id="a_edge11_Node000001_Node000008"><a xlink:title=" ">
<path fill="none" stroke="#63b8ff" d="M516.8,-73.04C503.78,-74.88 490.42,-76.76 478.68,-78.41"/>
<polygon fill="#63b8ff" stroke="#63b8ff" points="517.2,-76.38 526.61,-71.52 516.22,-69.45 517.2,-76.38"/>
</a>
</g>
</g>
<!-- Node9 -->
<g id="Node000009" class="node">
<title>Node9</title>
<g id="a_Node000009"><a xlink:href="pit_8c.html#a57da715e73b49d6a3606d1fa1d1a115f" target="_top" xlink:title=" ">
<polygon fill="white" stroke="#666666" points="464,-56 419,-56 419,-37 464,-37 464,-56"/>
<text text-anchor="middle" x="441.5" y="-44" font-family="Helvetica,sans-Serif" font-size="10.00">pit_init</text>
</a>
</g>
</g>
<!-- Node1&#45;&gt;Node9 -->
<g id="edge12_Node000001_Node000009" class="edge">
<title>Node1&#45;&gt;Node9</title>
<g id="a_edge12_Node000001_Node000009"><a xlink:title=" ">
<path fill="none" stroke="#63b8ff" d="M516.73,-56.4C498.02,-53.9 478.62,-51.32 464.34,-49.41"/>
<polygon fill="#63b8ff" stroke="#63b8ff" points="516.24,-60 526.61,-57.85 517.16,-53.06 516.24,-60"/>
</a>
</g>
</g>
<!-- Node10 -->
<g id="Node000010" class="node">
<title>Node10</title>
<g id="a_Node000010"><a xlink:href="rtl8139_8c.html#a24e07ef25a2b1581bca67bbb213a0931" target="_top" xlink:title=" ">
<polygon fill="white" stroke="#666666" points="473.5,-19 409.5,-19 409.5,0 473.5,0 473.5,-19"/>
<text text-anchor="middle" x="441.5" y="-7" font-family="Helvetica,sans-Serif" font-size="10.00">rtl8139_init</text>
</a>
</g>
</g>
<!-- Node1&#45;&gt;Node10 -->
<g id="edge13_Node000001_Node000010" class="edge">
<title>Node1&#45;&gt;Node10</title>
<g id="a_edge13_Node000001_Node000010"><a xlink:title=" ">
<path fill="none" stroke="#63b8ff" d="M544.5,-50.32C528.67,-43.59 509.41,-35.5 492,-28.5 484.48,-25.48 476.29,-22.29 468.76,-19.4"/>
<polygon fill="#63b8ff" stroke="#63b8ff" points="542.79,-53.82 553.36,-54.52 545.53,-47.38 542.79,-53.82"/>
</a>
</g>
</g>
<!-- Node2&#45;&gt;Node2 -->
<g id="edge9_Node000002_Node000002" class="edge">
<title>Node2&#45;&gt;Node2</title>
<g id="a_edge9_Node000002_Node000002"><a xlink:title=" ">
<path fill="none" stroke="#63b8ff" d="M464.39,-140.76C461.99,-144.97 454.36,-148 441.5,-148 419.26,-148 412.66,-138.94 421.7,-130.37"/>
<polygon fill="#63b8ff" stroke="#63b8ff" points="467.51,-139.96 461.3,-131.37 460.8,-141.95 467.51,-139.96"/>
</a>
</g>
</g>
<!-- Node3 -->
<g id="Node000003" class="node">
<title>Node3</title>
<g id="a_Node000003"><a xlink:href="kernel_2arch_2x86__64_2arch_2time_8c.html#a92a37cf9da6c3705b6ef829f1978ab54" target="_top" xlink:title=" ">
<polygon fill="white" stroke="#666666" points="355,-130 275,-130 275,-111 355,-111 355,-130"/>
<text text-anchor="middle" x="315" y="-118" font-family="Helvetica,sans-Serif" font-size="10.00">arch_timer_init</text>
</a>
</g>
</g>
<!-- Node2&#45;&gt;Node3 -->
<g id="edge2_Node000002_Node000003" class="edge">
<title>Node2&#45;&gt;Node3</title>
<g id="a_edge2_Node000002_Node000003"><a xlink:title=" ">
<path fill="none" stroke="#63b8ff" d="M379.7,-120.5C371.37,-120.5 363,-120.5 355.2,-120.5"/>
<polygon fill="#63b8ff" stroke="#63b8ff" points="379.58,-124 389.58,-120.5 379.58,-117 379.58,-124"/>
</a>
</g>
</g>
<!-- Node3&#45;&gt;Node3 -->
<g id="edge3_Node000003_Node000003" class="edge">
<title>Node3&#45;&gt;Node3</title>
<g id="a_edge3_Node000003_Node000003"><a xlink:title=" ">
<path fill="none" stroke="#63b8ff" d="M333.65,-141.1C331.5,-145.13 325.28,-148 315,-148 296.72,-148 291.29,-138.94 298.72,-130.37"/>
<polygon fill="#63b8ff" stroke="#63b8ff" points="336.85,-140.38 331.28,-131.37 330.02,-141.89 336.85,-140.38"/>
</a>
</g>
</g>
<!-- Node4 -->
<g id="Node000004" class="node">
<title>Node4</title>
<g id="a_Node000004"><a xlink:href="timer_8c.html#a896a4c37c6ecf8868ef0dc758e5a598c" target="_top" xlink:title=" ">
<polygon fill="white" stroke="#666666" points="239,-130 183,-130 183,-111 239,-111 239,-130"/>
<text text-anchor="middle" x="211" y="-118" font-family="Helvetica,sans-Serif" font-size="10.00">timer_init</text>
</a>
</g>
</g>
<!-- Node3&#45;&gt;Node4 -->
<g id="edge4_Node000003_Node000004" class="edge">
<title>Node3&#45;&gt;Node4</title>
<g id="a_edge4_Node000003_Node000004"><a xlink:title=" ">
<path fill="none" stroke="#63b8ff" d="M263.64,-120.5C255.26,-120.5 246.86,-120.5 239.34,-120.5"/>
<polygon fill="#63b8ff" stroke="#63b8ff" points="263.56,-124 273.56,-120.5 263.56,-117 263.56,-124"/>
</a>
</g>
</g>
<!-- Node4&#45;&gt;Node4 -->
<g id="edge8_Node000004_Node000004" class="edge">
<title>Node4&#45;&gt;Node4</title>
<g id="a_edge8_Node000004_Node000004"><a xlink:title=" ">
<path fill="none" stroke="#63b8ff" d="M228.57,-141.1C226.55,-145.13 220.69,-148 211,-148 193.77,-148 188.66,-138.94 195.66,-130.37"/>
<polygon fill="#63b8ff" stroke="#63b8ff" points="231.8,-140.45 226.34,-131.37 224.95,-141.87 231.8,-140.45"/>
</a>
</g>
</g>
<!-- Node5 -->
<g id="Node000005" class="node">
<title>Node5</title>
<g id="a_Node000005"><a xlink:href="kmain_8c.html#a666c17b307920a60e50fcf56312f9500" target="_top" xlink:title=" ">
<polygon fill="white" stroke="#666666" points="147,-130 79,-130 79,-111 147,-111 147,-130"/>
<text text-anchor="middle" x="113" y="-118" font-family="Helvetica,sans-Serif" font-size="10.00">kmain_start</text>
</a>
</g>
</g>
<!-- Node4&#45;&gt;Node5 -->
<g id="edge5_Node000004_Node000005" class="edge">
<title>Node4&#45;&gt;Node5</title>
<g id="a_edge5_Node000004_Node000005"><a xlink:title=" ">
<path fill="none" stroke="#63b8ff" d="M171.75,-120.5C163.72,-120.5 155.31,-120.5 147.47,-120.5"/>
<polygon fill="#63b8ff" stroke="#63b8ff" points="171.75,-124 181.75,-120.5 171.75,-117 171.75,-124"/>
</a>
</g>
</g>
<!-- Node6 -->
<g id="Node000006" class="node">
<title>Node6</title>
<g id="a_Node000006"><a xlink:href="arch_2aarch32_2board_2raspi2_2kmain_8c.html#a798325fe646ee31fccf3f735f9bbaf60" target="_top" xlink:title=" ">
<polygon fill="white" stroke="#666666" points="43,-149 0,-149 0,-130 43,-130 43,-149"/>
<text text-anchor="middle" x="21.5" y="-137" font-family="Helvetica,sans-Serif" font-size="10.00">kmain</text>
</a>
</g>
</g>
<!-- Node5&#45;&gt;Node6 -->
<g id="edge6_Node000005_Node000006" class="edge">
<title>Node5&#45;&gt;Node6</title>
<g id="a_edge6_Node000005_Node000006"><a xlink:title=" ">
<path fill="none" stroke="#63b8ff" d="M67.93,-129.86C59.36,-131.67 50.76,-133.5 43.38,-135.07"/>
<polygon fill="#63b8ff" stroke="#63b8ff" points="68.62,-133.08 77.67,-127.57 67.16,-126.23 68.62,-133.08"/>
</a>
</g>
</g>
<!-- Node7 -->
<g id="Node000007" class="node">
<title>Node7</title>
<g id="a_Node000007"><a xlink:href="arch_2x86__64_2kmain_8c.html#ad6d3bd9ddd2519d6040e79426dc57fb5" target="_top" xlink:title=" ">
<polygon fill="white" stroke="#666666" points="43,-112 0,-112 0,-93 43,-93 43,-112"/>
<text text-anchor="middle" x="21.5" y="-100" font-family="Helvetica,sans-Serif" font-size="10.00">kmain</text>
</a>
</g>
</g>
<!-- Node5&#45;&gt;Node7 -->
<g id="edge7_Node000005_Node000007" class="edge">
<title>Node5&#45;&gt;Node7</title>
<g id="a_edge7_Node000005_Node000007"><a xlink:title=" ">
<path fill="none" stroke="#63b8ff" d="M67.93,-111.64C59.36,-109.91 50.76,-108.18 43.38,-106.7"/>
<polygon fill="#63b8ff" stroke="#63b8ff" points="67.18,-115.26 77.67,-113.8 68.56,-108.39 67.18,-115.26"/>
</a>
</g>
</g>
</g>
</svg>
