<?xml version="1.0" encoding="UTF-8" standalone="no"?>
<!DOCTYPE svg PUBLIC "-//W3C//DTD SVG 1.1//EN"
 "http://www.w3.org/Graphics/SVG/1.1/DTD/svg11.dtd">
<!-- Generated by graphviz version 8.0.2 (20230410.1723)
 -->
<!-- Title: isr_init Pages: 1 -->
<svg width="363pt" height="100pt"
 viewBox="0.00 0.00 363.00 100.00" xmlns="http://www.w3.org/2000/svg" xmlns:xlink="http://www.w3.org/1999/xlink">
<g id="graph0" class="graph" transform="scale(1 1) rotate(0) translate(4 96)">
<title>isr_init</title>
<!-- Node1 -->
<g id="Node000001" class="node">
<title>Node1</title>
<g id="a_Node000001"><a xlink:title=" ">
<polygon fill="#999999" stroke="#666666" points="45,-46 0,-46 0,-27 45,-27 45,-46"/>
<text text-anchor="middle" x="22.5" y="-34" font-family="Helvetica,sans-Serif" font-size="10.00">isr_init</text>
</a>
</g>
</g>
<!-- Node1&#45;&gt;Node1 -->
<g id="edge7_Node000001_Node000001" class="edge">
<title>Node1&#45;&gt;Node1</title>
<g id="a_edge7_Node000001_Node000001"><a xlink:title=" ">
<path fill="none" stroke="#63b8ff" d="M4.97,-46.37C-3.03,-54.94 2.81,-64 22.5,-64 33.88,-64 40.64,-60.97 42.77,-56.76"/>
<polygon fill="#63b8ff" stroke="#63b8ff" points="45.96,-56.15 40.03,-47.37 39.19,-57.93 45.96,-56.15"/>
</a>
</g>
</g>
<!-- Node2 -->
<g id="Node000002" class="node">
<title>Node2</title>
<g id="a_Node000002"><a xlink:href="x86__64_2arch_2core_8c.html#a47cab1ce00bd311c9d2bffeda438fb3f" target="_top" xlink:title=" ">
<polygon fill="white" stroke="#666666" points="169,-74 100,-74 100,-55 169,-55 169,-74"/>
<text text-anchor="middle" x="134.5" y="-62" font-family="Helvetica,sans-Serif" font-size="10.00">arch_isr_init</text>
</a>
</g>
</g>
<!-- Node1&#45;&gt;Node2 -->
<g id="edge1_Node000001_Node000002" class="edge">
<title>Node1&#45;&gt;Node2</title>
<g id="a_edge1_Node000001_Node000002"><a xlink:title=" ">
<path fill="none" stroke="#63b8ff" d="M45.5,-42.1C58.13,-45.31 74.45,-49.47 89.6,-53.32"/>
<polygon fill="#63b8ff" stroke="#63b8ff" points="88.28,-56.86 98.84,-55.93 90.01,-50.07 88.28,-56.86"/>
</a>
</g>
</g>
<!-- Node3 -->
<g id="Node000003" class="node">
<title>Node3</title>
<g id="a_Node000003"><a xlink:href="isr_8c.html#ab3c2f37893bf0fe6a7efc06e3d908834" target="_top" xlink:title=" ">
<polygon fill="white" stroke="#666666" points="188,-19 81,-19 81,0 188,0 188,-19"/>
<text text-anchor="middle" x="134.5" y="-7" font-family="Helvetica,sans-Serif" font-size="10.00">isr_enable_interrupts</text>
</a>
</g>
</g>
<!-- Node1&#45;&gt;Node3 -->
<g id="edge3_Node000001_Node000003" class="edge">
<title>Node1&#45;&gt;Node3</title>
<g id="a_edge3_Node000001_Node000003"><a xlink:title=" ">
<path fill="none" stroke="#63b8ff" d="M45.5,-31.1C56.18,-28.48 69.51,-25.21 82.53,-22.01"/>
<polygon fill="#63b8ff" stroke="#63b8ff" points="82.97,-25.26 91.85,-19.48 81.3,-18.46 82.97,-25.26"/>
</a>
</g>
</g>
<!-- Node2&#45;&gt;Node2 -->
<g id="edge2_Node000002_Node000002" class="edge">
<title>Node2&#45;&gt;Node2</title>
<g id="a_edge2_Node000002_Node000002"><a xlink:title=" ">
<path fill="none" stroke="#63b8ff" d="M116.97,-74.37C108.97,-82.94 114.81,-92 134.5,-92 145.88,-92 152.64,-88.97 154.77,-84.76"/>
<polygon fill="#63b8ff" stroke="#63b8ff" points="157.96,-84.15 152.03,-75.37 151.19,-85.93 157.96,-84.15"/>
</a>
</g>
</g>
<!-- Node3&#45;&gt;Node3 -->
<g id="edge6_Node000003_Node000003" class="edge">
<title>Node3&#45;&gt;Node3</title>
<g id="a_edge6_Node000003_Node000003"><a xlink:title=" ">
<path fill="none" stroke="#63b8ff" d="M116.97,-19.37C108.97,-27.94 114.81,-37 134.5,-37 145.88,-37 152.64,-33.97 154.77,-29.76"/>
<polygon fill="#63b8ff" stroke="#63b8ff" points="157.96,-29.15 152.03,-20.37 151.19,-30.93 157.96,-29.15"/>
</a>
</g>
</g>
<!-- Node4 -->
<g id="Node000004" class="node">
<title>Node4</title>
<g id="a_Node000004"><a xlink:href="x86__64_2arch_2core_8c.html#aa7731a0b3790e18502b0a7b0ea779e4d" target="_top" xlink:title=" ">
<polygon fill="white" stroke="#666666" points="355,-19 224,-19 224,0 355,0 355,-19"/>
<text text-anchor="middle" x="289.5" y="-7" font-family="Helvetica,sans-Serif" font-size="10.00">arch_isr_enable_interrupts</text>
</a>
</g>
</g>
<!-- Node3&#45;&gt;Node4 -->
<g id="edge4_Node000003_Node000004" class="edge">
<title>Node3&#45;&gt;Node4</title>
<g id="a_edge4_Node000003_Node000004"><a xlink:title=" ">
<path fill="none" stroke="#63b8ff" d="M188.15,-9.5C196.09,-9.5 204.4,-9.5 212.7,-9.5"/>
<polygon fill="#63b8ff" stroke="#63b8ff" points="212.58,-13 222.58,-9.5 212.58,-6 212.58,-13"/>
</a>
</g>
</g>
<!-- Node4&#45;&gt;Node4 -->
<g id="edge5_Node000004_Node000004" class="edge">
<title>Node4&#45;&gt;Node4</title>
<g id="a_edge5_Node000004_Node000004"><a xlink:title=" ">
<path fill="none" stroke="#63b8ff" d="M265.23,-19.37C254.17,-27.94 262.25,-37 289.5,-37 305.68,-37 315.1,-33.8 317.77,-29.42"/>
<polygon fill="#63b8ff" stroke="#63b8ff" points="320.72,-28.36 313.77,-20.37 314.22,-30.95 320.72,-28.36"/>
</a>
</g>
</g>
</g>
</svg>
