<?xml version="1.0" encoding="UTF-8" standalone="no"?>
<!DOCTYPE svg PUBLIC "-//W3C//DTD SVG 1.1//EN"
 "http://www.w3.org/Graphics/SVG/1.1/DTD/svg11.dtd">
<!-- Generated by graphviz version 8.0.2 (20230410.1723)
 -->
<!-- Title: isr_enable_interrupts Pages: 1 -->
<svg width="282pt" height="45pt"
 viewBox="0.00 0.00 282.00 45.00" xmlns="http://www.w3.org/2000/svg" xmlns:xlink="http://www.w3.org/1999/xlink">
<g id="graph0" class="graph" transform="scale(1 1) rotate(0) translate(4 41)">
<title>isr_enable_interrupts</title>
<!-- Node1 -->
<g id="Node000001" class="node">
<title>Node1</title>
<g id="a_Node000001"><a xlink:title=" ">
<polygon fill="#999999" stroke="#666666" points="107,-19 0,-19 0,0 107,0 107,-19"/>
<text text-anchor="middle" x="53.5" y="-7" font-family="Helvetica,sans-Serif" font-size="10.00">isr_enable_interrupts</text>
</a>
</g>
</g>
<!-- Node1&#45;&gt;Node1 -->
<g id="edge3_Node000001_Node000001" class="edge">
<title>Node1&#45;&gt;Node1</title>
<g id="a_edge3_Node000001_Node000001"><a xlink:title=" ">
<path fill="none" stroke="#63b8ff" d="M29.23,-19.37C18.17,-27.94 26.25,-37 53.5,-37 69.68,-37 79.1,-33.8 81.77,-29.42"/>
<polygon fill="#63b8ff" stroke="#63b8ff" points="84.72,-28.36 77.77,-20.37 78.22,-30.95 84.72,-28.36"/>
</a>
</g>
</g>
<!-- Node2 -->
<g id="Node000002" class="node">
<title>Node2</title>
<g id="a_Node000002"><a xlink:href="x86__64_2arch_2core_8c.html#aa7731a0b3790e18502b0a7b0ea779e4d" target="_top" xlink:title=" ">
<polygon fill="white" stroke="#666666" points="274,-19 143,-19 143,0 274,0 274,-19"/>
<text text-anchor="middle" x="208.5" y="-7" font-family="Helvetica,sans-Serif" font-size="10.00">arch_isr_enable_interrupts</text>
</a>
</g>
</g>
<!-- Node1&#45;&gt;Node2 -->
<g id="edge1_Node000001_Node000002" class="edge">
<title>Node1&#45;&gt;Node2</title>
<g id="a_edge1_Node000001_Node000002"><a xlink:title=" ">
<path fill="none" stroke="#63b8ff" d="M107.15,-9.5C115.09,-9.5 123.4,-9.5 131.7,-9.5"/>
<polygon fill="#63b8ff" stroke="#63b8ff" points="131.58,-13 141.58,-9.5 131.58,-6 131.58,-13"/>
</a>
</g>
</g>
<!-- Node2&#45;&gt;Node2 -->
<g id="edge2_Node000002_Node000002" class="edge">
<title>Node2&#45;&gt;Node2</title>
<g id="a_edge2_Node000002_Node000002"><a xlink:title=" ">
<path fill="none" stroke="#63b8ff" d="M184.23,-19.37C173.17,-27.94 181.25,-37 208.5,-37 224.68,-37 234.1,-33.8 236.77,-29.42"/>
<polygon fill="#63b8ff" stroke="#63b8ff" points="239.72,-28.36 232.77,-20.37 233.22,-30.95 239.72,-28.36"/>
</a>
</g>
</g>
</g>
</svg>
