<?xml version="1.0" encoding="UTF-8" standalone="no"?>
<!DOCTYPE svg PUBLIC "-//W3C//DTD SVG 1.1//EN"
 "http://www.w3.org/Graphics/SVG/1.1/DTD/svg11.dtd">
<!-- Generated by graphviz version 8.0.2 (20230410.1723)
 -->
<!-- Title: include/kernel/sys/k_syscall.h Pages: 1 -->
<svg width="290pt" height="263pt"
 viewBox="0.00 0.00 289.50 263.00" xmlns="http://www.w3.org/2000/svg" xmlns:xlink="http://www.w3.org/1999/xlink">
<g id="graph0" class="graph" transform="scale(1 1) rotate(0) translate(4 259)">
<title>include/kernel/sys/k_syscall.h</title>
<!-- Node1 -->
<g id="node1" class="node">
<title>Node1</title>
<g id="a_node1"><a xlink:title=" ">
<polygon fill="#bfbfbf" stroke="black" points="92,-224.5 92,-254.5 187,-254.5 187,-224.5 92,-224.5"/>
<text text-anchor="start" x="100" y="-242.5" font-family="Helvetica,sans-Serif" font-size="10.00">include/kernel/sys</text>
<text text-anchor="middle" x="139.5" y="-231.5" font-family="Helvetica,sans-Serif" font-size="10.00">/k_syscall.h</text>
</a>
</g>
</g>
<!-- Node2 -->
<g id="node2" class="node">
<title>Node2</title>
<g id="a_node2"><a xlink:href="inet_8h.html" target="_top" xlink:title=" ">
<polygon fill="none" stroke="black" points="49.5,-168.5 49.5,-187.5 111.5,-187.5 111.5,-168.5 49.5,-168.5"/>
<text text-anchor="middle" x="80.5" y="-175.5" font-family="Helvetica,sans-Serif" font-size="10.00">arpa/inet.h</text>
</a>
</g>
</g>
<!-- Node1&#45;&gt;Node2 -->
<g id="edge1" class="edge">
<title>Node1&#45;&gt;Node2</title>
<path fill="none" stroke="midnightblue" d="M125.82,-224.7C117.06,-215.87 105.66,-204.37 96.49,-195.12"/>
<polygon fill="midnightblue" stroke="midnightblue" points="99.35,-193.04 89.83,-188.4 94.38,-197.96 99.35,-193.04"/>
</g>
<!-- Node3 -->
<g id="node3" class="node">
<title>Node3</title>
<g id="a_node3"><a xlink:href="socket_8h.html" target="_top" xlink:title=" ">
<polygon fill="none" stroke="black" points="0,-112.5 0,-131.5 73,-131.5 73,-112.5 0,-112.5"/>
<text text-anchor="middle" x="36.5" y="-119.5" font-family="Helvetica,sans-Serif" font-size="10.00">sys/socket.h</text>
</a>
</g>
</g>
<!-- Node1&#45;&gt;Node3 -->
<g id="edge8" class="edge">
<title>Node1&#45;&gt;Node3</title>
<path fill="none" stroke="midnightblue" d="M92.01,-225.7C72.78,-218 52.35,-206.07 40.5,-188 31.68,-174.54 31.43,-155.96 32.95,-142.11"/>
<polygon fill="midnightblue" stroke="midnightblue" points="36.53,-142.81 34.56,-132.4 29.61,-141.77 36.53,-142.81"/>
</g>
<!-- Node4 -->
<g id="node4" class="node">
<title>Node4</title>
<g id="a_node4"><a xlink:href="types_8h.html" target="_top" xlink:title=" ">
<polygon fill="none" stroke="black" points="105.5,-56.5 105.5,-75.5 173.5,-75.5 173.5,-56.5 105.5,-56.5"/>
<text text-anchor="middle" x="139.5" y="-63.5" font-family="Helvetica,sans-Serif" font-size="10.00">sys/types.h</text>
</a>
</g>
</g>
<!-- Node1&#45;&gt;Node4 -->
<g id="edge13" class="edge">
<title>Node1&#45;&gt;Node4</title>
<path fill="none" stroke="midnightblue" d="M139.5,-224.76C139.5,-194.32 139.5,-121.15 139.5,-86.21"/>
<polygon fill="midnightblue" stroke="midnightblue" points="143,-86.21 139.5,-76.21 136,-86.21 143,-86.21"/>
</g>
<!-- Node8 -->
<g id="node8" class="node">
<title>Node8</title>
<g id="a_node8"><a xlink:href="stat_8h.html" target="_top" xlink:title=" ">
<polygon fill="none" stroke="black" points="167.5,-168.5 167.5,-187.5 227.5,-187.5 227.5,-168.5 167.5,-168.5"/>
<text text-anchor="middle" x="197.5" y="-175.5" font-family="Helvetica,sans-Serif" font-size="10.00">sys/stat.h</text>
</a>
</g>
</g>
<!-- Node1&#45;&gt;Node8 -->
<g id="edge9" class="edge">
<title>Node1&#45;&gt;Node8</title>
<path fill="none" stroke="midnightblue" d="M152.95,-224.7C161.56,-215.87 172.76,-204.37 181.78,-195.12"/>
<polygon fill="midnightblue" stroke="midnightblue" points="183.84,-198 188.31,-188.4 178.83,-193.12 183.84,-198"/>
</g>
<!-- Node9 -->
<g id="node9" class="node">
<title>Node9</title>
<g id="a_node9"><a xlink:href="libc_2sys_2time_8h.html" target="_top" xlink:title=" ">
<polygon fill="none" stroke="black" points="219.5,-112.5 219.5,-131.5 281.5,-131.5 281.5,-112.5 219.5,-112.5"/>
<text text-anchor="middle" x="250.5" y="-119.5" font-family="Helvetica,sans-Serif" font-size="10.00">sys/time.h</text>
</a>
</g>
</g>
<!-- Node1&#45;&gt;Node9 -->
<g id="edge11" class="edge">
<title>Node1&#45;&gt;Node9</title>
<path fill="none" stroke="midnightblue" d="M184.81,-224.59C203.43,-216.69 223.61,-204.91 236.5,-188 246.57,-174.79 249.74,-155.9 250.59,-141.89"/>
<polygon fill="midnightblue" stroke="midnightblue" points="254.11,-142.17 250.85,-132.09 247.11,-142 254.11,-142.17"/>
</g>
<!-- Node2&#45;&gt;Node3 -->
<g id="edge2" class="edge">
<title>Node2&#45;&gt;Node3</title>
<path fill="none" stroke="midnightblue" d="M73.62,-168.56C67.32,-160.83 57.82,-149.16 50,-139.57"/>
<polygon fill="midnightblue" stroke="midnightblue" points="52.21,-137.74 43.18,-132.2 46.79,-142.16 52.21,-137.74"/>
</g>
<!-- Node2&#45;&gt;Node4 -->
<g id="edge7" class="edge">
<title>Node2&#45;&gt;Node4</title>
<path fill="none" stroke="midnightblue" d="M84.93,-168.73C94.46,-150.97 117.05,-108.85 129.98,-84.74"/>
<polygon fill="midnightblue" stroke="midnightblue" points="133.37,-86.83 135.01,-76.36 127.2,-83.52 133.37,-86.83"/>
</g>
<!-- Node3&#45;&gt;Node4 -->
<g id="edge3" class="edge">
<title>Node3&#45;&gt;Node4</title>
<path fill="none" stroke="midnightblue" d="M52.59,-112.56C69,-103.96 94.69,-90.49 113.89,-80.43"/>
<polygon fill="midnightblue" stroke="midnightblue" points="115.29,-83.12 122.52,-75.38 112.04,-76.92 115.29,-83.12"/>
</g>
<!-- Node5 -->
<g id="node5" class="node">
<title>Node5</title>
<g id="a_node5"><a xlink:title=" ">
<polygon fill="none" stroke="#bfbfbf" points="39.5,-0.5 39.5,-19.5 95.5,-19.5 95.5,-0.5 39.5,-0.5"/>
<text text-anchor="middle" x="67.5" y="-7.5" font-family="Helvetica,sans-Serif" font-size="10.00">stdbool.h</text>
</a>
</g>
</g>
<!-- Node4&#45;&gt;Node5 -->
<g id="edge4" class="edge">
<title>Node4&#45;&gt;Node5</title>
<path fill="none" stroke="midnightblue" d="M128.25,-56.56C117.2,-48.27 100.11,-35.45 86.87,-25.52"/>
<polygon fill="midnightblue" stroke="midnightblue" points="89.54,-22.4 79.44,-19.2 85.34,-28 89.54,-22.4"/>
</g>
<!-- Node6 -->
<g id="node6" class="node">
<title>Node6</title>
<g id="a_node6"><a xlink:title=" ">
<polygon fill="none" stroke="#bfbfbf" points="113.5,-0.5 113.5,-19.5 165.5,-19.5 165.5,-0.5 113.5,-0.5"/>
<text text-anchor="middle" x="139.5" y="-7.5" font-family="Helvetica,sans-Serif" font-size="10.00">stddef.h</text>
</a>
</g>
</g>
<!-- Node4&#45;&gt;Node6 -->
<g id="edge5" class="edge">
<title>Node4&#45;&gt;Node6</title>
<path fill="none" stroke="midnightblue" d="M139.5,-56.56C139.5,-49.47 139.5,-39.06 139.5,-29.98"/>
<polygon fill="midnightblue" stroke="midnightblue" points="143,-30.2 139.5,-20.2 136,-30.2 143,-30.2"/>
</g>
<!-- Node7 -->
<g id="node7" class="node">
<title>Node7</title>
<g id="a_node7"><a xlink:title=" ">
<polygon fill="none" stroke="#bfbfbf" points="184,-0.5 184,-19.5 233,-19.5 233,-0.5 184,-0.5"/>
<text text-anchor="middle" x="208.5" y="-7.5" font-family="Helvetica,sans-Serif" font-size="10.00">stdint.h</text>
</a>
</g>
</g>
<!-- Node4&#45;&gt;Node7 -->
<g id="edge6" class="edge">
<title>Node4&#45;&gt;Node7</title>
<path fill="none" stroke="midnightblue" d="M150.28,-56.56C160.77,-48.35 176.94,-35.7 189.57,-25.81"/>
<polygon fill="midnightblue" stroke="midnightblue" points="191.3,-28.12 197.02,-19.2 186.99,-22.61 191.3,-28.12"/>
</g>
<!-- Node8&#45;&gt;Node4 -->
<g id="edge10" class="edge">
<title>Node8&#45;&gt;Node4</title>
<path fill="none" stroke="midnightblue" d="M193.14,-168.73C183.82,-151.05 161.77,-109.23 149.03,-85.07"/>
<polygon fill="midnightblue" stroke="midnightblue" points="151.67,-83.58 143.91,-76.36 145.48,-86.84 151.67,-83.58"/>
</g>
<!-- Node9&#45;&gt;Node4 -->
<g id="edge12" class="edge">
<title>Node9&#45;&gt;Node4</title>
<path fill="none" stroke="midnightblue" d="M233.16,-112.56C215.32,-103.88 187.28,-90.25 166.53,-80.15"/>
<polygon fill="midnightblue" stroke="midnightblue" points="168.25,-76.61 157.72,-75.38 165.18,-82.9 168.25,-76.61"/>
</g>
</g>
</svg>
