<?xml version="1.0" encoding="UTF-8" standalone="no"?>
<!DOCTYPE svg PUBLIC "-//W3C//DTD SVG 1.1//EN"
 "http://www.w3.org/Graphics/SVG/1.1/DTD/svg11.dtd">
<!-- Generated by graphviz version 9.0.0 (20230911.1827)
 -->
<!-- Title: include/kernel/sys/k_syscall.h Pages: 1 -->
<svg width="288pt" height="260pt"
 viewBox="0.00 0.00 288.00 259.50" xmlns="http://www.w3.org/2000/svg" xmlns:xlink="http://www.w3.org/1999/xlink">
<g id="graph0" class="graph" transform="scale(1 1) rotate(0) translate(4 255.5)">
<title>include/kernel/sys/k_syscall.h</title>
<!-- Node1 -->
<g id="Node000001" class="node">
<title>Node1</title>
<g id="a_Node000001"><a xlink:title=" ">
<polygon fill="#999999" stroke="#666666" points="185.5,-251.5 90.75,-251.5 90.75,-221 185.5,-221 185.5,-251.5"/>
<text text-anchor="start" x="98.75" y="-238" font-family="Helvetica,sans-Serif" font-size="10.00">include/kernel/sys</text>
<text text-anchor="middle" x="138.12" y="-226.75" font-family="Helvetica,sans-Serif" font-size="10.00">/k_syscall.h</text>
</a>
</g>
</g>
<!-- Node2 -->
<g id="Node000002" class="node">
<title>Node2</title>
<g id="a_Node000002"><a xlink:href="inet_8h.html" target="_top" xlink:title=" ">
<polygon fill="white" stroke="#666666" points="110,-185 48.25,-185 48.25,-165.75 110,-165.75 110,-185"/>
<text text-anchor="middle" x="79.12" y="-171.5" font-family="Helvetica,sans-Serif" font-size="10.00">arpa/inet.h</text>
</a>
</g>
</g>
<!-- Node1&#45;&gt;Node2 -->
<g id="edge1_Node000001_Node000002" class="edge">
<title>Node1&#45;&gt;Node2</title>
<g id="a_edge1_Node000001_Node000002"><a xlink:title=" ">
<path fill="none" stroke="#63b8ff" d="M123.54,-220.7C115.25,-212.42 104.82,-202.02 96.16,-193.37"/>
<polygon fill="#63b8ff" stroke="#63b8ff" points="98.84,-191.11 89.29,-186.52 93.9,-196.06 98.84,-191.11"/>
</a>
</g>
</g>
<!-- Node3 -->
<g id="Node000003" class="node">
<title>Node3</title>
<g id="a_Node000003"><a xlink:href="socket_8h.html" target="_top" xlink:title=" ">
<polygon fill="white" stroke="#666666" points="72.25,-129.75 0,-129.75 0,-110.5 72.25,-110.5 72.25,-129.75"/>
<text text-anchor="middle" x="36.12" y="-116.25" font-family="Helvetica,sans-Serif" font-size="10.00">sys/socket.h</text>
</a>
</g>
</g>
<!-- Node1&#45;&gt;Node3 -->
<g id="edge8_Node000001_Node000003" class="edge">
<title>Node1&#45;&gt;Node3</title>
<g id="a_edge8_Node000001_Node000003"><a xlink:title=" ">
<path fill="none" stroke="#63b8ff" d="M90.26,-222.54C71.08,-214.91 50.8,-203.05 39.12,-185 30.9,-172.28 30.59,-154.98 32.09,-141.6"/>
<polygon fill="#63b8ff" stroke="#63b8ff" points="35.55,-142.15 33.66,-131.73 28.63,-141.06 35.55,-142.15"/>
</a>
</g>
</g>
<!-- Node4 -->
<g id="Node000004" class="node">
<title>Node4</title>
<g id="a_Node000004"><a xlink:href="types_8h.html" target="_top" xlink:title=" ">
<polygon fill="white" stroke="#666666" points="171.62,-74.5 104.62,-74.5 104.62,-55.25 171.62,-55.25 171.62,-74.5"/>
<text text-anchor="middle" x="138.12" y="-61" font-family="Helvetica,sans-Serif" font-size="10.00">sys/types.h</text>
</a>
</g>
</g>
<!-- Node1&#45;&gt;Node4 -->
<g id="edge13_Node000001_Node000004" class="edge">
<title>Node1&#45;&gt;Node4</title>
<g id="a_edge13_Node000001_Node000004"><a xlink:title=" ">
<path fill="none" stroke="#63b8ff" d="M138.12,-220.52C138.12,-190.26 138.12,-121.05 138.12,-86.41"/>
<polygon fill="#63b8ff" stroke="#63b8ff" points="141.63,-86.5 138.13,-76.5 134.63,-86.5 141.63,-86.5"/>
</a>
</g>
</g>
<!-- Node8 -->
<g id="Node000008" class="node">
<title>Node8</title>
<g id="a_Node000008"><a xlink:href="stat_8h.html" target="_top" xlink:title=" ">
<polygon fill="white" stroke="#666666" points="225.88,-185 166.38,-185 166.38,-165.75 225.88,-165.75 225.88,-185"/>
<text text-anchor="middle" x="196.12" y="-171.5" font-family="Helvetica,sans-Serif" font-size="10.00">sys/stat.h</text>
</a>
</g>
</g>
<!-- Node1&#45;&gt;Node8 -->
<g id="edge9_Node000001_Node000008" class="edge">
<title>Node1&#45;&gt;Node8</title>
<g id="a_edge9_Node000001_Node000008"><a xlink:title=" ">
<path fill="none" stroke="#63b8ff" d="M152.46,-220.7C160.53,-212.51 170.65,-202.23 179.12,-193.64"/>
<polygon fill="#63b8ff" stroke="#63b8ff" points="181.6,-196.11 186.12,-186.53 176.61,-191.2 181.6,-196.11"/>
</a>
</g>
</g>
<!-- Node9 -->
<g id="Node000009" class="node">
<title>Node9</title>
<g id="a_Node000009"><a xlink:href="libc_2sys_2time_8h.html" target="_top" xlink:title=" ">
<polygon fill="white" stroke="#666666" points="280,-129.75 218.25,-129.75 218.25,-110.5 280,-110.5 280,-129.75"/>
<text text-anchor="middle" x="249.12" y="-116.25" font-family="Helvetica,sans-Serif" font-size="10.00">sys/time.h</text>
</a>
</g>
</g>
<!-- Node1&#45;&gt;Node9 -->
<g id="edge11_Node000001_Node000009" class="edge">
<title>Node1&#45;&gt;Node9</title>
<g id="a_edge11_Node000001_Node000009"><a xlink:title=" ">
<path fill="none" stroke="#63b8ff" d="M185.4,-220.58C203.45,-212.74 222.66,-201.25 235.12,-185 244.65,-172.58 247.98,-155 249.02,-141.43"/>
<polygon fill="#63b8ff" stroke="#63b8ff" points="252.52,-141.58 249.39,-131.45 245.52,-141.32 252.52,-141.58"/>
</a>
</g>
</g>
<!-- Node2&#45;&gt;Node3 -->
<g id="edge2_Node000002_Node000003" class="edge">
<title>Node2&#45;&gt;Node3</title>
<g id="a_edge2_Node000002_Node000003"><a xlink:title=" ">
<path fill="none" stroke="#63b8ff" d="M72.02,-165.58C66.21,-158.38 57.79,-147.96 50.57,-139.01"/>
<polygon fill="#63b8ff" stroke="#63b8ff" points="53.34,-136.87 44.33,-131.29 47.89,-141.27 53.34,-136.87"/>
</a>
</g>
</g>
<!-- Node2&#45;&gt;Node4 -->
<g id="edge7_Node000002_Node000004" class="edge">
<title>Node2&#45;&gt;Node4</title>
<g id="a_edge7_Node000002_Node000004"><a xlink:title=" ">
<path fill="none" stroke="#63b8ff" d="M83.95,-165.5C93.5,-147.93 115,-108.41 127.85,-84.77"/>
<polygon fill="#63b8ff" stroke="#63b8ff" points="130.8,-86.66 132.51,-76.21 124.65,-83.32 130.8,-86.66"/>
</a>
</g>
</g>
<!-- Node3&#45;&gt;Node4 -->
<g id="edge3_Node000003_Node000004" class="edge">
<title>Node3&#45;&gt;Node4</title>
<g id="a_edge3_Node000003_Node000004"><a xlink:title=" ">
<path fill="none" stroke="#63b8ff" d="M53.43,-110.09C69.11,-101.91 92.48,-89.71 110.7,-80.19"/>
<polygon fill="#63b8ff" stroke="#63b8ff" points="112.15,-83.38 119.4,-75.65 108.91,-77.18 112.15,-83.38"/>
</a>
</g>
</g>
<!-- Node5 -->
<g id="Node000005" class="node">
<title>Node5</title>
<g id="a_Node000005"><a xlink:title=" ">
<polygon fill="#e0e0e0" stroke="#999999" points="94,-19.25 38.25,-19.25 38.25,0 94,0 94,-19.25"/>
<text text-anchor="middle" x="66.12" y="-5.75" font-family="Helvetica,sans-Serif" font-size="10.00">stdbool.h</text>
</a>
</g>
</g>
<!-- Node4&#45;&gt;Node5 -->
<g id="edge4_Node000004_Node000005" class="edge">
<title>Node4&#45;&gt;Node5</title>
<g id="a_edge4_Node000004_Node000005"><a xlink:title=" ">
<path fill="none" stroke="#63b8ff" d="M125.91,-54.84C115.3,-46.99 99.69,-35.45 87.08,-26.12"/>
<polygon fill="#63b8ff" stroke="#63b8ff" points="89.5,-23.56 79.38,-20.42 85.33,-29.19 89.5,-23.56"/>
</a>
</g>
</g>
<!-- Node6 -->
<g id="Node000006" class="node">
<title>Node6</title>
<g id="a_Node000006"><a xlink:title=" ">
<polygon fill="#e0e0e0" stroke="#999999" points="163.75,-19.25 112.5,-19.25 112.5,0 163.75,0 163.75,-19.25"/>
<text text-anchor="middle" x="138.12" y="-5.75" font-family="Helvetica,sans-Serif" font-size="10.00">stddef.h</text>
</a>
</g>
</g>
<!-- Node4&#45;&gt;Node6 -->
<g id="edge5_Node000004_Node000006" class="edge">
<title>Node4&#45;&gt;Node6</title>
<g id="a_edge5_Node000004_Node000006"><a xlink:title=" ">
<path fill="none" stroke="#63b8ff" d="M138.12,-55.08C138.12,-48.57 138.12,-39.42 138.12,-31.12"/>
<polygon fill="#63b8ff" stroke="#63b8ff" points="141.63,-31.12 138.13,-21.12 134.63,-31.12 141.63,-31.12"/>
</a>
</g>
</g>
<!-- Node7 -->
<g id="Node000007" class="node">
<title>Node7</title>
<g id="a_Node000007"><a xlink:title=" ">
<polygon fill="#e0e0e0" stroke="#999999" points="230.25,-19.25 182,-19.25 182,0 230.25,0 230.25,-19.25"/>
<text text-anchor="middle" x="206.12" y="-5.75" font-family="Helvetica,sans-Serif" font-size="10.00">stdint.h</text>
</a>
</g>
</g>
<!-- Node4&#45;&gt;Node7 -->
<g id="edge6_Node000004_Node000007" class="edge">
<title>Node4&#45;&gt;Node7</title>
<g id="a_edge6_Node000004_Node000007"><a xlink:title=" ">
<path fill="none" stroke="#63b8ff" d="M149.66,-54.84C159.59,-47.07 174.14,-35.67 185.98,-26.4"/>
<polygon fill="#63b8ff" stroke="#63b8ff" points="187.85,-29.38 193.57,-20.46 183.54,-23.87 187.85,-29.38"/>
</a>
</g>
</g>
<!-- Node8&#45;&gt;Node4 -->
<g id="edge10_Node000008_Node000004" class="edge">
<title>Node8&#45;&gt;Node4</title>
<g id="a_edge10_Node000008_Node000004"><a xlink:title=" ">
<path fill="none" stroke="#63b8ff" d="M191.38,-165.5C181.99,-147.93 160.86,-108.41 148.22,-84.77"/>
<polygon fill="#63b8ff" stroke="#63b8ff" points="151.45,-83.38 143.65,-76.21 145.28,-86.68 151.45,-83.38"/>
</a>
</g>
</g>
<!-- Node9&#45;&gt;Node4 -->
<g id="edge12_Node000009_Node000004" class="edge">
<title>Node9&#45;&gt;Node4</title>
<g id="a_edge12_Node000009_Node000004"><a xlink:title=" ">
<path fill="none" stroke="#63b8ff" d="M230.3,-110.09C213.07,-101.83 187.32,-89.48 167.42,-79.93"/>
<polygon fill="#63b8ff" stroke="#63b8ff" points="168.94,-76.78 158.41,-75.61 165.91,-83.09 168.94,-76.78"/>
</a>
</g>
</g>
</g>
</svg>
