<?xml version="1.0" encoding="UTF-8" standalone="no"?>
<!DOCTYPE svg PUBLIC "-//W3C//DTD SVG 1.1//EN"
 "http://www.w3.org/Graphics/SVG/1.1/DTD/svg11.dtd">
<!-- Generated by graphviz version 8.0.2 (20230410.1723)
 -->
<!-- Title: k_open Pages: 1 -->
<svg width="202pt" height="45pt"
 viewBox="0.00 0.00 202.00 45.00" xmlns="http://www.w3.org/2000/svg" xmlns:xlink="http://www.w3.org/1999/xlink">
<g id="graph0" class="graph" transform="scale(1 1) rotate(0) translate(4 41)">
<title>k_open</title>
<!-- Node1 -->
<g id="Node000001" class="node">
<title>Node1</title>
<g id="a_Node000001"><a xlink:title=" ">
<polygon fill="#999999" stroke="#666666" points="48,-19 0,-19 0,0 48,0 48,-19"/>
<text text-anchor="middle" x="24" y="-7" font-family="Helvetica,sans-Serif" font-size="10.00">k_open</text>
</a>
</g>
</g>
<!-- Node1&#45;&gt;Node1 -->
<g id="edge3_Node000001_Node000001" class="edge">
<title>Node1&#45;&gt;Node1</title>
<g id="a_edge3_Node000001_Node000001"><a xlink:title=" ">
<path fill="none" stroke="#63b8ff" d="M6,-19.37C-2.22,-27.94 3.79,-37 24,-37 35.69,-37 42.62,-33.97 44.81,-29.76"/>
<polygon fill="#63b8ff" stroke="#63b8ff" points="47.99,-29.11 42,-20.37 41.23,-30.93 47.99,-29.11"/>
</a>
</g>
</g>
<!-- Node2 -->
<g id="Node000002" class="node">
<title>Node2</title>
<g id="a_Node000002"><a xlink:href="descriptor_8c.html#a9d772be036ad7ec4e9e926a190b76003" target="_top" xlink:title=" ">
<polygon fill="white" stroke="#666666" points="194,-19 84,-19 84,0 194,0 194,-19"/>
<text text-anchor="middle" x="139" y="-7" font-family="Helvetica,sans-Serif" font-size="10.00">create_file_descriptor</text>
</a>
</g>
</g>
<!-- Node1&#45;&gt;Node2 -->
<g id="edge1_Node000001_Node000002" class="edge">
<title>Node1&#45;&gt;Node2</title>
<g id="a_edge1_Node000001_Node000002"><a xlink:title=" ">
<path fill="none" stroke="#63b8ff" d="M48.41,-9.5C55.77,-9.5 64.27,-9.5 73.06,-9.5"/>
<polygon fill="#63b8ff" stroke="#63b8ff" points="72.86,-13 82.86,-9.5 72.86,-6 72.86,-13"/>
</a>
</g>
</g>
<!-- Node2&#45;&gt;Node2 -->
<g id="edge2_Node000002_Node000002" class="edge">
<title>Node2&#45;&gt;Node2</title>
<g id="a_edge2_Node000002_Node000002"><a xlink:title=" ">
<path fill="none" stroke="#63b8ff" d="M121,-19.37C112.78,-27.94 118.79,-37 139,-37 150.69,-37 157.62,-33.97 159.81,-29.76"/>
<polygon fill="#63b8ff" stroke="#63b8ff" points="162.99,-29.11 157,-20.37 156.23,-30.93 162.99,-29.11"/>
</a>
</g>
</g>
</g>
</svg>
