<?xml version="1.0" encoding="UTF-8" standalone="no"?>
<!DOCTYPE svg PUBLIC "-//W3C//DTD SVG 1.1//EN"
 "http://www.w3.org/Graphics/SVG/1.1/DTD/svg11.dtd">
<!-- Generated by graphviz version 8.0.2 (20230410.1723)
 -->
<!-- Title: k_openat Pages: 1 -->
<svg width="294pt" height="45pt"
 viewBox="0.00 0.00 294.00 45.00" xmlns="http://www.w3.org/2000/svg" xmlns:xlink="http://www.w3.org/1999/xlink">
<g id="graph0" class="graph" transform="scale(1 1) rotate(0) translate(4 41)">
<title>k_openat</title>
<!-- Node1 -->
<g id="Node000001" class="node">
<title>Node1</title>
<g id="a_Node000001"><a xlink:title=" ">
<polygon fill="#999999" stroke="#666666" points="56,-19 0,-19 0,0 56,0 56,-19"/>
<text text-anchor="middle" x="28" y="-7" font-family="Helvetica,sans-Serif" font-size="10.00">k_openat</text>
</a>
</g>
</g>
<!-- Node1&#45;&gt;Node1 -->
<g id="edge5_Node000001_Node000001" class="edge">
<title>Node1&#45;&gt;Node1</title>
<g id="a_edge5_Node000001_Node000001"><a xlink:title=" ">
<path fill="none" stroke="#63b8ff" d="M14.22,-19.37C7.94,-27.94 12.53,-37 28,-37 36.7,-37 41.96,-34.13 43.78,-30.1"/>
<polygon fill="#63b8ff" stroke="#63b8ff" points="47.05,-29.56 41.78,-20.37 40.17,-30.84 47.05,-29.56"/>
</a>
</g>
</g>
<!-- Node2 -->
<g id="Node000002" class="node">
<title>Node2</title>
<g id="a_Node000002"><a xlink:href="k__open_8c.html#a8665b78926682de513294b0733aa72e4" target="_top" xlink:title=" ">
<polygon fill="white" stroke="#666666" points="140,-19 92,-19 92,0 140,0 140,-19"/>
<text text-anchor="middle" x="116" y="-7" font-family="Helvetica,sans-Serif" font-size="10.00">k_open</text>
</a>
</g>
</g>
<!-- Node1&#45;&gt;Node2 -->
<g id="edge1_Node000001_Node000002" class="edge">
<title>Node1&#45;&gt;Node2</title>
<g id="a_edge1_Node000001_Node000002"><a xlink:title=" ">
<path fill="none" stroke="#63b8ff" d="M56.21,-9.5C64.06,-9.5 72.72,-9.5 80.93,-9.5"/>
<polygon fill="#63b8ff" stroke="#63b8ff" points="80.73,-13 90.73,-9.5 80.73,-6 80.73,-13"/>
</a>
</g>
</g>
<!-- Node2&#45;&gt;Node2 -->
<g id="edge4_Node000002_Node000002" class="edge">
<title>Node2&#45;&gt;Node2</title>
<g id="a_edge4_Node000002_Node000002"><a xlink:title=" ">
<path fill="none" stroke="#63b8ff" d="M102.22,-19.37C95.94,-27.94 100.53,-37 116,-37 124.7,-37 129.96,-34.13 131.78,-30.1"/>
<polygon fill="#63b8ff" stroke="#63b8ff" points="135.05,-29.56 129.78,-20.37 128.17,-30.84 135.05,-29.56"/>
</a>
</g>
</g>
<!-- Node3 -->
<g id="Node000003" class="node">
<title>Node3</title>
<g id="a_Node000003"><a xlink:href="descriptor_8c.html#a9d772be036ad7ec4e9e926a190b76003" target="_top" xlink:title=" ">
<polygon fill="white" stroke="#666666" points="286,-19 176,-19 176,0 286,0 286,-19"/>
<text text-anchor="middle" x="231" y="-7" font-family="Helvetica,sans-Serif" font-size="10.00">create_file_descriptor</text>
</a>
</g>
</g>
<!-- Node2&#45;&gt;Node3 -->
<g id="edge2_Node000002_Node000003" class="edge">
<title>Node2&#45;&gt;Node3</title>
<g id="a_edge2_Node000002_Node000003"><a xlink:title=" ">
<path fill="none" stroke="#63b8ff" d="M140.41,-9.5C147.77,-9.5 156.27,-9.5 165.06,-9.5"/>
<polygon fill="#63b8ff" stroke="#63b8ff" points="164.86,-13 174.86,-9.5 164.86,-6 164.86,-13"/>
</a>
</g>
</g>
<!-- Node3&#45;&gt;Node3 -->
<g id="edge3_Node000003_Node000003" class="edge">
<title>Node3&#45;&gt;Node3</title>
<g id="a_edge3_Node000003_Node000003"><a xlink:title=" ">
<path fill="none" stroke="#63b8ff" d="M213,-19.37C204.78,-27.94 210.79,-37 231,-37 242.69,-37 249.62,-33.97 251.81,-29.76"/>
<polygon fill="#63b8ff" stroke="#63b8ff" points="254.99,-29.11 249,-20.37 248.23,-30.93 254.99,-29.11"/>
</a>
</g>
</g>
</g>
</svg>
