<?xml version="1.0" encoding="UTF-8" standalone="no"?>
<!DOCTYPE svg PUBLIC "-//W3C//DTD SVG 1.1//EN"
 "http://www.w3.org/Graphics/SVG/1.1/DTD/svg11.dtd">
<!-- Generated by graphviz version 8.0.2 (20230410.1723)
 -->
<!-- Title: syscall_init Pages: 1 -->
<svg width="458pt" height="194pt"
 viewBox="0.00 0.00 458.00 194.00" xmlns="http://www.w3.org/2000/svg" xmlns:xlink="http://www.w3.org/1999/xlink">
<g id="graph0" class="graph" transform="scale(1 1) rotate(0) translate(4 190)">
<title>syscall_init</title>
<!-- Node1 -->
<g id="Node000001" class="node">
<title>Node1</title>
<g id="a_Node000001"><a xlink:title=" ">
<polygon fill="#999999" stroke="#666666" points="65,-94 0,-94 0,-75 65,-75 65,-94"/>
<text text-anchor="middle" x="32.5" y="-82" font-family="Helvetica,sans-Serif" font-size="10.00">syscall_init</text>
</a>
</g>
</g>
<!-- Node1&#45;&gt;Node1 -->
<g id="edge14_Node000001_Node000001" class="edge">
<title>Node1&#45;&gt;Node1</title>
<g id="a_edge14_Node000001_Node000001"><a xlink:title=" ">
<path fill="none" stroke="#63b8ff" d="M14.81,-94.37C6.74,-102.94 12.64,-112 32.5,-112 43.98,-112 50.8,-108.97 52.95,-104.76"/>
<polygon fill="#63b8ff" stroke="#63b8ff" points="56.14,-104.14 50.19,-95.37 49.37,-105.93 56.14,-104.14"/>
</a>
</g>
</g>
<!-- Node2 -->
<g id="Node000002" class="node">
<title>Node2</title>
<g id="a_Node000002"><a xlink:href="x86__64_2arch_2sys_8c.html#aa375add58c700abbcaa8c54dcab6eea0" target="_top" xlink:title=" ">
<polygon fill="white" stroke="#666666" points="190,-168 101,-168 101,-149 190,-149 190,-168"/>
<text text-anchor="middle" x="145.5" y="-156" font-family="Helvetica,sans-Serif" font-size="10.00">arch_syscall_init</text>
</a>
</g>
</g>
<!-- Node1&#45;&gt;Node2 -->
<g id="edge1_Node000001_Node000002" class="edge">
<title>Node1&#45;&gt;Node2</title>
<g id="a_edge1_Node000001_Node000002"><a xlink:title=" ">
<path fill="none" stroke="#63b8ff" d="M43.29,-94.26C55.81,-106.35 78.57,-126.98 101,-140.5 103.05,-141.73 105.19,-142.92 107.39,-144.06"/>
<polygon fill="#63b8ff" stroke="#63b8ff" points="105.66,-147.58 116.2,-148.68 108.65,-141.25 105.66,-147.58"/>
</a>
</g>
</g>
<!-- Node3 -->
<g id="Node000003" class="node">
<title>Node3</title>
<g id="a_Node000003"><a xlink:href="k__lseek_8c.html#aca2b074f62174df41781abb400ac6c67" target="_top" xlink:title=" ">
<polygon fill="white" stroke="#666666" points="170.5,-113 120.5,-113 120.5,-94 170.5,-94 170.5,-113"/>
<text text-anchor="middle" x="145.5" y="-101" font-family="Helvetica,sans-Serif" font-size="10.00">k_lseek</text>
</a>
</g>
</g>
<!-- Node1&#45;&gt;Node3 -->
<g id="edge3_Node000001_Node000003" class="edge">
<title>Node1&#45;&gt;Node3</title>
<g id="a_edge3_Node000001_Node000003"><a xlink:title=" ">
<path fill="none" stroke="#63b8ff" d="M65.31,-89.94C79.06,-92.3 95.2,-95.06 109.3,-97.48"/>
<polygon fill="#63b8ff" stroke="#63b8ff" points="108.65,-101.09 119.1,-99.32 109.83,-94.19 108.65,-101.09"/>
</a>
</g>
</g>
<!-- Node5 -->
<g id="Node000005" class="node">
<title>Node5</title>
<g id="a_Node000005"><a xlink:href="k__open_8c.html#a8665b78926682de513294b0733aa72e4" target="_top" xlink:title=" ">
<polygon fill="white" stroke="#666666" points="289,-39 241,-39 241,-20 289,-20 289,-39"/>
<text text-anchor="middle" x="265" y="-27" font-family="Helvetica,sans-Serif" font-size="10.00">k_open</text>
</a>
</g>
</g>
<!-- Node1&#45;&gt;Node5 -->
<g id="edge7_Node000001_Node000005" class="edge">
<title>Node1&#45;&gt;Node5</title>
<g id="a_edge7_Node000001_Node000005"><a xlink:title=" ">
<path fill="none" stroke="#63b8ff" d="M65.07,-76.97C108.37,-66.63 185.88,-48.14 230.29,-37.54"/>
<polygon fill="#63b8ff" stroke="#63b8ff" points="230.91,-40.76 239.82,-35.03 229.28,-33.95 230.91,-40.76"/>
</a>
</g>
</g>
<!-- Node7 -->
<g id="Node000007" class="node">
<title>Node7</title>
<g id="a_Node000007"><a xlink:href="k__openat_8c.html#a256d0b3f99e3a51b61a5f92da3237787" target="_top" xlink:title=" ">
<polygon fill="white" stroke="#666666" points="173.5,-19 117.5,-19 117.5,0 173.5,0 173.5,-19"/>
<text text-anchor="middle" x="145.5" y="-7" font-family="Helvetica,sans-Serif" font-size="10.00">k_openat</text>
</a>
</g>
</g>
<!-- Node1&#45;&gt;Node7 -->
<g id="edge11_Node000001_Node000007" class="edge">
<title>Node1&#45;&gt;Node7</title>
<g id="a_edge11_Node000001_Node000007"><a xlink:title=" ">
<path fill="none" stroke="#63b8ff" d="M48.01,-74.7C66.54,-62.17 98.85,-40.35 120.93,-25.43"/>
<polygon fill="#63b8ff" stroke="#63b8ff" points="122.66,-27.81 128.99,-19.31 118.74,-22.01 122.66,-27.81"/>
</a>
</g>
</g>
<!-- Node2&#45;&gt;Node2 -->
<g id="edge2_Node000002_Node000002" class="edge">
<title>Node2&#45;&gt;Node2</title>
<g id="a_edge2_Node000002_Node000002"><a xlink:title=" ">
<path fill="none" stroke="#63b8ff" d="M127.81,-168.37C119.74,-176.94 125.64,-186 145.5,-186 156.98,-186 163.8,-182.97 165.95,-178.76"/>
<polygon fill="#63b8ff" stroke="#63b8ff" points="169.14,-178.14 163.19,-169.37 162.37,-179.93 169.14,-178.14"/>
</a>
</g>
</g>
<!-- Node3&#45;&gt;Node3 -->
<g id="edge6_Node000003_Node000003" class="edge">
<title>Node3&#45;&gt;Node3</title>
<g id="a_edge6_Node000003_Node000003"><a xlink:title=" ">
<path fill="none" stroke="#63b8ff" d="M127.81,-113.37C119.74,-121.94 125.64,-131 145.5,-131 156.98,-131 163.8,-127.97 165.95,-123.76"/>
<polygon fill="#63b8ff" stroke="#63b8ff" points="169.14,-123.14 163.19,-114.37 162.37,-124.93 169.14,-123.14"/>
</a>
</g>
</g>
<!-- Node4 -->
<g id="Node000004" class="node">
<title>Node4</title>
<g id="a_Node000004"><a xlink:href="descriptor_8c.html#ab813e27b51b02aab5c7c6c174ad482a1" target="_top" xlink:title=" ">
<polygon fill="white" stroke="#666666" points="304,-113 226,-113 226,-94 304,-94 304,-113"/>
<text text-anchor="middle" x="265" y="-101" font-family="Helvetica,sans-Serif" font-size="10.00">get_descriptor</text>
</a>
</g>
</g>
<!-- Node3&#45;&gt;Node4 -->
<g id="edge4_Node000003_Node000004" class="edge">
<title>Node3&#45;&gt;Node4</title>
<g id="a_edge4_Node000003_Node000004"><a xlink:title=" ">
<path fill="none" stroke="#63b8ff" d="M170.85,-103.5C183.61,-103.5 199.72,-103.5 214.94,-103.5"/>
<polygon fill="#63b8ff" stroke="#63b8ff" points="214.81,-107 224.81,-103.5 214.81,-100 214.81,-107"/>
</a>
</g>
</g>
<!-- Node4&#45;&gt;Node4 -->
<g id="edge5_Node000004_Node000004" class="edge">
<title>Node4&#45;&gt;Node4</title>
<g id="a_edge5_Node000004_Node000004"><a xlink:title=" ">
<path fill="none" stroke="#63b8ff" d="M246.29,-113.37C237.76,-121.94 243.99,-131 265,-131 277.14,-131 284.35,-127.97 286.62,-123.76"/>
<polygon fill="#63b8ff" stroke="#63b8ff" points="289.78,-123.05 283.71,-114.37 283.04,-124.94 289.78,-123.05"/>
</a>
</g>
</g>
<!-- Node5&#45;&gt;Node5 -->
<g id="edge10_Node000005_Node000005" class="edge">
<title>Node5&#45;&gt;Node5</title>
<g id="a_edge10_Node000005_Node000005"><a xlink:title=" ">
<path fill="none" stroke="#63b8ff" d="M246.29,-39.37C237.76,-47.94 243.99,-57 265,-57 277.14,-57 284.35,-53.97 286.62,-49.76"/>
<polygon fill="#63b8ff" stroke="#63b8ff" points="289.78,-49.05 283.71,-40.37 283.04,-50.94 289.78,-49.05"/>
</a>
</g>
</g>
<!-- Node6 -->
<g id="Node000006" class="node">
<title>Node6</title>
<g id="a_Node000006"><a xlink:href="descriptor_8c.html#a9d772be036ad7ec4e9e926a190b76003" target="_top" xlink:title=" ">
<polygon fill="white" stroke="#666666" points="450,-39 340,-39 340,-20 450,-20 450,-39"/>
<text text-anchor="middle" x="395" y="-27" font-family="Helvetica,sans-Serif" font-size="10.00">create_file_descriptor</text>
</a>
</g>
</g>
<!-- Node5&#45;&gt;Node6 -->
<g id="edge8_Node000005_Node000006" class="edge">
<title>Node5&#45;&gt;Node6</title>
<g id="a_edge8_Node000005_Node000006"><a xlink:title=" ">
<path fill="none" stroke="#63b8ff" d="M289.48,-29.5C300.69,-29.5 314.73,-29.5 328.84,-29.5"/>
<polygon fill="#63b8ff" stroke="#63b8ff" points="328.6,-33 338.6,-29.5 328.6,-26 328.6,-33"/>
</a>
</g>
</g>
<!-- Node6&#45;&gt;Node6 -->
<g id="edge9_Node000006_Node000006" class="edge">
<title>Node6&#45;&gt;Node6</title>
<g id="a_edge9_Node000006_Node000006"><a xlink:title=" ">
<path fill="none" stroke="#63b8ff" d="M374.65,-39.37C365.36,-47.94 372.15,-57 395,-57 408.21,-57 416.05,-53.97 418.52,-49.76"/>
<polygon fill="#63b8ff" stroke="#63b8ff" points="421.62,-48.91 415.35,-40.37 414.92,-50.95 421.62,-48.91"/>
</a>
</g>
</g>
<!-- Node7&#45;&gt;Node5 -->
<g id="edge12_Node000007_Node000005" class="edge">
<title>Node7&#45;&gt;Node5</title>
<g id="a_edge12_Node000007_Node000005"><a xlink:title=" ">
<path fill="none" stroke="#63b8ff" d="M173.75,-14.14C190.52,-16.99 212.14,-20.67 230.01,-23.71"/>
<polygon fill="#63b8ff" stroke="#63b8ff" points="229.41,-27.33 239.86,-25.56 230.59,-20.43 229.41,-27.33"/>
</a>
</g>
</g>
<!-- Node7&#45;&gt;Node7 -->
<g id="edge13_Node000007_Node000007" class="edge">
<title>Node7&#45;&gt;Node7</title>
<g id="a_edge13_Node000007_Node000007"><a xlink:title=" ">
<path fill="none" stroke="#63b8ff" d="M127.81,-19.37C119.74,-27.94 125.64,-37 145.5,-37 156.98,-37 163.8,-33.97 165.95,-29.76"/>
<polygon fill="#63b8ff" stroke="#63b8ff" points="169.14,-29.14 163.19,-20.37 162.37,-30.93 169.14,-29.14"/>
</a>
</g>
</g>
</g>
</svg>
