<?xml version="1.0" encoding="UTF-8" standalone="no"?>
<!DOCTYPE svg PUBLIC "-//W3C//DTD SVG 1.1//EN"
 "http://www.w3.org/Graphics/SVG/1.1/DTD/svg11.dtd">
<!-- Generated by graphviz version 2.49.3 (20211023.0002)
 -->
<!-- Title: include/kernel/sys/k_syscall.h Pages: 1 -->
<svg width="288pt" height="263pt"
 viewBox="0.00 0.00 288.00 263.00" xmlns="http://www.w3.org/2000/svg" xmlns:xlink="http://www.w3.org/1999/xlink">
<g id="graph0" class="graph" transform="scale(1 1) rotate(0) translate(4 259)">
<title>include/kernel/sys/k_syscall.h</title>
<!-- Node1 -->
<g id="node1" class="node">
<title>Node1</title>
<g id="a_node1"><a xlink:title=" ">
<polygon fill="#bfbfbf" stroke="black" points="90,-224.5 90,-254.5 186,-254.5 186,-224.5 90,-224.5"/>
<text text-anchor="start" x="98" y="-242.5" font-family="Helvetica,sans-Serif" font-size="10.00">include/kernel/sys</text>
<text text-anchor="middle" x="138" y="-231.5" font-family="Helvetica,sans-Serif" font-size="10.00">/k_syscall.h</text>
</a>
</g>
</g>
<!-- Node2 -->
<g id="node2" class="node">
<title>Node2</title>
<g id="a_node2"><a xlink:href="inet_8h.html" target="_top" xlink:title=" ">
<polygon fill="none" stroke="black" points="46,-168.5 46,-187.5 110,-187.5 110,-168.5 46,-168.5"/>
<text text-anchor="middle" x="78" y="-175.5" font-family="Helvetica,sans-Serif" font-size="10.00">arpa/inet.h</text>
</a>
</g>
</g>
<!-- Node1&#45;&gt;Node2 -->
<g id="edge1" class="edge">
<title>Node1&#45;&gt;Node2</title>
<path fill="none" stroke="midnightblue" d="M123.78,-224.4C114.79,-215.49 103.16,-203.95 93.87,-194.74"/>
<polygon fill="midnightblue" stroke="midnightblue" points="96.3,-192.21 86.73,-187.66 91.37,-197.18 96.3,-192.21"/>
</g>
<!-- Node3 -->
<g id="node3" class="node">
<title>Node3</title>
<g id="a_node3"><a xlink:href="socket_8h.html" target="_top" xlink:title=" ">
<polygon fill="none" stroke="black" points="0,-112.5 0,-131.5 72,-131.5 72,-112.5 0,-112.5"/>
<text text-anchor="middle" x="36" y="-119.5" font-family="Helvetica,sans-Serif" font-size="10.00">sys/socket.h</text>
</a>
</g>
</g>
<!-- Node1&#45;&gt;Node3 -->
<g id="edge8" class="edge">
<title>Node1&#45;&gt;Node3</title>
<path fill="none" stroke="midnightblue" d="M89.96,-226.49C70.04,-218.9 48.84,-206.84 37,-188 28.37,-174.28 29.11,-155.5 31.42,-141.65"/>
<polygon fill="midnightblue" stroke="midnightblue" points="34.86,-142.3 33.46,-131.79 28.01,-140.88 34.86,-142.3"/>
</g>
<!-- Node4 -->
<g id="node4" class="node">
<title>Node4</title>
<g id="a_node4"><a xlink:href="types_8h.html" target="_top" xlink:title=" ">
<polygon fill="none" stroke="black" points="104.5,-56.5 104.5,-75.5 171.5,-75.5 171.5,-56.5 104.5,-56.5"/>
<text text-anchor="middle" x="138" y="-63.5" font-family="Helvetica,sans-Serif" font-size="10.00">sys/types.h</text>
</a>
</g>
</g>
<!-- Node1&#45;&gt;Node4 -->
<g id="edge13" class="edge">
<title>Node1&#45;&gt;Node4</title>
<path fill="none" stroke="midnightblue" d="M138,-224.47C138,-193.7 138,-120.33 138,-85.7"/>
<polygon fill="midnightblue" stroke="midnightblue" points="141.5,-85.56 138,-75.56 134.5,-85.56 141.5,-85.56"/>
</g>
<!-- Node8 -->
<g id="node8" class="node">
<title>Node8</title>
<g id="a_node8"><a xlink:href="stat_8h.html" target="_top" xlink:title=" ">
<polygon fill="none" stroke="black" points="166.5,-168.5 166.5,-187.5 225.5,-187.5 225.5,-168.5 166.5,-168.5"/>
<text text-anchor="middle" x="196" y="-175.5" font-family="Helvetica,sans-Serif" font-size="10.00">sys/stat.h</text>
</a>
</g>
</g>
<!-- Node1&#45;&gt;Node8 -->
<g id="edge9" class="edge">
<title>Node1&#45;&gt;Node8</title>
<path fill="none" stroke="midnightblue" d="M151.75,-224.4C160.35,-215.58 171.45,-204.18 180.39,-195.02"/>
<polygon fill="midnightblue" stroke="midnightblue" points="183.09,-197.26 187.56,-187.66 178.07,-192.38 183.09,-197.26"/>
</g>
<!-- Node9 -->
<g id="node9" class="node">
<title>Node9</title>
<g id="a_node9"><a xlink:href="libc_2sys_2time_8h.html" target="_top" xlink:title=" ">
<polygon fill="none" stroke="black" points="218,-112.5 218,-131.5 280,-131.5 280,-112.5 218,-112.5"/>
<text text-anchor="middle" x="249" y="-119.5" font-family="Helvetica,sans-Serif" font-size="10.00">sys/time.h</text>
</a>
</g>
</g>
<!-- Node1&#45;&gt;Node9 -->
<g id="edge11" class="edge">
<title>Node1&#45;&gt;Node9</title>
<path fill="none" stroke="midnightblue" d="M183.81,-224.38C202.29,-216.48 222.22,-204.76 235,-188 245.06,-174.8 248.24,-155.93 249.09,-141.92"/>
<polygon fill="midnightblue" stroke="midnightblue" points="252.6,-141.61 249.36,-131.52 245.6,-141.43 252.6,-141.61"/>
</g>
<!-- Node2&#45;&gt;Node3 -->
<g id="edge2" class="edge">
<title>Node2&#45;&gt;Node3</title>
<path fill="none" stroke="midnightblue" d="M71.06,-168.08C65.07,-160.38 56.25,-149.03 48.95,-139.65"/>
<polygon fill="midnightblue" stroke="midnightblue" points="51.71,-137.5 42.81,-131.75 46.18,-141.79 51.71,-137.5"/>
</g>
<!-- Node2&#45;&gt;Node4 -->
<g id="edge7" class="edge">
<title>Node2&#45;&gt;Node4</title>
<path fill="none" stroke="midnightblue" d="M82.71,-168.37C92.52,-150.38 115.34,-108.55 128.39,-84.63"/>
<polygon fill="midnightblue" stroke="midnightblue" points="131.6,-86.05 133.31,-75.59 125.45,-82.69 131.6,-86.05"/>
</g>
<!-- Node3&#45;&gt;Node4 -->
<g id="edge3" class="edge">
<title>Node3&#45;&gt;Node4</title>
<path fill="none" stroke="midnightblue" d="M52.39,-112.32C68.67,-103.7 93.87,-90.36 112.72,-80.39"/>
<polygon fill="midnightblue" stroke="midnightblue" points="114.45,-83.43 121.65,-75.65 111.18,-77.24 114.45,-83.43"/>
</g>
<!-- Node5 -->
<g id="node5" class="node">
<title>Node5</title>
<g id="a_node5"><a xlink:title=" ">
<polygon fill="none" stroke="#bfbfbf" points="36.5,-0.5 36.5,-19.5 93.5,-19.5 93.5,-0.5 36.5,-0.5"/>
<text text-anchor="middle" x="65" y="-7.5" font-family="Helvetica,sans-Serif" font-size="10.00">stdbool.h</text>
</a>
</g>
</g>
<!-- Node4&#45;&gt;Node5 -->
<g id="edge4" class="edge">
<title>Node4&#45;&gt;Node5</title>
<path fill="none" stroke="midnightblue" d="M126.27,-56.32C115.16,-48.11 98.26,-35.6 85.02,-25.81"/>
<polygon fill="midnightblue" stroke="midnightblue" points="87.06,-22.97 76.94,-19.83 82.9,-28.59 87.06,-22.97"/>
</g>
<!-- Node6 -->
<g id="node6" class="node">
<title>Node6</title>
<g id="a_node6"><a xlink:title=" ">
<polygon fill="none" stroke="#bfbfbf" points="112,-0.5 112,-19.5 164,-19.5 164,-0.5 112,-0.5"/>
<text text-anchor="middle" x="138" y="-7.5" font-family="Helvetica,sans-Serif" font-size="10.00">stddef.h</text>
</a>
</g>
</g>
<!-- Node4&#45;&gt;Node6 -->
<g id="edge5" class="edge">
<title>Node4&#45;&gt;Node6</title>
<path fill="none" stroke="midnightblue" d="M138,-56.08C138,-49.01 138,-38.86 138,-29.99"/>
<polygon fill="midnightblue" stroke="midnightblue" points="141.5,-29.75 138,-19.75 134.5,-29.75 141.5,-29.75"/>
</g>
<!-- Node7 -->
<g id="node7" class="node">
<title>Node7</title>
<g id="a_node7"><a xlink:title=" ">
<polygon fill="none" stroke="#bfbfbf" points="182.5,-0.5 182.5,-19.5 231.5,-19.5 231.5,-0.5 182.5,-0.5"/>
<text text-anchor="middle" x="207" y="-7.5" font-family="Helvetica,sans-Serif" font-size="10.00">stdint.h</text>
</a>
</g>
</g>
<!-- Node4&#45;&gt;Node7 -->
<g id="edge6" class="edge">
<title>Node4&#45;&gt;Node7</title>
<path fill="none" stroke="midnightblue" d="M149.09,-56.32C159.49,-48.18 175.26,-35.84 187.72,-26.09"/>
<polygon fill="midnightblue" stroke="midnightblue" points="189.99,-28.75 195.71,-19.83 185.68,-23.24 189.99,-28.75"/>
</g>
<!-- Node8&#45;&gt;Node4 -->
<g id="edge10" class="edge">
<title>Node8&#45;&gt;Node4</title>
<path fill="none" stroke="midnightblue" d="M191.45,-168.37C181.96,-150.38 159.91,-108.55 147.29,-84.63"/>
<polygon fill="midnightblue" stroke="midnightblue" points="150.29,-82.8 142.53,-75.59 144.1,-86.07 150.29,-82.8"/>
</g>
<!-- Node9&#45;&gt;Node4 -->
<g id="edge12" class="edge">
<title>Node9&#45;&gt;Node4</title>
<path fill="none" stroke="midnightblue" d="M231.17,-112.32C213.28,-103.62 185.52,-90.12 164.95,-80.11"/>
<polygon fill="midnightblue" stroke="midnightblue" points="166.31,-76.88 155.79,-75.65 163.25,-83.18 166.31,-76.88"/>
</g>
</g>
</svg>
