<?xml version="1.0" encoding="UTF-8" standalone="no"?>
<!DOCTYPE svg PUBLIC "-//W3C//DTD SVG 1.1//EN"
 "http://www.w3.org/Graphics/SVG/1.1/DTD/svg11.dtd">
<!-- Generated by graphviz version 3.0.0 (20220226.1711)
 -->
<!-- Title: include/kernel/sys/k_syscall.h Pages: 1 -->
<svg width="290pt" height="263pt"
 viewBox="0.00 0.00 289.50 263.00" xmlns="http://www.w3.org/2000/svg" xmlns:xlink="http://www.w3.org/1999/xlink">
<g id="graph0" class="graph" transform="scale(1 1) rotate(0) translate(4 259)">
<title>include/kernel/sys/k_syscall.h</title>
<!-- Node1 -->
<g id="node1" class="node">
<title>Node1</title>
<g id="a_node1"><a xlink:title=" ">
<polygon fill="#bfbfbf" stroke="black" points="92,-224.5 92,-254.5 187,-254.5 187,-224.5 92,-224.5"/>
<text text-anchor="start" x="100" y="-242.5" font-family="Helvetica,sans-Serif" font-size="10.00">include/kernel/sys</text>
<text text-anchor="middle" x="139.5" y="-231.5" font-family="Helvetica,sans-Serif" font-size="10.00">/k_syscall.h</text>
</a>
</g>
</g>
<!-- Node2 -->
<g id="node2" class="node">
<title>Node2</title>
<g id="a_node2"><a xlink:href="inet_8h.html" target="_top" xlink:title=" ">
<polygon fill="none" stroke="black" points="49.5,-168.5 49.5,-187.5 111.5,-187.5 111.5,-168.5 49.5,-168.5"/>
<text text-anchor="middle" x="80.5" y="-175.5" font-family="Helvetica,sans-Serif" font-size="10.00">arpa/inet.h</text>
</a>
</g>
</g>
<!-- Node1&#45;&gt;Node2 -->
<g id="edge1" class="edge">
<title>Node1&#45;&gt;Node2</title>
<path fill="none" stroke="midnightblue" d="M125.52,-224.4C116.77,-215.58 105.47,-204.18 96.38,-195.02"/>
<polygon fill="midnightblue" stroke="midnightblue" points="98.61,-192.29 89.09,-187.66 93.64,-197.22 98.61,-192.29"/>
</g>
<!-- Node3 -->
<g id="node3" class="node">
<title>Node3</title>
<g id="a_node3"><a xlink:href="socket_8h.html" target="_top" xlink:title=" ">
<polygon fill="none" stroke="black" points="0,-112.5 0,-131.5 73,-131.5 73,-112.5 0,-112.5"/>
<text text-anchor="middle" x="36.5" y="-119.5" font-family="Helvetica,sans-Serif" font-size="10.00">sys/socket.h</text>
</a>
</g>
</g>
<!-- Node1&#45;&gt;Node3 -->
<g id="edge8" class="edge">
<title>Node1&#45;&gt;Node3</title>
<path fill="none" stroke="midnightblue" d="M91.76,-225.59C72.6,-217.89 52.29,-205.99 40.5,-188 31.6,-174.42 31.42,-155.62 32.99,-141.73"/>
<polygon fill="midnightblue" stroke="midnightblue" points="36.45,-142.25 34.48,-131.84 29.53,-141.21 36.45,-142.25"/>
</g>
<!-- Node4 -->
<g id="node4" class="node">
<title>Node4</title>
<g id="a_node4"><a xlink:href="types_8h.html" target="_top" xlink:title=" ">
<polygon fill="none" stroke="black" points="105.5,-56.5 105.5,-75.5 173.5,-75.5 173.5,-56.5 105.5,-56.5"/>
<text text-anchor="middle" x="139.5" y="-63.5" font-family="Helvetica,sans-Serif" font-size="10.00">sys/types.h</text>
</a>
</g>
</g>
<!-- Node1&#45;&gt;Node4 -->
<g id="edge13" class="edge">
<title>Node1&#45;&gt;Node4</title>
<path fill="none" stroke="midnightblue" d="M139.5,-224.47C139.5,-193.7 139.5,-120.33 139.5,-85.7"/>
<polygon fill="midnightblue" stroke="midnightblue" points="143,-85.56 139.5,-75.56 136,-85.56 143,-85.56"/>
</g>
<!-- Node8 -->
<g id="node8" class="node">
<title>Node8</title>
<g id="a_node8"><a xlink:href="stat_8h.html" target="_top" xlink:title=" ">
<polygon fill="none" stroke="black" points="167.5,-168.5 167.5,-187.5 227.5,-187.5 227.5,-168.5 167.5,-168.5"/>
<text text-anchor="middle" x="197.5" y="-175.5" font-family="Helvetica,sans-Serif" font-size="10.00">sys/stat.h</text>
</a>
</g>
</g>
<!-- Node1&#45;&gt;Node8 -->
<g id="edge9" class="edge">
<title>Node1&#45;&gt;Node8</title>
<path fill="none" stroke="midnightblue" d="M153.25,-224.4C161.85,-215.58 172.95,-204.18 181.89,-195.02"/>
<polygon fill="midnightblue" stroke="midnightblue" points="184.59,-197.26 189.06,-187.66 179.57,-192.38 184.59,-197.26"/>
</g>
<!-- Node9 -->
<g id="node9" class="node">
<title>Node9</title>
<g id="a_node9"><a xlink:href="libc_2sys_2time_8h.html" target="_top" xlink:title=" ">
<polygon fill="none" stroke="black" points="219.5,-112.5 219.5,-131.5 281.5,-131.5 281.5,-112.5 219.5,-112.5"/>
<text text-anchor="middle" x="250.5" y="-119.5" font-family="Helvetica,sans-Serif" font-size="10.00">sys/time.h</text>
</a>
</g>
</g>
<!-- Node1&#45;&gt;Node9 -->
<g id="edge11" class="edge">
<title>Node1&#45;&gt;Node9</title>
<path fill="none" stroke="midnightblue" d="M185.31,-224.38C203.79,-216.48 223.72,-204.76 236.5,-188 246.56,-174.8 249.74,-155.93 250.59,-141.92"/>
<polygon fill="midnightblue" stroke="midnightblue" points="254.1,-141.61 250.86,-131.52 247.1,-141.43 254.1,-141.61"/>
</g>
<!-- Node2&#45;&gt;Node3 -->
<g id="edge2" class="edge">
<title>Node2&#45;&gt;Node3</title>
<path fill="none" stroke="midnightblue" d="M73.23,-168.08C66.96,-160.38 57.71,-149.03 50.07,-139.65"/>
<polygon fill="midnightblue" stroke="midnightblue" points="52.66,-137.29 43.63,-131.75 47.23,-141.71 52.66,-137.29"/>
</g>
<!-- Node2&#45;&gt;Node4 -->
<g id="edge7" class="edge">
<title>Node2&#45;&gt;Node4</title>
<path fill="none" stroke="midnightblue" d="M85.13,-168.37C94.78,-150.38 117.21,-108.55 130.05,-84.63"/>
<polygon fill="midnightblue" stroke="midnightblue" points="133.25,-86.06 134.89,-75.59 127.08,-82.75 133.25,-86.06"/>
</g>
<!-- Node3&#45;&gt;Node4 -->
<g id="edge3" class="edge">
<title>Node3&#45;&gt;Node4</title>
<path fill="none" stroke="midnightblue" d="M53.05,-112.32C69.49,-103.7 94.93,-90.36 113.97,-80.39"/>
<polygon fill="midnightblue" stroke="midnightblue" points="115.76,-83.4 122.99,-75.65 112.51,-77.2 115.76,-83.4"/>
</g>
<!-- Node5 -->
<g id="node5" class="node">
<title>Node5</title>
<g id="a_node5"><a xlink:title=" ">
<polygon fill="none" stroke="#bfbfbf" points="39.5,-0.5 39.5,-19.5 95.5,-19.5 95.5,-0.5 39.5,-0.5"/>
<text text-anchor="middle" x="67.5" y="-7.5" font-family="Helvetica,sans-Serif" font-size="10.00">stdbool.h</text>
</a>
</g>
</g>
<!-- Node4&#45;&gt;Node5 -->
<g id="edge4" class="edge">
<title>Node4&#45;&gt;Node5</title>
<path fill="none" stroke="midnightblue" d="M127.93,-56.32C117.08,-48.18 100.62,-35.84 87.62,-26.09"/>
<polygon fill="midnightblue" stroke="midnightblue" points="89.38,-23.03 79.28,-19.83 85.18,-28.63 89.38,-23.03"/>
</g>
<!-- Node6 -->
<g id="node6" class="node">
<title>Node6</title>
<g id="a_node6"><a xlink:title=" ">
<polygon fill="none" stroke="#bfbfbf" points="113.5,-0.5 113.5,-19.5 165.5,-19.5 165.5,-0.5 113.5,-0.5"/>
<text text-anchor="middle" x="139.5" y="-7.5" font-family="Helvetica,sans-Serif" font-size="10.00">stddef.h</text>
</a>
</g>
</g>
<!-- Node4&#45;&gt;Node6 -->
<g id="edge5" class="edge">
<title>Node4&#45;&gt;Node6</title>
<path fill="none" stroke="midnightblue" d="M139.5,-56.08C139.5,-49.01 139.5,-38.86 139.5,-29.99"/>
<polygon fill="midnightblue" stroke="midnightblue" points="143,-29.75 139.5,-19.75 136,-29.75 143,-29.75"/>
</g>
<!-- Node7 -->
<g id="node7" class="node">
<title>Node7</title>
<g id="a_node7"><a xlink:title=" ">
<polygon fill="none" stroke="#bfbfbf" points="184,-0.5 184,-19.5 233,-19.5 233,-0.5 184,-0.5"/>
<text text-anchor="middle" x="208.5" y="-7.5" font-family="Helvetica,sans-Serif" font-size="10.00">stdint.h</text>
</a>
</g>
</g>
<!-- Node4&#45;&gt;Node7 -->
<g id="edge6" class="edge">
<title>Node4&#45;&gt;Node7</title>
<path fill="none" stroke="midnightblue" d="M150.59,-56.32C160.99,-48.18 176.76,-35.84 189.22,-26.09"/>
<polygon fill="midnightblue" stroke="midnightblue" points="191.49,-28.75 197.21,-19.83 187.18,-23.24 191.49,-28.75"/>
</g>
<!-- Node8&#45;&gt;Node4 -->
<g id="edge10" class="edge">
<title>Node8&#45;&gt;Node4</title>
<path fill="none" stroke="midnightblue" d="M192.95,-168.37C183.46,-150.38 161.41,-108.55 148.79,-84.63"/>
<polygon fill="midnightblue" stroke="midnightblue" points="151.79,-82.8 144.03,-75.59 145.6,-86.07 151.79,-82.8"/>
</g>
<!-- Node9&#45;&gt;Node4 -->
<g id="edge12" class="edge">
<title>Node9&#45;&gt;Node4</title>
<path fill="none" stroke="midnightblue" d="M232.67,-112.32C214.78,-103.62 187.02,-90.12 166.45,-80.11"/>
<polygon fill="midnightblue" stroke="midnightblue" points="167.81,-76.88 157.29,-75.65 164.75,-83.18 167.81,-76.88"/>
</g>
</g>
</svg>
