<?xml version="1.0" encoding="UTF-8" standalone="no"?>
<!DOCTYPE svg PUBLIC "-//W3C//DTD SVG 1.1//EN"
 "http://www.w3.org/Graphics/SVG/1.1/DTD/svg11.dtd">
<!-- Generated by graphviz version 8.0.2 (20230410.1723)
 -->
<!-- Title: k_open Pages: 1 -->
<svg width="244pt" height="66pt"
 viewBox="0.00 0.00 244.00 66.00" xmlns="http://www.w3.org/2000/svg" xmlns:xlink="http://www.w3.org/1999/xlink">
<g id="graph0" class="graph" transform="scale(1 1) rotate(0) translate(4 62)">
<title>k_open</title>
<!-- Node1 -->
<g id="node1" class="node">
<title>Node1</title>
<g id="a_node1"><a xlink:title=" ">
<polygon fill="#bfbfbf" stroke="black" points="188,-19.5 188,-38.5 236,-38.5 236,-19.5 188,-19.5"/>
<text text-anchor="middle" x="212" y="-26.5" font-family="Helvetica,sans-Serif" font-size="10.00">k_open</text>
</a>
</g>
</g>
<!-- Node2 -->
<g id="node2" class="node">
<title>Node2</title>
<g id="a_node2"><a xlink:href="k__openat_8c.html#a256d0b3f99e3a51b61a5f92da3237787" target="_top" xlink:title=" ">
<polygon fill="none" stroke="black" points="96,-38.5 96,-57.5 152,-57.5 152,-38.5 96,-38.5"/>
<text text-anchor="middle" x="124" y="-45.5" font-family="Helvetica,sans-Serif" font-size="10.00">k_openat</text>
</a>
</g>
</g>
<!-- Node1&#45;&gt;Node2 -->
<g id="edge1" class="edge">
<title>Node1&#45;&gt;Node2</title>
<path fill="none" stroke="midnightblue" d="M177.86,-36.32C169.21,-38.23 159.99,-40.27 151.72,-42.1"/>
<polygon fill="midnightblue" stroke="midnightblue" points="178.4,-39.57 187.4,-33.99 176.88,-32.73 178.4,-39.57"/>
</g>
<!-- Node4 -->
<g id="node4" class="node">
<title>Node4</title>
<g id="a_node4"><a xlink:href="open_8c.html#ab7c31bf64ff68f61762bda6e72e255d6" target="_top" xlink:title=" ">
<polygon fill="none" stroke="black" points="105,-0.5 105,-19.5 143,-19.5 143,-0.5 105,-0.5"/>
<text text-anchor="middle" x="124" y="-7.5" font-family="Helvetica,sans-Serif" font-size="10.00">open</text>
</a>
</g>
</g>
<!-- Node1&#45;&gt;Node4 -->
<g id="edge3" class="edge">
<title>Node1&#45;&gt;Node4</title>
<path fill="none" stroke="midnightblue" d="M177.87,-21.68C165.95,-19.05 152.96,-16.18 142.84,-13.94"/>
<polygon fill="midnightblue" stroke="midnightblue" points="176.88,-25.27 187.4,-24.01 178.4,-18.43 176.88,-25.27"/>
</g>
<!-- Node3 -->
<g id="node3" class="node">
<title>Node3</title>
<g id="a_node3"><a xlink:href="openat_8c.html#ae49d1c90a87f9ab8500b66a5662bc0a8" target="_top" xlink:title=" ">
<polygon fill="none" stroke="black" points="7,-38.5 7,-57.5 53,-57.5 53,-38.5 7,-38.5"/>
<text text-anchor="middle" x="30" y="-45.5" font-family="Helvetica,sans-Serif" font-size="10.00">openat</text>
</a>
</g>
</g>
<!-- Node2&#45;&gt;Node3 -->
<g id="edge2" class="edge">
<title>Node2&#45;&gt;Node3</title>
<path fill="none" stroke="midnightblue" d="M85.61,-48C74.49,-48 62.68,-48 52.9,-48"/>
<polygon fill="midnightblue" stroke="midnightblue" points="85.39,-51.5 95.39,-48 85.39,-44.5 85.39,-51.5"/>
</g>
<!-- Node5 -->
<g id="node5" class="node">
<title>Node5</title>
<g id="a_node5"><a xlink:href="inish_8c.html#a6c6783a2593b39ce4914819912297092" target="_top" xlink:title=" ">
<polygon fill="none" stroke="black" points="0,-0.5 0,-19.5 60,-19.5 60,-0.5 0,-0.5"/>
<text text-anchor="middle" x="30" y="-7.5" font-family="Helvetica,sans-Serif" font-size="10.00">inish_load</text>
</a>
</g>
</g>
<!-- Node4&#45;&gt;Node5 -->
<g id="edge4" class="edge">
<title>Node4&#45;&gt;Node5</title>
<path fill="none" stroke="midnightblue" d="M94.5,-10C83.5,-10 70.94,-10 59.9,-10"/>
<polygon fill="midnightblue" stroke="midnightblue" points="94.26,-13.5 104.26,-10 94.26,-6.5 94.26,-13.5"/>
</g>
</g>
</svg>
