<?xml version="1.0" encoding="UTF-8" standalone="no"?>
<!DOCTYPE svg PUBLIC "-//W3C//DTD SVG 1.1//EN"
 "http://www.w3.org/Graphics/SVG/1.1/DTD/svg11.dtd">
<!-- Generated by graphviz version 8.0.2 (20230410.1723)
 -->
<!-- Title: k_lseek Pages: 1 -->
<svg width="172pt" height="45pt"
 viewBox="0.00 0.00 172.00 45.00" xmlns="http://www.w3.org/2000/svg" xmlns:xlink="http://www.w3.org/1999/xlink">
<g id="graph0" class="graph" transform="scale(1 1) rotate(0) translate(4 41)">
<title>k_lseek</title>
<!-- Node1 -->
<g id="Node000001" class="node">
<title>Node1</title>
<g id="a_Node000001"><a xlink:title=" ">
<polygon fill="#999999" stroke="#666666" points="50,-19 0,-19 0,0 50,0 50,-19"/>
<text text-anchor="middle" x="25" y="-7" font-family="Helvetica,sans-Serif" font-size="10.00">k_lseek</text>
</a>
</g>
</g>
<!-- Node1&#45;&gt;Node1 -->
<g id="edge3_Node000001_Node000001" class="edge">
<title>Node1&#45;&gt;Node1</title>
<g id="a_edge3_Node000001_Node000001"><a xlink:title=" ">
<path fill="none" stroke="#63b8ff" d="M9.34,-19.37C2.2,-27.94 7.42,-37 25,-37 34.89,-37 40.86,-34.13 42.93,-30.1"/>
<polygon fill="#63b8ff" stroke="#63b8ff" points="46.15,-29.42 40.66,-20.37 39.31,-30.88 46.15,-29.42"/>
</a>
</g>
</g>
<!-- Node2 -->
<g id="Node000002" class="node">
<title>Node2</title>
<g id="a_Node000002"><a xlink:href="descriptor_8c.html#ab813e27b51b02aab5c7c6c174ad482a1" target="_top" xlink:title=" ">
<polygon fill="white" stroke="#666666" points="164,-19 86,-19 86,0 164,0 164,-19"/>
<text text-anchor="middle" x="125" y="-7" font-family="Helvetica,sans-Serif" font-size="10.00">get_descriptor</text>
</a>
</g>
</g>
<!-- Node1&#45;&gt;Node2 -->
<g id="edge1_Node000001_Node000002" class="edge">
<title>Node1&#45;&gt;Node2</title>
<g id="a_edge1_Node000001_Node000002"><a xlink:title=" ">
<path fill="none" stroke="#63b8ff" d="M50.48,-9.5C57.97,-9.5 66.5,-9.5 75.02,-9.5"/>
<polygon fill="#63b8ff" stroke="#63b8ff" points="74.74,-13 84.74,-9.5 74.74,-6 74.74,-13"/>
</a>
</g>
</g>
<!-- Node2&#45;&gt;Node2 -->
<g id="edge2_Node000002_Node000002" class="edge">
<title>Node2&#45;&gt;Node2</title>
<g id="a_edge2_Node000002_Node000002"><a xlink:title=" ">
<path fill="none" stroke="#63b8ff" d="M109.34,-19.37C102.2,-27.94 107.42,-37 125,-37 134.89,-37 140.86,-34.13 142.93,-30.1"/>
<polygon fill="#63b8ff" stroke="#63b8ff" points="146.15,-29.42 140.66,-20.37 139.31,-30.88 146.15,-29.42"/>
</a>
</g>
</g>
</g>
</svg>
