<?xml version="1.0" encoding="UTF-8" standalone="no"?>
<!DOCTYPE svg PUBLIC "-//W3C//DTD SVG 1.1//EN"
 "http://www.w3.org/Graphics/SVG/1.1/DTD/svg11.dtd">
<!-- Generated by graphviz version 8.0.2 (20230410.1723)
 -->
<!-- Title: include/kernel/sys/k_syscall.h Pages: 1 -->
<svg width="290pt" height="258pt"
 viewBox="0.00 0.00 289.50 258.00" xmlns="http://www.w3.org/2000/svg" xmlns:xlink="http://www.w3.org/1999/xlink">
<g id="graph0" class="graph" transform="scale(1 1) rotate(0) translate(4 254)">
<title>include/kernel/sys/k_syscall.h</title>
<!-- Node1 -->
<g id="Node000001" class="node">
<title>Node1</title>
<g id="a_Node000001"><a xlink:title=" ">
<polygon fill="#999999" stroke="#666666" points="187,-250 92,-250 92,-220 187,-220 187,-250"/>
<text text-anchor="start" x="100" y="-238" font-family="Helvetica,sans-Serif" font-size="10.00">include/kernel/sys</text>
<text text-anchor="middle" x="139.5" y="-227" font-family="Helvetica,sans-Serif" font-size="10.00">/k_syscall.h</text>
</a>
</g>
</g>
<!-- Node2 -->
<g id="Node000002" class="node">
<title>Node2</title>
<g id="a_Node000002"><a xlink:href="inet_8h.html" target="_top" xlink:title=" ">
<polygon fill="white" stroke="#666666" points="111.5,-184 49.5,-184 49.5,-165 111.5,-165 111.5,-184"/>
<text text-anchor="middle" x="80.5" y="-172" font-family="Helvetica,sans-Serif" font-size="10.00">arpa/inet.h</text>
</a>
</g>
</g>
<!-- Node1&#45;&gt;Node2 -->
<g id="edge1_Node000001_Node000002" class="edge">
<title>Node1&#45;&gt;Node2</title>
<g id="a_edge1_Node000001_Node000002"><a xlink:title=" ">
<path fill="none" stroke="#63b8ff" d="M124.92,-219.54C116.43,-211.13 105.72,-200.51 96.94,-191.8"/>
<polygon fill="#63b8ff" stroke="#63b8ff" points="99.81,-189.73 90.25,-185.18 94.89,-194.7 99.81,-189.73"/>
</a>
</g>
</g>
<!-- Node3 -->
<g id="Node000003" class="node">
<title>Node3</title>
<g id="a_Node000003"><a xlink:href="socket_8h.html" target="_top" xlink:title=" ">
<polygon fill="white" stroke="#666666" points="73,-129 0,-129 0,-110 73,-110 73,-129"/>
<text text-anchor="middle" x="36.5" y="-117" font-family="Helvetica,sans-Serif" font-size="10.00">sys/socket.h</text>
</a>
</g>
</g>
<!-- Node1&#45;&gt;Node3 -->
<g id="edge8_Node000001_Node000003" class="edge">
<title>Node1&#45;&gt;Node3</title>
<g id="a_edge8_Node000001_Node000003"><a xlink:title=" ">
<path fill="none" stroke="#63b8ff" d="M91.52,-221.22C72.44,-213.61 52.27,-201.84 40.5,-184 31.94,-171.02 31.58,-153.11 33,-139.63"/>
<polygon fill="#63b8ff" stroke="#63b8ff" points="36.55,-140.55 34.54,-130.14 29.62,-139.53 36.55,-140.55"/>
</a>
</g>
</g>
<!-- Node4 -->
<g id="Node000004" class="node">
<title>Node4</title>
<g id="a_Node000004"><a xlink:href="types_8h.html" target="_top" xlink:title=" ">
<polygon fill="white" stroke="#666666" points="173.5,-74 105.5,-74 105.5,-55 173.5,-55 173.5,-74"/>
<text text-anchor="middle" x="139.5" y="-62" font-family="Helvetica,sans-Serif" font-size="10.00">sys/types.h</text>
</a>
</g>
</g>
<!-- Node1&#45;&gt;Node4 -->
<g id="edge13_Node000001_Node000004" class="edge">
<title>Node1&#45;&gt;Node4</title>
<g id="a_edge13_Node000001_Node000004"><a xlink:title=" ">
<path fill="none" stroke="#63b8ff" d="M139.5,-219.63C139.5,-189.44 139.5,-119.36 139.5,-85.08"/>
<polygon fill="#63b8ff" stroke="#63b8ff" points="143,-85.22 139.5,-75.22 136,-85.22 143,-85.22"/>
</a>
</g>
</g>
<!-- Node8 -->
<g id="Node000008" class="node">
<title>Node8</title>
<g id="a_Node000008"><a xlink:href="stat_8h.html" target="_top" xlink:title=" ">
<polygon fill="white" stroke="#666666" points="227.5,-184 167.5,-184 167.5,-165 227.5,-165 227.5,-184"/>
<text text-anchor="middle" x="197.5" y="-172" font-family="Helvetica,sans-Serif" font-size="10.00">sys/stat.h</text>
</a>
</g>
</g>
<!-- Node1&#45;&gt;Node8 -->
<g id="edge9_Node000001_Node000008" class="edge">
<title>Node1&#45;&gt;Node8</title>
<g id="a_edge9_Node000001_Node000008"><a xlink:title=" ">
<path fill="none" stroke="#63b8ff" d="M153.84,-219.54C162.18,-211.13 172.71,-200.51 181.34,-191.8"/>
<polygon fill="#63b8ff" stroke="#63b8ff" points="183.34,-194.74 187.9,-185.18 178.37,-189.81 183.34,-194.74"/>
</a>
</g>
</g>
<!-- Node9 -->
<g id="Node000009" class="node">
<title>Node9</title>
<g id="a_Node000009"><a xlink:href="libc_2sys_2time_8h.html" target="_top" xlink:title=" ">
<polygon fill="white" stroke="#666666" points="281.5,-129 219.5,-129 219.5,-110 281.5,-110 281.5,-129"/>
<text text-anchor="middle" x="250.5" y="-117" font-family="Helvetica,sans-Serif" font-size="10.00">sys/time.h</text>
</a>
</g>
</g>
<!-- Node1&#45;&gt;Node9 -->
<g id="edge11_Node000001_Node000009" class="edge">
<title>Node1&#45;&gt;Node9</title>
<g id="a_edge11_Node000001_Node000009"><a xlink:title=" ">
<path fill="none" stroke="#63b8ff" d="M186.51,-219.56C204.63,-211.75 223.96,-200.29 236.5,-184 246.19,-171.41 249.46,-153.46 250.44,-139.86"/>
<polygon fill="#63b8ff" stroke="#63b8ff" points="253.95,-140.39 250.81,-130.27 246.96,-140.14 253.95,-140.39"/>
</a>
</g>
</g>
<!-- Node2&#45;&gt;Node3 -->
<g id="edge2_Node000002_Node000003" class="edge">
<title>Node2&#45;&gt;Node3</title>
<g id="a_edge2_Node000002_Node000003"><a xlink:title=" ">
<path fill="none" stroke="#63b8ff" d="M73.23,-164.75C67.16,-157.43 58.3,-146.76 50.81,-137.74"/>
<polygon fill="#63b8ff" stroke="#63b8ff" points="53,-135.9 43.92,-130.44 47.62,-140.37 53,-135.9"/>
</a>
</g>
</g>
<!-- Node2&#45;&gt;Node4 -->
<g id="edge7_Node000002_Node000004" class="edge">
<title>Node2&#45;&gt;Node4</title>
<g id="a_edge7_Node000002_Node000004"><a xlink:title=" ">
<path fill="none" stroke="#63b8ff" d="M85.33,-164.66C94.92,-147.1 116.57,-107.48 129.4,-83.98"/>
<polygon fill="#63b8ff" stroke="#63b8ff" points="132.88,-85.91 134.61,-75.46 126.74,-82.56 132.88,-85.91"/>
</a>
</g>
</g>
<!-- Node3&#45;&gt;Node4 -->
<g id="edge3_Node000003_Node000004" class="edge">
<title>Node3&#45;&gt;Node4</title>
<g id="a_edge3_Node000003_Node000004"><a xlink:title=" ">
<path fill="none" stroke="#63b8ff" d="M53.97,-109.51C70.05,-101.24 94.14,-88.84 112.66,-79.31"/>
<polygon fill="#63b8ff" stroke="#63b8ff" points="114,-82.05 121.29,-74.36 110.79,-75.82 114,-82.05"/>
</a>
</g>
</g>
<!-- Node5 -->
<g id="Node000005" class="node">
<title>Node5</title>
<g id="a_Node000005"><a xlink:title=" ">
<polygon fill="#e0e0e0" stroke="#999999" points="95.5,-19 39.5,-19 39.5,0 95.5,0 95.5,-19"/>
<text text-anchor="middle" x="67.5" y="-7" font-family="Helvetica,sans-Serif" font-size="10.00">stdbool.h</text>
</a>
</g>
</g>
<!-- Node4&#45;&gt;Node5 -->
<g id="edge4_Node000004_Node000005" class="edge">
<title>Node4&#45;&gt;Node5</title>
<g id="a_edge4_Node000004_Node000005"><a xlink:title=" ">
<path fill="none" stroke="#63b8ff" d="M127.29,-54.51C116.57,-46.62 100.76,-34.98 88.09,-25.65"/>
<polygon fill="#63b8ff" stroke="#63b8ff" points="90.66,-22.47 80.53,-19.36 86.51,-28.1 90.66,-22.47"/>
</a>
</g>
</g>
<!-- Node6 -->
<g id="Node000006" class="node">
<title>Node6</title>
<g id="a_Node000006"><a xlink:title=" ">
<polygon fill="#e0e0e0" stroke="#999999" points="165.5,-19 113.5,-19 113.5,0 165.5,0 165.5,-19"/>
<text text-anchor="middle" x="139.5" y="-7" font-family="Helvetica,sans-Serif" font-size="10.00">stddef.h</text>
</a>
</g>
</g>
<!-- Node4&#45;&gt;Node6 -->
<g id="edge5_Node000004_Node000006" class="edge">
<title>Node4&#45;&gt;Node6</title>
<g id="a_edge5_Node000004_Node000006"><a xlink:title=" ">
<path fill="none" stroke="#63b8ff" d="M139.5,-54.75C139.5,-48.11 139.5,-38.73 139.5,-30.31"/>
<polygon fill="#63b8ff" stroke="#63b8ff" points="143,-30.44 139.5,-20.44 136,-30.44 143,-30.44"/>
</a>
</g>
</g>
<!-- Node7 -->
<g id="Node000007" class="node">
<title>Node7</title>
<g id="a_Node000007"><a xlink:title=" ">
<polygon fill="#e0e0e0" stroke="#999999" points="233,-19 184,-19 184,0 233,0 233,-19"/>
<text text-anchor="middle" x="208.5" y="-7" font-family="Helvetica,sans-Serif" font-size="10.00">stdint.h</text>
</a>
</g>
</g>
<!-- Node4&#45;&gt;Node7 -->
<g id="edge6_Node000004_Node000007" class="edge">
<title>Node4&#45;&gt;Node7</title>
<g id="a_edge6_Node000004_Node000007"><a xlink:title=" ">
<path fill="none" stroke="#63b8ff" d="M151.2,-54.51C161.38,-46.7 176.33,-35.21 188.42,-25.93"/>
<polygon fill="#63b8ff" stroke="#63b8ff" points="190.17,-28.23 195.97,-19.36 185.91,-22.67 190.17,-28.23"/>
</a>
</g>
</g>
<!-- Node8&#45;&gt;Node4 -->
<g id="edge10_Node000008_Node000004" class="edge">
<title>Node8&#45;&gt;Node4</title>
<g id="a_edge10_Node000008_Node000004"><a xlink:title=" ">
<path fill="none" stroke="#63b8ff" d="M192.75,-164.66C183.32,-147.1 162.05,-107.48 149.43,-83.98"/>
<polygon fill="#63b8ff" stroke="#63b8ff" points="152.13,-82.61 144.31,-75.46 145.96,-85.93 152.13,-82.61"/>
</a>
</g>
</g>
<!-- Node9&#45;&gt;Node4 -->
<g id="edge12_Node000009_Node000004" class="edge">
<title>Node9&#45;&gt;Node4</title>
<g id="a_edge12_Node000009_Node000004"><a xlink:title=" ">
<path fill="none" stroke="#63b8ff" d="M231.67,-109.51C214.18,-101.16 187.9,-88.61 167.88,-79.05"/>
<polygon fill="#63b8ff" stroke="#63b8ff" points="169.58,-75.51 159.05,-74.36 166.57,-81.83 169.58,-75.51"/>
</a>
</g>
</g>
</g>
</svg>
