<?xml version="1.0" encoding="UTF-8" standalone="no"?>
<!DOCTYPE svg PUBLIC "-//W3C//DTD SVG 1.1//EN"
 "http://www.w3.org/Graphics/SVG/1.1/DTD/svg11.dtd">
<!-- Generated by graphviz version 2.49.3 (20211023.0002)
 -->
<!-- Title: k_open Pages: 1 -->
<svg width="230pt" height="28pt"
 viewBox="0.00 0.00 230.00 28.00" xmlns="http://www.w3.org/2000/svg" xmlns:xlink="http://www.w3.org/1999/xlink">
<g id="graph0" class="graph" transform="scale(1 1) rotate(0) translate(4 24)">
<title>k_open</title>
<!-- Node1 -->
<g id="node1" class="node">
<title>Node1</title>
<g id="a_node1"><a xlink:title=" ">
<polygon fill="#bfbfbf" stroke="black" points="173,-0.5 173,-19.5 222,-19.5 222,-0.5 173,-0.5"/>
<text text-anchor="middle" x="197.5" y="-7.5" font-family="Helvetica,sans-Serif" font-size="10.00">k_open</text>
</a>
</g>
</g>
<!-- Node2 -->
<g id="node2" class="node">
<title>Node2</title>
<g id="a_node2"><a xlink:href="syscall_8h.html#ab7c31bf64ff68f61762bda6e72e255d6" target="_top" xlink:title=" ">
<polygon fill="none" stroke="black" points="98,-0.5 98,-19.5 137,-19.5 137,-0.5 98,-0.5"/>
<text text-anchor="middle" x="117.5" y="-7.5" font-family="Helvetica,sans-Serif" font-size="10.00">open</text>
</a>
</g>
</g>
<!-- Node1&#45;&gt;Node2 -->
<g id="edge1" class="edge">
<title>Node1&#45;&gt;Node2</title>
<path fill="none" stroke="midnightblue" d="M162.41,-10C153.77,-10 144.8,-10 137.24,-10"/>
<polygon fill="midnightblue" stroke="midnightblue" points="162.67,-13.5 172.67,-10 162.67,-6.5 162.67,-13.5"/>
</g>
<!-- Node3 -->
<g id="node3" class="node">
<title>Node3</title>
<g id="a_node3"><a xlink:href="inish_8h.html#a3bb9aa17f1cc46b6c5db617a9668b0e8" target="_top" xlink:title=" ">
<polygon fill="none" stroke="black" points="0,-0.5 0,-19.5 62,-19.5 62,-0.5 0,-0.5"/>
<text text-anchor="middle" x="31" y="-7.5" font-family="Helvetica,sans-Serif" font-size="10.00">inish_load</text>
</a>
</g>
</g>
<!-- Node2&#45;&gt;Node3 -->
<g id="edge2" class="edge">
<title>Node2&#45;&gt;Node3</title>
<path fill="none" stroke="midnightblue" d="M87.58,-10C79.43,-10 70.54,-10 62.32,-10"/>
<polygon fill="midnightblue" stroke="midnightblue" points="87.75,-13.5 97.75,-10 87.75,-6.5 87.75,-13.5"/>
</g>
</g>
</svg>
