<?xml version="1.0" encoding="UTF-8" standalone="no"?>
<!DOCTYPE svg PUBLIC "-//W3C//DTD SVG 1.1//EN"
 "http://www.w3.org/Graphics/SVG/1.1/DTD/svg11.dtd">
<!-- Generated by graphviz version 8.0.2 (20230410.1723)
 -->
<!-- Title: arch_timer_init Pages: 1 -->
<svg width="362pt" height="28pt"
 viewBox="0.00 0.00 362.00 28.00" xmlns="http://www.w3.org/2000/svg" xmlns:xlink="http://www.w3.org/1999/xlink">
<g id="graph0" class="graph" transform="scale(1 1) rotate(0) translate(4 24)">
<title>arch_timer_init</title>
<!-- Node1 -->
<g id="node1" class="node">
<title>Node1</title>
<g id="a_node1"><a xlink:title=" ">
<polygon fill="#bfbfbf" stroke="black" points="0,-0.5 0,-19.5 80,-19.5 80,-0.5 0,-0.5"/>
<text text-anchor="middle" x="40" y="-7.5" font-family="Helvetica,sans-Serif" font-size="10.00">arch_timer_init</text>
</a>
</g>
</g>
<!-- Node2 -->
<g id="node2" class="node">
<title>Node2</title>
<g id="a_node2"><a xlink:href="bcm2835__timer_8c.html#af1c06e30d4cc124b212c408dceaadbd0" target="_top" xlink:title=" ">
<polygon fill="none" stroke="black" points="116,-0.5 116,-19.5 217,-19.5 217,-0.5 116,-0.5"/>
<text text-anchor="middle" x="166.5" y="-7.5" font-family="Helvetica,sans-Serif" font-size="10.00">bcm2835_timer_init</text>
</a>
</g>
</g>
<!-- Node1&#45;&gt;Node2 -->
<g id="edge1" class="edge">
<title>Node1&#45;&gt;Node2</title>
<path fill="none" stroke="midnightblue" d="M79.71,-10C87.84,-10 96.6,-10 105.31,-10"/>
<polygon fill="midnightblue" stroke="midnightblue" points="105.25,-13.5 115.25,-10 105.25,-6.5 105.25,-13.5"/>
</g>
<!-- Node3 -->
<g id="node3" class="node">
<title>Node3</title>
<g id="a_node3"><a xlink:href="isr_8c.html#a919e035afe984042c7fb8672b16aaf1e" target="_top" xlink:title=" ">
<polygon fill="none" stroke="black" points="253,-0.5 253,-19.5 354,-19.5 354,-0.5 253,-0.5"/>
<text text-anchor="middle" x="303.5" y="-7.5" font-family="Helvetica,sans-Serif" font-size="10.00">isr_register_handler</text>
</a>
</g>
</g>
<!-- Node2&#45;&gt;Node3 -->
<g id="edge2" class="edge">
<title>Node2&#45;&gt;Node3</title>
<path fill="none" stroke="midnightblue" d="M216.62,-10C225,-10 233.78,-10 242.4,-10"/>
<polygon fill="midnightblue" stroke="midnightblue" points="242.19,-13.5 252.19,-10 242.19,-6.5 242.19,-13.5"/>
</g>
</g>
</svg>
