<?xml version="1.0" encoding="UTF-8" standalone="no"?>
<!DOCTYPE svg PUBLIC "-//W3C//DTD SVG 1.1//EN"
 "http://www.w3.org/Graphics/SVG/1.1/DTD/svg11.dtd">
<!-- Generated by graphviz version 8.0.2 (20230410.1723)
 -->
<!-- Title: arch_timer_uptime_microseconds Pages: 1 -->
<svg width="850pt" height="112pt"
 viewBox="0.00 0.00 850.00 111.50" xmlns="http://www.w3.org/2000/svg" xmlns:xlink="http://www.w3.org/1999/xlink">
<g id="graph0" class="graph" transform="scale(1 1) rotate(0) translate(4 107.5)">
<title>arch_timer_uptime_microseconds</title>
<!-- Node1 -->
<g id="Node000001" class="node">
<title>Node1</title>
<g id="a_Node000001"><a xlink:title=" ">
<polygon fill="#999999" stroke="#666666" points="842,-49 679,-49 679,-30 842,-30 842,-49"/>
<text text-anchor="middle" x="760.5" y="-37" font-family="Helvetica,sans-Serif" font-size="10.00">arch_timer_uptime_microseconds</text>
</a>
</g>
</g>
<!-- Node1&#45;&gt;Node1 -->
<g id="edge1_Node000001_Node000001" class="edge">
<title>Node1&#45;&gt;Node1</title>
<g id="a_edge1_Node000001_Node000001"><a xlink:title=" ">
<path fill="none" stroke="#63b8ff" d="M794.84,-59.07C791.98,-63.63 780.53,-67 760.5,-67 727.63,-67 717.87,-57.94 731.22,-49.37"/>
<polygon fill="#63b8ff" stroke="#63b8ff" points="797.51,-57.61 789.78,-50.37 791.31,-60.85 797.51,-57.61"/>
</a>
</g>
</g>
<!-- Node2 -->
<g id="Node000002" class="node">
<title>Node2</title>
<g id="a_Node000002"><a xlink:href="timer_8c.html#a9e237401e78bbceb0c0070ef2ecb4569" target="_top" xlink:title=" ">
<polygon fill="white" stroke="#666666" points="643,-49 504,-49 504,-30 643,-30 643,-49"/>
<text text-anchor="middle" x="573.5" y="-37" font-family="Helvetica,sans-Serif" font-size="10.00">timer_uptime_microseconds</text>
</a>
</g>
</g>
<!-- Node1&#45;&gt;Node2 -->
<g id="edge2_Node000001_Node000002" class="edge">
<title>Node1&#45;&gt;Node2</title>
<g id="a_edge2_Node000001_Node000002"><a xlink:title=" ">
<path fill="none" stroke="#63b8ff" d="M667.82,-39.5C659.59,-39.5 651.34,-39.5 643.34,-39.5"/>
<polygon fill="#63b8ff" stroke="#63b8ff" points="667.63,-43 677.63,-39.5 667.63,-36 667.63,-43"/>
</a>
</g>
</g>
<!-- Node2&#45;&gt;Node2 -->
<g id="edge11_Node000002_Node000002" class="edge">
<title>Node2&#45;&gt;Node2</title>
<g id="a_edge11_Node000002_Node000002"><a xlink:title=" ">
<path fill="none" stroke="#63b8ff" d="M603.5,-59.42C600.67,-63.8 590.67,-67 573.5,-67 544.58,-67 536,-57.94 547.75,-49.37"/>
<polygon fill="#63b8ff" stroke="#63b8ff" points="606.37,-58.21 599.25,-50.37 599.93,-60.94 606.37,-58.21"/>
</a>
</g>
</g>
<!-- Node3 -->
<g id="Node000003" class="node">
<title>Node3</title>
<g id="a_Node000003"><a xlink:href="fake__clock_8c.html#ab4458e5c11135bbbaec3b6f2ee47e9d6" target="_top" xlink:title=" ">
<polygon fill="white" stroke="#666666" points="468,-85.5 350,-85.5 350,-55.5 468,-55.5 468,-85.5"/>
<text text-anchor="start" x="358" y="-73.5" font-family="Helvetica,sans-Serif" font-size="10.00">fake_clock_get_current</text>
<text text-anchor="middle" x="409" y="-62.5" font-family="Helvetica,sans-Serif" font-size="10.00">_microseconds</text>
</a>
</g>
</g>
<!-- Node2&#45;&gt;Node3 -->
<g id="edge3_Node000002_Node000003" class="edge">
<title>Node2&#45;&gt;Node3</title>
<g id="a_edge3_Node000002_Node000003"><a xlink:title=" ">
<path fill="none" stroke="#63b8ff" d="M509.52,-51.51C496,-54.09 481.76,-56.81 468.41,-59.36"/>
<polygon fill="#63b8ff" stroke="#63b8ff" points="510.02,-54.79 519.19,-49.48 508.71,-47.92 510.02,-54.79"/>
</a>
</g>
</g>
<!-- Node6 -->
<g id="Node000006" class="node">
<title>Node6</title>
<g id="a_Node000006"><a xlink:href="timer_8c.html#ad5df37e1f85cabd9c5d43aa1dfc0e37e" target="_top" xlink:title=" ">
<polygon fill="white" stroke="#666666" points="445.5,-19 372.5,-19 372.5,0 445.5,0 445.5,-19"/>
<text text-anchor="middle" x="409" y="-7" font-family="Helvetica,sans-Serif" font-size="10.00">timer_uptime</text>
</a>
</g>
</g>
<!-- Node2&#45;&gt;Node6 -->
<g id="edge9_Node000002_Node000006" class="edge">
<title>Node2&#45;&gt;Node6</title>
<g id="a_edge9_Node000002_Node000006"><a xlink:title=" ">
<path fill="none" stroke="#63b8ff" d="M507.58,-27.52C486.59,-23.64 464.08,-19.48 445.97,-16.14"/>
<polygon fill="#63b8ff" stroke="#63b8ff" points="506.92,-31.14 517.39,-29.51 508.19,-24.25 506.92,-31.14"/>
</a>
</g>
</g>
<!-- Node3&#45;&gt;Node3 -->
<g id="edge8_Node000003_Node000003" class="edge">
<title>Node3&#45;&gt;Node3</title>
<g id="a_edge8_Node000003_Node000003"><a xlink:title=" ">
<path fill="none" stroke="#63b8ff" d="M435.65,-96.44C431.8,-100.63 422.91,-103.5 409,-103.5 384.94,-103.5 375.91,-94.91 381.93,-85.78"/>
<polygon fill="#63b8ff" stroke="#63b8ff" points="439.18,-96.9 436.07,-86.78 432.18,-96.63 439.18,-96.9"/>
</a>
</g>
</g>
<!-- Node4 -->
<g id="Node000004" class="node">
<title>Node4</title>
<g id="a_Node000004"><a xlink:href="kernel_2arch_2x86__64_2arch_2time_8c.html#ab4bc50190a5180744036f0962b00c364" target="_top" xlink:title=" ">
<polygon fill="white" stroke="#666666" points="314,-85.5 196,-85.5 196,-55.5 314,-55.5 314,-85.5"/>
<text text-anchor="start" x="204" y="-73.5" font-family="Helvetica,sans-Serif" font-size="10.00">arch_clock_get_current</text>
<text text-anchor="middle" x="255" y="-62.5" font-family="Helvetica,sans-Serif" font-size="10.00">_microseconds</text>
</a>
</g>
</g>
<!-- Node3&#45;&gt;Node4 -->
<g id="edge4_Node000003_Node000004" class="edge">
<title>Node3&#45;&gt;Node4</title>
<g id="a_edge4_Node000003_Node000004"><a xlink:title=" ">
<path fill="none" stroke="#63b8ff" d="M338.7,-70.5C330.59,-70.5 322.37,-70.5 314.43,-70.5"/>
<polygon fill="#63b8ff" stroke="#63b8ff" points="338.67,-74 348.67,-70.5 338.67,-67 338.67,-74"/>
</a>
</g>
</g>
<!-- Node4&#45;&gt;Node4 -->
<g id="edge5_Node000004_Node000004" class="edge">
<title>Node4&#45;&gt;Node4</title>
<g id="a_edge5_Node000004_Node000004"><a xlink:title=" ">
<path fill="none" stroke="#63b8ff" d="M281.65,-96.44C277.8,-100.63 268.91,-103.5 255,-103.5 230.94,-103.5 221.91,-94.91 227.93,-85.78"/>
<polygon fill="#63b8ff" stroke="#63b8ff" points="285.18,-96.9 282.07,-86.78 278.18,-96.63 285.18,-96.9"/>
</a>
</g>
</g>
<!-- Node5 -->
<g id="Node000005" class="node">
<title>Node5</title>
<g id="a_Node000005"><a xlink:href="clock_8c.html#add4ef47919811f366e7c7561c71088fb" target="_top" xlink:title=" ">
<polygon fill="white" stroke="#666666" points="160,-80 0,-80 0,-61 160,-61 160,-80"/>
<text text-anchor="middle" x="80" y="-68" font-family="Helvetica,sans-Serif" font-size="10.00">clock_get_current_microseconds</text>
</a>
</g>
</g>
<!-- Node4&#45;&gt;Node5 -->
<g id="edge6_Node000004_Node000005" class="edge">
<title>Node4&#45;&gt;Node5</title>
<g id="a_edge6_Node000004_Node000005"><a xlink:title=" ">
<path fill="none" stroke="#63b8ff" d="M185.05,-70.5C176.96,-70.5 168.67,-70.5 160.45,-70.5"/>
<polygon fill="#63b8ff" stroke="#63b8ff" points="184.91,-74 194.91,-70.5 184.91,-67 184.91,-74"/>
</a>
</g>
</g>
<!-- Node5&#45;&gt;Node5 -->
<g id="edge7_Node000005_Node000005" class="edge">
<title>Node5&#45;&gt;Node5</title>
<g id="a_edge7_Node000005_Node000005"><a xlink:title=" ">
<path fill="none" stroke="#63b8ff" d="M112.14,-90.07C109.46,-94.63 98.75,-98 80,-98 49.24,-98 40.11,-88.94 52.6,-80.37"/>
<polygon fill="#63b8ff" stroke="#63b8ff" points="114.94,-88.81 107.4,-81.37 108.65,-91.89 114.94,-88.81"/>
</a>
</g>
</g>
<!-- Node6&#45;&gt;Node6 -->
<g id="edge10_Node000006_Node000006" class="edge">
<title>Node6&#45;&gt;Node6</title>
<g id="a_edge10_Node000006_Node000006"><a xlink:title=" ">
<path fill="none" stroke="#63b8ff" d="M437.09,-29.42C434.44,-33.8 425.07,-37 409,-37 381.93,-37 373.89,-27.94 384.89,-19.37"/>
<polygon fill="#63b8ff" stroke="#63b8ff" points="440.05,-28.38 433.11,-20.37 433.54,-30.95 440.05,-28.38"/>
</a>
</g>
</g>
</g>
</svg>
