<?xml version="1.0" encoding="UTF-8" standalone="no"?>
<!DOCTYPE svg PUBLIC "-//W3C//DTD SVG 1.1//EN"
 "http://www.w3.org/Graphics/SVG/1.1/DTD/svg11.dtd">
<!-- Generated by graphviz version 8.0.2 (20230410.1723)
 -->
<!-- Title: arch_is_kernel_address Pages: 1 -->
<svg width="393pt" height="45pt"
 viewBox="0.00 0.00 393.00 45.00" xmlns="http://www.w3.org/2000/svg" xmlns:xlink="http://www.w3.org/1999/xlink">
<g id="graph0" class="graph" transform="scale(1 1) rotate(0) translate(4 41)">
<title>arch_is_kernel_address</title>
<!-- Node1 -->
<g id="Node000001" class="node">
<title>Node1</title>
<g id="a_Node000001"><a xlink:title=" ">
<polygon fill="#999999" stroke="#666666" points="385,-19 266,-19 266,0 385,0 385,-19"/>
<text text-anchor="middle" x="325.5" y="-7" font-family="Helvetica,sans-Serif" font-size="10.00">arch_is_kernel_address</text>
</a>
</g>
</g>
<!-- Node1&#45;&gt;Node1 -->
<g id="edge1_Node000001_Node000001" class="edge">
<title>Node1&#45;&gt;Node1</title>
<g id="a_edge1_Node000001_Node000001"><a xlink:title=" ">
<path fill="none" stroke="#63b8ff" d="M354.14,-29.42C351.43,-33.8 341.89,-37 325.5,-37 297.9,-37 289.71,-27.94 300.92,-19.37"/>
<polygon fill="#63b8ff" stroke="#63b8ff" points="357.07,-28.33 350.08,-20.37 350.58,-30.95 357.07,-28.33"/>
</a>
</g>
</g>
<!-- Node2 -->
<g id="Node000002" class="node">
<title>Node2</title>
<g id="a_Node000002"><a xlink:href="panic_8c.html#a714e1c8a23ac88c46756c44ec1a5b7f8" target="_top" xlink:title=" ">
<polygon fill="white" stroke="#666666" points="230,-19 107,-19 107,0 230,0 230,-19"/>
<text text-anchor="middle" x="168.5" y="-7" font-family="Helvetica,sans-Serif" font-size="10.00">kernel_dump_stacktrace</text>
</a>
</g>
</g>
<!-- Node1&#45;&gt;Node2 -->
<g id="edge2_Node000001_Node000002" class="edge">
<title>Node1&#45;&gt;Node2</title>
<g id="a_edge2_Node000001_Node000002"><a xlink:title=" ">
<path fill="none" stroke="#63b8ff" d="M255.11,-9.5C246.82,-9.5 238.4,-9.5 230.25,-9.5"/>
<polygon fill="#63b8ff" stroke="#63b8ff" points="254.9,-13 264.9,-9.5 254.9,-6 254.9,-13"/>
</a>
</g>
</g>
<!-- Node3 -->
<g id="Node000003" class="node">
<title>Node3</title>
<g id="a_Node000003"><a xlink:href="panic_8c.html#af92a4fe8363297fd713910fb044d41a9" target="_top" xlink:title=" ">
<polygon fill="white" stroke="#666666" points="71,-19 0,-19 0,0 71,0 71,-19"/>
<text text-anchor="middle" x="35.5" y="-7" font-family="Helvetica,sans-Serif" font-size="10.00">kernel_panic</text>
</a>
</g>
</g>
<!-- Node2&#45;&gt;Node3 -->
<g id="edge3_Node000002_Node000003" class="edge">
<title>Node2&#45;&gt;Node3</title>
<g id="a_edge3_Node000002_Node000003"><a xlink:title=" ">
<path fill="none" stroke="#63b8ff" d="M95.76,-9.5C87.23,-9.5 78.83,-9.5 71.17,-9.5"/>
<polygon fill="#63b8ff" stroke="#63b8ff" points="95.6,-13 105.6,-9.5 95.6,-6 95.6,-13"/>
</a>
</g>
</g>
</g>
</svg>
