<?xml version="1.0" encoding="UTF-8" standalone="no"?>
<!DOCTYPE svg PUBLIC "-//W3C//DTD SVG 1.1//EN"
 "http://www.w3.org/Graphics/SVG/1.1/DTD/svg11.dtd">
<!-- Generated by graphviz version 8.0.2 (20230410.1723)
 -->
<!-- Title: arch_timer_init Pages: 1 -->
<svg width="362pt" height="45pt"
 viewBox="0.00 0.00 362.00 45.00" xmlns="http://www.w3.org/2000/svg" xmlns:xlink="http://www.w3.org/1999/xlink">
<g id="graph0" class="graph" transform="scale(1 1) rotate(0) translate(4 41)">
<title>arch_timer_init</title>
<!-- Node1 -->
<g id="Node000001" class="node">
<title>Node1</title>
<g id="a_Node000001"><a xlink:title=" ">
<polygon fill="#999999" stroke="#666666" points="80,-19 0,-19 0,0 80,0 80,-19"/>
<text text-anchor="middle" x="40" y="-7" font-family="Helvetica,sans-Serif" font-size="10.00">arch_timer_init</text>
</a>
</g>
</g>
<!-- Node1&#45;&gt;Node1 -->
<g id="edge1_Node000001_Node000001" class="edge">
<title>Node1&#45;&gt;Node1</title>
<g id="a_edge1_Node000001_Node000001"><a xlink:title=" ">
<path fill="none" stroke="#63b8ff" d="M20.2,-19.37C11.16,-27.94 17.76,-37 40,-37 52.86,-37 60.49,-33.97 62.89,-29.76"/>
<polygon fill="#63b8ff" stroke="#63b8ff" points="66.01,-28.96 59.8,-20.37 59.3,-30.95 66.01,-28.96"/>
</a>
</g>
</g>
<!-- Node2 -->
<g id="Node000002" class="node">
<title>Node2</title>
<g id="a_Node000002"><a xlink:href="bcm2835__timer_8c.html#af1c06e30d4cc124b212c408dceaadbd0" target="_top" xlink:title=" ">
<polygon fill="white" stroke="#666666" points="217,-19 116,-19 116,0 217,0 217,-19"/>
<text text-anchor="middle" x="166.5" y="-7" font-family="Helvetica,sans-Serif" font-size="10.00">bcm2835_timer_init</text>
</a>
</g>
</g>
<!-- Node1&#45;&gt;Node2 -->
<g id="edge2_Node000001_Node000002" class="edge">
<title>Node1&#45;&gt;Node2</title>
<g id="a_edge2_Node000001_Node000002"><a xlink:title=" ">
<path fill="none" stroke="#63b8ff" d="M80.39,-9.5C88.22,-9.5 96.6,-9.5 104.95,-9.5"/>
<polygon fill="#63b8ff" stroke="#63b8ff" points="104.85,-13 114.85,-9.5 104.85,-6 104.85,-13"/>
</a>
</g>
</g>
<!-- Node2&#45;&gt;Node2 -->
<g id="edge3_Node000002_Node000002" class="edge">
<title>Node2&#45;&gt;Node2</title>
<g id="a_edge3_Node000002_Node000002"><a xlink:title=" ">
<path fill="none" stroke="#63b8ff" d="M146.7,-19.37C137.66,-27.94 144.26,-37 166.5,-37 179.36,-37 186.99,-33.97 189.39,-29.76"/>
<polygon fill="#63b8ff" stroke="#63b8ff" points="192.51,-28.96 186.3,-20.37 185.8,-30.95 192.51,-28.96"/>
</a>
</g>
</g>
<!-- Node3 -->
<g id="Node000003" class="node">
<title>Node3</title>
<g id="a_Node000003"><a xlink:href="isr_8c.html#a919e035afe984042c7fb8672b16aaf1e" target="_top" xlink:title=" ">
<polygon fill="white" stroke="#666666" points="354,-19 253,-19 253,0 354,0 354,-19"/>
<text text-anchor="middle" x="303.5" y="-7" font-family="Helvetica,sans-Serif" font-size="10.00">isr_register_handler</text>
</a>
</g>
</g>
<!-- Node2&#45;&gt;Node3 -->
<g id="edge4_Node000002_Node000003" class="edge">
<title>Node2&#45;&gt;Node3</title>
<g id="a_edge4_Node000002_Node000003"><a xlink:title=" ">
<path fill="none" stroke="#63b8ff" d="M217.39,-9.5C225.43,-9.5 233.83,-9.5 242.09,-9.5"/>
<polygon fill="#63b8ff" stroke="#63b8ff" points="241.82,-13 251.82,-9.5 241.82,-6 241.82,-13"/>
</a>
</g>
</g>
<!-- Node3&#45;&gt;Node3 -->
<g id="edge5_Node000003_Node000003" class="edge">
<title>Node3&#45;&gt;Node3</title>
<g id="a_edge5_Node000003_Node000003"><a xlink:title=" ">
<path fill="none" stroke="#63b8ff" d="M282.05,-19.37C272.27,-27.94 279.42,-37 303.5,-37 317.42,-37 325.69,-33.97 328.29,-29.76"/>
<polygon fill="#63b8ff" stroke="#63b8ff" points="331.34,-28.82 324.95,-20.37 324.68,-30.96 331.34,-28.82"/>
</a>
</g>
</g>
</g>
</svg>
