<?xml version="1.0" encoding="UTF-8" standalone="no"?>
<!DOCTYPE svg PUBLIC "-//W3C//DTD SVG 1.1//EN"
 "http://www.w3.org/Graphics/SVG/1.1/DTD/svg11.dtd">
<!-- Generated by graphviz version 8.0.2 (20230410.1723)
 -->
<!-- Title: arch_clock_init Pages: 1 -->
<svg width="208pt" height="45pt"
 viewBox="0.00 0.00 208.00 45.00" xmlns="http://www.w3.org/2000/svg" xmlns:xlink="http://www.w3.org/1999/xlink">
<g id="graph0" class="graph" transform="scale(1 1) rotate(0) translate(4 41)">
<title>arch_clock_init</title>
<!-- Node1 -->
<g id="Node000001" class="node">
<title>Node1</title>
<g id="a_Node000001"><a xlink:title=" ">
<polygon fill="#999999" stroke="#666666" points="82,-19 0,-19 0,0 82,0 82,-19"/>
<text text-anchor="middle" x="41" y="-7" font-family="Helvetica,sans-Serif" font-size="10.00">arch_clock_init</text>
</a>
</g>
</g>
<!-- Node1&#45;&gt;Node1 -->
<g id="edge1_Node000001_Node000001" class="edge">
<title>Node1&#45;&gt;Node1</title>
<g id="a_edge1_Node000001_Node000001"><a xlink:title=" ">
<path fill="none" stroke="#63b8ff" d="M22.53,-19.37C14.1,-27.94 20.26,-37 41,-37 52.99,-37 60.11,-33.97 62.35,-29.76"/>
<polygon fill="#63b8ff" stroke="#63b8ff" points="65.52,-29.07 59.47,-20.37 58.77,-30.94 65.52,-29.07"/>
</a>
</g>
</g>
<!-- Node2 -->
<g id="Node000002" class="node">
<title>Node2</title>
<g id="a_Node000002"><a xlink:href="fake__clock_8c.html#ae57838590d8d0853b8a6036fbdd0b0d0" target="_top" xlink:title=" ">
<polygon fill="white" stroke="#666666" points="200,-19 118,-19 118,0 200,0 200,-19"/>
<text text-anchor="middle" x="159" y="-7" font-family="Helvetica,sans-Serif" font-size="10.00">fake_clock_init</text>
</a>
</g>
</g>
<!-- Node1&#45;&gt;Node2 -->
<g id="edge2_Node000001_Node000002" class="edge">
<title>Node1&#45;&gt;Node2</title>
<g id="a_edge2_Node000001_Node000002"><a xlink:title=" ">
<path fill="none" stroke="#63b8ff" d="M82.25,-9.5C90.25,-9.5 98.76,-9.5 107.07,-9.5"/>
<polygon fill="#63b8ff" stroke="#63b8ff" points="106.83,-13 116.83,-9.5 106.83,-6 106.83,-13"/>
</a>
</g>
</g>
<!-- Node2&#45;&gt;Node2 -->
<g id="edge3_Node000002_Node000002" class="edge">
<title>Node2&#45;&gt;Node2</title>
<g id="a_edge3_Node000002_Node000002"><a xlink:title=" ">
<path fill="none" stroke="#63b8ff" d="M140.53,-19.37C132.1,-27.94 138.26,-37 159,-37 170.99,-37 178.11,-33.97 180.35,-29.76"/>
<polygon fill="#63b8ff" stroke="#63b8ff" points="183.52,-29.07 177.47,-20.37 176.77,-30.94 183.52,-29.07"/>
</a>
</g>
</g>
</g>
</svg>
