<?xml version="1.0" encoding="UTF-8" standalone="no"?>
<!DOCTYPE svg PUBLIC "-//W3C//DTD SVG 1.1//EN"
 "http://www.w3.org/Graphics/SVG/1.1/DTD/svg11.dtd">
<!-- Generated by graphviz version 8.0.2 (20230410.1723)
 -->
<!-- Title: arch_clock_get_current_microseconds Pages: 1 -->
<svg width="322pt" height="56pt"
 viewBox="0.00 0.00 322.00 56.00" xmlns="http://www.w3.org/2000/svg" xmlns:xlink="http://www.w3.org/1999/xlink">
<g id="graph0" class="graph" transform="scale(1 1) rotate(0) translate(4 52)">
<title>arch_clock_get_current_microseconds</title>
<!-- Node1 -->
<g id="Node000001" class="node">
<title>Node1</title>
<g id="a_Node000001"><a xlink:title=" ">
<polygon fill="#999999" stroke="#666666" points="314,-30 196,-30 196,0 314,0 314,-30"/>
<text text-anchor="start" x="204" y="-18" font-family="Helvetica,sans-Serif" font-size="10.00">arch_clock_get_current</text>
<text text-anchor="middle" x="255" y="-7" font-family="Helvetica,sans-Serif" font-size="10.00">_microseconds</text>
</a>
</g>
</g>
<!-- Node1&#45;&gt;Node1 -->
<g id="edge1_Node000001_Node000001" class="edge">
<title>Node1&#45;&gt;Node1</title>
<g id="a_edge1_Node000001_Node000001"><a xlink:title=" ">
<path fill="none" stroke="#63b8ff" d="M285.29,-40.94C280.9,-45.13 270.81,-48 255,-48 227.66,-48 217.4,-39.41 224.24,-30.28"/>
<polygon fill="#63b8ff" stroke="#63b8ff" points="288.81,-41.42 285.76,-31.28 281.82,-41.11 288.81,-41.42"/>
</a>
</g>
</g>
<!-- Node2 -->
<g id="Node000002" class="node">
<title>Node2</title>
<g id="a_Node000002"><a xlink:href="clock_8c.html#add4ef47919811f366e7c7561c71088fb" target="_top" xlink:title=" ">
<polygon fill="white" stroke="#666666" points="160,-24.5 0,-24.5 0,-5.5 160,-5.5 160,-24.5"/>
<text text-anchor="middle" x="80" y="-12.5" font-family="Helvetica,sans-Serif" font-size="10.00">clock_get_current_microseconds</text>
</a>
</g>
</g>
<!-- Node1&#45;&gt;Node2 -->
<g id="edge2_Node000001_Node000002" class="edge">
<title>Node1&#45;&gt;Node2</title>
<g id="a_edge2_Node000001_Node000002"><a xlink:title=" ">
<path fill="none" stroke="#63b8ff" d="M185.05,-15C176.96,-15 168.67,-15 160.45,-15"/>
<polygon fill="#63b8ff" stroke="#63b8ff" points="184.91,-18.5 194.91,-15 184.91,-11.5 184.91,-18.5"/>
</a>
</g>
</g>
<!-- Node2&#45;&gt;Node2 -->
<g id="edge3_Node000002_Node000002" class="edge">
<title>Node2&#45;&gt;Node2</title>
<g id="a_edge3_Node000002_Node000002"><a xlink:title=" ">
<path fill="none" stroke="#63b8ff" d="M112.14,-34.57C109.46,-39.13 98.75,-42.5 80,-42.5 49.24,-42.5 40.11,-33.44 52.6,-24.87"/>
<polygon fill="#63b8ff" stroke="#63b8ff" points="114.94,-33.31 107.4,-25.87 108.65,-36.39 114.94,-33.31"/>
</a>
</g>
</g>
</g>
</svg>
