<?xml version="1.0" encoding="UTF-8" standalone="no"?>
<!DOCTYPE svg PUBLIC "-//W3C//DTD SVG 1.1//EN"
 "http://www.w3.org/Graphics/SVG/1.1/DTD/svg11.dtd">
<!-- Generated by graphviz version 9.0.0 (20230911.1827)
 -->
<!-- Title: include/kernel/arch/kernel.h Pages: 1 -->
<svg width="130pt" height="94pt"
 viewBox="0.00 0.00 130.00 93.75" xmlns="http://www.w3.org/2000/svg" xmlns:xlink="http://www.w3.org/1999/xlink">
<g id="graph0" class="graph" transform="scale(1 1) rotate(0) translate(4 89.75)">
<title>include/kernel/arch/kernel.h</title>
<!-- Node1 -->
<g id="Node000001" class="node">
<title>Node1</title>
<g id="a_Node000001"><a xlink:title=" ">
<polygon fill="#999999" stroke="#666666" points="111.75,-85.75 14,-85.75 14,-55.25 111.75,-55.25 111.75,-85.75"/>
<text text-anchor="start" x="22" y="-72.25" font-family="Helvetica,sans-Serif" font-size="10.00">include/kernel/arch</text>
<text text-anchor="middle" x="62.88" y="-61" font-family="Helvetica,sans-Serif" font-size="10.00">/kernel.h</text>
</a>
</g>
</g>
<!-- Node2 -->
<g id="Node000002" class="node">
<title>Node2</title>
<g id="a_Node000002"><a xlink:title=" ">
<polygon fill="#e0e0e0" stroke="#999999" points="55.75,-19.25 0,-19.25 0,0 55.75,0 55.75,-19.25"/>
<text text-anchor="middle" x="27.88" y="-5.75" font-family="Helvetica,sans-Serif" font-size="10.00">stdbool.h</text>
</a>
</g>
</g>
<!-- Node1&#45;&gt;Node2 -->
<g id="edge1_Node000001_Node000002" class="edge">
<title>Node1&#45;&gt;Node2</title>
<g id="a_edge1_Node000001_Node000002"><a xlink:title=" ">
<path fill="none" stroke="#63b8ff" d="M54.22,-54.95C49.66,-47.28 44.01,-37.77 39.12,-29.54"/>
<polygon fill="#63b8ff" stroke="#63b8ff" points="42.16,-27.81 34.04,-21 36.15,-31.39 42.16,-27.81"/>
</a>
</g>
</g>
<!-- Node3 -->
<g id="Node000003" class="node">
<title>Node3</title>
<g id="a_Node000003"><a xlink:title=" ">
<polygon fill="#e0e0e0" stroke="#999999" points="122,-19.25 73.75,-19.25 73.75,0 122,0 122,-19.25"/>
<text text-anchor="middle" x="97.88" y="-5.75" font-family="Helvetica,sans-Serif" font-size="10.00">stdint.h</text>
</a>
</g>
</g>
<!-- Node1&#45;&gt;Node3 -->
<g id="edge2_Node000001_Node000003" class="edge">
<title>Node1&#45;&gt;Node3</title>
<g id="a_edge2_Node000001_Node000003"><a xlink:title=" ">
<path fill="none" stroke="#63b8ff" d="M71.53,-54.95C76.09,-47.28 81.74,-37.77 86.63,-29.54"/>
<polygon fill="#63b8ff" stroke="#63b8ff" points="89.6,-31.39 91.71,-21 83.59,-27.81 89.6,-31.39"/>
</a>
</g>
</g>
</g>
</svg>
