<?xml version="1.0" encoding="UTF-8" standalone="no"?>
<!DOCTYPE svg PUBLIC "-//W3C//DTD SVG 1.1//EN"
 "http://www.w3.org/Graphics/SVG/1.1/DTD/svg11.dtd">
<!-- Generated by graphviz version 8.0.2 (20230410.1723)
 -->
<!-- Title: arch_clock_get_current_microseconds Pages: 1 -->
<svg width="808pt" height="56pt"
 viewBox="0.00 0.00 808.00 56.00" xmlns="http://www.w3.org/2000/svg" xmlns:xlink="http://www.w3.org/1999/xlink">
<g id="graph0" class="graph" transform="scale(1 1) rotate(0) translate(4 52)">
<title>arch_clock_get_current_microseconds</title>
<!-- Node1 -->
<g id="Node000001" class="node">
<title>Node1</title>
<g id="a_Node000001"><a xlink:title=" ">
<polygon fill="#999999" stroke="#666666" points="118,-30 0,-30 0,0 118,0 118,-30"/>
<text text-anchor="start" x="8" y="-18" font-family="Helvetica,sans-Serif" font-size="10.00">arch_clock_get_current</text>
<text text-anchor="middle" x="59" y="-7" font-family="Helvetica,sans-Serif" font-size="10.00">_microseconds</text>
</a>
</g>
</g>
<!-- Node1&#45;&gt;Node1 -->
<g id="edge1_Node000001_Node000001" class="edge">
<title>Node1&#45;&gt;Node1</title>
<g id="a_edge1_Node000001_Node000001"><a xlink:title=" ">
<path fill="none" stroke="#63b8ff" d="M31.93,-30.28C25.91,-39.41 34.94,-48 59,-48 72.91,-48 81.8,-45.13 85.65,-40.94"/>
<polygon fill="#63b8ff" stroke="#63b8ff" points="89.18,-41.4 86.07,-31.28 82.18,-41.13 89.18,-41.4"/>
</a>
</g>
</g>
<!-- Node2 -->
<g id="Node000002" class="node">
<title>Node2</title>
<g id="a_Node000002"><a xlink:href="fake__clock_8c.html#ab4458e5c11135bbbaec3b6f2ee47e9d6" target="_top" xlink:title=" ">
<polygon fill="white" stroke="#666666" points="272,-30 154,-30 154,0 272,0 272,-30"/>
<text text-anchor="start" x="162" y="-18" font-family="Helvetica,sans-Serif" font-size="10.00">fake_clock_get_current</text>
<text text-anchor="middle" x="213" y="-7" font-family="Helvetica,sans-Serif" font-size="10.00">_microseconds</text>
</a>
</g>
</g>
<!-- Node1&#45;&gt;Node2 -->
<g id="edge2_Node000001_Node000002" class="edge">
<title>Node1&#45;&gt;Node2</title>
<g id="a_edge2_Node000001_Node000002"><a xlink:title=" ">
<path fill="none" stroke="#63b8ff" d="M118.33,-15C126.28,-15 134.49,-15 142.61,-15"/>
<polygon fill="#63b8ff" stroke="#63b8ff" points="142.57,-18.5 152.57,-15 142.57,-11.5 142.57,-18.5"/>
</a>
</g>
</g>
<!-- Node2&#45;&gt;Node2 -->
<g id="edge3_Node000002_Node000002" class="edge">
<title>Node2&#45;&gt;Node2</title>
<g id="a_edge3_Node000002_Node000002"><a xlink:title=" ">
<path fill="none" stroke="#63b8ff" d="M185.93,-30.28C179.91,-39.41 188.94,-48 213,-48 226.91,-48 235.8,-45.13 239.65,-40.94"/>
<polygon fill="#63b8ff" stroke="#63b8ff" points="243.18,-41.4 240.07,-31.28 236.18,-41.13 243.18,-41.4"/>
</a>
</g>
</g>
<!-- Node3 -->
<g id="Node000003" class="node">
<title>Node3</title>
<g id="a_Node000003"><a xlink:href="timer_8c.html#a9e237401e78bbceb0c0070ef2ecb4569" target="_top" xlink:title=" ">
<polygon fill="white" stroke="#666666" points="447,-24.5 308,-24.5 308,-5.5 447,-5.5 447,-24.5"/>
<text text-anchor="middle" x="377.5" y="-12.5" font-family="Helvetica,sans-Serif" font-size="10.00">timer_uptime_microseconds</text>
</a>
</g>
</g>
<!-- Node2&#45;&gt;Node3 -->
<g id="edge4_Node000002_Node000003" class="edge">
<title>Node2&#45;&gt;Node3</title>
<g id="a_edge4_Node000002_Node000003"><a xlink:title=" ">
<path fill="none" stroke="#63b8ff" d="M272.21,-15C280.19,-15 288.49,-15 296.77,-15"/>
<polygon fill="#63b8ff" stroke="#63b8ff" points="296.61,-18.5 306.61,-15 296.61,-11.5 296.61,-18.5"/>
</a>
</g>
</g>
<!-- Node3&#45;&gt;Node3 -->
<g id="edge9_Node000003_Node000003" class="edge">
<title>Node3&#45;&gt;Node3</title>
<g id="a_edge9_Node000003_Node000003"><a xlink:title=" ">
<path fill="none" stroke="#63b8ff" d="M351.75,-24.87C340,-33.44 348.58,-42.5 377.5,-42.5 394.67,-42.5 404.67,-39.3 407.5,-34.92"/>
<polygon fill="#63b8ff" stroke="#63b8ff" points="410.37,-33.71 403.25,-25.87 403.93,-36.44 410.37,-33.71"/>
</a>
</g>
</g>
<!-- Node4 -->
<g id="Node000004" class="node">
<title>Node4</title>
<g id="a_Node000004"><a xlink:href="kernel_2arch_2x86__64_2arch_2time_8c.html#af8e08f88e4ec6768891cfce52318c3d3" target="_top" xlink:title=" ">
<polygon fill="white" stroke="#666666" points="646,-24.5 483,-24.5 483,-5.5 646,-5.5 646,-24.5"/>
<text text-anchor="middle" x="564.5" y="-12.5" font-family="Helvetica,sans-Serif" font-size="10.00">arch_timer_uptime_microseconds</text>
</a>
</g>
</g>
<!-- Node3&#45;&gt;Node4 -->
<g id="edge5_Node000003_Node000004" class="edge">
<title>Node3&#45;&gt;Node4</title>
<g id="a_edge5_Node000003_Node000004"><a xlink:title=" ">
<path fill="none" stroke="#63b8ff" d="M447.39,-15C455.39,-15 463.64,-15 471.88,-15"/>
<polygon fill="#63b8ff" stroke="#63b8ff" points="471.69,-18.5 481.69,-15 471.69,-11.5 471.69,-18.5"/>
</a>
</g>
</g>
<!-- Node4&#45;&gt;Node4 -->
<g id="edge6_Node000004_Node000004" class="edge">
<title>Node4&#45;&gt;Node4</title>
<g id="a_edge6_Node000004_Node000004"><a xlink:title=" ">
<path fill="none" stroke="#63b8ff" d="M536.87,-24.87C524.26,-33.44 533.47,-42.5 564.5,-42.5 583.41,-42.5 594.21,-39.13 596.92,-34.57"/>
<polygon fill="#63b8ff" stroke="#63b8ff" points="599.7,-33.29 592.13,-25.87 593.42,-36.38 599.7,-33.29"/>
</a>
</g>
</g>
<!-- Node5 -->
<g id="Node000005" class="node">
<title>Node5</title>
<g id="a_Node000005"><a xlink:href="bcm2835__timer_8c.html#aa5e375169036beb10f6778afb7eddecd" target="_top" xlink:title=" ">
<polygon fill="white" stroke="#666666" points="800,-30 682,-30 682,0 800,0 800,-30"/>
<text text-anchor="start" x="690" y="-18" font-family="Helvetica,sans-Serif" font-size="10.00">bcm2835_timer_uptime</text>
<text text-anchor="middle" x="741" y="-7" font-family="Helvetica,sans-Serif" font-size="10.00">_microseconds</text>
</a>
</g>
</g>
<!-- Node4&#45;&gt;Node5 -->
<g id="edge7_Node000004_Node000005" class="edge">
<title>Node4&#45;&gt;Node5</title>
<g id="a_edge7_Node000004_Node000005"><a xlink:title=" ">
<path fill="none" stroke="#63b8ff" d="M646.36,-15C654.52,-15 662.74,-15 670.76,-15"/>
<polygon fill="#63b8ff" stroke="#63b8ff" points="670.53,-18.5 680.53,-15 670.53,-11.5 670.53,-18.5"/>
</a>
</g>
</g>
<!-- Node5&#45;&gt;Node5 -->
<g id="edge8_Node000005_Node000005" class="edge">
<title>Node5&#45;&gt;Node5</title>
<g id="a_edge8_Node000005_Node000005"><a xlink:title=" ">
<path fill="none" stroke="#63b8ff" d="M709.97,-30.28C703.08,-39.41 713.42,-48 741,-48 756.94,-48 767.13,-45.13 771.55,-40.94"/>
<polygon fill="#63b8ff" stroke="#63b8ff" points="775.07,-41.42 772.03,-31.28 768.08,-41.11 775.07,-41.42"/>
</a>
</g>
</g>
</g>
</svg>
