<?xml version="1.0" encoding="UTF-8" standalone="no"?>
<!DOCTYPE svg PUBLIC "-//W3C//DTD SVG 1.1//EN"
 "http://www.w3.org/Graphics/SVG/1.1/DTD/svg11.dtd">
<!-- Generated by graphviz version 2.50.0 (20211204.2007)
 -->
<!-- Title: include/libc/sys/time.h Pages: 1 -->
<svg width="361pt" height="151pt"
 viewBox="0.00 0.00 361.00 151.00" xmlns="http://www.w3.org/2000/svg" xmlns:xlink="http://www.w3.org/1999/xlink">
<g id="graph0" class="graph" transform="scale(1 1) rotate(0) translate(4 147)">
<title>include/libc/sys/time.h</title>
<!-- Node1 -->
<g id="node1" class="node">
<title>Node1</title>
<g id="a_node1"><a xlink:title=" ">
<polygon fill="#bfbfbf" stroke="black" points="119.5,-123.5 119.5,-142.5 233.5,-142.5 233.5,-123.5 119.5,-123.5"/>
<text text-anchor="middle" x="176.5" y="-130.5" font-family="Helvetica,sans-Serif" font-size="10.00">include/libc/sys/time.h</text>
</a>
</g>
</g>
<!-- Node2 -->
<g id="node2" class="node">
<title>Node2</title>
<g id="a_node2"><a xlink:href="k__syscall_8h.html" target="_top" xlink:title=" ">
<polygon fill="none" stroke="black" points="0,-56.5 0,-86.5 95,-86.5 95,-56.5 0,-56.5"/>
<text text-anchor="start" x="8" y="-74.5" font-family="Helvetica,sans-Serif" font-size="10.00">include/kernel/sys</text>
<text text-anchor="middle" x="47.5" y="-63.5" font-family="Helvetica,sans-Serif" font-size="10.00">/k_syscall.h</text>
</a>
</g>
</g>
<!-- Node1&#45;&gt;Node2 -->
<g id="edge1" class="edge">
<title>Node1&#45;&gt;Node2</title>
<path fill="none" stroke="midnightblue" d="M148.75,-119.2C127.9,-109.58 99.37,-96.42 77.9,-86.52"/>
<polygon fill="midnightblue" stroke="midnightblue" points="147.47,-122.46 158.02,-123.48 150.4,-116.11 147.47,-122.46"/>
</g>
<!-- Node3 -->
<g id="node3" class="node">
<title>Node3</title>
<g id="a_node3"><a xlink:href="syscall_8h.html" target="_top" xlink:title=" ">
<polygon fill="none" stroke="black" points="113.5,-62 113.5,-81 239.5,-81 239.5,-62 113.5,-62"/>
<text text-anchor="middle" x="176.5" y="-69" font-family="Helvetica,sans-Serif" font-size="10.00">include/libc/sys/syscall.h</text>
</a>
</g>
</g>
<!-- Node1&#45;&gt;Node3 -->
<g id="edge2" class="edge">
<title>Node1&#45;&gt;Node3</title>
<path fill="none" stroke="midnightblue" d="M176.5,-113.32C176.5,-102.5 176.5,-89.4 176.5,-81.01"/>
<polygon fill="midnightblue" stroke="midnightblue" points="173,-113.48 176.5,-123.48 180,-113.48 173,-113.48"/>
</g>
<!-- Node5 -->
<g id="node5" class="node">
<title>Node5</title>
<g id="a_node5"><a xlink:href="libc_2time_8h.html" target="_top" xlink:title=" ">
<polygon fill="none" stroke="black" points="258,-62 258,-81 353,-81 353,-62 258,-62"/>
<text text-anchor="middle" x="305.5" y="-69" font-family="Helvetica,sans-Serif" font-size="10.00">include/libc/time.h</text>
</a>
</g>
</g>
<!-- Node1&#45;&gt;Node5 -->
<g id="edge4" class="edge">
<title>Node1&#45;&gt;Node5</title>
<path fill="none" stroke="midnightblue" d="M204.31,-119.17C229.34,-107.63 265.42,-90.99 287.05,-81.01"/>
<polygon fill="midnightblue" stroke="midnightblue" points="202.6,-116.11 194.98,-123.48 205.53,-122.46 202.6,-116.11"/>
</g>
<!-- Node4 -->
<g id="node4" class="node">
<title>Node4</title>
<g id="a_node4"><a xlink:href="unistd_8h.html" target="_top" xlink:title=" ">
<polygon fill="none" stroke="black" points="125,-0.5 125,-19.5 228,-19.5 228,-0.5 125,-0.5"/>
<text text-anchor="middle" x="176.5" y="-7.5" font-family="Helvetica,sans-Serif" font-size="10.00">include/libc/unistd.h</text>
</a>
</g>
</g>
<!-- Node3&#45;&gt;Node4 -->
<g id="edge3" class="edge">
<title>Node3&#45;&gt;Node4</title>
<path fill="none" stroke="midnightblue" d="M176.5,-51.82C176.5,-41 176.5,-27.9 176.5,-19.51"/>
<polygon fill="midnightblue" stroke="midnightblue" points="173,-51.98 176.5,-61.98 180,-51.98 173,-51.98"/>
</g>
</g>
</svg>
