<?xml version="1.0" encoding="UTF-8" standalone="no"?>
<!DOCTYPE svg PUBLIC "-//W3C//DTD SVG 1.1//EN"
 "http://www.w3.org/Graphics/SVG/1.1/DTD/svg11.dtd">
<!-- Generated by graphviz version 9.0.0 (20230911.1827)
 -->
<!-- Title: include/libc/time.h Pages: 1 -->
<svg width="200pt" height="193pt"
 viewBox="0.00 0.00 199.75 193.00" xmlns="http://www.w3.org/2000/svg" xmlns:xlink="http://www.w3.org/1999/xlink">
<g id="graph0" class="graph" transform="scale(1 1) rotate(0) translate(4 189)">
<title>include/libc/time.h</title>
<!-- Node1 -->
<g id="Node000001" class="node">
<title>Node1</title>
<g id="a_Node000001"><a xlink:title=" ">
<polygon fill="#999999" stroke="#666666" points="132,-185 37.25,-185 37.25,-165.75 132,-165.75 132,-185"/>
<text text-anchor="middle" x="84.62" y="-171.5" font-family="Helvetica,sans-Serif" font-size="10.00">include/libc/time.h</text>
</a>
</g>
</g>
<!-- Node2 -->
<g id="Node000002" class="node">
<title>Node2</title>
<g id="a_Node000002"><a xlink:title=" ">
<polygon fill="#e0e0e0" stroke="#999999" points="51.25,-19.25 0,-19.25 0,0 51.25,0 51.25,-19.25"/>
<text text-anchor="middle" x="25.62" y="-5.75" font-family="Helvetica,sans-Serif" font-size="10.00">stddef.h</text>
</a>
</g>
</g>
<!-- Node1&#45;&gt;Node2 -->
<g id="edge1_Node000001_Node000002" class="edge">
<title>Node1&#45;&gt;Node2</title>
<g id="a_edge1_Node000001_Node000002"><a xlink:title=" ">
<path fill="none" stroke="#63b8ff" d="M73.55,-165.33C64.25,-157.08 51.43,-144.03 44.62,-129.75 29.28,-97.53 25.95,-55.43 25.43,-30.88"/>
<polygon fill="#63b8ff" stroke="#63b8ff" points="28.93,-30.99 25.38,-21.01 21.93,-31.03 28.93,-30.99"/>
</a>
</g>
</g>
<!-- Node3 -->
<g id="Node000003" class="node">
<title>Node3</title>
<g id="a_Node000003"><a xlink:href="libc_2sys_2time_8h.html" target="_top" xlink:title=" ">
<polygon fill="white" stroke="#666666" points="115.5,-129.75 53.75,-129.75 53.75,-110.5 115.5,-110.5 115.5,-129.75"/>
<text text-anchor="middle" x="84.62" y="-116.25" font-family="Helvetica,sans-Serif" font-size="10.00">sys/time.h</text>
</a>
</g>
</g>
<!-- Node1&#45;&gt;Node3 -->
<g id="edge2_Node000001_Node000003" class="edge">
<title>Node1&#45;&gt;Node3</title>
<g id="a_edge2_Node000001_Node000003"><a xlink:title=" ">
<path fill="none" stroke="#63b8ff" d="M84.62,-165.58C84.62,-159.07 84.62,-149.92 84.62,-141.62"/>
<polygon fill="#63b8ff" stroke="#63b8ff" points="88.13,-141.62 84.63,-131.62 81.13,-141.62 88.13,-141.62"/>
</a>
</g>
</g>
<!-- Node4 -->
<g id="Node000004" class="node">
<title>Node4</title>
<g id="a_Node000004"><a xlink:href="types_8h.html" target="_top" xlink:title=" ">
<polygon fill="white" stroke="#666666" points="131.12,-74.5 64.12,-74.5 64.12,-55.25 131.12,-55.25 131.12,-74.5"/>
<text text-anchor="middle" x="97.62" y="-61" font-family="Helvetica,sans-Serif" font-size="10.00">sys/types.h</text>
</a>
</g>
</g>
<!-- Node1&#45;&gt;Node4 -->
<g id="edge7_Node000001_Node000004" class="edge">
<title>Node1&#45;&gt;Node4</title>
<g id="a_edge7_Node000001_Node000004"><a xlink:title=" ">
<path fill="none" stroke="#63b8ff" d="M96.65,-165.26C106.27,-157.14 119.05,-144.33 124.62,-129.75 130.6,-114.13 122.15,-96.66 113.16,-83.95"/>
<polygon fill="#63b8ff" stroke="#63b8ff" points="115.94,-81.82 107.04,-76.09 110.42,-86.12 115.94,-81.82"/>
</a>
</g>
</g>
<!-- Node3&#45;&gt;Node4 -->
<g id="edge3_Node000003_Node000004" class="edge">
<title>Node3&#45;&gt;Node4</title>
<g id="a_edge3_Node000003_Node000004"><a xlink:title=" ">
<path fill="none" stroke="#63b8ff" d="M86.77,-110.33C88.4,-103.67 90.7,-94.24 92.77,-85.78"/>
<polygon fill="#63b8ff" stroke="#63b8ff" points="96.1,-86.87 95.07,-76.33 89.3,-85.21 96.1,-86.87"/>
</a>
</g>
</g>
<!-- Node4&#45;&gt;Node2 -->
<g id="edge5_Node000004_Node000002" class="edge">
<title>Node4&#45;&gt;Node2</title>
<g id="a_edge5_Node000004_Node000002"><a xlink:title=" ">
<path fill="none" stroke="#63b8ff" d="M85.41,-54.84C74.8,-46.99 59.19,-35.45 46.58,-26.12"/>
<polygon fill="#63b8ff" stroke="#63b8ff" points="49,-23.56 38.88,-20.42 44.83,-29.19 49,-23.56"/>
</a>
</g>
</g>
<!-- Node5 -->
<g id="Node000005" class="node">
<title>Node5</title>
<g id="a_Node000005"><a xlink:title=" ">
<polygon fill="#e0e0e0" stroke="#999999" points="125.5,-19.25 69.75,-19.25 69.75,0 125.5,0 125.5,-19.25"/>
<text text-anchor="middle" x="97.62" y="-5.75" font-family="Helvetica,sans-Serif" font-size="10.00">stdbool.h</text>
</a>
</g>
</g>
<!-- Node4&#45;&gt;Node5 -->
<g id="edge4_Node000004_Node000005" class="edge">
<title>Node4&#45;&gt;Node5</title>
<g id="a_edge4_Node000004_Node000005"><a xlink:title=" ">
<path fill="none" stroke="#63b8ff" d="M97.62,-55.08C97.62,-48.57 97.62,-39.42 97.62,-31.12"/>
<polygon fill="#63b8ff" stroke="#63b8ff" points="101.13,-31.12 97.63,-21.12 94.13,-31.12 101.13,-31.12"/>
</a>
</g>
</g>
<!-- Node6 -->
<g id="Node000006" class="node">
<title>Node6</title>
<g id="a_Node000006"><a xlink:title=" ">
<polygon fill="#e0e0e0" stroke="#999999" points="191.75,-19.25 143.5,-19.25 143.5,0 191.75,0 191.75,-19.25"/>
<text text-anchor="middle" x="167.62" y="-5.75" font-family="Helvetica,sans-Serif" font-size="10.00">stdint.h</text>
</a>
</g>
</g>
<!-- Node4&#45;&gt;Node6 -->
<g id="edge6_Node000004_Node000006" class="edge">
<title>Node4&#45;&gt;Node6</title>
<g id="a_edge6_Node000004_Node000006"><a xlink:title=" ">
<path fill="none" stroke="#63b8ff" d="M109.5,-54.84C119.72,-47.07 134.7,-35.67 146.89,-26.4"/>
<polygon fill="#63b8ff" stroke="#63b8ff" points="148.88,-29.28 154.72,-20.44 144.64,-23.71 148.88,-29.28"/>
</a>
</g>
</g>
</g>
</svg>
