<?xml version="1.0" encoding="UTF-8" standalone="no"?>
<!DOCTYPE svg PUBLIC "-//W3C//DTD SVG 1.1//EN"
 "http://www.w3.org/Graphics/SVG/1.1/DTD/svg11.dtd">
<!-- Generated by graphviz version 2.49.3 (20211023.0002)
 -->
<!-- Title: include/libc/time.h Pages: 1 -->
<svg width="203pt" height="196pt"
 viewBox="0.00 0.00 202.50 196.00" xmlns="http://www.w3.org/2000/svg" xmlns:xlink="http://www.w3.org/1999/xlink">
<g id="graph0" class="graph" transform="scale(1 1) rotate(0) translate(4 192)">
<title>include/libc/time.h</title>
<!-- Node1 -->
<g id="node1" class="node">
<title>Node1</title>
<g id="a_node1"><a xlink:title=" ">
<polygon fill="#bfbfbf" stroke="black" points="37,-168.5 37,-187.5 133,-187.5 133,-168.5 37,-168.5"/>
<text text-anchor="middle" x="85" y="-175.5" font-family="Helvetica,sans-Serif" font-size="10.00">include/libc/time.h</text>
</a>
</g>
</g>
<!-- Node2 -->
<g id="node2" class="node">
<title>Node2</title>
<g id="a_node2"><a xlink:title=" ">
<polygon fill="none" stroke="#bfbfbf" points="0,-0.5 0,-19.5 52,-19.5 52,-0.5 0,-0.5"/>
<text text-anchor="middle" x="26" y="-7.5" font-family="Helvetica,sans-Serif" font-size="10.00">stddef.h</text>
</a>
</g>
</g>
<!-- Node1&#45;&gt;Node2 -->
<g id="edge1" class="edge">
<title>Node1&#45;&gt;Node2</title>
<path fill="none" stroke="midnightblue" d="M74.28,-168.19C64.95,-159.88 51.87,-146.56 45,-132 29.17,-98.47 26.09,-54.47 25.73,-29.83"/>
<polygon fill="midnightblue" stroke="midnightblue" points="29.23,-29.69 25.73,-19.7 22.23,-29.7 29.23,-29.69"/>
</g>
<!-- Node3 -->
<g id="node3" class="node">
<title>Node3</title>
<g id="a_node3"><a xlink:href="libc_2sys_2time_8h.html" target="_top" xlink:title=" ">
<polygon fill="none" stroke="black" points="54,-112.5 54,-131.5 116,-131.5 116,-112.5 54,-112.5"/>
<text text-anchor="middle" x="85" y="-119.5" font-family="Helvetica,sans-Serif" font-size="10.00">sys/time.h</text>
</a>
</g>
</g>
<!-- Node1&#45;&gt;Node3 -->
<g id="edge2" class="edge">
<title>Node1&#45;&gt;Node3</title>
<path fill="none" stroke="midnightblue" d="M85,-168.08C85,-161.01 85,-150.86 85,-141.99"/>
<polygon fill="midnightblue" stroke="midnightblue" points="88.5,-141.75 85,-131.75 81.5,-141.75 88.5,-141.75"/>
</g>
<!-- Node4 -->
<g id="node4" class="node">
<title>Node4</title>
<g id="a_node4"><a xlink:href="types_8h.html" target="_top" xlink:title=" ">
<polygon fill="none" stroke="black" points="65.5,-56.5 65.5,-75.5 132.5,-75.5 132.5,-56.5 65.5,-56.5"/>
<text text-anchor="middle" x="99" y="-63.5" font-family="Helvetica,sans-Serif" font-size="10.00">sys/types.h</text>
</a>
</g>
</g>
<!-- Node1&#45;&gt;Node4 -->
<g id="edge7" class="edge">
<title>Node1&#45;&gt;Node4</title>
<path fill="none" stroke="midnightblue" d="M96.27,-168.43C105.97,-160.27 119.28,-147.05 125,-132 131.25,-115.57 122.14,-96.96 113.03,-83.87"/>
<polygon fill="midnightblue" stroke="midnightblue" points="115.74,-81.65 106.91,-75.79 110.16,-85.88 115.74,-81.65"/>
</g>
<!-- Node3&#45;&gt;Node4 -->
<g id="edge3" class="edge">
<title>Node3&#45;&gt;Node4</title>
<path fill="none" stroke="midnightblue" d="M87.31,-112.08C89.17,-104.93 91.84,-94.64 94.15,-85.69"/>
<polygon fill="midnightblue" stroke="midnightblue" points="97.61,-86.31 96.73,-75.75 90.83,-84.55 97.61,-86.31"/>
</g>
<!-- Node4&#45;&gt;Node2 -->
<g id="edge5" class="edge">
<title>Node4&#45;&gt;Node2</title>
<path fill="none" stroke="midnightblue" d="M87.27,-56.32C76.16,-48.11 59.26,-35.6 46.02,-25.81"/>
<polygon fill="midnightblue" stroke="midnightblue" points="48.06,-22.97 37.94,-19.83 43.9,-28.59 48.06,-22.97"/>
</g>
<!-- Node5 -->
<g id="node5" class="node">
<title>Node5</title>
<g id="a_node5"><a xlink:title=" ">
<polygon fill="none" stroke="#bfbfbf" points="70.5,-0.5 70.5,-19.5 127.5,-19.5 127.5,-0.5 70.5,-0.5"/>
<text text-anchor="middle" x="99" y="-7.5" font-family="Helvetica,sans-Serif" font-size="10.00">stdbool.h</text>
</a>
</g>
</g>
<!-- Node4&#45;&gt;Node5 -->
<g id="edge4" class="edge">
<title>Node4&#45;&gt;Node5</title>
<path fill="none" stroke="midnightblue" d="M99,-56.08C99,-49.01 99,-38.86 99,-29.99"/>
<polygon fill="midnightblue" stroke="midnightblue" points="102.5,-29.75 99,-19.75 95.5,-29.75 102.5,-29.75"/>
</g>
<!-- Node6 -->
<g id="node6" class="node">
<title>Node6</title>
<g id="a_node6"><a xlink:title=" ">
<polygon fill="none" stroke="#bfbfbf" points="145.5,-0.5 145.5,-19.5 194.5,-19.5 194.5,-0.5 145.5,-0.5"/>
<text text-anchor="middle" x="170" y="-7.5" font-family="Helvetica,sans-Serif" font-size="10.00">stdint.h</text>
</a>
</g>
</g>
<!-- Node4&#45;&gt;Node6 -->
<g id="edge6" class="edge">
<title>Node4&#45;&gt;Node6</title>
<path fill="none" stroke="midnightblue" d="M110.41,-56.32C121.11,-48.18 137.34,-35.84 150.16,-26.09"/>
<polygon fill="midnightblue" stroke="midnightblue" points="152.54,-28.67 158.39,-19.83 148.31,-23.1 152.54,-28.67"/>
</g>
</g>
</svg>
