<?xml version="1.0" encoding="UTF-8" standalone="no"?>
<!DOCTYPE svg PUBLIC "-//W3C//DTD SVG 1.1//EN"
 "http://www.w3.org/Graphics/SVG/1.1/DTD/svg11.dtd">
<!-- Generated by graphviz version 9.0.0 (20230911.1827)
 -->
<!-- Title: include/libc/sys/time.h Pages: 1 -->
<svg width="359pt" height="149pt"
 viewBox="0.00 0.00 358.75 149.00" xmlns="http://www.w3.org/2000/svg" xmlns:xlink="http://www.w3.org/1999/xlink">
<g id="graph0" class="graph" transform="scale(1 1) rotate(0) translate(4 145)">
<title>include/libc/sys/time.h</title>
<!-- Node1 -->
<g id="Node000001" class="node">
<title>Node1</title>
<g id="a_Node000001"><a xlink:title=" ">
<polygon fill="#999999" stroke="#666666" points="232.12,-141 118.62,-141 118.62,-121.75 232.12,-121.75 232.12,-141"/>
<text text-anchor="middle" x="175.38" y="-127.5" font-family="Helvetica,sans-Serif" font-size="10.00">include/libc/sys/time.h</text>
</a>
</g>
</g>
<!-- Node2 -->
<g id="Node000002" class="node">
<title>Node2</title>
<g id="a_Node000002"><a xlink:href="k__syscall_8h.html" target="_top" xlink:title=" ">
<polygon fill="white" stroke="#666666" points="94.75,-85.75 0,-85.75 0,-55.25 94.75,-55.25 94.75,-85.75"/>
<text text-anchor="start" x="8" y="-72.25" font-family="Helvetica,sans-Serif" font-size="10.00">include/kernel/sys</text>
<text text-anchor="middle" x="47.38" y="-61" font-family="Helvetica,sans-Serif" font-size="10.00">/k_syscall.h</text>
</a>
</g>
</g>
<!-- Node1&#45;&gt;Node2 -->
<g id="edge1_Node000001_Node000002" class="edge">
<title>Node1&#45;&gt;Node2</title>
<g id="a_edge1_Node000001_Node000002"><a xlink:title=" ">
<path fill="none" stroke="#63b8ff" d="M145.34,-116.56C125.5,-107.44 99.54,-95.49 79.32,-86.19"/>
<polygon fill="#63b8ff" stroke="#63b8ff" points="143.73,-119.67 154.28,-120.67 146.66,-113.31 143.73,-119.67"/>
</a>
</g>
</g>
<!-- Node3 -->
<g id="Node000003" class="node">
<title>Node3</title>
<g id="a_Node000003"><a xlink:href="syscall_8h.html" target="_top" xlink:title=" ">
<polygon fill="white" stroke="#666666" points="238.12,-80.12 112.62,-80.12 112.62,-60.88 238.12,-60.88 238.12,-80.12"/>
<text text-anchor="middle" x="175.38" y="-66.62" font-family="Helvetica,sans-Serif" font-size="10.00">include/libc/sys/syscall.h</text>
</a>
</g>
</g>
<!-- Node1&#45;&gt;Node3 -->
<g id="edge2_Node000001_Node000003" class="edge">
<title>Node1&#45;&gt;Node3</title>
<g id="a_edge2_Node000001_Node000003"><a xlink:title=" ">
<path fill="none" stroke="#63b8ff" d="M175.38,-109.95C175.38,-99.92 175.38,-88.33 175.38,-80.53"/>
<polygon fill="#63b8ff" stroke="#63b8ff" points="171.88,-109.92 175.38,-119.92 178.88,-109.92 171.88,-109.92"/>
</a>
</g>
</g>
<!-- Node5 -->
<g id="Node000005" class="node">
<title>Node5</title>
<g id="a_Node000005"><a xlink:href="libc_2time_8h.html" target="_top" xlink:title=" ">
<polygon fill="white" stroke="#666666" points="350.75,-80.12 256,-80.12 256,-60.88 350.75,-60.88 350.75,-80.12"/>
<text text-anchor="middle" x="303.38" y="-66.62" font-family="Helvetica,sans-Serif" font-size="10.00">include/libc/time.h</text>
</a>
</g>
</g>
<!-- Node1&#45;&gt;Node5 -->
<g id="edge4_Node000001_Node000005" class="edge">
<title>Node1&#45;&gt;Node5</title>
<g id="a_edge4_Node000001_Node000005"><a xlink:title=" ">
<path fill="none" stroke="#63b8ff" d="M205.5,-116.52C229.71,-105.38 263,-90.07 283.84,-80.48"/>
<polygon fill="#63b8ff" stroke="#63b8ff" points="204.09,-113.31 196.47,-120.67 207.02,-119.67 204.09,-113.31"/>
</a>
</g>
</g>
<!-- Node4 -->
<g id="Node000004" class="node">
<title>Node4</title>
<g id="a_Node000004"><a xlink:href="unistd_8h.html" target="_top" xlink:title=" ">
<polygon fill="white" stroke="#666666" points="226.5,-19.25 124.25,-19.25 124.25,0 226.5,0 226.5,-19.25"/>
<text text-anchor="middle" x="175.38" y="-5.75" font-family="Helvetica,sans-Serif" font-size="10.00">include/libc/unistd.h</text>
</a>
</g>
</g>
<!-- Node3&#45;&gt;Node4 -->
<g id="edge3_Node000003_Node000004" class="edge">
<title>Node3&#45;&gt;Node4</title>
<g id="a_edge3_Node000003_Node000004"><a xlink:title=" ">
<path fill="none" stroke="#63b8ff" d="M175.38,-49.07C175.38,-39.04 175.38,-27.46 175.38,-19.65"/>
<polygon fill="#63b8ff" stroke="#63b8ff" points="171.88,-49.04 175.38,-59.04 178.88,-49.04 171.88,-49.04"/>
</a>
</g>
</g>
</g>
</svg>
