<?xml version="1.0" encoding="UTF-8" standalone="no"?>
<!DOCTYPE svg PUBLIC "-//W3C//DTD SVG 1.1//EN"
 "http://www.w3.org/Graphics/SVG/1.1/DTD/svg11.dtd">
<!-- Generated by graphviz version 8.0.2 (20230410.1723)
 -->
<!-- Title: include/libc/sys/time.h Pages: 1 -->
<svg width="361pt" height="148pt"
 viewBox="0.00 0.00 361.00 148.00" xmlns="http://www.w3.org/2000/svg" xmlns:xlink="http://www.w3.org/1999/xlink">
<g id="graph0" class="graph" transform="scale(1 1) rotate(0) translate(4 144)">
<title>include/libc/sys/time.h</title>
<!-- Node1 -->
<g id="Node000001" class="node">
<title>Node1</title>
<g id="a_Node000001"><a xlink:title=" ">
<polygon fill="#999999" stroke="#666666" points="233.5,-140 119.5,-140 119.5,-121 233.5,-121 233.5,-140"/>
<text text-anchor="middle" x="176.5" y="-128" font-family="Helvetica,sans-Serif" font-size="10.00">include/libc/sys/time.h</text>
</a>
</g>
</g>
<!-- Node2 -->
<g id="Node000002" class="node">
<title>Node2</title>
<g id="a_Node000002"><a xlink:href="k__syscall_8h.html" target="_top" xlink:title=" ">
<polygon fill="white" stroke="#666666" points="95,-85 0,-85 0,-55 95,-55 95,-85"/>
<text text-anchor="start" x="8" y="-73" font-family="Helvetica,sans-Serif" font-size="10.00">include/kernel/sys</text>
<text text-anchor="middle" x="47.5" y="-62" font-family="Helvetica,sans-Serif" font-size="10.00">/k_syscall.h</text>
</a>
</g>
</g>
<!-- Node1&#45;&gt;Node2 -->
<g id="edge1_Node000001_Node000002" class="edge">
<title>Node1&#45;&gt;Node2</title>
<g id="a_edge1_Node000001_Node000002"><a xlink:title=" ">
<path fill="none" stroke="#63b8ff" d="M147.01,-116.13C126.81,-106.96 100.03,-94.82 79.34,-85.44"/>
<polygon fill="#63b8ff" stroke="#63b8ff" points="145.35,-119.67 155.91,-120.62 148.25,-113.3 145.35,-119.67"/>
</a>
</g>
</g>
<!-- Node3 -->
<g id="Node000003" class="node">
<title>Node3</title>
<g id="a_Node000003"><a xlink:href="syscall_8h.html" target="_top" xlink:title=" ">
<polygon fill="white" stroke="#666666" points="239.5,-79.5 113.5,-79.5 113.5,-60.5 239.5,-60.5 239.5,-79.5"/>
<text text-anchor="middle" x="176.5" y="-67.5" font-family="Helvetica,sans-Serif" font-size="10.00">include/libc/sys/syscall.h</text>
</a>
</g>
</g>
<!-- Node1&#45;&gt;Node3 -->
<g id="edge2_Node000001_Node000003" class="edge">
<title>Node1&#45;&gt;Node3</title>
<g id="a_edge2_Node000001_Node000003"><a xlink:title=" ">
<path fill="none" stroke="#63b8ff" d="M176.5,-109.99C176.5,-99.72 176.5,-87.63 176.5,-79.67"/>
<polygon fill="#63b8ff" stroke="#63b8ff" points="173,-109.87 176.5,-119.87 180,-109.87 173,-109.87"/>
</a>
</g>
</g>
<!-- Node5 -->
<g id="Node000005" class="node">
<title>Node5</title>
<g id="a_Node000005"><a xlink:href="libc_2time_8h.html" target="_top" xlink:title=" ">
<polygon fill="white" stroke="#666666" points="353,-79.5 258,-79.5 258,-60.5 353,-60.5 353,-79.5"/>
<text text-anchor="middle" x="305.5" y="-67.5" font-family="Helvetica,sans-Serif" font-size="10.00">include/libc/time.h</text>
</a>
</g>
</g>
<!-- Node1&#45;&gt;Node5 -->
<g id="edge4_Node000001_Node000005" class="edge">
<title>Node1&#45;&gt;Node5</title>
<g id="a_edge4_Node000001_Node000005"><a xlink:title=" ">
<path fill="none" stroke="#63b8ff" d="M205.91,-116.16C230.34,-105.08 264.43,-89.62 285.72,-79.97"/>
<polygon fill="#63b8ff" stroke="#63b8ff" points="204.75,-113.3 197.09,-120.62 207.65,-119.67 204.75,-113.3"/>
</a>
</g>
</g>
<!-- Node4 -->
<g id="Node000004" class="node">
<title>Node4</title>
<g id="a_Node000004"><a xlink:href="unistd_8h.html" target="_top" xlink:title=" ">
<polygon fill="white" stroke="#666666" points="228,-19 125,-19 125,0 228,0 228,-19"/>
<text text-anchor="middle" x="176.5" y="-7" font-family="Helvetica,sans-Serif" font-size="10.00">include/libc/unistd.h</text>
</a>
</g>
</g>
<!-- Node3&#45;&gt;Node4 -->
<g id="edge3_Node000003_Node000004" class="edge">
<title>Node3&#45;&gt;Node4</title>
<g id="a_edge3_Node000003_Node000004"><a xlink:title=" ">
<path fill="none" stroke="#63b8ff" d="M176.5,-49.49C176.5,-39.22 176.5,-27.13 176.5,-19.17"/>
<polygon fill="#63b8ff" stroke="#63b8ff" points="173,-49.37 176.5,-59.37 180,-49.37 173,-49.37"/>
</a>
</g>
</g>
</g>
</svg>
