<?xml version="1.0" encoding="UTF-8" standalone="no"?>
<!DOCTYPE svg PUBLIC "-//W3C//DTD SVG 1.1//EN"
 "http://www.w3.org/Graphics/SVG/1.1/DTD/svg11.dtd">
<!-- Generated by graphviz version 2.50.0 (20211204.2007)
 -->
<!-- Title: include/libc/time.h Pages: 1 -->
<svg width="202pt" height="196pt"
 viewBox="0.00 0.00 201.50 196.00" xmlns="http://www.w3.org/2000/svg" xmlns:xlink="http://www.w3.org/1999/xlink">
<g id="graph0" class="graph" transform="scale(1 1) rotate(0) translate(4 192)">
<title>include/libc/time.h</title>
<!-- Node1 -->
<g id="node1" class="node">
<title>Node1</title>
<g id="a_node1"><a xlink:title=" ">
<polygon fill="#bfbfbf" stroke="black" points="37.5,-168.5 37.5,-187.5 132.5,-187.5 132.5,-168.5 37.5,-168.5"/>
<text text-anchor="middle" x="85" y="-175.5" font-family="Helvetica,sans-Serif" font-size="10.00">include/libc/time.h</text>
</a>
</g>
</g>
<!-- Node2 -->
<g id="node2" class="node">
<title>Node2</title>
<g id="a_node2"><a xlink:title=" ">
<polygon fill="none" stroke="#bfbfbf" points="0,-0.5 0,-19.5 52,-19.5 52,-0.5 0,-0.5"/>
<text text-anchor="middle" x="26" y="-7.5" font-family="Helvetica,sans-Serif" font-size="10.00">stddef.h</text>
</a>
</g>
</g>
<!-- Node1&#45;&gt;Node2 -->
<g id="edge1" class="edge">
<title>Node1&#45;&gt;Node2</title>
<path fill="none" stroke="midnightblue" d="M74.28,-168.19C64.95,-159.88 51.87,-146.56 45,-132 29.17,-98.47 26.09,-54.47 25.73,-29.83"/>
<polygon fill="midnightblue" stroke="midnightblue" points="29.23,-29.69 25.73,-19.7 22.23,-29.7 29.23,-29.69"/>
</g>
<!-- Node3 -->
<g id="node3" class="node">
<title>Node3</title>
<g id="a_node3"><a xlink:href="libc_2sys_2time_8h.html" target="_top" xlink:title=" ">
<polygon fill="none" stroke="black" points="54,-112.5 54,-131.5 116,-131.5 116,-112.5 54,-112.5"/>
<text text-anchor="middle" x="85" y="-119.5" font-family="Helvetica,sans-Serif" font-size="10.00">sys/time.h</text>
</a>
</g>
</g>
<!-- Node1&#45;&gt;Node3 -->
<g id="edge2" class="edge">
<title>Node1&#45;&gt;Node3</title>
<path fill="none" stroke="midnightblue" d="M85,-168.08C85,-161.01 85,-150.86 85,-141.99"/>
<polygon fill="midnightblue" stroke="midnightblue" points="88.5,-141.75 85,-131.75 81.5,-141.75 88.5,-141.75"/>
</g>
<!-- Node4 -->
<g id="node4" class="node">
<title>Node4</title>
<g id="a_node4"><a xlink:href="types_8h.html" target="_top" xlink:title=" ">
<polygon fill="none" stroke="black" points="64,-56.5 64,-75.5 132,-75.5 132,-56.5 64,-56.5"/>
<text text-anchor="middle" x="98" y="-63.5" font-family="Helvetica,sans-Serif" font-size="10.00">sys/types.h</text>
</a>
</g>
</g>
<!-- Node1&#45;&gt;Node4 -->
<g id="edge7" class="edge">
<title>Node1&#45;&gt;Node4</title>
<path fill="none" stroke="midnightblue" d="M96.27,-168.43C105.97,-160.27 119.28,-147.05 125,-132 131.28,-115.48 121.85,-96.88 112.45,-83.82"/>
<polygon fill="midnightblue" stroke="midnightblue" points="115.06,-81.48 106.14,-75.76 109.55,-85.8 115.06,-81.48"/>
</g>
<!-- Node3&#45;&gt;Node4 -->
<g id="edge3" class="edge">
<title>Node3&#45;&gt;Node4</title>
<path fill="none" stroke="midnightblue" d="M87.15,-112.08C88.87,-104.93 91.35,-94.64 93.5,-85.69"/>
<polygon fill="midnightblue" stroke="midnightblue" points="96.96,-86.29 95.89,-75.75 90.15,-84.65 96.96,-86.29"/>
</g>
<!-- Node4&#45;&gt;Node2 -->
<g id="edge5" class="edge">
<title>Node4&#45;&gt;Node2</title>
<path fill="none" stroke="midnightblue" d="M86.43,-56.32C75.58,-48.18 59.12,-35.84 46.12,-26.09"/>
<polygon fill="midnightblue" stroke="midnightblue" points="47.88,-23.03 37.78,-19.83 43.68,-28.63 47.88,-23.03"/>
</g>
<!-- Node5 -->
<g id="node5" class="node">
<title>Node5</title>
<g id="a_node5"><a xlink:title=" ">
<polygon fill="none" stroke="#bfbfbf" points="70,-0.5 70,-19.5 126,-19.5 126,-0.5 70,-0.5"/>
<text text-anchor="middle" x="98" y="-7.5" font-family="Helvetica,sans-Serif" font-size="10.00">stdbool.h</text>
</a>
</g>
</g>
<!-- Node4&#45;&gt;Node5 -->
<g id="edge4" class="edge">
<title>Node4&#45;&gt;Node5</title>
<path fill="none" stroke="midnightblue" d="M98,-56.08C98,-49.01 98,-38.86 98,-29.99"/>
<polygon fill="midnightblue" stroke="midnightblue" points="101.5,-29.75 98,-19.75 94.5,-29.75 101.5,-29.75"/>
</g>
<!-- Node6 -->
<g id="node6" class="node">
<title>Node6</title>
<g id="a_node6"><a xlink:title=" ">
<polygon fill="none" stroke="#bfbfbf" points="144.5,-0.5 144.5,-19.5 193.5,-19.5 193.5,-0.5 144.5,-0.5"/>
<text text-anchor="middle" x="169" y="-7.5" font-family="Helvetica,sans-Serif" font-size="10.00">stdint.h</text>
</a>
</g>
</g>
<!-- Node4&#45;&gt;Node6 -->
<g id="edge6" class="edge">
<title>Node4&#45;&gt;Node6</title>
<path fill="none" stroke="midnightblue" d="M109.41,-56.32C120.11,-48.18 136.34,-35.84 149.16,-26.09"/>
<polygon fill="midnightblue" stroke="midnightblue" points="151.54,-28.67 157.39,-19.83 147.31,-23.1 151.54,-28.67"/>
</g>
</g>
</svg>
