<?xml version="1.0" encoding="UTF-8" standalone="no"?>
<!DOCTYPE svg PUBLIC "-//W3C//DTD SVG 1.1//EN"
 "http://www.w3.org/Graphics/SVG/1.1/DTD/svg11.dtd">
<!-- Generated by graphviz version 2.49.3 (20211023.0002)
 -->
<!-- Title: include/kernel/logging.h Pages: 1 -->
<svg width="315pt" height="140pt"
 viewBox="0.00 0.00 314.50 140.00" xmlns="http://www.w3.org/2000/svg" xmlns:xlink="http://www.w3.org/1999/xlink">
<g id="graph0" class="graph" transform="scale(1 1) rotate(0) translate(4 136)">
<title>include/kernel/logging.h</title>
<!-- Node1 -->
<g id="node1" class="node">
<title>Node1</title>
<g id="a_node1"><a xlink:title="This is the general kernel logging module.">
<polygon fill="#bfbfbf" stroke="black" points="100.5,-112.5 100.5,-131.5 222.5,-131.5 222.5,-112.5 100.5,-112.5"/>
<text text-anchor="middle" x="161.5" y="-119.5" font-family="Helvetica,sans-Serif" font-size="10.00">include/kernel/logging.h</text>
</a>
</g>
</g>
<!-- Node2 -->
<g id="node2" class="node">
<title>Node2</title>
<g id="a_node2"><a xlink:href="arch_2logging_8h.html" target="_top" xlink:title=" ">
<polygon fill="none" stroke="black" points="0,-56.5 0,-75.5 79,-75.5 79,-56.5 0,-56.5"/>
<text text-anchor="middle" x="39.5" y="-63.5" font-family="Helvetica,sans-Serif" font-size="10.00">arch/logging.h</text>
</a>
</g>
</g>
<!-- Node1&#45;&gt;Node2 -->
<g id="edge1" class="edge">
<title>Node1&#45;&gt;Node2</title>
<path fill="none" stroke="midnightblue" d="M142.17,-112.44C122.18,-103.6 90.76,-89.69 67.94,-79.59"/>
<polygon fill="midnightblue" stroke="midnightblue" points="69.3,-76.36 58.74,-75.52 66.47,-82.76 69.3,-76.36"/>
</g>
<!-- Node3 -->
<g id="node3" class="node">
<title>Node3</title>
<g id="a_node3"><a xlink:href="inttypes_8h.html" target="_top" xlink:title=" ">
<polygon fill="none" stroke="black" points="97,-56.5 97,-75.5 156,-75.5 156,-56.5 97,-56.5"/>
<text text-anchor="middle" x="126.5" y="-63.5" font-family="Helvetica,sans-Serif" font-size="10.00">inttypes.h</text>
</a>
</g>
</g>
<!-- Node1&#45;&gt;Node3 -->
<g id="edge2" class="edge">
<title>Node1&#45;&gt;Node3</title>
<path fill="none" stroke="midnightblue" d="M155.72,-112.08C150.83,-104.53 143.67,-93.49 137.67,-84.23"/>
<polygon fill="midnightblue" stroke="midnightblue" points="140.55,-82.24 132.17,-75.75 134.67,-86.05 140.55,-82.24"/>
</g>
<!-- Node4 -->
<g id="node4" class="node">
<title>Node4</title>
<g id="a_node4"><a xlink:href="stdio_8h.html" target="_top" xlink:title=" ">
<polygon fill="none" stroke="black" points="174.5,-56.5 174.5,-75.5 220.5,-75.5 220.5,-56.5 174.5,-56.5"/>
<text text-anchor="middle" x="197.5" y="-63.5" font-family="Helvetica,sans-Serif" font-size="10.00">stdio.h</text>
</a>
</g>
</g>
<!-- Node1&#45;&gt;Node4 -->
<g id="edge3" class="edge">
<title>Node1&#45;&gt;Node4</title>
<path fill="none" stroke="midnightblue" d="M167.44,-112.08C172.48,-104.53 179.84,-93.49 186.01,-84.23"/>
<polygon fill="midnightblue" stroke="midnightblue" points="189.03,-86.01 191.67,-75.75 183.21,-82.13 189.03,-86.01"/>
</g>
<!-- Node6 -->
<g id="node6" class="node">
<title>Node6</title>
<g id="a_node6"><a xlink:href="timer_8h.html" target="_top" xlink:title=" ">
<polygon fill="none" stroke="black" points="238.5,-56.5 238.5,-75.5 306.5,-75.5 306.5,-56.5 238.5,-56.5"/>
<text text-anchor="middle" x="272.5" y="-63.5" font-family="Helvetica,sans-Serif" font-size="10.00">time/timer.h</text>
</a>
</g>
</g>
<!-- Node1&#45;&gt;Node6 -->
<g id="edge5" class="edge">
<title>Node1&#45;&gt;Node6</title>
<path fill="none" stroke="midnightblue" d="M179.33,-112.32C197.22,-103.62 224.98,-90.12 245.55,-80.11"/>
<polygon fill="midnightblue" stroke="midnightblue" points="247.25,-83.18 254.71,-75.65 244.19,-76.88 247.25,-83.18"/>
</g>
<!-- Node5 -->
<g id="node5" class="node">
<title>Node5</title>
<g id="a_node5"><a xlink:title=" ">
<polygon fill="none" stroke="#bfbfbf" points="174,-0.5 174,-19.5 221,-19.5 221,-0.5 174,-0.5"/>
<text text-anchor="middle" x="197.5" y="-7.5" font-family="Helvetica,sans-Serif" font-size="10.00">printf.h</text>
</a>
</g>
</g>
<!-- Node4&#45;&gt;Node5 -->
<g id="edge4" class="edge">
<title>Node4&#45;&gt;Node5</title>
<path fill="none" stroke="midnightblue" d="M197.5,-56.08C197.5,-49.01 197.5,-38.86 197.5,-29.99"/>
<polygon fill="midnightblue" stroke="midnightblue" points="201,-29.75 197.5,-19.75 194,-29.75 201,-29.75"/>
</g>
<!-- Node7 -->
<g id="node7" class="node">
<title>Node7</title>
<g id="a_node7"><a xlink:title=" ">
<polygon fill="none" stroke="#bfbfbf" points="248,-0.5 248,-19.5 297,-19.5 297,-0.5 248,-0.5"/>
<text text-anchor="middle" x="272.5" y="-7.5" font-family="Helvetica,sans-Serif" font-size="10.00">stdint.h</text>
</a>
</g>
</g>
<!-- Node6&#45;&gt;Node7 -->
<g id="edge6" class="edge">
<title>Node6&#45;&gt;Node7</title>
<path fill="none" stroke="midnightblue" d="M272.5,-56.08C272.5,-49.01 272.5,-38.86 272.5,-29.99"/>
<polygon fill="midnightblue" stroke="midnightblue" points="276,-29.75 272.5,-19.75 269,-29.75 276,-29.75"/>
</g>
</g>
</svg>
