<?xml version="1.0" encoding="UTF-8" standalone="no"?>
<!DOCTYPE svg PUBLIC "-//W3C//DTD SVG 1.1//EN"
 "http://www.w3.org/Graphics/SVG/1.1/DTD/svg11.dtd">
<!-- Generated by graphviz version 8.0.2 (20230410.1723)
 -->
<!-- Title: src/kernel/arch/x86_64/core/multiboot.h Pages: 1 -->
<svg width="299pt" height="170pt"
 viewBox="0.00 0.00 299.00 170.00" xmlns="http://www.w3.org/2000/svg" xmlns:xlink="http://www.w3.org/1999/xlink">
<g id="graph0" class="graph" transform="scale(1 1) rotate(0) translate(4 166)">
<title>src/kernel/arch/x86_64/core/multiboot.h</title>
<!-- Node1 -->
<g id="Node000001" class="node">
<title>Node1</title>
<g id="a_Node000001"><a xlink:title=" ">
<polygon fill="#999999" stroke="#666666" points="171.5,-162 66.5,-162 66.5,-132 171.5,-132 171.5,-162"/>
<text text-anchor="start" x="74.5" y="-150" font-family="Helvetica,sans-Serif" font-size="10.00">src/kernel/arch/x86</text>
<text text-anchor="middle" x="119" y="-139" font-family="Helvetica,sans-Serif" font-size="10.00">_64/core/multiboot.h</text>
</a>
</g>
</g>
<!-- Node2 -->
<g id="Node000002" class="node">
<title>Node2</title>
<g id="a_Node000002"><a xlink:href="console_8h.html" target="_top" xlink:title=" ">
<polygon fill="white" stroke="#666666" points="114,-96 0,-96 0,-66 114,-66 114,-96"/>
<text text-anchor="start" x="8" y="-84" font-family="Helvetica,sans-Serif" font-size="10.00">src/kernel/arch/x86</text>
<text text-anchor="middle" x="57" y="-73" font-family="Helvetica,sans-Serif" font-size="10.00">_64/console/console.h</text>
</a>
</g>
</g>
<!-- Node1&#45;&gt;Node2 -->
<g id="edge1_Node000001_Node000002" class="edge">
<title>Node1&#45;&gt;Node2</title>
<g id="a_edge1_Node000001_Node000002"><a xlink:title=" ">
<path fill="none" stroke="#63b8ff" d="M97.77,-124.09C88.82,-114.85 78.66,-104.36 70.72,-96.16"/>
<polygon fill="#63b8ff" stroke="#63b8ff" points="94.77,-126.05 104.24,-130.8 99.8,-121.18 94.77,-126.05"/>
</a>
</g>
</g>
<!-- Node3 -->
<g id="Node000003" class="node">
<title>Node3</title>
<g id="a_Node000003"><a xlink:href="frame_8h.html" target="_top" xlink:title=" ">
<polygon fill="white" stroke="#666666" points="232,-96 132,-96 132,-66 232,-66 232,-96"/>
<text text-anchor="start" x="140" y="-84" font-family="Helvetica,sans-Serif" font-size="10.00">src/kernel/arch/x86</text>
<text text-anchor="middle" x="182" y="-73" font-family="Helvetica,sans-Serif" font-size="10.00">_64/mmu/frame.h</text>
</a>
</g>
</g>
<!-- Node1&#45;&gt;Node3 -->
<g id="edge2_Node000001_Node000003" class="edge">
<title>Node1&#45;&gt;Node3</title>
<g id="a_edge2_Node000001_Node000003"><a xlink:title=" ">
<path fill="none" stroke="#63b8ff" d="M140.57,-124.09C149.66,-114.85 159.99,-104.36 168.06,-96.16"/>
<polygon fill="#63b8ff" stroke="#63b8ff" points="138.5,-121.21 133.98,-130.8 143.49,-126.13 138.5,-121.21"/>
</a>
</g>
</g>
<!-- Node4 -->
<g id="Node000004" class="node">
<title>Node4</title>
<g id="a_Node000004"><a xlink:href="x86__64_2mmu_2alloc_8h.html" target="_top" xlink:title=" ">
<polygon fill="white" stroke="#666666" points="173,-30 73,-30 73,0 173,0 173,-30"/>
<text text-anchor="start" x="81" y="-18" font-family="Helvetica,sans-Serif" font-size="10.00">src/kernel/arch/x86</text>
<text text-anchor="middle" x="123" y="-7" font-family="Helvetica,sans-Serif" font-size="10.00">_64/mmu/alloc.h</text>
</a>
</g>
</g>
<!-- Node3&#45;&gt;Node4 -->
<g id="edge3_Node000003_Node000004" class="edge">
<title>Node3&#45;&gt;Node4</title>
<g id="a_edge3_Node000003_Node000004"><a xlink:title=" ">
<path fill="none" stroke="#63b8ff" d="M161.54,-57.81C153.09,-48.64 143.54,-38.28 136.06,-30.16"/>
<polygon fill="#63b8ff" stroke="#63b8ff" points="158.55,-59.82 167.91,-64.8 163.7,-55.07 158.55,-59.82"/>
</a>
</g>
</g>
<!-- Node5 -->
<g id="Node000005" class="node">
<title>Node5</title>
<g id="a_Node000005"><a xlink:href="paging_8h.html" target="_top" xlink:title=" ">
<polygon fill="white" stroke="#666666" points="291,-30 191,-30 191,0 291,0 291,-30"/>
<text text-anchor="start" x="199" y="-18" font-family="Helvetica,sans-Serif" font-size="10.00">src/kernel/arch/x86</text>
<text text-anchor="middle" x="241" y="-7" font-family="Helvetica,sans-Serif" font-size="10.00">_64/mmu/paging.h</text>
</a>
</g>
</g>
<!-- Node3&#45;&gt;Node5 -->
<g id="edge4_Node000003_Node000005" class="edge">
<title>Node3&#45;&gt;Node5</title>
<g id="a_edge4_Node000003_Node000005"><a xlink:title=" ">
<path fill="none" stroke="#63b8ff" d="M202.46,-57.81C210.91,-48.64 220.46,-38.28 227.94,-30.16"/>
<polygon fill="#63b8ff" stroke="#63b8ff" points="200.3,-55.07 196.09,-64.8 205.45,-59.82 200.3,-55.07"/>
</a>
</g>
</g>
</g>
</svg>
