<?xml version="1.0" encoding="UTF-8" standalone="no"?>
<!DOCTYPE svg PUBLIC "-//W3C//DTD SVG 1.1//EN"
 "http://www.w3.org/Graphics/SVG/1.1/DTD/svg11.dtd">
<!-- Generated by graphviz version 2.50.0 (20211204.2007)
 -->
<!-- Title: src/kernel/arch/x86_64/core/multiboot.h Pages: 1 -->
<svg width="299pt" height="173pt"
 viewBox="0.00 0.00 299.00 173.00" xmlns="http://www.w3.org/2000/svg" xmlns:xlink="http://www.w3.org/1999/xlink">
<g id="graph0" class="graph" transform="scale(1 1) rotate(0) translate(4 169)">
<title>src/kernel/arch/x86_64/core/multiboot.h</title>
<!-- Node1 -->
<g id="node1" class="node">
<title>Node1</title>
<g id="a_node1"><a xlink:title=" ">
<polygon fill="#bfbfbf" stroke="black" points="66.5,-134.5 66.5,-164.5 171.5,-164.5 171.5,-134.5 66.5,-134.5"/>
<text text-anchor="start" x="74.5" y="-152.5" font-family="Helvetica,sans-Serif" font-size="10.00">src/kernel/arch/x86</text>
<text text-anchor="middle" x="119" y="-141.5" font-family="Helvetica,sans-Serif" font-size="10.00">_64/core/multiboot.h</text>
</a>
</g>
</g>
<!-- Node2 -->
<g id="node2" class="node">
<title>Node2</title>
<g id="a_node2"><a xlink:href="console_8h.html" target="_top" xlink:title=" ">
<polygon fill="none" stroke="black" points="0,-67.5 0,-97.5 114,-97.5 114,-67.5 0,-67.5"/>
<text text-anchor="start" x="8" y="-85.5" font-family="Helvetica,sans-Serif" font-size="10.00">src/kernel/arch/x86</text>
<text text-anchor="middle" x="57" y="-74.5" font-family="Helvetica,sans-Serif" font-size="10.00">_64/console/console.h</text>
</a>
</g>
</g>
<!-- Node1&#45;&gt;Node2 -->
<g id="edge1" class="edge">
<title>Node1&#45;&gt;Node2</title>
<path fill="none" stroke="midnightblue" d="M98.52,-127.02C89.28,-117.34 78.63,-106.17 70.43,-97.58"/>
<polygon fill="midnightblue" stroke="midnightblue" points="96.11,-129.58 105.55,-134.4 101.18,-124.74 96.11,-129.58"/>
</g>
<!-- Node3 -->
<g id="node3" class="node">
<title>Node3</title>
<g id="a_node3"><a xlink:href="frame_8h.html" target="_top" xlink:title=" ">
<polygon fill="none" stroke="black" points="132,-67.5 132,-97.5 232,-97.5 232,-67.5 132,-67.5"/>
<text text-anchor="start" x="140" y="-85.5" font-family="Helvetica,sans-Serif" font-size="10.00">src/kernel/arch/x86</text>
<text text-anchor="middle" x="182" y="-74.5" font-family="Helvetica,sans-Serif" font-size="10.00">_64/mmu/frame.h</text>
</a>
</g>
</g>
<!-- Node1&#45;&gt;Node3 -->
<g id="edge2" class="edge">
<title>Node1&#45;&gt;Node3</title>
<path fill="none" stroke="midnightblue" d="M139.81,-127.02C149.2,-117.34 160.02,-106.17 168.36,-97.58"/>
<polygon fill="midnightblue" stroke="midnightblue" points="137.12,-124.78 132.67,-134.4 142.14,-129.65 137.12,-124.78"/>
</g>
<!-- Node4 -->
<g id="node4" class="node">
<title>Node4</title>
<g id="a_node4"><a xlink:href="x86__64_2mmu_2alloc_8h.html" target="_top" xlink:title=" ">
<polygon fill="none" stroke="black" points="73,-0.5 73,-30.5 173,-30.5 173,-0.5 73,-0.5"/>
<text text-anchor="start" x="81" y="-18.5" font-family="Helvetica,sans-Serif" font-size="10.00">src/kernel/arch/x86</text>
<text text-anchor="middle" x="123" y="-7.5" font-family="Helvetica,sans-Serif" font-size="10.00">_64/mmu/alloc.h</text>
</a>
</g>
</g>
<!-- Node3&#45;&gt;Node4 -->
<g id="edge3" class="edge">
<title>Node3&#45;&gt;Node4</title>
<path fill="none" stroke="midnightblue" d="M162.25,-59.74C153.52,-50.12 143.5,-39.09 135.78,-30.58"/>
<polygon fill="midnightblue" stroke="midnightblue" points="159.89,-62.34 169.2,-67.4 165.07,-57.64 159.89,-62.34"/>
</g>
<!-- Node5 -->
<g id="node5" class="node">
<title>Node5</title>
<g id="a_node5"><a xlink:href="paging_8h.html" target="_top" xlink:title=" ">
<polygon fill="none" stroke="black" points="191,-0.5 191,-30.5 291,-30.5 291,-0.5 191,-0.5"/>
<text text-anchor="start" x="199" y="-18.5" font-family="Helvetica,sans-Serif" font-size="10.00">src/kernel/arch/x86</text>
<text text-anchor="middle" x="241" y="-7.5" font-family="Helvetica,sans-Serif" font-size="10.00">_64/mmu/paging.h</text>
</a>
</g>
</g>
<!-- Node3&#45;&gt;Node5 -->
<g id="edge4" class="edge">
<title>Node3&#45;&gt;Node5</title>
<path fill="none" stroke="midnightblue" d="M201.75,-59.74C210.48,-50.12 220.5,-39.09 228.22,-30.58"/>
<polygon fill="midnightblue" stroke="midnightblue" points="198.93,-57.64 194.8,-67.4 204.11,-62.34 198.93,-57.64"/>
</g>
</g>
</svg>
