<?xml version="1.0" encoding="UTF-8" standalone="no"?>
<!DOCTYPE svg PUBLIC "-//W3C//DTD SVG 1.1//EN"
 "http://www.w3.org/Graphics/SVG/1.1/DTD/svg11.dtd">
<!-- Generated by graphviz version 9.0.0 (20230911.1827)
 -->
<!-- Title: src/kernel/arch/x86_64/core/multiboot.h Pages: 1 -->
<svg width="296pt" height="172pt"
 viewBox="0.00 0.00 296.38 171.50" xmlns="http://www.w3.org/2000/svg" xmlns:xlink="http://www.w3.org/1999/xlink">
<g id="graph0" class="graph" transform="scale(1 1) rotate(0) translate(4 167.5)">
<title>src/kernel/arch/x86_64/core/multiboot.h</title>
<!-- Node1 -->
<g id="Node000001" class="node">
<title>Node1</title>
<g id="a_Node000001"><a xlink:title=" ">
<polygon fill="#999999" stroke="#666666" points="171,-163.5 66.5,-163.5 66.5,-133 171,-133 171,-163.5"/>
<text text-anchor="start" x="74.5" y="-150" font-family="Helvetica,sans-Serif" font-size="10.00">src/kernel/arch/x86</text>
<text text-anchor="middle" x="118.75" y="-138.75" font-family="Helvetica,sans-Serif" font-size="10.00">_64/core/multiboot.h</text>
</a>
</g>
</g>
<!-- Node2 -->
<g id="Node000002" class="node">
<title>Node2</title>
<g id="a_Node000002"><a xlink:href="console_8h.html" target="_top" xlink:title=" ">
<polygon fill="white" stroke="#666666" points="113.5,-97 0,-97 0,-66.5 113.5,-66.5 113.5,-97"/>
<text text-anchor="start" x="8" y="-83.5" font-family="Helvetica,sans-Serif" font-size="10.00">src/kernel/arch/x86</text>
<text text-anchor="middle" x="56.75" y="-72.25" font-family="Helvetica,sans-Serif" font-size="10.00">_64/console/console.h</text>
</a>
</g>
</g>
<!-- Node1&#45;&gt;Node2 -->
<g id="edge1_Node000001_Node000002" class="edge">
<title>Node1&#45;&gt;Node2</title>
<g id="a_edge1_Node000001_Node000002"><a xlink:title=" ">
<path fill="none" stroke="#63b8ff" d="M96.79,-124.41C88.13,-115.4 78.44,-105.32 70.76,-97.33"/>
<polygon fill="#63b8ff" stroke="#63b8ff" points="94.18,-126.74 103.63,-131.52 99.23,-121.89 94.18,-126.74"/>
</a>
</g>
</g>
<!-- Node3 -->
<g id="Node000003" class="node">
<title>Node3</title>
<g id="a_Node000003"><a xlink:href="frame_8h.html" target="_top" xlink:title=" ">
<polygon fill="white" stroke="#666666" points="230.38,-97 131.12,-97 131.12,-66.5 230.38,-66.5 230.38,-97"/>
<text text-anchor="start" x="139.12" y="-83.5" font-family="Helvetica,sans-Serif" font-size="10.00">src/kernel/arch/x86</text>
<text text-anchor="middle" x="180.75" y="-72.25" font-family="Helvetica,sans-Serif" font-size="10.00">_64/mmu/frame.h</text>
</a>
</g>
</g>
<!-- Node1&#45;&gt;Node3 -->
<g id="edge2_Node000001_Node000003" class="edge">
<title>Node1&#45;&gt;Node3</title>
<g id="a_edge2_Node000001_Node000003"><a xlink:title=" ">
<path fill="none" stroke="#63b8ff" d="M140.71,-124.41C149.37,-115.4 159.06,-105.32 166.74,-97.33"/>
<polygon fill="#63b8ff" stroke="#63b8ff" points="138.27,-121.89 133.87,-131.52 143.32,-126.74 138.27,-121.89"/>
</a>
</g>
</g>
<!-- Node4 -->
<g id="Node000004" class="node">
<title>Node4</title>
<g id="a_Node000004"><a xlink:href="x86__64_2mmu_2alloc_8h.html" target="_top" xlink:title=" ">
<polygon fill="white" stroke="#666666" points="171.38,-30.5 72.12,-30.5 72.12,0 171.38,0 171.38,-30.5"/>
<text text-anchor="start" x="80.12" y="-17" font-family="Helvetica,sans-Serif" font-size="10.00">src/kernel/arch/x86</text>
<text text-anchor="middle" x="121.75" y="-5.75" font-family="Helvetica,sans-Serif" font-size="10.00">_64/mmu/alloc.h</text>
</a>
</g>
</g>
<!-- Node3&#45;&gt;Node4 -->
<g id="edge3_Node000003_Node000004" class="edge">
<title>Node3&#45;&gt;Node4</title>
<g id="a_edge3_Node000003_Node000004"><a xlink:title=" ">
<path fill="none" stroke="#63b8ff" d="M159.6,-57.63C151.43,-48.69 142.32,-38.74 135.09,-30.83"/>
<polygon fill="#63b8ff" stroke="#63b8ff" points="157.01,-59.98 166.34,-65 162.17,-55.26 157.01,-59.98"/>
</a>
</g>
</g>
<!-- Node5 -->
<g id="Node000005" class="node">
<title>Node5</title>
<g id="a_Node000005"><a xlink:href="paging_8h.html" target="_top" xlink:title=" ">
<polygon fill="white" stroke="#666666" points="288.38,-30.5 189.12,-30.5 189.12,0 288.38,0 288.38,-30.5"/>
<text text-anchor="start" x="197.12" y="-17" font-family="Helvetica,sans-Serif" font-size="10.00">src/kernel/arch/x86</text>
<text text-anchor="middle" x="238.75" y="-5.75" font-family="Helvetica,sans-Serif" font-size="10.00">_64/mmu/paging.h</text>
</a>
</g>
</g>
<!-- Node3&#45;&gt;Node5 -->
<g id="edge4_Node000003_Node000005" class="edge">
<title>Node3&#45;&gt;Node5</title>
<g id="a_edge4_Node000003_Node000005"><a xlink:title=" ">
<path fill="none" stroke="#63b8ff" d="M201.54,-57.63C209.58,-48.69 218.53,-38.74 225.64,-30.83"/>
<polygon fill="#63b8ff" stroke="#63b8ff" points="199.01,-55.21 194.92,-64.99 204.21,-59.89 199.01,-55.21"/>
</a>
</g>
</g>
</g>
</svg>
