<?xml version="1.0" encoding="UTF-8" standalone="no"?>
<!DOCTYPE svg PUBLIC "-//W3C//DTD SVG 1.1//EN"
 "http://www.w3.org/Graphics/SVG/1.1/DTD/svg11.dtd">
<!-- Generated by graphviz version 3.0.0 (20220226.1711)
 -->
<!-- Title: include/kernel/net/net.h Pages: 1 -->
<svg width="132pt" height="95pt"
 viewBox="0.00 0.00 131.50 95.00" xmlns="http://www.w3.org/2000/svg" xmlns:xlink="http://www.w3.org/1999/xlink">
<g id="graph0" class="graph" transform="scale(1 1) rotate(0) translate(4 91)">
<title>include/kernel/net/net.h</title>
<!-- Node1 -->
<g id="node1" class="node">
<title>Node1</title>
<g id="a_node1"><a xlink:title="This module defines network interfaces and drivers.">
<polygon fill="#bfbfbf" stroke="black" points="16.5,-56.5 16.5,-86.5 109.5,-86.5 109.5,-56.5 16.5,-56.5"/>
<text text-anchor="start" x="24.5" y="-74.5" font-family="Helvetica,sans-Serif" font-size="10.00">include/kernel/net</text>
<text text-anchor="middle" x="63" y="-63.5" font-family="Helvetica,sans-Serif" font-size="10.00">/net.h</text>
</a>
</g>
</g>
<!-- Node2 -->
<g id="node2" class="node">
<title>Node2</title>
<g id="a_node2"><a xlink:title=" ">
<polygon fill="none" stroke="#bfbfbf" points="0,-0.5 0,-19.5 56,-19.5 56,-0.5 0,-0.5"/>
<text text-anchor="middle" x="28" y="-7.5" font-family="Helvetica,sans-Serif" font-size="10.00">stdbool.h</text>
</a>
</g>
</g>
<!-- Node1&#45;&gt;Node2 -->
<g id="edge1" class="edge">
<title>Node1&#45;&gt;Node2</title>
<path fill="none" stroke="midnightblue" d="M54.71,-56.4C49.78,-48.02 43.49,-37.33 38.25,-28.42"/>
<polygon fill="midnightblue" stroke="midnightblue" points="41.18,-26.5 33.09,-19.66 35.15,-30.05 41.18,-26.5"/>
</g>
<!-- Node3 -->
<g id="node3" class="node">
<title>Node3</title>
<g id="a_node3"><a xlink:title=" ">
<polygon fill="none" stroke="#bfbfbf" points="74.5,-0.5 74.5,-19.5 123.5,-19.5 123.5,-0.5 74.5,-0.5"/>
<text text-anchor="middle" x="99" y="-7.5" font-family="Helvetica,sans-Serif" font-size="10.00">stdint.h</text>
</a>
</g>
</g>
<!-- Node1&#45;&gt;Node3 -->
<g id="edge2" class="edge">
<title>Node1&#45;&gt;Node3</title>
<path fill="none" stroke="midnightblue" d="M71.53,-56.4C76.6,-48.02 83.07,-37.33 88.46,-28.42"/>
<polygon fill="midnightblue" stroke="midnightblue" points="91.58,-30.03 93.76,-19.66 85.59,-26.4 91.58,-30.03"/>
</g>
</g>
</svg>
