<?xml version="1.0" encoding="UTF-8" standalone="no"?>
<!DOCTYPE svg PUBLIC "-//W3C//DTD SVG 1.1//EN"
 "http://www.w3.org/Graphics/SVG/1.1/DTD/svg11.dtd">
<!-- Generated by graphviz version 8.0.2 (20230410.1723)
 -->
<!-- Title: net_interface_init Pages: 1 -->
<svg width="703pt" height="319pt"
 viewBox="0.00 0.00 703.00 319.00" xmlns="http://www.w3.org/2000/svg" xmlns:xlink="http://www.w3.org/1999/xlink">
<g id="graph0" class="graph" transform="scale(1 1) rotate(0) translate(4 315)">
<title>net_interface_init</title>
<!-- Node1 -->
<g id="Node000001" class="node">
<title>Node1</title>
<g id="a_Node000001"><a xlink:title=" ">
<polygon fill="#999999" stroke="#666666" points="91,-210 0,-210 0,-191 91,-191 91,-210"/>
<text text-anchor="middle" x="45.5" y="-198" font-family="Helvetica,sans-Serif" font-size="10.00">net_interface_init</text>
</a>
</g>
</g>
<!-- Node1&#45;&gt;Node1 -->
<g id="edge24_Node000001_Node000001" class="edge">
<title>Node1&#45;&gt;Node1</title>
<g id="a_edge24_Node000001_Node000001"><a xlink:title=" ">
<path fill="none" stroke="#63b8ff" d="M23.43,-210.37C13.36,-218.94 20.71,-228 45.5,-228 59.83,-228 68.33,-224.97 71.01,-220.76"/>
<polygon fill="#63b8ff" stroke="#63b8ff" points="74.04,-219.76 67.57,-211.37 67.39,-221.96 74.04,-219.76"/>
</a>
</g>
</g>
<!-- Node2 -->
<g id="Node000002" class="node">
<title>Node2</title>
<g id="a_Node000002"><a xlink:href="arp_8c.html#a666f814a224975572b1d3fe88a7425af" target="_top" xlink:title=" ">
<polygon fill="white" stroke="#666666" points="220.5,-293 152.5,-293 152.5,-274 220.5,-274 220.5,-293"/>
<text text-anchor="middle" x="186.5" y="-281" font-family="Helvetica,sans-Serif" font-size="10.00">arp_request</text>
</a>
</g>
</g>
<!-- Node1&#45;&gt;Node2 -->
<g id="edge1_Node000001_Node000002" class="edge">
<title>Node1&#45;&gt;Node2</title>
<g id="a_edge1_Node000001_Node000002"><a xlink:title=" ">
<path fill="none" stroke="#63b8ff" d="M56.02,-210.27C70.25,-224.35 98.45,-250.32 127,-265.5 131.74,-268.02 136.9,-270.25 142.11,-272.21"/>
<polygon fill="#63b8ff" stroke="#63b8ff" points="140.53,-275.71 151.13,-275.62 142.8,-269.08 140.53,-275.71"/>
</a>
</g>
</g>
<!-- Node4 -->
<g id="Node000004" class="node">
<title>Node4</title>
<g id="a_Node000004"><a xlink:href="arp_8c.html#ad4b17a9be56fc675686f1bb4ca2aba5b" target="_top" xlink:title=" ">
<polygon fill="white" stroke="#666666" points="226.5,-238 146.5,-238 146.5,-219 226.5,-219 226.5,-238"/>
<text text-anchor="middle" x="186.5" y="-226" font-family="Helvetica,sans-Serif" font-size="10.00">arp_wait_reply</text>
</a>
</g>
</g>
<!-- Node1&#45;&gt;Node4 -->
<g id="edge5_Node000001_Node000004" class="edge">
<title>Node1&#45;&gt;Node4</title>
<g id="a_edge5_Node000001_Node000004"><a xlink:title=" ">
<path fill="none" stroke="#63b8ff" d="M91.25,-209.51C105.55,-212.4 121.47,-215.6 136.08,-218.55"/>
<polygon fill="#63b8ff" stroke="#63b8ff" points="134.96,-222.09 145.46,-220.64 136.35,-215.23 134.96,-222.09"/>
</a>
</g>
</g>
<!-- Node5 -->
<g id="Node000005" class="node">
<title>Node5</title>
<g id="a_Node000005"><a xlink:href="dhcp_8c.html#ae37a0dfd11fc8825b9808761417c979b" target="_top" xlink:title=" ">
<polygon fill="white" stroke="#666666" points="228,-183 145,-183 145,-164 228,-164 228,-183"/>
<text text-anchor="middle" x="186.5" y="-171" font-family="Helvetica,sans-Serif" font-size="10.00">dhcp_negotiate</text>
</a>
</g>
</g>
<!-- Node1&#45;&gt;Node5 -->
<g id="edge7_Node000001_Node000005" class="edge">
<title>Node1&#45;&gt;Node5</title>
<g id="a_edge7_Node000001_Node000005"><a xlink:title=" ">
<path fill="none" stroke="#63b8ff" d="M91.25,-191.81C104.91,-189.15 120.03,-186.22 134.1,-183.48"/>
<polygon fill="#63b8ff" stroke="#63b8ff" points="134.46,-186.79 143.61,-181.44 133.12,-179.91 134.46,-186.79"/>
</a>
</g>
</g>
<!-- Node6 -->
<g id="Node000006" class="node">
<title>Node6</title>
<g id="a_Node000006"><a xlink:href="ethernet_8c.html#aafb24417f47cd11c95b81566e3b7fc78" target="_top" xlink:title=" ">
<polygon fill="white" stroke="#666666" points="246,-128 127,-128 127,-109 246,-109 246,-128"/>
<text text-anchor="middle" x="186.5" y="-116" font-family="Helvetica,sans-Serif" font-size="10.00">ethernet_receive_frame</text>
</a>
</g>
</g>
<!-- Node1&#45;&gt;Node6 -->
<g id="edge9_Node000001_Node000006" class="edge">
<title>Node1&#45;&gt;Node6</title>
<g id="a_edge9_Node000001_Node000006"><a xlink:title=" ">
<path fill="none" stroke="#63b8ff" d="M63.27,-190.61C87.17,-176.51 131.25,-150.51 159.43,-133.88"/>
<polygon fill="#63b8ff" stroke="#63b8ff" points="160.84,-136.52 167.67,-128.43 157.28,-130.49 160.84,-136.52"/>
</a>
</g>
</g>
<!-- Node2&#45;&gt;Node2 -->
<g id="edge2_Node000002_Node000002" class="edge">
<title>Node2&#45;&gt;Node2</title>
<g id="a_edge2_Node000002_Node000002"><a xlink:title=" ">
<path fill="none" stroke="#63b8ff" d="M164.43,-293.37C154.36,-301.94 161.71,-311 186.5,-311 200.83,-311 209.33,-307.97 212.01,-303.76"/>
<polygon fill="#63b8ff" stroke="#63b8ff" points="215.04,-302.76 208.57,-294.37 208.39,-304.96 215.04,-302.76"/>
</a>
</g>
</g>
<!-- Node3 -->
<g id="Node000003" class="node">
<title>Node3</title>
<g id="a_Node000003"><a xlink:href="ethernet_8c.html#ae0adc121b615550b0366f4354a1936b4" target="_top" xlink:title=" ">
<polygon fill="white" stroke="#666666" points="390,-293 282,-293 282,-274 390,-274 390,-293"/>
<text text-anchor="middle" x="336" y="-281" font-family="Helvetica,sans-Serif" font-size="10.00">ethernet_send_frame</text>
</a>
</g>
</g>
<!-- Node2&#45;&gt;Node3 -->
<g id="edge3_Node000002_Node000003" class="edge">
<title>Node2&#45;&gt;Node3</title>
<g id="a_edge3_Node000002_Node000003"><a xlink:title=" ">
<path fill="none" stroke="#63b8ff" d="M220.97,-283.5C235.82,-283.5 253.82,-283.5 271.08,-283.5"/>
<polygon fill="#63b8ff" stroke="#63b8ff" points="270.7,-287 280.7,-283.5 270.7,-280 270.7,-287"/>
</a>
</g>
</g>
<!-- Node3&#45;&gt;Node3 -->
<g id="edge4_Node000003_Node000003" class="edge">
<title>Node3&#45;&gt;Node3</title>
<g id="a_edge4_Node000003_Node000003"><a xlink:title=" ">
<path fill="none" stroke="#63b8ff" d="M312.6,-293.37C301.92,-301.94 309.72,-311 336,-311 351.6,-311 360.69,-307.8 363.27,-303.42"/>
<polygon fill="#63b8ff" stroke="#63b8ff" points="366.26,-302.45 359.4,-294.37 359.73,-304.96 366.26,-302.45"/>
</a>
</g>
</g>
<!-- Node4&#45;&gt;Node4 -->
<g id="edge6_Node000004_Node000004" class="edge">
<title>Node4&#45;&gt;Node4</title>
<g id="a_edge6_Node000004_Node000004"><a xlink:title=" ">
<path fill="none" stroke="#63b8ff" d="M164.43,-238.37C154.36,-246.94 161.71,-256 186.5,-256 200.83,-256 209.33,-252.97 212.01,-248.76"/>
<polygon fill="#63b8ff" stroke="#63b8ff" points="215.04,-247.76 208.57,-239.37 208.39,-249.96 215.04,-247.76"/>
</a>
</g>
</g>
<!-- Node5&#45;&gt;Node5 -->
<g id="edge8_Node000005_Node000005" class="edge">
<title>Node5&#45;&gt;Node5</title>
<g id="a_edge8_Node000005_Node000005"><a xlink:title=" ">
<path fill="none" stroke="#63b8ff" d="M164.43,-183.37C154.36,-191.94 161.71,-201 186.5,-201 200.83,-201 209.33,-197.97 212.01,-193.76"/>
<polygon fill="#63b8ff" stroke="#63b8ff" points="215.04,-192.76 208.57,-184.37 208.39,-194.96 215.04,-192.76"/>
</a>
</g>
</g>
<!-- Node6&#45;&gt;Node6 -->
<g id="edge12_Node000006_Node000006" class="edge">
<title>Node6&#45;&gt;Node6</title>
<g id="a_edge12_Node000006_Node000006"><a xlink:title=" ">
<path fill="none" stroke="#63b8ff" d="M164.43,-128.37C154.36,-136.94 161.71,-146 186.5,-146 200.83,-146 209.33,-142.97 212.01,-138.76"/>
<polygon fill="#63b8ff" stroke="#63b8ff" points="215.04,-137.76 208.57,-129.37 208.39,-139.96 215.04,-137.76"/>
</a>
</g>
</g>
<!-- Node7 -->
<g id="Node000007" class="node">
<title>Node7</title>
<g id="a_Node000007"><a xlink:href="arp_8c.html#af8fccdaff0afb0830351393a2ec87df6" target="_top" xlink:title=" ">
<polygon fill="white" stroke="#666666" points="386.5,-156 285.5,-156 285.5,-137 386.5,-137 386.5,-156"/>
<text text-anchor="middle" x="336" y="-144" font-family="Helvetica,sans-Serif" font-size="10.00">arp_receive_packet</text>
</a>
</g>
</g>
<!-- Node6&#45;&gt;Node7 -->
<g id="edge10_Node000006_Node000007" class="edge">
<title>Node6&#45;&gt;Node7</title>
<g id="a_edge10_Node000006_Node000007"><a xlink:title=" ">
<path fill="none" stroke="#63b8ff" d="M239.92,-128.45C251.09,-130.57 262.97,-132.83 274.42,-135"/>
<polygon fill="#63b8ff" stroke="#63b8ff" points="273.74,-138.62 284.22,-137.05 275.05,-131.75 273.74,-138.62"/>
</a>
</g>
</g>
<!-- Node8 -->
<g id="Node000008" class="node">
<title>Node8</title>
<g id="a_Node000008"><a xlink:href="ipv4_8c.html#a6c04a1a0613bd9fae6de26f01ba5958b" target="_top" xlink:title=" ">
<polygon fill="white" stroke="#666666" points="389,-101 283,-101 283,-82 389,-82 389,-101"/>
<text text-anchor="middle" x="336" y="-89" font-family="Helvetica,sans-Serif" font-size="10.00">ipv4_receive_packet</text>
</a>
</g>
</g>
<!-- Node6&#45;&gt;Node8 -->
<g id="edge13_Node000006_Node000008" class="edge">
<title>Node6&#45;&gt;Node8</title>
<g id="a_edge13_Node000006_Node000008"><a xlink:title=" ">
<path fill="none" stroke="#63b8ff" d="M242,-108.52C251.77,-106.74 262.01,-104.86 271.99,-103.03"/>
<polygon fill="#63b8ff" stroke="#63b8ff" points="272.47,-106.32 281.68,-101.08 271.21,-99.43 272.47,-106.32"/>
</a>
</g>
</g>
<!-- Node7&#45;&gt;Node7 -->
<g id="edge11_Node000007_Node000007" class="edge">
<title>Node7&#45;&gt;Node7</title>
<g id="a_edge11_Node000007_Node000007"><a xlink:title=" ">
<path fill="none" stroke="#63b8ff" d="M312.6,-156.37C301.92,-164.94 309.72,-174 336,-174 351.6,-174 360.69,-170.8 363.27,-166.42"/>
<polygon fill="#63b8ff" stroke="#63b8ff" points="366.26,-165.45 359.4,-157.37 359.73,-167.96 366.26,-165.45"/>
</a>
</g>
</g>
<!-- Node8&#45;&gt;Node8 -->
<g id="edge16_Node000008_Node000008" class="edge">
<title>Node8&#45;&gt;Node8</title>
<g id="a_edge16_Node000008_Node000008"><a xlink:title=" ">
<path fill="none" stroke="#63b8ff" d="M312.6,-101.37C301.92,-109.94 309.72,-119 336,-119 351.6,-119 360.69,-115.8 363.27,-111.42"/>
<polygon fill="#63b8ff" stroke="#63b8ff" points="366.26,-110.45 359.4,-102.37 359.73,-112.96 366.26,-110.45"/>
</a>
</g>
</g>
<!-- Node9 -->
<g id="Node000009" class="node">
<title>Node9</title>
<g id="a_Node000009"><a xlink:href="icmpv4_8c.html#a90e2d1fb25fc1f4dd40c60d4b464bb63" target="_top" xlink:title=" ">
<polygon fill="white" stroke="#666666" points="545,-129 426,-129 426,-110 545,-110 545,-129"/>
<text text-anchor="middle" x="485.5" y="-117" font-family="Helvetica,sans-Serif" font-size="10.00">icmpv4_receive_packet</text>
</a>
</g>
</g>
<!-- Node8&#45;&gt;Node9 -->
<g id="edge14_Node000008_Node000009" class="edge">
<title>Node8&#45;&gt;Node9</title>
<g id="a_edge14_Node000008_Node000009"><a xlink:title=" ">
<path fill="none" stroke="#63b8ff" d="M389.42,-101.45C399.85,-103.43 410.91,-105.53 421.65,-107.57"/>
<polygon fill="#63b8ff" stroke="#63b8ff" points="420.77,-111.15 431.25,-109.58 422.08,-104.28 420.77,-111.15"/>
</a>
</g>
</g>
<!-- Node10 -->
<g id="Node000010" class="node">
<title>Node10</title>
<g id="a_Node000010"><a xlink:href="udp_8c.html#a1e9dad20351b1ebb8b51196d2563c591" target="_top" xlink:title=" ">
<polygon fill="white" stroke="#666666" points="537.5,-74 433.5,-74 433.5,-55 537.5,-55 537.5,-74"/>
<text text-anchor="middle" x="485.5" y="-62" font-family="Helvetica,sans-Serif" font-size="10.00">udp_receive_packet</text>
</a>
</g>
</g>
<!-- Node8&#45;&gt;Node10 -->
<g id="edge17_Node000008_Node000010" class="edge">
<title>Node8&#45;&gt;Node10</title>
<g id="a_edge17_Node000008_Node000010"><a xlink:title=" ">
<path fill="none" stroke="#63b8ff" d="M389.42,-81.9C400.21,-79.93 411.67,-77.83 422.76,-75.8"/>
<polygon fill="#63b8ff" stroke="#63b8ff" points="423.04,-79.13 432.24,-73.88 421.77,-72.24 423.04,-79.13"/>
</a>
</g>
</g>
<!-- Node9&#45;&gt;Node9 -->
<g id="edge15_Node000009_Node000009" class="edge">
<title>Node9&#45;&gt;Node9</title>
<g id="a_edge15_Node000009_Node000009"><a xlink:title=" ">
<path fill="none" stroke="#63b8ff" d="M462.1,-129.37C451.42,-137.94 459.22,-147 485.5,-147 501.1,-147 510.19,-143.8 512.77,-139.42"/>
<polygon fill="#63b8ff" stroke="#63b8ff" points="515.76,-138.45 508.9,-130.37 509.23,-140.96 515.76,-138.45"/>
</a>
</g>
</g>
<!-- Node10&#45;&gt;Node10 -->
<g id="edge21_Node000010_Node000010" class="edge">
<title>Node10&#45;&gt;Node10</title>
<g id="a_edge21_Node000010_Node000010"><a xlink:title=" ">
<path fill="none" stroke="#63b8ff" d="M462.1,-74.37C451.42,-82.94 459.22,-92 485.5,-92 501.1,-92 510.19,-88.8 512.77,-84.42"/>
<polygon fill="#63b8ff" stroke="#63b8ff" points="515.76,-83.45 508.9,-75.37 509.23,-85.96 515.76,-83.45"/>
</a>
</g>
</g>
<!-- Node11 -->
<g id="Node000011" class="node">
<title>Node11</title>
<g id="a_Node000011"><a xlink:href="descriptor_8c.html#a3a4a85ff782854b3c65aacf9ff4574d5" target="_top" xlink:title=" ">
<polygon fill="white" stroke="#666666" points="695,-111 581,-111 581,-92 695,-92 695,-111"/>
<text text-anchor="middle" x="638" y="-99" font-family="Helvetica,sans-Serif" font-size="10.00">descriptor_udp_lookup</text>
</a>
</g>
</g>
<!-- Node10&#45;&gt;Node11 -->
<g id="edge18_Node000010_Node000011" class="edge">
<title>Node10&#45;&gt;Node11</title>
<g id="a_edge18_Node000010_Node000011"><a xlink:title=" ">
<path fill="none" stroke="#63b8ff" d="M526.83,-74.42C545.05,-78.89 566.78,-84.24 586.11,-88.99"/>
<polygon fill="#63b8ff" stroke="#63b8ff" points="585.01,-92.57 595.56,-91.56 586.68,-85.77 585.01,-92.57"/>
</a>
</g>
</g>
<!-- Node12 -->
<g id="Node000012" class="node">
<title>Node12</title>
<g id="a_Node000012"><a xlink:href="dhcp_8c.html#aaeb6c2139785dacf8f0c6f1cdf580c27" target="_top" xlink:title=" ">
<polygon fill="white" stroke="#666666" points="692.5,-74 583.5,-74 583.5,-55 692.5,-55 692.5,-74"/>
<text text-anchor="middle" x="638" y="-62" font-family="Helvetica,sans-Serif" font-size="10.00">dhcp_receive_packet</text>
</a>
</g>
</g>
<!-- Node10&#45;&gt;Node12 -->
<g id="edge20_Node000010_Node000012" class="edge">
<title>Node10&#45;&gt;Node12</title>
<g id="a_edge20_Node000010_Node000012"><a xlink:title=" ">
<path fill="none" stroke="#63b8ff" d="M537.87,-64.5C548.91,-64.5 560.71,-64.5 572.18,-64.5"/>
<polygon fill="#63b8ff" stroke="#63b8ff" points="572.04,-68 582.04,-64.5 572.04,-61 572.04,-68"/>
</a>
</g>
</g>
<!-- Node13 -->
<g id="Node000013" class="node">
<title>Node13</title>
<g id="a_Node000013"><a xlink:href="write_8c.html#abb39b21888372e95ad3e5c59b166f5c8" target="_top" xlink:title=" ">
<polygon fill="white" stroke="#666666" points="657,-19 619,-19 619,0 657,0 657,-19"/>
<text text-anchor="middle" x="638" y="-7" font-family="Helvetica,sans-Serif" font-size="10.00">write</text>
</a>
</g>
</g>
<!-- Node10&#45;&gt;Node13 -->
<g id="edge22_Node000010_Node000013" class="edge">
<title>Node10&#45;&gt;Node13</title>
<g id="a_edge22_Node000010_Node000013"><a xlink:title=" ">
<path fill="none" stroke="#63b8ff" d="M513.75,-54.54C540.68,-44.7 581.66,-29.72 608.88,-19.78"/>
<polygon fill="#63b8ff" stroke="#63b8ff" points="609.73,-22.83 617.93,-16.11 607.33,-16.25 609.73,-22.83"/>
</a>
</g>
</g>
<!-- Node11&#45;&gt;Node11 -->
<g id="edge19_Node000011_Node000011" class="edge">
<title>Node11&#45;&gt;Node11</title>
<g id="a_edge19_Node000011_Node000011"><a xlink:title=" ">
<path fill="none" stroke="#63b8ff" d="M614.13,-111.37C603.24,-119.94 611.19,-129 638,-129 653.92,-129 663.19,-125.8 665.81,-121.42"/>
<polygon fill="#63b8ff" stroke="#63b8ff" points="668.78,-120.4 661.87,-112.37 662.27,-122.96 668.78,-120.4"/>
</a>
</g>
</g>
<!-- Node13&#45;&gt;Node13 -->
<g id="edge23_Node000013_Node000013" class="edge">
<title>Node13&#45;&gt;Node13</title>
<g id="a_edge23_Node000013_Node000013"><a xlink:title=" ">
<path fill="none" stroke="#63b8ff" d="M618.71,-16.4C601.63,-25.7 608.07,-37 638,-37 660.92,-37 670.06,-30.38 665.42,-23.1"/>
<polygon fill="#63b8ff" stroke="#63b8ff" points="668.24,-20.06 658.29,-16.4 663.79,-25.46 668.24,-20.06"/>
</a>
</g>
</g>
</g>
</svg>
