<?xml version="1.0" encoding="UTF-8" standalone="no"?>
<!DOCTYPE svg PUBLIC "-//W3C//DTD SVG 1.1//EN"
 "http://www.w3.org/Graphics/SVG/1.1/DTD/svg11.dtd">
<!-- Generated by graphviz version 8.0.2 (20230410.1723)
 -->
<!-- Title: include/kernel/net/net.h Pages: 1 -->
<svg width="673pt" height="236pt"
 viewBox="0.00 0.00 673.00 236.00" xmlns="http://www.w3.org/2000/svg" xmlns:xlink="http://www.w3.org/1999/xlink">
<g id="graph0" class="graph" transform="scale(1 1) rotate(0) translate(4 232)">
<title>include/kernel/net/net.h</title>
<!-- Node1 -->
<g id="Node000001" class="node">
<title>Node1</title>
<g id="a_Node000001"><a xlink:title="This module defines network interfaces and drivers.">
<polygon fill="#999999" stroke="#666666" points="337,-228 244,-228 244,-198 337,-198 337,-228"/>
<text text-anchor="start" x="252" y="-216" font-family="Helvetica,sans-Serif" font-size="10.00">include/kernel/net</text>
<text text-anchor="middle" x="290.5" y="-205" font-family="Helvetica,sans-Serif" font-size="10.00">/net.h</text>
</a>
</g>
</g>
<!-- Node2 -->
<g id="Node000002" class="node">
<title>Node2</title>
<g id="a_Node000002"><a xlink:href="arp_8h.html" target="_top" xlink:title=" ">
<polygon fill="white" stroke="#666666" points="93,-162 0,-162 0,-132 93,-132 93,-162"/>
<text text-anchor="start" x="8" y="-150" font-family="Helvetica,sans-Serif" font-size="10.00">include/kernel/net</text>
<text text-anchor="middle" x="46.5" y="-139" font-family="Helvetica,sans-Serif" font-size="10.00">/arp.h</text>
</a>
</g>
</g>
<!-- Node1&#45;&gt;Node2 -->
<g id="edge1_Node000001_Node000002" class="edge">
<title>Node1&#45;&gt;Node2</title>
<g id="a_edge1_Node000001_Node000002"><a xlink:title=" ">
<path fill="none" stroke="#63b8ff" d="M233.23,-196.98C190.55,-185.78 132.98,-170.68 93.1,-160.22"/>
<polygon fill="#63b8ff" stroke="#63b8ff" points="232.18,-200.58 242.74,-199.74 233.96,-193.81 232.18,-200.58"/>
</a>
</g>
</g>
<!-- Node3 -->
<g id="Node000003" class="node">
<title>Node3</title>
<g id="a_Node000003"><a xlink:href="dhcp_8h.html" target="_top" xlink:title=" ">
<polygon fill="white" stroke="#666666" points="169,-30 76,-30 76,0 169,0 169,-30"/>
<text text-anchor="start" x="84" y="-18" font-family="Helvetica,sans-Serif" font-size="10.00">include/kernel/net</text>
<text text-anchor="middle" x="122.5" y="-7" font-family="Helvetica,sans-Serif" font-size="10.00">/dhcp.h</text>
</a>
</g>
</g>
<!-- Node1&#45;&gt;Node3 -->
<g id="edge2_Node000001_Node000003" class="edge">
<title>Node1&#45;&gt;Node3</title>
<g id="a_edge2_Node000001_Node000003"><a xlink:title=" ">
<path fill="none" stroke="#63b8ff" d="M240.67,-193.02C224.81,-185.2 208.14,-174.9 195.5,-162 156.83,-122.52 134.72,-58.47 126.37,-30.19"/>
<polygon fill="#63b8ff" stroke="#63b8ff" points="238.85,-196.5 249.39,-197.56 241.81,-190.16 238.85,-196.5"/>
</a>
</g>
</g>
<!-- Node4 -->
<g id="Node000004" class="node">
<title>Node4</title>
<g id="a_Node000004"><a xlink:href="dns_8h.html" target="_top" xlink:title=" ">
<polygon fill="white" stroke="#666666" points="280,-30 187,-30 187,0 280,0 280,-30"/>
<text text-anchor="start" x="195" y="-18" font-family="Helvetica,sans-Serif" font-size="10.00">include/kernel/net</text>
<text text-anchor="middle" x="233.5" y="-7" font-family="Helvetica,sans-Serif" font-size="10.00">/dns.h</text>
</a>
</g>
</g>
<!-- Node1&#45;&gt;Node4 -->
<g id="edge3_Node000001_Node000004" class="edge">
<title>Node1&#45;&gt;Node4</title>
<g id="a_edge3_Node000001_Node000004"><a xlink:title=" ">
<path fill="none" stroke="#63b8ff" d="M258.24,-191.46C230.08,-171.23 191.73,-137.38 178.5,-96 174.44,-83.3 173.11,-78.19 178.5,-66 184.97,-51.37 198.08,-39.18 209.87,-30.5"/>
<polygon fill="#63b8ff" stroke="#63b8ff" points="255.77,-194.7 265.97,-197.54 259.77,-188.96 255.77,-194.7"/>
</a>
</g>
</g>
<!-- Node5 -->
<g id="Node000005" class="node">
<title>Node5</title>
<g id="a_Node000005"><a xlink:href="ethernet_8h.html" target="_top" xlink:title=" ">
<polygon fill="white" stroke="#666666" points="542,-162 449,-162 449,-132 542,-132 542,-162"/>
<text text-anchor="start" x="457" y="-150" font-family="Helvetica,sans-Serif" font-size="10.00">include/kernel/net</text>
<text text-anchor="middle" x="495.5" y="-139" font-family="Helvetica,sans-Serif" font-size="10.00">/ethernet.h</text>
</a>
</g>
</g>
<!-- Node1&#45;&gt;Node5 -->
<g id="edge4_Node000001_Node000005" class="edge">
<title>Node1&#45;&gt;Node5</title>
<g id="a_edge4_Node000001_Node000005"><a xlink:title=" ">
<path fill="none" stroke="#63b8ff" d="M346.94,-194.38C379.17,-184.32 419.07,-171.86 449.41,-162.39"/>
<polygon fill="#63b8ff" stroke="#63b8ff" points="346.26,-191.24 337.76,-197.56 348.35,-197.92 346.26,-191.24"/>
</a>
</g>
</g>
<!-- Node6 -->
<g id="Node000006" class="node">
<title>Node6</title>
<g id="a_Node000006"><a xlink:href="icmpv4_8h.html" target="_top" xlink:title=" ">
<polygon fill="white" stroke="#666666" points="392,-96 299,-96 299,-66 392,-66 392,-96"/>
<text text-anchor="start" x="307" y="-84" font-family="Helvetica,sans-Serif" font-size="10.00">include/kernel/net</text>
<text text-anchor="middle" x="345.5" y="-73" font-family="Helvetica,sans-Serif" font-size="10.00">/icmpv4.h</text>
</a>
</g>
</g>
<!-- Node1&#45;&gt;Node6 -->
<g id="edge5_Node000001_Node000006" class="edge">
<title>Node1&#45;&gt;Node6</title>
<g id="a_edge5_Node000001_Node000006"><a xlink:title=" ">
<path fill="none" stroke="#63b8ff" d="M323.1,-190.94C332.44,-183.09 341.44,-173.29 346.5,-162 356.04,-140.7 352.63,-112.9 349.15,-96.31"/>
<polygon fill="#63b8ff" stroke="#63b8ff" points="321.29,-188.69 315.54,-197.59 325.59,-194.22 321.29,-188.69"/>
</a>
</g>
</g>
<!-- Node7 -->
<g id="Node000007" class="node">
<title>Node7</title>
<g id="a_Node000007"><a xlink:href="ipv4_8h.html" target="_top" xlink:title=" ">
<polygon fill="white" stroke="#666666" points="337,-162 244,-162 244,-132 337,-132 337,-162"/>
<text text-anchor="start" x="252" y="-150" font-family="Helvetica,sans-Serif" font-size="10.00">include/kernel/net</text>
<text text-anchor="middle" x="290.5" y="-139" font-family="Helvetica,sans-Serif" font-size="10.00">/ipv4.h</text>
</a>
</g>
</g>
<!-- Node1&#45;&gt;Node7 -->
<g id="edge6_Node000001_Node000007" class="edge">
<title>Node1&#45;&gt;Node7</title>
<g id="a_edge6_Node000001_Node000007"><a xlink:title=" ">
<path fill="none" stroke="#63b8ff" d="M290.5,-186.97C290.5,-178.55 290.5,-169.45 290.5,-162.16"/>
<polygon fill="#63b8ff" stroke="#63b8ff" points="287,-186.8 290.5,-196.8 294,-186.8 287,-186.8"/>
</a>
</g>
</g>
<!-- Node8 -->
<g id="Node000008" class="node">
<title>Node8</title>
<g id="a_Node000008"><a xlink:href="udp_8h.html" target="_top" xlink:title=" ">
<polygon fill="white" stroke="#666666" points="281,-96 188,-96 188,-66 281,-66 281,-96"/>
<text text-anchor="start" x="196" y="-84" font-family="Helvetica,sans-Serif" font-size="10.00">include/kernel/net</text>
<text text-anchor="middle" x="234.5" y="-73" font-family="Helvetica,sans-Serif" font-size="10.00">/udp.h</text>
</a>
</g>
</g>
<!-- Node1&#45;&gt;Node8 -->
<g id="edge13_Node000001_Node000008" class="edge">
<title>Node1&#45;&gt;Node8</title>
<g id="a_edge13_Node000001_Node000008"><a xlink:title=" ">
<path fill="none" stroke="#63b8ff" d="M258.77,-190.99C249.53,-183.09 240.57,-173.26 235.5,-162 225.93,-140.72 228.49,-112.92 231.38,-96.32"/>
<polygon fill="#63b8ff" stroke="#63b8ff" points="256.22,-194.22 266.23,-197.68 260.56,-188.73 256.22,-194.22"/>
</a>
</g>
</g>
<!-- Node9 -->
<g id="Node000009" class="node">
<title>Node9</title>
<g id="a_Node000009"><a xlink:href="ntp_8h.html" target="_top" xlink:title=" ">
<polygon fill="white" stroke="#666666" points="429,-30 336,-30 336,0 429,0 429,-30"/>
<text text-anchor="start" x="344" y="-18" font-family="Helvetica,sans-Serif" font-size="10.00">include/kernel/net</text>
<text text-anchor="middle" x="382.5" y="-7" font-family="Helvetica,sans-Serif" font-size="10.00">/ntp.h</text>
</a>
</g>
</g>
<!-- Node1&#45;&gt;Node9 -->
<g id="edge12_Node000001_Node000009" class="edge">
<title>Node1&#45;&gt;Node9</title>
<g id="a_edge12_Node000001_Node000009"><a xlink:title=" ">
<path fill="none" stroke="#63b8ff" d="M326.35,-192.02C339.06,-183.82 352.84,-173.53 363.5,-162 386.48,-137.15 392.76,-128.7 401.5,-96 407.62,-73.11 397.81,-46.27 390.16,-30.22"/>
<polygon fill="#63b8ff" stroke="#63b8ff" points="324.99,-189.37 318.34,-197.62 328.68,-195.32 324.99,-189.37"/>
</a>
</g>
</g>
<!-- Node10 -->
<g id="Node000010" class="node">
<title>Node10</title>
<g id="a_Node000010"><a xlink:href="rtl8139_8h.html" target="_top" xlink:title=" ">
<polygon fill="white" stroke="#666666" points="665,-162 560,-162 560,-132 665,-132 665,-162"/>
<text text-anchor="start" x="568" y="-150" font-family="Helvetica,sans-Serif" font-size="10.00">src/kernel/arch/x86</text>
<text text-anchor="middle" x="612.5" y="-139" font-family="Helvetica,sans-Serif" font-size="10.00">_64/drivers/rtl8139.h</text>
</a>
</g>
</g>
<!-- Node1&#45;&gt;Node10 -->
<g id="edge14_Node000001_Node000010" class="edge">
<title>Node1&#45;&gt;Node10</title>
<g id="a_edge14_Node000001_Node000010"><a xlink:title=" ">
<path fill="none" stroke="#63b8ff" d="M347.82,-201.64C400.78,-191.92 481.6,-176.71 551.5,-162 554.16,-161.44 556.88,-160.86 559.62,-160.26"/>
<polygon fill="#63b8ff" stroke="#63b8ff" points="347.48,-198.32 338.28,-203.57 348.75,-205.21 347.48,-198.32"/>
</a>
</g>
</g>
<!-- Node7&#45;&gt;Node6 -->
<g id="edge7_Node000007_Node000006" class="edge">
<title>Node7&#45;&gt;Node6</title>
<g id="a_edge7_Node000007_Node000006"><a xlink:title=" ">
<path fill="none" stroke="#63b8ff" d="M309.81,-123.53C317.63,-114.43 326.43,-104.19 333.33,-96.16"/>
<polygon fill="#63b8ff" stroke="#63b8ff" points="306.57,-120.93 302.71,-130.8 311.88,-125.49 306.57,-120.93"/>
</a>
</g>
</g>
<!-- Node7&#45;&gt;Node8 -->
<g id="edge8_Node000007_Node000008" class="edge">
<title>Node7&#45;&gt;Node8</title>
<g id="a_edge8_Node000007_Node000008"><a xlink:title=" ">
<path fill="none" stroke="#63b8ff" d="M270.84,-123.53C262.87,-114.43 253.92,-104.19 246.89,-96.16"/>
<polygon fill="#63b8ff" stroke="#63b8ff" points="268.85,-125.58 278.07,-130.8 274.12,-120.97 268.85,-125.58"/>
</a>
</g>
</g>
<!-- Node8&#45;&gt;Node3 -->
<g id="edge9_Node000008_Node000003" class="edge">
<title>Node8&#45;&gt;Node3</title>
<g id="a_edge9_Node000008_Node000003"><a xlink:title=" ">
<path fill="none" stroke="#63b8ff" d="M199.82,-60.18C182.91,-50.52 162.95,-39.12 147.55,-30.31"/>
<polygon fill="#63b8ff" stroke="#63b8ff" points="197.95,-63.71 208.37,-65.64 201.42,-57.64 197.95,-63.71"/>
</a>
</g>
</g>
<!-- Node8&#45;&gt;Node4 -->
<g id="edge10_Node000008_Node000004" class="edge">
<title>Node8&#45;&gt;Node4</title>
<g id="a_edge10_Node000008_Node000004"><a xlink:title=" ">
<path fill="none" stroke="#63b8ff" d="M234.11,-54.97C233.98,-46.55 233.84,-37.45 233.72,-30.16"/>
<polygon fill="#63b8ff" stroke="#63b8ff" points="230.62,-54.85 234.28,-64.8 237.62,-54.74 230.62,-54.85"/>
</a>
</g>
</g>
<!-- Node8&#45;&gt;Node9 -->
<g id="edge11_Node000008_Node000009" class="edge">
<title>Node8&#45;&gt;Node9</title>
<g id="a_edge11_Node000008_Node000009"><a xlink:title=" ">
<path fill="none" stroke="#63b8ff" d="M277.8,-61.27C300.57,-51.43 328.05,-39.55 349.14,-30.43"/>
<polygon fill="#63b8ff" stroke="#63b8ff" points="276.5,-58.46 268.71,-65.64 279.28,-64.88 276.5,-58.46"/>
</a>
</g>
</g>
</g>
</svg>
