<?xml version="1.0" encoding="UTF-8" standalone="no"?>
<!DOCTYPE svg PUBLIC "-//W3C//DTD SVG 1.1//EN"
 "http://www.w3.org/Graphics/SVG/1.1/DTD/svg11.dtd">
<!-- Generated by graphviz version 3.0.0 (20220226.1711)
 -->
<!-- Title: include/kernel/net/net.h Pages: 1 -->
<svg width="673pt" height="240pt"
 viewBox="0.00 0.00 673.00 240.00" xmlns="http://www.w3.org/2000/svg" xmlns:xlink="http://www.w3.org/1999/xlink">
<g id="graph0" class="graph" transform="scale(1 1) rotate(0) translate(4 236)">
<title>include/kernel/net/net.h</title>
<!-- Node1 -->
<g id="node1" class="node">
<title>Node1</title>
<g id="a_node1"><a xlink:title="This module defines network interfaces and drivers.">
<polygon fill="#bfbfbf" stroke="black" points="244,-201.5 244,-231.5 337,-231.5 337,-201.5 244,-201.5"/>
<text text-anchor="start" x="252" y="-219.5" font-family="Helvetica,sans-Serif" font-size="10.00">include/kernel/net</text>
<text text-anchor="middle" x="290.5" y="-208.5" font-family="Helvetica,sans-Serif" font-size="10.00">/net.h</text>
</a>
</g>
</g>
<!-- Node2 -->
<g id="node2" class="node">
<title>Node2</title>
<g id="a_node2"><a xlink:href="arp_8h.html" target="_top" xlink:title=" ">
<polygon fill="none" stroke="black" points="0,-134.5 0,-164.5 93,-164.5 93,-134.5 0,-134.5"/>
<text text-anchor="start" x="8" y="-152.5" font-family="Helvetica,sans-Serif" font-size="10.00">include/kernel/net</text>
<text text-anchor="middle" x="46.5" y="-141.5" font-family="Helvetica,sans-Serif" font-size="10.00">/arp.h</text>
</a>
</g>
</g>
<!-- Node1&#45;&gt;Node2 -->
<g id="edge1" class="edge">
<title>Node1&#45;&gt;Node2</title>
<path fill="none" stroke="midnightblue" d="M234.04,-200.46C191.28,-189.07 133.23,-173.61 93.1,-162.91"/>
<polygon fill="midnightblue" stroke="midnightblue" points="233.18,-203.85 243.74,-203.04 234.98,-197.09 233.18,-203.85"/>
</g>
<!-- Node3 -->
<g id="node3" class="node">
<title>Node3</title>
<g id="a_node3"><a xlink:href="dhcp_8h.html" target="_top" xlink:title=" ">
<polygon fill="none" stroke="black" points="76,-0.5 76,-30.5 169,-30.5 169,-0.5 76,-0.5"/>
<text text-anchor="start" x="84" y="-18.5" font-family="Helvetica,sans-Serif" font-size="10.00">include/kernel/net</text>
<text text-anchor="middle" x="122.5" y="-7.5" font-family="Helvetica,sans-Serif" font-size="10.00">/dhcp.h</text>
</a>
</g>
</g>
<!-- Node1&#45;&gt;Node3 -->
<g id="edge2" class="edge">
<title>Node1&#45;&gt;Node3</title>
<path fill="none" stroke="midnightblue" d="M240.36,-196.98C223.9,-189.05 206.52,-178.47 193.5,-165 154.57,-124.73 133.63,-59.07 125.96,-30.51"/>
<polygon fill="midnightblue" stroke="midnightblue" points="239.35,-200.37 249.9,-201.34 242.26,-194 239.35,-200.37"/>
</g>
<!-- Node4 -->
<g id="node4" class="node">
<title>Node4</title>
<g id="a_node4"><a xlink:href="dns_8h.html" target="_top" xlink:title=" ">
<polygon fill="none" stroke="black" points="187,-0.5 187,-30.5 280,-30.5 280,-0.5 187,-0.5"/>
<text text-anchor="start" x="195" y="-18.5" font-family="Helvetica,sans-Serif" font-size="10.00">include/kernel/net</text>
<text text-anchor="middle" x="233.5" y="-7.5" font-family="Helvetica,sans-Serif" font-size="10.00">/dns.h</text>
</a>
</g>
</g>
<!-- Node1&#45;&gt;Node4 -->
<g id="edge3" class="edge">
<title>Node1&#45;&gt;Node4</title>
<path fill="none" stroke="midnightblue" d="M259.55,-195.57C231.27,-175.13 191.88,-140.38 178.5,-98 174.35,-84.86 172.96,-79.61 178.5,-67 185.12,-51.93 198.71,-39.38 210.72,-30.56"/>
<polygon fill="midnightblue" stroke="midnightblue" points="257.74,-198.57 267.93,-201.45 261.76,-192.84 257.74,-198.57"/>
</g>
<!-- Node5 -->
<g id="node5" class="node">
<title>Node5</title>
<g id="a_node5"><a xlink:href="ethernet_8h.html" target="_top" xlink:title=" ">
<polygon fill="none" stroke="black" points="449,-134.5 449,-164.5 542,-164.5 542,-134.5 449,-134.5"/>
<text text-anchor="start" x="457" y="-152.5" font-family="Helvetica,sans-Serif" font-size="10.00">include/kernel/net</text>
<text text-anchor="middle" x="495.5" y="-141.5" font-family="Helvetica,sans-Serif" font-size="10.00">/ethernet.h</text>
</a>
</g>
</g>
<!-- Node1&#45;&gt;Node5 -->
<g id="edge4" class="edge">
<title>Node1&#45;&gt;Node5</title>
<path fill="none" stroke="midnightblue" d="M344.29,-198.44C377.52,-187.91 419.65,-174.55 451,-164.61"/>
<polygon fill="midnightblue" stroke="midnightblue" points="343.2,-195.12 334.73,-201.48 345.32,-201.79 343.2,-195.12"/>
</g>
<!-- Node6 -->
<g id="node6" class="node">
<title>Node6</title>
<g id="a_node6"><a xlink:href="icmpv4_8h.html" target="_top" xlink:title=" ">
<polygon fill="none" stroke="black" points="299,-67.5 299,-97.5 392,-97.5 392,-67.5 299,-67.5"/>
<text text-anchor="start" x="307" y="-85.5" font-family="Helvetica,sans-Serif" font-size="10.00">include/kernel/net</text>
<text text-anchor="middle" x="345.5" y="-74.5" font-family="Helvetica,sans-Serif" font-size="10.00">/icmpv4.h</text>
</a>
</g>
</g>
<!-- Node1&#45;&gt;Node6 -->
<g id="edge5" class="edge">
<title>Node1&#45;&gt;Node6</title>
<path fill="none" stroke="midnightblue" d="M322.08,-195.04C331.77,-186.96 341.26,-176.77 346.5,-165 356.22,-143.15 352.67,-114.63 349.14,-97.77"/>
<polygon fill="midnightblue" stroke="midnightblue" points="319.73,-192.43 313.97,-201.32 324.02,-197.96 319.73,-192.43"/>
</g>
<!-- Node7 -->
<g id="node7" class="node">
<title>Node7</title>
<g id="a_node7"><a xlink:href="ipv4_8h.html" target="_top" xlink:title=" ">
<polygon fill="none" stroke="black" points="244,-134.5 244,-164.5 337,-164.5 337,-134.5 244,-134.5"/>
<text text-anchor="start" x="252" y="-152.5" font-family="Helvetica,sans-Serif" font-size="10.00">include/kernel/net</text>
<text text-anchor="middle" x="290.5" y="-141.5" font-family="Helvetica,sans-Serif" font-size="10.00">/ipv4.h</text>
</a>
</g>
</g>
<!-- Node1&#45;&gt;Node7 -->
<g id="edge6" class="edge">
<title>Node1&#45;&gt;Node7</title>
<path fill="none" stroke="midnightblue" d="M290.5,-191.11C290.5,-182.15 290.5,-172.32 290.5,-164.58"/>
<polygon fill="midnightblue" stroke="midnightblue" points="287,-191.4 290.5,-201.4 294,-191.4 287,-191.4"/>
</g>
<!-- Node8 -->
<g id="node8" class="node">
<title>Node8</title>
<g id="a_node8"><a xlink:href="udp_8h.html" target="_top" xlink:title=" ">
<polygon fill="none" stroke="black" points="188,-67.5 188,-97.5 281,-97.5 281,-67.5 188,-67.5"/>
<text text-anchor="start" x="196" y="-85.5" font-family="Helvetica,sans-Serif" font-size="10.00">include/kernel/net</text>
<text text-anchor="middle" x="234.5" y="-74.5" font-family="Helvetica,sans-Serif" font-size="10.00">/udp.h</text>
</a>
</g>
</g>
<!-- Node1&#45;&gt;Node8 -->
<g id="edge13" class="edge">
<title>Node1&#45;&gt;Node8</title>
<path fill="none" stroke="midnightblue" d="M259.78,-195.09C250.19,-186.97 240.75,-176.74 235.5,-165 225.75,-143.17 228.43,-114.64 231.39,-97.78"/>
<polygon fill="midnightblue" stroke="midnightblue" points="257.77,-197.96 267.79,-201.4 262.11,-192.46 257.77,-197.96"/>
</g>
<!-- Node9 -->
<g id="node9" class="node">
<title>Node9</title>
<g id="a_node9"><a xlink:href="ntp_8h.html" target="_top" xlink:title=" ">
<polygon fill="none" stroke="black" points="336,-0.5 336,-30.5 429,-30.5 429,-0.5 336,-0.5"/>
<text text-anchor="start" x="344" y="-18.5" font-family="Helvetica,sans-Serif" font-size="10.00">include/kernel/net</text>
<text text-anchor="middle" x="382.5" y="-7.5" font-family="Helvetica,sans-Serif" font-size="10.00">/ntp.h</text>
</a>
</g>
</g>
<!-- Node1&#45;&gt;Node9 -->
<g id="edge12" class="edge">
<title>Node1&#45;&gt;Node9</title>
<path fill="none" stroke="midnightblue" d="M325.4,-195.94C338.39,-187.54 352.6,-176.92 363.5,-165 386.6,-139.74 392.77,-131.1 401.5,-98 407.69,-74.54 397.72,-47.01 390.04,-30.7"/>
<polygon fill="midnightblue" stroke="midnightblue" points="323.31,-193.12 316.67,-201.38 327.01,-199.06 323.31,-193.12"/>
</g>
<!-- Node10 -->
<g id="node10" class="node">
<title>Node10</title>
<g id="a_node10"><a xlink:href="rtl8139_8h.html" target="_top" xlink:title=" ">
<polygon fill="none" stroke="black" points="560,-134.5 560,-164.5 665,-164.5 665,-134.5 560,-134.5"/>
<text text-anchor="start" x="568" y="-152.5" font-family="Helvetica,sans-Serif" font-size="10.00">src/kernel/arch/x86</text>
<text text-anchor="middle" x="612.5" y="-141.5" font-family="Helvetica,sans-Serif" font-size="10.00">_64/drivers/rtl8139.h</text>
</a>
</g>
</g>
<!-- Node1&#45;&gt;Node10 -->
<g id="edge14" class="edge">
<title>Node1&#45;&gt;Node10</title>
<path fill="none" stroke="midnightblue" d="M347.17,-205.25C400.14,-195.5 481.35,-180.12 551.5,-165 554.27,-164.4 557.1,-163.78 559.96,-163.14"/>
<polygon fill="midnightblue" stroke="midnightblue" points="346.5,-201.81 337.3,-207.06 347.76,-208.7 346.5,-201.81"/>
</g>
<!-- Node7&#45;&gt;Node6 -->
<g id="edge7" class="edge">
<title>Node7&#45;&gt;Node6</title>
<path fill="none" stroke="midnightblue" d="M308.92,-126.74C317.05,-117.12 326.39,-106.09 333.59,-97.58"/>
<polygon fill="midnightblue" stroke="midnightblue" points="306.22,-124.5 302.43,-134.4 311.57,-129.02 306.22,-124.5"/>
</g>
<!-- Node7&#45;&gt;Node8 -->
<g id="edge8" class="edge">
<title>Node7&#45;&gt;Node8</title>
<path fill="none" stroke="midnightblue" d="M271.75,-126.74C263.46,-117.12 253.96,-106.09 246.63,-97.58"/>
<polygon fill="midnightblue" stroke="midnightblue" points="269.17,-129.1 278.35,-134.4 274.47,-124.54 269.17,-129.1"/>
</g>
<!-- Node8&#45;&gt;Node3 -->
<g id="edge9" class="edge">
<title>Node8&#45;&gt;Node3</title>
<path fill="none" stroke="midnightblue" d="M201.41,-62.3C183.88,-52.12 162.74,-39.85 146.75,-30.58"/>
<polygon fill="midnightblue" stroke="midnightblue" points="199.79,-65.4 210.2,-67.4 203.31,-59.35 199.79,-65.4"/>
</g>
<!-- Node8&#45;&gt;Node4 -->
<g id="edge10" class="edge">
<title>Node8&#45;&gt;Node4</title>
<path fill="none" stroke="midnightblue" d="M234.12,-57.11C233.99,-48.15 233.84,-38.32 233.72,-30.58"/>
<polygon fill="midnightblue" stroke="midnightblue" points="230.63,-57.45 234.28,-67.4 237.63,-57.34 230.63,-57.45"/>
</g>
<!-- Node8&#45;&gt;Node9 -->
<g id="edge11" class="edge">
<title>Node8&#45;&gt;Node9</title>
<path fill="none" stroke="midnightblue" d="M276.01,-63.27C299.58,-52.92 328.64,-40.15 350.45,-30.58"/>
<polygon fill="midnightblue" stroke="midnightblue" points="274.36,-60.17 266.61,-67.4 277.18,-66.58 274.36,-60.17"/>
</g>
</g>
</svg>
