<?xml version="1.0" encoding="UTF-8" standalone="no"?>
<!DOCTYPE svg PUBLIC "-//W3C//DTD SVG 1.1//EN"
 "http://www.w3.org/Graphics/SVG/1.1/DTD/svg11.dtd">
<!-- Generated by graphviz version 9.0.0 (20230911.1827)
 -->
<!-- Title: include/kernel/net/net.h Pages: 1 -->
<svg width="669pt" height="238pt"
 viewBox="0.00 0.00 668.50 238.00" xmlns="http://www.w3.org/2000/svg" xmlns:xlink="http://www.w3.org/1999/xlink">
<g id="graph0" class="graph" transform="scale(1 1) rotate(0) translate(4 234)">
<title>include/kernel/net/net.h</title>
<!-- Node1 -->
<g id="Node000001" class="node">
<title>Node1</title>
<g id="a_Node000001"><a xlink:title="This module defines network interfaces and drivers.">
<polygon fill="#999999" stroke="#666666" points="334.5,-230 242,-230 242,-199.5 334.5,-199.5 334.5,-230"/>
<text text-anchor="start" x="250" y="-216.5" font-family="Helvetica,sans-Serif" font-size="10.00">include/kernel/net</text>
<text text-anchor="middle" x="288.25" y="-205.25" font-family="Helvetica,sans-Serif" font-size="10.00">/net.h</text>
</a>
</g>
</g>
<!-- Node2 -->
<g id="Node000002" class="node">
<title>Node2</title>
<g id="a_Node000002"><a xlink:href="arp_8h.html" target="_top" xlink:title=" ">
<polygon fill="white" stroke="#666666" points="92.5,-163.5 0,-163.5 0,-133 92.5,-133 92.5,-163.5"/>
<text text-anchor="start" x="8" y="-150" font-family="Helvetica,sans-Serif" font-size="10.00">include/kernel/net</text>
<text text-anchor="middle" x="46.25" y="-138.75" font-family="Helvetica,sans-Serif" font-size="10.00">/arp.h</text>
</a>
</g>
</g>
<!-- Node1&#45;&gt;Node2 -->
<g id="edge1_Node000001_Node000002" class="edge">
<title>Node1&#45;&gt;Node2</title>
<g id="a_edge1_Node000001_Node000002"><a xlink:title=" ">
<path fill="none" stroke="#63b8ff" d="M230.66,-198.4C188.51,-187.17 132.06,-172.12 92.77,-161.65"/>
<polygon fill="#63b8ff" stroke="#63b8ff" points="229.56,-201.73 240.13,-200.92 231.37,-194.97 229.56,-201.73"/>
</a>
</g>
</g>
<!-- Node3 -->
<g id="Node000003" class="node">
<title>Node3</title>
<g id="a_Node000003"><a xlink:href="dhcp_8h.html" target="_top" xlink:title=" ">
<polygon fill="white" stroke="#666666" points="166.5,-30.5 74,-30.5 74,0 166.5,0 166.5,-30.5"/>
<text text-anchor="start" x="82" y="-17" font-family="Helvetica,sans-Serif" font-size="10.00">include/kernel/net</text>
<text text-anchor="middle" x="120.25" y="-5.75" font-family="Helvetica,sans-Serif" font-size="10.00">/dhcp.h</text>
</a>
</g>
</g>
<!-- Node1&#45;&gt;Node3 -->
<g id="edge2_Node000001_Node000003" class="edge">
<title>Node1&#45;&gt;Node3</title>
<g id="a_edge2_Node000001_Node000003"><a xlink:title=" ">
<path fill="none" stroke="#63b8ff" d="M237.54,-194.23C221.94,-186.42 205.64,-176.22 193.25,-163.5 154.63,-123.85 132.62,-59.73 124.22,-31"/>
<polygon fill="#63b8ff" stroke="#63b8ff" points="235.74,-197.25 246.27,-198.36 238.73,-190.92 235.74,-197.25"/>
</a>
</g>
</g>
<!-- Node4 -->
<g id="Node000004" class="node">
<title>Node4</title>
<g id="a_Node000004"><a xlink:href="dns_8h.html" target="_top" xlink:title=" ">
<polygon fill="white" stroke="#666666" points="277.5,-30.5 185,-30.5 185,0 277.5,0 277.5,-30.5"/>
<text text-anchor="start" x="193" y="-17" font-family="Helvetica,sans-Serif" font-size="10.00">include/kernel/net</text>
<text text-anchor="middle" x="231.25" y="-5.75" font-family="Helvetica,sans-Serif" font-size="10.00">/dns.h</text>
</a>
</g>
</g>
<!-- Node1&#45;&gt;Node4 -->
<g id="edge3_Node000001_Node000004" class="edge">
<title>Node1&#45;&gt;Node4</title>
<g id="a_edge3_Node000001_Node000004"><a xlink:title=" ">
<path fill="none" stroke="#63b8ff" d="M255.83,-192.71C227.91,-172.25 190.13,-138.26 177.25,-97 173.21,-84.06 171.84,-78.93 177.25,-66.5 183.59,-51.94 196.46,-39.7 208.04,-30.94"/>
<polygon fill="#63b8ff" stroke="#63b8ff" points="253.45,-195.32 263.64,-198.25 257.5,-189.61 253.45,-195.32"/>
</a>
</g>
</g>
<!-- Node5 -->
<g id="Node000005" class="node">
<title>Node5</title>
<g id="a_Node000005"><a xlink:href="ethernet_8h.html" target="_top" xlink:title=" ">
<polygon fill="white" stroke="#666666" points="537.5,-163.5 445,-163.5 445,-133 537.5,-133 537.5,-163.5"/>
<text text-anchor="start" x="453" y="-150" font-family="Helvetica,sans-Serif" font-size="10.00">include/kernel/net</text>
<text text-anchor="middle" x="491.25" y="-138.75" font-family="Helvetica,sans-Serif" font-size="10.00">/ethernet.h</text>
</a>
</g>
</g>
<!-- Node1&#45;&gt;Node5 -->
<g id="edge4_Node000001_Node000005" class="edge">
<title>Node1&#45;&gt;Node5</title>
<g id="a_edge4_Node000001_Node000005"><a xlink:title=" ">
<path fill="none" stroke="#63b8ff" d="M345.4,-195.59C376.92,-185.58 415.55,-173.3 445.13,-163.9"/>
<polygon fill="#63b8ff" stroke="#63b8ff" points="344.48,-192.21 336.01,-198.57 346.6,-198.88 344.48,-192.21"/>
</a>
</g>
</g>
<!-- Node6 -->
<g id="Node000006" class="node">
<title>Node6</title>
<g id="a_Node000006"><a xlink:href="icmpv4_8h.html" target="_top" xlink:title=" ">
<polygon fill="white" stroke="#666666" points="389.5,-97 297,-97 297,-66.5 389.5,-66.5 389.5,-97"/>
<text text-anchor="start" x="305" y="-83.5" font-family="Helvetica,sans-Serif" font-size="10.00">include/kernel/net</text>
<text text-anchor="middle" x="343.25" y="-72.25" font-family="Helvetica,sans-Serif" font-size="10.00">/icmpv4.h</text>
</a>
</g>
</g>
<!-- Node1&#45;&gt;Node6 -->
<g id="edge5_Node000001_Node000006" class="edge">
<title>Node1&#45;&gt;Node6</title>
<g id="a_edge5_Node000001_Node000006"><a xlink:title=" ">
<path fill="none" stroke="#63b8ff" d="M320.85,-191.96C329.81,-184.15 338.4,-174.51 343.25,-163.5 352.69,-142.08 349.82,-114.24 346.67,-97.48"/>
<polygon fill="#63b8ff" stroke="#63b8ff" points="318.67,-189.22 313.06,-198.21 323.05,-194.68 318.67,-189.22"/>
</a>
</g>
</g>
<!-- Node7 -->
<g id="Node000007" class="node">
<title>Node7</title>
<g id="a_Node000007"><a xlink:href="ipv4_8h.html" target="_top" xlink:title=" ">
<polygon fill="white" stroke="#666666" points="334.5,-163.5 242,-163.5 242,-133 334.5,-133 334.5,-163.5"/>
<text text-anchor="start" x="250" y="-150" font-family="Helvetica,sans-Serif" font-size="10.00">include/kernel/net</text>
<text text-anchor="middle" x="288.25" y="-138.75" font-family="Helvetica,sans-Serif" font-size="10.00">/ipv4.h</text>
</a>
</g>
</g>
<!-- Node1&#45;&gt;Node7 -->
<g id="edge6_Node000001_Node000007" class="edge">
<title>Node1&#45;&gt;Node7</title>
<g id="a_edge6_Node000001_Node000007"><a xlink:title=" ">
<path fill="none" stroke="#63b8ff" d="M288.25,-187.81C288.25,-179.64 288.25,-170.91 288.25,-163.83"/>
<polygon fill="#63b8ff" stroke="#63b8ff" points="284.75,-187.6 288.25,-197.6 291.75,-187.6 284.75,-187.6"/>
</a>
</g>
</g>
<!-- Node8 -->
<g id="Node000008" class="node">
<title>Node8</title>
<g id="a_Node000008"><a xlink:href="udp_8h.html" target="_top" xlink:title=" ">
<polygon fill="white" stroke="#666666" points="278.5,-97 186,-97 186,-66.5 278.5,-66.5 278.5,-97"/>
<text text-anchor="start" x="194" y="-83.5" font-family="Helvetica,sans-Serif" font-size="10.00">include/kernel/net</text>
<text text-anchor="middle" x="232.25" y="-72.25" font-family="Helvetica,sans-Serif" font-size="10.00">/udp.h</text>
</a>
</g>
</g>
<!-- Node1&#45;&gt;Node8 -->
<g id="edge13_Node000001_Node000008" class="edge">
<title>Node1&#45;&gt;Node8</title>
<g id="a_edge13_Node000001_Node000008"><a xlink:title=" ">
<path fill="none" stroke="#63b8ff" d="M255.74,-191.93C246.77,-184.11 238.17,-174.48 233.25,-163.5 223.67,-142.13 226.16,-114.28 229.06,-97.5"/>
<polygon fill="#63b8ff" stroke="#63b8ff" points="253.53,-194.64 263.51,-198.17 257.91,-189.18 253.53,-194.64"/>
</a>
</g>
</g>
<!-- Node9 -->
<g id="Node000009" class="node">
<title>Node9</title>
<g id="a_Node000009"><a xlink:href="ntp_8h.html" target="_top" xlink:title=" ">
<polygon fill="white" stroke="#666666" points="425.5,-30.5 333,-30.5 333,0 425.5,0 425.5,-30.5"/>
<text text-anchor="start" x="341" y="-17" font-family="Helvetica,sans-Serif" font-size="10.00">include/kernel/net</text>
<text text-anchor="middle" x="379.25" y="-5.75" font-family="Helvetica,sans-Serif" font-size="10.00">/ntp.h</text>
</a>
</g>
</g>
<!-- Node1&#45;&gt;Node9 -->
<g id="edge12_Node000001_Node000009" class="edge">
<title>Node1&#45;&gt;Node9</title>
<g id="a_edge12_Node000001_Node000009"><a xlink:title=" ">
<path fill="none" stroke="#63b8ff" d="M324.63,-192.91C336.89,-184.77 350.03,-174.69 360.25,-163.5 383.21,-138.37 389.51,-129.9 398.25,-97 404.35,-74.03 394.69,-47.13 387.06,-30.9"/>
<polygon fill="#63b8ff" stroke="#63b8ff" points="322.9,-189.86 316.35,-198.19 326.66,-195.77 322.9,-189.86"/>
</a>
</g>
</g>
<!-- Node10 -->
<g id="Node000010" class="node">
<title>Node10</title>
<g id="a_Node000010"><a xlink:href="rtl8139_8h.html" target="_top" xlink:title=" ">
<polygon fill="white" stroke="#666666" points="660.5,-163.5 556,-163.5 556,-133 660.5,-133 660.5,-163.5"/>
<text text-anchor="start" x="564" y="-150" font-family="Helvetica,sans-Serif" font-size="10.00">src/kernel/arch/x86</text>
<text text-anchor="middle" x="608.25" y="-138.75" font-family="Helvetica,sans-Serif" font-size="10.00">_64/drivers/rtl8139.h</text>
</a>
</g>
</g>
<!-- Node1&#45;&gt;Node10 -->
<g id="edge14_Node000001_Node000010" class="edge">
<title>Node1&#45;&gt;Node10</title>
<g id="a_edge14_Node000001_Node000010"><a xlink:title=" ">
<path fill="none" stroke="#63b8ff" d="M346.03,-203.07C398.39,-193.26 477.63,-178.06 546.25,-163.5 549.28,-162.86 552.38,-162.19 555.51,-161.5"/>
<polygon fill="#63b8ff" stroke="#63b8ff" points="345.63,-199.58 336.44,-204.86 346.91,-206.47 345.63,-199.58"/>
</a>
</g>
</g>
<!-- Node7&#45;&gt;Node6 -->
<g id="edge7_Node000007_Node000006" class="edge">
<title>Node7&#45;&gt;Node6</title>
<g id="a_edge7_Node000007_Node000006"><a xlink:title=" ">
<path fill="none" stroke="#63b8ff" d="M307.96,-124.13C315.59,-115.19 324.08,-105.24 330.82,-97.33"/>
<polygon fill="#63b8ff" stroke="#63b8ff" points="305.54,-121.58 301.71,-131.46 310.86,-126.12 305.54,-121.58"/>
</a>
</g>
</g>
<!-- Node7&#45;&gt;Node8 -->
<g id="edge8_Node000007_Node000008" class="edge">
<title>Node7&#45;&gt;Node8</title>
<g id="a_edge8_Node000007_Node000008"><a xlink:title=" ">
<path fill="none" stroke="#63b8ff" d="M268.18,-124.13C260.42,-115.19 251.77,-105.24 244.91,-97.33"/>
<polygon fill="#63b8ff" stroke="#63b8ff" points="265.35,-126.21 274.55,-131.47 270.64,-121.63 265.35,-126.21"/>
</a>
</g>
</g>
<!-- Node8&#45;&gt;Node3 -->
<g id="edge9_Node000008_Node000003" class="edge">
<title>Node8&#45;&gt;Node3</title>
<g id="a_edge9_Node000008_Node000003"><a xlink:title=" ">
<path fill="none" stroke="#63b8ff" d="M196.89,-60.39C180.22,-50.79 160.72,-39.56 145.56,-30.83"/>
<polygon fill="#63b8ff" stroke="#63b8ff" points="195.11,-63.4 205.52,-65.36 198.6,-57.34 195.11,-63.4"/>
</a>
</g>
</g>
<!-- Node8&#45;&gt;Node4 -->
<g id="edge10_Node000008_Node000004" class="edge">
<title>Node8&#45;&gt;Node4</title>
<g id="a_edge10_Node000008_Node000004"><a xlink:title=" ">
<path fill="none" stroke="#63b8ff" d="M231.85,-54.81C231.72,-46.64 231.59,-37.91 231.48,-30.83"/>
<polygon fill="#63b8ff" stroke="#63b8ff" points="228.34,-54.66 232,-64.6 235.34,-54.55 228.34,-54.66"/>
</a>
</g>
</g>
<!-- Node8&#45;&gt;Node9 -->
<g id="edge11_Node000008_Node000009" class="edge">
<title>Node8&#45;&gt;Node9</title>
<g id="a_edge11_Node000008_Node000009"><a xlink:title=" ">
<path fill="none" stroke="#63b8ff" d="M275.86,-61.62C298.23,-51.8 325.05,-40.03 345.77,-30.94"/>
<polygon fill="#63b8ff" stroke="#63b8ff" points="274.74,-58.28 266.99,-65.51 277.56,-64.69 274.74,-58.28"/>
</a>
</g>
</g>
</g>
</svg>
