<?xml version="1.0" encoding="UTF-8" standalone="no"?>
<!DOCTYPE svg PUBLIC "-//W3C//DTD SVG 1.1//EN"
 "http://www.w3.org/Graphics/SVG/1.1/DTD/svg11.dtd">
<!-- Generated by graphviz version 8.0.2 (20230410.1723)
 -->
<!-- Title: include/kernel/net/net.h Pages: 1 -->
<svg width="673pt" height="240pt"
 viewBox="0.00 0.00 673.00 240.00" xmlns="http://www.w3.org/2000/svg" xmlns:xlink="http://www.w3.org/1999/xlink">
<g id="graph0" class="graph" transform="scale(1 1) rotate(0) translate(4 236)">
<title>include/kernel/net/net.h</title>
<!-- Node1 -->
<g id="node1" class="node">
<title>Node1</title>
<g id="a_node1"><a xlink:title="This module defines network interfaces and drivers.">
<polygon fill="#bfbfbf" stroke="black" points="244,-201.5 244,-231.5 337,-231.5 337,-201.5 244,-201.5"/>
<text text-anchor="start" x="252" y="-219.5" font-family="Helvetica,sans-Serif" font-size="10.00">include/kernel/net</text>
<text text-anchor="middle" x="290.5" y="-208.5" font-family="Helvetica,sans-Serif" font-size="10.00">/net.h</text>
</a>
</g>
</g>
<!-- Node2 -->
<g id="node2" class="node">
<title>Node2</title>
<g id="a_node2"><a xlink:href="arp_8h.html" target="_top" xlink:title=" ">
<polygon fill="none" stroke="black" points="0,-134.5 0,-164.5 93,-164.5 93,-134.5 0,-134.5"/>
<text text-anchor="start" x="8" y="-152.5" font-family="Helvetica,sans-Serif" font-size="10.00">include/kernel/net</text>
<text text-anchor="middle" x="46.5" y="-141.5" font-family="Helvetica,sans-Serif" font-size="10.00">/arp.h</text>
</a>
</g>
</g>
<!-- Node1&#45;&gt;Node2 -->
<g id="edge1" class="edge">
<title>Node1&#45;&gt;Node2</title>
<path fill="none" stroke="midnightblue" d="M233.49,-200.31C190.67,-188.91 132.77,-173.48 92.8,-162.83"/>
<polygon fill="midnightblue" stroke="midnightblue" points="232.47,-203.93 243.03,-203.12 234.27,-197.16 232.47,-203.93"/>
</g>
<!-- Node3 -->
<g id="node3" class="node">
<title>Node3</title>
<g id="a_node3"><a xlink:href="dhcp_8h.html" target="_top" xlink:title=" ">
<polygon fill="none" stroke="black" points="76,-0.5 76,-30.5 169,-30.5 169,-0.5 76,-0.5"/>
<text text-anchor="start" x="84" y="-18.5" font-family="Helvetica,sans-Serif" font-size="10.00">include/kernel/net</text>
<text text-anchor="middle" x="122.5" y="-7.5" font-family="Helvetica,sans-Serif" font-size="10.00">/dhcp.h</text>
</a>
</g>
</g>
<!-- Node1&#45;&gt;Node3 -->
<g id="edge2" class="edge">
<title>Node1&#45;&gt;Node3</title>
<path fill="none" stroke="midnightblue" d="M240.78,-197.18C224.2,-189.23 206.63,-178.58 193.5,-165 154.38,-124.52 133.42,-58.4 125.84,-30.08"/>
<polygon fill="midnightblue" stroke="midnightblue" points="238.83,-200.59 249.38,-201.55 241.73,-194.22 238.83,-200.59"/>
</g>
<!-- Node4 -->
<g id="node4" class="node">
<title>Node4</title>
<g id="a_node4"><a xlink:href="dns_8h.html" target="_top" xlink:title=" ">
<polygon fill="none" stroke="black" points="187,-0.5 187,-30.5 280,-30.5 280,-0.5 187,-0.5"/>
<text text-anchor="start" x="195" y="-18.5" font-family="Helvetica,sans-Serif" font-size="10.00">include/kernel/net</text>
<text text-anchor="middle" x="233.5" y="-7.5" font-family="Helvetica,sans-Serif" font-size="10.00">/dns.h</text>
</a>
</g>
</g>
<!-- Node1&#45;&gt;Node4 -->
<g id="edge3" class="edge">
<title>Node1&#45;&gt;Node4</title>
<path fill="none" stroke="midnightblue" d="M259.67,-195.66C231.38,-175.23 191.9,-140.44 178.5,-98 174.35,-84.86 172.96,-79.61 178.5,-67 185.18,-51.81 198.93,-39.18 211.01,-30.36"/>
<polygon fill="midnightblue" stroke="midnightblue" points="257.22,-198.91 267.42,-201.78 261.23,-193.18 257.22,-198.91"/>
</g>
<!-- Node5 -->
<g id="node5" class="node">
<title>Node5</title>
<g id="a_node5"><a xlink:href="ethernet_8h.html" target="_top" xlink:title=" ">
<polygon fill="none" stroke="black" points="449,-134.5 449,-164.5 542,-164.5 542,-134.5 449,-134.5"/>
<text text-anchor="start" x="457" y="-152.5" font-family="Helvetica,sans-Serif" font-size="10.00">include/kernel/net</text>
<text text-anchor="middle" x="495.5" y="-141.5" font-family="Helvetica,sans-Serif" font-size="10.00">/ethernet.h</text>
</a>
</g>
</g>
<!-- Node1&#45;&gt;Node5 -->
<g id="edge4" class="edge">
<title>Node1&#45;&gt;Node5</title>
<path fill="none" stroke="midnightblue" d="M344.54,-198.37C377.94,-187.77 420.27,-174.35 451.6,-164.42"/>
<polygon fill="midnightblue" stroke="midnightblue" points="343.95,-195.2 335.48,-201.56 346.07,-201.87 343.95,-195.2"/>
</g>
<!-- Node6 -->
<g id="node6" class="node">
<title>Node6</title>
<g id="a_node6"><a xlink:href="icmpv4_8h.html" target="_top" xlink:title=" ">
<polygon fill="none" stroke="black" points="299,-67.5 299,-97.5 392,-97.5 392,-67.5 299,-67.5"/>
<text text-anchor="start" x="307" y="-85.5" font-family="Helvetica,sans-Serif" font-size="10.00">include/kernel/net</text>
<text text-anchor="middle" x="345.5" y="-74.5" font-family="Helvetica,sans-Serif" font-size="10.00">/icmpv4.h</text>
</a>
</g>
</g>
<!-- Node1&#45;&gt;Node6 -->
<g id="edge5" class="edge">
<title>Node1&#45;&gt;Node6</title>
<path fill="none" stroke="midnightblue" d="M322.14,-194.99C331.81,-186.92 341.27,-176.75 346.5,-165 356.28,-143.02 352.63,-114.29 349.07,-97.47"/>
<polygon fill="midnightblue" stroke="midnightblue" points="320.45,-192.64 314.68,-201.53 324.73,-198.18 320.45,-192.64"/>
</g>
<!-- Node7 -->
<g id="node7" class="node">
<title>Node7</title>
<g id="a_node7"><a xlink:href="ipv4_8h.html" target="_top" xlink:title=" ">
<polygon fill="none" stroke="black" points="244,-134.5 244,-164.5 337,-164.5 337,-134.5 244,-134.5"/>
<text text-anchor="start" x="252" y="-152.5" font-family="Helvetica,sans-Serif" font-size="10.00">include/kernel/net</text>
<text text-anchor="middle" x="290.5" y="-141.5" font-family="Helvetica,sans-Serif" font-size="10.00">/ipv4.h</text>
</a>
</g>
</g>
<!-- Node1&#45;&gt;Node7 -->
<g id="edge6" class="edge">
<title>Node1&#45;&gt;Node7</title>
<path fill="none" stroke="midnightblue" d="M290.5,-190.97C290.5,-181.93 290.5,-172.02 290.5,-164.26"/>
<polygon fill="midnightblue" stroke="midnightblue" points="287,-190.72 290.5,-200.72 294,-190.72 287,-190.72"/>
</g>
<!-- Node8 -->
<g id="node8" class="node">
<title>Node8</title>
<g id="a_node8"><a xlink:href="udp_8h.html" target="_top" xlink:title=" ">
<polygon fill="none" stroke="black" points="188,-67.5 188,-97.5 281,-97.5 281,-67.5 188,-67.5"/>
<text text-anchor="start" x="196" y="-85.5" font-family="Helvetica,sans-Serif" font-size="10.00">include/kernel/net</text>
<text text-anchor="middle" x="234.5" y="-74.5" font-family="Helvetica,sans-Serif" font-size="10.00">/udp.h</text>
</a>
</g>
</g>
<!-- Node1&#45;&gt;Node8 -->
<g id="edge13" class="edge">
<title>Node1&#45;&gt;Node8</title>
<path fill="none" stroke="midnightblue" d="M259.72,-195.04C250.15,-186.92 240.73,-176.72 235.5,-165 225.69,-143.04 228.47,-114.3 231.44,-97.48"/>
<polygon fill="midnightblue" stroke="midnightblue" points="257.05,-198.18 267.08,-201.61 261.38,-192.68 257.05,-198.18"/>
</g>
<!-- Node9 -->
<g id="node9" class="node">
<title>Node9</title>
<g id="a_node9"><a xlink:href="ntp_8h.html" target="_top" xlink:title=" ">
<polygon fill="none" stroke="black" points="336,-0.5 336,-30.5 429,-30.5 429,-0.5 336,-0.5"/>
<text text-anchor="start" x="344" y="-18.5" font-family="Helvetica,sans-Serif" font-size="10.00">include/kernel/net</text>
<text text-anchor="middle" x="382.5" y="-7.5" font-family="Helvetica,sans-Serif" font-size="10.00">/ntp.h</text>
</a>
</g>
</g>
<!-- Node1&#45;&gt;Node9 -->
<g id="edge12" class="edge">
<title>Node1&#45;&gt;Node9</title>
<path fill="none" stroke="midnightblue" d="M325.48,-195.89C338.44,-187.5 352.62,-176.9 363.5,-165 386.6,-139.74 392.77,-131.1 401.5,-98 407.73,-74.4 397.6,-46.68 389.9,-30.4"/>
<polygon fill="midnightblue" stroke="midnightblue" points="323.96,-193.33 317.32,-201.59 327.66,-199.28 323.96,-193.33"/>
</g>
<!-- Node10 -->
<g id="node10" class="node">
<title>Node10</title>
<g id="a_node10"><a xlink:href="rtl8139_8h.html" target="_top" xlink:title=" ">
<polygon fill="none" stroke="black" points="560,-134.5 560,-164.5 665,-164.5 665,-134.5 560,-134.5"/>
<text text-anchor="start" x="568" y="-152.5" font-family="Helvetica,sans-Serif" font-size="10.00">src/kernel/arch/x86</text>
<text text-anchor="middle" x="612.5" y="-141.5" font-family="Helvetica,sans-Serif" font-size="10.00">_64/drivers/rtl8139.h</text>
</a>
</g>
</g>
<!-- Node1&#45;&gt;Node10 -->
<g id="edge14" class="edge">
<title>Node1&#45;&gt;Node10</title>
<path fill="none" stroke="midnightblue" d="M347.36,-205.21C400.32,-195.46 481.43,-180.1 551.5,-165 554.37,-164.38 557.32,-163.73 560.29,-163.06"/>
<polygon fill="midnightblue" stroke="midnightblue" points="347.03,-201.9 337.82,-207.15 348.29,-208.79 347.03,-201.9"/>
</g>
<!-- Node7&#45;&gt;Node6 -->
<g id="edge7" class="edge">
<title>Node7&#45;&gt;Node6</title>
<path fill="none" stroke="midnightblue" d="M309.24,-126.35C317.4,-116.71 326.71,-105.71 333.85,-97.26"/>
<polygon fill="midnightblue" stroke="midnightblue" points="305.95,-123.82 302.16,-133.72 311.3,-128.34 305.95,-123.82"/>
</g>
<!-- Node7&#45;&gt;Node8 -->
<g id="edge8" class="edge">
<title>Node7&#45;&gt;Node8</title>
<path fill="none" stroke="midnightblue" d="M271.67,-126.65C263.3,-116.93 253.71,-105.79 246.36,-97.26"/>
<polygon fill="midnightblue" stroke="midnightblue" points="269.45,-128.42 278.62,-133.72 274.75,-123.85 269.45,-128.42"/>
</g>
<!-- Node8&#45;&gt;Node3 -->
<g id="edge9" class="edge">
<title>Node8&#45;&gt;Node3</title>
<path fill="none" stroke="midnightblue" d="M201.14,-62.14C183.57,-51.94 162.42,-39.67 146.49,-30.42"/>
<polygon fill="midnightblue" stroke="midnightblue" points="199.07,-65.56 209.47,-67.56 202.58,-59.51 199.07,-65.56"/>
</g>
<!-- Node8&#45;&gt;Node4 -->
<g id="edge10" class="edge">
<title>Node8&#45;&gt;Node4</title>
<path fill="none" stroke="midnightblue" d="M234.12,-56.97C233.98,-47.93 233.83,-38.02 233.71,-30.26"/>
<polygon fill="midnightblue" stroke="midnightblue" points="230.63,-56.77 234.29,-66.72 237.63,-56.66 230.63,-56.77"/>
</g>
<!-- Node8&#45;&gt;Node9 -->
<g id="edge11" class="edge">
<title>Node8&#45;&gt;Node9</title>
<path fill="none" stroke="midnightblue" d="M276.03,-63.26C299.73,-52.85 328.96,-40.01 350.8,-30.42"/>
<polygon fill="midnightblue" stroke="midnightblue" points="275,-60.33 267.25,-67.56 277.81,-66.74 275,-60.33"/>
</g>
</g>
</svg>
