<?xml version="1.0" encoding="UTF-8" standalone="no"?>
<!DOCTYPE svg PUBLIC "-//W3C//DTD SVG 1.1//EN"
 "http://www.w3.org/Graphics/SVG/1.1/DTD/svg11.dtd">
<!-- Generated by graphviz version 2.49.3 (20211023.0002)
 -->
<!-- Title: include/kernel/net/net.h Pages: 1 -->
<svg width="610pt" height="240pt"
 viewBox="0.00 0.00 609.50 240.00" xmlns="http://www.w3.org/2000/svg" xmlns:xlink="http://www.w3.org/1999/xlink">
<g id="graph0" class="graph" transform="scale(1 1) rotate(0) translate(4 236)">
<title>include/kernel/net/net.h</title>
<!-- Node1 -->
<g id="node1" class="node">
<title>Node1</title>
<g id="a_node1"><a xlink:title="This module defines network interfaces and drivers.">
<polygon fill="#bfbfbf" stroke="black" points="228,-201.5 228,-231.5 323,-231.5 323,-201.5 228,-201.5"/>
<text text-anchor="start" x="236" y="-219.5" font-family="Helvetica,sans-Serif" font-size="10.00">include/kernel/net</text>
<text text-anchor="middle" x="275.5" y="-208.5" font-family="Helvetica,sans-Serif" font-size="10.00">/net.h</text>
</a>
</g>
</g>
<!-- Node2 -->
<g id="node2" class="node">
<title>Node2</title>
<g id="a_node2"><a xlink:href="arp_8h.html" target="_top" xlink:title=" ">
<polygon fill="none" stroke="black" points="0,-134.5 0,-164.5 95,-164.5 95,-134.5 0,-134.5"/>
<text text-anchor="start" x="8" y="-152.5" font-family="Helvetica,sans-Serif" font-size="10.00">include/kernel/net</text>
<text text-anchor="middle" x="47.5" y="-141.5" font-family="Helvetica,sans-Serif" font-size="10.00">/arp.h</text>
</a>
</g>
</g>
<!-- Node1&#45;&gt;Node2 -->
<g id="edge1" class="edge">
<title>Node1&#45;&gt;Node2</title>
<path fill="none" stroke="midnightblue" d="M218.11,-199.14C180.21,-188.33 131.13,-174.34 95.35,-164.14"/>
<polygon fill="midnightblue" stroke="midnightblue" points="217.4,-202.58 227.98,-201.95 219.32,-195.85 217.4,-202.58"/>
</g>
<!-- Node3 -->
<g id="node3" class="node">
<title>Node3</title>
<g id="a_node3"><a xlink:href="dhcp_8h.html" target="_top" xlink:title=" ">
<polygon fill="none" stroke="black" points="77,-0.5 77,-30.5 172,-30.5 172,-0.5 77,-0.5"/>
<text text-anchor="start" x="85" y="-18.5" font-family="Helvetica,sans-Serif" font-size="10.00">include/kernel/net</text>
<text text-anchor="middle" x="124.5" y="-7.5" font-family="Helvetica,sans-Serif" font-size="10.00">/dhcp.h</text>
</a>
</g>
</g>
<!-- Node1&#45;&gt;Node3 -->
<g id="edge2" class="edge">
<title>Node1&#45;&gt;Node3</title>
<path fill="none" stroke="midnightblue" d="M218.73,-197.45C201.93,-189.74 184.77,-179.16 172.5,-165 137.73,-124.86 128.07,-59.14 125.44,-30.53"/>
<polygon fill="midnightblue" stroke="midnightblue" points="217.42,-200.69 227.99,-201.44 220.2,-194.27 217.42,-200.69"/>
</g>
<!-- Node4 -->
<g id="node4" class="node">
<title>Node4</title>
<g id="a_node4"><a xlink:href="dns_8h.html" target="_top" xlink:title=" ">
<polygon fill="none" stroke="black" points="191,-0.5 191,-30.5 286,-30.5 286,-0.5 191,-0.5"/>
<text text-anchor="start" x="199" y="-18.5" font-family="Helvetica,sans-Serif" font-size="10.00">include/kernel/net</text>
<text text-anchor="middle" x="238.5" y="-7.5" font-family="Helvetica,sans-Serif" font-size="10.00">/dns.h</text>
</a>
</g>
</g>
<!-- Node1&#45;&gt;Node4 -->
<g id="edge3" class="edge">
<title>Node1&#45;&gt;Node4</title>
<path fill="none" stroke="midnightblue" d="M285.88,-191.96C297.6,-161.7 312.82,-108.18 294.5,-67 287.8,-51.93 274.13,-39.46 261.97,-30.68"/>
<polygon fill="midnightblue" stroke="midnightblue" points="282.61,-190.69 282.09,-201.27 289.1,-193.33 282.61,-190.69"/>
</g>
<!-- Node5 -->
<g id="node5" class="node">
<title>Node5</title>
<g id="a_node5"><a xlink:href="ethernet_8h.html" target="_top" xlink:title=" ">
<polygon fill="none" stroke="black" points="380,-134.5 380,-164.5 475,-164.5 475,-134.5 380,-134.5"/>
<text text-anchor="start" x="388" y="-152.5" font-family="Helvetica,sans-Serif" font-size="10.00">include/kernel/net</text>
<text text-anchor="middle" x="427.5" y="-141.5" font-family="Helvetica,sans-Serif" font-size="10.00">/ethernet.h</text>
</a>
</g>
</g>
<!-- Node1&#45;&gt;Node5 -->
<g id="edge4" class="edge">
<title>Node1&#45;&gt;Node5</title>
<path fill="none" stroke="midnightblue" d="M317.81,-197.41C342.08,-187.03 372.09,-174.2 394.58,-164.58"/>
<polygon fill="midnightblue" stroke="midnightblue" points="316.3,-194.25 308.48,-201.4 319.05,-200.68 316.3,-194.25"/>
</g>
<!-- Node6 -->
<g id="node6" class="node">
<title>Node6</title>
<g id="a_node6"><a xlink:href="ipv4_8h.html" target="_top" xlink:title=" ">
<polygon fill="none" stroke="black" points="190,-134.5 190,-164.5 285,-164.5 285,-134.5 190,-134.5"/>
<text text-anchor="start" x="198" y="-152.5" font-family="Helvetica,sans-Serif" font-size="10.00">include/kernel/net</text>
<text text-anchor="middle" x="237.5" y="-141.5" font-family="Helvetica,sans-Serif" font-size="10.00">/ipv4.h</text>
</a>
</g>
</g>
<!-- Node1&#45;&gt;Node6 -->
<g id="edge5" class="edge">
<title>Node1&#45;&gt;Node6</title>
<path fill="none" stroke="midnightblue" d="M262.1,-192.58C256.64,-183.24 250.51,-172.75 245.73,-164.58"/>
<polygon fill="midnightblue" stroke="midnightblue" points="259.19,-194.53 267.25,-201.4 265.23,-191 259.19,-194.53"/>
</g>
<!-- Node7 -->
<g id="node7" class="node">
<title>Node7</title>
<g id="a_node7"><a xlink:href="udp_8h.html" target="_top" xlink:title=" ">
<polygon fill="none" stroke="black" points="190,-67.5 190,-97.5 285,-97.5 285,-67.5 190,-67.5"/>
<text text-anchor="start" x="198" y="-85.5" font-family="Helvetica,sans-Serif" font-size="10.00">include/kernel/net</text>
<text text-anchor="middle" x="237.5" y="-74.5" font-family="Helvetica,sans-Serif" font-size="10.00">/udp.h</text>
</a>
</g>
</g>
<!-- Node1&#45;&gt;Node7 -->
<g id="edge11" class="edge">
<title>Node1&#45;&gt;Node7</title>
<path fill="none" stroke="midnightblue" d="M218.52,-197.58C203.56,-189.99 189.18,-179.45 180.5,-165 173.4,-153.19 174.85,-146.56 180.5,-134 187.34,-118.81 201.25,-106.34 213.62,-97.59"/>
<polygon fill="midnightblue" stroke="midnightblue" points="217.33,-200.88 227.87,-201.93 220.29,-194.54 217.33,-200.88"/>
</g>
<!-- Node8 -->
<g id="node8" class="node">
<title>Node8</title>
<g id="a_node8"><a xlink:href="ntp_8h.html" target="_top" xlink:title=" ">
<polygon fill="none" stroke="black" points="304,-0.5 304,-30.5 399,-30.5 399,-0.5 304,-0.5"/>
<text text-anchor="start" x="312" y="-18.5" font-family="Helvetica,sans-Serif" font-size="10.00">include/kernel/net</text>
<text text-anchor="middle" x="351.5" y="-7.5" font-family="Helvetica,sans-Serif" font-size="10.00">/ntp.h</text>
</a>
</g>
</g>
<!-- Node1&#45;&gt;Node8 -->
<g id="edge10" class="edge">
<title>Node1&#45;&gt;Node8</title>
<path fill="none" stroke="midnightblue" d="M294.02,-193.18C300.28,-184.76 306.86,-174.83 311.5,-165 333.51,-118.4 345.07,-57.66 349.42,-30.59"/>
<polygon fill="midnightblue" stroke="midnightblue" points="291.05,-191.29 287.69,-201.34 296.58,-195.58 291.05,-191.29"/>
</g>
<!-- Node9 -->
<g id="node9" class="node">
<title>Node9</title>
<g id="a_node9"><a xlink:href="rtl8139_8h.html" target="_top" xlink:title=" ">
<polygon fill="none" stroke="black" points="493.5,-134.5 493.5,-164.5 601.5,-164.5 601.5,-134.5 493.5,-134.5"/>
<text text-anchor="start" x="501.5" y="-152.5" font-family="Helvetica,sans-Serif" font-size="10.00">src/kernel/arch/x86</text>
<text text-anchor="middle" x="547.5" y="-141.5" font-family="Helvetica,sans-Serif" font-size="10.00">_64/drivers/rtl8139.h</text>
</a>
</g>
</g>
<!-- Node1&#45;&gt;Node9 -->
<g id="edge12" class="edge">
<title>Node1&#45;&gt;Node9</title>
<path fill="none" stroke="midnightblue" d="M332.98,-201.76C380.31,-190.45 446.92,-174.53 493.32,-163.45"/>
<polygon fill="midnightblue" stroke="midnightblue" points="332.1,-198.37 323.19,-204.1 333.73,-205.18 332.1,-198.37"/>
</g>
<!-- Node6&#45;&gt;Node7 -->
<g id="edge6" class="edge">
<title>Node6&#45;&gt;Node7</title>
<path fill="none" stroke="midnightblue" d="M237.5,-124.11C237.5,-115.15 237.5,-105.32 237.5,-97.58"/>
<polygon fill="midnightblue" stroke="midnightblue" points="234,-124.4 237.5,-134.4 241,-124.4 234,-124.4"/>
</g>
<!-- Node7&#45;&gt;Node3 -->
<g id="edge7" class="edge">
<title>Node7&#45;&gt;Node3</title>
<path fill="none" stroke="midnightblue" d="M204.11,-62.3C186.43,-52.12 165.1,-39.85 148.97,-30.58"/>
<polygon fill="midnightblue" stroke="midnightblue" points="202.57,-65.44 212.98,-67.4 206.06,-59.38 202.57,-65.44"/>
</g>
<!-- Node7&#45;&gt;Node4 -->
<g id="edge8" class="edge">
<title>Node7&#45;&gt;Node4</title>
<path fill="none" stroke="midnightblue" d="M237.88,-57.11C238.01,-48.15 238.16,-38.32 238.28,-30.58"/>
<polygon fill="midnightblue" stroke="midnightblue" points="234.37,-57.34 237.72,-67.4 241.37,-57.45 234.37,-57.34"/>
</g>
<!-- Node7&#45;&gt;Node8 -->
<g id="edge9" class="edge">
<title>Node7&#45;&gt;Node8</title>
<path fill="none" stroke="midnightblue" d="M271.18,-62.3C289.02,-52.12 310.54,-39.85 326.81,-30.58"/>
<polygon fill="midnightblue" stroke="midnightblue" points="269.19,-59.4 262.24,-67.4 272.66,-65.48 269.19,-59.4"/>
</g>
</g>
</svg>
