<?xml version="1.0" encoding="UTF-8" standalone="no"?>
<!DOCTYPE svg PUBLIC "-//W3C//DTD SVG 1.1//EN"
 "http://www.w3.org/Graphics/SVG/1.1/DTD/svg11.dtd">
<!-- Generated by graphviz version 8.0.2 (20230410.1723)
 -->
<!-- Title: include/kernel/net/ntp.h Pages: 1 -->
<svg width="317pt" height="375pt"
 viewBox="0.00 0.00 317.00 375.00" xmlns="http://www.w3.org/2000/svg" xmlns:xlink="http://www.w3.org/1999/xlink">
<g id="graph0" class="graph" transform="scale(1 1) rotate(0) translate(4 371)">
<title>include/kernel/net/ntp.h</title>
<!-- Node1 -->
<g id="node1" class="node">
<title>Node1</title>
<g id="a_node1"><a xlink:title=" ">
<polygon fill="#bfbfbf" stroke="black" points="109.5,-336.5 109.5,-366.5 202.5,-366.5 202.5,-336.5 109.5,-336.5"/>
<text text-anchor="start" x="117.5" y="-354.5" font-family="Helvetica,sans-Serif" font-size="10.00">include/kernel/net</text>
<text text-anchor="middle" x="156" y="-343.5" font-family="Helvetica,sans-Serif" font-size="10.00">/ntp.h</text>
</a>
</g>
</g>
<!-- Node2 -->
<g id="node2" class="node">
<title>Node2</title>
<g id="a_node2"><a xlink:href="net_8h.html" target="_top" xlink:title="This module defines network interfaces and drivers.">
<polygon fill="none" stroke="black" points="19.5,-168.5 19.5,-187.5 74.5,-187.5 74.5,-168.5 19.5,-168.5"/>
<text text-anchor="middle" x="47" y="-175.5" font-family="Helvetica,sans-Serif" font-size="10.00">net/net.h</text>
</a>
</g>
</g>
<!-- Node1&#45;&gt;Node2 -->
<g id="edge1" class="edge">
<title>Node1&#45;&gt;Node2</title>
<path fill="none" stroke="midnightblue" d="M141.78,-336.57C122.84,-317.31 89.35,-280.76 69,-244 60.88,-229.33 55.04,-211.14 51.42,-197.74"/>
<polygon fill="midnightblue" stroke="midnightblue" points="54.66,-197.24 48.82,-188.4 47.87,-198.95 54.66,-197.24"/>
</g>
<!-- Node5 -->
<g id="node5" class="node">
<title>Node5</title>
<g id="a_node5"><a xlink:href="udp_8h.html" target="_top" xlink:title=" ">
<polygon fill="none" stroke="black" points="127.5,-280.5 127.5,-299.5 184.5,-299.5 184.5,-280.5 127.5,-280.5"/>
<text text-anchor="middle" x="156" y="-287.5" font-family="Helvetica,sans-Serif" font-size="10.00">net/udp.h</text>
</a>
</g>
</g>
<!-- Node1&#45;&gt;Node5 -->
<g id="edge4" class="edge">
<title>Node1&#45;&gt;Node5</title>
<path fill="none" stroke="midnightblue" d="M156,-336.7C156,-328.86 156,-318.92 156,-310.32"/>
<polygon fill="midnightblue" stroke="midnightblue" points="159.5,-310.4 156,-300.4 152.5,-310.4 159.5,-310.4"/>
</g>
<!-- Node8 -->
<g id="node8" class="node">
<title>Node8</title>
<g id="a_node8"><a xlink:href="types_8h.html" target="_top" xlink:title=" ">
<polygon fill="none" stroke="black" points="134,-56.5 134,-75.5 202,-75.5 202,-56.5 134,-56.5"/>
<text text-anchor="middle" x="168" y="-63.5" font-family="Helvetica,sans-Serif" font-size="10.00">sys/types.h</text>
</a>
</g>
</g>
<!-- Node1&#45;&gt;Node8 -->
<g id="edge18" class="edge">
<title>Node1&#45;&gt;Node8</title>
<path fill="none" stroke="midnightblue" d="M202.32,-337.18C247.35,-321.04 309,-289.08 309,-235 309,-235 309,-235 309,-177 309,-125.34 249.43,-94.36 207.73,-79.01"/>
<polygon fill="midnightblue" stroke="midnightblue" points="209.15,-75.45 198.56,-75.44 206.83,-82.05 209.15,-75.45"/>
</g>
<!-- Node3 -->
<g id="node3" class="node">
<title>Node3</title>
<g id="a_node3"><a xlink:title=" ">
<polygon fill="none" stroke="#bfbfbf" points="0,-0.5 0,-19.5 56,-19.5 56,-0.5 0,-0.5"/>
<text text-anchor="middle" x="28" y="-7.5" font-family="Helvetica,sans-Serif" font-size="10.00">stdbool.h</text>
</a>
</g>
</g>
<!-- Node2&#45;&gt;Node3 -->
<g id="edge2" class="edge">
<title>Node2&#45;&gt;Node3</title>
<path fill="none" stroke="midnightblue" d="M46.03,-168.54C43.11,-143.01 34.33,-66.27 30.19,-30.17"/>
<polygon fill="midnightblue" stroke="midnightblue" points="33.56,-29.78 28.94,-20.25 26.6,-30.58 33.56,-29.78"/>
</g>
<!-- Node4 -->
<g id="node4" class="node">
<title>Node4</title>
<g id="a_node4"><a xlink:title=" ">
<polygon fill="none" stroke="#bfbfbf" points="74.5,-0.5 74.5,-19.5 123.5,-19.5 123.5,-0.5 74.5,-0.5"/>
<text text-anchor="middle" x="99" y="-7.5" font-family="Helvetica,sans-Serif" font-size="10.00">stdint.h</text>
</a>
</g>
</g>
<!-- Node2&#45;&gt;Node4 -->
<g id="edge3" class="edge">
<title>Node2&#45;&gt;Node4</title>
<path fill="none" stroke="midnightblue" d="M49.65,-168.54C57.68,-142.9 81.9,-65.6 93.14,-29.7"/>
<polygon fill="midnightblue" stroke="midnightblue" points="96.77,-30.84 96.42,-20.25 90.09,-28.74 96.77,-30.84"/>
</g>
<!-- Node5&#45;&gt;Node2 -->
<g id="edge16" class="edge">
<title>Node5&#45;&gt;Node2</title>
<path fill="none" stroke="midnightblue" d="M139.77,-280.59C125.3,-272.55 104.12,-259.39 89,-244 75.19,-229.95 63.43,-210.67 55.89,-196.76"/>
<polygon fill="midnightblue" stroke="midnightblue" points="58.71,-195.6 50.99,-188.35 52.5,-198.83 58.71,-195.6"/>
</g>
<!-- Node6 -->
<g id="node6" class="node">
<title>Node6</title>
<g id="a_node6"><a xlink:href="inet_8h.html" target="_top" xlink:title=" ">
<polygon fill="none" stroke="black" points="145,-168.5 145,-187.5 207,-187.5 207,-168.5 145,-168.5"/>
<text text-anchor="middle" x="176" y="-175.5" font-family="Helvetica,sans-Serif" font-size="10.00">arpa/inet.h</text>
</a>
</g>
</g>
<!-- Node5&#45;&gt;Node6 -->
<g id="edge5" class="edge">
<title>Node5&#45;&gt;Node6</title>
<path fill="none" stroke="midnightblue" d="M158.01,-280.74C160.15,-271.74 163.58,-256.9 166,-244 168.87,-228.69 171.53,-211.24 173.37,-198.28"/>
<polygon fill="midnightblue" stroke="midnightblue" points="176.97,-198.83 174.88,-188.44 170.04,-197.87 176.97,-198.83"/>
</g>
<!-- Node5&#45;&gt;Node8 -->
<g id="edge17" class="edge">
<title>Node5&#45;&gt;Node8</title>
<path fill="none" stroke="midnightblue" d="M162.26,-280.56C174.4,-263.79 201.25,-224.71 216,-188 225.53,-164.29 226.09,-157.38 229,-132 230.01,-123.17 233.01,-119.93 229,-112 222.21,-98.56 209.31,-88.14 197.11,-80.73"/>
<polygon fill="midnightblue" stroke="midnightblue" points="199.05,-77.25 188.61,-75.44 195.64,-83.36 199.05,-77.25"/>
</g>
<!-- Node10 -->
<g id="node10" class="node">
<title>Node10</title>
<g id="a_node10"><a xlink:href="ipv4_8h.html" target="_top" xlink:title=" ">
<polygon fill="none" stroke="black" points="97.5,-224.5 97.5,-243.5 156.5,-243.5 156.5,-224.5 97.5,-224.5"/>
<text text-anchor="middle" x="127" y="-231.5" font-family="Helvetica,sans-Serif" font-size="10.00">net/ipv4.h</text>
</a>
</g>
</g>
<!-- Node5&#45;&gt;Node10 -->
<g id="edge12" class="edge">
<title>Node5&#45;&gt;Node10</title>
<path fill="none" stroke="midnightblue" d="M151.47,-280.56C147.49,-273.15 141.56,-262.12 136.54,-252.76"/>
<polygon fill="midnightblue" stroke="midnightblue" points="139.22,-251.36 131.4,-244.2 133.05,-254.67 139.22,-251.36"/>
</g>
<!-- Node7 -->
<g id="node7" class="node">
<title>Node7</title>
<g id="a_node7"><a xlink:href="socket_8h.html" target="_top" xlink:title=" ">
<polygon fill="none" stroke="black" points="131.5,-112.5 131.5,-131.5 204.5,-131.5 204.5,-112.5 131.5,-112.5"/>
<text text-anchor="middle" x="168" y="-119.5" font-family="Helvetica,sans-Serif" font-size="10.00">sys/socket.h</text>
</a>
</g>
</g>
<!-- Node6&#45;&gt;Node7 -->
<g id="edge6" class="edge">
<title>Node6&#45;&gt;Node7</title>
<path fill="none" stroke="midnightblue" d="M174.75,-168.56C173.7,-161.47 172.16,-151.06 170.81,-141.98"/>
<polygon fill="midnightblue" stroke="midnightblue" points="174.14,-141.58 169.22,-132.2 167.22,-142.61 174.14,-141.58"/>
</g>
<!-- Node6&#45;&gt;Node8 -->
<g id="edge11" class="edge">
<title>Node6&#45;&gt;Node8</title>
<path fill="none" stroke="midnightblue" d="M186.95,-168.55C201.13,-156.49 223.02,-133.45 214,-112 209.01,-100.14 199.2,-89.84 189.91,-82.1"/>
<polygon fill="midnightblue" stroke="midnightblue" points="192.4,-78.83 182.35,-75.5 188.13,-84.37 192.4,-78.83"/>
</g>
<!-- Node7&#45;&gt;Node8 -->
<g id="edge7" class="edge">
<title>Node7&#45;&gt;Node8</title>
<path fill="none" stroke="midnightblue" d="M168,-112.56C168,-105.47 168,-95.06 168,-85.98"/>
<polygon fill="midnightblue" stroke="midnightblue" points="171.5,-86.2 168,-76.2 164.5,-86.2 171.5,-86.2"/>
</g>
<!-- Node8&#45;&gt;Node3 -->
<g id="edge8" class="edge">
<title>Node8&#45;&gt;Node3</title>
<path fill="none" stroke="midnightblue" d="M146.12,-56.56C123.01,-47.65 86.32,-33.5 59.96,-23.33"/>
<polygon fill="midnightblue" stroke="midnightblue" points="61.31,-19.71 50.72,-19.38 58.79,-26.24 61.31,-19.71"/>
</g>
<!-- Node8&#45;&gt;Node4 -->
<g id="edge10" class="edge">
<title>Node8&#45;&gt;Node4</title>
<path fill="none" stroke="midnightblue" d="M157.22,-56.56C146.73,-48.35 130.56,-35.7 117.93,-25.81"/>
<polygon fill="midnightblue" stroke="midnightblue" points="120.51,-22.61 110.48,-19.2 116.2,-28.12 120.51,-22.61"/>
</g>
<!-- Node9 -->
<g id="node9" class="node">
<title>Node9</title>
<g id="a_node9"><a xlink:title=" ">
<polygon fill="none" stroke="#bfbfbf" points="142,-0.5 142,-19.5 194,-19.5 194,-0.5 142,-0.5"/>
<text text-anchor="middle" x="168" y="-7.5" font-family="Helvetica,sans-Serif" font-size="10.00">stddef.h</text>
</a>
</g>
</g>
<!-- Node8&#45;&gt;Node9 -->
<g id="edge9" class="edge">
<title>Node8&#45;&gt;Node9</title>
<path fill="none" stroke="midnightblue" d="M168,-56.56C168,-49.47 168,-39.06 168,-29.98"/>
<polygon fill="midnightblue" stroke="midnightblue" points="171.5,-30.2 168,-20.2 164.5,-30.2 171.5,-30.2"/>
</g>
<!-- Node10&#45;&gt;Node2 -->
<g id="edge14" class="edge">
<title>Node10&#45;&gt;Node2</title>
<path fill="none" stroke="midnightblue" d="M114.5,-224.56C102.17,-216.24 83.09,-203.36 68.35,-193.41"/>
<polygon fill="midnightblue" stroke="midnightblue" points="70.66,-190.07 60.41,-187.38 66.74,-195.87 70.66,-190.07"/>
</g>
<!-- Node10&#45;&gt;Node6 -->
<g id="edge13" class="edge">
<title>Node10&#45;&gt;Node6</title>
<path fill="none" stroke="midnightblue" d="M134.66,-224.56C141.75,-216.75 152.48,-204.92 161.24,-195.27"/>
<polygon fill="midnightblue" stroke="midnightblue" points="163.43,-197.96 167.56,-188.2 158.25,-193.26 163.43,-197.96"/>
</g>
<!-- Node10&#45;&gt;Node8 -->
<g id="edge15" class="edge">
<title>Node10&#45;&gt;Node8</title>
<path fill="none" stroke="midnightblue" d="M124.46,-224.66C118.75,-204.41 106.67,-151.42 123,-112 127.93,-100.09 137.72,-89.68 146.91,-81.89"/>
<polygon fill="midnightblue" stroke="midnightblue" points="148.66,-84.18 154.36,-75.25 144.34,-78.68 148.66,-84.18"/>
</g>
</g>
</svg>
