<?xml version="1.0" encoding="UTF-8" standalone="no"?>
<!DOCTYPE svg PUBLIC "-//W3C//DTD SVG 1.1//EN"
 "http://www.w3.org/Graphics/SVG/1.1/DTD/svg11.dtd">
<!-- Generated by graphviz version 9.0.0 (20230911.1827)
 -->
<!-- Title: include/kernel/net/ntp.h Pages: 1 -->
<svg width="315pt" height="370pt"
 viewBox="0.00 0.00 314.88 370.00" xmlns="http://www.w3.org/2000/svg" xmlns:xlink="http://www.w3.org/1999/xlink">
<g id="graph0" class="graph" transform="scale(1 1) rotate(0) translate(4 366)">
<title>include/kernel/net/ntp.h</title>
<!-- Node1 -->
<g id="Node000001" class="node">
<title>Node1</title>
<g id="a_Node000001"><a xlink:title=" ">
<polygon fill="#999999" stroke="#666666" points="201.12,-362 108.62,-362 108.62,-331.5 201.12,-331.5 201.12,-362"/>
<text text-anchor="start" x="116.62" y="-348.5" font-family="Helvetica,sans-Serif" font-size="10.00">include/kernel/net</text>
<text text-anchor="middle" x="154.88" y="-337.25" font-family="Helvetica,sans-Serif" font-size="10.00">/ntp.h</text>
</a>
</g>
</g>
<!-- Node2 -->
<g id="Node000002" class="node">
<title>Node2</title>
<g id="a_Node000002"><a xlink:href="net_8h.html" target="_top" xlink:title="This module defines network interfaces and drivers.">
<polygon fill="white" stroke="#666666" points="75,-185 20.75,-185 20.75,-165.75 75,-165.75 75,-185"/>
<text text-anchor="middle" x="47.88" y="-171.5" font-family="Helvetica,sans-Serif" font-size="10.00">net/net.h</text>
</a>
</g>
</g>
<!-- Node1&#45;&gt;Node2 -->
<g id="edge1_Node000001_Node000002" class="edge">
<title>Node1&#45;&gt;Node2</title>
<g id="a_edge1_Node000001_Node000002"><a xlink:title=" ">
<path fill="none" stroke="#63b8ff" d="M140.65,-331.16C122.4,-311.78 90.73,-275.82 70.88,-240.25 63.13,-226.37 57.16,-209.38 53.25,-196.41"/>
<polygon fill="#63b8ff" stroke="#63b8ff" points="56.64,-195.57 50.55,-186.9 49.91,-197.48 56.64,-195.57"/>
</a>
</g>
</g>
<!-- Node5 -->
<g id="Node000005" class="node">
<title>Node5</title>
<g id="a_Node000005"><a xlink:href="udp_8h.html" target="_top" xlink:title=" ">
<polygon fill="white" stroke="#666666" points="183.12,-295.5 126.62,-295.5 126.62,-276.25 183.12,-276.25 183.12,-295.5"/>
<text text-anchor="middle" x="154.88" y="-282" font-family="Helvetica,sans-Serif" font-size="10.00">net/udp.h</text>
</a>
</g>
</g>
<!-- Node1&#45;&gt;Node5 -->
<g id="edge4_Node000001_Node000005" class="edge">
<title>Node1&#45;&gt;Node5</title>
<g id="a_edge4_Node000001_Node000005"><a xlink:title=" ">
<path fill="none" stroke="#63b8ff" d="M154.88,-331.2C154.88,-323.96 154.88,-315.09 154.88,-307.19"/>
<polygon fill="#63b8ff" stroke="#63b8ff" points="158.38,-307.46 154.88,-297.46 151.38,-307.46 158.38,-307.46"/>
</a>
</g>
</g>
<!-- Node8 -->
<g id="Node000008" class="node">
<title>Node8</title>
<g id="a_Node000008"><a xlink:href="types_8h.html" target="_top" xlink:title=" ">
<polygon fill="white" stroke="#666666" points="200.38,-74.5 133.38,-74.5 133.38,-55.25 200.38,-55.25 200.38,-74.5"/>
<text text-anchor="middle" x="166.88" y="-61" font-family="Helvetica,sans-Serif" font-size="10.00">sys/types.h</text>
</a>
</g>
</g>
<!-- Node1&#45;&gt;Node8 -->
<g id="edge18_Node000001_Node000008" class="edge">
<title>Node1&#45;&gt;Node8</title>
<g id="a_edge18_Node000001_Node000008"><a xlink:title=" ">
<path fill="none" stroke="#63b8ff" d="M201.31,-332.51C246.01,-316.59 306.88,-285.08 306.88,-231.62 306.88,-231.62 306.88,-231.62 306.88,-174.38 306.88,-124.41 250.48,-94.16 209.27,-78.73"/>
<polygon fill="#63b8ff" stroke="#63b8ff" points="210.66,-75.51 200.07,-75.45 208.32,-82.11 210.66,-75.51"/>
</a>
</g>
</g>
<!-- Node3 -->
<g id="Node000003" class="node">
<title>Node3</title>
<g id="a_Node000003"><a xlink:title=" ">
<polygon fill="#e0e0e0" stroke="#999999" points="55.75,-19.25 0,-19.25 0,0 55.75,0 55.75,-19.25"/>
<text text-anchor="middle" x="27.88" y="-5.75" font-family="Helvetica,sans-Serif" font-size="10.00">stdbool.h</text>
</a>
</g>
</g>
<!-- Node2&#45;&gt;Node3 -->
<g id="edge2_Node000002_Node000003" class="edge">
<title>Node2&#45;&gt;Node3</title>
<g id="a_edge2_Node000002_Node000003"><a xlink:title=" ">
<path fill="none" stroke="#63b8ff" d="M46.8,-165.57C43.71,-140.25 34.73,-66.75 30.34,-30.84"/>
<polygon fill="#63b8ff" stroke="#63b8ff" points="33.83,-30.48 29.14,-20.97 26.88,-31.33 33.83,-30.48"/>
</a>
</g>
</g>
<!-- Node4 -->
<g id="Node000004" class="node">
<title>Node4</title>
<g id="a_Node000004"><a xlink:title=" ">
<polygon fill="#e0e0e0" stroke="#999999" points="123,-19.25 74.75,-19.25 74.75,0 123,0 123,-19.25"/>
<text text-anchor="middle" x="98.88" y="-5.75" font-family="Helvetica,sans-Serif" font-size="10.00">stdint.h</text>
</a>
</g>
</g>
<!-- Node2&#45;&gt;Node4 -->
<g id="edge3_Node000002_Node000004" class="edge">
<title>Node2&#45;&gt;Node4</title>
<g id="a_edge3_Node000002_Node000004"><a xlink:title=" ">
<path fill="none" stroke="#63b8ff" d="M50.62,-165.57C58.54,-140.14 81.6,-66.1 92.73,-30.37"/>
<polygon fill="#63b8ff" stroke="#63b8ff" points="96.04,-31.51 95.67,-20.92 89.35,-29.42 96.04,-31.51"/>
</a>
</g>
</g>
<!-- Node5&#45;&gt;Node2 -->
<g id="edge16_Node000005_Node000002" class="edge">
<title>Node5&#45;&gt;Node2</title>
<g id="a_edge16_Node000005_Node000002"><a xlink:title=" ">
<path fill="none" stroke="#63b8ff" d="M137.75,-275.89C123.54,-267.86 103.37,-255.09 88.88,-240.25 75.93,-226.99 64.83,-209.02 57.46,-195.52"/>
<polygon fill="#63b8ff" stroke="#63b8ff" points="60.62,-194.02 52.89,-186.78 54.42,-197.26 60.62,-194.02"/>
</a>
</g>
</g>
<!-- Node6 -->
<g id="Node000006" class="node">
<title>Node6</title>
<g id="a_Node000006"><a xlink:href="inet_8h.html" target="_top" xlink:title=" ">
<polygon fill="white" stroke="#666666" points="205.75,-185 144,-185 144,-165.75 205.75,-165.75 205.75,-185"/>
<text text-anchor="middle" x="174.88" y="-171.5" font-family="Helvetica,sans-Serif" font-size="10.00">arpa/inet.h</text>
</a>
</g>
</g>
<!-- Node5&#45;&gt;Node6 -->
<g id="edge5_Node000005_Node000006" class="edge">
<title>Node5&#45;&gt;Node6</title>
<g id="a_edge5_Node000005_Node000006"><a xlink:title=" ">
<path fill="none" stroke="#63b8ff" d="M157.04,-276.02C159.19,-267.04 162.5,-252.73 164.88,-240.25 167.67,-225.53 170.27,-208.79 172.12,-196.14"/>
<polygon fill="#63b8ff" stroke="#63b8ff" points="175.54,-196.98 173.48,-186.58 168.61,-195.99 175.54,-196.98"/>
</a>
</g>
</g>
<!-- Node5&#45;&gt;Node8 -->
<g id="edge17_Node000005_Node000008" class="edge">
<title>Node5&#45;&gt;Node8</title>
<g id="a_edge17_Node000005_Node000008"><a xlink:title=" ">
<path fill="none" stroke="#63b8ff" d="M161.76,-275.77C174.25,-258.83 200.64,-220.92 214.88,-185 224.14,-161.64 224.19,-154.73 226.88,-129.75 227.79,-121.24 230.72,-118.14 226.88,-110.5 220.52,-97.85 208.69,-87.88 197.2,-80.6"/>
<polygon fill="#63b8ff" stroke="#63b8ff" points="199.06,-77.63 188.65,-75.66 195.56,-83.69 199.06,-77.63"/>
</a>
</g>
</g>
<!-- Node10 -->
<g id="Node000010" class="node">
<title>Node10</title>
<g id="a_Node000010"><a xlink:href="ipv4_8h.html" target="_top" xlink:title=" ">
<polygon fill="white" stroke="#666666" points="156.25,-240.25 97.5,-240.25 97.5,-221 156.25,-221 156.25,-240.25"/>
<text text-anchor="middle" x="126.88" y="-226.75" font-family="Helvetica,sans-Serif" font-size="10.00">net/ipv4.h</text>
</a>
</g>
</g>
<!-- Node5&#45;&gt;Node10 -->
<g id="edge12_Node000005_Node000010" class="edge">
<title>Node5&#45;&gt;Node10</title>
<g id="a_edge12_Node000005_Node000010"><a xlink:title=" ">
<path fill="none" stroke="#63b8ff" d="M150.25,-276.08C146.63,-269.19 141.45,-259.34 136.88,-250.66"/>
<polygon fill="#63b8ff" stroke="#63b8ff" points="140.06,-249.17 132.3,-241.95 133.86,-252.43 140.06,-249.17"/>
</a>
</g>
</g>
<!-- Node7 -->
<g id="Node000007" class="node">
<title>Node7</title>
<g id="a_Node000007"><a xlink:href="socket_8h.html" target="_top" xlink:title=" ">
<polygon fill="white" stroke="#666666" points="203,-129.75 130.75,-129.75 130.75,-110.5 203,-110.5 203,-129.75"/>
<text text-anchor="middle" x="166.88" y="-116.25" font-family="Helvetica,sans-Serif" font-size="10.00">sys/socket.h</text>
</a>
</g>
</g>
<!-- Node6&#45;&gt;Node7 -->
<g id="edge6_Node000006_Node000007" class="edge">
<title>Node6&#45;&gt;Node7</title>
<g id="a_edge6_Node000006_Node000007"><a xlink:title=" ">
<path fill="none" stroke="#63b8ff" d="M173.55,-165.58C172.56,-158.99 171.17,-149.71 169.91,-141.32"/>
<polygon fill="#63b8ff" stroke="#63b8ff" points="173.4,-140.97 168.45,-131.61 166.47,-142.01 173.4,-140.97"/>
</a>
</g>
</g>
<!-- Node6&#45;&gt;Node8 -->
<g id="edge11_Node000006_Node000008" class="edge">
<title>Node6&#45;&gt;Node8</title>
<g id="a_edge11_Node000006_Node000008"><a xlink:title=" ">
<path fill="none" stroke="#63b8ff" d="M186,-165.66C199.81,-153.7 220.55,-131.32 211.88,-110.5 207.23,-99.34 198.28,-89.55 189.58,-81.99"/>
<polygon fill="#63b8ff" stroke="#63b8ff" points="191.98,-79.43 181.98,-75.92 187.61,-84.9 191.98,-79.43"/>
</a>
</g>
</g>
<!-- Node7&#45;&gt;Node8 -->
<g id="edge7_Node000007_Node000008" class="edge">
<title>Node7&#45;&gt;Node8</title>
<g id="a_edge7_Node000007_Node000008"><a xlink:title=" ">
<path fill="none" stroke="#63b8ff" d="M166.88,-110.33C166.88,-103.82 166.88,-94.67 166.88,-86.37"/>
<polygon fill="#63b8ff" stroke="#63b8ff" points="170.38,-86.37 166.88,-76.37 163.38,-86.37 170.38,-86.37"/>
</a>
</g>
</g>
<!-- Node8&#45;&gt;Node3 -->
<g id="edge8_Node000008_Node000003" class="edge">
<title>Node8&#45;&gt;Node3</title>
<g id="a_edge8_Node000008_Node000003"><a xlink:title=" ">
<path fill="none" stroke="#63b8ff" d="M143.3,-54.84C121.03,-46.31 87.38,-33.42 62.15,-23.76"/>
<polygon fill="#63b8ff" stroke="#63b8ff" points="63.57,-20.55 52.98,-20.24 61.07,-27.09 63.57,-20.55"/>
</a>
</g>
</g>
<!-- Node8&#45;&gt;Node4 -->
<g id="edge10_Node000008_Node000004" class="edge">
<title>Node8&#45;&gt;Node4</title>
<g id="a_edge10_Node000008_Node000004"><a xlink:title=" ">
<path fill="none" stroke="#63b8ff" d="M155.34,-54.84C145.41,-47.07 130.86,-35.67 119.02,-26.4"/>
<polygon fill="#63b8ff" stroke="#63b8ff" points="121.46,-23.87 111.43,-20.46 117.15,-29.38 121.46,-23.87"/>
</a>
</g>
</g>
<!-- Node9 -->
<g id="Node000009" class="node">
<title>Node9</title>
<g id="a_Node000009"><a xlink:title=" ">
<polygon fill="#e0e0e0" stroke="#999999" points="192.5,-19.25 141.25,-19.25 141.25,0 192.5,0 192.5,-19.25"/>
<text text-anchor="middle" x="166.88" y="-5.75" font-family="Helvetica,sans-Serif" font-size="10.00">stddef.h</text>
</a>
</g>
</g>
<!-- Node8&#45;&gt;Node9 -->
<g id="edge9_Node000008_Node000009" class="edge">
<title>Node8&#45;&gt;Node9</title>
<g id="a_edge9_Node000008_Node000009"><a xlink:title=" ">
<path fill="none" stroke="#63b8ff" d="M166.88,-55.08C166.88,-48.57 166.88,-39.42 166.88,-31.12"/>
<polygon fill="#63b8ff" stroke="#63b8ff" points="170.38,-31.12 166.88,-21.12 163.38,-31.12 170.38,-31.12"/>
</a>
</g>
</g>
<!-- Node10&#45;&gt;Node2 -->
<g id="edge14_Node000010_Node000002" class="edge">
<title>Node10&#45;&gt;Node2</title>
<g id="a_edge14_Node000010_Node000002"><a xlink:title=" ">
<path fill="none" stroke="#63b8ff" d="M113.47,-220.59C101.78,-212.71 84.57,-201.11 70.71,-191.77"/>
<polygon fill="#63b8ff" stroke="#63b8ff" points="72.85,-188.99 62.6,-186.3 68.93,-194.79 72.85,-188.99"/>
</a>
</g>
</g>
<!-- Node10&#45;&gt;Node6 -->
<g id="edge13_Node000010_Node000006" class="edge">
<title>Node10&#45;&gt;Node6</title>
<g id="a_edge13_Node000010_Node000006"><a xlink:title=" ">
<path fill="none" stroke="#63b8ff" d="M134.8,-220.83C141.43,-213.48 151.09,-202.76 159.26,-193.69"/>
<polygon fill="#63b8ff" stroke="#63b8ff" points="161.67,-196.25 165.76,-186.48 156.47,-191.57 161.67,-196.25"/>
</a>
</g>
</g>
<!-- Node10&#45;&gt;Node8 -->
<g id="edge15_Node000010_Node000008" class="edge">
<title>Node10&#45;&gt;Node8</title>
<g id="a_edge15_Node000010_Node000008"><a xlink:title=" ">
<path fill="none" stroke="#63b8ff" d="M123.98,-220.5C117.96,-199.93 105.95,-148.71 121.88,-110.5 126.52,-99.34 135.47,-89.55 144.17,-81.99"/>
<polygon fill="#63b8ff" stroke="#63b8ff" points="146.14,-84.9 151.77,-75.92 141.77,-79.43 146.14,-84.9"/>
</a>
</g>
</g>
</g>
</svg>
