<?xml version="1.0" encoding="UTF-8" standalone="no"?>
<!DOCTYPE svg PUBLIC "-//W3C//DTD SVG 1.1//EN"
 "http://www.w3.org/Graphics/SVG/1.1/DTD/svg11.dtd">
<!-- Generated by graphviz version 9.0.0 (20230911.1827)
 -->
<!-- Title: src/kernel/arch/x86_64/mmu/paging.h Pages: 1 -->
<svg width="296pt" height="204pt"
 viewBox="0.00 0.00 295.75 204.25" xmlns="http://www.w3.org/2000/svg" xmlns:xlink="http://www.w3.org/1999/xlink">
<g id="graph0" class="graph" transform="scale(1 1) rotate(0) translate(4 200.25)">
<title>src/kernel/arch/x86_64/mmu/paging.h</title>
<!-- Node1 -->
<g id="Node000001" class="node">
<title>Node1</title>
<g id="a_Node000001"><a xlink:title=" ">
<polygon fill="#999999" stroke="#666666" points="282.75,-196.25 183.5,-196.25 183.5,-165.75 282.75,-165.75 282.75,-196.25"/>
<text text-anchor="start" x="191.5" y="-182.75" font-family="Helvetica,sans-Serif" font-size="10.00">src/kernel/arch/x86</text>
<text text-anchor="middle" x="233.12" y="-171.5" font-family="Helvetica,sans-Serif" font-size="10.00">_64/mmu/paging.h</text>
</a>
</g>
</g>
<!-- Node2 -->
<g id="Node000002" class="node">
<title>Node2</title>
<g id="a_Node000002"><a xlink:href="frame_8h.html" target="_top" xlink:title=" ">
<polygon fill="white" stroke="#666666" points="191,-129.75 117.25,-129.75 117.25,-110.5 191,-110.5 191,-129.75"/>
<text text-anchor="middle" x="154.12" y="-116.25" font-family="Helvetica,sans-Serif" font-size="10.00">mmu/frame.h</text>
</a>
</g>
</g>
<!-- Node1&#45;&gt;Node2 -->
<g id="edge1_Node000001_Node000002" class="edge">
<title>Node1&#45;&gt;Node2</title>
<g id="a_edge1_Node000001_Node000002"><a xlink:title=" ">
<path fill="none" stroke="#63b8ff" d="M213.6,-165.45C202.03,-156.83 187.37,-145.9 175.49,-137.05"/>
<polygon fill="#63b8ff" stroke="#63b8ff" points="177.63,-134.27 167.52,-131.11 173.44,-139.89 177.63,-134.27"/>
</a>
</g>
</g>
<!-- Node5 -->
<g id="Node000005" class="node">
<title>Node5</title>
<g id="a_Node000005"><a xlink:title=" ">
<polygon fill="#e0e0e0" stroke="#999999" points="218.25,-19.25 170,-19.25 170,0 218.25,0 218.25,-19.25"/>
<text text-anchor="middle" x="194.12" y="-5.75" font-family="Helvetica,sans-Serif" font-size="10.00">stdint.h</text>
</a>
</g>
</g>
<!-- Node1&#45;&gt;Node5 -->
<g id="edge13_Node000001_Node000005" class="edge">
<title>Node1&#45;&gt;Node5</title>
<g id="a_edge13_Node000001_Node000005"><a xlink:title=" ">
<path fill="none" stroke="#63b8ff" d="M245.68,-165.33C264.78,-141.12 296.75,-91.85 275.12,-55.25 265.14,-38.35 246.23,-27.42 229.19,-20.61"/>
<polygon fill="#63b8ff" stroke="#63b8ff" points="230.39,-17.32 219.79,-17.22 228.01,-23.9 230.39,-17.32"/>
</a>
</g>
</g>
<!-- Node8 -->
<g id="Node000008" class="node">
<title>Node8</title>
<g id="a_Node000008"><a xlink:href="types_8h.html" target="_top" xlink:title=" ">
<polygon fill="white" stroke="#666666" points="266.62,-74.5 199.62,-74.5 199.62,-55.25 266.62,-55.25 266.62,-74.5"/>
<text text-anchor="middle" x="233.12" y="-61" font-family="Helvetica,sans-Serif" font-size="10.00">sys/types.h</text>
</a>
</g>
</g>
<!-- Node1&#45;&gt;Node8 -->
<g id="edge14_Node000001_Node000008" class="edge">
<title>Node1&#45;&gt;Node8</title>
<g id="a_edge14_Node000001_Node000008"><a xlink:title=" ">
<path fill="none" stroke="#63b8ff" d="M233.12,-165.55C233.12,-145.5 233.12,-109.15 233.12,-86.32"/>
<polygon fill="#63b8ff" stroke="#63b8ff" points="236.63,-86.46 233.13,-76.46 229.63,-86.46 236.63,-86.46"/>
</a>
</g>
</g>
<!-- Node3 -->
<g id="Node000003" class="node">
<title>Node3</title>
<g id="a_Node000003"><a xlink:href="multiboot_8h.html" target="_top" xlink:title=" ">
<polygon fill="white" stroke="#666666" points="182,-74.5 96.25,-74.5 96.25,-55.25 182,-55.25 182,-74.5"/>
<text text-anchor="middle" x="139.12" y="-61" font-family="Helvetica,sans-Serif" font-size="10.00">core/multiboot.h</text>
</a>
</g>
</g>
<!-- Node2&#45;&gt;Node3 -->
<g id="edge2_Node000002_Node000003" class="edge">
<title>Node2&#45;&gt;Node3</title>
<g id="a_edge2_Node000002_Node000003"><a xlink:title=" ">
<path fill="none" stroke="#63b8ff" d="M151.65,-110.33C149.77,-103.67 147.12,-94.24 144.73,-85.78"/>
<polygon fill="#63b8ff" stroke="#63b8ff" points="148.15,-84.99 142.07,-76.32 141.41,-86.89 148.15,-84.99"/>
</a>
</g>
</g>
<!-- Node6 -->
<g id="Node000006" class="node">
<title>Node6</title>
<g id="a_Node000006"><a xlink:href="bitmap_8h.html" target="_top" xlink:title=" ">
<polygon fill="white" stroke="#666666" points="78.25,-74.5 0,-74.5 0,-55.25 78.25,-55.25 78.25,-74.5"/>
<text text-anchor="middle" x="39.12" y="-61" font-family="Helvetica,sans-Serif" font-size="10.00">mmu/bitmap.h</text>
</a>
</g>
</g>
<!-- Node2&#45;&gt;Node6 -->
<g id="edge5_Node000002_Node000006" class="edge">
<title>Node2&#45;&gt;Node6</title>
<g id="a_edge5_Node000002_Node000006"><a xlink:title=" ">
<path fill="none" stroke="#63b8ff" d="M134.62,-110.09C116.61,-101.75 89.6,-89.25 68.9,-79.66"/>
<polygon fill="#63b8ff" stroke="#63b8ff" points="70.65,-76.61 60.1,-75.59 67.71,-82.97 70.65,-76.61"/>
</a>
</g>
</g>
<!-- Node2&#45;&gt;Node8 -->
<g id="edge9_Node000002_Node000008" class="edge">
<title>Node2&#45;&gt;Node8</title>
<g id="a_edge9_Node000002_Node000008"><a xlink:title=" ">
<path fill="none" stroke="#63b8ff" d="M167.53,-110.09C179.22,-102.21 196.43,-90.61 210.29,-81.27"/>
<polygon fill="#63b8ff" stroke="#63b8ff" points="212.07,-84.29 218.4,-75.8 208.15,-78.49 212.07,-84.29"/>
</a>
</g>
</g>
<!-- Node4 -->
<g id="Node000004" class="node">
<title>Node4</title>
<g id="a_Node000004"><a xlink:title=" ">
<polygon fill="#e0e0e0" stroke="#999999" points="152,-19.25 96.25,-19.25 96.25,0 152,0 152,-19.25"/>
<text text-anchor="middle" x="124.12" y="-5.75" font-family="Helvetica,sans-Serif" font-size="10.00">stdbool.h</text>
</a>
</g>
</g>
<!-- Node3&#45;&gt;Node4 -->
<g id="edge3_Node000003_Node000004" class="edge">
<title>Node3&#45;&gt;Node4</title>
<g id="a_edge3_Node000003_Node000004"><a xlink:title=" ">
<path fill="none" stroke="#63b8ff" d="M136.65,-55.08C134.77,-48.42 132.12,-38.99 129.73,-30.53"/>
<polygon fill="#63b8ff" stroke="#63b8ff" points="133.15,-29.74 127.07,-21.07 126.41,-31.64 133.15,-29.74"/>
</a>
</g>
</g>
<!-- Node3&#45;&gt;Node5 -->
<g id="edge4_Node000003_Node000005" class="edge">
<title>Node3&#45;&gt;Node5</title>
<g id="a_edge4_Node000003_Node000005"><a xlink:title=" ">
<path fill="none" stroke="#63b8ff" d="M148.21,-55.08C155.96,-47.57 167.34,-36.56 176.82,-27.38"/>
<polygon fill="#63b8ff" stroke="#63b8ff" points="179.01,-30.13 183.76,-20.66 174.14,-25.1 179.01,-30.13"/>
</a>
</g>
</g>
<!-- Node6&#45;&gt;Node4 -->
<g id="edge7_Node000006_Node000004" class="edge">
<title>Node6&#45;&gt;Node4</title>
<g id="a_edge7_Node000006_Node000004"><a xlink:title=" ">
<path fill="none" stroke="#63b8ff" d="M53.54,-54.84C66.24,-46.89 85,-35.14 99.98,-25.75"/>
<polygon fill="#63b8ff" stroke="#63b8ff" points="101.74,-28.78 108.35,-20.51 98.02,-22.85 101.74,-28.78"/>
</a>
</g>
</g>
<!-- Node6&#45;&gt;Node5 -->
<g id="edge8_Node000006_Node000005" class="edge">
<title>Node6&#45;&gt;Node5</title>
<g id="a_edge8_Node000006_Node000005"><a xlink:title=" ">
<path fill="none" stroke="#63b8ff" d="M65.42,-54.84C91.19,-45.99 130.64,-32.44 159.07,-22.67"/>
<polygon fill="#63b8ff" stroke="#63b8ff" points="160,-26.05 168.32,-19.49 157.72,-19.43 160,-26.05"/>
</a>
</g>
</g>
<!-- Node7 -->
<g id="Node000007" class="node">
<title>Node7</title>
<g id="a_Node000007"><a xlink:title=" ">
<polygon fill="#e0e0e0" stroke="#999999" points="62.88,-19.25 15.38,-19.25 15.38,0 62.88,0 62.88,-19.25"/>
<text text-anchor="middle" x="39.12" y="-5.75" font-family="Helvetica,sans-Serif" font-size="10.00">limits.h</text>
</a>
</g>
</g>
<!-- Node6&#45;&gt;Node7 -->
<g id="edge6_Node000006_Node000007" class="edge">
<title>Node6&#45;&gt;Node7</title>
<g id="a_edge6_Node000006_Node000007"><a xlink:title=" ">
<path fill="none" stroke="#63b8ff" d="M39.12,-55.08C39.12,-48.57 39.12,-39.42 39.12,-31.12"/>
<polygon fill="#63b8ff" stroke="#63b8ff" points="42.63,-31.12 39.13,-21.12 35.63,-31.12 42.63,-31.12"/>
</a>
</g>
</g>
<!-- Node8&#45;&gt;Node4 -->
<g id="edge10_Node000008_Node000004" class="edge">
<title>Node8&#45;&gt;Node4</title>
<g id="a_edge10_Node000008_Node000004"><a xlink:title=" ">
<path fill="none" stroke="#63b8ff" d="M214.63,-54.84C197.72,-46.58 172.44,-34.23 152.89,-24.68"/>
<polygon fill="#63b8ff" stroke="#63b8ff" points="154.59,-21.61 144.07,-20.37 151.51,-27.9 154.59,-21.61"/>
</a>
</g>
</g>
<!-- Node8&#45;&gt;Node5 -->
<g id="edge12_Node000008_Node000005" class="edge">
<title>Node8&#45;&gt;Node5</title>
<g id="a_edge12_Node000008_Node000005"><a xlink:title=" ">
<path fill="none" stroke="#63b8ff" d="M226.68,-55.08C221.47,-47.96 213.94,-37.68 207.43,-28.8"/>
<polygon fill="#63b8ff" stroke="#63b8ff" points="210.33,-26.83 201.6,-20.83 204.68,-30.97 210.33,-26.83"/>
</a>
</g>
</g>
<!-- Node9 -->
<g id="Node000009" class="node">
<title>Node9</title>
<g id="a_Node000009"><a xlink:title=" ">
<polygon fill="#e0e0e0" stroke="#999999" points="287.75,-19.25 236.5,-19.25 236.5,0 287.75,0 287.75,-19.25"/>
<text text-anchor="middle" x="262.12" y="-5.75" font-family="Helvetica,sans-Serif" font-size="10.00">stddef.h</text>
</a>
</g>
</g>
<!-- Node8&#45;&gt;Node9 -->
<g id="edge11_Node000008_Node000009" class="edge">
<title>Node8&#45;&gt;Node9</title>
<g id="a_edge11_Node000008_Node000009"><a xlink:title=" ">
<path fill="none" stroke="#63b8ff" d="M237.91,-55.08C241.67,-48.19 247.03,-38.34 251.76,-29.66"/>
<polygon fill="#63b8ff" stroke="#63b8ff" points="254.8,-31.39 256.51,-20.94 248.65,-28.05 254.8,-31.39"/>
</a>
</g>
</g>
</g>
</svg>
