<?xml version="1.0" encoding="UTF-8" standalone="no"?>
<!DOCTYPE svg PUBLIC "-//W3C//DTD SVG 1.1//EN"
 "http://www.w3.org/Graphics/SVG/1.1/DTD/svg11.dtd">
<!-- Generated by graphviz version 8.0.2 (20230410.1723)
 -->
<!-- Title: src/kernel/arch/x86_64/mmu/paging.h Pages: 1 -->
<svg width="299pt" height="203pt"
 viewBox="0.00 0.00 298.50 203.00" xmlns="http://www.w3.org/2000/svg" xmlns:xlink="http://www.w3.org/1999/xlink">
<g id="graph0" class="graph" transform="scale(1 1) rotate(0) translate(4 199)">
<title>src/kernel/arch/x86_64/mmu/paging.h</title>
<!-- Node1 -->
<g id="Node000001" class="node">
<title>Node1</title>
<g id="a_Node000001"><a xlink:title=" ">
<polygon fill="#999999" stroke="#666666" points="285.5,-195 185.5,-195 185.5,-165 285.5,-165 285.5,-195"/>
<text text-anchor="start" x="193.5" y="-183" font-family="Helvetica,sans-Serif" font-size="10.00">src/kernel/arch/x86</text>
<text text-anchor="middle" x="235.5" y="-172" font-family="Helvetica,sans-Serif" font-size="10.00">_64/mmu/paging.h</text>
</a>
</g>
</g>
<!-- Node2 -->
<g id="Node000002" class="node">
<title>Node2</title>
<g id="a_Node000002"><a xlink:href="frame_8h.html" target="_top" xlink:title=" ">
<polygon fill="white" stroke="#666666" points="192.5,-129 118.5,-129 118.5,-110 192.5,-110 192.5,-129"/>
<text text-anchor="middle" x="155.5" y="-117" font-family="Helvetica,sans-Serif" font-size="10.00">mmu/frame.h</text>
</a>
</g>
</g>
<!-- Node1&#45;&gt;Node2 -->
<g id="edge1_Node000001_Node000002" class="edge">
<title>Node1&#45;&gt;Node2</title>
<g id="a_edge1_Node000001_Node000002"><a xlink:title=" ">
<path fill="none" stroke="#63b8ff" d="M215.72,-164.54C203.63,-155.7 188.19,-144.4 175.97,-135.47"/>
<polygon fill="#63b8ff" stroke="#63b8ff" points="178.5,-132.25 168.36,-129.18 174.37,-137.9 178.5,-132.25"/>
</a>
</g>
</g>
<!-- Node5 -->
<g id="Node000005" class="node">
<title>Node5</title>
<g id="a_Node000005"><a xlink:title=" ">
<polygon fill="#e0e0e0" stroke="#999999" points="220,-19 171,-19 171,0 220,0 220,-19"/>
<text text-anchor="middle" x="195.5" y="-7" font-family="Helvetica,sans-Serif" font-size="10.00">stdint.h</text>
</a>
</g>
</g>
<!-- Node1&#45;&gt;Node5 -->
<g id="edge13_Node000001_Node000005" class="edge">
<title>Node1&#45;&gt;Node5</title>
<g id="a_edge13_Node000001_Node000005"><a xlink:title=" ">
<path fill="none" stroke="#63b8ff" d="M247.96,-164.8C267.35,-140.87 300.38,-91.56 278.5,-55 268.04,-37.53 248.11,-26.52 230.4,-19.83"/>
<polygon fill="#63b8ff" stroke="#63b8ff" points="231.92,-16.3 221.32,-16.37 229.64,-22.92 231.92,-16.3"/>
</a>
</g>
</g>
<!-- Node8 -->
<g id="Node000008" class="node">
<title>Node8</title>
<g id="a_Node000008"><a xlink:href="types_8h.html" target="_top" xlink:title=" ">
<polygon fill="white" stroke="#666666" points="269.5,-74 201.5,-74 201.5,-55 269.5,-55 269.5,-74"/>
<text text-anchor="middle" x="235.5" y="-62" font-family="Helvetica,sans-Serif" font-size="10.00">sys/types.h</text>
</a>
</g>
</g>
<!-- Node1&#45;&gt;Node8 -->
<g id="edge14_Node000001_Node000008" class="edge">
<title>Node1&#45;&gt;Node8</title>
<g id="a_edge14_Node000001_Node000008"><a xlink:title=" ">
<path fill="none" stroke="#63b8ff" d="M235.5,-164.63C235.5,-144.49 235.5,-107.83 235.5,-85.18"/>
<polygon fill="#63b8ff" stroke="#63b8ff" points="239,-85.23 235.5,-75.23 232,-85.23 239,-85.23"/>
</a>
</g>
</g>
<!-- Node3 -->
<g id="Node000003" class="node">
<title>Node3</title>
<g id="a_Node000003"><a xlink:href="multiboot_8h.html" target="_top" xlink:title=" ">
<polygon fill="white" stroke="#666666" points="183.5,-74 97.5,-74 97.5,-55 183.5,-55 183.5,-74"/>
<text text-anchor="middle" x="140.5" y="-62" font-family="Helvetica,sans-Serif" font-size="10.00">core/multiboot.h</text>
</a>
</g>
</g>
<!-- Node2&#45;&gt;Node3 -->
<g id="edge2_Node000002_Node000003" class="edge">
<title>Node2&#45;&gt;Node3</title>
<g id="a_edge2_Node000002_Node000003"><a xlink:title=" ">
<path fill="none" stroke="#63b8ff" d="M153.02,-109.75C151.12,-103.04 148.43,-93.52 146.03,-85.02"/>
<polygon fill="#63b8ff" stroke="#63b8ff" points="149.12,-84.11 143.03,-75.44 142.39,-86.02 149.12,-84.11"/>
</a>
</g>
</g>
<!-- Node6 -->
<g id="Node000006" class="node">
<title>Node6</title>
<g id="a_Node000006"><a xlink:href="bitmap_8h.html" target="_top" xlink:title=" ">
<polygon fill="white" stroke="#666666" points="79,-74 0,-74 0,-55 79,-55 79,-74"/>
<text text-anchor="middle" x="39.5" y="-62" font-family="Helvetica,sans-Serif" font-size="10.00">mmu/bitmap.h</text>
</a>
</g>
</g>
<!-- Node2&#45;&gt;Node6 -->
<g id="edge5_Node000002_Node000006" class="edge">
<title>Node2&#45;&gt;Node6</title>
<g id="a_edge5_Node000002_Node000006"><a xlink:title=" ">
<path fill="none" stroke="#63b8ff" d="M135.82,-109.51C117.46,-101.12 89.83,-88.5 68.87,-78.92"/>
<polygon fill="#63b8ff" stroke="#63b8ff" points="70.44,-75.33 59.89,-74.36 67.53,-81.7 70.44,-75.33"/>
</a>
</g>
</g>
<!-- Node2&#45;&gt;Node8 -->
<g id="edge9_Node000002_Node000008" class="edge">
<title>Node2&#45;&gt;Node8</title>
<g id="a_edge9_Node000002_Node000008"><a xlink:title=" ">
<path fill="none" stroke="#63b8ff" d="M169.07,-109.51C181.1,-101.54 198.89,-89.75 213.03,-80.38"/>
<polygon fill="#63b8ff" stroke="#63b8ff" points="214.73,-82.8 221.13,-74.36 210.86,-76.96 214.73,-82.8"/>
</a>
</g>
</g>
<!-- Node4 -->
<g id="Node000004" class="node">
<title>Node4</title>
<g id="a_Node000004"><a xlink:title=" ">
<polygon fill="#e0e0e0" stroke="#999999" points="152.5,-19 96.5,-19 96.5,0 152.5,0 152.5,-19"/>
<text text-anchor="middle" x="124.5" y="-7" font-family="Helvetica,sans-Serif" font-size="10.00">stdbool.h</text>
</a>
</g>
</g>
<!-- Node3&#45;&gt;Node4 -->
<g id="edge3_Node000003_Node000004" class="edge">
<title>Node3&#45;&gt;Node4</title>
<g id="a_edge3_Node000003_Node000004"><a xlink:title=" ">
<path fill="none" stroke="#63b8ff" d="M137.86,-54.75C135.81,-47.96 132.89,-38.3 130.31,-29.73"/>
<polygon fill="#63b8ff" stroke="#63b8ff" points="133.44,-29 127.2,-20.44 126.74,-31.03 133.44,-29"/>
</a>
</g>
</g>
<!-- Node3&#45;&gt;Node5 -->
<g id="edge4_Node000003_Node000005" class="edge">
<title>Node3&#45;&gt;Node5</title>
<g id="a_edge4_Node000003_Node000005"><a xlink:title=" ">
<path fill="none" stroke="#63b8ff" d="M149.58,-54.75C157.42,-47.2 168.94,-36.09 178.49,-26.9"/>
<polygon fill="#63b8ff" stroke="#63b8ff" points="180.45,-29.9 185.22,-20.44 175.59,-24.86 180.45,-29.9"/>
</a>
</g>
</g>
<!-- Node6&#45;&gt;Node4 -->
<g id="edge7_Node000006_Node000004" class="edge">
<title>Node6&#45;&gt;Node4</title>
<g id="a_edge7_Node000006_Node000004"><a xlink:title=" ">
<path fill="none" stroke="#63b8ff" d="M53.92,-54.51C66.82,-46.47 85.97,-34.53 101.06,-25.11"/>
<polygon fill="#63b8ff" stroke="#63b8ff" points="102.66,-27.62 109.29,-19.36 98.96,-21.68 102.66,-27.62"/>
</a>
</g>
</g>
<!-- Node6&#45;&gt;Node5 -->
<g id="edge8_Node000006_Node000005" class="edge">
<title>Node6&#45;&gt;Node5</title>
<g id="a_edge8_Node000006_Node000005"><a xlink:title=" ">
<path fill="none" stroke="#63b8ff" d="M65.96,-54.51C91.94,-45.68 131.72,-32.17 160.34,-22.44"/>
<polygon fill="#63b8ff" stroke="#63b8ff" points="161.37,-25.45 169.71,-18.92 159.12,-18.82 161.37,-25.45"/>
</a>
</g>
</g>
<!-- Node7 -->
<g id="Node000007" class="node">
<title>Node7</title>
<g id="a_Node000007"><a xlink:title=" ">
<polygon fill="#e0e0e0" stroke="#999999" points="63.5,-19 15.5,-19 15.5,0 63.5,0 63.5,-19"/>
<text text-anchor="middle" x="39.5" y="-7" font-family="Helvetica,sans-Serif" font-size="10.00">limits.h</text>
</a>
</g>
</g>
<!-- Node6&#45;&gt;Node7 -->
<g id="edge6_Node000006_Node000007" class="edge">
<title>Node6&#45;&gt;Node7</title>
<g id="a_edge6_Node000006_Node000007"><a xlink:title=" ">
<path fill="none" stroke="#63b8ff" d="M39.5,-54.75C39.5,-48.11 39.5,-38.73 39.5,-30.31"/>
<polygon fill="#63b8ff" stroke="#63b8ff" points="43,-30.44 39.5,-20.44 36,-30.44 43,-30.44"/>
</a>
</g>
</g>
<!-- Node8&#45;&gt;Node4 -->
<g id="edge10_Node000008_Node000004" class="edge">
<title>Node8&#45;&gt;Node4</title>
<g id="a_edge10_Node000008_Node000004"><a xlink:title=" ">
<path fill="none" stroke="#63b8ff" d="M216.67,-54.51C199.18,-46.16 172.9,-33.61 152.88,-24.05"/>
<polygon fill="#63b8ff" stroke="#63b8ff" points="154.58,-20.51 144.05,-19.36 151.57,-26.83 154.58,-20.51"/>
</a>
</g>
</g>
<!-- Node8&#45;&gt;Node5 -->
<g id="edge12_Node000008_Node000005" class="edge">
<title>Node8&#45;&gt;Node5</title>
<g id="a_edge12_Node000008_Node000005"><a xlink:title=" ">
<path fill="none" stroke="#63b8ff" d="M228.89,-54.75C223.43,-47.5 215.49,-36.98 208.72,-28.02"/>
<polygon fill="#63b8ff" stroke="#63b8ff" points="211.07,-26.32 202.25,-20.44 205.48,-30.53 211.07,-26.32"/>
</a>
</g>
</g>
<!-- Node9 -->
<g id="Node000009" class="node">
<title>Node9</title>
<g id="a_Node000009"><a xlink:title=" ">
<polygon fill="#e0e0e0" stroke="#999999" points="290.5,-19 238.5,-19 238.5,0 290.5,0 290.5,-19"/>
<text text-anchor="middle" x="264.5" y="-7" font-family="Helvetica,sans-Serif" font-size="10.00">stddef.h</text>
</a>
</g>
</g>
<!-- Node8&#45;&gt;Node9 -->
<g id="edge11_Node000008_Node000009" class="edge">
<title>Node8&#45;&gt;Node9</title>
<g id="a_edge11_Node000008_Node000009"><a xlink:title=" ">
<path fill="none" stroke="#63b8ff" d="M240.29,-54.75C244.13,-47.73 249.65,-37.64 254.45,-28.87"/>
<polygon fill="#63b8ff" stroke="#63b8ff" points="257.88,-30.89 259.61,-20.44 251.74,-27.53 257.88,-30.89"/>
</a>
</g>
</g>
</g>
</svg>
