<?xml version="1.0" encoding="UTF-8" standalone="no"?>
<!DOCTYPE svg PUBLIC "-//W3C//DTD SVG 1.1//EN"
 "http://www.w3.org/Graphics/SVG/1.1/DTD/svg11.dtd">
<!-- Generated by graphviz version 2.49.3 (20211023.0002)
 -->
<!-- Title: page_containing_address Pages: 1 -->
<svg width="531pt" height="104pt"
 viewBox="0.00 0.00 531.00 104.00" xmlns="http://www.w3.org/2000/svg" xmlns:xlink="http://www.w3.org/1999/xlink">
<g id="graph0" class="graph" transform="scale(1 1) rotate(0) translate(4 100)">
<title>page_containing_address</title>
<!-- Node1 -->
<g id="node1" class="node">
<title>Node1</title>
<g id="a_node1"><a xlink:title=" ">
<polygon fill="#bfbfbf" stroke="black" points="392,-38.5 392,-57.5 523,-57.5 523,-38.5 392,-38.5"/>
<text text-anchor="middle" x="457.5" y="-45.5" font-family="Helvetica,sans-Serif" font-size="10.00">page_containing_address</text>
</a>
</g>
</g>
<!-- Node2 -->
<g id="node2" class="node">
<title>Node2</title>
<g id="a_node2"><a xlink:href="paging_8h.html#a0fe6ae7a3d76ec54afbc3a0b484f5804" target="_top" xlink:title=" ">
<polygon fill="none" stroke="black" points="244.5,-76.5 244.5,-95.5 317.5,-95.5 317.5,-76.5 244.5,-76.5"/>
<text text-anchor="middle" x="281" y="-83.5" font-family="Helvetica,sans-Serif" font-size="10.00">identity_map</text>
</a>
</g>
</g>
<!-- Node1&#45;&gt;Node2 -->
<g id="edge1" class="edge">
<title>Node1&#45;&gt;Node2</title>
<path fill="none" stroke="midnightblue" d="M402.54,-59.75C374.87,-65.78 341.96,-72.94 317.52,-78.27"/>
<polygon fill="midnightblue" stroke="midnightblue" points="403.44,-63.14 412.47,-57.59 401.95,-56.3 403.44,-63.14"/>
</g>
<!-- Node3 -->
<g id="node3" class="node">
<title>Node3</title>
<g id="a_node3"><a xlink:href="paging_8h.html#acd78a6bfbdc7cbbe0e578e52eccad8bf" target="_top" xlink:title=" ">
<polygon fill="none" stroke="black" points="206,-38.5 206,-57.5 356,-57.5 356,-38.5 206,-38.5"/>
<text text-anchor="middle" x="281" y="-45.5" font-family="Helvetica,sans-Serif" font-size="10.00">paging_amount_for_byte_size</text>
</a>
</g>
</g>
<!-- Node1&#45;&gt;Node3 -->
<g id="edge2" class="edge">
<title>Node1&#45;&gt;Node3</title>
<path fill="none" stroke="midnightblue" d="M381.4,-48C373.03,-48 364.5,-48 356.14,-48"/>
<polygon fill="midnightblue" stroke="midnightblue" points="381.52,-51.5 391.52,-48 381.52,-44.5 381.52,-51.5"/>
</g>
<!-- Node4 -->
<g id="node4" class="node">
<title>Node4</title>
<g id="a_node4"><a xlink:href="paging_8h.html#a1f069c46ac4245771221fc7f0bcfb2e0" target="_top" xlink:title=" ">
<polygon fill="none" stroke="black" points="253.5,-0.5 253.5,-19.5 308.5,-19.5 308.5,-0.5 253.5,-0.5"/>
<text text-anchor="middle" x="281" y="-7.5" font-family="Helvetica,sans-Serif" font-size="10.00">translate</text>
</a>
</g>
</g>
<!-- Node1&#45;&gt;Node4 -->
<g id="edge3" class="edge">
<title>Node1&#45;&gt;Node4</title>
<path fill="none" stroke="midnightblue" d="M402.6,-36.26C371.4,-29.47 333.5,-21.22 308.62,-15.8"/>
<polygon fill="midnightblue" stroke="midnightblue" points="401.95,-39.7 412.47,-38.41 403.44,-32.86 401.95,-39.7"/>
</g>
<!-- Node5 -->
<g id="node5" class="node">
<title>Node5</title>
<g id="a_node5"><a xlink:href="paging_8h.html#a2556847794baa9bcb9be757f7f67f6b4" target="_top" xlink:title=" ">
<polygon fill="none" stroke="black" points="123,-0.5 123,-19.5 170,-19.5 170,-0.5 123,-0.5"/>
<text text-anchor="middle" x="146.5" y="-7.5" font-family="Helvetica,sans-Serif" font-size="10.00">unmap</text>
</a>
</g>
</g>
<!-- Node4&#45;&gt;Node5 -->
<g id="edge4" class="edge">
<title>Node4&#45;&gt;Node5</title>
<path fill="none" stroke="midnightblue" d="M242.95,-10C219.62,-10 190.26,-10 170.3,-10"/>
<polygon fill="midnightblue" stroke="midnightblue" points="243.19,-13.5 253.19,-10 243.19,-6.5 243.19,-13.5"/>
</g>
<!-- Node6 -->
<g id="node6" class="node">
<title>Node6</title>
<g id="a_node6"><a xlink:href="paging_8h.html#aaf4d9db68debae8e51bab96105966d07" target="_top" xlink:title=" ">
<polygon fill="none" stroke="black" points="0,-0.5 0,-19.5 87,-19.5 87,-0.5 0,-0.5"/>
<text text-anchor="middle" x="43.5" y="-7.5" font-family="Helvetica,sans-Serif" font-size="10.00">unmap_multiple</text>
</a>
</g>
</g>
<!-- Node5&#45;&gt;Node6 -->
<g id="edge5" class="edge">
<title>Node5&#45;&gt;Node6</title>
<path fill="none" stroke="midnightblue" d="M112.7,-10C104.63,-10 95.86,-10 87.39,-10"/>
<polygon fill="midnightblue" stroke="midnightblue" points="112.83,-13.5 122.83,-10 112.83,-6.5 112.83,-13.5"/>
</g>
</g>
</svg>
