<?xml version="1.0" encoding="UTF-8" standalone="no"?>
<!DOCTYPE svg PUBLIC "-//W3C//DTD SVG 1.1//EN"
 "http://www.w3.org/Graphics/SVG/1.1/DTD/svg11.dtd">
<!-- Generated by graphviz version 8.0.2 (20230410.1723)
 -->
<!-- Title: page_containing_address Pages: 1 -->
<svg width="317pt" height="104pt"
 viewBox="0.00 0.00 317.00 104.00" xmlns="http://www.w3.org/2000/svg" xmlns:xlink="http://www.w3.org/1999/xlink">
<g id="graph0" class="graph" transform="scale(1 1) rotate(0) translate(4 100)">
<title>page_containing_address</title>
<!-- Node1 -->
<g id="node1" class="node">
<title>Node1</title>
<g id="a_node1"><a xlink:title=" ">
<polygon fill="#bfbfbf" stroke="black" points="182,-38.5 182,-57.5 309,-57.5 309,-38.5 182,-38.5"/>
<text text-anchor="middle" x="245.5" y="-45.5" font-family="Helvetica,sans-Serif" font-size="10.00">page_containing_address</text>
</a>
</g>
</g>
<!-- Node2 -->
<g id="node2" class="node">
<title>Node2</title>
<g id="a_node2"><a xlink:href="paging_8c.html#a0fe6ae7a3d76ec54afbc3a0b484f5804" target="_top" xlink:title=" ">
<polygon fill="none" stroke="black" points="37,-76.5 37,-95.5 109,-95.5 109,-76.5 37,-76.5"/>
<text text-anchor="middle" x="73" y="-83.5" font-family="Helvetica,sans-Serif" font-size="10.00">identity_map</text>
</a>
</g>
</g>
<!-- Node1&#45;&gt;Node2 -->
<g id="edge1" class="edge">
<title>Node1&#45;&gt;Node2</title>
<path fill="none" stroke="midnightblue" d="M191.5,-59.81C164.59,-65.81 132.66,-72.93 108.88,-78.23"/>
<polygon fill="midnightblue" stroke="midnightblue" points="191.92,-63.08 200.92,-57.49 190.39,-56.25 191.92,-63.08"/>
</g>
<!-- Node3 -->
<g id="node3" class="node">
<title>Node3</title>
<g id="a_node3"><a xlink:href="paging_8c.html#acd78a6bfbdc7cbbe0e578e52eccad8bf" target="_top" xlink:title=" ">
<polygon fill="none" stroke="black" points="0,-38.5 0,-57.5 146,-57.5 146,-38.5 0,-38.5"/>
<text text-anchor="middle" x="73" y="-45.5" font-family="Helvetica,sans-Serif" font-size="10.00">paging_amount_for_byte_size</text>
</a>
</g>
</g>
<!-- Node1&#45;&gt;Node3 -->
<g id="edge2" class="edge">
<title>Node1&#45;&gt;Node3</title>
<path fill="none" stroke="midnightblue" d="M171.72,-48C163.14,-48 154.39,-48 145.83,-48"/>
<polygon fill="midnightblue" stroke="midnightblue" points="171.46,-51.5 181.46,-48 171.46,-44.5 171.46,-51.5"/>
</g>
<!-- Node4 -->
<g id="node4" class="node">
<title>Node4</title>
<g id="a_node4"><a xlink:href="paging_8c.html#a1f069c46ac4245771221fc7f0bcfb2e0" target="_top" xlink:title=" ">
<polygon fill="none" stroke="black" points="46,-0.5 46,-19.5 100,-19.5 100,-0.5 46,-0.5"/>
<text text-anchor="middle" x="73" y="-7.5" font-family="Helvetica,sans-Serif" font-size="10.00">translate</text>
</a>
</g>
</g>
<!-- Node1&#45;&gt;Node4 -->
<g id="edge3" class="edge">
<title>Node1&#45;&gt;Node4</title>
<path fill="none" stroke="midnightblue" d="M191.41,-36.17C160.85,-29.36 123.84,-21.11 99.65,-15.72"/>
<polygon fill="midnightblue" stroke="midnightblue" points="190.39,-39.75 200.92,-38.51 191.92,-32.92 190.39,-39.75"/>
</g>
</g>
</svg>
