<?xml version="1.0" encoding="UTF-8" standalone="no"?>
<!DOCTYPE svg PUBLIC "-//W3C//DTD SVG 1.1//EN"
 "http://www.w3.org/Graphics/SVG/1.1/DTD/svg11.dtd">
<!-- Generated by graphviz version 2.49.3 (20211023.0002)
 -->
<!-- Title: unmap_multiple Pages: 1 -->
<svg width="486pt" height="85pt"
 viewBox="0.00 0.00 486.00 85.00" xmlns="http://www.w3.org/2000/svg" xmlns:xlink="http://www.w3.org/1999/xlink">
<g id="graph0" class="graph" transform="scale(1 1) rotate(0) translate(4 81)">
<title>unmap_multiple</title>
<!-- Node1 -->
<g id="node1" class="node">
<title>Node1</title>
<g id="a_node1"><a xlink:title=" ">
<polygon fill="#bfbfbf" stroke="black" points="0,-38.5 0,-57.5 87,-57.5 87,-38.5 0,-38.5"/>
<text text-anchor="middle" x="43.5" y="-45.5" font-family="Helvetica,sans-Serif" font-size="10.00">unmap_multiple</text>
</a>
</g>
</g>
<!-- Node2 -->
<g id="node2" class="node">
<title>Node2</title>
<g id="a_node2"><a xlink:href="paging_8h.html#a2556847794baa9bcb9be757f7f67f6b4" target="_top" xlink:title=" ">
<polygon fill="none" stroke="black" points="123,-38.5 123,-57.5 170,-57.5 170,-38.5 123,-38.5"/>
<text text-anchor="middle" x="146.5" y="-45.5" font-family="Helvetica,sans-Serif" font-size="10.00">unmap</text>
</a>
</g>
</g>
<!-- Node1&#45;&gt;Node2 -->
<g id="edge1" class="edge">
<title>Node1&#45;&gt;Node2</title>
<path fill="none" stroke="midnightblue" d="M87.04,-48C95.59,-48 104.45,-48 112.6,-48"/>
<polygon fill="midnightblue" stroke="midnightblue" points="112.84,-51.5 122.84,-48 112.84,-44.5 112.84,-51.5"/>
</g>
<!-- Node3 -->
<g id="node3" class="node">
<title>Node3</title>
<g id="a_node3"><a xlink:href="paging_8h.html#a96f5f0b5adaea47eda3e10c93401b2bf" target="_top" xlink:title=" ">
<polygon fill="none" stroke="black" points="206,-57.5 206,-76.5 311,-76.5 311,-57.5 206,-57.5"/>
<text text-anchor="middle" x="258.5" y="-64.5" font-family="Helvetica,sans-Serif" font-size="10.00">page_start_address</text>
</a>
</g>
</g>
<!-- Node2&#45;&gt;Node3 -->
<g id="edge2" class="edge">
<title>Node2&#45;&gt;Node3</title>
<path fill="none" stroke="midnightblue" d="M170.03,-51.89C177.69,-53.21 186.66,-54.76 195.89,-56.36"/>
<polygon fill="midnightblue" stroke="midnightblue" points="195.49,-59.84 205.94,-58.09 196.69,-52.94 195.49,-59.84"/>
</g>
<!-- Node4 -->
<g id="node4" class="node">
<title>Node4</title>
<g id="a_node4"><a xlink:href="paging_8h.html#a1f069c46ac4245771221fc7f0bcfb2e0" target="_top" xlink:title=" ">
<polygon fill="none" stroke="black" points="231,-19.5 231,-38.5 286,-38.5 286,-19.5 231,-19.5"/>
<text text-anchor="middle" x="258.5" y="-26.5" font-family="Helvetica,sans-Serif" font-size="10.00">translate</text>
</a>
</g>
</g>
<!-- Node2&#45;&gt;Node4 -->
<g id="edge3" class="edge">
<title>Node2&#45;&gt;Node4</title>
<path fill="none" stroke="midnightblue" d="M170.03,-44.11C184.6,-41.59 203.91,-38.26 220.69,-35.36"/>
<polygon fill="midnightblue" stroke="midnightblue" points="221.48,-38.77 230.74,-33.62 220.29,-31.88 221.48,-38.77"/>
</g>
<!-- Node5 -->
<g id="node5" class="node">
<title>Node5</title>
<g id="a_node5"><a xlink:href="paging_8h.html#a4a8869be87726e3c57c4856fc7b3531c" target="_top" xlink:title=" ">
<polygon fill="none" stroke="black" points="347,-38.5 347,-57.5 478,-57.5 478,-38.5 347,-38.5"/>
<text text-anchor="middle" x="412.5" y="-45.5" font-family="Helvetica,sans-Serif" font-size="10.00">page_containing_address</text>
</a>
</g>
</g>
<!-- Node4&#45;&gt;Node5 -->
<g id="edge4" class="edge">
<title>Node4&#45;&gt;Node5</title>
<path fill="none" stroke="midnightblue" d="M286.32,-32.35C300.49,-34.12 318.65,-36.39 336.72,-38.65"/>
<polygon fill="midnightblue" stroke="midnightblue" points="336.37,-42.14 346.72,-39.9 337.24,-35.19 336.37,-42.14"/>
</g>
<!-- Node6 -->
<g id="node6" class="node">
<title>Node6</title>
<g id="a_node6"><a xlink:href="paging_8h.html#a93e89a9ca57751d1b04f8d95ccbddb4b" target="_top" xlink:title=" ">
<polygon fill="none" stroke="black" points="371,-0.5 371,-19.5 454,-19.5 454,-0.5 371,-0.5"/>
<text text-anchor="middle" x="412.5" y="-7.5" font-family="Helvetica,sans-Serif" font-size="10.00">translate_page</text>
</a>
</g>
</g>
<!-- Node4&#45;&gt;Node6 -->
<g id="edge5" class="edge">
<title>Node4&#45;&gt;Node6</title>
<path fill="none" stroke="midnightblue" d="M286.32,-25.65C306.92,-23.07 335.97,-19.44 360.9,-16.33"/>
<polygon fill="midnightblue" stroke="midnightblue" points="361.44,-19.78 370.93,-15.07 360.58,-12.84 361.44,-19.78"/>
</g>
</g>
</svg>
