<?xml version="1.0" encoding="UTF-8" standalone="no"?>
<!DOCTYPE svg PUBLIC "-//W3C//DTD SVG 1.1//EN"
 "http://www.w3.org/Graphics/SVG/1.1/DTD/svg11.dtd">
<!-- Generated by graphviz version 2.49.3 (20211023.0002)
 -->
<!-- Title: page_containing_address Pages: 1 -->
<svg width="325pt" height="104pt"
 viewBox="0.00 0.00 325.00 104.00" xmlns="http://www.w3.org/2000/svg" xmlns:xlink="http://www.w3.org/1999/xlink">
<g id="graph0" class="graph" transform="scale(1 1) rotate(0) translate(4 100)">
<title>page_containing_address</title>
<!-- Node1 -->
<g id="node1" class="node">
<title>Node1</title>
<g id="a_node1"><a xlink:title=" ">
<polygon fill="#bfbfbf" stroke="black" points="186,-38.5 186,-57.5 317,-57.5 317,-38.5 186,-38.5"/>
<text text-anchor="middle" x="251.5" y="-45.5" font-family="Helvetica,sans-Serif" font-size="10.00">page_containing_address</text>
</a>
</g>
</g>
<!-- Node2 -->
<g id="node2" class="node">
<title>Node2</title>
<g id="a_node2"><a xlink:href="paging_8c.html#a0fe6ae7a3d76ec54afbc3a0b484f5804" target="_top" xlink:title=" ">
<polygon fill="none" stroke="black" points="38.5,-76.5 38.5,-95.5 111.5,-95.5 111.5,-76.5 38.5,-76.5"/>
<text text-anchor="middle" x="75" y="-83.5" font-family="Helvetica,sans-Serif" font-size="10.00">identity_map</text>
</a>
</g>
</g>
<!-- Node1&#45;&gt;Node2 -->
<g id="edge1" class="edge">
<title>Node1&#45;&gt;Node2</title>
<path fill="none" stroke="midnightblue" d="M196.54,-59.75C168.87,-65.78 135.96,-72.94 111.52,-78.27"/>
<polygon fill="midnightblue" stroke="midnightblue" points="197.44,-63.14 206.47,-57.59 195.95,-56.3 197.44,-63.14"/>
</g>
<!-- Node3 -->
<g id="node3" class="node">
<title>Node3</title>
<g id="a_node3"><a xlink:href="paging_8c.html#acd78a6bfbdc7cbbe0e578e52eccad8bf" target="_top" xlink:title=" ">
<polygon fill="none" stroke="black" points="0,-38.5 0,-57.5 150,-57.5 150,-38.5 0,-38.5"/>
<text text-anchor="middle" x="75" y="-45.5" font-family="Helvetica,sans-Serif" font-size="10.00">paging_amount_for_byte_size</text>
</a>
</g>
</g>
<!-- Node1&#45;&gt;Node3 -->
<g id="edge2" class="edge">
<title>Node1&#45;&gt;Node3</title>
<path fill="none" stroke="midnightblue" d="M175.4,-48C167.03,-48 158.5,-48 150.14,-48"/>
<polygon fill="midnightblue" stroke="midnightblue" points="175.52,-51.5 185.52,-48 175.52,-44.5 175.52,-51.5"/>
</g>
<!-- Node4 -->
<g id="node4" class="node">
<title>Node4</title>
<g id="a_node4"><a xlink:href="paging_8c.html#a1f069c46ac4245771221fc7f0bcfb2e0" target="_top" xlink:title=" ">
<polygon fill="none" stroke="black" points="47.5,-0.5 47.5,-19.5 102.5,-19.5 102.5,-0.5 47.5,-0.5"/>
<text text-anchor="middle" x="75" y="-7.5" font-family="Helvetica,sans-Serif" font-size="10.00">translate</text>
</a>
</g>
</g>
<!-- Node1&#45;&gt;Node4 -->
<g id="edge3" class="edge">
<title>Node1&#45;&gt;Node4</title>
<path fill="none" stroke="midnightblue" d="M196.6,-36.26C165.4,-29.47 127.5,-21.22 102.62,-15.8"/>
<polygon fill="midnightblue" stroke="midnightblue" points="195.95,-39.7 206.47,-38.41 197.44,-32.86 195.95,-39.7"/>
</g>
</g>
</svg>
