<?xml version="1.0" encoding="UTF-8" standalone="no"?>
<!DOCTYPE svg PUBLIC "-//W3C//DTD SVG 1.1//EN"
 "http://www.w3.org/Graphics/SVG/1.1/DTD/svg11.dtd">
<!-- Generated by graphviz version 2.49.3 (20211023.0002)
 -->
<!-- Title: src/kernel/arch/x86_64/mmu/paging.h Pages: 1 -->
<svg width="300pt" height="207pt"
 viewBox="0.00 0.00 300.00 207.00" xmlns="http://www.w3.org/2000/svg" xmlns:xlink="http://www.w3.org/1999/xlink">
<g id="graph0" class="graph" transform="scale(1 1) rotate(0) translate(4 203)">
<title>src/kernel/arch/x86_64/mmu/paging.h</title>
<!-- Node1 -->
<g id="node1" class="node">
<title>Node1</title>
<g id="a_node1"><a xlink:title=" ">
<polygon fill="#bfbfbf" stroke="black" points="187.5,-168.5 187.5,-198.5 288.5,-198.5 288.5,-168.5 187.5,-168.5"/>
<text text-anchor="start" x="195.5" y="-186.5" font-family="Helvetica,sans-Serif" font-size="10.00">src/kernel/arch/x86</text>
<text text-anchor="middle" x="238" y="-175.5" font-family="Helvetica,sans-Serif" font-size="10.00">_64/mmu/paging.h</text>
</a>
</g>
</g>
<!-- Node2 -->
<g id="node2" class="node">
<title>Node2</title>
<g id="a_node2"><a xlink:href="frame_8h.html" target="_top" xlink:title=" ">
<polygon fill="none" stroke="black" points="119.5,-112.5 119.5,-131.5 194.5,-131.5 194.5,-112.5 119.5,-112.5"/>
<text text-anchor="middle" x="157" y="-119.5" font-family="Helvetica,sans-Serif" font-size="10.00">mmu/frame.h</text>
</a>
</g>
</g>
<!-- Node1&#45;&gt;Node2 -->
<g id="edge1" class="edge">
<title>Node1&#45;&gt;Node2</title>
<path fill="none" stroke="midnightblue" d="M218.8,-168.4C206.18,-159.13 189.71,-147.03 176.94,-137.65"/>
<polygon fill="midnightblue" stroke="midnightblue" points="178.92,-134.76 168.79,-131.66 174.77,-140.4 178.92,-134.76"/>
</g>
<!-- Node5 -->
<g id="node5" class="node">
<title>Node5</title>
<g id="a_node5"><a xlink:title=" ">
<polygon fill="none" stroke="#bfbfbf" points="172.5,-0.5 172.5,-19.5 221.5,-19.5 221.5,-0.5 172.5,-0.5"/>
<text text-anchor="middle" x="197" y="-7.5" font-family="Helvetica,sans-Serif" font-size="10.00">stdint.h</text>
</a>
</g>
</g>
<!-- Node1&#45;&gt;Node5 -->
<g id="edge13" class="edge">
<title>Node1&#45;&gt;Node5</title>
<path fill="none" stroke="midnightblue" d="M250.03,-168.38C269.17,-144.08 302.25,-93.38 280,-56 269.46,-38.29 249.25,-27.13 231.42,-20.34"/>
<polygon fill="midnightblue" stroke="midnightblue" points="232.43,-16.99 221.83,-17.01 230.13,-23.6 232.43,-16.99"/>
</g>
<!-- Node8 -->
<g id="node8" class="node">
<title>Node8</title>
<g id="a_node8"><a xlink:href="types_8h.html" target="_top" xlink:title=" ">
<polygon fill="none" stroke="black" points="204.5,-56.5 204.5,-75.5 271.5,-75.5 271.5,-56.5 204.5,-56.5"/>
<text text-anchor="middle" x="238" y="-63.5" font-family="Helvetica,sans-Serif" font-size="10.00">sys/types.h</text>
</a>
</g>
</g>
<!-- Node1&#45;&gt;Node8 -->
<g id="edge14" class="edge">
<title>Node1&#45;&gt;Node8</title>
<path fill="none" stroke="midnightblue" d="M238,-168.34C238,-147.62 238,-109.02 238,-85.9"/>
<polygon fill="midnightblue" stroke="midnightblue" points="241.5,-85.67 238,-75.67 234.5,-85.67 241.5,-85.67"/>
</g>
<!-- Node3 -->
<g id="node3" class="node">
<title>Node3</title>
<g id="a_node3"><a xlink:href="multiboot_8h.html" target="_top" xlink:title=" ">
<polygon fill="none" stroke="black" points="98,-56.5 98,-75.5 186,-75.5 186,-56.5 98,-56.5"/>
<text text-anchor="middle" x="142" y="-63.5" font-family="Helvetica,sans-Serif" font-size="10.00">core/multiboot.h</text>
</a>
</g>
</g>
<!-- Node2&#45;&gt;Node3 -->
<g id="edge2" class="edge">
<title>Node2&#45;&gt;Node3</title>
<path fill="none" stroke="midnightblue" d="M154.52,-112.08C152.51,-104.85 149.61,-94.41 147.11,-85.4"/>
<polygon fill="midnightblue" stroke="midnightblue" points="150.48,-84.45 144.43,-75.75 143.74,-86.32 150.48,-84.45"/>
</g>
<!-- Node6 -->
<g id="node6" class="node">
<title>Node6</title>
<g id="a_node6"><a xlink:href="bitmap_8h.html" target="_top" xlink:title=" ">
<polygon fill="none" stroke="black" points="0,-56.5 0,-75.5 80,-75.5 80,-56.5 0,-56.5"/>
<text text-anchor="middle" x="40" y="-63.5" font-family="Helvetica,sans-Serif" font-size="10.00">mmu/bitmap.h</text>
</a>
</g>
</g>
<!-- Node2&#45;&gt;Node6 -->
<g id="edge5" class="edge">
<title>Node2&#45;&gt;Node6</title>
<path fill="none" stroke="midnightblue" d="M138.46,-112.44C119.38,-103.64 89.43,-89.81 67.56,-79.72"/>
<polygon fill="midnightblue" stroke="midnightblue" points="69,-76.53 58.45,-75.52 66.07,-82.88 69,-76.53"/>
</g>
<!-- Node2&#45;&gt;Node8 -->
<g id="edge9" class="edge">
<title>Node2&#45;&gt;Node8</title>
<path fill="none" stroke="midnightblue" d="M170.01,-112.32C182.53,-103.98 201.68,-91.21 216.47,-81.35"/>
<polygon fill="midnightblue" stroke="midnightblue" points="218.64,-84.11 225.02,-75.65 214.76,-78.29 218.64,-84.11"/>
</g>
<!-- Node4 -->
<g id="node4" class="node">
<title>Node4</title>
<g id="a_node4"><a xlink:title=" ">
<polygon fill="none" stroke="#bfbfbf" points="97.5,-0.5 97.5,-19.5 154.5,-19.5 154.5,-0.5 97.5,-0.5"/>
<text text-anchor="middle" x="126" y="-7.5" font-family="Helvetica,sans-Serif" font-size="10.00">stdbool.h</text>
</a>
</g>
</g>
<!-- Node3&#45;&gt;Node4 -->
<g id="edge3" class="edge">
<title>Node3&#45;&gt;Node4</title>
<path fill="none" stroke="midnightblue" d="M139.36,-56.08C137.21,-48.85 134.12,-38.41 131.45,-29.4"/>
<polygon fill="midnightblue" stroke="midnightblue" points="134.79,-28.34 128.59,-19.75 128.08,-30.33 134.79,-28.34"/>
</g>
<!-- Node3&#45;&gt;Node5 -->
<g id="edge4" class="edge">
<title>Node3&#45;&gt;Node5</title>
<path fill="none" stroke="midnightblue" d="M151.08,-56.08C159.17,-48.14 171.2,-36.34 180.91,-26.8"/>
<polygon fill="midnightblue" stroke="midnightblue" points="183.4,-29.25 188.09,-19.75 178.5,-24.26 183.4,-29.25"/>
</g>
<!-- Node6&#45;&gt;Node4 -->
<g id="edge7" class="edge">
<title>Node6&#45;&gt;Node4</title>
<path fill="none" stroke="midnightblue" d="M53.82,-56.32C67.23,-47.9 87.82,-34.97 103.59,-25.07"/>
<polygon fill="midnightblue" stroke="midnightblue" points="105.61,-27.94 112.22,-19.65 101.89,-22.01 105.61,-27.94"/>
</g>
<!-- Node6&#45;&gt;Node5 -->
<g id="edge8" class="edge">
<title>Node6&#45;&gt;Node5</title>
<path fill="none" stroke="midnightblue" d="M64.88,-56.44C91.37,-47.33 133.46,-32.85 163,-22.69"/>
<polygon fill="midnightblue" stroke="midnightblue" points="164.18,-25.99 172.5,-19.43 161.9,-19.37 164.18,-25.99"/>
</g>
<!-- Node7 -->
<g id="node7" class="node">
<title>Node7</title>
<g id="a_node7"><a xlink:title=" ">
<polygon fill="none" stroke="#bfbfbf" points="16,-0.5 16,-19.5 64,-19.5 64,-0.5 16,-0.5"/>
<text text-anchor="middle" x="40" y="-7.5" font-family="Helvetica,sans-Serif" font-size="10.00">limits.h</text>
</a>
</g>
</g>
<!-- Node6&#45;&gt;Node7 -->
<g id="edge6" class="edge">
<title>Node6&#45;&gt;Node7</title>
<path fill="none" stroke="midnightblue" d="M40,-56.08C40,-49.01 40,-38.86 40,-29.99"/>
<polygon fill="midnightblue" stroke="midnightblue" points="43.5,-29.75 40,-19.75 36.5,-29.75 43.5,-29.75"/>
</g>
<!-- Node8&#45;&gt;Node4 -->
<g id="edge10" class="edge">
<title>Node8&#45;&gt;Node4</title>
<path fill="none" stroke="midnightblue" d="M220.01,-56.32C201.96,-47.62 173.95,-34.12 153.2,-24.11"/>
<polygon fill="midnightblue" stroke="midnightblue" points="154.48,-20.84 143.95,-19.65 151.44,-27.15 154.48,-20.84"/>
</g>
<!-- Node8&#45;&gt;Node5 -->
<g id="edge12" class="edge">
<title>Node8&#45;&gt;Node5</title>
<path fill="none" stroke="midnightblue" d="M231.23,-56.08C225.44,-48.46 216.94,-37.26 209.86,-27.94"/>
<polygon fill="midnightblue" stroke="midnightblue" points="212.48,-25.6 203.64,-19.75 206.9,-29.83 212.48,-25.6"/>
</g>
<!-- Node9 -->
<g id="node9" class="node">
<title>Node9</title>
<g id="a_node9"><a xlink:title=" ">
<polygon fill="none" stroke="#bfbfbf" points="240,-0.5 240,-19.5 292,-19.5 292,-0.5 240,-0.5"/>
<text text-anchor="middle" x="266" y="-7.5" font-family="Helvetica,sans-Serif" font-size="10.00">stddef.h</text>
</a>
</g>
</g>
<!-- Node8&#45;&gt;Node9 -->
<g id="edge11" class="edge">
<title>Node8&#45;&gt;Node9</title>
<path fill="none" stroke="midnightblue" d="M242.62,-56.08C246.46,-48.69 252.02,-37.95 256.76,-28.81"/>
<polygon fill="midnightblue" stroke="midnightblue" points="259.97,-30.24 261.46,-19.75 253.75,-27.02 259.97,-30.24"/>
</g>
</g>
</svg>
