<?xml version="1.0" encoding="UTF-8" standalone="no"?>
<!DOCTYPE svg PUBLIC "-//W3C//DTD SVG 1.1//EN"
 "http://www.w3.org/Graphics/SVG/1.1/DTD/svg11.dtd">
<!-- Generated by graphviz version 2.49.3 (20211023.0002)
 -->
<!-- Title: translate_page Pages: 1 -->
<svg width="388pt" height="28pt"
 viewBox="0.00 0.00 388.00 28.00" xmlns="http://www.w3.org/2000/svg" xmlns:xlink="http://www.w3.org/1999/xlink">
<g id="graph0" class="graph" transform="scale(1 1) rotate(0) translate(4 24)">
<title>translate_page</title>
<!-- Node1 -->
<g id="node1" class="node">
<title>Node1</title>
<g id="a_node1"><a xlink:title=" ">
<polygon fill="#bfbfbf" stroke="black" points="297,-0.5 297,-19.5 380,-19.5 380,-0.5 297,-0.5"/>
<text text-anchor="middle" x="338.5" y="-7.5" font-family="Helvetica,sans-Serif" font-size="10.00">translate_page</text>
</a>
</g>
</g>
<!-- Node2 -->
<g id="node2" class="node">
<title>Node2</title>
<g id="a_node2"><a xlink:href="paging_8h.html#a1f069c46ac4245771221fc7f0bcfb2e0" target="_top" xlink:title=" ">
<polygon fill="none" stroke="black" points="206,-0.5 206,-19.5 261,-19.5 261,-0.5 206,-0.5"/>
<text text-anchor="middle" x="233.5" y="-7.5" font-family="Helvetica,sans-Serif" font-size="10.00">translate</text>
</a>
</g>
</g>
<!-- Node1&#45;&gt;Node2 -->
<g id="edge1" class="edge">
<title>Node1&#45;&gt;Node2</title>
<path fill="none" stroke="midnightblue" d="M286.51,-10C277.68,-10 268.84,-10 261.01,-10"/>
<polygon fill="midnightblue" stroke="midnightblue" points="286.79,-13.5 296.79,-10 286.79,-6.5 286.79,-13.5"/>
</g>
<!-- Node3 -->
<g id="node3" class="node">
<title>Node3</title>
<g id="a_node3"><a xlink:href="paging_8h.html#a2556847794baa9bcb9be757f7f67f6b4" target="_top" xlink:title=" ">
<polygon fill="none" stroke="black" points="123,-0.5 123,-19.5 170,-19.5 170,-0.5 123,-0.5"/>
<text text-anchor="middle" x="146.5" y="-7.5" font-family="Helvetica,sans-Serif" font-size="10.00">unmap</text>
</a>
</g>
</g>
<!-- Node2&#45;&gt;Node3 -->
<g id="edge2" class="edge">
<title>Node2&#45;&gt;Node3</title>
<path fill="none" stroke="midnightblue" d="M195.4,-10C186.83,-10 177.96,-10 170.22,-10"/>
<polygon fill="midnightblue" stroke="midnightblue" points="195.61,-13.5 205.61,-10 195.61,-6.5 195.61,-13.5"/>
</g>
<!-- Node4 -->
<g id="node4" class="node">
<title>Node4</title>
<g id="a_node4"><a xlink:href="paging_8h.html#aaf4d9db68debae8e51bab96105966d07" target="_top" xlink:title=" ">
<polygon fill="none" stroke="black" points="0,-0.5 0,-19.5 87,-19.5 87,-0.5 0,-0.5"/>
<text text-anchor="middle" x="43.5" y="-7.5" font-family="Helvetica,sans-Serif" font-size="10.00">unmap_multiple</text>
</a>
</g>
</g>
<!-- Node3&#45;&gt;Node4 -->
<g id="edge3" class="edge">
<title>Node3&#45;&gt;Node4</title>
<path fill="none" stroke="midnightblue" d="M112.7,-10C104.63,-10 95.86,-10 87.39,-10"/>
<polygon fill="midnightblue" stroke="midnightblue" points="112.83,-13.5 122.83,-10 112.83,-6.5 112.83,-13.5"/>
</g>
</g>
</svg>
