<?xml version="1.0" encoding="UTF-8" standalone="no"?>
<!DOCTYPE svg PUBLIC "-//W3C//DTD SVG 1.1//EN"
 "http://www.w3.org/Graphics/SVG/1.1/DTD/svg11.dtd">
<!-- Generated by graphviz version 2.50.0 (20211204.2007)
 -->
<!-- Title: src/kernel/arch/x86_64/mmu/paging.h Pages: 1 -->
<svg width="299pt" height="207pt"
 viewBox="0.00 0.00 298.50 207.00" xmlns="http://www.w3.org/2000/svg" xmlns:xlink="http://www.w3.org/1999/xlink">
<g id="graph0" class="graph" transform="scale(1 1) rotate(0) translate(4 203)">
<title>src/kernel/arch/x86_64/mmu/paging.h</title>
<!-- Node1 -->
<g id="node1" class="node">
<title>Node1</title>
<g id="a_node1"><a xlink:title=" ">
<polygon fill="#bfbfbf" stroke="black" points="185.5,-168.5 185.5,-198.5 285.5,-198.5 285.5,-168.5 185.5,-168.5"/>
<text text-anchor="start" x="193.5" y="-186.5" font-family="Helvetica,sans-Serif" font-size="10.00">src/kernel/arch/x86</text>
<text text-anchor="middle" x="235.5" y="-175.5" font-family="Helvetica,sans-Serif" font-size="10.00">_64/mmu/paging.h</text>
</a>
</g>
</g>
<!-- Node2 -->
<g id="node2" class="node">
<title>Node2</title>
<g id="a_node2"><a xlink:href="frame_8h.html" target="_top" xlink:title=" ">
<polygon fill="none" stroke="black" points="118.5,-112.5 118.5,-131.5 192.5,-131.5 192.5,-112.5 118.5,-112.5"/>
<text text-anchor="middle" x="155.5" y="-119.5" font-family="Helvetica,sans-Serif" font-size="10.00">mmu/frame.h</text>
</a>
</g>
</g>
<!-- Node1&#45;&gt;Node2 -->
<g id="edge1" class="edge">
<title>Node1&#45;&gt;Node2</title>
<path fill="none" stroke="midnightblue" d="M216.54,-168.4C204.08,-159.13 187.8,-147.03 175.19,-137.65"/>
<polygon fill="midnightblue" stroke="midnightblue" points="177.25,-134.82 167.14,-131.66 173.08,-140.43 177.25,-134.82"/>
</g>
<!-- Node5 -->
<g id="node5" class="node">
<title>Node5</title>
<g id="a_node5"><a xlink:title=" ">
<polygon fill="none" stroke="#bfbfbf" points="171,-0.5 171,-19.5 220,-19.5 220,-0.5 171,-0.5"/>
<text text-anchor="middle" x="195.5" y="-7.5" font-family="Helvetica,sans-Serif" font-size="10.00">stdint.h</text>
</a>
</g>
</g>
<!-- Node1&#45;&gt;Node5 -->
<g id="edge13" class="edge">
<title>Node1&#45;&gt;Node5</title>
<path fill="none" stroke="midnightblue" d="M247.71,-168.4C267.16,-144.13 300.81,-93.47 278.5,-56 267.96,-38.29 247.75,-27.13 229.92,-20.34"/>
<polygon fill="midnightblue" stroke="midnightblue" points="230.93,-16.99 220.33,-17.01 228.63,-23.6 230.93,-16.99"/>
</g>
<!-- Node8 -->
<g id="node8" class="node">
<title>Node8</title>
<g id="a_node8"><a xlink:href="types_8h.html" target="_top" xlink:title=" ">
<polygon fill="none" stroke="black" points="201.5,-56.5 201.5,-75.5 269.5,-75.5 269.5,-56.5 201.5,-56.5"/>
<text text-anchor="middle" x="235.5" y="-63.5" font-family="Helvetica,sans-Serif" font-size="10.00">sys/types.h</text>
</a>
</g>
</g>
<!-- Node1&#45;&gt;Node8 -->
<g id="edge14" class="edge">
<title>Node1&#45;&gt;Node8</title>
<path fill="none" stroke="midnightblue" d="M235.5,-168.34C235.5,-147.62 235.5,-109.02 235.5,-85.9"/>
<polygon fill="midnightblue" stroke="midnightblue" points="239,-85.67 235.5,-75.67 232,-85.67 239,-85.67"/>
</g>
<!-- Node3 -->
<g id="node3" class="node">
<title>Node3</title>
<g id="a_node3"><a xlink:href="multiboot_8h.html" target="_top" xlink:title=" ">
<polygon fill="none" stroke="black" points="97.5,-56.5 97.5,-75.5 183.5,-75.5 183.5,-56.5 97.5,-56.5"/>
<text text-anchor="middle" x="140.5" y="-63.5" font-family="Helvetica,sans-Serif" font-size="10.00">core/multiboot.h</text>
</a>
</g>
</g>
<!-- Node2&#45;&gt;Node3 -->
<g id="edge2" class="edge">
<title>Node2&#45;&gt;Node3</title>
<path fill="none" stroke="midnightblue" d="M153.02,-112.08C151.01,-104.85 148.11,-94.41 145.61,-85.4"/>
<polygon fill="midnightblue" stroke="midnightblue" points="148.98,-84.45 142.93,-75.75 142.24,-86.32 148.98,-84.45"/>
</g>
<!-- Node6 -->
<g id="node6" class="node">
<title>Node6</title>
<g id="a_node6"><a xlink:href="bitmap_8h.html" target="_top" xlink:title=" ">
<polygon fill="none" stroke="black" points="0,-56.5 0,-75.5 79,-75.5 79,-56.5 0,-56.5"/>
<text text-anchor="middle" x="39.5" y="-63.5" font-family="Helvetica,sans-Serif" font-size="10.00">mmu/bitmap.h</text>
</a>
</g>
</g>
<!-- Node2&#45;&gt;Node6 -->
<g id="edge5" class="edge">
<title>Node2&#45;&gt;Node6</title>
<path fill="none" stroke="midnightblue" d="M137.12,-112.44C118.28,-103.68 88.77,-89.94 67.12,-79.86"/>
<polygon fill="midnightblue" stroke="midnightblue" points="68.34,-76.56 57.79,-75.52 65.38,-82.91 68.34,-76.56"/>
</g>
<!-- Node2&#45;&gt;Node8 -->
<g id="edge9" class="edge">
<title>Node2&#45;&gt;Node8</title>
<path fill="none" stroke="midnightblue" d="M168.35,-112.32C180.72,-103.98 199.63,-91.21 214.24,-81.35"/>
<polygon fill="midnightblue" stroke="midnightblue" points="216.35,-84.15 222.68,-75.65 212.43,-78.35 216.35,-84.15"/>
</g>
<!-- Node4 -->
<g id="node4" class="node">
<title>Node4</title>
<g id="a_node4"><a xlink:title=" ">
<polygon fill="none" stroke="#bfbfbf" points="96.5,-0.5 96.5,-19.5 152.5,-19.5 152.5,-0.5 96.5,-0.5"/>
<text text-anchor="middle" x="124.5" y="-7.5" font-family="Helvetica,sans-Serif" font-size="10.00">stdbool.h</text>
</a>
</g>
</g>
<!-- Node3&#45;&gt;Node4 -->
<g id="edge3" class="edge">
<title>Node3&#45;&gt;Node4</title>
<path fill="none" stroke="midnightblue" d="M137.86,-56.08C135.71,-48.85 132.62,-38.41 129.95,-29.4"/>
<polygon fill="midnightblue" stroke="midnightblue" points="133.29,-28.34 127.09,-19.75 126.58,-30.33 133.29,-28.34"/>
</g>
<!-- Node3&#45;&gt;Node5 -->
<g id="edge4" class="edge">
<title>Node3&#45;&gt;Node5</title>
<path fill="none" stroke="midnightblue" d="M149.58,-56.08C157.67,-48.14 169.7,-36.34 179.41,-26.8"/>
<polygon fill="midnightblue" stroke="midnightblue" points="181.9,-29.25 186.59,-19.75 177,-24.26 181.9,-29.25"/>
</g>
<!-- Node6&#45;&gt;Node4 -->
<g id="edge7" class="edge">
<title>Node6&#45;&gt;Node4</title>
<path fill="none" stroke="midnightblue" d="M53.16,-56.32C66.42,-47.9 86.77,-34.97 102.35,-25.07"/>
<polygon fill="midnightblue" stroke="midnightblue" points="104.31,-27.97 110.88,-19.65 100.56,-22.06 104.31,-27.97"/>
</g>
<!-- Node6&#45;&gt;Node5 -->
<g id="edge8" class="edge">
<title>Node6&#45;&gt;Node5</title>
<path fill="none" stroke="midnightblue" d="M64.22,-56.44C90.35,-47.4 131.76,-33.06 161.08,-22.92"/>
<polygon fill="midnightblue" stroke="midnightblue" points="162.59,-26.1 170.9,-19.52 160.3,-19.48 162.59,-26.1"/>
</g>
<!-- Node7 -->
<g id="node7" class="node">
<title>Node7</title>
<g id="a_node7"><a xlink:title=" ">
<polygon fill="none" stroke="#bfbfbf" points="15.5,-0.5 15.5,-19.5 63.5,-19.5 63.5,-0.5 15.5,-0.5"/>
<text text-anchor="middle" x="39.5" y="-7.5" font-family="Helvetica,sans-Serif" font-size="10.00">limits.h</text>
</a>
</g>
</g>
<!-- Node6&#45;&gt;Node7 -->
<g id="edge6" class="edge">
<title>Node6&#45;&gt;Node7</title>
<path fill="none" stroke="midnightblue" d="M39.5,-56.08C39.5,-49.01 39.5,-38.86 39.5,-29.99"/>
<polygon fill="midnightblue" stroke="midnightblue" points="43,-29.75 39.5,-19.75 36,-29.75 43,-29.75"/>
</g>
<!-- Node8&#45;&gt;Node4 -->
<g id="edge10" class="edge">
<title>Node8&#45;&gt;Node4</title>
<path fill="none" stroke="midnightblue" d="M217.67,-56.32C199.78,-47.62 172.02,-34.12 151.45,-24.11"/>
<polygon fill="midnightblue" stroke="midnightblue" points="152.81,-20.88 142.29,-19.65 149.75,-27.18 152.81,-20.88"/>
</g>
<!-- Node8&#45;&gt;Node5 -->
<g id="edge12" class="edge">
<title>Node8&#45;&gt;Node5</title>
<path fill="none" stroke="midnightblue" d="M228.89,-56.08C223.24,-48.46 214.96,-37.26 208.05,-27.94"/>
<polygon fill="midnightblue" stroke="midnightblue" points="210.75,-25.7 201.98,-19.75 205.12,-29.87 210.75,-25.7"/>
</g>
<!-- Node9 -->
<g id="node9" class="node">
<title>Node9</title>
<g id="a_node9"><a xlink:title=" ">
<polygon fill="none" stroke="#bfbfbf" points="238.5,-0.5 238.5,-19.5 290.5,-19.5 290.5,-0.5 238.5,-0.5"/>
<text text-anchor="middle" x="264.5" y="-7.5" font-family="Helvetica,sans-Serif" font-size="10.00">stddef.h</text>
</a>
</g>
</g>
<!-- Node8&#45;&gt;Node9 -->
<g id="edge11" class="edge">
<title>Node8&#45;&gt;Node9</title>
<path fill="none" stroke="midnightblue" d="M240.29,-56.08C244.26,-48.69 250.03,-37.95 254.93,-28.81"/>
<polygon fill="midnightblue" stroke="midnightblue" points="258.15,-30.22 259.8,-19.75 251.99,-26.91 258.15,-30.22"/>
</g>
</g>
</svg>
