<?xml version="1.0" encoding="UTF-8" standalone="no"?>
<!DOCTYPE svg PUBLIC "-//W3C//DTD SVG 1.1//EN"
 "http://www.w3.org/Graphics/SVG/1.1/DTD/svg11.dtd">
<!-- Generated by graphviz version 2.49.3 (20211023.0002)
 -->
<!-- Title: unmap Pages: 1 -->
<svg width="363pt" height="85pt"
 viewBox="0.00 0.00 363.00 85.00" xmlns="http://www.w3.org/2000/svg" xmlns:xlink="http://www.w3.org/1999/xlink">
<g id="graph0" class="graph" transform="scale(1 1) rotate(0) translate(4 81)">
<title>unmap</title>
<!-- Node1 -->
<g id="node1" class="node">
<title>Node1</title>
<g id="a_node1"><a xlink:title=" ">
<polygon fill="#bfbfbf" stroke="black" points="0,-38.5 0,-57.5 47,-57.5 47,-38.5 0,-38.5"/>
<text text-anchor="middle" x="23.5" y="-45.5" font-family="Helvetica,sans-Serif" font-size="10.00">unmap</text>
</a>
</g>
</g>
<!-- Node2 -->
<g id="node2" class="node">
<title>Node2</title>
<g id="a_node2"><a xlink:href="paging_8h.html#a96f5f0b5adaea47eda3e10c93401b2bf" target="_top" xlink:title=" ">
<polygon fill="none" stroke="black" points="83,-57.5 83,-76.5 188,-76.5 188,-57.5 83,-57.5"/>
<text text-anchor="middle" x="135.5" y="-64.5" font-family="Helvetica,sans-Serif" font-size="10.00">page_start_address</text>
</a>
</g>
</g>
<!-- Node1&#45;&gt;Node2 -->
<g id="edge1" class="edge">
<title>Node1&#45;&gt;Node2</title>
<path fill="none" stroke="midnightblue" d="M47.03,-51.89C54.69,-53.21 63.66,-54.76 72.89,-56.36"/>
<polygon fill="midnightblue" stroke="midnightblue" points="72.49,-59.84 82.94,-58.09 73.69,-52.94 72.49,-59.84"/>
</g>
<!-- Node3 -->
<g id="node3" class="node">
<title>Node3</title>
<g id="a_node3"><a xlink:href="paging_8h.html#a1f069c46ac4245771221fc7f0bcfb2e0" target="_top" xlink:title=" ">
<polygon fill="none" stroke="black" points="108,-19.5 108,-38.5 163,-38.5 163,-19.5 108,-19.5"/>
<text text-anchor="middle" x="135.5" y="-26.5" font-family="Helvetica,sans-Serif" font-size="10.00">translate</text>
</a>
</g>
</g>
<!-- Node1&#45;&gt;Node3 -->
<g id="edge2" class="edge">
<title>Node1&#45;&gt;Node3</title>
<path fill="none" stroke="midnightblue" d="M47.03,-44.11C61.6,-41.59 80.91,-38.26 97.69,-35.36"/>
<polygon fill="midnightblue" stroke="midnightblue" points="98.48,-38.77 107.74,-33.62 97.29,-31.88 98.48,-38.77"/>
</g>
<!-- Node4 -->
<g id="node4" class="node">
<title>Node4</title>
<g id="a_node4"><a xlink:href="paging_8h.html#a4a8869be87726e3c57c4856fc7b3531c" target="_top" xlink:title=" ">
<polygon fill="none" stroke="black" points="224,-38.5 224,-57.5 355,-57.5 355,-38.5 224,-38.5"/>
<text text-anchor="middle" x="289.5" y="-45.5" font-family="Helvetica,sans-Serif" font-size="10.00">page_containing_address</text>
</a>
</g>
</g>
<!-- Node3&#45;&gt;Node4 -->
<g id="edge3" class="edge">
<title>Node3&#45;&gt;Node4</title>
<path fill="none" stroke="midnightblue" d="M163.32,-32.35C177.49,-34.12 195.65,-36.39 213.72,-38.65"/>
<polygon fill="midnightblue" stroke="midnightblue" points="213.37,-42.14 223.72,-39.9 214.24,-35.19 213.37,-42.14"/>
</g>
<!-- Node5 -->
<g id="node5" class="node">
<title>Node5</title>
<g id="a_node5"><a xlink:href="paging_8h.html#a93e89a9ca57751d1b04f8d95ccbddb4b" target="_top" xlink:title=" ">
<polygon fill="none" stroke="black" points="248,-0.5 248,-19.5 331,-19.5 331,-0.5 248,-0.5"/>
<text text-anchor="middle" x="289.5" y="-7.5" font-family="Helvetica,sans-Serif" font-size="10.00">translate_page</text>
</a>
</g>
</g>
<!-- Node3&#45;&gt;Node5 -->
<g id="edge4" class="edge">
<title>Node3&#45;&gt;Node5</title>
<path fill="none" stroke="midnightblue" d="M163.32,-25.65C183.92,-23.07 212.97,-19.44 237.9,-16.33"/>
<polygon fill="midnightblue" stroke="midnightblue" points="238.44,-19.78 247.93,-15.07 237.58,-12.84 238.44,-19.78"/>
</g>
</g>
</svg>
