<?xml version="1.0" encoding="UTF-8" standalone="no"?>
<!DOCTYPE svg PUBLIC "-//W3C//DTD SVG 1.1//EN"
 "http://www.w3.org/Graphics/SVG/1.1/DTD/svg11.dtd">
<!-- Generated by graphviz version 2.49.3 (20211023.0002)
 -->
<!-- Title: src/kernel/arch/x86_64/mmu/paging.h Pages: 1 -->
<svg width="239pt" height="207pt"
 viewBox="0.00 0.00 238.50 207.00" xmlns="http://www.w3.org/2000/svg" xmlns:xlink="http://www.w3.org/1999/xlink">
<g id="graph0" class="graph" transform="scale(1 1) rotate(0) translate(4 203)">
<title>src/kernel/arch/x86_64/mmu/paging.h</title>
<!-- Node1 -->
<g id="node1" class="node">
<title>Node1</title>
<g id="a_node1"><a xlink:title=" ">
<polygon fill="#bfbfbf" stroke="black" points="129.5,-168.5 129.5,-198.5 230.5,-198.5 230.5,-168.5 129.5,-168.5"/>
<text text-anchor="start" x="137.5" y="-186.5" font-family="Helvetica,sans-Serif" font-size="10.00">src/kernel/arch/x86</text>
<text text-anchor="middle" x="180" y="-175.5" font-family="Helvetica,sans-Serif" font-size="10.00">_64/mmu/paging.h</text>
</a>
</g>
</g>
<!-- Node2 -->
<g id="node2" class="node">
<title>Node2</title>
<g id="a_node2"><a xlink:href="frame_8h.html" target="_top" xlink:title=" ">
<polygon fill="none" stroke="black" points="108.5,-112.5 108.5,-131.5 183.5,-131.5 183.5,-112.5 108.5,-112.5"/>
<text text-anchor="middle" x="146" y="-119.5" font-family="Helvetica,sans-Serif" font-size="10.00">mmu/frame.h</text>
</a>
</g>
</g>
<!-- Node1&#45;&gt;Node2 -->
<g id="edge1" class="edge">
<title>Node1&#45;&gt;Node2</title>
<path fill="none" stroke="midnightblue" d="M171.94,-168.4C167.15,-160.02 161.04,-149.33 155.96,-140.42"/>
<polygon fill="midnightblue" stroke="midnightblue" points="158.95,-138.6 150.95,-131.66 152.87,-142.08 158.95,-138.6"/>
</g>
<!-- Node5 -->
<g id="node5" class="node">
<title>Node5</title>
<g id="a_node5"><a xlink:title=" ">
<polygon fill="none" stroke="#bfbfbf" points="121.5,-0.5 121.5,-19.5 170.5,-19.5 170.5,-0.5 121.5,-0.5"/>
<text text-anchor="middle" x="146" y="-7.5" font-family="Helvetica,sans-Serif" font-size="10.00">stdint.h</text>
</a>
</g>
</g>
<!-- Node1&#45;&gt;Node5 -->
<g id="edge8" class="edge">
<title>Node1&#45;&gt;Node5</title>
<path fill="none" stroke="midnightblue" d="M186.31,-168.14C195.96,-143.91 211.64,-93.86 195,-56 189.61,-43.73 179.04,-33.34 169.1,-25.65"/>
<polygon fill="midnightblue" stroke="midnightblue" points="170.83,-22.58 160.66,-19.6 166.75,-28.27 170.83,-22.58"/>
</g>
<!-- Node3 -->
<g id="node3" class="node">
<title>Node3</title>
<g id="a_node3"><a xlink:href="multiboot_8h.html" target="_top" xlink:title=" ">
<polygon fill="none" stroke="black" points="0,-56.5 0,-75.5 88,-75.5 88,-56.5 0,-56.5"/>
<text text-anchor="middle" x="44" y="-63.5" font-family="Helvetica,sans-Serif" font-size="10.00">core/multiboot.h</text>
</a>
</g>
</g>
<!-- Node2&#45;&gt;Node3 -->
<g id="edge2" class="edge">
<title>Node2&#45;&gt;Node3</title>
<path fill="none" stroke="midnightblue" d="M129.61,-112.32C113.33,-103.7 88.13,-90.36 69.28,-80.39"/>
<polygon fill="midnightblue" stroke="midnightblue" points="70.82,-77.24 60.35,-75.65 67.55,-83.43 70.82,-77.24"/>
</g>
<!-- Node6 -->
<g id="node6" class="node">
<title>Node6</title>
<g id="a_node6"><a xlink:href="bitmap_8h.html" target="_top" xlink:title=" ">
<polygon fill="none" stroke="black" points="106,-56.5 106,-75.5 186,-75.5 186,-56.5 106,-56.5"/>
<text text-anchor="middle" x="146" y="-63.5" font-family="Helvetica,sans-Serif" font-size="10.00">mmu/bitmap.h</text>
</a>
</g>
</g>
<!-- Node2&#45;&gt;Node6 -->
<g id="edge5" class="edge">
<title>Node2&#45;&gt;Node6</title>
<path fill="none" stroke="midnightblue" d="M146,-112.08C146,-105.01 146,-94.86 146,-85.99"/>
<polygon fill="midnightblue" stroke="midnightblue" points="149.5,-85.75 146,-75.75 142.5,-85.75 149.5,-85.75"/>
</g>
<!-- Node4 -->
<g id="node4" class="node">
<title>Node4</title>
<g id="a_node4"><a xlink:title=" ">
<polygon fill="none" stroke="#bfbfbf" points="31.5,-0.5 31.5,-19.5 88.5,-19.5 88.5,-0.5 31.5,-0.5"/>
<text text-anchor="middle" x="60" y="-7.5" font-family="Helvetica,sans-Serif" font-size="10.00">stdbool.h</text>
</a>
</g>
</g>
<!-- Node3&#45;&gt;Node4 -->
<g id="edge3" class="edge">
<title>Node3&#45;&gt;Node4</title>
<path fill="none" stroke="midnightblue" d="M46.64,-56.08C48.79,-48.85 51.88,-38.41 54.55,-29.4"/>
<polygon fill="midnightblue" stroke="midnightblue" points="57.92,-30.33 57.41,-19.75 51.21,-28.34 57.92,-30.33"/>
</g>
<!-- Node3&#45;&gt;Node5 -->
<g id="edge4" class="edge">
<title>Node3&#45;&gt;Node5</title>
<path fill="none" stroke="midnightblue" d="M60.39,-56.32C76.67,-47.7 101.87,-34.36 120.72,-24.39"/>
<polygon fill="midnightblue" stroke="midnightblue" points="122.45,-27.43 129.65,-19.65 119.18,-21.24 122.45,-27.43"/>
</g>
<!-- Node6&#45;&gt;Node4 -->
<g id="edge6" class="edge">
<title>Node6&#45;&gt;Node4</title>
<path fill="none" stroke="midnightblue" d="M132.18,-56.32C118.77,-47.9 98.18,-34.97 82.41,-25.07"/>
<polygon fill="midnightblue" stroke="midnightblue" points="84.11,-22.01 73.78,-19.65 80.39,-27.94 84.11,-22.01"/>
</g>
<!-- Node6&#45;&gt;Node5 -->
<g id="edge7" class="edge">
<title>Node6&#45;&gt;Node5</title>
<path fill="none" stroke="midnightblue" d="M146,-56.08C146,-49.01 146,-38.86 146,-29.99"/>
<polygon fill="midnightblue" stroke="midnightblue" points="149.5,-29.75 146,-19.75 142.5,-29.75 149.5,-29.75"/>
</g>
</g>
</svg>
