<?xml version="1.0" encoding="UTF-8" standalone="no"?>
<!DOCTYPE svg PUBLIC "-//W3C//DTD SVG 1.1//EN"
 "http://www.w3.org/Graphics/SVG/1.1/DTD/svg11.dtd">
<!-- Generated by graphviz version 8.0.2 (20230410.1723)
 -->
<!-- Title: src/kernel/arch/x86_64/mmu/paging.h Pages: 1 -->
<svg width="299pt" height="207pt"
 viewBox="0.00 0.00 298.50 207.00" xmlns="http://www.w3.org/2000/svg" xmlns:xlink="http://www.w3.org/1999/xlink">
<g id="graph0" class="graph" transform="scale(1 1) rotate(0) translate(4 203)">
<title>src/kernel/arch/x86_64/mmu/paging.h</title>
<!-- Node1 -->
<g id="node1" class="node">
<title>Node1</title>
<g id="a_node1"><a xlink:title=" ">
<polygon fill="#bfbfbf" stroke="black" points="185.5,-168.5 185.5,-198.5 285.5,-198.5 285.5,-168.5 185.5,-168.5"/>
<text text-anchor="start" x="193.5" y="-186.5" font-family="Helvetica,sans-Serif" font-size="10.00">src/kernel/arch/x86</text>
<text text-anchor="middle" x="235.5" y="-175.5" font-family="Helvetica,sans-Serif" font-size="10.00">_64/mmu/paging.h</text>
</a>
</g>
</g>
<!-- Node2 -->
<g id="node2" class="node">
<title>Node2</title>
<g id="a_node2"><a xlink:href="frame_8h.html" target="_top" xlink:title=" ">
<polygon fill="none" stroke="black" points="118.5,-112.5 118.5,-131.5 192.5,-131.5 192.5,-112.5 118.5,-112.5"/>
<text text-anchor="middle" x="155.5" y="-119.5" font-family="Helvetica,sans-Serif" font-size="10.00">mmu/frame.h</text>
</a>
</g>
</g>
<!-- Node1&#45;&gt;Node2 -->
<g id="edge1" class="edge">
<title>Node1&#45;&gt;Node2</title>
<path fill="none" stroke="midnightblue" d="M216.95,-168.7C204.47,-159.42 188.03,-147.2 175.3,-137.73"/>
<polygon fill="midnightblue" stroke="midnightblue" points="177.91,-134.56 167.79,-131.4 173.73,-140.18 177.91,-134.56"/>
</g>
<!-- Node5 -->
<g id="node5" class="node">
<title>Node5</title>
<g id="a_node5"><a xlink:title=" ">
<polygon fill="none" stroke="#bfbfbf" points="171,-0.5 171,-19.5 220,-19.5 220,-0.5 171,-0.5"/>
<text text-anchor="middle" x="195.5" y="-7.5" font-family="Helvetica,sans-Serif" font-size="10.00">stdint.h</text>
</a>
</g>
</g>
<!-- Node1&#45;&gt;Node5 -->
<g id="edge13" class="edge">
<title>Node1&#45;&gt;Node5</title>
<path fill="none" stroke="midnightblue" d="M247.4,-168.78C266.8,-144.67 300.93,-93.67 278.5,-56 267.99,-38.34 247.86,-27.18 230.06,-20.4"/>
<polygon fill="midnightblue" stroke="midnightblue" points="231.53,-16.86 220.94,-16.89 229.24,-23.47 231.53,-16.86"/>
</g>
<!-- Node8 -->
<g id="node8" class="node">
<title>Node8</title>
<g id="a_node8"><a xlink:href="types_8h.html" target="_top" xlink:title=" ">
<polygon fill="none" stroke="black" points="201.5,-56.5 201.5,-75.5 269.5,-75.5 269.5,-56.5 201.5,-56.5"/>
<text text-anchor="middle" x="235.5" y="-63.5" font-family="Helvetica,sans-Serif" font-size="10.00">sys/types.h</text>
</a>
</g>
</g>
<!-- Node1&#45;&gt;Node8 -->
<g id="edge14" class="edge">
<title>Node1&#45;&gt;Node8</title>
<path fill="none" stroke="midnightblue" d="M235.5,-168.8C235.5,-148.33 235.5,-109.7 235.5,-86.36"/>
<polygon fill="midnightblue" stroke="midnightblue" points="239,-86.45 235.5,-76.45 232,-86.45 239,-86.45"/>
</g>
<!-- Node3 -->
<g id="node3" class="node">
<title>Node3</title>
<g id="a_node3"><a xlink:href="multiboot_8h.html" target="_top" xlink:title=" ">
<polygon fill="none" stroke="black" points="97.5,-56.5 97.5,-75.5 183.5,-75.5 183.5,-56.5 97.5,-56.5"/>
<text text-anchor="middle" x="140.5" y="-63.5" font-family="Helvetica,sans-Serif" font-size="10.00">core/multiboot.h</text>
</a>
</g>
</g>
<!-- Node2&#45;&gt;Node3 -->
<g id="edge2" class="edge">
<title>Node2&#45;&gt;Node3</title>
<path fill="none" stroke="midnightblue" d="M153.16,-112.56C151.16,-105.39 148.23,-94.82 145.69,-85.67"/>
<polygon fill="midnightblue" stroke="midnightblue" points="148.83,-84.9 142.78,-76.2 142.08,-86.77 148.83,-84.9"/>
</g>
<!-- Node6 -->
<g id="node6" class="node">
<title>Node6</title>
<g id="a_node6"><a xlink:href="bitmap_8h.html" target="_top" xlink:title=" ">
<polygon fill="none" stroke="black" points="0,-56.5 0,-75.5 79,-75.5 79,-56.5 0,-56.5"/>
<text text-anchor="middle" x="39.5" y="-63.5" font-family="Helvetica,sans-Serif" font-size="10.00">mmu/bitmap.h</text>
</a>
</g>
</g>
<!-- Node2&#45;&gt;Node6 -->
<g id="edge5" class="edge">
<title>Node2&#45;&gt;Node6</title>
<path fill="none" stroke="midnightblue" d="M137.38,-112.56C118.65,-103.84 89.17,-90.12 67.45,-80.01"/>
<polygon fill="midnightblue" stroke="midnightblue" points="69.04,-76.43 58.5,-75.38 66.09,-82.77 69.04,-76.43"/>
</g>
<!-- Node2&#45;&gt;Node8 -->
<g id="edge9" class="edge">
<title>Node2&#45;&gt;Node8</title>
<path fill="none" stroke="midnightblue" d="M168,-112.56C180.33,-104.24 199.41,-91.36 214.15,-81.41"/>
<polygon fill="midnightblue" stroke="midnightblue" points="215.76,-83.87 222.09,-75.38 211.84,-78.07 215.76,-83.87"/>
</g>
<!-- Node4 -->
<g id="node4" class="node">
<title>Node4</title>
<g id="a_node4"><a xlink:title=" ">
<polygon fill="none" stroke="#bfbfbf" points="96.5,-0.5 96.5,-19.5 152.5,-19.5 152.5,-0.5 96.5,-0.5"/>
<text text-anchor="middle" x="124.5" y="-7.5" font-family="Helvetica,sans-Serif" font-size="10.00">stdbool.h</text>
</a>
</g>
</g>
<!-- Node3&#45;&gt;Node4 -->
<g id="edge3" class="edge">
<title>Node3&#45;&gt;Node4</title>
<path fill="none" stroke="midnightblue" d="M138,-56.56C135.87,-49.39 132.74,-38.82 130.03,-29.67"/>
<polygon fill="midnightblue" stroke="midnightblue" points="133.13,-28.8 126.93,-20.2 126.42,-30.78 133.13,-28.8"/>
</g>
<!-- Node3&#45;&gt;Node5 -->
<g id="edge4" class="edge">
<title>Node3&#45;&gt;Node5</title>
<path fill="none" stroke="midnightblue" d="M149.09,-56.56C157.21,-48.59 169.59,-36.43 179.53,-26.68"/>
<polygon fill="midnightblue" stroke="midnightblue" points="181.46,-29.7 186.15,-20.2 176.56,-24.71 181.46,-29.7"/>
</g>
<!-- Node6&#45;&gt;Node4 -->
<g id="edge7" class="edge">
<title>Node6&#45;&gt;Node4</title>
<path fill="none" stroke="midnightblue" d="M52.78,-56.56C66.01,-48.16 86.54,-35.11 102.26,-25.13"/>
<polygon fill="midnightblue" stroke="midnightblue" points="103.75,-27.69 110.31,-19.38 99.99,-21.79 103.75,-27.69"/>
</g>
<!-- Node6&#45;&gt;Node5 -->
<g id="edge8" class="edge">
<title>Node6&#45;&gt;Node5</title>
<path fill="none" stroke="midnightblue" d="M63.88,-56.56C89.9,-47.55 131.36,-33.2 160.79,-23.01"/>
<polygon fill="midnightblue" stroke="midnightblue" points="161.73,-26.05 170.04,-19.47 159.44,-19.43 161.73,-26.05"/>
</g>
<!-- Node7 -->
<g id="node7" class="node">
<title>Node7</title>
<g id="a_node7"><a xlink:title=" ">
<polygon fill="none" stroke="#bfbfbf" points="15.5,-0.5 15.5,-19.5 63.5,-19.5 63.5,-0.5 15.5,-0.5"/>
<text text-anchor="middle" x="39.5" y="-7.5" font-family="Helvetica,sans-Serif" font-size="10.00">limits.h</text>
</a>
</g>
</g>
<!-- Node6&#45;&gt;Node7 -->
<g id="edge6" class="edge">
<title>Node6&#45;&gt;Node7</title>
<path fill="none" stroke="midnightblue" d="M39.5,-56.56C39.5,-49.47 39.5,-39.06 39.5,-29.98"/>
<polygon fill="midnightblue" stroke="midnightblue" points="43,-30.2 39.5,-20.2 36,-30.2 43,-30.2"/>
</g>
<!-- Node8&#45;&gt;Node4 -->
<g id="edge10" class="edge">
<title>Node8&#45;&gt;Node4</title>
<path fill="none" stroke="midnightblue" d="M218.16,-56.56C200.32,-47.88 172.28,-34.25 151.53,-24.15"/>
<polygon fill="midnightblue" stroke="midnightblue" points="153.25,-20.61 142.72,-19.38 150.18,-26.9 153.25,-20.61"/>
</g>
<!-- Node8&#45;&gt;Node5 -->
<g id="edge12" class="edge">
<title>Node8&#45;&gt;Node5</title>
<path fill="none" stroke="midnightblue" d="M229.25,-56.56C223.58,-48.91 215.06,-37.4 207.99,-27.86"/>
<polygon fill="midnightblue" stroke="midnightblue" points="210.34,-26.15 201.58,-20.2 204.71,-30.32 210.34,-26.15"/>
</g>
<!-- Node9 -->
<g id="node9" class="node">
<title>Node9</title>
<g id="a_node9"><a xlink:title=" ">
<polygon fill="none" stroke="#bfbfbf" points="238.5,-0.5 238.5,-19.5 290.5,-19.5 290.5,-0.5 238.5,-0.5"/>
<text text-anchor="middle" x="264.5" y="-7.5" font-family="Helvetica,sans-Serif" font-size="10.00">stddef.h</text>
</a>
</g>
</g>
<!-- Node8&#45;&gt;Node9 -->
<g id="edge11" class="edge">
<title>Node8&#45;&gt;Node9</title>
<path fill="none" stroke="midnightblue" d="M240.03,-56.56C244.01,-49.15 249.94,-38.12 254.96,-28.76"/>
<polygon fill="midnightblue" stroke="midnightblue" points="258.45,-30.67 260.1,-20.2 252.28,-27.36 258.45,-30.67"/>
</g>
</g>
</svg>
