<?xml version="1.0" encoding="UTF-8" standalone="no"?>
<!DOCTYPE svg PUBLIC "-//W3C//DTD SVG 1.1//EN"
 "http://www.w3.org/Graphics/SVG/1.1/DTD/svg11.dtd">
<!-- Generated by graphviz version 2.49.3 (20211023.0002)
 -->
<!-- Title: translate Pages: 1 -->
<svg width="230pt" height="66pt"
 viewBox="0.00 0.00 230.00 66.00" xmlns="http://www.w3.org/2000/svg" xmlns:xlink="http://www.w3.org/1999/xlink">
<g id="graph0" class="graph" transform="scale(1 1) rotate(0) translate(4 62)">
<title>translate</title>
<!-- Node1 -->
<g id="node1" class="node">
<title>Node1</title>
<g id="a_node1"><a xlink:title=" ">
<polygon fill="#bfbfbf" stroke="black" points="0,-19.5 0,-38.5 55,-38.5 55,-19.5 0,-19.5"/>
<text text-anchor="middle" x="27.5" y="-26.5" font-family="Helvetica,sans-Serif" font-size="10.00">translate</text>
</a>
</g>
</g>
<!-- Node2 -->
<g id="node2" class="node">
<title>Node2</title>
<g id="a_node2"><a xlink:href="paging_8h.html#a4a8869be87726e3c57c4856fc7b3531c" target="_top" xlink:title=" ">
<polygon fill="none" stroke="black" points="91,-38.5 91,-57.5 222,-57.5 222,-38.5 91,-38.5"/>
<text text-anchor="middle" x="156.5" y="-45.5" font-family="Helvetica,sans-Serif" font-size="10.00">page_containing_address</text>
</a>
</g>
</g>
<!-- Node1&#45;&gt;Node2 -->
<g id="edge1" class="edge">
<title>Node1&#45;&gt;Node2</title>
<path fill="none" stroke="midnightblue" d="M55.12,-32.98C63.11,-34.18 72.29,-35.55 81.79,-36.97"/>
<polygon fill="midnightblue" stroke="midnightblue" points="81.35,-40.45 91.76,-38.46 82.39,-33.52 81.35,-40.45"/>
</g>
<!-- Node3 -->
<g id="node3" class="node">
<title>Node3</title>
<g id="a_node3"><a xlink:href="paging_8h.html#a93e89a9ca57751d1b04f8d95ccbddb4b" target="_top" xlink:title=" ">
<polygon fill="none" stroke="black" points="115,-0.5 115,-19.5 198,-19.5 198,-0.5 115,-0.5"/>
<text text-anchor="middle" x="156.5" y="-7.5" font-family="Helvetica,sans-Serif" font-size="10.00">translate_page</text>
</a>
</g>
</g>
<!-- Node1&#45;&gt;Node3 -->
<g id="edge2" class="edge">
<title>Node1&#45;&gt;Node3</title>
<path fill="none" stroke="midnightblue" d="M55.12,-25.02C69.46,-22.87 87.63,-20.15 104.56,-17.62"/>
<polygon fill="midnightblue" stroke="midnightblue" points="105.53,-21.02 114.9,-16.07 104.49,-14.09 105.53,-21.02"/>
</g>
</g>
</svg>
