<?xml version="1.0" encoding="UTF-8" standalone="no"?>
<!DOCTYPE svg PUBLIC "-//W3C//DTD SVG 1.1//EN"
 "http://www.w3.org/Graphics/SVG/1.1/DTD/svg11.dtd">
<!-- Generated by graphviz version 9.0.0 (20230911.1827)
 -->
<!-- Title: include/kernel/panic.h Pages: 1 -->
<svg width="310pt" height="193pt"
 viewBox="0.00 0.00 309.88 193.00" xmlns="http://www.w3.org/2000/svg" xmlns:xlink="http://www.w3.org/1999/xlink">
<g id="graph0" class="graph" transform="scale(1 1) rotate(0) translate(4 189)">
<title>include/kernel/panic.h</title>
<!-- Node1 -->
<g id="Node000001" class="node">
<title>Node1</title>
<g id="a_Node000001"><a xlink:title=" ">
<polygon fill="#999999" stroke="#666666" points="250.62,-185 140.12,-185 140.12,-165.75 250.62,-165.75 250.62,-185"/>
<text text-anchor="middle" x="195.38" y="-171.5" font-family="Helvetica,sans-Serif" font-size="10.00">include/kernel/panic.h</text>
</a>
</g>
</g>
<!-- Node2 -->
<g id="Node000002" class="node">
<title>Node2</title>
<g id="a_Node000002"><a xlink:href="logging_8h.html" target="_top" xlink:title="This is the general kernel logging module.">
<polygon fill="white" stroke="#666666" points="186.88,-129.75 131.88,-129.75 131.88,-110.5 186.88,-110.5 186.88,-129.75"/>
<text text-anchor="middle" x="159.38" y="-116.25" font-family="Helvetica,sans-Serif" font-size="10.00">logging.h</text>
</a>
</g>
</g>
<!-- Node1&#45;&gt;Node2 -->
<g id="edge1_Node000001_Node000002" class="edge">
<title>Node1&#45;&gt;Node2</title>
<g id="a_edge1_Node000001_Node000002"><a xlink:title=" ">
<path fill="none" stroke="#63b8ff" d="M189.43,-165.58C184.66,-158.53 177.81,-148.4 171.85,-139.58"/>
<polygon fill="#63b8ff" stroke="#63b8ff" points="174.8,-137.69 166.3,-131.36 169,-141.61 174.8,-137.69"/>
</a>
</g>
</g>
<!-- Node9 -->
<g id="Node000009" class="node">
<title>Node9</title>
<g id="a_Node000009"><a xlink:title=" ">
<polygon fill="#e0e0e0" stroke="#999999" points="260.25,-129.75 204.5,-129.75 204.5,-110.5 260.25,-110.5 260.25,-129.75"/>
<text text-anchor="middle" x="232.38" y="-116.25" font-family="Helvetica,sans-Serif" font-size="10.00">stdbool.h</text>
</a>
</g>
</g>
<!-- Node1&#45;&gt;Node9 -->
<g id="edge8_Node000001_Node000009" class="edge">
<title>Node1&#45;&gt;Node9</title>
<g id="a_edge8_Node000001_Node000009"><a xlink:title=" ">
<path fill="none" stroke="#63b8ff" d="M201.48,-165.58C206.44,-158.46 213.58,-148.18 219.75,-139.3"/>
<polygon fill="#63b8ff" stroke="#63b8ff" points="222.44,-141.56 225.27,-131.35 216.69,-137.57 222.44,-141.56"/>
</a>
</g>
</g>
<!-- Node3 -->
<g id="Node000003" class="node">
<title>Node3</title>
<g id="a_Node000003"><a xlink:href="arch_2logging_8h.html" target="_top" xlink:title=" ">
<polygon fill="white" stroke="#666666" points="76.75,-74.5 0,-74.5 0,-55.25 76.75,-55.25 76.75,-74.5"/>
<text text-anchor="middle" x="38.38" y="-61" font-family="Helvetica,sans-Serif" font-size="10.00">arch/logging.h</text>
</a>
</g>
</g>
<!-- Node2&#45;&gt;Node3 -->
<g id="edge2_Node000002_Node000003" class="edge">
<title>Node2&#45;&gt;Node3</title>
<g id="a_edge2_Node000002_Node000003"><a xlink:title=" ">
<path fill="none" stroke="#63b8ff" d="M138.85,-110.09C119.81,-101.72 91.22,-89.13 69.4,-79.53"/>
<polygon fill="#63b8ff" stroke="#63b8ff" points="70.95,-76.39 60.39,-75.56 68.13,-82.79 70.95,-76.39"/>
</a>
</g>
</g>
<!-- Node4 -->
<g id="Node000004" class="node">
<title>Node4</title>
<g id="a_Node000004"><a xlink:href="inttypes_8h.html" target="_top" xlink:title=" ">
<polygon fill="white" stroke="#666666" points="153.75,-74.5 95,-74.5 95,-55.25 153.75,-55.25 153.75,-74.5"/>
<text text-anchor="middle" x="124.38" y="-61" font-family="Helvetica,sans-Serif" font-size="10.00">inttypes.h</text>
</a>
</g>
</g>
<!-- Node2&#45;&gt;Node4 -->
<g id="edge3_Node000002_Node000004" class="edge">
<title>Node2&#45;&gt;Node4</title>
<g id="a_edge3_Node000002_Node000004"><a xlink:title=" ">
<path fill="none" stroke="#63b8ff" d="M153.6,-110.33C148.96,-103.28 142.3,-93.15 136.51,-84.33"/>
<polygon fill="#63b8ff" stroke="#63b8ff" points="139.53,-82.56 131.11,-76.12 133.68,-86.4 139.53,-82.56"/>
</a>
</g>
</g>
<!-- Node5 -->
<g id="Node000005" class="node">
<title>Node5</title>
<g id="a_Node000005"><a xlink:href="stdio_8h.html" target="_top" xlink:title=" ">
<polygon fill="white" stroke="#666666" points="217,-74.5 171.75,-74.5 171.75,-55.25 217,-55.25 217,-74.5"/>
<text text-anchor="middle" x="194.38" y="-61" font-family="Helvetica,sans-Serif" font-size="10.00">stdio.h</text>
</a>
</g>
</g>
<!-- Node2&#45;&gt;Node5 -->
<g id="edge4_Node000002_Node000005" class="edge">
<title>Node2&#45;&gt;Node5</title>
<g id="a_edge4_Node000002_Node000005"><a xlink:title=" ">
<path fill="none" stroke="#63b8ff" d="M165.15,-110.33C169.79,-103.28 176.45,-93.15 182.24,-84.33"/>
<polygon fill="#63b8ff" stroke="#63b8ff" points="185.07,-86.4 187.64,-76.12 179.22,-82.56 185.07,-86.4"/>
</a>
</g>
</g>
<!-- Node7 -->
<g id="Node000007" class="node">
<title>Node7</title>
<g id="a_Node000007"><a xlink:href="timer_8h.html" target="_top" xlink:title=" ">
<polygon fill="white" stroke="#666666" points="301.88,-74.5 234.88,-74.5 234.88,-55.25 301.88,-55.25 301.88,-74.5"/>
<text text-anchor="middle" x="268.38" y="-61" font-family="Helvetica,sans-Serif" font-size="10.00">time/timer.h</text>
</a>
</g>
</g>
<!-- Node2&#45;&gt;Node7 -->
<g id="edge6_Node000002_Node000007" class="edge">
<title>Node2&#45;&gt;Node7</title>
<g id="a_edge6_Node000002_Node000007"><a xlink:title=" ">
<path fill="none" stroke="#63b8ff" d="M177.87,-110.09C194.78,-101.83 220.06,-89.48 239.61,-79.93"/>
<polygon fill="#63b8ff" stroke="#63b8ff" points="240.99,-83.15 248.43,-75.62 237.91,-76.86 240.99,-83.15"/>
</a>
</g>
</g>
<!-- Node6 -->
<g id="Node000006" class="node">
<title>Node6</title>
<g id="a_Node000006"><a xlink:title=" ">
<polygon fill="#e0e0e0" stroke="#999999" points="217.38,-19.25 171.38,-19.25 171.38,0 217.38,0 217.38,-19.25"/>
<text text-anchor="middle" x="194.38" y="-5.75" font-family="Helvetica,sans-Serif" font-size="10.00">printf.h</text>
</a>
</g>
</g>
<!-- Node5&#45;&gt;Node6 -->
<g id="edge5_Node000005_Node000006" class="edge">
<title>Node5&#45;&gt;Node6</title>
<g id="a_edge5_Node000005_Node000006"><a xlink:title=" ">
<path fill="none" stroke="#63b8ff" d="M194.38,-55.08C194.38,-48.57 194.38,-39.42 194.38,-31.12"/>
<polygon fill="#63b8ff" stroke="#63b8ff" points="197.88,-31.12 194.38,-21.12 190.88,-31.12 197.88,-31.12"/>
</a>
</g>
</g>
<!-- Node8 -->
<g id="Node000008" class="node">
<title>Node8</title>
<g id="a_Node000008"><a xlink:title=" ">
<polygon fill="#e0e0e0" stroke="#999999" points="292.5,-19.25 244.25,-19.25 244.25,0 292.5,0 292.5,-19.25"/>
<text text-anchor="middle" x="268.38" y="-5.75" font-family="Helvetica,sans-Serif" font-size="10.00">stdint.h</text>
</a>
</g>
</g>
<!-- Node7&#45;&gt;Node8 -->
<g id="edge7_Node000007_Node000008" class="edge">
<title>Node7&#45;&gt;Node8</title>
<g id="a_edge7_Node000007_Node000008"><a xlink:title=" ">
<path fill="none" stroke="#63b8ff" d="M268.38,-55.08C268.38,-48.57 268.38,-39.42 268.38,-31.12"/>
<polygon fill="#63b8ff" stroke="#63b8ff" points="271.88,-31.12 268.38,-21.12 264.88,-31.12 271.88,-31.12"/>
</a>
</g>
</g>
</g>
</svg>
