<?xml version="1.0" encoding="UTF-8" standalone="no"?>
<!DOCTYPE svg PUBLIC "-//W3C//DTD SVG 1.1//EN"
 "http://www.w3.org/Graphics/SVG/1.1/DTD/svg11.dtd">
<!-- Generated by graphviz version 8.0.2 (20230410.1723)
 -->
<!-- Title: kernel_panic Pages: 1 -->
<svg width="393pt" height="82pt"
 viewBox="0.00 0.00 393.00 82.00" xmlns="http://www.w3.org/2000/svg" xmlns:xlink="http://www.w3.org/1999/xlink">
<g id="graph0" class="graph" transform="scale(1 1) rotate(0) translate(4 78)">
<title>kernel_panic</title>
<!-- Node1 -->
<g id="Node000001" class="node">
<title>Node1</title>
<g id="a_Node000001"><a xlink:title=" ">
<polygon fill="#999999" stroke="#666666" points="71,-37 0,-37 0,-18 71,-18 71,-37"/>
<text text-anchor="middle" x="35.5" y="-25" font-family="Helvetica,sans-Serif" font-size="10.00">kernel_panic</text>
</a>
</g>
</g>
<!-- Node2 -->
<g id="Node000002" class="node">
<title>Node2</title>
<g id="a_Node000002"><a xlink:href="x86__64_2arch_2kernel_8c.html#afa8a138b0f00d1bb5d26f79378caa530" target="_top" xlink:title=" ">
<polygon fill="white" stroke="#666666" points="196.5,-56 140.5,-56 140.5,-37 196.5,-37 196.5,-56"/>
<text text-anchor="middle" x="168.5" y="-44" font-family="Helvetica,sans-Serif" font-size="10.00">arch_halt</text>
</a>
</g>
</g>
<!-- Node1&#45;&gt;Node2 -->
<g id="edge1_Node000001_Node000002" class="edge">
<title>Node1&#45;&gt;Node2</title>
<g id="a_edge1_Node000001_Node000002"><a xlink:title=" ">
<path fill="none" stroke="#63b8ff" d="M71.26,-32.54C89.17,-35.14 111.05,-38.31 129.42,-40.98"/>
<polygon fill="#63b8ff" stroke="#63b8ff" points="128.65,-44.55 139.05,-42.52 129.66,-37.62 128.65,-44.55"/>
</a>
</g>
</g>
<!-- Node3 -->
<g id="Node000003" class="node">
<title>Node3</title>
<g id="a_Node000003"><a xlink:href="panic_8c.html#a714e1c8a23ac88c46756c44ec1a5b7f8" target="_top" xlink:title=" ">
<polygon fill="white" stroke="#666666" points="230,-19 107,-19 107,0 230,0 230,-19"/>
<text text-anchor="middle" x="168.5" y="-7" font-family="Helvetica,sans-Serif" font-size="10.00">kernel_dump_stacktrace</text>
</a>
</g>
</g>
<!-- Node1&#45;&gt;Node3 -->
<g id="edge3_Node000001_Node000003" class="edge">
<title>Node1&#45;&gt;Node3</title>
<g id="a_edge3_Node000001_Node000003"><a xlink:title=" ">
<path fill="none" stroke="#63b8ff" d="M71.26,-22.72C78.94,-21.67 87.34,-20.51 95.88,-19.34"/>
<polygon fill="#63b8ff" stroke="#63b8ff" points="96.3,-22.68 105.73,-17.85 95.35,-15.74 96.3,-22.68"/>
</a>
</g>
</g>
<!-- Node2&#45;&gt;Node2 -->
<g id="edge2_Node000002_Node000002" class="edge">
<title>Node2&#45;&gt;Node2</title>
<g id="a_edge2_Node000002_Node000002"><a xlink:title=" ">
<path fill="none" stroke="#63b8ff" d="M147.68,-56.37C138.18,-64.94 145.12,-74 168.5,-74 182.02,-74 190.04,-70.97 192.57,-66.76"/>
<polygon fill="#63b8ff" stroke="#63b8ff" points="195.64,-65.87 189.32,-57.37 188.96,-67.96 195.64,-65.87"/>
</a>
</g>
</g>
<!-- Node4 -->
<g id="Node000004" class="node">
<title>Node4</title>
<g id="a_Node000004"><a xlink:href="x86__64_2arch_2kernel_8c.html#a90eb89dc1751bf77f797ebe63dc856ee" target="_top" xlink:title=" ">
<polygon fill="white" stroke="#666666" points="385,-19 266,-19 266,0 385,0 385,-19"/>
<text text-anchor="middle" x="325.5" y="-7" font-family="Helvetica,sans-Serif" font-size="10.00">arch_is_kernel_address</text>
</a>
</g>
</g>
<!-- Node3&#45;&gt;Node4 -->
<g id="edge4_Node000003_Node000004" class="edge">
<title>Node3&#45;&gt;Node4</title>
<g id="a_edge4_Node000003_Node000004"><a xlink:title=" ">
<path fill="none" stroke="#63b8ff" d="M230.32,-9.5C238.3,-9.5 246.54,-9.5 254.66,-9.5"/>
<polygon fill="#63b8ff" stroke="#63b8ff" points="254.64,-13 264.64,-9.5 254.64,-6 254.64,-13"/>
</a>
</g>
</g>
<!-- Node4&#45;&gt;Node4 -->
<g id="edge5_Node000004_Node000004" class="edge">
<title>Node4&#45;&gt;Node4</title>
<g id="a_edge5_Node000004_Node000004"><a xlink:title=" ">
<path fill="none" stroke="#63b8ff" d="M300.92,-19.37C289.71,-27.94 297.9,-37 325.5,-37 341.89,-37 351.43,-33.8 354.14,-29.42"/>
<polygon fill="#63b8ff" stroke="#63b8ff" points="357.07,-28.33 350.08,-20.37 350.58,-30.95 357.07,-28.33"/>
</a>
</g>
</g>
</g>
</svg>
