<?xml version="1.0" encoding="UTF-8" standalone="no"?>
<!DOCTYPE svg PUBLIC "-//W3C//DTD SVG 1.1//EN"
 "http://www.w3.org/Graphics/SVG/1.1/DTD/svg11.dtd">
<!-- Generated by graphviz version 2.49.3 (20211023.0002)
 -->
<!-- Title: include/kernel/panic.h Pages: 1 -->
<svg width="298pt" height="196pt"
 viewBox="0.00 0.00 298.00 196.00" xmlns="http://www.w3.org/2000/svg" xmlns:xlink="http://www.w3.org/1999/xlink">
<g id="graph0" class="graph" transform="scale(1 1) rotate(0) translate(4 192)">
<title>include/kernel/panic.h</title>
<!-- Node1 -->
<g id="node1" class="node">
<title>Node1</title>
<g id="a_node1"><a xlink:title=" ">
<polygon fill="#bfbfbf" stroke="black" points="36,-168.5 36,-187.5 149,-187.5 149,-168.5 36,-168.5"/>
<text text-anchor="middle" x="92.5" y="-175.5" font-family="Helvetica,sans-Serif" font-size="10.00">include/kernel/panic.h</text>
</a>
</g>
</g>
<!-- Node2 -->
<g id="node2" class="node">
<title>Node2</title>
<g id="a_node2"><a xlink:href="arch_2panic_8h.html" target="_top" xlink:title=" ">
<polygon fill="none" stroke="black" points="57,-112.5 57,-131.5 128,-131.5 128,-112.5 57,-112.5"/>
<text text-anchor="middle" x="92.5" y="-119.5" font-family="Helvetica,sans-Serif" font-size="10.00">arch/panic.h</text>
</a>
</g>
</g>
<!-- Node1&#45;&gt;Node2 -->
<g id="edge1" class="edge">
<title>Node1&#45;&gt;Node2</title>
<path fill="none" stroke="midnightblue" d="M92.5,-168.08C92.5,-161.01 92.5,-150.86 92.5,-141.99"/>
<polygon fill="midnightblue" stroke="midnightblue" points="96,-141.75 92.5,-131.75 89,-141.75 96,-141.75"/>
</g>
<!-- Node3 -->
<g id="node3" class="node">
<title>Node3</title>
<g id="a_node3"><a xlink:title=" ">
<polygon fill="none" stroke="#bfbfbf" points="0,-56.5 0,-75.5 57,-75.5 57,-56.5 0,-56.5"/>
<text text-anchor="middle" x="28.5" y="-63.5" font-family="Helvetica,sans-Serif" font-size="10.00">stdbool.h</text>
</a>
</g>
</g>
<!-- Node1&#45;&gt;Node3 -->
<g id="edge8" class="edge">
<title>Node1&#45;&gt;Node3</title>
<path fill="none" stroke="midnightblue" d="M80.89,-168.23C70.7,-159.95 56.17,-146.64 47.5,-132 38.98,-117.62 34.06,-99.16 31.37,-85.59"/>
<polygon fill="midnightblue" stroke="midnightblue" points="34.79,-84.78 29.61,-75.54 27.89,-85.99 34.79,-84.78"/>
</g>
<!-- Node5 -->
<g id="node5" class="node">
<title>Node5</title>
<g id="a_node5"><a xlink:href="logging_8h.html" target="_top" xlink:title=" ">
<polygon fill="none" stroke="black" points="146,-112.5 146,-131.5 203,-131.5 203,-112.5 146,-112.5"/>
<text text-anchor="middle" x="174.5" y="-119.5" font-family="Helvetica,sans-Serif" font-size="10.00">logging.h</text>
</a>
</g>
</g>
<!-- Node1&#45;&gt;Node5 -->
<g id="edge4" class="edge">
<title>Node1&#45;&gt;Node5</title>
<path fill="none" stroke="midnightblue" d="M105.67,-168.32C118.35,-159.98 137.73,-147.21 152.71,-137.35"/>
<polygon fill="midnightblue" stroke="midnightblue" points="154.93,-140.08 161.36,-131.65 151.08,-134.23 154.93,-140.08"/>
</g>
<!-- Node2&#45;&gt;Node3 -->
<g id="edge2" class="edge">
<title>Node2&#45;&gt;Node3</title>
<path fill="none" stroke="midnightblue" d="M82.22,-112.32C72.66,-104.26 58.22,-92.08 46.72,-82.37"/>
<polygon fill="midnightblue" stroke="midnightblue" points="48.87,-79.61 38.97,-75.83 44.36,-84.96 48.87,-79.61"/>
</g>
<!-- Node4 -->
<g id="node4" class="node">
<title>Node4</title>
<g id="a_node4"><a xlink:title=" ">
<polygon fill="none" stroke="#bfbfbf" points="75,-56.5 75,-75.5 124,-75.5 124,-56.5 75,-56.5"/>
<text text-anchor="middle" x="99.5" y="-63.5" font-family="Helvetica,sans-Serif" font-size="10.00">stdint.h</text>
</a>
</g>
</g>
<!-- Node2&#45;&gt;Node4 -->
<g id="edge3" class="edge">
<title>Node2&#45;&gt;Node4</title>
<path fill="none" stroke="midnightblue" d="M93.66,-112.08C94.58,-104.93 95.92,-94.64 97.08,-85.69"/>
<polygon fill="midnightblue" stroke="midnightblue" points="100.55,-86.12 98.37,-75.75 93.61,-85.22 100.55,-86.12"/>
</g>
<!-- Node6 -->
<g id="node6" class="node">
<title>Node6</title>
<g id="a_node6"><a xlink:href="stdio_8h.html" target="_top" xlink:title=" ">
<polygon fill="none" stroke="black" points="146.5,-56.5 146.5,-75.5 192.5,-75.5 192.5,-56.5 146.5,-56.5"/>
<text text-anchor="middle" x="169.5" y="-63.5" font-family="Helvetica,sans-Serif" font-size="10.00">stdio.h</text>
</a>
</g>
</g>
<!-- Node5&#45;&gt;Node6 -->
<g id="edge5" class="edge">
<title>Node5&#45;&gt;Node6</title>
<path fill="none" stroke="midnightblue" d="M173.67,-112.08C173.02,-105.01 172.08,-94.86 171.26,-85.99"/>
<polygon fill="midnightblue" stroke="midnightblue" points="174.72,-85.39 170.31,-75.75 167.75,-86.03 174.72,-85.39"/>
</g>
<!-- Node8 -->
<g id="node8" class="node">
<title>Node8</title>
<g id="a_node8"><a xlink:href="arch_2logging_8h.html" target="_top" xlink:title=" ">
<polygon fill="none" stroke="black" points="211,-56.5 211,-75.5 290,-75.5 290,-56.5 211,-56.5"/>
<text text-anchor="middle" x="250.5" y="-63.5" font-family="Helvetica,sans-Serif" font-size="10.00">arch/logging.h</text>
</a>
</g>
</g>
<!-- Node5&#45;&gt;Node8 -->
<g id="edge7" class="edge">
<title>Node5&#45;&gt;Node8</title>
<path fill="none" stroke="midnightblue" d="M186.71,-112.32C198.28,-104.11 215.88,-91.6 229.66,-81.81"/>
<polygon fill="midnightblue" stroke="midnightblue" points="231.94,-84.48 238.07,-75.83 227.89,-78.77 231.94,-84.48"/>
</g>
<!-- Node7 -->
<g id="node7" class="node">
<title>Node7</title>
<g id="a_node7"><a xlink:title=" ">
<polygon fill="none" stroke="#bfbfbf" points="146,-0.5 146,-19.5 193,-19.5 193,-0.5 146,-0.5"/>
<text text-anchor="middle" x="169.5" y="-7.5" font-family="Helvetica,sans-Serif" font-size="10.00">printf.h</text>
</a>
</g>
</g>
<!-- Node6&#45;&gt;Node7 -->
<g id="edge6" class="edge">
<title>Node6&#45;&gt;Node7</title>
<path fill="none" stroke="midnightblue" d="M169.5,-56.08C169.5,-49.01 169.5,-38.86 169.5,-29.99"/>
<polygon fill="midnightblue" stroke="midnightblue" points="173,-29.75 169.5,-19.75 166,-29.75 173,-29.75"/>
</g>
</g>
</svg>
