<?xml version="1.0" encoding="UTF-8" standalone="no"?>
<!DOCTYPE svg PUBLIC "-//W3C//DTD SVG 1.1//EN"
 "http://www.w3.org/Graphics/SVG/1.1/DTD/svg11.dtd">
<!-- Generated by graphviz version 8.0.2 (20230410.1723)
 -->
<!-- Title: kernel_panic Pages: 1 -->
<svg width="238pt" height="66pt"
 viewBox="0.00 0.00 238.00 66.00" xmlns="http://www.w3.org/2000/svg" xmlns:xlink="http://www.w3.org/1999/xlink">
<g id="graph0" class="graph" transform="scale(1 1) rotate(0) translate(4 62)">
<title>kernel_panic</title>
<!-- Node1 -->
<g id="node1" class="node">
<title>Node1</title>
<g id="a_node1"><a xlink:title=" ">
<polygon fill="#bfbfbf" stroke="black" points="0,-19.5 0,-38.5 71,-38.5 71,-19.5 0,-19.5"/>
<text text-anchor="middle" x="35.5" y="-26.5" font-family="Helvetica,sans-Serif" font-size="10.00">kernel_panic</text>
</a>
</g>
</g>
<!-- Node2 -->
<g id="node2" class="node">
<title>Node2</title>
<g id="a_node2"><a xlink:href="x86__64_2arch_2kernel_8c.html#afa8a138b0f00d1bb5d26f79378caa530" target="_top" xlink:title=" ">
<polygon fill="none" stroke="black" points="140.5,-38.5 140.5,-57.5 196.5,-57.5 196.5,-38.5 140.5,-38.5"/>
<text text-anchor="middle" x="168.5" y="-45.5" font-family="Helvetica,sans-Serif" font-size="10.00">arch_halt</text>
</a>
</g>
</g>
<!-- Node1&#45;&gt;Node2 -->
<g id="edge1" class="edge">
<title>Node1&#45;&gt;Node2</title>
<path fill="none" stroke="midnightblue" d="M70.92,-33.99C89.08,-36.63 111.4,-39.86 130,-42.56"/>
<polygon fill="midnightblue" stroke="midnightblue" points="129.35,-46.15 139.75,-44.12 130.36,-39.22 129.35,-46.15"/>
</g>
<!-- Node3 -->
<g id="node3" class="node">
<title>Node3</title>
<g id="a_node3"><a xlink:href="panic_8c.html#a714e1c8a23ac88c46756c44ec1a5b7f8" target="_top" xlink:title=" ">
<polygon fill="none" stroke="black" points="107,-0.5 107,-19.5 230,-19.5 230,-0.5 107,-0.5"/>
<text text-anchor="middle" x="168.5" y="-7.5" font-family="Helvetica,sans-Serif" font-size="10.00">kernel_dump_stacktrace</text>
</a>
</g>
</g>
<!-- Node1&#45;&gt;Node3 -->
<g id="edge2" class="edge">
<title>Node1&#45;&gt;Node3</title>
<path fill="none" stroke="midnightblue" d="M70.92,-24.01C78.84,-22.86 87.55,-21.6 96.4,-20.31"/>
<polygon fill="midnightblue" stroke="midnightblue" points="96.83,-23.64 106.22,-18.74 95.82,-16.71 96.83,-23.64"/>
</g>
</g>
</svg>
