<?xml version="1.0" encoding="UTF-8" standalone="no"?>
<!DOCTYPE svg PUBLIC "-//W3C//DTD SVG 1.1//EN"
 "http://www.w3.org/Graphics/SVG/1.1/DTD/svg11.dtd">
<!-- Generated by graphviz version 2.50.0 (20211204.2007)
 -->
<!-- Title: kernel_panic Pages: 1 -->
<svg width="262pt" height="66pt"
 viewBox="0.00 0.00 262.00 66.00" xmlns="http://www.w3.org/2000/svg" xmlns:xlink="http://www.w3.org/1999/xlink">
<g id="graph0" class="graph" transform="scale(1 1) rotate(0) translate(4 62)">
<title>kernel_panic</title>
<!-- Node1 -->
<g id="node1" class="node">
<title>Node1</title>
<g id="a_node1"><a xlink:title=" ">
<polygon fill="#bfbfbf" stroke="black" points="0,-19.5 0,-38.5 71,-38.5 71,-19.5 0,-19.5"/>
<text text-anchor="middle" x="35.5" y="-26.5" font-family="Helvetica,sans-Serif" font-size="10.00">kernel_panic</text>
</a>
</g>
</g>
<!-- Node2 -->
<g id="node2" class="node">
<title>Node2</title>
<g id="a_node2"><a xlink:href="x86__64_2arch_2kernel_8c.html#afa8a138b0f00d1bb5d26f79378caa530" target="_top" xlink:title=" ">
<polygon fill="none" stroke="black" points="152.5,-38.5 152.5,-57.5 208.5,-57.5 208.5,-38.5 152.5,-38.5"/>
<text text-anchor="middle" x="180.5" y="-45.5" font-family="Helvetica,sans-Serif" font-size="10.00">arch_halt</text>
</a>
</g>
</g>
<!-- Node1&#45;&gt;Node2 -->
<g id="edge1" class="edge">
<title>Node1&#45;&gt;Node2</title>
<path fill="none" stroke="midnightblue" d="M71.12,-33.6C92.67,-36.46 120.37,-40.14 142.38,-43.07"/>
<polygon fill="midnightblue" stroke="midnightblue" points="141.98,-46.55 152.36,-44.39 142.9,-39.61 141.98,-46.55"/>
</g>
<!-- Node3 -->
<g id="node3" class="node">
<title>Node3</title>
<g id="a_node3"><a xlink:href="arch_2x86__64_2arch_2panic_8c.html#a9643e195acfe8004833ed7ea8ee42f1c" target="_top" xlink:title=" ">
<polygon fill="none" stroke="black" points="107,-0.5 107,-19.5 254,-19.5 254,-0.5 107,-0.5"/>
<text text-anchor="middle" x="180.5" y="-7.5" font-family="Helvetica,sans-Serif" font-size="10.00">arch_kernel_dump_stacktrace</text>
</a>
</g>
</g>
<!-- Node1&#45;&gt;Node3 -->
<g id="edge2" class="edge">
<title>Node1&#45;&gt;Node3</title>
<path fill="none" stroke="midnightblue" d="M71.12,-24.4C79.31,-23.31 88.4,-22.1 97.72,-20.87"/>
<polygon fill="midnightblue" stroke="midnightblue" points="98.45,-24.3 107.9,-19.51 97.52,-17.36 98.45,-24.3"/>
</g>
</g>
</svg>
