<?xml version="1.0" encoding="UTF-8" standalone="no"?>
<!DOCTYPE svg PUBLIC "-//W3C//DTD SVG 1.1//EN"
 "http://www.w3.org/Graphics/SVG/1.1/DTD/svg11.dtd">
<!-- Generated by graphviz version 2.50.0 (20211204.2007)
 -->
<!-- Title: include/kernel/panic.h Pages: 1 -->
<svg width="428pt" height="196pt"
 viewBox="0.00 0.00 427.50 196.00" xmlns="http://www.w3.org/2000/svg" xmlns:xlink="http://www.w3.org/1999/xlink">
<g id="graph0" class="graph" transform="scale(1 1) rotate(0) translate(4 192)">
<title>include/kernel/panic.h</title>
<!-- Node1 -->
<g id="node1" class="node">
<title>Node1</title>
<g id="a_node1"><a xlink:title=" ">
<polygon fill="#bfbfbf" stroke="black" points="32.5,-168.5 32.5,-187.5 143.5,-187.5 143.5,-168.5 32.5,-168.5"/>
<text text-anchor="middle" x="88" y="-175.5" font-family="Helvetica,sans-Serif" font-size="10.00">include/kernel/panic.h</text>
</a>
</g>
</g>
<!-- Node2 -->
<g id="node2" class="node">
<title>Node2</title>
<g id="a_node2"><a xlink:href="arch_2panic_8h.html" target="_top" xlink:title=" ">
<polygon fill="none" stroke="black" points="53,-112.5 53,-131.5 123,-131.5 123,-112.5 53,-112.5"/>
<text text-anchor="middle" x="88" y="-119.5" font-family="Helvetica,sans-Serif" font-size="10.00">arch/panic.h</text>
</a>
</g>
</g>
<!-- Node1&#45;&gt;Node2 -->
<g id="edge1" class="edge">
<title>Node1&#45;&gt;Node2</title>
<path fill="none" stroke="midnightblue" d="M88,-168.08C88,-161.01 88,-150.86 88,-141.99"/>
<polygon fill="midnightblue" stroke="midnightblue" points="91.5,-141.75 88,-131.75 84.5,-141.75 91.5,-141.75"/>
</g>
<!-- Node3 -->
<g id="node3" class="node">
<title>Node3</title>
<g id="a_node3"><a xlink:title=" ">
<polygon fill="none" stroke="#bfbfbf" points="0,-56.5 0,-75.5 56,-75.5 56,-56.5 0,-56.5"/>
<text text-anchor="middle" x="28" y="-63.5" font-family="Helvetica,sans-Serif" font-size="10.00">stdbool.h</text>
</a>
</g>
</g>
<!-- Node1&#45;&gt;Node3 -->
<g id="edge11" class="edge">
<title>Node1&#45;&gt;Node3</title>
<path fill="none" stroke="midnightblue" d="M76.51,-168.26C66.44,-160 52.18,-146.7 44,-132 35.97,-117.56 31.92,-99.11 29.91,-85.56"/>
<polygon fill="midnightblue" stroke="midnightblue" points="33.37,-85.01 28.66,-75.52 26.42,-85.88 33.37,-85.01"/>
</g>
<!-- Node5 -->
<g id="node5" class="node">
<title>Node5</title>
<g id="a_node5"><a xlink:href="logging_8h.html" target="_top" xlink:title="This is the general kernel logging module.">
<polygon fill="none" stroke="black" points="211,-112.5 211,-131.5 267,-131.5 267,-112.5 211,-112.5"/>
<text text-anchor="middle" x="239" y="-119.5" font-family="Helvetica,sans-Serif" font-size="10.00">logging.h</text>
</a>
</g>
</g>
<!-- Node1&#45;&gt;Node5 -->
<g id="edge4" class="edge">
<title>Node1&#45;&gt;Node5</title>
<path fill="none" stroke="midnightblue" d="M111.93,-168.44C137.22,-159.4 177.3,-145.06 205.68,-134.92"/>
<polygon fill="midnightblue" stroke="midnightblue" points="206.95,-138.18 215.19,-131.52 204.59,-131.59 206.95,-138.18"/>
</g>
<!-- Node2&#45;&gt;Node3 -->
<g id="edge2" class="edge">
<title>Node2&#45;&gt;Node3</title>
<path fill="none" stroke="midnightblue" d="M78.36,-112.32C69.49,-104.34 56.13,-92.31 45.39,-82.65"/>
<polygon fill="midnightblue" stroke="midnightblue" points="47.59,-79.92 37.82,-75.83 42.91,-85.13 47.59,-79.92"/>
</g>
<!-- Node4 -->
<g id="node4" class="node">
<title>Node4</title>
<g id="a_node4"><a xlink:title=" ">
<polygon fill="none" stroke="#bfbfbf" points="179.5,-0.5 179.5,-19.5 228.5,-19.5 228.5,-0.5 179.5,-0.5"/>
<text text-anchor="middle" x="204" y="-7.5" font-family="Helvetica,sans-Serif" font-size="10.00">stdint.h</text>
</a>
</g>
</g>
<!-- Node2&#45;&gt;Node4 -->
<g id="edge3" class="edge">
<title>Node2&#45;&gt;Node4</title>
<path fill="none" stroke="midnightblue" d="M88,-112.36C88.44,-98.81 91.17,-72.42 105,-56 121.38,-36.55 147.92,-25.11 169.4,-18.64"/>
<polygon fill="midnightblue" stroke="midnightblue" points="170.47,-21.97 179.17,-15.92 168.6,-15.23 170.47,-21.97"/>
</g>
<!-- Node6 -->
<g id="node6" class="node">
<title>Node6</title>
<g id="a_node6"><a xlink:href="arch_2logging_8h.html" target="_top" xlink:title=" ">
<polygon fill="none" stroke="black" points="114.5,-56.5 114.5,-75.5 191.5,-75.5 191.5,-56.5 114.5,-56.5"/>
<text text-anchor="middle" x="153" y="-63.5" font-family="Helvetica,sans-Serif" font-size="10.00">arch/logging.h</text>
</a>
</g>
</g>
<!-- Node5&#45;&gt;Node6 -->
<g id="edge5" class="edge">
<title>Node5&#45;&gt;Node6</title>
<path fill="none" stroke="midnightblue" d="M225.18,-112.32C211.77,-103.9 191.18,-90.97 175.41,-81.07"/>
<polygon fill="midnightblue" stroke="midnightblue" points="177.11,-78.01 166.78,-75.65 173.39,-83.94 177.11,-78.01"/>
</g>
<!-- Node7 -->
<g id="node7" class="node">
<title>Node7</title>
<g id="a_node7"><a xlink:href="inttypes_8h.html" target="_top" xlink:title=" ">
<polygon fill="none" stroke="black" points="209.5,-56.5 209.5,-75.5 268.5,-75.5 268.5,-56.5 209.5,-56.5"/>
<text text-anchor="middle" x="239" y="-63.5" font-family="Helvetica,sans-Serif" font-size="10.00">inttypes.h</text>
</a>
</g>
</g>
<!-- Node5&#45;&gt;Node7 -->
<g id="edge6" class="edge">
<title>Node5&#45;&gt;Node7</title>
<path fill="none" stroke="midnightblue" d="M239,-112.08C239,-105.01 239,-94.86 239,-85.99"/>
<polygon fill="midnightblue" stroke="midnightblue" points="242.5,-85.75 239,-75.75 235.5,-85.75 242.5,-85.75"/>
</g>
<!-- Node8 -->
<g id="node8" class="node">
<title>Node8</title>
<g id="a_node8"><a xlink:href="stdio_8h.html" target="_top" xlink:title=" ">
<polygon fill="none" stroke="black" points="373,-56.5 373,-75.5 419,-75.5 419,-56.5 373,-56.5"/>
<text text-anchor="middle" x="396" y="-63.5" font-family="Helvetica,sans-Serif" font-size="10.00">stdio.h</text>
</a>
</g>
</g>
<!-- Node5&#45;&gt;Node8 -->
<g id="edge7" class="edge">
<title>Node5&#45;&gt;Node8</title>
<path fill="none" stroke="midnightblue" d="M263.88,-112.44C290.76,-103.2 333.7,-88.43 363.29,-78.25"/>
<polygon fill="midnightblue" stroke="midnightblue" points="364.46,-81.55 372.77,-74.99 362.18,-74.93 364.46,-81.55"/>
</g>
<!-- Node10 -->
<g id="node10" class="node">
<title>Node10</title>
<g id="a_node10"><a xlink:href="timer_8h.html" target="_top" xlink:title=" ">
<polygon fill="none" stroke="black" points="287,-56.5 287,-75.5 355,-75.5 355,-56.5 287,-56.5"/>
<text text-anchor="middle" x="321" y="-63.5" font-family="Helvetica,sans-Serif" font-size="10.00">time/timer.h</text>
</a>
</g>
</g>
<!-- Node5&#45;&gt;Node10 -->
<g id="edge9" class="edge">
<title>Node5&#45;&gt;Node10</title>
<path fill="none" stroke="midnightblue" d="M252.17,-112.32C264.85,-103.98 284.23,-91.21 299.21,-81.35"/>
<polygon fill="midnightblue" stroke="midnightblue" points="301.43,-84.08 307.86,-75.65 297.58,-78.23 301.43,-84.08"/>
</g>
<!-- Node9 -->
<g id="node9" class="node">
<title>Node9</title>
<g id="a_node9"><a xlink:title=" ">
<polygon fill="none" stroke="#bfbfbf" points="372.5,-0.5 372.5,-19.5 419.5,-19.5 419.5,-0.5 372.5,-0.5"/>
<text text-anchor="middle" x="396" y="-7.5" font-family="Helvetica,sans-Serif" font-size="10.00">printf.h</text>
</a>
</g>
</g>
<!-- Node8&#45;&gt;Node9 -->
<g id="edge8" class="edge">
<title>Node8&#45;&gt;Node9</title>
<path fill="none" stroke="midnightblue" d="M396,-56.08C396,-49.01 396,-38.86 396,-29.99"/>
<polygon fill="midnightblue" stroke="midnightblue" points="399.5,-29.75 396,-19.75 392.5,-29.75 399.5,-29.75"/>
</g>
<!-- Node10&#45;&gt;Node4 -->
<g id="edge10" class="edge">
<title>Node10&#45;&gt;Node4</title>
<path fill="none" stroke="midnightblue" d="M302.46,-56.44C283.38,-47.64 253.43,-33.81 231.56,-23.72"/>
<polygon fill="midnightblue" stroke="midnightblue" points="233,-20.53 222.45,-19.52 230.07,-26.88 233,-20.53"/>
</g>
</g>
</svg>
