<?xml version="1.0" encoding="UTF-8" standalone="no"?>
<!DOCTYPE svg PUBLIC "-//W3C//DTD SVG 1.1//EN"
 "http://www.w3.org/Graphics/SVG/1.1/DTD/svg11.dtd">
<!-- Generated by graphviz version 2.49.3 (20211023.0002)
 -->
<!-- Title: include/kernel/panic.h Pages: 1 -->
<svg width="431pt" height="196pt"
 viewBox="0.00 0.00 431.00 196.00" xmlns="http://www.w3.org/2000/svg" xmlns:xlink="http://www.w3.org/1999/xlink">
<g id="graph0" class="graph" transform="scale(1 1) rotate(0) translate(4 192)">
<title>include/kernel/panic.h</title>
<!-- Node1 -->
<g id="node1" class="node">
<title>Node1</title>
<g id="a_node1"><a xlink:title=" ">
<polygon fill="#bfbfbf" stroke="black" points="33,-168.5 33,-187.5 146,-187.5 146,-168.5 33,-168.5"/>
<text text-anchor="middle" x="89.5" y="-175.5" font-family="Helvetica,sans-Serif" font-size="10.00">include/kernel/panic.h</text>
</a>
</g>
</g>
<!-- Node2 -->
<g id="node2" class="node">
<title>Node2</title>
<g id="a_node2"><a xlink:href="arch_2panic_8h.html" target="_top" xlink:title=" ">
<polygon fill="none" stroke="black" points="54,-112.5 54,-131.5 125,-131.5 125,-112.5 54,-112.5"/>
<text text-anchor="middle" x="89.5" y="-119.5" font-family="Helvetica,sans-Serif" font-size="10.00">arch/panic.h</text>
</a>
</g>
</g>
<!-- Node1&#45;&gt;Node2 -->
<g id="edge1" class="edge">
<title>Node1&#45;&gt;Node2</title>
<path fill="none" stroke="midnightblue" d="M89.5,-168.08C89.5,-161.01 89.5,-150.86 89.5,-141.99"/>
<polygon fill="midnightblue" stroke="midnightblue" points="93,-141.75 89.5,-131.75 86,-141.75 93,-141.75"/>
</g>
<!-- Node3 -->
<g id="node3" class="node">
<title>Node3</title>
<g id="a_node3"><a xlink:title=" ">
<polygon fill="none" stroke="#bfbfbf" points="0,-56.5 0,-75.5 57,-75.5 57,-56.5 0,-56.5"/>
<text text-anchor="middle" x="28.5" y="-63.5" font-family="Helvetica,sans-Serif" font-size="10.00">stdbool.h</text>
</a>
</g>
</g>
<!-- Node1&#45;&gt;Node3 -->
<g id="edge11" class="edge">
<title>Node1&#45;&gt;Node3</title>
<path fill="none" stroke="midnightblue" d="M77.74,-168.32C67.44,-160.1 52.86,-146.82 44.5,-132 36.38,-117.61 32.35,-99.15 30.36,-85.58"/>
<polygon fill="midnightblue" stroke="midnightblue" points="33.82,-85.04 29.13,-75.54 26.87,-85.89 33.82,-85.04"/>
</g>
<!-- Node5 -->
<g id="node5" class="node">
<title>Node5</title>
<g id="a_node5"><a xlink:href="logging_8h.html" target="_top" xlink:title="This is the general kernel logging module.">
<polygon fill="none" stroke="black" points="214,-112.5 214,-131.5 271,-131.5 271,-112.5 214,-112.5"/>
<text text-anchor="middle" x="242.5" y="-119.5" font-family="Helvetica,sans-Serif" font-size="10.00">logging.h</text>
</a>
</g>
</g>
<!-- Node1&#45;&gt;Node5 -->
<g id="edge4" class="edge">
<title>Node1&#45;&gt;Node5</title>
<path fill="none" stroke="midnightblue" d="M113.74,-168.44C139.37,-159.4 179.99,-145.06 208.74,-134.92"/>
<polygon fill="midnightblue" stroke="midnightblue" points="210.11,-138.15 218.37,-131.52 207.78,-131.54 210.11,-138.15"/>
</g>
<!-- Node2&#45;&gt;Node3 -->
<g id="edge2" class="edge">
<title>Node2&#45;&gt;Node3</title>
<path fill="none" stroke="midnightblue" d="M79.7,-112.32C70.68,-104.34 57.09,-92.31 46.18,-82.65"/>
<polygon fill="midnightblue" stroke="midnightblue" points="48.29,-79.84 38.48,-75.83 43.65,-85.08 48.29,-79.84"/>
</g>
<!-- Node4 -->
<g id="node4" class="node">
<title>Node4</title>
<g id="a_node4"><a xlink:title=" ">
<polygon fill="none" stroke="#bfbfbf" points="182,-0.5 182,-19.5 231,-19.5 231,-0.5 182,-0.5"/>
<text text-anchor="middle" x="206.5" y="-7.5" font-family="Helvetica,sans-Serif" font-size="10.00">stdint.h</text>
</a>
</g>
</g>
<!-- Node2&#45;&gt;Node4 -->
<g id="edge3" class="edge">
<title>Node2&#45;&gt;Node4</title>
<path fill="none" stroke="midnightblue" d="M89.49,-112.36C89.92,-98.8 92.64,-72.39 106.5,-56 123.16,-36.3 150.21,-24.84 171.98,-18.43"/>
<polygon fill="midnightblue" stroke="midnightblue" points="173.13,-21.74 181.86,-15.74 171.29,-14.99 173.13,-21.74"/>
</g>
<!-- Node6 -->
<g id="node6" class="node">
<title>Node6</title>
<g id="a_node6"><a xlink:href="arch_2logging_8h.html" target="_top" xlink:title=" ">
<polygon fill="none" stroke="black" points="116,-56.5 116,-75.5 195,-75.5 195,-56.5 116,-56.5"/>
<text text-anchor="middle" x="155.5" y="-63.5" font-family="Helvetica,sans-Serif" font-size="10.00">arch/logging.h</text>
</a>
</g>
</g>
<!-- Node5&#45;&gt;Node6 -->
<g id="edge5" class="edge">
<title>Node5&#45;&gt;Node6</title>
<path fill="none" stroke="midnightblue" d="M228.52,-112.32C214.95,-103.9 194.12,-90.97 178.18,-81.07"/>
<polygon fill="midnightblue" stroke="midnightblue" points="179.79,-77.95 169.44,-75.65 176.09,-83.9 179.79,-77.95"/>
</g>
<!-- Node7 -->
<g id="node7" class="node">
<title>Node7</title>
<g id="a_node7"><a xlink:href="inttypes_8h.html" target="_top" xlink:title=" ">
<polygon fill="none" stroke="black" points="213,-56.5 213,-75.5 272,-75.5 272,-56.5 213,-56.5"/>
<text text-anchor="middle" x="242.5" y="-63.5" font-family="Helvetica,sans-Serif" font-size="10.00">inttypes.h</text>
</a>
</g>
</g>
<!-- Node5&#45;&gt;Node7 -->
<g id="edge6" class="edge">
<title>Node5&#45;&gt;Node7</title>
<path fill="none" stroke="midnightblue" d="M242.5,-112.08C242.5,-105.01 242.5,-94.86 242.5,-85.99"/>
<polygon fill="midnightblue" stroke="midnightblue" points="246,-85.75 242.5,-75.75 239,-85.75 246,-85.75"/>
</g>
<!-- Node8 -->
<g id="node8" class="node">
<title>Node8</title>
<g id="a_node8"><a xlink:href="stdio_8h.html" target="_top" xlink:title=" ">
<polygon fill="none" stroke="black" points="376.5,-56.5 376.5,-75.5 422.5,-75.5 422.5,-56.5 376.5,-56.5"/>
<text text-anchor="middle" x="399.5" y="-63.5" font-family="Helvetica,sans-Serif" font-size="10.00">stdio.h</text>
</a>
</g>
</g>
<!-- Node5&#45;&gt;Node8 -->
<g id="edge7" class="edge">
<title>Node5&#45;&gt;Node8</title>
<path fill="none" stroke="midnightblue" d="M267.38,-112.44C294.26,-103.2 337.2,-88.43 366.79,-78.25"/>
<polygon fill="midnightblue" stroke="midnightblue" points="367.96,-81.55 376.27,-74.99 365.68,-74.93 367.96,-81.55"/>
</g>
<!-- Node10 -->
<g id="node10" class="node">
<title>Node10</title>
<g id="a_node10"><a xlink:href="timer_8h.html" target="_top" xlink:title=" ">
<polygon fill="none" stroke="black" points="290.5,-56.5 290.5,-75.5 358.5,-75.5 358.5,-56.5 290.5,-56.5"/>
<text text-anchor="middle" x="324.5" y="-63.5" font-family="Helvetica,sans-Serif" font-size="10.00">time/timer.h</text>
</a>
</g>
</g>
<!-- Node5&#45;&gt;Node10 -->
<g id="edge9" class="edge">
<title>Node5&#45;&gt;Node10</title>
<path fill="none" stroke="midnightblue" d="M255.67,-112.32C268.35,-103.98 287.73,-91.21 302.71,-81.35"/>
<polygon fill="midnightblue" stroke="midnightblue" points="304.93,-84.08 311.36,-75.65 301.08,-78.23 304.93,-84.08"/>
</g>
<!-- Node9 -->
<g id="node9" class="node">
<title>Node9</title>
<g id="a_node9"><a xlink:title=" ">
<polygon fill="none" stroke="#bfbfbf" points="376,-0.5 376,-19.5 423,-19.5 423,-0.5 376,-0.5"/>
<text text-anchor="middle" x="399.5" y="-7.5" font-family="Helvetica,sans-Serif" font-size="10.00">printf.h</text>
</a>
</g>
</g>
<!-- Node8&#45;&gt;Node9 -->
<g id="edge8" class="edge">
<title>Node8&#45;&gt;Node9</title>
<path fill="none" stroke="midnightblue" d="M399.5,-56.08C399.5,-49.01 399.5,-38.86 399.5,-29.99"/>
<polygon fill="midnightblue" stroke="midnightblue" points="403,-29.75 399.5,-19.75 396,-29.75 403,-29.75"/>
</g>
<!-- Node10&#45;&gt;Node4 -->
<g id="edge10" class="edge">
<title>Node10&#45;&gt;Node4</title>
<path fill="none" stroke="midnightblue" d="M305.8,-56.44C286.56,-47.64 256.35,-33.81 234.3,-23.72"/>
<polygon fill="midnightblue" stroke="midnightblue" points="235.66,-20.5 225.11,-19.52 232.75,-26.86 235.66,-20.5"/>
</g>
</g>
</svg>
