<?xml version="1.0" encoding="UTF-8" standalone="no"?>
<!DOCTYPE svg PUBLIC "-//W3C//DTD SVG 1.1//EN"
 "http://www.w3.org/Graphics/SVG/1.1/DTD/svg11.dtd">
<!-- Generated by graphviz version 8.0.2 (20230410.1723)
 -->
<!-- Title: kernel_dump_stacktrace Pages: 1 -->
<svg width="286pt" height="45pt"
 viewBox="0.00 0.00 286.00 45.00" xmlns="http://www.w3.org/2000/svg" xmlns:xlink="http://www.w3.org/1999/xlink">
<g id="graph0" class="graph" transform="scale(1 1) rotate(0) translate(4 41)">
<title>kernel_dump_stacktrace</title>
<!-- Node1 -->
<g id="Node000001" class="node">
<title>Node1</title>
<g id="a_Node000001"><a xlink:title=" ">
<polygon fill="#999999" stroke="#666666" points="123,-19 0,-19 0,0 123,0 123,-19"/>
<text text-anchor="middle" x="61.5" y="-7" font-family="Helvetica,sans-Serif" font-size="10.00">kernel_dump_stacktrace</text>
</a>
</g>
</g>
<!-- Node2 -->
<g id="Node000002" class="node">
<title>Node2</title>
<g id="a_Node000002"><a xlink:href="x86__64_2arch_2kernel_8c.html#a90eb89dc1751bf77f797ebe63dc856ee" target="_top" xlink:title=" ">
<polygon fill="white" stroke="#666666" points="278,-19 159,-19 159,0 278,0 278,-19"/>
<text text-anchor="middle" x="218.5" y="-7" font-family="Helvetica,sans-Serif" font-size="10.00">arch_is_kernel_address</text>
</a>
</g>
</g>
<!-- Node1&#45;&gt;Node2 -->
<g id="edge1_Node000001_Node000002" class="edge">
<title>Node1&#45;&gt;Node2</title>
<g id="a_edge1_Node000001_Node000002"><a xlink:title=" ">
<path fill="none" stroke="#63b8ff" d="M123.32,-9.5C131.3,-9.5 139.54,-9.5 147.66,-9.5"/>
<polygon fill="#63b8ff" stroke="#63b8ff" points="147.64,-13 157.64,-9.5 147.64,-6 147.64,-13"/>
</a>
</g>
</g>
<!-- Node2&#45;&gt;Node2 -->
<g id="edge2_Node000002_Node000002" class="edge">
<title>Node2&#45;&gt;Node2</title>
<g id="a_edge2_Node000002_Node000002"><a xlink:title=" ">
<path fill="none" stroke="#63b8ff" d="M193.92,-19.37C182.71,-27.94 190.9,-37 218.5,-37 234.89,-37 244.43,-33.8 247.14,-29.42"/>
<polygon fill="#63b8ff" stroke="#63b8ff" points="250.07,-28.33 243.08,-20.37 243.58,-30.95 250.07,-28.33"/>
</a>
</g>
</g>
</g>
</svg>
