<?xml version="1.0" encoding="UTF-8" standalone="no"?>
<!DOCTYPE svg PUBLIC "-//W3C//DTD SVG 1.1//EN"
 "http://www.w3.org/Graphics/SVG/1.1/DTD/svg11.dtd">
<!-- Generated by graphviz version 8.0.2 (20230410.1723)
 -->
<!-- Title: pci_write Pages: 1 -->
<svg width="183pt" height="45pt"
 viewBox="0.00 0.00 183.00 45.00" xmlns="http://www.w3.org/2000/svg" xmlns:xlink="http://www.w3.org/1999/xlink">
<g id="graph0" class="graph" transform="scale(1 1) rotate(0) translate(4 41)">
<title>pci_write</title>
<!-- Node1 -->
<g id="Node000001" class="node">
<title>Node1</title>
<g id="a_Node000001"><a xlink:title=" ">
<polygon fill="#999999" stroke="#666666" points="56,-19 0,-19 0,0 56,0 56,-19"/>
<text text-anchor="middle" x="28" y="-7" font-family="Helvetica,sans-Serif" font-size="10.00">pci_write</text>
</a>
</g>
</g>
<!-- Node1&#45;&gt;Node1 -->
<g id="edge1_Node000001_Node000001" class="edge">
<title>Node1&#45;&gt;Node1</title>
<g id="a_edge1_Node000001_Node000001"><a xlink:title=" ">
<path fill="none" stroke="#63b8ff" d="M11.48,-19.37C3.95,-27.94 9.46,-37 28,-37 38.43,-37 44.74,-34.13 46.92,-30.1"/>
<polygon fill="#63b8ff" stroke="#63b8ff" points="50.12,-29.36 44.52,-20.37 43.28,-30.89 50.12,-29.36"/>
</a>
</g>
</g>
<!-- Node2 -->
<g id="Node000002" class="node">
<title>Node2</title>
<g id="a_Node000002"><a xlink:href="port_8c.html#ab4cd5b4635fe2ba28abafebbb1ac6861" target="_top" xlink:title=" ">
<polygon fill="white" stroke="#666666" points="175,-19 92,-19 92,0 175,0 175,-19"/>
<text text-anchor="middle" x="133.5" y="-7" font-family="Helvetica,sans-Serif" font-size="10.00">port_dword_out</text>
</a>
</g>
</g>
<!-- Node1&#45;&gt;Node2 -->
<g id="edge2_Node000001_Node000002" class="edge">
<title>Node1&#45;&gt;Node2</title>
<g id="a_edge2_Node000001_Node000002"><a xlink:title=" ">
<path fill="none" stroke="#63b8ff" d="M56.46,-9.5C63.96,-9.5 72.33,-9.5 80.71,-9.5"/>
<polygon fill="#63b8ff" stroke="#63b8ff" points="80.65,-13 90.65,-9.5 80.65,-6 80.65,-13"/>
</a>
</g>
</g>
<!-- Node2&#45;&gt;Node2 -->
<g id="edge3_Node000002_Node000002" class="edge">
<title>Node2&#45;&gt;Node2</title>
<g id="a_edge3_Node000002_Node000002"><a xlink:title=" ">
<path fill="none" stroke="#63b8ff" d="M116.98,-19.37C109.45,-27.94 114.96,-37 133.5,-37 143.93,-37 150.24,-34.13 152.42,-30.1"/>
<polygon fill="#63b8ff" stroke="#63b8ff" points="155.62,-29.36 150.02,-20.37 148.78,-30.89 155.62,-29.36"/>
</a>
</g>
</g>
</g>
</svg>
