<?xml version="1.0" encoding="UTF-8" standalone="no"?>
<!DOCTYPE svg PUBLIC "-//W3C//DTD SVG 1.1//EN"
 "http://www.w3.org/Graphics/SVG/1.1/DTD/svg11.dtd">
<!-- Generated by graphviz version 8.0.2 (20230410.1723)
 -->
<!-- Title: pci_read Pages: 1 -->
<svg width="179pt" height="82pt"
 viewBox="0.00 0.00 179.00 82.00" xmlns="http://www.w3.org/2000/svg" xmlns:xlink="http://www.w3.org/1999/xlink">
<g id="graph0" class="graph" transform="scale(1 1) rotate(0) translate(4 78)">
<title>pci_read</title>
<!-- Node1 -->
<g id="Node000001" class="node">
<title>Node1</title>
<g id="a_Node000001"><a xlink:title=" ">
<polygon fill="#999999" stroke="#666666" points="171,-37 118,-37 118,-18 171,-18 171,-37"/>
<text text-anchor="middle" x="144.5" y="-25" font-family="Helvetica,sans-Serif" font-size="10.00">pci_read</text>
</a>
</g>
</g>
<!-- Node1&#45;&gt;Node1 -->
<g id="edge3_Node000001_Node000001" class="edge">
<title>Node1&#45;&gt;Node1</title>
<g id="a_edge3_Node000001_Node000001"><a xlink:title=" ">
<path fill="none" stroke="#63b8ff" d="M163.06,-48.1C160.92,-52.13 154.73,-55 144.5,-55 126.31,-55 120.91,-45.94 128.3,-37.37"/>
<polygon fill="#63b8ff" stroke="#63b8ff" points="166.27,-47.39 160.7,-38.37 159.43,-48.89 166.27,-47.39"/>
</a>
</g>
</g>
<!-- Node2 -->
<g id="Node000002" class="node">
<title>Node2</title>
<g id="a_Node000002"><a xlink:href="pci_8c.html#ad8515b86d19288e403722e2c9a4dc5dd" target="_top" xlink:title=" ">
<polygon fill="white" stroke="#666666" points="82,-56 0,-56 0,-37 82,-37 82,-56"/>
<text text-anchor="middle" x="41" y="-44" font-family="Helvetica,sans-Serif" font-size="10.00">pci_get_device</text>
</a>
</g>
</g>
<!-- Node1&#45;&gt;Node2 -->
<g id="edge1_Node000001_Node000002" class="edge">
<title>Node1&#45;&gt;Node2</title>
<g id="a_edge1_Node000001_Node000002"><a xlink:title=" ">
<path fill="none" stroke="#63b8ff" d="M106.84,-34.36C98.91,-35.85 90.49,-37.42 82.43,-38.93"/>
<polygon fill="#63b8ff" stroke="#63b8ff" points="107.44,-37.62 116.62,-32.34 106.15,-30.74 107.44,-37.62"/>
</a>
</g>
</g>
<!-- Node3 -->
<g id="Node000003" class="node">
<title>Node3</title>
<g id="a_Node000003"><a xlink:href="rtl8139_8c.html#a24e07ef25a2b1581bca67bbb213a0931" target="_top" xlink:title=" ">
<polygon fill="white" stroke="#666666" points="73,-19 9,-19 9,0 73,0 73,-19"/>
<text text-anchor="middle" x="41" y="-7" font-family="Helvetica,sans-Serif" font-size="10.00">rtl8139_init</text>
</a>
</g>
</g>
<!-- Node1&#45;&gt;Node3 -->
<g id="edge4_Node000001_Node000003" class="edge">
<title>Node1&#45;&gt;Node3</title>
<g id="a_edge4_Node000001_Node000003"><a xlink:title=" ">
<path fill="none" stroke="#63b8ff" d="M106.99,-21.03C95.95,-19.07 83.93,-16.94 73.26,-15.04"/>
<polygon fill="#63b8ff" stroke="#63b8ff" points="106.17,-24.61 116.62,-22.91 107.39,-17.72 106.17,-24.61"/>
</a>
</g>
</g>
<!-- Node2&#45;&gt;Node2 -->
<g id="edge2_Node000002_Node000002" class="edge">
<title>Node2&#45;&gt;Node2</title>
<g id="a_edge2_Node000002_Node000002"><a xlink:title=" ">
<path fill="none" stroke="#63b8ff" d="M59.56,-67.1C57.42,-71.13 51.23,-74 41,-74 22.81,-74 17.41,-64.94 24.8,-56.37"/>
<polygon fill="#63b8ff" stroke="#63b8ff" points="62.77,-66.39 57.2,-57.37 55.93,-67.89 62.77,-66.39"/>
</a>
</g>
</g>
</g>
</svg>
