<?xml version="1.0" encoding="UTF-8" standalone="no"?>
<!DOCTYPE svg PUBLIC "-//W3C//DTD SVG 1.1//EN"
 "http://www.w3.org/Graphics/SVG/1.1/DTD/svg11.dtd">
<!-- Generated by graphviz version 8.0.2 (20230410.1723)
 -->
<!-- Title: pci_read Pages: 1 -->
<svg width="180pt" height="210pt"
 viewBox="0.00 0.00 180.00 210.00" xmlns="http://www.w3.org/2000/svg" xmlns:xlink="http://www.w3.org/1999/xlink">
<g id="graph0" class="graph" transform="scale(1 1) rotate(0) translate(4 206)">
<title>pci_read</title>
<!-- Node1 -->
<g id="Node000001" class="node">
<title>Node1</title>
<g id="a_Node000001"><a xlink:title=" ">
<polygon fill="#999999" stroke="#666666" points="53,-101 0,-101 0,-82 53,-82 53,-101"/>
<text text-anchor="middle" x="26.5" y="-89" font-family="Helvetica,sans-Serif" font-size="10.00">pci_read</text>
</a>
</g>
</g>
<!-- Node1&#45;&gt;Node1 -->
<g id="edge1_Node000001_Node000001" class="edge">
<title>Node1&#45;&gt;Node1</title>
<g id="a_edge1_Node000001_Node000001"><a xlink:title=" ">
<path fill="none" stroke="#63b8ff" d="M10.22,-101.37C2.79,-109.94 8.22,-119 26.5,-119 36.78,-119 43,-116.13 45.15,-112.1"/>
<polygon fill="#63b8ff" stroke="#63b8ff" points="48.35,-111.38 42.78,-102.37 41.52,-112.89 48.35,-111.38"/>
</a>
</g>
</g>
<!-- Node2 -->
<g id="Node000002" class="node">
<title>Node2</title>
<g id="a_Node000002"><a xlink:href="port_8c.html#af8b1144eda5e36642ff26d504bf2b3b8" target="_top" xlink:title=" ">
<polygon fill="white" stroke="#666666" points="165.5,-184 95.5,-184 95.5,-165 165.5,-165 165.5,-184"/>
<text text-anchor="middle" x="130.5" y="-172" font-family="Helvetica,sans-Serif" font-size="10.00">port_byte_in</text>
</a>
</g>
</g>
<!-- Node1&#45;&gt;Node2 -->
<g id="edge2_Node000001_Node000002" class="edge">
<title>Node1&#45;&gt;Node2</title>
<g id="a_edge2_Node000001_Node000002"><a xlink:title=" ">
<path fill="none" stroke="#63b8ff" d="M34.86,-101.48C45.51,-115.34 66.42,-140.53 89,-156.5 90.47,-157.54 92.01,-158.54 93.59,-159.5"/>
<polygon fill="#63b8ff" stroke="#63b8ff" points="91.5,-162.88 101.97,-164.52 94.81,-156.71 91.5,-162.88"/>
</a>
</g>
</g>
<!-- Node3 -->
<g id="Node000003" class="node">
<title>Node3</title>
<g id="a_Node000003"><a xlink:href="port_8c.html#aef30b57e8c51c84ba95dc7bb9a3b1750" target="_top" xlink:title=" ">
<polygon fill="white" stroke="#666666" points="169,-129 92,-129 92,-110 169,-110 169,-129"/>
<text text-anchor="middle" x="130.5" y="-117" font-family="Helvetica,sans-Serif" font-size="10.00">port_dword_in</text>
</a>
</g>
</g>
<!-- Node1&#45;&gt;Node3 -->
<g id="edge4_Node000001_Node000003" class="edge">
<title>Node1&#45;&gt;Node3</title>
<g id="a_edge4_Node000001_Node000003"><a xlink:title=" ">
<path fill="none" stroke="#63b8ff" d="M53.24,-98.57C62.26,-101.04 72.7,-103.91 82.89,-106.71"/>
<polygon fill="#63b8ff" stroke="#63b8ff" points="81.8,-110.31 92.37,-109.58 83.65,-103.56 81.8,-110.31"/>
</a>
</g>
</g>
<!-- Node4 -->
<g id="Node000004" class="node">
<title>Node4</title>
<g id="a_Node000004"><a xlink:href="port_8c.html#ab4cd5b4635fe2ba28abafebbb1ac6861" target="_top" xlink:title=" ">
<polygon fill="white" stroke="#666666" points="172,-74 89,-74 89,-55 172,-55 172,-74"/>
<text text-anchor="middle" x="130.5" y="-62" font-family="Helvetica,sans-Serif" font-size="10.00">port_dword_out</text>
</a>
</g>
</g>
<!-- Node1&#45;&gt;Node4 -->
<g id="edge6_Node000001_Node000004" class="edge">
<title>Node1&#45;&gt;Node4</title>
<g id="a_edge6_Node000001_Node000004"><a xlink:title=" ">
<path fill="none" stroke="#63b8ff" d="M53.24,-84.69C61.82,-82.42 71.68,-79.81 81.4,-77.23"/>
<polygon fill="#63b8ff" stroke="#63b8ff" points="82.05,-80.42 90.82,-74.47 80.26,-73.65 82.05,-80.42"/>
</a>
</g>
</g>
<!-- Node5 -->
<g id="Node000005" class="node">
<title>Node5</title>
<g id="a_Node000005"><a xlink:href="port_8c.html#ad8d1266775348d5a6428af04f500b8e3" target="_top" xlink:title=" ">
<polygon fill="white" stroke="#666666" points="166.5,-19 94.5,-19 94.5,0 166.5,0 166.5,-19"/>
<text text-anchor="middle" x="130.5" y="-7" font-family="Helvetica,sans-Serif" font-size="10.00">port_word_in</text>
</a>
</g>
</g>
<!-- Node1&#45;&gt;Node5 -->
<g id="edge8_Node000001_Node000005" class="edge">
<title>Node1&#45;&gt;Node5</title>
<g id="a_edge8_Node000001_Node000005"><a xlink:title=" ">
<path fill="none" stroke="#63b8ff" d="M39.6,-81.77C56.61,-68.1 87.83,-43 108.63,-26.28"/>
<polygon fill="#63b8ff" stroke="#63b8ff" points="110.5,-28.46 116.1,-19.47 106.11,-23.01 110.5,-28.46"/>
</a>
</g>
</g>
<!-- Node2&#45;&gt;Node2 -->
<g id="edge3_Node000002_Node000002" class="edge">
<title>Node2&#45;&gt;Node2</title>
<g id="a_edge3_Node000002_Node000002"><a xlink:title=" ">
<path fill="none" stroke="#63b8ff" d="M114.22,-184.37C106.79,-192.94 112.22,-202 130.5,-202 140.78,-202 147,-199.13 149.15,-195.1"/>
<polygon fill="#63b8ff" stroke="#63b8ff" points="152.35,-194.38 146.78,-185.37 145.52,-195.89 152.35,-194.38"/>
</a>
</g>
</g>
<!-- Node3&#45;&gt;Node3 -->
<g id="edge5_Node000003_Node000003" class="edge">
<title>Node3&#45;&gt;Node3</title>
<g id="a_edge5_Node000003_Node000003"><a xlink:title=" ">
<path fill="none" stroke="#63b8ff" d="M114.22,-129.37C106.79,-137.94 112.22,-147 130.5,-147 140.78,-147 147,-144.13 149.15,-140.1"/>
<polygon fill="#63b8ff" stroke="#63b8ff" points="152.35,-139.38 146.78,-130.37 145.52,-140.89 152.35,-139.38"/>
</a>
</g>
</g>
<!-- Node4&#45;&gt;Node4 -->
<g id="edge7_Node000004_Node000004" class="edge">
<title>Node4&#45;&gt;Node4</title>
<g id="a_edge7_Node000004_Node000004"><a xlink:title=" ">
<path fill="none" stroke="#63b8ff" d="M114.22,-74.37C106.79,-82.94 112.22,-92 130.5,-92 140.78,-92 147,-89.13 149.15,-85.1"/>
<polygon fill="#63b8ff" stroke="#63b8ff" points="152.35,-84.38 146.78,-75.37 145.52,-85.89 152.35,-84.38"/>
</a>
</g>
</g>
<!-- Node5&#45;&gt;Node5 -->
<g id="edge9_Node000005_Node000005" class="edge">
<title>Node5&#45;&gt;Node5</title>
<g id="a_edge9_Node000005_Node000005"><a xlink:title=" ">
<path fill="none" stroke="#63b8ff" d="M114.22,-19.37C106.79,-27.94 112.22,-37 130.5,-37 140.78,-37 147,-34.13 149.15,-30.1"/>
<polygon fill="#63b8ff" stroke="#63b8ff" points="152.35,-29.38 146.78,-20.37 145.52,-30.89 152.35,-29.38"/>
</a>
</g>
</g>
</g>
</svg>
