<?xml version="1.0" encoding="UTF-8" standalone="no"?>
<!DOCTYPE svg PUBLIC "-//W3C//DTD SVG 1.1//EN"
 "http://www.w3.org/Graphics/SVG/1.1/DTD/svg11.dtd">
<!-- Generated by graphviz version 8.0.2 (20230410.1723)
 -->
<!-- Title: pci_get_device Pages: 1 -->
<svg width="298pt" height="210pt"
 viewBox="0.00 0.00 298.00 210.00" xmlns="http://www.w3.org/2000/svg" xmlns:xlink="http://www.w3.org/1999/xlink">
<g id="graph0" class="graph" transform="scale(1 1) rotate(0) translate(4 206)">
<title>pci_get_device</title>
<!-- Node1 -->
<g id="Node000001" class="node">
<title>Node1</title>
<g id="a_Node000001"><a xlink:title=" ">
<polygon fill="#999999" stroke="#666666" points="82,-101 0,-101 0,-82 82,-82 82,-101"/>
<text text-anchor="middle" x="41" y="-89" font-family="Helvetica,sans-Serif" font-size="10.00">pci_get_device</text>
</a>
</g>
</g>
<!-- Node1&#45;&gt;Node1 -->
<g id="edge1_Node000001_Node000001" class="edge">
<title>Node1&#45;&gt;Node1</title>
<g id="a_edge1_Node000001_Node000001"><a xlink:title=" ">
<path fill="none" stroke="#63b8ff" d="M24.8,-101.37C17.41,-109.94 22.81,-119 41,-119 51.23,-119 57.42,-116.13 59.56,-112.1"/>
<polygon fill="#63b8ff" stroke="#63b8ff" points="62.77,-111.39 57.2,-102.37 55.93,-112.89 62.77,-111.39"/>
</a>
</g>
</g>
<!-- Node2 -->
<g id="Node000002" class="node">
<title>Node2</title>
<g id="a_Node000002"><a xlink:href="pci_8c.html#abb0a8e6fa16437a49fe35b85a84feec2" target="_top" xlink:title=" ">
<polygon fill="white" stroke="#666666" points="171,-101 118,-101 118,-82 171,-82 171,-101"/>
<text text-anchor="middle" x="144.5" y="-89" font-family="Helvetica,sans-Serif" font-size="10.00">pci_read</text>
</a>
</g>
</g>
<!-- Node1&#45;&gt;Node2 -->
<g id="edge2_Node000001_Node000002" class="edge">
<title>Node1&#45;&gt;Node2</title>
<g id="a_edge2_Node000001_Node000002"><a xlink:title=" ">
<path fill="none" stroke="#63b8ff" d="M82.41,-91.5C90.45,-91.5 98.85,-91.5 106.76,-91.5"/>
<polygon fill="#63b8ff" stroke="#63b8ff" points="106.53,-95 116.53,-91.5 106.53,-88 106.53,-95"/>
</a>
</g>
</g>
<!-- Node2&#45;&gt;Node2 -->
<g id="edge3_Node000002_Node000002" class="edge">
<title>Node2&#45;&gt;Node2</title>
<g id="a_edge3_Node000002_Node000002"><a xlink:title=" ">
<path fill="none" stroke="#63b8ff" d="M128.3,-101.37C120.91,-109.94 126.31,-119 144.5,-119 154.73,-119 160.92,-116.13 163.06,-112.1"/>
<polygon fill="#63b8ff" stroke="#63b8ff" points="166.27,-111.39 160.7,-102.37 159.43,-112.89 166.27,-111.39"/>
</a>
</g>
</g>
<!-- Node3 -->
<g id="Node000003" class="node">
<title>Node3</title>
<g id="a_Node000003"><a xlink:href="port_8c.html#af8b1144eda5e36642ff26d504bf2b3b8" target="_top" xlink:title=" ">
<polygon fill="white" stroke="#666666" points="283.5,-184 213.5,-184 213.5,-165 283.5,-165 283.5,-184"/>
<text text-anchor="middle" x="248.5" y="-172" font-family="Helvetica,sans-Serif" font-size="10.00">port_byte_in</text>
</a>
</g>
</g>
<!-- Node2&#45;&gt;Node3 -->
<g id="edge4_Node000002_Node000003" class="edge">
<title>Node2&#45;&gt;Node3</title>
<g id="a_edge4_Node000002_Node000003"><a xlink:title=" ">
<path fill="none" stroke="#63b8ff" d="M152.86,-101.48C163.51,-115.34 184.42,-140.53 207,-156.5 208.47,-157.54 210.01,-158.54 211.59,-159.5"/>
<polygon fill="#63b8ff" stroke="#63b8ff" points="209.5,-162.88 219.97,-164.52 212.81,-156.71 209.5,-162.88"/>
</a>
</g>
</g>
<!-- Node4 -->
<g id="Node000004" class="node">
<title>Node4</title>
<g id="a_Node000004"><a xlink:href="port_8c.html#aef30b57e8c51c84ba95dc7bb9a3b1750" target="_top" xlink:title=" ">
<polygon fill="white" stroke="#666666" points="287,-129 210,-129 210,-110 287,-110 287,-129"/>
<text text-anchor="middle" x="248.5" y="-117" font-family="Helvetica,sans-Serif" font-size="10.00">port_dword_in</text>
</a>
</g>
</g>
<!-- Node2&#45;&gt;Node4 -->
<g id="edge6_Node000002_Node000004" class="edge">
<title>Node2&#45;&gt;Node4</title>
<g id="a_edge6_Node000002_Node000004"><a xlink:title=" ">
<path fill="none" stroke="#63b8ff" d="M171.24,-98.57C180.26,-101.04 190.7,-103.91 200.89,-106.71"/>
<polygon fill="#63b8ff" stroke="#63b8ff" points="199.8,-110.31 210.37,-109.58 201.65,-103.56 199.8,-110.31"/>
</a>
</g>
</g>
<!-- Node5 -->
<g id="Node000005" class="node">
<title>Node5</title>
<g id="a_Node000005"><a xlink:href="port_8c.html#ab4cd5b4635fe2ba28abafebbb1ac6861" target="_top" xlink:title=" ">
<polygon fill="white" stroke="#666666" points="290,-74 207,-74 207,-55 290,-55 290,-74"/>
<text text-anchor="middle" x="248.5" y="-62" font-family="Helvetica,sans-Serif" font-size="10.00">port_dword_out</text>
</a>
</g>
</g>
<!-- Node2&#45;&gt;Node5 -->
<g id="edge8_Node000002_Node000005" class="edge">
<title>Node2&#45;&gt;Node5</title>
<g id="a_edge8_Node000002_Node000005"><a xlink:title=" ">
<path fill="none" stroke="#63b8ff" d="M171.24,-84.69C179.82,-82.42 189.68,-79.81 199.4,-77.23"/>
<polygon fill="#63b8ff" stroke="#63b8ff" points="200.05,-80.42 208.82,-74.47 198.26,-73.65 200.05,-80.42"/>
</a>
</g>
</g>
<!-- Node6 -->
<g id="Node000006" class="node">
<title>Node6</title>
<g id="a_Node000006"><a xlink:href="port_8c.html#ad8d1266775348d5a6428af04f500b8e3" target="_top" xlink:title=" ">
<polygon fill="white" stroke="#666666" points="284.5,-19 212.5,-19 212.5,0 284.5,0 284.5,-19"/>
<text text-anchor="middle" x="248.5" y="-7" font-family="Helvetica,sans-Serif" font-size="10.00">port_word_in</text>
</a>
</g>
</g>
<!-- Node2&#45;&gt;Node6 -->
<g id="edge10_Node000002_Node000006" class="edge">
<title>Node2&#45;&gt;Node6</title>
<g id="a_edge10_Node000002_Node000006"><a xlink:title=" ">
<path fill="none" stroke="#63b8ff" d="M157.6,-81.77C174.61,-68.1 205.83,-43 226.63,-26.28"/>
<polygon fill="#63b8ff" stroke="#63b8ff" points="228.5,-28.46 234.1,-19.47 224.11,-23.01 228.5,-28.46"/>
</a>
</g>
</g>
<!-- Node3&#45;&gt;Node3 -->
<g id="edge5_Node000003_Node000003" class="edge">
<title>Node3&#45;&gt;Node3</title>
<g id="a_edge5_Node000003_Node000003"><a xlink:title=" ">
<path fill="none" stroke="#63b8ff" d="M232.22,-184.37C224.79,-192.94 230.22,-202 248.5,-202 258.78,-202 265,-199.13 267.15,-195.1"/>
<polygon fill="#63b8ff" stroke="#63b8ff" points="270.35,-194.38 264.78,-185.37 263.52,-195.89 270.35,-194.38"/>
</a>
</g>
</g>
<!-- Node4&#45;&gt;Node4 -->
<g id="edge7_Node000004_Node000004" class="edge">
<title>Node4&#45;&gt;Node4</title>
<g id="a_edge7_Node000004_Node000004"><a xlink:title=" ">
<path fill="none" stroke="#63b8ff" d="M232.22,-129.37C224.79,-137.94 230.22,-147 248.5,-147 258.78,-147 265,-144.13 267.15,-140.1"/>
<polygon fill="#63b8ff" stroke="#63b8ff" points="270.35,-139.38 264.78,-130.37 263.52,-140.89 270.35,-139.38"/>
</a>
</g>
</g>
<!-- Node5&#45;&gt;Node5 -->
<g id="edge9_Node000005_Node000005" class="edge">
<title>Node5&#45;&gt;Node5</title>
<g id="a_edge9_Node000005_Node000005"><a xlink:title=" ">
<path fill="none" stroke="#63b8ff" d="M232.22,-74.37C224.79,-82.94 230.22,-92 248.5,-92 258.78,-92 265,-89.13 267.15,-85.1"/>
<polygon fill="#63b8ff" stroke="#63b8ff" points="270.35,-84.38 264.78,-75.37 263.52,-85.89 270.35,-84.38"/>
</a>
</g>
</g>
<!-- Node6&#45;&gt;Node6 -->
<g id="edge11_Node000006_Node000006" class="edge">
<title>Node6&#45;&gt;Node6</title>
<g id="a_edge11_Node000006_Node000006"><a xlink:title=" ">
<path fill="none" stroke="#63b8ff" d="M232.22,-19.37C224.79,-27.94 230.22,-37 248.5,-37 258.78,-37 265,-34.13 267.15,-30.1"/>
<polygon fill="#63b8ff" stroke="#63b8ff" points="270.35,-29.38 264.78,-20.37 263.52,-30.89 270.35,-29.38"/>
</a>
</g>
</g>
</g>
</svg>
