<?xml version="1.0" encoding="UTF-8" standalone="no"?>
<!DOCTYPE svg PUBLIC "-//W3C//DTD SVG 1.1//EN"
 "http://www.w3.org/Graphics/SVG/1.1/DTD/svg11.dtd">
<!-- Generated by graphviz version 8.0.2 (20230410.1723)
 -->
<!-- Title: pit_init Pages: 1 -->
<svg width="190pt" height="100pt"
 viewBox="0.00 0.00 190.00 100.00" xmlns="http://www.w3.org/2000/svg" xmlns:xlink="http://www.w3.org/1999/xlink">
<g id="graph0" class="graph" transform="scale(1 1) rotate(0) translate(4 96)">
<title>pit_init</title>
<!-- Node1 -->
<g id="Node000001" class="node">
<title>Node1</title>
<g id="a_Node000001"><a xlink:title=" ">
<polygon fill="#999999" stroke="#666666" points="45,-46 0,-46 0,-27 45,-27 45,-46"/>
<text text-anchor="middle" x="22.5" y="-34" font-family="Helvetica,sans-Serif" font-size="10.00">pit_init</text>
</a>
</g>
</g>
<!-- Node2 -->
<g id="Node000002" class="node">
<title>Node2</title>
<g id="a_Node000002"><a xlink:href="isr_8c.html#a919e035afe984042c7fb8672b16aaf1e" target="_top" xlink:title=" ">
<polygon fill="white" stroke="#666666" points="182,-74 81,-74 81,-55 182,-55 182,-74"/>
<text text-anchor="middle" x="131.5" y="-62" font-family="Helvetica,sans-Serif" font-size="10.00">isr_register_handler</text>
</a>
</g>
</g>
<!-- Node1&#45;&gt;Node2 -->
<g id="edge1_Node000001_Node000002" class="edge">
<title>Node1&#45;&gt;Node2</title>
<g id="a_edge1_Node000001_Node000002"><a xlink:title=" ">
<path fill="none" stroke="#63b8ff" d="M45.41,-42.23C56.02,-45.01 69.2,-48.46 82,-51.81"/>
<polygon fill="#63b8ff" stroke="#63b8ff" points="81.03,-55.43 91.59,-54.58 82.81,-48.66 81.03,-55.43"/>
</a>
</g>
</g>
<!-- Node3 -->
<g id="Node000003" class="node">
<title>Node3</title>
<g id="a_Node000003"><a xlink:href="port_8c.html#ac3c72bfda8c7b1920ef91bcc06c97c7f" target="_top" xlink:title=" ">
<polygon fill="white" stroke="#666666" points="169.5,-19 93.5,-19 93.5,0 169.5,0 169.5,-19"/>
<text text-anchor="middle" x="131.5" y="-7" font-family="Helvetica,sans-Serif" font-size="10.00">port_byte_out</text>
</a>
</g>
</g>
<!-- Node1&#45;&gt;Node3 -->
<g id="edge3_Node000001_Node000003" class="edge">
<title>Node1&#45;&gt;Node3</title>
<g id="a_edge3_Node000001_Node000003"><a xlink:title=" ">
<path fill="none" stroke="#63b8ff" d="M45.41,-30.97C56.22,-28.24 69.7,-24.84 82.73,-21.55"/>
<polygon fill="#63b8ff" stroke="#63b8ff" points="83.18,-24.8 92.02,-18.96 81.47,-18.01 83.18,-24.8"/>
</a>
</g>
</g>
<!-- Node2&#45;&gt;Node2 -->
<g id="edge2_Node000002_Node000002" class="edge">
<title>Node2&#45;&gt;Node2</title>
<g id="a_edge2_Node000002_Node000002"><a xlink:title=" ">
<path fill="none" stroke="#63b8ff" d="M114.44,-74.37C106.65,-82.94 112.34,-92 131.5,-92 142.58,-92 149.15,-88.97 151.22,-84.76"/>
<polygon fill="#63b8ff" stroke="#63b8ff" points="154.43,-84.19 148.56,-75.37 147.65,-85.92 154.43,-84.19"/>
</a>
</g>
</g>
<!-- Node3&#45;&gt;Node3 -->
<g id="edge4_Node000003_Node000003" class="edge">
<title>Node3&#45;&gt;Node3</title>
<g id="a_edge4_Node000003_Node000003"><a xlink:title=" ">
<path fill="none" stroke="#63b8ff" d="M114.44,-19.37C106.65,-27.94 112.34,-37 131.5,-37 142.58,-37 149.15,-33.97 151.22,-29.76"/>
<polygon fill="#63b8ff" stroke="#63b8ff" points="154.43,-29.19 148.56,-20.37 147.65,-30.92 154.43,-29.19"/>
</a>
</g>
</g>
</g>
</svg>
