<?xml version="1.0" encoding="UTF-8" standalone="no"?>
<!DOCTYPE svg PUBLIC "-//W3C//DTD SVG 1.1//EN"
 "http://www.w3.org/Graphics/SVG/1.1/DTD/svg11.dtd">
<!-- Generated by graphviz version 8.0.2 (20230410.1723)
 -->
<!-- Title: port_dword_out Pages: 1 -->
<svg width="301pt" height="139pt"
 viewBox="0.00 0.00 301.00 139.00" xmlns="http://www.w3.org/2000/svg" xmlns:xlink="http://www.w3.org/1999/xlink">
<g id="graph0" class="graph" transform="scale(1 1) rotate(0) translate(4 135)">
<title>port_dword_out</title>
<!-- Node1 -->
<g id="Node000001" class="node">
<title>Node1</title>
<g id="a_Node000001"><a xlink:title=" ">
<polygon fill="#999999" stroke="#666666" points="293,-75 210,-75 210,-56 293,-56 293,-75"/>
<text text-anchor="middle" x="251.5" y="-63" font-family="Helvetica,sans-Serif" font-size="10.00">port_dword_out</text>
</a>
</g>
</g>
<!-- Node1&#45;&gt;Node1 -->
<g id="edge9_Node000001_Node000001" class="edge">
<title>Node1&#45;&gt;Node1</title>
<g id="a_edge9_Node000001_Node000001"><a xlink:title=" ">
<path fill="none" stroke="#63b8ff" d="M270.42,-86.1C268.24,-90.13 261.93,-93 251.5,-93 232.96,-93 227.45,-83.94 234.98,-75.37"/>
<polygon fill="#63b8ff" stroke="#63b8ff" points="273.62,-85.36 268.02,-76.37 266.78,-86.89 273.62,-85.36"/>
</a>
</g>
</g>
<!-- Node2 -->
<g id="Node000002" class="node">
<title>Node2</title>
<g id="a_Node000002"><a xlink:href="pci_8c.html#abb0a8e6fa16437a49fe35b85a84feec2" target="_top" xlink:title=" ">
<polygon fill="white" stroke="#666666" points="172.5,-113 119.5,-113 119.5,-94 172.5,-94 172.5,-113"/>
<text text-anchor="middle" x="146" y="-101" font-family="Helvetica,sans-Serif" font-size="10.00">pci_read</text>
</a>
</g>
</g>
<!-- Node1&#45;&gt;Node2 -->
<g id="edge1_Node000001_Node000002" class="edge">
<title>Node1&#45;&gt;Node2</title>
<g id="a_edge1_Node000001_Node000002"><a xlink:title=" ">
<path fill="none" stroke="#63b8ff" d="M213.01,-79.26C199.72,-84.14 185.06,-89.53 172.94,-93.98"/>
<polygon fill="#63b8ff" stroke="#63b8ff" points="214.13,-82.22 222.31,-75.48 211.71,-75.65 214.13,-82.22"/>
</a>
</g>
</g>
<!-- Node4 -->
<g id="Node000004" class="node">
<title>Node4</title>
<g id="a_Node000004"><a xlink:href="rtl8139_8c.html#a24e07ef25a2b1581bca67bbb213a0931" target="_top" xlink:title=" ">
<polygon fill="white" stroke="#666666" points="73,-75 9,-75 9,-56 73,-56 73,-75"/>
<text text-anchor="middle" x="41" y="-63" font-family="Helvetica,sans-Serif" font-size="10.00">rtl8139_init</text>
</a>
</g>
</g>
<!-- Node1&#45;&gt;Node4 -->
<g id="edge10_Node000001_Node000004" class="edge">
<title>Node1&#45;&gt;Node4</title>
<g id="a_edge10_Node000001_Node000004"><a xlink:title=" ">
<path fill="none" stroke="#63b8ff" d="M198.84,-65.5C159.49,-65.5 106.61,-65.5 73.41,-65.5"/>
<polygon fill="#63b8ff" stroke="#63b8ff" points="198.8,-69 208.8,-65.5 198.8,-62 198.8,-69"/>
</a>
</g>
</g>
<!-- Node5 -->
<g id="Node000005" class="node">
<title>Node5</title>
<g id="a_Node000005"><a xlink:href="pci_8c.html#a531322fe5567da0a2705f6131c079f65" target="_top" xlink:title=" ">
<polygon fill="white" stroke="#666666" points="174,-19 118,-19 118,0 174,0 174,-19"/>
<text text-anchor="middle" x="146" y="-7" font-family="Helvetica,sans-Serif" font-size="10.00">pci_write</text>
</a>
</g>
</g>
<!-- Node1&#45;&gt;Node5 -->
<g id="edge6_Node000001_Node000005" class="edge">
<title>Node1&#45;&gt;Node5</title>
<g id="a_edge6_Node000001_Node000005"><a xlink:title=" ">
<path fill="none" stroke="#63b8ff" d="M222.93,-50.58C204.63,-40.68 181.14,-27.97 165.17,-19.33"/>
<polygon fill="#63b8ff" stroke="#63b8ff" points="221.01,-54.07 231.47,-55.75 224.34,-47.91 221.01,-54.07"/>
</a>
</g>
</g>
<!-- Node2&#45;&gt;Node2 -->
<g id="edge4_Node000002_Node000002" class="edge">
<title>Node2&#45;&gt;Node2</title>
<g id="a_edge4_Node000002_Node000002"><a xlink:title=" ">
<path fill="none" stroke="#63b8ff" d="M164.83,-124.1C162.66,-128.13 156.38,-131 146,-131 127.54,-131 122.06,-121.94 129.56,-113.37"/>
<polygon fill="#63b8ff" stroke="#63b8ff" points="168.03,-123.37 162.44,-114.37 161.2,-124.89 168.03,-123.37"/>
</a>
</g>
</g>
<!-- Node3 -->
<g id="Node000003" class="node">
<title>Node3</title>
<g id="a_Node000003"><a xlink:href="pci_8c.html#ad8515b86d19288e403722e2c9a4dc5dd" target="_top" xlink:title=" ">
<polygon fill="white" stroke="#666666" points="82,-113 0,-113 0,-94 82,-94 82,-113"/>
<text text-anchor="middle" x="41" y="-101" font-family="Helvetica,sans-Serif" font-size="10.00">pci_get_device</text>
</a>
</g>
</g>
<!-- Node2&#45;&gt;Node3 -->
<g id="edge2_Node000002_Node000003" class="edge">
<title>Node2&#45;&gt;Node3</title>
<g id="a_edge2_Node000002_Node000003"><a xlink:title=" ">
<path fill="none" stroke="#63b8ff" d="M108.09,-103.5C99.76,-103.5 90.88,-103.5 82.42,-103.5"/>
<polygon fill="#63b8ff" stroke="#63b8ff" points="108.01,-107 118.01,-103.5 108.01,-100 108.01,-107"/>
</a>
</g>
</g>
<!-- Node2&#45;&gt;Node4 -->
<g id="edge5_Node000002_Node000004" class="edge">
<title>Node2&#45;&gt;Node4</title>
<g id="a_edge5_Node000002_Node000004"><a xlink:title=" ">
<path fill="none" stroke="#63b8ff" d="M108.89,-90.18C95.8,-85.35 81.24,-79.98 69.06,-75.48"/>
<polygon fill="#63b8ff" stroke="#63b8ff" points="107.42,-93.73 118.01,-93.91 109.84,-87.17 107.42,-93.73"/>
</a>
</g>
</g>
<!-- Node3&#45;&gt;Node3 -->
<g id="edge3_Node000003_Node000003" class="edge">
<title>Node3&#45;&gt;Node3</title>
<g id="a_edge3_Node000003_Node000003"><a xlink:title=" ">
<path fill="none" stroke="#63b8ff" d="M59.83,-124.1C57.66,-128.13 51.38,-131 41,-131 22.54,-131 17.06,-121.94 24.56,-113.37"/>
<polygon fill="#63b8ff" stroke="#63b8ff" points="63.03,-123.37 57.44,-114.37 56.2,-124.89 63.03,-123.37"/>
</a>
</g>
</g>
<!-- Node5&#45;&gt;Node4 -->
<g id="edge8_Node000005_Node000004" class="edge">
<title>Node5&#45;&gt;Node4</title>
<g id="a_edge8_Node000005_Node000004"><a xlink:title=" ">
<path fill="none" stroke="#63b8ff" d="M117.56,-24.42C99.35,-34.32 75.98,-47.03 60.08,-55.67"/>
<polygon fill="#63b8ff" stroke="#63b8ff" points="118.95,-27.11 126.06,-19.25 115.6,-20.96 118.95,-27.11"/>
</a>
</g>
</g>
<!-- Node5&#45;&gt;Node5 -->
<g id="edge7_Node000005_Node000005" class="edge">
<title>Node5&#45;&gt;Node5</title>
<g id="a_edge7_Node000005_Node000005"><a xlink:title=" ">
<path fill="none" stroke="#63b8ff" d="M164.83,-30.1C162.66,-34.13 156.38,-37 146,-37 127.54,-37 122.06,-27.94 129.56,-19.37"/>
<polygon fill="#63b8ff" stroke="#63b8ff" points="168.03,-29.37 162.44,-20.37 161.2,-30.89 168.03,-29.37"/>
</a>
</g>
</g>
</g>
</svg>
