<?xml version="1.0" encoding="UTF-8" standalone="no"?>
<!DOCTYPE svg PUBLIC "-//W3C//DTD SVG 1.1//EN"
 "http://www.w3.org/Graphics/SVG/1.1/DTD/svg11.dtd">
<!-- Generated by graphviz version 8.0.2 (20230410.1723)
 -->
<!-- Title: port_word_in Pages: 1 -->
<svg width="287pt" height="82pt"
 viewBox="0.00 0.00 287.00 82.00" xmlns="http://www.w3.org/2000/svg" xmlns:xlink="http://www.w3.org/1999/xlink">
<g id="graph0" class="graph" transform="scale(1 1) rotate(0) translate(4 78)">
<title>port_word_in</title>
<!-- Node1 -->
<g id="Node000001" class="node">
<title>Node1</title>
<g id="a_Node000001"><a xlink:title=" ">
<polygon fill="#999999" stroke="#666666" points="279,-37 207,-37 207,-18 279,-18 279,-37"/>
<text text-anchor="middle" x="243" y="-25" font-family="Helvetica,sans-Serif" font-size="10.00">port_word_in</text>
</a>
</g>
</g>
<!-- Node1&#45;&gt;Node1 -->
<g id="edge6_Node000001_Node000001" class="edge">
<title>Node1&#45;&gt;Node1</title>
<g id="a_edge6_Node000001_Node000001"><a xlink:title=" ">
<path fill="none" stroke="#63b8ff" d="M260.66,-48.1C258.63,-52.13 252.74,-55 243,-55 225.69,-55 220.55,-45.94 227.58,-37.37"/>
<polygon fill="#63b8ff" stroke="#63b8ff" points="263.89,-47.44 258.42,-38.37 257.04,-48.87 263.89,-47.44"/>
</a>
</g>
</g>
<!-- Node2 -->
<g id="Node000002" class="node">
<title>Node2</title>
<g id="a_Node000002"><a xlink:href="pci_8c.html#abb0a8e6fa16437a49fe35b85a84feec2" target="_top" xlink:title=" ">
<polygon fill="white" stroke="#666666" points="171,-56 118,-56 118,-37 171,-37 171,-56"/>
<text text-anchor="middle" x="144.5" y="-44" font-family="Helvetica,sans-Serif" font-size="10.00">pci_read</text>
</a>
</g>
</g>
<!-- Node1&#45;&gt;Node2 -->
<g id="edge1_Node000001_Node000002" class="edge">
<title>Node1&#45;&gt;Node2</title>
<g id="a_edge1_Node000001_Node000002"><a xlink:title=" ">
<path fill="none" stroke="#63b8ff" d="M195.96,-36.56C187.45,-38.24 178.85,-39.93 171.21,-41.44"/>
<polygon fill="#63b8ff" stroke="#63b8ff" points="196.48,-39.83 205.61,-34.47 195.13,-32.96 196.48,-39.83"/>
</a>
</g>
</g>
<!-- Node4 -->
<g id="Node000004" class="node">
<title>Node4</title>
<g id="a_Node000004"><a xlink:href="rtl8139_8c.html#a24e07ef25a2b1581bca67bbb213a0931" target="_top" xlink:title=" ">
<polygon fill="white" stroke="#666666" points="73,-19 9,-19 9,0 73,0 73,-19"/>
<text text-anchor="middle" x="41" y="-7" font-family="Helvetica,sans-Serif" font-size="10.00">rtl8139_init</text>
</a>
</g>
</g>
<!-- Node1&#45;&gt;Node4 -->
<g id="edge7_Node000001_Node000004" class="edge">
<title>Node1&#45;&gt;Node4</title>
<g id="a_edge7_Node000001_Node000004"><a xlink:title=" ">
<path fill="none" stroke="#63b8ff" d="M196.03,-23.36C158.43,-19.98 106.26,-15.28 73.33,-12.32"/>
<polygon fill="#63b8ff" stroke="#63b8ff" points="195.43,-26.91 205.7,-24.32 196.06,-19.94 195.43,-26.91"/>
</a>
</g>
</g>
<!-- Node2&#45;&gt;Node2 -->
<g id="edge4_Node000002_Node000002" class="edge">
<title>Node2&#45;&gt;Node2</title>
<g id="a_edge4_Node000002_Node000002"><a xlink:title=" ">
<path fill="none" stroke="#63b8ff" d="M162.16,-67.1C160.13,-71.13 154.24,-74 144.5,-74 127.19,-74 122.05,-64.94 129.08,-56.37"/>
<polygon fill="#63b8ff" stroke="#63b8ff" points="165.39,-66.44 159.92,-57.37 158.54,-67.87 165.39,-66.44"/>
</a>
</g>
</g>
<!-- Node3 -->
<g id="Node000003" class="node">
<title>Node3</title>
<g id="a_Node000003"><a xlink:href="pci_8c.html#ad8515b86d19288e403722e2c9a4dc5dd" target="_top" xlink:title=" ">
<polygon fill="white" stroke="#666666" points="82,-56 0,-56 0,-37 82,-37 82,-56"/>
<text text-anchor="middle" x="41" y="-44" font-family="Helvetica,sans-Serif" font-size="10.00">pci_get_device</text>
</a>
</g>
</g>
<!-- Node2&#45;&gt;Node3 -->
<g id="edge2_Node000002_Node000003" class="edge">
<title>Node2&#45;&gt;Node3</title>
<g id="a_edge2_Node000002_Node000003"><a xlink:title=" ">
<path fill="none" stroke="#63b8ff" d="M106.84,-46.5C98.91,-46.5 90.49,-46.5 82.43,-46.5"/>
<polygon fill="#63b8ff" stroke="#63b8ff" points="106.62,-50 116.62,-46.5 106.62,-43 106.62,-50"/>
</a>
</g>
</g>
<!-- Node2&#45;&gt;Node4 -->
<g id="edge5_Node000002_Node000004" class="edge">
<title>Node2&#45;&gt;Node4</title>
<g id="a_edge5_Node000002_Node000004"><a xlink:title=" ">
<path fill="none" stroke="#63b8ff" d="M107.45,-33.36C94.88,-28.78 80.99,-23.71 69.25,-19.43"/>
<polygon fill="#63b8ff" stroke="#63b8ff" points="106.03,-36.93 116.62,-37.07 108.43,-30.35 106.03,-36.93"/>
</a>
</g>
</g>
<!-- Node3&#45;&gt;Node3 -->
<g id="edge3_Node000003_Node000003" class="edge">
<title>Node3&#45;&gt;Node3</title>
<g id="a_edge3_Node000003_Node000003"><a xlink:title=" ">
<path fill="none" stroke="#63b8ff" d="M59.56,-67.1C57.42,-71.13 51.23,-74 41,-74 22.81,-74 17.41,-64.94 24.8,-56.37"/>
<polygon fill="#63b8ff" stroke="#63b8ff" points="62.77,-66.39 57.2,-57.37 55.93,-67.89 62.77,-66.39"/>
</a>
</g>
</g>
</g>
</svg>
