<?xml version="1.0" encoding="UTF-8" standalone="no"?>
<!DOCTYPE svg PUBLIC "-//W3C//DTD SVG 1.1//EN"
 "http://www.w3.org/Graphics/SVG/1.1/DTD/svg11.dtd">
<!-- Generated by graphviz version 8.0.2 (20230410.1723)
 -->
<!-- Title: port_byte_out Pages: 1 -->
<svg width="242pt" height="212pt"
 viewBox="0.00 0.00 242.00 212.00" xmlns="http://www.w3.org/2000/svg" xmlns:xlink="http://www.w3.org/1999/xlink">
<g id="graph0" class="graph" transform="scale(1 1) rotate(0) translate(4 208)">
<title>port_byte_out</title>
<!-- Node1 -->
<g id="Node000001" class="node">
<title>Node1</title>
<g id="a_Node000001"><a xlink:title=" ">
<polygon fill="#999999" stroke="#666666" points="234,-111 158,-111 158,-92 234,-92 234,-111"/>
<text text-anchor="middle" x="196" y="-99" font-family="Helvetica,sans-Serif" font-size="10.00">port_byte_out</text>
</a>
</g>
</g>
<!-- Node1&#45;&gt;Node1 -->
<g id="edge2_Node000001_Node000001" class="edge">
<title>Node1&#45;&gt;Node1</title>
<g id="a_edge2_Node000001_Node000001"><a xlink:title=" ">
<path fill="none" stroke="#63b8ff" d="M220.43,-121.76C217.86,-125.97 209.72,-129 196,-129 172.27,-129 165.22,-119.94 174.87,-111.37"/>
<polygon fill="#63b8ff" stroke="#63b8ff" points="223.49,-120.84 217.13,-112.37 216.82,-122.96 223.49,-120.84"/>
</a>
</g>
</g>
<!-- Node2 -->
<g id="Node000002" class="node">
<title>Node2</title>
<g id="a_Node000002"><a xlink:href="pit_8c.html#a57da715e73b49d6a3606d1fa1d1a115f" target="_top" xlink:title=" ">
<polygon fill="white" stroke="#666666" points="83.5,-204 38.5,-204 38.5,-185 83.5,-185 83.5,-204"/>
<text text-anchor="middle" x="61" y="-192" font-family="Helvetica,sans-Serif" font-size="10.00">pit_init</text>
</a>
</g>
</g>
<!-- Node1&#45;&gt;Node2 -->
<g id="edge1_Node000001_Node000002" class="edge">
<title>Node1&#45;&gt;Node2</title>
<g id="a_edge1_Node000001_Node000002"><a xlink:title=" ">
<path fill="none" stroke="#63b8ff" d="M181.62,-119.86C168.3,-136.87 146.38,-161.71 122,-176.5 110.38,-183.55 95.8,-188.01 83.92,-190.72"/>
<polygon fill="#63b8ff" stroke="#63b8ff" points="184.84,-122.41 188.09,-112.32 179.26,-118.18 184.84,-122.41"/>
</a>
</g>
</g>
<!-- Node3 -->
<g id="Node000003" class="node">
<title>Node3</title>
<g id="a_Node000003"><a xlink:href="rtl8139_8c.html#a24e07ef25a2b1581bca67bbb213a0931" target="_top" xlink:title=" ">
<polygon fill="white" stroke="#666666" points="93,-167 29,-167 29,-148 93,-148 93,-167"/>
<text text-anchor="middle" x="61" y="-155" font-family="Helvetica,sans-Serif" font-size="10.00">rtl8139_init</text>
</a>
</g>
</g>
<!-- Node1&#45;&gt;Node3 -->
<g id="edge3_Node000001_Node000003" class="edge">
<title>Node1&#45;&gt;Node3</title>
<g id="a_edge3_Node000001_Node000003"><a xlink:title=" ">
<path fill="none" stroke="#63b8ff" d="M169.04,-116.54C155.35,-124.08 138.09,-132.97 122,-139.5 112.83,-143.22 102.6,-146.57 93.22,-149.35"/>
<polygon fill="#63b8ff" stroke="#63b8ff" points="170.31,-119.28 177.32,-111.34 166.89,-113.17 170.31,-119.28"/>
</a>
</g>
</g>
<!-- Node4 -->
<g id="Node000004" class="node">
<title>Node4</title>
<g id="a_Node000004"><a xlink:href="serial_8c.html#a086a2712ee8de77b7621d922d2b96857" target="_top" xlink:title=" ">
<polygon fill="white" stroke="#666666" points="90,-130 32,-130 32,-111 90,-111 90,-130"/>
<text text-anchor="middle" x="61" y="-118" font-family="Helvetica,sans-Serif" font-size="10.00">serial_init</text>
</a>
</g>
</g>
<!-- Node1&#45;&gt;Node4 -->
<g id="edge4_Node000001_Node000004" class="edge">
<title>Node1&#45;&gt;Node4</title>
<g id="a_edge4_Node000001_Node000004"><a xlink:title=" ">
<path fill="none" stroke="#63b8ff" d="M146.73,-108.4C127.77,-111.1 106.67,-114.12 90.27,-116.46"/>
<polygon fill="#63b8ff" stroke="#63b8ff" points="147.19,-111.72 156.6,-106.84 146.2,-104.79 147.19,-111.72"/>
</a>
</g>
</g>
<!-- Node5 -->
<g id="Node000005" class="node">
<title>Node5</title>
<g id="a_Node000005"><a xlink:href="serial_8c.html#a25ea2587d38072f4b5a53d59962ca418" target="_top" xlink:title=" ">
<polygon fill="white" stroke="#666666" points="94,-93 28,-93 28,-74 94,-74 94,-93"/>
<text text-anchor="middle" x="61" y="-81" font-family="Helvetica,sans-Serif" font-size="10.00">serial_write</text>
</a>
</g>
</g>
<!-- Node1&#45;&gt;Node5 -->
<g id="edge5_Node000001_Node000005" class="edge">
<title>Node1&#45;&gt;Node5</title>
<g id="a_edge5_Node000001_Node000005"><a xlink:title=" ">
<path fill="none" stroke="#63b8ff" d="M146.96,-95C129.41,-92.62 110,-90 94.16,-87.85"/>
<polygon fill="#63b8ff" stroke="#63b8ff" points="146.22,-98.57 156.6,-96.44 147.16,-91.63 146.22,-98.57"/>
</a>
</g>
</g>
<!-- Node6 -->
<g id="Node000006" class="node">
<title>Node6</title>
<g id="a_Node000006"><a xlink:href="vga__text_8c.html#ad1fc59685312d0c91988280ab70f1c01" target="_top" xlink:title=" ">
<polygon fill="white" stroke="#666666" points="122,-56 0,-56 0,-37 122,-37 122,-56"/>
<text text-anchor="middle" x="61" y="-44" font-family="Helvetica,sans-Serif" font-size="10.00">vga_text_disable_cursor</text>
</a>
</g>
</g>
<!-- Node1&#45;&gt;Node6 -->
<g id="edge6_Node000001_Node000006" class="edge">
<title>Node1&#45;&gt;Node6</title>
<g id="a_edge6_Node000001_Node000006"><a xlink:title=" ">
<path fill="none" stroke="#63b8ff" d="M167.15,-86.53C153.72,-79.63 137.25,-71.63 122,-65.5 113.89,-62.24 104.99,-59.16 96.58,-56.47"/>
<polygon fill="#63b8ff" stroke="#63b8ff" points="165.27,-90.01 175.75,-91.54 168.5,-83.81 165.27,-90.01"/>
</a>
</g>
</g>
<!-- Node7 -->
<g id="Node000007" class="node">
<title>Node7</title>
<g id="a_Node000007"><a xlink:href="vga__text_8c.html#af7e7957c30423a3a10d2843f7c10415e" target="_top" xlink:title=" ">
<polygon fill="white" stroke="#666666" points="119,-19 3,-19 3,0 119,0 119,-19"/>
<text text-anchor="middle" x="61" y="-7" font-family="Helvetica,sans-Serif" font-size="10.00">vga_text_move_cursor</text>
</a>
</g>
</g>
<!-- Node1&#45;&gt;Node7 -->
<g id="edge7_Node000001_Node000007" class="edge">
<title>Node1&#45;&gt;Node7</title>
<g id="a_edge7_Node000001_Node000007"><a xlink:title=" ">
<path fill="none" stroke="#63b8ff" d="M181.47,-83.73C168.04,-67.24 146.04,-43.11 122,-28.5 116.02,-24.87 109.29,-21.87 102.54,-19.4"/>
<polygon fill="#63b8ff" stroke="#63b8ff" points="179.05,-85.32 188,-90.99 184.54,-80.98 179.05,-85.32"/>
</a>
</g>
</g>
</g>
</svg>
