<?xml version="1.0" encoding="UTF-8" standalone="no"?>
<!DOCTYPE svg PUBLIC "-//W3C//DTD SVG 1.1//EN"
 "http://www.w3.org/Graphics/SVG/1.1/DTD/svg11.dtd">
<!-- Generated by graphviz version 2.49.3 (20211023.0002)
 -->
<!-- Title: port_byte_out Pages: 1 -->
<svg width="247pt" height="180pt"
 viewBox="0.00 0.00 247.00 180.00" xmlns="http://www.w3.org/2000/svg" xmlns:xlink="http://www.w3.org/1999/xlink">
<g id="graph0" class="graph" transform="scale(1 1) rotate(0) translate(4 176)">
<title>port_byte_out</title>
<!-- Node1 -->
<g id="node1" class="node">
<title>Node1</title>
<g id="a_node1"><a xlink:title=" ">
<polygon fill="#bfbfbf" stroke="black" points="161,-76.5 161,-95.5 239,-95.5 239,-76.5 161,-76.5"/>
<text text-anchor="middle" x="200" y="-83.5" font-family="Helvetica,sans-Serif" font-size="10.00">port_byte_out</text>
</a>
</g>
</g>
<!-- Node2 -->
<g id="node2" class="node">
<title>Node2</title>
<g id="a_node2"><a xlink:href="isr_8h.html#a2ea31f33125954459edbe7f4d7971ffa" target="_top" xlink:title=" ">
<polygon fill="none" stroke="black" points="40,-152.5 40,-171.5 85,-171.5 85,-152.5 40,-152.5"/>
<text text-anchor="middle" x="62.5" y="-159.5" font-family="Helvetica,sans-Serif" font-size="10.00">isr_init</text>
</a>
</g>
</g>
<!-- Node1&#45;&gt;Node2 -->
<g id="edge1" class="edge">
<title>Node1&#45;&gt;Node2</title>
<path fill="none" stroke="midnightblue" d="M181.24,-102.64C166.98,-115.23 145.94,-132.15 125,-143 112.4,-149.53 97.16,-154.26 85.01,-157.36"/>
<polygon fill="midnightblue" stroke="midnightblue" points="183.73,-105.1 188.8,-95.8 179.03,-99.91 183.73,-105.1"/>
</g>
<!-- Node3 -->
<g id="node3" class="node">
<title>Node3</title>
<g id="a_node3"><a xlink:href="isr_8h.html#a90e538b3202ebb875fa17720d5eb46ba" target="_top" xlink:title=" ">
<polygon fill="none" stroke="black" points="21,-114.5 21,-133.5 104,-133.5 104,-114.5 21,-114.5"/>
<text text-anchor="middle" x="62.5" y="-121.5" font-family="Helvetica,sans-Serif" font-size="10.00">isr_irq_handler</text>
</a>
</g>
</g>
<!-- Node1&#45;&gt;Node3 -->
<g id="edge2" class="edge">
<title>Node1&#45;&gt;Node3</title>
<path fill="none" stroke="midnightblue" d="M155.08,-98.32C136.46,-103.54 115.09,-109.53 97.68,-114.41"/>
<polygon fill="midnightblue" stroke="midnightblue" points="156.12,-101.66 164.81,-95.59 154.23,-94.92 156.12,-101.66"/>
</g>
<!-- Node4 -->
<g id="node4" class="node">
<title>Node4</title>
<g id="a_node4"><a xlink:href="serial_8h.html#a086a2712ee8de77b7621d922d2b96857" target="_top" xlink:title=" ">
<polygon fill="none" stroke="black" points="33,-76.5 33,-95.5 92,-95.5 92,-76.5 33,-76.5"/>
<text text-anchor="middle" x="62.5" y="-83.5" font-family="Helvetica,sans-Serif" font-size="10.00">serial_init</text>
</a>
</g>
</g>
<!-- Node1&#45;&gt;Node4 -->
<g id="edge3" class="edge">
<title>Node1&#45;&gt;Node4</title>
<path fill="none" stroke="midnightblue" d="M150.64,-86C131.11,-86 109.25,-86 92.3,-86"/>
<polygon fill="midnightblue" stroke="midnightblue" points="150.9,-89.5 160.9,-86 150.9,-82.5 150.9,-89.5"/>
</g>
<!-- Node5 -->
<g id="node5" class="node">
<title>Node5</title>
<g id="a_node5"><a xlink:href="serial_8h.html#a25ea2587d38072f4b5a53d59962ca418" target="_top" xlink:title=" ">
<polygon fill="none" stroke="black" points="29,-38.5 29,-57.5 96,-57.5 96,-38.5 29,-38.5"/>
<text text-anchor="middle" x="62.5" y="-45.5" font-family="Helvetica,sans-Serif" font-size="10.00">serial_write</text>
</a>
</g>
</g>
<!-- Node1&#45;&gt;Node5 -->
<g id="edge4" class="edge">
<title>Node1&#45;&gt;Node5</title>
<path fill="none" stroke="midnightblue" d="M155.11,-73.69C135.98,-68.33 113.95,-62.15 96.28,-57.19"/>
<polygon fill="midnightblue" stroke="midnightblue" points="154.23,-77.08 164.81,-76.41 156.12,-70.34 154.23,-77.08"/>
</g>
<!-- Node6 -->
<g id="node6" class="node">
<title>Node6</title>
<g id="a_node6"><a xlink:href="vga__text_8h.html#ad1fc59685312d0c91988280ab70f1c01" target="_top" xlink:title=" ">
<polygon fill="none" stroke="black" points="0,-0.5 0,-19.5 125,-19.5 125,-0.5 0,-0.5"/>
<text text-anchor="middle" x="62.5" y="-7.5" font-family="Helvetica,sans-Serif" font-size="10.00">vga_text_disable_cursor</text>
</a>
</g>
</g>
<!-- Node1&#45;&gt;Node6 -->
<g id="edge5" class="edge">
<title>Node1&#45;&gt;Node6</title>
<path fill="none" stroke="midnightblue" d="M181.24,-69.36C166.98,-56.77 145.94,-39.85 125,-29 117.86,-25.3 109.87,-22.18 102.07,-19.6"/>
<polygon fill="midnightblue" stroke="midnightblue" points="179.03,-72.09 188.8,-76.2 183.73,-66.9 179.03,-72.09"/>
</g>
</g>
</svg>
