<?xml version="1.0" encoding="UTF-8" standalone="no"?>
<!DOCTYPE svg PUBLIC "-//W3C//DTD SVG 1.1//EN"
 "http://www.w3.org/Graphics/SVG/1.1/DTD/svg11.dtd">
<!-- Generated by graphviz version 8.0.2 (20230410.1723)
 -->
<!-- Title: port_byte_out Pages: 1 -->
<svg width="242pt" height="104pt"
 viewBox="0.00 0.00 242.00 104.00" xmlns="http://www.w3.org/2000/svg" xmlns:xlink="http://www.w3.org/1999/xlink">
<g id="graph0" class="graph" transform="scale(1 1) rotate(0) translate(4 100)">
<title>port_byte_out</title>
<!-- Node1 -->
<g id="node1" class="node">
<title>Node1</title>
<g id="a_node1"><a xlink:title=" ">
<polygon fill="#bfbfbf" stroke="black" points="158,-38.5 158,-57.5 234,-57.5 234,-38.5 158,-38.5"/>
<text text-anchor="middle" x="196" y="-45.5" font-family="Helvetica,sans-Serif" font-size="10.00">port_byte_out</text>
</a>
</g>
</g>
<!-- Node2 -->
<g id="node2" class="node">
<title>Node2</title>
<g id="a_node2"><a xlink:href="serial_8c.html#a086a2712ee8de77b7621d922d2b96857" target="_top" xlink:title=" ">
<polygon fill="none" stroke="black" points="32,-76.5 32,-95.5 90,-95.5 90,-76.5 32,-76.5"/>
<text text-anchor="middle" x="61" y="-83.5" font-family="Helvetica,sans-Serif" font-size="10.00">serial_init</text>
</a>
</g>
</g>
<!-- Node1&#45;&gt;Node2 -->
<g id="edge1" class="edge">
<title>Node1&#45;&gt;Node2</title>
<path fill="none" stroke="midnightblue" d="M151.24,-60.5C131.03,-66.28 107.63,-72.96 89.86,-78.04"/>
<polygon fill="midnightblue" stroke="midnightblue" points="152.13,-63.6 160.78,-57.49 150.2,-56.87 152.13,-63.6"/>
</g>
<!-- Node3 -->
<g id="node3" class="node">
<title>Node3</title>
<g id="a_node3"><a xlink:href="serial_8c.html#a25ea2587d38072f4b5a53d59962ca418" target="_top" xlink:title=" ">
<polygon fill="none" stroke="black" points="28,-38.5 28,-57.5 94,-57.5 94,-38.5 28,-38.5"/>
<text text-anchor="middle" x="61" y="-45.5" font-family="Helvetica,sans-Serif" font-size="10.00">serial_write</text>
</a>
</g>
</g>
<!-- Node1&#45;&gt;Node3 -->
<g id="edge2" class="edge">
<title>Node1&#45;&gt;Node3</title>
<path fill="none" stroke="midnightblue" d="M147.48,-48C129.59,-48 109.7,-48 93.61,-48"/>
<polygon fill="midnightblue" stroke="midnightblue" points="147.31,-51.5 157.31,-48 147.31,-44.5 147.31,-51.5"/>
</g>
<!-- Node4 -->
<g id="node4" class="node">
<title>Node4</title>
<g id="a_node4"><a xlink:href="vga__text_8c.html#ad1fc59685312d0c91988280ab70f1c01" target="_top" xlink:title=" ">
<polygon fill="none" stroke="black" points="0,-0.5 0,-19.5 122,-19.5 122,-0.5 0,-0.5"/>
<text text-anchor="middle" x="61" y="-7.5" font-family="Helvetica,sans-Serif" font-size="10.00">vga_text_disable_cursor</text>
</a>
</g>
</g>
<!-- Node1&#45;&gt;Node4 -->
<g id="edge3" class="edge">
<title>Node1&#45;&gt;Node4</title>
<path fill="none" stroke="midnightblue" d="M151.3,-35.51C132.9,-30.26 111.84,-24.24 94.8,-19.37"/>
<polygon fill="midnightblue" stroke="midnightblue" points="150.2,-39.13 160.78,-38.51 152.13,-32.4 150.2,-39.13"/>
</g>
</g>
</svg>
