<?xml version="1.0" encoding="UTF-8" standalone="no"?>
<!DOCTYPE svg PUBLIC "-//W3C//DTD SVG 1.1//EN"
 "http://www.w3.org/Graphics/SVG/1.1/DTD/svg11.dtd">
<!-- Generated by graphviz version 8.0.2 (20230410.1723)
 -->
<!-- Title: port_dword_in Pages: 1 -->
<svg width="292pt" height="82pt"
 viewBox="0.00 0.00 292.00 82.00" xmlns="http://www.w3.org/2000/svg" xmlns:xlink="http://www.w3.org/1999/xlink">
<g id="graph0" class="graph" transform="scale(1 1) rotate(0) translate(4 78)">
<title>port_dword_in</title>
<!-- Node1 -->
<g id="Node000001" class="node">
<title>Node1</title>
<g id="a_Node000001"><a xlink:title=" ">
<polygon fill="#999999" stroke="#666666" points="284,-37 207,-37 207,-18 284,-18 284,-37"/>
<text text-anchor="middle" x="245.5" y="-25" font-family="Helvetica,sans-Serif" font-size="10.00">port_dword_in</text>
</a>
</g>
</g>
<!-- Node1&#45;&gt;Node1 -->
<g id="edge6_Node000001_Node000001" class="edge">
<title>Node1&#45;&gt;Node1</title>
<g id="a_edge6_Node000001_Node000001"><a xlink:title=" ">
<path fill="none" stroke="#63b8ff" d="M263.61,-48.1C261.52,-52.13 255.49,-55 245.5,-55 227.75,-55 222.48,-45.94 229.69,-37.37"/>
<polygon fill="#63b8ff" stroke="#63b8ff" points="266.83,-47.41 261.31,-38.37 259.98,-48.88 266.83,-47.41"/>
</a>
</g>
</g>
<!-- Node2 -->
<g id="Node000002" class="node">
<title>Node2</title>
<g id="a_Node000002"><a xlink:href="pci_8c.html#abb0a8e6fa16437a49fe35b85a84feec2" target="_top" xlink:title=" ">
<polygon fill="white" stroke="#666666" points="171,-56 118,-56 118,-37 171,-37 171,-56"/>
<text text-anchor="middle" x="144.5" y="-44" font-family="Helvetica,sans-Serif" font-size="10.00">pci_read</text>
</a>
</g>
</g>
<!-- Node1&#45;&gt;Node2 -->
<g id="edge1_Node000001_Node000002" class="edge">
<title>Node1&#45;&gt;Node2</title>
<g id="a_edge1_Node000001_Node000002"><a xlink:title=" ">
<path fill="none" stroke="#63b8ff" d="M195.85,-36.84C187.36,-38.47 178.84,-40.1 171.28,-41.55"/>
<polygon fill="#63b8ff" stroke="#63b8ff" points="196.35,-40.11 205.51,-34.79 195.03,-33.24 196.35,-40.11"/>
</a>
</g>
</g>
<!-- Node4 -->
<g id="Node000004" class="node">
<title>Node4</title>
<g id="a_Node000004"><a xlink:href="rtl8139_8c.html#a24e07ef25a2b1581bca67bbb213a0931" target="_top" xlink:title=" ">
<polygon fill="white" stroke="#666666" points="73,-19 9,-19 9,0 73,0 73,-19"/>
<text text-anchor="middle" x="41" y="-7" font-family="Helvetica,sans-Serif" font-size="10.00">rtl8139_init</text>
</a>
</g>
</g>
<!-- Node1&#45;&gt;Node4 -->
<g id="edge7_Node000001_Node000004" class="edge">
<title>Node1&#45;&gt;Node4</title>
<g id="a_edge7_Node000001_Node000004"><a xlink:title=" ">
<path fill="none" stroke="#63b8ff" d="M196.06,-23.19C158.04,-19.81 106.22,-15.21 73.43,-12.29"/>
<polygon fill="#63b8ff" stroke="#63b8ff" points="195.62,-26.76 205.89,-24.16 196.24,-19.78 195.62,-26.76"/>
</a>
</g>
</g>
<!-- Node2&#45;&gt;Node2 -->
<g id="edge4_Node000002_Node000002" class="edge">
<title>Node2&#45;&gt;Node2</title>
<g id="a_edge4_Node000002_Node000002"><a xlink:title=" ">
<path fill="none" stroke="#63b8ff" d="M162.61,-67.1C160.52,-71.13 154.49,-74 144.5,-74 126.75,-74 121.48,-64.94 128.69,-56.37"/>
<polygon fill="#63b8ff" stroke="#63b8ff" points="165.83,-66.41 160.31,-57.37 158.98,-67.88 165.83,-66.41"/>
</a>
</g>
</g>
<!-- Node3 -->
<g id="Node000003" class="node">
<title>Node3</title>
<g id="a_Node000003"><a xlink:href="pci_8c.html#ad8515b86d19288e403722e2c9a4dc5dd" target="_top" xlink:title=" ">
<polygon fill="white" stroke="#666666" points="82,-56 0,-56 0,-37 82,-37 82,-56"/>
<text text-anchor="middle" x="41" y="-44" font-family="Helvetica,sans-Serif" font-size="10.00">pci_get_device</text>
</a>
</g>
</g>
<!-- Node2&#45;&gt;Node3 -->
<g id="edge2_Node000002_Node000003" class="edge">
<title>Node2&#45;&gt;Node3</title>
<g id="a_edge2_Node000002_Node000003"><a xlink:title=" ">
<path fill="none" stroke="#63b8ff" d="M106.84,-46.5C98.91,-46.5 90.49,-46.5 82.43,-46.5"/>
<polygon fill="#63b8ff" stroke="#63b8ff" points="106.62,-50 116.62,-46.5 106.62,-43 106.62,-50"/>
</a>
</g>
</g>
<!-- Node2&#45;&gt;Node4 -->
<g id="edge5_Node000002_Node000004" class="edge">
<title>Node2&#45;&gt;Node4</title>
<g id="a_edge5_Node000002_Node000004"><a xlink:title=" ">
<path fill="none" stroke="#63b8ff" d="M107.45,-33.36C94.88,-28.78 80.99,-23.71 69.25,-19.43"/>
<polygon fill="#63b8ff" stroke="#63b8ff" points="106.03,-36.93 116.62,-37.07 108.43,-30.35 106.03,-36.93"/>
</a>
</g>
</g>
<!-- Node3&#45;&gt;Node3 -->
<g id="edge3_Node000003_Node000003" class="edge">
<title>Node3&#45;&gt;Node3</title>
<g id="a_edge3_Node000003_Node000003"><a xlink:title=" ">
<path fill="none" stroke="#63b8ff" d="M59.56,-67.1C57.42,-71.13 51.23,-74 41,-74 22.81,-74 17.41,-64.94 24.8,-56.37"/>
<polygon fill="#63b8ff" stroke="#63b8ff" points="62.77,-66.39 57.2,-57.37 55.93,-67.89 62.77,-66.39"/>
</a>
</g>
</g>
</g>
</svg>
