<?xml version="1.0" encoding="UTF-8" standalone="no"?>
<!DOCTYPE svg PUBLIC "-//W3C//DTD SVG 1.1//EN"
 "http://www.w3.org/Graphics/SVG/1.1/DTD/svg11.dtd">
<!-- Generated by graphviz version 8.0.2 (20230410.1723)
 -->
<!-- Title: port_dword_out Pages: 1 -->
<svg width="283pt" height="66pt"
 viewBox="0.00 0.00 283.00 66.00" xmlns="http://www.w3.org/2000/svg" xmlns:xlink="http://www.w3.org/1999/xlink">
<g id="graph0" class="graph" transform="scale(1 1) rotate(0) translate(4 62)">
<title>port_dword_out</title>
<!-- Node1 -->
<g id="node1" class="node">
<title>Node1</title>
<g id="a_node1"><a xlink:title=" ">
<polygon fill="#bfbfbf" stroke="black" points="192,-19.5 192,-38.5 275,-38.5 275,-19.5 192,-19.5"/>
<text text-anchor="middle" x="233.5" y="-26.5" font-family="Helvetica,sans-Serif" font-size="10.00">port_dword_out</text>
</a>
</g>
</g>
<!-- Node2 -->
<g id="node2" class="node">
<title>Node2</title>
<g id="a_node2"><a xlink:href="pci_8c.html#abb0a8e6fa16437a49fe35b85a84feec2" target="_top" xlink:title=" ">
<polygon fill="none" stroke="black" points="101.5,-38.5 101.5,-57.5 154.5,-57.5 154.5,-38.5 101.5,-38.5"/>
<text text-anchor="middle" x="128" y="-45.5" font-family="Helvetica,sans-Serif" font-size="10.00">pci_read</text>
</a>
</g>
</g>
<!-- Node1&#45;&gt;Node2 -->
<g id="edge1" class="edge">
<title>Node1&#45;&gt;Node2</title>
<path fill="none" stroke="midnightblue" d="M181.61,-38.34C172.16,-40.08 162.68,-41.82 154.42,-43.33"/>
<polygon fill="midnightblue" stroke="midnightblue" points="181.98,-41.65 191.19,-36.4 180.72,-34.76 181.98,-41.65"/>
</g>
<!-- Node4 -->
<g id="node4" class="node">
<title>Node4</title>
<g id="a_node4"><a xlink:href="pci_8c.html#a531322fe5567da0a2705f6131c079f65" target="_top" xlink:title=" ">
<polygon fill="none" stroke="black" points="100,-0.5 100,-19.5 156,-19.5 156,-0.5 100,-0.5"/>
<text text-anchor="middle" x="128" y="-7.5" font-family="Helvetica,sans-Serif" font-size="10.00">pci_write</text>
</a>
</g>
</g>
<!-- Node1&#45;&gt;Node4 -->
<g id="edge3" class="edge">
<title>Node1&#45;&gt;Node4</title>
<path fill="none" stroke="midnightblue" d="M181.5,-19.64C172.67,-18.02 163.81,-16.39 155.95,-14.95"/>
<polygon fill="midnightblue" stroke="midnightblue" points="180.72,-23.24 191.19,-21.6 181.98,-16.35 180.72,-23.24"/>
</g>
<!-- Node3 -->
<g id="node3" class="node">
<title>Node3</title>
<g id="a_node3"><a xlink:href="rtl8139_8c.html#a24e07ef25a2b1581bca67bbb213a0931" target="_top" xlink:title=" ">
<polygon fill="none" stroke="black" points="0,-38.5 0,-57.5 64,-57.5 64,-38.5 0,-38.5"/>
<text text-anchor="middle" x="32" y="-45.5" font-family="Helvetica,sans-Serif" font-size="10.00">rtl8139_init</text>
</a>
</g>
</g>
<!-- Node2&#45;&gt;Node3 -->
<g id="edge2" class="edge">
<title>Node2&#45;&gt;Node3</title>
<path fill="none" stroke="midnightblue" d="M90.94,-48C82.05,-48 72.6,-48 63.97,-48"/>
<polygon fill="midnightblue" stroke="midnightblue" points="90.81,-51.5 100.81,-48 90.81,-44.5 90.81,-51.5"/>
</g>
</g>
</svg>
