<?xml version="1.0" encoding="UTF-8" standalone="no"?>
<!DOCTYPE svg PUBLIC "-//W3C//DTD SVG 1.1//EN"
 "http://www.w3.org/Graphics/SVG/1.1/DTD/svg11.dtd">
<!-- Generated by graphviz version 2.49.3 (20211023.0002)
 -->
<!-- Title: port_byte_out Pages: 1 -->
<svg width="348pt" height="180pt"
 viewBox="0.00 0.00 348.00 180.00" xmlns="http://www.w3.org/2000/svg" xmlns:xlink="http://www.w3.org/1999/xlink">
<g id="graph0" class="graph" transform="scale(1 1) rotate(0) translate(4 176)">
<title>port_byte_out</title>
<!-- Node1 -->
<g id="node1" class="node">
<title>Node1</title>
<g id="a_node1"><a xlink:title=" ">
<polygon fill="#bfbfbf" stroke="black" points="262,-76.5 262,-95.5 340,-95.5 340,-76.5 262,-76.5"/>
<text text-anchor="middle" x="301" y="-83.5" font-family="Helvetica,sans-Serif" font-size="10.00">port_byte_out</text>
</a>
</g>
</g>
<!-- Node2 -->
<g id="node2" class="node">
<title>Node2</title>
<g id="a_node2"><a xlink:href="isr_8h.html#a2ea31f33125954459edbe7f4d7971ffa" target="_top" xlink:title=" ">
<polygon fill="none" stroke="black" points="141,-152.5 141,-171.5 186,-171.5 186,-152.5 141,-152.5"/>
<text text-anchor="middle" x="163.5" y="-159.5" font-family="Helvetica,sans-Serif" font-size="10.00">isr_init</text>
</a>
</g>
</g>
<!-- Node1&#45;&gt;Node2 -->
<g id="edge1" class="edge">
<title>Node1&#45;&gt;Node2</title>
<path fill="none" stroke="midnightblue" d="M282.24,-102.64C267.98,-115.23 246.94,-132.15 226,-143 213.4,-149.53 198.16,-154.26 186.01,-157.36"/>
<polygon fill="midnightblue" stroke="midnightblue" points="284.73,-105.1 289.8,-95.8 280.03,-99.91 284.73,-105.1"/>
</g>
<!-- Node3 -->
<g id="node3" class="node">
<title>Node3</title>
<g id="a_node3"><a xlink:href="isr_8h.html#a90e538b3202ebb875fa17720d5eb46ba" target="_top" xlink:title=" ">
<polygon fill="none" stroke="black" points="122,-114.5 122,-133.5 205,-133.5 205,-114.5 122,-114.5"/>
<text text-anchor="middle" x="163.5" y="-121.5" font-family="Helvetica,sans-Serif" font-size="10.00">isr_irq_handler</text>
</a>
</g>
</g>
<!-- Node1&#45;&gt;Node3 -->
<g id="edge2" class="edge">
<title>Node1&#45;&gt;Node3</title>
<path fill="none" stroke="midnightblue" d="M256.08,-98.32C237.46,-103.54 216.09,-109.53 198.68,-114.41"/>
<polygon fill="midnightblue" stroke="midnightblue" points="257.12,-101.66 265.81,-95.59 255.23,-94.92 257.12,-101.66"/>
</g>
<!-- Node4 -->
<g id="node4" class="node">
<title>Node4</title>
<g id="a_node4"><a xlink:href="serial_8h.html#a086a2712ee8de77b7621d922d2b96857" target="_top" xlink:title=" ">
<polygon fill="none" stroke="black" points="134,-76.5 134,-95.5 193,-95.5 193,-76.5 134,-76.5"/>
<text text-anchor="middle" x="163.5" y="-83.5" font-family="Helvetica,sans-Serif" font-size="10.00">serial_init</text>
</a>
</g>
</g>
<!-- Node1&#45;&gt;Node4 -->
<g id="edge3" class="edge">
<title>Node1&#45;&gt;Node4</title>
<path fill="none" stroke="midnightblue" d="M251.64,-86C232.11,-86 210.25,-86 193.3,-86"/>
<polygon fill="midnightblue" stroke="midnightblue" points="251.9,-89.5 261.9,-86 251.9,-82.5 251.9,-89.5"/>
</g>
<!-- Node5 -->
<g id="node5" class="node">
<title>Node5</title>
<g id="a_node5"><a xlink:href="serial_8h.html#a25ea2587d38072f4b5a53d59962ca418" target="_top" xlink:title=" ">
<polygon fill="none" stroke="black" points="130,-38.5 130,-57.5 197,-57.5 197,-38.5 130,-38.5"/>
<text text-anchor="middle" x="163.5" y="-45.5" font-family="Helvetica,sans-Serif" font-size="10.00">serial_write</text>
</a>
</g>
</g>
<!-- Node1&#45;&gt;Node5 -->
<g id="edge4" class="edge">
<title>Node1&#45;&gt;Node5</title>
<path fill="none" stroke="midnightblue" d="M256.11,-73.69C236.98,-68.33 214.95,-62.15 197.28,-57.19"/>
<polygon fill="midnightblue" stroke="midnightblue" points="255.23,-77.08 265.81,-76.41 257.12,-70.34 255.23,-77.08"/>
</g>
<!-- Node7 -->
<g id="node7" class="node">
<title>Node7</title>
<g id="a_node7"><a xlink:href="vga__text_8h.html#ad1fc59685312d0c91988280ab70f1c01" target="_top" xlink:title=" ">
<polygon fill="none" stroke="black" points="101,-0.5 101,-19.5 226,-19.5 226,-0.5 101,-0.5"/>
<text text-anchor="middle" x="163.5" y="-7.5" font-family="Helvetica,sans-Serif" font-size="10.00">vga_text_disable_cursor</text>
</a>
</g>
</g>
<!-- Node1&#45;&gt;Node7 -->
<g id="edge6" class="edge">
<title>Node1&#45;&gt;Node7</title>
<path fill="none" stroke="midnightblue" d="M282.24,-69.36C267.98,-56.77 246.94,-39.85 226,-29 218.86,-25.3 210.87,-22.18 203.07,-19.6"/>
<polygon fill="midnightblue" stroke="midnightblue" points="280.03,-72.09 289.8,-76.2 284.73,-66.9 280.03,-72.09"/>
</g>
<!-- Node6 -->
<g id="node6" class="node">
<title>Node6</title>
<g id="a_node6"><a xlink:href="serial_8h.html#a1e9e38c6dbae13f53e8ed436fef0cd5b" target="_top" xlink:title=" ">
<polygon fill="none" stroke="black" points="0,-38.5 0,-57.5 65,-57.5 65,-38.5 0,-38.5"/>
<text text-anchor="middle" x="32.5" y="-45.5" font-family="Helvetica,sans-Serif" font-size="10.00">serial_print</text>
</a>
</g>
</g>
<!-- Node5&#45;&gt;Node6 -->
<g id="edge5" class="edge">
<title>Node5&#45;&gt;Node6</title>
<path fill="none" stroke="midnightblue" d="M119.79,-48C101.96,-48 81.61,-48 65.15,-48"/>
<polygon fill="midnightblue" stroke="midnightblue" points="119.95,-51.5 129.95,-48 119.95,-44.5 119.95,-51.5"/>
</g>
</g>
</svg>
