<?xml version="1.0" encoding="UTF-8" standalone="no"?>
<!DOCTYPE svg PUBLIC "-//W3C//DTD SVG 1.1//EN"
 "http://www.w3.org/Graphics/SVG/1.1/DTD/svg11.dtd">
<!-- Generated by graphviz version 2.50.0 (20211204.2007)
 -->
<!-- Title: include/kernel/fs/proc.h Pages: 1 -->
<svg width="218pt" height="196pt"
 viewBox="0.00 0.00 218.00 196.00" xmlns="http://www.w3.org/2000/svg" xmlns:xlink="http://www.w3.org/1999/xlink">
<g id="graph0" class="graph" transform="scale(1 1) rotate(0) translate(4 192)">
<title>include/kernel/fs/proc.h</title>
<!-- Node1 -->
<g id="node1" class="node">
<title>Node1</title>
<g id="a_node1"><a xlink:title=" ">
<polygon fill="#bfbfbf" stroke="black" points="31,-168.5 31,-187.5 149,-187.5 149,-168.5 31,-168.5"/>
<text text-anchor="middle" x="90" y="-175.5" font-family="Helvetica,sans-Serif" font-size="10.00">include/kernel/fs/proc.h</text>
</a>
</g>
</g>
<!-- Node2 -->
<g id="node2" class="node">
<title>Node2</title>
<g id="a_node2"><a xlink:href="vfs_8h.html" target="_top" xlink:title=" ">
<polygon fill="none" stroke="black" points="65,-112.5 65,-131.5 115,-131.5 115,-112.5 65,-112.5"/>
<text text-anchor="middle" x="90" y="-119.5" font-family="Helvetica,sans-Serif" font-size="10.00">fs/vfs.h</text>
</a>
</g>
</g>
<!-- Node1&#45;&gt;Node2 -->
<g id="edge1" class="edge">
<title>Node1&#45;&gt;Node2</title>
<path fill="none" stroke="midnightblue" d="M90,-168.08C90,-161.01 90,-150.86 90,-141.99"/>
<polygon fill="midnightblue" stroke="midnightblue" points="93.5,-141.75 90,-131.75 86.5,-141.75 93.5,-141.75"/>
</g>
<!-- Node3 -->
<g id="node3" class="node">
<title>Node3</title>
<g id="a_node3"><a xlink:title=" ">
<polygon fill="none" stroke="#bfbfbf" points="0,-0.5 0,-19.5 56,-19.5 56,-0.5 0,-0.5"/>
<text text-anchor="middle" x="28" y="-7.5" font-family="Helvetica,sans-Serif" font-size="10.00">stdbool.h</text>
</a>
</g>
</g>
<!-- Node1&#45;&gt;Node3 -->
<g id="edge8" class="edge">
<title>Node1&#45;&gt;Node3</title>
<path fill="none" stroke="midnightblue" d="M82.15,-168.22C74.66,-159.52 63.46,-145.56 56,-132 43.19,-108.71 41.14,-101.86 35,-76 31.35,-60.63 29.6,-42.75 28.76,-29.64"/>
<polygon fill="midnightblue" stroke="midnightblue" points="32.25,-29.33 28.24,-19.53 25.26,-29.7 32.25,-29.33"/>
</g>
<!-- Node6 -->
<g id="node6" class="node">
<title>Node6</title>
<g id="a_node6"><a xlink:title=" ">
<polygon fill="none" stroke="#bfbfbf" points="158,-0.5 158,-19.5 210,-19.5 210,-0.5 158,-0.5"/>
<text text-anchor="middle" x="184" y="-7.5" font-family="Helvetica,sans-Serif" font-size="10.00">stddef.h</text>
</a>
</g>
</g>
<!-- Node1&#45;&gt;Node6 -->
<g id="edge9" class="edge">
<title>Node1&#45;&gt;Node6</title>
<path fill="none" stroke="midnightblue" d="M97.28,-168.38C104.54,-159.57 115.76,-145.33 124,-132 145.7,-96.91 165.91,-52.89 176.43,-28.8"/>
<polygon fill="midnightblue" stroke="midnightblue" points="179.7,-30.07 180.44,-19.5 173.27,-27.3 179.7,-30.07"/>
</g>
<!-- Node2&#45;&gt;Node3 -->
<g id="edge2" class="edge">
<title>Node2&#45;&gt;Node3</title>
<path fill="none" stroke="midnightblue" d="M79.3,-112.45C69.55,-104.12 55.43,-90.6 47,-76 38.64,-61.52 33.71,-43.07 30.97,-29.53"/>
<polygon fill="midnightblue" stroke="midnightblue" points="34.38,-28.73 29.16,-19.51 27.49,-29.97 34.38,-28.73"/>
</g>
<!-- Node4 -->
<g id="node4" class="node">
<title>Node4</title>
<g id="a_node4"><a xlink:title=" ">
<polygon fill="none" stroke="#bfbfbf" points="85.5,-0.5 85.5,-19.5 134.5,-19.5 134.5,-0.5 85.5,-0.5"/>
<text text-anchor="middle" x="110" y="-7.5" font-family="Helvetica,sans-Serif" font-size="10.00">stdint.h</text>
</a>
</g>
</g>
<!-- Node2&#45;&gt;Node4 -->
<g id="edge3" class="edge">
<title>Node2&#45;&gt;Node4</title>
<path fill="none" stroke="midnightblue" d="M102.5,-112.3C112.87,-104.25 126.89,-91.24 133,-76 139.38,-60.09 131.42,-41.63 123.17,-28.46"/>
<polygon fill="midnightblue" stroke="midnightblue" points="125.85,-26.19 117.31,-19.92 120.08,-30.14 125.85,-26.19"/>
</g>
<!-- Node5 -->
<g id="node5" class="node">
<title>Node5</title>
<g id="a_node5"><a xlink:href="types_8h.html" target="_top" xlink:title=" ">
<polygon fill="none" stroke="black" points="56,-56.5 56,-75.5 124,-75.5 124,-56.5 56,-56.5"/>
<text text-anchor="middle" x="90" y="-63.5" font-family="Helvetica,sans-Serif" font-size="10.00">sys/types.h</text>
</a>
</g>
</g>
<!-- Node2&#45;&gt;Node5 -->
<g id="edge4" class="edge">
<title>Node2&#45;&gt;Node5</title>
<path fill="none" stroke="midnightblue" d="M90,-112.08C90,-105.01 90,-94.86 90,-85.99"/>
<polygon fill="midnightblue" stroke="midnightblue" points="93.5,-85.75 90,-75.75 86.5,-85.75 93.5,-85.75"/>
</g>
<!-- Node5&#45;&gt;Node3 -->
<g id="edge5" class="edge">
<title>Node5&#45;&gt;Node3</title>
<path fill="none" stroke="midnightblue" d="M80.04,-56.32C70.87,-48.34 57.06,-36.31 45.97,-26.65"/>
<polygon fill="midnightblue" stroke="midnightblue" points="47.98,-23.76 38.14,-19.83 43.38,-29.04 47.98,-23.76"/>
</g>
<!-- Node5&#45;&gt;Node4 -->
<g id="edge7" class="edge">
<title>Node5&#45;&gt;Node4</title>
<path fill="none" stroke="midnightblue" d="M93.3,-56.08C95.98,-48.85 99.85,-38.41 103.19,-29.4"/>
<polygon fill="midnightblue" stroke="midnightblue" points="106.57,-30.34 106.76,-19.75 100,-27.91 106.57,-30.34"/>
</g>
<!-- Node5&#45;&gt;Node6 -->
<g id="edge6" class="edge">
<title>Node5&#45;&gt;Node6</title>
<path fill="none" stroke="midnightblue" d="M105.1,-56.32C119.9,-47.82 142.69,-34.73 159.98,-24.8"/>
<polygon fill="midnightblue" stroke="midnightblue" points="162.01,-27.67 168.93,-19.65 158.52,-21.6 162.01,-27.67"/>
</g>
</g>
</svg>
