<?xml version="1.0" encoding="UTF-8" standalone="no"?>
<!DOCTYPE svg PUBLIC "-//W3C//DTD SVG 1.1//EN"
 "http://www.w3.org/Graphics/SVG/1.1/DTD/svg11.dtd">
<!-- Generated by graphviz version 2.49.3 (20211023.0002)
 -->
<!-- Title: include/kernel/fs/proc.h Pages: 1 -->
<svg width="219pt" height="196pt"
 viewBox="0.00 0.00 218.50 196.00" xmlns="http://www.w3.org/2000/svg" xmlns:xlink="http://www.w3.org/1999/xlink">
<g id="graph0" class="graph" transform="scale(1 1) rotate(0) translate(4 192)">
<title>include/kernel/fs/proc.h</title>
<!-- Node1 -->
<g id="node1" class="node">
<title>Node1</title>
<g id="a_node1"><a xlink:title=" ">
<polygon fill="#bfbfbf" stroke="black" points="31,-168.5 31,-187.5 150,-187.5 150,-168.5 31,-168.5"/>
<text text-anchor="middle" x="90.5" y="-175.5" font-family="Helvetica,sans-Serif" font-size="10.00">include/kernel/fs/proc.h</text>
</a>
</g>
</g>
<!-- Node2 -->
<g id="node2" class="node">
<title>Node2</title>
<g id="a_node2"><a xlink:href="vfs_8h.html" target="_top" xlink:title=" ">
<polygon fill="none" stroke="black" points="66.5,-112.5 66.5,-131.5 114.5,-131.5 114.5,-112.5 66.5,-112.5"/>
<text text-anchor="middle" x="90.5" y="-119.5" font-family="Helvetica,sans-Serif" font-size="10.00">fs/vfs.h</text>
</a>
</g>
</g>
<!-- Node1&#45;&gt;Node2 -->
<g id="edge1" class="edge">
<title>Node1&#45;&gt;Node2</title>
<path fill="none" stroke="midnightblue" d="M90.5,-168.08C90.5,-161.01 90.5,-150.86 90.5,-141.99"/>
<polygon fill="midnightblue" stroke="midnightblue" points="94,-141.75 90.5,-131.75 87,-141.75 94,-141.75"/>
</g>
<!-- Node3 -->
<g id="node3" class="node">
<title>Node3</title>
<g id="a_node3"><a xlink:title=" ">
<polygon fill="none" stroke="#bfbfbf" points="0,-0.5 0,-19.5 57,-19.5 57,-0.5 0,-0.5"/>
<text text-anchor="middle" x="28.5" y="-7.5" font-family="Helvetica,sans-Serif" font-size="10.00">stdbool.h</text>
</a>
</g>
</g>
<!-- Node1&#45;&gt;Node3 -->
<g id="edge8" class="edge">
<title>Node1&#45;&gt;Node3</title>
<path fill="none" stroke="midnightblue" d="M83.21,-168.49C76,-159.76 64.98,-145.58 57.5,-132 44.6,-108.58 41.88,-101.97 35.5,-76 31.73,-60.65 29.99,-42.78 29.19,-29.66"/>
<polygon fill="midnightblue" stroke="midnightblue" points="32.68,-29.36 28.7,-19.54 25.69,-29.7 32.68,-29.36"/>
</g>
<!-- Node6 -->
<g id="node6" class="node">
<title>Node6</title>
<g id="a_node6"><a xlink:title=" ">
<polygon fill="none" stroke="#bfbfbf" points="158.5,-0.5 158.5,-19.5 210.5,-19.5 210.5,-0.5 158.5,-0.5"/>
<text text-anchor="middle" x="184.5" y="-7.5" font-family="Helvetica,sans-Serif" font-size="10.00">stddef.h</text>
</a>
</g>
</g>
<!-- Node1&#45;&gt;Node6 -->
<g id="edge9" class="edge">
<title>Node1&#45;&gt;Node6</title>
<path fill="none" stroke="midnightblue" d="M97.52,-168.34C104.53,-159.49 115.4,-145.22 123.5,-132 145.02,-96.88 165.64,-53.2 176.52,-29.1"/>
<polygon fill="midnightblue" stroke="midnightblue" points="179.8,-30.33 180.68,-19.77 173.41,-27.48 179.8,-30.33"/>
</g>
<!-- Node2&#45;&gt;Node3 -->
<g id="edge2" class="edge">
<title>Node2&#45;&gt;Node3</title>
<path fill="none" stroke="midnightblue" d="M79.8,-112.45C70.05,-104.12 55.93,-90.6 47.5,-76 39.14,-61.52 34.21,-43.07 31.47,-29.53"/>
<polygon fill="midnightblue" stroke="midnightblue" points="34.88,-28.73 29.66,-19.51 27.99,-29.97 34.88,-28.73"/>
</g>
<!-- Node4 -->
<g id="node4" class="node">
<title>Node4</title>
<g id="a_node4"><a xlink:title=" ">
<polygon fill="none" stroke="#bfbfbf" points="86,-0.5 86,-19.5 135,-19.5 135,-0.5 86,-0.5"/>
<text text-anchor="middle" x="110.5" y="-7.5" font-family="Helvetica,sans-Serif" font-size="10.00">stdint.h</text>
</a>
</g>
</g>
<!-- Node2&#45;&gt;Node4 -->
<g id="edge3" class="edge">
<title>Node2&#45;&gt;Node4</title>
<path fill="none" stroke="midnightblue" d="M102.71,-112.24C112.85,-104.14 126.54,-91.11 132.5,-76 138.83,-59.95 130.95,-41.25 122.92,-28.04"/>
<polygon fill="midnightblue" stroke="midnightblue" points="125.7,-25.9 117.24,-19.51 119.87,-29.77 125.7,-25.9"/>
</g>
<!-- Node5 -->
<g id="node5" class="node">
<title>Node5</title>
<g id="a_node5"><a xlink:href="types_8h.html" target="_top" xlink:title=" ">
<polygon fill="none" stroke="black" points="57,-56.5 57,-75.5 124,-75.5 124,-56.5 57,-56.5"/>
<text text-anchor="middle" x="90.5" y="-63.5" font-family="Helvetica,sans-Serif" font-size="10.00">sys/types.h</text>
</a>
</g>
</g>
<!-- Node2&#45;&gt;Node5 -->
<g id="edge4" class="edge">
<title>Node2&#45;&gt;Node5</title>
<path fill="none" stroke="midnightblue" d="M90.5,-112.08C90.5,-105.01 90.5,-94.86 90.5,-85.99"/>
<polygon fill="midnightblue" stroke="midnightblue" points="94,-85.75 90.5,-75.75 87,-85.75 94,-85.75"/>
</g>
<!-- Node5&#45;&gt;Node3 -->
<g id="edge5" class="edge">
<title>Node5&#45;&gt;Node3</title>
<path fill="none" stroke="midnightblue" d="M80.54,-56.32C71.37,-48.34 57.56,-36.31 46.47,-26.65"/>
<polygon fill="midnightblue" stroke="midnightblue" points="48.48,-23.76 38.64,-19.83 43.88,-29.04 48.48,-23.76"/>
</g>
<!-- Node5&#45;&gt;Node4 -->
<g id="edge7" class="edge">
<title>Node5&#45;&gt;Node4</title>
<path fill="none" stroke="midnightblue" d="M93.8,-56.08C96.48,-48.85 100.35,-38.41 103.69,-29.4"/>
<polygon fill="midnightblue" stroke="midnightblue" points="107.07,-30.34 107.26,-19.75 100.5,-27.91 107.07,-30.34"/>
</g>
<!-- Node5&#45;&gt;Node6 -->
<g id="edge6" class="edge">
<title>Node5&#45;&gt;Node6</title>
<path fill="none" stroke="midnightblue" d="M105.6,-56.32C120.4,-47.82 143.19,-34.73 160.48,-24.8"/>
<polygon fill="midnightblue" stroke="midnightblue" points="162.51,-27.67 169.43,-19.65 159.02,-21.6 162.51,-27.67"/>
</g>
</g>
</svg>
