<?xml version="1.0" encoding="UTF-8" standalone="no"?>
<!DOCTYPE svg PUBLIC "-//W3C//DTD SVG 1.1//EN"
 "http://www.w3.org/Graphics/SVG/1.1/DTD/svg11.dtd">
<!-- Generated by graphviz version 2.49.3 (20211023.0002)
 -->
<!-- Title: include/kernel/fs/proc.h Pages: 1 -->
<svg width="183pt" height="140pt"
 viewBox="0.00 0.00 182.50 140.00" xmlns="http://www.w3.org/2000/svg" xmlns:xlink="http://www.w3.org/1999/xlink">
<g id="graph0" class="graph" transform="scale(1 1) rotate(0) translate(4 136)">
<title>include/kernel/fs/proc.h</title>
<!-- Node1 -->
<g id="node1" class="node">
<title>Node1</title>
<g id="a_node1"><a xlink:title=" ">
<polygon fill="#bfbfbf" stroke="black" points="21,-112.5 21,-131.5 140,-131.5 140,-112.5 21,-112.5"/>
<text text-anchor="middle" x="80.5" y="-119.5" font-family="Helvetica,sans-Serif" font-size="10.00">include/kernel/fs/proc.h</text>
</a>
</g>
</g>
<!-- Node2 -->
<g id="node2" class="node">
<title>Node2</title>
<g id="a_node2"><a xlink:href="vfs_8h.html" target="_top" xlink:title=" ">
<polygon fill="none" stroke="black" points="56.5,-56.5 56.5,-75.5 104.5,-75.5 104.5,-56.5 56.5,-56.5"/>
<text text-anchor="middle" x="80.5" y="-63.5" font-family="Helvetica,sans-Serif" font-size="10.00">fs/vfs.h</text>
</a>
</g>
</g>
<!-- Node1&#45;&gt;Node2 -->
<g id="edge1" class="edge">
<title>Node1&#45;&gt;Node2</title>
<path fill="none" stroke="midnightblue" d="M80.5,-112.08C80.5,-105.01 80.5,-94.86 80.5,-85.99"/>
<polygon fill="midnightblue" stroke="midnightblue" points="84,-85.75 80.5,-75.75 77,-85.75 84,-85.75"/>
</g>
<!-- Node3 -->
<g id="node3" class="node">
<title>Node3</title>
<g id="a_node3"><a xlink:title=" ">
<polygon fill="none" stroke="#bfbfbf" points="0,-0.5 0,-19.5 57,-19.5 57,-0.5 0,-0.5"/>
<text text-anchor="middle" x="28.5" y="-7.5" font-family="Helvetica,sans-Serif" font-size="10.00">stdbool.h</text>
</a>
</g>
</g>
<!-- Node1&#45;&gt;Node3 -->
<g id="edge4" class="edge">
<title>Node1&#45;&gt;Node3</title>
<path fill="none" stroke="midnightblue" d="M72.67,-112.3C65.26,-103.65 54.28,-89.73 47.5,-76 40.18,-61.17 35.17,-43.02 32.14,-29.67"/>
<polygon fill="midnightblue" stroke="midnightblue" points="35.54,-28.83 30.05,-19.77 28.69,-30.27 35.54,-28.83"/>
</g>
<!-- Node5 -->
<g id="node5" class="node">
<title>Node5</title>
<g id="a_node5"><a xlink:title=" ">
<polygon fill="none" stroke="#bfbfbf" points="122.5,-56.5 122.5,-75.5 174.5,-75.5 174.5,-56.5 122.5,-56.5"/>
<text text-anchor="middle" x="148.5" y="-63.5" font-family="Helvetica,sans-Serif" font-size="10.00">stddef.h</text>
</a>
</g>
</g>
<!-- Node1&#45;&gt;Node5 -->
<g id="edge5" class="edge">
<title>Node1&#45;&gt;Node5</title>
<path fill="none" stroke="midnightblue" d="M91.43,-112.32C101.67,-104.18 117.22,-91.84 129.5,-82.09"/>
<polygon fill="midnightblue" stroke="midnightblue" points="131.72,-84.79 137.38,-75.83 127.37,-79.31 131.72,-84.79"/>
</g>
<!-- Node2&#45;&gt;Node3 -->
<g id="edge2" class="edge">
<title>Node2&#45;&gt;Node3</title>
<path fill="none" stroke="midnightblue" d="M71.91,-56.08C64.34,-48.22 53.12,-36.57 43.99,-27.08"/>
<polygon fill="midnightblue" stroke="midnightblue" points="46.38,-24.53 36.93,-19.75 41.34,-29.38 46.38,-24.53"/>
</g>
<!-- Node4 -->
<g id="node4" class="node">
<title>Node4</title>
<g id="a_node4"><a xlink:title=" ">
<polygon fill="none" stroke="#bfbfbf" points="75,-0.5 75,-19.5 124,-19.5 124,-0.5 75,-0.5"/>
<text text-anchor="middle" x="99.5" y="-7.5" font-family="Helvetica,sans-Serif" font-size="10.00">stdint.h</text>
</a>
</g>
</g>
<!-- Node2&#45;&gt;Node4 -->
<g id="edge3" class="edge">
<title>Node2&#45;&gt;Node4</title>
<path fill="none" stroke="midnightblue" d="M83.64,-56.08C86.18,-48.85 89.86,-38.41 93.03,-29.4"/>
<polygon fill="midnightblue" stroke="midnightblue" points="96.4,-30.35 96.42,-19.75 89.8,-28.02 96.4,-30.35"/>
</g>
</g>
</svg>
