<?xml version="1.0" encoding="UTF-8" standalone="no"?>
<!DOCTYPE svg PUBLIC "-//W3C//DTD SVG 1.1//EN"
 "http://www.w3.org/Graphics/SVG/1.1/DTD/svg11.dtd">
<!-- Generated by graphviz version 9.0.0 (20230911.1827)
 -->
<!-- Title: src/kernel/arch/x86_64/drivers/rtl8139.h Pages: 1 -->
<svg width="167pt" height="149pt"
 viewBox="0.00 0.00 167.25 149.00" xmlns="http://www.w3.org/2000/svg" xmlns:xlink="http://www.w3.org/1999/xlink">
<g id="graph0" class="graph" transform="scale(1 1) rotate(0) translate(4 145)">
<title>src/kernel/arch/x86_64/drivers/rtl8139.h</title>
<!-- Node1 -->
<g id="Node000001" class="node">
<title>Node1</title>
<g id="a_Node000001"><a xlink:title=" ">
<polygon fill="#999999" stroke="#666666" points="156.62,-141 52.12,-141 52.12,-110.5 156.62,-110.5 156.62,-141"/>
<text text-anchor="start" x="60.12" y="-127.5" font-family="Helvetica,sans-Serif" font-size="10.00">src/kernel/arch/x86</text>
<text text-anchor="middle" x="104.38" y="-116.25" font-family="Helvetica,sans-Serif" font-size="10.00">_64/drivers/rtl8139.h</text>
</a>
</g>
</g>
<!-- Node2 -->
<g id="Node000002" class="node">
<title>Node2</title>
<g id="a_Node000002"><a xlink:href="pci_8h.html" target="_top" xlink:title=" ">
<polygon fill="white" stroke="#666666" points="58.75,-74.5 0,-74.5 0,-55.25 58.75,-55.25 58.75,-74.5"/>
<text text-anchor="middle" x="29.38" y="-61" font-family="Helvetica,sans-Serif" font-size="10.00">core/pci.h</text>
</a>
</g>
</g>
<!-- Node1&#45;&gt;Node2 -->
<g id="edge1_Node000001_Node000002" class="edge">
<title>Node1&#45;&gt;Node2</title>
<g id="a_edge1_Node000001_Node000002"><a xlink:title=" ">
<path fill="none" stroke="#63b8ff" d="M85.84,-110.2C74.86,-101.58 60.93,-90.65 49.66,-81.8"/>
<polygon fill="#63b8ff" stroke="#63b8ff" points="52.15,-79.31 42.13,-75.89 47.83,-84.81 52.15,-79.31"/>
</a>
</g>
</g>
<!-- Node4 -->
<g id="Node000004" class="node">
<title>Node4</title>
<g id="a_Node000004"><a xlink:href="net_8h.html" target="_top" xlink:title="This module defines network interfaces and drivers.">
<polygon fill="white" stroke="#666666" points="131.5,-74.5 77.25,-74.5 77.25,-55.25 131.5,-55.25 131.5,-74.5"/>
<text text-anchor="middle" x="104.38" y="-61" font-family="Helvetica,sans-Serif" font-size="10.00">net/net.h</text>
</a>
</g>
</g>
<!-- Node1&#45;&gt;Node4 -->
<g id="edge3_Node000001_Node000004" class="edge">
<title>Node1&#45;&gt;Node4</title>
<g id="a_edge3_Node000001_Node000004"><a xlink:title=" ">
<path fill="none" stroke="#63b8ff" d="M104.38,-110.2C104.38,-102.96 104.38,-94.09 104.38,-86.19"/>
<polygon fill="#63b8ff" stroke="#63b8ff" points="107.88,-86.46 104.38,-76.46 100.88,-86.46 107.88,-86.46"/>
</a>
</g>
</g>
<!-- Node5 -->
<g id="Node000005" class="node">
<title>Node5</title>
<g id="a_Node000005"><a xlink:title=" ">
<polygon fill="#e0e0e0" stroke="#999999" points="159.25,-19.25 103.5,-19.25 103.5,0 159.25,0 159.25,-19.25"/>
<text text-anchor="middle" x="131.38" y="-5.75" font-family="Helvetica,sans-Serif" font-size="10.00">stdbool.h</text>
</a>
</g>
</g>
<!-- Node1&#45;&gt;Node5 -->
<g id="edge6_Node000001_Node000005" class="edge">
<title>Node1&#45;&gt;Node5</title>
<g id="a_edge6_Node000001_Node000005"><a xlink:title=" ">
<path fill="none" stroke="#63b8ff" d="M118.48,-110.3C126.61,-100.93 136.04,-87.99 140.38,-74.5 145,-60.12 142.25,-43.16 138.61,-30.33"/>
<polygon fill="#63b8ff" stroke="#63b8ff" points="141.98,-29.37 135.54,-20.95 135.33,-31.55 141.98,-29.37"/>
</a>
</g>
</g>
<!-- Node3 -->
<g id="Node000003" class="node">
<title>Node3</title>
<g id="a_Node000003"><a xlink:title=" ">
<polygon fill="#e0e0e0" stroke="#999999" points="83.5,-19.25 35.25,-19.25 35.25,0 83.5,0 83.5,-19.25"/>
<text text-anchor="middle" x="59.38" y="-5.75" font-family="Helvetica,sans-Serif" font-size="10.00">stdint.h</text>
</a>
</g>
</g>
<!-- Node2&#45;&gt;Node3 -->
<g id="edge2_Node000002_Node000003" class="edge">
<title>Node2&#45;&gt;Node3</title>
<g id="a_edge2_Node000002_Node000003"><a xlink:title=" ">
<path fill="none" stroke="#63b8ff" d="M34.33,-55.08C38.26,-48.11 43.89,-38.12 48.81,-29.37"/>
<polygon fill="#63b8ff" stroke="#63b8ff" points="51.71,-31.36 53.57,-20.93 45.61,-27.92 51.71,-31.36"/>
</a>
</g>
</g>
<!-- Node4&#45;&gt;Node3 -->
<g id="edge5_Node000004_Node000003" class="edge">
<title>Node4&#45;&gt;Node3</title>
<g id="a_edge5_Node000004_Node000003"><a xlink:title=" ">
<path fill="none" stroke="#63b8ff" d="M96.94,-55.08C90.79,-47.8 81.86,-37.23 74.25,-28.23"/>
<polygon fill="#63b8ff" stroke="#63b8ff" points="77.07,-26.14 67.94,-20.77 71.73,-30.66 77.07,-26.14"/>
</a>
</g>
</g>
<!-- Node4&#45;&gt;Node5 -->
<g id="edge4_Node000004_Node000005" class="edge">
<title>Node4&#45;&gt;Node5</title>
<g id="a_edge4_Node000004_Node000005"><a xlink:title=" ">
<path fill="none" stroke="#63b8ff" d="M108.83,-55.08C112.33,-48.19 117.32,-38.34 121.72,-29.66"/>
<polygon fill="#63b8ff" stroke="#63b8ff" points="124.73,-31.46 126.14,-20.96 118.49,-28.3 124.73,-31.46"/>
</a>
</g>
</g>
</g>
</svg>
