<?xml version="1.0" encoding="UTF-8" standalone="no"?>
<!DOCTYPE svg PUBLIC "-//W3C//DTD SVG 1.1//EN"
 "http://www.w3.org/Graphics/SVG/1.1/DTD/svg11.dtd">
<!-- Generated by graphviz version 8.0.2 (20230410.1723)
 -->
<!-- Title: rtl8139_init Pages: 1 -->
<svg width="328pt" height="419pt"
 viewBox="0.00 0.00 328.00 419.00" xmlns="http://www.w3.org/2000/svg" xmlns:xlink="http://www.w3.org/1999/xlink">
<g id="graph0" class="graph" transform="scale(1 1) rotate(0) translate(4 415)">
<title>rtl8139_init</title>
<!-- Node1 -->
<g id="Node000001" class="node">
<title>Node1</title>
<g id="a_Node000001"><a xlink:title=" ">
<polygon fill="#999999" stroke="#666666" points="64,-206 0,-206 0,-187 64,-187 64,-206"/>
<text text-anchor="middle" x="32" y="-194" font-family="Helvetica,sans-Serif" font-size="10.00">rtl8139_init</text>
</a>
</g>
</g>
<!-- Node2 -->
<g id="Node000002" class="node">
<title>Node2</title>
<g id="a_Node000002"><a xlink:href="isr_8c.html#a919e035afe984042c7fb8672b16aaf1e" target="_top" xlink:title=" ">
<polygon fill="white" stroke="#666666" points="201,-393 100,-393 100,-374 201,-374 201,-393"/>
<text text-anchor="middle" x="150.5" y="-381" font-family="Helvetica,sans-Serif" font-size="10.00">isr_register_handler</text>
</a>
</g>
</g>
<!-- Node1&#45;&gt;Node2 -->
<g id="edge1_Node000001_Node000002" class="edge">
<title>Node1&#45;&gt;Node2</title>
<g id="a_edge1_Node000001_Node000002"><a xlink:title=" ">
<path fill="none" stroke="#63b8ff" d="M34.52,-206.25C39.26,-233.75 56.19,-312.92 100,-359.5 103.13,-362.83 106.81,-365.75 110.74,-368.3"/>
<polygon fill="#63b8ff" stroke="#63b8ff" points="108.76,-371.76 119.19,-373.6 112.18,-365.65 108.76,-371.76"/>
</a>
</g>
</g>
<!-- Node3 -->
<g id="Node000003" class="node">
<title>Node3</title>
<g id="a_Node000003"><a xlink:href="pci_8c.html#abb0a8e6fa16437a49fe35b85a84feec2" target="_top" xlink:title=" ">
<polygon fill="white" stroke="#666666" points="177,-261 124,-261 124,-242 177,-242 177,-261"/>
<text text-anchor="middle" x="150.5" y="-249" font-family="Helvetica,sans-Serif" font-size="10.00">pci_read</text>
</a>
</g>
</g>
<!-- Node1&#45;&gt;Node3 -->
<g id="edge3_Node000001_Node000003" class="edge">
<title>Node1&#45;&gt;Node3</title>
<g id="a_edge3_Node000001_Node000003"><a xlink:title=" ">
<path fill="none" stroke="#63b8ff" d="M49.15,-206.35C62.5,-214.27 82.1,-225.36 100,-233.5 104.33,-235.47 108.95,-237.38 113.55,-239.18"/>
<polygon fill="#63b8ff" stroke="#63b8ff" points="111.91,-242.68 122.5,-242.91 114.37,-236.12 111.91,-242.68"/>
</a>
</g>
</g>
<!-- Node4 -->
<g id="Node000004" class="node">
<title>Node4</title>
<g id="a_Node000004"><a xlink:href="port_8c.html#af8b1144eda5e36642ff26d504bf2b3b8" target="_top" xlink:title=" ">
<polygon fill="white" stroke="#666666" points="313.5,-345 243.5,-345 243.5,-326 313.5,-326 313.5,-345"/>
<text text-anchor="middle" x="278.5" y="-333" font-family="Helvetica,sans-Serif" font-size="10.00">port_byte_in</text>
</a>
</g>
</g>
<!-- Node1&#45;&gt;Node4 -->
<g id="edge16_Node000001_Node000004" class="edge">
<title>Node1&#45;&gt;Node4</title>
<g id="a_edge16_Node000001_Node000004"><a xlink:title=" ">
<path fill="none" stroke="#63b8ff" d="M35.71,-206.27C42.45,-228.55 62.19,-283.11 100,-308.5 139.1,-334.75 193.87,-339.42 232.2,-338.84"/>
<polygon fill="#63b8ff" stroke="#63b8ff" points="232.14,-342.32 242.04,-338.53 231.94,-335.32 232.14,-342.32"/>
</a>
</g>
</g>
<!-- Node5 -->
<g id="Node000005" class="node">
<title>Node5</title>
<g id="a_Node000005"><a xlink:href="port_8c.html#aef30b57e8c51c84ba95dc7bb9a3b1750" target="_top" xlink:title=" ">
<polygon fill="white" stroke="#666666" points="317,-280 240,-280 240,-261 317,-261 317,-280"/>
<text text-anchor="middle" x="278.5" y="-268" font-family="Helvetica,sans-Serif" font-size="10.00">port_dword_in</text>
</a>
</g>
</g>
<!-- Node1&#45;&gt;Node5 -->
<g id="edge19_Node000001_Node000005" class="edge">
<title>Node1&#45;&gt;Node5</title>
<g id="a_edge19_Node000001_Node000005"><a xlink:title=" ">
<path fill="none" stroke="#63b8ff" d="M36.63,-206.4C44.55,-226.34 65.48,-270.94 100,-288.5 145.85,-311.83 206.93,-297.31 244.17,-284.23"/>
<polygon fill="#63b8ff" stroke="#63b8ff" points="245.29,-287.18 253.47,-280.44 242.87,-280.61 245.29,-287.18"/>
</a>
</g>
</g>
<!-- Node6 -->
<g id="Node000006" class="node">
<title>Node6</title>
<g id="a_Node000006"><a xlink:href="port_8c.html#ab4cd5b4635fe2ba28abafebbb1ac6861" target="_top" xlink:title=" ">
<polygon fill="white" stroke="#666666" points="320,-206 237,-206 237,-187 320,-187 320,-206"/>
<text text-anchor="middle" x="278.5" y="-194" font-family="Helvetica,sans-Serif" font-size="10.00">port_dword_out</text>
</a>
</g>
</g>
<!-- Node1&#45;&gt;Node6 -->
<g id="edge20_Node000001_Node000006" class="edge">
<title>Node1&#45;&gt;Node6</title>
<g id="a_edge20_Node000001_Node000006"><a xlink:title=" ">
<path fill="none" stroke="#63b8ff" d="M63.34,-186.54C74.71,-183.29 87.82,-180.11 100,-178.5 144.5,-172.63 156.41,-173.32 201,-178.5 211.26,-179.69 222.14,-181.75 232.38,-184.06"/>
<polygon fill="#63b8ff" stroke="#63b8ff" points="231.22,-187.62 241.76,-186.54 232.85,-180.81 231.22,-187.62"/>
</a>
</g>
</g>
<!-- Node7 -->
<g id="Node000007" class="node">
<title>Node7</title>
<g id="a_Node000007"><a xlink:href="port_8c.html#ad8d1266775348d5a6428af04f500b8e3" target="_top" xlink:title=" ">
<polygon fill="white" stroke="#666666" points="314.5,-141 242.5,-141 242.5,-122 314.5,-122 314.5,-141"/>
<text text-anchor="middle" x="278.5" y="-129" font-family="Helvetica,sans-Serif" font-size="10.00">port_word_in</text>
</a>
</g>
</g>
<!-- Node1&#45;&gt;Node7 -->
<g id="edge21_Node000001_Node000007" class="edge">
<title>Node1&#45;&gt;Node7</title>
<g id="a_edge21_Node000001_Node000007"><a xlink:title=" ">
<path fill="none" stroke="#63b8ff" d="M55.95,-186.58C68.75,-181.31 85.07,-175.01 100,-170.5 143.93,-157.24 195.24,-146.45 231.37,-139.62"/>
<polygon fill="#63b8ff" stroke="#63b8ff" points="231.87,-142.9 241.06,-137.62 230.59,-136.01 231.87,-142.9"/>
</a>
</g>
</g>
<!-- Node8 -->
<g id="Node000008" class="node">
<title>Node8</title>
<g id="a_Node000008"><a xlink:href="pci_8c.html#a531322fe5567da0a2705f6131c079f65" target="_top" xlink:title=" ">
<polygon fill="white" stroke="#666666" points="178.5,-206 122.5,-206 122.5,-187 178.5,-187 178.5,-206"/>
<text text-anchor="middle" x="150.5" y="-194" font-family="Helvetica,sans-Serif" font-size="10.00">pci_write</text>
</a>
</g>
</g>
<!-- Node1&#45;&gt;Node8 -->
<g id="edge13_Node000001_Node000008" class="edge">
<title>Node1&#45;&gt;Node8</title>
<g id="a_edge13_Node000001_Node000008"><a xlink:title=" ">
<path fill="none" stroke="#63b8ff" d="M64.22,-196.5C78.76,-196.5 96.18,-196.5 111.47,-196.5"/>
<polygon fill="#63b8ff" stroke="#63b8ff" points="111.16,-200 121.16,-196.5 111.16,-193 111.16,-200"/>
</a>
</g>
</g>
<!-- Node9 -->
<g id="Node000009" class="node">
<title>Node9</title>
<g id="a_Node000009"><a xlink:href="port_8c.html#ac3c72bfda8c7b1920ef91bcc06c97c7f" target="_top" xlink:title=" ">
<polygon fill="white" stroke="#666666" points="188.5,-74 112.5,-74 112.5,-55 188.5,-55 188.5,-74"/>
<text text-anchor="middle" x="150.5" y="-62" font-family="Helvetica,sans-Serif" font-size="10.00">port_byte_out</text>
</a>
</g>
</g>
<!-- Node1&#45;&gt;Node9 -->
<g id="edge17_Node000001_Node000009" class="edge">
<title>Node1&#45;&gt;Node9</title>
<g id="a_edge17_Node000001_Node000009"><a xlink:title=" ">
<path fill="none" stroke="#63b8ff" d="M39.19,-186.75C50.3,-169.61 74.81,-133.35 100,-106.5 108.44,-97.5 118.72,-88.52 127.72,-81.18"/>
<polygon fill="#63b8ff" stroke="#63b8ff" points="129.53,-83.42 135.17,-74.45 125.17,-77.94 129.53,-83.42"/>
</a>
</g>
</g>
<!-- Node10 -->
<g id="Node000010" class="node">
<title>Node10</title>
<g id="a_Node000010"><a xlink:href="port_8c.html#a08d9adffef857f1578d9086615626652" target="_top" xlink:title=" ">
<polygon fill="white" stroke="#666666" points="189.5,-19 111.5,-19 111.5,0 189.5,0 189.5,-19"/>
<text text-anchor="middle" x="150.5" y="-7" font-family="Helvetica,sans-Serif" font-size="10.00">port_word_out</text>
</a>
</g>
</g>
<!-- Node1&#45;&gt;Node10 -->
<g id="edge22_Node000001_Node000010" class="edge">
<title>Node1&#45;&gt;Node10</title>
<g id="a_edge22_Node000001_Node000010"><a xlink:title=" ">
<path fill="none" stroke="#63b8ff" d="M35.42,-186.73C42.11,-161.22 62.86,-91.45 100,-45.5 106.24,-37.78 114.52,-30.9 122.52,-25.27"/>
<polygon fill="#63b8ff" stroke="#63b8ff" points="124.21,-27.69 130.64,-19.27 120.36,-21.84 124.21,-27.69"/>
</a>
</g>
</g>
<!-- Node2&#45;&gt;Node2 -->
<g id="edge2_Node000002_Node000002" class="edge">
<title>Node2&#45;&gt;Node2</title>
<g id="a_edge2_Node000002_Node000002"><a xlink:title=" ">
<path fill="none" stroke="#63b8ff" d="M131.95,-393.37C123.49,-401.94 129.67,-411 150.5,-411 162.54,-411 169.69,-407.97 171.94,-403.76"/>
<polygon fill="#63b8ff" stroke="#63b8ff" points="175.1,-403.06 169.05,-394.37 168.36,-404.94 175.1,-403.06"/>
</a>
</g>
</g>
<!-- Node3&#45;&gt;Node3 -->
<g id="edge4_Node000003_Node000003" class="edge">
<title>Node3&#45;&gt;Node3</title>
<g id="a_edge4_Node000003_Node000003"><a xlink:title=" ">
<path fill="none" stroke="#63b8ff" d="M131.95,-261.37C123.49,-269.94 129.67,-279 150.5,-279 162.54,-279 169.69,-275.97 171.94,-271.76"/>
<polygon fill="#63b8ff" stroke="#63b8ff" points="175.1,-271.06 169.05,-262.37 168.36,-272.94 175.1,-271.06"/>
</a>
</g>
</g>
<!-- Node3&#45;&gt;Node4 -->
<g id="edge5_Node000003_Node000004" class="edge">
<title>Node3&#45;&gt;Node4</title>
<g id="a_edge5_Node000003_Node000004"><a xlink:title=" ">
<path fill="none" stroke="#63b8ff" d="M166.45,-261.47C187.95,-275.8 227.84,-302.39 253.5,-319.5"/>
<polygon fill="#63b8ff" stroke="#63b8ff" points="251.31,-322.91 261.57,-325.55 255.19,-317.09 251.31,-322.91"/>
</a>
</g>
</g>
<!-- Node3&#45;&gt;Node5 -->
<g id="edge7_Node000003_Node000005" class="edge">
<title>Node3&#45;&gt;Node5</title>
<g id="a_edge7_Node000003_Node000005"><a xlink:title=" ">
<path fill="none" stroke="#63b8ff" d="M177.3,-255.39C192.21,-257.64 211.44,-260.54 229.07,-263.2"/>
<polygon fill="#63b8ff" stroke="#63b8ff" points="228.37,-266.78 238.78,-264.81 229.41,-259.86 228.37,-266.78"/>
</a>
</g>
</g>
<!-- Node3&#45;&gt;Node6 -->
<g id="edge9_Node000003_Node000006" class="edge">
<title>Node3&#45;&gt;Node6</title>
<g id="a_edge9_Node000003_Node000006"><a xlink:title=" ">
<path fill="none" stroke="#63b8ff" d="M177.38,-242.65C185.05,-239.88 193.42,-236.7 201,-233.5 216.97,-226.76 234.39,-218.41 248.57,-211.35"/>
<polygon fill="#63b8ff" stroke="#63b8ff" points="249.89,-214.1 257.26,-206.48 246.75,-207.85 249.89,-214.1"/>
</a>
</g>
</g>
<!-- Node3&#45;&gt;Node7 -->
<g id="edge11_Node000003_Node000007" class="edge">
<title>Node3&#45;&gt;Node7</title>
<g id="a_edge11_Node000003_Node000007"><a xlink:title=" ">
<path fill="none" stroke="#63b8ff" d="M177.27,-245.58C185.44,-242.85 194.12,-238.95 201,-233.5 223.9,-215.36 219.43,-201.84 237,-178.5 244.5,-168.54 253.5,-157.97 261.11,-149.39"/>
<polygon fill="#63b8ff" stroke="#63b8ff" points="263.33,-152.04 267.42,-142.27 258.13,-147.36 263.33,-152.04"/>
</a>
</g>
</g>
<!-- Node4&#45;&gt;Node4 -->
<g id="edge6_Node000004_Node000004" class="edge">
<title>Node4&#45;&gt;Node4</title>
<g id="a_edge6_Node000004_Node000004"><a xlink:title=" ">
<path fill="none" stroke="#63b8ff" d="M258.46,-345.37C249.32,-353.94 256,-363 278.5,-363 291.51,-363 299.23,-359.97 301.66,-355.76"/>
<polygon fill="#63b8ff" stroke="#63b8ff" points="304.77,-354.94 298.54,-346.37 298.06,-356.95 304.77,-354.94"/>
</a>
</g>
</g>
<!-- Node5&#45;&gt;Node5 -->
<g id="edge8_Node000005_Node000005" class="edge">
<title>Node5&#45;&gt;Node5</title>
<g id="a_edge8_Node000005_Node000005"><a xlink:title=" ">
<path fill="none" stroke="#63b8ff" d="M258.46,-280.37C249.32,-288.94 256,-298 278.5,-298 291.51,-298 299.23,-294.97 301.66,-290.76"/>
<polygon fill="#63b8ff" stroke="#63b8ff" points="304.77,-289.94 298.54,-281.37 298.06,-291.95 304.77,-289.94"/>
</a>
</g>
</g>
<!-- Node6&#45;&gt;Node6 -->
<g id="edge10_Node000006_Node000006" class="edge">
<title>Node6&#45;&gt;Node6</title>
<g id="a_edge10_Node000006_Node000006"><a xlink:title=" ">
<path fill="none" stroke="#63b8ff" d="M258.46,-206.37C249.32,-214.94 256,-224 278.5,-224 291.51,-224 299.23,-220.97 301.66,-216.76"/>
<polygon fill="#63b8ff" stroke="#63b8ff" points="304.77,-215.94 298.54,-207.37 298.06,-217.95 304.77,-215.94"/>
</a>
</g>
</g>
<!-- Node7&#45;&gt;Node7 -->
<g id="edge12_Node000007_Node000007" class="edge">
<title>Node7&#45;&gt;Node7</title>
<g id="a_edge12_Node000007_Node000007"><a xlink:title=" ">
<path fill="none" stroke="#63b8ff" d="M258.46,-141.37C249.32,-149.94 256,-159 278.5,-159 291.51,-159 299.23,-155.97 301.66,-151.76"/>
<polygon fill="#63b8ff" stroke="#63b8ff" points="304.77,-150.94 298.54,-142.37 298.06,-152.95 304.77,-150.94"/>
</a>
</g>
</g>
<!-- Node8&#45;&gt;Node6 -->
<g id="edge15_Node000008_Node000006" class="edge">
<title>Node8&#45;&gt;Node6</title>
<g id="a_edge15_Node000008_Node000006"><a xlink:title=" ">
<path fill="none" stroke="#63b8ff" d="M178.84,-196.5C192.6,-196.5 209.75,-196.5 225.87,-196.5"/>
<polygon fill="#63b8ff" stroke="#63b8ff" points="225.81,-200 235.81,-196.5 225.81,-193 225.81,-200"/>
</a>
</g>
</g>
<!-- Node8&#45;&gt;Node8 -->
<g id="edge14_Node000008_Node000008" class="edge">
<title>Node8&#45;&gt;Node8</title>
<g id="a_edge14_Node000008_Node000008"><a xlink:title=" ">
<path fill="none" stroke="#63b8ff" d="M131.95,-206.37C123.49,-214.94 129.67,-224 150.5,-224 162.54,-224 169.69,-220.97 171.94,-216.76"/>
<polygon fill="#63b8ff" stroke="#63b8ff" points="175.1,-216.06 169.05,-207.37 168.36,-217.94 175.1,-216.06"/>
</a>
</g>
</g>
<!-- Node9&#45;&gt;Node9 -->
<g id="edge18_Node000009_Node000009" class="edge">
<title>Node9&#45;&gt;Node9</title>
<g id="a_edge18_Node000009_Node000009"><a xlink:title=" ">
<path fill="none" stroke="#63b8ff" d="M131.95,-74.37C123.49,-82.94 129.67,-92 150.5,-92 162.54,-92 169.69,-88.97 171.94,-84.76"/>
<polygon fill="#63b8ff" stroke="#63b8ff" points="175.1,-84.06 169.05,-75.37 168.36,-85.94 175.1,-84.06"/>
</a>
</g>
</g>
<!-- Node10&#45;&gt;Node10 -->
<g id="edge23_Node000010_Node000010" class="edge">
<title>Node10&#45;&gt;Node10</title>
<g id="a_edge23_Node000010_Node000010"><a xlink:title=" ">
<path fill="none" stroke="#63b8ff" d="M131.95,-19.37C123.49,-27.94 129.67,-37 150.5,-37 162.54,-37 169.69,-33.97 171.94,-29.76"/>
<polygon fill="#63b8ff" stroke="#63b8ff" points="175.1,-29.06 169.05,-20.37 168.36,-30.94 175.1,-29.06"/>
</a>
</g>
</g>
</g>
</svg>
