<?xml version="1.0" encoding="UTF-8" standalone="no"?>
<!DOCTYPE svg PUBLIC "-//W3C//DTD SVG 1.1//EN"
 "http://www.w3.org/Graphics/SVG/1.1/DTD/svg11.dtd">
<!-- Generated by graphviz version 3.0.0 (20220226.1711)
 -->
<!-- Title: rtl8139_init Pages: 1 -->
<svg width="280pt" height="28pt"
 viewBox="0.00 0.00 280.00 28.00" xmlns="http://www.w3.org/2000/svg" xmlns:xlink="http://www.w3.org/1999/xlink">
<g id="graph0" class="graph" transform="scale(1 1) rotate(0) translate(4 24)">
<title>rtl8139_init</title>
<!-- Node1 -->
<g id="node1" class="node">
<title>Node1</title>
<g id="a_node1"><a xlink:title=" ">
<polygon fill="#bfbfbf" stroke="black" points="0,-0.5 0,-19.5 64,-19.5 64,-0.5 0,-0.5"/>
<text text-anchor="middle" x="32" y="-7.5" font-family="Helvetica,sans-Serif" font-size="10.00">rtl8139_init</text>
</a>
</g>
</g>
<!-- Node2 -->
<g id="node2" class="node">
<title>Node2</title>
<g id="a_node2"><a xlink:href="pci_8c.html#abb0a8e6fa16437a49fe35b85a84feec2" target="_top" xlink:title=" ">
<polygon fill="none" stroke="black" points="100,-0.5 100,-19.5 153,-19.5 153,-0.5 100,-0.5"/>
<text text-anchor="middle" x="126.5" y="-7.5" font-family="Helvetica,sans-Serif" font-size="10.00">pci_read</text>
</a>
</g>
</g>
<!-- Node1&#45;&gt;Node2 -->
<g id="edge1" class="edge">
<title>Node1&#45;&gt;Node2</title>
<path fill="none" stroke="midnightblue" d="M64.06,-10C72.34,-10 81.36,-10 89.87,-10"/>
<polygon fill="midnightblue" stroke="midnightblue" points="89.91,-13.5 99.91,-10 89.91,-6.5 89.91,-13.5"/>
</g>
<!-- Node3 -->
<g id="node3" class="node">
<title>Node3</title>
<g id="a_node3"><a xlink:href="port_8c.html#ab4cd5b4635fe2ba28abafebbb1ac6861" target="_top" xlink:title=" ">
<polygon fill="none" stroke="black" points="189,-0.5 189,-19.5 272,-19.5 272,-0.5 189,-0.5"/>
<text text-anchor="middle" x="230.5" y="-7.5" font-family="Helvetica,sans-Serif" font-size="10.00">port_dword_out</text>
</a>
</g>
</g>
<!-- Node2&#45;&gt;Node3 -->
<g id="edge2" class="edge">
<title>Node2&#45;&gt;Node3</title>
<path fill="none" stroke="midnightblue" d="M153.24,-10C160.96,-10 169.71,-10 178.47,-10"/>
<polygon fill="midnightblue" stroke="midnightblue" points="178.68,-13.5 188.68,-10 178.68,-6.5 178.68,-13.5"/>
</g>
</g>
</svg>
