<?xml version="1.0" encoding="UTF-8" standalone="no"?>
<!DOCTYPE svg PUBLIC "-//W3C//DTD SVG 1.1//EN"
 "http://www.w3.org/Graphics/SVG/1.1/DTD/svg11.dtd">
<!-- Generated by graphviz version 2.49.3 (20211023.0002)
 -->
<!-- Title: src/kernel/arch/x86_64/drivers/rtl8139.h Pages: 1 -->
<svg width="171pt" height="151pt"
 viewBox="0.00 0.00 170.50 151.00" xmlns="http://www.w3.org/2000/svg" xmlns:xlink="http://www.w3.org/1999/xlink">
<g id="graph0" class="graph" transform="scale(1 1) rotate(0) translate(4 147)">
<title>src/kernel/arch/x86_64/drivers/rtl8139.h</title>
<!-- Node1 -->
<g id="node1" class="node">
<title>Node1</title>
<g id="a_node1"><a xlink:title=" ">
<polygon fill="#bfbfbf" stroke="black" points="52,-112.5 52,-142.5 160,-142.5 160,-112.5 52,-112.5"/>
<text text-anchor="start" x="60" y="-130.5" font-family="Helvetica,sans-Serif" font-size="10.00">src/kernel/arch/x86</text>
<text text-anchor="middle" x="106" y="-119.5" font-family="Helvetica,sans-Serif" font-size="10.00">_64/drivers/rtl8139.h</text>
</a>
</g>
</g>
<!-- Node2 -->
<g id="node2" class="node">
<title>Node2</title>
<g id="a_node2"><a xlink:href="pci_8h.html" target="_top" xlink:title=" ">
<polygon fill="none" stroke="black" points="0,-56.5 0,-75.5 60,-75.5 60,-56.5 0,-56.5"/>
<text text-anchor="middle" x="30" y="-63.5" font-family="Helvetica,sans-Serif" font-size="10.00">core/pci.h</text>
</a>
</g>
</g>
<!-- Node1&#45;&gt;Node2 -->
<g id="edge1" class="edge">
<title>Node1&#45;&gt;Node2</title>
<path fill="none" stroke="midnightblue" d="M87.99,-112.4C76.26,-103.22 60.98,-91.26 49.06,-81.92"/>
<polygon fill="midnightblue" stroke="midnightblue" points="51.09,-79.07 41.06,-75.66 46.78,-84.58 51.09,-79.07"/>
</g>
<!-- Node4 -->
<g id="node4" class="node">
<title>Node4</title>
<g id="a_node4"><a xlink:href="net_8h.html" target="_top" xlink:title="This module defines network interfaces and drivers.">
<polygon fill="none" stroke="black" points="78.5,-56.5 78.5,-75.5 133.5,-75.5 133.5,-56.5 78.5,-56.5"/>
<text text-anchor="middle" x="106" y="-63.5" font-family="Helvetica,sans-Serif" font-size="10.00">net/net.h</text>
</a>
</g>
</g>
<!-- Node1&#45;&gt;Node4 -->
<g id="edge3" class="edge">
<title>Node1&#45;&gt;Node4</title>
<path fill="none" stroke="midnightblue" d="M106,-112.4C106,-104.47 106,-94.46 106,-85.86"/>
<polygon fill="midnightblue" stroke="midnightblue" points="109.5,-85.66 106,-75.66 102.5,-85.66 109.5,-85.66"/>
</g>
<!-- Node5 -->
<g id="node5" class="node">
<title>Node5</title>
<g id="a_node5"><a xlink:title=" ">
<polygon fill="none" stroke="#bfbfbf" points="105.5,-0.5 105.5,-19.5 162.5,-19.5 162.5,-0.5 105.5,-0.5"/>
<text text-anchor="middle" x="134" y="-7.5" font-family="Helvetica,sans-Serif" font-size="10.00">stdbool.h</text>
</a>
</g>
</g>
<!-- Node1&#45;&gt;Node5 -->
<g id="edge6" class="edge">
<title>Node1&#45;&gt;Node5</title>
<path fill="none" stroke="midnightblue" d="M120.11,-112.46C128.55,-103.03 138.47,-89.84 143,-76 147.98,-60.77 144.77,-42.66 140.87,-29.43"/>
<polygon fill="midnightblue" stroke="midnightblue" points="144.09,-28 137.59,-19.63 137.45,-30.23 144.09,-28"/>
</g>
<!-- Node3 -->
<g id="node3" class="node">
<title>Node3</title>
<g id="a_node3"><a xlink:title=" ">
<polygon fill="none" stroke="#bfbfbf" points="36.5,-0.5 36.5,-19.5 85.5,-19.5 85.5,-0.5 36.5,-0.5"/>
<text text-anchor="middle" x="61" y="-7.5" font-family="Helvetica,sans-Serif" font-size="10.00">stdint.h</text>
</a>
</g>
</g>
<!-- Node2&#45;&gt;Node3 -->
<g id="edge2" class="edge">
<title>Node2&#45;&gt;Node3</title>
<path fill="none" stroke="midnightblue" d="M35.12,-56.08C39.41,-48.61 45.66,-37.72 50.94,-28.52"/>
<polygon fill="midnightblue" stroke="midnightblue" points="54.03,-30.17 55.98,-19.75 47.96,-26.68 54.03,-30.17"/>
</g>
<!-- Node4&#45;&gt;Node3 -->
<g id="edge5" class="edge">
<title>Node4&#45;&gt;Node3</title>
<path fill="none" stroke="midnightblue" d="M98.57,-56.08C92.15,-48.38 82.69,-37.03 74.88,-27.65"/>
<polygon fill="midnightblue" stroke="midnightblue" points="77.38,-25.19 68.29,-19.75 72.01,-29.67 77.38,-25.19"/>
</g>
<!-- Node4&#45;&gt;Node5 -->
<g id="edge4" class="edge">
<title>Node4&#45;&gt;Node5</title>
<path fill="none" stroke="midnightblue" d="M110.62,-56.08C114.46,-48.69 120.02,-37.95 124.76,-28.81"/>
<polygon fill="midnightblue" stroke="midnightblue" points="127.97,-30.24 129.46,-19.75 121.75,-27.02 127.97,-30.24"/>
</g>
</g>
</svg>
