<?xml version="1.0" encoding="UTF-8" standalone="no"?>
<!DOCTYPE svg PUBLIC "-//W3C//DTD SVG 1.1//EN"
 "http://www.w3.org/Graphics/SVG/1.1/DTD/svg11.dtd">
<!-- Generated by graphviz version 8.0.2 (20230410.1723)
 -->
<!-- Title: src/kernel/arch/x86_64/drivers/rtl8139.h Pages: 1 -->
<svg width="169pt" height="151pt"
 viewBox="0.00 0.00 168.50 151.00" xmlns="http://www.w3.org/2000/svg" xmlns:xlink="http://www.w3.org/1999/xlink">
<g id="graph0" class="graph" transform="scale(1 1) rotate(0) translate(4 147)">
<title>src/kernel/arch/x86_64/drivers/rtl8139.h</title>
<!-- Node1 -->
<g id="node1" class="node">
<title>Node1</title>
<g id="a_node1"><a xlink:title=" ">
<polygon fill="#bfbfbf" stroke="black" points="52,-112.5 52,-142.5 157,-142.5 157,-112.5 52,-112.5"/>
<text text-anchor="start" x="60" y="-130.5" font-family="Helvetica,sans-Serif" font-size="10.00">src/kernel/arch/x86</text>
<text text-anchor="middle" x="104.5" y="-119.5" font-family="Helvetica,sans-Serif" font-size="10.00">_64/drivers/rtl8139.h</text>
</a>
</g>
</g>
<!-- Node2 -->
<g id="node2" class="node">
<title>Node2</title>
<g id="a_node2"><a xlink:href="pci_8h.html" target="_top" xlink:title=" ">
<polygon fill="none" stroke="black" points="0,-56.5 0,-75.5 59,-75.5 59,-56.5 0,-56.5"/>
<text text-anchor="middle" x="29.5" y="-63.5" font-family="Helvetica,sans-Serif" font-size="10.00">core/pci.h</text>
</a>
</g>
</g>
<!-- Node1&#45;&gt;Node2 -->
<g id="edge1" class="edge">
<title>Node1&#45;&gt;Node2</title>
<path fill="none" stroke="midnightblue" d="M87.1,-112.7C75.52,-103.51 60.3,-91.43 48.41,-82"/>
<polygon fill="midnightblue" stroke="midnightblue" points="51.1,-78.87 41.09,-75.4 46.75,-84.36 51.1,-78.87"/>
</g>
<!-- Node4 -->
<g id="node4" class="node">
<title>Node4</title>
<g id="a_node4"><a xlink:href="net_8h.html" target="_top" xlink:title="This module defines network interfaces and drivers.">
<polygon fill="none" stroke="black" points="77,-56.5 77,-75.5 132,-75.5 132,-56.5 77,-56.5"/>
<text text-anchor="middle" x="104.5" y="-63.5" font-family="Helvetica,sans-Serif" font-size="10.00">net/net.h</text>
</a>
</g>
</g>
<!-- Node1&#45;&gt;Node4 -->
<g id="edge3" class="edge">
<title>Node1&#45;&gt;Node4</title>
<path fill="none" stroke="midnightblue" d="M104.5,-112.7C104.5,-104.86 104.5,-94.92 104.5,-86.32"/>
<polygon fill="midnightblue" stroke="midnightblue" points="108,-86.4 104.5,-76.4 101,-86.4 108,-86.4"/>
</g>
<!-- Node5 -->
<g id="node5" class="node">
<title>Node5</title>
<g id="a_node5"><a xlink:title=" ">
<polygon fill="none" stroke="#bfbfbf" points="104.5,-0.5 104.5,-19.5 160.5,-19.5 160.5,-0.5 104.5,-0.5"/>
<text text-anchor="middle" x="132.5" y="-7.5" font-family="Helvetica,sans-Serif" font-size="10.00">stdbool.h</text>
</a>
</g>
</g>
<!-- Node1&#45;&gt;Node5 -->
<g id="edge6" class="edge">
<title>Node1&#45;&gt;Node5</title>
<path fill="none" stroke="midnightblue" d="M118.24,-112.87C126.75,-103.42 136.9,-90.05 141.5,-76 146.49,-60.76 143.27,-42.63 139.36,-29.39"/>
<polygon fill="midnightblue" stroke="midnightblue" points="142.44,-28.58 135.94,-20.21 135.81,-30.81 142.44,-28.58"/>
</g>
<!-- Node3 -->
<g id="node3" class="node">
<title>Node3</title>
<g id="a_node3"><a xlink:title=" ">
<polygon fill="none" stroke="#bfbfbf" points="35,-0.5 35,-19.5 84,-19.5 84,-0.5 35,-0.5"/>
<text text-anchor="middle" x="59.5" y="-7.5" font-family="Helvetica,sans-Serif" font-size="10.00">stdint.h</text>
</a>
</g>
</g>
<!-- Node2&#45;&gt;Node3 -->
<g id="edge2" class="edge">
<title>Node2&#45;&gt;Node3</title>
<path fill="none" stroke="midnightblue" d="M34.19,-56.56C38.31,-49.15 44.44,-38.12 49.63,-28.76"/>
<polygon fill="midnightblue" stroke="midnightblue" points="53.15,-30.64 54.94,-20.2 47.03,-27.24 53.15,-30.64"/>
</g>
<!-- Node4&#45;&gt;Node3 -->
<g id="edge5" class="edge">
<title>Node4&#45;&gt;Node3</title>
<path fill="none" stroke="midnightblue" d="M97.47,-56.56C91.02,-48.83 81.3,-37.16 73.31,-27.57"/>
<polygon fill="midnightblue" stroke="midnightblue" points="75.43,-25.64 66.33,-20.2 70.05,-30.12 75.43,-25.64"/>
</g>
<!-- Node4&#45;&gt;Node5 -->
<g id="edge4" class="edge">
<title>Node4&#45;&gt;Node5</title>
<path fill="none" stroke="midnightblue" d="M108.88,-56.56C112.72,-49.15 118.44,-38.12 123.29,-28.76"/>
<polygon fill="midnightblue" stroke="midnightblue" points="126.75,-30.69 128.25,-20.2 120.54,-27.47 126.75,-30.69"/>
</g>
</g>
</svg>
