<?xml version="1.0" encoding="UTF-8" standalone="no"?>
<!DOCTYPE svg PUBLIC "-//W3C//DTD SVG 1.1//EN"
 "http://www.w3.org/Graphics/SVG/1.1/DTD/svg11.dtd">
<!-- Generated by graphviz version 3.0.0 (20220226.1711)
 -->
<!-- Title: src/kernel/arch/x86_64/drivers/rtl8139.h Pages: 1 -->
<svg width="169pt" height="151pt"
 viewBox="0.00 0.00 168.50 151.00" xmlns="http://www.w3.org/2000/svg" xmlns:xlink="http://www.w3.org/1999/xlink">
<g id="graph0" class="graph" transform="scale(1 1) rotate(0) translate(4 147)">
<title>src/kernel/arch/x86_64/drivers/rtl8139.h</title>
<!-- Node1 -->
<g id="node1" class="node">
<title>Node1</title>
<g id="a_node1"><a xlink:title=" ">
<polygon fill="#bfbfbf" stroke="black" points="52,-112.5 52,-142.5 157,-142.5 157,-112.5 52,-112.5"/>
<text text-anchor="start" x="60" y="-130.5" font-family="Helvetica,sans-Serif" font-size="10.00">src/kernel/arch/x86</text>
<text text-anchor="middle" x="104.5" y="-119.5" font-family="Helvetica,sans-Serif" font-size="10.00">_64/drivers/rtl8139.h</text>
</a>
</g>
</g>
<!-- Node2 -->
<g id="node2" class="node">
<title>Node2</title>
<g id="a_node2"><a xlink:href="pci_8h.html" target="_top" xlink:title=" ">
<polygon fill="none" stroke="black" points="0,-56.5 0,-75.5 59,-75.5 59,-56.5 0,-56.5"/>
<text text-anchor="middle" x="29.5" y="-63.5" font-family="Helvetica,sans-Serif" font-size="10.00">core/pci.h</text>
</a>
</g>
</g>
<!-- Node1&#45;&gt;Node2 -->
<g id="edge1" class="edge">
<title>Node1&#45;&gt;Node2</title>
<path fill="none" stroke="midnightblue" d="M86.73,-112.4C75.15,-103.22 60.08,-91.26 48.3,-81.92"/>
<polygon fill="midnightblue" stroke="midnightblue" points="50.42,-79.13 40.41,-75.66 46.07,-84.61 50.42,-79.13"/>
</g>
<!-- Node4 -->
<g id="node4" class="node">
<title>Node4</title>
<g id="a_node4"><a xlink:href="net_8h.html" target="_top" xlink:title="This module defines network interfaces and drivers.">
<polygon fill="none" stroke="black" points="77,-56.5 77,-75.5 132,-75.5 132,-56.5 77,-56.5"/>
<text text-anchor="middle" x="104.5" y="-63.5" font-family="Helvetica,sans-Serif" font-size="10.00">net/net.h</text>
</a>
</g>
</g>
<!-- Node1&#45;&gt;Node4 -->
<g id="edge3" class="edge">
<title>Node1&#45;&gt;Node4</title>
<path fill="none" stroke="midnightblue" d="M104.5,-112.4C104.5,-104.47 104.5,-94.46 104.5,-85.86"/>
<polygon fill="midnightblue" stroke="midnightblue" points="108,-85.66 104.5,-75.66 101,-85.66 108,-85.66"/>
</g>
<!-- Node5 -->
<g id="node5" class="node">
<title>Node5</title>
<g id="a_node5"><a xlink:title=" ">
<polygon fill="none" stroke="#bfbfbf" points="104.5,-0.5 104.5,-19.5 160.5,-19.5 160.5,-0.5 104.5,-0.5"/>
<text text-anchor="middle" x="132.5" y="-7.5" font-family="Helvetica,sans-Serif" font-size="10.00">stdbool.h</text>
</a>
</g>
</g>
<!-- Node1&#45;&gt;Node5 -->
<g id="edge6" class="edge">
<title>Node1&#45;&gt;Node5</title>
<path fill="none" stroke="midnightblue" d="M118.61,-112.46C127.05,-103.03 136.97,-89.84 141.5,-76 146.48,-60.77 143.27,-42.66 139.37,-29.43"/>
<polygon fill="midnightblue" stroke="midnightblue" points="142.59,-28 136.09,-19.63 135.95,-30.23 142.59,-28"/>
</g>
<!-- Node3 -->
<g id="node3" class="node">
<title>Node3</title>
<g id="a_node3"><a xlink:title=" ">
<polygon fill="none" stroke="#bfbfbf" points="35,-0.5 35,-19.5 84,-19.5 84,-0.5 35,-0.5"/>
<text text-anchor="middle" x="59.5" y="-7.5" font-family="Helvetica,sans-Serif" font-size="10.00">stdint.h</text>
</a>
</g>
</g>
<!-- Node2&#45;&gt;Node3 -->
<g id="edge2" class="edge">
<title>Node2&#45;&gt;Node3</title>
<path fill="none" stroke="midnightblue" d="M34.45,-56.08C38.6,-48.61 44.65,-37.72 49.77,-28.52"/>
<polygon fill="midnightblue" stroke="midnightblue" points="52.84,-30.19 54.64,-19.75 46.72,-26.79 52.84,-30.19"/>
</g>
<!-- Node4&#45;&gt;Node3 -->
<g id="edge5" class="edge">
<title>Node4&#45;&gt;Node3</title>
<path fill="none" stroke="midnightblue" d="M97.07,-56.08C90.65,-48.38 81.19,-37.03 73.38,-27.65"/>
<polygon fill="midnightblue" stroke="midnightblue" points="75.88,-25.19 66.79,-19.75 70.51,-29.67 75.88,-25.19"/>
</g>
<!-- Node4&#45;&gt;Node5 -->
<g id="edge4" class="edge">
<title>Node4&#45;&gt;Node5</title>
<path fill="none" stroke="midnightblue" d="M109.12,-56.08C112.96,-48.69 118.52,-37.95 123.26,-28.81"/>
<polygon fill="midnightblue" stroke="midnightblue" points="126.47,-30.24 127.96,-19.75 120.25,-27.02 126.47,-30.24"/>
</g>
</g>
</svg>
