<?xml version="1.0" encoding="UTF-8" standalone="no"?>
<!DOCTYPE svg PUBLIC "-//W3C//DTD SVG 1.1//EN"
 "http://www.w3.org/Graphics/SVG/1.1/DTD/svg11.dtd">
<!-- Generated by graphviz version 8.0.2 (20230410.1723)
 -->
<!-- Title: serial_write Pages: 1 -->
<svg width="186pt" height="45pt"
 viewBox="0.00 0.00 186.00 45.00" xmlns="http://www.w3.org/2000/svg" xmlns:xlink="http://www.w3.org/1999/xlink">
<g id="graph0" class="graph" transform="scale(1 1) rotate(0) translate(4 41)">
<title>serial_write</title>
<!-- Node1 -->
<g id="Node000001" class="node">
<title>Node1</title>
<g id="a_Node000001"><a xlink:title=" ">
<polygon fill="#999999" stroke="#666666" points="66,-19 0,-19 0,0 66,0 66,-19"/>
<text text-anchor="middle" x="33" y="-7" font-family="Helvetica,sans-Serif" font-size="10.00">serial_write</text>
</a>
</g>
</g>
<!-- Node2 -->
<g id="Node000002" class="node">
<title>Node2</title>
<g id="a_Node000002"><a xlink:href="port_8c.html#ac3c72bfda8c7b1920ef91bcc06c97c7f" target="_top" xlink:title=" ">
<polygon fill="white" stroke="#666666" points="178,-19 102,-19 102,0 178,0 178,-19"/>
<text text-anchor="middle" x="140" y="-7" font-family="Helvetica,sans-Serif" font-size="10.00">port_byte_out</text>
</a>
</g>
</g>
<!-- Node1&#45;&gt;Node2 -->
<g id="edge1_Node000001_Node000002" class="edge">
<title>Node1&#45;&gt;Node2</title>
<g id="a_edge1_Node000001_Node000002"><a xlink:title=" ">
<path fill="none" stroke="#63b8ff" d="M66.36,-9.5C74.15,-9.5 82.64,-9.5 90.98,-9.5"/>
<polygon fill="#63b8ff" stroke="#63b8ff" points="90.79,-13 100.79,-9.5 90.79,-6 90.79,-13"/>
</a>
</g>
</g>
<!-- Node2&#45;&gt;Node2 -->
<g id="edge2_Node000002_Node000002" class="edge">
<title>Node2&#45;&gt;Node2</title>
<g id="a_edge2_Node000002_Node000002"><a xlink:title=" ">
<path fill="none" stroke="#63b8ff" d="M123.25,-19.37C115.61,-27.94 121.19,-37 140,-37 150.87,-37 157.33,-33.97 159.36,-29.76"/>
<polygon fill="#63b8ff" stroke="#63b8ff" points="162.58,-29.21 156.75,-20.37 155.79,-30.92 162.58,-29.21"/>
</a>
</g>
</g>
</g>
</svg>
