<?xml version="1.0" encoding="UTF-8" standalone="no"?>
<!DOCTYPE svg PUBLIC "-//W3C//DTD SVG 1.1//EN"
 "http://www.w3.org/Graphics/SVG/1.1/DTD/svg11.dtd">
<!-- Generated by graphviz version 9.0.0 (20230911.1827)
 -->
<!-- Title: include/kernel/fs/sock.h Pages: 1 -->
<svg width="208pt" height="193pt"
 viewBox="0.00 0.00 207.88 193.00" xmlns="http://www.w3.org/2000/svg" xmlns:xlink="http://www.w3.org/1999/xlink">
<g id="graph0" class="graph" transform="scale(1 1) rotate(0) translate(4 189)">
<title>include/kernel/fs/sock.h</title>
<!-- Node1 -->
<g id="Node000001" class="node">
<title>Node1</title>
<g id="a_Node000001"><a xlink:title=" ">
<polygon fill="#999999" stroke="#666666" points="199.88,-185 80.38,-185 80.38,-165.75 199.88,-165.75 199.88,-185"/>
<text text-anchor="middle" x="140.12" y="-171.5" font-family="Helvetica,sans-Serif" font-size="10.00">include/kernel/fs/sock.h</text>
</a>
</g>
</g>
<!-- Node2 -->
<g id="Node000002" class="node">
<title>Node2</title>
<g id="a_Node000002"><a xlink:href="vfs_8h.html" target="_top" xlink:title=" ">
<polygon fill="white" stroke="#666666" points="138.62,-129.75 89.62,-129.75 89.62,-110.5 138.62,-110.5 138.62,-129.75"/>
<text text-anchor="middle" x="114.12" y="-116.25" font-family="Helvetica,sans-Serif" font-size="10.00">fs/vfs.h</text>
</a>
</g>
</g>
<!-- Node1&#45;&gt;Node2 -->
<g id="edge1_Node000001_Node000002" class="edge">
<title>Node1&#45;&gt;Node2</title>
<g id="a_edge1_Node000001_Node000002"><a xlink:title=" ">
<path fill="none" stroke="#63b8ff" d="M135.83,-165.58C132.5,-158.76 127.76,-149.06 123.56,-140.45"/>
<polygon fill="#63b8ff" stroke="#63b8ff" points="126.71,-138.92 119.18,-131.47 120.42,-141.99 126.71,-138.92"/>
</a>
</g>
</g>
<!-- Node3 -->
<g id="Node000003" class="node">
<title>Node3</title>
<g id="a_Node000003"><a xlink:title=" ">
<polygon fill="#e0e0e0" stroke="#999999" points="192,-19.25 136.25,-19.25 136.25,0 192,0 192,-19.25"/>
<text text-anchor="middle" x="164.12" y="-5.75" font-family="Helvetica,sans-Serif" font-size="10.00">stdbool.h</text>
</a>
</g>
</g>
<!-- Node1&#45;&gt;Node3 -->
<g id="edge8_Node000001_Node000003" class="edge">
<title>Node1&#45;&gt;Node3</title>
<g id="a_edge8_Node000001_Node000003"><a xlink:title=" ">
<path fill="none" stroke="#63b8ff" d="M141.83,-165.5C143.54,-156.51 146.18,-142.19 148.12,-129.75 153.55,-95.14 158.74,-54.68 161.67,-30.94"/>
<polygon fill="#63b8ff" stroke="#63b8ff" points="165.13,-31.46 162.87,-21.11 158.19,-30.62 165.13,-31.46"/>
</a>
</g>
</g>
<!-- Node2&#45;&gt;Node3 -->
<g id="edge2_Node000002_Node000003" class="edge">
<title>Node2&#45;&gt;Node3</title>
<g id="a_edge2_Node000002_Node000003"><a xlink:title=" ">
<path fill="none" stroke="#63b8ff" d="M118.22,-110.25C126.27,-92.76 144.36,-53.52 155.27,-29.84"/>
<polygon fill="#63b8ff" stroke="#63b8ff" points="158.34,-31.55 159.34,-21 151.98,-28.62 158.34,-31.55"/>
</a>
</g>
</g>
<!-- Node4 -->
<g id="Node000004" class="node">
<title>Node4</title>
<g id="a_Node000004"><a xlink:title=" ">
<polygon fill="#e0e0e0" stroke="#999999" points="48.25,-19.25 0,-19.25 0,0 48.25,0 48.25,-19.25"/>
<text text-anchor="middle" x="24.12" y="-5.75" font-family="Helvetica,sans-Serif" font-size="10.00">stdint.h</text>
</a>
</g>
</g>
<!-- Node2&#45;&gt;Node4 -->
<g id="edge3_Node000002_Node000004" class="edge">
<title>Node2&#45;&gt;Node4</title>
<g id="a_edge3_Node000002_Node000004"><a xlink:title=" ">
<path fill="none" stroke="#63b8ff" d="M94,-110.07C79.18,-102.48 59.53,-90.34 47.12,-74.5 37,-61.57 31.08,-43.79 27.79,-30.27"/>
<polygon fill="#63b8ff" stroke="#63b8ff" points="31.28,-29.85 25.78,-20.8 24.43,-31.31 31.28,-29.85"/>
</a>
</g>
</g>
<!-- Node5 -->
<g id="Node000005" class="node">
<title>Node5</title>
<g id="a_Node000005"><a xlink:href="types_8h.html" target="_top" xlink:title=" ">
<polygon fill="white" stroke="#666666" points="123.62,-74.5 56.62,-74.5 56.62,-55.25 123.62,-55.25 123.62,-74.5"/>
<text text-anchor="middle" x="90.12" y="-61" font-family="Helvetica,sans-Serif" font-size="10.00">sys/types.h</text>
</a>
</g>
</g>
<!-- Node2&#45;&gt;Node5 -->
<g id="edge4_Node000002_Node000005" class="edge">
<title>Node2&#45;&gt;Node5</title>
<g id="a_edge4_Node000002_Node000005"><a xlink:title=" ">
<path fill="none" stroke="#63b8ff" d="M110.16,-110.33C107.09,-103.51 102.71,-93.81 98.84,-85.2"/>
<polygon fill="#63b8ff" stroke="#63b8ff" points="102.1,-83.92 94.8,-76.24 95.71,-86.79 102.1,-83.92"/>
</a>
</g>
</g>
<!-- Node5&#45;&gt;Node3 -->
<g id="edge5_Node000005_Node000003" class="edge">
<title>Node5&#45;&gt;Node3</title>
<g id="a_edge5_Node000005_Node000003"><a xlink:title=" ">
<path fill="none" stroke="#63b8ff" d="M102.68,-54.84C113.59,-46.99 129.63,-35.45 142.59,-26.12"/>
<polygon fill="#63b8ff" stroke="#63b8ff" points="144.46,-29.09 150.53,-20.41 140.37,-23.41 144.46,-29.09"/>
</a>
</g>
</g>
<!-- Node5&#45;&gt;Node4 -->
<g id="edge7_Node000005_Node000004" class="edge">
<title>Node5&#45;&gt;Node4</title>
<g id="a_edge7_Node000005_Node000004"><a xlink:title=" ">
<path fill="none" stroke="#63b8ff" d="M78.93,-54.84C69.39,-47.15 55.45,-35.9 44.02,-26.68"/>
<polygon fill="#63b8ff" stroke="#63b8ff" points="46.31,-24.03 36.33,-20.48 41.92,-29.48 46.31,-24.03"/>
</a>
</g>
</g>
<!-- Node6 -->
<g id="Node000006" class="node">
<title>Node6</title>
<g id="a_Node000006"><a xlink:title=" ">
<polygon fill="#e0e0e0" stroke="#999999" points="117.75,-19.25 66.5,-19.25 66.5,0 117.75,0 117.75,-19.25"/>
<text text-anchor="middle" x="92.12" y="-5.75" font-family="Helvetica,sans-Serif" font-size="10.00">stddef.h</text>
</a>
</g>
</g>
<!-- Node5&#45;&gt;Node6 -->
<g id="edge6_Node000005_Node000006" class="edge">
<title>Node5&#45;&gt;Node6</title>
<g id="a_edge6_Node000005_Node000006"><a xlink:title=" ">
<path fill="none" stroke="#63b8ff" d="M90.46,-55.08C90.7,-48.49 91.05,-39.21 91.37,-30.82"/>
<polygon fill="#63b8ff" stroke="#63b8ff" points="94.85,-31.25 91.73,-21.12 87.86,-30.98 94.85,-31.25"/>
</a>
</g>
</g>
</g>
</svg>
