<?xml version="1.0" encoding="UTF-8" standalone="no"?>
<!DOCTYPE svg PUBLIC "-//W3C//DTD SVG 1.1//EN"
 "http://www.w3.org/Graphics/SVG/1.1/DTD/svg11.dtd">
<!-- Generated by graphviz version 8.0.2 (20230410.1723)
 -->
<!-- Title: include/kernel/fs/sock.h Pages: 1 -->
<svg width="210pt" height="192pt"
 viewBox="0.00 0.00 209.50 192.00" xmlns="http://www.w3.org/2000/svg" xmlns:xlink="http://www.w3.org/1999/xlink">
<g id="graph0" class="graph" transform="scale(1 1) rotate(0) translate(4 188)">
<title>include/kernel/fs/sock.h</title>
<!-- Node1 -->
<g id="Node000001" class="node">
<title>Node1</title>
<g id="a_Node000001"><a xlink:title=" ">
<polygon fill="#999999" stroke="#666666" points="201.5,-184 81.5,-184 81.5,-165 201.5,-165 201.5,-184"/>
<text text-anchor="middle" x="141.5" y="-172" font-family="Helvetica,sans-Serif" font-size="10.00">include/kernel/fs/sock.h</text>
</a>
</g>
</g>
<!-- Node2 -->
<g id="Node000002" class="node">
<title>Node2</title>
<g id="a_Node000002"><a xlink:href="vfs_8h.html" target="_top" xlink:title=" ">
<polygon fill="white" stroke="#666666" points="140.5,-129 90.5,-129 90.5,-110 140.5,-110 140.5,-129"/>
<text text-anchor="middle" x="115.5" y="-117" font-family="Helvetica,sans-Serif" font-size="10.00">fs/vfs.h</text>
</a>
</g>
</g>
<!-- Node1&#45;&gt;Node2 -->
<g id="edge1_Node000001_Node000002" class="edge">
<title>Node1&#45;&gt;Node2</title>
<g id="a_edge1_Node000001_Node000002"><a xlink:title=" ">
<path fill="none" stroke="#63b8ff" d="M137.21,-164.75C133.8,-157.81 128.92,-147.86 124.65,-139.16"/>
<polygon fill="#63b8ff" stroke="#63b8ff" points="127.43,-137.88 119.89,-130.44 121.15,-140.96 127.43,-137.88"/>
</a>
</g>
</g>
<!-- Node3 -->
<g id="Node000003" class="node">
<title>Node3</title>
<g id="a_Node000003"><a xlink:title=" ">
<polygon fill="#e0e0e0" stroke="#999999" points="193.5,-19 137.5,-19 137.5,0 193.5,0 193.5,-19"/>
<text text-anchor="middle" x="165.5" y="-7" font-family="Helvetica,sans-Serif" font-size="10.00">stdbool.h</text>
</a>
</g>
</g>
<!-- Node1&#45;&gt;Node3 -->
<g id="edge8_Node000001_Node000003" class="edge">
<title>Node1&#45;&gt;Node3</title>
<g id="a_edge8_Node000001_Node000003"><a xlink:title=" ">
<path fill="none" stroke="#63b8ff" d="M143.21,-164.65C144.91,-155.69 147.55,-141.41 149.5,-129 154.97,-94.25 160.21,-53.58 163.13,-30.06"/>
<polygon fill="#63b8ff" stroke="#63b8ff" points="166.68,-30.79 164.43,-20.44 159.74,-29.94 166.68,-30.79"/>
</a>
</g>
</g>
<!-- Node2&#45;&gt;Node3 -->
<g id="edge2_Node000002_Node000003" class="edge">
<title>Node2&#45;&gt;Node3</title>
<g id="a_edge2_Node000002_Node000003"><a xlink:title=" ">
<path fill="none" stroke="#63b8ff" d="M119.59,-109.66C127.69,-92.18 145.9,-52.84 156.79,-29.3"/>
<polygon fill="#63b8ff" stroke="#63b8ff" points="160.33,-31.01 161.35,-20.46 153.97,-28.06 160.33,-31.01"/>
</a>
</g>
</g>
<!-- Node4 -->
<g id="Node000004" class="node">
<title>Node4</title>
<g id="a_Node000004"><a xlink:title=" ">
<polygon fill="#e0e0e0" stroke="#999999" points="49,-19 0,-19 0,0 49,0 49,-19"/>
<text text-anchor="middle" x="24.5" y="-7" font-family="Helvetica,sans-Serif" font-size="10.00">stdint.h</text>
</a>
</g>
</g>
<!-- Node2&#45;&gt;Node4 -->
<g id="edge3_Node000002_Node000004" class="edge">
<title>Node2&#45;&gt;Node4</title>
<g id="a_edge3_Node000002_Node000004"><a xlink:title=" ">
<path fill="none" stroke="#63b8ff" d="M95.75,-109.59C80.94,-102.01 61.12,-89.83 48.5,-74 38.16,-61.03 31.93,-43.12 28.43,-29.63"/>
<polygon fill="#63b8ff" stroke="#63b8ff" points="31.66,-29.1 26.01,-20.15 24.84,-30.68 31.66,-29.1"/>
</a>
</g>
</g>
<!-- Node5 -->
<g id="Node000005" class="node">
<title>Node5</title>
<g id="a_Node000005"><a xlink:href="types_8h.html" target="_top" xlink:title=" ">
<polygon fill="white" stroke="#666666" points="125.5,-74 57.5,-74 57.5,-55 125.5,-55 125.5,-74"/>
<text text-anchor="middle" x="91.5" y="-62" font-family="Helvetica,sans-Serif" font-size="10.00">sys/types.h</text>
</a>
</g>
</g>
<!-- Node2&#45;&gt;Node5 -->
<g id="edge4_Node000002_Node000005" class="edge">
<title>Node2&#45;&gt;Node5</title>
<g id="a_edge4_Node000002_Node000005"><a xlink:title=" ">
<path fill="none" stroke="#63b8ff" d="M111.54,-109.75C108.43,-102.88 103.99,-93.08 100.08,-84.45"/>
<polygon fill="#63b8ff" stroke="#63b8ff" points="102.86,-83.11 95.55,-75.44 96.49,-86 102.86,-83.11"/>
</a>
</g>
</g>
<!-- Node5&#45;&gt;Node3 -->
<g id="edge5_Node000005_Node000003" class="edge">
<title>Node5&#45;&gt;Node3</title>
<g id="a_edge5_Node000005_Node000003"><a xlink:title=" ">
<path fill="none" stroke="#63b8ff" d="M104.05,-54.51C115.07,-46.62 131.32,-34.98 144.34,-25.65"/>
<polygon fill="#63b8ff" stroke="#63b8ff" points="146.04,-28.03 152.13,-19.36 141.96,-22.34 146.04,-28.03"/>
</a>
</g>
</g>
<!-- Node5&#45;&gt;Node4 -->
<g id="edge7_Node000005_Node000004" class="edge">
<title>Node5&#45;&gt;Node4</title>
<g id="a_edge7_Node000005_Node000004"><a xlink:title=" ">
<path fill="none" stroke="#63b8ff" d="M80.13,-54.51C70.26,-46.7 55.73,-35.21 44,-25.93"/>
<polygon fill="#63b8ff" stroke="#63b8ff" points="46.71,-22.82 36.7,-19.36 42.37,-28.31 46.71,-22.82"/>
</a>
</g>
</g>
<!-- Node6 -->
<g id="Node000006" class="node">
<title>Node6</title>
<g id="a_Node000006"><a xlink:title=" ">
<polygon fill="#e0e0e0" stroke="#999999" points="119.5,-19 67.5,-19 67.5,0 119.5,0 119.5,-19"/>
<text text-anchor="middle" x="93.5" y="-7" font-family="Helvetica,sans-Serif" font-size="10.00">stddef.h</text>
</a>
</g>
</g>
<!-- Node5&#45;&gt;Node6 -->
<g id="edge6_Node000005_Node000006" class="edge">
<title>Node5&#45;&gt;Node6</title>
<g id="a_edge6_Node000005_Node000006"><a xlink:title=" ">
<path fill="none" stroke="#63b8ff" d="M91.83,-54.75C92.08,-48.11 92.43,-38.73 92.75,-30.31"/>
<polygon fill="#63b8ff" stroke="#63b8ff" points="96.28,-30.57 93.16,-20.44 89.29,-30.3 96.28,-30.57"/>
</a>
</g>
</g>
</g>
</svg>
