<?xml version="1.0" encoding="UTF-8" standalone="no"?>
<!DOCTYPE svg PUBLIC "-//W3C//DTD SVG 1.1//EN"
 "http://www.w3.org/Graphics/SVG/1.1/DTD/svg11.dtd">
<!-- Generated by graphviz version 2.49.3 (20211023.0002)
 -->
<!-- Title: include/libc/sys/socket.h Pages: 1 -->
<svg width="400pt" height="285pt"
 viewBox="0.00 0.00 399.50 285.00" xmlns="http://www.w3.org/2000/svg" xmlns:xlink="http://www.w3.org/1999/xlink">
<g id="graph0" class="graph" transform="scale(1 1) rotate(0) translate(4 281)">
<title>include/libc/sys/socket.h</title>
<!-- Node1 -->
<g id="node1" class="node">
<title>Node1</title>
<g id="a_node1"><a xlink:title=" ">
<polygon fill="#bfbfbf" stroke="black" points="120,-257.5 120,-276.5 244,-276.5 244,-257.5 120,-257.5"/>
<text text-anchor="middle" x="182" y="-264.5" font-family="Helvetica,sans-Serif" font-size="10.00">include/libc/sys/socket.h</text>
</a>
</g>
</g>
<!-- Node2 -->
<g id="node2" class="node">
<title>Node2</title>
<g id="a_node2"><a xlink:href="k__syscall_8h.html" target="_top" xlink:title=" ">
<polygon fill="none" stroke="black" points="0,-134.5 0,-164.5 96,-164.5 96,-134.5 0,-134.5"/>
<text text-anchor="start" x="8" y="-152.5" font-family="Helvetica,sans-Serif" font-size="10.00">include/kernel/sys</text>
<text text-anchor="middle" x="48" y="-141.5" font-family="Helvetica,sans-Serif" font-size="10.00">/k_syscall.h</text>
</a>
</g>
</g>
<!-- Node1&#45;&gt;Node2 -->
<g id="edge1" class="edge">
<title>Node1&#45;&gt;Node2</title>
<path fill="none" stroke="midnightblue" d="M158.64,-252.09C145.34,-243.74 128.66,-232.53 115,-221 93.97,-203.25 72.56,-179.52 59.78,-164.62"/>
<polygon fill="midnightblue" stroke="midnightblue" points="156.88,-255.12 167.23,-257.38 160.55,-249.16 156.88,-255.12"/>
</g>
<!-- Node3 -->
<g id="node3" class="node">
<title>Node3</title>
<g id="a_node3"><a xlink:href="inet_8h.html" target="_top" xlink:title=" ">
<polygon fill="none" stroke="black" points="124,-201.5 124,-220.5 240,-220.5 240,-201.5 124,-201.5"/>
<text text-anchor="middle" x="182" y="-208.5" font-family="Helvetica,sans-Serif" font-size="10.00">include/libc/arpa/inet.h</text>
</a>
</g>
</g>
<!-- Node1&#45;&gt;Node3 -->
<g id="edge2" class="edge">
<title>Node1&#45;&gt;Node3</title>
<path fill="none" stroke="midnightblue" d="M182,-246.8C182,-237.91 182,-227.78 182,-220.75"/>
<polygon fill="midnightblue" stroke="midnightblue" points="178.5,-247.08 182,-257.08 185.5,-247.08 178.5,-247.08"/>
</g>
<!-- Node9 -->
<g id="node9" class="node">
<title>Node9</title>
<g id="a_node9"><a xlink:href="syscall_8h.html" target="_top" xlink:title=" ">
<polygon fill="none" stroke="black" points="266.5,-140 266.5,-159 391.5,-159 391.5,-140 266.5,-140"/>
<text text-anchor="middle" x="329" y="-147" font-family="Helvetica,sans-Serif" font-size="10.00">include/libc/sys/syscall.h</text>
</a>
</g>
</g>
<!-- Node1&#45;&gt;Node9 -->
<g id="edge12" class="edge">
<title>Node1&#45;&gt;Node9</title>
<path fill="none" stroke="midnightblue" d="M204.48,-251.95C217.74,-243.41 234.67,-232.05 249,-221 275.97,-200.2 305.5,-172.88 319.98,-159.16"/>
<polygon fill="midnightblue" stroke="midnightblue" points="202.52,-249.05 195.97,-257.37 206.28,-254.95 202.52,-249.05"/>
</g>
<!-- Node3&#45;&gt;Node2 -->
<g id="edge9" class="edge">
<title>Node3&#45;&gt;Node2</title>
<path fill="none" stroke="midnightblue" d="M153.47,-197.33C131.79,-187.7 101.98,-174.47 79.58,-164.52"/>
<polygon fill="midnightblue" stroke="midnightblue" points="152.24,-200.62 162.8,-201.48 155.08,-194.22 152.24,-200.62"/>
</g>
<!-- Node4 -->
<g id="node4" class="node">
<title>Node4</title>
<g id="a_node4"><a xlink:href="ipv4_8h.html" target="_top" xlink:title=" ">
<polygon fill="none" stroke="black" points="114.5,-134.5 114.5,-164.5 209.5,-164.5 209.5,-134.5 114.5,-134.5"/>
<text text-anchor="start" x="122.5" y="-152.5" font-family="Helvetica,sans-Serif" font-size="10.00">include/kernel/net</text>
<text text-anchor="middle" x="162" y="-141.5" font-family="Helvetica,sans-Serif" font-size="10.00">/ipv4.h</text>
</a>
</g>
</g>
<!-- Node3&#45;&gt;Node4 -->
<g id="edge3" class="edge">
<title>Node3&#45;&gt;Node4</title>
<path fill="none" stroke="midnightblue" d="M175.89,-191.82C172.94,-183.04 169.45,-172.68 166.71,-164.52"/>
<polygon fill="midnightblue" stroke="midnightblue" points="172.63,-193.11 179.13,-201.48 179.27,-190.88 172.63,-193.11"/>
</g>
<!-- Node5 -->
<g id="node5" class="node">
<title>Node5</title>
<g id="a_node5"><a xlink:href="udp_8h.html" target="_top" xlink:title=" ">
<polygon fill="none" stroke="black" points="139.5,-67.5 139.5,-97.5 234.5,-97.5 234.5,-67.5 139.5,-67.5"/>
<text text-anchor="start" x="147.5" y="-85.5" font-family="Helvetica,sans-Serif" font-size="10.00">include/kernel/net</text>
<text text-anchor="middle" x="187" y="-74.5" font-family="Helvetica,sans-Serif" font-size="10.00">/udp.h</text>
</a>
</g>
</g>
<!-- Node3&#45;&gt;Node5 -->
<g id="edge8" class="edge">
<title>Node3&#45;&gt;Node5</title>
<path fill="none" stroke="midnightblue" d="M199.4,-193.82C206.63,-185.92 214.21,-175.79 218,-165 222.56,-152 221.74,-147.26 218,-134 214.2,-120.54 205.69,-107.12 198.54,-97.51"/>
<polygon fill="midnightblue" stroke="midnightblue" points="196.67,-191.6 192.16,-201.19 201.67,-196.51 196.67,-191.6"/>
</g>
<!-- Node3&#45;&gt;Node9 -->
<g id="edge10" class="edge">
<title>Node3&#45;&gt;Node9</title>
<path fill="none" stroke="midnightblue" d="M212.56,-197.63C241.12,-186.07 283,-169.12 307.98,-159.01"/>
<polygon fill="midnightblue" stroke="midnightblue" points="211.02,-194.48 203.06,-201.48 213.64,-200.97 211.02,-194.48"/>
</g>
<!-- Node4&#45;&gt;Node5 -->
<g id="edge4" class="edge">
<title>Node4&#45;&gt;Node5</title>
<path fill="none" stroke="midnightblue" d="M171.04,-124.99C174.58,-115.8 178.51,-105.58 181.59,-97.58"/>
<polygon fill="midnightblue" stroke="midnightblue" points="167.75,-123.81 167.42,-134.4 174.28,-126.32 167.75,-123.81"/>
</g>
<!-- Node6 -->
<g id="node6" class="node">
<title>Node6</title>
<g id="a_node6"><a xlink:href="dhcp_8h.html" target="_top" xlink:title=" ">
<polygon fill="none" stroke="black" points="26.5,-0.5 26.5,-30.5 121.5,-30.5 121.5,-0.5 26.5,-0.5"/>
<text text-anchor="start" x="34.5" y="-18.5" font-family="Helvetica,sans-Serif" font-size="10.00">include/kernel/net</text>
<text text-anchor="middle" x="74" y="-7.5" font-family="Helvetica,sans-Serif" font-size="10.00">/dhcp.h</text>
</a>
</g>
</g>
<!-- Node5&#45;&gt;Node6 -->
<g id="edge5" class="edge">
<title>Node5&#45;&gt;Node6</title>
<path fill="none" stroke="midnightblue" d="M153.61,-62.3C135.93,-52.12 114.6,-39.85 98.47,-30.58"/>
<polygon fill="midnightblue" stroke="midnightblue" points="152.07,-65.44 162.48,-67.4 155.56,-59.38 152.07,-65.44"/>
</g>
<!-- Node7 -->
<g id="node7" class="node">
<title>Node7</title>
<g id="a_node7"><a xlink:href="dns_8h.html" target="_top" xlink:title=" ">
<polygon fill="none" stroke="black" points="139.5,-0.5 139.5,-30.5 234.5,-30.5 234.5,-0.5 139.5,-0.5"/>
<text text-anchor="start" x="147.5" y="-18.5" font-family="Helvetica,sans-Serif" font-size="10.00">include/kernel/net</text>
<text text-anchor="middle" x="187" y="-7.5" font-family="Helvetica,sans-Serif" font-size="10.00">/dns.h</text>
</a>
</g>
</g>
<!-- Node5&#45;&gt;Node7 -->
<g id="edge6" class="edge">
<title>Node5&#45;&gt;Node7</title>
<path fill="none" stroke="midnightblue" d="M187,-57.11C187,-48.15 187,-38.32 187,-30.58"/>
<polygon fill="midnightblue" stroke="midnightblue" points="183.5,-57.4 187,-67.4 190.5,-57.4 183.5,-57.4"/>
</g>
<!-- Node8 -->
<g id="node8" class="node">
<title>Node8</title>
<g id="a_node8"><a xlink:href="ntp_8h.html" target="_top" xlink:title=" ">
<polygon fill="none" stroke="black" points="252.5,-0.5 252.5,-30.5 347.5,-30.5 347.5,-0.5 252.5,-0.5"/>
<text text-anchor="start" x="260.5" y="-18.5" font-family="Helvetica,sans-Serif" font-size="10.00">include/kernel/net</text>
<text text-anchor="middle" x="300" y="-7.5" font-family="Helvetica,sans-Serif" font-size="10.00">/ntp.h</text>
</a>
</g>
</g>
<!-- Node5&#45;&gt;Node8 -->
<g id="edge7" class="edge">
<title>Node5&#45;&gt;Node8</title>
<path fill="none" stroke="midnightblue" d="M220.39,-62.3C238.07,-52.12 259.4,-39.85 275.53,-30.58"/>
<polygon fill="midnightblue" stroke="midnightblue" points="218.44,-59.38 211.52,-67.4 221.93,-65.44 218.44,-59.38"/>
</g>
<!-- Node10 -->
<g id="node10" class="node">
<title>Node10</title>
<g id="a_node10"><a xlink:href="unistd_8h.html" target="_top" xlink:title=" ">
<polygon fill="none" stroke="black" points="277,-73 277,-92 381,-92 381,-73 277,-73"/>
<text text-anchor="middle" x="329" y="-80" font-family="Helvetica,sans-Serif" font-size="10.00">include/libc/unistd.h</text>
</a>
</g>
</g>
<!-- Node9&#45;&gt;Node10 -->
<g id="edge11" class="edge">
<title>Node9&#45;&gt;Node10</title>
<path fill="none" stroke="midnightblue" d="M329,-129.54C329,-117.17 329,-101.62 329,-92.13"/>
<polygon fill="midnightblue" stroke="midnightblue" points="325.5,-129.73 329,-139.73 332.5,-129.73 325.5,-129.73"/>
</g>
</g>
</svg>
