<?xml version="1.0" encoding="UTF-8" standalone="no"?>
<!DOCTYPE svg PUBLIC "-//W3C//DTD SVG 1.1//EN"
 "http://www.w3.org/Graphics/SVG/1.1/DTD/svg11.dtd">
<!-- Generated by graphviz version 3.0.0 (20220226.1711)
 -->
<!-- Title: include/libc/sys/socket.h Pages: 1 -->
<svg width="398pt" height="285pt"
 viewBox="0.00 0.00 398.00 285.00" xmlns="http://www.w3.org/2000/svg" xmlns:xlink="http://www.w3.org/1999/xlink">
<g id="graph0" class="graph" transform="scale(1 1) rotate(0) translate(4 281)">
<title>include/libc/sys/socket.h</title>
<!-- Node1 -->
<g id="node1" class="node">
<title>Node1</title>
<g id="a_node1"><a xlink:title=" ">
<polygon fill="#bfbfbf" stroke="black" points="117,-257.5 117,-276.5 242,-276.5 242,-257.5 117,-257.5"/>
<text text-anchor="middle" x="179.5" y="-264.5" font-family="Helvetica,sans-Serif" font-size="10.00">include/libc/sys/socket.h</text>
</a>
</g>
</g>
<!-- Node2 -->
<g id="node2" class="node">
<title>Node2</title>
<g id="a_node2"><a xlink:href="k__syscall_8h.html" target="_top" xlink:title=" ">
<polygon fill="none" stroke="black" points="0,-134.5 0,-164.5 95,-164.5 95,-134.5 0,-134.5"/>
<text text-anchor="start" x="8" y="-152.5" font-family="Helvetica,sans-Serif" font-size="10.00">include/kernel/sys</text>
<text text-anchor="middle" x="47.5" y="-141.5" font-family="Helvetica,sans-Serif" font-size="10.00">/k_syscall.h</text>
</a>
</g>
</g>
<!-- Node1&#45;&gt;Node2 -->
<g id="edge1" class="edge">
<title>Node1&#45;&gt;Node2</title>
<path fill="none" stroke="midnightblue" d="M156.1,-251.83C143.05,-243.51 126.81,-232.4 113.5,-221 92.75,-203.22 71.66,-179.5 59.09,-164.61"/>
<polygon fill="midnightblue" stroke="midnightblue" points="154.61,-255.03 164.94,-257.37 158.32,-249.1 154.61,-255.03"/>
</g>
<!-- Node3 -->
<g id="node3" class="node">
<title>Node3</title>
<g id="a_node3"><a xlink:href="inet_8h.html" target="_top" xlink:title=" ">
<polygon fill="none" stroke="black" points="122.5,-201.5 122.5,-220.5 236.5,-220.5 236.5,-201.5 122.5,-201.5"/>
<text text-anchor="middle" x="179.5" y="-208.5" font-family="Helvetica,sans-Serif" font-size="10.00">include/libc/arpa/inet.h</text>
</a>
</g>
</g>
<!-- Node1&#45;&gt;Node3 -->
<g id="edge2" class="edge">
<title>Node1&#45;&gt;Node3</title>
<path fill="none" stroke="midnightblue" d="M179.5,-246.8C179.5,-237.91 179.5,-227.78 179.5,-220.75"/>
<polygon fill="midnightblue" stroke="midnightblue" points="176,-247.08 179.5,-257.08 183,-247.08 176,-247.08"/>
</g>
<!-- Node10 -->
<g id="node10" class="node">
<title>Node10</title>
<g id="a_node10"><a xlink:href="syscall_8h.html" target="_top" xlink:title=" ">
<polygon fill="none" stroke="black" points="262.5,-140 262.5,-159 388.5,-159 388.5,-140 262.5,-140"/>
<text text-anchor="middle" x="325.5" y="-147" font-family="Helvetica,sans-Serif" font-size="10.00">include/libc/sys/syscall.h</text>
</a>
</g>
</g>
<!-- Node1&#45;&gt;Node10 -->
<g id="edge13" class="edge">
<title>Node1&#45;&gt;Node10</title>
<path fill="none" stroke="midnightblue" d="M202,-251.66C214.99,-243.13 231.49,-231.88 245.5,-221 272.4,-200.11 301.96,-172.83 316.46,-159.13"/>
<polygon fill="midnightblue" stroke="midnightblue" points="199.73,-248.96 193.25,-257.34 203.54,-254.83 199.73,-248.96"/>
</g>
<!-- Node3&#45;&gt;Node2 -->
<g id="edge10" class="edge">
<title>Node3&#45;&gt;Node2</title>
<path fill="none" stroke="midnightblue" d="M151.39,-197.33C130.04,-187.7 100.67,-174.47 78.61,-164.52"/>
<polygon fill="midnightblue" stroke="midnightblue" points="150.03,-200.56 160.59,-201.48 152.91,-194.17 150.03,-200.56"/>
</g>
<!-- Node4 -->
<g id="node4" class="node">
<title>Node4</title>
<g id="a_node4"><a xlink:href="ipv4_8h.html" target="_top" xlink:title=" ">
<polygon fill="none" stroke="black" points="113,-134.5 113,-164.5 206,-164.5 206,-134.5 113,-134.5"/>
<text text-anchor="start" x="121" y="-152.5" font-family="Helvetica,sans-Serif" font-size="10.00">include/kernel/net</text>
<text text-anchor="middle" x="159.5" y="-141.5" font-family="Helvetica,sans-Serif" font-size="10.00">/ipv4.h</text>
</a>
</g>
</g>
<!-- Node3&#45;&gt;Node4 -->
<g id="edge3" class="edge">
<title>Node3&#45;&gt;Node4</title>
<path fill="none" stroke="midnightblue" d="M173.39,-191.82C170.44,-183.04 166.95,-172.68 164.21,-164.52"/>
<polygon fill="midnightblue" stroke="midnightblue" points="170.13,-193.11 176.63,-201.48 176.77,-190.88 170.13,-193.11"/>
</g>
<!-- Node6 -->
<g id="node6" class="node">
<title>Node6</title>
<g id="a_node6"><a xlink:href="udp_8h.html" target="_top" xlink:title=" ">
<polygon fill="none" stroke="black" points="176,-67.5 176,-97.5 269,-97.5 269,-67.5 176,-67.5"/>
<text text-anchor="start" x="184" y="-85.5" font-family="Helvetica,sans-Serif" font-size="10.00">include/kernel/net</text>
<text text-anchor="middle" x="222.5" y="-74.5" font-family="Helvetica,sans-Serif" font-size="10.00">/udp.h</text>
</a>
</g>
</g>
<!-- Node3&#45;&gt;Node6 -->
<g id="edge9" class="edge">
<title>Node3&#45;&gt;Node6</title>
<path fill="none" stroke="midnightblue" d="M195.68,-193.87C202.69,-185.86 210.26,-175.64 214.5,-165 223.4,-142.68 224.04,-114.31 223.44,-97.61"/>
<polygon fill="midnightblue" stroke="midnightblue" points="192.98,-191.63 188.73,-201.33 198.11,-196.4 192.98,-191.63"/>
</g>
<!-- Node3&#45;&gt;Node10 -->
<g id="edge11" class="edge">
<title>Node3&#45;&gt;Node10</title>
<path fill="none" stroke="midnightblue" d="M209.85,-197.63C238.21,-186.07 279.81,-169.12 304.62,-159.01"/>
<polygon fill="midnightblue" stroke="midnightblue" points="208.36,-194.46 200.42,-201.48 211,-200.94 208.36,-194.46"/>
</g>
<!-- Node5 -->
<g id="node5" class="node">
<title>Node5</title>
<g id="a_node5"><a xlink:href="icmpv4_8h.html" target="_top" xlink:title=" ">
<polygon fill="none" stroke="black" points="65,-67.5 65,-97.5 158,-97.5 158,-67.5 65,-67.5"/>
<text text-anchor="start" x="73" y="-85.5" font-family="Helvetica,sans-Serif" font-size="10.00">include/kernel/net</text>
<text text-anchor="middle" x="111.5" y="-74.5" font-family="Helvetica,sans-Serif" font-size="10.00">/icmpv4.h</text>
</a>
</g>
</g>
<!-- Node4&#45;&gt;Node5 -->
<g id="edge4" class="edge">
<title>Node4&#45;&gt;Node5</title>
<path fill="none" stroke="midnightblue" d="M143,-126.16C136,-116.68 128.06,-105.92 121.89,-97.58"/>
<polygon fill="midnightblue" stroke="midnightblue" points="140.33,-128.43 149.08,-134.4 145.96,-124.27 140.33,-128.43"/>
</g>
<!-- Node4&#45;&gt;Node6 -->
<g id="edge5" class="edge">
<title>Node4&#45;&gt;Node6</title>
<path fill="none" stroke="midnightblue" d="M180.31,-127.02C189.7,-117.34 200.52,-106.17 208.86,-97.58"/>
<polygon fill="midnightblue" stroke="midnightblue" points="177.62,-124.78 173.17,-134.4 182.64,-129.65 177.62,-124.78"/>
</g>
<!-- Node7 -->
<g id="node7" class="node">
<title>Node7</title>
<g id="a_node7"><a xlink:href="dhcp_8h.html" target="_top" xlink:title=" ">
<polygon fill="none" stroke="black" points="65,-0.5 65,-30.5 158,-30.5 158,-0.5 65,-0.5"/>
<text text-anchor="start" x="73" y="-18.5" font-family="Helvetica,sans-Serif" font-size="10.00">include/kernel/net</text>
<text text-anchor="middle" x="111.5" y="-7.5" font-family="Helvetica,sans-Serif" font-size="10.00">/dhcp.h</text>
</a>
</g>
</g>
<!-- Node6&#45;&gt;Node7 -->
<g id="edge6" class="edge">
<title>Node6&#45;&gt;Node7</title>
<path fill="none" stroke="midnightblue" d="M189.7,-62.3C172.34,-52.12 151.38,-39.85 135.54,-30.58"/>
<polygon fill="midnightblue" stroke="midnightblue" points="188.02,-65.36 198.41,-67.4 191.55,-59.32 188.02,-65.36"/>
</g>
<!-- Node8 -->
<g id="node8" class="node">
<title>Node8</title>
<g id="a_node8"><a xlink:href="dns_8h.html" target="_top" xlink:title=" ">
<polygon fill="none" stroke="black" points="176,-0.5 176,-30.5 269,-30.5 269,-0.5 176,-0.5"/>
<text text-anchor="start" x="184" y="-18.5" font-family="Helvetica,sans-Serif" font-size="10.00">include/kernel/net</text>
<text text-anchor="middle" x="222.5" y="-7.5" font-family="Helvetica,sans-Serif" font-size="10.00">/dns.h</text>
</a>
</g>
</g>
<!-- Node6&#45;&gt;Node8 -->
<g id="edge7" class="edge">
<title>Node6&#45;&gt;Node8</title>
<path fill="none" stroke="midnightblue" d="M222.5,-57.11C222.5,-48.15 222.5,-38.32 222.5,-30.58"/>
<polygon fill="midnightblue" stroke="midnightblue" points="219,-57.4 222.5,-67.4 226,-57.4 219,-57.4"/>
</g>
<!-- Node9 -->
<g id="node9" class="node">
<title>Node9</title>
<g id="a_node9"><a xlink:href="ntp_8h.html" target="_top" xlink:title=" ">
<polygon fill="none" stroke="black" points="287,-0.5 287,-30.5 380,-30.5 380,-0.5 287,-0.5"/>
<text text-anchor="start" x="295" y="-18.5" font-family="Helvetica,sans-Serif" font-size="10.00">include/kernel/net</text>
<text text-anchor="middle" x="333.5" y="-7.5" font-family="Helvetica,sans-Serif" font-size="10.00">/ntp.h</text>
</a>
</g>
</g>
<!-- Node6&#45;&gt;Node9 -->
<g id="edge8" class="edge">
<title>Node6&#45;&gt;Node9</title>
<path fill="none" stroke="midnightblue" d="M255.3,-62.3C272.66,-52.12 293.62,-39.85 309.46,-30.58"/>
<polygon fill="midnightblue" stroke="midnightblue" points="253.45,-59.32 246.59,-67.4 256.98,-65.36 253.45,-59.32"/>
</g>
<!-- Node11 -->
<g id="node11" class="node">
<title>Node11</title>
<g id="a_node11"><a xlink:href="unistd_8h.html" target="_top" xlink:title=" ">
<polygon fill="none" stroke="black" points="287,-73 287,-92 390,-92 390,-73 287,-73"/>
<text text-anchor="middle" x="338.5" y="-80" font-family="Helvetica,sans-Serif" font-size="10.00">include/libc/unistd.h</text>
</a>
</g>
</g>
<!-- Node10&#45;&gt;Node11 -->
<g id="edge12" class="edge">
<title>Node10&#45;&gt;Node11</title>
<path fill="none" stroke="midnightblue" d="M329.22,-129.91C331.7,-117.49 334.86,-101.72 336.77,-92.13"/>
<polygon fill="midnightblue" stroke="midnightblue" points="325.78,-129.24 327.25,-139.73 332.65,-130.61 325.78,-129.24"/>
</g>
</g>
</svg>
