<?xml version="1.0" encoding="UTF-8" standalone="no"?>
<!DOCTYPE svg PUBLIC "-//W3C//DTD SVG 1.1//EN"
 "http://www.w3.org/Graphics/SVG/1.1/DTD/svg11.dtd">
<!-- Generated by graphviz version 8.0.2 (20230410.1723)
 -->
<!-- Title: include/libc/sys/socket.h Pages: 1 -->
<svg width="398pt" height="285pt"
 viewBox="0.00 0.00 398.00 285.00" xmlns="http://www.w3.org/2000/svg" xmlns:xlink="http://www.w3.org/1999/xlink">
<g id="graph0" class="graph" transform="scale(1 1) rotate(0) translate(4 281)">
<title>include/libc/sys/socket.h</title>
<!-- Node1 -->
<g id="node1" class="node">
<title>Node1</title>
<g id="a_node1"><a xlink:title=" ">
<polygon fill="#bfbfbf" stroke="black" points="117,-257.5 117,-276.5 242,-276.5 242,-257.5 117,-257.5"/>
<text text-anchor="middle" x="179.5" y="-264.5" font-family="Helvetica,sans-Serif" font-size="10.00">include/libc/sys/socket.h</text>
</a>
</g>
</g>
<!-- Node2 -->
<g id="node2" class="node">
<title>Node2</title>
<g id="a_node2"><a xlink:href="k__syscall_8h.html" target="_top" xlink:title=" ">
<polygon fill="none" stroke="black" points="0,-134.5 0,-164.5 95,-164.5 95,-134.5 0,-134.5"/>
<text text-anchor="start" x="8" y="-152.5" font-family="Helvetica,sans-Serif" font-size="10.00">include/kernel/sys</text>
<text text-anchor="middle" x="47.5" y="-141.5" font-family="Helvetica,sans-Serif" font-size="10.00">/k_syscall.h</text>
</a>
</g>
</g>
<!-- Node1&#45;&gt;Node2 -->
<g id="edge1" class="edge">
<title>Node1&#45;&gt;Node2</title>
<path fill="none" stroke="midnightblue" d="M155.96,-251.75C142.94,-243.43 126.76,-232.36 113.5,-221 92.62,-203.11 71.41,-179.21 58.85,-164.34"/>
<polygon fill="midnightblue" stroke="midnightblue" points="153.87,-255.19 164.2,-257.53 157.58,-249.26 153.87,-255.19"/>
</g>
<!-- Node3 -->
<g id="node3" class="node">
<title>Node3</title>
<g id="a_node3"><a xlink:href="inet_8h.html" target="_top" xlink:title=" ">
<polygon fill="none" stroke="black" points="122.5,-201.5 122.5,-220.5 236.5,-220.5 236.5,-201.5 122.5,-201.5"/>
<text text-anchor="middle" x="179.5" y="-208.5" font-family="Helvetica,sans-Serif" font-size="10.00">include/libc/arpa/inet.h</text>
</a>
</g>
</g>
<!-- Node1&#45;&gt;Node3 -->
<g id="edge2" class="edge">
<title>Node1&#45;&gt;Node3</title>
<path fill="none" stroke="midnightblue" d="M179.5,-246.72C179.5,-237.61 179.5,-227.22 179.5,-220.2"/>
<polygon fill="midnightblue" stroke="midnightblue" points="176,-246.56 179.5,-256.56 183,-246.56 176,-246.56"/>
</g>
<!-- Node10 -->
<g id="node10" class="node">
<title>Node10</title>
<g id="a_node10"><a xlink:href="syscall_8h.html" target="_top" xlink:title=" ">
<polygon fill="none" stroke="black" points="262.5,-140 262.5,-159 388.5,-159 388.5,-140 262.5,-140"/>
<text text-anchor="middle" x="325.5" y="-147" font-family="Helvetica,sans-Serif" font-size="10.00">include/libc/sys/syscall.h</text>
</a>
</g>
</g>
<!-- Node1&#45;&gt;Node10 -->
<g id="edge13" class="edge">
<title>Node1&#45;&gt;Node10</title>
<path fill="none" stroke="midnightblue" d="M202.14,-251.57C215.11,-243.05 231.54,-231.85 245.5,-221 272.69,-199.88 302.6,-172.23 316.93,-158.69"/>
<polygon fill="midnightblue" stroke="midnightblue" points="200.47,-249.12 193.99,-257.5 204.28,-255 200.47,-249.12"/>
</g>
<!-- Node3&#45;&gt;Node2 -->
<g id="edge10" class="edge">
<title>Node3&#45;&gt;Node2</title>
<path fill="none" stroke="midnightblue" d="M151.08,-197.19C129.71,-187.56 100.46,-174.37 78.49,-164.47"/>
<polygon fill="midnightblue" stroke="midnightblue" points="149.31,-200.68 159.87,-201.6 152.19,-194.3 149.31,-200.68"/>
</g>
<!-- Node4 -->
<g id="node4" class="node">
<title>Node4</title>
<g id="a_node4"><a xlink:href="ipv4_8h.html" target="_top" xlink:title=" ">
<polygon fill="none" stroke="black" points="113,-134.5 113,-164.5 206,-164.5 206,-134.5 113,-134.5"/>
<text text-anchor="start" x="121" y="-152.5" font-family="Helvetica,sans-Serif" font-size="10.00">include/kernel/net</text>
<text text-anchor="middle" x="159.5" y="-141.5" font-family="Helvetica,sans-Serif" font-size="10.00">/ipv4.h</text>
</a>
</g>
</g>
<!-- Node3&#45;&gt;Node4 -->
<g id="edge3" class="edge">
<title>Node3&#45;&gt;Node4</title>
<path fill="none" stroke="midnightblue" d="M173.23,-191.35C170.27,-182.56 166.81,-172.25 164.1,-164.19"/>
<polygon fill="midnightblue" stroke="midnightblue" points="170.22,-192.36 176.72,-200.73 176.85,-190.13 170.22,-192.36"/>
</g>
<!-- Node6 -->
<g id="node6" class="node">
<title>Node6</title>
<g id="a_node6"><a xlink:href="udp_8h.html" target="_top" xlink:title=" ">
<polygon fill="none" stroke="black" points="176,-67.5 176,-97.5 269,-97.5 269,-67.5 176,-67.5"/>
<text text-anchor="start" x="184" y="-85.5" font-family="Helvetica,sans-Serif" font-size="10.00">include/kernel/net</text>
<text text-anchor="middle" x="222.5" y="-74.5" font-family="Helvetica,sans-Serif" font-size="10.00">/udp.h</text>
</a>
</g>
</g>
<!-- Node3&#45;&gt;Node6 -->
<g id="edge9" class="edge">
<title>Node3&#45;&gt;Node6</title>
<path fill="none" stroke="midnightblue" d="M195.86,-193.66C202.82,-185.69 210.29,-175.55 214.5,-165 223.45,-142.55 224.04,-113.98 223.43,-97.31"/>
<polygon fill="midnightblue" stroke="midnightblue" points="193.67,-190.95 189.41,-200.65 198.79,-195.72 193.67,-190.95"/>
</g>
<!-- Node3&#45;&gt;Node10 -->
<g id="edge11" class="edge">
<title>Node3&#45;&gt;Node10</title>
<path fill="none" stroke="midnightblue" d="M209.95,-197.59C238.46,-185.97 280.26,-168.94 305,-158.86"/>
<polygon fill="midnightblue" stroke="midnightblue" points="209.05,-194.59 201.11,-201.6 211.69,-201.07 209.05,-194.59"/>
</g>
<!-- Node5 -->
<g id="node5" class="node">
<title>Node5</title>
<g id="a_node5"><a xlink:href="icmpv4_8h.html" target="_top" xlink:title=" ">
<polygon fill="none" stroke="black" points="65,-67.5 65,-97.5 158,-97.5 158,-67.5 65,-67.5"/>
<text text-anchor="start" x="73" y="-85.5" font-family="Helvetica,sans-Serif" font-size="10.00">include/kernel/net</text>
<text text-anchor="middle" x="111.5" y="-74.5" font-family="Helvetica,sans-Serif" font-size="10.00">/icmpv4.h</text>
</a>
</g>
</g>
<!-- Node4&#45;&gt;Node5 -->
<g id="edge4" class="edge">
<title>Node4&#45;&gt;Node5</title>
<path fill="none" stroke="midnightblue" d="M142.93,-126.06C135.86,-116.48 127.83,-105.62 121.66,-97.26"/>
<polygon fill="midnightblue" stroke="midnightblue" points="140.56,-127.75 149.32,-133.72 146.2,-123.59 140.56,-127.75"/>
</g>
<!-- Node4&#45;&gt;Node6 -->
<g id="edge5" class="edge">
<title>Node4&#45;&gt;Node6</title>
<path fill="none" stroke="midnightblue" d="M180.4,-126.94C189.88,-117.16 200.81,-105.88 209.16,-97.26"/>
<polygon fill="midnightblue" stroke="midnightblue" points="178.31,-124.1 173.86,-133.72 183.33,-128.97 178.31,-124.1"/>
</g>
<!-- Node7 -->
<g id="node7" class="node">
<title>Node7</title>
<g id="a_node7"><a xlink:href="dhcp_8h.html" target="_top" xlink:title=" ">
<polygon fill="none" stroke="black" points="65,-0.5 65,-30.5 158,-30.5 158,-0.5 65,-0.5"/>
<text text-anchor="start" x="73" y="-18.5" font-family="Helvetica,sans-Serif" font-size="10.00">include/kernel/net</text>
<text text-anchor="middle" x="111.5" y="-7.5" font-family="Helvetica,sans-Serif" font-size="10.00">/dhcp.h</text>
</a>
</g>
</g>
<!-- Node6&#45;&gt;Node7 -->
<g id="edge6" class="edge">
<title>Node6&#45;&gt;Node7</title>
<path fill="none" stroke="midnightblue" d="M189.43,-62.14C172.02,-51.94 151.07,-39.67 135.27,-30.42"/>
<polygon fill="midnightblue" stroke="midnightblue" points="187.29,-65.52 197.69,-67.56 190.83,-59.48 187.29,-65.52"/>
</g>
<!-- Node8 -->
<g id="node8" class="node">
<title>Node8</title>
<g id="a_node8"><a xlink:href="dns_8h.html" target="_top" xlink:title=" ">
<polygon fill="none" stroke="black" points="176,-0.5 176,-30.5 269,-30.5 269,-0.5 176,-0.5"/>
<text text-anchor="start" x="184" y="-18.5" font-family="Helvetica,sans-Serif" font-size="10.00">include/kernel/net</text>
<text text-anchor="middle" x="222.5" y="-7.5" font-family="Helvetica,sans-Serif" font-size="10.00">/dns.h</text>
</a>
</g>
</g>
<!-- Node6&#45;&gt;Node8 -->
<g id="edge7" class="edge">
<title>Node6&#45;&gt;Node8</title>
<path fill="none" stroke="midnightblue" d="M222.5,-56.97C222.5,-47.93 222.5,-38.02 222.5,-30.26"/>
<polygon fill="midnightblue" stroke="midnightblue" points="219,-56.72 222.5,-66.72 226,-56.72 219,-56.72"/>
</g>
<!-- Node9 -->
<g id="node9" class="node">
<title>Node9</title>
<g id="a_node9"><a xlink:href="ntp_8h.html" target="_top" xlink:title=" ">
<polygon fill="none" stroke="black" points="287,-0.5 287,-30.5 380,-30.5 380,-0.5 287,-0.5"/>
<text text-anchor="start" x="295" y="-18.5" font-family="Helvetica,sans-Serif" font-size="10.00">include/kernel/net</text>
<text text-anchor="middle" x="333.5" y="-7.5" font-family="Helvetica,sans-Serif" font-size="10.00">/ntp.h</text>
</a>
</g>
</g>
<!-- Node6&#45;&gt;Node9 -->
<g id="edge8" class="edge">
<title>Node6&#45;&gt;Node9</title>
<path fill="none" stroke="midnightblue" d="M255.57,-62.14C272.98,-51.94 293.93,-39.67 309.73,-30.42"/>
<polygon fill="midnightblue" stroke="midnightblue" points="254.17,-59.48 247.31,-67.56 257.71,-65.52 254.17,-59.48"/>
</g>
<!-- Node11 -->
<g id="node11" class="node">
<title>Node11</title>
<g id="a_node11"><a xlink:href="unistd_8h.html" target="_top" xlink:title=" ">
<polygon fill="none" stroke="black" points="287,-73 287,-92 390,-92 390,-73 287,-73"/>
<text text-anchor="middle" x="338.5" y="-80" font-family="Helvetica,sans-Serif" font-size="10.00">include/libc/unistd.h</text>
</a>
</g>
</g>
<!-- Node10&#45;&gt;Node11 -->
<g id="edge12" class="edge">
<title>Node10&#45;&gt;Node11</title>
<path fill="none" stroke="midnightblue" d="M329.34,-129.32C331.83,-116.84 334.96,-101.2 336.84,-91.79"/>
<polygon fill="midnightblue" stroke="midnightblue" points="325.73,-128.51 327.2,-139 332.59,-129.88 325.73,-128.51"/>
</g>
</g>
</svg>
