<?xml version="1.0" encoding="UTF-8" standalone="no"?>
<!DOCTYPE svg PUBLIC "-//W3C//DTD SVG 1.1//EN"
 "http://www.w3.org/Graphics/SVG/1.1/DTD/svg11.dtd">
<!-- Generated by graphviz version 9.0.0 (20230911.1827)
 -->
<!-- Title: include/libc/sys/socket.h Pages: 1 -->
<svg width="396pt" height="282pt"
 viewBox="0.00 0.00 395.50 282.00" xmlns="http://www.w3.org/2000/svg" xmlns:xlink="http://www.w3.org/1999/xlink">
<g id="graph0" class="graph" transform="scale(1 1) rotate(0) translate(4 278)">
<title>include/libc/sys/socket.h</title>
<!-- Node1 -->
<g id="Node000001" class="node">
<title>Node1</title>
<g id="a_Node000001"><a xlink:title=" ">
<polygon fill="#999999" stroke="#666666" points="241.38,-274 117.38,-274 117.38,-254.75 241.38,-254.75 241.38,-274"/>
<text text-anchor="middle" x="179.38" y="-260.5" font-family="Helvetica,sans-Serif" font-size="10.00">include/libc/sys/socket.h</text>
</a>
</g>
</g>
<!-- Node2 -->
<g id="Node000002" class="node">
<title>Node2</title>
<g id="a_Node000002"><a xlink:href="k__syscall_8h.html" target="_top" xlink:title=" ">
<polygon fill="white" stroke="#666666" points="94.75,-163.5 0,-163.5 0,-133 94.75,-133 94.75,-163.5"/>
<text text-anchor="start" x="8" y="-150" font-family="Helvetica,sans-Serif" font-size="10.00">include/kernel/sys</text>
<text text-anchor="middle" x="47.38" y="-138.75" font-family="Helvetica,sans-Serif" font-size="10.00">/k_syscall.h</text>
</a>
</g>
</g>
<!-- Node1&#45;&gt;Node2 -->
<g id="edge1_Node000001_Node000002" class="edge">
<title>Node1&#45;&gt;Node2</title>
<g id="a_edge1_Node000001_Node000002"><a xlink:title=" ">
<path fill="none" stroke="#63b8ff" d="M154.49,-248.36C141.72,-240.22 126.2,-229.61 113.38,-218.75 93.06,-201.54 72.36,-178.69 59.69,-163.98"/>
<polygon fill="#63b8ff" stroke="#63b8ff" points="152.41,-251.19 162.75,-253.52 156.12,-245.26 152.41,-251.19"/>
</a>
</g>
</g>
<!-- Node3 -->
<g id="Node000003" class="node">
<title>Node3</title>
<g id="a_Node000003"><a xlink:href="inet_8h.html" target="_top" xlink:title=" ">
<polygon fill="white" stroke="#666666" points="236.12,-218.75 122.62,-218.75 122.62,-199.5 236.12,-199.5 236.12,-218.75"/>
<text text-anchor="middle" x="179.38" y="-205.25" font-family="Helvetica,sans-Serif" font-size="10.00">include/libc/arpa/inet.h</text>
</a>
</g>
</g>
<!-- Node1&#45;&gt;Node3 -->
<g id="edge2_Node000001_Node000003" class="edge">
<title>Node1&#45;&gt;Node3</title>
<g id="a_edge2_Node000001_Node000003"><a xlink:title=" ">
<path fill="none" stroke="#63b8ff" d="M179.38,-243.13C179.38,-234.84 179.38,-225.67 179.38,-219.11"/>
<polygon fill="#63b8ff" stroke="#63b8ff" points="175.88,-243.07 179.38,-253.07 182.88,-243.07 175.88,-243.07"/>
</a>
</g>
</g>
<!-- Node10 -->
<g id="Node000010" class="node">
<title>Node10</title>
<g id="a_Node000010"><a xlink:href="syscall_8h.html" target="_top" xlink:title=" ">
<polygon fill="white" stroke="#666666" points="387.12,-157.88 261.62,-157.88 261.62,-138.62 387.12,-138.62 387.12,-157.88"/>
<text text-anchor="middle" x="324.38" y="-144.38" font-family="Helvetica,sans-Serif" font-size="10.00">include/libc/sys/syscall.h</text>
</a>
</g>
</g>
<!-- Node1&#45;&gt;Node10 -->
<g id="edge13_Node000001_Node000010" class="edge">
<title>Node1&#45;&gt;Node10</title>
<g id="a_edge13_Node000001_Node000010"><a xlink:title=" ">
<path fill="none" stroke="#63b8ff" d="M203.38,-248.2C216.13,-239.88 231.9,-229.16 245.38,-218.75 271.68,-198.42 300.51,-171.87 314.98,-158.22"/>
<polygon fill="#63b8ff" stroke="#63b8ff" points="201.68,-245.13 195.18,-253.49 205.48,-251.01 201.68,-245.13"/>
</a>
</g>
</g>
<!-- Node3&#45;&gt;Node2 -->
<g id="edge10_Node000003_Node000002" class="edge">
<title>Node3&#45;&gt;Node2</title>
<g id="a_edge10_Node000003_Node000002"><a xlink:title=" ">
<path fill="none" stroke="#63b8ff" d="M148.69,-194.44C128.19,-185.3 101.26,-173.29 80.32,-163.94"/>
<polygon fill="#63b8ff" stroke="#63b8ff" points="147.1,-197.56 157.66,-198.44 149.95,-191.17 147.1,-197.56"/>
</a>
</g>
</g>
<!-- Node4 -->
<g id="Node000004" class="node">
<title>Node4</title>
<g id="a_Node000004"><a xlink:href="ipv4_8h.html" target="_top" xlink:title=" ">
<polygon fill="white" stroke="#666666" points="205.62,-163.5 113.12,-163.5 113.12,-133 205.62,-133 205.62,-163.5"/>
<text text-anchor="start" x="121.12" y="-150" font-family="Helvetica,sans-Serif" font-size="10.00">include/kernel/net</text>
<text text-anchor="middle" x="159.38" y="-138.75" font-family="Helvetica,sans-Serif" font-size="10.00">/ipv4.h</text>
</a>
</g>
</g>
<!-- Node3&#45;&gt;Node4 -->
<g id="edge3_Node000003_Node000004" class="edge">
<title>Node3&#45;&gt;Node4</title>
<g id="a_edge3_Node000003_Node000004"><a xlink:title=" ">
<path fill="none" stroke="#63b8ff" d="M172.7,-188.48C169.96,-180.41 166.84,-171.23 164.31,-163.78"/>
<polygon fill="#63b8ff" stroke="#63b8ff" points="169.32,-189.41 175.85,-197.75 175.95,-187.16 169.32,-189.41"/>
</a>
</g>
</g>
<!-- Node6 -->
<g id="Node000006" class="node">
<title>Node6</title>
<g id="a_Node000006"><a xlink:href="udp_8h.html" target="_top" xlink:title=" ">
<polygon fill="white" stroke="#666666" points="267.62,-97 175.12,-97 175.12,-66.5 267.62,-66.5 267.62,-97"/>
<text text-anchor="start" x="183.12" y="-83.5" font-family="Helvetica,sans-Serif" font-size="10.00">include/kernel/net</text>
<text text-anchor="middle" x="221.38" y="-72.25" font-family="Helvetica,sans-Serif" font-size="10.00">/udp.h</text>
</a>
</g>
</g>
<!-- Node3&#45;&gt;Node6 -->
<g id="edge9_Node000003_Node000006" class="edge">
<title>Node3&#45;&gt;Node6</title>
<g id="a_edge9_Node000003_Node000006"><a xlink:title=" ">
<path fill="none" stroke="#63b8ff" d="M196.76,-190.86C203.44,-183.14 210.42,-173.53 214.38,-163.5 223,-141.64 223.35,-113.94 222.55,-97.32"/>
<polygon fill="#63b8ff" stroke="#63b8ff" points="194.25,-188.42 190,-198.13 199.37,-193.19 194.25,-188.42"/>
</a>
</g>
</g>
<!-- Node3&#45;&gt;Node10 -->
<g id="edge11_Node000003_Node000010" class="edge">
<title>Node3&#45;&gt;Node10</title>
<g id="a_edge11_Node000003_Node000010"><a xlink:title=" ">
<path fill="none" stroke="#63b8ff" d="M212.03,-194.87C239.56,-183.69 278.21,-167.99 302.25,-158.23"/>
<polygon fill="#63b8ff" stroke="#63b8ff" points="211.06,-191.48 203.12,-198.49 213.7,-197.97 211.06,-191.48"/>
</a>
</g>
</g>
<!-- Node5 -->
<g id="Node000005" class="node">
<title>Node5</title>
<g id="a_Node000005"><a xlink:href="icmpv4_8h.html" target="_top" xlink:title=" ">
<polygon fill="white" stroke="#666666" points="156.62,-97 64.12,-97 64.12,-66.5 156.62,-66.5 156.62,-97"/>
<text text-anchor="start" x="72.12" y="-83.5" font-family="Helvetica,sans-Serif" font-size="10.00">include/kernel/net</text>
<text text-anchor="middle" x="110.38" y="-72.25" font-family="Helvetica,sans-Serif" font-size="10.00">/icmpv4.h</text>
</a>
</g>
</g>
<!-- Node4&#45;&gt;Node5 -->
<g id="edge4_Node000004_Node000005" class="edge">
<title>Node4&#45;&gt;Node5</title>
<g id="a_edge4_Node000004_Node000005"><a xlink:title=" ">
<path fill="none" stroke="#63b8ff" d="M141.39,-123.57C134.71,-114.78 127.33,-105.07 121.45,-97.33"/>
<polygon fill="#63b8ff" stroke="#63b8ff" points="138.5,-125.56 147.34,-131.41 144.08,-121.33 138.5,-125.56"/>
</a>
</g>
</g>
<!-- Node4&#45;&gt;Node6 -->
<g id="edge5_Node000004_Node000006" class="edge">
<title>Node4&#45;&gt;Node6</title>
<g id="a_edge5_Node000004_Node000006"><a xlink:title=" ">
<path fill="none" stroke="#63b8ff" d="M181.33,-124.41C189.99,-115.4 199.68,-105.32 207.36,-97.33"/>
<polygon fill="#63b8ff" stroke="#63b8ff" points="178.9,-121.89 174.49,-131.52 183.95,-126.74 178.9,-121.89"/>
</a>
</g>
</g>
<!-- Node7 -->
<g id="Node000007" class="node">
<title>Node7</title>
<g id="a_Node000007"><a xlink:href="dhcp_8h.html" target="_top" xlink:title=" ">
<polygon fill="white" stroke="#666666" points="156.62,-30.5 64.12,-30.5 64.12,0 156.62,0 156.62,-30.5"/>
<text text-anchor="start" x="72.12" y="-17" font-family="Helvetica,sans-Serif" font-size="10.00">include/kernel/net</text>
<text text-anchor="middle" x="110.38" y="-5.75" font-family="Helvetica,sans-Serif" font-size="10.00">/dhcp.h</text>
</a>
</g>
</g>
<!-- Node6&#45;&gt;Node7 -->
<g id="edge6_Node000006_Node000007" class="edge">
<title>Node6&#45;&gt;Node7</title>
<g id="a_edge6_Node000006_Node000007"><a xlink:title=" ">
<path fill="none" stroke="#63b8ff" d="M186.33,-60.39C169.81,-50.79 150.49,-39.56 135.46,-30.83"/>
<polygon fill="#63b8ff" stroke="#63b8ff" points="184.47,-63.36 194.88,-65.35 187.99,-57.3 184.47,-63.36"/>
</a>
</g>
</g>
<!-- Node8 -->
<g id="Node000008" class="node">
<title>Node8</title>
<g id="a_Node000008"><a xlink:href="dns_8h.html" target="_top" xlink:title=" ">
<polygon fill="white" stroke="#666666" points="267.62,-30.5 175.12,-30.5 175.12,0 267.62,0 267.62,-30.5"/>
<text text-anchor="start" x="183.12" y="-17" font-family="Helvetica,sans-Serif" font-size="10.00">include/kernel/net</text>
<text text-anchor="middle" x="221.38" y="-5.75" font-family="Helvetica,sans-Serif" font-size="10.00">/dns.h</text>
</a>
</g>
</g>
<!-- Node6&#45;&gt;Node8 -->
<g id="edge7_Node000006_Node000008" class="edge">
<title>Node6&#45;&gt;Node8</title>
<g id="a_edge7_Node000006_Node000008"><a xlink:title=" ">
<path fill="none" stroke="#63b8ff" d="M221.38,-54.81C221.38,-46.64 221.38,-37.91 221.38,-30.83"/>
<polygon fill="#63b8ff" stroke="#63b8ff" points="217.88,-54.6 221.38,-64.6 224.88,-54.6 217.88,-54.6"/>
</a>
</g>
</g>
<!-- Node9 -->
<g id="Node000009" class="node">
<title>Node9</title>
<g id="a_Node000009"><a xlink:href="ntp_8h.html" target="_top" xlink:title=" ">
<polygon fill="white" stroke="#666666" points="378.62,-30.5 286.12,-30.5 286.12,0 378.62,0 378.62,-30.5"/>
<text text-anchor="start" x="294.12" y="-17" font-family="Helvetica,sans-Serif" font-size="10.00">include/kernel/net</text>
<text text-anchor="middle" x="332.38" y="-5.75" font-family="Helvetica,sans-Serif" font-size="10.00">/ntp.h</text>
</a>
</g>
</g>
<!-- Node6&#45;&gt;Node9 -->
<g id="edge8_Node000006_Node000009" class="edge">
<title>Node6&#45;&gt;Node9</title>
<g id="a_edge8_Node000006_Node000009"><a xlink:title=" ">
<path fill="none" stroke="#63b8ff" d="M256.42,-60.39C272.94,-50.79 292.26,-39.56 307.29,-30.83"/>
<polygon fill="#63b8ff" stroke="#63b8ff" points="254.76,-57.3 247.87,-65.35 258.28,-63.36 254.76,-57.3"/>
</a>
</g>
</g>
<!-- Node11 -->
<g id="Node000011" class="node">
<title>Node11</title>
<g id="a_Node000011"><a xlink:href="unistd_8h.html" target="_top" xlink:title=" ">
<polygon fill="white" stroke="#666666" points="387.5,-91.38 285.25,-91.38 285.25,-72.12 387.5,-72.12 387.5,-91.38"/>
<text text-anchor="middle" x="336.38" y="-77.88" font-family="Helvetica,sans-Serif" font-size="10.00">include/libc/unistd.h</text>
</a>
</g>
</g>
<!-- Node10&#45;&gt;Node11 -->
<g id="edge12_Node000010_Node000011" class="edge">
<title>Node10&#45;&gt;Node11</title>
<g id="a_edge12_Node000010_Node000011"><a xlink:title=" ">
<path fill="none" stroke="#63b8ff" d="M328.11,-127.15C330.33,-115.25 333.02,-100.76 334.72,-91.64"/>
<polygon fill="#63b8ff" stroke="#63b8ff" points="324.71,-126.32 326.32,-136.79 331.59,-127.6 324.71,-126.32"/>
</a>
</g>
</g>
</g>
</svg>
