<?xml version="1.0" encoding="UTF-8" standalone="no"?>
<!DOCTYPE svg PUBLIC "-//W3C//DTD SVG 1.1//EN"
 "http://www.w3.org/Graphics/SVG/1.1/DTD/svg11.dtd">
<!-- Generated by graphviz version 8.0.2 (20230410.1723)
 -->
<!-- Title: include/kernel/fs/sock.h Pages: 1 -->
<svg width="210pt" height="196pt"
 viewBox="0.00 0.00 209.50 196.00" xmlns="http://www.w3.org/2000/svg" xmlns:xlink="http://www.w3.org/1999/xlink">
<g id="graph0" class="graph" transform="scale(1 1) rotate(0) translate(4 192)">
<title>include/kernel/fs/sock.h</title>
<!-- Node1 -->
<g id="node1" class="node">
<title>Node1</title>
<g id="a_node1"><a xlink:title=" ">
<polygon fill="#bfbfbf" stroke="black" points="81.5,-168.5 81.5,-187.5 201.5,-187.5 201.5,-168.5 81.5,-168.5"/>
<text text-anchor="middle" x="141.5" y="-175.5" font-family="Helvetica,sans-Serif" font-size="10.00">include/kernel/fs/sock.h</text>
</a>
</g>
</g>
<!-- Node2 -->
<g id="node2" class="node">
<title>Node2</title>
<g id="a_node2"><a xlink:href="vfs_8h.html" target="_top" xlink:title=" ">
<polygon fill="none" stroke="black" points="90.5,-112.5 90.5,-131.5 140.5,-131.5 140.5,-112.5 90.5,-112.5"/>
<text text-anchor="middle" x="115.5" y="-119.5" font-family="Helvetica,sans-Serif" font-size="10.00">fs/vfs.h</text>
</a>
</g>
</g>
<!-- Node1&#45;&gt;Node2 -->
<g id="edge1" class="edge">
<title>Node1&#45;&gt;Node2</title>
<path fill="none" stroke="midnightblue" d="M137.44,-168.56C133.91,-161.23 128.67,-150.35 124.2,-141.07"/>
<polygon fill="midnightblue" stroke="midnightblue" points="126.94,-139.69 119.45,-132.2 120.63,-142.73 126.94,-139.69"/>
</g>
<!-- Node3 -->
<g id="node3" class="node">
<title>Node3</title>
<g id="a_node3"><a xlink:title=" ">
<polygon fill="none" stroke="#bfbfbf" points="137.5,-0.5 137.5,-19.5 193.5,-19.5 193.5,-0.5 137.5,-0.5"/>
<text text-anchor="middle" x="165.5" y="-7.5" font-family="Helvetica,sans-Serif" font-size="10.00">stdbool.h</text>
</a>
</g>
</g>
<!-- Node1&#45;&gt;Node3 -->
<g id="edge8" class="edge">
<title>Node1&#45;&gt;Node3</title>
<path fill="none" stroke="midnightblue" d="M143.09,-168.72C144.78,-159.71 147.51,-144.86 149.5,-132 155.08,-95.98 160.39,-53.73 163.27,-29.89"/>
<polygon fill="midnightblue" stroke="midnightblue" points="166.83,-30.58 164.54,-20.23 159.88,-29.75 166.83,-30.58"/>
</g>
<!-- Node2&#45;&gt;Node3 -->
<g id="edge2" class="edge">
<title>Node2&#45;&gt;Node3</title>
<path fill="none" stroke="midnightblue" d="M119.26,-112.73C127.29,-95.05 146.31,-53.23 157.29,-29.07"/>
<polygon fill="midnightblue" stroke="midnightblue" points="160.75,-30.92 161.7,-20.36 154.37,-28.02 160.75,-30.92"/>
</g>
<!-- Node4 -->
<g id="node4" class="node">
<title>Node4</title>
<g id="a_node4"><a xlink:title=" ">
<polygon fill="none" stroke="#bfbfbf" points="0,-0.5 0,-19.5 49,-19.5 49,-0.5 0,-0.5"/>
<text text-anchor="middle" x="24.5" y="-7.5" font-family="Helvetica,sans-Serif" font-size="10.00">stdint.h</text>
</a>
</g>
</g>
<!-- Node2&#45;&gt;Node4 -->
<g id="edge3" class="edge">
<title>Node2&#45;&gt;Node4</title>
<path fill="none" stroke="midnightblue" d="M96.94,-112.59C81.99,-104.96 61.41,-92.41 48.5,-76 37.92,-62.54 31.68,-43.96 28.23,-30.11"/>
<polygon fill="midnightblue" stroke="midnightblue" points="31.45,-29.42 25.88,-20.4 24.61,-30.92 31.45,-29.42"/>
</g>
<!-- Node5 -->
<g id="node5" class="node">
<title>Node5</title>
<g id="a_node5"><a xlink:href="types_8h.html" target="_top" xlink:title=" ">
<polygon fill="none" stroke="black" points="57.5,-56.5 57.5,-75.5 125.5,-75.5 125.5,-56.5 57.5,-56.5"/>
<text text-anchor="middle" x="91.5" y="-63.5" font-family="Helvetica,sans-Serif" font-size="10.00">sys/types.h</text>
</a>
</g>
</g>
<!-- Node2&#45;&gt;Node5 -->
<g id="edge4" class="edge">
<title>Node2&#45;&gt;Node5</title>
<path fill="none" stroke="midnightblue" d="M111.75,-112.56C108.49,-105.23 103.66,-94.35 99.53,-85.07"/>
<polygon fill="midnightblue" stroke="midnightblue" points="102.4,-83.92 95.15,-76.2 96.01,-86.76 102.4,-83.92"/>
</g>
<!-- Node5&#45;&gt;Node3 -->
<g id="edge5" class="edge">
<title>Node5&#45;&gt;Node3</title>
<path fill="none" stroke="midnightblue" d="M103.06,-56.56C114.42,-48.27 131.99,-35.45 145.6,-25.52"/>
<polygon fill="midnightblue" stroke="midnightblue" points="147.25,-27.92 153.26,-19.2 143.12,-22.27 147.25,-27.92"/>
</g>
<!-- Node5&#45;&gt;Node4 -->
<g id="edge7" class="edge">
<title>Node5&#45;&gt;Node4</title>
<path fill="none" stroke="midnightblue" d="M81.03,-56.56C70.94,-48.43 55.45,-35.95 43.24,-26.1"/>
<polygon fill="midnightblue" stroke="midnightblue" points="45.66,-22.75 35.68,-19.2 41.27,-28.2 45.66,-22.75"/>
</g>
<!-- Node6 -->
<g id="node6" class="node">
<title>Node6</title>
<g id="a_node6"><a xlink:title=" ">
<polygon fill="none" stroke="#bfbfbf" points="67.5,-0.5 67.5,-19.5 119.5,-19.5 119.5,-0.5 67.5,-0.5"/>
<text text-anchor="middle" x="93.5" y="-7.5" font-family="Helvetica,sans-Serif" font-size="10.00">stddef.h</text>
</a>
</g>
</g>
<!-- Node5&#45;&gt;Node6 -->
<g id="edge6" class="edge">
<title>Node5&#45;&gt;Node6</title>
<path fill="none" stroke="midnightblue" d="M91.81,-56.56C92.08,-49.47 92.46,-39.06 92.8,-29.98"/>
<polygon fill="midnightblue" stroke="midnightblue" points="96.32,-30.32 93.2,-20.2 89.33,-30.07 96.32,-30.32"/>
</g>
</g>
</svg>
