<?xml version="1.0" encoding="UTF-8" standalone="no"?>
<!DOCTYPE svg PUBLIC "-//W3C//DTD SVG 1.1//EN"
 "http://www.w3.org/Graphics/SVG/1.1/DTD/svg11.dtd">
<!-- Generated by graphviz version 8.0.2 (20230410.1723)
 -->
<!-- Title: kmain Pages: 1 -->
<svg width="758pt" height="524pt"
 viewBox="0.00 0.00 758.00 524.00" xmlns="http://www.w3.org/2000/svg" xmlns:xlink="http://www.w3.org/1999/xlink">
<g id="graph0" class="graph" transform="scale(1 1) rotate(0) translate(4 520)">
<title>kmain</title>
<!-- Node1 -->
<g id="Node000001" class="node">
<title>Node1</title>
<g id="a_Node000001"><a xlink:title=" ">
<polygon fill="#999999" stroke="#666666" points="43,-254 0,-254 0,-235 43,-235 43,-254"/>
<text text-anchor="middle" x="21.5" y="-242" font-family="Helvetica,sans-Serif" font-size="10.00">kmain</text>
</a>
</g>
</g>
<!-- Node2 -->
<g id="Node000002" class="node">
<title>Node2</title>
<g id="a_Node000002"><a xlink:href="atag_8c.html#aea5073c4d6bcc47bcf16c68dae9e640b" target="_top" xlink:title=" ">
<polygon fill="white" stroke="#666666" points="175,-364 82,-364 82,-345 175,-345 175,-364"/>
<text text-anchor="middle" x="128.5" y="-352" font-family="Helvetica,sans-Serif" font-size="10.00">atag_get_cmdline</text>
</a>
</g>
</g>
<!-- Node1&#45;&gt;Node2 -->
<g id="edge1_Node000001_Node000002" class="edge">
<title>Node1&#45;&gt;Node2</title>
<g id="a_edge1_Node000001_Node000002"><a xlink:title=" ">
<path fill="none" stroke="#63b8ff" d="M26,-254.3C33.13,-272.91 51.05,-313.54 79,-336.5 80.21,-337.5 81.49,-338.44 82.81,-339.34"/>
<polygon fill="#63b8ff" stroke="#63b8ff" points="80.63,-342.69 91.06,-344.55 84.07,-336.59 80.63,-342.69"/>
</a>
</g>
</g>
<!-- Node3 -->
<g id="Node000003" class="node">
<title>Node3</title>
<g id="a_Node000003"><a xlink:href="atag_8c.html#a3fe6491ab4b334fbbc628611703a6562" target="_top" xlink:title=" ">
<polygon fill="white" stroke="#666666" points="178,-309 79,-309 79,-290 178,-290 178,-309"/>
<text text-anchor="middle" x="128.5" y="-297" font-family="Helvetica,sans-Serif" font-size="10.00">atag_get_initrd2_at</text>
</a>
</g>
</g>
<!-- Node1&#45;&gt;Node3 -->
<g id="edge3_Node000001_Node000003" class="edge">
<title>Node1&#45;&gt;Node3</title>
<g id="a_edge3_Node000001_Node000003"><a xlink:title=" ">
<path fill="none" stroke="#63b8ff" d="M35.46,-254.2C46.6,-262.23 63.3,-273.57 79,-281.5 81.74,-282.89 84.62,-284.22 87.55,-285.5"/>
<polygon fill="#63b8ff" stroke="#63b8ff" points="85.97,-289.04 96.55,-289.59 88.62,-282.56 85.97,-289.04"/>
</a>
</g>
</g>
<!-- Node4 -->
<g id="Node000004" class="node">
<title>Node4</title>
<g id="a_Node000004"><a xlink:href="atag_8c.html#a4211691846343994252b4794b98fee7c" target="_top" xlink:title=" ">
<polygon fill="white" stroke="#666666" points="155,-254 102,-254 102,-235 155,-235 155,-254"/>
<text text-anchor="middle" x="128.5" y="-242" font-family="Helvetica,sans-Serif" font-size="10.00">atag_init</text>
</a>
</g>
</g>
<!-- Node1&#45;&gt;Node4 -->
<g id="edge5_Node000001_Node000004" class="edge">
<title>Node1&#45;&gt;Node4</title>
<g id="a_edge5_Node000001_Node000004"><a xlink:title=" ">
<path fill="none" stroke="#63b8ff" d="M43.5,-244.5C57.11,-244.5 75.21,-244.5 91.12,-244.5"/>
<polygon fill="#63b8ff" stroke="#63b8ff" points="90.71,-248 100.71,-244.5 90.71,-241 90.71,-248"/>
</a>
</g>
</g>
<!-- Node5 -->
<g id="Node000005" class="node">
<title>Node5</title>
<g id="a_Node000005"><a xlink:href="kmain_8c.html#a39b048730ab06513b29030aed1b5d8f4" target="_top" xlink:title=" ">
<polygon fill="white" stroke="#666666" points="175.5,-217 81.5,-217 81.5,-198 175.5,-198 175.5,-217"/>
<text text-anchor="middle" x="128.5" y="-205" font-family="Helvetica,sans-Serif" font-size="10.00">kmain_early_start</text>
</a>
</g>
</g>
<!-- Node1&#45;&gt;Node5 -->
<g id="edge7_Node000001_Node000005" class="edge">
<title>Node1&#45;&gt;Node5</title>
<g id="a_edge7_Node000001_Node000005"><a xlink:title=" ">
<path fill="none" stroke="#63b8ff" d="M43.5,-237.1C56.53,-232.51 73.67,-226.47 89.07,-221.04"/>
<polygon fill="#63b8ff" stroke="#63b8ff" points="90.11,-224.03 98.38,-217.41 87.78,-217.43 90.11,-224.03"/>
</a>
</g>
</g>
<!-- Node6 -->
<g id="Node000006" class="node">
<title>Node6</title>
<g id="a_Node000006"><a xlink:href="kmain_8c.html#a666c17b307920a60e50fcf56312f9500" target="_top" xlink:title=" ">
<polygon fill="white" stroke="#666666" points="162.5,-180 94.5,-180 94.5,-161 162.5,-161 162.5,-180"/>
<text text-anchor="middle" x="128.5" y="-168" font-family="Helvetica,sans-Serif" font-size="10.00">kmain_start</text>
</a>
</g>
</g>
<!-- Node1&#45;&gt;Node6 -->
<g id="edge8_Node000001_Node000006" class="edge">
<title>Node1&#45;&gt;Node6</title>
<g id="a_edge8_Node000001_Node000006"><a xlink:title=" ">
<path fill="none" stroke="#63b8ff" d="M30.37,-234.74C40.51,-222.7 59.21,-202.26 79,-189.5 81.45,-187.92 84.04,-186.44 86.71,-185.06"/>
<polygon fill="#63b8ff" stroke="#63b8ff" points="87.98,-187.86 95.58,-180.48 85.03,-181.52 87.98,-187.86"/>
</a>
</g>
</g>
<!-- Node2&#45;&gt;Node2 -->
<g id="edge2_Node000002_Node000002" class="edge">
<title>Node2&#45;&gt;Node2</title>
<g id="a_edge2_Node000002_Node000002"><a xlink:title=" ">
<path fill="none" stroke="#63b8ff" d="M111.75,-364.37C104.11,-372.94 109.69,-382 128.5,-382 139.37,-382 145.83,-378.97 147.86,-374.76"/>
<polygon fill="#63b8ff" stroke="#63b8ff" points="151.08,-374.21 145.25,-365.37 144.29,-375.92 151.08,-374.21"/>
</a>
</g>
</g>
<!-- Node3&#45;&gt;Node3 -->
<g id="edge4_Node000003_Node000003" class="edge">
<title>Node3&#45;&gt;Node3</title>
<g id="a_edge4_Node000003_Node000003"><a xlink:title=" ">
<path fill="none" stroke="#63b8ff" d="M111.75,-309.37C104.11,-317.94 109.69,-327 128.5,-327 139.37,-327 145.83,-323.97 147.86,-319.76"/>
<polygon fill="#63b8ff" stroke="#63b8ff" points="151.08,-319.21 145.25,-310.37 144.29,-320.92 151.08,-319.21"/>
</a>
</g>
</g>
<!-- Node4&#45;&gt;Node4 -->
<g id="edge6_Node000004_Node000004" class="edge">
<title>Node4&#45;&gt;Node4</title>
<g id="a_edge6_Node000004_Node000004"><a xlink:title=" ">
<path fill="none" stroke="#63b8ff" d="M111.75,-254.37C104.11,-262.94 109.69,-272 128.5,-272 139.37,-272 145.83,-268.97 147.86,-264.76"/>
<polygon fill="#63b8ff" stroke="#63b8ff" points="151.08,-264.21 145.25,-255.37 144.29,-265.92 151.08,-264.21"/>
</a>
</g>
</g>
<!-- Node7 -->
<g id="Node000007" class="node">
<title>Node7</title>
<g id="a_Node000007"><a xlink:href="clock_8c.html#ae9cc0a879e88eea28e4e8b57318ef8e5" target="_top" xlink:title=" ">
<polygon fill="white" stroke="#666666" points="283,-470 225,-470 225,-451 283,-451 283,-470"/>
<text text-anchor="middle" x="254" y="-458" font-family="Helvetica,sans-Serif" font-size="10.00">clock_init</text>
</a>
</g>
</g>
<!-- Node6&#45;&gt;Node7 -->
<g id="edge9_Node000006_Node000007" class="edge">
<title>Node6&#45;&gt;Node7</title>
<g id="a_edge9_Node000006_Node000007"><a xlink:title=" ">
<path fill="none" stroke="#63b8ff" d="M162.82,-178.21C168.61,-180.91 174.03,-184.57 178,-189.5 241.77,-268.73 171.04,-323.31 214,-415.5 218.75,-425.69 226.49,-435.33 233.83,-443.06"/>
<polygon fill="#63b8ff" stroke="#63b8ff" points="230.91,-445.09 240.48,-449.64 235.84,-440.11 230.91,-445.09"/>
</a>
</g>
</g>
<!-- Node10 -->
<g id="Node000010" class="node">
<title>Node10</title>
<g id="a_Node000010"><a xlink:href="isr_8c.html#a2ea31f33125954459edbe7f4d7971ffa" target="_top" xlink:title=" ">
<polygon fill="white" stroke="#666666" points="276.5,-388 231.5,-388 231.5,-369 276.5,-369 276.5,-388"/>
<text text-anchor="middle" x="254" y="-376" font-family="Helvetica,sans-Serif" font-size="10.00">isr_init</text>
</a>
</g>
</g>
<!-- Node6&#45;&gt;Node10 -->
<g id="edge15_Node000006_Node000010" class="edge">
<title>Node6&#45;&gt;Node10</title>
<g id="a_edge15_Node000006_Node000010"><a xlink:title=" ">
<path fill="none" stroke="#63b8ff" d="M162.75,-179.29C168.34,-181.89 173.71,-185.23 178,-189.5 190.63,-202.07 229.98,-312.36 246.06,-358.42"/>
<polygon fill="#63b8ff" stroke="#63b8ff" points="243.02,-359.35 249.61,-367.65 249.63,-357.06 243.02,-359.35"/>
</a>
</g>
</g>
<!-- Node14 -->
<g id="Node000014" class="node">
<title>Node14</title>
<g id="a_Node000014"><a xlink:href="k__syscall_8c.html#a581ed37968ead91b6d3a0b3b7a71da9d" target="_top" xlink:title=" ">
<polygon fill="white" stroke="#666666" points="286.5,-240 221.5,-240 221.5,-221 286.5,-221 286.5,-240"/>
<text text-anchor="middle" x="254" y="-228" font-family="Helvetica,sans-Serif" font-size="10.00">syscall_init</text>
</a>
</g>
</g>
<!-- Node6&#45;&gt;Node14 -->
<g id="edge23_Node000006_Node000014" class="edge">
<title>Node6&#45;&gt;Node14</title>
<g id="a_edge23_Node000006_Node000014"><a xlink:title=" ">
<path fill="none" stroke="#63b8ff" d="M156.69,-180.45C163.71,-183.21 171.2,-186.32 178,-189.5 194.72,-197.3 212.88,-207.2 227.15,-215.31"/>
<polygon fill="#63b8ff" stroke="#63b8ff" points="224.92,-218.64 235.34,-220.59 228.41,-212.57 224.92,-218.64"/>
</a>
</g>
</g>
<!-- Node21 -->
<g id="Node000021" class="node">
<title>Node21</title>
<g id="a_Node000021"><a xlink:href="task_8c.html#a953e6c75292fb9898a9e25af47321da0" target="_top" xlink:title=" ">
<polygon fill="white" stroke="#666666" points="288,-180 220,-180 220,-161 288,-161 288,-180"/>
<text text-anchor="middle" x="254" y="-168" font-family="Helvetica,sans-Serif" font-size="10.00">task_create</text>
</a>
</g>
</g>
<!-- Node6&#45;&gt;Node21 -->
<g id="edge38_Node000006_Node000021" class="edge">
<title>Node6&#45;&gt;Node21</title>
<g id="a_edge38_Node000006_Node000021"><a xlink:title=" ">
<path fill="none" stroke="#63b8ff" d="M162.92,-170.5C177.06,-170.5 193.73,-170.5 208.86,-170.5"/>
<polygon fill="#63b8ff" stroke="#63b8ff" points="208.55,-174 218.55,-170.5 208.55,-167 208.55,-174"/>
</a>
</g>
</g>
<!-- Node24 -->
<g id="Node000024" class="node">
<title>Node24</title>
<g id="a_Node000024"><a xlink:href="include_2kernel_2proc_2task_8h.html#a0dd765564611ce3bf2bd466fe2ca4ae5" target="_top" xlink:title=" ">
<polygon fill="white" stroke="#666666" points="280.5,-143 227.5,-143 227.5,-124 280.5,-124 280.5,-143"/>
<text text-anchor="middle" x="254" y="-131" font-family="Helvetica,sans-Serif" font-size="10.00">task_init</text>
</a>
</g>
</g>
<!-- Node6&#45;&gt;Node24 -->
<g id="edge44_Node000006_Node000024" class="edge">
<title>Node6&#45;&gt;Node24</title>
<g id="a_edge44_Node000006_Node000024"><a xlink:title=" ">
<path fill="none" stroke="#63b8ff" d="M162.6,-160.58C179.4,-155.55 199.84,-149.43 217.03,-144.28"/>
<polygon fill="#63b8ff" stroke="#63b8ff" points="217.68,-147.44 226.26,-141.21 215.67,-140.73 217.68,-147.44"/>
</a>
</g>
</g>
<!-- Node25 -->
<g id="Node000025" class="node">
<title>Node25</title>
<g id="a_Node000025"><a xlink:href="task_8c.html#a7b77adca1da85233e213a9a0eacd8086" target="_top" xlink:title=" ">
<polygon fill="white" stroke="#666666" points="294,-88 214,-88 214,-69 294,-69 294,-88"/>
<text text-anchor="middle" x="254" y="-76" font-family="Helvetica,sans-Serif" font-size="10.00">task_schedule</text>
</a>
</g>
</g>
<!-- Node6&#45;&gt;Node25 -->
<g id="edge45_Node000006_Node000025" class="edge">
<title>Node6&#45;&gt;Node25</title>
<g id="a_edge45_Node000006_Node000025"><a xlink:title=" ">
<path fill="none" stroke="#63b8ff" d="M142.72,-160.65C163.89,-144.88 205.62,-113.8 231.24,-94.71"/>
<polygon fill="#63b8ff" stroke="#63b8ff" points="232.95,-97.06 238.88,-88.27 228.77,-91.44 232.95,-97.06"/>
</a>
</g>
</g>
<!-- Node26 -->
<g id="Node000026" class="node">
<title>Node26</title>
<g id="a_Node000026"><a xlink:href="timer_8c.html#a896a4c37c6ecf8868ef0dc758e5a598c" target="_top" xlink:title=" ">
<polygon fill="white" stroke="#666666" points="282,-24 226,-24 226,-5 282,-5 282,-24"/>
<text text-anchor="middle" x="254" y="-12" font-family="Helvetica,sans-Serif" font-size="10.00">timer_init</text>
</a>
</g>
</g>
<!-- Node6&#45;&gt;Node26 -->
<g id="edge47_Node000006_Node000026" class="edge">
<title>Node6&#45;&gt;Node26</title>
<g id="a_edge47_Node000006_Node000026"><a xlink:title=" ">
<path fill="none" stroke="#63b8ff" d="M136.75,-160.54C151.12,-140.91 184.37,-95.96 214,-59.5 221.37,-50.43 229.84,-40.59 237,-32.43"/>
<polygon fill="#63b8ff" stroke="#63b8ff" points="239.14,-35.16 243.14,-25.35 233.9,-30.53 239.14,-35.16"/>
</a>
</g>
</g>
<!-- Node7&#45;&gt;Node7 -->
<g id="edge14_Node000007_Node000007" class="edge">
<title>Node7&#45;&gt;Node7</title>
<g id="a_edge14_Node000007_Node000007"><a xlink:title=" ">
<path fill="none" stroke="#63b8ff" d="M234.35,-470.37C225.39,-478.94 231.94,-488 254,-488 266.75,-488 274.32,-484.97 276.71,-480.76"/>
<polygon fill="#63b8ff" stroke="#63b8ff" points="279.83,-479.97 273.65,-471.37 273.12,-481.95 279.83,-479.97"/>
</a>
</g>
</g>
<!-- Node8 -->
<g id="Node000008" class="node">
<title>Node8</title>
<g id="a_Node000008"><a xlink:href="kernel_2arch_2x86__64_2arch_2time_8c.html#a6a77f2fd7f917b183c433543789a542b" target="_top" xlink:title=" ">
<polygon fill="white" stroke="#666666" points="424.5,-498 342.5,-498 342.5,-479 424.5,-479 424.5,-498"/>
<text text-anchor="middle" x="383.5" y="-486" font-family="Helvetica,sans-Serif" font-size="10.00">arch_clock_init</text>
</a>
</g>
</g>
<!-- Node7&#45;&gt;Node8 -->
<g id="edge10_Node000007_Node000008" class="edge">
<title>Node7&#45;&gt;Node8</title>
<g id="a_edge10_Node000007_Node000008"><a xlink:title=" ">
<path fill="none" stroke="#63b8ff" d="M283.3,-466.71C297.5,-469.83 315.14,-473.71 331.6,-477.32"/>
<polygon fill="#63b8ff" stroke="#63b8ff" points="330.67,-480.92 341.19,-479.65 332.17,-474.08 330.67,-480.92"/>
</a>
</g>
</g>
<!-- Node8&#45;&gt;Node8 -->
<g id="edge11_Node000008_Node000008" class="edge">
<title>Node8&#45;&gt;Node8</title>
<g id="a_edge11_Node000008_Node000008"><a xlink:title=" ">
<path fill="none" stroke="#63b8ff" d="M363.23,-498.37C353.98,-506.94 360.74,-516 383.5,-516 396.66,-516 404.47,-512.97 406.93,-508.76"/>
<polygon fill="#63b8ff" stroke="#63b8ff" points="410.03,-507.92 403.77,-499.37 403.33,-509.95 410.03,-507.92"/>
</a>
</g>
</g>
<!-- Node9 -->
<g id="Node000009" class="node">
<title>Node9</title>
<g id="a_Node000009"><a xlink:href="fake__clock_8c.html#ae57838590d8d0853b8a6036fbdd0b0d0" target="_top" xlink:title=" ">
<polygon fill="white" stroke="#666666" points="579.5,-498 497.5,-498 497.5,-479 579.5,-479 579.5,-498"/>
<text text-anchor="middle" x="538.5" y="-486" font-family="Helvetica,sans-Serif" font-size="10.00">fake_clock_init</text>
</a>
</g>
</g>
<!-- Node8&#45;&gt;Node9 -->
<g id="edge12_Node000008_Node000009" class="edge">
<title>Node8&#45;&gt;Node9</title>
<g id="a_edge12_Node000008_Node000009"><a xlink:title=" ">
<path fill="none" stroke="#63b8ff" d="M424.7,-488.5C443.52,-488.5 466.17,-488.5 486.21,-488.5"/>
<polygon fill="#63b8ff" stroke="#63b8ff" points="486.04,-492 496.04,-488.5 486.04,-485 486.04,-492"/>
</a>
</g>
</g>
<!-- Node9&#45;&gt;Node9 -->
<g id="edge13_Node000009_Node000009" class="edge">
<title>Node9&#45;&gt;Node9</title>
<g id="a_edge13_Node000009_Node000009"><a xlink:title=" ">
<path fill="none" stroke="#63b8ff" d="M514.23,-498.37C503.17,-506.94 511.25,-516 538.5,-516 554.68,-516 564.1,-512.8 566.77,-508.42"/>
<polygon fill="#63b8ff" stroke="#63b8ff" points="569.72,-507.36 562.77,-499.37 563.22,-509.95 569.72,-507.36"/>
</a>
</g>
</g>
<!-- Node10&#45;&gt;Node10 -->
<g id="edge22_Node000010_Node000010" class="edge">
<title>Node10&#45;&gt;Node10</title>
<g id="a_edge22_Node000010_Node000010"><a xlink:title=" ">
<path fill="none" stroke="#63b8ff" d="M234.35,-388.37C225.39,-396.94 231.94,-406 254,-406 266.75,-406 274.32,-402.97 276.71,-398.76"/>
<polygon fill="#63b8ff" stroke="#63b8ff" points="279.83,-397.97 273.65,-389.37 273.12,-399.95 279.83,-397.97"/>
</a>
</g>
</g>
<!-- Node11 -->
<g id="Node000011" class="node">
<title>Node11</title>
<g id="a_Node000011"><a xlink:href="x86__64_2arch_2core_8c.html#a47cab1ce00bd311c9d2bffeda438fb3f" target="_top" xlink:title=" ">
<polygon fill="white" stroke="#666666" points="418,-443 349,-443 349,-424 418,-424 418,-443"/>
<text text-anchor="middle" x="383.5" y="-431" font-family="Helvetica,sans-Serif" font-size="10.00">arch_isr_init</text>
</a>
</g>
</g>
<!-- Node10&#45;&gt;Node11 -->
<g id="edge16_Node000010_Node000011" class="edge">
<title>Node10&#45;&gt;Node11</title>
<g id="a_edge16_Node000010_Node000011"><a xlink:title=" ">
<path fill="none" stroke="#63b8ff" d="M273.49,-388.45C288.49,-396.32 310.29,-407.3 330,-415.5 333.64,-417.01 337.46,-418.5 341.3,-419.94"/>
<polygon fill="#63b8ff" stroke="#63b8ff" points="339.84,-423.49 350.44,-423.59 342.21,-416.91 339.84,-423.49"/>
</a>
</g>
</g>
<!-- Node12 -->
<g id="Node000012" class="node">
<title>Node12</title>
<g id="a_Node000012"><a xlink:href="isr_8c.html#ab3c2f37893bf0fe6a7efc06e3d908834" target="_top" xlink:title=" ">
<polygon fill="white" stroke="#666666" points="437,-388 330,-388 330,-369 437,-369 437,-388"/>
<text text-anchor="middle" x="383.5" y="-376" font-family="Helvetica,sans-Serif" font-size="10.00">isr_enable_interrupts</text>
</a>
</g>
</g>
<!-- Node10&#45;&gt;Node12 -->
<g id="edge18_Node000010_Node000012" class="edge">
<title>Node10&#45;&gt;Node12</title>
<g id="a_edge18_Node000010_Node000012"><a xlink:title=" ">
<path fill="none" stroke="#63b8ff" d="M276.92,-378.5C288.61,-378.5 303.65,-378.5 318.7,-378.5"/>
<polygon fill="#63b8ff" stroke="#63b8ff" points="318.61,-382 328.61,-378.5 318.61,-375 318.61,-382"/>
</a>
</g>
</g>
<!-- Node11&#45;&gt;Node11 -->
<g id="edge17_Node000011_Node000011" class="edge">
<title>Node11&#45;&gt;Node11</title>
<g id="a_edge17_Node000011_Node000011"><a xlink:title=" ">
<path fill="none" stroke="#63b8ff" d="M363.23,-443.37C353.98,-451.94 360.74,-461 383.5,-461 396.66,-461 404.47,-457.97 406.93,-453.76"/>
<polygon fill="#63b8ff" stroke="#63b8ff" points="410.03,-452.92 403.77,-444.37 403.33,-454.95 410.03,-452.92"/>
</a>
</g>
</g>
<!-- Node12&#45;&gt;Node12 -->
<g id="edge21_Node000012_Node000012" class="edge">
<title>Node12&#45;&gt;Node12</title>
<g id="a_edge21_Node000012_Node000012"><a xlink:title=" ">
<path fill="none" stroke="#63b8ff" d="M363.23,-388.37C353.98,-396.94 360.74,-406 383.5,-406 396.66,-406 404.47,-402.97 406.93,-398.76"/>
<polygon fill="#63b8ff" stroke="#63b8ff" points="410.03,-397.92 403.77,-389.37 403.33,-399.95 410.03,-397.92"/>
</a>
</g>
</g>
<!-- Node13 -->
<g id="Node000013" class="node">
<title>Node13</title>
<g id="a_Node000013"><a xlink:href="x86__64_2arch_2core_8c.html#aa7731a0b3790e18502b0a7b0ea779e4d" target="_top" xlink:title=" ">
<polygon fill="white" stroke="#666666" points="604,-388 473,-388 473,-369 604,-369 604,-388"/>
<text text-anchor="middle" x="538.5" y="-376" font-family="Helvetica,sans-Serif" font-size="10.00">arch_isr_enable_interrupts</text>
</a>
</g>
</g>
<!-- Node12&#45;&gt;Node13 -->
<g id="edge19_Node000012_Node000013" class="edge">
<title>Node12&#45;&gt;Node13</title>
<g id="a_edge19_Node000012_Node000013"><a xlink:title=" ">
<path fill="none" stroke="#63b8ff" d="M437.15,-378.5C445.09,-378.5 453.4,-378.5 461.7,-378.5"/>
<polygon fill="#63b8ff" stroke="#63b8ff" points="461.58,-382 471.58,-378.5 461.58,-375 461.58,-382"/>
</a>
</g>
</g>
<!-- Node13&#45;&gt;Node13 -->
<g id="edge20_Node000013_Node000013" class="edge">
<title>Node13&#45;&gt;Node13</title>
<g id="a_edge20_Node000013_Node000013"><a xlink:title=" ">
<path fill="none" stroke="#63b8ff" d="M514.23,-388.37C503.17,-396.94 511.25,-406 538.5,-406 554.68,-406 564.1,-402.8 566.77,-398.42"/>
<polygon fill="#63b8ff" stroke="#63b8ff" points="569.72,-397.36 562.77,-389.37 563.22,-399.95 569.72,-397.36"/>
</a>
</g>
</g>
<!-- Node14&#45;&gt;Node14 -->
<g id="edge37_Node000014_Node000014" class="edge">
<title>Node14&#45;&gt;Node14</title>
<g id="a_edge37_Node000014_Node000014"><a xlink:title=" ">
<path fill="none" stroke="#63b8ff" d="M234.35,-240.37C225.39,-248.94 231.94,-258 254,-258 266.75,-258 274.32,-254.97 276.71,-250.76"/>
<polygon fill="#63b8ff" stroke="#63b8ff" points="279.83,-249.97 273.65,-241.37 273.12,-251.95 279.83,-249.97"/>
</a>
</g>
</g>
<!-- Node15 -->
<g id="Node000015" class="node">
<title>Node15</title>
<g id="a_Node000015"><a xlink:href="x86__64_2arch_2sys_8c.html#aa375add58c700abbcaa8c54dcab6eea0" target="_top" xlink:title=" ">
<polygon fill="white" stroke="#666666" points="428,-333 339,-333 339,-314 428,-314 428,-333"/>
<text text-anchor="middle" x="383.5" y="-321" font-family="Helvetica,sans-Serif" font-size="10.00">arch_syscall_init</text>
</a>
</g>
</g>
<!-- Node14&#45;&gt;Node15 -->
<g id="edge24_Node000014_Node000015" class="edge">
<title>Node14&#45;&gt;Node15</title>
<g id="a_edge24_Node000014_Node000015"><a xlink:title=" ">
<path fill="none" stroke="#63b8ff" d="M262.44,-240.45C274.8,-256.33 301.1,-287.47 330,-305.5 332.06,-306.78 334.22,-307.99 336.45,-309.12"/>
<polygon fill="#63b8ff" stroke="#63b8ff" points="334.92,-312.72 345.48,-313.6 337.78,-306.33 334.92,-312.72"/>
</a>
</g>
</g>
<!-- Node16 -->
<g id="Node000016" class="node">
<title>Node16</title>
<g id="a_Node000016"><a xlink:href="k__lseek_8c.html#aca2b074f62174df41781abb400ac6c67" target="_top" xlink:title=" ">
<polygon fill="white" stroke="#666666" points="408.5,-278 358.5,-278 358.5,-259 408.5,-259 408.5,-278"/>
<text text-anchor="middle" x="383.5" y="-266" font-family="Helvetica,sans-Serif" font-size="10.00">k_lseek</text>
</a>
</g>
</g>
<!-- Node14&#45;&gt;Node16 -->
<g id="edge26_Node000014_Node000016" class="edge">
<title>Node14&#45;&gt;Node16</title>
<g id="a_edge26_Node000014_Node000016"><a xlink:title=" ">
<path fill="none" stroke="#63b8ff" d="M286.84,-239.99C305.43,-245.53 328.89,-252.52 347.92,-258.19"/>
<polygon fill="#63b8ff" stroke="#63b8ff" points="346.68,-261.77 357.26,-261.28 348.68,-255.07 346.68,-261.77"/>
</a>
</g>
</g>
<!-- Node18 -->
<g id="Node000018" class="node">
<title>Node18</title>
<g id="a_Node000018"><a xlink:href="k__open_8c.html#a8665b78926682de513294b0733aa72e4" target="_top" xlink:title=" ">
<polygon fill="white" stroke="#666666" points="562.5,-203 514.5,-203 514.5,-184 562.5,-184 562.5,-203"/>
<text text-anchor="middle" x="538.5" y="-191" font-family="Helvetica,sans-Serif" font-size="10.00">k_open</text>
</a>
</g>
</g>
<!-- Node14&#45;&gt;Node18 -->
<g id="edge30_Node000014_Node000018" class="edge">
<title>Node14&#45;&gt;Node18</title>
<g id="a_edge30_Node000014_Node000018"><a xlink:title=" ">
<path fill="none" stroke="#63b8ff" d="M286.98,-227.88C323.39,-224.72 384.63,-218.91 437,-211.5 459.15,-208.36 483.89,-203.94 503.28,-200.27"/>
<polygon fill="#63b8ff" stroke="#63b8ff" points="503.86,-203.53 513.02,-198.21 502.54,-196.66 503.86,-203.53"/>
</a>
</g>
</g>
<!-- Node20 -->
<g id="Node000020" class="node">
<title>Node20</title>
<g id="a_Node000020"><a xlink:href="k__openat_8c.html#a256d0b3f99e3a51b61a5f92da3237787" target="_top" xlink:title=" ">
<polygon fill="white" stroke="#666666" points="411.5,-184 355.5,-184 355.5,-165 411.5,-165 411.5,-184"/>
<text text-anchor="middle" x="383.5" y="-172" font-family="Helvetica,sans-Serif" font-size="10.00">k_openat</text>
</a>
</g>
</g>
<!-- Node14&#45;&gt;Node20 -->
<g id="edge34_Node000014_Node000020" class="edge">
<title>Node14&#45;&gt;Node20</title>
<g id="a_edge34_Node000014_Node000020"><a xlink:title=" ">
<path fill="none" stroke="#63b8ff" d="M277.5,-220.62C297.59,-211.79 327.25,-198.77 349.93,-188.81"/>
<polygon fill="#63b8ff" stroke="#63b8ff" points="351.05,-191.7 358.8,-184.47 348.23,-185.29 351.05,-191.7"/>
</a>
</g>
</g>
<!-- Node15&#45;&gt;Node15 -->
<g id="edge25_Node000015_Node000015" class="edge">
<title>Node15&#45;&gt;Node15</title>
<g id="a_edge25_Node000015_Node000015"><a xlink:title=" ">
<path fill="none" stroke="#63b8ff" d="M363.23,-333.37C353.98,-341.94 360.74,-351 383.5,-351 396.66,-351 404.47,-347.97 406.93,-343.76"/>
<polygon fill="#63b8ff" stroke="#63b8ff" points="410.03,-342.92 403.77,-334.37 403.33,-344.95 410.03,-342.92"/>
</a>
</g>
</g>
<!-- Node16&#45;&gt;Node16 -->
<g id="edge29_Node000016_Node000016" class="edge">
<title>Node16&#45;&gt;Node16</title>
<g id="a_edge29_Node000016_Node000016"><a xlink:title=" ">
<path fill="none" stroke="#63b8ff" d="M363.23,-278.37C353.98,-286.94 360.74,-296 383.5,-296 396.66,-296 404.47,-292.97 406.93,-288.76"/>
<polygon fill="#63b8ff" stroke="#63b8ff" points="410.03,-287.92 403.77,-279.37 403.33,-289.95 410.03,-287.92"/>
</a>
</g>
</g>
<!-- Node17 -->
<g id="Node000017" class="node">
<title>Node17</title>
<g id="a_Node000017"><a xlink:href="descriptor_8c.html#ab813e27b51b02aab5c7c6c174ad482a1" target="_top" xlink:title=" ">
<polygon fill="white" stroke="#666666" points="577.5,-278 499.5,-278 499.5,-259 577.5,-259 577.5,-278"/>
<text text-anchor="middle" x="538.5" y="-266" font-family="Helvetica,sans-Serif" font-size="10.00">get_descriptor</text>
</a>
</g>
</g>
<!-- Node16&#45;&gt;Node17 -->
<g id="edge27_Node000016_Node000017" class="edge">
<title>Node16&#45;&gt;Node17</title>
<g id="a_edge27_Node000016_Node000017"><a xlink:title=" ">
<path fill="none" stroke="#63b8ff" d="M408.74,-268.5C430.07,-268.5 461.78,-268.5 488.4,-268.5"/>
<polygon fill="#63b8ff" stroke="#63b8ff" points="488.06,-272 498.06,-268.5 488.06,-265 488.06,-272"/>
</a>
</g>
</g>
<!-- Node17&#45;&gt;Node17 -->
<g id="edge28_Node000017_Node000017" class="edge">
<title>Node17&#45;&gt;Node17</title>
<g id="a_edge28_Node000017_Node000017"><a xlink:title=" ">
<path fill="none" stroke="#63b8ff" d="M514.23,-278.37C503.17,-286.94 511.25,-296 538.5,-296 554.68,-296 564.1,-292.8 566.77,-288.42"/>
<polygon fill="#63b8ff" stroke="#63b8ff" points="569.72,-287.36 562.77,-279.37 563.22,-289.95 569.72,-287.36"/>
</a>
</g>
</g>
<!-- Node18&#45;&gt;Node18 -->
<g id="edge33_Node000018_Node000018" class="edge">
<title>Node18&#45;&gt;Node18</title>
<g id="a_edge33_Node000018_Node000018"><a xlink:title=" ">
<path fill="none" stroke="#63b8ff" d="M514.23,-203.37C503.17,-211.94 511.25,-221 538.5,-221 554.68,-221 564.1,-217.8 566.77,-213.42"/>
<polygon fill="#63b8ff" stroke="#63b8ff" points="569.72,-212.36 562.77,-204.37 563.22,-214.95 569.72,-212.36"/>
</a>
</g>
</g>
<!-- Node19 -->
<g id="Node000019" class="node">
<title>Node19</title>
<g id="a_Node000019"><a xlink:href="descriptor_8c.html#a9d772be036ad7ec4e9e926a190b76003" target="_top" xlink:title=" ">
<polygon fill="white" stroke="#666666" points="750,-203 640,-203 640,-184 750,-184 750,-203"/>
<text text-anchor="middle" x="695" y="-191" font-family="Helvetica,sans-Serif" font-size="10.00">create_file_descriptor</text>
</a>
</g>
</g>
<!-- Node18&#45;&gt;Node19 -->
<g id="edge31_Node000018_Node000019" class="edge">
<title>Node18&#45;&gt;Node19</title>
<g id="a_edge31_Node000018_Node000019"><a xlink:title=" ">
<path fill="none" stroke="#63b8ff" d="M562.97,-193.5C580.46,-193.5 605.25,-193.5 628.57,-193.5"/>
<polygon fill="#63b8ff" stroke="#63b8ff" points="628.5,-197 638.5,-193.5 628.5,-190 628.5,-197"/>
</a>
</g>
</g>
<!-- Node19&#45;&gt;Node19 -->
<g id="edge32_Node000019_Node000019" class="edge">
<title>Node19&#45;&gt;Node19</title>
<g id="a_edge32_Node000019_Node000019"><a xlink:title=" ">
<path fill="none" stroke="#63b8ff" d="M670.5,-203.37C659.32,-211.94 667.49,-221 695,-221 711.33,-221 720.85,-217.8 723.54,-213.42"/>
<polygon fill="#63b8ff" stroke="#63b8ff" points="726.48,-212.34 719.5,-204.37 719.99,-214.95 726.48,-212.34"/>
</a>
</g>
</g>
<!-- Node20&#45;&gt;Node18 -->
<g id="edge35_Node000020_Node000018" class="edge">
<title>Node20&#45;&gt;Node18</title>
<g id="a_edge35_Node000020_Node000018"><a xlink:title=" ">
<path fill="none" stroke="#63b8ff" d="M411.85,-177.9C437.54,-181.09 476.04,-185.87 503.65,-189.3"/>
<polygon fill="#63b8ff" stroke="#63b8ff" points="503.03,-192.87 513.38,-190.63 503.89,-185.92 503.03,-192.87"/>
</a>
</g>
</g>
<!-- Node20&#45;&gt;Node20 -->
<g id="edge36_Node000020_Node000020" class="edge">
<title>Node20&#45;&gt;Node20</title>
<g id="a_edge36_Node000020_Node000020"><a xlink:title=" ">
<path fill="none" stroke="#63b8ff" d="M363.23,-184.37C353.98,-192.94 360.74,-202 383.5,-202 396.66,-202 404.47,-198.97 406.93,-194.76"/>
<polygon fill="#63b8ff" stroke="#63b8ff" points="410.03,-193.92 403.77,-185.37 403.33,-195.95 410.03,-193.92"/>
</a>
</g>
</g>
<!-- Node21&#45;&gt;Node21 -->
<g id="edge43_Node000021_Node000021" class="edge">
<title>Node21&#45;&gt;Node21</title>
<g id="a_edge43_Node000021_Node000021"><a xlink:title=" ">
<path fill="none" stroke="#63b8ff" d="M234.35,-180.37C225.39,-188.94 231.94,-198 254,-198 266.75,-198 274.32,-194.97 276.71,-190.76"/>
<polygon fill="#63b8ff" stroke="#63b8ff" points="279.83,-189.97 273.65,-181.37 273.12,-191.95 279.83,-189.97"/>
</a>
</g>
</g>
<!-- Node22 -->
<g id="Node000022" class="node">
<title>Node22</title>
<g id="a_Node000022"><a xlink:href="arch_2x86__64_2arch_2proc_8c.html#a491927dc191869338fab4ad37da1a743" target="_top" xlink:title=" ">
<polygon fill="white" stroke="#666666" points="429.5,-129 337.5,-129 337.5,-110 429.5,-110 429.5,-129"/>
<text text-anchor="middle" x="383.5" y="-117" font-family="Helvetica,sans-Serif" font-size="10.00">arch_task_create</text>
</a>
</g>
</g>
<!-- Node21&#45;&gt;Node22 -->
<g id="edge39_Node000021_Node000022" class="edge">
<title>Node21&#45;&gt;Node22</title>
<g id="a_edge39_Node000021_Node000022"><a xlink:title=" ">
<path fill="none" stroke="#63b8ff" d="M279.89,-160.55C299.19,-152.82 326.19,-142.02 347.65,-133.44"/>
<polygon fill="#63b8ff" stroke="#63b8ff" points="348.69,-136.39 356.68,-129.43 346.09,-129.89 348.69,-136.39"/>
</a>
</g>
</g>
<!-- Node23 -->
<g id="Node000023" class="node">
<title>Node23</title>
<g id="a_Node000023"><a xlink:href="strncpy_8c.html#a9456973049933ecacd5ad9c4b4f080d8" target="_top" xlink:title="This is actually a safer implementation based on strlcpy().">
<polygon fill="white" stroke="#666666" points="408,-74 359,-74 359,-55 408,-55 408,-74"/>
<text text-anchor="middle" x="383.5" y="-62" font-family="Helvetica,sans-Serif" font-size="10.00">strncpy</text>
</a>
</g>
</g>
<!-- Node21&#45;&gt;Node23 -->
<g id="edge41_Node000021_Node000023" class="edge">
<title>Node21&#45;&gt;Node23</title>
<g id="a_edge41_Node000021_Node000023"><a xlink:title=" ">
<path fill="none" stroke="#63b8ff" d="M281.31,-160.68C285.79,-158.37 290.22,-155.65 294,-152.5 315.32,-134.75 310.37,-121.11 330,-101.5 337.96,-93.54 347.81,-86.11 356.81,-80.02"/>
<polygon fill="#63b8ff" stroke="#63b8ff" points="358.3,-82.58 364.78,-74.2 354.49,-76.71 358.3,-82.58"/>
</a>
</g>
</g>
<!-- Node22&#45;&gt;Node22 -->
<g id="edge40_Node000022_Node000022" class="edge">
<title>Node22&#45;&gt;Node22</title>
<g id="a_edge40_Node000022_Node000022"><a xlink:title=" ">
<path fill="none" stroke="#63b8ff" d="M363.23,-129.37C353.98,-137.94 360.74,-147 383.5,-147 396.66,-147 404.47,-143.97 406.93,-139.76"/>
<polygon fill="#63b8ff" stroke="#63b8ff" points="410.03,-138.92 403.77,-130.37 403.33,-140.95 410.03,-138.92"/>
</a>
</g>
</g>
<!-- Node23&#45;&gt;Node23 -->
<g id="edge42_Node000023_Node000023" class="edge">
<title>Node23&#45;&gt;Node23</title>
<g id="a_edge42_Node000023_Node000023"><a xlink:title=" ">
<path fill="none" stroke="#63b8ff" d="M363.23,-74.37C353.98,-82.94 360.74,-92 383.5,-92 396.66,-92 404.47,-88.97 406.93,-84.76"/>
<polygon fill="#63b8ff" stroke="#63b8ff" points="410.03,-83.92 403.77,-75.37 403.33,-85.95 410.03,-83.92"/>
</a>
</g>
</g>
<!-- Node25&#45;&gt;Node25 -->
<g id="edge46_Node000025_Node000025" class="edge">
<title>Node25&#45;&gt;Node25</title>
<g id="a_edge46_Node000025_Node000025"><a xlink:title=" ">
<path fill="none" stroke="#63b8ff" d="M234.35,-88.37C225.39,-96.94 231.94,-106 254,-106 266.75,-106 274.32,-102.97 276.71,-98.76"/>
<polygon fill="#63b8ff" stroke="#63b8ff" points="279.83,-97.97 273.65,-89.37 273.12,-99.95 279.83,-97.97"/>
</a>
</g>
</g>
<!-- Node26&#45;&gt;Node26 -->
<g id="edge54_Node000026_Node000026" class="edge">
<title>Node26&#45;&gt;Node26</title>
<g id="a_edge54_Node000026_Node000026"><a xlink:title=" ">
<path fill="none" stroke="#63b8ff" d="M234.35,-24.37C225.39,-32.94 231.94,-42 254,-42 266.75,-42 274.32,-38.97 276.71,-34.76"/>
<polygon fill="#63b8ff" stroke="#63b8ff" points="279.83,-33.97 273.65,-25.37 273.12,-35.95 279.83,-33.97"/>
</a>
</g>
</g>
<!-- Node27 -->
<g id="Node000027" class="node">
<title>Node27</title>
<g id="a_Node000027"><a xlink:href="kernel_2arch_2x86__64_2arch_2time_8c.html#a92a37cf9da6c3705b6ef829f1978ab54" target="_top" xlink:title=" ">
<polygon fill="white" stroke="#666666" points="423.5,-19 343.5,-19 343.5,0 423.5,0 423.5,-19"/>
<text text-anchor="middle" x="383.5" y="-7" font-family="Helvetica,sans-Serif" font-size="10.00">arch_timer_init</text>
</a>
</g>
</g>
<!-- Node26&#45;&gt;Node27 -->
<g id="edge48_Node000026_Node000027" class="edge">
<title>Node26&#45;&gt;Node27</title>
<g id="a_edge48_Node000026_Node000027"><a xlink:title=" ">
<path fill="none" stroke="#63b8ff" d="M282.35,-13.43C296.88,-12.86 315.19,-12.14 332.18,-11.47"/>
<polygon fill="#63b8ff" stroke="#63b8ff" points="332.24,-14.93 342.1,-11.05 331.97,-7.94 332.24,-14.93"/>
</a>
</g>
</g>
<!-- Node27&#45;&gt;Node27 -->
<g id="edge49_Node000027_Node000027" class="edge">
<title>Node27&#45;&gt;Node27</title>
<g id="a_edge49_Node000027_Node000027"><a xlink:title=" ">
<path fill="none" stroke="#63b8ff" d="M363.23,-19.37C353.98,-27.94 360.74,-37 383.5,-37 396.66,-37 404.47,-33.97 406.93,-29.76"/>
<polygon fill="#63b8ff" stroke="#63b8ff" points="410.03,-28.92 403.77,-20.37 403.33,-30.95 410.03,-28.92"/>
</a>
</g>
</g>
<!-- Node28 -->
<g id="Node000028" class="node">
<title>Node28</title>
<g id="a_Node000028"><a xlink:href="bcm2835__timer_8c.html#af1c06e30d4cc124b212c408dceaadbd0" target="_top" xlink:title=" ">
<polygon fill="white" stroke="#666666" points="589,-19 488,-19 488,0 589,0 589,-19"/>
<text text-anchor="middle" x="538.5" y="-7" font-family="Helvetica,sans-Serif" font-size="10.00">bcm2835_timer_init</text>
</a>
</g>
</g>
<!-- Node27&#45;&gt;Node28 -->
<g id="edge50_Node000027_Node000028" class="edge">
<title>Node27&#45;&gt;Node28</title>
<g id="a_edge50_Node000027_Node000028"><a xlink:title=" ">
<path fill="none" stroke="#63b8ff" d="M423.9,-9.5C439.96,-9.5 458.89,-9.5 476.65,-9.5"/>
<polygon fill="#63b8ff" stroke="#63b8ff" points="476.52,-13 486.52,-9.5 476.52,-6 476.52,-13"/>
</a>
</g>
</g>
<!-- Node28&#45;&gt;Node28 -->
<g id="edge51_Node000028_Node000028" class="edge">
<title>Node28&#45;&gt;Node28</title>
<g id="a_edge51_Node000028_Node000028"><a xlink:title=" ">
<path fill="none" stroke="#63b8ff" d="M514.23,-19.37C503.17,-27.94 511.25,-37 538.5,-37 554.68,-37 564.1,-33.8 566.77,-29.42"/>
<polygon fill="#63b8ff" stroke="#63b8ff" points="569.72,-28.36 562.77,-20.37 563.22,-30.95 569.72,-28.36"/>
</a>
</g>
</g>
<!-- Node29 -->
<g id="Node000029" class="node">
<title>Node29</title>
<g id="a_Node000029"><a xlink:href="isr_8c.html#a919e035afe984042c7fb8672b16aaf1e" target="_top" xlink:title=" ">
<polygon fill="white" stroke="#666666" points="745.5,-19 644.5,-19 644.5,0 745.5,0 745.5,-19"/>
<text text-anchor="middle" x="695" y="-7" font-family="Helvetica,sans-Serif" font-size="10.00">isr_register_handler</text>
</a>
</g>
</g>
<!-- Node28&#45;&gt;Node29 -->
<g id="edge52_Node000028_Node000029" class="edge">
<title>Node28&#45;&gt;Node29</title>
<g id="a_edge52_Node000028_Node000029"><a xlink:title=" ">
<path fill="none" stroke="#63b8ff" d="M589.24,-9.5C603.22,-9.5 618.6,-9.5 633.16,-9.5"/>
<polygon fill="#63b8ff" stroke="#63b8ff" points="633.09,-13 643.09,-9.5 633.09,-6 633.09,-13"/>
</a>
</g>
</g>
<!-- Node29&#45;&gt;Node29 -->
<g id="edge53_Node000029_Node000029" class="edge">
<title>Node29&#45;&gt;Node29</title>
<g id="a_edge53_Node000029_Node000029"><a xlink:title=" ">
<path fill="none" stroke="#63b8ff" d="M670.5,-19.37C659.32,-27.94 667.49,-37 695,-37 711.33,-37 720.85,-33.8 723.54,-29.42"/>
<polygon fill="#63b8ff" stroke="#63b8ff" points="726.48,-28.34 719.5,-20.37 719.99,-30.95 726.48,-28.34"/>
</a>
</g>
</g>
</g>
</svg>
