<?xml version="1.0" encoding="UTF-8" standalone="no"?>
<!DOCTYPE svg PUBLIC "-//W3C//DTD SVG 1.1//EN"
 "http://www.w3.org/Graphics/SVG/1.1/DTD/svg11.dtd">
<!-- Generated by graphviz version 3.0.0 (20220226.1711)
 -->
<!-- Title: kmain Pages: 1 -->
<svg width="186pt" height="218pt"
 viewBox="0.00 0.00 186.00 218.00" xmlns="http://www.w3.org/2000/svg" xmlns:xlink="http://www.w3.org/1999/xlink">
<g id="graph0" class="graph" transform="scale(1 1) rotate(0) translate(4 214)">
<title>kmain</title>
<!-- Node1 -->
<g id="node1" class="node">
<title>Node1</title>
<g id="a_node1"><a xlink:title=" ">
<polygon fill="#bfbfbf" stroke="black" points="0,-95.5 0,-114.5 43,-114.5 43,-95.5 0,-95.5"/>
<text text-anchor="middle" x="21.5" y="-102.5" font-family="Helvetica,sans-Serif" font-size="10.00">kmain</text>
</a>
</g>
</g>
<!-- Node2 -->
<g id="node2" class="node">
<title>Node2</title>
<g id="a_node2"><a xlink:href="x86__64_2mmu_2alloc_8c.html#a0de47e42c61353f53c07a4274b87f864" target="_top" xlink:title=" ">
<polygon fill="none" stroke="black" points="101,-190.5 101,-209.5 156,-209.5 156,-190.5 101,-190.5"/>
<text text-anchor="middle" x="128.5" y="-197.5" font-family="Helvetica,sans-Serif" font-size="10.00">alloc_init</text>
</a>
</g>
</g>
<!-- Node1&#45;&gt;Node2 -->
<g id="edge1" class="edge">
<title>Node1&#45;&gt;Node2</title>
<path fill="none" stroke="midnightblue" d="M27.28,-114.52C35.68,-130.39 54.57,-162.33 79,-181 82.84,-183.93 87.19,-186.47 91.67,-188.65"/>
<polygon fill="midnightblue" stroke="midnightblue" points="90.36,-191.89 100.93,-192.63 93.12,-185.46 90.36,-191.89"/>
</g>
<!-- Node3 -->
<g id="node3" class="node">
<title>Node3</title>
<g id="a_node3"><a xlink:href="atag_8c.html#aea5073c4d6bcc47bcf16c68dae9e640b" target="_top" xlink:title=" ">
<polygon fill="none" stroke="black" points="82,-152.5 82,-171.5 175,-171.5 175,-152.5 82,-152.5"/>
<text text-anchor="middle" x="128.5" y="-159.5" font-family="Helvetica,sans-Serif" font-size="10.00">atag_get_cmdline</text>
</a>
</g>
</g>
<!-- Node1&#45;&gt;Node3 -->
<g id="edge2" class="edge">
<title>Node1&#45;&gt;Node3</title>
<path fill="none" stroke="midnightblue" d="M35.02,-114.59C46.15,-122.83 63.08,-134.66 79,-143 82.74,-144.96 86.73,-146.84 90.75,-148.6"/>
<polygon fill="midnightblue" stroke="midnightblue" points="89.52,-151.87 100.1,-152.47 92.2,-145.41 89.52,-151.87"/>
</g>
<!-- Node4 -->
<g id="node4" class="node">
<title>Node4</title>
<g id="a_node4"><a xlink:href="atag_8c.html#a3fe6491ab4b334fbbc628611703a6562" target="_top" xlink:title=" ">
<polygon fill="none" stroke="black" points="79,-114.5 79,-133.5 178,-133.5 178,-114.5 79,-114.5"/>
<text text-anchor="middle" x="128.5" y="-121.5" font-family="Helvetica,sans-Serif" font-size="10.00">atag_get_initrd2_at</text>
</a>
</g>
</g>
<!-- Node1&#45;&gt;Node4 -->
<g id="edge3" class="edge">
<title>Node1&#45;&gt;Node4</title>
<path fill="none" stroke="midnightblue" d="M43.24,-108.75C50.79,-110.12 59.75,-111.74 68.95,-113.41"/>
<polygon fill="midnightblue" stroke="midnightblue" points="68.52,-116.88 78.98,-115.22 69.76,-110 68.52,-116.88"/>
</g>
<!-- Node5 -->
<g id="node5" class="node">
<title>Node5</title>
<g id="a_node5"><a xlink:href="atag_8c.html#a4211691846343994252b4794b98fee7c" target="_top" xlink:title=" ">
<polygon fill="none" stroke="black" points="102,-76.5 102,-95.5 155,-95.5 155,-76.5 102,-76.5"/>
<text text-anchor="middle" x="128.5" y="-83.5" font-family="Helvetica,sans-Serif" font-size="10.00">atag_init</text>
</a>
</g>
</g>
<!-- Node1&#45;&gt;Node5 -->
<g id="edge4" class="edge">
<title>Node1&#45;&gt;Node5</title>
<path fill="none" stroke="midnightblue" d="M43.24,-101.25C57.07,-98.74 75.6,-95.39 91.77,-92.47"/>
<polygon fill="midnightblue" stroke="midnightblue" points="92.75,-95.84 101.97,-90.62 91.51,-88.96 92.75,-95.84"/>
</g>
<!-- Node6 -->
<g id="node6" class="node">
<title>Node6</title>
<g id="a_node6"><a xlink:href="kmain_8c.html#a39b048730ab06513b29030aed1b5d8f4" target="_top" xlink:title=" ">
<polygon fill="none" stroke="black" points="81.5,-38.5 81.5,-57.5 175.5,-57.5 175.5,-38.5 81.5,-38.5"/>
<text text-anchor="middle" x="128.5" y="-45.5" font-family="Helvetica,sans-Serif" font-size="10.00">kmain_early_start</text>
</a>
</g>
</g>
<!-- Node1&#45;&gt;Node6 -->
<g id="edge5" class="edge">
<title>Node1&#45;&gt;Node6</title>
<path fill="none" stroke="midnightblue" d="M35.02,-95.41C46.15,-87.17 63.08,-75.34 79,-67 82.74,-65.04 86.73,-63.16 90.75,-61.4"/>
<polygon fill="midnightblue" stroke="midnightblue" points="92.2,-64.59 100.1,-57.53 89.52,-58.13 92.2,-64.59"/>
</g>
<!-- Node7 -->
<g id="node7" class="node">
<title>Node7</title>
<g id="a_node7"><a xlink:href="kmain_8c.html#a666c17b307920a60e50fcf56312f9500" target="_top" xlink:title=" ">
<polygon fill="none" stroke="black" points="94.5,-0.5 94.5,-19.5 162.5,-19.5 162.5,-0.5 94.5,-0.5"/>
<text text-anchor="middle" x="128.5" y="-7.5" font-family="Helvetica,sans-Serif" font-size="10.00">kmain_start</text>
</a>
</g>
</g>
<!-- Node1&#45;&gt;Node7 -->
<g id="edge6" class="edge">
<title>Node1&#45;&gt;Node7</title>
<path fill="none" stroke="midnightblue" d="M27.28,-95.48C35.68,-79.61 54.57,-47.67 79,-29 81.32,-27.22 83.84,-25.59 86.45,-24.1"/>
<polygon fill="midnightblue" stroke="midnightblue" points="88.22,-27.13 95.61,-19.54 85.1,-20.86 88.22,-27.13"/>
</g>
</g>
</svg>
