<?xml version="1.0" encoding="UTF-8" standalone="no"?>
<!DOCTYPE svg PUBLIC "-//W3C//DTD SVG 1.1//EN"
 "http://www.w3.org/Graphics/SVG/1.1/DTD/svg11.dtd">
<!-- Generated by graphviz version 8.0.2 (20230410.1723)
 -->
<!-- Title: kmain Pages: 1 -->
<svg width="181pt" height="66pt"
 viewBox="0.00 0.00 181.00 66.00" xmlns="http://www.w3.org/2000/svg" xmlns:xlink="http://www.w3.org/1999/xlink">
<g id="graph0" class="graph" transform="scale(1 1) rotate(0) translate(4 62)">
<title>kmain</title>
<!-- Node1 -->
<g id="node1" class="node">
<title>Node1</title>
<g id="a_node1"><a xlink:title=" ">
<polygon fill="#bfbfbf" stroke="black" points="0,-19.5 0,-38.5 43,-38.5 43,-19.5 0,-19.5"/>
<text text-anchor="middle" x="21.5" y="-26.5" font-family="Helvetica,sans-Serif" font-size="10.00">kmain</text>
</a>
</g>
</g>
<!-- Node2 -->
<g id="node2" class="node">
<title>Node2</title>
<g id="a_node2"><a xlink:href="atag_8c.html#a4211691846343994252b4794b98fee7c" target="_top" xlink:title=" ">
<polygon fill="none" stroke="black" points="99.5,-38.5 99.5,-57.5 152.5,-57.5 152.5,-38.5 99.5,-38.5"/>
<text text-anchor="middle" x="126" y="-45.5" font-family="Helvetica,sans-Serif" font-size="10.00">atag_init</text>
</a>
</g>
</g>
<!-- Node1&#45;&gt;Node2 -->
<g id="edge1" class="edge">
<title>Node1&#45;&gt;Node2</title>
<path fill="none" stroke="midnightblue" d="M42.75,-32.75C56.02,-35.21 73.74,-38.5 89.33,-41.39"/>
<polygon fill="midnightblue" stroke="midnightblue" points="88.23,-44.93 98.7,-43.31 89.51,-38.05 88.23,-44.93"/>
</g>
<!-- Node3 -->
<g id="node3" class="node">
<title>Node3</title>
<g id="a_node3"><a xlink:href="kmain_8c.html#a39b048730ab06513b29030aed1b5d8f4" target="_top" xlink:title=" ">
<polygon fill="none" stroke="black" points="79,-0.5 79,-19.5 173,-19.5 173,-0.5 79,-0.5"/>
<text text-anchor="middle" x="126" y="-7.5" font-family="Helvetica,sans-Serif" font-size="10.00">kmain_early_start</text>
</a>
</g>
</g>
<!-- Node1&#45;&gt;Node3 -->
<g id="edge2" class="edge">
<title>Node1&#45;&gt;Node3</title>
<path fill="none" stroke="midnightblue" d="M42.75,-25.25C50.38,-23.83 59.48,-22.15 68.8,-20.42"/>
<polygon fill="midnightblue" stroke="midnightblue" points="69.15,-23.73 78.35,-18.46 67.88,-16.84 69.15,-23.73"/>
</g>
</g>
</svg>
