<?xml version="1.0" encoding="UTF-8" standalone="no"?>
<!DOCTYPE svg PUBLIC "-//W3C//DTD SVG 1.1//EN"
 "http://www.w3.org/Graphics/SVG/1.1/DTD/svg11.dtd">
<!-- Generated by graphviz version 8.0.2 (20230410.1723)
 -->
<!-- Title: kmain Pages: 1 -->
<svg width="186pt" height="218pt"
 viewBox="0.00 0.00 186.00 218.00" xmlns="http://www.w3.org/2000/svg" xmlns:xlink="http://www.w3.org/1999/xlink">
<g id="graph0" class="graph" transform="scale(1 1) rotate(0) translate(4 214)">
<title>kmain</title>
<!-- Node1 -->
<g id="node1" class="node">
<title>Node1</title>
<g id="a_node1"><a xlink:title=" ">
<polygon fill="#bfbfbf" stroke="black" points="0,-95.5 0,-114.5 43,-114.5 43,-95.5 0,-95.5"/>
<text text-anchor="middle" x="21.5" y="-102.5" font-family="Helvetica,sans-Serif" font-size="10.00">kmain</text>
</a>
</g>
</g>
<!-- Node2 -->
<g id="node2" class="node">
<title>Node2</title>
<g id="a_node2"><a xlink:href="x86__64_2mmu_2alloc_8c.html#a0de47e42c61353f53c07a4274b87f864" target="_top" xlink:title=" ">
<polygon fill="none" stroke="black" points="101,-190.5 101,-209.5 156,-209.5 156,-190.5 101,-190.5"/>
<text text-anchor="middle" x="128.5" y="-197.5" font-family="Helvetica,sans-Serif" font-size="10.00">alloc_init</text>
</a>
</g>
</g>
<!-- Node1&#45;&gt;Node2 -->
<g id="edge1" class="edge">
<title>Node1&#45;&gt;Node2</title>
<path fill="none" stroke="midnightblue" d="M27.14,-114.27C35.48,-130.04 54.44,-162.23 79,-181 82.68,-183.81 86.82,-186.26 91.1,-188.37"/>
<polygon fill="midnightblue" stroke="midnightblue" points="89.61,-191.97 100.18,-192.72 92.38,-185.54 89.61,-191.97"/>
</g>
<!-- Node3 -->
<g id="node3" class="node">
<title>Node3</title>
<g id="a_node3"><a xlink:href="atag_8c.html#aea5073c4d6bcc47bcf16c68dae9e640b" target="_top" xlink:title=" ">
<polygon fill="none" stroke="black" points="82,-152.5 82,-171.5 175,-171.5 175,-152.5 82,-152.5"/>
<text text-anchor="middle" x="128.5" y="-159.5" font-family="Helvetica,sans-Serif" font-size="10.00">atag_get_cmdline</text>
</a>
</g>
</g>
<!-- Node1&#45;&gt;Node3 -->
<g id="edge2" class="edge">
<title>Node1&#45;&gt;Node3</title>
<path fill="none" stroke="midnightblue" d="M34.58,-114.27C45.7,-122.51 62.88,-134.55 79,-143 82.57,-144.87 86.38,-146.67 90.22,-148.36"/>
<polygon fill="midnightblue" stroke="midnightblue" points="88.77,-151.97 99.35,-152.57 91.46,-145.5 88.77,-151.97"/>
</g>
<!-- Node4 -->
<g id="node4" class="node">
<title>Node4</title>
<g id="a_node4"><a xlink:href="atag_8c.html#a3fe6491ab4b334fbbc628611703a6562" target="_top" xlink:title=" ">
<polygon fill="none" stroke="black" points="79,-114.5 79,-133.5 178,-133.5 178,-114.5 79,-114.5"/>
<text text-anchor="middle" x="128.5" y="-121.5" font-family="Helvetica,sans-Serif" font-size="10.00">atag_get_initrd2_at</text>
</a>
</g>
</g>
<!-- Node1&#45;&gt;Node4 -->
<g id="edge3" class="edge">
<title>Node1&#45;&gt;Node4</title>
<path fill="none" stroke="midnightblue" d="M42.99,-108.71C50.46,-110.06 59.32,-111.66 68.45,-113.31"/>
<polygon fill="midnightblue" stroke="midnightblue" points="67.75,-116.93 78.22,-115.26 69,-110.04 67.75,-116.93"/>
</g>
<!-- Node5 -->
<g id="node5" class="node">
<title>Node5</title>
<g id="a_node5"><a xlink:href="atag_8c.html#a4211691846343994252b4794b98fee7c" target="_top" xlink:title=" ">
<polygon fill="none" stroke="black" points="102,-76.5 102,-95.5 155,-95.5 155,-76.5 102,-76.5"/>
<text text-anchor="middle" x="128.5" y="-83.5" font-family="Helvetica,sans-Serif" font-size="10.00">atag_init</text>
</a>
</g>
</g>
<!-- Node1&#45;&gt;Node5 -->
<g id="edge4" class="edge">
<title>Node1&#45;&gt;Node5</title>
<path fill="none" stroke="midnightblue" d="M42.99,-101.29C56.77,-98.8 75.29,-95.45 91.48,-92.52"/>
<polygon fill="midnightblue" stroke="midnightblue" points="92.02,-95.8 101.24,-90.57 90.77,-88.91 92.02,-95.8"/>
</g>
<!-- Node6 -->
<g id="node6" class="node">
<title>Node6</title>
<g id="a_node6"><a xlink:href="kmain_8c.html#a39b048730ab06513b29030aed1b5d8f4" target="_top" xlink:title=" ">
<polygon fill="none" stroke="black" points="81.5,-38.5 81.5,-57.5 175.5,-57.5 175.5,-38.5 81.5,-38.5"/>
<text text-anchor="middle" x="128.5" y="-45.5" font-family="Helvetica,sans-Serif" font-size="10.00">kmain_early_start</text>
</a>
</g>
</g>
<!-- Node1&#45;&gt;Node6 -->
<g id="edge5" class="edge">
<title>Node1&#45;&gt;Node6</title>
<path fill="none" stroke="midnightblue" d="M34.58,-95.73C45.7,-87.49 62.88,-75.45 79,-67 82.57,-65.13 86.38,-63.33 90.22,-61.64"/>
<polygon fill="midnightblue" stroke="midnightblue" points="91.46,-64.5 99.35,-57.43 88.77,-58.03 91.46,-64.5"/>
</g>
<!-- Node7 -->
<g id="node7" class="node">
<title>Node7</title>
<g id="a_node7"><a xlink:href="kmain_8c.html#a666c17b307920a60e50fcf56312f9500" target="_top" xlink:title=" ">
<polygon fill="none" stroke="black" points="94.5,-0.5 94.5,-19.5 162.5,-19.5 162.5,-0.5 94.5,-0.5"/>
<text text-anchor="middle" x="128.5" y="-7.5" font-family="Helvetica,sans-Serif" font-size="10.00">kmain_start</text>
</a>
</g>
</g>
<!-- Node1&#45;&gt;Node7 -->
<g id="edge6" class="edge">
<title>Node1&#45;&gt;Node7</title>
<path fill="none" stroke="midnightblue" d="M27.14,-95.73C35.48,-79.96 54.44,-47.77 79,-29 81.2,-27.32 83.57,-25.77 86.03,-24.34"/>
<polygon fill="midnightblue" stroke="midnightblue" points="87.48,-27.03 94.86,-19.43 84.35,-20.77 87.48,-27.03"/>
</g>
</g>
</svg>
