<?xml version="1.0" encoding="UTF-8" standalone="no"?>
<!DOCTYPE svg PUBLIC "-//W3C//DTD SVG 1.1//EN"
 "http://www.w3.org/Graphics/SVG/1.1/DTD/svg11.dtd">
<!-- Generated by graphviz version 2.50.0 (20211204.2007)
 -->
<!-- Title: kmain Pages: 1 -->
<svg width="181pt" height="180pt"
 viewBox="0.00 0.00 181.00 180.00" xmlns="http://www.w3.org/2000/svg" xmlns:xlink="http://www.w3.org/1999/xlink">
<g id="graph0" class="graph" transform="scale(1 1) rotate(0) translate(4 176)">
<title>kmain</title>
<!-- Node1 -->
<g id="node1" class="node">
<title>Node1</title>
<g id="a_node1"><a xlink:title=" ">
<polygon fill="#bfbfbf" stroke="black" points="0,-76.5 0,-95.5 43,-95.5 43,-76.5 0,-76.5"/>
<text text-anchor="middle" x="21.5" y="-83.5" font-family="Helvetica,sans-Serif" font-size="10.00">kmain</text>
</a>
</g>
</g>
<!-- Node2 -->
<g id="node2" class="node">
<title>Node2</title>
<g id="a_node2"><a xlink:href="x86__64_2mmu_2alloc_8c.html#a0de47e42c61353f53c07a4274b87f864" target="_top" xlink:title=" ">
<polygon fill="none" stroke="black" points="98.5,-152.5 98.5,-171.5 153.5,-171.5 153.5,-152.5 98.5,-152.5"/>
<text text-anchor="middle" x="126" y="-159.5" font-family="Helvetica,sans-Serif" font-size="10.00">alloc_init</text>
</a>
</g>
</g>
<!-- Node1&#45;&gt;Node2 -->
<g id="edge1" class="edge">
<title>Node1&#45;&gt;Node2</title>
<path fill="none" stroke="midnightblue" d="M29.98,-95.64C40,-108.02 58.86,-129.5 79,-143 82.13,-145.1 85.52,-147.03 89,-148.79"/>
<polygon fill="midnightblue" stroke="midnightblue" points="87.74,-152.07 98.29,-153.07 90.67,-145.71 87.74,-152.07"/>
</g>
<!-- Node3 -->
<g id="node3" class="node">
<title>Node3</title>
<g id="a_node3"><a xlink:href="atag_8c.html#aea5073c4d6bcc47bcf16c68dae9e640b" target="_top" xlink:title=" ">
<polygon fill="none" stroke="black" points="79.5,-114.5 79.5,-133.5 172.5,-133.5 172.5,-114.5 79.5,-114.5"/>
<text text-anchor="middle" x="126" y="-121.5" font-family="Helvetica,sans-Serif" font-size="10.00">atag_get_cmdline</text>
</a>
</g>
</g>
<!-- Node1&#45;&gt;Node3 -->
<g id="edge2" class="edge">
<title>Node1&#45;&gt;Node3</title>
<path fill="none" stroke="midnightblue" d="M43.24,-93.69C56.49,-98.6 74,-105.09 89.43,-110.81"/>
<polygon fill="midnightblue" stroke="midnightblue" points="88.6,-114.24 99.19,-114.43 91.03,-107.67 88.6,-114.24"/>
</g>
<!-- Node4 -->
<g id="node4" class="node">
<title>Node4</title>
<g id="a_node4"><a xlink:href="atag_8c.html#a4211691846343994252b4794b98fee7c" target="_top" xlink:title=" ">
<polygon fill="none" stroke="black" points="99.5,-76.5 99.5,-95.5 152.5,-95.5 152.5,-76.5 99.5,-76.5"/>
<text text-anchor="middle" x="126" y="-83.5" font-family="Helvetica,sans-Serif" font-size="10.00">atag_init</text>
</a>
</g>
</g>
<!-- Node1&#45;&gt;Node4 -->
<g id="edge3" class="edge">
<title>Node1&#45;&gt;Node4</title>
<path fill="none" stroke="midnightblue" d="M43.24,-86C56.36,-86 73.67,-86 88.99,-86"/>
<polygon fill="midnightblue" stroke="midnightblue" points="89.19,-89.5 99.19,-86 89.19,-82.5 89.19,-89.5"/>
</g>
<!-- Node5 -->
<g id="node5" class="node">
<title>Node5</title>
<g id="a_node5"><a xlink:href="kmain_8c.html#a39b048730ab06513b29030aed1b5d8f4" target="_top" xlink:title=" ">
<polygon fill="none" stroke="black" points="79,-38.5 79,-57.5 173,-57.5 173,-38.5 79,-38.5"/>
<text text-anchor="middle" x="126" y="-45.5" font-family="Helvetica,sans-Serif" font-size="10.00">kmain_early_start</text>
</a>
</g>
</g>
<!-- Node1&#45;&gt;Node5 -->
<g id="edge4" class="edge">
<title>Node1&#45;&gt;Node5</title>
<path fill="none" stroke="midnightblue" d="M43.24,-78.31C56.49,-73.4 74,-66.91 89.43,-61.19"/>
<polygon fill="midnightblue" stroke="midnightblue" points="91.03,-64.33 99.19,-57.57 88.6,-57.76 91.03,-64.33"/>
</g>
<!-- Node6 -->
<g id="node6" class="node">
<title>Node6</title>
<g id="a_node6"><a xlink:href="kmain_8c.html#a666c17b307920a60e50fcf56312f9500" target="_top" xlink:title=" ">
<polygon fill="none" stroke="black" points="92,-0.5 92,-19.5 160,-19.5 160,-0.5 92,-0.5"/>
<text text-anchor="middle" x="126" y="-7.5" font-family="Helvetica,sans-Serif" font-size="10.00">kmain_start</text>
</a>
</g>
</g>
<!-- Node1&#45;&gt;Node6 -->
<g id="edge5" class="edge">
<title>Node1&#45;&gt;Node6</title>
<path fill="none" stroke="midnightblue" d="M29.98,-76.36C40,-63.98 58.86,-42.5 79,-29 81.73,-27.17 84.66,-25.47 87.67,-23.89"/>
<polygon fill="midnightblue" stroke="midnightblue" points="89.3,-26.99 96.84,-19.55 86.31,-20.66 89.3,-26.99"/>
</g>
</g>
</svg>
