<?xml version="1.0" encoding="UTF-8" standalone="no"?>
<!DOCTYPE svg PUBLIC "-//W3C//DTD SVG 1.1//EN"
 "http://www.w3.org/Graphics/SVG/1.1/DTD/svg11.dtd">
<!-- Generated by graphviz version 2.49.3 (20211023.0002)
 -->
<!-- Title: kmain Pages: 1 -->
<svg width="182pt" height="180pt"
 viewBox="0.00 0.00 182.00 180.00" xmlns="http://www.w3.org/2000/svg" xmlns:xlink="http://www.w3.org/1999/xlink">
<g id="graph0" class="graph" transform="scale(1 1) rotate(0) translate(4 176)">
<title>kmain</title>
<!-- Node1 -->
<g id="node1" class="node">
<title>Node1</title>
<g id="a_node1"><a xlink:title=" ">
<polygon fill="#bfbfbf" stroke="black" points="0,-76.5 0,-95.5 43,-95.5 43,-76.5 0,-76.5"/>
<text text-anchor="middle" x="21.5" y="-83.5" font-family="Helvetica,sans-Serif" font-size="10.00">kmain</text>
</a>
</g>
</g>
<!-- Node2 -->
<g id="node2" class="node">
<title>Node2</title>
<g id="a_node2"><a xlink:href="x86__64_2mmu_2alloc_8c.html#a0de47e42c61353f53c07a4274b87f864" target="_top" xlink:title=" ">
<polygon fill="none" stroke="black" points="99,-152.5 99,-171.5 154,-171.5 154,-152.5 99,-152.5"/>
<text text-anchor="middle" x="126.5" y="-159.5" font-family="Helvetica,sans-Serif" font-size="10.00">alloc_init</text>
</a>
</g>
</g>
<!-- Node1&#45;&gt;Node2 -->
<g id="edge1" class="edge">
<title>Node1&#45;&gt;Node2</title>
<path fill="none" stroke="midnightblue" d="M29.97,-95.65C39.98,-108.04 58.84,-129.53 79,-143 82.33,-145.23 85.96,-147.26 89.68,-149.11"/>
<polygon fill="midnightblue" stroke="midnightblue" points="88.43,-152.38 98.98,-153.3 91.31,-146 88.43,-152.38"/>
</g>
<!-- Node3 -->
<g id="node3" class="node">
<title>Node3</title>
<g id="a_node3"><a xlink:href="atag_8c.html#aea5073c4d6bcc47bcf16c68dae9e640b" target="_top" xlink:title=" ">
<polygon fill="none" stroke="black" points="79,-114.5 79,-133.5 174,-133.5 174,-114.5 79,-114.5"/>
<text text-anchor="middle" x="126.5" y="-121.5" font-family="Helvetica,sans-Serif" font-size="10.00">atag_get_cmdline</text>
</a>
</g>
</g>
<!-- Node1&#45;&gt;Node3 -->
<g id="edge2" class="edge">
<title>Node1&#45;&gt;Node3</title>
<path fill="none" stroke="midnightblue" d="M43.34,-93.69C56.65,-98.6 74.26,-105.09 89.75,-110.81"/>
<polygon fill="midnightblue" stroke="midnightblue" points="88.97,-114.25 99.57,-114.43 91.4,-107.69 88.97,-114.25"/>
</g>
<!-- Node4 -->
<g id="node4" class="node">
<title>Node4</title>
<g id="a_node4"><a xlink:href="atag_8c.html#a4211691846343994252b4794b98fee7c" target="_top" xlink:title=" ">
<polygon fill="none" stroke="black" points="99.5,-76.5 99.5,-95.5 153.5,-95.5 153.5,-76.5 99.5,-76.5"/>
<text text-anchor="middle" x="126.5" y="-83.5" font-family="Helvetica,sans-Serif" font-size="10.00">atag_init</text>
</a>
</g>
</g>
<!-- Node1&#45;&gt;Node4 -->
<g id="edge3" class="edge">
<title>Node1&#45;&gt;Node4</title>
<path fill="none" stroke="midnightblue" d="M43.34,-86C56.43,-86 73.67,-86 88.98,-86"/>
<polygon fill="midnightblue" stroke="midnightblue" points="89.19,-89.5 99.19,-86 89.19,-82.5 89.19,-89.5"/>
</g>
<!-- Node5 -->
<g id="node5" class="node">
<title>Node5</title>
<g id="a_node5"><a xlink:href="kmain_8c.html#a39b048730ab06513b29030aed1b5d8f4" target="_top" xlink:title=" ">
<polygon fill="none" stroke="black" points="79,-38.5 79,-57.5 174,-57.5 174,-38.5 79,-38.5"/>
<text text-anchor="middle" x="126.5" y="-45.5" font-family="Helvetica,sans-Serif" font-size="10.00">kmain_early_start</text>
</a>
</g>
</g>
<!-- Node1&#45;&gt;Node5 -->
<g id="edge4" class="edge">
<title>Node1&#45;&gt;Node5</title>
<path fill="none" stroke="midnightblue" d="M43.34,-78.31C56.65,-73.4 74.26,-66.91 89.75,-61.19"/>
<polygon fill="midnightblue" stroke="midnightblue" points="91.4,-64.31 99.57,-57.57 88.97,-57.75 91.4,-64.31"/>
</g>
<!-- Node6 -->
<g id="node6" class="node">
<title>Node6</title>
<g id="a_node6"><a xlink:href="kmain_8c.html#a666c17b307920a60e50fcf56312f9500" target="_top" xlink:title=" ">
<polygon fill="none" stroke="black" points="92.5,-0.5 92.5,-19.5 160.5,-19.5 160.5,-0.5 92.5,-0.5"/>
<text text-anchor="middle" x="126.5" y="-7.5" font-family="Helvetica,sans-Serif" font-size="10.00">kmain_start</text>
</a>
</g>
</g>
<!-- Node1&#45;&gt;Node6 -->
<g id="edge5" class="edge">
<title>Node1&#45;&gt;Node6</title>
<path fill="none" stroke="midnightblue" d="M29.97,-76.35C39.98,-63.96 58.84,-42.47 79,-29 81.76,-27.16 84.72,-25.45 87.76,-23.86"/>
<polygon fill="midnightblue" stroke="midnightblue" points="89.47,-26.93 97.04,-19.51 86.5,-20.59 89.47,-26.93"/>
</g>
</g>
</svg>
