<?xml version="1.0" encoding="UTF-8" standalone="no"?>
<!DOCTYPE svg PUBLIC "-//W3C//DTD SVG 1.1//EN"
 "http://www.w3.org/Graphics/SVG/1.1/DTD/svg11.dtd">
<!-- Generated by graphviz version 2.49.3 (20211023.0002)
 -->
<!-- Title: include/libc/sys/stat.h Pages: 1 -->
<svg width="374pt" height="151pt"
 viewBox="0.00 0.00 373.50 151.00" xmlns="http://www.w3.org/2000/svg" xmlns:xlink="http://www.w3.org/1999/xlink">
<g id="graph0" class="graph" transform="scale(1 1) rotate(0) translate(4 147)">
<title>include/libc/sys/stat.h</title>
<!-- Node1 -->
<g id="node1" class="node">
<title>Node1</title>
<g id="a_node1"><a xlink:title=" ">
<polygon fill="#bfbfbf" stroke="black" points="118.5,-123.5 118.5,-142.5 229.5,-142.5 229.5,-123.5 118.5,-123.5"/>
<text text-anchor="middle" x="174" y="-130.5" font-family="Helvetica,sans-Serif" font-size="10.00">include/libc/sys/stat.h</text>
</a>
</g>
</g>
<!-- Node2 -->
<g id="node2" class="node">
<title>Node2</title>
<g id="a_node2"><a xlink:href="inish_8h.html" target="_top" xlink:title=" ">
<polygon fill="none" stroke="black" points="0,-56.5 0,-86.5 108,-86.5 108,-56.5 0,-56.5"/>
<text text-anchor="start" x="8" y="-74.5" font-family="Helvetica,sans-Serif" font-size="10.00">include/kernel/config</text>
<text text-anchor="middle" x="54" y="-63.5" font-family="Helvetica,sans-Serif" font-size="10.00">/inish.h</text>
</a>
</g>
</g>
<!-- Node1&#45;&gt;Node2 -->
<g id="edge1" class="edge">
<title>Node1&#45;&gt;Node2</title>
<path fill="none" stroke="midnightblue" d="M147.66,-118.94C128.31,-109.35 102.07,-96.33 82.28,-86.52"/>
<polygon fill="midnightblue" stroke="midnightblue" points="146.29,-122.17 156.81,-123.48 149.4,-115.9 146.29,-122.17"/>
</g>
<!-- Node3 -->
<g id="node3" class="node">
<title>Node3</title>
<g id="a_node3"><a xlink:href="k__syscall_8h.html" target="_top" xlink:title=" ">
<polygon fill="none" stroke="black" points="126,-56.5 126,-86.5 222,-86.5 222,-56.5 126,-56.5"/>
<text text-anchor="start" x="134" y="-74.5" font-family="Helvetica,sans-Serif" font-size="10.00">include/kernel/sys</text>
<text text-anchor="middle" x="174" y="-63.5" font-family="Helvetica,sans-Serif" font-size="10.00">/k_syscall.h</text>
</a>
</g>
</g>
<!-- Node1&#45;&gt;Node3 -->
<g id="edge2" class="edge">
<title>Node1&#45;&gt;Node3</title>
<path fill="none" stroke="midnightblue" d="M174,-113.23C174,-104.59 174,-94.5 174,-86.52"/>
<polygon fill="midnightblue" stroke="midnightblue" points="170.5,-113.48 174,-123.48 177.5,-113.48 170.5,-113.48"/>
</g>
<!-- Node4 -->
<g id="node4" class="node">
<title>Node4</title>
<g id="a_node4"><a xlink:href="syscall_8h.html" target="_top" xlink:title=" ">
<polygon fill="none" stroke="black" points="240.5,-62 240.5,-81 365.5,-81 365.5,-62 240.5,-62"/>
<text text-anchor="middle" x="303" y="-69" font-family="Helvetica,sans-Serif" font-size="10.00">include/libc/sys/syscall.h</text>
</a>
</g>
</g>
<!-- Node1&#45;&gt;Node4 -->
<g id="edge3" class="edge">
<title>Node1&#45;&gt;Node4</title>
<path fill="none" stroke="midnightblue" d="M201.81,-119.17C226.84,-107.63 262.92,-90.99 284.55,-81.01"/>
<polygon fill="midnightblue" stroke="midnightblue" points="200.1,-116.11 192.48,-123.48 203.03,-122.46 200.1,-116.11"/>
</g>
<!-- Node5 -->
<g id="node5" class="node">
<title>Node5</title>
<g id="a_node5"><a xlink:href="unistd_8h.html" target="_top" xlink:title=" ">
<polygon fill="none" stroke="black" points="251,-0.5 251,-19.5 355,-19.5 355,-0.5 251,-0.5"/>
<text text-anchor="middle" x="303" y="-7.5" font-family="Helvetica,sans-Serif" font-size="10.00">include/libc/unistd.h</text>
</a>
</g>
</g>
<!-- Node4&#45;&gt;Node5 -->
<g id="edge4" class="edge">
<title>Node4&#45;&gt;Node5</title>
<path fill="none" stroke="midnightblue" d="M303,-51.82C303,-41 303,-27.9 303,-19.51"/>
<polygon fill="midnightblue" stroke="midnightblue" points="299.5,-51.98 303,-61.98 306.5,-51.98 299.5,-51.98"/>
</g>
</g>
</svg>
