<?xml version="1.0" encoding="UTF-8" standalone="no"?>
<!DOCTYPE svg PUBLIC "-//W3C//DTD SVG 1.1//EN"
 "http://www.w3.org/Graphics/SVG/1.1/DTD/svg11.dtd">
<!-- Generated by graphviz version 8.0.2 (20230410.1723)
 -->
<!-- Title: include/libc/sys/stat.h Pages: 1 -->
<svg width="372pt" height="148pt"
 viewBox="0.00 0.00 372.00 148.00" xmlns="http://www.w3.org/2000/svg" xmlns:xlink="http://www.w3.org/1999/xlink">
<g id="graph0" class="graph" transform="scale(1 1) rotate(0) translate(4 144)">
<title>include/libc/sys/stat.h</title>
<!-- Node1 -->
<g id="Node000001" class="node">
<title>Node1</title>
<g id="a_Node000001"><a xlink:title=" ">
<polygon fill="#999999" stroke="#666666" points="228,-140 116,-140 116,-121 228,-121 228,-140"/>
<text text-anchor="middle" x="172" y="-128" font-family="Helvetica,sans-Serif" font-size="10.00">include/libc/sys/stat.h</text>
</a>
</g>
</g>
<!-- Node2 -->
<g id="Node000002" class="node">
<title>Node2</title>
<g id="a_Node000002"><a xlink:href="inish_8h.html" target="_top" xlink:title=" ">
<polygon fill="white" stroke="#666666" points="106,-85 0,-85 0,-55 106,-55 106,-85"/>
<text text-anchor="start" x="8" y="-73" font-family="Helvetica,sans-Serif" font-size="10.00">include/kernel/config</text>
<text text-anchor="middle" x="53" y="-62" font-family="Helvetica,sans-Serif" font-size="10.00">/inish.h</text>
</a>
</g>
</g>
<!-- Node1&#45;&gt;Node2 -->
<g id="edge1_Node000001_Node000002" class="edge">
<title>Node1&#45;&gt;Node2</title>
<g id="a_edge1_Node000001_Node000002"><a xlink:title=" ">
<path fill="none" stroke="#63b8ff" d="M144.28,-115.87C125.71,-106.74 101.28,-94.74 82.37,-85.44"/>
<polygon fill="#63b8ff" stroke="#63b8ff" points="142.41,-119.34 152.93,-120.62 145.5,-113.06 142.41,-119.34"/>
</a>
</g>
</g>
<!-- Node3 -->
<g id="Node000003" class="node">
<title>Node3</title>
<g id="a_Node000003"><a xlink:href="k__syscall_8h.html" target="_top" xlink:title=" ">
<polygon fill="white" stroke="#666666" points="219.5,-85 124.5,-85 124.5,-55 219.5,-55 219.5,-85"/>
<text text-anchor="start" x="132.5" y="-73" font-family="Helvetica,sans-Serif" font-size="10.00">include/kernel/sys</text>
<text text-anchor="middle" x="172" y="-62" font-family="Helvetica,sans-Serif" font-size="10.00">/k_syscall.h</text>
</a>
</g>
</g>
<!-- Node1&#45;&gt;Node3 -->
<g id="edge2_Node000001_Node000003" class="edge">
<title>Node1&#45;&gt;Node3</title>
<g id="a_edge2_Node000001_Node000003"><a xlink:title=" ">
<path fill="none" stroke="#63b8ff" d="M172,-110.08C172,-101.92 172,-92.6 172,-85.11"/>
<polygon fill="#63b8ff" stroke="#63b8ff" points="168.5,-109.87 172,-119.87 175.5,-109.87 168.5,-109.87"/>
</a>
</g>
</g>
<!-- Node4 -->
<g id="Node000004" class="node">
<title>Node4</title>
<g id="a_Node000004"><a xlink:href="syscall_8h.html" target="_top" xlink:title=" ">
<polygon fill="white" stroke="#666666" points="364,-79.5 238,-79.5 238,-60.5 364,-60.5 364,-79.5"/>
<text text-anchor="middle" x="301" y="-67.5" font-family="Helvetica,sans-Serif" font-size="10.00">include/libc/sys/syscall.h</text>
</a>
</g>
</g>
<!-- Node1&#45;&gt;Node4 -->
<g id="edge3_Node000001_Node000004" class="edge">
<title>Node1&#45;&gt;Node4</title>
<g id="a_edge3_Node000001_Node000004"><a xlink:title=" ">
<path fill="none" stroke="#63b8ff" d="M201.41,-116.16C225.84,-105.08 259.93,-89.62 281.22,-79.97"/>
<polygon fill="#63b8ff" stroke="#63b8ff" points="200.25,-113.3 192.59,-120.62 203.15,-119.67 200.25,-113.3"/>
</a>
</g>
</g>
<!-- Node5 -->
<g id="Node000005" class="node">
<title>Node5</title>
<g id="a_Node000005"><a xlink:href="unistd_8h.html" target="_top" xlink:title=" ">
<polygon fill="white" stroke="#666666" points="352.5,-19 249.5,-19 249.5,0 352.5,0 352.5,-19"/>
<text text-anchor="middle" x="301" y="-7" font-family="Helvetica,sans-Serif" font-size="10.00">include/libc/unistd.h</text>
</a>
</g>
</g>
<!-- Node4&#45;&gt;Node5 -->
<g id="edge4_Node000004_Node000005" class="edge">
<title>Node4&#45;&gt;Node5</title>
<g id="a_edge4_Node000004_Node000005"><a xlink:title=" ">
<path fill="none" stroke="#63b8ff" d="M301,-49.49C301,-39.22 301,-27.13 301,-19.17"/>
<polygon fill="#63b8ff" stroke="#63b8ff" points="297.5,-49.37 301,-59.37 304.5,-49.37 297.5,-49.37"/>
</a>
</g>
</g>
</g>
</svg>
