<?xml version="1.0" encoding="UTF-8" standalone="no"?>
<!DOCTYPE svg PUBLIC "-//W3C//DTD SVG 1.1//EN"
 "http://www.w3.org/Graphics/SVG/1.1/DTD/svg11.dtd">
<!-- Generated by graphviz version 2.49.3 (20211023.0002)
 -->
<!-- Title: include/libc/stdio.h Pages: 1 -->
<svg width="274pt" height="140pt"
 viewBox="0.00 0.00 273.50 140.00" xmlns="http://www.w3.org/2000/svg" xmlns:xlink="http://www.w3.org/1999/xlink">
<g id="graph0" class="graph" transform="scale(1 1) rotate(0) translate(4 136)">
<title>include/libc/stdio.h</title>
<!-- Node1 -->
<g id="node1" class="node">
<title>Node1</title>
<g id="a_node1"><a xlink:title=" ">
<polygon fill="#bfbfbf" stroke="black" points="83,-112.5 83,-131.5 181,-131.5 181,-112.5 83,-112.5"/>
<text text-anchor="middle" x="132" y="-119.5" font-family="Helvetica,sans-Serif" font-size="10.00">include/libc/stdio.h</text>
</a>
</g>
</g>
<!-- Node2 -->
<g id="node2" class="node">
<title>Node2</title>
<g id="a_node2"><a xlink:href="logging_8h.html" target="_top" xlink:title="This is the general kernel logging module.">
<polygon fill="none" stroke="black" points="0,-56.5 0,-75.5 122,-75.5 122,-56.5 0,-56.5"/>
<text text-anchor="middle" x="61" y="-63.5" font-family="Helvetica,sans-Serif" font-size="10.00">include/kernel/logging.h</text>
</a>
</g>
</g>
<!-- Node1&#45;&gt;Node2 -->
<g id="edge1" class="edge">
<title>Node1&#45;&gt;Node2</title>
<path fill="none" stroke="midnightblue" d="M112.41,-106.1C99.63,-96.38 83.39,-84.03 72.61,-75.83"/>
<polygon fill="midnightblue" stroke="midnightblue" points="110.51,-109.06 120.59,-112.32 114.75,-103.48 110.51,-109.06"/>
</g>
<!-- Node4 -->
<g id="node4" class="node">
<title>Node4</title>
<g id="a_node4"><a xlink:href="syscall_8h.html" target="_top" xlink:title=" ">
<polygon fill="none" stroke="black" points="140.5,-56.5 140.5,-75.5 265.5,-75.5 265.5,-56.5 140.5,-56.5"/>
<text text-anchor="middle" x="203" y="-63.5" font-family="Helvetica,sans-Serif" font-size="10.00">include/libc/sys/syscall.h</text>
</a>
</g>
</g>
<!-- Node1&#45;&gt;Node4 -->
<g id="edge3" class="edge">
<title>Node1&#45;&gt;Node4</title>
<path fill="none" stroke="midnightblue" d="M151.59,-106.1C164.37,-96.38 180.61,-84.03 191.39,-75.83"/>
<polygon fill="midnightblue" stroke="midnightblue" points="149.25,-103.48 143.41,-112.32 153.49,-109.06 149.25,-103.48"/>
</g>
<!-- Node3 -->
<g id="node3" class="node">
<title>Node3</title>
<g id="a_node3"><a xlink:href="panic_8h.html" target="_top" xlink:title=" ">
<polygon fill="none" stroke="black" points="4.5,-0.5 4.5,-19.5 117.5,-19.5 117.5,-0.5 4.5,-0.5"/>
<text text-anchor="middle" x="61" y="-7.5" font-family="Helvetica,sans-Serif" font-size="10.00">include/kernel/panic.h</text>
</a>
</g>
</g>
<!-- Node2&#45;&gt;Node3 -->
<g id="edge2" class="edge">
<title>Node2&#45;&gt;Node3</title>
<path fill="none" stroke="midnightblue" d="M61,-45.8C61,-36.91 61,-26.78 61,-19.75"/>
<polygon fill="midnightblue" stroke="midnightblue" points="57.5,-46.08 61,-56.08 64.5,-46.08 57.5,-46.08"/>
</g>
<!-- Node5 -->
<g id="node5" class="node">
<title>Node5</title>
<g id="a_node5"><a xlink:href="unistd_8h.html" target="_top" xlink:title=" ">
<polygon fill="none" stroke="black" points="151,-0.5 151,-19.5 255,-19.5 255,-0.5 151,-0.5"/>
<text text-anchor="middle" x="203" y="-7.5" font-family="Helvetica,sans-Serif" font-size="10.00">include/libc/unistd.h</text>
</a>
</g>
</g>
<!-- Node4&#45;&gt;Node5 -->
<g id="edge4" class="edge">
<title>Node4&#45;&gt;Node5</title>
<path fill="none" stroke="midnightblue" d="M203,-45.8C203,-36.91 203,-26.78 203,-19.75"/>
<polygon fill="midnightblue" stroke="midnightblue" points="199.5,-46.08 203,-56.08 206.5,-46.08 199.5,-46.08"/>
</g>
</g>
</svg>
