<?xml version="1.0" encoding="UTF-8" standalone="no"?>
<!DOCTYPE svg PUBLIC "-//W3C//DTD SVG 1.1//EN"
 "http://www.w3.org/Graphics/SVG/1.1/DTD/svg11.dtd">
<!-- Generated by graphviz version 8.0.2 (20230410.1723)
 -->
<!-- Title: putchar Pages: 1 -->
<svg width="147pt" height="45pt"
 viewBox="0.00 0.00 147.00 45.00" xmlns="http://www.w3.org/2000/svg" xmlns:xlink="http://www.w3.org/1999/xlink">
<g id="graph0" class="graph" transform="scale(1 1) rotate(0) translate(4 41)">
<title>putchar</title>
<!-- Node1 -->
<g id="Node000001" class="node">
<title>Node1</title>
<g id="a_Node000001"><a xlink:title=" ">
<polygon fill="#999999" stroke="#666666" points="139,-19 90,-19 90,0 139,0 139,-19"/>
<text text-anchor="middle" x="114.5" y="-7" font-family="Helvetica,sans-Serif" font-size="10.00">putchar</text>
</a>
</g>
</g>
<!-- Node1&#45;&gt;Node1 -->
<g id="edge3_Node000001_Node000001" class="edge">
<title>Node1&#45;&gt;Node1</title>
<g id="a_edge3_Node000001_Node000001"><a xlink:title=" ">
<path fill="none" stroke="#63b8ff" d="M130.19,-30.1C128.38,-34.13 123.15,-37 114.5,-37 99.12,-37 94.55,-27.94 100.8,-19.37"/>
<polygon fill="#63b8ff" stroke="#63b8ff" points="133.46,-29.56 128.2,-20.37 126.58,-30.84 133.46,-29.56"/>
</a>
</g>
</g>
<!-- Node2 -->
<g id="Node000002" class="node">
<title>Node2</title>
<g id="a_Node000002"><a xlink:href="__putchar_8c.html#a65c637ee51a44ec6d0d75d514c8109d0" target="_top" xlink:title=" ">
<polygon fill="white" stroke="#666666" points="54,-19 0,-19 0,0 54,0 54,-19"/>
<text text-anchor="middle" x="27" y="-7" font-family="Helvetica,sans-Serif" font-size="10.00">_putchar</text>
</a>
</g>
</g>
<!-- Node1&#45;&gt;Node2 -->
<g id="edge1_Node000001_Node000002" class="edge">
<title>Node1&#45;&gt;Node2</title>
<g id="a_edge1_Node000001_Node000002"><a xlink:title=" ">
<path fill="none" stroke="#63b8ff" d="M78.91,-9.5C70.73,-9.5 62.14,-9.5 54.39,-9.5"/>
<polygon fill="#63b8ff" stroke="#63b8ff" points="78.68,-13 88.68,-9.5 78.68,-6 78.68,-13"/>
</a>
</g>
</g>
<!-- Node2&#45;&gt;Node2 -->
<g id="edge2_Node000002_Node000002" class="edge">
<title>Node2&#45;&gt;Node2</title>
<g id="a_edge2_Node000002_Node000002"><a xlink:title=" ">
<path fill="none" stroke="#63b8ff" d="M42.69,-30.1C40.88,-34.13 35.65,-37 27,-37 11.62,-37 7.05,-27.94 13.3,-19.37"/>
<polygon fill="#63b8ff" stroke="#63b8ff" points="45.96,-29.56 40.7,-20.37 39.08,-30.84 45.96,-29.56"/>
</a>
</g>
</g>
</g>
</svg>
