<?xml version="1.0" encoding="UTF-8" standalone="no"?>
<!DOCTYPE svg PUBLIC "-//W3C//DTD SVG 1.1//EN"
 "http://www.w3.org/Graphics/SVG/1.1/DTD/svg11.dtd">
<!-- Generated by graphviz version 8.0.2 (20230410.1723)
 -->
<!-- Title: putchar Pages: 1 -->
<svg width="131pt" height="45pt"
 viewBox="0.00 0.00 131.00 45.00" xmlns="http://www.w3.org/2000/svg" xmlns:xlink="http://www.w3.org/1999/xlink">
<g id="graph0" class="graph" transform="scale(1 1) rotate(0) translate(4 41)">
<title>putchar</title>
<!-- Node1 -->
<g id="Node000001" class="node">
<title>Node1</title>
<g id="a_Node000001"><a xlink:title=" ">
<polygon fill="#999999" stroke="#666666" points="49,-19 0,-19 0,0 49,0 49,-19"/>
<text text-anchor="middle" x="24.5" y="-7" font-family="Helvetica,sans-Serif" font-size="10.00">putchar</text>
</a>
</g>
</g>
<!-- Node1&#45;&gt;Node1 -->
<g id="edge1_Node000001_Node000001" class="edge">
<title>Node1&#45;&gt;Node1</title>
<g id="a_edge1_Node000001_Node000001"><a xlink:title=" ">
<path fill="none" stroke="#63b8ff" d="M12.05,-19.37C6.38,-27.94 10.53,-37 24.5,-37 32.36,-37 37.11,-34.13 38.76,-30.1"/>
<polygon fill="#63b8ff" stroke="#63b8ff" points="42.06,-29.65 36.95,-20.37 35.16,-30.81 42.06,-29.65"/>
</a>
</g>
</g>
<!-- Node2 -->
<g id="Node000002" class="node">
<title>Node2</title>
<g id="a_Node000002"><a xlink:href="write_8c.html#abb39b21888372e95ad3e5c59b166f5c8" target="_top" xlink:title=" ">
<polygon fill="white" stroke="#666666" points="123,-19 85,-19 85,0 123,0 123,-19"/>
<text text-anchor="middle" x="104" y="-7" font-family="Helvetica,sans-Serif" font-size="10.00">write</text>
</a>
</g>
</g>
<!-- Node1&#45;&gt;Node2 -->
<g id="edge2_Node000001_Node000002" class="edge">
<title>Node1&#45;&gt;Node2</title>
<g id="a_edge2_Node000001_Node000002"><a xlink:title=" ">
<path fill="none" stroke="#63b8ff" d="M49.17,-9.5C56.92,-9.5 65.62,-9.5 73.72,-9.5"/>
<polygon fill="#63b8ff" stroke="#63b8ff" points="73.63,-13 83.63,-9.5 73.63,-6 73.63,-13"/>
</a>
</g>
</g>
<!-- Node2&#45;&gt;Node2 -->
<g id="edge3_Node000002_Node000002" class="edge">
<title>Node2&#45;&gt;Node2</title>
<g id="a_edge3_Node000002_Node000002"><a xlink:title=" ">
<path fill="none" stroke="#63b8ff" d="M91.55,-19.37C85.88,-27.94 90.03,-37 104,-37 111.86,-37 116.61,-34.13 118.26,-30.1"/>
<polygon fill="#63b8ff" stroke="#63b8ff" points="121.56,-29.65 116.45,-20.37 114.66,-30.81 121.56,-29.65"/>
</a>
</g>
</g>
</g>
</svg>
