<?xml version="1.0" encoding="UTF-8" standalone="no"?>
<!DOCTYPE svg PUBLIC "-//W3C//DTD SVG 1.1//EN"
 "http://www.w3.org/Graphics/SVG/1.1/DTD/svg11.dtd">
<!-- Generated by graphviz version 2.49.3 (20211023.0002)
 -->
<!-- Title: _putchar Pages: 1 -->
<svg width="307pt" height="28pt"
 viewBox="0.00 0.00 307.00 28.00" xmlns="http://www.w3.org/2000/svg" xmlns:xlink="http://www.w3.org/1999/xlink">
<g id="graph0" class="graph" transform="scale(1 1) rotate(0) translate(4 24)">
<title>_putchar</title>
<!-- Node1 -->
<g id="node1" class="node">
<title>Node1</title>
<g id="a_node1"><a xlink:title=" ">
<polygon fill="#bfbfbf" stroke="black" points="0,-0.5 0,-19.5 55,-19.5 55,-0.5 0,-0.5"/>
<text text-anchor="middle" x="27.5" y="-7.5" font-family="Helvetica,sans-Serif" font-size="10.00">_putchar</text>
</a>
</g>
</g>
<!-- Node2 -->
<g id="node2" class="node">
<title>Node2</title>
<g id="a_node2"><a xlink:href="putchar_8c.html#a948b7a0779c308ac5502c57e282e6933" target="_top" xlink:title=" ">
<polygon fill="none" stroke="black" points="91,-0.5 91,-19.5 141,-19.5 141,-0.5 91,-0.5"/>
<text text-anchor="middle" x="116" y="-7.5" font-family="Helvetica,sans-Serif" font-size="10.00">putchar</text>
</a>
</g>
</g>
<!-- Node1&#45;&gt;Node2 -->
<g id="edge1" class="edge">
<title>Node1&#45;&gt;Node2</title>
<path fill="none" stroke="midnightblue" d="M55.39,-10C63.35,-10 72.16,-10 80.52,-10"/>
<polygon fill="midnightblue" stroke="midnightblue" points="80.76,-13.5 90.76,-10 80.76,-6.5 80.76,-13.5"/>
</g>
<!-- Node3 -->
<g id="node3" class="node">
<title>Node3</title>
<g id="a_node3"><a xlink:href="write_8c.html#abb39b21888372e95ad3e5c59b166f5c8" target="_top" xlink:title=" ">
<polygon fill="none" stroke="black" points="177,-0.5 177,-19.5 215,-19.5 215,-0.5 177,-0.5"/>
<text text-anchor="middle" x="196" y="-7.5" font-family="Helvetica,sans-Serif" font-size="10.00">write</text>
</a>
</g>
</g>
<!-- Node2&#45;&gt;Node3 -->
<g id="edge2" class="edge">
<title>Node2&#45;&gt;Node3</title>
<path fill="none" stroke="midnightblue" d="M141.25,-10C149.3,-10 158.33,-10 166.66,-10"/>
<polygon fill="midnightblue" stroke="midnightblue" points="166.71,-13.5 176.71,-10 166.71,-6.5 166.71,-13.5"/>
</g>
<!-- Node4 -->
<g id="node4" class="node">
<title>Node4</title>
<g id="a_node4"><a xlink:href="k__write_8c.html#ae80abe069ae7128caf6c98035b032776" target="_top" xlink:title=" ">
<polygon fill="none" stroke="black" points="251,-0.5 251,-19.5 299,-19.5 299,-0.5 251,-0.5"/>
<text text-anchor="middle" x="275" y="-7.5" font-family="Helvetica,sans-Serif" font-size="10.00">k_write</text>
</a>
</g>
</g>
<!-- Node3&#45;&gt;Node4 -->
<g id="edge3" class="edge">
<title>Node3&#45;&gt;Node4</title>
<path fill="none" stroke="midnightblue" d="M215.25,-10C222.92,-10 232.09,-10 240.88,-10"/>
<polygon fill="midnightblue" stroke="midnightblue" points="240.91,-13.5 250.91,-10 240.91,-6.5 240.91,-13.5"/>
</g>
</g>
</svg>
