<?xml version="1.0" encoding="UTF-8" standalone="no"?>
<!DOCTYPE svg PUBLIC "-//W3C//DTD SVG 1.1//EN"
 "http://www.w3.org/Graphics/SVG/1.1/DTD/svg11.dtd">
<!-- Generated by graphviz version 9.0.0 (20230911.1827)
 -->
<!-- Title: include/libc/stdio.h Pages: 1 -->
<svg width="270pt" height="138pt"
 viewBox="0.00 0.00 269.75 137.75" xmlns="http://www.w3.org/2000/svg" xmlns:xlink="http://www.w3.org/1999/xlink">
<g id="graph0" class="graph" transform="scale(1 1) rotate(0) translate(4 133.75)">
<title>include/libc/stdio.h</title>
<!-- Node1 -->
<g id="Node000001" class="node">
<title>Node1</title>
<g id="a_Node000001"><a xlink:title=" ">
<polygon fill="#999999" stroke="#666666" points="177.5,-129.75 80.5,-129.75 80.5,-110.5 177.5,-110.5 177.5,-129.75"/>
<text text-anchor="middle" x="129" y="-116.25" font-family="Helvetica,sans-Serif" font-size="10.00">include/libc/stdio.h</text>
</a>
</g>
</g>
<!-- Node2 -->
<g id="Node000002" class="node">
<title>Node2</title>
<g id="a_Node000002"><a xlink:href="logging_8h.html" target="_top" xlink:title="This is the general kernel logging module.">
<polygon fill="white" stroke="#666666" points="118,-74.5 0,-74.5 0,-55.25 118,-55.25 118,-74.5"/>
<text text-anchor="middle" x="59" y="-61" font-family="Helvetica,sans-Serif" font-size="10.00">include/kernel/logging.h</text>
</a>
</g>
</g>
<!-- Node1&#45;&gt;Node2 -->
<g id="edge1_Node000001_Node000002" class="edge">
<title>Node1&#45;&gt;Node2</title>
<g id="a_edge1_Node000001_Node000002"><a xlink:title=" ">
<path fill="none" stroke="#63b8ff" d="M108.05,-103.19C95.83,-93.89 80.86,-82.51 70.7,-74.77"/>
<polygon fill="#63b8ff" stroke="#63b8ff" points="105.84,-105.91 115.92,-109.18 110.08,-100.34 105.84,-105.91"/>
</a>
</g>
</g>
<!-- Node4 -->
<g id="Node000004" class="node">
<title>Node4</title>
<g id="a_Node000004"><a xlink:href="syscall_8h.html" target="_top" xlink:title=" ">
<polygon fill="white" stroke="#666666" points="261.75,-74.5 136.25,-74.5 136.25,-55.25 261.75,-55.25 261.75,-74.5"/>
<text text-anchor="middle" x="199" y="-61" font-family="Helvetica,sans-Serif" font-size="10.00">include/libc/sys/syscall.h</text>
</a>
</g>
</g>
<!-- Node1&#45;&gt;Node4 -->
<g id="edge3_Node000001_Node000004" class="edge">
<title>Node1&#45;&gt;Node4</title>
<g id="a_edge3_Node000001_Node000004"><a xlink:title=" ">
<path fill="none" stroke="#63b8ff" d="M149.95,-103.19C162.17,-93.89 177.14,-82.51 187.3,-74.77"/>
<polygon fill="#63b8ff" stroke="#63b8ff" points="147.92,-100.34 142.08,-109.18 152.16,-105.91 147.92,-100.34"/>
</a>
</g>
</g>
<!-- Node3 -->
<g id="Node000003" class="node">
<title>Node3</title>
<g id="a_Node000003"><a xlink:href="panic_8h.html" target="_top" xlink:title=" ">
<polygon fill="white" stroke="#666666" points="114.25,-19.25 3.75,-19.25 3.75,0 114.25,0 114.25,-19.25"/>
<text text-anchor="middle" x="59" y="-5.75" font-family="Helvetica,sans-Serif" font-size="10.00">include/kernel/panic.h</text>
</a>
</g>
</g>
<!-- Node2&#45;&gt;Node3 -->
<g id="edge2_Node000002_Node000003" class="edge">
<title>Node2&#45;&gt;Node3</title>
<g id="a_edge2_Node000002_Node000003"><a xlink:title=" ">
<path fill="none" stroke="#63b8ff" d="M59,-43.63C59,-35.34 59,-26.17 59,-19.61"/>
<polygon fill="#63b8ff" stroke="#63b8ff" points="55.5,-43.57 59,-53.57 62.5,-43.57 55.5,-43.57"/>
</a>
</g>
</g>
<!-- Node5 -->
<g id="Node000005" class="node">
<title>Node5</title>
<g id="a_Node000005"><a xlink:href="unistd_8h.html" target="_top" xlink:title=" ">
<polygon fill="white" stroke="#666666" points="250.12,-19.25 147.88,-19.25 147.88,0 250.12,0 250.12,-19.25"/>
<text text-anchor="middle" x="199" y="-5.75" font-family="Helvetica,sans-Serif" font-size="10.00">include/libc/unistd.h</text>
</a>
</g>
</g>
<!-- Node4&#45;&gt;Node5 -->
<g id="edge4_Node000004_Node000005" class="edge">
<title>Node4&#45;&gt;Node5</title>
<g id="a_edge4_Node000004_Node000005"><a xlink:title=" ">
<path fill="none" stroke="#63b8ff" d="M199,-43.63C199,-35.34 199,-26.17 199,-19.61"/>
<polygon fill="#63b8ff" stroke="#63b8ff" points="195.5,-43.57 199,-53.57 202.5,-43.57 195.5,-43.57"/>
</a>
</g>
</g>
</g>
</svg>
