<?xml version="1.0" encoding="UTF-8" standalone="no"?>
<!DOCTYPE svg PUBLIC "-//W3C//DTD SVG 1.1//EN"
 "http://www.w3.org/Graphics/SVG/1.1/DTD/svg11.dtd">
<!-- Generated by graphviz version 8.0.2 (20230410.1723)
 -->
<!-- Title: _putchar Pages: 1 -->
<svg width="221pt" height="45pt"
 viewBox="0.00 0.00 221.00 45.00" xmlns="http://www.w3.org/2000/svg" xmlns:xlink="http://www.w3.org/1999/xlink">
<g id="graph0" class="graph" transform="scale(1 1) rotate(0) translate(4 41)">
<title>_putchar</title>
<!-- Node1 -->
<g id="Node000001" class="node">
<title>Node1</title>
<g id="a_Node000001"><a xlink:title=" ">
<polygon fill="#999999" stroke="#666666" points="54,-19 0,-19 0,0 54,0 54,-19"/>
<text text-anchor="middle" x="27" y="-7" font-family="Helvetica,sans-Serif" font-size="10.00">_putchar</text>
</a>
</g>
</g>
<!-- Node1&#45;&gt;Node1 -->
<g id="edge1_Node000001_Node000001" class="edge">
<title>Node1&#45;&gt;Node1</title>
<g id="a_edge1_Node000001_Node000001"><a xlink:title=" ">
<path fill="none" stroke="#63b8ff" d="M13.3,-19.37C7.05,-27.94 11.62,-37 27,-37 35.65,-37 40.88,-34.13 42.69,-30.1"/>
<polygon fill="#63b8ff" stroke="#63b8ff" points="45.96,-29.56 40.7,-20.37 39.08,-30.84 45.96,-29.56"/>
</a>
</g>
</g>
<!-- Node2 -->
<g id="Node000002" class="node">
<title>Node2</title>
<g id="a_Node000002"><a xlink:href="putchar_8c.html#a948b7a0779c308ac5502c57e282e6933" target="_top" xlink:title=" ">
<polygon fill="white" stroke="#666666" points="139,-19 90,-19 90,0 139,0 139,-19"/>
<text text-anchor="middle" x="114.5" y="-7" font-family="Helvetica,sans-Serif" font-size="10.00">putchar</text>
</a>
</g>
</g>
<!-- Node1&#45;&gt;Node2 -->
<g id="edge2_Node000001_Node000002" class="edge">
<title>Node1&#45;&gt;Node2</title>
<g id="a_edge2_Node000001_Node000002"><a xlink:title=" ">
<path fill="none" stroke="#63b8ff" d="M54.12,-9.5C61.88,-9.5 70.52,-9.5 78.74,-9.5"/>
<polygon fill="#63b8ff" stroke="#63b8ff" points="78.58,-13 88.58,-9.5 78.58,-6 78.58,-13"/>
</a>
</g>
</g>
<!-- Node2&#45;&gt;Node2 -->
<g id="edge3_Node000002_Node000002" class="edge">
<title>Node2&#45;&gt;Node2</title>
<g id="a_edge3_Node000002_Node000002"><a xlink:title=" ">
<path fill="none" stroke="#63b8ff" d="M102.05,-19.37C96.38,-27.94 100.53,-37 114.5,-37 122.36,-37 127.11,-34.13 128.76,-30.1"/>
<polygon fill="#63b8ff" stroke="#63b8ff" points="132.06,-29.65 126.95,-20.37 125.16,-30.81 132.06,-29.65"/>
</a>
</g>
</g>
<!-- Node3 -->
<g id="Node000003" class="node">
<title>Node3</title>
<g id="a_Node000003"><a xlink:href="write_8c.html#abb39b21888372e95ad3e5c59b166f5c8" target="_top" xlink:title=" ">
<polygon fill="white" stroke="#666666" points="213,-19 175,-19 175,0 213,0 213,-19"/>
<text text-anchor="middle" x="194" y="-7" font-family="Helvetica,sans-Serif" font-size="10.00">write</text>
</a>
</g>
</g>
<!-- Node2&#45;&gt;Node3 -->
<g id="edge4_Node000002_Node000003" class="edge">
<title>Node2&#45;&gt;Node3</title>
<g id="a_edge4_Node000002_Node000003"><a xlink:title=" ">
<path fill="none" stroke="#63b8ff" d="M139.17,-9.5C146.92,-9.5 155.62,-9.5 163.72,-9.5"/>
<polygon fill="#63b8ff" stroke="#63b8ff" points="163.63,-13 173.63,-9.5 163.63,-6 163.63,-13"/>
</a>
</g>
</g>
<!-- Node3&#45;&gt;Node3 -->
<g id="edge5_Node000003_Node000003" class="edge">
<title>Node3&#45;&gt;Node3</title>
<g id="a_edge5_Node000003_Node000003"><a xlink:title=" ">
<path fill="none" stroke="#63b8ff" d="M181.55,-19.37C175.88,-27.94 180.03,-37 194,-37 201.86,-37 206.61,-34.13 208.26,-30.1"/>
<polygon fill="#63b8ff" stroke="#63b8ff" points="211.56,-29.65 206.45,-20.37 204.66,-30.81 211.56,-29.65"/>
</a>
</g>
</g>
</g>
</svg>
