<?xml version="1.0" encoding="UTF-8" standalone="no"?>
<!DOCTYPE svg PUBLIC "-//W3C//DTD SVG 1.1//EN"
 "http://www.w3.org/Graphics/SVG/1.1/DTD/svg11.dtd">
<!-- Generated by graphviz version 8.0.2 (20230410.1723)
 -->
<!-- Title: include/libc/stdio.h Pages: 1 -->
<svg width="272pt" height="137pt"
 viewBox="0.00 0.00 271.50 137.00" xmlns="http://www.w3.org/2000/svg" xmlns:xlink="http://www.w3.org/1999/xlink">
<g id="graph0" class="graph" transform="scale(1 1) rotate(0) translate(4 133)">
<title>include/libc/stdio.h</title>
<!-- Node1 -->
<g id="Node000001" class="node">
<title>Node1</title>
<g id="a_Node000001"><a xlink:title=" ">
<polygon fill="#999999" stroke="#666666" points="178.5,-129 80.5,-129 80.5,-110 178.5,-110 178.5,-129"/>
<text text-anchor="middle" x="129.5" y="-117" font-family="Helvetica,sans-Serif" font-size="10.00">include/libc/stdio.h</text>
</a>
</g>
</g>
<!-- Node2 -->
<g id="Node000002" class="node">
<title>Node2</title>
<g id="a_Node000002"><a xlink:href="logging_8h.html" target="_top" xlink:title="This is the general kernel logging module.">
<polygon fill="white" stroke="#666666" points="119,-74 0,-74 0,-55 119,-55 119,-74"/>
<text text-anchor="middle" x="59.5" y="-62" font-family="Helvetica,sans-Serif" font-size="10.00">include/kernel/logging.h</text>
</a>
</g>
</g>
<!-- Node1&#45;&gt;Node2 -->
<g id="edge1_Node000001_Node000002" class="edge">
<title>Node1&#45;&gt;Node2</title>
<g id="a_edge1_Node000001_Node000002"><a xlink:title=" ">
<path fill="none" stroke="#63b8ff" d="M108.92,-102.92C96.63,-93.61 81.46,-82.13 71.2,-74.36"/>
<polygon fill="#63b8ff" stroke="#63b8ff" points="106.54,-106.26 116.63,-109.51 110.77,-100.68 106.54,-106.26"/>
</a>
</g>
</g>
<!-- Node4 -->
<g id="Node000004" class="node">
<title>Node4</title>
<g id="a_Node000004"><a xlink:href="syscall_8h.html" target="_top" xlink:title=" ">
<polygon fill="white" stroke="#666666" points="263.5,-74 137.5,-74 137.5,-55 263.5,-55 263.5,-74"/>
<text text-anchor="middle" x="200.5" y="-62" font-family="Helvetica,sans-Serif" font-size="10.00">include/libc/sys/syscall.h</text>
</a>
</g>
</g>
<!-- Node1&#45;&gt;Node4 -->
<g id="edge3_Node000001_Node000004" class="edge">
<title>Node1&#45;&gt;Node4</title>
<g id="a_edge3_Node000001_Node000004"><a xlink:title=" ">
<path fill="none" stroke="#63b8ff" d="M150.01,-103.19C162.54,-93.84 178.12,-82.21 188.63,-74.36"/>
<polygon fill="#63b8ff" stroke="#63b8ff" points="148.46,-100.72 142.54,-109.51 152.65,-106.33 148.46,-100.72"/>
</a>
</g>
</g>
<!-- Node3 -->
<g id="Node000003" class="node">
<title>Node3</title>
<g id="a_Node000003"><a xlink:href="panic_8h.html" target="_top" xlink:title=" ">
<polygon fill="white" stroke="#666666" points="115,-19 4,-19 4,0 115,0 115,-19"/>
<text text-anchor="middle" x="59.5" y="-7" font-family="Helvetica,sans-Serif" font-size="10.00">include/kernel/panic.h</text>
</a>
</g>
</g>
<!-- Node2&#45;&gt;Node3 -->
<g id="edge2_Node000002_Node000003" class="edge">
<title>Node2&#45;&gt;Node3</title>
<g id="a_edge2_Node000002_Node000003"><a xlink:title=" ">
<path fill="none" stroke="#63b8ff" d="M59.5,-43.93C59.5,-35.53 59.5,-26.13 59.5,-19.44"/>
<polygon fill="#63b8ff" stroke="#63b8ff" points="56,-43.75 59.5,-53.75 63,-43.75 56,-43.75"/>
</a>
</g>
</g>
<!-- Node5 -->
<g id="Node000005" class="node">
<title>Node5</title>
<g id="a_Node000005"><a xlink:href="unistd_8h.html" target="_top" xlink:title=" ">
<polygon fill="white" stroke="#666666" points="252,-19 149,-19 149,0 252,0 252,-19"/>
<text text-anchor="middle" x="200.5" y="-7" font-family="Helvetica,sans-Serif" font-size="10.00">include/libc/unistd.h</text>
</a>
</g>
</g>
<!-- Node4&#45;&gt;Node5 -->
<g id="edge4_Node000004_Node000005" class="edge">
<title>Node4&#45;&gt;Node5</title>
<g id="a_edge4_Node000004_Node000005"><a xlink:title=" ">
<path fill="none" stroke="#63b8ff" d="M200.5,-43.93C200.5,-35.53 200.5,-26.13 200.5,-19.44"/>
<polygon fill="#63b8ff" stroke="#63b8ff" points="197,-43.75 200.5,-53.75 204,-43.75 197,-43.75"/>
</a>
</g>
</g>
</g>
</svg>
