<?xml version="1.0" encoding="UTF-8" standalone="no"?>
<!DOCTYPE svg PUBLIC "-//W3C//DTD SVG 1.1//EN"
 "http://www.w3.org/Graphics/SVG/1.1/DTD/svg11.dtd">
<!-- Generated by graphviz version 2.50.0 (20211204.2007)
 -->
<!-- Title: getchar Pages: 1 -->
<svg width="166pt" height="66pt"
 viewBox="0.00 0.00 166.00 66.00" xmlns="http://www.w3.org/2000/svg" xmlns:xlink="http://www.w3.org/1999/xlink">
<g id="graph0" class="graph" transform="scale(1 1) rotate(0) translate(4 62)">
<title>getchar</title>
<!-- Node1 -->
<g id="node1" class="node">
<title>Node1</title>
<g id="a_node1"><a xlink:title=" ">
<polygon fill="#bfbfbf" stroke="black" points="0,-19.5 0,-38.5 49,-38.5 49,-19.5 0,-19.5"/>
<text text-anchor="middle" x="24.5" y="-26.5" font-family="Helvetica,sans-Serif" font-size="10.00">getchar</text>
</a>
</g>
</g>
<!-- Node2 -->
<g id="node2" class="node">
<title>Node2</title>
<g id="a_node2"><a xlink:href="x86__64_2arch_2io_8c.html#a34512cf4b7563b16dab78467797aa5d8" target="_top" xlink:title=" ">
<polygon fill="none" stroke="black" points="85,-38.5 85,-57.5 158,-57.5 158,-38.5 85,-38.5"/>
<text text-anchor="middle" x="121.5" y="-45.5" font-family="Helvetica,sans-Serif" font-size="10.00">arch_getchar</text>
</a>
</g>
</g>
<!-- Node1&#45;&gt;Node2 -->
<g id="edge1" class="edge">
<title>Node1&#45;&gt;Node2</title>
<path fill="none" stroke="midnightblue" d="M49.47,-33.79C57.22,-35.34 66.09,-37.12 74.87,-38.87"/>
<polygon fill="midnightblue" stroke="midnightblue" points="74.19,-42.31 84.68,-40.84 75.56,-35.44 74.19,-42.31"/>
</g>
<!-- Node3 -->
<g id="node3" class="node">
<title>Node3</title>
<g id="a_node3"><a xlink:href="read_8c.html#af32a16ad2dd9e48482f8f790db7dbbd2" target="_top" xlink:title=" ">
<polygon fill="none" stroke="black" points="104,-0.5 104,-19.5 139,-19.5 139,-0.5 104,-0.5"/>
<text text-anchor="middle" x="121.5" y="-7.5" font-family="Helvetica,sans-Serif" font-size="10.00">read</text>
</a>
</g>
</g>
<!-- Node1&#45;&gt;Node3 -->
<g id="edge2" class="edge">
<title>Node1&#45;&gt;Node3</title>
<path fill="none" stroke="midnightblue" d="M49.47,-24.21C62.96,-21.51 79.84,-18.13 93.76,-15.35"/>
<polygon fill="midnightblue" stroke="midnightblue" points="94.6,-18.75 103.72,-13.36 93.23,-11.89 94.6,-18.75"/>
</g>
</g>
</svg>
