<?xml version="1.0" encoding="UTF-8" standalone="no"?>
<!DOCTYPE svg PUBLIC "-//W3C//DTD SVG 1.1//EN"
 "http://www.w3.org/Graphics/SVG/1.1/DTD/svg11.dtd">
<!-- Generated by graphviz version 2.50.0 (20211204.2007)
 -->
<!-- Title: putchar Pages: 1 -->
<svg width="215pt" height="28pt"
 viewBox="0.00 0.00 215.00 28.00" xmlns="http://www.w3.org/2000/svg" xmlns:xlink="http://www.w3.org/1999/xlink">
<g id="graph0" class="graph" transform="scale(1 1) rotate(0) translate(4 24)">
<title>putchar</title>
<!-- Node1 -->
<g id="node1" class="node">
<title>Node1</title>
<g id="a_node1"><a xlink:title=" ">
<polygon fill="#bfbfbf" stroke="black" points="0,-0.5 0,-19.5 49,-19.5 49,-0.5 0,-0.5"/>
<text text-anchor="middle" x="24.5" y="-7.5" font-family="Helvetica,sans-Serif" font-size="10.00">putchar</text>
</a>
</g>
</g>
<!-- Node2 -->
<g id="node2" class="node">
<title>Node2</title>
<g id="a_node2"><a xlink:href="write_8c.html#abb39b21888372e95ad3e5c59b166f5c8" target="_top" xlink:title=" ">
<polygon fill="none" stroke="black" points="85,-0.5 85,-19.5 123,-19.5 123,-0.5 85,-0.5"/>
<text text-anchor="middle" x="104" y="-7.5" font-family="Helvetica,sans-Serif" font-size="10.00">write</text>
</a>
</g>
</g>
<!-- Node1&#45;&gt;Node2 -->
<g id="edge1" class="edge">
<title>Node1&#45;&gt;Node2</title>
<path fill="none" stroke="midnightblue" d="M49.17,-10C57.19,-10 66.22,-10 74.56,-10"/>
<polygon fill="midnightblue" stroke="midnightblue" points="74.63,-13.5 84.63,-10 74.63,-6.5 74.63,-13.5"/>
</g>
<!-- Node3 -->
<g id="node3" class="node">
<title>Node3</title>
<g id="a_node3"><a xlink:href="k__write_8c.html#ae80abe069ae7128caf6c98035b032776" target="_top" xlink:title=" ">
<polygon fill="none" stroke="black" points="159,-0.5 159,-19.5 207,-19.5 207,-0.5 159,-0.5"/>
<text text-anchor="middle" x="183" y="-7.5" font-family="Helvetica,sans-Serif" font-size="10.00">k_write</text>
</a>
</g>
</g>
<!-- Node2&#45;&gt;Node3 -->
<g id="edge2" class="edge">
<title>Node2&#45;&gt;Node3</title>
<path fill="none" stroke="midnightblue" d="M123.25,-10C130.92,-10 140.09,-10 148.88,-10"/>
<polygon fill="midnightblue" stroke="midnightblue" points="148.91,-13.5 158.91,-10 148.91,-6.5 148.91,-13.5"/>
</g>
</g>
</svg>
