<?xml version="1.0" encoding="UTF-8" standalone="no"?>
<!DOCTYPE svg PUBLIC "-//W3C//DTD SVG 1.1//EN"
 "http://www.w3.org/Graphics/SVG/1.1/DTD/svg11.dtd">
<!-- Generated by graphviz version 8.0.2 (20230410.1723)
 -->
<!-- Title: getchar Pages: 1 -->
<svg width="166pt" height="100pt"
 viewBox="0.00 0.00 166.00 100.00" xmlns="http://www.w3.org/2000/svg" xmlns:xlink="http://www.w3.org/1999/xlink">
<g id="graph0" class="graph" transform="scale(1 1) rotate(0) translate(4 96)">
<title>getchar</title>
<!-- Node1 -->
<g id="Node000001" class="node">
<title>Node1</title>
<g id="a_Node000001"><a xlink:title=" ">
<polygon fill="#999999" stroke="#666666" points="49,-46 0,-46 0,-27 49,-27 49,-46"/>
<text text-anchor="middle" x="24.5" y="-34" font-family="Helvetica,sans-Serif" font-size="10.00">getchar</text>
</a>
</g>
</g>
<!-- Node1&#45;&gt;Node1 -->
<g id="edge3_Node000001_Node000001" class="edge">
<title>Node1&#45;&gt;Node1</title>
<g id="a_edge3_Node000001_Node000001"><a xlink:title=" ">
<path fill="none" stroke="#63b8ff" d="M9.31,-46.37C2.39,-54.94 7.45,-64 24.5,-64 34.09,-64 39.89,-61.13 41.89,-57.1"/>
<polygon fill="#63b8ff" stroke="#63b8ff" points="45.13,-56.46 39.69,-47.37 38.27,-57.87 45.13,-56.46"/>
</a>
</g>
</g>
<!-- Node2 -->
<g id="Node000002" class="node">
<title>Node2</title>
<g id="a_Node000002"><a xlink:href="x86__64_2arch_2io_8c.html#a34512cf4b7563b16dab78467797aa5d8" target="_top" xlink:title=" ">
<polygon fill="white" stroke="#666666" points="158,-74 85,-74 85,-55 158,-55 158,-74"/>
<text text-anchor="middle" x="121.5" y="-62" font-family="Helvetica,sans-Serif" font-size="10.00">arch_getchar</text>
</a>
</g>
</g>
<!-- Node1&#45;&gt;Node2 -->
<g id="edge1_Node000001_Node000002" class="edge">
<title>Node1&#45;&gt;Node2</title>
<g id="a_edge1_Node000001_Node000002"><a xlink:title=" ">
<path fill="none" stroke="#63b8ff" d="M49.47,-43.57C57.7,-45.99 67.19,-48.79 76.49,-51.53"/>
<polygon fill="#63b8ff" stroke="#63b8ff" points="75.27,-55.11 85.85,-54.58 77.25,-48.4 75.27,-55.11"/>
</a>
</g>
</g>
<!-- Node3 -->
<g id="Node000003" class="node">
<title>Node3</title>
<g id="a_Node000003"><a xlink:href="read_8c.html#af32a16ad2dd9e48482f8f790db7dbbd2" target="_top" xlink:title=" ">
<polygon fill="white" stroke="#666666" points="139,-19 104,-19 104,0 139,0 139,-19"/>
<text text-anchor="middle" x="121.5" y="-7" font-family="Helvetica,sans-Serif" font-size="10.00">read</text>
</a>
</g>
</g>
<!-- Node1&#45;&gt;Node3 -->
<g id="edge4_Node000001_Node000003" class="edge">
<title>Node1&#45;&gt;Node3</title>
<g id="a_edge4_Node000001_Node000003"><a xlink:title=" ">
<path fill="none" stroke="#63b8ff" d="M49.47,-29.69C62.83,-25.89 79.51,-21.15 93.35,-17.22"/>
<polygon fill="#63b8ff" stroke="#63b8ff" points="94.06,-20.37 102.72,-14.27 92.15,-13.64 94.06,-20.37"/>
</a>
</g>
</g>
<!-- Node2&#45;&gt;Node2 -->
<g id="edge2_Node000002_Node000002" class="edge">
<title>Node2&#45;&gt;Node2</title>
<g id="a_edge2_Node000002_Node000002"><a xlink:title=" ">
<path fill="none" stroke="#63b8ff" d="M106.31,-74.37C99.39,-82.94 104.45,-92 121.5,-92 131.09,-92 136.89,-89.13 138.89,-85.1"/>
<polygon fill="#63b8ff" stroke="#63b8ff" points="142.13,-84.46 136.69,-75.37 135.27,-85.87 142.13,-84.46"/>
</a>
</g>
</g>
<!-- Node3&#45;&gt;Node3 -->
<g id="edge5_Node000003_Node000003" class="edge">
<title>Node3&#45;&gt;Node3</title>
<g id="a_edge5_Node000003_Node000003"><a xlink:title=" ">
<path fill="none" stroke="#63b8ff" d="M106.31,-19.37C99.39,-27.94 104.45,-37 121.5,-37 131.09,-37 136.89,-34.13 138.89,-30.1"/>
<polygon fill="#63b8ff" stroke="#63b8ff" points="142.13,-29.46 136.69,-20.37 135.27,-30.87 142.13,-29.46"/>
</a>
</g>
</g>
</g>
</svg>
