<?xml version="1.0" encoding="UTF-8" standalone="no"?>
<!DOCTYPE svg PUBLIC "-//W3C//DTD SVG 1.1//EN"
 "http://www.w3.org/Graphics/SVG/1.1/DTD/svg11.dtd">
<!-- Generated by graphviz version 2.50.0 (20211204.2007)
 -->
<!-- Title: _putchar Pages: 1 -->
<svg width="305pt" height="28pt"
 viewBox="0.00 0.00 305.00 28.00" xmlns="http://www.w3.org/2000/svg" xmlns:xlink="http://www.w3.org/1999/xlink">
<g id="graph0" class="graph" transform="scale(1 1) rotate(0) translate(4 24)">
<title>_putchar</title>
<!-- Node1 -->
<g id="node1" class="node">
<title>Node1</title>
<g id="a_node1"><a xlink:title=" ">
<polygon fill="#bfbfbf" stroke="black" points="0,-0.5 0,-19.5 54,-19.5 54,-0.5 0,-0.5"/>
<text text-anchor="middle" x="27" y="-7.5" font-family="Helvetica,sans-Serif" font-size="10.00">_putchar</text>
</a>
</g>
</g>
<!-- Node2 -->
<g id="node2" class="node">
<title>Node2</title>
<g id="a_node2"><a xlink:href="putchar_8c.html#a948b7a0779c308ac5502c57e282e6933" target="_top" xlink:title=" ">
<polygon fill="none" stroke="black" points="90,-0.5 90,-19.5 139,-19.5 139,-0.5 90,-0.5"/>
<text text-anchor="middle" x="114.5" y="-7.5" font-family="Helvetica,sans-Serif" font-size="10.00">putchar</text>
</a>
</g>
</g>
<!-- Node1&#45;&gt;Node2 -->
<g id="edge1" class="edge">
<title>Node1&#45;&gt;Node2</title>
<path fill="none" stroke="midnightblue" d="M54.12,-10C62.22,-10 71.26,-10 79.8,-10"/>
<polygon fill="midnightblue" stroke="midnightblue" points="79.87,-13.5 89.87,-10 79.87,-6.5 79.87,-13.5"/>
</g>
<!-- Node3 -->
<g id="node3" class="node">
<title>Node3</title>
<g id="a_node3"><a xlink:href="write_8c.html#abb39b21888372e95ad3e5c59b166f5c8" target="_top" xlink:title=" ">
<polygon fill="none" stroke="black" points="175,-0.5 175,-19.5 213,-19.5 213,-0.5 175,-0.5"/>
<text text-anchor="middle" x="194" y="-7.5" font-family="Helvetica,sans-Serif" font-size="10.00">write</text>
</a>
</g>
</g>
<!-- Node2&#45;&gt;Node3 -->
<g id="edge2" class="edge">
<title>Node2&#45;&gt;Node3</title>
<path fill="none" stroke="midnightblue" d="M139.17,-10C147.19,-10 156.22,-10 164.56,-10"/>
<polygon fill="midnightblue" stroke="midnightblue" points="164.63,-13.5 174.63,-10 164.63,-6.5 164.63,-13.5"/>
</g>
<!-- Node4 -->
<g id="node4" class="node">
<title>Node4</title>
<g id="a_node4"><a xlink:href="k__write_8c.html#ae80abe069ae7128caf6c98035b032776" target="_top" xlink:title=" ">
<polygon fill="none" stroke="black" points="249,-0.5 249,-19.5 297,-19.5 297,-0.5 249,-0.5"/>
<text text-anchor="middle" x="273" y="-7.5" font-family="Helvetica,sans-Serif" font-size="10.00">k_write</text>
</a>
</g>
</g>
<!-- Node3&#45;&gt;Node4 -->
<g id="edge3" class="edge">
<title>Node3&#45;&gt;Node4</title>
<path fill="none" stroke="midnightblue" d="M213.25,-10C220.92,-10 230.09,-10 238.88,-10"/>
<polygon fill="midnightblue" stroke="midnightblue" points="238.91,-13.5 248.91,-10 238.91,-6.5 238.91,-13.5"/>
</g>
</g>
</svg>
