<?xml version="1.0" encoding="UTF-8" standalone="no"?>
<!DOCTYPE svg PUBLIC "-//W3C//DTD SVG 1.1//EN"
 "http://www.w3.org/Graphics/SVG/1.1/DTD/svg11.dtd">
<!-- Generated by graphviz version 9.0.0 (20230911.1827)
 -->
<!-- Title: include/libc/stdlib.h Pages: 1 -->
<svg width="126pt" height="83pt"
 viewBox="0.00 0.00 125.75 82.50" xmlns="http://www.w3.org/2000/svg" xmlns:xlink="http://www.w3.org/1999/xlink">
<g id="graph0" class="graph" transform="scale(1 1) rotate(0) translate(4 78.5)">
<title>include/libc/stdlib.h</title>
<!-- Node1 -->
<g id="Node000001" class="node">
<title>Node1</title>
<g id="a_Node000001"><a xlink:title=" ">
<polygon fill="#999999" stroke="#666666" points="109.25,-74.5 10,-74.5 10,-55.25 109.25,-55.25 109.25,-74.5"/>
<text text-anchor="middle" x="59.62" y="-61" font-family="Helvetica,sans-Serif" font-size="10.00">include/libc/stdlib.h</text>
</a>
</g>
</g>
<!-- Node2 -->
<g id="Node000002" class="node">
<title>Node2</title>
<g id="a_Node000002"><a xlink:title=" ">
<polygon fill="#e0e0e0" stroke="#999999" points="51.25,-19.25 0,-19.25 0,0 51.25,0 51.25,-19.25"/>
<text text-anchor="middle" x="25.62" y="-5.75" font-family="Helvetica,sans-Serif" font-size="10.00">stddef.h</text>
</a>
</g>
</g>
<!-- Node1&#45;&gt;Node2 -->
<g id="edge1_Node000001_Node000002" class="edge">
<title>Node1&#45;&gt;Node2</title>
<g id="a_edge1_Node000001_Node000002"><a xlink:title=" ">
<path fill="none" stroke="#63b8ff" d="M54.01,-55.08C49.51,-48.03 43.04,-37.9 37.41,-29.08"/>
<polygon fill="#63b8ff" stroke="#63b8ff" points="40.51,-27.43 32.18,-20.88 34.61,-31.2 40.51,-27.43"/>
</a>
</g>
</g>
<!-- Node3 -->
<g id="Node000003" class="node">
<title>Node3</title>
<g id="a_Node000003"><a xlink:title=" ">
<polygon fill="#e0e0e0" stroke="#999999" points="117.75,-19.25 69.5,-19.25 69.5,0 117.75,0 117.75,-19.25"/>
<text text-anchor="middle" x="93.62" y="-5.75" font-family="Helvetica,sans-Serif" font-size="10.00">stdint.h</text>
</a>
</g>
</g>
<!-- Node1&#45;&gt;Node3 -->
<g id="edge2_Node000001_Node000003" class="edge">
<title>Node1&#45;&gt;Node3</title>
<g id="a_edge2_Node000001_Node000003"><a xlink:title=" ">
<path fill="none" stroke="#63b8ff" d="M65.24,-55.08C69.74,-48.03 76.21,-37.9 81.84,-29.08"/>
<polygon fill="#63b8ff" stroke="#63b8ff" points="84.64,-31.2 87.07,-20.88 78.74,-27.43 84.64,-31.2"/>
</a>
</g>
</g>
</g>
</svg>
