<?xml version="1.0" encoding="UTF-8" standalone="no"?>
<!DOCTYPE svg PUBLIC "-//W3C//DTD SVG 1.1//EN"
 "http://www.w3.org/Graphics/SVG/1.1/DTD/svg11.dtd">
<!-- Generated by graphviz version 8.0.2 (20230410.1723)
 -->
<!-- Title: atoi Pages: 1 -->
<svg width="155pt" height="100pt"
 viewBox="0.00 0.00 155.41 100.00" xmlns="http://www.w3.org/2000/svg" xmlns:xlink="http://www.w3.org/1999/xlink">
<g id="graph0" class="graph" transform="scale(1 1) rotate(0) translate(4 96)">
<title>atoi</title>
<!-- Node1 -->
<g id="Node000001" class="node">
<title>Node1</title>
<g id="a_Node000001"><a xlink:title=" ">
<polygon fill="#999999" stroke="#666666" points="147,-46 115,-46 115,-27 147,-27 147,-46"/>
<text text-anchor="middle" x="131" y="-34" font-family="Helvetica,sans-Serif" font-size="10.00">atoi</text>
</a>
</g>
</g>
<!-- Node1&#45;&gt;Node1 -->
<g id="edge1_Node000001_Node000001" class="edge">
<title>Node1&#45;&gt;Node1</title>
<g id="a_edge1_Node000001_Node000001"><a xlink:title=" ">
<path fill="none" stroke="#63b8ff" d="M147.41,-57.1C145.52,-61.13 140.05,-64 131,-64 114.92,-64 110.14,-54.94 116.68,-46.37"/>
<polygon fill="#63b8ff" stroke="#63b8ff" points="150.67,-56.52 145.32,-47.37 143.79,-57.85 150.67,-56.52"/>
</a>
</g>
</g>
<!-- Node2 -->
<g id="Node000002" class="node">
<title>Node2</title>
<g id="a_Node000002"><a xlink:href="inish_8c.html#a48978dc4fe4de1765edba0031a2f1f47" target="_top" xlink:title=" ">
<polygon fill="white" stroke="#666666" points="75,-74 4,-74 4,-55 75,-55 75,-74"/>
<text text-anchor="middle" x="39.5" y="-62" font-family="Helvetica,sans-Serif" font-size="10.00">inish_get_int</text>
</a>
</g>
</g>
<!-- Node1&#45;&gt;Node2 -->
<g id="edge2_Node000001_Node000002" class="edge">
<title>Node1&#45;&gt;Node2</title>
<g id="a_edge2_Node000001_Node000002"><a xlink:title=" ">
<path fill="none" stroke="#63b8ff" d="M104.62,-44.44C94.51,-47.6 82.77,-51.28 72.12,-54.61"/>
<polygon fill="#63b8ff" stroke="#63b8ff" points="105.32,-47.58 113.82,-41.25 103.23,-40.9 105.32,-47.58"/>
</a>
</g>
</g>
<!-- Node3 -->
<g id="Node000003" class="node">
<title>Node3</title>
<g id="a_Node000003"><a xlink:href="inish_8c.html#a7149712e2a187c4054c29d94b92470e5" target="_top" xlink:title=" ">
<polygon fill="white" stroke="#666666" points="79,-19 0,-19 0,0 79,0 79,-19"/>
<text text-anchor="middle" x="39.5" y="-7" font-family="Helvetica,sans-Serif" font-size="10.00">inish_get_ipv4</text>
</a>
</g>
</g>
<!-- Node1&#45;&gt;Node3 -->
<g id="edge4_Node000001_Node000003" class="edge">
<title>Node1&#45;&gt;Node3</title>
<g id="a_edge4_Node000001_Node000003"><a xlink:title=" ">
<path fill="none" stroke="#63b8ff" d="M104.37,-28.77C94.79,-25.88 83.77,-22.55 73.61,-19.49"/>
<polygon fill="#63b8ff" stroke="#63b8ff" points="103.23,-32.38 113.82,-31.92 105.25,-25.68 103.23,-32.38"/>
</a>
</g>
</g>
<!-- Node2&#45;&gt;Node2 -->
<g id="edge3_Node000002_Node000002" class="edge">
<title>Node2&#45;&gt;Node2</title>
<g id="a_edge3_Node000002_Node000002"><a xlink:title=" ">
<path fill="none" stroke="#63b8ff" d="M55.91,-85.1C54.02,-89.13 48.55,-92 39.5,-92 23.42,-92 18.64,-82.94 25.18,-74.37"/>
<polygon fill="#63b8ff" stroke="#63b8ff" points="59.17,-84.52 53.82,-75.37 52.29,-85.85 59.17,-84.52"/>
</a>
</g>
</g>
<!-- Node3&#45;&gt;Node3 -->
<g id="edge5_Node000003_Node000003" class="edge">
<title>Node3&#45;&gt;Node3</title>
<g id="a_edge5_Node000003_Node000003"><a xlink:title=" ">
<path fill="none" stroke="#63b8ff" d="M55.91,-30.1C54.02,-34.13 48.55,-37 39.5,-37 23.42,-37 18.64,-27.94 25.18,-19.37"/>
<polygon fill="#63b8ff" stroke="#63b8ff" points="59.17,-29.52 53.82,-20.37 52.29,-30.85 59.17,-29.52"/>
</a>
</g>
</g>
</g>
</svg>
