<?xml version="1.0" encoding="UTF-8" standalone="no"?>
<!DOCTYPE svg PUBLIC "-//W3C//DTD SVG 1.1//EN"
 "http://www.w3.org/Graphics/SVG/1.1/DTD/svg11.dtd">
<!-- Generated by graphviz version 2.49.3 (20211023.0002)
 -->
<!-- Title: gdt_table_t Pages: 1 -->
<svg width="110pt" height="172pt"
 viewBox="0.00 0.00 110.00 172.00" xmlns="http://www.w3.org/2000/svg" xmlns:xlink="http://www.w3.org/1999/xlink">
<g id="graph0" class="graph" transform="scale(1 1) rotate(0) translate(4 168)">
<title>gdt_table_t</title>
<!-- Node1 -->
<g id="node1" class="node">
<title>Node1</title>
<g id="a_node1"><a xlink:title=" ">
<polygon fill="#bfbfbf" stroke="black" points="11,-0.5 11,-19.5 77,-19.5 77,-0.5 11,-0.5"/>
<text text-anchor="middle" x="44" y="-7.5" font-family="Helvetica,sans-Serif" font-size="10.00">gdt_table_t</text>
</a>
</g>
</g>
<!-- Node2 -->
<g id="node2" class="node">
<title>Node2</title>
<g id="a_node2"><a xlink:href="structgdt__descriptor__t.html" target="_top" xlink:title=" ">
<polygon fill="none" stroke="black" points="0,-144.5 0,-163.5 88,-163.5 88,-144.5 0,-144.5"/>
<text text-anchor="middle" x="44" y="-151.5" font-family="Helvetica,sans-Serif" font-size="10.00">gdt_descriptor_t</text>
</a>
</g>
</g>
<!-- Node2&#45;&gt;Node1 -->
<g id="edge1" class="edge">
<title>Node2&#45;&gt;Node1</title>
<path fill="none" stroke="#9a32cd" stroke-dasharray="5,2" d="M44,-134.11C44,-102.93 44,-41.93 44,-19.52"/>
<polygon fill="#9a32cd" stroke="#9a32cd" points="40.5,-134.12 44,-144.12 47.5,-134.12 40.5,-134.12"/>
<text text-anchor="middle" x="73" y="-118" font-family="Helvetica,sans-Serif" font-size="10.00"> kernel_code</text>
<text text-anchor="middle" x="73" y="-107" font-family="Helvetica,sans-Serif" font-size="10.00">kernel_data</text>
<text text-anchor="middle" x="73" y="-96" font-family="Helvetica,sans-Serif" font-size="10.00">null_1</text>
<text text-anchor="middle" x="73" y="-85" font-family="Helvetica,sans-Serif" font-size="10.00">null_2</text>
<text text-anchor="middle" x="73" y="-74" font-family="Helvetica,sans-Serif" font-size="10.00">tss_high</text>
<text text-anchor="middle" x="73" y="-63" font-family="Helvetica,sans-Serif" font-size="10.00">tss_low</text>
<text text-anchor="middle" x="73" y="-52" font-family="Helvetica,sans-Serif" font-size="10.00">user_code</text>
<text text-anchor="middle" x="73" y="-41" font-family="Helvetica,sans-Serif" font-size="10.00">user_data</text>
</g>
</g>
</svg>
