<?xml version="1.0" encoding="UTF-8" standalone="no"?>
<!DOCTYPE svg PUBLIC "-//W3C//DTD SVG 1.1//EN"
 "http://www.w3.org/Graphics/SVG/1.1/DTD/svg11.dtd">
<!-- Generated by graphviz version 2.50.0 (20211204.2007)
 -->
<!-- Title: multiboot_tag_framebuffer_t Pages: 1 -->
<svg width="259pt" height="106pt"
 viewBox="0.00 0.00 259.00 106.00" xmlns="http://www.w3.org/2000/svg" xmlns:xlink="http://www.w3.org/1999/xlink">
<g id="graph0" class="graph" transform="scale(1 1) rotate(0) translate(4 102)">
<title>multiboot_tag_framebuffer_t</title>
<!-- Node1 -->
<g id="node1" class="node">
<title>Node1</title>
<g id="a_node1"><a xlink:title=" ">
<polygon fill="#bfbfbf" stroke="black" points="60,-0.5 60,-19.5 198,-19.5 198,-0.5 60,-0.5"/>
<text text-anchor="middle" x="129" y="-7.5" font-family="Helvetica,sans-Serif" font-size="10.00">multiboot_tag_framebuffer_t</text>
</a>
</g>
</g>
<!-- Node2 -->
<g id="node2" class="node">
<title>Node2</title>
<g id="a_node2"><a xlink:href="structmultiboot__tag__framebuffer__common__t.html" target="_top" xlink:title=" ">
<polygon fill="none" stroke="#bfbfbf" points="0,-67.5 0,-97.5 130,-97.5 130,-67.5 0,-67.5"/>
<text text-anchor="start" x="8" y="-85.5" font-family="Helvetica,sans-Serif" font-size="10.00">multiboot_tag_framebuffer</text>
<text text-anchor="middle" x="65" y="-74.5" font-family="Helvetica,sans-Serif" font-size="10.00">_common_t</text>
</a>
</g>
</g>
<!-- Node2&#45;&gt;Node1 -->
<g id="edge1" class="edge">
<title>Node2&#45;&gt;Node1</title>
<path fill="none" stroke="#9a32cd" stroke-dasharray="5,2" d="M84.73,-59.76C96.91,-46.34 111.89,-29.85 120.93,-19.89"/>
<polygon fill="#9a32cd" stroke="#9a32cd" points="82.08,-57.48 77.95,-67.23 87.26,-62.18 82.08,-57.48"/>
<text text-anchor="middle" x="123.5" y="-41" font-family="Helvetica,sans-Serif" font-size="10.00"> common</text>
</g>
<!-- Node3 -->
<g id="node3" class="node">
<title>Node3</title>
<g id="a_node3"><a xlink:href="structmultiboot__color__t.html" target="_top" xlink:title=" ">
<polygon fill="none" stroke="#bfbfbf" points="148.5,-73 148.5,-92 239.5,-92 239.5,-73 148.5,-73"/>
<text text-anchor="middle" x="194" y="-80" font-family="Helvetica,sans-Serif" font-size="10.00">multiboot_color_t</text>
</a>
</g>
</g>
<!-- Node3&#45;&gt;Node1 -->
<g id="edge2" class="edge">
<title>Node3&#45;&gt;Node1</title>
<path fill="none" stroke="#9a32cd" stroke-dasharray="5,2" d="M179.06,-65.3C165.99,-51.12 147.5,-31.06 137.04,-19.72"/>
<polygon fill="#9a32cd" stroke="#9a32cd" points="176.68,-67.88 186.03,-72.86 181.82,-63.13 176.68,-67.88"/>
<text text-anchor="middle" x="207" y="-41" font-family="Helvetica,sans-Serif" font-size="10.00"> framebuffer_palette</text>
</g>
</g>
</svg>
