<?xml version="1.0" encoding="UTF-8" standalone="no"?>
<!DOCTYPE svg PUBLIC "-//W3C//DTD SVG 1.1//EN"
 "http://www.w3.org/Graphics/SVG/1.1/DTD/svg11.dtd">
<!-- Generated by graphviz version 8.0.2 (20230410.1723)
 -->
<!-- Title: multiboot_tag_framebuffer_t Pages: 1 -->
<svg width="259pt" height="104pt"
 viewBox="0.00 0.00 259.00 104.00" xmlns="http://www.w3.org/2000/svg" xmlns:xlink="http://www.w3.org/1999/xlink">
<g id="graph0" class="graph" transform="scale(1 1) rotate(0) translate(4 100)">
<title>multiboot_tag_framebuffer_t</title>
<!-- Node1 -->
<g id="Node000001" class="node">
<title>Node1</title>
<g id="a_Node000001"><a xlink:title=" ">
<polygon fill="#999999" stroke="#666666" points="198,-19 60,-19 60,0 198,0 198,-19"/>
<text text-anchor="middle" x="129" y="-7" font-family="Helvetica,sans-Serif" font-size="10.00">multiboot_tag_framebuffer_t</text>
</a>
</g>
</g>
<!-- Node2 -->
<g id="Node000002" class="node">
<title>Node2</title>
<g id="a_Node000002"><a xlink:href="structmultiboot__tag__framebuffer__common__t.html" target="_top" xlink:title=" ">
<polygon fill="white" stroke="#bfbfbf" points="130,-96 0,-96 0,-66 130,-66 130,-96"/>
<text text-anchor="start" x="8" y="-84" font-family="Helvetica,sans-Serif" font-size="10.00">multiboot_tag_framebuffer</text>
<text text-anchor="middle" x="65" y="-73" font-family="Helvetica,sans-Serif" font-size="10.00">_common_t</text>
</a>
</g>
</g>
<!-- Node2&#45;&gt;Node1 -->
<g id="edge1_Node000001_Node000002" class="edge">
<title>Node2&#45;&gt;Node1</title>
<g id="a_edge1_Node000001_Node000002"><a xlink:title=" ">
<path fill="none" stroke="#9a32cd" stroke-dasharray="5,2" d="M85.39,-57.86C97.48,-44.73 112.14,-28.81 121.01,-19.18"/>
<polygon fill="#9a32cd" stroke="#9a32cd" points="83.46,-54.87 79.26,-64.6 88.61,-59.61 83.46,-54.87"/>
</a>
</g>
<text text-anchor="middle" x="123.5" y="-40" font-family="Helvetica,sans-Serif" font-size="10.00" fill="grey"> common</text>
</g>
<!-- Node3 -->
<g id="Node000003" class="node">
<title>Node3</title>
<g id="a_Node000003"><a xlink:href="structmultiboot__color__t.html" target="_top" xlink:title=" ">
<polygon fill="white" stroke="#bfbfbf" points="239.5,-90.5 148.5,-90.5 148.5,-71.5 239.5,-71.5 239.5,-90.5"/>
<text text-anchor="middle" x="194" y="-78.5" font-family="Helvetica,sans-Serif" font-size="10.00">multiboot_color_t</text>
</a>
</g>
</g>
<!-- Node3&#45;&gt;Node1 -->
<g id="edge2_Node000001_Node000003" class="edge">
<title>Node3&#45;&gt;Node1</title>
<g id="a_edge2_Node000001_Node000003"><a xlink:title=" ">
<path fill="none" stroke="#9a32cd" stroke-dasharray="5,2" d="M178.49,-63.42C165.6,-49.63 147.74,-30.53 137.37,-19.45"/>
<polygon fill="#9a32cd" stroke="#9a32cd" points="175.38,-65.28 184.77,-70.2 180.49,-60.5 175.38,-65.28"/>
</a>
</g>
<text text-anchor="middle" x="207" y="-40" font-family="Helvetica,sans-Serif" font-size="10.00" fill="grey"> framebuffer_palette</text>
</g>
</g>
</svg>
