<?xml version="1.0" encoding="UTF-8" standalone="no"?>
<!DOCTYPE svg PUBLIC "-//W3C//DTD SVG 1.1//EN"
 "http://www.w3.org/Graphics/SVG/1.1/DTD/svg11.dtd">
<!-- Generated by graphviz version 2.49.3 (20211023.0002)
 -->
<!-- Title: ubsan_shift_out_of_bounds_data_t Pages: 1 -->
<svg width="232pt" height="117pt"
 viewBox="0.00 0.00 231.50 117.00" xmlns="http://www.w3.org/2000/svg" xmlns:xlink="http://www.w3.org/1999/xlink">
<g id="graph0" class="graph" transform="scale(1 1) rotate(0) translate(4 113)">
<title>ubsan_shift_out_of_bounds_data_t</title>
<!-- Node1 -->
<g id="node1" class="node">
<title>Node1</title>
<g id="a_node1"><a xlink:title=" ">
<polygon fill="#bfbfbf" stroke="black" points="73.5,-0.5 73.5,-30.5 174.5,-30.5 174.5,-0.5 73.5,-0.5"/>
<text text-anchor="start" x="81.5" y="-18.5" font-family="Helvetica,sans-Serif" font-size="10.00">ubsan_shift_out_of</text>
<text text-anchor="middle" x="124" y="-7.5" font-family="Helvetica,sans-Serif" font-size="10.00">_bounds_data_t</text>
</a>
</g>
</g>
<!-- Node2 -->
<g id="node2" class="node">
<title>Node2</title>
<g id="a_node2"><a xlink:href="structubsan__source__location__t.html" target="_top" xlink:title=" ">
<polygon fill="none" stroke="black" points="0,-89.5 0,-108.5 128,-108.5 128,-89.5 0,-89.5"/>
<text text-anchor="middle" x="64" y="-96.5" font-family="Helvetica,sans-Serif" font-size="10.00">ubsan_source_location_t</text>
</a>
</g>
</g>
<!-- Node2&#45;&gt;Node1 -->
<g id="edge1" class="edge">
<title>Node2&#45;&gt;Node1</title>
<path fill="none" stroke="#9a32cd" stroke-dasharray="5,2" d="M76.55,-80.95C87.55,-66.01 103.33,-44.58 113.62,-30.6"/>
<polygon fill="#9a32cd" stroke="#9a32cd" points="73.53,-79.15 70.42,-89.28 79.17,-83.3 73.53,-79.15"/>
<text text-anchor="middle" x="119" y="-57.5" font-family="Helvetica,sans-Serif" font-size="10.00"> location</text>
</g>
<!-- Node3 -->
<g id="node3" class="node">
<title>Node3</title>
<g id="a_node3"><a xlink:href="structubsan__type__t.html" target="_top" xlink:title=" ">
<polygon fill="none" stroke="black" points="146.5,-89.5 146.5,-108.5 223.5,-108.5 223.5,-89.5 146.5,-89.5"/>
<text text-anchor="middle" x="185" y="-96.5" font-family="Helvetica,sans-Serif" font-size="10.00">ubsan_type_t</text>
</a>
</g>
</g>
<!-- Node3&#45;&gt;Node1 -->
<g id="edge2" class="edge">
<title>Node3&#45;&gt;Node1</title>
<path fill="none" stroke="#9a32cd" stroke-dasharray="5,2" d="M172.24,-80.95C161.06,-66.01 145.02,-44.58 134.55,-30.6"/>
<polygon fill="#9a32cd" stroke="#9a32cd" points="169.68,-83.37 178.47,-89.28 175.28,-79.17 169.68,-83.37"/>
<text text-anchor="middle" x="183.5" y="-63" font-family="Helvetica,sans-Serif" font-size="10.00"> lhs_type</text>
<text text-anchor="middle" x="183.5" y="-52" font-family="Helvetica,sans-Serif" font-size="10.00">rhs_type</text>
</g>
</g>
</svg>
