<?xml version="1.0" encoding="UTF-8" standalone="no"?>
<!DOCTYPE svg PUBLIC "-//W3C//DTD SVG 1.1//EN"
 "http://www.w3.org/Graphics/SVG/1.1/DTD/svg11.dtd">
<!-- Generated by graphviz version 3.0.0 (20220226.1711)
 -->
<!-- Title: ubsan_float_cast_overflow_data_t Pages: 1 -->
<svg width="226pt" height="117pt"
 viewBox="0.00 0.00 226.00 117.00" xmlns="http://www.w3.org/2000/svg" xmlns:xlink="http://www.w3.org/1999/xlink">
<g id="graph0" class="graph" transform="scale(1 1) rotate(0) translate(4 113)">
<title>ubsan_float_cast_overflow_data_t</title>
<!-- Node1 -->
<g id="node1" class="node">
<title>Node1</title>
<g id="a_node1"><a xlink:title=" ">
<polygon fill="#bfbfbf" stroke="black" points="55,-0.5 55,-30.5 188,-30.5 188,-0.5 55,-0.5"/>
<text text-anchor="start" x="63" y="-18.5" font-family="Helvetica,sans-Serif" font-size="10.00">ubsan_float_cast_overflow</text>
<text text-anchor="middle" x="121.5" y="-7.5" font-family="Helvetica,sans-Serif" font-size="10.00">_data_t</text>
</a>
</g>
</g>
<!-- Node2 -->
<g id="node2" class="node">
<title>Node2</title>
<g id="a_node2"><a xlink:href="structubsan__source__location__t.html" target="_top" xlink:title=" ">
<polygon fill="none" stroke="black" points="0,-89.5 0,-108.5 125,-108.5 125,-89.5 0,-89.5"/>
<text text-anchor="middle" x="62.5" y="-96.5" font-family="Helvetica,sans-Serif" font-size="10.00">ubsan_source_location_t</text>
</a>
</g>
</g>
<!-- Node2&#45;&gt;Node1 -->
<g id="edge1" class="edge">
<title>Node2&#45;&gt;Node1</title>
<path fill="none" stroke="#9a32cd" stroke-dasharray="5,2" d="M74.85,-80.95C85.65,-66.01 101.17,-44.58 111.29,-30.6"/>
<polygon fill="#9a32cd" stroke="#9a32cd" points="71.84,-79.13 68.81,-89.28 77.51,-83.23 71.84,-79.13"/>
<text text-anchor="middle" x="116" y="-57.5" font-family="Helvetica,sans-Serif" font-size="10.00"> location</text>
</g>
<!-- Node3 -->
<g id="node3" class="node">
<title>Node3</title>
<g id="a_node3"><a xlink:href="structubsan__type__t.html" target="_top" xlink:title=" ">
<polygon fill="none" stroke="black" points="143,-89.5 143,-108.5 218,-108.5 218,-89.5 143,-89.5"/>
<text text-anchor="middle" x="180.5" y="-96.5" font-family="Helvetica,sans-Serif" font-size="10.00">ubsan_type_t</text>
</a>
</g>
</g>
<!-- Node3&#45;&gt;Node1 -->
<g id="edge2" class="edge">
<title>Node3&#45;&gt;Node1</title>
<path fill="none" stroke="#9a32cd" stroke-dasharray="5,2" d="M168.15,-80.95C157.35,-66.01 141.83,-44.58 131.71,-30.6"/>
<polygon fill="#9a32cd" stroke="#9a32cd" points="165.49,-83.23 174.19,-89.28 171.16,-79.13 165.49,-83.23"/>
<text text-anchor="middle" x="183" y="-63" font-family="Helvetica,sans-Serif" font-size="10.00"> from_type</text>
<text text-anchor="middle" x="183" y="-52" font-family="Helvetica,sans-Serif" font-size="10.00">to_type</text>
</g>
</g>
</svg>
