<?xml version="1.0" encoding="UTF-8" standalone="no"?>
<!DOCTYPE svg PUBLIC "-//W3C//DTD SVG 1.1//EN"
 "http://www.w3.org/Graphics/SVG/1.1/DTD/svg11.dtd">
<!-- Generated by graphviz version 9.0.0 (20230911.1827)
 -->
<!-- Title: inish_section_t Pages: 1 -->
<svg width="178pt" height="94pt"
 viewBox="0.00 0.00 178.38 93.75" xmlns="http://www.w3.org/2000/svg" xmlns:xlink="http://www.w3.org/1999/xlink">
<g id="graph0" class="graph" transform="scale(1 1) rotate(0) translate(4 89.75)">
<title>inish_section_t</title>
<!-- Node1 -->
<g id="Node000001" class="node">
<title>Node1</title>
<g id="a_Node000001"><a xlink:title=" ">
<polygon fill="#999999" stroke="#666666" points="128.25,-19.25 47,-19.25 47,0 128.25,0 128.25,-19.25"/>
<text text-anchor="middle" x="87.62" y="-5.75" font-family="Helvetica,sans-Serif" font-size="10.00">inish_section_t</text>
</a>
</g>
</g>
<!-- Node2 -->
<g id="Node000002" class="node">
<title>Node2</title>
<g id="a_Node000002"><a xlink:href="structinish__kv__pair__t.html" target="_top" xlink:title=" ">
<polygon fill="white" stroke="#bfbfbf" points="81.25,-85.75 0,-85.75 0,-66.5 81.25,-66.5 81.25,-85.75"/>
<text text-anchor="middle" x="40.62" y="-72.25" font-family="Helvetica,sans-Serif" font-size="10.00">inish_kv_pair_t</text>
</a>
</g>
</g>
<!-- Node2&#45;&gt;Node1 -->
<g id="edge1_Node000001_Node000002" class="edge">
<title>Node2&#45;&gt;Node1</title>
<g id="a_edge1_Node000001_Node000002"><a xlink:title=" ">
<path fill="none" stroke="#9a32cd" stroke-dasharray="5,2" d="M53.92,-56.88C62.82,-44.66 74.15,-29.11 81.15,-19.52"/>
<polygon fill="#9a32cd" stroke="#9a32cd" points="51.11,-54.79 48.05,-64.93 56.77,-58.91 51.11,-54.79"/>
</a>
</g>
<text text-anchor="middle" x="87.5" y="-39" font-family="Helvetica,sans-Serif" font-size="10.00" fill="grey"> kv_pairs</text>
</g>
<!-- Node3 -->
<g id="Node000003" class="node">
<title>Node3</title>
<g id="a_Node000003"><a xlink:href="structinish__array__t.html" target="_top" xlink:title=" ">
<polygon fill="white" stroke="#bfbfbf" points="170.38,-85.75 98.88,-85.75 98.88,-66.5 170.38,-66.5 170.38,-85.75"/>
<text text-anchor="middle" x="134.62" y="-72.25" font-family="Helvetica,sans-Serif" font-size="10.00">inish_array_t</text>
</a>
</g>
</g>
<!-- Node3&#45;&gt;Node1 -->
<g id="edge2_Node000001_Node000003" class="edge">
<title>Node3&#45;&gt;Node1</title>
<g id="a_edge2_Node000001_Node000003"><a xlink:title=" ">
<path fill="none" stroke="#9a32cd" stroke-dasharray="5,2" d="M124.23,-56.44C120.49,-50.18 116.1,-43.26 111.62,-37.25 107.02,-31.06 101.24,-24.62 96.51,-19.62"/>
<polygon fill="#9a32cd" stroke="#9a32cd" points="121,-57.86 129.02,-64.78 127.07,-54.37 121,-57.86"/>
</a>
</g>
<text text-anchor="middle" x="133.62" y="-39" font-family="Helvetica,sans-Serif" font-size="10.00" fill="grey"> arrays</text>
</g>
</g>
</svg>
