<?xml version="1.0" encoding="UTF-8" standalone="no"?>
<!DOCTYPE svg PUBLIC "-//W3C//DTD SVG 1.1//EN"
 "http://www.w3.org/Graphics/SVG/1.1/DTD/svg11.dtd">
<!-- Generated by graphviz version 8.0.2 (20230410.1723)
 -->
<!-- Title: ubsan_invalid_value_data_t Pages: 1 -->
<svg width="226pt" height="106pt"
 viewBox="0.00 0.00 226.00 106.00" xmlns="http://www.w3.org/2000/svg" xmlns:xlink="http://www.w3.org/1999/xlink">
<g id="graph0" class="graph" transform="scale(1 1) rotate(0) translate(4 102)">
<title>ubsan_invalid_value_data_t</title>
<!-- Node1 -->
<g id="node1" class="node">
<title>Node1</title>
<g id="a_node1"><a xlink:title=" ">
<polygon fill="#bfbfbf" stroke="black" points="69.5,-0.5 69.5,-30.5 173.5,-30.5 173.5,-0.5 69.5,-0.5"/>
<text text-anchor="start" x="77.5" y="-18.5" font-family="Helvetica,sans-Serif" font-size="10.00">ubsan_invalid_value</text>
<text text-anchor="middle" x="121.5" y="-7.5" font-family="Helvetica,sans-Serif" font-size="10.00">_data_t</text>
</a>
</g>
</g>
<!-- Node2 -->
<g id="node2" class="node">
<title>Node2</title>
<g id="a_node2"><a xlink:href="structubsan__source__location__t.html" target="_top" xlink:title=" ">
<polygon fill="none" stroke="black" points="0,-78.5 0,-97.5 125,-97.5 125,-78.5 0,-78.5"/>
<text text-anchor="middle" x="62.5" y="-85.5" font-family="Helvetica,sans-Serif" font-size="10.00">ubsan_source_location_t</text>
</a>
</g>
</g>
<!-- Node2&#45;&gt;Node1 -->
<g id="edge1" class="edge">
<title>Node2&#45;&gt;Node1</title>
<path fill="none" stroke="#9a32cd" stroke-dasharray="5,2" d="M76.48,-70.29C86.65,-58.14 100.25,-41.89 109.84,-30.44"/>
<polygon fill="#9a32cd" stroke="#9a32cd" points="73.23,-67.72 69.5,-77.64 78.6,-72.21 73.23,-67.72"/>
<text text-anchor="middle" x="113" y="-52" font-family="Helvetica,sans-Serif" font-size="10.00"> location</text>
</g>
<!-- Node3 -->
<g id="node3" class="node">
<title>Node3</title>
<g id="a_node3"><a xlink:href="structubsan__type__t.html" target="_top" xlink:title=" ">
<polygon fill="none" stroke="black" points="143,-78.5 143,-97.5 218,-97.5 218,-78.5 143,-78.5"/>
<text text-anchor="middle" x="180.5" y="-85.5" font-family="Helvetica,sans-Serif" font-size="10.00">ubsan_type_t</text>
</a>
</g>
</g>
<!-- Node3&#45;&gt;Node1 -->
<g id="edge2" class="edge">
<title>Node3&#45;&gt;Node1</title>
<path fill="none" stroke="#9a32cd" stroke-dasharray="5,2" d="M166.52,-70.29C156.35,-58.14 142.75,-41.89 133.16,-30.44"/>
<polygon fill="#9a32cd" stroke="#9a32cd" points="164.4,-72.21 173.5,-77.64 169.77,-67.72 164.4,-72.21"/>
<text text-anchor="middle" x="166.5" y="-52" font-family="Helvetica,sans-Serif" font-size="10.00"> type</text>
</g>
</g>
</svg>
