<?xml version="1.0" encoding="UTF-8" standalone="no"?>
<!DOCTYPE svg PUBLIC "-//W3C//DTD SVG 1.1//EN"
 "http://www.w3.org/Graphics/SVG/1.1/DTD/svg11.dtd">
<!-- Generated by graphviz version 2.49.3 (20211023.0002)
 -->
<!-- Title: inish_config_t Pages: 1 -->
<svg width="184pt" height="162pt"
 viewBox="0.00 0.00 183.50 162.00" xmlns="http://www.w3.org/2000/svg" xmlns:xlink="http://www.w3.org/1999/xlink">
<g id="graph0" class="graph" transform="scale(1 1) rotate(0) translate(4 158)">
<title>inish_config_t</title>
<!-- Node1 -->
<g id="node1" class="node">
<title>Node1</title>
<g id="a_node1"><a xlink:title=" ">
<polygon fill="#bfbfbf" stroke="black" points="46,-0.5 46,-19.5 124,-19.5 124,-0.5 46,-0.5"/>
<text text-anchor="middle" x="85" y="-7.5" font-family="Helvetica,sans-Serif" font-size="10.00">inish_config_t</text>
</a>
</g>
</g>
<!-- Node2 -->
<g id="node2" class="node">
<title>Node2</title>
<g id="a_node2"><a xlink:href="structinish__section__t.html" target="_top" xlink:title=" ">
<polygon fill="none" stroke="black" points="43.5,-67.5 43.5,-86.5 126.5,-86.5 126.5,-67.5 43.5,-67.5"/>
<text text-anchor="middle" x="85" y="-74.5" font-family="Helvetica,sans-Serif" font-size="10.00">inish_section_t</text>
</a>
</g>
</g>
<!-- Node2&#45;&gt;Node1 -->
<g id="edge1" class="edge">
<title>Node2&#45;&gt;Node1</title>
<path fill="none" stroke="#9a32cd" stroke-dasharray="5,2" d="M85,-57.04C85,-44.67 85,-29.12 85,-19.63"/>
<polygon fill="#9a32cd" stroke="#9a32cd" points="81.5,-57.23 85,-67.23 88.5,-57.23 81.5,-57.23"/>
<text text-anchor="middle" x="105" y="-41" font-family="Helvetica,sans-Serif" font-size="10.00"> sections</text>
</g>
<!-- Node3 -->
<g id="node3" class="node">
<title>Node3</title>
<g id="a_node3"><a xlink:href="structinish__array__t.html" target="_top" xlink:title=" ">
<polygon fill="none" stroke="black" points="0,-134.5 0,-153.5 74,-153.5 74,-134.5 0,-134.5"/>
<text text-anchor="middle" x="37" y="-141.5" font-family="Helvetica,sans-Serif" font-size="10.00">inish_array_t</text>
</a>
</g>
</g>
<!-- Node3&#45;&gt;Node2 -->
<g id="edge2" class="edge">
<title>Node3&#45;&gt;Node2</title>
<path fill="none" stroke="#9a32cd" stroke-dasharray="5,2" d="M49.62,-125.9C58.95,-113.27 71.26,-96.6 78.63,-86.63"/>
<polygon fill="#9a32cd" stroke="#9a32cd" points="46.6,-124.11 43.47,-134.23 52.23,-128.27 46.6,-124.11"/>
<text text-anchor="middle" x="79.5" y="-108" font-family="Helvetica,sans-Serif" font-size="10.00"> arrays</text>
</g>
<!-- Node4 -->
<g id="node4" class="node">
<title>Node4</title>
<g id="a_node4"><a xlink:href="structinish__kv__pair__t.html" target="_top" xlink:title=" ">
<polygon fill="none" stroke="black" points="92.5,-134.5 92.5,-153.5 175.5,-153.5 175.5,-134.5 92.5,-134.5"/>
<text text-anchor="middle" x="134" y="-141.5" font-family="Helvetica,sans-Serif" font-size="10.00">inish_kv_pair_t</text>
</a>
</g>
</g>
<!-- Node4&#45;&gt;Node2 -->
<g id="edge3" class="edge">
<title>Node4&#45;&gt;Node2</title>
<path fill="none" stroke="#9a32cd" stroke-dasharray="5,2" d="M121.11,-125.9C111.59,-113.27 99.02,-96.6 91.5,-86.63"/>
<polygon fill="#9a32cd" stroke="#9a32cd" points="118.58,-128.36 127.39,-134.23 124.17,-124.14 118.58,-128.36"/>
<text text-anchor="middle" x="132.5" y="-108" font-family="Helvetica,sans-Serif" font-size="10.00"> kv_pairs</text>
</g>
</g>
</svg>
