<?xml version="1.0" encoding="UTF-8" standalone="no"?>
<!DOCTYPE svg PUBLIC "-//W3C//DTD SVG 1.1//EN"
 "http://www.w3.org/Graphics/SVG/1.1/DTD/svg11.dtd">
<!-- Generated by graphviz version 8.0.2 (20230410.1723)
 -->
<!-- Title: inish_section_t Pages: 1 -->
<svg width="180pt" height="93pt"
 viewBox="0.00 0.00 180.00 93.00" xmlns="http://www.w3.org/2000/svg" xmlns:xlink="http://www.w3.org/1999/xlink">
<g id="graph0" class="graph" transform="scale(1 1) rotate(0) translate(4 89)">
<title>inish_section_t</title>
<!-- Node1 -->
<g id="Node000001" class="node">
<title>Node1</title>
<g id="a_Node000001"><a xlink:title=" ">
<polygon fill="#999999" stroke="#666666" points="129,-19 47,-19 47,0 129,0 129,-19"/>
<text text-anchor="middle" x="88" y="-7" font-family="Helvetica,sans-Serif" font-size="10.00">inish_section_t</text>
</a>
</g>
</g>
<!-- Node2 -->
<g id="Node000002" class="node">
<title>Node2</title>
<g id="a_Node000002"><a xlink:href="structinish__kv__pair__t.html" target="_top" xlink:title=" ">
<polygon fill="white" stroke="#bfbfbf" points="82,-85 0,-85 0,-66 82,-66 82,-85"/>
<text text-anchor="middle" x="41" y="-73" font-family="Helvetica,sans-Serif" font-size="10.00">inish_kv_pair_t</text>
</a>
</g>
</g>
<!-- Node2&#45;&gt;Node1 -->
<g id="edge1_Node000001_Node000002" class="edge">
<title>Node2&#45;&gt;Node1</title>
<g id="a_edge1_Node000001_Node000002"><a xlink:title=" ">
<path fill="none" stroke="#9a32cd" stroke-dasharray="5,2" d="M54.03,-56.76C62.97,-44.58 74.46,-28.94 81.52,-19.32"/>
<polygon fill="#9a32cd" stroke="#9a32cd" points="50.63,-54.47 47.54,-64.6 56.28,-58.61 50.63,-54.47"/>
</a>
</g>
<text text-anchor="middle" x="88" y="-40" font-family="Helvetica,sans-Serif" font-size="10.00" fill="grey"> kv_pairs</text>
</g>
<!-- Node3 -->
<g id="Node000003" class="node">
<title>Node3</title>
<g id="a_Node000003"><a xlink:href="structinish__array__t.html" target="_top" xlink:title=" ">
<polygon fill="white" stroke="#bfbfbf" points="172,-85 100,-85 100,-66 172,-66 172,-85"/>
<text text-anchor="middle" x="136" y="-73" font-family="Helvetica,sans-Serif" font-size="10.00">inish_array_t</text>
</a>
</g>
</g>
<!-- Node3&#45;&gt;Node1 -->
<g id="edge2_Node000001_Node000003" class="edge">
<title>Node3&#45;&gt;Node1</title>
<g id="a_edge2_Node000001_Node000003"><a xlink:title=" ">
<path fill="none" stroke="#9a32cd" stroke-dasharray="5,2" d="M125.32,-56.49C121.36,-50.17 116.68,-43.13 112,-37 107.33,-30.88 101.55,-24.48 96.83,-19.49"/>
<polygon fill="#9a32cd" stroke="#9a32cd" points="122.67,-57.87 130.87,-64.58 128.65,-54.22 122.67,-57.87"/>
</a>
</g>
<text text-anchor="middle" x="134.5" y="-40" font-family="Helvetica,sans-Serif" font-size="10.00" fill="grey"> arrays</text>
</g>
</g>
</svg>
