<?xml version="1.0" encoding="UTF-8" standalone="no"?>
<!DOCTYPE svg PUBLIC "-//W3C//DTD SVG 1.1//EN"
 "http://www.w3.org/Graphics/SVG/1.1/DTD/svg11.dtd">
<!-- Generated by graphviz version 8.0.2 (20230410.1723)
 -->
<!-- Title: multiboot_tag_framebuffer_t Pages: 1 -->
<svg width="259pt" height="106pt"
 viewBox="0.00 0.00 259.00 106.00" xmlns="http://www.w3.org/2000/svg" xmlns:xlink="http://www.w3.org/1999/xlink">
<g id="graph0" class="graph" transform="scale(1 1) rotate(0) translate(4 102)">
<title>multiboot_tag_framebuffer_t</title>
<!-- Node1 -->
<g id="node1" class="node">
<title>Node1</title>
<g id="a_node1"><a xlink:title=" ">
<polygon fill="#bfbfbf" stroke="black" points="60,-0.5 60,-19.5 198,-19.5 198,-0.5 60,-0.5"/>
<text text-anchor="middle" x="129" y="-7.5" font-family="Helvetica,sans-Serif" font-size="10.00">multiboot_tag_framebuffer_t</text>
</a>
</g>
</g>
<!-- Node2 -->
<g id="node2" class="node">
<title>Node2</title>
<g id="a_node2"><a xlink:href="structmultiboot__tag__framebuffer__common__t.html" target="_top" xlink:title=" ">
<polygon fill="none" stroke="black" points="0,-67.5 0,-97.5 130,-97.5 130,-67.5 0,-67.5"/>
<text text-anchor="start" x="8" y="-85.5" font-family="Helvetica,sans-Serif" font-size="10.00">multiboot_tag_framebuffer</text>
<text text-anchor="middle" x="65" y="-74.5" font-family="Helvetica,sans-Serif" font-size="10.00">_common_t</text>
</a>
</g>
</g>
<!-- Node2&#45;&gt;Node1 -->
<g id="edge1" class="edge">
<title>Node2&#45;&gt;Node1</title>
<path fill="none" stroke="#9a32cd" stroke-dasharray="5,2" d="M84.94,-59.54C97.38,-45.83 112.67,-28.99 121.58,-19.18"/>
<polygon fill="#9a32cd" stroke="#9a32cd" points="82.77,-56.81 78.64,-66.57 87.96,-61.52 82.77,-56.81"/>
<text text-anchor="middle" x="123.5" y="-41" font-family="Helvetica,sans-Serif" font-size="10.00"> common</text>
</g>
<!-- Node3 -->
<g id="node3" class="node">
<title>Node3</title>
<g id="a_node3"><a xlink:href="structmultiboot__color__t.html" target="_top" xlink:title=" ">
<polygon fill="none" stroke="black" points="148.5,-73 148.5,-92 239.5,-92 239.5,-73 148.5,-73"/>
<text text-anchor="middle" x="194" y="-80" font-family="Helvetica,sans-Serif" font-size="10.00">multiboot_color_t</text>
</a>
</g>
</g>
<!-- Node3&#45;&gt;Node1 -->
<g id="edge2" class="edge">
<title>Node3&#45;&gt;Node1</title>
<path fill="none" stroke="#9a32cd" stroke-dasharray="5,2" d="M178.89,-65.11C165.69,-50.79 147.06,-30.58 136.7,-19.35"/>
<polygon fill="#9a32cd" stroke="#9a32cd" points="175.94,-67.16 185.29,-72.14 181.08,-62.41 175.94,-67.16"/>
<text text-anchor="middle" x="207" y="-41" font-family="Helvetica,sans-Serif" font-size="10.00"> framebuffer_palette</text>
</g>
</g>
</svg>
