<?xml version="1.0" encoding="UTF-8" standalone="no"?>
<!DOCTYPE svg PUBLIC "-//W3C//DTD SVG 1.1//EN"
 "http://www.w3.org/Graphics/SVG/1.1/DTD/svg11.dtd">
<!-- Generated by graphviz version 8.0.2 (20230410.1723)
 -->
<!-- Title: inish_config_t Pages: 1 -->
<svg width="180pt" height="159pt"
 viewBox="0.00 0.00 180.00 159.00" xmlns="http://www.w3.org/2000/svg" xmlns:xlink="http://www.w3.org/1999/xlink">
<g id="graph0" class="graph" transform="scale(1 1) rotate(0) translate(4 155)">
<title>inish_config_t</title>
<!-- Node1 -->
<g id="Node000001" class="node">
<title>Node1</title>
<g id="a_Node000001"><a xlink:title=" ">
<polygon fill="#999999" stroke="#666666" points="126.5,-19 49.5,-19 49.5,0 126.5,0 126.5,-19"/>
<text text-anchor="middle" x="88" y="-7" font-family="Helvetica,sans-Serif" font-size="10.00">inish_config_t</text>
</a>
</g>
</g>
<!-- Node2 -->
<g id="Node000002" class="node">
<title>Node2</title>
<g id="a_Node000002"><a xlink:href="structinish__section__t.html" target="_top" xlink:title=" ">
<polygon fill="white" stroke="#bfbfbf" points="129,-85 47,-85 47,-66 129,-66 129,-85"/>
<text text-anchor="middle" x="88" y="-73" font-family="Helvetica,sans-Serif" font-size="10.00">inish_section_t</text>
</a>
</g>
</g>
<!-- Node2&#45;&gt;Node1 -->
<g id="edge1_Node000001_Node000002" class="edge">
<title>Node2&#45;&gt;Node1</title>
<g id="a_edge1_Node000001_Node000002"><a xlink:title=" ">
<path fill="none" stroke="#9a32cd" stroke-dasharray="5,2" d="M88,-54.93C88,-43.05 88,-28.46 88,-19.32"/>
<polygon fill="#9a32cd" stroke="#9a32cd" points="84.5,-54.6 88,-64.6 91.5,-54.6 84.5,-54.6"/>
</a>
</g>
<text text-anchor="middle" x="108" y="-40" font-family="Helvetica,sans-Serif" font-size="10.00" fill="grey"> sections</text>
</g>
<!-- Node3 -->
<g id="Node000003" class="node">
<title>Node3</title>
<g id="a_Node000003"><a xlink:href="structinish__kv__pair__t.html" target="_top" xlink:title=" ">
<polygon fill="white" stroke="#bfbfbf" points="82,-151 0,-151 0,-132 82,-132 82,-151"/>
<text text-anchor="middle" x="41" y="-139" font-family="Helvetica,sans-Serif" font-size="10.00">inish_kv_pair_t</text>
</a>
</g>
</g>
<!-- Node3&#45;&gt;Node2 -->
<g id="edge2_Node000002_Node000003" class="edge">
<title>Node3&#45;&gt;Node2</title>
<g id="a_edge2_Node000002_Node000003"><a xlink:title=" ">
<path fill="none" stroke="#9a32cd" stroke-dasharray="5,2" d="M54.03,-122.76C62.97,-110.58 74.46,-94.94 81.52,-85.32"/>
<polygon fill="#9a32cd" stroke="#9a32cd" points="50.63,-120.47 47.54,-130.6 56.28,-124.61 50.63,-120.47"/>
</a>
</g>
<text text-anchor="middle" x="88" y="-106" font-family="Helvetica,sans-Serif" font-size="10.00" fill="grey"> kv_pairs</text>
</g>
<!-- Node4 -->
<g id="Node000004" class="node">
<title>Node4</title>
<g id="a_Node000004"><a xlink:href="structinish__array__t.html" target="_top" xlink:title=" ">
<polygon fill="white" stroke="#bfbfbf" points="172,-151 100,-151 100,-132 172,-132 172,-151"/>
<text text-anchor="middle" x="136" y="-139" font-family="Helvetica,sans-Serif" font-size="10.00">inish_array_t</text>
</a>
</g>
</g>
<!-- Node4&#45;&gt;Node2 -->
<g id="edge3_Node000002_Node000004" class="edge">
<title>Node4&#45;&gt;Node2</title>
<g id="a_edge3_Node000002_Node000004"><a xlink:title=" ">
<path fill="none" stroke="#9a32cd" stroke-dasharray="5,2" d="M125.32,-122.49C121.36,-116.17 116.68,-109.13 112,-103 107.33,-96.88 101.55,-90.48 96.83,-85.49"/>
<polygon fill="#9a32cd" stroke="#9a32cd" points="122.67,-123.87 130.87,-130.58 128.65,-120.22 122.67,-123.87"/>
</a>
</g>
<text text-anchor="middle" x="134.5" y="-106" font-family="Helvetica,sans-Serif" font-size="10.00" fill="grey"> arrays</text>
</g>
</g>
</svg>
