<?xml version="1.0" encoding="UTF-8" standalone="no"?>
<!DOCTYPE svg PUBLIC "-//W3C//DTD SVG 1.1//EN"
 "http://www.w3.org/Graphics/SVG/1.1/DTD/svg11.dtd">
<!-- Generated by graphviz version 8.0.2 (20230410.1723)
 -->
<!-- Title: ubsan_mismatch_v1_data_t Pages: 1 -->
<svg width="226pt" height="93pt"
 viewBox="0.00 0.00 226.00 93.00" xmlns="http://www.w3.org/2000/svg" xmlns:xlink="http://www.w3.org/1999/xlink">
<g id="graph0" class="graph" transform="scale(1 1) rotate(0) translate(4 89)">
<title>ubsan_mismatch_v1_data_t</title>
<!-- Node1 -->
<g id="Node000001" class="node">
<title>Node1</title>
<g id="a_Node000001"><a xlink:title=" ">
<polygon fill="#999999" stroke="#666666" points="191,-19 52,-19 52,0 191,0 191,-19"/>
<text text-anchor="middle" x="121.5" y="-7" font-family="Helvetica,sans-Serif" font-size="10.00">ubsan_mismatch_v1_data_t</text>
</a>
</g>
</g>
<!-- Node2 -->
<g id="Node000002" class="node">
<title>Node2</title>
<g id="a_Node000002"><a xlink:href="structubsan__source__location__t.html" target="_top" xlink:title=" ">
<polygon fill="white" stroke="#bfbfbf" points="125,-85 0,-85 0,-66 125,-66 125,-85"/>
<text text-anchor="middle" x="62.5" y="-73" font-family="Helvetica,sans-Serif" font-size="10.00">ubsan_source_location_t</text>
</a>
</g>
</g>
<!-- Node2&#45;&gt;Node1 -->
<g id="edge1_Node000001_Node000002" class="edge">
<title>Node2&#45;&gt;Node1</title>
<g id="a_edge1_Node000001_Node000002"><a xlink:title=" ">
<path fill="none" stroke="#9a32cd" stroke-dasharray="5,2" d="M77.86,-57.83C89.22,-45.52 104.24,-29.23 113.37,-19.32"/>
<polygon fill="#9a32cd" stroke="#9a32cd" points="75.91,-54.88 71.7,-64.6 81.06,-59.62 75.91,-54.88"/>
</a>
</g>
<text text-anchor="middle" x="115" y="-40" font-family="Helvetica,sans-Serif" font-size="10.00" fill="grey"> location</text>
</g>
<!-- Node3 -->
<g id="Node000003" class="node">
<title>Node3</title>
<g id="a_Node000003"><a xlink:href="structubsan__type__t.html" target="_top" xlink:title=" ">
<polygon fill="white" stroke="#bfbfbf" points="218,-85 143,-85 143,-66 218,-66 218,-85"/>
<text text-anchor="middle" x="180.5" y="-73" font-family="Helvetica,sans-Serif" font-size="10.00">ubsan_type_t</text>
</a>
</g>
</g>
<!-- Node3&#45;&gt;Node1 -->
<g id="edge2_Node000001_Node000003" class="edge">
<title>Node3&#45;&gt;Node1</title>
<g id="a_edge2_Node000001_Node000003"><a xlink:title=" ">
<path fill="none" stroke="#9a32cd" stroke-dasharray="5,2" d="M165.14,-57.83C153.78,-45.52 138.76,-29.23 129.63,-19.32"/>
<polygon fill="#9a32cd" stroke="#9a32cd" points="161.94,-59.62 171.3,-64.6 167.09,-54.88 161.94,-59.62"/>
</a>
</g>
<text text-anchor="middle" x="165.5" y="-40" font-family="Helvetica,sans-Serif" font-size="10.00" fill="grey"> type</text>
</g>
</g>
</svg>
