<?xml version="1.0" encoding="UTF-8" standalone="no"?>
<!DOCTYPE svg PUBLIC "-//W3C//DTD SVG 1.1//EN"
 "http://www.w3.org/Graphics/SVG/1.1/DTD/svg11.dtd">
<!-- Generated by graphviz version 8.0.2 (20230410.1723)
 -->
<!-- Title: ubsan_invalid_value_data_t Pages: 1 -->
<svg width="226pt" height="104pt"
 viewBox="0.00 0.00 226.00 104.00" xmlns="http://www.w3.org/2000/svg" xmlns:xlink="http://www.w3.org/1999/xlink">
<g id="graph0" class="graph" transform="scale(1 1) rotate(0) translate(4 100)">
<title>ubsan_invalid_value_data_t</title>
<!-- Node1 -->
<g id="Node000001" class="node">
<title>Node1</title>
<g id="a_Node000001"><a xlink:title=" ">
<polygon fill="#999999" stroke="#666666" points="173.5,-30 69.5,-30 69.5,0 173.5,0 173.5,-30"/>
<text text-anchor="start" x="77.5" y="-18" font-family="Helvetica,sans-Serif" font-size="10.00">ubsan_invalid_value</text>
<text text-anchor="middle" x="121.5" y="-7" font-family="Helvetica,sans-Serif" font-size="10.00">_data_t</text>
</a>
</g>
</g>
<!-- Node2 -->
<g id="Node000002" class="node">
<title>Node2</title>
<g id="a_Node000002"><a xlink:href="structubsan__source__location__t.html" target="_top" xlink:title=" ">
<polygon fill="white" stroke="#bfbfbf" points="125,-96 0,-96 0,-77 125,-77 125,-96"/>
<text text-anchor="middle" x="62.5" y="-84" font-family="Helvetica,sans-Serif" font-size="10.00">ubsan_source_location_t</text>
</a>
</g>
</g>
<!-- Node2&#45;&gt;Node1 -->
<g id="edge1_Node000001_Node000002" class="edge">
<title>Node2&#45;&gt;Node1</title>
<g id="a_edge1_Node000001_Node000002"><a xlink:title=" ">
<path fill="none" stroke="#9a32cd" stroke-dasharray="5,2" d="M76.86,-68.58C86.82,-56.85 99.95,-41.39 109.38,-30.27"/>
<polygon fill="#9a32cd" stroke="#9a32cd" points="73.78,-65.81 69.97,-75.7 79.11,-70.34 73.78,-65.81"/>
</a>
</g>
<text text-anchor="middle" x="113" y="-51" font-family="Helvetica,sans-Serif" font-size="10.00" fill="grey"> location</text>
</g>
<!-- Node3 -->
<g id="Node000003" class="node">
<title>Node3</title>
<g id="a_Node000003"><a xlink:href="structubsan__type__t.html" target="_top" xlink:title=" ">
<polygon fill="white" stroke="#bfbfbf" points="218,-96 143,-96 143,-77 218,-77 218,-96"/>
<text text-anchor="middle" x="180.5" y="-84" font-family="Helvetica,sans-Serif" font-size="10.00">ubsan_type_t</text>
</a>
</g>
</g>
<!-- Node3&#45;&gt;Node1 -->
<g id="edge2_Node000001_Node000003" class="edge">
<title>Node3&#45;&gt;Node1</title>
<g id="a_edge2_Node000001_Node000003"><a xlink:title=" ">
<path fill="none" stroke="#9a32cd" stroke-dasharray="5,2" d="M166.14,-68.58C156.18,-56.85 143.05,-41.39 133.62,-30.27"/>
<polygon fill="#9a32cd" stroke="#9a32cd" points="163.89,-70.34 173.03,-75.7 169.22,-65.81 163.89,-70.34"/>
</a>
</g>
<text text-anchor="middle" x="166.5" y="-51" font-family="Helvetica,sans-Serif" font-size="10.00" fill="grey"> type</text>
</g>
</g>
</svg>
