<?xml version="1.0" encoding="UTF-8" standalone="no"?>
<!DOCTYPE svg PUBLIC "-//W3C//DTD SVG 1.1//EN"
 "http://www.w3.org/Graphics/SVG/1.1/DTD/svg11.dtd">
<!-- Generated by graphviz version 2.49.3 (20211023.0002)
 -->
<!-- Title: ubsan_mismatch_v1_data_t Pages: 1 -->
<svg width="232pt" height="95pt"
 viewBox="0.00 0.00 231.50 95.00" xmlns="http://www.w3.org/2000/svg" xmlns:xlink="http://www.w3.org/1999/xlink">
<g id="graph0" class="graph" transform="scale(1 1) rotate(0) translate(4 91)">
<title>ubsan_mismatch_v1_data_t</title>
<!-- Node1 -->
<g id="node1" class="node">
<title>Node1</title>
<g id="a_node1"><a xlink:title=" ">
<polygon fill="#bfbfbf" stroke="black" points="53,-0.5 53,-19.5 195,-19.5 195,-0.5 53,-0.5"/>
<text text-anchor="middle" x="124" y="-7.5" font-family="Helvetica,sans-Serif" font-size="10.00">ubsan_mismatch_v1_data_t</text>
</a>
</g>
</g>
<!-- Node2 -->
<g id="node2" class="node">
<title>Node2</title>
<g id="a_node2"><a xlink:href="structubsan__source__location__t.html" target="_top" xlink:title=" ">
<polygon fill="none" stroke="black" points="0,-67.5 0,-86.5 128,-86.5 128,-67.5 0,-67.5"/>
<text text-anchor="middle" x="64" y="-74.5" font-family="Helvetica,sans-Serif" font-size="10.00">ubsan_source_location_t</text>
</a>
</g>
</g>
<!-- Node2&#45;&gt;Node1 -->
<g id="edge1" class="edge">
<title>Node2&#45;&gt;Node1</title>
<path fill="none" stroke="#9a32cd" stroke-dasharray="5,2" d="M79.11,-59.63C90.84,-46.92 106.65,-29.8 116.04,-19.63"/>
<polygon fill="#9a32cd" stroke="#9a32cd" points="76.3,-57.51 72.09,-67.23 81.45,-62.26 76.3,-57.51"/>
<text text-anchor="middle" x="117" y="-41" font-family="Helvetica,sans-Serif" font-size="10.00"> location</text>
</g>
<!-- Node3 -->
<g id="node3" class="node">
<title>Node3</title>
<g id="a_node3"><a xlink:href="structubsan__type__t.html" target="_top" xlink:title=" ">
<polygon fill="none" stroke="black" points="146.5,-67.5 146.5,-86.5 223.5,-86.5 223.5,-67.5 146.5,-67.5"/>
<text text-anchor="middle" x="185" y="-74.5" font-family="Helvetica,sans-Serif" font-size="10.00">ubsan_type_t</text>
</a>
</g>
</g>
<!-- Node3&#45;&gt;Node1 -->
<g id="edge2" class="edge">
<title>Node3&#45;&gt;Node1</title>
<path fill="none" stroke="#9a32cd" stroke-dasharray="5,2" d="M169.64,-59.63C157.71,-46.92 141.64,-29.8 132.1,-19.63"/>
<polygon fill="#9a32cd" stroke="#9a32cd" points="167.38,-62.34 176.77,-67.23 172.48,-57.55 167.38,-62.34"/>
<text text-anchor="middle" x="169" y="-41" font-family="Helvetica,sans-Serif" font-size="10.00"> type</text>
</g>
</g>
</svg>
