<?xml version="1.0" encoding="UTF-8" standalone="no"?>
<!DOCTYPE svg PUBLIC "-//W3C//DTD SVG 1.1//EN"
 "http://www.w3.org/Graphics/SVG/1.1/DTD/svg11.dtd">
<!-- Generated by graphviz version 2.49.3 (20211023.0002)
 -->
<!-- Title: multiboot_tag_framebuffer_t Pages: 1 -->
<svg width="264pt" height="106pt"
 viewBox="0.00 0.00 263.50 106.00" xmlns="http://www.w3.org/2000/svg" xmlns:xlink="http://www.w3.org/1999/xlink">
<g id="graph0" class="graph" transform="scale(1 1) rotate(0) translate(4 102)">
<title>multiboot_tag_framebuffer_t</title>
<!-- Node1 -->
<g id="node1" class="node">
<title>Node1</title>
<g id="a_node1"><a xlink:title=" ">
<polygon fill="#bfbfbf" stroke="black" points="61,-0.5 61,-19.5 202,-19.5 202,-0.5 61,-0.5"/>
<text text-anchor="middle" x="131.5" y="-7.5" font-family="Helvetica,sans-Serif" font-size="10.00">multiboot_tag_framebuffer_t</text>
</a>
</g>
</g>
<!-- Node2 -->
<g id="node2" class="node">
<title>Node2</title>
<g id="a_node2"><a xlink:href="structmultiboot__tag__framebuffer__common__t.html" target="_top" xlink:title=" ">
<polygon fill="none" stroke="black" points="0,-67.5 0,-97.5 133,-97.5 133,-67.5 0,-67.5"/>
<text text-anchor="start" x="8" y="-85.5" font-family="Helvetica,sans-Serif" font-size="10.00">multiboot_tag_framebuffer</text>
<text text-anchor="middle" x="66.5" y="-74.5" font-family="Helvetica,sans-Serif" font-size="10.00">_common_t</text>
</a>
</g>
</g>
<!-- Node2&#45;&gt;Node1 -->
<g id="edge1" class="edge">
<title>Node2&#45;&gt;Node1</title>
<path fill="none" stroke="#9a32cd" stroke-dasharray="5,2" d="M86.54,-59.76C98.91,-46.34 114.12,-29.85 123.3,-19.89"/>
<polygon fill="#9a32cd" stroke="#9a32cd" points="83.86,-57.51 79.65,-67.23 89.01,-62.25 83.86,-57.51"/>
<text text-anchor="middle" x="126.5" y="-41" font-family="Helvetica,sans-Serif" font-size="10.00"> common</text>
</g>
<!-- Node3 -->
<g id="node3" class="node">
<title>Node3</title>
<g id="a_node3"><a xlink:href="structmultiboot__color__t.html" target="_top" xlink:title=" ">
<polygon fill="none" stroke="black" points="151,-73 151,-92 244,-92 244,-73 151,-73"/>
<text text-anchor="middle" x="197.5" y="-80" font-family="Helvetica,sans-Serif" font-size="10.00">multiboot_color_t</text>
</a>
</g>
</g>
<!-- Node3&#45;&gt;Node1 -->
<g id="edge2" class="edge">
<title>Node3&#45;&gt;Node1</title>
<path fill="none" stroke="#9a32cd" stroke-dasharray="5,2" d="M182.33,-65.3C169.06,-51.12 150.28,-31.06 139.66,-19.72"/>
<polygon fill="#9a32cd" stroke="#9a32cd" points="180.02,-67.95 189.41,-72.86 185.13,-63.16 180.02,-67.95"/>
<text text-anchor="middle" x="210.5" y="-41" font-family="Helvetica,sans-Serif" font-size="10.00"> framebuffer_palette</text>
</g>
</g>
</svg>
