<?xml version="1.0" encoding="UTF-8" standalone="no"?>
<!DOCTYPE svg PUBLIC "-//W3C//DTD SVG 1.1//EN"
 "http://www.w3.org/Graphics/SVG/1.1/DTD/svg11.dtd">
<!-- Generated by graphviz version 2.49.3 (20211023.0002)
 -->
<!-- Title: inish_config_t Pages: 1 -->
<svg width="184pt" height="162pt"
 viewBox="0.00 0.00 183.50 162.00" xmlns="http://www.w3.org/2000/svg" xmlns:xlink="http://www.w3.org/1999/xlink">
<g id="graph0" class="graph" transform="scale(1 1) rotate(0) translate(4 158)">
<title>inish_config_t</title>
<!-- Node1 -->
<g id="node1" class="node">
<title>Node1</title>
<g id="a_node1"><a xlink:title=" ">
<polygon fill="#bfbfbf" stroke="black" points="50.5,-0.5 50.5,-19.5 128.5,-19.5 128.5,-0.5 50.5,-0.5"/>
<text text-anchor="middle" x="89.5" y="-7.5" font-family="Helvetica,sans-Serif" font-size="10.00">inish_config_t</text>
</a>
</g>
</g>
<!-- Node2 -->
<g id="node2" class="node">
<title>Node2</title>
<g id="a_node2"><a xlink:href="structinish__section__t.html" target="_top" xlink:title=" ">
<polygon fill="none" stroke="black" points="48,-67.5 48,-86.5 131,-86.5 131,-67.5 48,-67.5"/>
<text text-anchor="middle" x="89.5" y="-74.5" font-family="Helvetica,sans-Serif" font-size="10.00">inish_section_t</text>
</a>
</g>
</g>
<!-- Node2&#45;&gt;Node1 -->
<g id="edge1" class="edge">
<title>Node2&#45;&gt;Node1</title>
<path fill="none" stroke="#9a32cd" stroke-dasharray="5,2" d="M89.5,-57.04C89.5,-44.67 89.5,-29.12 89.5,-19.63"/>
<polygon fill="#9a32cd" stroke="#9a32cd" points="86,-57.23 89.5,-67.23 93,-57.23 86,-57.23"/>
<text text-anchor="middle" x="109.5" y="-41" font-family="Helvetica,sans-Serif" font-size="10.00"> sections</text>
</g>
<!-- Node3 -->
<g id="node3" class="node">
<title>Node3</title>
<g id="a_node3"><a xlink:href="structinish__kv__pair__t.html" target="_top" xlink:title=" ">
<polygon fill="none" stroke="black" points="0,-134.5 0,-153.5 83,-153.5 83,-134.5 0,-134.5"/>
<text text-anchor="middle" x="41.5" y="-141.5" font-family="Helvetica,sans-Serif" font-size="10.00">inish_kv_pair_t</text>
</a>
</g>
</g>
<!-- Node3&#45;&gt;Node2 -->
<g id="edge2" class="edge">
<title>Node3&#45;&gt;Node2</title>
<path fill="none" stroke="#9a32cd" stroke-dasharray="5,2" d="M54.12,-125.9C63.45,-113.27 75.76,-96.6 83.13,-86.63"/>
<polygon fill="#9a32cd" stroke="#9a32cd" points="51.1,-124.11 47.97,-134.23 56.73,-128.27 51.1,-124.11"/>
<text text-anchor="middle" x="89" y="-108" font-family="Helvetica,sans-Serif" font-size="10.00"> kv_pairs</text>
</g>
<!-- Node4 -->
<g id="node4" class="node">
<title>Node4</title>
<g id="a_node4"><a xlink:href="structinish__array__t.html" target="_top" xlink:title=" ">
<polygon fill="none" stroke="black" points="101.5,-134.5 101.5,-153.5 175.5,-153.5 175.5,-134.5 101.5,-134.5"/>
<text text-anchor="middle" x="138.5" y="-141.5" font-family="Helvetica,sans-Serif" font-size="10.00">inish_array_t</text>
</a>
</g>
</g>
<!-- Node4&#45;&gt;Node2 -->
<g id="edge3" class="edge">
<title>Node4&#45;&gt;Node2</title>
<path fill="none" stroke="#9a32cd" stroke-dasharray="5,2" d="M127.75,-125.51C123.51,-118.93 118.47,-111.48 113.5,-105 108.61,-98.63 102.61,-91.88 97.84,-86.72"/>
<polygon fill="#9a32cd" stroke="#9a32cd" points="124.99,-127.71 133.28,-134.31 130.92,-123.98 124.99,-127.71"/>
<text text-anchor="middle" x="136" y="-108" font-family="Helvetica,sans-Serif" font-size="10.00"> arrays</text>
</g>
</g>
</svg>
