<?xml version="1.0" encoding="UTF-8" standalone="no"?>
<!DOCTYPE svg PUBLIC "-//W3C//DTD SVG 1.1//EN"
 "http://www.w3.org/Graphics/SVG/1.1/DTD/svg11.dtd">
<!-- Generated by graphviz version 8.0.2 (20230410.1723)
 -->
<!-- Title: ubsan_out_of_bounds_data_t Pages: 1 -->
<svg width="226pt" height="115pt"
 viewBox="0.00 0.00 226.00 115.00" xmlns="http://www.w3.org/2000/svg" xmlns:xlink="http://www.w3.org/1999/xlink">
<g id="graph0" class="graph" transform="scale(1 1) rotate(0) translate(4 111)">
<title>ubsan_out_of_bounds_data_t</title>
<!-- Node1 -->
<g id="Node000001" class="node">
<title>Node1</title>
<g id="a_Node000001"><a xlink:title=" ">
<polygon fill="#999999" stroke="#666666" points="177.5,-30 65.5,-30 65.5,0 177.5,0 177.5,-30"/>
<text text-anchor="start" x="73.5" y="-18" font-family="Helvetica,sans-Serif" font-size="10.00">ubsan_out_of_bounds</text>
<text text-anchor="middle" x="121.5" y="-7" font-family="Helvetica,sans-Serif" font-size="10.00">_data_t</text>
</a>
</g>
</g>
<!-- Node2 -->
<g id="Node000002" class="node">
<title>Node2</title>
<g id="a_Node000002"><a xlink:href="structubsan__source__location__t.html" target="_top" xlink:title=" ">
<polygon fill="white" stroke="#bfbfbf" points="125,-107 0,-107 0,-88 125,-88 125,-107"/>
<text text-anchor="middle" x="62.5" y="-95" font-family="Helvetica,sans-Serif" font-size="10.00">ubsan_source_location_t</text>
</a>
</g>
</g>
<!-- Node2&#45;&gt;Node1 -->
<g id="edge1_Node000001_Node000002" class="edge">
<title>Node2&#45;&gt;Node1</title>
<g id="a_edge1_Node000001_Node000002"><a xlink:title=" ">
<path fill="none" stroke="#9a32cd" stroke-dasharray="5,2" d="M75.33,-79C85.99,-64.45 100.98,-44 110.96,-30.39"/>
<polygon fill="#9a32cd" stroke="#9a32cd" points="72.13,-76.44 69.04,-86.58 77.77,-80.58 72.13,-76.44"/>
</a>
</g>
<text text-anchor="middle" x="116" y="-56.5" font-family="Helvetica,sans-Serif" font-size="10.00" fill="grey"> location</text>
</g>
<!-- Node3 -->
<g id="Node000003" class="node">
<title>Node3</title>
<g id="a_Node000003"><a xlink:href="structubsan__type__t.html" target="_top" xlink:title=" ">
<polygon fill="white" stroke="#bfbfbf" points="218,-107 143,-107 143,-88 218,-88 218,-107"/>
<text text-anchor="middle" x="180.5" y="-95" font-family="Helvetica,sans-Serif" font-size="10.00">ubsan_type_t</text>
</a>
</g>
</g>
<!-- Node3&#45;&gt;Node1 -->
<g id="edge2_Node000001_Node000003" class="edge">
<title>Node3&#45;&gt;Node1</title>
<g id="a_edge2_Node000001_Node000003"><a xlink:title=" ">
<path fill="none" stroke="#9a32cd" stroke-dasharray="5,2" d="M167.67,-79C157.01,-64.45 142.02,-44 132.04,-30.39"/>
<polygon fill="#9a32cd" stroke="#9a32cd" points="165.23,-80.58 173.96,-86.58 170.87,-76.44 165.23,-80.58"/>
</a>
</g>
<text text-anchor="middle" x="184" y="-62" font-family="Helvetica,sans-Serif" font-size="10.00" fill="grey"> array_type</text>
<text text-anchor="middle" x="184" y="-51" font-family="Helvetica,sans-Serif" font-size="10.00" fill="grey">index_type</text>
</g>
</g>
</svg>
