<?xml version="1.0" encoding="UTF-8" standalone="no"?>
<!DOCTYPE svg PUBLIC "-//W3C//DTD SVG 1.1//EN"
 "http://www.w3.org/Graphics/SVG/1.1/DTD/svg11.dtd">
<!-- Generated by graphviz version 9.0.0 (20230911.1827)
 -->
<!-- Title: inish_config_t Pages: 1 -->
<svg width="178pt" height="160pt"
 viewBox="0.00 0.00 178.38 160.25" xmlns="http://www.w3.org/2000/svg" xmlns:xlink="http://www.w3.org/1999/xlink">
<g id="graph0" class="graph" transform="scale(1 1) rotate(0) translate(4 156.25)">
<title>inish_config_t</title>
<!-- Node1 -->
<g id="Node000001" class="node">
<title>Node1</title>
<g id="a_Node000001"><a xlink:title=" ">
<polygon fill="#999999" stroke="#666666" points="125.62,-19.25 49.62,-19.25 49.62,0 125.62,0 125.62,-19.25"/>
<text text-anchor="middle" x="87.62" y="-5.75" font-family="Helvetica,sans-Serif" font-size="10.00">inish_config_t</text>
</a>
</g>
</g>
<!-- Node2 -->
<g id="Node000002" class="node">
<title>Node2</title>
<g id="a_Node000002"><a xlink:href="structinish__section__t.html" target="_top" xlink:title=" ">
<polygon fill="white" stroke="#bfbfbf" points="128.25,-85.75 47,-85.75 47,-66.5 128.25,-66.5 128.25,-85.75"/>
<text text-anchor="middle" x="87.62" y="-72.25" font-family="Helvetica,sans-Serif" font-size="10.00">inish_section_t</text>
</a>
</g>
</g>
<!-- Node2&#45;&gt;Node1 -->
<g id="edge1_Node000001_Node000002" class="edge">
<title>Node2&#45;&gt;Node1</title>
<g id="a_edge1_Node000001_Node000002"><a xlink:title=" ">
<path fill="none" stroke="#9a32cd" stroke-dasharray="5,2" d="M87.62,-54.65C87.62,-42.82 87.62,-28.54 87.62,-19.52"/>
<polygon fill="#9a32cd" stroke="#9a32cd" points="84.13,-54.64 87.63,-64.64 91.13,-54.64 84.13,-54.64"/>
</a>
</g>
<text text-anchor="middle" x="107.5" y="-39" font-family="Helvetica,sans-Serif" font-size="10.00" fill="grey"> sections</text>
</g>
<!-- Node3 -->
<g id="Node000003" class="node">
<title>Node3</title>
<g id="a_Node000003"><a xlink:href="structinish__kv__pair__t.html" target="_top" xlink:title=" ">
<polygon fill="white" stroke="#bfbfbf" points="81.25,-152.25 0,-152.25 0,-133 81.25,-133 81.25,-152.25"/>
<text text-anchor="middle" x="40.62" y="-138.75" font-family="Helvetica,sans-Serif" font-size="10.00">inish_kv_pair_t</text>
</a>
</g>
</g>
<!-- Node3&#45;&gt;Node2 -->
<g id="edge2_Node000002_Node000003" class="edge">
<title>Node3&#45;&gt;Node2</title>
<g id="a_edge2_Node000002_Node000003"><a xlink:title=" ">
<path fill="none" stroke="#9a32cd" stroke-dasharray="5,2" d="M53.92,-123.38C62.82,-111.16 74.15,-95.61 81.15,-86.02"/>
<polygon fill="#9a32cd" stroke="#9a32cd" points="51.11,-121.29 48.05,-131.43 56.77,-125.41 51.11,-121.29"/>
</a>
</g>
<text text-anchor="middle" x="87.5" y="-105.5" font-family="Helvetica,sans-Serif" font-size="10.00" fill="grey"> kv_pairs</text>
</g>
<!-- Node4 -->
<g id="Node000004" class="node">
<title>Node4</title>
<g id="a_Node000004"><a xlink:href="structinish__array__t.html" target="_top" xlink:title=" ">
<polygon fill="white" stroke="#bfbfbf" points="170.38,-152.25 98.88,-152.25 98.88,-133 170.38,-133 170.38,-152.25"/>
<text text-anchor="middle" x="134.62" y="-138.75" font-family="Helvetica,sans-Serif" font-size="10.00">inish_array_t</text>
</a>
</g>
</g>
<!-- Node4&#45;&gt;Node2 -->
<g id="edge3_Node000002_Node000004" class="edge">
<title>Node4&#45;&gt;Node2</title>
<g id="a_edge3_Node000002_Node000004"><a xlink:title=" ">
<path fill="none" stroke="#9a32cd" stroke-dasharray="5,2" d="M124.23,-122.94C120.49,-116.68 116.1,-109.76 111.62,-103.75 107.02,-97.56 101.24,-91.12 96.51,-86.12"/>
<polygon fill="#9a32cd" stroke="#9a32cd" points="121,-124.36 129.02,-131.28 127.07,-120.87 121,-124.36"/>
</a>
</g>
<text text-anchor="middle" x="133.62" y="-105.5" font-family="Helvetica,sans-Serif" font-size="10.00" fill="grey"> arrays</text>
</g>
</g>
</svg>
