<?xml version="1.0" encoding="UTF-8" standalone="no"?>
<!DOCTYPE svg PUBLIC "-//W3C//DTD SVG 1.1//EN"
 "http://www.w3.org/Graphics/SVG/1.1/DTD/svg11.dtd">
<!-- Generated by graphviz version 2.49.3 (20211023.0002)
 -->
<!-- Title: inish_section_t Pages: 1 -->
<svg width="184pt" height="95pt"
 viewBox="0.00 0.00 183.50 95.00" xmlns="http://www.w3.org/2000/svg" xmlns:xlink="http://www.w3.org/1999/xlink">
<g id="graph0" class="graph" transform="scale(1 1) rotate(0) translate(4 91)">
<title>inish_section_t</title>
<!-- Node1 -->
<g id="node1" class="node">
<title>Node1</title>
<g id="a_node1"><a xlink:title=" ">
<polygon fill="#bfbfbf" stroke="black" points="48,-0.5 48,-19.5 131,-19.5 131,-0.5 48,-0.5"/>
<text text-anchor="middle" x="89.5" y="-7.5" font-family="Helvetica,sans-Serif" font-size="10.00">inish_section_t</text>
</a>
</g>
</g>
<!-- Node2 -->
<g id="node2" class="node">
<title>Node2</title>
<g id="a_node2"><a xlink:href="structinish__kv__pair__t.html" target="_top" xlink:title=" ">
<polygon fill="none" stroke="black" points="0,-67.5 0,-86.5 83,-86.5 83,-67.5 0,-67.5"/>
<text text-anchor="middle" x="41.5" y="-74.5" font-family="Helvetica,sans-Serif" font-size="10.00">inish_kv_pair_t</text>
</a>
</g>
</g>
<!-- Node2&#45;&gt;Node1 -->
<g id="edge1" class="edge">
<title>Node2&#45;&gt;Node1</title>
<path fill="none" stroke="#9a32cd" stroke-dasharray="5,2" d="M54.12,-58.9C63.45,-46.27 75.76,-29.6 83.13,-19.63"/>
<polygon fill="#9a32cd" stroke="#9a32cd" points="51.1,-57.11 47.97,-67.23 56.73,-61.27 51.1,-57.11"/>
<text text-anchor="middle" x="89" y="-41" font-family="Helvetica,sans-Serif" font-size="10.00"> kv_pairs</text>
</g>
<!-- Node3 -->
<g id="node3" class="node">
<title>Node3</title>
<g id="a_node3"><a xlink:href="structinish__array__t.html" target="_top" xlink:title=" ">
<polygon fill="none" stroke="black" points="101.5,-67.5 101.5,-86.5 175.5,-86.5 175.5,-67.5 101.5,-67.5"/>
<text text-anchor="middle" x="138.5" y="-74.5" font-family="Helvetica,sans-Serif" font-size="10.00">inish_array_t</text>
</a>
</g>
</g>
<!-- Node3&#45;&gt;Node1 -->
<g id="edge2" class="edge">
<title>Node3&#45;&gt;Node1</title>
<path fill="none" stroke="#9a32cd" stroke-dasharray="5,2" d="M127.75,-58.51C123.51,-51.93 118.47,-44.48 113.5,-38 108.61,-31.63 102.61,-24.88 97.84,-19.72"/>
<polygon fill="#9a32cd" stroke="#9a32cd" points="124.99,-60.71 133.28,-67.31 130.92,-56.98 124.99,-60.71"/>
<text text-anchor="middle" x="136" y="-41" font-family="Helvetica,sans-Serif" font-size="10.00"> arrays</text>
</g>
</g>
</svg>
