<?xml version="1.0" encoding="UTF-8" standalone="no"?>
<!DOCTYPE svg PUBLIC "-//W3C//DTD SVG 1.1//EN"
 "http://www.w3.org/Graphics/SVG/1.1/DTD/svg11.dtd">
<!-- Generated by graphviz version 3.0.0 (20220226.1711)
 -->
<!-- Title: inish_config_t Pages: 1 -->
<svg width="180pt" height="162pt"
 viewBox="0.00 0.00 180.00 162.00" xmlns="http://www.w3.org/2000/svg" xmlns:xlink="http://www.w3.org/1999/xlink">
<g id="graph0" class="graph" transform="scale(1 1) rotate(0) translate(4 158)">
<title>inish_config_t</title>
<!-- Node1 -->
<g id="node1" class="node">
<title>Node1</title>
<g id="a_node1"><a xlink:title=" ">
<polygon fill="#bfbfbf" stroke="black" points="49.5,-0.5 49.5,-19.5 126.5,-19.5 126.5,-0.5 49.5,-0.5"/>
<text text-anchor="middle" x="88" y="-7.5" font-family="Helvetica,sans-Serif" font-size="10.00">inish_config_t</text>
</a>
</g>
</g>
<!-- Node2 -->
<g id="node2" class="node">
<title>Node2</title>
<g id="a_node2"><a xlink:href="structinish__section__t.html" target="_top" xlink:title=" ">
<polygon fill="none" stroke="black" points="47,-67.5 47,-86.5 129,-86.5 129,-67.5 47,-67.5"/>
<text text-anchor="middle" x="88" y="-74.5" font-family="Helvetica,sans-Serif" font-size="10.00">inish_section_t</text>
</a>
</g>
</g>
<!-- Node2&#45;&gt;Node1 -->
<g id="edge1" class="edge">
<title>Node2&#45;&gt;Node1</title>
<path fill="none" stroke="#9a32cd" stroke-dasharray="5,2" d="M88,-57.04C88,-44.67 88,-29.12 88,-19.63"/>
<polygon fill="#9a32cd" stroke="#9a32cd" points="84.5,-57.23 88,-67.23 91.5,-57.23 84.5,-57.23"/>
<text text-anchor="middle" x="108" y="-41" font-family="Helvetica,sans-Serif" font-size="10.00"> sections</text>
</g>
<!-- Node3 -->
<g id="node3" class="node">
<title>Node3</title>
<g id="a_node3"><a xlink:href="structinish__kv__pair__t.html" target="_top" xlink:title=" ">
<polygon fill="none" stroke="black" points="0,-134.5 0,-153.5 82,-153.5 82,-134.5 0,-134.5"/>
<text text-anchor="middle" x="41" y="-141.5" font-family="Helvetica,sans-Serif" font-size="10.00">inish_kv_pair_t</text>
</a>
</g>
</g>
<!-- Node3&#45;&gt;Node2 -->
<g id="edge2" class="edge">
<title>Node3&#45;&gt;Node2</title>
<path fill="none" stroke="#9a32cd" stroke-dasharray="5,2" d="M53.36,-125.9C62.49,-113.27 74.55,-96.6 81.76,-86.63"/>
<polygon fill="#9a32cd" stroke="#9a32cd" points="50.36,-124.08 47.34,-134.23 56.03,-128.18 50.36,-124.08"/>
<text text-anchor="middle" x="88" y="-108" font-family="Helvetica,sans-Serif" font-size="10.00"> kv_pairs</text>
</g>
<!-- Node4 -->
<g id="node4" class="node">
<title>Node4</title>
<g id="a_node4"><a xlink:href="structinish__array__t.html" target="_top" xlink:title=" ">
<polygon fill="none" stroke="black" points="100,-134.5 100,-153.5 172,-153.5 172,-134.5 100,-134.5"/>
<text text-anchor="middle" x="136" y="-141.5" font-family="Helvetica,sans-Serif" font-size="10.00">inish_array_t</text>
</a>
</g>
</g>
<!-- Node4&#45;&gt;Node2 -->
<g id="edge3" class="edge">
<title>Node4&#45;&gt;Node2</title>
<path fill="none" stroke="#9a32cd" stroke-dasharray="5,2" d="M125.76,-125.48C121.7,-118.9 116.85,-111.45 112,-105 107.17,-98.58 101.17,-91.83 96.38,-86.69"/>
<polygon fill="#9a32cd" stroke="#9a32cd" points="122.9,-127.51 131.05,-134.28 128.9,-123.91 122.9,-127.51"/>
<text text-anchor="middle" x="134.5" y="-108" font-family="Helvetica,sans-Serif" font-size="10.00"> arrays</text>
</g>
</g>
</svg>
