<?xml version="1.0" encoding="UTF-8" standalone="no"?>
<!DOCTYPE svg PUBLIC "-//W3C//DTD SVG 1.1//EN"
 "http://www.w3.org/Graphics/SVG/1.1/DTD/svg11.dtd">
<!-- Generated by graphviz version 9.0.0 (20230911.1827)
 -->
<!-- Title: vfs_node_t Pages: 1 -->
<svg width="75pt" height="160pt"
 viewBox="0.00 0.00 75.00 160.25" xmlns="http://www.w3.org/2000/svg" xmlns:xlink="http://www.w3.org/1999/xlink">
<g id="graph0" class="graph" transform="scale(1 1) rotate(0) translate(4 156.25)">
<title>vfs_node_t</title>
<!-- Node1 -->
<g id="Node000001" class="node">
<title>Node1</title>
<g id="a_Node000001"><a xlink:title=" ">
<polygon fill="#999999" stroke="#666666" points="65.5,-19.25 1.5,-19.25 1.5,0 65.5,0 65.5,-19.25"/>
<text text-anchor="middle" x="33.5" y="-5.75" font-family="Helvetica,sans-Serif" font-size="10.00">vfs_node_t</text>
</a>
</g>
</g>
<!-- Node2 -->
<g id="Node000002" class="node">
<title>Node2</title>
<g id="a_Node000002"><a xlink:href="structvfs__driver__t.html" target="_top" xlink:title=" ">
<polygon fill="white" stroke="#bfbfbf" points="67,-85.75 0,-85.75 0,-66.5 67,-66.5 67,-85.75"/>
<text text-anchor="middle" x="33.5" y="-72.25" font-family="Helvetica,sans-Serif" font-size="10.00">vfs_driver_t</text>
</a>
</g>
</g>
<!-- Node2&#45;&gt;Node1 -->
<g id="edge1_Node000001_Node000002" class="edge">
<title>Node2&#45;&gt;Node1</title>
<g id="a_edge1_Node000001_Node000002"><a xlink:title=" ">
<path fill="none" stroke="#9a32cd" stroke-dasharray="5,2" d="M33.5,-54.65C33.5,-42.82 33.5,-28.54 33.5,-19.52"/>
<polygon fill="#9a32cd" stroke="#9a32cd" points="30,-54.64 33.5,-64.64 37,-54.64 30,-54.64"/>
</a>
</g>
<text text-anchor="middle" x="47" y="-39" font-family="Helvetica,sans-Serif" font-size="10.00" fill="grey"> driver</text>
</g>
<!-- Node3 -->
<g id="Node000003" class="node">
<title>Node3</title>
<g id="a_Node000003"><a xlink:href="structdirent__t.html" target="_top" xlink:title=" ">
<polygon fill="white" stroke="#bfbfbf" points="57.62,-152.25 9.38,-152.25 9.38,-133 57.62,-133 57.62,-152.25"/>
<text text-anchor="middle" x="33.5" y="-138.75" font-family="Helvetica,sans-Serif" font-size="10.00">dirent_t</text>
</a>
</g>
</g>
<!-- Node3&#45;&gt;Node2 -->
<g id="edge2_Node000002_Node000003" class="edge">
<title>Node3&#45;&gt;Node2</title>
<g id="a_edge2_Node000002_Node000003"><a xlink:title=" ">
<path fill="none" stroke="#9a32cd" stroke-dasharray="5,2" d="M33.5,-121.15C33.5,-109.32 33.5,-95.04 33.5,-86.02"/>
<polygon fill="#9a32cd" stroke="#9a32cd" points="30,-121.14 33.5,-131.14 37,-121.14 30,-121.14"/>
</a>
</g>
<text text-anchor="middle" x="49.62" y="-105.5" font-family="Helvetica,sans-Serif" font-size="10.00" fill="grey"> readdir</text>
</g>
</g>
</svg>
