<?xml version="1.0" encoding="UTF-8" standalone="no"?>
<!DOCTYPE svg PUBLIC "-//W3C//DTD SVG 1.1//EN"
 "http://www.w3.org/Graphics/SVG/1.1/DTD/svg11.dtd">
<!-- Generated by graphviz version 9.0.0 (20230911.1827)
 -->
<!-- Title: ubsan_mismatch_v1_data_t Pages: 1 -->
<svg width="224pt" height="94pt"
 viewBox="0.00 0.00 224.25 93.75" xmlns="http://www.w3.org/2000/svg" xmlns:xlink="http://www.w3.org/1999/xlink">
<g id="graph0" class="graph" transform="scale(1 1) rotate(0) translate(4 89.75)">
<title>ubsan_mismatch_v1_data_t</title>
<!-- Node1 -->
<g id="Node000001" class="node">
<title>Node1</title>
<g id="a_Node000001"><a xlink:title=" ">
<polygon fill="#999999" stroke="#666666" points="189.12,-19.25 50.88,-19.25 50.88,0 189.12,0 189.12,-19.25"/>
<text text-anchor="middle" x="120" y="-5.75" font-family="Helvetica,sans-Serif" font-size="10.00">ubsan_mismatch_v1_data_t</text>
</a>
</g>
</g>
<!-- Node2 -->
<g id="Node000002" class="node">
<title>Node2</title>
<g id="a_Node000002"><a xlink:href="structubsan__source__location__t.html" target="_top" xlink:title=" ">
<polygon fill="white" stroke="#bfbfbf" points="124,-85.75 0,-85.75 0,-66.5 124,-66.5 124,-85.75"/>
<text text-anchor="middle" x="62" y="-72.25" font-family="Helvetica,sans-Serif" font-size="10.00">ubsan_source_location_t</text>
</a>
</g>
</g>
<!-- Node2&#45;&gt;Node1 -->
<g id="edge1_Node000001_Node000002" class="edge">
<title>Node2&#45;&gt;Node1</title>
<g id="a_edge1_Node000001_Node000002"><a xlink:title=" ">
<path fill="none" stroke="#9a32cd" stroke-dasharray="5,2" d="M77.75,-57.61C88.83,-45.28 103.2,-29.31 112,-19.52"/>
<polygon fill="#9a32cd" stroke="#9a32cd" points="75.16,-55.26 71.08,-65.03 80.37,-59.94 75.16,-55.26"/>
</a>
</g>
<text text-anchor="middle" x="113.38" y="-39" font-family="Helvetica,sans-Serif" font-size="10.00" fill="grey"> location</text>
</g>
<!-- Node3 -->
<g id="Node000003" class="node">
<title>Node3</title>
<g id="a_Node000003"><a xlink:href="structubsan__type__t.html" target="_top" xlink:title=" ">
<polygon fill="white" stroke="#bfbfbf" points="216.25,-85.75 141.75,-85.75 141.75,-66.5 216.25,-66.5 216.25,-85.75"/>
<text text-anchor="middle" x="179" y="-72.25" font-family="Helvetica,sans-Serif" font-size="10.00">ubsan_type_t</text>
</a>
</g>
</g>
<!-- Node3&#45;&gt;Node1 -->
<g id="edge2_Node000001_Node000003" class="edge">
<title>Node3&#45;&gt;Node1</title>
<g id="a_edge2_Node000001_Node000003"><a xlink:title=" ">
<path fill="none" stroke="#9a32cd" stroke-dasharray="5,2" d="M163.31,-57.97C151.99,-45.6 137.17,-29.4 128.13,-19.52"/>
<polygon fill="#9a32cd" stroke="#9a32cd" points="160.44,-60.02 169.77,-65.04 165.61,-55.3 160.44,-60.02"/>
</a>
</g>
<text text-anchor="middle" x="163.88" y="-39" font-family="Helvetica,sans-Serif" font-size="10.00" fill="grey"> type</text>
</g>
</g>
</svg>
