<?xml version="1.0" encoding="UTF-8" standalone="no"?>
<!DOCTYPE svg PUBLIC "-//W3C//DTD SVG 1.1//EN"
 "http://www.w3.org/Graphics/SVG/1.1/DTD/svg11.dtd">
<!-- Generated by graphviz version 2.50.0 (20211204.2007)
 -->
<!-- Title: vfs_node_t Pages: 1 -->
<svg width="76pt" height="162pt"
 viewBox="0.00 0.00 76.00 162.00" xmlns="http://www.w3.org/2000/svg" xmlns:xlink="http://www.w3.org/1999/xlink">
<g id="graph0" class="graph" transform="scale(1 1) rotate(0) translate(4 158)">
<title>vfs_node_t</title>
<!-- Node1 -->
<g id="node1" class="node">
<title>Node1</title>
<g id="a_node1"><a xlink:title=" ">
<polygon fill="#bfbfbf" stroke="black" points="1.5,-0.5 1.5,-19.5 66.5,-19.5 66.5,-0.5 1.5,-0.5"/>
<text text-anchor="middle" x="34" y="-7.5" font-family="Helvetica,sans-Serif" font-size="10.00">vfs_node_t</text>
</a>
</g>
</g>
<!-- Node2 -->
<g id="node2" class="node">
<title>Node2</title>
<g id="a_node2"><a xlink:href="structvfs__driver__t.html" target="_top" xlink:title=" ">
<polygon fill="none" stroke="#bfbfbf" points="0,-67.5 0,-86.5 68,-86.5 68,-67.5 0,-67.5"/>
<text text-anchor="middle" x="34" y="-74.5" font-family="Helvetica,sans-Serif" font-size="10.00">vfs_driver_t</text>
</a>
</g>
</g>
<!-- Node2&#45;&gt;Node1 -->
<g id="edge1" class="edge">
<title>Node2&#45;&gt;Node1</title>
<path fill="none" stroke="#9a32cd" stroke-dasharray="5,2" d="M34,-57.04C34,-44.67 34,-29.12 34,-19.63"/>
<polygon fill="#9a32cd" stroke="#9a32cd" points="30.5,-57.23 34,-67.23 37.5,-57.23 30.5,-57.23"/>
<text text-anchor="middle" x="48" y="-41" font-family="Helvetica,sans-Serif" font-size="10.00"> driver</text>
</g>
<!-- Node3 -->
<g id="node3" class="node">
<title>Node3</title>
<g id="a_node3"><a xlink:href="structdirent__t.html" target="_top" xlink:title=" ">
<polygon fill="none" stroke="#bfbfbf" points="9.5,-134.5 9.5,-153.5 58.5,-153.5 58.5,-134.5 9.5,-134.5"/>
<text text-anchor="middle" x="34" y="-141.5" font-family="Helvetica,sans-Serif" font-size="10.00">dirent_t</text>
</a>
</g>
</g>
<!-- Node3&#45;&gt;Node2 -->
<g id="edge2" class="edge">
<title>Node3&#45;&gt;Node2</title>
<path fill="none" stroke="#9a32cd" stroke-dasharray="5,2" d="M34,-124.04C34,-111.67 34,-96.12 34,-86.63"/>
<polygon fill="#9a32cd" stroke="#9a32cd" points="30.5,-124.23 34,-134.23 37.5,-124.23 30.5,-124.23"/>
<text text-anchor="middle" x="50.5" y="-108" font-family="Helvetica,sans-Serif" font-size="10.00"> readdir</text>
</g>
</g>
</svg>
