<?xml version="1.0" encoding="UTF-8" standalone="no"?>
<!DOCTYPE svg PUBLIC "-//W3C//DTD SVG 1.1//EN"
 "http://www.w3.org/Graphics/SVG/1.1/DTD/svg11.dtd">
<!-- Generated by graphviz version 8.0.2 (20230410.1723)
 -->
<!-- Title: vfs_node_t Pages: 1 -->
<svg width="76pt" height="159pt"
 viewBox="0.00 0.00 76.00 159.00" xmlns="http://www.w3.org/2000/svg" xmlns:xlink="http://www.w3.org/1999/xlink">
<g id="graph0" class="graph" transform="scale(1 1) rotate(0) translate(4 155)">
<title>vfs_node_t</title>
<!-- Node1 -->
<g id="Node000001" class="node">
<title>Node1</title>
<g id="a_Node000001"><a xlink:title=" ">
<polygon fill="#999999" stroke="#666666" points="66.5,-19 1.5,-19 1.5,0 66.5,0 66.5,-19"/>
<text text-anchor="middle" x="34" y="-7" font-family="Helvetica,sans-Serif" font-size="10.00">vfs_node_t</text>
</a>
</g>
</g>
<!-- Node2 -->
<g id="Node000002" class="node">
<title>Node2</title>
<g id="a_Node000002"><a xlink:href="structvfs__driver__t.html" target="_top" xlink:title=" ">
<polygon fill="white" stroke="#bfbfbf" points="68,-85 0,-85 0,-66 68,-66 68,-85"/>
<text text-anchor="middle" x="34" y="-73" font-family="Helvetica,sans-Serif" font-size="10.00">vfs_driver_t</text>
</a>
</g>
</g>
<!-- Node2&#45;&gt;Node1 -->
<g id="edge1_Node000001_Node000002" class="edge">
<title>Node2&#45;&gt;Node1</title>
<g id="a_edge1_Node000001_Node000002"><a xlink:title=" ">
<path fill="none" stroke="#9a32cd" stroke-dasharray="5,2" d="M34,-54.93C34,-43.05 34,-28.46 34,-19.32"/>
<polygon fill="#9a32cd" stroke="#9a32cd" points="30.5,-54.6 34,-64.6 37.5,-54.6 30.5,-54.6"/>
</a>
</g>
<text text-anchor="middle" x="48" y="-40" font-family="Helvetica,sans-Serif" font-size="10.00" fill="grey"> driver</text>
</g>
<!-- Node3 -->
<g id="Node000003" class="node">
<title>Node3</title>
<g id="a_Node000003"><a xlink:href="structdirent__t.html" target="_top" xlink:title=" ">
<polygon fill="white" stroke="#bfbfbf" points="58.5,-151 9.5,-151 9.5,-132 58.5,-132 58.5,-151"/>
<text text-anchor="middle" x="34" y="-139" font-family="Helvetica,sans-Serif" font-size="10.00">dirent_t</text>
</a>
</g>
</g>
<!-- Node3&#45;&gt;Node2 -->
<g id="edge2_Node000002_Node000003" class="edge">
<title>Node3&#45;&gt;Node2</title>
<g id="a_edge2_Node000002_Node000003"><a xlink:title=" ">
<path fill="none" stroke="#9a32cd" stroke-dasharray="5,2" d="M34,-120.93C34,-109.05 34,-94.46 34,-85.32"/>
<polygon fill="#9a32cd" stroke="#9a32cd" points="30.5,-120.6 34,-130.6 37.5,-120.6 30.5,-120.6"/>
</a>
</g>
<text text-anchor="middle" x="50.5" y="-106" font-family="Helvetica,sans-Serif" font-size="10.00" fill="grey"> readdir</text>
</g>
</g>
</svg>
