<?xml version="1.0" encoding="UTF-8" standalone="no"?>
<!DOCTYPE svg PUBLIC "-//W3C//DTD SVG 1.1//EN"
 "http://www.w3.org/Graphics/SVG/1.1/DTD/svg11.dtd">
<!-- Generated by graphviz version 8.0.2 (20230410.1723)
 -->
<!-- Title: include/libc/sys/syscall.h Pages: 1 -->
<svg width="378pt" height="247pt"
 viewBox="0.00 0.00 377.58 247.00" xmlns="http://www.w3.org/2000/svg" xmlns:xlink="http://www.w3.org/1999/xlink">
<g id="graph0" class="graph" transform="scale(1 1) rotate(0) translate(4 243)">
<title>include/libc/sys/syscall.h</title>
<!-- Node1 -->
<g id="Node000001" class="node">
<title>Node1</title>
<g id="a_Node000001"><a xlink:title=" ">
<polygon fill="#999999" stroke="#666666" points="256.76,-239 130.76,-239 130.76,-220 256.76,-220 256.76,-239"/>
<text text-anchor="middle" x="193.76" y="-227" font-family="Helvetica,sans-Serif" font-size="10.00">include/libc/sys/syscall.h</text>
</a>
</g>
</g>
<!-- Node2 -->
<g id="Node000002" class="node">
<title>Node2</title>
<g id="a_Node000002"><a xlink:href="inet_8h.html" target="_top" xlink:title=" ">
<polygon fill="white" stroke="#666666" points="139.76,-184 77.76,-184 77.76,-165 139.76,-165 139.76,-184"/>
<text text-anchor="middle" x="108.76" y="-172" font-family="Helvetica,sans-Serif" font-size="10.00">arpa/inet.h</text>
</a>
</g>
</g>
<!-- Node1&#45;&gt;Node2 -->
<g id="edge1_Node000001_Node000002" class="edge">
<title>Node1&#45;&gt;Node2</title>
<g id="a_edge1_Node000001_Node000002"><a xlink:title=" ">
<path fill="none" stroke="#63b8ff" d="M179.34,-219.51C166.44,-211.47 147.29,-199.53 132.19,-190.11"/>
<polygon fill="#63b8ff" stroke="#63b8ff" points="134.3,-186.68 123.96,-184.36 130.6,-192.62 134.3,-186.68"/>
</a>
</g>
</g>
<!-- Node3 -->
<g id="Node000003" class="node">
<title>Node3</title>
<g id="a_Node000003"><a xlink:href="socket_8h.html" target="_top" xlink:title=" ">
<polygon fill="white" stroke="#666666" points="85.26,-129 12.26,-129 12.26,-110 85.26,-110 85.26,-129"/>
<text text-anchor="middle" x="48.76" y="-117" font-family="Helvetica,sans-Serif" font-size="10.00">sys/socket.h</text>
</a>
</g>
</g>
<!-- Node1&#45;&gt;Node3 -->
<g id="edge12_Node000001_Node000003" class="edge">
<title>Node1&#45;&gt;Node3</title>
<g id="a_edge12_Node000001_Node000003"><a xlink:title=" ">
<path fill="none" stroke="#63b8ff" d="M135.96,-219.56C112.36,-213.22 86.5,-202.41 68.76,-184 57.34,-172.16 52.44,-153.86 50.33,-139.94"/>
<polygon fill="#63b8ff" stroke="#63b8ff" points="53.71,-139.65 49.11,-130.11 46.75,-140.44 53.71,-139.65"/>
</a>
</g>
</g>
<!-- Node4 -->
<g id="Node000004" class="node">
<title>Node4</title>
<g id="a_Node000004"><a xlink:href="types_8h.html" target="_top" xlink:title=" ">
<polygon fill="white" stroke="#666666" points="176.76,-74 108.76,-74 108.76,-55 176.76,-55 176.76,-74"/>
<text text-anchor="middle" x="142.76" y="-62" font-family="Helvetica,sans-Serif" font-size="10.00">sys/types.h</text>
</a>
</g>
</g>
<!-- Node1&#45;&gt;Node4 -->
<g id="edge17_Node000001_Node000004" class="edge">
<title>Node1&#45;&gt;Node4</title>
<g id="a_edge17_Node000001_Node000004"><a xlink:title=" ">
<path fill="none" stroke="#63b8ff" d="M138.25,-219.61C89.69,-208.29 23.72,-183.23 2.76,-129 -13.28,-87.52 50.88,-73.13 97.63,-68.15"/>
<polygon fill="#63b8ff" stroke="#63b8ff" points="97.86,-71.55 107.49,-67.12 97.2,-64.58 97.86,-71.55"/>
</a>
</g>
</g>
<!-- Node7 -->
<g id="Node000007" class="node">
<title>Node7</title>
<g id="a_Node000007"><a xlink:title=" ">
<polygon fill="#e0e0e0" stroke="#999999" points="337.26,-19 288.26,-19 288.26,0 337.26,0 337.26,-19"/>
<text text-anchor="middle" x="312.76" y="-7" font-family="Helvetica,sans-Serif" font-size="10.00">stdint.h</text>
</a>
</g>
</g>
<!-- Node1&#45;&gt;Node7 -->
<g id="edge9_Node000001_Node000007" class="edge">
<title>Node1&#45;&gt;Node7</title>
<g id="a_edge9_Node000001_Node000007"><a xlink:title=" ">
<path fill="none" stroke="#63b8ff" d="M253.08,-219.57C293.51,-212.16 341.95,-200.21 354.76,-184 392.01,-136.86 348.75,-61.62 325.56,-27.87"/>
<polygon fill="#63b8ff" stroke="#63b8ff" points="328.02,-26.29 319.38,-20.16 322.31,-30.34 328.02,-26.29"/>
</a>
</g>
</g>
<!-- Node8 -->
<g id="Node000008" class="node">
<title>Node8</title>
<g id="a_Node000008"><a xlink:href="errno_8h.html" target="_top" xlink:title=" ">
<polygon fill="white" stroke="#666666" points="243.26,-184 196.26,-184 196.26,-165 243.26,-165 243.26,-184"/>
<text text-anchor="middle" x="219.76" y="-172" font-family="Helvetica,sans-Serif" font-size="10.00">errno.h</text>
</a>
</g>
</g>
<!-- Node1&#45;&gt;Node8 -->
<g id="edge8_Node000001_Node000008" class="edge">
<title>Node1&#45;&gt;Node8</title>
<g id="a_edge8_Node000001_Node000008"><a xlink:title=" ">
<path fill="none" stroke="#63b8ff" d="M198.05,-219.75C201.45,-212.81 206.33,-202.86 210.6,-194.16"/>
<polygon fill="#63b8ff" stroke="#63b8ff" points="214.11,-195.96 215.37,-185.44 207.82,-192.88 214.11,-195.96"/>
</a>
</g>
</g>
<!-- Node9 -->
<g id="Node000009" class="node">
<title>Node9</title>
<g id="a_Node000009"><a xlink:href="stdio_8h.html" target="_top" xlink:title=" ">
<polygon fill="white" stroke="#666666" points="345.76,-184 299.76,-184 299.76,-165 345.76,-165 345.76,-184"/>
<text text-anchor="middle" x="322.76" y="-172" font-family="Helvetica,sans-Serif" font-size="10.00">stdio.h</text>
</a>
</g>
</g>
<!-- Node1&#45;&gt;Node9 -->
<g id="edge10_Node000001_Node000009" class="edge">
<title>Node1&#45;&gt;Node9</title>
<g id="a_edge10_Node000001_Node000009"><a xlink:title=" ">
<path fill="none" stroke="#63b8ff" d="M215.64,-219.51C236.33,-211.01 267.63,-198.15 291.05,-188.53"/>
<polygon fill="#63b8ff" stroke="#63b8ff" points="292.28,-191.4 300.2,-184.36 289.62,-184.92 292.28,-191.4"/>
</a>
</g>
</g>
<!-- Node11 -->
<g id="Node000011" class="node">
<title>Node11</title>
<g id="a_Node000011"><a xlink:href="stat_8h.html" target="_top" xlink:title=" ">
<polygon fill="white" stroke="#666666" points="201.76,-129 141.76,-129 141.76,-110 201.76,-110 201.76,-129"/>
<text text-anchor="middle" x="171.76" y="-117" font-family="Helvetica,sans-Serif" font-size="10.00">sys/stat.h</text>
</a>
</g>
</g>
<!-- Node1&#45;&gt;Node11 -->
<g id="edge13_Node000001_Node000011" class="edge">
<title>Node1&#45;&gt;Node11</title>
<g id="a_edge13_Node000001_Node000011"><a xlink:title=" ">
<path fill="none" stroke="#63b8ff" d="M191.96,-219.66C188.43,-202.34 180.53,-163.55 175.72,-139.95"/>
<polygon fill="#63b8ff" stroke="#63b8ff" points="179.01,-139.56 173.58,-130.46 172.15,-140.96 179.01,-139.56"/>
</a>
</g>
</g>
<!-- Node12 -->
<g id="Node000012" class="node">
<title>Node12</title>
<g id="a_Node000012"><a xlink:href="libc_2sys_2time_8h.html" target="_top" xlink:title=" ">
<polygon fill="white" stroke="#666666" points="281.76,-129 219.76,-129 219.76,-110 281.76,-110 281.76,-129"/>
<text text-anchor="middle" x="250.76" y="-117" font-family="Helvetica,sans-Serif" font-size="10.00">sys/time.h</text>
</a>
</g>
</g>
<!-- Node1&#45;&gt;Node12 -->
<g id="edge15_Node000001_Node000012" class="edge">
<title>Node1&#45;&gt;Node12</title>
<g id="a_edge15_Node000001_Node000012"><a xlink:title=" ">
<path fill="none" stroke="#63b8ff" d="M213.6,-219.59C227.37,-212.21 244.63,-200.31 252.76,-184 259.54,-170.4 258.44,-153.04 255.98,-139.91"/>
<polygon fill="#63b8ff" stroke="#63b8ff" points="259.18,-139.23 253.52,-130.27 252.36,-140.8 259.18,-139.23"/>
</a>
</g>
</g>
<!-- Node2&#45;&gt;Node3 -->
<g id="edge2_Node000002_Node000003" class="edge">
<title>Node2&#45;&gt;Node3</title>
<g id="a_edge2_Node000002_Node000003"><a xlink:title=" ">
<path fill="none" stroke="#63b8ff" d="M98.58,-164.51C89.91,-156.85 77.23,-145.66 66.84,-136.47"/>
<polygon fill="#63b8ff" stroke="#63b8ff" points="69.6,-134.36 59.78,-130.36 64.96,-139.6 69.6,-134.36"/>
</a>
</g>
</g>
<!-- Node2&#45;&gt;Node4 -->
<g id="edge7_Node000002_Node000004" class="edge">
<title>Node2&#45;&gt;Node4</title>
<g id="a_edge7_Node000002_Node000004"><a xlink:title=" ">
<path fill="none" stroke="#63b8ff" d="M111.54,-164.66C116.99,-147.34 129.2,-108.55 136.63,-84.95"/>
<polygon fill="#63b8ff" stroke="#63b8ff" points="140.27,-86.05 139.94,-75.46 133.59,-83.95 140.27,-86.05"/>
</a>
</g>
</g>
<!-- Node3&#45;&gt;Node4 -->
<g id="edge3_Node000003_Node000004" class="edge">
<title>Node3&#45;&gt;Node4</title>
<g id="a_edge3_Node000003_Node000004"><a xlink:title=" ">
<path fill="none" stroke="#63b8ff" d="M64.7,-109.51C79.24,-101.31 100.95,-89.07 117.79,-79.58"/>
<polygon fill="#63b8ff" stroke="#63b8ff" points="119.05,-82.32 126.05,-74.36 115.62,-76.22 119.05,-82.32"/>
</a>
</g>
</g>
<!-- Node5 -->
<g id="Node000005" class="node">
<title>Node5</title>
<g id="a_Node000005"><a xlink:title=" ">
<polygon fill="#e0e0e0" stroke="#999999" points="206.76,-19 150.76,-19 150.76,0 206.76,0 206.76,-19"/>
<text text-anchor="middle" x="178.76" y="-7" font-family="Helvetica,sans-Serif" font-size="10.00">stdbool.h</text>
</a>
</g>
</g>
<!-- Node4&#45;&gt;Node5 -->
<g id="edge4_Node000004_Node000005" class="edge">
<title>Node4&#45;&gt;Node5</title>
<g id="a_edge4_Node000004_Node000005"><a xlink:title=" ">
<path fill="none" stroke="#63b8ff" d="M148.7,-54.75C153.57,-47.58 160.62,-37.2 166.66,-28.3"/>
<polygon fill="#63b8ff" stroke="#63b8ff" points="169.96,-30.68 172.68,-20.44 164.17,-26.75 169.96,-30.68"/>
</a>
</g>
</g>
<!-- Node6 -->
<g id="Node000006" class="node">
<title>Node6</title>
<g id="a_Node000006"><a xlink:title=" ">
<polygon fill="#e0e0e0" stroke="#999999" points="132.76,-19 80.76,-19 80.76,0 132.76,0 132.76,-19"/>
<text text-anchor="middle" x="106.76" y="-7" font-family="Helvetica,sans-Serif" font-size="10.00">stddef.h</text>
</a>
</g>
</g>
<!-- Node4&#45;&gt;Node6 -->
<g id="edge5_Node000004_Node000006" class="edge">
<title>Node4&#45;&gt;Node6</title>
<g id="a_edge5_Node000004_Node000006"><a xlink:title=" ">
<path fill="none" stroke="#63b8ff" d="M136.81,-54.75C131.94,-47.58 124.9,-37.2 118.85,-28.3"/>
<polygon fill="#63b8ff" stroke="#63b8ff" points="121.34,-26.75 112.83,-20.44 115.55,-30.68 121.34,-26.75"/>
</a>
</g>
</g>
<!-- Node4&#45;&gt;Node7 -->
<g id="edge6_Node000004_Node000007" class="edge">
<title>Node4&#45;&gt;Node7</title>
<g id="a_edge6_Node000004_Node000007"><a xlink:title=" ">
<path fill="none" stroke="#63b8ff" d="M171.59,-54.51C200.83,-45.39 246.11,-31.28 277.47,-21.5"/>
<polygon fill="#63b8ff" stroke="#63b8ff" points="278.43,-24.56 286.93,-18.24 276.34,-17.87 278.43,-24.56"/>
</a>
</g>
</g>
<!-- Node10 -->
<g id="Node000010" class="node">
<title>Node10</title>
<g id="a_Node000010"><a xlink:title=" ">
<polygon fill="#e0e0e0" stroke="#999999" points="347.26,-129 300.26,-129 300.26,-110 347.26,-110 347.26,-129"/>
<text text-anchor="middle" x="323.76" y="-117" font-family="Helvetica,sans-Serif" font-size="10.00">printf.h</text>
</a>
</g>
</g>
<!-- Node9&#45;&gt;Node10 -->
<g id="edge11_Node000009_Node000010" class="edge">
<title>Node9&#45;&gt;Node10</title>
<g id="a_edge11_Node000009_Node000010"><a xlink:title=" ">
<path fill="none" stroke="#63b8ff" d="M322.92,-164.75C323.05,-158.11 323.22,-148.73 323.38,-140.31"/>
<polygon fill="#63b8ff" stroke="#63b8ff" points="326.9,-140.51 323.59,-130.44 319.9,-140.37 326.9,-140.51"/>
</a>
</g>
</g>
<!-- Node11&#45;&gt;Node4 -->
<g id="edge14_Node000011_Node000004" class="edge">
<title>Node11&#45;&gt;Node4</title>
<g id="a_edge14_Node000011_Node000004"><a xlink:title=" ">
<path fill="none" stroke="#63b8ff" d="M166.97,-109.75C163.13,-102.73 157.61,-92.64 152.81,-83.87"/>
<polygon fill="#63b8ff" stroke="#63b8ff" points="155.52,-82.53 147.65,-75.44 149.38,-85.89 155.52,-82.53"/>
</a>
</g>
</g>
<!-- Node12&#45;&gt;Node4 -->
<g id="edge16_Node000012_Node000004" class="edge">
<title>Node12&#45;&gt;Node4</title>
<g id="a_edge16_Node000012_Node000004"><a xlink:title=" ">
<path fill="none" stroke="#63b8ff" d="M232.44,-109.51C215.5,-101.2 190.09,-88.73 170.63,-79.18"/>
<polygon fill="#63b8ff" stroke="#63b8ff" points="172.33,-75.62 161.81,-74.36 169.24,-81.91 172.33,-75.62"/>
</a>
</g>
</g>
</g>
</svg>
