<?xml version="1.0" encoding="UTF-8" standalone="no"?>
<!DOCTYPE svg PUBLIC "-//W3C//DTD SVG 1.1//EN"
 "http://www.w3.org/Graphics/SVG/1.1/DTD/svg11.dtd">
<!-- Generated by graphviz version 8.0.2 (20230410.1723)
 -->
<!-- Title: recvfrom Pages: 1 -->
<svg width="165pt" height="45pt"
 viewBox="0.00 0.00 165.00 45.00" xmlns="http://www.w3.org/2000/svg" xmlns:xlink="http://www.w3.org/1999/xlink">
<g id="graph0" class="graph" transform="scale(1 1) rotate(0) translate(4 41)">
<title>recvfrom</title>
<!-- Node1 -->
<g id="Node000001" class="node">
<title>Node1</title>
<g id="a_Node000001"><a xlink:title=" ">
<polygon fill="#999999" stroke="#666666" points="157,-19 102,-19 102,0 157,0 157,-19"/>
<text text-anchor="middle" x="129.5" y="-7" font-family="Helvetica,sans-Serif" font-size="10.00">recvfrom</text>
</a>
</g>
</g>
<!-- Node1&#45;&gt;Node1 -->
<g id="edge3_Node000001_Node000001" class="edge">
<title>Node1&#45;&gt;Node1</title>
<g id="a_edge3_Node000001_Node000001"><a xlink:title=" ">
<path fill="none" stroke="#63b8ff" d="M146.8,-30.1C144.81,-34.13 139.04,-37 129.5,-37 112.54,-37 107.5,-27.94 114.39,-19.37"/>
<polygon fill="#63b8ff" stroke="#63b8ff" points="150.04,-29.46 144.61,-20.37 143.18,-30.87 150.04,-29.46"/>
</a>
</g>
</g>
<!-- Node2 -->
<g id="Node000002" class="node">
<title>Node2</title>
<g id="a_Node000002"><a xlink:href="dns_8c.html#a625ff8641773273b1a293e7242680ef2" target="_top" xlink:title=" ">
<polygon fill="white" stroke="#666666" points="66,-19 0,-19 0,0 66,0 66,-19"/>
<text text-anchor="middle" x="33" y="-7" font-family="Helvetica,sans-Serif" font-size="10.00">dns_lookup</text>
</a>
</g>
</g>
<!-- Node1&#45;&gt;Node2 -->
<g id="edge1_Node000001_Node000002" class="edge">
<title>Node1&#45;&gt;Node2</title>
<g id="a_edge1_Node000001_Node000002"><a xlink:title=" ">
<path fill="none" stroke="#63b8ff" d="M90.9,-9.5C82.74,-9.5 74.19,-9.5 66.26,-9.5"/>
<polygon fill="#63b8ff" stroke="#63b8ff" points="90.67,-13 100.67,-9.5 90.67,-6 90.67,-13"/>
</a>
</g>
</g>
<!-- Node2&#45;&gt;Node2 -->
<g id="edge2_Node000002_Node000002" class="edge">
<title>Node2&#45;&gt;Node2</title>
<g id="a_edge2_Node000002_Node000002"><a xlink:title=" ">
<path fill="none" stroke="#63b8ff" d="M50.3,-30.1C48.31,-34.13 42.54,-37 33,-37 16.04,-37 11,-27.94 17.89,-19.37"/>
<polygon fill="#63b8ff" stroke="#63b8ff" points="53.54,-29.46 48.11,-20.37 46.68,-30.87 53.54,-29.46"/>
</a>
</g>
</g>
</g>
</svg>
