<?xml version="1.0" encoding="UTF-8" standalone="no"?>
<!DOCTYPE svg PUBLIC "-//W3C//DTD SVG 1.1//EN"
 "http://www.w3.org/Graphics/SVG/1.1/DTD/svg11.dtd">
<!-- Generated by graphviz version 2.50.0 (20211204.2007)
 -->
<!-- Title: include/libc/sys/syscall.h Pages: 1 -->
<svg width="378pt" height="252pt"
 viewBox="0.00 0.00 377.90 252.00" xmlns="http://www.w3.org/2000/svg" xmlns:xlink="http://www.w3.org/1999/xlink">
<g id="graph0" class="graph" transform="scale(1 1) rotate(0) translate(4 248)">
<title>include/libc/sys/syscall.h</title>
<!-- Node1 -->
<g id="node1" class="node">
<title>Node1</title>
<g id="a_node1"><a xlink:title=" ">
<polygon fill="#bfbfbf" stroke="black" points="130.74,-224.5 130.74,-243.5 256.74,-243.5 256.74,-224.5 130.74,-224.5"/>
<text text-anchor="middle" x="193.74" y="-231.5" font-family="Helvetica,sans-Serif" font-size="10.00">include/libc/sys/syscall.h</text>
</a>
</g>
</g>
<!-- Node2 -->
<g id="node2" class="node">
<title>Node2</title>
<g id="a_node2"><a xlink:href="inet_8h.html" target="_top" xlink:title=" ">
<polygon fill="none" stroke="black" points="77.74,-168.5 77.74,-187.5 139.74,-187.5 139.74,-168.5 77.74,-168.5"/>
<text text-anchor="middle" x="108.74" y="-175.5" font-family="Helvetica,sans-Serif" font-size="10.00">arpa/inet.h</text>
</a>
</g>
</g>
<!-- Node1&#45;&gt;Node2 -->
<g id="edge1" class="edge">
<title>Node1&#45;&gt;Node2</title>
<path fill="none" stroke="midnightblue" d="M180.08,-224.32C166.82,-215.9 146.47,-202.97 130.89,-193.07"/>
<polygon fill="midnightblue" stroke="midnightblue" points="132.68,-190.06 122.36,-187.65 128.92,-195.97 132.68,-190.06"/>
</g>
<!-- Node3 -->
<g id="node3" class="node">
<title>Node3</title>
<g id="a_node3"><a xlink:href="socket_8h.html" target="_top" xlink:title=" ">
<polygon fill="none" stroke="black" points="12.24,-112.5 12.24,-131.5 85.24,-131.5 85.24,-112.5 12.24,-112.5"/>
<text text-anchor="middle" x="48.74" y="-119.5" font-family="Helvetica,sans-Serif" font-size="10.00">sys/socket.h</text>
</a>
</g>
</g>
<!-- Node1&#45;&gt;Node3 -->
<g id="edge12" class="edge">
<title>Node1&#45;&gt;Node3</title>
<path fill="none" stroke="midnightblue" d="M138.09,-224.47C113.9,-218.13 86.97,-207.11 68.74,-188 56.9,-175.6 52.06,-156.36 50.08,-142.02"/>
<polygon fill="midnightblue" stroke="midnightblue" points="53.54,-141.39 49.04,-131.8 46.57,-142.11 53.54,-141.39"/>
</g>
<!-- Node4 -->
<g id="node4" class="node">
<title>Node4</title>
<g id="a_node4"><a xlink:href="types_8h.html" target="_top" xlink:title=" ">
<polygon fill="none" stroke="black" points="108.74,-56.5 108.74,-75.5 176.74,-75.5 176.74,-56.5 108.74,-56.5"/>
<text text-anchor="middle" x="142.74" y="-63.5" font-family="Helvetica,sans-Serif" font-size="10.00">sys/types.h</text>
</a>
</g>
</g>
<!-- Node1&#45;&gt;Node4 -->
<g id="edge17" class="edge">
<title>Node1&#45;&gt;Node4</title>
<path fill="none" stroke="midnightblue" d="M141.41,-224.49C92.53,-213.19 23.99,-187.72 2.74,-132 -13.28,-90.01 51.76,-75.14 98.54,-69.88"/>
<polygon fill="midnightblue" stroke="midnightblue" points="98.91,-73.36 108.5,-68.87 98.2,-66.4 98.91,-73.36"/>
</g>
<!-- Node7 -->
<g id="node7" class="node">
<title>Node7</title>
<g id="a_node7"><a xlink:title=" ">
<polygon fill="none" stroke="#bfbfbf" points="288.24,-0.5 288.24,-19.5 337.24,-19.5 337.24,-0.5 288.24,-0.5"/>
<text text-anchor="middle" x="312.74" y="-7.5" font-family="Helvetica,sans-Serif" font-size="10.00">stdint.h</text>
</a>
</g>
</g>
<!-- Node1&#45;&gt;Node7 -->
<g id="edge9" class="edge">
<title>Node1&#45;&gt;Node7</title>
<path fill="none" stroke="midnightblue" d="M250.11,-224.44C291.11,-216.94 341.63,-204.65 354.74,-188 392.78,-139.69 348.66,-62.48 325.35,-28.28"/>
<polygon fill="midnightblue" stroke="midnightblue" points="328.03,-26 319.42,-19.83 322.3,-30.02 328.03,-26"/>
</g>
<!-- Node8 -->
<g id="node8" class="node">
<title>Node8</title>
<g id="a_node8"><a xlink:href="errno_8h.html" target="_top" xlink:title=" ">
<polygon fill="none" stroke="black" points="196.24,-168.5 196.24,-187.5 243.24,-187.5 243.24,-168.5 196.24,-168.5"/>
<text text-anchor="middle" x="219.74" y="-175.5" font-family="Helvetica,sans-Serif" font-size="10.00">errno.h</text>
</a>
</g>
</g>
<!-- Node1&#45;&gt;Node8 -->
<g id="edge8" class="edge">
<title>Node1&#45;&gt;Node8</title>
<path fill="none" stroke="midnightblue" d="M198.03,-224.08C201.59,-216.69 206.76,-205.95 211.16,-196.81"/>
<polygon fill="midnightblue" stroke="midnightblue" points="214.34,-198.28 215.52,-187.75 208.03,-195.24 214.34,-198.28"/>
</g>
<!-- Node9 -->
<g id="node9" class="node">
<title>Node9</title>
<g id="a_node9"><a xlink:href="stdio_8h.html" target="_top" xlink:title=" ">
<polygon fill="none" stroke="black" points="299.74,-168.5 299.74,-187.5 345.74,-187.5 345.74,-168.5 299.74,-168.5"/>
<text text-anchor="middle" x="322.74" y="-175.5" font-family="Helvetica,sans-Serif" font-size="10.00">stdio.h</text>
</a>
</g>
</g>
<!-- Node1&#45;&gt;Node9 -->
<g id="edge10" class="edge">
<title>Node1&#45;&gt;Node9</title>
<path fill="none" stroke="midnightblue" d="M214.18,-224.44C235.41,-215.56 268.84,-201.56 292.99,-191.45"/>
<polygon fill="midnightblue" stroke="midnightblue" points="294.52,-194.61 302.39,-187.52 291.82,-188.15 294.52,-194.61"/>
</g>
<!-- Node11 -->
<g id="node11" class="node">
<title>Node11</title>
<g id="a_node11"><a xlink:href="stat_8h.html" target="_top" xlink:title=" ">
<polygon fill="none" stroke="black" points="141.74,-112.5 141.74,-131.5 201.74,-131.5 201.74,-112.5 141.74,-112.5"/>
<text text-anchor="middle" x="171.74" y="-119.5" font-family="Helvetica,sans-Serif" font-size="10.00">sys/stat.h</text>
</a>
</g>
</g>
<!-- Node1&#45;&gt;Node11 -->
<g id="edge13" class="edge">
<title>Node1&#45;&gt;Node11</title>
<path fill="none" stroke="midnightblue" d="M192.01,-224.37C188.46,-206.62 180.27,-165.67 175.46,-141.6"/>
<polygon fill="midnightblue" stroke="midnightblue" points="178.85,-140.71 173.46,-131.59 171.99,-142.08 178.85,-140.71"/>
</g>
<!-- Node12 -->
<g id="node12" class="node">
<title>Node12</title>
<g id="a_node12"><a xlink:href="libc_2sys_2time_8h.html" target="_top" xlink:title=" ">
<polygon fill="none" stroke="black" points="219.74,-112.5 219.74,-131.5 281.74,-131.5 281.74,-112.5 219.74,-112.5"/>
<text text-anchor="middle" x="250.74" y="-119.5" font-family="Helvetica,sans-Serif" font-size="10.00">sys/time.h</text>
</a>
</g>
</g>
<!-- Node1&#45;&gt;Node12 -->
<g id="edge15" class="edge">
<title>Node1&#45;&gt;Node12</title>
<path fill="none" stroke="midnightblue" d="M212.72,-224.4C226.62,-216.95 244.45,-204.74 252.74,-188 259.86,-173.61 258.45,-155.16 255.79,-141.59"/>
<polygon fill="midnightblue" stroke="midnightblue" points="259.13,-140.47 253.43,-131.54 252.31,-142.07 259.13,-140.47"/>
</g>
<!-- Node2&#45;&gt;Node3 -->
<g id="edge2" class="edge">
<title>Node2&#45;&gt;Node3</title>
<path fill="none" stroke="midnightblue" d="M99.1,-168.32C90.23,-160.34 76.86,-148.31 66.13,-138.65"/>
<polygon fill="midnightblue" stroke="midnightblue" points="68.33,-135.92 58.55,-131.83 63.64,-141.13 68.33,-135.92"/>
</g>
<!-- Node2&#45;&gt;Node4 -->
<g id="edge7" class="edge">
<title>Node2&#45;&gt;Node4</title>
<path fill="none" stroke="midnightblue" d="M111.41,-168.37C116.92,-150.54 129.66,-109.3 137.09,-85.27"/>
<polygon fill="midnightblue" stroke="midnightblue" points="140.47,-86.18 140.08,-75.59 133.79,-84.11 140.47,-86.18"/>
</g>
<!-- Node3&#45;&gt;Node4 -->
<g id="edge3" class="edge">
<title>Node3&#45;&gt;Node4</title>
<path fill="none" stroke="midnightblue" d="M63.84,-112.32C78.64,-103.82 101.43,-90.73 118.72,-80.8"/>
<polygon fill="midnightblue" stroke="midnightblue" points="120.74,-83.67 127.67,-75.65 117.26,-77.6 120.74,-83.67"/>
</g>
<!-- Node5 -->
<g id="node5" class="node">
<title>Node5</title>
<g id="a_node5"><a xlink:title=" ">
<polygon fill="none" stroke="#bfbfbf" points="150.74,-0.5 150.74,-19.5 206.74,-19.5 206.74,-0.5 150.74,-0.5"/>
<text text-anchor="middle" x="178.74" y="-7.5" font-family="Helvetica,sans-Serif" font-size="10.00">stdbool.h</text>
</a>
</g>
</g>
<!-- Node4&#45;&gt;Node5 -->
<g id="edge4" class="edge">
<title>Node4&#45;&gt;Node5</title>
<path fill="none" stroke="midnightblue" d="M148.68,-56.08C153.71,-48.53 161.07,-37.49 167.25,-28.23"/>
<polygon fill="midnightblue" stroke="midnightblue" points="170.27,-30.01 172.9,-19.75 164.44,-26.13 170.27,-30.01"/>
</g>
<!-- Node6 -->
<g id="node6" class="node">
<title>Node6</title>
<g id="a_node6"><a xlink:title=" ">
<polygon fill="none" stroke="#bfbfbf" points="80.74,-0.5 80.74,-19.5 132.74,-19.5 132.74,-0.5 80.74,-0.5"/>
<text text-anchor="middle" x="106.74" y="-7.5" font-family="Helvetica,sans-Serif" font-size="10.00">stddef.h</text>
</a>
</g>
</g>
<!-- Node4&#45;&gt;Node6 -->
<g id="edge5" class="edge">
<title>Node4&#45;&gt;Node6</title>
<path fill="none" stroke="midnightblue" d="M136.79,-56.08C131.76,-48.53 124.4,-37.49 118.22,-28.23"/>
<polygon fill="midnightblue" stroke="midnightblue" points="121.03,-26.13 112.57,-19.75 115.21,-30.01 121.03,-26.13"/>
</g>
<!-- Node4&#45;&gt;Node7 -->
<g id="edge6" class="edge">
<title>Node4&#45;&gt;Node7</title>
<path fill="none" stroke="midnightblue" d="M169.67,-56.44C199.07,-47.1 246.22,-32.13 278.29,-21.94"/>
<polygon fill="midnightblue" stroke="midnightblue" points="279.66,-25.18 288.13,-18.82 277.54,-18.51 279.66,-25.18"/>
</g>
<!-- Node10 -->
<g id="node10" class="node">
<title>Node10</title>
<g id="a_node10"><a xlink:title=" ">
<polygon fill="none" stroke="#bfbfbf" points="300.24,-112.5 300.24,-131.5 347.24,-131.5 347.24,-112.5 300.24,-112.5"/>
<text text-anchor="middle" x="323.74" y="-119.5" font-family="Helvetica,sans-Serif" font-size="10.00">printf.h</text>
</a>
</g>
</g>
<!-- Node9&#45;&gt;Node10 -->
<g id="edge11" class="edge">
<title>Node9&#45;&gt;Node10</title>
<path fill="none" stroke="midnightblue" d="M322.9,-168.08C323.03,-161.01 323.22,-150.86 323.39,-141.99"/>
<polygon fill="midnightblue" stroke="midnightblue" points="326.89,-141.81 323.58,-131.75 319.89,-141.68 326.89,-141.81"/>
</g>
<!-- Node11&#45;&gt;Node4 -->
<g id="edge14" class="edge">
<title>Node11&#45;&gt;Node4</title>
<path fill="none" stroke="midnightblue" d="M166.95,-112.08C162.98,-104.69 157.21,-93.95 152.3,-84.81"/>
<polygon fill="midnightblue" stroke="midnightblue" points="155.25,-82.91 147.44,-75.75 149.09,-86.22 155.25,-82.91"/>
</g>
<!-- Node12&#45;&gt;Node4 -->
<g id="edge16" class="edge">
<title>Node12&#45;&gt;Node4</title>
<path fill="none" stroke="midnightblue" d="M233.39,-112.32C216.07,-103.66 189.22,-90.24 169.24,-80.25"/>
<polygon fill="midnightblue" stroke="midnightblue" points="170.56,-77 160.05,-75.65 167.43,-83.26 170.56,-77"/>
</g>
</g>
</svg>
