<?xml version="1.0" encoding="UTF-8" standalone="no"?>
<!DOCTYPE svg PUBLIC "-//W3C//DTD SVG 1.1//EN"
 "http://www.w3.org/Graphics/SVG/1.1/DTD/svg11.dtd">
<!-- Generated by graphviz version 8.0.2 (20230410.1723)
 -->
<!-- Title: lseek Pages: 1 -->
<svg width="248pt" height="45pt"
 viewBox="0.00 0.00 248.00 45.00" xmlns="http://www.w3.org/2000/svg" xmlns:xlink="http://www.w3.org/1999/xlink">
<g id="graph0" class="graph" transform="scale(1 1) rotate(0) translate(4 41)">
<title>lseek</title>
<!-- Node1 -->
<g id="Node000001" class="node">
<title>Node1</title>
<g id="a_Node000001"><a xlink:title=" ">
<polygon fill="#999999" stroke="#666666" points="40,-19 0,-19 0,0 40,0 40,-19"/>
<text text-anchor="middle" x="20" y="-7" font-family="Helvetica,sans-Serif" font-size="10.00">lseek</text>
</a>
</g>
</g>
<!-- Node1&#45;&gt;Node1 -->
<g id="edge5_Node000001_Node000001" class="edge">
<title>Node1&#45;&gt;Node1</title>
<g id="a_edge5_Node000001_Node000001"><a xlink:title=" ">
<path fill="none" stroke="#63b8ff" d="M7.32,-19.37C1.53,-27.94 5.76,-37 20,-37 28.01,-37 32.85,-34.13 34.52,-30.1"/>
<polygon fill="#63b8ff" stroke="#63b8ff" points="37.82,-29.63 32.68,-20.37 30.92,-30.82 37.82,-29.63"/>
</a>
</g>
</g>
<!-- Node2 -->
<g id="Node000002" class="node">
<title>Node2</title>
<g id="a_Node000002"><a xlink:href="k__lseek_8c.html#aca2b074f62174df41781abb400ac6c67" target="_top" xlink:title=" ">
<polygon fill="white" stroke="#666666" points="126,-19 76,-19 76,0 126,0 126,-19"/>
<text text-anchor="middle" x="101" y="-7" font-family="Helvetica,sans-Serif" font-size="10.00">k_lseek</text>
</a>
</g>
</g>
<!-- Node1&#45;&gt;Node2 -->
<g id="edge1_Node000001_Node000002" class="edge">
<title>Node1&#45;&gt;Node2</title>
<g id="a_edge1_Node000001_Node000002"><a xlink:title=" ">
<path fill="none" stroke="#63b8ff" d="M40.12,-9.5C47.55,-9.5 56.31,-9.5 64.79,-9.5"/>
<polygon fill="#63b8ff" stroke="#63b8ff" points="64.66,-13 74.66,-9.5 64.66,-6 64.66,-13"/>
</a>
</g>
</g>
<!-- Node2&#45;&gt;Node2 -->
<g id="edge4_Node000002_Node000002" class="edge">
<title>Node2&#45;&gt;Node2</title>
<g id="a_edge4_Node000002_Node000002"><a xlink:title=" ">
<path fill="none" stroke="#63b8ff" d="M88.32,-19.37C82.53,-27.94 86.76,-37 101,-37 109.01,-37 113.85,-34.13 115.52,-30.1"/>
<polygon fill="#63b8ff" stroke="#63b8ff" points="118.82,-29.63 113.68,-20.37 111.92,-30.82 118.82,-29.63"/>
</a>
</g>
</g>
<!-- Node3 -->
<g id="Node000003" class="node">
<title>Node3</title>
<g id="a_Node000003"><a xlink:href="descriptor_8c.html#ab813e27b51b02aab5c7c6c174ad482a1" target="_top" xlink:title=" ">
<polygon fill="white" stroke="#666666" points="240,-19 162,-19 162,0 240,0 240,-19"/>
<text text-anchor="middle" x="201" y="-7" font-family="Helvetica,sans-Serif" font-size="10.00">get_descriptor</text>
</a>
</g>
</g>
<!-- Node2&#45;&gt;Node3 -->
<g id="edge2_Node000002_Node000003" class="edge">
<title>Node2&#45;&gt;Node3</title>
<g id="a_edge2_Node000002_Node000003"><a xlink:title=" ">
<path fill="none" stroke="#63b8ff" d="M126.48,-9.5C133.97,-9.5 142.5,-9.5 151.02,-9.5"/>
<polygon fill="#63b8ff" stroke="#63b8ff" points="150.74,-13 160.74,-9.5 150.74,-6 150.74,-13"/>
</a>
</g>
</g>
<!-- Node3&#45;&gt;Node3 -->
<g id="edge3_Node000003_Node000003" class="edge">
<title>Node3&#45;&gt;Node3</title>
<g id="a_edge3_Node000003_Node000003"><a xlink:title=" ">
<path fill="none" stroke="#63b8ff" d="M185.34,-19.37C178.2,-27.94 183.42,-37 201,-37 210.89,-37 216.86,-34.13 218.93,-30.1"/>
<polygon fill="#63b8ff" stroke="#63b8ff" points="222.15,-29.42 216.66,-20.37 215.31,-30.88 222.15,-29.42"/>
</a>
</g>
</g>
</g>
</svg>
