<?xml version="1.0" encoding="UTF-8" standalone="no"?>
<!DOCTYPE svg PUBLIC "-//W3C//DTD SVG 1.1//EN"
 "http://www.w3.org/Graphics/SVG/1.1/DTD/svg11.dtd">
<!-- Generated by graphviz version 8.0.2 (20230410.1723)
 -->
<!-- Title: include/libc/sys/syscall.h Pages: 1 -->
<svg width="378pt" height="252pt"
 viewBox="0.00 0.00 377.89 252.00" xmlns="http://www.w3.org/2000/svg" xmlns:xlink="http://www.w3.org/1999/xlink">
<g id="graph0" class="graph" transform="scale(1 1) rotate(0) translate(4 248)">
<title>include/libc/sys/syscall.h</title>
<!-- Node1 -->
<g id="node1" class="node">
<title>Node1</title>
<g id="a_node1"><a xlink:title=" ">
<polygon fill="#bfbfbf" stroke="black" points="130.73,-224.5 130.73,-243.5 256.73,-243.5 256.73,-224.5 130.73,-224.5"/>
<text text-anchor="middle" x="193.73" y="-231.5" font-family="Helvetica,sans-Serif" font-size="10.00">include/libc/sys/syscall.h</text>
</a>
</g>
</g>
<!-- Node2 -->
<g id="node2" class="node">
<title>Node2</title>
<g id="a_node2"><a xlink:href="inet_8h.html" target="_top" xlink:title=" ">
<polygon fill="none" stroke="black" points="77.73,-168.5 77.73,-187.5 139.73,-187.5 139.73,-168.5 77.73,-168.5"/>
<text text-anchor="middle" x="108.73" y="-175.5" font-family="Helvetica,sans-Serif" font-size="10.00">arpa/inet.h</text>
</a>
</g>
</g>
<!-- Node1&#45;&gt;Node2 -->
<g id="edge1" class="edge">
<title>Node1&#45;&gt;Node2</title>
<path fill="none" stroke="midnightblue" d="M180.45,-224.56C167.23,-216.16 146.69,-203.11 130.97,-193.13"/>
<polygon fill="midnightblue" stroke="midnightblue" points="133.24,-189.79 122.92,-187.38 129.48,-195.69 133.24,-189.79"/>
</g>
<!-- Node3 -->
<g id="node3" class="node">
<title>Node3</title>
<g id="a_node3"><a xlink:href="socket_8h.html" target="_top" xlink:title=" ">
<polygon fill="none" stroke="black" points="12.23,-112.5 12.23,-131.5 85.23,-131.5 85.23,-112.5 12.23,-112.5"/>
<text text-anchor="middle" x="48.73" y="-119.5" font-family="Helvetica,sans-Serif" font-size="10.00">sys/socket.h</text>
</a>
</g>
</g>
<!-- Node1&#45;&gt;Node3 -->
<g id="edge12" class="edge">
<title>Node1&#45;&gt;Node3</title>
<path fill="none" stroke="midnightblue" d="M138.41,-224.55C114.13,-218.22 87.04,-207.19 68.73,-188 56.89,-175.59 52.05,-156.32 50.07,-141.98"/>
<polygon fill="midnightblue" stroke="midnightblue" points="53.49,-141.96 49,-132.36 46.52,-142.66 53.49,-141.96"/>
</g>
<!-- Node4 -->
<g id="node4" class="node">
<title>Node4</title>
<g id="a_node4"><a xlink:href="types_8h.html" target="_top" xlink:title=" ">
<polygon fill="none" stroke="black" points="108.73,-56.5 108.73,-75.5 176.73,-75.5 176.73,-56.5 108.73,-56.5"/>
<text text-anchor="middle" x="142.73" y="-63.5" font-family="Helvetica,sans-Serif" font-size="10.00">sys/types.h</text>
</a>
</g>
</g>
<!-- Node1&#45;&gt;Node4 -->
<g id="edge17" class="edge">
<title>Node1&#45;&gt;Node4</title>
<path fill="none" stroke="midnightblue" d="M141.86,-224.59C92.95,-213.35 24.06,-187.9 2.73,-132 -13.23,-90.16 51.3,-75.25 98.04,-69.94"/>
<polygon fill="midnightblue" stroke="midnightblue" points="98.29,-73.33 107.89,-68.83 97.58,-66.36 98.29,-73.33"/>
</g>
<!-- Node7 -->
<g id="node7" class="node">
<title>Node7</title>
<g id="a_node7"><a xlink:title=" ">
<polygon fill="none" stroke="#bfbfbf" points="288.23,-0.5 288.23,-19.5 337.23,-19.5 337.23,-0.5 288.23,-0.5"/>
<text text-anchor="middle" x="312.73" y="-7.5" font-family="Helvetica,sans-Serif" font-size="10.00">stdint.h</text>
</a>
</g>
</g>
<!-- Node1&#45;&gt;Node7 -->
<g id="edge9" class="edge">
<title>Node1&#45;&gt;Node7</title>
<path fill="none" stroke="midnightblue" d="M249.68,-224.51C290.76,-217.03 341.58,-204.7 354.73,-188 392.79,-139.67 348.62,-62.42 325.32,-28.24"/>
<polygon fill="midnightblue" stroke="midnightblue" points="327.75,-26.6 319.13,-20.44 322.02,-30.63 327.75,-26.6"/>
</g>
<!-- Node8 -->
<g id="node8" class="node">
<title>Node8</title>
<g id="a_node8"><a xlink:href="errno_8h.html" target="_top" xlink:title=" ">
<polygon fill="none" stroke="black" points="196.23,-168.5 196.23,-187.5 243.23,-187.5 243.23,-168.5 196.23,-168.5"/>
<text text-anchor="middle" x="219.73" y="-175.5" font-family="Helvetica,sans-Serif" font-size="10.00">errno.h</text>
</a>
</g>
</g>
<!-- Node1&#45;&gt;Node8 -->
<g id="edge8" class="edge">
<title>Node1&#45;&gt;Node8</title>
<path fill="none" stroke="midnightblue" d="M197.79,-224.56C201.33,-217.23 206.56,-206.35 211.03,-197.07"/>
<polygon fill="midnightblue" stroke="midnightblue" points="214.6,-198.73 215.78,-188.2 208.29,-195.69 214.6,-198.73"/>
</g>
<!-- Node9 -->
<g id="node9" class="node">
<title>Node9</title>
<g id="a_node9"><a xlink:href="stdio_8h.html" target="_top" xlink:title=" ">
<polygon fill="none" stroke="black" points="299.73,-168.5 299.73,-187.5 345.73,-187.5 345.73,-168.5 299.73,-168.5"/>
<text text-anchor="middle" x="322.73" y="-175.5" font-family="Helvetica,sans-Serif" font-size="10.00">stdio.h</text>
</a>
</g>
</g>
<!-- Node1&#45;&gt;Node9 -->
<g id="edge10" class="edge">
<title>Node1&#45;&gt;Node9</title>
<path fill="none" stroke="midnightblue" d="M213.89,-224.56C235,-215.73 268.39,-201.75 292.63,-191.6"/>
<polygon fill="midnightblue" stroke="midnightblue" points="293.84,-194.47 301.72,-187.38 291.14,-188.01 293.84,-194.47"/>
</g>
<!-- Node11 -->
<g id="node11" class="node">
<title>Node11</title>
<g id="a_node11"><a xlink:href="stat_8h.html" target="_top" xlink:title=" ">
<polygon fill="none" stroke="black" points="141.73,-112.5 141.73,-131.5 201.73,-131.5 201.73,-112.5 141.73,-112.5"/>
<text text-anchor="middle" x="171.73" y="-119.5" font-family="Helvetica,sans-Serif" font-size="10.00">sys/stat.h</text>
</a>
</g>
</g>
<!-- Node1&#45;&gt;Node11 -->
<g id="edge13" class="edge">
<title>Node1&#45;&gt;Node11</title>
<path fill="none" stroke="midnightblue" d="M192.08,-224.73C188.59,-207.29 180.4,-166.35 175.54,-142.06"/>
<polygon fill="midnightblue" stroke="midnightblue" points="178.8,-141.48 173.41,-132.36 171.93,-142.86 178.8,-141.48"/>
</g>
<!-- Node12 -->
<g id="node12" class="node">
<title>Node12</title>
<g id="a_node12"><a xlink:href="libc_2sys_2time_8h.html" target="_top" xlink:title=" ">
<polygon fill="none" stroke="black" points="219.73,-112.5 219.73,-131.5 281.73,-131.5 281.73,-112.5 219.73,-112.5"/>
<text text-anchor="middle" x="250.73" y="-119.5" font-family="Helvetica,sans-Serif" font-size="10.00">sys/time.h</text>
</a>
</g>
</g>
<!-- Node1&#45;&gt;Node12 -->
<g id="edge15" class="edge">
<title>Node1&#45;&gt;Node12</title>
<path fill="none" stroke="midnightblue" d="M212.43,-224.55C226.37,-217.12 244.39,-204.86 252.73,-188 259.86,-173.6 258.44,-155.12 255.78,-141.55"/>
<polygon fill="midnightblue" stroke="midnightblue" points="259.02,-141.04 253.3,-132.11 252.21,-142.65 259.02,-141.04"/>
</g>
<!-- Node2&#45;&gt;Node3 -->
<g id="edge2" class="edge">
<title>Node2&#45;&gt;Node3</title>
<path fill="none" stroke="midnightblue" d="M99.36,-168.56C90.41,-160.51 76.72,-148.19 65.83,-138.39"/>
<polygon fill="midnightblue" stroke="midnightblue" points="68.62,-136.29 58.85,-132.2 63.94,-141.49 68.62,-136.29"/>
</g>
<!-- Node2&#45;&gt;Node4 -->
<g id="edge7" class="edge">
<title>Node2&#45;&gt;Node4</title>
<path fill="none" stroke="midnightblue" d="M111.29,-168.73C116.7,-151.21 129.45,-109.98 136.94,-85.73"/>
<polygon fill="midnightblue" stroke="midnightblue" points="140.54,-86.95 140.15,-76.36 133.85,-84.88 140.54,-86.95"/>
</g>
<!-- Node3&#45;&gt;Node4 -->
<g id="edge3" class="edge">
<title>Node3&#45;&gt;Node4</title>
<path fill="none" stroke="midnightblue" d="M63.42,-112.56C78.18,-104.08 101.19,-90.87 118.63,-80.85"/>
<polygon fill="midnightblue" stroke="midnightblue" points="120.22,-83.39 127.15,-75.38 116.73,-77.32 120.22,-83.39"/>
</g>
<!-- Node5 -->
<g id="node5" class="node">
<title>Node5</title>
<g id="a_node5"><a xlink:title=" ">
<polygon fill="none" stroke="#bfbfbf" points="150.73,-0.5 150.73,-19.5 206.73,-19.5 206.73,-0.5 150.73,-0.5"/>
<text text-anchor="middle" x="178.73" y="-7.5" font-family="Helvetica,sans-Serif" font-size="10.00">stdbool.h</text>
</a>
</g>
</g>
<!-- Node4&#45;&gt;Node5 -->
<g id="edge4" class="edge">
<title>Node4&#45;&gt;Node5</title>
<path fill="none" stroke="midnightblue" d="M148.36,-56.56C153.41,-48.99 160.97,-37.64 167.29,-28.16"/>
<polygon fill="midnightblue" stroke="midnightblue" points="170.63,-30.46 173.26,-20.2 164.81,-26.58 170.63,-30.46"/>
</g>
<!-- Node6 -->
<g id="node6" class="node">
<title>Node6</title>
<g id="a_node6"><a xlink:title=" ">
<polygon fill="none" stroke="#bfbfbf" points="80.73,-0.5 80.73,-19.5 132.73,-19.5 132.73,-0.5 80.73,-0.5"/>
<text text-anchor="middle" x="106.73" y="-7.5" font-family="Helvetica,sans-Serif" font-size="10.00">stddef.h</text>
</a>
</g>
</g>
<!-- Node4&#45;&gt;Node6 -->
<g id="edge5" class="edge">
<title>Node4&#45;&gt;Node6</title>
<path fill="none" stroke="midnightblue" d="M137.11,-56.56C132.06,-48.99 124.49,-37.64 118.17,-28.16"/>
<polygon fill="midnightblue" stroke="midnightblue" points="120.66,-26.58 112.2,-20.2 114.83,-30.46 120.66,-26.58"/>
</g>
<!-- Node4&#45;&gt;Node7 -->
<g id="edge6" class="edge">
<title>Node4&#45;&gt;Node7</title>
<path fill="none" stroke="midnightblue" d="M169.29,-56.56C198.58,-47.26 245.79,-32.26 277.99,-22.04"/>
<polygon fill="midnightblue" stroke="midnightblue" points="278.81,-25.13 287.29,-18.77 276.69,-18.46 278.81,-25.13"/>
</g>
<!-- Node10 -->
<g id="node10" class="node">
<title>Node10</title>
<g id="a_node10"><a xlink:title=" ">
<polygon fill="none" stroke="#bfbfbf" points="300.23,-112.5 300.23,-131.5 347.23,-131.5 347.23,-112.5 300.23,-112.5"/>
<text text-anchor="middle" x="323.73" y="-119.5" font-family="Helvetica,sans-Serif" font-size="10.00">printf.h</text>
</a>
</g>
</g>
<!-- Node9&#45;&gt;Node10 -->
<g id="edge11" class="edge">
<title>Node9&#45;&gt;Node10</title>
<path fill="none" stroke="midnightblue" d="M322.89,-168.56C323.02,-161.47 323.21,-151.06 323.38,-141.98"/>
<polygon fill="midnightblue" stroke="midnightblue" points="326.89,-142.26 323.58,-132.2 319.9,-142.13 326.89,-142.26"/>
</g>
<!-- Node11&#45;&gt;Node4 -->
<g id="edge14" class="edge">
<title>Node11&#45;&gt;Node4</title>
<path fill="none" stroke="midnightblue" d="M167.2,-112.56C163.22,-105.15 157.29,-94.12 152.27,-84.76"/>
<polygon fill="midnightblue" stroke="midnightblue" points="154.95,-83.36 147.14,-76.2 148.78,-86.67 154.95,-83.36"/>
</g>
<!-- Node12&#45;&gt;Node4 -->
<g id="edge16" class="edge">
<title>Node12&#45;&gt;Node4</title>
<path fill="none" stroke="midnightblue" d="M233.86,-112.56C216.58,-103.92 189.47,-90.37 169.31,-80.29"/>
<polygon fill="midnightblue" stroke="midnightblue" points="171,-76.72 160.49,-75.38 167.87,-82.98 171,-76.72"/>
</g>
</g>
</svg>
