<?xml version="1.0" encoding="UTF-8" standalone="no"?>
<!DOCTYPE svg PUBLIC "-//W3C//DTD SVG 1.1//EN"
 "http://www.w3.org/Graphics/SVG/1.1/DTD/svg11.dtd">
<!-- Generated by graphviz version 8.0.2 (20230410.1723)
 -->
<!-- Title: open Pages: 1 -->
<svg width="142pt" height="45pt"
 viewBox="0.00 0.00 142.00 45.00" xmlns="http://www.w3.org/2000/svg" xmlns:xlink="http://www.w3.org/1999/xlink">
<g id="graph0" class="graph" transform="scale(1 1) rotate(0) translate(4 41)">
<title>open</title>
<!-- Node1 -->
<g id="Node000001" class="node">
<title>Node1</title>
<g id="a_Node000001"><a xlink:title=" ">
<polygon fill="#999999" stroke="#666666" points="134,-19 96,-19 96,0 134,0 134,-19"/>
<text text-anchor="middle" x="115" y="-7" font-family="Helvetica,sans-Serif" font-size="10.00">open</text>
</a>
</g>
</g>
<!-- Node1&#45;&gt;Node1 -->
<g id="edge3_Node000001_Node000001" class="edge">
<title>Node1&#45;&gt;Node1</title>
<g id="a_edge3_Node000001_Node000001"><a xlink:title=" ">
<path fill="none" stroke="#63b8ff" d="M130.24,-30.1C128.49,-34.13 123.4,-37 115,-37 100.06,-37 95.62,-27.94 101.69,-19.37"/>
<polygon fill="#63b8ff" stroke="#63b8ff" points="133.53,-29.59 128.31,-20.37 126.64,-30.83 133.53,-29.59"/>
</a>
</g>
</g>
<!-- Node2 -->
<g id="Node000002" class="node">
<title>Node2</title>
<g id="a_Node000002"><a xlink:href="inish_8c.html#a6c6783a2593b39ce4914819912297092" target="_top" xlink:title=" ">
<polygon fill="white" stroke="#666666" points="60,-19 0,-19 0,0 60,0 60,-19"/>
<text text-anchor="middle" x="30" y="-7" font-family="Helvetica,sans-Serif" font-size="10.00">inish_load</text>
</a>
</g>
</g>
<!-- Node1&#45;&gt;Node2 -->
<g id="edge1_Node000001_Node000002" class="edge">
<title>Node1&#45;&gt;Node2</title>
<g id="a_edge1_Node000001_Node000002"><a xlink:title=" ">
<path fill="none" stroke="#63b8ff" d="M84.67,-9.5C76.81,-9.5 68.32,-9.5 60.45,-9.5"/>
<polygon fill="#63b8ff" stroke="#63b8ff" points="84.58,-13 94.58,-9.5 84.58,-6 84.58,-13"/>
</a>
</g>
</g>
<!-- Node2&#45;&gt;Node2 -->
<g id="edge2_Node000002_Node000002" class="edge">
<title>Node2&#45;&gt;Node2</title>
<g id="a_edge2_Node000002_Node000002"><a xlink:title=" ">
<path fill="none" stroke="#63b8ff" d="M45.24,-30.1C43.49,-34.13 38.4,-37 30,-37 15.06,-37 10.62,-27.94 16.69,-19.37"/>
<polygon fill="#63b8ff" stroke="#63b8ff" points="48.53,-29.59 43.31,-20.37 41.64,-30.83 48.53,-29.59"/>
</a>
</g>
</g>
</g>
</svg>
