<?xml version="1.0" encoding="UTF-8" standalone="no"?>
<!DOCTYPE svg PUBLIC "-//W3C//DTD SVG 1.1//EN"
 "http://www.w3.org/Graphics/SVG/1.1/DTD/svg11.dtd">
<!-- Generated by graphviz version 2.49.3 (20211023.0002)
 -->
<!-- Title: write Pages: 1 -->
<svg width="279pt" height="66pt"
 viewBox="0.00 0.00 279.00 66.00" xmlns="http://www.w3.org/2000/svg" xmlns:xlink="http://www.w3.org/1999/xlink">
<g id="graph0" class="graph" transform="scale(1 1) rotate(0) translate(4 62)">
<title>write</title>
<!-- Node1 -->
<g id="node1" class="node">
<title>Node1</title>
<g id="a_node1"><a xlink:title=" ">
<polygon fill="#bfbfbf" stroke="black" points="233,-19.5 233,-38.5 271,-38.5 271,-19.5 233,-19.5"/>
<text text-anchor="middle" x="252" y="-26.5" font-family="Helvetica,sans-Serif" font-size="10.00">write</text>
</a>
</g>
</g>
<!-- Node2 -->
<g id="node2" class="node">
<title>Node2</title>
<g id="a_node2"><a xlink:href="stdio_8h.html#a948b7a0779c308ac5502c57e282e6933" target="_top" xlink:title=" ">
<polygon fill="none" stroke="black" points="119,-38.5 119,-57.5 169,-57.5 169,-38.5 119,-38.5"/>
<text text-anchor="middle" x="144" y="-45.5" font-family="Helvetica,sans-Serif" font-size="10.00">putchar</text>
</a>
</g>
</g>
<!-- Node1&#45;&gt;Node2 -->
<g id="edge1" class="edge">
<title>Node1&#45;&gt;Node2</title>
<path fill="none" stroke="midnightblue" d="M222.3,-34.14C205.69,-37.12 185.01,-40.83 169.22,-43.66"/>
<polygon fill="midnightblue" stroke="midnightblue" points="223.31,-37.52 232.54,-32.31 222.08,-30.63 223.31,-37.52"/>
</g>
<!-- Node4 -->
<g id="node4" class="node">
<title>Node4</title>
<g id="a_node4"><a xlink:href="udp_8h.html#a1e9dad20351b1ebb8b51196d2563c591" target="_top" xlink:title=" ">
<polygon fill="none" stroke="black" points="91,-0.5 91,-19.5 197,-19.5 197,-0.5 91,-0.5"/>
<text text-anchor="middle" x="144" y="-7.5" font-family="Helvetica,sans-Serif" font-size="10.00">udp_receive_packet</text>
</a>
</g>
</g>
<!-- Node1&#45;&gt;Node4 -->
<g id="edge3" class="edge">
<title>Node1&#45;&gt;Node4</title>
<path fill="none" stroke="midnightblue" d="M222.57,-23.9C214.78,-22.51 206.08,-20.95 197.41,-19.39"/>
<polygon fill="midnightblue" stroke="midnightblue" points="222.08,-27.37 232.54,-25.69 223.31,-20.48 222.08,-27.37"/>
</g>
<!-- Node3 -->
<g id="node3" class="node">
<title>Node3</title>
<g id="a_node3"><a xlink:href="stdio_8h.html#a65c637ee51a44ec6d0d75d514c8109d0" target="_top" xlink:title=" ">
<polygon fill="none" stroke="black" points="0,-38.5 0,-57.5 55,-57.5 55,-38.5 0,-38.5"/>
<text text-anchor="middle" x="27.5" y="-45.5" font-family="Helvetica,sans-Serif" font-size="10.00">_putchar</text>
</a>
</g>
</g>
<!-- Node2&#45;&gt;Node3 -->
<g id="edge2" class="edge">
<title>Node2&#45;&gt;Node3</title>
<path fill="none" stroke="midnightblue" d="M108.83,-48C91.69,-48 71.25,-48 55.28,-48"/>
<polygon fill="midnightblue" stroke="midnightblue" points="109,-51.5 119,-48 109,-44.5 109,-51.5"/>
</g>
</g>
</svg>
