<?xml version="1.0" encoding="UTF-8" standalone="no"?>
<!DOCTYPE svg PUBLIC "-//W3C//DTD SVG 1.1//EN"
 "http://www.w3.org/Graphics/SVG/1.1/DTD/svg11.dtd">
<!-- Generated by graphviz version 8.0.2 (20230410.1723)
 -->
<!-- Title: write Pages: 1 -->
<svg width="610pt" height="100pt"
 viewBox="0.00 0.00 610.36 100.00" xmlns="http://www.w3.org/2000/svg" xmlns:xlink="http://www.w3.org/1999/xlink">
<g id="graph0" class="graph" transform="scale(1 1) rotate(0) translate(4 96)">
<title>write</title>
<!-- Node1 -->
<g id="Node000001" class="node">
<title>Node1</title>
<g id="a_Node000001"><a xlink:title=" ">
<polygon fill="#999999" stroke="#666666" points="602,-46 564,-46 564,-27 602,-27 602,-46"/>
<text text-anchor="middle" x="583" y="-34" font-family="Helvetica,sans-Serif" font-size="10.00">write</text>
</a>
</g>
</g>
<!-- Node1&#45;&gt;Node1 -->
<g id="edge13_Node000001_Node000001" class="edge">
<title>Node1&#45;&gt;Node1</title>
<g id="a_edge13_Node000001_Node000001"><a xlink:title=" ">
<path fill="none" stroke="#63b8ff" d="M602.36,-56.76C600.33,-60.97 593.87,-64 583,-64 564.19,-64 558.61,-54.94 566.25,-46.37"/>
<polygon fill="#63b8ff" stroke="#63b8ff" points="605.58,-56.21 599.75,-47.37 598.79,-57.92 605.58,-56.21"/>
</a>
</g>
</g>
<!-- Node2 -->
<g id="Node000002" class="node">
<title>Node2</title>
<g id="a_Node000002"><a xlink:href="putchar_8c.html#a948b7a0779c308ac5502c57e282e6933" target="_top" xlink:title=" ">
<polygon fill="white" stroke="#666666" points="500.5,-74 451.5,-74 451.5,-55 500.5,-55 500.5,-74"/>
<text text-anchor="middle" x="476" y="-62" font-family="Helvetica,sans-Serif" font-size="10.00">putchar</text>
</a>
</g>
</g>
<!-- Node1&#45;&gt;Node2 -->
<g id="edge1_Node000001_Node000002" class="edge">
<title>Node1&#45;&gt;Node2</title>
<g id="a_edge1_Node000001_Node000002"><a xlink:title=" ">
<path fill="none" stroke="#63b8ff" d="M553.1,-44.21C536.72,-48.57 516.48,-53.97 500.99,-58.1"/>
<polygon fill="#63b8ff" stroke="#63b8ff" points="553.95,-47.34 562.71,-41.38 552.15,-40.57 553.95,-47.34"/>
</a>
</g>
</g>
<!-- Node4 -->
<g id="Node000004" class="node">
<title>Node4</title>
<g id="a_Node000004"><a xlink:href="udp_8c.html#a1e9dad20351b1ebb8b51196d2563c591" target="_top" xlink:title=" ">
<polygon fill="white" stroke="#666666" points="528,-19 424,-19 424,0 528,0 528,-19"/>
<text text-anchor="middle" x="476" y="-7" font-family="Helvetica,sans-Serif" font-size="10.00">udp_receive_packet</text>
</a>
</g>
</g>
<!-- Node1&#45;&gt;Node4 -->
<g id="edge5_Node000001_Node000004" class="edge">
<title>Node1&#45;&gt;Node4</title>
<g id="a_edge5_Node000001_Node000004"><a xlink:title=" ">
<path fill="none" stroke="#63b8ff" d="M553.25,-29.11C541.61,-26.11 527.99,-22.61 515.51,-19.4"/>
<polygon fill="#63b8ff" stroke="#63b8ff" points="552.15,-32.7 562.71,-31.8 553.9,-25.92 552.15,-32.7"/>
</a>
</g>
</g>
<!-- Node2&#45;&gt;Node2 -->
<g id="edge4_Node000002_Node000002" class="edge">
<title>Node2&#45;&gt;Node2</title>
<g id="a_edge4_Node000002_Node000002"><a xlink:title=" ">
<path fill="none" stroke="#63b8ff" d="M495.36,-84.76C493.33,-88.97 486.87,-92 476,-92 457.19,-92 451.61,-82.94 459.25,-74.37"/>
<polygon fill="#63b8ff" stroke="#63b8ff" points="498.58,-84.21 492.75,-75.37 491.79,-85.92 498.58,-84.21"/>
</a>
</g>
</g>
<!-- Node3 -->
<g id="Node000003" class="node">
<title>Node3</title>
<g id="a_Node000003"><a xlink:href="__putchar_8c.html#a65c637ee51a44ec6d0d75d514c8109d0" target="_top" xlink:title=" ">
<polygon fill="white" stroke="#666666" points="362,-74 308,-74 308,-55 362,-55 362,-74"/>
<text text-anchor="middle" x="335" y="-62" font-family="Helvetica,sans-Serif" font-size="10.00">_putchar</text>
</a>
</g>
</g>
<!-- Node2&#45;&gt;Node3 -->
<g id="edge2_Node000002_Node000003" class="edge">
<title>Node2&#45;&gt;Node3</title>
<g id="a_edge2_Node000002_Node000003"><a xlink:title=" ">
<path fill="none" stroke="#63b8ff" d="M440.28,-64.5C416.15,-64.5 384.5,-64.5 362.42,-64.5"/>
<polygon fill="#63b8ff" stroke="#63b8ff" points="440.11,-68 450.11,-64.5 440.11,-61 440.11,-68"/>
</a>
</g>
</g>
<!-- Node3&#45;&gt;Node3 -->
<g id="edge3_Node000003_Node000003" class="edge">
<title>Node3&#45;&gt;Node3</title>
<g id="a_edge3_Node000003_Node000003"><a xlink:title=" ">
<path fill="none" stroke="#63b8ff" d="M360.51,-84.76C357.83,-88.97 349.33,-92 335,-92 310.21,-92 302.86,-82.94 312.93,-74.37"/>
<polygon fill="#63b8ff" stroke="#63b8ff" points="363.54,-83.76 357.07,-75.37 356.89,-85.96 363.54,-83.76"/>
</a>
</g>
</g>
<!-- Node4&#45;&gt;Node4 -->
<g id="edge12_Node000004_Node000004" class="edge">
<title>Node4&#45;&gt;Node4</title>
<g id="a_edge12_Node000004_Node000004"><a xlink:title=" ">
<path fill="none" stroke="#63b8ff" d="M495.36,-29.76C493.33,-33.97 486.87,-37 476,-37 457.19,-37 451.61,-27.94 459.25,-19.37"/>
<polygon fill="#63b8ff" stroke="#63b8ff" points="498.58,-29.21 492.75,-20.37 491.79,-30.92 498.58,-29.21"/>
</a>
</g>
</g>
<!-- Node5 -->
<g id="Node000005" class="node">
<title>Node5</title>
<g id="a_Node000005"><a xlink:href="ipv4_8c.html#a6c04a1a0613bd9fae6de26f01ba5958b" target="_top" xlink:title=" ">
<polygon fill="white" stroke="#666666" points="388,-19 282,-19 282,0 388,0 388,-19"/>
<text text-anchor="middle" x="335" y="-7" font-family="Helvetica,sans-Serif" font-size="10.00">ipv4_receive_packet</text>
</a>
</g>
</g>
<!-- Node4&#45;&gt;Node5 -->
<g id="edge6_Node000004_Node000005" class="edge">
<title>Node4&#45;&gt;Node5</title>
<g id="a_edge6_Node000004_Node000005"><a xlink:title=" ">
<path fill="none" stroke="#63b8ff" d="M412.87,-9.5C404.59,-9.5 396.17,-9.5 388.08,-9.5"/>
<polygon fill="#63b8ff" stroke="#63b8ff" points="412.64,-13 422.64,-9.5 412.64,-6 412.64,-13"/>
</a>
</g>
</g>
<!-- Node5&#45;&gt;Node5 -->
<g id="edge11_Node000005_Node000005" class="edge">
<title>Node5&#45;&gt;Node5</title>
<g id="a_edge11_Node000005_Node000005"><a xlink:title=" ">
<path fill="none" stroke="#63b8ff" d="M360.51,-29.76C357.83,-33.97 349.33,-37 335,-37 310.21,-37 302.86,-27.94 312.93,-19.37"/>
<polygon fill="#63b8ff" stroke="#63b8ff" points="363.54,-28.76 357.07,-20.37 356.89,-30.96 363.54,-28.76"/>
</a>
</g>
</g>
<!-- Node6 -->
<g id="Node000006" class="node">
<title>Node6</title>
<g id="a_Node000006"><a xlink:href="ethernet_8c.html#aafb24417f47cd11c95b81566e3b7fc78" target="_top" xlink:title=" ">
<polygon fill="white" stroke="#666666" points="246,-19 127,-19 127,0 246,0 246,-19"/>
<text text-anchor="middle" x="186.5" y="-7" font-family="Helvetica,sans-Serif" font-size="10.00">ethernet_receive_frame</text>
</a>
</g>
</g>
<!-- Node5&#45;&gt;Node6 -->
<g id="edge7_Node000005_Node000006" class="edge">
<title>Node5&#45;&gt;Node6</title>
<g id="a_edge7_Node000005_Node000006"><a xlink:title=" ">
<path fill="none" stroke="#63b8ff" d="M270.65,-9.5C262.57,-9.5 254.33,-9.5 246.33,-9.5"/>
<polygon fill="#63b8ff" stroke="#63b8ff" points="270.52,-13 280.52,-9.5 270.52,-6 270.52,-13"/>
</a>
</g>
</g>
<!-- Node6&#45;&gt;Node6 -->
<g id="edge8_Node000006_Node000006" class="edge">
<title>Node6&#45;&gt;Node6</title>
<g id="a_edge8_Node000006_Node000006"><a xlink:title=" ">
<path fill="none" stroke="#63b8ff" d="M212.01,-29.76C209.33,-33.97 200.83,-37 186.5,-37 161.71,-37 154.36,-27.94 164.43,-19.37"/>
<polygon fill="#63b8ff" stroke="#63b8ff" points="215.04,-28.76 208.57,-20.37 208.39,-30.96 215.04,-28.76"/>
</a>
</g>
</g>
<!-- Node7 -->
<g id="Node000007" class="node">
<title>Node7</title>
<g id="a_Node000007"><a xlink:href="net_2net_8c.html#a5da8d53d480b13e24e293e0ab90a0ac3" target="_top" xlink:title=" ">
<polygon fill="white" stroke="#666666" points="91,-19 0,-19 0,0 91,0 91,-19"/>
<text text-anchor="middle" x="45.5" y="-7" font-family="Helvetica,sans-Serif" font-size="10.00">net_interface_init</text>
</a>
</g>
</g>
<!-- Node6&#45;&gt;Node7 -->
<g id="edge9_Node000006_Node000007" class="edge">
<title>Node6&#45;&gt;Node7</title>
<g id="a_edge9_Node000006_Node000007"><a xlink:title=" ">
<path fill="none" stroke="#63b8ff" d="M115.65,-9.5C107.34,-9.5 99.03,-9.5 91.2,-9.5"/>
<polygon fill="#63b8ff" stroke="#63b8ff" points="115.55,-13 125.55,-9.5 115.55,-6 115.55,-13"/>
</a>
</g>
</g>
<!-- Node7&#45;&gt;Node7 -->
<g id="edge10_Node000007_Node000007" class="edge">
<title>Node7&#45;&gt;Node7</title>
<g id="a_edge10_Node000007_Node000007"><a xlink:title=" ">
<path fill="none" stroke="#63b8ff" d="M71.01,-29.76C68.33,-33.97 59.83,-37 45.5,-37 20.71,-37 13.36,-27.94 23.43,-19.37"/>
<polygon fill="#63b8ff" stroke="#63b8ff" points="74.04,-28.76 67.57,-20.37 67.39,-30.96 74.04,-28.76"/>
</a>
</g>
</g>
</g>
</svg>
