<?xml version="1.0" encoding="UTF-8" standalone="no"?>
<!DOCTYPE svg PUBLIC "-//W3C//DTD SVG 1.1//EN"
 "http://www.w3.org/Graphics/SVG/1.1/DTD/svg11.dtd">
<!-- Generated by graphviz version 8.0.2 (20230410.1723)
 -->
<!-- Title: openat Pages: 1 -->
<svg width="376pt" height="45pt"
 viewBox="0.00 0.00 376.00 45.00" xmlns="http://www.w3.org/2000/svg" xmlns:xlink="http://www.w3.org/1999/xlink">
<g id="graph0" class="graph" transform="scale(1 1) rotate(0) translate(4 41)">
<title>openat</title>
<!-- Node1 -->
<g id="Node000001" class="node">
<title>Node1</title>
<g id="a_Node000001"><a xlink:title=" ">
<polygon fill="#999999" stroke="#666666" points="46,-19 0,-19 0,0 46,0 46,-19"/>
<text text-anchor="middle" x="23" y="-7" font-family="Helvetica,sans-Serif" font-size="10.00">openat</text>
</a>
</g>
</g>
<!-- Node1&#45;&gt;Node1 -->
<g id="edge7_Node000001_Node000001" class="edge">
<title>Node1&#45;&gt;Node1</title>
<g id="a_edge7_Node000001_Node000001"><a xlink:title=" ">
<path fill="none" stroke="#63b8ff" d="M9.38,-19.37C3.17,-27.94 7.71,-37 23,-37 31.6,-37 36.8,-34.13 38.6,-30.1"/>
<polygon fill="#63b8ff" stroke="#63b8ff" points="41.88,-29.57 36.62,-20.37 34.99,-30.84 41.88,-29.57"/>
</a>
</g>
</g>
<!-- Node2 -->
<g id="Node000002" class="node">
<title>Node2</title>
<g id="a_Node000002"><a xlink:href="k__openat_8c.html#a256d0b3f99e3a51b61a5f92da3237787" target="_top" xlink:title=" ">
<polygon fill="white" stroke="#666666" points="138,-19 82,-19 82,0 138,0 138,-19"/>
<text text-anchor="middle" x="110" y="-7" font-family="Helvetica,sans-Serif" font-size="10.00">k_openat</text>
</a>
</g>
</g>
<!-- Node1&#45;&gt;Node2 -->
<g id="edge1_Node000001_Node000002" class="edge">
<title>Node1&#45;&gt;Node2</title>
<g id="a_edge1_Node000001_Node000002"><a xlink:title=" ">
<path fill="none" stroke="#63b8ff" d="M46.33,-9.5C53.86,-9.5 62.48,-9.5 70.87,-9.5"/>
<polygon fill="#63b8ff" stroke="#63b8ff" points="70.66,-13 80.66,-9.5 70.66,-6 70.66,-13"/>
</a>
</g>
</g>
<!-- Node2&#45;&gt;Node2 -->
<g id="edge6_Node000002_Node000002" class="edge">
<title>Node2&#45;&gt;Node2</title>
<g id="a_edge6_Node000002_Node000002"><a xlink:title=" ">
<path fill="none" stroke="#63b8ff" d="M96.38,-19.37C90.17,-27.94 94.71,-37 110,-37 118.6,-37 123.8,-34.13 125.6,-30.1"/>
<polygon fill="#63b8ff" stroke="#63b8ff" points="128.88,-29.57 123.62,-20.37 121.99,-30.84 128.88,-29.57"/>
</a>
</g>
</g>
<!-- Node3 -->
<g id="Node000003" class="node">
<title>Node3</title>
<g id="a_Node000003"><a xlink:href="k__open_8c.html#a8665b78926682de513294b0733aa72e4" target="_top" xlink:title=" ">
<polygon fill="white" stroke="#666666" points="222,-19 174,-19 174,0 222,0 222,-19"/>
<text text-anchor="middle" x="198" y="-7" font-family="Helvetica,sans-Serif" font-size="10.00">k_open</text>
</a>
</g>
</g>
<!-- Node2&#45;&gt;Node3 -->
<g id="edge2_Node000002_Node000003" class="edge">
<title>Node2&#45;&gt;Node3</title>
<g id="a_edge2_Node000002_Node000003"><a xlink:title=" ">
<path fill="none" stroke="#63b8ff" d="M138.21,-9.5C146.06,-9.5 154.72,-9.5 162.93,-9.5"/>
<polygon fill="#63b8ff" stroke="#63b8ff" points="162.73,-13 172.73,-9.5 162.73,-6 162.73,-13"/>
</a>
</g>
</g>
<!-- Node3&#45;&gt;Node3 -->
<g id="edge5_Node000003_Node000003" class="edge">
<title>Node3&#45;&gt;Node3</title>
<g id="a_edge5_Node000003_Node000003"><a xlink:title=" ">
<path fill="none" stroke="#63b8ff" d="M184.22,-19.37C177.94,-27.94 182.53,-37 198,-37 206.7,-37 211.96,-34.13 213.78,-30.1"/>
<polygon fill="#63b8ff" stroke="#63b8ff" points="217.05,-29.56 211.78,-20.37 210.17,-30.84 217.05,-29.56"/>
</a>
</g>
</g>
<!-- Node4 -->
<g id="Node000004" class="node">
<title>Node4</title>
<g id="a_Node000004"><a xlink:href="descriptor_8c.html#a9d772be036ad7ec4e9e926a190b76003" target="_top" xlink:title=" ">
<polygon fill="white" stroke="#666666" points="368,-19 258,-19 258,0 368,0 368,-19"/>
<text text-anchor="middle" x="313" y="-7" font-family="Helvetica,sans-Serif" font-size="10.00">create_file_descriptor</text>
</a>
</g>
</g>
<!-- Node3&#45;&gt;Node4 -->
<g id="edge3_Node000003_Node000004" class="edge">
<title>Node3&#45;&gt;Node4</title>
<g id="a_edge3_Node000003_Node000004"><a xlink:title=" ">
<path fill="none" stroke="#63b8ff" d="M222.41,-9.5C229.77,-9.5 238.27,-9.5 247.06,-9.5"/>
<polygon fill="#63b8ff" stroke="#63b8ff" points="246.86,-13 256.86,-9.5 246.86,-6 246.86,-13"/>
</a>
</g>
</g>
<!-- Node4&#45;&gt;Node4 -->
<g id="edge4_Node000004_Node000004" class="edge">
<title>Node4&#45;&gt;Node4</title>
<g id="a_edge4_Node000004_Node000004"><a xlink:title=" ">
<path fill="none" stroke="#63b8ff" d="M295,-19.37C286.78,-27.94 292.79,-37 313,-37 324.69,-37 331.62,-33.97 333.81,-29.76"/>
<polygon fill="#63b8ff" stroke="#63b8ff" points="336.99,-29.11 331,-20.37 330.23,-30.93 336.99,-29.11"/>
</a>
</g>
</g>
</g>
</svg>
