<?xml version="1.0" encoding="UTF-8" standalone="no"?>
<!DOCTYPE svg PUBLIC "-//W3C//DTD SVG 1.1//EN"
 "http://www.w3.org/Graphics/SVG/1.1/DTD/svg11.dtd">
<!-- Generated by graphviz version 8.0.2 (20230410.1723)
 -->
<!-- Title: read Pages: 1 -->
<svg width="128pt" height="45pt"
 viewBox="0.00 0.00 128.00 45.00" xmlns="http://www.w3.org/2000/svg" xmlns:xlink="http://www.w3.org/1999/xlink">
<g id="graph0" class="graph" transform="scale(1 1) rotate(0) translate(4 41)">
<title>read</title>
<!-- Node1 -->
<g id="Node000001" class="node">
<title>Node1</title>
<g id="a_Node000001"><a xlink:title=" ">
<polygon fill="#999999" stroke="#666666" points="120,-19 85,-19 85,0 120,0 120,-19"/>
<text text-anchor="middle" x="102.5" y="-7" font-family="Helvetica,sans-Serif" font-size="10.00">read</text>
</a>
</g>
</g>
<!-- Node1&#45;&gt;Node1 -->
<g id="edge3_Node000001_Node000001" class="edge">
<title>Node1&#45;&gt;Node1</title>
<g id="a_edge3_Node000001_Node000001"><a xlink:title=" ">
<path fill="none" stroke="#63b8ff" d="M116.49,-30.1C114.87,-34.13 110.21,-37 102.5,-37 88.79,-37 84.72,-27.94 90.29,-19.37"/>
<polygon fill="#63b8ff" stroke="#63b8ff" points="119.8,-29.66 114.71,-20.37 112.89,-30.81 119.8,-29.66"/>
</a>
</g>
</g>
<!-- Node2 -->
<g id="Node000002" class="node">
<title>Node2</title>
<g id="a_Node000002"><a xlink:href="getchar_8c.html#a92292ba4fd255fe335e84aac9e952f5f" target="_top" xlink:title=" ">
<polygon fill="white" stroke="#666666" points="49,-19 0,-19 0,0 49,0 49,-19"/>
<text text-anchor="middle" x="24.5" y="-7" font-family="Helvetica,sans-Serif" font-size="10.00">getchar</text>
</a>
</g>
</g>
<!-- Node1&#45;&gt;Node2 -->
<g id="edge1_Node000001_Node000002" class="edge">
<title>Node1&#45;&gt;Node2</title>
<g id="a_edge1_Node000001_Node000002"><a xlink:title=" ">
<path fill="none" stroke="#63b8ff" d="M73.85,-9.5C65.78,-9.5 57.04,-9.5 49.24,-9.5"/>
<polygon fill="#63b8ff" stroke="#63b8ff" points="73.63,-13 83.63,-9.5 73.63,-6 73.63,-13"/>
</a>
</g>
</g>
<!-- Node2&#45;&gt;Node2 -->
<g id="edge2_Node000002_Node000002" class="edge">
<title>Node2&#45;&gt;Node2</title>
<g id="a_edge2_Node000002_Node000002"><a xlink:title=" ">
<path fill="none" stroke="#63b8ff" d="M38.49,-30.1C36.87,-34.13 32.21,-37 24.5,-37 10.79,-37 6.72,-27.94 12.29,-19.37"/>
<polygon fill="#63b8ff" stroke="#63b8ff" points="41.8,-29.66 36.71,-20.37 34.89,-30.81 41.8,-29.66"/>
</a>
</g>
</g>
</g>
</svg>
