<?xml version="1.0" encoding="UTF-8" standalone="no"?>
<!DOCTYPE svg PUBLIC "-//W3C//DTD SVG 1.1//EN"
 "http://www.w3.org/Graphics/SVG/1.1/DTD/svg11.dtd">
<!-- Generated by graphviz version 8.0.2 (20230410.1723)
 -->
<!-- Title: close Pages: 1 -->
<svg width="150pt" height="100pt"
 viewBox="0.00 0.00 150.00 100.00" xmlns="http://www.w3.org/2000/svg" xmlns:xlink="http://www.w3.org/1999/xlink">
<g id="graph0" class="graph" transform="scale(1 1) rotate(0) translate(4 96)">
<title>close</title>
<!-- Node1 -->
<g id="Node000001" class="node">
<title>Node1</title>
<g id="a_Node000001"><a xlink:title=" ">
<polygon fill="#999999" stroke="#666666" points="142,-46 102,-46 102,-27 142,-27 142,-46"/>
<text text-anchor="middle" x="122" y="-34" font-family="Helvetica,sans-Serif" font-size="10.00">close</text>
</a>
</g>
</g>
<!-- Node1&#45;&gt;Node1 -->
<g id="edge1_Node000001_Node000001" class="edge">
<title>Node1&#45;&gt;Node1</title>
<g id="a_edge1_Node000001_Node000001"><a xlink:title=" ">
<path fill="none" stroke="#63b8ff" d="M137.96,-57.1C136.12,-61.13 130.8,-64 122,-64 106.36,-64 101.71,-54.94 108.07,-46.37"/>
<polygon fill="#63b8ff" stroke="#63b8ff" points="141.23,-56.55 135.93,-47.37 134.35,-57.84 141.23,-56.55"/>
</a>
</g>
</g>
<!-- Node2 -->
<g id="Node000002" class="node">
<title>Node2</title>
<g id="a_Node000002"><a xlink:href="dns_8c.html#a625ff8641773273b1a293e7242680ef2" target="_top" xlink:title=" ">
<polygon fill="white" stroke="#666666" points="66,-74 0,-74 0,-55 66,-55 66,-74"/>
<text text-anchor="middle" x="33" y="-62" font-family="Helvetica,sans-Serif" font-size="10.00">dns_lookup</text>
</a>
</g>
</g>
<!-- Node1&#45;&gt;Node2 -->
<g id="edge2_Node000001_Node000002" class="edge">
<title>Node1&#45;&gt;Node2</title>
<g id="a_edge2_Node000001_Node000002"><a xlink:title=" ">
<path fill="none" stroke="#63b8ff" d="M91.4,-46.03C82.85,-48.78 73.5,-51.79 64.87,-54.56"/>
<polygon fill="#63b8ff" stroke="#63b8ff" points="92.25,-49.11 100.69,-42.71 90.1,-42.45 92.25,-49.11"/>
</a>
</g>
</g>
<!-- Node3 -->
<g id="Node000003" class="node">
<title>Node3</title>
<g id="a_Node000003"><a xlink:href="inish_8c.html#a6c6783a2593b39ce4914819912297092" target="_top" xlink:title=" ">
<polygon fill="white" stroke="#666666" points="63,-19 3,-19 3,0 63,0 63,-19"/>
<text text-anchor="middle" x="33" y="-7" font-family="Helvetica,sans-Serif" font-size="10.00">inish_load</text>
</a>
</g>
</g>
<!-- Node1&#45;&gt;Node3 -->
<g id="edge4_Node000001_Node000003" class="edge">
<title>Node1&#45;&gt;Node3</title>
<g id="a_edge4_Node000001_Node000003"><a xlink:title=" ">
<path fill="none" stroke="#63b8ff" d="M91.2,-27.25C82.14,-24.44 72.2,-21.35 63.18,-18.56"/>
<polygon fill="#63b8ff" stroke="#63b8ff" points="90.1,-30.89 100.69,-30.51 92.18,-24.2 90.1,-30.89"/>
</a>
</g>
</g>
<!-- Node2&#45;&gt;Node2 -->
<g id="edge3_Node000002_Node000002" class="edge">
<title>Node2&#45;&gt;Node2</title>
<g id="a_edge3_Node000002_Node000002"><a xlink:title=" ">
<path fill="none" stroke="#63b8ff" d="M48.96,-85.1C47.12,-89.13 41.8,-92 33,-92 17.36,-92 12.71,-82.94 19.07,-74.37"/>
<polygon fill="#63b8ff" stroke="#63b8ff" points="52.23,-84.55 46.93,-75.37 45.35,-85.84 52.23,-84.55"/>
</a>
</g>
</g>
<!-- Node3&#45;&gt;Node3 -->
<g id="edge5_Node000003_Node000003" class="edge">
<title>Node3&#45;&gt;Node3</title>
<g id="a_edge5_Node000003_Node000003"><a xlink:title=" ">
<path fill="none" stroke="#63b8ff" d="M48.96,-30.1C47.12,-34.13 41.8,-37 33,-37 17.36,-37 12.71,-27.94 19.07,-19.37"/>
<polygon fill="#63b8ff" stroke="#63b8ff" points="52.23,-29.55 46.93,-20.37 45.35,-30.84 52.23,-29.55"/>
</a>
</g>
</g>
</g>
</svg>
