<?xml version="1.0" encoding="UTF-8" standalone="no"?>
<!DOCTYPE svg PUBLIC "-//W3C//DTD SVG 1.1//EN"
 "http://www.w3.org/Graphics/SVG/1.1/DTD/svg11.dtd">
<!-- Generated by graphviz version 8.0.2 (20230410.1723)
 -->
<!-- Title: open Pages: 1 -->
<svg width="276pt" height="45pt"
 viewBox="0.00 0.00 276.00 45.00" xmlns="http://www.w3.org/2000/svg" xmlns:xlink="http://www.w3.org/1999/xlink">
<g id="graph0" class="graph" transform="scale(1 1) rotate(0) translate(4 41)">
<title>open</title>
<!-- Node1 -->
<g id="Node000001" class="node">
<title>Node1</title>
<g id="a_Node000001"><a xlink:title=" ">
<polygon fill="#999999" stroke="#666666" points="38,-19 0,-19 0,0 38,0 38,-19"/>
<text text-anchor="middle" x="19" y="-7" font-family="Helvetica,sans-Serif" font-size="10.00">open</text>
</a>
</g>
</g>
<!-- Node1&#45;&gt;Node1 -->
<g id="edge5_Node000001_Node000001" class="edge">
<title>Node1&#45;&gt;Node1</title>
<g id="a_edge5_Node000001_Node000001"><a xlink:title=" ">
<path fill="none" stroke="#63b8ff" d="M6.63,-19.37C0.99,-27.94 5.11,-37 19,-37 26.81,-37 31.53,-34.13 33.17,-30.1"/>
<polygon fill="#63b8ff" stroke="#63b8ff" points="36.47,-29.65 31.37,-20.37 29.57,-30.81 36.47,-29.65"/>
</a>
</g>
</g>
<!-- Node2 -->
<g id="Node000002" class="node">
<title>Node2</title>
<g id="a_Node000002"><a xlink:href="k__open_8c.html#a8665b78926682de513294b0733aa72e4" target="_top" xlink:title=" ">
<polygon fill="white" stroke="#666666" points="122,-19 74,-19 74,0 122,0 122,-19"/>
<text text-anchor="middle" x="98" y="-7" font-family="Helvetica,sans-Serif" font-size="10.00">k_open</text>
</a>
</g>
</g>
<!-- Node1&#45;&gt;Node2 -->
<g id="edge1_Node000001_Node000002" class="edge">
<title>Node1&#45;&gt;Node2</title>
<g id="a_edge1_Node000001_Node000002"><a xlink:title=" ">
<path fill="none" stroke="#63b8ff" d="M38.25,-9.5C45.61,-9.5 54.35,-9.5 62.81,-9.5"/>
<polygon fill="#63b8ff" stroke="#63b8ff" points="62.62,-13 72.62,-9.5 62.62,-6 62.62,-13"/>
</a>
</g>
</g>
<!-- Node2&#45;&gt;Node2 -->
<g id="edge4_Node000002_Node000002" class="edge">
<title>Node2&#45;&gt;Node2</title>
<g id="a_edge4_Node000002_Node000002"><a xlink:title=" ">
<path fill="none" stroke="#63b8ff" d="M85.63,-19.37C79.99,-27.94 84.11,-37 98,-37 105.81,-37 110.53,-34.13 112.17,-30.1"/>
<polygon fill="#63b8ff" stroke="#63b8ff" points="115.47,-29.65 110.37,-20.37 108.57,-30.81 115.47,-29.65"/>
</a>
</g>
</g>
<!-- Node3 -->
<g id="Node000003" class="node">
<title>Node3</title>
<g id="a_Node000003"><a xlink:href="descriptor_8c.html#a9d772be036ad7ec4e9e926a190b76003" target="_top" xlink:title=" ">
<polygon fill="white" stroke="#666666" points="268,-19 158,-19 158,0 268,0 268,-19"/>
<text text-anchor="middle" x="213" y="-7" font-family="Helvetica,sans-Serif" font-size="10.00">create_file_descriptor</text>
</a>
</g>
</g>
<!-- Node2&#45;&gt;Node3 -->
<g id="edge2_Node000002_Node000003" class="edge">
<title>Node2&#45;&gt;Node3</title>
<g id="a_edge2_Node000002_Node000003"><a xlink:title=" ">
<path fill="none" stroke="#63b8ff" d="M122.41,-9.5C129.77,-9.5 138.27,-9.5 147.06,-9.5"/>
<polygon fill="#63b8ff" stroke="#63b8ff" points="146.86,-13 156.86,-9.5 146.86,-6 146.86,-13"/>
</a>
</g>
</g>
<!-- Node3&#45;&gt;Node3 -->
<g id="edge3_Node000003_Node000003" class="edge">
<title>Node3&#45;&gt;Node3</title>
<g id="a_edge3_Node000003_Node000003"><a xlink:title=" ">
<path fill="none" stroke="#63b8ff" d="M195,-19.37C186.78,-27.94 192.79,-37 213,-37 224.69,-37 231.62,-33.97 233.81,-29.76"/>
<polygon fill="#63b8ff" stroke="#63b8ff" points="236.99,-29.11 231,-20.37 230.23,-30.93 236.99,-29.11"/>
</a>
</g>
</g>
</g>
</svg>
