<?xml version="1.0" encoding="UTF-8" standalone="no"?>
<!DOCTYPE svg PUBLIC "-//W3C//DTD SVG 1.1//EN"
 "http://www.w3.org/Graphics/SVG/1.1/DTD/svg11.dtd">
<!-- Generated by graphviz version 8.0.2 (20230410.1723)
 -->
<!-- Title: socket Pages: 1 -->
<svg width="156pt" height="45pt"
 viewBox="0.00 0.00 156.00 45.00" xmlns="http://www.w3.org/2000/svg" xmlns:xlink="http://www.w3.org/1999/xlink">
<g id="graph0" class="graph" transform="scale(1 1) rotate(0) translate(4 41)">
<title>socket</title>
<!-- Node1 -->
<g id="Node000001" class="node">
<title>Node1</title>
<g id="a_Node000001"><a xlink:title=" ">
<polygon fill="#999999" stroke="#666666" points="148,-19 102,-19 102,0 148,0 148,-19"/>
<text text-anchor="middle" x="125" y="-7" font-family="Helvetica,sans-Serif" font-size="10.00">socket</text>
</a>
</g>
</g>
<!-- Node1&#45;&gt;Node1 -->
<g id="edge3_Node000001_Node000001" class="edge">
<title>Node1&#45;&gt;Node1</title>
<g id="a_edge3_Node000001_Node000001"><a xlink:title=" ">
<path fill="none" stroke="#63b8ff" d="M141.5,-30.1C139.6,-34.13 134.1,-37 125,-37 108.83,-37 104.03,-27.94 110.6,-19.37"/>
<polygon fill="#63b8ff" stroke="#63b8ff" points="144.75,-29.51 139.4,-20.37 137.88,-30.85 144.75,-29.51"/>
</a>
</g>
</g>
<!-- Node2 -->
<g id="Node000002" class="node">
<title>Node2</title>
<g id="a_Node000002"><a xlink:href="dns_8c.html#a625ff8641773273b1a293e7242680ef2" target="_top" xlink:title=" ">
<polygon fill="white" stroke="#666666" points="66,-19 0,-19 0,0 66,0 66,-19"/>
<text text-anchor="middle" x="33" y="-7" font-family="Helvetica,sans-Serif" font-size="10.00">dns_lookup</text>
</a>
</g>
</g>
<!-- Node1&#45;&gt;Node2 -->
<g id="edge1_Node000001_Node000002" class="edge">
<title>Node1&#45;&gt;Node2</title>
<g id="a_edge1_Node000001_Node000002"><a xlink:title=" ">
<path fill="none" stroke="#63b8ff" d="M90.85,-9.5C82.79,-9.5 74.19,-9.5 66.18,-9.5"/>
<polygon fill="#63b8ff" stroke="#63b8ff" points="90.75,-13 100.75,-9.5 90.75,-6 90.75,-13"/>
</a>
</g>
</g>
<!-- Node2&#45;&gt;Node2 -->
<g id="edge2_Node000002_Node000002" class="edge">
<title>Node2&#45;&gt;Node2</title>
<g id="a_edge2_Node000002_Node000002"><a xlink:title=" ">
<path fill="none" stroke="#63b8ff" d="M49.5,-30.1C47.6,-34.13 42.1,-37 33,-37 16.83,-37 12.03,-27.94 18.6,-19.37"/>
<polygon fill="#63b8ff" stroke="#63b8ff" points="52.75,-29.51 47.4,-20.37 45.88,-30.85 52.75,-29.51"/>
</a>
</g>
</g>
</g>
</svg>
