<?xml version="1.0" encoding="UTF-8" standalone="no"?>
<!DOCTYPE svg PUBLIC "-//W3C//DTD SVG 1.1//EN"
 "http://www.w3.org/Graphics/SVG/1.1/DTD/svg11.dtd">
<!-- Generated by graphviz version 2.50.0 (20211204.2007)
 -->
<!-- Title: include/kernel/fs/tar.h Pages: 1 -->
<svg width="202pt" height="196pt"
 viewBox="0.00 0.00 201.50 196.00" xmlns="http://www.w3.org/2000/svg" xmlns:xlink="http://www.w3.org/1999/xlink">
<g id="graph0" class="graph" transform="scale(1 1) rotate(0) translate(4 192)">
<title>include/kernel/fs/tar.h</title>
<!-- Node1 -->
<g id="node1" class="node">
<title>Node1</title>
<g id="a_node1"><a xlink:title=" ">
<polygon fill="#bfbfbf" stroke="black" points="45,-168.5 45,-187.5 155,-187.5 155,-168.5 45,-168.5"/>
<text text-anchor="middle" x="100" y="-175.5" font-family="Helvetica,sans-Serif" font-size="10.00">include/kernel/fs/tar.h</text>
</a>
</g>
</g>
<!-- Node2 -->
<g id="node2" class="node">
<title>Node2</title>
<g id="a_node2"><a xlink:href="vfs_8h.html" target="_top" xlink:title=" ">
<polygon fill="none" stroke="black" points="75,-112.5 75,-131.5 125,-131.5 125,-112.5 75,-112.5"/>
<text text-anchor="middle" x="100" y="-119.5" font-family="Helvetica,sans-Serif" font-size="10.00">fs/vfs.h</text>
</a>
</g>
</g>
<!-- Node1&#45;&gt;Node2 -->
<g id="edge1" class="edge">
<title>Node1&#45;&gt;Node2</title>
<path fill="none" stroke="midnightblue" d="M100,-168.08C100,-161.01 100,-150.86 100,-141.99"/>
<polygon fill="midnightblue" stroke="midnightblue" points="103.5,-141.75 100,-131.75 96.5,-141.75 103.5,-141.75"/>
</g>
<!-- Node3 -->
<g id="node3" class="node">
<title>Node3</title>
<g id="a_node3"><a xlink:title=" ">
<polygon fill="none" stroke="#bfbfbf" points="0,-0.5 0,-19.5 56,-19.5 56,-0.5 0,-0.5"/>
<text text-anchor="middle" x="28" y="-7.5" font-family="Helvetica,sans-Serif" font-size="10.00">stdbool.h</text>
</a>
</g>
</g>
<!-- Node2&#45;&gt;Node3 -->
<g id="edge2" class="edge">
<title>Node2&#45;&gt;Node3</title>
<path fill="none" stroke="midnightblue" d="M90.1,-112.5C80.66,-103.99 66.52,-90.18 57,-76 47.22,-61.43 39.36,-43.02 34.31,-29.51"/>
<polygon fill="midnightblue" stroke="midnightblue" points="37.54,-28.14 30.87,-19.9 30.94,-30.5 37.54,-28.14"/>
</g>
<!-- Node4 -->
<g id="node4" class="node">
<title>Node4</title>
<g id="a_node4"><a xlink:title=" ">
<polygon fill="none" stroke="#bfbfbf" points="144.5,-0.5 144.5,-19.5 193.5,-19.5 193.5,-0.5 144.5,-0.5"/>
<text text-anchor="middle" x="169" y="-7.5" font-family="Helvetica,sans-Serif" font-size="10.00">stdint.h</text>
</a>
</g>
</g>
<!-- Node2&#45;&gt;Node4 -->
<g id="edge3" class="edge">
<title>Node2&#45;&gt;Node4</title>
<path fill="none" stroke="midnightblue" d="M110.38,-112.25C119.91,-103.79 133.88,-90.18 143,-76 152.34,-61.48 159.32,-43.07 163.68,-29.55"/>
<polygon fill="midnightblue" stroke="midnightblue" points="167.05,-30.51 166.62,-19.92 160.35,-28.46 167.05,-30.51"/>
</g>
<!-- Node5 -->
<g id="node5" class="node">
<title>Node5</title>
<g id="a_node5"><a xlink:href="types_8h.html" target="_top" xlink:title=" ">
<polygon fill="none" stroke="black" points="66,-56.5 66,-75.5 134,-75.5 134,-56.5 66,-56.5"/>
<text text-anchor="middle" x="100" y="-63.5" font-family="Helvetica,sans-Serif" font-size="10.00">sys/types.h</text>
</a>
</g>
</g>
<!-- Node2&#45;&gt;Node5 -->
<g id="edge4" class="edge">
<title>Node2&#45;&gt;Node5</title>
<path fill="none" stroke="midnightblue" d="M100,-112.08C100,-105.01 100,-94.86 100,-85.99"/>
<polygon fill="midnightblue" stroke="midnightblue" points="103.5,-85.75 100,-75.75 96.5,-85.75 103.5,-85.75"/>
</g>
<!-- Node5&#45;&gt;Node3 -->
<g id="edge5" class="edge">
<title>Node5&#45;&gt;Node3</title>
<path fill="none" stroke="midnightblue" d="M88.43,-56.32C77.58,-48.18 61.12,-35.84 48.12,-26.09"/>
<polygon fill="midnightblue" stroke="midnightblue" points="49.88,-23.03 39.78,-19.83 45.68,-28.63 49.88,-23.03"/>
</g>
<!-- Node5&#45;&gt;Node4 -->
<g id="edge7" class="edge">
<title>Node5&#45;&gt;Node4</title>
<path fill="none" stroke="midnightblue" d="M111.09,-56.32C121.49,-48.18 137.26,-35.84 149.72,-26.09"/>
<polygon fill="midnightblue" stroke="midnightblue" points="151.99,-28.75 157.71,-19.83 147.68,-23.24 151.99,-28.75"/>
</g>
<!-- Node6 -->
<g id="node6" class="node">
<title>Node6</title>
<g id="a_node6"><a xlink:title=" ">
<polygon fill="none" stroke="#bfbfbf" points="74,-0.5 74,-19.5 126,-19.5 126,-0.5 74,-0.5"/>
<text text-anchor="middle" x="100" y="-7.5" font-family="Helvetica,sans-Serif" font-size="10.00">stddef.h</text>
</a>
</g>
</g>
<!-- Node5&#45;&gt;Node6 -->
<g id="edge6" class="edge">
<title>Node5&#45;&gt;Node6</title>
<path fill="none" stroke="midnightblue" d="M100,-56.08C100,-49.01 100,-38.86 100,-29.99"/>
<polygon fill="midnightblue" stroke="midnightblue" points="103.5,-29.75 100,-19.75 96.5,-29.75 103.5,-29.75"/>
</g>
</g>
</svg>
