<?xml version="1.0" encoding="UTF-8" standalone="no"?>
<!DOCTYPE svg PUBLIC "-//W3C//DTD SVG 1.1//EN"
 "http://www.w3.org/Graphics/SVG/1.1/DTD/svg11.dtd">
<!-- Generated by graphviz version 8.0.2 (20230410.1723)
 -->
<!-- Title: tar_fs_create Pages: 1 -->
<svg width="220pt" height="45pt"
 viewBox="0.00 0.00 220.00 45.00" xmlns="http://www.w3.org/2000/svg" xmlns:xlink="http://www.w3.org/1999/xlink">
<g id="graph0" class="graph" transform="scale(1 1) rotate(0) translate(4 41)">
<title>tar_fs_create</title>
<!-- Node1 -->
<g id="Node000001" class="node">
<title>Node1</title>
<g id="a_Node000001"><a xlink:title=" ">
<polygon fill="#999999" stroke="#666666" points="74,-19 0,-19 0,0 74,0 74,-19"/>
<text text-anchor="middle" x="37" y="-7" font-family="Helvetica,sans-Serif" font-size="10.00">tar_fs_create</text>
</a>
</g>
</g>
<!-- Node1&#45;&gt;Node1 -->
<g id="edge1_Node000001_Node000001" class="edge">
<title>Node1&#45;&gt;Node1</title>
<g id="a_edge1_Node000001_Node000001"><a xlink:title=" ">
<path fill="none" stroke="#63b8ff" d="M17.59,-19.37C8.73,-27.94 15.2,-37 37,-37 49.6,-37 57.08,-33.97 59.44,-29.76"/>
<polygon fill="#63b8ff" stroke="#63b8ff" points="62.57,-28.99 56.41,-20.37 55.85,-30.95 62.57,-28.99"/>
</a>
</g>
</g>
<!-- Node2 -->
<g id="Node000002" class="node">
<title>Node2</title>
<g id="a_Node000002"><a xlink:href="vfs_8c.html#a30d3a3836c75f9fcfc1a7eb389d2f3f9" target="_top" xlink:title=" ">
<polygon fill="white" stroke="#666666" points="212,-19 110,-19 110,0 212,0 212,-19"/>
<text text-anchor="middle" x="161" y="-7" font-family="Helvetica,sans-Serif" font-size="10.00">vfs_make_directory</text>
</a>
</g>
</g>
<!-- Node1&#45;&gt;Node2 -->
<g id="edge2_Node000001_Node000002" class="edge">
<title>Node1&#45;&gt;Node2</title>
<g id="a_edge2_Node000001_Node000002"><a xlink:title=" ">
<path fill="none" stroke="#63b8ff" d="M74.27,-9.5C81.99,-9.5 90.34,-9.5 98.7,-9.5"/>
<polygon fill="#63b8ff" stroke="#63b8ff" points="98.64,-13 108.64,-9.5 98.64,-6 98.64,-13"/>
</a>
</g>
</g>
<!-- Node2&#45;&gt;Node2 -->
<g id="edge3_Node000002_Node000002" class="edge">
<title>Node2&#45;&gt;Node2</title>
<g id="a_edge3_Node000002_Node000002"><a xlink:title=" ">
<path fill="none" stroke="#63b8ff" d="M141.59,-19.37C132.73,-27.94 139.2,-37 161,-37 173.6,-37 181.08,-33.97 183.44,-29.76"/>
<polygon fill="#63b8ff" stroke="#63b8ff" points="186.57,-28.99 180.41,-20.37 179.85,-30.95 186.57,-28.99"/>
</a>
</g>
</g>
</g>
</svg>
