<?xml version="1.0" encoding="UTF-8" standalone="no"?>
<!DOCTYPE svg PUBLIC "-//W3C//DTD SVG 1.1//EN"
 "http://www.w3.org/Graphics/SVG/1.1/DTD/svg11.dtd">
<!-- Generated by graphviz version 8.0.2 (20230410.1723)
 -->
<!-- Title: timer_uptime_microseconds Pages: 1 -->
<svg width="500pt" height="56pt"
 viewBox="0.00 0.00 500.00 56.00" xmlns="http://www.w3.org/2000/svg" xmlns:xlink="http://www.w3.org/1999/xlink">
<g id="graph0" class="graph" transform="scale(1 1) rotate(0) translate(4 52)">
<title>timer_uptime_microseconds</title>
<!-- Node1 -->
<g id="Node000001" class="node">
<title>Node1</title>
<g id="a_Node000001"><a xlink:title=" ">
<polygon fill="#999999" stroke="#666666" points="139,-24.5 0,-24.5 0,-5.5 139,-5.5 139,-24.5"/>
<text text-anchor="middle" x="69.5" y="-12.5" font-family="Helvetica,sans-Serif" font-size="10.00">timer_uptime_microseconds</text>
</a>
</g>
</g>
<!-- Node1&#45;&gt;Node1 -->
<g id="edge5_Node000001_Node000001" class="edge">
<title>Node1&#45;&gt;Node1</title>
<g id="a_edge5_Node000001_Node000001"><a xlink:title=" ">
<path fill="none" stroke="#63b8ff" d="M40.22,-24.87C26.87,-33.44 36.63,-42.5 69.5,-42.5 89.53,-42.5 100.98,-39.13 103.84,-34.57"/>
<polygon fill="#63b8ff" stroke="#63b8ff" points="106.51,-33.11 98.78,-25.87 100.31,-36.35 106.51,-33.11"/>
</a>
</g>
</g>
<!-- Node2 -->
<g id="Node000002" class="node">
<title>Node2</title>
<g id="a_Node000002"><a xlink:href="kernel_2arch_2x86__64_2arch_2time_8c.html#af8e08f88e4ec6768891cfce52318c3d3" target="_top" xlink:title=" ">
<polygon fill="white" stroke="#666666" points="338,-24.5 175,-24.5 175,-5.5 338,-5.5 338,-24.5"/>
<text text-anchor="middle" x="256.5" y="-12.5" font-family="Helvetica,sans-Serif" font-size="10.00">arch_timer_uptime_microseconds</text>
</a>
</g>
</g>
<!-- Node1&#45;&gt;Node2 -->
<g id="edge1_Node000001_Node000002" class="edge">
<title>Node1&#45;&gt;Node2</title>
<g id="a_edge1_Node000001_Node000002"><a xlink:title=" ">
<path fill="none" stroke="#63b8ff" d="M139.39,-15C147.39,-15 155.64,-15 163.88,-15"/>
<polygon fill="#63b8ff" stroke="#63b8ff" points="163.69,-18.5 173.69,-15 163.69,-11.5 163.69,-18.5"/>
</a>
</g>
</g>
<!-- Node2&#45;&gt;Node2 -->
<g id="edge2_Node000002_Node000002" class="edge">
<title>Node2&#45;&gt;Node2</title>
<g id="a_edge2_Node000002_Node000002"><a xlink:title=" ">
<path fill="none" stroke="#63b8ff" d="M228.87,-24.87C216.26,-33.44 225.47,-42.5 256.5,-42.5 275.41,-42.5 286.21,-39.13 288.92,-34.57"/>
<polygon fill="#63b8ff" stroke="#63b8ff" points="291.7,-33.29 284.13,-25.87 285.42,-36.38 291.7,-33.29"/>
</a>
</g>
</g>
<!-- Node3 -->
<g id="Node000003" class="node">
<title>Node3</title>
<g id="a_Node000003"><a xlink:href="bcm2835__timer_8c.html#aa5e375169036beb10f6778afb7eddecd" target="_top" xlink:title=" ">
<polygon fill="white" stroke="#666666" points="492,-30 374,-30 374,0 492,0 492,-30"/>
<text text-anchor="start" x="382" y="-18" font-family="Helvetica,sans-Serif" font-size="10.00">bcm2835_timer_uptime</text>
<text text-anchor="middle" x="433" y="-7" font-family="Helvetica,sans-Serif" font-size="10.00">_microseconds</text>
</a>
</g>
</g>
<!-- Node2&#45;&gt;Node3 -->
<g id="edge3_Node000002_Node000003" class="edge">
<title>Node2&#45;&gt;Node3</title>
<g id="a_edge3_Node000002_Node000003"><a xlink:title=" ">
<path fill="none" stroke="#63b8ff" d="M338.36,-15C346.52,-15 354.74,-15 362.76,-15"/>
<polygon fill="#63b8ff" stroke="#63b8ff" points="362.53,-18.5 372.53,-15 362.53,-11.5 362.53,-18.5"/>
</a>
</g>
</g>
<!-- Node3&#45;&gt;Node3 -->
<g id="edge4_Node000003_Node000003" class="edge">
<title>Node3&#45;&gt;Node3</title>
<g id="a_edge4_Node000003_Node000003"><a xlink:title=" ">
<path fill="none" stroke="#63b8ff" d="M401.97,-30.28C395.08,-39.41 405.42,-48 433,-48 448.94,-48 459.13,-45.13 463.55,-40.94"/>
<polygon fill="#63b8ff" stroke="#63b8ff" points="467.07,-41.42 464.03,-31.28 460.08,-41.11 467.07,-41.42"/>
</a>
</g>
</g>
</g>
</svg>
