<?xml version="1.0" encoding="UTF-8" standalone="no"?>
<!DOCTYPE svg PUBLIC "-//W3C//DTD SVG 1.1//EN"
 "http://www.w3.org/Graphics/SVG/1.1/DTD/svg11.dtd">
<!-- Generated by graphviz version 3.0.0 (20220226.1711)
 -->
<!-- Title: timer_uptime_microseconds Pages: 1 -->
<svg width="500pt" height="39pt"
 viewBox="0.00 0.00 500.00 39.00" xmlns="http://www.w3.org/2000/svg" xmlns:xlink="http://www.w3.org/1999/xlink">
<g id="graph0" class="graph" transform="scale(1 1) rotate(0) translate(4 35)">
<title>timer_uptime_microseconds</title>
<!-- Node1 -->
<g id="node1" class="node">
<title>Node1</title>
<g id="a_node1"><a xlink:title=" ">
<polygon fill="#bfbfbf" stroke="black" points="0,-6 0,-25 139,-25 139,-6 0,-6"/>
<text text-anchor="middle" x="69.5" y="-13" font-family="Helvetica,sans-Serif" font-size="10.00">timer_uptime_microseconds</text>
</a>
</g>
</g>
<!-- Node2 -->
<g id="node2" class="node">
<title>Node2</title>
<g id="a_node2"><a xlink:href="kernel_2arch_2x86__64_2arch_2time_8c.html#af8e08f88e4ec6768891cfce52318c3d3" target="_top" xlink:title=" ">
<polygon fill="none" stroke="black" points="175,-6 175,-25 338,-25 338,-6 175,-6"/>
<text text-anchor="middle" x="256.5" y="-13" font-family="Helvetica,sans-Serif" font-size="10.00">arch_timer_uptime_microseconds</text>
</a>
</g>
</g>
<!-- Node1&#45;&gt;Node2 -->
<g id="edge1" class="edge">
<title>Node1&#45;&gt;Node2</title>
<path fill="none" stroke="midnightblue" d="M139.12,-15.5C147.48,-15.5 156.11,-15.5 164.72,-15.5"/>
<polygon fill="midnightblue" stroke="midnightblue" points="164.8,-19 174.8,-15.5 164.8,-12 164.8,-19"/>
</g>
<!-- Node3 -->
<g id="node3" class="node">
<title>Node3</title>
<g id="a_node3"><a xlink:href="bcm2835__timer_8c.html#aa5e375169036beb10f6778afb7eddecd" target="_top" xlink:title=" ">
<polygon fill="none" stroke="black" points="374,-0.5 374,-30.5 492,-30.5 492,-0.5 374,-0.5"/>
<text text-anchor="start" x="382" y="-18.5" font-family="Helvetica,sans-Serif" font-size="10.00">bcm2835_timer_uptime</text>
<text text-anchor="middle" x="433" y="-7.5" font-family="Helvetica,sans-Serif" font-size="10.00">_microseconds</text>
</a>
</g>
</g>
<!-- Node2&#45;&gt;Node3 -->
<g id="edge2" class="edge">
<title>Node2&#45;&gt;Node3</title>
<path fill="none" stroke="midnightblue" d="M338.11,-15.5C346.68,-15.5 355.34,-15.5 363.75,-15.5"/>
<polygon fill="midnightblue" stroke="midnightblue" points="363.86,-19 373.86,-15.5 363.86,-12 363.86,-19"/>
</g>
</g>
</svg>
