<?xml version="1.0" encoding="UTF-8" standalone="no"?>
<!DOCTYPE svg PUBLIC "-//W3C//DTD SVG 1.1//EN"
 "http://www.w3.org/Graphics/SVG/1.1/DTD/svg11.dtd">
<!-- Generated by graphviz version 8.0.2 (20230410.1723)
 -->
<!-- Title: timer_init Pages: 1 -->
<svg width="454pt" height="45pt"
 viewBox="0.00 0.00 454.00 45.00" xmlns="http://www.w3.org/2000/svg" xmlns:xlink="http://www.w3.org/1999/xlink">
<g id="graph0" class="graph" transform="scale(1 1) rotate(0) translate(4 41)">
<title>timer_init</title>
<!-- Node1 -->
<g id="Node000001" class="node">
<title>Node1</title>
<g id="a_Node000001"><a xlink:title=" ">
<polygon fill="#999999" stroke="#666666" points="56,-19 0,-19 0,0 56,0 56,-19"/>
<text text-anchor="middle" x="28" y="-7" font-family="Helvetica,sans-Serif" font-size="10.00">timer_init</text>
</a>
</g>
</g>
<!-- Node1&#45;&gt;Node1 -->
<g id="edge7_Node000001_Node000001" class="edge">
<title>Node1&#45;&gt;Node1</title>
<g id="a_edge7_Node000001_Node000001"><a xlink:title=" ">
<path fill="none" stroke="#63b8ff" d="M11.72,-19.37C4.29,-27.94 9.72,-37 28,-37 38.28,-37 44.5,-34.13 46.65,-30.1"/>
<polygon fill="#63b8ff" stroke="#63b8ff" points="49.85,-29.38 44.28,-20.37 43.02,-30.89 49.85,-29.38"/>
</a>
</g>
</g>
<!-- Node2 -->
<g id="Node000002" class="node">
<title>Node2</title>
<g id="a_Node000002"><a xlink:href="kernel_2arch_2x86__64_2arch_2time_8c.html#a92a37cf9da6c3705b6ef829f1978ab54" target="_top" xlink:title=" ">
<polygon fill="white" stroke="#666666" points="172,-19 92,-19 92,0 172,0 172,-19"/>
<text text-anchor="middle" x="132" y="-7" font-family="Helvetica,sans-Serif" font-size="10.00">arch_timer_init</text>
</a>
</g>
</g>
<!-- Node1&#45;&gt;Node2 -->
<g id="edge1_Node000001_Node000002" class="edge">
<title>Node1&#45;&gt;Node2</title>
<g id="a_edge1_Node000001_Node000002"><a xlink:title=" ">
<path fill="none" stroke="#63b8ff" d="M56.33,-9.5C63.88,-9.5 72.32,-9.5 80.73,-9.5"/>
<polygon fill="#63b8ff" stroke="#63b8ff" points="80.7,-13 90.7,-9.5 80.7,-6 80.7,-13"/>
</a>
</g>
</g>
<!-- Node2&#45;&gt;Node2 -->
<g id="edge2_Node000002_Node000002" class="edge">
<title>Node2&#45;&gt;Node2</title>
<g id="a_edge2_Node000002_Node000002"><a xlink:title=" ">
<path fill="none" stroke="#63b8ff" d="M115.72,-19.37C108.29,-27.94 113.72,-37 132,-37 142.28,-37 148.5,-34.13 150.65,-30.1"/>
<polygon fill="#63b8ff" stroke="#63b8ff" points="153.85,-29.38 148.28,-20.37 147.02,-30.89 153.85,-29.38"/>
</a>
</g>
</g>
<!-- Node3 -->
<g id="Node000003" class="node">
<title>Node3</title>
<g id="a_Node000003"><a xlink:href="bcm2835__timer_8c.html#af1c06e30d4cc124b212c408dceaadbd0" target="_top" xlink:title=" ">
<polygon fill="white" stroke="#666666" points="309,-19 208,-19 208,0 309,0 309,-19"/>
<text text-anchor="middle" x="258.5" y="-7" font-family="Helvetica,sans-Serif" font-size="10.00">bcm2835_timer_init</text>
</a>
</g>
</g>
<!-- Node2&#45;&gt;Node3 -->
<g id="edge3_Node000002_Node000003" class="edge">
<title>Node2&#45;&gt;Node3</title>
<g id="a_edge3_Node000002_Node000003"><a xlink:title=" ">
<path fill="none" stroke="#63b8ff" d="M172.39,-9.5C180.22,-9.5 188.6,-9.5 196.95,-9.5"/>
<polygon fill="#63b8ff" stroke="#63b8ff" points="196.85,-13 206.85,-9.5 196.85,-6 196.85,-13"/>
</a>
</g>
</g>
<!-- Node3&#45;&gt;Node3 -->
<g id="edge4_Node000003_Node000003" class="edge">
<title>Node3&#45;&gt;Node3</title>
<g id="a_edge4_Node000003_Node000003"><a xlink:title=" ">
<path fill="none" stroke="#63b8ff" d="M238.7,-19.37C229.66,-27.94 236.26,-37 258.5,-37 271.36,-37 278.99,-33.97 281.39,-29.76"/>
<polygon fill="#63b8ff" stroke="#63b8ff" points="284.51,-28.96 278.3,-20.37 277.8,-30.95 284.51,-28.96"/>
</a>
</g>
</g>
<!-- Node4 -->
<g id="Node000004" class="node">
<title>Node4</title>
<g id="a_Node000004"><a xlink:href="isr_8c.html#a919e035afe984042c7fb8672b16aaf1e" target="_top" xlink:title=" ">
<polygon fill="white" stroke="#666666" points="446,-19 345,-19 345,0 446,0 446,-19"/>
<text text-anchor="middle" x="395.5" y="-7" font-family="Helvetica,sans-Serif" font-size="10.00">isr_register_handler</text>
</a>
</g>
</g>
<!-- Node3&#45;&gt;Node4 -->
<g id="edge5_Node000003_Node000004" class="edge">
<title>Node3&#45;&gt;Node4</title>
<g id="a_edge5_Node000003_Node000004"><a xlink:title=" ">
<path fill="none" stroke="#63b8ff" d="M309.39,-9.5C317.43,-9.5 325.83,-9.5 334.09,-9.5"/>
<polygon fill="#63b8ff" stroke="#63b8ff" points="333.82,-13 343.82,-9.5 333.82,-6 333.82,-13"/>
</a>
</g>
</g>
<!-- Node4&#45;&gt;Node4 -->
<g id="edge6_Node000004_Node000004" class="edge">
<title>Node4&#45;&gt;Node4</title>
<g id="a_edge6_Node000004_Node000004"><a xlink:title=" ">
<path fill="none" stroke="#63b8ff" d="M374.05,-19.37C364.27,-27.94 371.42,-37 395.5,-37 409.42,-37 417.69,-33.97 420.29,-29.76"/>
<polygon fill="#63b8ff" stroke="#63b8ff" points="423.34,-28.82 416.95,-20.37 416.68,-30.96 423.34,-28.82"/>
</a>
</g>
</g>
</g>
</svg>
