<?xml version="1.0" encoding="UTF-8" standalone="no"?>
<!DOCTYPE svg PUBLIC "-//W3C//DTD SVG 1.1//EN"
 "http://www.w3.org/Graphics/SVG/1.1/DTD/svg11.dtd">
<!-- Generated by graphviz version 8.0.2 (20230410.1723)
 -->
<!-- Title: timer_uptime Pages: 1 -->
<svg width="609pt" height="56pt"
 viewBox="0.00 0.00 609.00 56.00" xmlns="http://www.w3.org/2000/svg" xmlns:xlink="http://www.w3.org/1999/xlink">
<g id="graph0" class="graph" transform="scale(1 1) rotate(0) translate(4 52)">
<title>timer_uptime</title>
<!-- Node1 -->
<g id="Node000001" class="node">
<title>Node1</title>
<g id="a_Node000001"><a xlink:title=" ">
<polygon fill="#999999" stroke="#666666" points="73,-24.5 0,-24.5 0,-5.5 73,-5.5 73,-24.5"/>
<text text-anchor="middle" x="36.5" y="-12.5" font-family="Helvetica,sans-Serif" font-size="10.00">timer_uptime</text>
</a>
</g>
</g>
<!-- Node1&#45;&gt;Node1 -->
<g id="edge1_Node000001_Node000001" class="edge">
<title>Node1&#45;&gt;Node1</title>
<g id="a_edge1_Node000001_Node000001"><a xlink:title=" ">
<path fill="none" stroke="#63b8ff" d="M14.27,-24.87C4.13,-33.44 11.54,-42.5 36.5,-42.5 50.93,-42.5 59.5,-39.47 62.19,-35.26"/>
<polygon fill="#63b8ff" stroke="#63b8ff" points="65.21,-34.25 58.73,-25.87 58.57,-36.46 65.21,-34.25"/>
</a>
</g>
</g>
<!-- Node2 -->
<g id="Node000002" class="node">
<title>Node2</title>
<g id="a_Node000002"><a xlink:href="timer_8c.html#a9e237401e78bbceb0c0070ef2ecb4569" target="_top" xlink:title=" ">
<polygon fill="white" stroke="#666666" points="248,-24.5 109,-24.5 109,-5.5 248,-5.5 248,-24.5"/>
<text text-anchor="middle" x="178.5" y="-12.5" font-family="Helvetica,sans-Serif" font-size="10.00">timer_uptime_microseconds</text>
</a>
</g>
</g>
<!-- Node1&#45;&gt;Node2 -->
<g id="edge2_Node000001_Node000002" class="edge">
<title>Node1&#45;&gt;Node2</title>
<g id="a_edge2_Node000001_Node000002"><a xlink:title=" ">
<path fill="none" stroke="#63b8ff" d="M73.19,-15C80.82,-15 89.18,-15 97.73,-15"/>
<polygon fill="#63b8ff" stroke="#63b8ff" points="97.64,-18.5 107.64,-15 97.64,-11.5 97.64,-18.5"/>
</a>
</g>
</g>
<!-- Node2&#45;&gt;Node2 -->
<g id="edge7_Node000002_Node000002" class="edge">
<title>Node2&#45;&gt;Node2</title>
<g id="a_edge7_Node000002_Node000002"><a xlink:title=" ">
<path fill="none" stroke="#63b8ff" d="M156.27,-24.87C146.13,-33.44 153.54,-42.5 178.5,-42.5 192.93,-42.5 201.5,-39.47 204.19,-35.26"/>
<polygon fill="#63b8ff" stroke="#63b8ff" points="207.21,-34.25 200.73,-25.87 200.57,-36.46 207.21,-34.25"/>
</a>
</g>
</g>
<!-- Node3 -->
<g id="Node000003" class="node">
<title>Node3</title>
<g id="a_Node000003"><a xlink:href="kernel_2arch_2x86__64_2arch_2time_8c.html#af8e08f88e4ec6768891cfce52318c3d3" target="_top" xlink:title=" ">
<polygon fill="white" stroke="#666666" points="447,-24.5 284,-24.5 284,-5.5 447,-5.5 447,-24.5"/>
<text text-anchor="middle" x="365.5" y="-12.5" font-family="Helvetica,sans-Serif" font-size="10.00">arch_timer_uptime_microseconds</text>
</a>
</g>
</g>
<!-- Node2&#45;&gt;Node3 -->
<g id="edge3_Node000002_Node000003" class="edge">
<title>Node2&#45;&gt;Node3</title>
<g id="a_edge3_Node000002_Node000003"><a xlink:title=" ">
<path fill="none" stroke="#63b8ff" d="M248.39,-15C256.39,-15 264.64,-15 272.88,-15"/>
<polygon fill="#63b8ff" stroke="#63b8ff" points="272.69,-18.5 282.69,-15 272.69,-11.5 272.69,-18.5"/>
</a>
</g>
</g>
<!-- Node3&#45;&gt;Node3 -->
<g id="edge4_Node000003_Node000003" class="edge">
<title>Node3&#45;&gt;Node3</title>
<g id="a_edge4_Node000003_Node000003"><a xlink:title=" ">
<path fill="none" stroke="#63b8ff" d="M337.87,-24.87C325.26,-33.44 334.47,-42.5 365.5,-42.5 384.41,-42.5 395.21,-39.13 397.92,-34.57"/>
<polygon fill="#63b8ff" stroke="#63b8ff" points="400.7,-33.29 393.13,-25.87 394.42,-36.38 400.7,-33.29"/>
</a>
</g>
</g>
<!-- Node4 -->
<g id="Node000004" class="node">
<title>Node4</title>
<g id="a_Node000004"><a xlink:href="bcm2835__timer_8c.html#aa5e375169036beb10f6778afb7eddecd" target="_top" xlink:title=" ">
<polygon fill="white" stroke="#666666" points="601,-30 483,-30 483,0 601,0 601,-30"/>
<text text-anchor="start" x="491" y="-18" font-family="Helvetica,sans-Serif" font-size="10.00">bcm2835_timer_uptime</text>
<text text-anchor="middle" x="542" y="-7" font-family="Helvetica,sans-Serif" font-size="10.00">_microseconds</text>
</a>
</g>
</g>
<!-- Node3&#45;&gt;Node4 -->
<g id="edge5_Node000003_Node000004" class="edge">
<title>Node3&#45;&gt;Node4</title>
<g id="a_edge5_Node000003_Node000004"><a xlink:title=" ">
<path fill="none" stroke="#63b8ff" d="M447.36,-15C455.52,-15 463.74,-15 471.76,-15"/>
<polygon fill="#63b8ff" stroke="#63b8ff" points="471.53,-18.5 481.53,-15 471.53,-11.5 471.53,-18.5"/>
</a>
</g>
</g>
<!-- Node4&#45;&gt;Node4 -->
<g id="edge6_Node000004_Node000004" class="edge">
<title>Node4&#45;&gt;Node4</title>
<g id="a_edge6_Node000004_Node000004"><a xlink:title=" ">
<path fill="none" stroke="#63b8ff" d="M510.97,-30.28C504.08,-39.41 514.42,-48 542,-48 557.94,-48 568.13,-45.13 572.55,-40.94"/>
<polygon fill="#63b8ff" stroke="#63b8ff" points="576.07,-41.42 573.03,-31.28 569.08,-41.11 576.07,-41.42"/>
</a>
</g>
</g>
</g>
</svg>
