<?xml version="1.0" encoding="UTF-8" standalone="no"?>
<!DOCTYPE svg PUBLIC "-//W3C//DTD SVG 1.1//EN"
 "http://www.w3.org/Graphics/SVG/1.1/DTD/svg11.dtd">
<!-- Generated by graphviz version 8.0.2 (20230410.1723)
 -->
<!-- Title: include/libc/sys/types.h Pages: 1 -->
<svg width="1721pt" height="357pt"
 viewBox="0.00 0.00 1721.49 357.00" xmlns="http://www.w3.org/2000/svg" xmlns:xlink="http://www.w3.org/1999/xlink">
<g id="graph0" class="graph" transform="scale(1 1) rotate(0) translate(4 353)">
<title>include/libc/sys/types.h</title>
<!-- Node1 -->
<g id="Node000001" class="node">
<title>Node1</title>
<g id="a_Node000001"><a xlink:title=" ">
<polygon fill="#999999" stroke="#666666" points="800.99,-349 681.99,-349 681.99,-330 800.99,-330 800.99,-349"/>
<text text-anchor="middle" x="741.49" y="-337" font-family="Helvetica,sans-Serif" font-size="10.00">include/libc/sys/types.h</text>
</a>
</g>
</g>
<!-- Node2 -->
<g id="Node000002" class="node">
<title>Node2</title>
<g id="a_Node000002"><a xlink:href="inish_8h.html" target="_top" xlink:title=" ">
<polygon fill="white" stroke="#666666" points="125.49,-228 19.49,-228 19.49,-198 125.49,-198 125.49,-228"/>
<text text-anchor="start" x="27.49" y="-216" font-family="Helvetica,sans-Serif" font-size="10.00">include/kernel/config</text>
<text text-anchor="middle" x="72.49" y="-205" font-family="Helvetica,sans-Serif" font-size="10.00">/inish.h</text>
</a>
</g>
</g>
<!-- Node1&#45;&gt;Node2 -->
<g id="edge1_Node000001_Node000002" class="edge">
<title>Node1&#45;&gt;Node2</title>
<g id="a_edge1_Node000001_Node000002"><a xlink:title=" ">
<path fill="none" stroke="#63b8ff" d="M670.85,-338.44C510.89,-337.65 131.48,-331.75 88.49,-294 69.98,-277.74 69.24,-246.62 70.67,-228.36"/>
<polygon fill="#63b8ff" stroke="#63b8ff" points="670.51,-341.95 680.53,-338.49 670.54,-334.95 670.51,-341.95"/>
</a>
</g>
</g>
<!-- Node3 -->
<g id="Node000003" class="node">
<title>Node3</title>
<g id="a_Node000003"><a xlink:href="dev_8h.html" target="_top" xlink:title=" ">
<polygon fill="white" stroke="#666666" points="958.99,-222.5 845.99,-222.5 845.99,-203.5 958.99,-203.5 958.99,-222.5"/>
<text text-anchor="middle" x="902.49" y="-210.5" font-family="Helvetica,sans-Serif" font-size="10.00">include/kernel/fs/dev.h</text>
</a>
</g>
</g>
<!-- Node1&#45;&gt;Node3 -->
<g id="edge2_Node000001_Node000003" class="edge">
<title>Node1&#45;&gt;Node3</title>
<g id="a_edge2_Node000001_Node000003"><a xlink:title=" ">
<path fill="none" stroke="#63b8ff" d="M775.38,-325.46C793.05,-317.77 814.47,-307 831.49,-294 859.54,-272.59 885.06,-238.89 896.36,-222.94"/>
<polygon fill="#63b8ff" stroke="#63b8ff" points="774.34,-322.52 766.47,-329.62 777.05,-328.98 774.34,-322.52"/>
</a>
</g>
</g>
<!-- Node4 -->
<g id="Node000004" class="node">
<title>Node4</title>
<g id="a_Node000004"><a xlink:href="vfs_8h.html" target="_top" xlink:title=" ">
<polygon fill="white" stroke="#666666" points="1054.99,-288.5 941.99,-288.5 941.99,-269.5 1054.99,-269.5 1054.99,-288.5"/>
<text text-anchor="middle" x="998.49" y="-276.5" font-family="Helvetica,sans-Serif" font-size="10.00">include/kernel/fs/vfs.h</text>
</a>
</g>
</g>
<!-- Node1&#45;&gt;Node4 -->
<g id="edge3_Node000001_Node000004" class="edge">
<title>Node1&#45;&gt;Node4</title>
<g id="a_edge3_Node000001_Node000004"><a xlink:title=" ">
<path fill="none" stroke="#63b8ff" d="M791.48,-327.12C840.49,-315.97 914.22,-299.18 959.19,-288.95"/>
<polygon fill="#63b8ff" stroke="#63b8ff" points="790.78,-323.92 781.81,-329.55 792.33,-330.74 790.78,-323.92"/>
</a>
</g>
</g>
<!-- Node8 -->
<g id="Node000008" class="node">
<title>Node8</title>
<g id="a_Node000008"><a xlink:href="descriptor_8h.html" target="_top" xlink:title=" ">
<polygon fill="white" stroke="#666666" points="1477.49,-228 1379.49,-228 1379.49,-198 1477.49,-198 1477.49,-228"/>
<text text-anchor="start" x="1387.49" y="-216" font-family="Helvetica,sans-Serif" font-size="10.00">include/kernel/proc</text>
<text text-anchor="middle" x="1428.49" y="-205" font-family="Helvetica,sans-Serif" font-size="10.00">/descriptor.h</text>
</a>
</g>
</g>
<!-- Node1&#45;&gt;Node8 -->
<g id="edge19_Node000001_Node000008" class="edge">
<title>Node1&#45;&gt;Node8</title>
<g id="a_edge19_Node000001_Node000008"><a xlink:title=" ">
<path fill="none" stroke="#63b8ff" d="M812.34,-339.03C879.47,-337.18 981.89,-328.17 1063.49,-294 1083.67,-285.55 1082.31,-272.41 1102.49,-264 1213.44,-217.8 1252.37,-250.13 1370.49,-228 1373.35,-227.47 1376.27,-226.88 1379.21,-226.26"/>
<polygon fill="#63b8ff" stroke="#63b8ff" points="812.39,-335.55 802.47,-339.27 812.54,-342.55 812.39,-335.55"/>
</a>
</g>
</g>
<!-- Node9 -->
<g id="Node000009" class="node">
<title>Node9</title>
<g id="a_Node000009"><a xlink:href="dhcp_8h.html" target="_top" xlink:title=" ">
<polygon fill="white" stroke="#666666" points="602.99,-30 509.99,-30 509.99,0 602.99,0 602.99,-30"/>
<text text-anchor="start" x="517.99" y="-18" font-family="Helvetica,sans-Serif" font-size="10.00">include/kernel/net</text>
<text text-anchor="middle" x="556.49" y="-7" font-family="Helvetica,sans-Serif" font-size="10.00">/dhcp.h</text>
</a>
</g>
</g>
<!-- Node1&#45;&gt;Node9 -->
<g id="edge9_Node000001_Node000009" class="edge">
<title>Node1&#45;&gt;Node9</title>
<g id="a_edge9_Node000001_Node000009"><a xlink:title=" ">
<path fill="none" stroke="#63b8ff" d="M729,-320.75C723.32,-312.62 716.53,-302.85 710.49,-294 681.62,-251.63 679.66,-237.11 646.49,-198 603.59,-147.4 563.9,-156.87 537.49,-96 528.01,-74.13 538.98,-46.75 547.76,-30.35"/>
<polygon fill="#63b8ff" stroke="#63b8ff" points="726.66,-322.5 735.27,-328.67 732.39,-318.48 726.66,-322.5"/>
</a>
</g>
</g>
<!-- Node10 -->
<g id="Node000010" class="node">
<title>Node10</title>
<g id="a_Node000010"><a xlink:href="dns_8h.html" target="_top" xlink:title=" ">
<polygon fill="white" stroke="#666666" points="750.99,-30 657.99,-30 657.99,0 750.99,0 750.99,-30"/>
<text text-anchor="start" x="665.99" y="-18" font-family="Helvetica,sans-Serif" font-size="10.00">include/kernel/net</text>
<text text-anchor="middle" x="704.49" y="-7" font-family="Helvetica,sans-Serif" font-size="10.00">/dns.h</text>
</a>
</g>
</g>
<!-- Node1&#45;&gt;Node10 -->
<g id="edge10_Node000001_Node000010" class="edge">
<title>Node1&#45;&gt;Node10</title>
<g id="a_edge10_Node000001_Node000010"><a xlink:title=" ">
<path fill="none" stroke="#63b8ff" d="M750.96,-319.91C762.21,-296.04 779.49,-253.02 779.49,-214 779.49,-214 779.49,-214 779.49,-146 779.49,-109.35 778.31,-97.45 759.49,-66 751.02,-51.82 737.27,-39.32 725.64,-30.37"/>
<polygon fill="#63b8ff" stroke="#63b8ff" points="747.41,-318.2 746.15,-328.72 753.69,-321.28 747.41,-318.2"/>
</a>
</g>
</g>
<!-- Node11 -->
<g id="Node000011" class="node">
<title>Node11</title>
<g id="a_Node000011"><a xlink:href="ipv4_8h.html" target="_top" xlink:title=" ">
<polygon fill="white" stroke="#666666" points="712.99,-162 619.99,-162 619.99,-132 712.99,-132 712.99,-162"/>
<text text-anchor="start" x="627.99" y="-150" font-family="Helvetica,sans-Serif" font-size="10.00">include/kernel/net</text>
<text text-anchor="middle" x="666.49" y="-139" font-family="Helvetica,sans-Serif" font-size="10.00">/ipv4.h</text>
</a>
</g>
</g>
<!-- Node1&#45;&gt;Node11 -->
<g id="edge11_Node000001_Node000011" class="edge">
<title>Node1&#45;&gt;Node11</title>
<g id="a_edge11_Node000001_Node000011"><a xlink:title=" ">
<path fill="none" stroke="#63b8ff" d="M734.13,-319.8C719.18,-281.81 685.52,-196.32 672.14,-162.33"/>
<polygon fill="#63b8ff" stroke="#63b8ff" points="731.06,-320.54 737.98,-328.57 737.57,-317.98 731.06,-320.54"/>
</a>
</g>
</g>
<!-- Node13 -->
<g id="Node000013" class="node">
<title>Node13</title>
<g id="a_Node000013"><a xlink:href="udp_8h.html" target="_top" xlink:title=" ">
<polygon fill="white" stroke="#666666" points="750.99,-96 657.99,-96 657.99,-66 750.99,-66 750.99,-96"/>
<text text-anchor="start" x="665.99" y="-84" font-family="Helvetica,sans-Serif" font-size="10.00">include/kernel/net</text>
<text text-anchor="middle" x="704.49" y="-73" font-family="Helvetica,sans-Serif" font-size="10.00">/udp.h</text>
</a>
</g>
</g>
<!-- Node1&#45;&gt;Node13 -->
<g id="edge18_Node000001_Node000013" class="edge">
<title>Node1&#45;&gt;Node13</title>
<g id="a_edge18_Node000001_Node000013"><a xlink:title=" ">
<path fill="none" stroke="#63b8ff" d="M741.1,-319.06C740.04,-282.19 736.08,-199.7 721.49,-132 718.83,-119.63 714.1,-106.07 710.3,-96.19"/>
<polygon fill="#63b8ff" stroke="#63b8ff" points="737.62,-318.82 741.37,-328.73 744.62,-318.65 737.62,-318.82"/>
</a>
</g>
</g>
<!-- Node14 -->
<g id="Node000014" class="node">
<title>Node14</title>
<g id="a_Node000014"><a xlink:href="ntp_8h.html" target="_top" xlink:title=" ">
<polygon fill="white" stroke="#666666" points="862.99,-30 769.99,-30 769.99,0 862.99,0 862.99,-30"/>
<text text-anchor="start" x="777.99" y="-18" font-family="Helvetica,sans-Serif" font-size="10.00">include/kernel/net</text>
<text text-anchor="middle" x="816.49" y="-7" font-family="Helvetica,sans-Serif" font-size="10.00">/ntp.h</text>
</a>
</g>
</g>
<!-- Node1&#45;&gt;Node14 -->
<g id="edge17_Node000001_Node000014" class="edge">
<title>Node1&#45;&gt;Node14</title>
<g id="a_edge17_Node000001_Node000014"><a xlink:title=" ">
<path fill="none" stroke="#63b8ff" d="M759.63,-322.19C782.11,-300.07 817.49,-258.24 817.49,-214 817.49,-214 817.49,-214 817.49,-146 817.49,-104.02 816.97,-54.42 816.68,-30.43"/>
<polygon fill="#63b8ff" stroke="#63b8ff" points="757.59,-319.24 752.74,-328.66 762.41,-324.32 757.59,-319.24"/>
</a>
</g>
</g>
<!-- Node15 -->
<g id="Node000015" class="node">
<title>Node15</title>
<g id="a_Node000015"><a xlink:href="k__syscall_8h.html" target="_top" xlink:title=" ">
<polygon fill="white" stroke="#666666" points="268.99,-162 173.99,-162 173.99,-132 268.99,-132 268.99,-162"/>
<text text-anchor="start" x="181.99" y="-150" font-family="Helvetica,sans-Serif" font-size="10.00">include/kernel/sys</text>
<text text-anchor="middle" x="221.49" y="-139" font-family="Helvetica,sans-Serif" font-size="10.00">/k_syscall.h</text>
</a>
</g>
</g>
<!-- Node1&#45;&gt;Node15 -->
<g id="edge20_Node000001_Node000015" class="edge">
<title>Node1&#45;&gt;Node15</title>
<g id="a_edge20_Node000001_Node000015"><a xlink:title=" ">
<path fill="none" stroke="#63b8ff" d="M670.87,-336.83C509.29,-332.59 122.5,-319.85 69.49,-294 24.48,-272.05 -20.57,-237.28 10.49,-198 30.46,-172.75 117.9,-158.92 173.76,-152.53"/>
<polygon fill="#63b8ff" stroke="#63b8ff" points="670.55,-340.35 680.64,-337.11 670.74,-333.35 670.55,-340.35"/>
</a>
</g>
</g>
<!-- Node16 -->
<g id="Node000016" class="node">
<title>Node16</title>
<g id="a_Node000016"><a xlink:href="inet_8h.html" target="_top" xlink:title=" ">
<polygon fill="white" stroke="#666666" points="637.49,-222.5 523.49,-222.5 523.49,-203.5 637.49,-203.5 637.49,-222.5"/>
<text text-anchor="middle" x="580.49" y="-210.5" font-family="Helvetica,sans-Serif" font-size="10.00">include/libc/arpa/inet.h</text>
</a>
</g>
</g>
<!-- Node1&#45;&gt;Node16 -->
<g id="edge21_Node000001_Node000016" class="edge">
<title>Node1&#45;&gt;Node16</title>
<g id="a_edge21_Node000001_Node000016"><a xlink:title=" ">
<path fill="none" stroke="#63b8ff" d="M707.61,-325.46C689.94,-317.77 668.52,-307 651.49,-294 623.45,-272.59 597.92,-238.89 586.63,-222.94"/>
<polygon fill="#63b8ff" stroke="#63b8ff" points="705.94,-328.98 716.52,-329.62 708.65,-322.52 705.94,-328.98"/>
</a>
</g>
</g>
<!-- Node17 -->
<g id="Node000017" class="node">
<title>Node17</title>
<g id="a_Node000017"><a xlink:href="syscall_8h.html" target="_top" xlink:title=" ">
<polygon fill="white" stroke="#666666" points="413.49,-156.5 287.49,-156.5 287.49,-137.5 413.49,-137.5 413.49,-156.5"/>
<text text-anchor="middle" x="350.49" y="-144.5" font-family="Helvetica,sans-Serif" font-size="10.00">include/libc/sys/syscall.h</text>
</a>
</g>
</g>
<!-- Node1&#45;&gt;Node17 -->
<g id="edge36_Node000001_Node000017" class="edge">
<title>Node1&#45;&gt;Node17</title>
<g id="a_edge36_Node000001_Node000017"><a xlink:title=" ">
<path fill="none" stroke="#63b8ff" d="M670.7,-336.88C546.86,-333.3 301.53,-322.64 275.49,-294 235.63,-250.14 310.06,-181.17 339.37,-156.85"/>
<polygon fill="#63b8ff" stroke="#63b8ff" points="670.48,-340.4 680.57,-337.18 670.67,-333.4 670.48,-340.4"/>
</a>
</g>
</g>
<!-- Node19 -->
<g id="Node000019" class="node">
<title>Node19</title>
<g id="a_Node000019"><a xlink:href="log_8h.html" target="_top" xlink:title=" ">
<polygon fill="white" stroke="#666666" points="1206.99,-294 1111.99,-294 1111.99,-264 1206.99,-264 1206.99,-294"/>
<text text-anchor="start" x="1119.99" y="-282" font-family="Helvetica,sans-Serif" font-size="10.00">include/libc/arvern</text>
<text text-anchor="middle" x="1159.49" y="-271" font-family="Helvetica,sans-Serif" font-size="10.00">/log.h</text>
</a>
</g>
</g>
<!-- Node1&#45;&gt;Node19 -->
<g id="edge27_Node000001_Node000019" class="edge">
<title>Node1&#45;&gt;Node19</title>
<g id="a_edge27_Node000001_Node000019"><a xlink:title=" ">
<path fill="none" stroke="#63b8ff" d="M812.03,-331.74C884.08,-324.35 999.01,-311.23 1097.49,-294 1102.06,-293.2 1106.8,-292.29 1111.52,-291.32"/>
<polygon fill="#63b8ff" stroke="#63b8ff" points="811.88,-328.34 802.29,-332.83 812.59,-335.3 811.88,-328.34"/>
</a>
</g>
</g>
<!-- Node20 -->
<g id="Node000020" class="node">
<title>Node20</title>
<g id="a_Node000020"><a xlink:href="socket_8h.html" target="_top" xlink:title=" ">
<polygon fill="white" stroke="#666666" points="593.99,-288.5 468.99,-288.5 468.99,-269.5 593.99,-269.5 593.99,-288.5"/>
<text text-anchor="middle" x="531.49" y="-276.5" font-family="Helvetica,sans-Serif" font-size="10.00">include/libc/sys/socket.h</text>
</a>
</g>
</g>
<!-- Node1&#45;&gt;Node20 -->
<g id="edge28_Node000001_Node000020" class="edge">
<title>Node1&#45;&gt;Node20</title>
<g id="a_edge28_Node000001_Node000020"><a xlink:title=" ">
<path fill="none" stroke="#63b8ff" d="M699.11,-326.69C659.1,-315.55 599.97,-299.08 563.69,-288.97"/>
<polygon fill="#63b8ff" stroke="#63b8ff" points="698.03,-330.3 708.6,-329.62 699.91,-323.56 698.03,-330.3"/>
</a>
</g>
</g>
<!-- Node21 -->
<g id="Node000021" class="node">
<title>Node21</title>
<g id="a_Node000021"><a xlink:href="stat_8h.html" target="_top" xlink:title=" ">
<polygon fill="white" stroke="#666666" points="209.49,-288.5 97.49,-288.5 97.49,-269.5 209.49,-269.5 209.49,-288.5"/>
<text text-anchor="middle" x="153.49" y="-276.5" font-family="Helvetica,sans-Serif" font-size="10.00">include/libc/sys/stat.h</text>
</a>
</g>
</g>
<!-- Node1&#45;&gt;Node21 -->
<g id="edge32_Node000001_Node000021" class="edge">
<title>Node1&#45;&gt;Node21</title>
<g id="a_edge32_Node000001_Node000021"><a xlink:title=" ">
<path fill="none" stroke="#63b8ff" d="M670.96,-334.94C571.01,-329.34 382.62,-316.68 223.49,-294 214.05,-292.65 203.95,-290.85 194.45,-288.99"/>
<polygon fill="#63b8ff" stroke="#63b8ff" points="670.64,-338.49 680.82,-335.54 671.03,-331.5 670.64,-338.49"/>
</a>
</g>
</g>
<!-- Node22 -->
<g id="Node000022" class="node">
<title>Node22</title>
<g id="a_Node000022"><a xlink:href="libc_2sys_2time_8h.html" target="_top" xlink:title=" ">
<polygon fill="white" stroke="#666666" points="398.49,-288.5 284.49,-288.5 284.49,-269.5 398.49,-269.5 398.49,-288.5"/>
<text text-anchor="middle" x="341.49" y="-276.5" font-family="Helvetica,sans-Serif" font-size="10.00">include/libc/sys/time.h</text>
</a>
</g>
</g>
<!-- Node1&#45;&gt;Node22 -->
<g id="edge37_Node000001_Node000022" class="edge">
<title>Node1&#45;&gt;Node22</title>
<g id="a_edge37_Node000001_Node000022"><a xlink:title=" ">
<path fill="none" stroke="#63b8ff" d="M671.02,-329.42C606.12,-320.89 507.18,-307.45 421.49,-294 411.61,-292.45 401.05,-290.68 390.95,-288.93"/>
<polygon fill="#63b8ff" stroke="#63b8ff" points="670.17,-332.97 680.54,-330.8 671.08,-326.03 670.17,-332.97"/>
</a>
</g>
</g>
<!-- Node23 -->
<g id="Node000023" class="node">
<title>Node23</title>
<g id="a_Node000023"><a xlink:href="libc_2time_8h.html" target="_top" xlink:title=" ">
<polygon fill="white" stroke="#666666" points="428.99,-222.5 333.99,-222.5 333.99,-203.5 428.99,-203.5 428.99,-222.5"/>
<text text-anchor="middle" x="381.49" y="-210.5" font-family="Helvetica,sans-Serif" font-size="10.00">include/libc/time.h</text>
</a>
</g>
</g>
<!-- Node1&#45;&gt;Node23 -->
<g id="edge41_Node000001_Node000023" class="edge">
<title>Node1&#45;&gt;Node23</title>
<g id="a_edge41_Node000001_Node000023"><a xlink:title=" ">
<path fill="none" stroke="#63b8ff" d="M670.94,-332.48C599.75,-325.51 495.35,-312.54 459.49,-294 426.07,-276.71 398.51,-239.68 387.12,-222.76"/>
<polygon fill="#63b8ff" stroke="#63b8ff" points="670.34,-336.04 680.63,-333.51 671.01,-329.07 670.34,-336.04"/>
</a>
</g>
</g>
<!-- Node24 -->
<g id="Node000024" class="node">
<title>Node24</title>
<g id="a_Node000024"><a xlink:href="vga__text_8h.html" target="_top" xlink:title=" ">
<polygon fill="white" stroke="#666666" points="1337.99,-294 1224.99,-294 1224.99,-264 1337.99,-264 1337.99,-294"/>
<text text-anchor="start" x="1232.99" y="-282" font-family="Helvetica,sans-Serif" font-size="10.00">src/kernel/arch/x86</text>
<text text-anchor="middle" x="1281.49" y="-271" font-family="Helvetica,sans-Serif" font-size="10.00">_64/drivers/vga_text.h</text>
</a>
</g>
</g>
<!-- Node1&#45;&gt;Node24 -->
<g id="edge42_Node000001_Node000024" class="edge">
<title>Node1&#45;&gt;Node24</title>
<g id="a_edge42_Node000001_Node000024"><a xlink:title=" ">
<path fill="none" stroke="#63b8ff" d="M812.2,-334.42C905.11,-328.47 1073.18,-315.7 1215.49,-294 1218.51,-293.54 1221.59,-293.03 1224.69,-292.48"/>
<polygon fill="#63b8ff" stroke="#63b8ff" points="812.01,-330.99 802.25,-335.11 812.45,-337.97 812.01,-330.99"/>
</a>
</g>
</g>
<!-- Node25 -->
<g id="Node000025" class="node">
<title>Node25</title>
<g id="a_Node000025"><a xlink:href="x86__64_2mmu_2alloc_8h.html" target="_top" xlink:title=" ">
<polygon fill="white" stroke="#666666" points="1595.49,-228 1495.49,-228 1495.49,-198 1595.49,-198 1595.49,-228"/>
<text text-anchor="start" x="1503.49" y="-216" font-family="Helvetica,sans-Serif" font-size="10.00">src/kernel/arch/x86</text>
<text text-anchor="middle" x="1545.49" y="-205" font-family="Helvetica,sans-Serif" font-size="10.00">_64/mmu/alloc.h</text>
</a>
</g>
</g>
<!-- Node1&#45;&gt;Node25 -->
<g id="edge43_Node000001_Node000025" class="edge">
<title>Node1&#45;&gt;Node25</title>
<g id="a_edge43_Node000001_Node000025"><a xlink:title=" ">
<path fill="none" stroke="#63b8ff" d="M812.23,-336.03C949.37,-330.8 1246.73,-317.13 1346.49,-294 1410.16,-279.24 1480.06,-247.12 1517.72,-228.38"/>
<polygon fill="#63b8ff" stroke="#63b8ff" points="812.31,-332.57 802.45,-336.44 812.57,-339.56 812.31,-332.57"/>
</a>
</g>
</g>
<!-- Node26 -->
<g id="Node000026" class="node">
<title>Node26</title>
<g id="a_Node000026"><a xlink:href="frame_8h.html" target="_top" xlink:title=" ">
<polygon fill="white" stroke="#666666" points="1595.49,-294 1495.49,-294 1495.49,-264 1595.49,-264 1595.49,-294"/>
<text text-anchor="start" x="1503.49" y="-282" font-family="Helvetica,sans-Serif" font-size="10.00">src/kernel/arch/x86</text>
<text text-anchor="middle" x="1545.49" y="-271" font-family="Helvetica,sans-Serif" font-size="10.00">_64/mmu/frame.h</text>
</a>
</g>
</g>
<!-- Node1&#45;&gt;Node26 -->
<g id="edge44_Node000001_Node000026" class="edge">
<title>Node1&#45;&gt;Node26</title>
<g id="a_edge44_Node000001_Node000026"><a xlink:title=" ">
<path fill="none" stroke="#63b8ff" d="M812.04,-335.3C937.04,-329.33 1205.55,-315.14 1431.49,-294 1452.34,-292.05 1475.27,-289.34 1495.06,-286.83"/>
<polygon fill="#63b8ff" stroke="#63b8ff" points="811.94,-331.85 802.12,-335.82 812.27,-338.84 811.94,-331.85"/>
</a>
</g>
</g>
<!-- Node27 -->
<g id="Node000027" class="node">
<title>Node27</title>
<g id="a_Node000027"><a xlink:href="paging_8h.html" target="_top" xlink:title=" ">
<polygon fill="white" stroke="#666666" points="1713.49,-228 1613.49,-228 1613.49,-198 1713.49,-198 1713.49,-228"/>
<text text-anchor="start" x="1621.49" y="-216" font-family="Helvetica,sans-Serif" font-size="10.00">src/kernel/arch/x86</text>
<text text-anchor="middle" x="1663.49" y="-205" font-family="Helvetica,sans-Serif" font-size="10.00">_64/mmu/paging.h</text>
</a>
</g>
</g>
<!-- Node1&#45;&gt;Node27 -->
<g id="edge47_Node000001_Node000027" class="edge">
<title>Node1&#45;&gt;Node27</title>
<g id="a_edge47_Node000001_Node000027"><a xlink:title=" ">
<path fill="none" stroke="#63b8ff" d="M812.28,-338.3C1006.09,-337.27 1535.6,-331.05 1604.49,-294 1631.25,-279.61 1649.1,-247.2 1657.65,-228.34"/>
<polygon fill="#63b8ff" stroke="#63b8ff" points="812.36,-334.8 802.38,-338.35 812.39,-341.8 812.36,-334.8"/>
</a>
</g>
</g>
<!-- Node4&#45;&gt;Node3 -->
<g id="edge4_Node000004_Node000003" class="edge">
<title>Node4&#45;&gt;Node3</title>
<g id="a_edge4_Node000004_Node000003"><a xlink:title=" ">
<path fill="none" stroke="#63b8ff" d="M976.12,-263.08C957.39,-250.6 931.3,-233.2 915.73,-222.82"/>
<polygon fill="#63b8ff" stroke="#63b8ff" points="973.88,-266.47 984.15,-269.1 977.77,-260.64 973.88,-266.47"/>
</a>
</g>
</g>
<!-- Node5 -->
<g id="Node000005" class="node">
<title>Node5</title>
<g id="a_Node000005"><a xlink:href="fs_2proc_8h.html" target="_top" xlink:title=" ">
<polygon fill="white" stroke="#666666" points="1223.49,-222.5 1105.49,-222.5 1105.49,-203.5 1223.49,-203.5 1223.49,-222.5"/>
<text text-anchor="middle" x="1164.49" y="-210.5" font-family="Helvetica,sans-Serif" font-size="10.00">include/kernel/fs/proc.h</text>
</a>
</g>
</g>
<!-- Node4&#45;&gt;Node5 -->
<g id="edge5_Node000004_Node000005" class="edge">
<title>Node4&#45;&gt;Node5</title>
<g id="a_edge5_Node000004_Node000005"><a xlink:title=" ">
<path fill="none" stroke="#63b8ff" d="M1031.51,-265.27C1064,-252.75 1112.77,-233.94 1141.34,-222.93"/>
<polygon fill="#63b8ff" stroke="#63b8ff" points="1030.65,-262.24 1022.58,-269.1 1033.17,-268.77 1030.65,-262.24"/>
</a>
</g>
</g>
<!-- Node6 -->
<g id="Node000006" class="node">
<title>Node6</title>
<g id="a_Node000006"><a xlink:href="sock_8h.html" target="_top" xlink:title=" ">
<polygon fill="white" stroke="#666666" points="1361.49,-222.5 1241.49,-222.5 1241.49,-203.5 1361.49,-203.5 1361.49,-222.5"/>
<text text-anchor="middle" x="1301.49" y="-210.5" font-family="Helvetica,sans-Serif" font-size="10.00">include/kernel/fs/sock.h</text>
</a>
</g>
</g>
<!-- Node4&#45;&gt;Node6 -->
<g id="edge6_Node000004_Node000006" class="edge">
<title>Node4&#45;&gt;Node6</title>
<g id="a_edge6_Node000004_Node000006"><a xlink:title=" ">
<path fill="none" stroke="#63b8ff" d="M1051.55,-266.79C1110.67,-254.31 1205.04,-234.37 1259.33,-222.91"/>
<polygon fill="#63b8ff" stroke="#63b8ff" points="1051.01,-263.54 1041.94,-269.03 1052.45,-270.39 1051.01,-263.54"/>
</a>
</g>
</g>
<!-- Node7 -->
<g id="Node000007" class="node">
<title>Node7</title>
<g id="a_Node000007"><a xlink:href="tar_8h.html" target="_top" xlink:title=" ">
<polygon fill="white" stroke="#666666" points="1087.49,-222.5 977.49,-222.5 977.49,-203.5 1087.49,-203.5 1087.49,-222.5"/>
<text text-anchor="middle" x="1032.49" y="-210.5" font-family="Helvetica,sans-Serif" font-size="10.00">include/kernel/fs/tar.h</text>
</a>
</g>
</g>
<!-- Node4&#45;&gt;Node7 -->
<g id="edge7_Node000004_Node000007" class="edge">
<title>Node4&#45;&gt;Node7</title>
<g id="a_edge7_Node000004_Node000007"><a xlink:title=" ">
<path fill="none" stroke="#63b8ff" d="M1008.31,-259.53C1014.72,-247.46 1022.8,-232.25 1027.81,-222.82"/>
<polygon fill="#63b8ff" stroke="#63b8ff" points="1004.82,-257.63 1003.22,-268.1 1011,-260.91 1004.82,-257.63"/>
</a>
</g>
</g>
<!-- Node4&#45;&gt;Node8 -->
<g id="edge8_Node000004_Node000008" class="edge">
<title>Node4&#45;&gt;Node8</title>
<g id="a_edge8_Node000004_Node000008"><a xlink:title=" ">
<path fill="none" stroke="#63b8ff" d="M1051.82,-267.03C1057.77,-265.94 1063.76,-264.91 1069.49,-264 1202.57,-242.95 1237.89,-251.85 1370.49,-228 1373.35,-227.49 1376.27,-226.92 1379.22,-226.31"/>
<polygon fill="#63b8ff" stroke="#63b8ff" points="1051.38,-263.74 1042.2,-269.04 1052.68,-270.62 1051.38,-263.74"/>
</a>
</g>
</g>
<!-- Node12 -->
<g id="Node000012" class="node">
<title>Node12</title>
<g id="a_Node000012"><a xlink:href="icmpv4_8h.html" target="_top" xlink:title=" ">
<polygon fill="white" stroke="#666666" points="639.99,-96 546.99,-96 546.99,-66 639.99,-66 639.99,-96"/>
<text text-anchor="start" x="554.99" y="-84" font-family="Helvetica,sans-Serif" font-size="10.00">include/kernel/net</text>
<text text-anchor="middle" x="593.49" y="-73" font-family="Helvetica,sans-Serif" font-size="10.00">/icmpv4.h</text>
</a>
</g>
</g>
<!-- Node11&#45;&gt;Node12 -->
<g id="edge12_Node000011_Node000012" class="edge">
<title>Node11&#45;&gt;Node12</title>
<g id="a_edge12_Node000011_Node000012"><a xlink:title=" ">
<path fill="none" stroke="#63b8ff" d="M642.2,-124.7C631.59,-115.4 619.42,-104.73 609.9,-96.39"/>
<polygon fill="#63b8ff" stroke="#63b8ff" points="639.47,-127.84 649.29,-131.8 644.08,-122.57 639.47,-127.84"/>
</a>
</g>
</g>
<!-- Node11&#45;&gt;Node13 -->
<g id="edge13_Node000011_Node000013" class="edge">
<title>Node11&#45;&gt;Node13</title>
<g id="a_edge13_Node000011_Node000013"><a xlink:title=" ">
<path fill="none" stroke="#63b8ff" d="M680.51,-122.39C685.74,-113.59 691.51,-103.86 696.09,-96.16"/>
<polygon fill="#63b8ff" stroke="#63b8ff" points="677.02,-120.41 674.93,-130.8 683.04,-123.98 677.02,-120.41"/>
</a>
</g>
</g>
<!-- Node13&#45;&gt;Node9 -->
<g id="edge14_Node000013_Node000009" class="edge">
<title>Node13&#45;&gt;Node9</title>
<g id="a_edge14_Node000013_Node000009"><a xlink:title=" ">
<path fill="none" stroke="#63b8ff" d="M661.19,-61.27C638.43,-51.43 610.95,-39.55 589.85,-30.43"/>
<polygon fill="#63b8ff" stroke="#63b8ff" points="659.71,-64.88 670.28,-65.64 662.49,-58.46 659.71,-64.88"/>
</a>
</g>
</g>
<!-- Node13&#45;&gt;Node10 -->
<g id="edge15_Node000013_Node000010" class="edge">
<title>Node13&#45;&gt;Node10</title>
<g id="a_edge15_Node000013_Node000010"><a xlink:title=" ">
<path fill="none" stroke="#63b8ff" d="M704.49,-54.97C704.49,-46.55 704.49,-37.45 704.49,-30.16"/>
<polygon fill="#63b8ff" stroke="#63b8ff" points="701,-54.8 704.49,-64.8 708,-54.8 701,-54.8"/>
</a>
</g>
</g>
<!-- Node13&#45;&gt;Node14 -->
<g id="edge16_Node000013_Node000014" class="edge">
<title>Node13&#45;&gt;Node14</title>
<g id="a_edge16_Node000013_Node000014"><a xlink:title=" ">
<path fill="none" stroke="#63b8ff" d="M739.18,-60.18C756.08,-50.52 776.04,-39.12 791.44,-30.31"/>
<polygon fill="#63b8ff" stroke="#63b8ff" points="737.58,-57.64 730.63,-65.64 741.05,-63.71 737.58,-57.64"/>
</a>
</g>
</g>
<!-- Node16&#45;&gt;Node11 -->
<g id="edge22_Node000016_Node000011" class="edge">
<title>Node16&#45;&gt;Node11</title>
<g id="a_edge22_Node000016_Node000011"><a xlink:title=" ">
<path fill="none" stroke="#63b8ff" d="M600.9,-196.82C614.87,-186.42 633.28,-172.72 647.04,-162.48"/>
<polygon fill="#63b8ff" stroke="#63b8ff" points="599.39,-194.32 593.45,-203.1 603.56,-199.94 599.39,-194.32"/>
</a>
</g>
</g>
<!-- Node16&#45;&gt;Node13 -->
<g id="edge23_Node000016_Node000013" class="edge">
<title>Node16&#45;&gt;Node13</title>
<g id="a_edge23_Node000016_Node000013"><a xlink:title=" ">
<path fill="none" stroke="#63b8ff" d="M583.78,-192.32C587.59,-174.76 595.39,-149.21 610.49,-132 624.4,-116.16 644.56,-104.52 662.65,-96.47"/>
<polygon fill="#63b8ff" stroke="#63b8ff" points="580.18,-191.53 581.74,-202.01 587.06,-192.85 580.18,-191.53"/>
</a>
</g>
</g>
<!-- Node16&#45;&gt;Node15 -->
<g id="edge24_Node000016_Node000015" class="edge">
<title>Node16&#45;&gt;Node15</title>
<g id="a_edge24_Node000016_Node000015"><a xlink:title=" ">
<path fill="none" stroke="#63b8ff" d="M512.49,-202.27C451.1,-193.12 358.42,-178.41 278.49,-162 275.5,-161.39 272.42,-160.72 269.33,-160.03"/>
<polygon fill="#63b8ff" stroke="#63b8ff" points="511.8,-205.85 522.2,-203.85 512.82,-198.93 511.8,-205.85"/>
</a>
</g>
</g>
<!-- Node16&#45;&gt;Node17 -->
<g id="edge25_Node000016_Node000017" class="edge">
<title>Node16&#45;&gt;Node17</title>
<g id="a_edge25_Node000016_Node000017"><a xlink:title=" ">
<path fill="none" stroke="#63b8ff" d="M537.93,-200.16C492.97,-187.65 423.1,-168.2 382.57,-156.93"/>
<polygon fill="#63b8ff" stroke="#63b8ff" points="536.94,-203.79 547.51,-203.1 538.82,-197.05 536.94,-203.79"/>
</a>
</g>
</g>
<!-- Node18 -->
<g id="Node000018" class="node">
<title>Node18</title>
<g id="a_Node000018"><a xlink:href="unistd_8h.html" target="_top" xlink:title=" ">
<polygon fill="white" stroke="#666666" points="401.99,-90.5 298.99,-90.5 298.99,-71.5 401.99,-71.5 401.99,-90.5"/>
<text text-anchor="middle" x="350.49" y="-78.5" font-family="Helvetica,sans-Serif" font-size="10.00">include/libc/unistd.h</text>
</a>
</g>
</g>
<!-- Node17&#45;&gt;Node18 -->
<g id="edge26_Node000017_Node000018" class="edge">
<title>Node17&#45;&gt;Node18</title>
<g id="a_edge26_Node000017_Node000018"><a xlink:title=" ">
<path fill="none" stroke="#63b8ff" d="M350.49,-126.43C350.49,-114.55 350.49,-99.96 350.49,-90.82"/>
<polygon fill="#63b8ff" stroke="#63b8ff" points="347,-126.1 350.49,-136.1 354,-126.1 347,-126.1"/>
</a>
</g>
</g>
<!-- Node20&#45;&gt;Node15 -->
<g id="edge29_Node000020_Node000015" class="edge">
<title>Node20&#45;&gt;Node15</title>
<g id="a_edge29_Node000020_Node000015"><a xlink:title=" ">
<path fill="none" stroke="#63b8ff" d="M512.54,-262.43C500.68,-252.64 485.11,-239.68 471.49,-228 456.2,-214.88 455.44,-207.18 437.49,-198 372.99,-165 349.01,-178.64 278.49,-162 275.52,-161.3 272.46,-160.57 269.37,-159.83"/>
<polygon fill="#63b8ff" stroke="#63b8ff" points="509.85,-265.58 519.8,-269.24 514.31,-260.18 509.85,-265.58"/>
</a>
</g>
</g>
<!-- Node20&#45;&gt;Node16 -->
<g id="edge30_Node000020_Node000016" class="edge">
<title>Node20&#45;&gt;Node16</title>
<g id="a_edge30_Node000020_Node000016"><a xlink:title=" ">
<path fill="none" stroke="#63b8ff" d="M544.8,-260.62C554.16,-248.39 566.3,-232.54 573.74,-222.82"/>
<polygon fill="#63b8ff" stroke="#63b8ff" points="541.61,-258.03 538.31,-268.1 547.17,-262.29 541.61,-258.03"/>
</a>
</g>
</g>
<!-- Node20&#45;&gt;Node17 -->
<g id="edge31_Node000020_Node000017" class="edge">
<title>Node20&#45;&gt;Node17</title>
<g id="a_edge31_Node000020_Node000017"><a xlink:title=" ">
<path fill="none" stroke="#63b8ff" d="M521.56,-259.51C511.15,-241.65 493.3,-214.91 471.49,-198 445.81,-178.08 411.06,-164.82 385.39,-156.98"/>
<polygon fill="#63b8ff" stroke="#63b8ff" points="518.98,-261.06 526.92,-268.08 525.09,-257.64 518.98,-261.06"/>
</a>
</g>
</g>
<!-- Node21&#45;&gt;Node2 -->
<g id="edge33_Node000021_Node000002" class="edge">
<title>Node21&#45;&gt;Node2</title>
<g id="a_edge33_Node000021_Node000002"><a xlink:title=" ">
<path fill="none" stroke="#63b8ff" d="M133.9,-262.52C120.79,-252.16 103.66,-238.62 90.82,-228.48"/>
<polygon fill="#63b8ff" stroke="#63b8ff" points="131.22,-265.65 141.23,-269.1 135.56,-260.16 131.22,-265.65"/>
</a>
</g>
</g>
<!-- Node21&#45;&gt;Node15 -->
<g id="edge34_Node000021_Node000015" class="edge">
<title>Node21&#45;&gt;Node15</title>
<g id="a_edge34_Node000021_Node000015"><a xlink:title=" ">
<path fill="none" stroke="#63b8ff" d="M156.91,-258.42C160.41,-241.63 166.85,-217.18 177.49,-198 184.9,-184.65 196.37,-171.78 205.74,-162.43"/>
<polygon fill="#63b8ff" stroke="#63b8ff" points="153.31,-257.63 154.88,-268.11 160.19,-258.94 153.31,-257.63"/>
</a>
</g>
</g>
<!-- Node21&#45;&gt;Node17 -->
<g id="edge35_Node000021_Node000017" class="edge">
<title>Node21&#45;&gt;Node17</title>
<g id="a_edge35_Node000021_Node000017"><a xlink:title=" ">
<path fill="none" stroke="#63b8ff" d="M163.45,-259.87C174.16,-241.89 192.76,-214.69 215.49,-198 243.4,-177.52 280.63,-164.56 308.92,-156.99"/>
<polygon fill="#63b8ff" stroke="#63b8ff" points="160.02,-257.83 158.08,-268.24 166.09,-261.31 160.02,-257.83"/>
</a>
</g>
</g>
<!-- Node22&#45;&gt;Node15 -->
<g id="edge38_Node000022_Node000015" class="edge">
<title>Node22&#45;&gt;Node15</title>
<g id="a_edge38_Node000022_Node000015"><a xlink:title=" ">
<path fill="none" stroke="#63b8ff" d="M326.07,-261.29C302.3,-235.54 257.14,-186.61 234.75,-162.36"/>
<polygon fill="#63b8ff" stroke="#63b8ff" points="322.89,-263.09 332.25,-268.06 328.04,-258.34 322.89,-263.09"/>
</a>
</g>
</g>
<!-- Node22&#45;&gt;Node17 -->
<g id="edge39_Node000022_Node000017" class="edge">
<title>Node22&#45;&gt;Node17</title>
<g id="a_edge39_Node000022_Node000017"><a xlink:title=" ">
<path fill="none" stroke="#63b8ff" d="M332.71,-259.22C326.24,-242.96 319.4,-218.84 324.49,-198 328.31,-182.41 337.9,-166.28 344.31,-156.69"/>
<polygon fill="#63b8ff" stroke="#63b8ff" points="329.79,-260.29 336.97,-268.08 336.22,-257.51 329.79,-260.29"/>
</a>
</g>
</g>
<!-- Node22&#45;&gt;Node23 -->
<g id="edge40_Node000022_Node000023" class="edge">
<title>Node22&#45;&gt;Node23</title>
<g id="a_edge40_Node000022_Node000023"><a xlink:title=" ">
<path fill="none" stroke="#63b8ff" d="M352.81,-259.9C360.39,-247.77 370.03,-232.34 375.98,-222.82"/>
<polygon fill="#63b8ff" stroke="#63b8ff" points="349.39,-257.77 347.06,-268.1 355.32,-261.48 349.39,-257.77"/>
</a>
</g>
</g>
<!-- Node26&#45;&gt;Node25 -->
<g id="edge45_Node000026_Node000025" class="edge">
<title>Node26&#45;&gt;Node25</title>
<g id="a_edge45_Node000026_Node000025"><a xlink:title=" ">
<path fill="none" stroke="#63b8ff" d="M1545.49,-252.97C1545.49,-244.55 1545.49,-235.45 1545.49,-228.16"/>
<polygon fill="#63b8ff" stroke="#63b8ff" points="1542,-252.8 1545.49,-262.8 1549,-252.8 1542,-252.8"/>
</a>
</g>
</g>
<!-- Node26&#45;&gt;Node27 -->
<g id="edge46_Node000026_Node000027" class="edge">
<title>Node26&#45;&gt;Node27</title>
<g id="a_edge46_Node000026_Node000027"><a xlink:title=" ">
<path fill="none" stroke="#63b8ff" d="M1581.54,-258.45C1599.45,-248.73 1620.72,-237.2 1637.1,-228.31"/>
<polygon fill="#63b8ff" stroke="#63b8ff" points="1580.1,-255.79 1572.98,-263.64 1583.44,-261.95 1580.1,-255.79"/>
</a>
</g>
</g>
</g>
</svg>
