<?xml version="1.0" encoding="UTF-8" standalone="no"?>
<!DOCTYPE svg PUBLIC "-//W3C//DTD SVG 1.1//EN"
 "http://www.w3.org/Graphics/SVG/1.1/DTD/svg11.dtd">
<!-- Generated by graphviz version 9.0.0 (20230911.1827)
 -->
<!-- Title: include/libc/sys/types.h Pages: 1 -->
<svg width="1714pt" height="360pt"
 viewBox="0.00 0.00 1714.27 359.75" xmlns="http://www.w3.org/2000/svg" xmlns:xlink="http://www.w3.org/1999/xlink">
<g id="graph0" class="graph" transform="scale(1 1) rotate(0) translate(4 355.75)">
<title>include/libc/sys/types.h</title>
<!-- Node1 -->
<g id="Node000001" class="node">
<title>Node1</title>
<g id="a_Node000001"><a xlink:title=" ">
<polygon fill="#999999" stroke="#666666" points="799.02,-351.75 680.27,-351.75 680.27,-332.5 799.02,-332.5 799.02,-351.75"/>
<text text-anchor="middle" x="739.64" y="-338.25" font-family="Helvetica,sans-Serif" font-size="10.00">include/libc/sys/types.h</text>
</a>
</g>
</g>
<!-- Node2 -->
<g id="Node000002" class="node">
<title>Node2</title>
<g id="a_Node000002"><a xlink:href="inish_8h.html" target="_top" xlink:title=" ">
<polygon fill="white" stroke="#666666" points="125.27,-230 20.02,-230 20.02,-199.5 125.27,-199.5 125.27,-230"/>
<text text-anchor="start" x="28.02" y="-216.5" font-family="Helvetica,sans-Serif" font-size="10.00">include/kernel/config</text>
<text text-anchor="middle" x="72.64" y="-205.25" font-family="Helvetica,sans-Serif" font-size="10.00">/inish.h</text>
</a>
</g>
</g>
<!-- Node1&#45;&gt;Node2 -->
<g id="edge1_Node000001_Node000002" class="edge">
<title>Node1&#45;&gt;Node2</title>
<g id="a_edge1_Node000001_Node000002"><a xlink:title=" ">
<path fill="none" stroke="#63b8ff" d="M668.73,-341.04C508.97,-340.18 131.41,-334.15 88.64,-296.5 69.97,-280.07 69.29,-248.67 70.77,-230.24"/>
<polygon fill="#63b8ff" stroke="#63b8ff" points="668.32,-344.54 678.34,-341.09 668.36,-337.54 668.32,-344.54"/>
</a>
</g>
</g>
<!-- Node3 -->
<g id="Node000003" class="node">
<title>Node3</title>
<g id="a_Node000003"><a xlink:href="dev_8h.html" target="_top" xlink:title=" ">
<polygon fill="white" stroke="#666666" points="956.02,-224.38 843.27,-224.38 843.27,-205.12 956.02,-205.12 956.02,-224.38"/>
<text text-anchor="middle" x="899.64" y="-210.88" font-family="Helvetica,sans-Serif" font-size="10.00">include/kernel/fs/dev.h</text>
</a>
</g>
</g>
<!-- Node1&#45;&gt;Node3 -->
<g id="edge2_Node000001_Node000003" class="edge">
<title>Node1&#45;&gt;Node3</title>
<g id="a_edge2_Node000001_Node000003"><a xlink:title=" ">
<path fill="none" stroke="#63b8ff" d="M774.44,-327.74C791.96,-320.07 812.96,-309.4 829.64,-296.5 857.52,-274.93 882.58,-240.9 893.64,-224.78"/>
<polygon fill="#63b8ff" stroke="#63b8ff" points="773.31,-324.42 765.45,-331.53 776.02,-330.87 773.31,-324.42"/>
</a>
</g>
</g>
<!-- Node4 -->
<g id="Node000004" class="node">
<title>Node4</title>
<g id="a_Node000004"><a xlink:href="vfs_8h.html" target="_top" xlink:title=" ">
<polygon fill="white" stroke="#666666" points="1050.64,-290.88 938.64,-290.88 938.64,-271.62 1050.64,-271.62 1050.64,-290.88"/>
<text text-anchor="middle" x="994.64" y="-277.38" font-family="Helvetica,sans-Serif" font-size="10.00">include/kernel/fs/vfs.h</text>
</a>
</g>
</g>
<!-- Node1&#45;&gt;Node4 -->
<g id="edge3_Node000001_Node000004" class="edge">
<title>Node1&#45;&gt;Node4</title>
<g id="a_edge3_Node000001_Node000004"><a xlink:title=" ">
<path fill="none" stroke="#63b8ff" d="M790.11,-329.47C838.62,-318.27 910.93,-301.58 955.31,-291.33"/>
<polygon fill="#63b8ff" stroke="#63b8ff" points="789.36,-326.05 780.4,-331.71 790.93,-332.87 789.36,-326.05"/>
</a>
</g>
</g>
<!-- Node8 -->
<g id="Node000008" class="node">
<title>Node8</title>
<g id="a_Node000008"><a xlink:href="descriptor_8h.html" target="_top" xlink:title=" ">
<polygon fill="white" stroke="#666666" points="1471.52,-230 1373.77,-230 1373.77,-199.5 1471.52,-199.5 1471.52,-230"/>
<text text-anchor="start" x="1381.77" y="-216.5" font-family="Helvetica,sans-Serif" font-size="10.00">include/kernel/proc</text>
<text text-anchor="middle" x="1422.64" y="-205.25" font-family="Helvetica,sans-Serif" font-size="10.00">/descriptor.h</text>
</a>
</g>
</g>
<!-- Node1&#45;&gt;Node8 -->
<g id="edge19_Node000001_Node000008" class="edge">
<title>Node1&#45;&gt;Node8</title>
<g id="a_edge19_Node000001_Node000008"><a xlink:title=" ">
<path fill="none" stroke="#63b8ff" d="M810.25,-335.68C890.53,-328.72 1016.11,-315.29 1059.64,-296.5 1079.52,-287.92 1077.74,-274.54 1097.64,-266 1207.69,-218.8 1247,-252.32 1364.64,-230 1367.49,-229.46 1370.42,-228.87 1373.36,-228.24"/>
<polygon fill="#63b8ff" stroke="#63b8ff" points="810.41,-332.15 800.74,-336.49 811,-339.13 810.41,-332.15"/>
</a>
</g>
</g>
<!-- Node9 -->
<g id="Node000009" class="node">
<title>Node9</title>
<g id="a_Node000009"><a xlink:href="dhcp_8h.html" target="_top" xlink:title=" ">
<polygon fill="white" stroke="#666666" points="601.89,-30.5 509.39,-30.5 509.39,0 601.89,0 601.89,-30.5"/>
<text text-anchor="start" x="517.39" y="-17" font-family="Helvetica,sans-Serif" font-size="10.00">include/kernel/net</text>
<text text-anchor="middle" x="555.64" y="-5.75" font-family="Helvetica,sans-Serif" font-size="10.00">/dhcp.h</text>
</a>
</g>
</g>
<!-- Node1&#45;&gt;Node9 -->
<g id="edge9_Node000001_Node000009" class="edge">
<title>Node1&#45;&gt;Node9</title>
<g id="a_edge9_Node000001_Node000009"><a xlink:title=" ">
<path fill="none" stroke="#63b8ff" d="M726.95,-323.06C721.3,-314.97 714.59,-305.29 708.64,-296.5 679.68,-253.73 677.72,-239.17 644.64,-199.5 602.47,-148.92 563.49,-157.57 537.64,-97 528.22,-74.94 538.75,-47.3 547.21,-30.74"/>
<polygon fill="#63b8ff" stroke="#63b8ff" points="723.93,-324.86 732.53,-331.04 729.66,-320.84 723.93,-324.86"/>
</a>
</g>
</g>
<!-- Node10 -->
<g id="Node000010" class="node">
<title>Node10</title>
<g id="a_Node000010"><a xlink:href="dns_8h.html" target="_top" xlink:title=" ">
<polygon fill="white" stroke="#666666" points="749.89,-30.5 657.39,-30.5 657.39,0 749.89,0 749.89,-30.5"/>
<text text-anchor="start" x="665.39" y="-17" font-family="Helvetica,sans-Serif" font-size="10.00">include/kernel/net</text>
<text text-anchor="middle" x="703.64" y="-5.75" font-family="Helvetica,sans-Serif" font-size="10.00">/dns.h</text>
</a>
</g>
</g>
<!-- Node1&#45;&gt;Node10 -->
<g id="edge10_Node000001_Node000010" class="edge">
<title>Node1&#45;&gt;Node10</title>
<g id="a_edge10_Node000001_Node000010"><a xlink:title=" ">
<path fill="none" stroke="#63b8ff" d="M749.25,-322.07C760.51,-297.96 777.64,-254.84 777.64,-215.75 777.64,-215.75 777.64,-215.75 777.64,-147.25 777.64,-110.38 777.3,-98.3 758.64,-66.5 750.33,-52.33 736.72,-39.86 725.13,-30.88"/>
<polygon fill="#63b8ff" stroke="#63b8ff" points="746.18,-320.4 744.96,-330.92 752.47,-323.45 746.18,-320.4"/>
</a>
</g>
</g>
<!-- Node11 -->
<g id="Node000011" class="node">
<title>Node11</title>
<g id="a_Node000011"><a xlink:href="ipv4_8h.html" target="_top" xlink:title=" ">
<polygon fill="white" stroke="#666666" points="711.89,-163.5 619.39,-163.5 619.39,-133 711.89,-133 711.89,-163.5"/>
<text text-anchor="start" x="627.39" y="-150" font-family="Helvetica,sans-Serif" font-size="10.00">include/kernel/net</text>
<text text-anchor="middle" x="665.64" y="-138.75" font-family="Helvetica,sans-Serif" font-size="10.00">/ipv4.h</text>
</a>
</g>
</g>
<!-- Node1&#45;&gt;Node11 -->
<g id="edge11_Node000001_Node000011" class="edge">
<title>Node1&#45;&gt;Node11</title>
<g id="a_edge11_Node000001_Node000011"><a xlink:title=" ">
<path fill="none" stroke="#63b8ff" d="M732.1,-321.57C717.25,-283.06 684.51,-198.17 671.31,-163.96"/>
<polygon fill="#63b8ff" stroke="#63b8ff" points="728.76,-322.64 735.63,-330.72 735.29,-320.13 728.76,-322.64"/>
</a>
</g>
</g>
<!-- Node13 -->
<g id="Node000013" class="node">
<title>Node13</title>
<g id="a_Node000013"><a xlink:href="udp_8h.html" target="_top" xlink:title=" ">
<polygon fill="white" stroke="#666666" points="749.89,-97 657.39,-97 657.39,-66.5 749.89,-66.5 749.89,-97"/>
<text text-anchor="start" x="665.39" y="-83.5" font-family="Helvetica,sans-Serif" font-size="10.00">include/kernel/net</text>
<text text-anchor="middle" x="703.64" y="-72.25" font-family="Helvetica,sans-Serif" font-size="10.00">/udp.h</text>
</a>
</g>
</g>
<!-- Node1&#45;&gt;Node13 -->
<g id="edge18_Node000001_Node000013" class="edge">
<title>Node1&#45;&gt;Node13</title>
<g id="a_edge18_Node000001_Node000013"><a xlink:title=" ">
<path fill="none" stroke="#63b8ff" d="M739.37,-321.05C738.52,-283.65 735.03,-200.95 720.64,-133 718.05,-120.75 713.41,-107.33 709.63,-97.45"/>
<polygon fill="#63b8ff" stroke="#63b8ff" points="735.87,-320.84 739.55,-330.78 742.86,-320.72 735.87,-320.84"/>
</a>
</g>
</g>
<!-- Node14 -->
<g id="Node000014" class="node">
<title>Node14</title>
<g id="a_Node000014"><a xlink:href="ntp_8h.html" target="_top" xlink:title=" ">
<polygon fill="white" stroke="#666666" points="860.89,-30.5 768.39,-30.5 768.39,0 860.89,0 860.89,-30.5"/>
<text text-anchor="start" x="776.39" y="-17" font-family="Helvetica,sans-Serif" font-size="10.00">include/kernel/net</text>
<text text-anchor="middle" x="814.64" y="-5.75" font-family="Helvetica,sans-Serif" font-size="10.00">/ntp.h</text>
</a>
</g>
</g>
<!-- Node1&#45;&gt;Node14 -->
<g id="edge17_Node000001_Node000014" class="edge">
<title>Node1&#45;&gt;Node14</title>
<g id="a_edge17_Node000001_Node000014"><a xlink:title=" ">
<path fill="none" stroke="#63b8ff" d="M758.07,-324.37C780.56,-302 815.64,-260.02 815.64,-215.75 815.64,-215.75 815.64,-215.75 815.64,-147.25 815.64,-104.95 815.11,-54.96 814.82,-30.79"/>
<polygon fill="#63b8ff" stroke="#63b8ff" points="755.79,-321.72 750.98,-331.16 760.63,-326.77 755.79,-321.72"/>
</a>
</g>
</g>
<!-- Node15 -->
<g id="Node000015" class="node">
<title>Node15</title>
<g id="a_Node000015"><a xlink:href="k__syscall_8h.html" target="_top" xlink:title=" ">
<polygon fill="white" stroke="#666666" points="270.02,-163.5 175.27,-163.5 175.27,-133 270.02,-133 270.02,-163.5"/>
<text text-anchor="start" x="183.27" y="-150" font-family="Helvetica,sans-Serif" font-size="10.00">include/kernel/sys</text>
<text text-anchor="middle" x="222.64" y="-138.75" font-family="Helvetica,sans-Serif" font-size="10.00">/k_syscall.h</text>
</a>
</g>
</g>
<!-- Node1&#45;&gt;Node15 -->
<g id="edge20_Node000001_Node000015" class="edge">
<title>Node1&#45;&gt;Node15</title>
<g id="a_edge20_Node000001_Node000015"><a xlink:title=" ">
<path fill="none" stroke="#63b8ff" d="M668.61,-339.47C506.94,-335.27 121.35,-322.61 68.64,-296.5 23.63,-274.2 -20.51,-238.9 10.64,-199.5 30.76,-174.06 119.07,-160.15 175.17,-153.74"/>
<polygon fill="#63b8ff" stroke="#63b8ff" points="668.26,-342.96 678.35,-339.72 668.44,-335.97 668.26,-342.96"/>
</a>
</g>
</g>
<!-- Node16 -->
<g id="Node000016" class="node">
<title>Node16</title>
<g id="a_Node000016"><a xlink:href="inet_8h.html" target="_top" xlink:title=" ">
<polygon fill="white" stroke="#666666" points="635.39,-224.38 521.89,-224.38 521.89,-205.12 635.39,-205.12 635.39,-224.38"/>
<text text-anchor="middle" x="578.64" y="-210.88" font-family="Helvetica,sans-Serif" font-size="10.00">include/libc/arpa/inet.h</text>
</a>
</g>
</g>
<!-- Node1&#45;&gt;Node16 -->
<g id="edge21_Node000001_Node000016" class="edge">
<title>Node1&#45;&gt;Node16</title>
<g id="a_edge21_Node000001_Node000016"><a xlink:title=" ">
<path fill="none" stroke="#63b8ff" d="M704.87,-327.69C687.37,-320.01 666.36,-309.34 649.64,-296.5 621.51,-274.9 596.03,-240.88 584.76,-224.78"/>
<polygon fill="#63b8ff" stroke="#63b8ff" points="703.29,-330.82 713.86,-331.49 706.01,-324.37 703.29,-330.82"/>
</a>
</g>
</g>
<!-- Node17 -->
<g id="Node000017" class="node">
<title>Node17</title>
<g id="a_Node000017"><a xlink:href="syscall_8h.html" target="_top" xlink:title=" ">
<polygon fill="white" stroke="#666666" points="413.39,-157.88 287.89,-157.88 287.89,-138.62 413.39,-138.62 413.39,-157.88"/>
<text text-anchor="middle" x="350.64" y="-144.38" font-family="Helvetica,sans-Serif" font-size="10.00">include/libc/sys/syscall.h</text>
</a>
</g>
</g>
<!-- Node1&#45;&gt;Node17 -->
<g id="edge36_Node000001_Node000017" class="edge">
<title>Node1&#45;&gt;Node17</title>
<g id="a_edge36_Node000001_Node000017"><a xlink:title=" ">
<path fill="none" stroke="#63b8ff" d="M668.78,-339.45C545.35,-335.79 301.53,-325 275.64,-296.5 235.52,-252.33 310.11,-182.73 339.49,-158.18"/>
<polygon fill="#63b8ff" stroke="#63b8ff" points="668.36,-342.94 678.46,-339.73 668.57,-335.94 668.36,-342.94"/>
</a>
</g>
</g>
<!-- Node19 -->
<g id="Node000019" class="node">
<title>Node19</title>
<g id="a_Node000019"><a xlink:href="log_8h.html" target="_top" xlink:title=" ">
<polygon fill="white" stroke="#666666" points="1201.02,-296.5 1106.27,-296.5 1106.27,-266 1201.02,-266 1201.02,-296.5"/>
<text text-anchor="start" x="1114.27" y="-283" font-family="Helvetica,sans-Serif" font-size="10.00">include/libc/arvern</text>
<text text-anchor="middle" x="1153.64" y="-271.75" font-family="Helvetica,sans-Serif" font-size="10.00">/log.h</text>
</a>
</g>
</g>
<!-- Node1&#45;&gt;Node19 -->
<g id="edge27_Node000001_Node000019" class="edge">
<title>Node1&#45;&gt;Node19</title>
<g id="a_edge27_Node000001_Node000019"><a xlink:title=" ">
<path fill="none" stroke="#63b8ff" d="M810.37,-334.36C881.87,-327.02 995.39,-313.96 1092.64,-296.5 1096.92,-295.73 1101.36,-294.86 1105.79,-293.92"/>
<polygon fill="#63b8ff" stroke="#63b8ff" points="810.36,-330.85 800.77,-335.34 811.07,-337.81 810.36,-330.85"/>
</a>
</g>
</g>
<!-- Node20 -->
<g id="Node000020" class="node">
<title>Node20</title>
<g id="a_Node000020"><a xlink:href="socket_8h.html" target="_top" xlink:title=" ">
<polygon fill="white" stroke="#666666" points="592.64,-290.88 468.64,-290.88 468.64,-271.62 592.64,-271.62 592.64,-290.88"/>
<text text-anchor="middle" x="530.64" y="-277.38" font-family="Helvetica,sans-Serif" font-size="10.00">include/libc/sys/socket.h</text>
</a>
</g>
</g>
<!-- Node1&#45;&gt;Node20 -->
<g id="edge28_Node000001_Node000020" class="edge">
<title>Node1&#45;&gt;Node20</title>
<g id="a_edge28_Node000001_Node000020"><a xlink:title=" ">
<path fill="none" stroke="#63b8ff" d="M696.5,-328.97C656.77,-317.78 598.71,-301.43 562.88,-291.33"/>
<polygon fill="#63b8ff" stroke="#63b8ff" points="695.41,-332.3 705.99,-331.64 697.31,-325.56 695.41,-332.3"/>
</a>
</g>
</g>
<!-- Node21 -->
<g id="Node000021" class="node">
<title>Node21</title>
<g id="a_Node000021"><a xlink:href="stat_8h.html" target="_top" xlink:title=" ">
<polygon fill="white" stroke="#666666" points="209.27,-290.88 98.02,-290.88 98.02,-271.62 209.27,-271.62 209.27,-290.88"/>
<text text-anchor="middle" x="153.64" y="-277.38" font-family="Helvetica,sans-Serif" font-size="10.00">include/libc/sys/stat.h</text>
</a>
</g>
</g>
<!-- Node1&#45;&gt;Node21 -->
<g id="edge32_Node000001_Node000021" class="edge">
<title>Node1&#45;&gt;Node21</title>
<g id="a_edge32_Node000001_Node000021"><a xlink:title=" ">
<path fill="none" stroke="#63b8ff" d="M668.35,-337.55C568.52,-331.95 381.58,-319.33 223.64,-296.5 214.07,-295.12 203.83,-293.25 194.22,-291.33"/>
<polygon fill="#63b8ff" stroke="#63b8ff" points="668.11,-341.04 678.28,-338.1 668.49,-334.05 668.11,-341.04"/>
</a>
</g>
</g>
<!-- Node22 -->
<g id="Node000022" class="node">
<title>Node22</title>
<g id="a_Node000022"><a xlink:href="libc_2sys_2time_8h.html" target="_top" xlink:title=" ">
<polygon fill="white" stroke="#666666" points="398.39,-290.88 284.89,-290.88 284.89,-271.62 398.39,-271.62 398.39,-290.88"/>
<text text-anchor="middle" x="341.64" y="-277.38" font-family="Helvetica,sans-Serif" font-size="10.00">include/libc/sys/time.h</text>
</a>
</g>
</g>
<!-- Node1&#45;&gt;Node22 -->
<g id="edge37_Node000001_Node000022" class="edge">
<title>Node1&#45;&gt;Node22</title>
<g id="a_edge37_Node000001_Node000022"><a xlink:title=" ">
<path fill="none" stroke="#63b8ff" d="M668.8,-331.95C604.29,-323.4 506.43,-310 421.64,-296.5 411.75,-294.93 401.19,-293.13 391.1,-291.35"/>
<polygon fill="#63b8ff" stroke="#63b8ff" points="668.18,-335.39 678.55,-333.23 669.1,-328.45 668.18,-335.39"/>
</a>
</g>
</g>
<!-- Node23 -->
<g id="Node000023" class="node">
<title>Node23</title>
<g id="a_Node000023"><a xlink:href="libc_2time_8h.html" target="_top" xlink:title=" ">
<polygon fill="white" stroke="#666666" points="428.02,-224.38 333.27,-224.38 333.27,-205.12 428.02,-205.12 428.02,-224.38"/>
<text text-anchor="middle" x="380.64" y="-210.88" font-family="Helvetica,sans-Serif" font-size="10.00">include/libc/time.h</text>
</a>
</g>
</g>
<!-- Node1&#45;&gt;Node23 -->
<g id="edge41_Node000001_Node000023" class="edge">
<title>Node1&#45;&gt;Node23</title>
<g id="a_edge41_Node000001_Node000023"><a xlink:title=" ">
<path fill="none" stroke="#63b8ff" d="M668.85,-334.94C598.18,-327.87 495.13,-314.85 459.64,-296.5 426.02,-279.11 398.19,-242.05 386.53,-224.86"/>
<polygon fill="#63b8ff" stroke="#63b8ff" points="668.1,-338.39 678.39,-335.88 668.78,-331.42 668.1,-338.39"/>
</a>
</g>
</g>
<!-- Node24 -->
<g id="Node000024" class="node">
<title>Node24</title>
<g id="a_Node000024"><a xlink:href="vga__text_8h.html" target="_top" xlink:title=" ">
<polygon fill="white" stroke="#666666" points="1332.02,-296.5 1219.27,-296.5 1219.27,-266 1332.02,-266 1332.02,-296.5"/>
<text text-anchor="start" x="1227.27" y="-283" font-family="Helvetica,sans-Serif" font-size="10.00">src/kernel/arch/x86</text>
<text text-anchor="middle" x="1275.64" y="-271.75" font-family="Helvetica,sans-Serif" font-size="10.00">_64/drivers/vga_text.h</text>
</a>
</g>
</g>
<!-- Node1&#45;&gt;Node24 -->
<g id="edge42_Node000001_Node000024" class="edge">
<title>Node1&#45;&gt;Node24</title>
<g id="a_edge42_Node000001_Node000024"><a xlink:title=" ">
<path fill="none" stroke="#63b8ff" d="M810.71,-337C903.03,-331.04 1069.05,-318.27 1209.64,-296.5 1212.65,-296.03 1215.73,-295.51 1218.84,-294.96"/>
<polygon fill="#63b8ff" stroke="#63b8ff" points="810.54,-333.5 800.78,-337.63 810.99,-340.49 810.54,-333.5"/>
</a>
</g>
</g>
<!-- Node25 -->
<g id="Node000025" class="node">
<title>Node25</title>
<g id="a_Node000025"><a xlink:href="x86__64_2mmu_2alloc_8h.html" target="_top" xlink:title=" ">
<polygon fill="white" stroke="#666666" points="1589.27,-230 1490.02,-230 1490.02,-199.5 1589.27,-199.5 1589.27,-230"/>
<text text-anchor="start" x="1498.02" y="-216.5" font-family="Helvetica,sans-Serif" font-size="10.00">src/kernel/arch/x86</text>
<text text-anchor="middle" x="1539.64" y="-205.25" font-family="Helvetica,sans-Serif" font-size="10.00">_64/mmu/alloc.h</text>
</a>
</g>
</g>
<!-- Node1&#45;&gt;Node25 -->
<g id="edge43_Node000001_Node000025" class="edge">
<title>Node1&#45;&gt;Node25</title>
<g id="a_edge43_Node000001_Node000025"><a xlink:title=" ">
<path fill="none" stroke="#63b8ff" d="M810.32,-338.63C946.76,-333.37 1241.67,-319.65 1340.64,-296.5 1404.17,-281.64 1473.84,-249.36 1511.56,-230.42"/>
<polygon fill="#63b8ff" stroke="#63b8ff" points="810.57,-335.12 800.71,-339 810.84,-342.11 810.57,-335.12"/>
</a>
</g>
</g>
<!-- Node26 -->
<g id="Node000026" class="node">
<title>Node26</title>
<g id="a_Node000026"><a xlink:href="frame_8h.html" target="_top" xlink:title=" ">
<polygon fill="white" stroke="#666666" points="1589.27,-296.5 1490.02,-296.5 1490.02,-266 1589.27,-266 1589.27,-296.5"/>
<text text-anchor="start" x="1498.02" y="-283" font-family="Helvetica,sans-Serif" font-size="10.00">src/kernel/arch/x86</text>
<text text-anchor="middle" x="1539.64" y="-271.75" font-family="Helvetica,sans-Serif" font-size="10.00">_64/mmu/frame.h</text>
</a>
</g>
</g>
<!-- Node1&#45;&gt;Node26 -->
<g id="edge44_Node000001_Node000026" class="edge">
<title>Node1&#45;&gt;Node26</title>
<g id="a_edge44_Node000001_Node000026"><a xlink:title=" ">
<path fill="none" stroke="#63b8ff" d="M810.53,-337.87C934.99,-331.85 1200.86,-317.64 1424.64,-296.5 1445.97,-294.49 1469.46,-291.68 1489.61,-289.09"/>
<polygon fill="#63b8ff" stroke="#63b8ff" points="810.62,-334.36 800.8,-338.34 810.96,-341.35 810.62,-334.36"/>
</a>
</g>
</g>
<!-- Node27 -->
<g id="Node000027" class="node">
<title>Node27</title>
<g id="a_Node000027"><a xlink:href="paging_8h.html" target="_top" xlink:title=" ">
<polygon fill="white" stroke="#666666" points="1706.27,-230 1607.02,-230 1607.02,-199.5 1706.27,-199.5 1706.27,-230"/>
<text text-anchor="start" x="1615.02" y="-216.5" font-family="Helvetica,sans-Serif" font-size="10.00">src/kernel/arch/x86</text>
<text text-anchor="middle" x="1656.64" y="-205.25" font-family="Helvetica,sans-Serif" font-size="10.00">_64/mmu/paging.h</text>
</a>
</g>
</g>
<!-- Node1&#45;&gt;Node27 -->
<g id="edge47_Node000001_Node000027" class="edge">
<title>Node1&#45;&gt;Node27</title>
<g id="a_edge47_Node000001_Node000027"><a xlink:title=" ">
<path fill="none" stroke="#63b8ff" d="M810.7,-340.94C1004.15,-339.94 1530.37,-333.79 1598.64,-296.5 1625.3,-281.94 1642.72,-249.23 1651,-230.21"/>
<polygon fill="#63b8ff" stroke="#63b8ff" points="810.76,-337.44 800.78,-340.99 810.79,-344.44 810.76,-337.44"/>
</a>
</g>
</g>
<!-- Node4&#45;&gt;Node3 -->
<g id="edge4_Node000004_Node000003" class="edge">
<title>Node4&#45;&gt;Node3</title>
<g id="a_edge4_Node000004_Node000003"><a xlink:title=" ">
<path fill="none" stroke="#63b8ff" d="M972.04,-264.91C953.67,-252.43 928.36,-235.25 913.04,-224.85"/>
<polygon fill="#63b8ff" stroke="#63b8ff" points="969.94,-267.71 980.18,-270.43 973.87,-261.92 969.94,-267.71"/>
</a>
</g>
</g>
<!-- Node5 -->
<g id="Node000005" class="node">
<title>Node5</title>
<g id="a_Node000005"><a xlink:href="fs_2proc_8h.html" target="_top" xlink:title=" ">
<polygon fill="white" stroke="#666666" points="1218.27,-224.38 1101.02,-224.38 1101.02,-205.12 1218.27,-205.12 1218.27,-224.38"/>
<text text-anchor="middle" x="1159.64" y="-210.88" font-family="Helvetica,sans-Serif" font-size="10.00">include/kernel/fs/proc.h</text>
</a>
</g>
</g>
<!-- Node4&#45;&gt;Node5 -->
<g id="edge5_Node000004_Node000005" class="edge">
<title>Node4&#45;&gt;Node5</title>
<g id="a_edge5_Node000004_Node000005"><a xlink:title=" ">
<path fill="none" stroke="#63b8ff" d="M1028.63,-266.96C1060.86,-254.37 1108.39,-235.78 1136.47,-224.81"/>
<polygon fill="#63b8ff" stroke="#63b8ff" points="1027.38,-263.69 1019.34,-270.59 1029.93,-270.21 1027.38,-263.69"/>
</a>
</g>
</g>
<!-- Node6 -->
<g id="Node000006" class="node">
<title>Node6</title>
<g id="a_Node000006"><a xlink:href="sock_8h.html" target="_top" xlink:title=" ">
<polygon fill="white" stroke="#666666" points="1355.39,-224.38 1235.89,-224.38 1235.89,-205.12 1355.39,-205.12 1355.39,-224.38"/>
<text text-anchor="middle" x="1295.64" y="-210.88" font-family="Helvetica,sans-Serif" font-size="10.00">include/kernel/fs/sock.h</text>
</a>
</g>
</g>
<!-- Node4&#45;&gt;Node6 -->
<g id="edge6_Node000004_Node000006" class="edge">
<title>Node4&#45;&gt;Node6</title>
<g id="a_edge6_Node000004_Node000006"><a xlink:title=" ">
<path fill="none" stroke="#63b8ff" d="M1048.38,-268.73C1107.02,-256.17 1199.69,-236.31 1253.37,-224.81"/>
<polygon fill="#63b8ff" stroke="#63b8ff" points="1047.65,-265.31 1038.61,-270.83 1049.12,-272.16 1047.65,-265.31"/>
</a>
</g>
</g>
<!-- Node7 -->
<g id="Node000007" class="node">
<title>Node7</title>
<g id="a_Node000007"><a xlink:href="tar_8h.html" target="_top" xlink:title=" ">
<polygon fill="white" stroke="#666666" points="1083.14,-224.38 974.14,-224.38 974.14,-205.12 1083.14,-205.12 1083.14,-224.38"/>
<text text-anchor="middle" x="1028.64" y="-210.88" font-family="Helvetica,sans-Serif" font-size="10.00">include/kernel/fs/tar.h</text>
</a>
</g>
</g>
<!-- Node4&#45;&gt;Node7 -->
<g id="edge7_Node000004_Node000007" class="edge">
<title>Node4&#45;&gt;Node7</title>
<g id="a_edge7_Node000004_Node000007"><a xlink:title=" ">
<path fill="none" stroke="#63b8ff" d="M1004.65,-261.27C1011.03,-249.17 1019,-234.05 1023.95,-224.64"/>
<polygon fill="#63b8ff" stroke="#63b8ff" points="1001.64,-259.46 1000.07,-269.94 1007.83,-262.73 1001.64,-259.46"/>
</a>
</g>
</g>
<!-- Node4&#45;&gt;Node8 -->
<g id="edge8_Node000004_Node000008" class="edge">
<title>Node4&#45;&gt;Node8</title>
<g id="a_edge8_Node000004_Node000008"><a xlink:title=" ">
<path fill="none" stroke="#63b8ff" d="M1047.42,-269.03C1053.22,-267.94 1059.04,-266.9 1064.64,-266 1197.21,-244.59 1232.52,-254.06 1364.64,-230 1367.5,-229.48 1370.42,-228.9 1373.37,-228.29"/>
<polygon fill="#63b8ff" stroke="#63b8ff" points="1047,-265.55 1037.85,-270.89 1048.34,-272.42 1047,-265.55"/>
</a>
</g>
</g>
<!-- Node12 -->
<g id="Node000012" class="node">
<title>Node12</title>
<g id="a_Node000012"><a xlink:href="icmpv4_8h.html" target="_top" xlink:title=" ">
<polygon fill="white" stroke="#666666" points="638.89,-97 546.39,-97 546.39,-66.5 638.89,-66.5 638.89,-97"/>
<text text-anchor="start" x="554.39" y="-83.5" font-family="Helvetica,sans-Serif" font-size="10.00">include/kernel/net</text>
<text text-anchor="middle" x="592.64" y="-72.25" font-family="Helvetica,sans-Serif" font-size="10.00">/icmpv4.h</text>
</a>
</g>
</g>
<!-- Node11&#45;&gt;Node12 -->
<g id="edge12_Node000011_Node000012" class="edge">
<title>Node11&#45;&gt;Node12</title>
<g id="a_edge12_Node000011_Node000012"><a xlink:title=" ">
<path fill="none" stroke="#63b8ff" d="M640.73,-125.24C630.3,-116.03 618.46,-105.56 609.14,-97.33"/>
<polygon fill="#63b8ff" stroke="#63b8ff" points="638.13,-127.61 647.94,-131.61 642.76,-122.37 638.13,-127.61"/>
</a>
</g>
</g>
<!-- Node11&#45;&gt;Node13 -->
<g id="edge13_Node000011_Node000013" class="edge">
<title>Node11&#45;&gt;Node13</title>
<g id="a_edge13_Node000011_Node000013"><a xlink:title=" ">
<path fill="none" stroke="#63b8ff" d="M680.09,-122.73C685.13,-114.16 690.64,-104.82 695.05,-97.33"/>
<polygon fill="#63b8ff" stroke="#63b8ff" points="677.09,-120.92 675.03,-131.31 683.12,-124.47 677.09,-120.92"/>
</a>
</g>
</g>
<!-- Node13&#45;&gt;Node9 -->
<g id="edge14_Node000013_Node000009" class="edge">
<title>Node13&#45;&gt;Node9</title>
<g id="a_edge14_Node000013_Node000009"><a xlink:title=" ">
<path fill="none" stroke="#63b8ff" d="M659.74,-61.62C637.21,-51.8 610.21,-40.03 589.35,-30.94"/>
<polygon fill="#63b8ff" stroke="#63b8ff" points="658.1,-64.72 668.67,-65.51 660.9,-58.31 658.1,-64.72"/>
</a>
</g>
</g>
<!-- Node13&#45;&gt;Node10 -->
<g id="edge15_Node000013_Node000010" class="edge">
<title>Node13&#45;&gt;Node10</title>
<g id="a_edge15_Node000013_Node000010"><a xlink:title=" ">
<path fill="none" stroke="#63b8ff" d="M703.64,-54.81C703.64,-46.64 703.64,-37.91 703.64,-30.83"/>
<polygon fill="#63b8ff" stroke="#63b8ff" points="700.14,-54.6 703.64,-64.6 707.14,-54.6 700.14,-54.6"/>
</a>
</g>
</g>
<!-- Node13&#45;&gt;Node14 -->
<g id="edge16_Node000013_Node000014" class="edge">
<title>Node13&#45;&gt;Node14</title>
<g id="a_edge16_Node000013_Node000014"><a xlink:title=" ">
<path fill="none" stroke="#63b8ff" d="M738.69,-60.39C755.2,-50.79 774.53,-39.56 789.55,-30.83"/>
<polygon fill="#63b8ff" stroke="#63b8ff" points="737.02,-57.3 730.14,-65.35 740.54,-63.36 737.02,-57.3"/>
</a>
</g>
</g>
<!-- Node16&#45;&gt;Node11 -->
<g id="edge22_Node000016_Node000011" class="edge">
<title>Node16&#45;&gt;Node11</title>
<g id="a_edge22_Node000016_Node000011"><a xlink:title=" ">
<path fill="none" stroke="#63b8ff" d="M599.68,-198.15C613.77,-187.71 632.17,-174.06 645.96,-163.84"/>
<polygon fill="#63b8ff" stroke="#63b8ff" points="597.9,-195.11 591.95,-203.88 602.07,-200.74 597.9,-195.11"/>
</a>
</g>
</g>
<!-- Node16&#45;&gt;Node13 -->
<g id="edge23_Node000016_Node000013" class="edge">
<title>Node16&#45;&gt;Node13</title>
<g id="a_edge23_Node000016_Node000013"><a xlink:title=" ">
<path fill="none" stroke="#63b8ff" d="M582.52,-193.65C586.81,-175.93 595.25,-150.32 610.64,-133 624.66,-117.22 644.85,-105.48 662.84,-97.33"/>
<polygon fill="#63b8ff" stroke="#63b8ff" points="579.14,-192.69 580.45,-203.21 585.99,-194.17 579.14,-192.69"/>
</a>
</g>
</g>
<!-- Node16&#45;&gt;Node15 -->
<g id="edge24_Node000016_Node000015" class="edge">
<title>Node16&#45;&gt;Node15</title>
<g id="a_edge24_Node000016_Node000015"><a xlink:title=" ">
<path fill="none" stroke="#63b8ff" d="M510.4,-203.97C449.39,-194.84 357.69,-180.15 278.64,-163.5 275.89,-162.92 273.07,-162.3 270.24,-161.65"/>
<polygon fill="#63b8ff" stroke="#63b8ff" points="509.52,-207.38 519.92,-205.39 510.55,-200.46 509.52,-207.38"/>
</a>
</g>
</g>
<!-- Node16&#45;&gt;Node17 -->
<g id="edge25_Node000016_Node000017" class="edge">
<title>Node16&#45;&gt;Node17</title>
<g id="a_edge25_Node000016_Node000017"><a xlink:title=" ">
<path fill="none" stroke="#63b8ff" d="M535.41,-201.52C490.89,-188.93 422.56,-169.59 382.66,-158.31"/>
<polygon fill="#63b8ff" stroke="#63b8ff" points="534.43,-204.88 545,-204.23 536.33,-198.14 534.43,-204.88"/>
</a>
</g>
</g>
<!-- Node18 -->
<g id="Node000018" class="node">
<title>Node18</title>
<g id="a_Node000018"><a xlink:href="unistd_8h.html" target="_top" xlink:title=" ">
<polygon fill="white" stroke="#666666" points="401.77,-91.38 299.52,-91.38 299.52,-72.12 401.77,-72.12 401.77,-91.38"/>
<text text-anchor="middle" x="350.64" y="-77.88" font-family="Helvetica,sans-Serif" font-size="10.00">include/libc/unistd.h</text>
</a>
</g>
</g>
<!-- Node17&#45;&gt;Node18 -->
<g id="edge26_Node000017_Node000018" class="edge">
<title>Node17&#45;&gt;Node18</title>
<g id="a_edge26_Node000017_Node000018"><a xlink:title=" ">
<path fill="none" stroke="#63b8ff" d="M350.64,-126.77C350.64,-114.94 350.64,-100.66 350.64,-91.64"/>
<polygon fill="#63b8ff" stroke="#63b8ff" points="347.14,-126.77 350.64,-136.77 354.14,-126.77 347.14,-126.77"/>
</a>
</g>
</g>
<!-- Node20&#45;&gt;Node15 -->
<g id="edge29_Node000020_Node000015" class="edge">
<title>Node20&#45;&gt;Node15</title>
<g id="a_edge29_Node000020_Node000015"><a xlink:title=" ">
<path fill="none" stroke="#63b8ff" d="M510.46,-264.1C498.46,-254.39 483.02,-241.68 469.64,-230 454.59,-216.87 454.31,-208.81 436.64,-199.5 372.93,-165.92 348.66,-180.38 278.64,-163.5 275.91,-162.84 273.11,-162.16 270.28,-161.46"/>
<polygon fill="#63b8ff" stroke="#63b8ff" points="508.08,-266.68 518.06,-270.23 512.47,-261.23 508.08,-266.68"/>
</a>
</g>
</g>
<!-- Node20&#45;&gt;Node16 -->
<g id="edge30_Node000020_Node000016" class="edge">
<title>Node20&#45;&gt;Node16</title>
<g id="a_edge30_Node000020_Node000016"><a xlink:title=" ">
<path fill="none" stroke="#63b8ff" d="M543.95,-262.37C553.08,-250.1 564.81,-234.33 572.02,-224.64"/>
<polygon fill="#63b8ff" stroke="#63b8ff" points="541.38,-259.96 538.22,-270.07 547,-264.13 541.38,-259.96"/>
</a>
</g>
</g>
<!-- Node20&#45;&gt;Node17 -->
<g id="edge31_Node000020_Node000017" class="edge">
<title>Node20&#45;&gt;Node17</title>
<g id="a_edge31_Node000020_Node000017"><a xlink:title=" ">
<path fill="none" stroke="#63b8ff" d="M520.33,-261.37C509.68,-243.38 491.57,-216.58 469.64,-199.5 444.16,-179.66 409.69,-166.24 384.41,-158.29"/>
<polygon fill="#63b8ff" stroke="#63b8ff" points="517.22,-262.99 525.21,-269.95 523.31,-259.53 517.22,-262.99"/>
</a>
</g>
</g>
<!-- Node21&#45;&gt;Node2 -->
<g id="edge33_Node000021_Node000002" class="edge">
<title>Node21&#45;&gt;Node2</title>
<g id="a_edge33_Node000021_Node000002"><a xlink:title=" ">
<path fill="none" stroke="#63b8ff" d="M133.67,-264.35C120.61,-253.95 103.68,-240.47 90.96,-230.34"/>
<polygon fill="#63b8ff" stroke="#63b8ff" points="131.19,-266.85 141.19,-270.34 135.55,-261.37 131.19,-266.85"/>
</a>
</g>
</g>
<!-- Node21&#45;&gt;Node15 -->
<g id="edge34_Node000021_Node000015" class="edge">
<title>Node21&#45;&gt;Node15</title>
<g id="a_edge34_Node000021_Node000015"><a xlink:title=" ">
<path fill="none" stroke="#63b8ff" d="M157.09,-259.97C160.55,-243.02 166.95,-218.63 177.64,-199.5 185.18,-186.01 196.91,-173.07 206.5,-163.7"/>
<polygon fill="#63b8ff" stroke="#63b8ff" points="153.65,-259.31 155.26,-269.78 160.53,-260.59 153.65,-259.31"/>
</a>
</g>
</g>
<!-- Node21&#45;&gt;Node17 -->
<g id="edge35_Node000021_Node000017" class="edge">
<title>Node21&#45;&gt;Node17</title>
<g id="a_edge35_Node000021_Node000017"><a xlink:title=" ">
<path fill="none" stroke="#63b8ff" d="M164.03,-261.16C174.79,-243.02 193.15,-216.11 215.64,-199.5 243.4,-179 280.46,-166 308.73,-158.37"/>
<polygon fill="#63b8ff" stroke="#63b8ff" points="161,-259.42 159.1,-269.84 167.08,-262.88 161,-259.42"/>
</a>
</g>
</g>
<!-- Node22&#45;&gt;Node15 -->
<g id="edge38_Node000022_Node000015" class="edge">
<title>Node22&#45;&gt;Node15</title>
<g id="a_edge38_Node000022_Node000015"><a xlink:title=" ">
<path fill="none" stroke="#63b8ff" d="M325.73,-262.73C302,-236.61 257.79,-187.95 235.79,-163.72"/>
<polygon fill="#63b8ff" stroke="#63b8ff" points="323.13,-265.08 332.44,-270.13 328.31,-260.37 323.13,-265.08"/>
</a>
</g>
</g>
<!-- Node22&#45;&gt;Node17 -->
<g id="edge39_Node000022_Node000017" class="edge">
<title>Node22&#45;&gt;Node17</title>
<g id="a_edge39_Node000022_Node000017"><a xlink:title=" ">
<path fill="none" stroke="#63b8ff" d="M332.65,-260.81C326.24,-244.41 319.57,-220.33 324.64,-199.5 328.4,-184.04 337.82,-168.02 344.22,-158.35"/>
<polygon fill="#63b8ff" stroke="#63b8ff" points="329.37,-262.03 336.51,-269.85 335.81,-259.28 329.37,-262.03"/>
</a>
</g>
</g>
<!-- Node22&#45;&gt;Node23 -->
<g id="edge40_Node000022_Node000023" class="edge">
<title>Node22&#45;&gt;Node23</title>
<g id="a_edge40_Node000022_Node000023"><a xlink:title=" ">
<path fill="none" stroke="#63b8ff" d="M352.89,-261.64C360.25,-249.48 369.52,-234.14 375.26,-224.64"/>
<polygon fill="#63b8ff" stroke="#63b8ff" points="350.03,-259.62 347.85,-269.99 356.02,-263.24 350.03,-259.62"/>
</a>
</g>
</g>
<!-- Node26&#45;&gt;Node25 -->
<g id="edge45_Node000026_Node000025" class="edge">
<title>Node26&#45;&gt;Node25</title>
<g id="a_edge45_Node000026_Node000025"><a xlink:title=" ">
<path fill="none" stroke="#63b8ff" d="M1539.64,-254.31C1539.64,-246.14 1539.64,-237.41 1539.64,-230.33"/>
<polygon fill="#63b8ff" stroke="#63b8ff" points="1536.14,-254.1 1539.64,-264.1 1543.14,-254.1 1536.14,-254.1"/>
</a>
</g>
</g>
<!-- Node26&#45;&gt;Node27 -->
<g id="edge46_Node000026_Node000027" class="edge">
<title>Node26&#45;&gt;Node27</title>
<g id="a_edge46_Node000026_Node000027"><a xlink:title=" ">
<path fill="none" stroke="#63b8ff" d="M1576.09,-260.16C1593.6,-250.5 1614.21,-239.14 1630.2,-230.33"/>
<polygon fill="#63b8ff" stroke="#63b8ff" points="1574.58,-256.99 1567.52,-264.88 1577.96,-263.12 1574.58,-256.99"/>
</a>
</g>
</g>
</g>
</svg>
