<?xml version="1.0" encoding="UTF-8" standalone="no"?>
<!DOCTYPE svg PUBLIC "-//W3C//DTD SVG 1.1//EN"
 "http://www.w3.org/Graphics/SVG/1.1/DTD/svg11.dtd">
<!-- Generated by graphviz version 8.0.2 (20230410.1723)
 -->
<!-- Title: include/libc/sys/types.h Pages: 1 -->
<svg width="1722pt" height="363pt"
 viewBox="0.00 0.00 1721.75 363.00" xmlns="http://www.w3.org/2000/svg" xmlns:xlink="http://www.w3.org/1999/xlink">
<g id="graph0" class="graph" transform="scale(1 1) rotate(0) translate(4 359)">
<title>include/libc/sys/types.h</title>
<!-- Node1 -->
<g id="node1" class="node">
<title>Node1</title>
<g id="a_node1"><a xlink:title=" ">
<polygon fill="#bfbfbf" stroke="black" points="682.25,-335.5 682.25,-354.5 801.25,-354.5 801.25,-335.5 682.25,-335.5"/>
<text text-anchor="middle" x="741.75" y="-342.5" font-family="Helvetica,sans-Serif" font-size="10.00">include/libc/sys/types.h</text>
</a>
</g>
</g>
<!-- Node2 -->
<g id="node2" class="node">
<title>Node2</title>
<g id="a_node2"><a xlink:href="inish_8h.html" target="_top" xlink:title=" ">
<polygon fill="none" stroke="black" points="19.75,-201.5 19.75,-231.5 125.75,-231.5 125.75,-201.5 19.75,-201.5"/>
<text text-anchor="start" x="27.75" y="-219.5" font-family="Helvetica,sans-Serif" font-size="10.00">include/kernel/config</text>
<text text-anchor="middle" x="72.75" y="-208.5" font-family="Helvetica,sans-Serif" font-size="10.00">/inish.h</text>
</a>
</g>
</g>
<!-- Node1&#45;&gt;Node2 -->
<g id="edge1" class="edge">
<title>Node1&#45;&gt;Node2</title>
<path fill="none" stroke="midnightblue" d="M671.68,-343.9C512.03,-343.01 131.7,-336.89 88.75,-299 69.72,-282.21 69.29,-249.99 70.88,-231.48"/>
<polygon fill="midnightblue" stroke="midnightblue" points="671.31,-347.4 681.33,-343.95 671.34,-340.4 671.31,-347.4"/>
</g>
<!-- Node3 -->
<g id="node3" class="node">
<title>Node3</title>
<g id="a_node3"><a xlink:href="dev_8h.html" target="_top" xlink:title=" ">
<polygon fill="none" stroke="black" points="846.25,-207 846.25,-226 959.25,-226 959.25,-207 846.25,-207"/>
<text text-anchor="middle" x="902.75" y="-214" font-family="Helvetica,sans-Serif" font-size="10.00">include/kernel/fs/dev.h</text>
</a>
</g>
</g>
<!-- Node1&#45;&gt;Node3 -->
<g id="edge2" class="edge">
<title>Node1&#45;&gt;Node3</title>
<path fill="none" stroke="midnightblue" d="M774.24,-331.44C792.19,-323.63 814.31,-312.5 831.75,-299 860.53,-276.71 886.46,-241.4 897.34,-225.6"/>
<polygon fill="midnightblue" stroke="midnightblue" points="773.09,-328.55 765.22,-335.65 775.8,-335 773.09,-328.55"/>
</g>
<!-- Node4 -->
<g id="node4" class="node">
<title>Node4</title>
<g id="a_node4"><a xlink:href="vfs_8h.html" target="_top" xlink:title=" ">
<polygon fill="none" stroke="black" points="942.25,-274 942.25,-293 1055.25,-293 1055.25,-274 942.25,-274"/>
<text text-anchor="middle" x="998.75" y="-281" font-family="Helvetica,sans-Serif" font-size="10.00">include/kernel/fs/vfs.h</text>
</a>
</g>
</g>
<!-- Node1&#45;&gt;Node4 -->
<g id="edge3" class="edge">
<title>Node1&#45;&gt;Node4</title>
<path fill="none" stroke="midnightblue" d="M788.83,-333.1C838.83,-321.52 916.81,-303.47 962.32,-292.93"/>
<polygon fill="midnightblue" stroke="midnightblue" points="788.25,-329.87 779.3,-335.54 789.83,-336.69 788.25,-329.87"/>
</g>
<!-- Node8 -->
<g id="node8" class="node">
<title>Node8</title>
<g id="a_node8"><a xlink:href="descriptor_8h.html" target="_top" xlink:title=" ">
<polygon fill="none" stroke="black" points="1379.75,-201.5 1379.75,-231.5 1477.75,-231.5 1477.75,-201.5 1379.75,-201.5"/>
<text text-anchor="start" x="1387.75" y="-219.5" font-family="Helvetica,sans-Serif" font-size="10.00">include/kernel/proc</text>
<text text-anchor="middle" x="1428.75" y="-208.5" font-family="Helvetica,sans-Serif" font-size="10.00">/descriptor.h</text>
</a>
</g>
</g>
<!-- Node1&#45;&gt;Node8 -->
<g id="edge19" class="edge">
<title>Node1&#45;&gt;Node8</title>
<path fill="none" stroke="midnightblue" d="M811.6,-338.56C892.32,-331.53 1019.69,-317.9 1063.75,-299 1084.1,-290.27 1082.38,-276.67 1102.75,-268 1213.32,-220.92 1252.71,-254.61 1370.75,-232 1373.7,-231.43 1376.73,-230.81 1379.79,-230.15"/>
<polygon fill="midnightblue" stroke="midnightblue" points="811.69,-335.13 802.02,-339.47 812.29,-342.1 811.69,-335.13"/>
</g>
<!-- Node9 -->
<g id="node9" class="node">
<title>Node9</title>
<g id="a_node9"><a xlink:href="dhcp_8h.html" target="_top" xlink:title=" ">
<polygon fill="none" stroke="black" points="510.25,-0.5 510.25,-30.5 603.25,-30.5 603.25,-0.5 510.25,-0.5"/>
<text text-anchor="start" x="518.25" y="-18.5" font-family="Helvetica,sans-Serif" font-size="10.00">include/kernel/net</text>
<text text-anchor="middle" x="556.75" y="-7.5" font-family="Helvetica,sans-Serif" font-size="10.00">/dhcp.h</text>
</a>
</g>
</g>
<!-- Node1&#45;&gt;Node9 -->
<g id="edge9" class="edge">
<title>Node1&#45;&gt;Node9</title>
<path fill="none" stroke="midnightblue" d="M729.85,-326.95C724.04,-318.56 716.98,-308.29 710.75,-299 681.77,-255.8 680.11,-240.92 646.75,-201 604.01,-149.86 564.12,-159.21 537.75,-98 527.97,-75.32 539.56,-46.82 548.45,-30.23"/>
<polygon fill="midnightblue" stroke="midnightblue" points="727.39,-328.54 735.97,-334.75 733.14,-324.54 727.39,-328.54"/>
</g>
<!-- Node10 -->
<g id="node10" class="node">
<title>Node10</title>
<g id="a_node10"><a xlink:href="dns_8h.html" target="_top" xlink:title=" ">
<polygon fill="none" stroke="black" points="658.25,-0.5 658.25,-30.5 751.25,-30.5 751.25,-0.5 658.25,-0.5"/>
<text text-anchor="start" x="666.25" y="-18.5" font-family="Helvetica,sans-Serif" font-size="10.00">include/kernel/net</text>
<text text-anchor="middle" x="704.75" y="-7.5" font-family="Helvetica,sans-Serif" font-size="10.00">/dns.h</text>
</a>
</g>
</g>
<!-- Node1&#45;&gt;Node10 -->
<g id="edge10" class="edge">
<title>Node1&#45;&gt;Node10</title>
<path fill="none" stroke="midnightblue" d="M750.87,-325.82C762.12,-301.7 779.75,-257.49 779.75,-217.5 779.75,-217.5 779.75,-217.5 779.75,-148.5 779.75,-111.2 778.74,-99.1 759.75,-67 751.1,-52.39 736.9,-39.5 725.1,-30.41"/>
<polygon fill="midnightblue" stroke="midnightblue" points="747.31,-324.15 746.11,-334.67 753.61,-327.19 747.31,-324.15"/>
</g>
<!-- Node11 -->
<g id="node11" class="node">
<title>Node11</title>
<g id="a_node11"><a xlink:href="ipv4_8h.html" target="_top" xlink:title=" ">
<polygon fill="none" stroke="black" points="620.25,-134.5 620.25,-164.5 713.25,-164.5 713.25,-134.5 620.25,-134.5"/>
<text text-anchor="start" x="628.25" y="-152.5" font-family="Helvetica,sans-Serif" font-size="10.00">include/kernel/net</text>
<text text-anchor="middle" x="666.75" y="-141.5" font-family="Helvetica,sans-Serif" font-size="10.00">/ipv4.h</text>
</a>
</g>
</g>
<!-- Node1&#45;&gt;Node11 -->
<g id="edge11" class="edge">
<title>Node1&#45;&gt;Node11</title>
<path fill="none" stroke="midnightblue" d="M734.73,-325.9C719.86,-287.54 685.45,-198.76 672.14,-164.42"/>
<polygon fill="midnightblue" stroke="midnightblue" points="731.65,-326.63 738.52,-334.69 738.17,-324.1 731.65,-326.63"/>
</g>
<!-- Node13 -->
<g id="node13" class="node">
<title>Node13</title>
<g id="a_node13"><a xlink:href="udp_8h.html" target="_top" xlink:title=" ">
<polygon fill="none" stroke="black" points="658.25,-67.5 658.25,-97.5 751.25,-97.5 751.25,-67.5 658.25,-67.5"/>
<text text-anchor="start" x="666.25" y="-85.5" font-family="Helvetica,sans-Serif" font-size="10.00">include/kernel/net</text>
<text text-anchor="middle" x="704.75" y="-74.5" font-family="Helvetica,sans-Serif" font-size="10.00">/udp.h</text>
</a>
</g>
</g>
<!-- Node1&#45;&gt;Node13 -->
<g id="edge18" class="edge">
<title>Node1&#45;&gt;Node13</title>
<path fill="none" stroke="midnightblue" d="M741.4,-325.28C740.4,-288.31 736.55,-203.51 721.75,-134 719.05,-121.33 714.22,-107.42 710.39,-97.41"/>
<polygon fill="midnightblue" stroke="midnightblue" points="737.92,-324.97 741.64,-334.89 744.91,-324.81 737.92,-324.97"/>
</g>
<!-- Node14 -->
<g id="node14" class="node">
<title>Node14</title>
<g id="a_node14"><a xlink:href="ntp_8h.html" target="_top" xlink:title=" ">
<polygon fill="none" stroke="black" points="770.25,-0.5 770.25,-30.5 863.25,-30.5 863.25,-0.5 770.25,-0.5"/>
<text text-anchor="start" x="778.25" y="-18.5" font-family="Helvetica,sans-Serif" font-size="10.00">include/kernel/net</text>
<text text-anchor="middle" x="816.75" y="-7.5" font-family="Helvetica,sans-Serif" font-size="10.00">/ntp.h</text>
</a>
</g>
</g>
<!-- Node1&#45;&gt;Node14 -->
<g id="edge17" class="edge">
<title>Node1&#45;&gt;Node14</title>
<path fill="none" stroke="midnightblue" d="M759.2,-328.05C781.64,-305.7 817.75,-262.71 817.75,-217.5 817.75,-217.5 817.75,-217.5 817.75,-148.5 817.75,-105.42 817.21,-54.42 816.92,-30.37"/>
<polygon fill="midnightblue" stroke="midnightblue" points="757.16,-325.11 752.37,-334.56 762.01,-330.16 757.16,-325.11"/>
</g>
<!-- Node15 -->
<g id="node15" class="node">
<title>Node15</title>
<g id="a_node15"><a xlink:href="k__syscall_8h.html" target="_top" xlink:title=" ">
<polygon fill="none" stroke="black" points="174.25,-134.5 174.25,-164.5 269.25,-164.5 269.25,-134.5 174.25,-134.5"/>
<text text-anchor="start" x="182.25" y="-152.5" font-family="Helvetica,sans-Serif" font-size="10.00">include/kernel/sys</text>
<text text-anchor="middle" x="221.75" y="-141.5" font-family="Helvetica,sans-Serif" font-size="10.00">/k_syscall.h</text>
</a>
</g>
</g>
<!-- Node1&#45;&gt;Node15 -->
<g id="edge20" class="edge">
<title>Node1&#45;&gt;Node15</title>
<path fill="none" stroke="midnightblue" d="M671.57,-342.36C510.04,-338.14 121.68,-325.36 68.75,-299 23.44,-276.44 -20.6,-240.74 10.75,-201 30.75,-175.64 118.65,-161.6 174.5,-155.09"/>
<polygon fill="midnightblue" stroke="midnightblue" points="671.26,-345.87 681.34,-342.63 671.44,-338.88 671.26,-345.87"/>
</g>
<!-- Node16 -->
<g id="node16" class="node">
<title>Node16</title>
<g id="a_node16"><a xlink:href="inet_8h.html" target="_top" xlink:title=" ">
<polygon fill="none" stroke="black" points="523.75,-207 523.75,-226 637.75,-226 637.75,-207 523.75,-207"/>
<text text-anchor="middle" x="580.75" y="-214" font-family="Helvetica,sans-Serif" font-size="10.00">include/libc/arpa/inet.h</text>
</a>
</g>
</g>
<!-- Node1&#45;&gt;Node16 -->
<g id="edge21" class="edge">
<title>Node1&#45;&gt;Node16</title>
<path fill="none" stroke="midnightblue" d="M709.25,-331.44C691.3,-323.63 669.18,-312.5 651.75,-299 622.96,-276.71 597.03,-241.4 586.16,-225.6"/>
<polygon fill="midnightblue" stroke="midnightblue" points="707.7,-335 718.27,-335.65 710.41,-328.55 707.7,-335"/>
</g>
<!-- Node17 -->
<g id="node17" class="node">
<title>Node17</title>
<g id="a_node17"><a xlink:href="syscall_8h.html" target="_top" xlink:title=" ">
<polygon fill="none" stroke="black" points="287.75,-140 287.75,-159 413.75,-159 413.75,-140 287.75,-140"/>
<text text-anchor="middle" x="350.75" y="-147" font-family="Helvetica,sans-Serif" font-size="10.00">include/libc/sys/syscall.h</text>
</a>
</g>
</g>
<!-- Node1&#45;&gt;Node17 -->
<g id="edge36" class="edge">
<title>Node1&#45;&gt;Node17</title>
<path fill="none" stroke="midnightblue" d="M671.42,-342.31C547.74,-338.61 301.8,-327.69 275.75,-299 234.97,-254.1 311.56,-182.94 340.4,-158.81"/>
<polygon fill="midnightblue" stroke="midnightblue" points="671.18,-345.84 681.28,-342.63 671.39,-338.84 671.18,-345.84"/>
</g>
<!-- Node19 -->
<g id="node19" class="node">
<title>Node19</title>
<g id="a_node19"><a xlink:href="log_8h.html" target="_top" xlink:title=" ">
<polygon fill="none" stroke="black" points="1112.25,-268.5 1112.25,-298.5 1207.25,-298.5 1207.25,-268.5 1112.25,-268.5"/>
<text text-anchor="start" x="1120.25" y="-286.5" font-family="Helvetica,sans-Serif" font-size="10.00">include/libc/arvern</text>
<text text-anchor="middle" x="1159.75" y="-275.5" font-family="Helvetica,sans-Serif" font-size="10.00">/log.h</text>
</a>
</g>
</g>
<!-- Node1&#45;&gt;Node19 -->
<g id="edge27" class="edge">
<title>Node1&#45;&gt;Node19</title>
<path fill="none" stroke="midnightblue" d="M811.99,-337.3C884.03,-329.92 999.18,-316.71 1097.75,-299 1102.53,-298.14 1107.51,-297.15 1112.46,-296.09"/>
<polygon fill="midnightblue" stroke="midnightblue" points="811.84,-333.9 802.25,-338.39 812.55,-340.86 811.84,-333.9"/>
</g>
<!-- Node20 -->
<g id="node20" class="node">
<title>Node20</title>
<g id="a_node20"><a xlink:href="socket_8h.html" target="_top" xlink:title=" ">
<polygon fill="none" stroke="black" points="469.25,-274 469.25,-293 594.25,-293 594.25,-274 469.25,-274"/>
<text text-anchor="middle" x="531.75" y="-281" font-family="Helvetica,sans-Serif" font-size="10.00">include/libc/sys/socket.h</text>
</a>
</g>
</g>
<!-- Node1&#45;&gt;Node20 -->
<g id="edge28" class="edge">
<title>Node1&#45;&gt;Node20</title>
<path fill="none" stroke="midnightblue" d="M701.7,-332.65C660.82,-321.07 598.3,-303.36 561.58,-292.95"/>
<polygon fill="midnightblue" stroke="midnightblue" points="700.53,-336.24 711.11,-335.6 702.44,-329.51 700.53,-336.24"/>
</g>
<!-- Node21 -->
<g id="node21" class="node">
<title>Node21</title>
<g id="a_node21"><a xlink:href="stat_8h.html" target="_top" xlink:title=" ">
<polygon fill="none" stroke="black" points="97.75,-274 97.75,-293 209.75,-293 209.75,-274 97.75,-274"/>
<text text-anchor="middle" x="153.75" y="-281" font-family="Helvetica,sans-Serif" font-size="10.00">include/libc/sys/stat.h</text>
</a>
</g>
</g>
<!-- Node1&#45;&gt;Node21 -->
<g id="edge32" class="edge">
<title>Node1&#45;&gt;Node21</title>
<path fill="none" stroke="midnightblue" d="M671.59,-340.53C571.73,-334.99 383.01,-322.33 223.75,-299 212.94,-297.42 201.29,-295.21 190.66,-292.99"/>
<polygon fill="midnightblue" stroke="midnightblue" points="671.27,-344.07 681.45,-341.12 671.65,-337.08 671.27,-344.07"/>
</g>
<!-- Node22 -->
<g id="node22" class="node">
<title>Node22</title>
<g id="a_node22"><a xlink:href="libc_2sys_2time_8h.html" target="_top" xlink:title=" ">
<polygon fill="none" stroke="black" points="284.75,-274 284.75,-293 398.75,-293 398.75,-274 284.75,-274"/>
<text text-anchor="middle" x="341.75" y="-281" font-family="Helvetica,sans-Serif" font-size="10.00">include/libc/sys/time.h</text>
</a>
</g>
</g>
<!-- Node1&#45;&gt;Node22 -->
<g id="edge37" class="edge">
<title>Node1&#45;&gt;Node22</title>
<path fill="none" stroke="midnightblue" d="M671.86,-334.98C606.95,-326.42 507.67,-312.82 421.75,-299 410.32,-297.16 398.01,-295.01 386.54,-292.94"/>
<polygon fill="midnightblue" stroke="midnightblue" points="671,-338.53 681.37,-336.37 671.91,-331.59 671,-338.53"/>
</g>
<!-- Node23 -->
<g id="node23" class="node">
<title>Node23</title>
<g id="a_node23"><a xlink:href="libc_2time_8h.html" target="_top" xlink:title=" ">
<polygon fill="none" stroke="black" points="334.25,-207 334.25,-226 429.25,-226 429.25,-207 334.25,-207"/>
<text text-anchor="middle" x="381.75" y="-214" font-family="Helvetica,sans-Serif" font-size="10.00">include/libc/time.h</text>
</a>
</g>
</g>
<!-- Node1&#45;&gt;Node23 -->
<g id="edge41" class="edge">
<title>Node1&#45;&gt;Node23</title>
<path fill="none" stroke="midnightblue" d="M671.78,-337.97C600.54,-330.93 495.62,-317.8 459.75,-299 425.75,-281.18 398.09,-242.87 386.99,-225.9"/>
<polygon fill="midnightblue" stroke="midnightblue" points="671.18,-341.53 681.48,-339.01 671.86,-334.56 671.18,-341.53"/>
</g>
<!-- Node24 -->
<g id="node24" class="node">
<title>Node24</title>
<g id="a_node24"><a xlink:href="vga__text_8h.html" target="_top" xlink:title=" ">
<polygon fill="none" stroke="black" points="1225.25,-268.5 1225.25,-298.5 1338.25,-298.5 1338.25,-268.5 1225.25,-268.5"/>
<text text-anchor="start" x="1233.25" y="-286.5" font-family="Helvetica,sans-Serif" font-size="10.00">src/kernel/arch/x86</text>
<text text-anchor="middle" x="1281.75" y="-275.5" font-family="Helvetica,sans-Serif" font-size="10.00">_64/drivers/vga_text.h</text>
</a>
</g>
</g>
<!-- Node1&#45;&gt;Node24 -->
<g id="edge42" class="edge">
<title>Node1&#45;&gt;Node24</title>
<path fill="none" stroke="midnightblue" d="M812.1,-340C904.95,-334.12 1073.32,-321.32 1215.75,-299 1218.88,-298.51 1222.08,-297.96 1225.31,-297.37"/>
<polygon fill="midnightblue" stroke="midnightblue" points="811.92,-336.57 802.15,-340.69 812.35,-343.56 811.92,-336.57"/>
</g>
<!-- Node25 -->
<g id="node25" class="node">
<title>Node25</title>
<g id="a_node25"><a xlink:href="x86__64_2mmu_2alloc_8h.html" target="_top" xlink:title=" ">
<polygon fill="none" stroke="black" points="1495.75,-201.5 1495.75,-231.5 1595.75,-231.5 1595.75,-201.5 1495.75,-201.5"/>
<text text-anchor="start" x="1503.75" y="-219.5" font-family="Helvetica,sans-Serif" font-size="10.00">src/kernel/arch/x86</text>
<text text-anchor="middle" x="1545.75" y="-208.5" font-family="Helvetica,sans-Serif" font-size="10.00">_64/mmu/alloc.h</text>
</a>
</g>
</g>
<!-- Node1&#45;&gt;Node25 -->
<g id="edge43" class="edge">
<title>Node1&#45;&gt;Node25</title>
<path fill="none" stroke="midnightblue" d="M811.98,-341.54C948.92,-336.3 1246.93,-322.53 1346.75,-299 1411.43,-283.75 1482.37,-250.31 1519.6,-231.34"/>
<polygon fill="midnightblue" stroke="midnightblue" points="812.08,-338.08 802.22,-341.95 812.34,-345.07 812.08,-338.08"/>
</g>
<!-- Node26 -->
<g id="node26" class="node">
<title>Node26</title>
<g id="a_node26"><a xlink:href="frame_8h.html" target="_top" xlink:title=" ">
<polygon fill="none" stroke="black" points="1495.75,-268.5 1495.75,-298.5 1595.75,-298.5 1595.75,-268.5 1495.75,-268.5"/>
<text text-anchor="start" x="1503.75" y="-286.5" font-family="Helvetica,sans-Serif" font-size="10.00">src/kernel/arch/x86</text>
<text text-anchor="middle" x="1545.75" y="-275.5" font-family="Helvetica,sans-Serif" font-size="10.00">_64/mmu/frame.h</text>
</a>
</g>
</g>
<!-- Node1&#45;&gt;Node26 -->
<g id="edge44" class="edge">
<title>Node1&#45;&gt;Node26</title>
<path fill="none" stroke="midnightblue" d="M811.82,-340.85C936.62,-334.93 1205.56,-320.74 1431.75,-299 1452.8,-296.98 1475.96,-294.14 1495.88,-291.52"/>
<polygon fill="midnightblue" stroke="midnightblue" points="811.74,-337.4 801.92,-341.37 812.07,-344.39 811.74,-337.4"/>
</g>
<!-- Node27 -->
<g id="node27" class="node">
<title>Node27</title>
<g id="a_node27"><a xlink:href="paging_8h.html" target="_top" xlink:title=" ">
<polygon fill="none" stroke="black" points="1613.75,-201.5 1613.75,-231.5 1713.75,-231.5 1713.75,-201.5 1613.75,-201.5"/>
<text text-anchor="start" x="1621.75" y="-219.5" font-family="Helvetica,sans-Serif" font-size="10.00">src/kernel/arch/x86</text>
<text text-anchor="middle" x="1663.75" y="-208.5" font-family="Helvetica,sans-Serif" font-size="10.00">_64/mmu/paging.h</text>
</a>
</g>
</g>
<!-- Node1&#45;&gt;Node27 -->
<g id="edge47" class="edge">
<title>Node1&#45;&gt;Node27</title>
<path fill="none" stroke="midnightblue" d="M811.87,-343.79C1005.16,-342.74 1535.94,-336.42 1604.75,-299 1632.06,-284.14 1649.92,-250.55 1658.26,-231.45"/>
<polygon fill="midnightblue" stroke="midnightblue" points="811.98,-340.3 802,-343.85 812.01,-347.3 811.98,-340.3"/>
</g>
<!-- Node4&#45;&gt;Node3 -->
<g id="edge4" class="edge">
<title>Node4&#45;&gt;Node3</title>
<path fill="none" stroke="midnightblue" d="M977.33,-268C958.27,-255.09 931.04,-236.66 915.3,-226"/>
<polygon fill="midnightblue" stroke="midnightblue" points="974.95,-271.29 985.2,-274 978.88,-265.5 974.95,-271.29"/>
</g>
<!-- Node5 -->
<g id="node5" class="node">
<title>Node5</title>
<g id="a_node5"><a xlink:href="fs_2proc_8h.html" target="_top" xlink:title=" ">
<polygon fill="none" stroke="black" points="1105.75,-207 1105.75,-226 1223.75,-226 1223.75,-207 1105.75,-207"/>
<text text-anchor="middle" x="1164.75" y="-214" font-family="Helvetica,sans-Serif" font-size="10.00">include/kernel/fs/proc.h</text>
</a>
</g>
</g>
<!-- Node4&#45;&gt;Node5 -->
<g id="edge5" class="edge">
<title>Node4&#45;&gt;Node5</title>
<path fill="none" stroke="midnightblue" d="M1030.5,-270.07C1063.52,-257.14 1114.33,-237.24 1143.04,-226"/>
<polygon fill="midnightblue" stroke="midnightblue" points="1029.48,-267.1 1021.45,-274 1032.04,-273.62 1029.48,-267.1"/>
</g>
<!-- Node6 -->
<g id="node6" class="node">
<title>Node6</title>
<g id="a_node6"><a xlink:href="sock_8h.html" target="_top" xlink:title=" ">
<polygon fill="none" stroke="black" points="1241.75,-207 1241.75,-226 1361.75,-226 1361.75,-207 1241.75,-207"/>
<text text-anchor="middle" x="1301.75" y="-214" font-family="Helvetica,sans-Serif" font-size="10.00">include/kernel/fs/sock.h</text>
</a>
</g>
</g>
<!-- Node4&#45;&gt;Node6 -->
<g id="edge6" class="edge">
<title>Node4&#45;&gt;Node6</title>
<path fill="none" stroke="midnightblue" d="M1049.06,-271.71C1108.87,-258.88 1207.45,-237.73 1262.13,-226"/>
<polygon fill="midnightblue" stroke="midnightblue" points="1048.4,-268.48 1039.36,-274 1049.87,-275.33 1048.4,-268.48"/>
</g>
<!-- Node7 -->
<g id="node7" class="node">
<title>Node7</title>
<g id="a_node7"><a xlink:href="tar_8h.html" target="_top" xlink:title=" ">
<polygon fill="none" stroke="black" points="977.75,-207 977.75,-226 1087.75,-226 1087.75,-207 977.75,-207"/>
<text text-anchor="middle" x="1032.75" y="-214" font-family="Helvetica,sans-Serif" font-size="10.00">include/kernel/fs/tar.h</text>
</a>
</g>
</g>
<!-- Node4&#45;&gt;Node7 -->
<g id="edge7" class="edge">
<title>Node4&#45;&gt;Node7</title>
<path fill="none" stroke="midnightblue" d="M1008.18,-264.47C1014.8,-251.81 1023.34,-235.49 1028.41,-225.79"/>
<polygon fill="midnightblue" stroke="midnightblue" points="1004.73,-262.52 1003.19,-273 1010.93,-265.76 1004.73,-262.52"/>
</g>
<!-- Node4&#45;&gt;Node8 -->
<g id="edge8" class="edge">
<title>Node4&#45;&gt;Node8</title>
<path fill="none" stroke="midnightblue" d="M1047.88,-271.92C1055.19,-270.5 1062.65,-269.15 1069.75,-268 1202.75,-246.5 1238.24,-256.39 1370.75,-232 1373.71,-231.46 1376.74,-230.85 1379.79,-230.2"/>
<polygon fill="midnightblue" stroke="midnightblue" points="1047.46,-268.63 1038.33,-274.02 1048.82,-275.5 1047.46,-268.63"/>
</g>
<!-- Node12 -->
<g id="node12" class="node">
<title>Node12</title>
<g id="a_node12"><a xlink:href="icmpv4_8h.html" target="_top" xlink:title=" ">
<polygon fill="none" stroke="black" points="547.25,-67.5 547.25,-97.5 640.25,-97.5 640.25,-67.5 547.25,-67.5"/>
<text text-anchor="start" x="555.25" y="-85.5" font-family="Helvetica,sans-Serif" font-size="10.00">include/kernel/net</text>
<text text-anchor="middle" x="593.75" y="-74.5" font-family="Helvetica,sans-Serif" font-size="10.00">/icmpv4.h</text>
</a>
</g>
</g>
<!-- Node11&#45;&gt;Node12 -->
<g id="edge12" class="edge">
<title>Node11&#45;&gt;Node12</title>
<path fill="none" stroke="midnightblue" d="M643.25,-127.58C632.2,-117.73 619.31,-106.26 609.46,-97.49"/>
<polygon fill="midnightblue" stroke="midnightblue" points="640.47,-129.68 650.27,-133.72 645.13,-124.45 640.47,-129.68"/>
</g>
<!-- Node11&#45;&gt;Node13 -->
<g id="edge13" class="edge">
<title>Node11&#45;&gt;Node13</title>
<path fill="none" stroke="midnightblue" d="M680.22,-125.46C685.73,-116.04 691.92,-105.45 696.7,-97.26"/>
<polygon fill="midnightblue" stroke="midnightblue" points="676.83,-123.32 674.81,-133.72 682.88,-126.85 676.83,-123.32"/>
</g>
<!-- Node13&#45;&gt;Node9 -->
<g id="edge14" class="edge">
<title>Node13&#45;&gt;Node9</title>
<path fill="none" stroke="midnightblue" d="M663.22,-63.26C639.52,-52.85 610.28,-40.01 588.44,-30.42"/>
<polygon fill="midnightblue" stroke="midnightblue" points="661.43,-66.74 672,-67.56 664.25,-60.33 661.43,-66.74"/>
</g>
<!-- Node13&#45;&gt;Node10 -->
<g id="edge15" class="edge">
<title>Node13&#45;&gt;Node10</title>
<path fill="none" stroke="midnightblue" d="M704.75,-56.97C704.75,-47.93 704.75,-38.02 704.75,-30.26"/>
<polygon fill="midnightblue" stroke="midnightblue" points="701.25,-56.72 704.75,-66.72 708.25,-56.72 701.25,-56.72"/>
</g>
<!-- Node13&#45;&gt;Node14 -->
<g id="edge16" class="edge">
<title>Node13&#45;&gt;Node14</title>
<path fill="none" stroke="midnightblue" d="M738.11,-62.14C755.68,-51.94 776.82,-39.67 792.76,-30.42"/>
<polygon fill="midnightblue" stroke="midnightblue" points="736.67,-59.51 729.77,-67.56 740.18,-65.56 736.67,-59.51"/>
</g>
<!-- Node16&#45;&gt;Node11 -->
<g id="edge22" class="edge">
<title>Node16&#45;&gt;Node11</title>
<path fill="none" stroke="midnightblue" d="M600.62,-200.48C614.98,-189.63 634.24,-175.07 648.27,-164.47"/>
<polygon fill="midnightblue" stroke="midnightblue" points="598.86,-198.18 592.99,-207 603.08,-203.76 598.86,-198.18"/>
</g>
<!-- Node16&#45;&gt;Node13 -->
<g id="edge23" class="edge">
<title>Node16&#45;&gt;Node13</title>
<path fill="none" stroke="midnightblue" d="M583.73,-196.59C587.4,-178.69 595.16,-151.94 610.75,-134 625.08,-117.5 646.18,-105.48 664.75,-97.32"/>
<polygon fill="midnightblue" stroke="midnightblue" points="580.12,-195.9 581.8,-206.36 587.01,-197.13 580.12,-195.9"/>
</g>
<!-- Node16&#45;&gt;Node15 -->
<g id="edge24" class="edge">
<title>Node16&#45;&gt;Node15</title>
<path fill="none" stroke="midnightblue" d="M513.28,-205.87C451.88,-196.71 358.86,-181.86 278.75,-165 275.55,-164.33 272.26,-163.6 268.95,-162.83"/>
<polygon fill="midnightblue" stroke="midnightblue" points="512.58,-209.45 522.99,-207.45 513.61,-202.53 512.58,-209.45"/>
</g>
<!-- Node16&#45;&gt;Node17 -->
<g id="edge25" class="edge">
<title>Node16&#45;&gt;Node17</title>
<path fill="none" stroke="midnightblue" d="M540.27,-204.06C494.68,-191.18 421.64,-170.53 380.82,-159"/>
<polygon fill="midnightblue" stroke="midnightblue" points="539.1,-207.65 549.68,-207 541.01,-200.91 539.1,-207.65"/>
</g>
<!-- Node18 -->
<g id="node18" class="node">
<title>Node18</title>
<g id="a_node18"><a xlink:href="unistd_8h.html" target="_top" xlink:title=" ">
<polygon fill="none" stroke="black" points="299.25,-73 299.25,-92 402.25,-92 402.25,-73 299.25,-73"/>
<text text-anchor="middle" x="350.75" y="-80" font-family="Helvetica,sans-Serif" font-size="10.00">include/libc/unistd.h</text>
</a>
</g>
</g>
<!-- Node17&#45;&gt;Node18 -->
<g id="edge26" class="edge">
<title>Node17&#45;&gt;Node18</title>
<path fill="none" stroke="midnightblue" d="M350.75,-129.32C350.75,-116.84 350.75,-101.2 350.75,-91.79"/>
<polygon fill="midnightblue" stroke="midnightblue" points="347.25,-129 350.75,-139 354.25,-129 347.25,-129"/>
</g>
<!-- Node20&#45;&gt;Node15 -->
<g id="edge29" class="edge">
<title>Node20&#45;&gt;Node15</title>
<path fill="none" stroke="midnightblue" d="M513.17,-267.19C501.24,-257.27 485.46,-244.01 471.75,-232 456.37,-218.52 455.88,-210.46 437.75,-201 373.51,-167.48 349.2,-181.93 278.75,-165 275.57,-164.24 272.3,-163.44 269,-162.62"/>
<polygon fill="midnightblue" stroke="midnightblue" points="510.52,-270.36 520.45,-274.04 514.98,-264.97 510.52,-270.36"/>
</g>
<!-- Node20&#45;&gt;Node16 -->
<g id="edge30" class="edge">
<title>Node20&#45;&gt;Node16</title>
<path fill="none" stroke="midnightblue" d="M544.77,-265.22C554.39,-252.47 567.04,-235.68 574.5,-225.79"/>
<polygon fill="midnightblue" stroke="midnightblue" points="541.38,-262.91 538.15,-273 546.97,-267.12 541.38,-262.91"/>
</g>
<!-- Node20&#45;&gt;Node17 -->
<g id="edge31" class="edge">
<title>Node20&#45;&gt;Node17</title>
<path fill="none" stroke="midnightblue" d="M522.36,-264.52C512.08,-246.35 494.05,-218.52 471.75,-201 445.43,-180.33 409.44,-166.75 383.56,-158.93"/>
<polygon fill="midnightblue" stroke="midnightblue" points="519.76,-266.06 527.61,-273.18 525.91,-262.72 519.76,-266.06"/>
</g>
<!-- Node21&#45;&gt;Node2 -->
<g id="edge33" class="edge">
<title>Node21&#45;&gt;Node2</title>
<path fill="none" stroke="midnightblue" d="M134.65,-267.17C121.16,-256.35 103.24,-241.97 90.15,-231.47"/>
<polygon fill="midnightblue" stroke="midnightblue" points="132.17,-270.47 142.16,-274 136.55,-265.01 132.17,-270.47"/>
</g>
<!-- Node21&#45;&gt;Node15 -->
<g id="edge34" class="edge">
<title>Node21&#45;&gt;Node15</title>
<path fill="none" stroke="midnightblue" d="M156.91,-263.65C160.32,-246.53 166.79,-220.98 177.75,-201 185.35,-187.13 197.29,-173.75 206.82,-164.25"/>
<polygon fill="midnightblue" stroke="midnightblue" points="153.29,-262.96 154.94,-273.42 160.18,-264.21 153.29,-262.96"/>
</g>
<!-- Node21&#45;&gt;Node17 -->
<g id="edge35" class="edge">
<title>Node21&#45;&gt;Node17</title>
<path fill="none" stroke="midnightblue" d="M163.3,-264.61C173.91,-246.31 192.61,-218.2 215.75,-201 244.37,-179.73 282.95,-166.49 311.54,-158.93"/>
<polygon fill="midnightblue" stroke="midnightblue" points="159.83,-262.66 158.03,-273.09 165.95,-266.06 159.83,-262.66"/>
</g>
<!-- Node22&#45;&gt;Node15 -->
<g id="edge38" class="edge">
<title>Node22&#45;&gt;Node15</title>
<path fill="none" stroke="midnightblue" d="M327.14,-266.43C303.41,-240.33 256.9,-189.16 234.46,-164.48"/>
<polygon fill="midnightblue" stroke="midnightblue" points="323.92,-268.2 333.24,-273.24 329.1,-263.49 323.92,-268.2"/>
</g>
<!-- Node22&#45;&gt;Node17 -->
<g id="edge39" class="edge">
<title>Node22&#45;&gt;Node17</title>
<path fill="none" stroke="midnightblue" d="M333.35,-264.42C326.76,-247.85 319.49,-222.69 324.75,-201 328.6,-185.09 338.39,-168.58 344.8,-158.94"/>
<polygon fill="midnightblue" stroke="midnightblue" points="330.47,-265.57 337.65,-273.36 336.9,-262.8 330.47,-265.57"/>
</g>
<!-- Node22&#45;&gt;Node23 -->
<g id="edge40" class="edge">
<title>Node22&#45;&gt;Node23</title>
<path fill="none" stroke="midnightblue" d="M352.61,-264.84C360.43,-252.14 370.62,-235.59 376.64,-225.79"/>
<polygon fill="midnightblue" stroke="midnightblue" points="349.24,-262.65 346.98,-273 355.2,-266.32 349.24,-262.65"/>
</g>
<!-- Node26&#45;&gt;Node25 -->
<g id="edge45" class="edge">
<title>Node26&#45;&gt;Node25</title>
<path fill="none" stroke="midnightblue" d="M1545.75,-257.97C1545.75,-248.93 1545.75,-239.02 1545.75,-231.26"/>
<polygon fill="midnightblue" stroke="midnightblue" points="1542.25,-257.72 1545.75,-267.72 1549.25,-257.72 1542.25,-257.72"/>
</g>
<!-- Node26&#45;&gt;Node27 -->
<g id="edge46" class="edge">
<title>Node26&#45;&gt;Node27</title>
<path fill="none" stroke="midnightblue" d="M1580.64,-263.28C1599.2,-253.05 1621.61,-240.71 1638.48,-231.42"/>
<polygon fill="midnightblue" stroke="midnightblue" points="1579.13,-260.67 1572.06,-268.56 1582.51,-266.8 1579.13,-260.67"/>
</g>
</g>
</svg>
