<?xml version="1.0" encoding="UTF-8" standalone="no"?>
<!DOCTYPE svg PUBLIC "-//W3C//DTD SVG 1.1//EN"
 "http://www.w3.org/Graphics/SVG/1.1/DTD/svg11.dtd">
<!-- Generated by graphviz version 2.49.3 (20211023.0002)
 -->
<!-- Title: include/libc/sys/types.h Pages: 1 -->
<svg width="1971pt" height="363pt"
 viewBox="0.00 0.00 1971.00 363.00" xmlns="http://www.w3.org/2000/svg" xmlns:xlink="http://www.w3.org/1999/xlink">
<g id="graph0" class="graph" transform="scale(1 1) rotate(0) translate(4 359)">
<title>include/libc/sys/types.h</title>
<!-- Node1 -->
<g id="node1" class="node">
<title>Node1</title>
<g id="a_node1"><a xlink:title=" ">
<polygon fill="#bfbfbf" stroke="black" points="1042,-335.5 1042,-354.5 1161,-354.5 1161,-335.5 1042,-335.5"/>
<text text-anchor="middle" x="1101.5" y="-342.5" font-family="Helvetica,sans-Serif" font-size="10.00">include/libc/sys/types.h</text>
</a>
</g>
</g>
<!-- Node2 -->
<g id="node2" class="node">
<title>Node2</title>
<g id="a_node2"><a xlink:href="inish_8h.html" target="_top" xlink:title=" ">
<polygon fill="none" stroke="black" points="1161.5,-201.5 1161.5,-231.5 1269.5,-231.5 1269.5,-201.5 1161.5,-201.5"/>
<text text-anchor="start" x="1169.5" y="-219.5" font-family="Helvetica,sans-Serif" font-size="10.00">include/kernel/config</text>
<text text-anchor="middle" x="1215.5" y="-208.5" font-family="Helvetica,sans-Serif" font-size="10.00">/inish.h</text>
</a>
</g>
</g>
<!-- Node1&#45;&gt;Node2 -->
<g id="edge1" class="edge">
<title>Node1&#45;&gt;Node2</title>
<path fill="none" stroke="midnightblue" d="M1112.92,-326.77C1123.83,-310.84 1141.12,-286.86 1158.5,-268 1170.69,-254.78 1186.01,-241.35 1197.7,-231.67"/>
<polygon fill="midnightblue" stroke="midnightblue" points="1109.98,-324.87 1107.29,-335.12 1115.79,-328.79 1109.98,-324.87"/>
</g>
<!-- Node3 -->
<g id="node3" class="node">
<title>Node3</title>
<g id="a_node3"><a xlink:href="dev_8h.html" target="_top" xlink:title=" ">
<polygon fill="none" stroke="black" points="0,-207 0,-226 115,-226 115,-207 0,-207"/>
<text text-anchor="middle" x="57.5" y="-214" font-family="Helvetica,sans-Serif" font-size="10.00">include/kernel/fs/dev.h</text>
</a>
</g>
</g>
<!-- Node1&#45;&gt;Node3 -->
<g id="edge2" class="edge">
<title>Node1&#45;&gt;Node3</title>
<path fill="none" stroke="midnightblue" d="M1031.85,-342.09C867.5,-337.25 459.26,-323.11 324.5,-299 230.99,-282.27 124.16,-243.38 79.22,-226.08"/>
<polygon fill="midnightblue" stroke="midnightblue" points="1031.75,-345.59 1041.84,-342.38 1031.95,-338.59 1031.75,-345.59"/>
</g>
<!-- Node4 -->
<g id="node4" class="node">
<title>Node4</title>
<g id="a_node4"><a xlink:href="vfs_8h.html" target="_top" xlink:title=" ">
<polygon fill="none" stroke="black" points="334,-274 334,-293 447,-293 447,-274 334,-274"/>
<text text-anchor="middle" x="390.5" y="-281" font-family="Helvetica,sans-Serif" font-size="10.00">include/kernel/fs/vfs.h</text>
</a>
</g>
</g>
<!-- Node1&#45;&gt;Node4 -->
<g id="edge3" class="edge">
<title>Node1&#45;&gt;Node4</title>
<path fill="none" stroke="midnightblue" d="M1031.57,-338.15C890.88,-326.37 576.09,-300.03 447.19,-289.24"/>
<polygon fill="midnightblue" stroke="midnightblue" points="1031.54,-341.66 1041.8,-339 1032.13,-334.68 1031.54,-341.66"/>
</g>
<!-- Node8 -->
<g id="node8" class="node">
<title>Node8</title>
<g id="a_node8"><a xlink:href="descriptor_8h.html" target="_top" xlink:title=" ">
<polygon fill="none" stroke="black" points="537.5,-201.5 537.5,-231.5 637.5,-231.5 637.5,-201.5 537.5,-201.5"/>
<text text-anchor="start" x="545.5" y="-219.5" font-family="Helvetica,sans-Serif" font-size="10.00">include/kernel/proc</text>
<text text-anchor="middle" x="587.5" y="-208.5" font-family="Helvetica,sans-Serif" font-size="10.00">/descriptor.h</text>
</a>
</g>
</g>
<!-- Node1&#45;&gt;Node8 -->
<g id="edge18" class="edge">
<title>Node1&#45;&gt;Node8</title>
<path fill="none" stroke="midnightblue" d="M1031.6,-343.61C921.88,-341.9 715.16,-333.98 651.5,-299 623.59,-283.67 603.68,-250.58 594.05,-231.61"/>
<polygon fill="midnightblue" stroke="midnightblue" points="1031.86,-347.11 1041.91,-343.75 1031.96,-340.11 1031.86,-347.11"/>
</g>
<!-- Node9 -->
<g id="node9" class="node">
<title>Node9</title>
<g id="a_node9"><a xlink:href="dhcp_8h.html" target="_top" xlink:title=" ">
<polygon fill="none" stroke="black" points="619,-0.5 619,-30.5 714,-30.5 714,-0.5 619,-0.5"/>
<text text-anchor="start" x="627" y="-18.5" font-family="Helvetica,sans-Serif" font-size="10.00">include/kernel/net</text>
<text text-anchor="middle" x="666.5" y="-7.5" font-family="Helvetica,sans-Serif" font-size="10.00">/dhcp.h</text>
</a>
</g>
</g>
<!-- Node1&#45;&gt;Node9 -->
<g id="edge9" class="edge">
<title>Node1&#45;&gt;Node9</title>
<path fill="none" stroke="midnightblue" d="M1031.77,-339.35C946.97,-332.91 809.35,-319.66 762.5,-299 710.98,-276.28 665.5,-273.81 665.5,-217.5 665.5,-217.5 665.5,-217.5 665.5,-148.5 665.5,-105.64 666.03,-54.97 666.32,-30.76"/>
<polygon fill="midnightblue" stroke="midnightblue" points="1031.6,-342.85 1041.84,-340.11 1032.13,-335.87 1031.6,-342.85"/>
</g>
<!-- Node10 -->
<g id="node10" class="node">
<title>Node10</title>
<g id="a_node10"><a xlink:href="dns_8h.html" target="_top" xlink:title=" ">
<polygon fill="none" stroke="black" points="733,-0.5 733,-30.5 828,-30.5 828,-0.5 733,-0.5"/>
<text text-anchor="start" x="741" y="-18.5" font-family="Helvetica,sans-Serif" font-size="10.00">include/kernel/net</text>
<text text-anchor="middle" x="780.5" y="-7.5" font-family="Helvetica,sans-Serif" font-size="10.00">/dns.h</text>
</a>
</g>
</g>
<!-- Node1&#45;&gt;Node10 -->
<g id="edge10" class="edge">
<title>Node1&#45;&gt;Node10</title>
<path fill="none" stroke="midnightblue" d="M1031.73,-335.53C982.04,-328.18 920.77,-316.04 901.5,-299 821.19,-227.98 890.49,-159.02 835.5,-67 826.86,-52.53 812.81,-39.74 801.07,-30.65"/>
<polygon fill="midnightblue" stroke="midnightblue" points="1031.43,-339.02 1041.82,-336.98 1032.42,-332.09 1031.43,-339.02"/>
</g>
<!-- Node11 -->
<g id="node11" class="node">
<title>Node11</title>
<g id="a_node11"><a xlink:href="ipv4_8h.html" target="_top" xlink:title=" ">
<polygon fill="none" stroke="black" points="732,-134.5 732,-164.5 827,-164.5 827,-134.5 732,-134.5"/>
<text text-anchor="start" x="740" y="-152.5" font-family="Helvetica,sans-Serif" font-size="10.00">include/kernel/net</text>
<text text-anchor="middle" x="779.5" y="-141.5" font-family="Helvetica,sans-Serif" font-size="10.00">/ipv4.h</text>
</a>
</g>
</g>
<!-- Node1&#45;&gt;Node11 -->
<g id="edge11" class="edge">
<title>Node1&#45;&gt;Node11</title>
<path fill="none" stroke="midnightblue" d="M1031.9,-340.35C962.18,-335.33 861.09,-323.9 831.5,-299 790.12,-264.18 781.64,-194.39 779.93,-164.55"/>
<polygon fill="midnightblue" stroke="midnightblue" points="1031.73,-343.84 1041.94,-341.04 1032.21,-336.86 1031.73,-343.84"/>
</g>
<!-- Node12 -->
<g id="node12" class="node">
<title>Node12</title>
<g id="a_node12"><a xlink:href="udp_8h.html" target="_top" xlink:title=" ">
<polygon fill="none" stroke="black" points="732,-67.5 732,-97.5 827,-97.5 827,-67.5 732,-67.5"/>
<text text-anchor="start" x="740" y="-85.5" font-family="Helvetica,sans-Serif" font-size="10.00">include/kernel/net</text>
<text text-anchor="middle" x="779.5" y="-74.5" font-family="Helvetica,sans-Serif" font-size="10.00">/udp.h</text>
</a>
</g>
</g>
<!-- Node1&#45;&gt;Node12 -->
<g id="edge17" class="edge">
<title>Node1&#45;&gt;Node12</title>
<path fill="none" stroke="midnightblue" d="M1032,-340.28C955.92,-335.05 839.89,-323.29 803.5,-299 745.62,-260.37 741.19,-232.03 722.5,-165 718.8,-151.73 716.85,-146.56 722.5,-134 729.34,-118.81 743.25,-106.34 755.62,-97.59"/>
<polygon fill="midnightblue" stroke="midnightblue" points="1031.78,-343.77 1041.99,-340.95 1032.25,-336.79 1031.78,-343.77"/>
</g>
<!-- Node13 -->
<g id="node13" class="node">
<title>Node13</title>
<g id="a_node13"><a xlink:href="ntp_8h.html" target="_top" xlink:title=" ">
<polygon fill="none" stroke="black" points="846,-0.5 846,-30.5 941,-30.5 941,-0.5 846,-0.5"/>
<text text-anchor="start" x="854" y="-18.5" font-family="Helvetica,sans-Serif" font-size="10.00">include/kernel/net</text>
<text text-anchor="middle" x="893.5" y="-7.5" font-family="Helvetica,sans-Serif" font-size="10.00">/ntp.h</text>
</a>
</g>
</g>
<!-- Node1&#45;&gt;Node13 -->
<g id="edge16" class="edge">
<title>Node1&#45;&gt;Node13</title>
<path fill="none" stroke="midnightblue" d="M1031.74,-339.58C998.12,-334.21 959.18,-322.82 931.5,-299 850.85,-229.6 878.86,-77.51 889.91,-30.58"/>
<polygon fill="midnightblue" stroke="midnightblue" points="1031.59,-343.09 1041.98,-341.06 1032.59,-336.16 1031.59,-343.09"/>
</g>
<!-- Node14 -->
<g id="node14" class="node">
<title>Node14</title>
<g id="a_node14"><a xlink:href="k__syscall_8h.html" target="_top" xlink:title=" ">
<polygon fill="none" stroke="black" points="1290.5,-134.5 1290.5,-164.5 1386.5,-164.5 1386.5,-134.5 1290.5,-134.5"/>
<text text-anchor="start" x="1298.5" y="-152.5" font-family="Helvetica,sans-Serif" font-size="10.00">include/kernel/sys</text>
<text text-anchor="middle" x="1338.5" y="-141.5" font-family="Helvetica,sans-Serif" font-size="10.00">/k_syscall.h</text>
</a>
</g>
</g>
<!-- Node1&#45;&gt;Node14 -->
<g id="edge19" class="edge">
<title>Node1&#45;&gt;Node14</title>
<path fill="none" stroke="midnightblue" d="M1171.51,-343.67C1250.94,-341.64 1373.29,-332.9 1402.5,-299 1438.23,-257.53 1382.4,-193.07 1353.76,-164.71"/>
<polygon fill="midnightblue" stroke="midnightblue" points="1171,-340.19 1161.08,-343.91 1171.16,-347.18 1171,-340.19"/>
</g>
<!-- Node15 -->
<g id="node15" class="node">
<title>Node15</title>
<g id="a_node15"><a xlink:href="inet_8h.html" target="_top" xlink:title=" ">
<polygon fill="none" stroke="black" points="911.5,-207 911.5,-226 1027.5,-226 1027.5,-207 911.5,-207"/>
<text text-anchor="middle" x="969.5" y="-214" font-family="Helvetica,sans-Serif" font-size="10.00">include/libc/arpa/inet.h</text>
</a>
</g>
</g>
<!-- Node1&#45;&gt;Node15 -->
<g id="edge20" class="edge">
<title>Node1&#45;&gt;Node15</title>
<path fill="none" stroke="midnightblue" d="M1034.29,-333.56C995.53,-326.02 952.22,-314.44 940.5,-299 923.16,-276.15 947.84,-242.03 961.49,-226.17"/>
<polygon fill="midnightblue" stroke="midnightblue" points="1034.07,-337.08 1044.54,-335.49 1035.36,-330.2 1034.07,-337.08"/>
</g>
<!-- Node16 -->
<g id="node16" class="node">
<title>Node16</title>
<g id="a_node16"><a xlink:href="syscall_8h.html" target="_top" xlink:title=" ">
<polygon fill="none" stroke="black" points="1069,-140 1069,-159 1194,-159 1194,-140 1069,-140"/>
<text text-anchor="middle" x="1131.5" y="-147" font-family="Helvetica,sans-Serif" font-size="10.00">include/libc/sys/syscall.h</text>
</a>
</g>
</g>
<!-- Node1&#45;&gt;Node16 -->
<g id="edge35" class="edge">
<title>Node1&#45;&gt;Node16</title>
<path fill="none" stroke="midnightblue" d="M1104.36,-325.55C1110.66,-284.94 1125.52,-189.07 1130.12,-159.41"/>
<polygon fill="midnightblue" stroke="midnightblue" points="1100.9,-325.02 1102.83,-335.44 1107.82,-326.09 1100.9,-325.02"/>
</g>
<!-- Node18 -->
<g id="node18" class="node">
<title>Node18</title>
<g id="a_node18"><a xlink:href="log_8h.html" target="_top" xlink:title=" ">
<polygon fill="none" stroke="black" points="1168,-268.5 1168,-298.5 1265,-298.5 1265,-268.5 1168,-268.5"/>
<text text-anchor="start" x="1176" y="-286.5" font-family="Helvetica,sans-Serif" font-size="10.00">include/libc/arvern</text>
<text text-anchor="middle" x="1216.5" y="-275.5" font-family="Helvetica,sans-Serif" font-size="10.00">/log.h</text>
</a>
</g>
</g>
<!-- Node1&#45;&gt;Node18 -->
<g id="edge26" class="edge">
<title>Node1&#45;&gt;Node18</title>
<path fill="none" stroke="midnightblue" d="M1127,-330.81C1145.51,-321.23 1170.52,-308.29 1189.4,-298.52"/>
<polygon fill="midnightblue" stroke="midnightblue" points="1125.25,-327.77 1117.98,-335.48 1128.47,-333.99 1125.25,-327.77"/>
</g>
<!-- Node19 -->
<g id="node19" class="node">
<title>Node19</title>
<g id="a_node19"><a xlink:href="socket_8h.html" target="_top" xlink:title=" ">
<polygon fill="none" stroke="black" points="949.5,-274 949.5,-293 1073.5,-293 1073.5,-274 949.5,-274"/>
<text text-anchor="middle" x="1011.5" y="-281" font-family="Helvetica,sans-Serif" font-size="10.00">include/libc/sys/socket.h</text>
</a>
</g>
</g>
<!-- Node1&#45;&gt;Node19 -->
<g id="edge27" class="edge">
<title>Node1&#45;&gt;Node19</title>
<path fill="none" stroke="midnightblue" d="M1080.22,-329.93C1062.87,-318.46 1038.93,-302.63 1024.37,-293.01"/>
<polygon fill="midnightblue" stroke="midnightblue" points="1078.33,-332.88 1088.61,-335.48 1082.19,-327.04 1078.33,-332.88"/>
</g>
<!-- Node20 -->
<g id="node20" class="node">
<title>Node20</title>
<g id="a_node20"><a xlink:href="stat_8h.html" target="_top" xlink:title=" ">
<polygon fill="none" stroke="black" points="1283,-274 1283,-293 1394,-293 1394,-274 1283,-274"/>
<text text-anchor="middle" x="1338.5" y="-281" font-family="Helvetica,sans-Serif" font-size="10.00">include/libc/sys/stat.h</text>
</a>
</g>
</g>
<!-- Node1&#45;&gt;Node20 -->
<g id="edge31" class="edge">
<title>Node1&#45;&gt;Node20</title>
<path fill="none" stroke="midnightblue" d="M1145.44,-332.97C1191.46,-321.41 1262.75,-303.52 1304.61,-293.01"/>
<polygon fill="midnightblue" stroke="midnightblue" points="1144.3,-329.65 1135.46,-335.48 1146.01,-336.43 1144.3,-329.65"/>
</g>
<!-- Node21 -->
<g id="node21" class="node">
<title>Node21</title>
<g id="a_node21"><a xlink:href="libc_2sys_2time_8h.html" target="_top" xlink:title=" ">
<polygon fill="none" stroke="black" points="1450.5,-274 1450.5,-293 1564.5,-293 1564.5,-274 1450.5,-274"/>
<text text-anchor="middle" x="1507.5" y="-281" font-family="Helvetica,sans-Serif" font-size="10.00">include/libc/sys/time.h</text>
</a>
</g>
</g>
<!-- Node1&#45;&gt;Node21 -->
<g id="edge36" class="edge">
<title>Node1&#45;&gt;Node21</title>
<path fill="none" stroke="midnightblue" d="M1171.44,-336.01C1239.36,-327.92 1345.28,-314.42 1436.5,-299 1446.8,-297.26 1457.88,-295.12 1468.16,-293.03"/>
<polygon fill="midnightblue" stroke="midnightblue" points="1170.81,-332.56 1161.29,-337.21 1171.63,-339.51 1170.81,-332.56"/>
</g>
<!-- Node22 -->
<g id="node22" class="node">
<title>Node22</title>
<g id="a_node22"><a xlink:href="libc_2time_8h.html" target="_top" xlink:title=" ">
<polygon fill="none" stroke="black" points="1539.5,-207 1539.5,-226 1635.5,-226 1635.5,-207 1539.5,-207"/>
<text text-anchor="middle" x="1587.5" y="-214" font-family="Helvetica,sans-Serif" font-size="10.00">include/libc/time.h</text>
</a>
</g>
</g>
<!-- Node1&#45;&gt;Node22 -->
<g id="edge40" class="edge">
<title>Node1&#45;&gt;Node22</title>
<path fill="none" stroke="midnightblue" d="M1171.51,-341.95C1295.79,-337.64 1544.66,-325.75 1573.5,-299 1593.92,-280.06 1591.43,-243.02 1589.03,-226.19"/>
<polygon fill="midnightblue" stroke="midnightblue" points="1171.21,-338.46 1161.34,-342.29 1171.45,-345.45 1171.21,-338.46"/>
</g>
<!-- Node23 -->
<g id="node23" class="node">
<title>Node23</title>
<g id="a_node23"><a xlink:href="vga__text_8h.html" target="_top" xlink:title=" ">
<polygon fill="none" stroke="black" points="1621,-268.5 1621,-298.5 1736,-298.5 1736,-268.5 1621,-268.5"/>
<text text-anchor="start" x="1629" y="-286.5" font-family="Helvetica,sans-Serif" font-size="10.00">src/kernel/arch/x86</text>
<text text-anchor="middle" x="1678.5" y="-275.5" font-family="Helvetica,sans-Serif" font-size="10.00">_64/drivers/vga_text.h</text>
</a>
</g>
</g>
<!-- Node1&#45;&gt;Node23 -->
<g id="edge41" class="edge">
<title>Node1&#45;&gt;Node23</title>
<path fill="none" stroke="midnightblue" d="M1171.26,-340.21C1268.96,-334.36 1451.9,-321.39 1606.5,-299 1611.17,-298.32 1615.99,-297.54 1620.83,-296.69"/>
<polygon fill="midnightblue" stroke="midnightblue" points="1170.99,-336.72 1161.22,-340.81 1171.41,-343.71 1170.99,-336.72"/>
</g>
<!-- Node24 -->
<g id="node24" class="node">
<title>Node24</title>
<g id="a_node24"><a xlink:href="x86__64_2mmu_2alloc_8h.html" target="_top" xlink:title=" ">
<polygon fill="none" stroke="black" points="1724,-201.5 1724,-231.5 1825,-231.5 1825,-201.5 1724,-201.5"/>
<text text-anchor="start" x="1732" y="-219.5" font-family="Helvetica,sans-Serif" font-size="10.00">src/kernel/arch/x86</text>
<text text-anchor="middle" x="1774.5" y="-208.5" font-family="Helvetica,sans-Serif" font-size="10.00">_64/mmu/alloc.h</text>
</a>
</g>
</g>
<!-- Node1&#45;&gt;Node24 -->
<g id="edge42" class="edge">
<title>Node1&#45;&gt;Node24</title>
<path fill="none" stroke="midnightblue" d="M1171.07,-343.34C1328.02,-341.27 1699.48,-332.8 1744.5,-299 1765.72,-283.07 1771.94,-250.52 1773.76,-231.74"/>
<polygon fill="midnightblue" stroke="midnightblue" points="1171.01,-339.84 1161.05,-343.47 1171.09,-346.84 1171.01,-339.84"/>
</g>
<!-- Node25 -->
<g id="node25" class="node">
<title>Node25</title>
<g id="a_node25"><a xlink:href="frame_8h.html" target="_top" xlink:title=" ">
<polygon fill="none" stroke="black" points="1793,-268.5 1793,-298.5 1894,-298.5 1894,-268.5 1793,-268.5"/>
<text text-anchor="start" x="1801" y="-286.5" font-family="Helvetica,sans-Serif" font-size="10.00">src/kernel/arch/x86</text>
<text text-anchor="middle" x="1843.5" y="-275.5" font-family="Helvetica,sans-Serif" font-size="10.00">_64/mmu/frame.h</text>
</a>
</g>
</g>
<!-- Node1&#45;&gt;Node25 -->
<g id="edge43" class="edge">
<title>Node1&#45;&gt;Node25</title>
<path fill="none" stroke="midnightblue" d="M1171.18,-342.88C1294.32,-340.12 1558.21,-330.7 1778.5,-299 1783.19,-298.32 1788.05,-297.49 1792.9,-296.57"/>
<polygon fill="midnightblue" stroke="midnightblue" points="1171.06,-339.38 1161.13,-343.1 1171.21,-346.38 1171.06,-339.38"/>
</g>
<!-- Node26 -->
<g id="node26" class="node">
<title>Node26</title>
<g id="a_node26"><a xlink:href="paging_8h.html" target="_top" xlink:title=" ">
<polygon fill="none" stroke="black" points="1862,-201.5 1862,-231.5 1963,-231.5 1963,-201.5 1862,-201.5"/>
<text text-anchor="start" x="1870" y="-219.5" font-family="Helvetica,sans-Serif" font-size="10.00">src/kernel/arch/x86</text>
<text text-anchor="middle" x="1912.5" y="-208.5" font-family="Helvetica,sans-Serif" font-size="10.00">_64/mmu/paging.h</text>
</a>
</g>
</g>
<!-- Node1&#45;&gt;Node26 -->
<g id="edge46" class="edge">
<title>Node1&#45;&gt;Node26</title>
<path fill="none" stroke="midnightblue" d="M1171.26,-342.51C1361.53,-338.13 1877.11,-324 1903.5,-299 1921.58,-281.87 1919.15,-250.07 1915.8,-231.67"/>
<polygon fill="midnightblue" stroke="midnightblue" points="1171.01,-339.02 1161.09,-342.74 1171.17,-346.01 1171.01,-339.02"/>
</g>
<!-- Node4&#45;&gt;Node3 -->
<g id="edge4" class="edge">
<title>Node4&#45;&gt;Node3</title>
<path fill="none" stroke="midnightblue" d="M333.06,-272.14C278.92,-262.26 195.58,-246.73 123.5,-232 114.42,-230.14 104.66,-228.05 95.5,-226.05"/>
<polygon fill="midnightblue" stroke="midnightblue" points="332.69,-275.63 343.15,-273.98 333.94,-268.74 332.69,-275.63"/>
</g>
<!-- Node5 -->
<g id="node5" class="node">
<title>Node5</title>
<g id="a_node5"><a xlink:href="proc_8h.html" target="_top" xlink:title=" ">
<polygon fill="none" stroke="black" points="262,-207 262,-226 381,-226 381,-207 262,-207"/>
<text text-anchor="middle" x="321.5" y="-214" font-family="Helvetica,sans-Serif" font-size="10.00">include/kernel/fs/proc.h</text>
</a>
</g>
</g>
<!-- Node4&#45;&gt;Node5 -->
<g id="edge5" class="edge">
<title>Node4&#45;&gt;Node5</title>
<path fill="none" stroke="midnightblue" d="M373.89,-266.86C360.33,-254.08 341.66,-236.49 330.66,-226.13"/>
<polygon fill="midnightblue" stroke="midnightblue" points="371.52,-269.42 381.19,-273.73 376.32,-264.33 371.52,-269.42"/>
</g>
<!-- Node6 -->
<g id="node6" class="node">
<title>Node6</title>
<g id="a_node6"><a xlink:href="sock_8h.html" target="_top" xlink:title=" ">
<polygon fill="none" stroke="black" points="399.5,-207 399.5,-226 519.5,-226 519.5,-207 399.5,-207"/>
<text text-anchor="middle" x="459.5" y="-214" font-family="Helvetica,sans-Serif" font-size="10.00">include/kernel/fs/sock.h</text>
</a>
</g>
</g>
<!-- Node4&#45;&gt;Node6 -->
<g id="edge6" class="edge">
<title>Node4&#45;&gt;Node6</title>
<path fill="none" stroke="midnightblue" d="M407.11,-266.86C420.67,-254.08 439.34,-236.49 450.34,-226.13"/>
<polygon fill="midnightblue" stroke="midnightblue" points="404.68,-264.33 399.81,-273.73 409.48,-269.42 404.68,-264.33"/>
</g>
<!-- Node7 -->
<g id="node7" class="node">
<title>Node7</title>
<g id="a_node7"><a xlink:href="tar_8h.html" target="_top" xlink:title=" ">
<polygon fill="none" stroke="black" points="133,-207 133,-226 244,-226 244,-207 133,-207"/>
<text text-anchor="middle" x="188.5" y="-214" font-family="Helvetica,sans-Serif" font-size="10.00">include/kernel/fs/tar.h</text>
</a>
</g>
</g>
<!-- Node4&#45;&gt;Node7 -->
<g id="edge7" class="edge">
<title>Node4&#45;&gt;Node7</title>
<path fill="none" stroke="midnightblue" d="M354.03,-270.77C314.01,-257.89 250.72,-237.52 215.11,-226.06"/>
<polygon fill="midnightblue" stroke="midnightblue" points="353.08,-274.14 363.68,-273.87 355.23,-267.47 353.08,-274.14"/>
</g>
<!-- Node4&#45;&gt;Node8 -->
<g id="edge8" class="edge">
<title>Node4&#45;&gt;Node8</title>
<path fill="none" stroke="midnightblue" d="M426.47,-270.63C459.87,-259.61 509.63,-243.19 544.98,-231.53"/>
<polygon fill="midnightblue" stroke="midnightblue" points="425.06,-267.41 416.66,-273.87 427.25,-274.06 425.06,-267.41"/>
</g>
<!-- Node11&#45;&gt;Node12 -->
<g id="edge12" class="edge">
<title>Node11&#45;&gt;Node12</title>
<path fill="none" stroke="midnightblue" d="M779.5,-124.11C779.5,-115.15 779.5,-105.32 779.5,-97.58"/>
<polygon fill="midnightblue" stroke="midnightblue" points="776,-124.4 779.5,-134.4 783,-124.4 776,-124.4"/>
</g>
<!-- Node12&#45;&gt;Node9 -->
<g id="edge13" class="edge">
<title>Node12&#45;&gt;Node9</title>
<path fill="none" stroke="midnightblue" d="M746.11,-62.3C728.43,-52.12 707.1,-39.85 690.97,-30.58"/>
<polygon fill="midnightblue" stroke="midnightblue" points="744.57,-65.44 754.98,-67.4 748.06,-59.38 744.57,-65.44"/>
</g>
<!-- Node12&#45;&gt;Node10 -->
<g id="edge14" class="edge">
<title>Node12&#45;&gt;Node10</title>
<path fill="none" stroke="midnightblue" d="M779.88,-57.11C780.01,-48.15 780.16,-38.32 780.28,-30.58"/>
<polygon fill="midnightblue" stroke="midnightblue" points="776.37,-57.34 779.72,-67.4 783.37,-57.45 776.37,-57.34"/>
</g>
<!-- Node12&#45;&gt;Node13 -->
<g id="edge15" class="edge">
<title>Node12&#45;&gt;Node13</title>
<path fill="none" stroke="midnightblue" d="M813.18,-62.3C831.02,-52.12 852.54,-39.85 868.81,-30.58"/>
<polygon fill="midnightblue" stroke="midnightblue" points="811.19,-59.4 804.24,-67.4 814.66,-65.48 811.19,-59.4"/>
</g>
<!-- Node15&#45;&gt;Node11 -->
<g id="edge21" class="edge">
<title>Node15&#45;&gt;Node11</title>
<path fill="none" stroke="midnightblue" d="M934.39,-203.49C902.18,-192.47 854.46,-176.14 820.51,-164.53"/>
<polygon fill="midnightblue" stroke="midnightblue" points="933.67,-206.94 944.27,-206.87 935.94,-200.32 933.67,-206.94"/>
</g>
<!-- Node15&#45;&gt;Node12 -->
<g id="edge22" class="edge">
<title>Node15&#45;&gt;Node12</title>
<path fill="none" stroke="midnightblue" d="M948.57,-200.96C911.8,-175.41 836.05,-122.79 799.75,-97.57"/>
<polygon fill="midnightblue" stroke="midnightblue" points="946.82,-204.01 957.03,-206.84 950.82,-198.26 946.82,-204.01"/>
</g>
<!-- Node15&#45;&gt;Node14 -->
<g id="edge23" class="edge">
<title>Node15&#45;&gt;Node14</title>
<path fill="none" stroke="midnightblue" d="M1028.02,-205.19C1100.6,-192.41 1222.96,-170.85 1290.36,-158.98"/>
<polygon fill="midnightblue" stroke="midnightblue" points="1027.36,-201.75 1018.12,-206.94 1028.58,-208.65 1027.36,-201.75"/>
</g>
<!-- Node15&#45;&gt;Node16 -->
<g id="edge24" class="edge">
<title>Node15&#45;&gt;Node16</title>
<path fill="none" stroke="midnightblue" d="M1000.39,-203.1C1032.56,-190.2 1082.08,-170.33 1110.16,-159.06"/>
<polygon fill="midnightblue" stroke="midnightblue" points="998.99,-199.9 991.01,-206.87 1001.6,-206.39 998.99,-199.9"/>
</g>
<!-- Node17 -->
<g id="node17" class="node">
<title>Node17</title>
<g id="a_node17"><a xlink:href="unistd_8h.html" target="_top" xlink:title=" ">
<polygon fill="none" stroke="black" points="1079.5,-73 1079.5,-92 1183.5,-92 1183.5,-73 1079.5,-73"/>
<text text-anchor="middle" x="1131.5" y="-80" font-family="Helvetica,sans-Serif" font-size="10.00">include/libc/unistd.h</text>
</a>
</g>
</g>
<!-- Node16&#45;&gt;Node17 -->
<g id="edge25" class="edge">
<title>Node16&#45;&gt;Node17</title>
<path fill="none" stroke="midnightblue" d="M1131.5,-129.54C1131.5,-117.17 1131.5,-101.62 1131.5,-92.13"/>
<polygon fill="midnightblue" stroke="midnightblue" points="1128,-129.73 1131.5,-139.73 1135,-129.73 1128,-129.73"/>
</g>
<!-- Node19&#45;&gt;Node14 -->
<g id="edge28" class="edge">
<title>Node19&#45;&gt;Node14</title>
<path fill="none" stroke="midnightblue" d="M1032.28,-268.17C1059.03,-250.29 1107.44,-219.77 1152.5,-201 1197.75,-182.15 1252.12,-168.34 1290.36,-159.97"/>
<polygon fill="midnightblue" stroke="midnightblue" points="1030.09,-265.43 1023.76,-273.93 1034.01,-271.23 1030.09,-265.43"/>
</g>
<!-- Node19&#45;&gt;Node15 -->
<g id="edge29" class="edge">
<title>Node19&#45;&gt;Node15</title>
<path fill="none" stroke="midnightblue" d="M1000.21,-265.03C992.08,-252.45 981.46,-236.01 975.07,-226.13"/>
<polygon fill="midnightblue" stroke="midnightblue" points="997.47,-267.23 1005.84,-273.73 1003.35,-263.44 997.47,-267.23"/>
</g>
<!-- Node19&#45;&gt;Node16 -->
<g id="edge30" class="edge">
<title>Node19&#45;&gt;Node16</title>
<path fill="none" stroke="midnightblue" d="M1024.9,-265.4C1038.27,-248.6 1059.62,-222.43 1079.5,-201 1093.7,-185.68 1111.35,-169 1122,-159.16"/>
<polygon fill="midnightblue" stroke="midnightblue" points="1021.81,-263.66 1018.36,-273.68 1027.31,-268.01 1021.81,-263.66"/>
</g>
<!-- Node20&#45;&gt;Node2 -->
<g id="edge32" class="edge">
<title>Node20&#45;&gt;Node2</title>
<path fill="none" stroke="midnightblue" d="M1313.32,-269.19C1292.63,-258.26 1263.39,-242.81 1242.28,-231.65"/>
<polygon fill="midnightblue" stroke="midnightblue" points="1311.69,-272.29 1322.17,-273.87 1314.96,-266.1 1311.69,-272.29"/>
</g>
<!-- Node20&#45;&gt;Node14 -->
<g id="edge33" class="edge">
<title>Node20&#45;&gt;Node14</title>
<path fill="none" stroke="midnightblue" d="M1338.5,-263.53C1338.5,-236.81 1338.5,-188.69 1338.5,-164.78"/>
<polygon fill="midnightblue" stroke="midnightblue" points="1335,-263.84 1338.5,-273.84 1342,-263.84 1335,-263.84"/>
</g>
<!-- Node20&#45;&gt;Node16 -->
<g id="edge34" class="edge">
<title>Node20&#45;&gt;Node16</title>
<path fill="none" stroke="midnightblue" d="M1329.61,-264.71C1319.56,-246.31 1301.56,-217.94 1278.5,-201 1248.92,-179.27 1209.28,-166.38 1178.62,-159.06"/>
<polygon fill="midnightblue" stroke="midnightblue" points="1326.61,-266.53 1334.35,-273.77 1332.81,-263.29 1326.61,-266.53"/>
</g>
<!-- Node21&#45;&gt;Node14 -->
<g id="edge37" class="edge">
<title>Node21&#45;&gt;Node14</title>
<path fill="none" stroke="midnightblue" d="M1505.16,-263.55C1501.95,-245.26 1494.49,-217.92 1477.5,-201 1453.12,-176.72 1416.18,-164.03 1386.51,-157.44"/>
<polygon fill="midnightblue" stroke="midnightblue" points="1501.72,-264.22 1506.66,-273.6 1508.64,-263.19 1501.72,-264.22"/>
</g>
<!-- Node21&#45;&gt;Node16 -->
<g id="edge38" class="edge">
<title>Node21&#45;&gt;Node16</title>
<path fill="none" stroke="midnightblue" d="M1478.94,-269.73C1440.47,-252.78 1369.62,-222.5 1307.5,-201 1258.68,-184.11 1200.93,-168.31 1165.25,-159.03"/>
<polygon fill="midnightblue" stroke="midnightblue" points="1477.89,-273.09 1488.46,-273.94 1480.73,-266.69 1477.89,-273.09"/>
</g>
<!-- Node21&#45;&gt;Node22 -->
<g id="edge39" class="edge">
<title>Node21&#45;&gt;Node22</title>
<path fill="none" stroke="midnightblue" d="M1526.31,-267.21C1542.08,-254.41 1564.01,-236.59 1576.88,-226.13"/>
<polygon fill="midnightblue" stroke="midnightblue" points="1523.84,-264.71 1518.29,-273.73 1528.26,-270.14 1523.84,-264.71"/>
</g>
<!-- Node25&#45;&gt;Node24 -->
<g id="edge44" class="edge">
<title>Node25&#45;&gt;Node24</title>
<path fill="none" stroke="midnightblue" d="M1821.01,-261.31C1810.66,-251.56 1798.66,-240.26 1789.44,-231.58"/>
<polygon fill="midnightblue" stroke="midnightblue" points="1818.85,-264.09 1828.53,-268.4 1823.65,-258.99 1818.85,-264.09"/>
</g>
<!-- Node25&#45;&gt;Node26 -->
<g id="edge45" class="edge">
<title>Node25&#45;&gt;Node26</title>
<path fill="none" stroke="midnightblue" d="M1865.99,-261.31C1876.34,-251.56 1888.34,-240.26 1897.56,-231.58"/>
<polygon fill="midnightblue" stroke="midnightblue" points="1863.35,-258.99 1858.47,-268.4 1868.15,-264.09 1863.35,-258.99"/>
</g>
</g>
</svg>
