<?xml version="1.0" encoding="UTF-8" standalone="no"?>
<!DOCTYPE svg PUBLIC "-//W3C//DTD SVG 1.1//EN"
 "http://www.w3.org/Graphics/SVG/1.1/DTD/svg11.dtd">
<!-- Generated by graphviz version 3.0.0 (20220226.1711)
 -->
<!-- Title: include/libc/sys/types.h Pages: 1 -->
<svg width="1722pt" height="363pt"
 viewBox="0.00 0.00 1721.75 363.00" xmlns="http://www.w3.org/2000/svg" xmlns:xlink="http://www.w3.org/1999/xlink">
<g id="graph0" class="graph" transform="scale(1 1) rotate(0) translate(4 359)">
<title>include/libc/sys/types.h</title>
<!-- Node1 -->
<g id="node1" class="node">
<title>Node1</title>
<g id="a_node1"><a xlink:title=" ">
<polygon fill="#bfbfbf" stroke="black" points="682.25,-335.5 682.25,-354.5 801.25,-354.5 801.25,-335.5 682.25,-335.5"/>
<text text-anchor="middle" x="741.75" y="-342.5" font-family="Helvetica,sans-Serif" font-size="10.00">include/libc/sys/types.h</text>
</a>
</g>
</g>
<!-- Node2 -->
<g id="node2" class="node">
<title>Node2</title>
<g id="a_node2"><a xlink:href="inish_8h.html" target="_top" xlink:title=" ">
<polygon fill="none" stroke="black" points="19.75,-201.5 19.75,-231.5 125.75,-231.5 125.75,-201.5 19.75,-201.5"/>
<text text-anchor="start" x="27.75" y="-219.5" font-family="Helvetica,sans-Serif" font-size="10.00">include/kernel/config</text>
<text text-anchor="middle" x="72.75" y="-208.5" font-family="Helvetica,sans-Serif" font-size="10.00">/inish.h</text>
</a>
</g>
</g>
<!-- Node1&#45;&gt;Node2 -->
<g id="edge1" class="edge">
<title>Node1&#45;&gt;Node2</title>
<path fill="none" stroke="midnightblue" d="M671.87,-343.9C512.33,-343.02 131.72,-336.91 88.75,-299 69.82,-282.31 69.3,-250.35 70.86,-231.8"/>
<polygon fill="midnightblue" stroke="midnightblue" points="672.03,-347.4 682.05,-343.95 672.07,-340.4 672.03,-347.4"/>
</g>
<!-- Node3 -->
<g id="node3" class="node">
<title>Node3</title>
<g id="a_node3"><a xlink:href="dev_8h.html" target="_top" xlink:title=" ">
<polygon fill="none" stroke="black" points="846.25,-207 846.25,-226 959.25,-226 959.25,-207 846.25,-207"/>
<text text-anchor="middle" x="902.75" y="-214" font-family="Helvetica,sans-Serif" font-size="10.00">include/kernel/fs/dev.h</text>
</a>
</g>
</g>
<!-- Node1&#45;&gt;Node3 -->
<g id="edge2" class="edge">
<title>Node1&#45;&gt;Node3</title>
<path fill="none" stroke="midnightblue" d="M774.1,-331.5C792.07,-323.69 814.27,-312.54 831.75,-299 860.24,-276.94 885.93,-242.13 897,-226.1"/>
<polygon fill="midnightblue" stroke="midnightblue" points="772.47,-328.39 764.6,-335.5 775.18,-334.85 772.47,-328.39"/>
</g>
<!-- Node4 -->
<g id="node4" class="node">
<title>Node4</title>
<g id="a_node4"><a xlink:href="vfs_8h.html" target="_top" xlink:title=" ">
<polygon fill="none" stroke="black" points="942.25,-274 942.25,-293 1055.25,-293 1055.25,-274 942.25,-274"/>
<text text-anchor="middle" x="998.75" y="-281" font-family="Helvetica,sans-Serif" font-size="10.00">include/kernel/fs/vfs.h</text>
</a>
</g>
</g>
<!-- Node1&#45;&gt;Node4 -->
<g id="edge3" class="edge">
<title>Node1&#45;&gt;Node4</title>
<path fill="none" stroke="midnightblue" d="M788.46,-333.19C838.33,-321.64 916.32,-303.58 961.99,-293.01"/>
<polygon fill="midnightblue" stroke="midnightblue" points="787.52,-329.81 778.57,-335.48 789.1,-336.63 787.52,-329.81"/>
</g>
<!-- Node8 -->
<g id="node8" class="node">
<title>Node8</title>
<g id="a_node8"><a xlink:href="descriptor_8h.html" target="_top" xlink:title=" ">
<polygon fill="none" stroke="black" points="1379.75,-201.5 1379.75,-231.5 1477.75,-231.5 1477.75,-201.5 1379.75,-201.5"/>
<text text-anchor="start" x="1387.75" y="-219.5" font-family="Helvetica,sans-Serif" font-size="10.00">include/kernel/proc</text>
<text text-anchor="middle" x="1428.75" y="-208.5" font-family="Helvetica,sans-Serif" font-size="10.00">/descriptor.h</text>
</a>
</g>
</g>
<!-- Node1&#45;&gt;Node8 -->
<g id="edge19" class="edge">
<title>Node1&#45;&gt;Node8</title>
<path fill="none" stroke="midnightblue" d="M811.45,-338.58C892.16,-331.55 1019.66,-317.91 1063.75,-299 1084.1,-290.27 1082.38,-276.67 1102.75,-268 1213.32,-220.92 1252.71,-254.61 1370.75,-232 1373.6,-231.45 1376.53,-230.85 1379.47,-230.22"/>
<polygon fill="midnightblue" stroke="midnightblue" points="811.03,-335.1 801.36,-339.44 811.62,-342.08 811.03,-335.1"/>
</g>
<!-- Node9 -->
<g id="node9" class="node">
<title>Node9</title>
<g id="a_node9"><a xlink:href="dhcp_8h.html" target="_top" xlink:title=" ">
<polygon fill="none" stroke="black" points="510.25,-0.5 510.25,-30.5 603.25,-30.5 603.25,-0.5 510.25,-0.5"/>
<text text-anchor="start" x="518.25" y="-18.5" font-family="Helvetica,sans-Serif" font-size="10.00">include/kernel/net</text>
<text text-anchor="middle" x="556.75" y="-7.5" font-family="Helvetica,sans-Serif" font-size="10.00">/dhcp.h</text>
</a>
</g>
</g>
<!-- Node1&#45;&gt;Node9 -->
<g id="edge9" class="edge">
<title>Node1&#45;&gt;Node9</title>
<path fill="none" stroke="midnightblue" d="M730.01,-327.18C724.17,-318.75 717.04,-308.37 710.75,-299 681.77,-255.8 680.11,-240.92 646.75,-201 604.01,-149.86 564.12,-159.21 537.75,-98 528.03,-75.45 539.42,-47.16 548.29,-30.53"/>
<polygon fill="midnightblue" stroke="midnightblue" points="727.16,-329.2 735.74,-335.42 732.91,-325.21 727.16,-329.2"/>
</g>
<!-- Node10 -->
<g id="node10" class="node">
<title>Node10</title>
<g id="a_node10"><a xlink:href="dns_8h.html" target="_top" xlink:title=" ">
<polygon fill="none" stroke="black" points="658.25,-0.5 658.25,-30.5 751.25,-30.5 751.25,-0.5 658.25,-0.5"/>
<text text-anchor="start" x="666.25" y="-18.5" font-family="Helvetica,sans-Serif" font-size="10.00">include/kernel/net</text>
<text text-anchor="middle" x="704.75" y="-7.5" font-family="Helvetica,sans-Serif" font-size="10.00">/dns.h</text>
</a>
</g>
</g>
<!-- Node1&#45;&gt;Node10 -->
<g id="edge10" class="edge">
<title>Node1&#45;&gt;Node10</title>
<path fill="none" stroke="midnightblue" d="M750.74,-326.11C761.97,-302.05 779.75,-257.65 779.75,-217.5 779.75,-217.5 779.75,-217.5 779.75,-148.5 779.75,-111.2 778.74,-99.1 759.75,-67 751.17,-52.5 737.12,-39.7 725.37,-30.62"/>
<polygon fill="midnightblue" stroke="midnightblue" points="747.46,-324.85 746.26,-335.37 753.76,-327.9 747.46,-324.85"/>
</g>
<!-- Node11 -->
<g id="node11" class="node">
<title>Node11</title>
<g id="a_node11"><a xlink:href="ipv4_8h.html" target="_top" xlink:title=" ">
<polygon fill="none" stroke="black" points="620.25,-134.5 620.25,-164.5 713.25,-164.5 713.25,-134.5 620.25,-134.5"/>
<text text-anchor="start" x="628.25" y="-152.5" font-family="Helvetica,sans-Serif" font-size="10.00">include/kernel/net</text>
<text text-anchor="middle" x="666.75" y="-141.5" font-family="Helvetica,sans-Serif" font-size="10.00">/ipv4.h</text>
</a>
</g>
</g>
<!-- Node1&#45;&gt;Node11 -->
<g id="edge11" class="edge">
<title>Node1&#45;&gt;Node11</title>
<path fill="none" stroke="midnightblue" d="M734.81,-326.1C720.01,-287.92 685.62,-199.19 672.22,-164.63"/>
<polygon fill="midnightblue" stroke="midnightblue" points="731.55,-327.38 738.43,-335.44 738.08,-324.85 731.55,-327.38"/>
</g>
<!-- Node13 -->
<g id="node13" class="node">
<title>Node13</title>
<g id="a_node13"><a xlink:href="udp_8h.html" target="_top" xlink:title=" ">
<polygon fill="none" stroke="black" points="658.25,-67.5 658.25,-97.5 751.25,-97.5 751.25,-67.5 658.25,-67.5"/>
<text text-anchor="start" x="666.25" y="-85.5" font-family="Helvetica,sans-Serif" font-size="10.00">include/kernel/net</text>
<text text-anchor="middle" x="704.75" y="-74.5" font-family="Helvetica,sans-Serif" font-size="10.00">/udp.h</text>
</a>
</g>
</g>
<!-- Node1&#45;&gt;Node13 -->
<g id="edge18" class="edge">
<title>Node1&#45;&gt;Node13</title>
<path fill="none" stroke="midnightblue" d="M741.4,-325.24C740.4,-288.26 736.55,-203.49 721.75,-134 719.09,-121.51 714.36,-107.81 710.56,-97.84"/>
<polygon fill="midnightblue" stroke="midnightblue" points="737.91,-325.57 741.64,-335.49 744.91,-325.41 737.91,-325.57"/>
</g>
<!-- Node14 -->
<g id="node14" class="node">
<title>Node14</title>
<g id="a_node14"><a xlink:href="ntp_8h.html" target="_top" xlink:title=" ">
<polygon fill="none" stroke="black" points="770.25,-0.5 770.25,-30.5 863.25,-30.5 863.25,-0.5 770.25,-0.5"/>
<text text-anchor="start" x="778.25" y="-18.5" font-family="Helvetica,sans-Serif" font-size="10.00">include/kernel/net</text>
<text text-anchor="middle" x="816.75" y="-7.5" font-family="Helvetica,sans-Serif" font-size="10.00">/ntp.h</text>
</a>
</g>
</g>
<!-- Node1&#45;&gt;Node14 -->
<g id="edge17" class="edge">
<title>Node1&#45;&gt;Node14</title>
<path fill="none" stroke="midnightblue" d="M758.95,-328.3C781.37,-306.02 817.75,-262.88 817.75,-217.5 817.75,-217.5 817.75,-217.5 817.75,-148.5 817.75,-105.64 817.21,-54.97 816.93,-30.76"/>
<polygon fill="midnightblue" stroke="midnightblue" points="756.47,-325.82 751.68,-335.27 761.32,-330.87 756.47,-325.82"/>
</g>
<!-- Node15 -->
<g id="node15" class="node">
<title>Node15</title>
<g id="a_node15"><a xlink:href="k__syscall_8h.html" target="_top" xlink:title=" ">
<polygon fill="none" stroke="black" points="174.25,-134.5 174.25,-164.5 269.25,-164.5 269.25,-134.5 174.25,-134.5"/>
<text text-anchor="start" x="182.25" y="-152.5" font-family="Helvetica,sans-Serif" font-size="10.00">include/kernel/sys</text>
<text text-anchor="middle" x="221.75" y="-141.5" font-family="Helvetica,sans-Serif" font-size="10.00">/k_syscall.h</text>
</a>
</g>
</g>
<!-- Node1&#45;&gt;Node15 -->
<g id="edge20" class="edge">
<title>Node1&#45;&gt;Node15</title>
<path fill="none" stroke="midnightblue" d="M671.76,-342.36C510.35,-338.15 121.7,-325.37 68.75,-299 23.44,-276.44 -20.6,-240.74 10.75,-201 30.69,-175.72 118.14,-161.68 174.01,-155.14"/>
<polygon fill="midnightblue" stroke="midnightblue" points="671.98,-345.87 682.06,-342.63 672.16,-338.87 671.98,-345.87"/>
</g>
<!-- Node16 -->
<g id="node16" class="node">
<title>Node16</title>
<g id="a_node16"><a xlink:href="inet_8h.html" target="_top" xlink:title=" ">
<polygon fill="none" stroke="black" points="523.75,-207 523.75,-226 637.75,-226 637.75,-207 523.75,-207"/>
<text text-anchor="middle" x="580.75" y="-214" font-family="Helvetica,sans-Serif" font-size="10.00">include/libc/arpa/inet.h</text>
</a>
</g>
</g>
<!-- Node1&#45;&gt;Node16 -->
<g id="edge21" class="edge">
<title>Node1&#45;&gt;Node16</title>
<path fill="none" stroke="midnightblue" d="M709.4,-331.5C691.42,-323.69 669.23,-312.54 651.75,-299 623.26,-276.94 597.57,-242.13 586.5,-226.1"/>
<polygon fill="midnightblue" stroke="midnightblue" points="708.32,-334.85 718.89,-335.5 711.03,-328.39 708.32,-334.85"/>
</g>
<!-- Node17 -->
<g id="node17" class="node">
<title>Node17</title>
<g id="a_node17"><a xlink:href="syscall_8h.html" target="_top" xlink:title=" ">
<polygon fill="none" stroke="black" points="287.75,-140 287.75,-159 413.75,-159 413.75,-140 287.75,-140"/>
<text text-anchor="middle" x="350.75" y="-147" font-family="Helvetica,sans-Serif" font-size="10.00">include/libc/sys/syscall.h</text>
</a>
</g>
</g>
<!-- Node1&#45;&gt;Node17 -->
<g id="edge36" class="edge">
<title>Node1&#45;&gt;Node17</title>
<path fill="none" stroke="midnightblue" d="M671.7,-342.32C548.1,-338.63 301.82,-327.71 275.75,-299 235.17,-254.31 310.84,-183.61 339.99,-159.16"/>
<polygon fill="midnightblue" stroke="midnightblue" points="671.73,-345.82 681.82,-342.61 671.93,-338.83 671.73,-345.82"/>
</g>
<!-- Node19 -->
<g id="node19" class="node">
<title>Node19</title>
<g id="a_node19"><a xlink:href="log_8h.html" target="_top" xlink:title=" ">
<polygon fill="none" stroke="black" points="1112.25,-268.5 1112.25,-298.5 1207.25,-298.5 1207.25,-268.5 1112.25,-268.5"/>
<text text-anchor="start" x="1120.25" y="-286.5" font-family="Helvetica,sans-Serif" font-size="10.00">include/libc/arvern</text>
<text text-anchor="middle" x="1159.75" y="-275.5" font-family="Helvetica,sans-Serif" font-size="10.00">/log.h</text>
</a>
</g>
</g>
<!-- Node1&#45;&gt;Node19 -->
<g id="edge27" class="edge">
<title>Node1&#45;&gt;Node19</title>
<path fill="none" stroke="midnightblue" d="M811.87,-337.31C883.9,-329.93 999.13,-316.72 1097.75,-299 1102.43,-298.16 1107.28,-297.19 1112.12,-296.16"/>
<polygon fill="midnightblue" stroke="midnightblue" points="811.16,-333.87 801.56,-338.36 811.86,-340.83 811.16,-333.87"/>
</g>
<!-- Node20 -->
<g id="node20" class="node">
<title>Node20</title>
<g id="a_node20"><a xlink:href="socket_8h.html" target="_top" xlink:title=" ">
<polygon fill="none" stroke="black" points="469.25,-274 469.25,-293 594.25,-293 594.25,-274 469.25,-274"/>
<text text-anchor="middle" x="531.75" y="-281" font-family="Helvetica,sans-Serif" font-size="10.00">include/libc/sys/socket.h</text>
</a>
</g>
</g>
<!-- Node1&#45;&gt;Node20 -->
<g id="edge28" class="edge">
<title>Node1&#45;&gt;Node20</title>
<path fill="none" stroke="midnightblue" d="M701.78,-332.68C660.98,-321.11 598.56,-303.43 561.78,-293.01"/>
<polygon fill="midnightblue" stroke="midnightblue" points="701.08,-336.12 711.66,-335.48 702.99,-329.38 701.08,-336.12"/>
</g>
<!-- Node21 -->
<g id="node21" class="node">
<title>Node21</title>
<g id="a_node21"><a xlink:href="stat_8h.html" target="_top" xlink:title=" ">
<polygon fill="none" stroke="black" points="97.75,-274 97.75,-293 209.75,-293 209.75,-274 97.75,-274"/>
<text text-anchor="middle" x="153.75" y="-281" font-family="Helvetica,sans-Serif" font-size="10.00">include/libc/sys/stat.h</text>
</a>
</g>
</g>
<!-- Node1&#45;&gt;Node21 -->
<g id="edge32" class="edge">
<title>Node1&#45;&gt;Node21</title>
<path fill="none" stroke="midnightblue" d="M671.8,-340.54C571.98,-335.01 383.12,-322.35 223.75,-299 213.06,-297.44 201.56,-295.26 191.02,-293.07"/>
<polygon fill="midnightblue" stroke="midnightblue" points="671.88,-344.05 682.05,-341.1 672.26,-337.06 671.88,-344.05"/>
</g>
<!-- Node22 -->
<g id="node22" class="node">
<title>Node22</title>
<g id="a_node22"><a xlink:href="libc_2sys_2time_8h.html" target="_top" xlink:title=" ">
<polygon fill="none" stroke="black" points="284.75,-274 284.75,-293 398.75,-293 398.75,-274 284.75,-274"/>
<text text-anchor="middle" x="341.75" y="-281" font-family="Helvetica,sans-Serif" font-size="10.00">include/libc/sys/time.h</text>
</a>
</g>
</g>
<!-- Node1&#45;&gt;Node22 -->
<g id="edge37" class="edge">
<title>Node1&#45;&gt;Node22</title>
<path fill="none" stroke="midnightblue" d="M671.96,-335C607.05,-326.43 507.71,-312.83 421.75,-299 410.46,-297.18 398.31,-295.07 386.96,-293.02"/>
<polygon fill="midnightblue" stroke="midnightblue" points="671.7,-338.49 682.07,-336.33 672.62,-331.55 671.7,-338.49"/>
</g>
<!-- Node23 -->
<g id="node23" class="node">
<title>Node23</title>
<g id="a_node23"><a xlink:href="libc_2time_8h.html" target="_top" xlink:title=" ">
<polygon fill="none" stroke="black" points="334.25,-207 334.25,-226 429.25,-226 429.25,-207 334.25,-207"/>
<text text-anchor="middle" x="381.75" y="-214" font-family="Helvetica,sans-Serif" font-size="10.00">include/libc/time.h</text>
</a>
</g>
</g>
<!-- Node1&#45;&gt;Node23 -->
<g id="edge41" class="edge">
<title>Node1&#45;&gt;Node23</title>
<path fill="none" stroke="midnightblue" d="M671.91,-337.99C600.67,-330.95 495.64,-317.81 459.75,-299 425.92,-281.27 398.37,-243.26 387.16,-226.16"/>
<polygon fill="midnightblue" stroke="midnightblue" points="671.87,-341.5 682.16,-338.98 672.55,-334.53 671.87,-341.5"/>
</g>
<!-- Node24 -->
<g id="node24" class="node">
<title>Node24</title>
<g id="a_node24"><a xlink:href="vga__text_8h.html" target="_top" xlink:title=" ">
<polygon fill="none" stroke="black" points="1225.25,-268.5 1225.25,-298.5 1338.25,-298.5 1338.25,-268.5 1225.25,-268.5"/>
<text text-anchor="start" x="1233.25" y="-286.5" font-family="Helvetica,sans-Serif" font-size="10.00">src/kernel/arch/x86</text>
<text text-anchor="middle" x="1281.75" y="-275.5" font-family="Helvetica,sans-Serif" font-size="10.00">_64/drivers/vga_text.h</text>
</a>
</g>
</g>
<!-- Node1&#45;&gt;Node24 -->
<g id="edge42" class="edge">
<title>Node1&#45;&gt;Node24</title>
<path fill="none" stroke="midnightblue" d="M811.63,-340.03C904.39,-334.16 1073.08,-321.36 1215.75,-299 1218.76,-298.53 1221.84,-298 1224.95,-297.44"/>
<polygon fill="midnightblue" stroke="midnightblue" points="811.29,-336.55 801.53,-340.66 811.73,-343.53 811.29,-336.55"/>
</g>
<!-- Node25 -->
<g id="node25" class="node">
<title>Node25</title>
<g id="a_node25"><a xlink:href="x86__64_2mmu_2alloc_8h.html" target="_top" xlink:title=" ">
<polygon fill="none" stroke="black" points="1495.75,-201.5 1495.75,-231.5 1595.75,-231.5 1595.75,-201.5 1495.75,-201.5"/>
<text text-anchor="start" x="1503.75" y="-219.5" font-family="Helvetica,sans-Serif" font-size="10.00">src/kernel/arch/x86</text>
<text text-anchor="middle" x="1545.75" y="-208.5" font-family="Helvetica,sans-Serif" font-size="10.00">_64/mmu/alloc.h</text>
</a>
</g>
</g>
<!-- Node1&#45;&gt;Node25 -->
<g id="edge43" class="edge">
<title>Node1&#45;&gt;Node25</title>
<path fill="none" stroke="midnightblue" d="M812.08,-341.54C949.07,-336.29 1246.96,-322.52 1346.75,-299 1411.25,-283.8 1481.97,-250.5 1519.28,-231.5"/>
<polygon fill="midnightblue" stroke="midnightblue" points="811.57,-338.06 801.71,-341.93 811.83,-345.05 811.57,-338.06"/>
</g>
<!-- Node26 -->
<g id="node26" class="node">
<title>Node26</title>
<g id="a_node26"><a xlink:href="frame_8h.html" target="_top" xlink:title=" ">
<polygon fill="none" stroke="black" points="1495.75,-268.5 1495.75,-298.5 1595.75,-298.5 1595.75,-268.5 1495.75,-268.5"/>
<text text-anchor="start" x="1503.75" y="-286.5" font-family="Helvetica,sans-Serif" font-size="10.00">src/kernel/arch/x86</text>
<text text-anchor="middle" x="1545.75" y="-275.5" font-family="Helvetica,sans-Serif" font-size="10.00">_64/mmu/frame.h</text>
</a>
</g>
</g>
<!-- Node1&#45;&gt;Node26 -->
<g id="edge44" class="edge">
<title>Node1&#45;&gt;Node26</title>
<path fill="none" stroke="midnightblue" d="M811.55,-340.87C936.23,-334.95 1205.39,-320.76 1431.75,-299 1452.7,-296.99 1475.74,-294.17 1495.6,-291.55"/>
<polygon fill="midnightblue" stroke="midnightblue" points="811.2,-337.38 801.38,-341.35 811.53,-344.37 811.2,-337.38"/>
</g>
<!-- Node27 -->
<g id="node27" class="node">
<title>Node27</title>
<g id="a_node27"><a xlink:href="paging_8h.html" target="_top" xlink:title=" ">
<polygon fill="none" stroke="black" points="1613.75,-201.5 1613.75,-231.5 1713.75,-231.5 1713.75,-201.5 1613.75,-201.5"/>
<text text-anchor="start" x="1621.75" y="-219.5" font-family="Helvetica,sans-Serif" font-size="10.00">src/kernel/arch/x86</text>
<text text-anchor="middle" x="1663.75" y="-208.5" font-family="Helvetica,sans-Serif" font-size="10.00">_64/mmu/paging.h</text>
</a>
</g>
</g>
<!-- Node1&#45;&gt;Node27 -->
<g id="edge47" class="edge">
<title>Node1&#45;&gt;Node27</title>
<path fill="none" stroke="midnightblue" d="M811.34,-343.79C1004.2,-342.75 1535.88,-336.46 1604.75,-299 1631.91,-284.23 1649.72,-250.92 1658.12,-231.77"/>
<polygon fill="midnightblue" stroke="midnightblue" points="811.3,-340.29 801.32,-343.85 811.34,-347.29 811.3,-340.29"/>
</g>
<!-- Node4&#45;&gt;Node3 -->
<g id="edge4" class="edge">
<title>Node4&#45;&gt;Node3</title>
<path fill="none" stroke="midnightblue" d="M977.47,-268.09C958.48,-255.24 931.3,-236.83 915.49,-226.13"/>
<polygon fill="midnightblue" stroke="midnightblue" points="975.56,-271.03 985.8,-273.73 979.48,-265.23 975.56,-271.03"/>
</g>
<!-- Node5 -->
<g id="node5" class="node">
<title>Node5</title>
<g id="a_node5"><a xlink:href="fs_2proc_8h.html" target="_top" xlink:title=" ">
<polygon fill="none" stroke="black" points="1105.75,-207 1105.75,-226 1223.75,-226 1223.75,-207 1105.75,-207"/>
<text text-anchor="middle" x="1164.75" y="-214" font-family="Helvetica,sans-Serif" font-size="10.00">include/kernel/fs/proc.h</text>
</a>
</g>
</g>
<!-- Node4&#45;&gt;Node5 -->
<g id="edge5" class="edge">
<title>Node4&#45;&gt;Node5</title>
<path fill="none" stroke="midnightblue" d="M1030.4,-270.1C1063.36,-257.2 1114.11,-237.33 1142.88,-226.06"/>
<polygon fill="midnightblue" stroke="midnightblue" points="1028.83,-266.96 1020.79,-273.87 1031.38,-273.48 1028.83,-266.96"/>
</g>
<!-- Node6 -->
<g id="node6" class="node">
<title>Node6</title>
<g id="a_node6"><a xlink:href="sock_8h.html" target="_top" xlink:title=" ">
<polygon fill="none" stroke="black" points="1241.75,-207 1241.75,-226 1361.75,-226 1361.75,-207 1241.75,-207"/>
<text text-anchor="middle" x="1301.75" y="-214" font-family="Helvetica,sans-Serif" font-size="10.00">include/kernel/fs/sock.h</text>
</a>
</g>
</g>
<!-- Node4&#45;&gt;Node6 -->
<g id="edge6" class="edge">
<title>Node4&#45;&gt;Node6</title>
<path fill="none" stroke="midnightblue" d="M1048.61,-271.8C1108.24,-259.01 1206.85,-237.86 1261.74,-226.08"/>
<polygon fill="midnightblue" stroke="midnightblue" points="1047.71,-268.42 1038.67,-273.94 1049.18,-275.26 1047.71,-268.42"/>
</g>
<!-- Node7 -->
<g id="node7" class="node">
<title>Node7</title>
<g id="a_node7"><a xlink:href="tar_8h.html" target="_top" xlink:title=" ">
<polygon fill="none" stroke="black" points="977.75,-207 977.75,-226 1087.75,-226 1087.75,-207 977.75,-207"/>
<text text-anchor="middle" x="1032.75" y="-214" font-family="Helvetica,sans-Serif" font-size="10.00">include/kernel/fs/tar.h</text>
</a>
</g>
</g>
<!-- Node4&#45;&gt;Node7 -->
<g id="edge7" class="edge">
<title>Node4&#45;&gt;Node7</title>
<path fill="none" stroke="midnightblue" d="M1008.08,-264.66C1014.63,-252.13 1023.12,-235.91 1028.23,-226.13"/>
<polygon fill="midnightblue" stroke="midnightblue" points="1004.87,-263.25 1003.33,-273.73 1011.07,-266.5 1004.87,-263.25"/>
</g>
<!-- Node4&#45;&gt;Node8 -->
<g id="edge8" class="edge">
<title>Node4&#45;&gt;Node8</title>
<path fill="none" stroke="midnightblue" d="M1047.63,-271.97C1055.03,-270.53 1062.58,-269.16 1069.75,-268 1202.75,-246.5 1238.24,-256.39 1370.75,-232 1373.61,-231.47 1376.53,-230.89 1379.48,-230.27"/>
<polygon fill="midnightblue" stroke="midnightblue" points="1046.83,-268.56 1037.7,-273.94 1048.19,-275.42 1046.83,-268.56"/>
</g>
<!-- Node12 -->
<g id="node12" class="node">
<title>Node12</title>
<g id="a_node12"><a xlink:href="icmpv4_8h.html" target="_top" xlink:title=" ">
<polygon fill="none" stroke="black" points="547.25,-67.5 547.25,-97.5 640.25,-97.5 640.25,-67.5 547.25,-67.5"/>
<text text-anchor="start" x="555.25" y="-85.5" font-family="Helvetica,sans-Serif" font-size="10.00">include/kernel/net</text>
<text text-anchor="middle" x="593.75" y="-74.5" font-family="Helvetica,sans-Serif" font-size="10.00">/icmpv4.h</text>
</a>
</g>
</g>
<!-- Node11&#45;&gt;Node12 -->
<g id="edge12" class="edge">
<title>Node11&#45;&gt;Node12</title>
<path fill="none" stroke="midnightblue" d="M643.27,-127.6C632.25,-117.78 619.4,-106.34 609.56,-97.58"/>
<polygon fill="midnightblue" stroke="midnightblue" points="641.11,-130.36 650.91,-134.4 645.77,-125.13 641.11,-130.36"/>
</g>
<!-- Node11&#45;&gt;Node13 -->
<g id="edge13" class="edge">
<title>Node11&#45;&gt;Node13</title>
<path fill="none" stroke="midnightblue" d="M680.15,-125.58C685.61,-116.24 691.74,-105.75 696.52,-97.58"/>
<polygon fill="midnightblue" stroke="midnightblue" points="677.02,-124 674.99,-134.4 683.06,-127.53 677.02,-124"/>
</g>
<!-- Node13&#45;&gt;Node9 -->
<g id="edge14" class="edge">
<title>Node13&#45;&gt;Node9</title>
<path fill="none" stroke="midnightblue" d="M663.24,-63.27C639.66,-52.92 610.6,-40.15 588.8,-30.58"/>
<polygon fill="midnightblue" stroke="midnightblue" points="662.07,-66.58 672.63,-67.4 664.89,-60.17 662.07,-66.58"/>
</g>
<!-- Node13&#45;&gt;Node10 -->
<g id="edge15" class="edge">
<title>Node13&#45;&gt;Node10</title>
<path fill="none" stroke="midnightblue" d="M704.75,-57.11C704.75,-48.15 704.75,-38.32 704.75,-30.58"/>
<polygon fill="midnightblue" stroke="midnightblue" points="701.25,-57.4 704.75,-67.4 708.25,-57.4 701.25,-57.4"/>
</g>
<!-- Node13&#45;&gt;Node14 -->
<g id="edge16" class="edge">
<title>Node13&#45;&gt;Node14</title>
<path fill="none" stroke="midnightblue" d="M737.84,-62.3C755.36,-52.12 776.51,-39.85 792.49,-30.58"/>
<polygon fill="midnightblue" stroke="midnightblue" points="735.94,-59.35 729.05,-67.4 739.46,-65.4 735.94,-59.35"/>
</g>
<!-- Node16&#45;&gt;Node11 -->
<g id="edge22" class="edge">
<title>Node16&#45;&gt;Node11</title>
<path fill="none" stroke="midnightblue" d="M600.54,-200.54C614.85,-189.73 634.06,-175.2 648.11,-164.59"/>
<polygon fill="midnightblue" stroke="midnightblue" points="598.21,-197.91 592.35,-206.73 602.43,-203.5 598.21,-197.91"/>
</g>
<!-- Node16&#45;&gt;Node13 -->
<g id="edge23" class="edge">
<title>Node16&#45;&gt;Node13</title>
<path fill="none" stroke="midnightblue" d="M583.69,-196.81C587.33,-178.9 595.1,-152.01 610.75,-134 624.96,-117.64 645.82,-105.68 664.28,-97.52"/>
<polygon fill="midnightblue" stroke="midnightblue" points="580.2,-196.4 581.88,-206.86 587.09,-197.64 580.2,-196.4"/>
</g>
<!-- Node16&#45;&gt;Node15 -->
<g id="edge24" class="edge">
<title>Node16&#45;&gt;Node15</title>
<path fill="none" stroke="midnightblue" d="M513.76,-205.94C452.36,-196.79 359.07,-181.9 278.75,-165 275.65,-164.35 272.47,-163.64 269.26,-162.9"/>
<polygon fill="midnightblue" stroke="midnightblue" points="513.3,-209.41 523.71,-207.41 514.33,-202.48 513.3,-209.41"/>
</g>
<!-- Node16&#45;&gt;Node17 -->
<g id="edge25" class="edge">
<title>Node16&#45;&gt;Node17</title>
<path fill="none" stroke="midnightblue" d="M540.38,-204.09C494.88,-191.23 421.94,-170.62 381.05,-159.06"/>
<polygon fill="midnightblue" stroke="midnightblue" points="539.63,-207.52 550.21,-206.87 541.53,-200.78 539.63,-207.52"/>
</g>
<!-- Node18 -->
<g id="node18" class="node">
<title>Node18</title>
<g id="a_node18"><a xlink:href="unistd_8h.html" target="_top" xlink:title=" ">
<polygon fill="none" stroke="black" points="299.25,-73 299.25,-92 402.25,-92 402.25,-73 299.25,-73"/>
<text text-anchor="middle" x="350.75" y="-80" font-family="Helvetica,sans-Serif" font-size="10.00">include/libc/unistd.h</text>
</a>
</g>
</g>
<!-- Node17&#45;&gt;Node18 -->
<g id="edge26" class="edge">
<title>Node17&#45;&gt;Node18</title>
<path fill="none" stroke="midnightblue" d="M350.75,-129.54C350.75,-117.17 350.75,-101.62 350.75,-92.13"/>
<polygon fill="midnightblue" stroke="midnightblue" points="347.25,-129.73 350.75,-139.73 354.25,-129.73 347.25,-129.73"/>
</g>
<!-- Node20&#45;&gt;Node15 -->
<g id="edge29" class="edge">
<title>Node20&#45;&gt;Node15</title>
<path fill="none" stroke="midnightblue" d="M513.09,-267.12C501.17,-257.21 485.43,-243.98 471.75,-232 456.37,-218.52 455.88,-210.46 437.75,-201 373.51,-167.48 349.2,-181.93 278.75,-165 275.67,-164.26 272.5,-163.49 269.31,-162.7"/>
<polygon fill="midnightblue" stroke="midnightblue" points="511.08,-270 521.02,-273.69 515.55,-264.61 511.08,-270"/>
</g>
<!-- Node20&#45;&gt;Node16 -->
<g id="edge30" class="edge">
<title>Node20&#45;&gt;Node16</title>
<path fill="none" stroke="midnightblue" d="M544.64,-265.4C554.16,-252.77 566.72,-236.1 574.24,-226.13"/>
<polygon fill="midnightblue" stroke="midnightblue" points="541.58,-263.64 538.36,-273.73 547.17,-267.86 541.58,-263.64"/>
</g>
<!-- Node20&#45;&gt;Node17 -->
<g id="edge31" class="edge">
<title>Node20&#45;&gt;Node17</title>
<path fill="none" stroke="midnightblue" d="M522.47,-264.72C512.21,-246.55 494.13,-218.58 471.75,-201 445.52,-180.4 409.69,-166.84 383.83,-159.01"/>
<polygon fill="midnightblue" stroke="midnightblue" points="519.49,-266.56 527.35,-273.67 525.64,-263.22 519.49,-266.56"/>
</g>
<!-- Node21&#45;&gt;Node2 -->
<g id="edge33" class="edge">
<title>Node21&#45;&gt;Node2</title>
<path fill="none" stroke="midnightblue" d="M134.73,-267.24C121.29,-256.45 103.41,-242.1 90.3,-231.59"/>
<polygon fill="midnightblue" stroke="midnightblue" points="132.83,-270.2 142.82,-273.73 137.21,-264.75 132.83,-270.2"/>
</g>
<!-- Node21&#45;&gt;Node15 -->
<g id="edge34" class="edge">
<title>Node21&#45;&gt;Node15</title>
<path fill="none" stroke="midnightblue" d="M156.82,-264.1C160.2,-246.98 166.69,-221.16 177.75,-201 185.24,-187.34 196.94,-174.14 206.4,-164.67"/>
<polygon fill="midnightblue" stroke="midnightblue" points="153.37,-263.48 155.02,-273.94 160.26,-264.73 153.37,-263.48"/>
</g>
<!-- Node21&#45;&gt;Node17 -->
<g id="edge35" class="edge">
<title>Node21&#45;&gt;Node17</title>
<path fill="none" stroke="midnightblue" d="M163.19,-264.81C173.77,-246.51 192.53,-218.26 215.75,-201 244.27,-179.8 282.68,-166.58 311.24,-159.01"/>
<polygon fill="midnightblue" stroke="midnightblue" points="160.11,-263.14 158.3,-273.58 166.22,-266.55 160.11,-263.14"/>
</g>
<!-- Node22&#45;&gt;Node15 -->
<g id="edge38" class="edge">
<title>Node22&#45;&gt;Node15</title>
<path fill="none" stroke="midnightblue" d="M327.04,-266.32C303.38,-240.3 257.25,-189.55 234.73,-164.78"/>
<polygon fill="midnightblue" stroke="midnightblue" points="324.56,-268.79 333.87,-273.84 329.74,-264.09 324.56,-268.79"/>
</g>
<!-- Node22&#45;&gt;Node17 -->
<g id="edge39" class="edge">
<title>Node22&#45;&gt;Node17</title>
<path fill="none" stroke="midnightblue" d="M333.33,-264.37C326.74,-247.8 319.5,-222.66 324.75,-201 328.56,-185.28 338.16,-168.98 344.56,-159.29"/>
<polygon fill="midnightblue" stroke="midnightblue" points="330.26,-266.09 337.43,-273.89 336.69,-263.32 330.26,-266.09"/>
</g>
<!-- Node22&#45;&gt;Node23 -->
<g id="edge40" class="edge">
<title>Node22&#45;&gt;Node23</title>
<path fill="none" stroke="midnightblue" d="M352.5,-265.03C360.24,-252.45 370.36,-236.01 376.44,-226.13"/>
<polygon fill="midnightblue" stroke="midnightblue" points="349.4,-263.38 347.14,-273.73 355.36,-267.05 349.4,-263.38"/>
</g>
<!-- Node26&#45;&gt;Node25 -->
<g id="edge45" class="edge">
<title>Node26&#45;&gt;Node25</title>
<path fill="none" stroke="midnightblue" d="M1545.75,-258.11C1545.75,-249.15 1545.75,-239.32 1545.75,-231.58"/>
<polygon fill="midnightblue" stroke="midnightblue" points="1542.25,-258.4 1545.75,-268.4 1549.25,-258.4 1542.25,-258.4"/>
</g>
<!-- Node26&#45;&gt;Node27 -->
<g id="edge46" class="edge">
<title>Node26&#45;&gt;Node27</title>
<path fill="none" stroke="midnightblue" d="M1580.36,-263.44C1598.87,-253.24 1621.27,-240.9 1638.19,-231.58"/>
<polygon fill="midnightblue" stroke="midnightblue" points="1578.42,-260.51 1571.35,-268.4 1581.8,-266.64 1578.42,-260.51"/>
</g>
</g>
</svg>
