<?xml version="1.0" encoding="UTF-8" standalone="no"?>
<!DOCTYPE svg PUBLIC "-//W3C//DTD SVG 1.1//EN"
 "http://www.w3.org/Graphics/SVG/1.1/DTD/svg11.dtd">
<!-- Generated by graphviz version 9.0.0 (20230911.1827)
 -->
<!-- Title: include/libc/sys/types.h Pages: 1 -->
<svg width="200pt" height="83pt"
 viewBox="0.00 0.00 200.00 82.50" xmlns="http://www.w3.org/2000/svg" xmlns:xlink="http://www.w3.org/1999/xlink">
<g id="graph0" class="graph" transform="scale(1 1) rotate(0) translate(4 78.5)">
<title>include/libc/sys/types.h</title>
<!-- Node1 -->
<g id="Node000001" class="node">
<title>Node1</title>
<g id="a_Node000001"><a xlink:title=" ">
<polygon fill="#999999" stroke="#666666" points="159.25,-74.5 40.5,-74.5 40.5,-55.25 159.25,-55.25 159.25,-74.5"/>
<text text-anchor="middle" x="99.88" y="-61" font-family="Helvetica,sans-Serif" font-size="10.00">include/libc/sys/types.h</text>
</a>
</g>
</g>
<!-- Node2 -->
<g id="Node000002" class="node">
<title>Node2</title>
<g id="a_Node000002"><a xlink:title=" ">
<polygon fill="#e0e0e0" stroke="#999999" points="55.75,-19.25 0,-19.25 0,0 55.75,0 55.75,-19.25"/>
<text text-anchor="middle" x="27.88" y="-5.75" font-family="Helvetica,sans-Serif" font-size="10.00">stdbool.h</text>
</a>
</g>
</g>
<!-- Node1&#45;&gt;Node2 -->
<g id="edge1_Node000001_Node000002" class="edge">
<title>Node1&#45;&gt;Node2</title>
<g id="a_edge1_Node000001_Node000002"><a xlink:title=" ">
<path fill="none" stroke="#63b8ff" d="M87.66,-54.84C77.05,-46.99 61.44,-35.45 48.83,-26.12"/>
<polygon fill="#63b8ff" stroke="#63b8ff" points="51.25,-23.56 41.13,-20.42 47.08,-29.19 51.25,-23.56"/>
</a>
</g>
</g>
<!-- Node3 -->
<g id="Node000003" class="node">
<title>Node3</title>
<g id="a_Node000003"><a xlink:title=" ">
<polygon fill="#e0e0e0" stroke="#999999" points="125.5,-19.25 74.25,-19.25 74.25,0 125.5,0 125.5,-19.25"/>
<text text-anchor="middle" x="99.88" y="-5.75" font-family="Helvetica,sans-Serif" font-size="10.00">stddef.h</text>
</a>
</g>
</g>
<!-- Node1&#45;&gt;Node3 -->
<g id="edge2_Node000001_Node000003" class="edge">
<title>Node1&#45;&gt;Node3</title>
<g id="a_edge2_Node000001_Node000003"><a xlink:title=" ">
<path fill="none" stroke="#63b8ff" d="M99.88,-55.08C99.88,-48.57 99.88,-39.42 99.88,-31.12"/>
<polygon fill="#63b8ff" stroke="#63b8ff" points="103.38,-31.12 99.88,-21.12 96.38,-31.12 103.38,-31.12"/>
</a>
</g>
</g>
<!-- Node4 -->
<g id="Node000004" class="node">
<title>Node4</title>
<g id="a_Node000004"><a xlink:title=" ">
<polygon fill="#e0e0e0" stroke="#999999" points="192,-19.25 143.75,-19.25 143.75,0 192,0 192,-19.25"/>
<text text-anchor="middle" x="167.88" y="-5.75" font-family="Helvetica,sans-Serif" font-size="10.00">stdint.h</text>
</a>
</g>
</g>
<!-- Node1&#45;&gt;Node4 -->
<g id="edge3_Node000001_Node000004" class="edge">
<title>Node1&#45;&gt;Node4</title>
<g id="a_edge3_Node000001_Node000004"><a xlink:title=" ">
<path fill="none" stroke="#63b8ff" d="M111.41,-54.84C121.34,-47.07 135.89,-35.67 147.73,-26.4"/>
<polygon fill="#63b8ff" stroke="#63b8ff" points="149.6,-29.38 155.32,-20.46 145.29,-23.87 149.6,-29.38"/>
</a>
</g>
</g>
</g>
</svg>
