<?xml version="1.0" encoding="UTF-8" standalone="no"?>
<!DOCTYPE svg PUBLIC "-//W3C//DTD SVG 1.1//EN"
 "http://www.w3.org/Graphics/SVG/1.1/DTD/svg11.dtd">
<!-- Generated by graphviz version 2.50.0 (20211204.2007)
 -->
<!-- Title: include/kernel/net/udp.h Pages: 1 -->
<svg width="247pt" height="319pt"
 viewBox="0.00 0.00 247.16 319.00" xmlns="http://www.w3.org/2000/svg" xmlns:xlink="http://www.w3.org/1999/xlink">
<g id="graph0" class="graph" transform="scale(1 1) rotate(0) translate(4 315)">
<title>include/kernel/net/udp.h</title>
<!-- Node1 -->
<g id="node1" class="node">
<title>Node1</title>
<g id="a_node1"><a xlink:title=" ">
<polygon fill="#bfbfbf" stroke="black" points="75.66,-280.5 75.66,-310.5 168.66,-310.5 168.66,-280.5 75.66,-280.5"/>
<text text-anchor="start" x="83.66" y="-298.5" font-family="Helvetica,sans-Serif" font-size="10.00">include/kernel/net</text>
<text text-anchor="middle" x="122.16" y="-287.5" font-family="Helvetica,sans-Serif" font-size="10.00">/udp.h</text>
</a>
</g>
</g>
<!-- Node2 -->
<g id="node2" class="node">
<title>Node2</title>
<g id="a_node2"><a xlink:href="inet_8h.html" target="_top" xlink:title=" ">
<polygon fill="none" stroke="black" points="62.16,-168.5 62.16,-187.5 124.16,-187.5 124.16,-168.5 62.16,-168.5"/>
<text text-anchor="middle" x="93.16" y="-175.5" font-family="Helvetica,sans-Serif" font-size="10.00">arpa/inet.h</text>
</a>
</g>
</g>
<!-- Node1&#45;&gt;Node2 -->
<g id="edge1" class="edge">
<title>Node1&#45;&gt;Node2</title>
<path fill="none" stroke="midnightblue" d="M118.6,-280.34C113.37,-259.53 103.62,-220.66 97.82,-197.58"/>
<polygon fill="midnightblue" stroke="midnightblue" points="101.16,-196.52 95.33,-187.67 94.37,-198.22 101.16,-196.52"/>
</g>
<!-- Node4 -->
<g id="node4" class="node">
<title>Node4</title>
<g id="a_node4"><a xlink:href="types_8h.html" target="_top" xlink:title=" ">
<polygon fill="none" stroke="black" points="77.16,-56.5 77.16,-75.5 145.16,-75.5 145.16,-56.5 77.16,-56.5"/>
<text text-anchor="middle" x="111.16" y="-63.5" font-family="Helvetica,sans-Serif" font-size="10.00">sys/types.h</text>
</a>
</g>
</g>
<!-- Node1&#45;&gt;Node4 -->
<g id="edge15" class="edge">
<title>Node1&#45;&gt;Node4</title>
<path fill="none" stroke="midnightblue" d="M106.62,-280.26C79.35,-254.07 23.81,-195.15 3.16,-132 0.39,-123.55 -1.77,-119.4 3.16,-112 17.39,-90.65 43.87,-79.42 67.04,-73.51"/>
<polygon fill="midnightblue" stroke="midnightblue" points="68.09,-76.86 77.07,-71.22 66.54,-70.04 68.09,-76.86"/>
</g>
<!-- Node8 -->
<g id="node8" class="node">
<title>Node8</title>
<g id="a_node8"><a xlink:href="ipv4_8h.html" target="_top" xlink:title=" ">
<polygon fill="none" stroke="black" points="122.66,-224.5 122.66,-243.5 181.66,-243.5 181.66,-224.5 122.66,-224.5"/>
<text text-anchor="middle" x="152.16" y="-231.5" font-family="Helvetica,sans-Serif" font-size="10.00">net/ipv4.h</text>
</a>
</g>
</g>
<!-- Node1&#45;&gt;Node8 -->
<g id="edge8" class="edge">
<title>Node1&#45;&gt;Node8</title>
<path fill="none" stroke="midnightblue" d="M129.27,-280.4C133.45,-272.11 138.77,-261.55 143.23,-252.71"/>
<polygon fill="midnightblue" stroke="midnightblue" points="146.41,-254.16 147.79,-243.66 140.16,-251.01 146.41,-254.16"/>
</g>
<!-- Node9 -->
<g id="node9" class="node">
<title>Node9</title>
<g id="a_node9"><a xlink:href="net_8h.html" target="_top" xlink:title="This module defines network interfaces and drivers.">
<polygon fill="none" stroke="black" points="182.66,-112.5 182.66,-131.5 237.66,-131.5 237.66,-112.5 182.66,-112.5"/>
<text text-anchor="middle" x="210.16" y="-119.5" font-family="Helvetica,sans-Serif" font-size="10.00">net/net.h</text>
</a>
</g>
</g>
<!-- Node1&#45;&gt;Node9 -->
<g id="edge14" class="edge">
<title>Node1&#45;&gt;Node9</title>
<path fill="none" stroke="midnightblue" d="M150.17,-280.48C164.41,-271.9 180.66,-259.56 190.16,-244 209.68,-212 211.81,-166.8 211.24,-141.68"/>
<polygon fill="midnightblue" stroke="midnightblue" points="214.73,-141.52 210.83,-131.67 207.74,-141.8 214.73,-141.52"/>
</g>
<!-- Node3 -->
<g id="node3" class="node">
<title>Node3</title>
<g id="a_node3"><a xlink:href="socket_8h.html" target="_top" xlink:title=" ">
<polygon fill="none" stroke="black" points="12.66,-112.5 12.66,-131.5 85.66,-131.5 85.66,-112.5 12.66,-112.5"/>
<text text-anchor="middle" x="49.16" y="-119.5" font-family="Helvetica,sans-Serif" font-size="10.00">sys/socket.h</text>
</a>
</g>
</g>
<!-- Node2&#45;&gt;Node3 -->
<g id="edge2" class="edge">
<title>Node2&#45;&gt;Node3</title>
<path fill="none" stroke="midnightblue" d="M85.89,-168.08C79.61,-160.38 70.37,-149.03 62.73,-139.65"/>
<polygon fill="midnightblue" stroke="midnightblue" points="65.32,-137.29 56.29,-131.75 59.89,-141.71 65.32,-137.29"/>
</g>
<!-- Node2&#45;&gt;Node4 -->
<g id="edge7" class="edge">
<title>Node2&#45;&gt;Node4</title>
<path fill="none" stroke="midnightblue" d="M94.57,-168.37C97.47,-150.62 104.17,-109.67 108.11,-85.6"/>
<polygon fill="midnightblue" stroke="midnightblue" points="111.59,-86.03 109.75,-75.59 104.68,-84.89 111.59,-86.03"/>
</g>
<!-- Node3&#45;&gt;Node4 -->
<g id="edge3" class="edge">
<title>Node3&#45;&gt;Node4</title>
<path fill="none" stroke="midnightblue" d="M59.12,-112.32C68.28,-104.34 82.09,-92.31 93.18,-82.65"/>
<polygon fill="midnightblue" stroke="midnightblue" points="95.77,-85.04 101.01,-75.83 91.17,-79.76 95.77,-85.04"/>
</g>
<!-- Node5 -->
<g id="node5" class="node">
<title>Node5</title>
<g id="a_node5"><a xlink:title=" ">
<polygon fill="none" stroke="#bfbfbf" points="183.16,-0.5 183.16,-19.5 239.16,-19.5 239.16,-0.5 183.16,-0.5"/>
<text text-anchor="middle" x="211.16" y="-7.5" font-family="Helvetica,sans-Serif" font-size="10.00">stdbool.h</text>
</a>
</g>
</g>
<!-- Node4&#45;&gt;Node5 -->
<g id="edge4" class="edge">
<title>Node4&#45;&gt;Node5</title>
<path fill="none" stroke="midnightblue" d="M127.22,-56.32C143.11,-47.74 167.66,-34.49 186.11,-24.52"/>
<polygon fill="midnightblue" stroke="midnightblue" points="187.99,-27.49 195.13,-19.65 184.67,-21.33 187.99,-27.49"/>
</g>
<!-- Node6 -->
<g id="node6" class="node">
<title>Node6</title>
<g id="a_node6"><a xlink:title=" ">
<polygon fill="none" stroke="#bfbfbf" points="45.16,-0.5 45.16,-19.5 97.16,-19.5 97.16,-0.5 45.16,-0.5"/>
<text text-anchor="middle" x="71.16" y="-7.5" font-family="Helvetica,sans-Serif" font-size="10.00">stddef.h</text>
</a>
</g>
</g>
<!-- Node4&#45;&gt;Node6 -->
<g id="edge5" class="edge">
<title>Node4&#45;&gt;Node6</title>
<path fill="none" stroke="midnightblue" d="M104.55,-56.08C98.9,-48.46 90.61,-37.26 83.7,-27.94"/>
<polygon fill="midnightblue" stroke="midnightblue" points="86.4,-25.7 77.64,-19.75 80.78,-29.87 86.4,-25.7"/>
</g>
<!-- Node7 -->
<g id="node7" class="node">
<title>Node7</title>
<g id="a_node7"><a xlink:title=" ">
<polygon fill="none" stroke="#bfbfbf" points="115.66,-0.5 115.66,-19.5 164.66,-19.5 164.66,-0.5 115.66,-0.5"/>
<text text-anchor="middle" x="140.16" y="-7.5" font-family="Helvetica,sans-Serif" font-size="10.00">stdint.h</text>
</a>
</g>
</g>
<!-- Node4&#45;&gt;Node7 -->
<g id="edge6" class="edge">
<title>Node4&#45;&gt;Node7</title>
<path fill="none" stroke="midnightblue" d="M115.94,-56.08C119.91,-48.69 125.68,-37.95 130.59,-28.81"/>
<polygon fill="midnightblue" stroke="midnightblue" points="133.81,-30.22 135.46,-19.75 127.64,-26.91 133.81,-30.22"/>
</g>
<!-- Node8&#45;&gt;Node2 -->
<g id="edge9" class="edge">
<title>Node8&#45;&gt;Node2</title>
<path fill="none" stroke="midnightblue" d="M142.68,-224.32C133.95,-216.34 120.81,-204.31 110.26,-194.65"/>
<polygon fill="midnightblue" stroke="midnightblue" points="112.55,-192 102.81,-187.83 107.82,-197.17 112.55,-192"/>
</g>
<!-- Node8&#45;&gt;Node4 -->
<g id="edge13" class="edge">
<title>Node8&#45;&gt;Node4</title>
<path fill="none" stroke="midnightblue" d="M149.95,-224.08C143.5,-197.95 124.55,-121.21 115.74,-85.58"/>
<polygon fill="midnightblue" stroke="midnightblue" points="119.07,-84.44 113.27,-75.57 112.27,-86.12 119.07,-84.44"/>
</g>
<!-- Node8&#45;&gt;Node9 -->
<g id="edge10" class="edge">
<title>Node8&#45;&gt;Node9</title>
<path fill="none" stroke="midnightblue" d="M156.71,-224.37C166.19,-206.38 188.25,-164.55 200.86,-140.63"/>
<polygon fill="midnightblue" stroke="midnightblue" points="204.06,-142.07 205.63,-131.59 197.87,-138.8 204.06,-142.07"/>
</g>
<!-- Node9&#45;&gt;Node5 -->
<g id="edge11" class="edge">
<title>Node9&#45;&gt;Node5</title>
<path fill="none" stroke="midnightblue" d="M210.23,-112.37C210.4,-94.62 210.77,-53.67 210.99,-29.6"/>
<polygon fill="midnightblue" stroke="midnightblue" points="214.49,-29.62 211.08,-19.59 207.49,-29.56 214.49,-29.62"/>
</g>
<!-- Node9&#45;&gt;Node7 -->
<g id="edge12" class="edge">
<title>Node9&#45;&gt;Node7</title>
<path fill="none" stroke="midnightblue" d="M204.66,-112.37C193.16,-94.3 166.36,-52.18 151.17,-28.31"/>
<polygon fill="midnightblue" stroke="midnightblue" points="153.94,-26.15 145.62,-19.59 148.04,-29.91 153.94,-26.15"/>
</g>
</g>
</svg>
