<?xml version="1.0" encoding="UTF-8" standalone="no"?>
<!DOCTYPE svg PUBLIC "-//W3C//DTD SVG 1.1//EN"
 "http://www.w3.org/Graphics/SVG/1.1/DTD/svg11.dtd">
<!-- Generated by graphviz version 8.0.2 (20230410.1723)
 -->
<!-- Title: udp_receive_packet Pages: 1 -->
<svg width="262pt" height="137pt"
 viewBox="0.00 0.00 262.00 137.00" xmlns="http://www.w3.org/2000/svg" xmlns:xlink="http://www.w3.org/1999/xlink">
<g id="graph0" class="graph" transform="scale(1 1) rotate(0) translate(4 133)">
<title>udp_receive_packet</title>
<!-- Node1 -->
<g id="Node000001" class="node">
<title>Node1</title>
<g id="a_Node000001"><a xlink:title=" ">
<polygon fill="#999999" stroke="#666666" points="104,-74 0,-74 0,-55 104,-55 104,-74"/>
<text text-anchor="middle" x="52" y="-62" font-family="Helvetica,sans-Serif" font-size="10.00">udp_receive_packet</text>
</a>
</g>
</g>
<!-- Node1&#45;&gt;Node1 -->
<g id="edge4_Node000001_Node000001" class="edge">
<title>Node1&#45;&gt;Node1</title>
<g id="a_edge4_Node000001_Node000001"><a xlink:title=" ">
<path fill="none" stroke="#63b8ff" d="M29.3,-74.37C18.94,-82.94 26.51,-92 52,-92 66.74,-92 75.48,-88.97 78.24,-84.76"/>
<polygon fill="#63b8ff" stroke="#63b8ff" points="81.24,-83.71 74.7,-75.37 74.61,-85.96 81.24,-83.71"/>
</a>
</g>
</g>
<!-- Node2 -->
<g id="Node000002" class="node">
<title>Node2</title>
<g id="a_Node000002"><a xlink:href="descriptor_8c.html#a3a4a85ff782854b3c65aacf9ff4574d5" target="_top" xlink:title=" ">
<polygon fill="white" stroke="#666666" points="254,-111 140,-111 140,-92 254,-92 254,-111"/>
<text text-anchor="middle" x="197" y="-99" font-family="Helvetica,sans-Serif" font-size="10.00">descriptor_udp_lookup</text>
</a>
</g>
</g>
<!-- Node1&#45;&gt;Node2 -->
<g id="edge1_Node000001_Node000002" class="edge">
<title>Node1&#45;&gt;Node2</title>
<g id="a_edge1_Node000001_Node000002"><a xlink:title=" ">
<path fill="none" stroke="#63b8ff" d="M91.32,-74.42C108.47,-78.85 128.9,-84.14 147.13,-88.86"/>
<polygon fill="#63b8ff" stroke="#63b8ff" points="146.01,-92.44 156.57,-91.56 147.77,-85.66 146.01,-92.44"/>
</a>
</g>
</g>
<!-- Node3 -->
<g id="Node000003" class="node">
<title>Node3</title>
<g id="a_Node000003"><a xlink:href="dhcp_8c.html#aaeb6c2139785dacf8f0c6f1cdf580c27" target="_top" xlink:title=" ">
<polygon fill="white" stroke="#666666" points="251.5,-74 142.5,-74 142.5,-55 251.5,-55 251.5,-74"/>
<text text-anchor="middle" x="197" y="-62" font-family="Helvetica,sans-Serif" font-size="10.00">dhcp_receive_packet</text>
</a>
</g>
</g>
<!-- Node1&#45;&gt;Node3 -->
<g id="edge3_Node000001_Node000003" class="edge">
<title>Node1&#45;&gt;Node3</title>
<g id="a_edge3_Node000001_Node000003"><a xlink:title=" ">
<path fill="none" stroke="#63b8ff" d="M104.22,-64.5C113,-64.5 122.21,-64.5 131.29,-64.5"/>
<polygon fill="#63b8ff" stroke="#63b8ff" points="131.24,-68 141.24,-64.5 131.24,-61 131.24,-68"/>
</a>
</g>
</g>
<!-- Node4 -->
<g id="Node000004" class="node">
<title>Node4</title>
<g id="a_Node000004"><a xlink:href="write_8c.html#abb39b21888372e95ad3e5c59b166f5c8" target="_top" xlink:title=" ">
<polygon fill="white" stroke="#666666" points="216,-19 178,-19 178,0 216,0 216,-19"/>
<text text-anchor="middle" x="197" y="-7" font-family="Helvetica,sans-Serif" font-size="10.00">write</text>
</a>
</g>
</g>
<!-- Node1&#45;&gt;Node4 -->
<g id="edge5_Node000001_Node000004" class="edge">
<title>Node1&#45;&gt;Node4</title>
<g id="a_edge5_Node000001_Node000004"><a xlink:title=" ">
<path fill="none" stroke="#63b8ff" d="M78.9,-54.54C103.94,-44.91 141.79,-30.35 167.63,-20.41"/>
<polygon fill="#63b8ff" stroke="#63b8ff" points="168.49,-23.45 176.57,-16.59 165.98,-16.91 168.49,-23.45"/>
</a>
</g>
</g>
<!-- Node2&#45;&gt;Node2 -->
<g id="edge2_Node000002_Node000002" class="edge">
<title>Node2&#45;&gt;Node2</title>
<g id="a_edge2_Node000002_Node000002"><a xlink:title=" ">
<path fill="none" stroke="#63b8ff" d="M174.3,-111.37C163.94,-119.94 171.51,-129 197,-129 211.74,-129 220.48,-125.97 223.24,-121.76"/>
<polygon fill="#63b8ff" stroke="#63b8ff" points="226.24,-120.71 219.7,-112.37 219.61,-122.96 226.24,-120.71"/>
</a>
</g>
</g>
<!-- Node4&#45;&gt;Node4 -->
<g id="edge6_Node000004_Node000004" class="edge">
<title>Node4&#45;&gt;Node4</title>
<g id="a_edge6_Node000004_Node000004"><a xlink:title=" ">
<path fill="none" stroke="#63b8ff" d="M177.94,-16.82C162.61,-26.03 168.96,-37 197,-37 217.59,-37 226.48,-31.09 223.68,-24.3"/>
<polygon fill="#63b8ff" stroke="#63b8ff" points="226.65,-22.32 217.06,-17.82 221.75,-27.32 226.65,-22.32"/>
</a>
</g>
</g>
</g>
</svg>
