<?xml version="1.0" encoding="UTF-8" standalone="no"?>
<!DOCTYPE svg PUBLIC "-//W3C//DTD SVG 1.1//EN"
 "http://www.w3.org/Graphics/SVG/1.1/DTD/svg11.dtd">
<!-- Generated by graphviz version 8.0.2 (20230410.1723)
 -->
<!-- Title: include/kernel/net/udp.h Pages: 1 -->
<svg width="246pt" height="313pt"
 viewBox="0.00 0.00 245.81 313.00" xmlns="http://www.w3.org/2000/svg" xmlns:xlink="http://www.w3.org/1999/xlink">
<g id="graph0" class="graph" transform="scale(1 1) rotate(0) translate(4 309)">
<title>include/kernel/net/udp.h</title>
<!-- Node1 -->
<g id="Node000001" class="node">
<title>Node1</title>
<g id="a_Node000001"><a xlink:title=" ">
<polygon fill="#999999" stroke="#666666" points="167.31,-305 74.31,-305 74.31,-275 167.31,-275 167.31,-305"/>
<text text-anchor="start" x="82.31" y="-293" font-family="Helvetica,sans-Serif" font-size="10.00">include/kernel/net</text>
<text text-anchor="middle" x="120.81" y="-282" font-family="Helvetica,sans-Serif" font-size="10.00">/udp.h</text>
</a>
</g>
</g>
<!-- Node2 -->
<g id="Node000002" class="node">
<title>Node2</title>
<g id="a_Node000002"><a xlink:href="inet_8h.html" target="_top" xlink:title=" ">
<polygon fill="white" stroke="#666666" points="122.81,-184 60.81,-184 60.81,-165 122.81,-165 122.81,-184"/>
<text text-anchor="middle" x="91.81" y="-172" font-family="Helvetica,sans-Serif" font-size="10.00">arpa/inet.h</text>
</a>
</g>
</g>
<!-- Node1&#45;&gt;Node2 -->
<g id="edge1_Node000001_Node000002" class="edge">
<title>Node1&#45;&gt;Node2</title>
<g id="a_edge1_Node000001_Node000002"><a xlink:title=" ">
<path fill="none" stroke="#63b8ff" d="M117.13,-274.63C111.97,-254.4 102.53,-217.49 96.75,-194.86"/>
<polygon fill="#63b8ff" stroke="#63b8ff" points="99.9,-194.05 94.04,-185.23 93.12,-195.78 99.9,-194.05"/>
</a>
</g>
</g>
<!-- Node4 -->
<g id="Node000004" class="node">
<title>Node4</title>
<g id="a_Node000004"><a xlink:href="types_8h.html" target="_top" xlink:title=" ">
<polygon fill="white" stroke="#666666" points="143.81,-74 75.81,-74 75.81,-55 143.81,-55 143.81,-74"/>
<text text-anchor="middle" x="109.81" y="-62" font-family="Helvetica,sans-Serif" font-size="10.00">sys/types.h</text>
</a>
</g>
</g>
<!-- Node1&#45;&gt;Node4 -->
<g id="edge15_Node000001_Node000004" class="edge">
<title>Node1&#45;&gt;Node4</title>
<g id="a_edge15_Node000001_Node000004"><a xlink:title=" ">
<path fill="none" stroke="#63b8ff" d="M104.85,-274.62C77.43,-248.72 22.37,-191.11 1.81,-129 -8.54,-97.75 31.09,-81.26 65.23,-72.99"/>
<polygon fill="#63b8ff" stroke="#63b8ff" points="65.58,-76.28 74.58,-70.69 64.06,-69.44 65.58,-76.28"/>
</a>
</g>
</g>
<!-- Node8 -->
<g id="Node000008" class="node">
<title>Node8</title>
<g id="a_Node000008"><a xlink:href="ipv4_8h.html" target="_top" xlink:title=" ">
<polygon fill="white" stroke="#666666" points="180.31,-239 121.31,-239 121.31,-220 180.31,-220 180.31,-239"/>
<text text-anchor="middle" x="150.81" y="-227" font-family="Helvetica,sans-Serif" font-size="10.00">net/ipv4.h</text>
</a>
</g>
</g>
<!-- Node1&#45;&gt;Node8 -->
<g id="edge8_Node000001_Node000008" class="edge">
<title>Node1&#45;&gt;Node8</title>
<g id="a_edge8_Node000001_Node000008"><a xlink:title=" ">
<path fill="none" stroke="#63b8ff" d="M128.22,-274.54C132.22,-266.74 137.2,-257.03 141.47,-248.71"/>
<polygon fill="#63b8ff" stroke="#63b8ff" points="144.91,-250.67 146.36,-240.18 138.68,-247.48 144.91,-250.67"/>
</a>
</g>
</g>
<!-- Node9 -->
<g id="Node000009" class="node">
<title>Node9</title>
<g id="a_Node000009"><a xlink:href="net_8h.html" target="_top" xlink:title="This module defines network interfaces and drivers.">
<polygon fill="white" stroke="#666666" points="236.31,-129 181.31,-129 181.31,-110 236.31,-110 236.31,-129"/>
<text text-anchor="middle" x="208.81" y="-117" font-family="Helvetica,sans-Serif" font-size="10.00">net/net.h</text>
</a>
</g>
</g>
<!-- Node1&#45;&gt;Node9 -->
<g id="edge14_Node000001_Node000009" class="edge">
<title>Node1&#45;&gt;Node9</title>
<g id="a_edge14_Node000001_Node000009"><a xlink:title=" ">
<path fill="none" stroke="#63b8ff" d="M149.84,-274.55C163.81,-266.09 179.51,-254.1 188.81,-239 207.71,-208.3 210.21,-165.05 209.83,-140.18"/>
<polygon fill="#63b8ff" stroke="#63b8ff" points="213.3,-140.18 209.46,-130.3 206.3,-140.42 213.3,-140.18"/>
</a>
</g>
</g>
<!-- Node3 -->
<g id="Node000003" class="node">
<title>Node3</title>
<g id="a_Node000003"><a xlink:href="socket_8h.html" target="_top" xlink:title=" ">
<polygon fill="white" stroke="#666666" points="84.31,-129 11.31,-129 11.31,-110 84.31,-110 84.31,-129"/>
<text text-anchor="middle" x="47.81" y="-117" font-family="Helvetica,sans-Serif" font-size="10.00">sys/socket.h</text>
</a>
</g>
</g>
<!-- Node2&#45;&gt;Node3 -->
<g id="edge2_Node000002_Node000003" class="edge">
<title>Node2&#45;&gt;Node3</title>
<g id="a_edge2_Node000002_Node000003"><a xlink:title=" ">
<path fill="none" stroke="#63b8ff" d="M84.54,-164.75C78.46,-157.43 69.61,-146.76 62.12,-137.74"/>
<polygon fill="#63b8ff" stroke="#63b8ff" points="64.31,-135.9 55.23,-130.44 58.92,-140.37 64.31,-135.9"/>
</a>
</g>
</g>
<!-- Node2&#45;&gt;Node4 -->
<g id="edge7_Node000002_Node000004" class="edge">
<title>Node2&#45;&gt;Node4</title>
<g id="a_edge7_Node000002_Node000004"><a xlink:title=" ">
<path fill="none" stroke="#63b8ff" d="M93.28,-164.66C96.15,-147.42 102.57,-108.9 106.51,-85.27"/>
<polygon fill="#63b8ff" stroke="#63b8ff" points="110.12,-85.9 108.31,-75.46 103.22,-84.75 110.12,-85.9"/>
</a>
</g>
</g>
<!-- Node3&#45;&gt;Node4 -->
<g id="edge3_Node000003_Node000004" class="edge">
<title>Node3&#45;&gt;Node4</title>
<g id="a_edge3_Node000003_Node000004"><a xlink:title=" ">
<path fill="none" stroke="#63b8ff" d="M58.32,-109.51C67.28,-101.85 80.38,-90.66 91.12,-81.47"/>
<polygon fill="#63b8ff" stroke="#63b8ff" points="93.12,-83.52 98.44,-74.36 88.57,-78.2 93.12,-83.52"/>
</a>
</g>
</g>
<!-- Node5 -->
<g id="Node000005" class="node">
<title>Node5</title>
<g id="a_Node000005"><a xlink:title=" ">
<polygon fill="#e0e0e0" stroke="#999999" points="237.81,-19 181.81,-19 181.81,0 237.81,0 237.81,-19"/>
<text text-anchor="middle" x="209.81" y="-7" font-family="Helvetica,sans-Serif" font-size="10.00">stdbool.h</text>
</a>
</g>
</g>
<!-- Node4&#45;&gt;Node5 -->
<g id="edge4_Node000004_Node000005" class="edge">
<title>Node4&#45;&gt;Node5</title>
<g id="a_edge4_Node000004_Node000005"><a xlink:title=" ">
<path fill="none" stroke="#63b8ff" d="M126.77,-54.51C142.31,-46.27 165.55,-33.96 183.49,-24.45"/>
<polygon fill="#63b8ff" stroke="#63b8ff" points="184.9,-27.13 192.09,-19.36 181.62,-20.95 184.9,-27.13"/>
</a>
</g>
</g>
<!-- Node6 -->
<g id="Node000006" class="node">
<title>Node6</title>
<g id="a_Node000006"><a xlink:title=" ">
<polygon fill="#e0e0e0" stroke="#999999" points="95.81,-19 43.81,-19 43.81,0 95.81,0 95.81,-19"/>
<text text-anchor="middle" x="69.81" y="-7" font-family="Helvetica,sans-Serif" font-size="10.00">stddef.h</text>
</a>
</g>
</g>
<!-- Node4&#45;&gt;Node6 -->
<g id="edge5_Node000004_Node000006" class="edge">
<title>Node4&#45;&gt;Node6</title>
<g id="a_edge5_Node000004_Node000006"><a xlink:title=" ">
<path fill="none" stroke="#63b8ff" d="M103.2,-54.75C97.73,-47.5 89.79,-36.98 83.03,-28.02"/>
<polygon fill="#63b8ff" stroke="#63b8ff" points="85.37,-26.32 76.55,-20.44 79.78,-30.53 85.37,-26.32"/>
</a>
</g>
</g>
<!-- Node7 -->
<g id="Node000007" class="node">
<title>Node7</title>
<g id="a_Node000007"><a xlink:title=" ">
<polygon fill="#e0e0e0" stroke="#999999" points="163.31,-19 114.31,-19 114.31,0 163.31,0 163.31,-19"/>
<text text-anchor="middle" x="138.81" y="-7" font-family="Helvetica,sans-Serif" font-size="10.00">stdint.h</text>
</a>
</g>
</g>
<!-- Node4&#45;&gt;Node7 -->
<g id="edge6_Node000004_Node000007" class="edge">
<title>Node4&#45;&gt;Node7</title>
<g id="a_edge6_Node000004_Node000007"><a xlink:title=" ">
<path fill="none" stroke="#63b8ff" d="M114.59,-54.75C118.43,-47.73 123.95,-37.64 128.75,-28.87"/>
<polygon fill="#63b8ff" stroke="#63b8ff" points="132.18,-30.89 133.91,-20.44 126.04,-27.53 132.18,-30.89"/>
</a>
</g>
</g>
<!-- Node8&#45;&gt;Node2 -->
<g id="edge9_Node000008_Node000002" class="edge">
<title>Node8&#45;&gt;Node2</title>
<g id="a_edge9_Node000008_Node000002"><a xlink:title=" ">
<path fill="none" stroke="#63b8ff" d="M140.8,-219.51C132.27,-211.85 119.81,-200.66 109.59,-191.47"/>
<polygon fill="#63b8ff" stroke="#63b8ff" points="112.44,-189.44 102.67,-185.36 107.77,-194.64 112.44,-189.44"/>
</a>
</g>
</g>
<!-- Node8&#45;&gt;Node4 -->
<g id="edge13_Node000008_Node000004" class="edge">
<title>Node8&#45;&gt;Node4</title>
<g id="a_edge13_Node000008_Node000004"><a xlink:title=" ">
<path fill="none" stroke="#63b8ff" d="M148.6,-219.74C142.21,-194.31 123.53,-120.08 114.63,-84.69"/>
<polygon fill="#63b8ff" stroke="#63b8ff" points="117.85,-84.15 112.02,-75.31 111.07,-85.86 117.85,-84.15"/>
</a>
</g>
</g>
<!-- Node8&#45;&gt;Node9 -->
<g id="edge10_Node000008_Node000009" class="edge">
<title>Node8&#45;&gt;Node9</title>
<g id="a_edge10_Node000008_Node000009"><a xlink:title=" ">
<path fill="none" stroke="#63b8ff" d="M155.55,-219.66C164.98,-202.1 186.26,-162.48 198.88,-138.98"/>
<polygon fill="#63b8ff" stroke="#63b8ff" points="202.35,-140.93 203.99,-130.46 196.18,-137.61 202.35,-140.93"/>
</a>
</g>
</g>
<!-- Node9&#45;&gt;Node5 -->
<g id="edge11_Node000009_Node000005" class="edge">
<title>Node9&#45;&gt;Node5</title>
<g id="a_edge11_Node000009_Node000005"><a xlink:title=" ">
<path fill="none" stroke="#63b8ff" d="M208.89,-109.66C209.05,-92.42 209.4,-53.9 209.62,-30.27"/>
<polygon fill="#63b8ff" stroke="#63b8ff" points="213.13,-30.49 209.72,-20.46 206.13,-30.43 213.13,-30.49"/>
</a>
</g>
</g>
<!-- Node9&#45;&gt;Node7 -->
<g id="edge12_Node000009_Node000007" class="edge">
<title>Node9&#45;&gt;Node7</title>
<g id="a_edge12_Node000009_Node000007"><a xlink:title=" ">
<path fill="none" stroke="#63b8ff" d="M203.08,-109.66C191.64,-92.02 165.78,-52.12 150.58,-28.67"/>
<polygon fill="#63b8ff" stroke="#63b8ff" points="152.99,-26.95 144.61,-20.46 147.12,-30.76 152.99,-26.95"/>
</a>
</g>
</g>
</g>
</svg>
