<?xml version="1.0" encoding="UTF-8" standalone="no"?>
<!DOCTYPE svg PUBLIC "-//W3C//DTD SVG 1.1//EN"
 "http://www.w3.org/Graphics/SVG/1.1/DTD/svg11.dtd">
<!-- Generated by graphviz version 8.0.2 (20230410.1723)
 -->
<!-- Title: include/kernel/net/udp.h Pages: 1 -->
<svg width="247pt" height="319pt"
 viewBox="0.00 0.00 247.16 319.00" xmlns="http://www.w3.org/2000/svg" xmlns:xlink="http://www.w3.org/1999/xlink">
<g id="graph0" class="graph" transform="scale(1 1) rotate(0) translate(4 315)">
<title>include/kernel/net/udp.h</title>
<!-- Node1 -->
<g id="node1" class="node">
<title>Node1</title>
<g id="a_node1"><a xlink:title=" ">
<polygon fill="#bfbfbf" stroke="black" points="75.66,-280.5 75.66,-310.5 168.66,-310.5 168.66,-280.5 75.66,-280.5"/>
<text text-anchor="start" x="83.66" y="-298.5" font-family="Helvetica,sans-Serif" font-size="10.00">include/kernel/net</text>
<text text-anchor="middle" x="122.16" y="-287.5" font-family="Helvetica,sans-Serif" font-size="10.00">/udp.h</text>
</a>
</g>
</g>
<!-- Node2 -->
<g id="node2" class="node">
<title>Node2</title>
<g id="a_node2"><a xlink:href="inet_8h.html" target="_top" xlink:title=" ">
<polygon fill="none" stroke="black" points="62.16,-168.5 62.16,-187.5 124.16,-187.5 124.16,-168.5 62.16,-168.5"/>
<text text-anchor="middle" x="93.16" y="-175.5" font-family="Helvetica,sans-Serif" font-size="10.00">arpa/inet.h</text>
</a>
</g>
</g>
<!-- Node1&#45;&gt;Node2 -->
<g id="edge1" class="edge">
<title>Node1&#45;&gt;Node2</title>
<path fill="none" stroke="midnightblue" d="M118.72,-280.8C113.55,-260.24 103.79,-221.35 97.94,-198.04"/>
<polygon fill="midnightblue" stroke="midnightblue" points="101.11,-197.3 95.28,-188.45 94.32,-199.01 101.11,-197.3"/>
</g>
<!-- Node4 -->
<g id="node4" class="node">
<title>Node4</title>
<g id="a_node4"><a xlink:href="types_8h.html" target="_top" xlink:title=" ">
<polygon fill="none" stroke="black" points="77.16,-56.5 77.16,-75.5 145.16,-75.5 145.16,-56.5 77.16,-56.5"/>
<text text-anchor="middle" x="111.16" y="-63.5" font-family="Helvetica,sans-Serif" font-size="10.00">sys/types.h</text>
</a>
</g>
</g>
<!-- Node1&#45;&gt;Node4 -->
<g id="edge15" class="edge">
<title>Node1&#45;&gt;Node4</title>
<path fill="none" stroke="midnightblue" d="M107.05,-280.67C79.94,-254.69 23.91,-195.48 3.16,-132 0.39,-123.55 -1.77,-119.4 3.16,-112 17.31,-90.77 43.57,-79.54 66.66,-73.61"/>
<polygon fill="midnightblue" stroke="midnightblue" points="67.36,-76.81 76.32,-71.17 65.8,-69.99 67.36,-76.81"/>
</g>
<!-- Node8 -->
<g id="node8" class="node">
<title>Node8</title>
<g id="a_node8"><a xlink:href="ipv4_8h.html" target="_top" xlink:title=" ">
<polygon fill="none" stroke="black" points="122.66,-224.5 122.66,-243.5 181.66,-243.5 181.66,-224.5 122.66,-224.5"/>
<text text-anchor="middle" x="152.16" y="-231.5" font-family="Helvetica,sans-Serif" font-size="10.00">net/ipv4.h</text>
</a>
</g>
</g>
<!-- Node1&#45;&gt;Node8 -->
<g id="edge8" class="edge">
<title>Node1&#45;&gt;Node8</title>
<path fill="none" stroke="midnightblue" d="M129.11,-280.7C133.25,-272.5 138.54,-262 143.01,-253.14"/>
<polygon fill="midnightblue" stroke="midnightblue" points="146.54,-254.9 147.92,-244.4 140.29,-251.75 146.54,-254.9"/>
</g>
<!-- Node9 -->
<g id="node9" class="node">
<title>Node9</title>
<g id="a_node9"><a xlink:href="net_8h.html" target="_top" xlink:title="This module defines network interfaces and drivers.">
<polygon fill="none" stroke="black" points="182.66,-112.5 182.66,-131.5 237.66,-131.5 237.66,-112.5 182.66,-112.5"/>
<text text-anchor="middle" x="210.16" y="-119.5" font-family="Helvetica,sans-Serif" font-size="10.00">net/net.h</text>
</a>
</g>
</g>
<!-- Node1&#45;&gt;Node9 -->
<g id="edge14" class="edge">
<title>Node1&#45;&gt;Node9</title>
<path fill="none" stroke="midnightblue" d="M149.83,-280.69C164.14,-272.1 180.58,-259.69 190.16,-244 209.51,-212.28 211.77,-167.58 211.25,-142.33"/>
<polygon fill="midnightblue" stroke="midnightblue" points="214.71,-142.21 210.82,-132.36 207.71,-142.49 214.71,-142.21"/>
</g>
<!-- Node3 -->
<g id="node3" class="node">
<title>Node3</title>
<g id="a_node3"><a xlink:href="socket_8h.html" target="_top" xlink:title=" ">
<polygon fill="none" stroke="black" points="12.66,-112.5 12.66,-131.5 85.66,-131.5 85.66,-112.5 12.66,-112.5"/>
<text text-anchor="middle" x="49.16" y="-119.5" font-family="Helvetica,sans-Serif" font-size="10.00">sys/socket.h</text>
</a>
</g>
</g>
<!-- Node2&#45;&gt;Node3 -->
<g id="edge2" class="edge">
<title>Node2&#45;&gt;Node3</title>
<path fill="none" stroke="midnightblue" d="M86.28,-168.56C79.98,-160.83 70.47,-149.16 62.65,-139.57"/>
<polygon fill="midnightblue" stroke="midnightblue" points="64.87,-137.74 55.84,-132.2 59.44,-142.16 64.87,-137.74"/>
</g>
<!-- Node2&#45;&gt;Node4 -->
<g id="edge7" class="edge">
<title>Node2&#45;&gt;Node4</title>
<path fill="none" stroke="midnightblue" d="M94.51,-168.73C97.36,-151.29 104.06,-110.35 108.04,-86.06"/>
<polygon fill="midnightblue" stroke="midnightblue" points="111.63,-86.8 109.79,-76.36 104.72,-85.67 111.63,-86.8"/>
</g>
<!-- Node3&#45;&gt;Node4 -->
<g id="edge3" class="edge">
<title>Node3&#45;&gt;Node4</title>
<path fill="none" stroke="midnightblue" d="M58.84,-112.56C68.09,-104.51 82.23,-92.19 93.49,-82.39"/>
<polygon fill="midnightblue" stroke="midnightblue" points="95.5,-84.41 100.74,-75.2 90.9,-79.13 95.5,-84.41"/>
</g>
<!-- Node5 -->
<g id="node5" class="node">
<title>Node5</title>
<g id="a_node5"><a xlink:title=" ">
<polygon fill="none" stroke="#bfbfbf" points="183.16,-0.5 183.16,-19.5 239.16,-19.5 239.16,-0.5 183.16,-0.5"/>
<text text-anchor="middle" x="211.16" y="-7.5" font-family="Helvetica,sans-Serif" font-size="10.00">stdbool.h</text>
</a>
</g>
</g>
<!-- Node4&#45;&gt;Node5 -->
<g id="edge4" class="edge">
<title>Node4&#45;&gt;Node5</title>
<path fill="none" stroke="midnightblue" d="M126.78,-56.56C142.63,-48 167.42,-34.62 186.03,-24.57"/>
<polygon fill="midnightblue" stroke="midnightblue" points="187.5,-27.21 194.64,-19.38 184.18,-21.05 187.5,-27.21"/>
</g>
<!-- Node6 -->
<g id="node6" class="node">
<title>Node6</title>
<g id="a_node6"><a xlink:title=" ">
<polygon fill="none" stroke="#bfbfbf" points="45.16,-0.5 45.16,-19.5 97.16,-19.5 97.16,-0.5 45.16,-0.5"/>
<text text-anchor="middle" x="71.16" y="-7.5" font-family="Helvetica,sans-Serif" font-size="10.00">stddef.h</text>
</a>
</g>
</g>
<!-- Node4&#45;&gt;Node6 -->
<g id="edge5" class="edge">
<title>Node4&#45;&gt;Node6</title>
<path fill="none" stroke="midnightblue" d="M104.91,-56.56C99.24,-48.91 90.71,-37.4 83.65,-27.86"/>
<polygon fill="midnightblue" stroke="midnightblue" points="86,-26.15 77.23,-20.2 80.37,-30.32 86,-26.15"/>
</g>
<!-- Node7 -->
<g id="node7" class="node">
<title>Node7</title>
<g id="a_node7"><a xlink:title=" ">
<polygon fill="none" stroke="#bfbfbf" points="115.66,-0.5 115.66,-19.5 164.66,-19.5 164.66,-0.5 115.66,-0.5"/>
<text text-anchor="middle" x="140.16" y="-7.5" font-family="Helvetica,sans-Serif" font-size="10.00">stdint.h</text>
</a>
</g>
</g>
<!-- Node4&#45;&gt;Node7 -->
<g id="edge6" class="edge">
<title>Node4&#45;&gt;Node7</title>
<path fill="none" stroke="midnightblue" d="M115.69,-56.56C119.67,-49.15 125.59,-38.12 130.62,-28.76"/>
<polygon fill="midnightblue" stroke="midnightblue" points="134.1,-30.67 135.75,-20.2 127.94,-27.36 134.1,-30.67"/>
</g>
<!-- Node8&#45;&gt;Node2 -->
<g id="edge9" class="edge">
<title>Node8&#45;&gt;Node2</title>
<path fill="none" stroke="midnightblue" d="M142.94,-224.56C134.14,-216.51 120.68,-204.19 109.97,-194.39"/>
<polygon fill="midnightblue" stroke="midnightblue" points="112.86,-192.37 103.12,-188.2 108.13,-197.53 112.86,-192.37"/>
</g>
<!-- Node8&#45;&gt;Node4 -->
<g id="edge13" class="edge">
<title>Node8&#45;&gt;Node4</title>
<path fill="none" stroke="midnightblue" d="M150.07,-224.54C143.73,-198.9 124.64,-121.6 115.77,-85.7"/>
<polygon fill="midnightblue" stroke="midnightblue" points="118.99,-85.12 113.19,-76.25 112.19,-86.79 118.99,-85.12"/>
</g>
<!-- Node8&#45;&gt;Node9 -->
<g id="edge10" class="edge">
<title>Node8&#45;&gt;Node9</title>
<path fill="none" stroke="midnightblue" d="M156.52,-224.73C165.84,-207.05 187.89,-165.23 200.63,-141.07"/>
<polygon fill="midnightblue" stroke="midnightblue" points="204.18,-142.84 205.75,-132.36 197.99,-139.58 204.18,-142.84"/>
</g>
<!-- Node9&#45;&gt;Node5 -->
<g id="edge11" class="edge">
<title>Node9&#45;&gt;Node5</title>
<path fill="none" stroke="midnightblue" d="M210.23,-112.73C210.39,-95.29 210.76,-54.35 210.98,-30.06"/>
<polygon fill="midnightblue" stroke="midnightblue" points="214.49,-30.4 211.08,-20.36 207.49,-30.33 214.49,-30.4"/>
</g>
<!-- Node9&#45;&gt;Node7 -->
<g id="edge12" class="edge">
<title>Node9&#45;&gt;Node7</title>
<path fill="none" stroke="midnightblue" d="M204.89,-112.73C193.54,-94.89 166.55,-52.47 151.24,-28.42"/>
<polygon fill="midnightblue" stroke="midnightblue" points="153.8,-26.92 145.48,-20.36 147.89,-30.68 153.8,-26.92"/>
</g>
</g>
</svg>
