<?xml version="1.0" encoding="UTF-8" standalone="no"?>
<!DOCTYPE svg PUBLIC "-//W3C//DTD SVG 1.1//EN"
 "http://www.w3.org/Graphics/SVG/1.1/DTD/svg11.dtd">
<!-- Generated by graphviz version 8.0.2 (20230410.1723)
 -->
<!-- Title: udp_send_packet Pages: 1 -->
<svg width="376pt" height="100pt"
 viewBox="0.00 0.00 376.00 100.00" xmlns="http://www.w3.org/2000/svg" xmlns:xlink="http://www.w3.org/1999/xlink">
<g id="graph0" class="graph" transform="scale(1 1) rotate(0) translate(4 96)">
<title>udp_send_packet</title>
<!-- Node1 -->
<g id="Node000001" class="node">
<title>Node1</title>
<g id="a_Node000001"><a xlink:title=" ">
<polygon fill="#999999" stroke="#666666" points="93,-46 0,-46 0,-27 93,-27 93,-46"/>
<text text-anchor="middle" x="46.5" y="-34" font-family="Helvetica,sans-Serif" font-size="10.00">udp_send_packet</text>
</a>
</g>
</g>
<!-- Node1&#45;&gt;Node1 -->
<g id="edge7_Node000001_Node000001" class="edge">
<title>Node1&#45;&gt;Node1</title>
<g id="a_edge7_Node000001_Node000001"><a xlink:title=" ">
<path fill="none" stroke="#63b8ff" d="M26.15,-46.37C16.86,-54.94 23.65,-64 46.5,-64 59.71,-64 67.55,-60.97 70.02,-56.76"/>
<polygon fill="#63b8ff" stroke="#63b8ff" points="73.12,-55.91 66.85,-47.37 66.42,-57.95 73.12,-55.91"/>
</a>
</g>
</g>
<!-- Node2 -->
<g id="Node000002" class="node">
<title>Node2</title>
<g id="a_Node000002"><a xlink:href="ipv4_8c.html#a70757066dd9950d01c1c5366d1bb36a5" target="_top" xlink:title="From: https://tools.ietf.org/html/rfc1071.">
<polygon fill="white" stroke="#666666" points="219,-74 134,-74 134,-55 219,-55 219,-74"/>
<text text-anchor="middle" x="176.5" y="-62" font-family="Helvetica,sans-Serif" font-size="10.00">ipv4_checksum</text>
</a>
</g>
</g>
<!-- Node1&#45;&gt;Node2 -->
<g id="edge1_Node000001_Node000002" class="edge">
<title>Node1&#45;&gt;Node2</title>
<g id="a_edge1_Node000001_Node000002"><a xlink:title=" ">
<path fill="none" stroke="#63b8ff" d="M92.99,-46.45C102.7,-48.57 113.03,-50.83 122.98,-53.01"/>
<polygon fill="#63b8ff" stroke="#63b8ff" points="122.06,-56.61 132.58,-55.33 123.56,-49.77 122.06,-56.61"/>
</a>
</g>
</g>
<!-- Node3 -->
<g id="Node000003" class="node">
<title>Node3</title>
<g id="a_Node000003"><a xlink:href="ipv4_8c.html#a8f913ffc3ba073a5a2018ff80d0e8212" target="_top" xlink:title=" ">
<polygon fill="white" stroke="#666666" points="224,-19 129,-19 129,0 224,0 224,-19"/>
<text text-anchor="middle" x="176.5" y="-7" font-family="Helvetica,sans-Serif" font-size="10.00">ipv4_send_packet</text>
</a>
</g>
</g>
<!-- Node1&#45;&gt;Node3 -->
<g id="edge3_Node000001_Node000003" class="edge">
<title>Node1&#45;&gt;Node3</title>
<g id="a_edge3_Node000001_Node000003"><a xlink:title=" ">
<path fill="none" stroke="#63b8ff" d="M93.35,-26.83C101.33,-25.15 109.72,-23.38 117.97,-21.64"/>
<polygon fill="#63b8ff" stroke="#63b8ff" points="118.62,-24.87 127.68,-19.38 117.17,-18.02 118.62,-24.87"/>
</a>
</g>
</g>
<!-- Node2&#45;&gt;Node2 -->
<g id="edge2_Node000002_Node000002" class="edge">
<title>Node2&#45;&gt;Node2</title>
<g id="a_edge2_Node000002_Node000002"><a xlink:title=" ">
<path fill="none" stroke="#63b8ff" d="M156.15,-74.37C146.86,-82.94 153.65,-92 176.5,-92 189.71,-92 197.55,-88.97 200.02,-84.76"/>
<polygon fill="#63b8ff" stroke="#63b8ff" points="203.12,-83.91 196.85,-75.37 196.42,-85.95 203.12,-83.91"/>
</a>
</g>
</g>
<!-- Node3&#45;&gt;Node3 -->
<g id="edge6_Node000003_Node000003" class="edge">
<title>Node3&#45;&gt;Node3</title>
<g id="a_edge6_Node000003_Node000003"><a xlink:title=" ">
<path fill="none" stroke="#63b8ff" d="M156.15,-19.37C146.86,-27.94 153.65,-37 176.5,-37 189.71,-37 197.55,-33.97 200.02,-29.76"/>
<polygon fill="#63b8ff" stroke="#63b8ff" points="203.12,-28.91 196.85,-20.37 196.42,-30.95 203.12,-28.91"/>
</a>
</g>
</g>
<!-- Node4 -->
<g id="Node000004" class="node">
<title>Node4</title>
<g id="a_Node000004"><a xlink:href="ethernet_8c.html#ae0adc121b615550b0366f4354a1936b4" target="_top" xlink:title=" ">
<polygon fill="white" stroke="#666666" points="368,-19 260,-19 260,0 368,0 368,-19"/>
<text text-anchor="middle" x="314" y="-7" font-family="Helvetica,sans-Serif" font-size="10.00">ethernet_send_frame</text>
</a>
</g>
</g>
<!-- Node3&#45;&gt;Node4 -->
<g id="edge4_Node000003_Node000004" class="edge">
<title>Node3&#45;&gt;Node4</title>
<g id="a_edge4_Node000003_Node000004"><a xlink:title=" ">
<path fill="none" stroke="#63b8ff" d="M224.13,-9.5C232.12,-9.5 240.53,-9.5 248.88,-9.5"/>
<polygon fill="#63b8ff" stroke="#63b8ff" points="248.77,-13 258.77,-9.5 248.77,-6 248.77,-13"/>
</a>
</g>
</g>
<!-- Node4&#45;&gt;Node4 -->
<g id="edge5_Node000004_Node000004" class="edge">
<title>Node4&#45;&gt;Node4</title>
<g id="a_edge5_Node000004_Node000004"><a xlink:title=" ">
<path fill="none" stroke="#63b8ff" d="M292.47,-19.37C282.65,-27.94 289.83,-37 314,-37 327.97,-37 336.27,-33.97 338.88,-29.76"/>
<polygon fill="#63b8ff" stroke="#63b8ff" points="341.93,-28.81 335.53,-20.37 335.27,-30.96 341.93,-28.81"/>
</a>
</g>
</g>
</g>
</svg>
