<?xml version="1.0" encoding="UTF-8" standalone="no"?>
<!DOCTYPE svg PUBLIC "-//W3C//DTD SVG 1.1//EN"
 "http://www.w3.org/Graphics/SVG/1.1/DTD/svg11.dtd">
<!-- Generated by graphviz version 9.0.0 (20230911.1827)
 -->
<!-- Title: include/kernel/net/udp.h Pages: 1 -->
<svg width="245pt" height="315pt"
 viewBox="0.00 0.00 244.90 314.75" xmlns="http://www.w3.org/2000/svg" xmlns:xlink="http://www.w3.org/1999/xlink">
<g id="graph0" class="graph" transform="scale(1 1) rotate(0) translate(4 310.75)">
<title>include/kernel/net/udp.h</title>
<!-- Node1 -->
<g id="Node000001" class="node">
<title>Node1</title>
<g id="a_Node000001"><a xlink:title=" ">
<polygon fill="#999999" stroke="#666666" points="166.28,-306.75 73.78,-306.75 73.78,-276.25 166.28,-276.25 166.28,-306.75"/>
<text text-anchor="start" x="81.78" y="-293.25" font-family="Helvetica,sans-Serif" font-size="10.00">include/kernel/net</text>
<text text-anchor="middle" x="120.03" y="-282" font-family="Helvetica,sans-Serif" font-size="10.00">/udp.h</text>
</a>
</g>
</g>
<!-- Node2 -->
<g id="Node000002" class="node">
<title>Node2</title>
<g id="a_Node000002"><a xlink:href="inet_8h.html" target="_top" xlink:title=" ">
<polygon fill="white" stroke="#666666" points="121.9,-185 60.15,-185 60.15,-165.75 121.9,-165.75 121.9,-185"/>
<text text-anchor="middle" x="91.03" y="-171.5" font-family="Helvetica,sans-Serif" font-size="10.00">arpa/inet.h</text>
</a>
</g>
</g>
<!-- Node1&#45;&gt;Node2 -->
<g id="edge1_Node000001_Node000002" class="edge">
<title>Node1&#45;&gt;Node2</title>
<g id="a_edge1_Node000001_Node000002"><a xlink:title=" ">
<path fill="none" stroke="#63b8ff" d="M116.36,-276.05C111.24,-255.9 101.94,-219.31 96.14,-196.5"/>
<polygon fill="#63b8ff" stroke="#63b8ff" points="99.56,-195.74 93.71,-186.91 92.78,-197.47 99.56,-195.74"/>
</a>
</g>
</g>
<!-- Node4 -->
<g id="Node000004" class="node">
<title>Node4</title>
<g id="a_Node000004"><a xlink:href="types_8h.html" target="_top" xlink:title=" ">
<polygon fill="white" stroke="#666666" points="142.53,-74.5 75.53,-74.5 75.53,-55.25 142.53,-55.25 142.53,-74.5"/>
<text text-anchor="middle" x="109.03" y="-61" font-family="Helvetica,sans-Serif" font-size="10.00">sys/types.h</text>
</a>
</g>
</g>
<!-- Node1&#45;&gt;Node4 -->
<g id="edge15_Node000001_Node000004" class="edge">
<title>Node1&#45;&gt;Node4</title>
<g id="a_edge15_Node000001_Node000004"><a xlink:title=" ">
<path fill="none" stroke="#63b8ff" d="M104.33,-275.98C77.37,-249.84 23.21,-191.79 3.03,-129.75 0.38,-121.61 -1.7,-117.63 3.03,-110.5 16.63,-90.01 41.69,-78.91 64.03,-72.9"/>
<polygon fill="#63b8ff" stroke="#63b8ff" points="64.66,-76.35 73.57,-70.62 63.04,-69.54 64.66,-76.35"/>
</a>
</g>
</g>
<!-- Node8 -->
<g id="Node000008" class="node">
<title>Node8</title>
<g id="a_Node000008"><a xlink:href="ipv4_8h.html" target="_top" xlink:title=" ">
<polygon fill="white" stroke="#666666" points="178.4,-240.25 119.65,-240.25 119.65,-221 178.4,-221 178.4,-240.25"/>
<text text-anchor="middle" x="149.03" y="-226.75" font-family="Helvetica,sans-Serif" font-size="10.00">net/ipv4.h</text>
</a>
</g>
</g>
<!-- Node1&#45;&gt;Node8 -->
<g id="edge8_Node000001_Node000008" class="edge">
<title>Node1&#45;&gt;Node8</title>
<g id="a_edge8_Node000001_Node000008"><a xlink:title=" ">
<path fill="none" stroke="#63b8ff" d="M127.2,-275.95C130.93,-268.36 135.55,-258.99 139.58,-250.82"/>
<polygon fill="#63b8ff" stroke="#63b8ff" points="142.61,-252.58 143.89,-242.06 136.33,-249.48 142.61,-252.58"/>
</a>
</g>
</g>
<!-- Node9 -->
<g id="Node000009" class="node">
<title>Node9</title>
<g id="a_Node000009"><a xlink:href="net_8h.html" target="_top" xlink:title="This module defines network interfaces and drivers.">
<polygon fill="white" stroke="#666666" points="234.15,-129.75 179.9,-129.75 179.9,-110.5 234.15,-110.5 234.15,-129.75"/>
<text text-anchor="middle" x="207.03" y="-116.25" font-family="Helvetica,sans-Serif" font-size="10.00">net/net.h</text>
</a>
</g>
</g>
<!-- Node1&#45;&gt;Node9 -->
<g id="edge14_Node000001_Node000009" class="edge">
<title>Node1&#45;&gt;Node9</title>
<g id="a_edge14_Node000001_Node000009"><a xlink:title=" ">
<path fill="none" stroke="#63b8ff" d="M148.64,-275.85C162.41,-267.33 177.88,-255.28 187.03,-240.25 205.79,-209.44 208.37,-166.25 208.04,-141.23"/>
<polygon fill="#63b8ff" stroke="#63b8ff" points="211.55,-141.35 207.72,-131.47 204.55,-141.58 211.55,-141.35"/>
</a>
</g>
</g>
<!-- Node3 -->
<g id="Node000003" class="node">
<title>Node3</title>
<g id="a_Node000003"><a xlink:href="socket_8h.html" target="_top" xlink:title=" ">
<polygon fill="white" stroke="#666666" points="84.15,-129.75 11.9,-129.75 11.9,-110.5 84.15,-110.5 84.15,-129.75"/>
<text text-anchor="middle" x="48.03" y="-116.25" font-family="Helvetica,sans-Serif" font-size="10.00">sys/socket.h</text>
</a>
</g>
</g>
<!-- Node2&#45;&gt;Node3 -->
<g id="edge2_Node000002_Node000003" class="edge">
<title>Node2&#45;&gt;Node3</title>
<g id="a_edge2_Node000002_Node000003"><a xlink:title=" ">
<path fill="none" stroke="#63b8ff" d="M83.93,-165.58C78.11,-158.38 69.69,-147.96 62.47,-139.01"/>
<polygon fill="#63b8ff" stroke="#63b8ff" points="65.24,-136.87 56.23,-131.29 59.79,-141.27 65.24,-136.87"/>
</a>
</g>
</g>
<!-- Node2&#45;&gt;Node4 -->
<g id="edge7_Node000002_Node000004" class="edge">
<title>Node2&#45;&gt;Node4</title>
<g id="a_edge7_Node000002_Node000004"><a xlink:title=" ">
<path fill="none" stroke="#63b8ff" d="M92.5,-165.5C95.36,-148.25 101.74,-109.83 105.68,-86.06"/>
<polygon fill="#63b8ff" stroke="#63b8ff" points="109.1,-86.81 107.29,-76.37 102.2,-85.66 109.1,-86.81"/>
</a>
</g>
</g>
<!-- Node3&#45;&gt;Node4 -->
<g id="edge3_Node000003_Node000004" class="edge">
<title>Node3&#45;&gt;Node4</title>
<g id="a_edge3_Node000003_Node000004"><a xlink:title=" ">
<path fill="none" stroke="#63b8ff" d="M58.38,-110.09C67.1,-102.47 79.82,-91.37 90.32,-82.2"/>
<polygon fill="#63b8ff" stroke="#63b8ff" points="92.46,-84.98 97.69,-75.77 87.86,-79.71 92.46,-84.98"/>
</a>
</g>
</g>
<!-- Node5 -->
<g id="Node000005" class="node">
<title>Node5</title>
<g id="a_Node000005"><a xlink:title=" ">
<polygon fill="#e0e0e0" stroke="#999999" points="236.9,-19.25 181.15,-19.25 181.15,0 236.9,0 236.9,-19.25"/>
<text text-anchor="middle" x="209.03" y="-5.75" font-family="Helvetica,sans-Serif" font-size="10.00">stdbool.h</text>
</a>
</g>
</g>
<!-- Node4&#45;&gt;Node5 -->
<g id="edge4_Node000004_Node000005" class="edge">
<title>Node4&#45;&gt;Node5</title>
<g id="a_edge4_Node000004_Node000005"><a xlink:title=" ">
<path fill="none" stroke="#63b8ff" d="M125.99,-54.84C141.29,-46.69 164.06,-34.57 181.89,-25.08"/>
<polygon fill="#63b8ff" stroke="#63b8ff" points="183.46,-28.2 190.65,-20.41 180.17,-22.02 183.46,-28.2"/>
</a>
</g>
</g>
<!-- Node6 -->
<g id="Node000006" class="node">
<title>Node6</title>
<g id="a_Node000006"><a xlink:title=" ">
<polygon fill="#e0e0e0" stroke="#999999" points="96.65,-19.25 45.4,-19.25 45.4,0 96.65,0 96.65,-19.25"/>
<text text-anchor="middle" x="71.03" y="-5.75" font-family="Helvetica,sans-Serif" font-size="10.00">stddef.h</text>
</a>
</g>
</g>
<!-- Node4&#45;&gt;Node6 -->
<g id="edge5_Node000004_Node000006" class="edge">
<title>Node4&#45;&gt;Node6</title>
<g id="a_edge5_Node000004_Node000006"><a xlink:title=" ">
<path fill="none" stroke="#63b8ff" d="M102.75,-55.08C97.67,-47.96 90.33,-37.68 84,-28.8"/>
<polygon fill="#63b8ff" stroke="#63b8ff" points="86.98,-26.95 78.32,-20.84 81.28,-31.01 86.98,-26.95"/>
</a>
</g>
</g>
<!-- Node7 -->
<g id="Node000007" class="node">
<title>Node7</title>
<g id="a_Node000007"><a xlink:title=" ">
<polygon fill="#e0e0e0" stroke="#999999" points="163.15,-19.25 114.9,-19.25 114.9,0 163.15,0 163.15,-19.25"/>
<text text-anchor="middle" x="139.03" y="-5.75" font-family="Helvetica,sans-Serif" font-size="10.00">stdint.h</text>
</a>
</g>
</g>
<!-- Node4&#45;&gt;Node7 -->
<g id="edge6_Node000004_Node000007" class="edge">
<title>Node4&#45;&gt;Node7</title>
<g id="a_edge6_Node000004_Node000007"><a xlink:title=" ">
<path fill="none" stroke="#63b8ff" d="M113.98,-55.08C117.91,-48.11 123.54,-38.12 128.47,-29.37"/>
<polygon fill="#63b8ff" stroke="#63b8ff" points="131.36,-31.36 133.22,-20.93 125.27,-27.92 131.36,-31.36"/>
</a>
</g>
</g>
<!-- Node8&#45;&gt;Node2 -->
<g id="edge9_Node000008_Node000002" class="edge">
<title>Node8&#45;&gt;Node2</title>
<g id="a_edge9_Node000008_Node000002"><a xlink:title=" ">
<path fill="none" stroke="#63b8ff" d="M139.19,-220.59C130.97,-213.05 119.05,-202.1 109.12,-192.98"/>
<polygon fill="#63b8ff" stroke="#63b8ff" points="111.57,-190.48 101.84,-186.3 106.84,-195.64 111.57,-190.48"/>
</a>
</g>
</g>
<!-- Node8&#45;&gt;Node4 -->
<g id="edge13_Node000008_Node000004" class="edge">
<title>Node8&#45;&gt;Node4</title>
<g id="a_edge13_Node000008_Node000004"><a xlink:title=" ">
<path fill="none" stroke="#63b8ff" d="M146.88,-220.82C140.66,-195.39 122.58,-121.35 113.85,-85.62"/>
<polygon fill="#63b8ff" stroke="#63b8ff" points="117.32,-85.08 111.55,-76.19 110.52,-86.74 117.32,-85.08"/>
</a>
</g>
</g>
<!-- Node8&#45;&gt;Node9 -->
<g id="edge10_Node000008_Node000009" class="edge">
<title>Node8&#45;&gt;Node9</title>
<g id="a_edge10_Node000008_Node000009"><a xlink:title=" ">
<path fill="none" stroke="#63b8ff" d="M153.77,-220.75C163.16,-203.18 184.29,-163.66 196.93,-140.02"/>
<polygon fill="#63b8ff" stroke="#63b8ff" points="199.87,-141.93 201.5,-131.46 193.7,-138.63 199.87,-141.93"/>
</a>
</g>
</g>
<!-- Node9&#45;&gt;Node5 -->
<g id="edge11_Node000009_Node000005" class="edge">
<title>Node9&#45;&gt;Node5</title>
<g id="a_edge11_Node000009_Node000005"><a xlink:title=" ">
<path fill="none" stroke="#63b8ff" d="M207.19,-110.25C207.51,-93 208.22,-54.58 208.66,-30.81"/>
<polygon fill="#63b8ff" stroke="#63b8ff" points="212.15,-31.2 208.83,-21.14 205.15,-31.07 212.15,-31.2"/>
</a>
</g>
</g>
<!-- Node9&#45;&gt;Node7 -->
<g id="edge12_Node000009_Node000007" class="edge">
<title>Node9&#45;&gt;Node7</title>
<g id="a_edge12_Node000009_Node000007"><a xlink:title=" ">
<path fill="none" stroke="#63b8ff" d="M201.46,-110.25C190.41,-92.6 165.46,-52.8 150.67,-29.2"/>
<polygon fill="#63b8ff" stroke="#63b8ff" points="153.75,-27.52 145.47,-20.91 147.82,-31.24 153.75,-27.52"/>
</a>
</g>
</g>
</g>
</svg>
