<?xml version="1.0" encoding="UTF-8" standalone="no"?>
<!DOCTYPE svg PUBLIC "-//W3C//DTD SVG 1.1//EN"
 "http://www.w3.org/Graphics/SVG/1.1/DTD/svg11.dtd">
<!-- Generated by graphviz version 2.49.3 (20211023.0002)
 -->
<!-- Title: include/kernel/net/udp.h Pages: 1 -->
<svg width="246pt" height="319pt"
 viewBox="0.00 0.00 245.64 319.00" xmlns="http://www.w3.org/2000/svg" xmlns:xlink="http://www.w3.org/1999/xlink">
<g id="graph0" class="graph" transform="scale(1 1) rotate(0) translate(4 315)">
<title>include/kernel/net/udp.h</title>
<!-- Node1 -->
<g id="node1" class="node">
<title>Node1</title>
<g id="a_node1"><a xlink:title=" ">
<polygon fill="#bfbfbf" stroke="black" points="72.64,-280.5 72.64,-310.5 167.64,-310.5 167.64,-280.5 72.64,-280.5"/>
<text text-anchor="start" x="80.64" y="-298.5" font-family="Helvetica,sans-Serif" font-size="10.00">include/kernel/net</text>
<text text-anchor="middle" x="120.14" y="-287.5" font-family="Helvetica,sans-Serif" font-size="10.00">/udp.h</text>
</a>
</g>
</g>
<!-- Node2 -->
<g id="node2" class="node">
<title>Node2</title>
<g id="a_node2"><a xlink:href="inet_8h.html" target="_top" xlink:title=" ">
<polygon fill="none" stroke="black" points="58.14,-168.5 58.14,-187.5 122.14,-187.5 122.14,-168.5 58.14,-168.5"/>
<text text-anchor="middle" x="90.14" y="-175.5" font-family="Helvetica,sans-Serif" font-size="10.00">arpa/inet.h</text>
</a>
</g>
</g>
<!-- Node1&#45;&gt;Node2 -->
<g id="edge1" class="edge">
<title>Node1&#45;&gt;Node2</title>
<path fill="none" stroke="midnightblue" d="M116.46,-280.34C111.05,-259.53 100.96,-220.66 94.96,-197.58"/>
<polygon fill="midnightblue" stroke="midnightblue" points="98.29,-196.47 92.39,-187.67 91.51,-198.23 98.29,-196.47"/>
</g>
<!-- Node4 -->
<g id="node4" class="node">
<title>Node4</title>
<g id="a_node4"><a xlink:href="types_8h.html" target="_top" xlink:title=" ">
<polygon fill="none" stroke="black" points="75.64,-56.5 75.64,-75.5 142.64,-75.5 142.64,-56.5 75.64,-56.5"/>
<text text-anchor="middle" x="109.14" y="-63.5" font-family="Helvetica,sans-Serif" font-size="10.00">sys/types.h</text>
</a>
</g>
</g>
<!-- Node1&#45;&gt;Node4 -->
<g id="edge15" class="edge">
<title>Node1&#45;&gt;Node4</title>
<path fill="none" stroke="midnightblue" d="M104.86,-280.2C78.04,-253.92 23.41,-194.86 3.14,-132 0.41,-123.54 -1.77,-119.41 3.14,-112 17.02,-91.01 42.88,-79.79 65.58,-73.79"/>
<polygon fill="midnightblue" stroke="midnightblue" points="66.48,-77.18 75.4,-71.46 64.86,-70.37 66.48,-77.18"/>
</g>
<!-- Node8 -->
<g id="node8" class="node">
<title>Node8</title>
<g id="a_node8"><a xlink:href="ipv4_8h.html" target="_top" xlink:title=" ">
<polygon fill="none" stroke="black" points="119.14,-224.5 119.14,-243.5 179.14,-243.5 179.14,-224.5 119.14,-224.5"/>
<text text-anchor="middle" x="149.14" y="-231.5" font-family="Helvetica,sans-Serif" font-size="10.00">net/ipv4.h</text>
</a>
</g>
</g>
<!-- Node1&#45;&gt;Node8 -->
<g id="edge8" class="edge">
<title>Node1&#45;&gt;Node8</title>
<path fill="none" stroke="midnightblue" d="M127.01,-280.4C131.05,-272.11 136.19,-261.55 140.5,-252.71"/>
<polygon fill="midnightblue" stroke="midnightblue" points="143.68,-254.18 144.92,-243.66 137.39,-251.11 143.68,-254.18"/>
</g>
<!-- Node9 -->
<g id="node9" class="node">
<title>Node9</title>
<g id="a_node9"><a xlink:href="net_8h.html" target="_top" xlink:title="This module defines network interfaces and drivers.">
<polygon fill="none" stroke="black" points="180.64,-112.5 180.64,-131.5 235.64,-131.5 235.64,-112.5 180.64,-112.5"/>
<text text-anchor="middle" x="208.14" y="-119.5" font-family="Helvetica,sans-Serif" font-size="10.00">net/net.h</text>
</a>
</g>
</g>
<!-- Node1&#45;&gt;Node9 -->
<g id="edge14" class="edge">
<title>Node1&#45;&gt;Node9</title>
<path fill="none" stroke="midnightblue" d="M148.15,-280.48C162.39,-271.9 178.64,-259.56 188.14,-244 207.66,-212 209.79,-166.8 209.21,-141.68"/>
<polygon fill="midnightblue" stroke="midnightblue" points="212.71,-141.52 208.81,-131.67 205.72,-141.8 212.71,-141.52"/>
</g>
<!-- Node3 -->
<g id="node3" class="node">
<title>Node3</title>
<g id="a_node3"><a xlink:href="socket_8h.html" target="_top" xlink:title=" ">
<polygon fill="none" stroke="black" points="12.14,-112.5 12.14,-131.5 84.14,-131.5 84.14,-112.5 12.14,-112.5"/>
<text text-anchor="middle" x="48.14" y="-119.5" font-family="Helvetica,sans-Serif" font-size="10.00">sys/socket.h</text>
</a>
</g>
</g>
<!-- Node2&#45;&gt;Node3 -->
<g id="edge2" class="edge">
<title>Node2&#45;&gt;Node3</title>
<path fill="none" stroke="midnightblue" d="M83.2,-168.08C77.21,-160.38 68.38,-149.03 61.09,-139.65"/>
<polygon fill="midnightblue" stroke="midnightblue" points="63.84,-137.5 54.94,-131.75 58.32,-141.79 63.84,-137.5"/>
</g>
<!-- Node2&#45;&gt;Node4 -->
<g id="edge7" class="edge">
<title>Node2&#45;&gt;Node4</title>
<path fill="none" stroke="midnightblue" d="M91.63,-168.37C94.69,-150.62 101.77,-109.67 105.92,-85.6"/>
<polygon fill="midnightblue" stroke="midnightblue" points="109.4,-86.04 107.65,-75.59 102.5,-84.85 109.4,-86.04"/>
</g>
<!-- Node3&#45;&gt;Node4 -->
<g id="edge3" class="edge">
<title>Node3&#45;&gt;Node4</title>
<path fill="none" stroke="midnightblue" d="M57.94,-112.32C66.95,-104.34 80.54,-92.31 91.45,-82.65"/>
<polygon fill="midnightblue" stroke="midnightblue" points="93.99,-85.08 99.16,-75.83 89.35,-79.84 93.99,-85.08"/>
</g>
<!-- Node5 -->
<g id="node5" class="node">
<title>Node5</title>
<g id="a_node5"><a xlink:title=" ">
<polygon fill="none" stroke="#bfbfbf" points="180.64,-0.5 180.64,-19.5 237.64,-19.5 237.64,-0.5 180.64,-0.5"/>
<text text-anchor="middle" x="209.14" y="-7.5" font-family="Helvetica,sans-Serif" font-size="10.00">stdbool.h</text>
</a>
</g>
</g>
<!-- Node4&#45;&gt;Node5 -->
<g id="edge4" class="edge">
<title>Node4&#45;&gt;Node5</title>
<path fill="none" stroke="midnightblue" d="M125.2,-56.32C141.09,-47.74 165.64,-34.49 184.09,-24.52"/>
<polygon fill="midnightblue" stroke="midnightblue" points="185.97,-27.49 193.11,-19.65 182.65,-21.33 185.97,-27.49"/>
</g>
<!-- Node6 -->
<g id="node6" class="node">
<title>Node6</title>
<g id="a_node6"><a xlink:title=" ">
<polygon fill="none" stroke="#bfbfbf" points="43.14,-0.5 43.14,-19.5 95.14,-19.5 95.14,-0.5 43.14,-0.5"/>
<text text-anchor="middle" x="69.14" y="-7.5" font-family="Helvetica,sans-Serif" font-size="10.00">stddef.h</text>
</a>
</g>
</g>
<!-- Node4&#45;&gt;Node6 -->
<g id="edge5" class="edge">
<title>Node4&#45;&gt;Node6</title>
<path fill="none" stroke="midnightblue" d="M102.53,-56.08C96.88,-48.46 88.59,-37.26 81.68,-27.94"/>
<polygon fill="midnightblue" stroke="midnightblue" points="84.38,-25.7 75.62,-19.75 78.76,-29.87 84.38,-25.7"/>
</g>
<!-- Node7 -->
<g id="node7" class="node">
<title>Node7</title>
<g id="a_node7"><a xlink:title=" ">
<polygon fill="none" stroke="#bfbfbf" points="113.64,-0.5 113.64,-19.5 162.64,-19.5 162.64,-0.5 113.64,-0.5"/>
<text text-anchor="middle" x="138.14" y="-7.5" font-family="Helvetica,sans-Serif" font-size="10.00">stdint.h</text>
</a>
</g>
</g>
<!-- Node4&#45;&gt;Node7 -->
<g id="edge6" class="edge">
<title>Node4&#45;&gt;Node7</title>
<path fill="none" stroke="midnightblue" d="M113.92,-56.08C117.89,-48.69 123.66,-37.95 128.57,-28.81"/>
<polygon fill="midnightblue" stroke="midnightblue" points="131.79,-30.22 133.44,-19.75 125.62,-26.91 131.79,-30.22"/>
</g>
<!-- Node8&#45;&gt;Node2 -->
<g id="edge9" class="edge">
<title>Node8&#45;&gt;Node2</title>
<path fill="none" stroke="midnightblue" d="M139.66,-224.32C130.93,-216.34 117.79,-204.31 107.24,-194.65"/>
<polygon fill="midnightblue" stroke="midnightblue" points="109.53,-192 99.79,-187.83 104.8,-197.17 109.53,-192"/>
</g>
<!-- Node8&#45;&gt;Node4 -->
<g id="edge13" class="edge">
<title>Node8&#45;&gt;Node4</title>
<path fill="none" stroke="midnightblue" d="M146.98,-224.08C140.69,-197.95 122.2,-121.21 113.61,-85.58"/>
<polygon fill="midnightblue" stroke="midnightblue" points="116.95,-84.47 111.2,-75.57 110.14,-86.11 116.95,-84.47"/>
</g>
<!-- Node8&#45;&gt;Node9 -->
<g id="edge10" class="edge">
<title>Node8&#45;&gt;Node9</title>
<path fill="none" stroke="midnightblue" d="M153.76,-224.37C163.42,-206.38 185.85,-164.55 198.68,-140.63"/>
<polygon fill="midnightblue" stroke="midnightblue" points="201.88,-142.06 203.53,-131.59 195.72,-138.75 201.88,-142.06"/>
</g>
<!-- Node9&#45;&gt;Node5 -->
<g id="edge11" class="edge">
<title>Node9&#45;&gt;Node5</title>
<path fill="none" stroke="midnightblue" d="M208.21,-112.37C208.37,-94.62 208.75,-53.67 208.97,-29.6"/>
<polygon fill="midnightblue" stroke="midnightblue" points="212.47,-29.62 209.06,-19.59 205.47,-29.56 212.47,-29.62"/>
</g>
<!-- Node9&#45;&gt;Node7 -->
<g id="edge12" class="edge">
<title>Node9&#45;&gt;Node7</title>
<path fill="none" stroke="midnightblue" d="M202.64,-112.37C191.14,-94.3 164.34,-52.18 149.15,-28.31"/>
<polygon fill="midnightblue" stroke="midnightblue" points="151.92,-26.15 143.6,-19.59 146.02,-29.91 151.92,-26.15"/>
</g>
</g>
</svg>
