<?xml version="1.0" encoding="UTF-8" standalone="no"?>
<!DOCTYPE svg PUBLIC "-//W3C//DTD SVG 1.1//EN"
 "http://www.w3.org/Graphics/SVG/1.1/DTD/svg11.dtd">
<!-- Generated by graphviz version 2.49.3 (20211023.0002)
 -->
<!-- Title: include/libc/unistd.h Pages: 1 -->
<svg width="376pt" height="308pt"
 viewBox="0.00 0.00 376.49 308.00" xmlns="http://www.w3.org/2000/svg" xmlns:xlink="http://www.w3.org/1999/xlink">
<g id="graph0" class="graph" transform="scale(1 1) rotate(0) translate(4 304)">
<title>include/libc/unistd.h</title>
<!-- Node1 -->
<g id="node1" class="node">
<title>Node1</title>
<g id="a_node1"><a xlink:title=" ">
<polygon fill="#bfbfbf" stroke="black" points="140.56,-280.5 140.56,-299.5 244.56,-299.5 244.56,-280.5 140.56,-280.5"/>
<text text-anchor="middle" x="192.56" y="-287.5" font-family="Helvetica,sans-Serif" font-size="10.00">include/libc/unistd.h</text>
</a>
</g>
</g>
<!-- Node2 -->
<g id="node2" class="node">
<title>Node2</title>
<g id="a_node2"><a xlink:href="syscall_8h.html" target="_top" xlink:title=" ">
<polygon fill="none" stroke="black" points="156.06,-224.5 156.06,-243.5 229.06,-243.5 229.06,-224.5 156.06,-224.5"/>
<text text-anchor="middle" x="192.56" y="-231.5" font-family="Helvetica,sans-Serif" font-size="10.00">sys/syscall.h</text>
</a>
</g>
</g>
<!-- Node1&#45;&gt;Node2 -->
<g id="edge1" class="edge">
<title>Node1&#45;&gt;Node2</title>
<path fill="none" stroke="midnightblue" d="M192.56,-280.08C192.56,-273.01 192.56,-262.86 192.56,-253.99"/>
<polygon fill="midnightblue" stroke="midnightblue" points="196.06,-253.75 192.56,-243.75 189.06,-253.75 196.06,-253.75"/>
</g>
<!-- Node3 -->
<g id="node3" class="node">
<title>Node3</title>
<g id="a_node3"><a xlink:href="inet_8h.html" target="_top" xlink:title=" ">
<polygon fill="none" stroke="black" points="74.56,-168.5 74.56,-187.5 138.56,-187.5 138.56,-168.5 74.56,-168.5"/>
<text text-anchor="middle" x="106.56" y="-175.5" font-family="Helvetica,sans-Serif" font-size="10.00">arpa/inet.h</text>
</a>
</g>
</g>
<!-- Node2&#45;&gt;Node3 -->
<g id="edge2" class="edge">
<title>Node2&#45;&gt;Node3</title>
<path fill="none" stroke="midnightblue" d="M178.74,-224.32C165.33,-215.9 144.73,-202.97 128.97,-193.07"/>
<polygon fill="midnightblue" stroke="midnightblue" points="130.67,-190.01 120.34,-187.65 126.95,-195.94 130.67,-190.01"/>
</g>
<!-- Node4 -->
<g id="node4" class="node">
<title>Node4</title>
<g id="a_node4"><a xlink:href="socket_8h.html" target="_top" xlink:title=" ">
<polygon fill="none" stroke="black" points="11.56,-112.5 11.56,-131.5 83.56,-131.5 83.56,-112.5 11.56,-112.5"/>
<text text-anchor="middle" x="47.56" y="-119.5" font-family="Helvetica,sans-Serif" font-size="10.00">sys/socket.h</text>
</a>
</g>
</g>
<!-- Node2&#45;&gt;Node4 -->
<g id="edge13" class="edge">
<title>Node2&#45;&gt;Node4</title>
<path fill="none" stroke="midnightblue" d="M155.84,-229.15C127.4,-224.26 89,-213.15 65.56,-188 53.97,-175.56 49.73,-156.33 48.24,-142"/>
<polygon fill="midnightblue" stroke="midnightblue" points="51.72,-141.53 47.54,-131.79 44.73,-142.01 51.72,-141.53"/>
</g>
<!-- Node5 -->
<g id="node5" class="node">
<title>Node5</title>
<g id="a_node5"><a xlink:href="types_8h.html" target="_top" xlink:title=" ">
<polygon fill="none" stroke="black" points="107.06,-56.5 107.06,-75.5 174.06,-75.5 174.06,-56.5 107.06,-56.5"/>
<text text-anchor="middle" x="140.56" y="-63.5" font-family="Helvetica,sans-Serif" font-size="10.00">sys/types.h</text>
</a>
</g>
</g>
<!-- Node2&#45;&gt;Node5 -->
<g id="edge18" class="edge">
<title>Node2&#45;&gt;Node5</title>
<path fill="none" stroke="midnightblue" d="M155.91,-227.83C107.35,-218.63 25.18,-194.13 2.56,-132 -12.6,-90.36 51.03,-75.38 96.92,-70"/>
<polygon fill="midnightblue" stroke="midnightblue" points="97.4,-73.47 106.98,-68.94 96.67,-66.51 97.4,-73.47"/>
</g>
<!-- Node8 -->
<g id="node8" class="node">
<title>Node8</title>
<g id="a_node8"><a xlink:title=" ">
<polygon fill="none" stroke="#bfbfbf" points="287.06,-0.5 287.06,-19.5 336.06,-19.5 336.06,-0.5 287.06,-0.5"/>
<text text-anchor="middle" x="311.56" y="-7.5" font-family="Helvetica,sans-Serif" font-size="10.00">stdint.h</text>
</a>
</g>
</g>
<!-- Node2&#45;&gt;Node8 -->
<g id="edge10" class="edge">
<title>Node2&#45;&gt;Node8</title>
<path fill="none" stroke="midnightblue" d="M229.38,-227.84C272.04,-221.04 338.43,-207.58 353.56,-188 391.16,-139.35 347.28,-62.32 324.1,-28.22"/>
<polygon fill="midnightblue" stroke="midnightblue" points="326.8,-25.98 318.2,-19.8 321.07,-30 326.8,-25.98"/>
</g>
<!-- Node9 -->
<g id="node9" class="node">
<title>Node9</title>
<g id="a_node9"><a xlink:href="errno_8h.html" target="_top" xlink:title=" ">
<polygon fill="none" stroke="black" points="194.56,-168.5 194.56,-187.5 242.56,-187.5 242.56,-168.5 194.56,-168.5"/>
<text text-anchor="middle" x="218.56" y="-175.5" font-family="Helvetica,sans-Serif" font-size="10.00">errno.h</text>
</a>
</g>
</g>
<!-- Node2&#45;&gt;Node9 -->
<g id="edge9" class="edge">
<title>Node2&#45;&gt;Node9</title>
<path fill="none" stroke="midnightblue" d="M196.85,-224.08C200.41,-216.69 205.58,-205.95 209.98,-196.81"/>
<polygon fill="midnightblue" stroke="midnightblue" points="213.16,-198.28 214.35,-187.75 206.85,-195.24 213.16,-198.28"/>
</g>
<!-- Node10 -->
<g id="node10" class="node">
<title>Node10</title>
<g id="a_node10"><a xlink:href="stdio_8h.html" target="_top" xlink:title=" ">
<polygon fill="none" stroke="black" points="298.56,-168.5 298.56,-187.5 344.56,-187.5 344.56,-168.5 298.56,-168.5"/>
<text text-anchor="middle" x="321.56" y="-175.5" font-family="Helvetica,sans-Serif" font-size="10.00">stdio.h</text>
</a>
</g>
</g>
<!-- Node2&#45;&gt;Node10 -->
<g id="edge11" class="edge">
<title>Node2&#45;&gt;Node10</title>
<path fill="none" stroke="midnightblue" d="M213,-224.44C234.23,-215.56 267.66,-201.56 291.81,-191.45"/>
<polygon fill="midnightblue" stroke="midnightblue" points="293.34,-194.61 301.21,-187.52 290.64,-188.15 293.34,-194.61"/>
</g>
<!-- Node12 -->
<g id="node12" class="node">
<title>Node12</title>
<g id="a_node12"><a xlink:href="stat_8h.html" target="_top" xlink:title=" ">
<polygon fill="none" stroke="black" points="140.06,-112.5 140.06,-131.5 199.06,-131.5 199.06,-112.5 140.06,-112.5"/>
<text text-anchor="middle" x="169.56" y="-119.5" font-family="Helvetica,sans-Serif" font-size="10.00">sys/stat.h</text>
</a>
</g>
</g>
<!-- Node2&#45;&gt;Node12 -->
<g id="edge14" class="edge">
<title>Node2&#45;&gt;Node12</title>
<path fill="none" stroke="midnightblue" d="M190.75,-224.37C187.04,-206.62 178.48,-165.67 173.45,-141.6"/>
<polygon fill="midnightblue" stroke="midnightblue" points="176.83,-140.66 171.36,-131.59 169.98,-142.1 176.83,-140.66"/>
</g>
<!-- Node13 -->
<g id="node13" class="node">
<title>Node13</title>
<g id="a_node13"><a xlink:href="libc_2sys_2time_8h.html" target="_top" xlink:title=" ">
<polygon fill="none" stroke="black" points="217.56,-112.5 217.56,-131.5 279.56,-131.5 279.56,-112.5 217.56,-112.5"/>
<text text-anchor="middle" x="248.56" y="-119.5" font-family="Helvetica,sans-Serif" font-size="10.00">sys/time.h</text>
</a>
</g>
</g>
<!-- Node2&#45;&gt;Node13 -->
<g id="edge16" class="edge">
<title>Node2&#45;&gt;Node13</title>
<path fill="none" stroke="midnightblue" d="M211.54,-224.4C225.45,-216.95 243.27,-204.74 251.56,-188 258.68,-173.6 256.97,-155.15 254.04,-141.58"/>
<polygon fill="midnightblue" stroke="midnightblue" points="257.33,-140.35 251.45,-131.53 250.55,-142.09 257.33,-140.35"/>
</g>
<!-- Node3&#45;&gt;Node4 -->
<g id="edge3" class="edge">
<title>Node3&#45;&gt;Node4</title>
<path fill="none" stroke="midnightblue" d="M97.08,-168.32C88.36,-160.34 75.22,-148.31 64.66,-138.65"/>
<polygon fill="midnightblue" stroke="midnightblue" points="66.95,-136 57.21,-131.83 62.22,-141.17 66.95,-136"/>
</g>
<!-- Node3&#45;&gt;Node5 -->
<g id="edge8" class="edge">
<title>Node3&#45;&gt;Node5</title>
<path fill="none" stroke="midnightblue" d="M109.23,-168.37C114.74,-150.54 127.49,-109.3 134.91,-85.27"/>
<polygon fill="midnightblue" stroke="midnightblue" points="138.29,-86.18 137.9,-75.59 131.61,-84.11 138.29,-86.18"/>
</g>
<!-- Node4&#45;&gt;Node5 -->
<g id="edge4" class="edge">
<title>Node4&#45;&gt;Node5</title>
<path fill="none" stroke="midnightblue" d="M62.5,-112.32C77.14,-103.82 99.69,-90.73 116.8,-80.8"/>
<polygon fill="midnightblue" stroke="midnightblue" points="118.76,-83.7 125.65,-75.65 115.25,-77.65 118.76,-83.7"/>
</g>
<!-- Node6 -->
<g id="node6" class="node">
<title>Node6</title>
<g id="a_node6"><a xlink:title=" ">
<polygon fill="none" stroke="#bfbfbf" points="149.06,-0.5 149.06,-19.5 206.06,-19.5 206.06,-0.5 149.06,-0.5"/>
<text text-anchor="middle" x="177.56" y="-7.5" font-family="Helvetica,sans-Serif" font-size="10.00">stdbool.h</text>
</a>
</g>
</g>
<!-- Node5&#45;&gt;Node6 -->
<g id="edge5" class="edge">
<title>Node5&#45;&gt;Node6</title>
<path fill="none" stroke="midnightblue" d="M146.67,-56.08C151.84,-48.53 159.41,-37.49 165.75,-28.23"/>
<polygon fill="midnightblue" stroke="midnightblue" points="168.8,-29.98 171.56,-19.75 163.02,-26.02 168.8,-29.98"/>
</g>
<!-- Node7 -->
<g id="node7" class="node">
<title>Node7</title>
<g id="a_node7"><a xlink:title=" ">
<polygon fill="none" stroke="#bfbfbf" points="78.56,-0.5 78.56,-19.5 130.56,-19.5 130.56,-0.5 78.56,-0.5"/>
<text text-anchor="middle" x="104.56" y="-7.5" font-family="Helvetica,sans-Serif" font-size="10.00">stddef.h</text>
</a>
</g>
</g>
<!-- Node5&#45;&gt;Node7 -->
<g id="edge6" class="edge">
<title>Node5&#45;&gt;Node7</title>
<path fill="none" stroke="midnightblue" d="M134.61,-56.08C129.58,-48.53 122.22,-37.49 116.05,-28.23"/>
<polygon fill="midnightblue" stroke="midnightblue" points="118.85,-26.13 110.39,-19.75 113.03,-30.01 118.85,-26.13"/>
</g>
<!-- Node5&#45;&gt;Node8 -->
<g id="edge7" class="edge">
<title>Node5&#45;&gt;Node8</title>
<path fill="none" stroke="midnightblue" d="M167.65,-56.44C197.23,-47.1 244.65,-32.13 276.91,-21.94"/>
<polygon fill="midnightblue" stroke="midnightblue" points="278.33,-25.16 286.81,-18.82 276.22,-18.49 278.33,-25.16"/>
</g>
<!-- Node11 -->
<g id="node11" class="node">
<title>Node11</title>
<g id="a_node11"><a xlink:title=" ">
<polygon fill="none" stroke="#bfbfbf" points="298.06,-112.5 298.06,-131.5 345.06,-131.5 345.06,-112.5 298.06,-112.5"/>
<text text-anchor="middle" x="321.56" y="-119.5" font-family="Helvetica,sans-Serif" font-size="10.00">printf.h</text>
</a>
</g>
</g>
<!-- Node10&#45;&gt;Node11 -->
<g id="edge12" class="edge">
<title>Node10&#45;&gt;Node11</title>
<path fill="none" stroke="midnightblue" d="M321.56,-168.08C321.56,-161.01 321.56,-150.86 321.56,-141.99"/>
<polygon fill="midnightblue" stroke="midnightblue" points="325.06,-141.75 321.56,-131.75 318.06,-141.75 325.06,-141.75"/>
</g>
<!-- Node12&#45;&gt;Node5 -->
<g id="edge15" class="edge">
<title>Node12&#45;&gt;Node5</title>
<path fill="none" stroke="midnightblue" d="M164.77,-112.08C160.8,-104.69 155.03,-93.95 150.12,-84.81"/>
<polygon fill="midnightblue" stroke="midnightblue" points="153.07,-82.91 145.26,-75.75 146.91,-86.22 153.07,-82.91"/>
</g>
<!-- Node13&#45;&gt;Node5 -->
<g id="edge17" class="edge">
<title>Node13&#45;&gt;Node5</title>
<path fill="none" stroke="midnightblue" d="M231.21,-112.32C213.89,-103.66 187.04,-90.24 167.06,-80.25"/>
<polygon fill="midnightblue" stroke="midnightblue" points="168.38,-77 157.87,-75.65 165.25,-83.26 168.38,-77"/>
</g>
</g>
</svg>
