<?xml version="1.0" encoding="UTF-8" standalone="no"?>
<!DOCTYPE svg PUBLIC "-//W3C//DTD SVG 1.1//EN"
 "http://www.w3.org/Graphics/SVG/1.1/DTD/svg11.dtd">
<!-- Generated by graphviz version 9.0.0 (20230911.1827)
 -->
<!-- Title: include/libc/unistd.h Pages: 1 -->
<svg width="374pt" height="304pt"
 viewBox="0.00 0.00 374.33 303.50" xmlns="http://www.w3.org/2000/svg" xmlns:xlink="http://www.w3.org/1999/xlink">
<g id="graph0" class="graph" transform="scale(1 1) rotate(0) translate(4 299.5)">
<title>include/libc/unistd.h</title>
<!-- Node1 -->
<g id="Node000001" class="node">
<title>Node1</title>
<g id="a_Node000001"><a xlink:title=" ">
<polygon fill="#999999" stroke="#666666" points="242.79,-295.5 140.54,-295.5 140.54,-276.25 242.79,-276.25 242.79,-295.5"/>
<text text-anchor="middle" x="191.67" y="-282" font-family="Helvetica,sans-Serif" font-size="10.00">include/libc/unistd.h</text>
</a>
</g>
</g>
<!-- Node2 -->
<g id="Node000002" class="node">
<title>Node2</title>
<g id="a_Node000002"><a xlink:href="syscall_8h.html" target="_top" xlink:title=" ">
<polygon fill="white" stroke="#666666" points="228.54,-240.25 154.79,-240.25 154.79,-221 228.54,-221 228.54,-240.25"/>
<text text-anchor="middle" x="191.67" y="-226.75" font-family="Helvetica,sans-Serif" font-size="10.00">sys/syscall.h</text>
</a>
</g>
</g>
<!-- Node1&#45;&gt;Node2 -->
<g id="edge1_Node000001_Node000002" class="edge">
<title>Node1&#45;&gt;Node2</title>
<g id="a_edge1_Node000001_Node000002"><a xlink:title=" ">
<path fill="none" stroke="#63b8ff" d="M191.67,-276.08C191.67,-269.57 191.67,-260.42 191.67,-252.12"/>
<polygon fill="#63b8ff" stroke="#63b8ff" points="195.17,-252.12 191.67,-242.12 188.17,-252.12 195.17,-252.12"/>
</a>
</g>
</g>
<!-- Node3 -->
<g id="Node000003" class="node">
<title>Node3</title>
<g id="a_Node000003"><a xlink:href="inet_8h.html" target="_top" xlink:title=" ">
<polygon fill="white" stroke="#666666" points="138.54,-185 76.79,-185 76.79,-165.75 138.54,-165.75 138.54,-185"/>
<text text-anchor="middle" x="107.67" y="-171.5" font-family="Helvetica,sans-Serif" font-size="10.00">arpa/inet.h</text>
</a>
</g>
</g>
<!-- Node2&#45;&gt;Node3 -->
<g id="edge2_Node000002_Node000003" class="edge">
<title>Node2&#45;&gt;Node3</title>
<g id="a_edge2_Node000002_Node000003"><a xlink:title=" ">
<path fill="none" stroke="#63b8ff" d="M177.42,-220.59C164.87,-212.64 146.33,-200.89 131.52,-191.5"/>
<polygon fill="#63b8ff" stroke="#63b8ff" points="133.58,-188.66 123.26,-186.26 129.84,-194.57 133.58,-188.66"/>
</a>
</g>
</g>
<!-- Node4 -->
<g id="Node000004" class="node">
<title>Node4</title>
<g id="a_Node000004"><a xlink:href="socket_8h.html" target="_top" xlink:title=" ">
<polygon fill="white" stroke="#666666" points="83.79,-129.75 11.54,-129.75 11.54,-110.5 83.79,-110.5 83.79,-129.75"/>
<text text-anchor="middle" x="47.67" y="-116.25" font-family="Helvetica,sans-Serif" font-size="10.00">sys/socket.h</text>
</a>
</g>
</g>
<!-- Node2&#45;&gt;Node4 -->
<g id="edge13_Node000002_Node000004" class="edge">
<title>Node2&#45;&gt;Node4</title>
<g id="a_edge13_Node000002_Node000004"><a xlink:title=" ">
<path fill="none" stroke="#63b8ff" d="M154.32,-225.13C126.85,-219.93 90.47,-208.78 67.67,-185 56.46,-173.31 51.53,-155.42 49.36,-141.55"/>
<polygon fill="#63b8ff" stroke="#63b8ff" points="52.85,-141.26 48.22,-131.73 45.9,-142.06 52.85,-141.26"/>
</a>
</g>
</g>
<!-- Node5 -->
<g id="Node000005" class="node">
<title>Node5</title>
<g id="a_Node000005"><a xlink:href="types_8h.html" target="_top" xlink:title=" ">
<polygon fill="white" stroke="#666666" points="174.17,-74.5 107.17,-74.5 107.17,-55.25 174.17,-55.25 174.17,-74.5"/>
<text text-anchor="middle" x="140.67" y="-61" font-family="Helvetica,sans-Serif" font-size="10.00">sys/types.h</text>
</a>
</g>
</g>
<!-- Node2&#45;&gt;Node5 -->
<g id="edge18_Node000002_Node000005" class="edge">
<title>Node2&#45;&gt;Node5</title>
<g id="a_edge18_Node000002_Node000005"><a xlink:title=" ">
<path fill="none" stroke="#63b8ff" d="M154.62,-224.35C106.48,-215.12 25.84,-190.82 2.67,-129.75 -12.88,-88.79 49.71,-74.09 95.67,-68.82"/>
<polygon fill="#63b8ff" stroke="#63b8ff" points="95.84,-72.32 105.43,-67.83 95.13,-65.36 95.84,-72.32"/>
</a>
</g>
</g>
<!-- Node8 -->
<g id="Node000008" class="node">
<title>Node8</title>
<g id="a_Node000008"><a xlink:title=" ">
<polygon fill="#e0e0e0" stroke="#999999" points="333.79,-19.25 285.54,-19.25 285.54,0 333.79,0 333.79,-19.25"/>
<text text-anchor="middle" x="309.67" y="-5.75" font-family="Helvetica,sans-Serif" font-size="10.00">stdint.h</text>
</a>
</g>
</g>
<!-- Node2&#45;&gt;Node8 -->
<g id="edge10_Node000002_Node000008" class="edge">
<title>Node2&#45;&gt;Node8</title>
<g id="a_edge10_Node000002_Node000008"><a xlink:title=" ">
<path fill="none" stroke="#63b8ff" d="M229,-224.4C271.42,-217.63 336.71,-204.33 351.67,-185 388.27,-137.68 346.28,-63.17 323.04,-28.94"/>
<polygon fill="#63b8ff" stroke="#63b8ff" points="326.02,-27.09 317.41,-20.92 320.29,-31.11 326.02,-27.09"/>
</a>
</g>
</g>
<!-- Node9 -->
<g id="Node000009" class="node">
<title>Node9</title>
<g id="a_Node000009"><a xlink:href="errno_8h.html" target="_top" xlink:title=" ">
<polygon fill="white" stroke="#666666" points="240.67,-185 194.67,-185 194.67,-165.75 240.67,-165.75 240.67,-185"/>
<text text-anchor="middle" x="217.67" y="-171.5" font-family="Helvetica,sans-Serif" font-size="10.00">errno.h</text>
</a>
</g>
</g>
<!-- Node2&#45;&gt;Node9 -->
<g id="edge9_Node000002_Node000009" class="edge">
<title>Node2&#45;&gt;Node9</title>
<g id="a_edge9_Node000002_Node000009"><a xlink:title=" ">
<path fill="none" stroke="#63b8ff" d="M195.96,-220.83C199.29,-214.01 204.03,-204.31 208.23,-195.7"/>
<polygon fill="#63b8ff" stroke="#63b8ff" points="211.37,-197.24 212.61,-186.72 205.08,-194.17 211.37,-197.24"/>
</a>
</g>
</g>
<!-- Node10 -->
<g id="Node000010" class="node">
<title>Node10</title>
<g id="a_Node000010"><a xlink:href="stdio_8h.html" target="_top" xlink:title=" ">
<polygon fill="white" stroke="#666666" points="342.29,-185 297.04,-185 297.04,-165.75 342.29,-165.75 342.29,-185"/>
<text text-anchor="middle" x="319.67" y="-171.5" font-family="Helvetica,sans-Serif" font-size="10.00">stdio.h</text>
</a>
</g>
</g>
<!-- Node2&#45;&gt;Node10 -->
<g id="edge11_Node000002_Node000010" class="edge">
<title>Node2&#45;&gt;Node10</title>
<g id="a_edge11_Node000002_Node000010"><a xlink:title=" ">
<path fill="none" stroke="#63b8ff" d="M213.38,-220.59C233.7,-212.14 264.31,-199.4 287.47,-189.77"/>
<polygon fill="#63b8ff" stroke="#63b8ff" points="288.56,-193.11 296.45,-186.03 285.87,-186.64 288.56,-193.11"/>
</a>
</g>
</g>
<!-- Node12 -->
<g id="Node000012" class="node">
<title>Node12</title>
<g id="a_Node000012"><a xlink:href="stat_8h.html" target="_top" xlink:title=" ">
<polygon fill="white" stroke="#666666" points="199.42,-129.75 139.92,-129.75 139.92,-110.5 199.42,-110.5 199.42,-129.75"/>
<text text-anchor="middle" x="169.67" y="-116.25" font-family="Helvetica,sans-Serif" font-size="10.00">sys/stat.h</text>
</a>
</g>
</g>
<!-- Node2&#45;&gt;Node12 -->
<g id="edge14_Node000002_Node000012" class="edge">
<title>Node2&#45;&gt;Node12</title>
<g id="a_edge14_Node000002_Node000012"><a xlink:title=" ">
<path fill="none" stroke="#63b8ff" d="M189.87,-220.75C186.37,-203.5 178.58,-165.08 173.76,-141.31"/>
<polygon fill="#63b8ff" stroke="#63b8ff" points="177.21,-140.72 171.79,-131.61 170.35,-142.11 177.21,-140.72"/>
</a>
</g>
</g>
<!-- Node13 -->
<g id="Node000013" class="node">
<title>Node13</title>
<g id="a_Node000013"><a xlink:href="libc_2sys_2time_8h.html" target="_top" xlink:title=" ">
<polygon fill="white" stroke="#666666" points="279.54,-129.75 217.79,-129.75 217.79,-110.5 279.54,-110.5 279.54,-129.75"/>
<text text-anchor="middle" x="248.67" y="-116.25" font-family="Helvetica,sans-Serif" font-size="10.00">sys/time.h</text>
</a>
</g>
</g>
<!-- Node2&#45;&gt;Node13 -->
<g id="edge16_Node000002_Node000013" class="edge">
<title>Node2&#45;&gt;Node13</title>
<g id="a_edge16_Node000002_Node000013"><a xlink:title=" ">
<path fill="none" stroke="#63b8ff" d="M211.19,-220.59C224.72,-213.15 241.7,-201.19 249.67,-185 256.35,-171.43 255.63,-154.18 253.49,-141.03"/>
<polygon fill="#63b8ff" stroke="#63b8ff" points="256.96,-140.51 251.51,-131.42 250.1,-141.92 256.96,-140.51"/>
</a>
</g>
</g>
<!-- Node3&#45;&gt;Node4 -->
<g id="edge3_Node000003_Node000004" class="edge">
<title>Node3&#45;&gt;Node4</title>
<g id="a_edge3_Node000003_Node000004"><a xlink:title=" ">
<path fill="none" stroke="#63b8ff" d="M97.49,-165.34C88.9,-157.72 76.4,-146.62 66.06,-137.45"/>
<polygon fill="#63b8ff" stroke="#63b8ff" points="68.63,-135.05 58.83,-131.03 63.98,-140.29 68.63,-135.05"/>
</a>
</g>
</g>
<!-- Node3&#45;&gt;Node5 -->
<g id="edge8_Node000003_Node000005" class="edge">
<title>Node3&#45;&gt;Node5</title>
<g id="a_edge8_Node000003_Node000005"><a xlink:title=" ">
<path fill="none" stroke="#63b8ff" d="M110.37,-165.5C115.64,-148.17 127.4,-109.48 134.62,-85.74"/>
<polygon fill="#63b8ff" stroke="#63b8ff" points="137.93,-86.91 137.49,-76.32 131.23,-84.87 137.93,-86.91"/>
</a>
</g>
</g>
<!-- Node4&#45;&gt;Node5 -->
<g id="edge4_Node000004_Node000005" class="edge">
<title>Node4&#45;&gt;Node5</title>
<g id="a_edge4_Node000004_Node000005"><a xlink:title=" ">
<path fill="none" stroke="#63b8ff" d="M63.44,-110.09C77.6,-101.98 98.65,-89.93 115.19,-80.46"/>
<polygon fill="#63b8ff" stroke="#63b8ff" points="116.56,-83.71 123.5,-75.7 113.08,-77.64 116.56,-83.71"/>
</a>
</g>
</g>
<!-- Node6 -->
<g id="Node000006" class="node">
<title>Node6</title>
<g id="a_Node000006"><a xlink:title=" ">
<polygon fill="#e0e0e0" stroke="#999999" points="204.54,-19.25 148.79,-19.25 148.79,0 204.54,0 204.54,-19.25"/>
<text text-anchor="middle" x="176.67" y="-5.75" font-family="Helvetica,sans-Serif" font-size="10.00">stdbool.h</text>
</a>
</g>
</g>
<!-- Node5&#45;&gt;Node6 -->
<g id="edge5_Node000005_Node000006" class="edge">
<title>Node5&#45;&gt;Node6</title>
<g id="a_edge5_Node000005_Node000006"><a xlink:title=" ">
<path fill="none" stroke="#63b8ff" d="M146.61,-55.08C151.38,-48.03 158.23,-37.9 164.19,-29.08"/>
<polygon fill="#63b8ff" stroke="#63b8ff" points="167.04,-31.11 169.74,-20.86 161.24,-27.19 167.04,-31.11"/>
</a>
</g>
</g>
<!-- Node7 -->
<g id="Node000007" class="node">
<title>Node7</title>
<g id="a_Node000007"><a xlink:title=" ">
<polygon fill="#e0e0e0" stroke="#999999" points="130.29,-19.25 79.04,-19.25 79.04,0 130.29,0 130.29,-19.25"/>
<text text-anchor="middle" x="104.67" y="-5.75" font-family="Helvetica,sans-Serif" font-size="10.00">stddef.h</text>
</a>
</g>
</g>
<!-- Node5&#45;&gt;Node7 -->
<g id="edge6_Node000005_Node000007" class="edge">
<title>Node5&#45;&gt;Node7</title>
<g id="a_edge6_Node000005_Node000007"><a xlink:title=" ">
<path fill="none" stroke="#63b8ff" d="M134.72,-55.08C129.96,-48.03 123.1,-37.9 117.14,-29.08"/>
<polygon fill="#63b8ff" stroke="#63b8ff" points="120.09,-27.19 111.59,-20.86 114.29,-31.11 120.09,-27.19"/>
</a>
</g>
</g>
<!-- Node5&#45;&gt;Node8 -->
<g id="edge7_Node000005_Node000008" class="edge">
<title>Node5&#45;&gt;Node8</title>
<g id="a_edge7_Node000005_Node000008"><a xlink:title=" ">
<path fill="none" stroke="#63b8ff" d="M169.33,-54.84C198.35,-45.7 243.28,-31.54 274.45,-21.72"/>
<polygon fill="#63b8ff" stroke="#63b8ff" points="275.32,-25.12 283.81,-18.77 273.22,-18.44 275.32,-25.12"/>
</a>
</g>
</g>
<!-- Node11 -->
<g id="Node000011" class="node">
<title>Node11</title>
<g id="a_Node000011"><a xlink:title=" ">
<polygon fill="#e0e0e0" stroke="#999999" points="343.67,-129.75 297.67,-129.75 297.67,-110.5 343.67,-110.5 343.67,-129.75"/>
<text text-anchor="middle" x="320.67" y="-116.25" font-family="Helvetica,sans-Serif" font-size="10.00">printf.h</text>
</a>
</g>
</g>
<!-- Node10&#45;&gt;Node11 -->
<g id="edge12_Node000010_Node000011" class="edge">
<title>Node10&#45;&gt;Node11</title>
<g id="a_edge12_Node000010_Node000011"><a xlink:title=" ">
<path fill="none" stroke="#63b8ff" d="M319.83,-165.58C319.95,-159.07 320.12,-149.92 320.28,-141.62"/>
<polygon fill="#63b8ff" stroke="#63b8ff" points="323.78,-141.69 320.47,-131.62 316.78,-141.55 323.78,-141.69"/>
</a>
</g>
</g>
<!-- Node12&#45;&gt;Node5 -->
<g id="edge15_Node000012_Node000005" class="edge">
<title>Node12&#45;&gt;Node5</title>
<g id="a_edge15_Node000012_Node000005"><a xlink:title=" ">
<path fill="none" stroke="#63b8ff" d="M164.88,-110.33C161.12,-103.44 155.76,-93.59 151.03,-84.91"/>
<polygon fill="#63b8ff" stroke="#63b8ff" points="154.14,-83.3 146.28,-76.19 147.99,-86.64 154.14,-83.3"/>
</a>
</g>
</g>
<!-- Node13&#45;&gt;Node5 -->
<g id="edge17_Node000013_Node000005" class="edge">
<title>Node13&#45;&gt;Node5</title>
<g id="a_edge17_Node000013_Node000005"><a xlink:title=" ">
<path fill="none" stroke="#63b8ff" d="M230.34,-110.09C213.59,-101.83 188.53,-89.48 169.16,-79.93"/>
<polygon fill="#63b8ff" stroke="#63b8ff" points="170.95,-76.9 160.43,-75.62 167.85,-83.18 170.95,-76.9"/>
</a>
</g>
</g>
</g>
</svg>
