<?xml version="1.0" encoding="UTF-8" standalone="no"?>
<!DOCTYPE svg PUBLIC "-//W3C//DTD SVG 1.1//EN"
 "http://www.w3.org/Graphics/SVG/1.1/DTD/svg11.dtd">
<!-- Generated by graphviz version 9.0.0 (20230911.1827)
 -->
<!-- Title: include/kernel/fs/vfs.h Pages: 1 -->
<svg width="635pt" height="94pt"
 viewBox="0.00 0.00 635.25 93.75" xmlns="http://www.w3.org/2000/svg" xmlns:xlink="http://www.w3.org/1999/xlink">
<g id="graph0" class="graph" transform="scale(1 1) rotate(0) translate(4 89.75)">
<title>include/kernel/fs/vfs.h</title>
<!-- Node1 -->
<g id="Node000001" class="node">
<title>Node1</title>
<g id="a_Node000001"><a xlink:title=" ">
<polygon fill="#999999" stroke="#666666" points="381.38,-85.75 269.38,-85.75 269.38,-66.5 381.38,-66.5 381.38,-85.75"/>
<text text-anchor="middle" x="325.38" y="-72.25" font-family="Helvetica,sans-Serif" font-size="10.00">include/kernel/fs/vfs.h</text>
</a>
</g>
</g>
<!-- Node2 -->
<g id="Node000002" class="node">
<title>Node2</title>
<g id="a_Node000002"><a xlink:href="dev_8h.html" target="_top" xlink:title=" ">
<polygon fill="white" stroke="#666666" points="112.75,-24.88 0,-24.88 0,-5.63 112.75,-5.63 112.75,-24.88"/>
<text text-anchor="middle" x="56.38" y="-11.38" font-family="Helvetica,sans-Serif" font-size="10.00">include/kernel/fs/dev.h</text>
</a>
</g>
</g>
<!-- Node1&#45;&gt;Node2 -->
<g id="edge1_Node000001_Node000002" class="edge">
<title>Node1&#45;&gt;Node2</title>
<g id="a_edge1_Node000001_Node000002"><a xlink:title=" ">
<path fill="none" stroke="#63b8ff" d="M272.82,-63.64C231.62,-54.63 172.85,-41.77 121.38,-30.5 113.7,-28.82 105.52,-27.03 97.64,-25.3"/>
<polygon fill="#63b8ff" stroke="#63b8ff" points="271.96,-67.03 282.48,-65.75 273.46,-60.19 271.96,-67.03"/>
</a>
</g>
</g>
<!-- Node3 -->
<g id="Node000003" class="node">
<title>Node3</title>
<g id="a_Node000003"><a xlink:href="fs_2proc_8h.html" target="_top" xlink:title=" ">
<polygon fill="white" stroke="#666666" points="248,-24.88 130.75,-24.88 130.75,-5.63 248,-5.63 248,-24.88"/>
<text text-anchor="middle" x="189.38" y="-11.38" font-family="Helvetica,sans-Serif" font-size="10.00">include/kernel/fs/proc.h</text>
</a>
</g>
</g>
<!-- Node1&#45;&gt;Node3 -->
<g id="edge2_Node000001_Node000003" class="edge">
<title>Node1&#45;&gt;Node3</title>
<g id="a_edge2_Node000001_Node000003"><a xlink:title=" ">
<path fill="none" stroke="#63b8ff" d="M294.06,-61.57C268.29,-50.41 232.48,-34.91 210.13,-25.23"/>
<polygon fill="#63b8ff" stroke="#63b8ff" points="292.47,-64.69 303.03,-65.45 295.25,-58.27 292.47,-64.69"/>
</a>
</g>
</g>
<!-- Node4 -->
<g id="Node000004" class="node">
<title>Node4</title>
<g id="a_Node000004"><a xlink:href="sock_8h.html" target="_top" xlink:title=" ">
<polygon fill="white" stroke="#666666" points="385.12,-24.88 265.62,-24.88 265.62,-5.63 385.12,-5.63 385.12,-24.88"/>
<text text-anchor="middle" x="325.38" y="-11.38" font-family="Helvetica,sans-Serif" font-size="10.00">include/kernel/fs/sock.h</text>
</a>
</g>
</g>
<!-- Node1&#45;&gt;Node4 -->
<g id="edge3_Node000001_Node000004" class="edge">
<title>Node1&#45;&gt;Node4</title>
<g id="a_edge3_Node000001_Node000004"><a xlink:title=" ">
<path fill="none" stroke="#63b8ff" d="M325.38,-54.7C325.38,-44.67 325.38,-33.08 325.38,-25.28"/>
<polygon fill="#63b8ff" stroke="#63b8ff" points="321.88,-54.67 325.38,-64.67 328.88,-54.67 321.88,-54.67"/>
</a>
</g>
</g>
<!-- Node5 -->
<g id="Node000005" class="node">
<title>Node5</title>
<g id="a_Node000005"><a xlink:href="tar_8h.html" target="_top" xlink:title=" ">
<polygon fill="white" stroke="#666666" points="511.88,-24.88 402.88,-24.88 402.88,-5.63 511.88,-5.63 511.88,-24.88"/>
<text text-anchor="middle" x="457.38" y="-11.38" font-family="Helvetica,sans-Serif" font-size="10.00">include/kernel/fs/tar.h</text>
</a>
</g>
</g>
<!-- Node1&#45;&gt;Node5 -->
<g id="edge4_Node000001_Node000005" class="edge">
<title>Node1&#45;&gt;Node5</title>
<g id="a_edge4_Node000001_Node000005"><a xlink:title=" ">
<path fill="none" stroke="#63b8ff" d="M356.1,-61.42C381.1,-50.27 415.64,-34.87 437.23,-25.23"/>
<polygon fill="#63b8ff" stroke="#63b8ff" points="354.8,-58.17 347.09,-65.44 357.65,-64.56 354.8,-58.17"/>
</a>
</g>
</g>
<!-- Node6 -->
<g id="Node000006" class="node">
<title>Node6</title>
<g id="a_Node000006"><a xlink:href="descriptor_8h.html" target="_top" xlink:title=" ">
<polygon fill="white" stroke="#666666" points="627.25,-30.5 529.5,-30.5 529.5,0 627.25,0 627.25,-30.5"/>
<text text-anchor="start" x="537.5" y="-17" font-family="Helvetica,sans-Serif" font-size="10.00">include/kernel/proc</text>
<text text-anchor="middle" x="578.38" y="-5.75" font-family="Helvetica,sans-Serif" font-size="10.00">/descriptor.h</text>
</a>
</g>
</g>
<!-- Node1&#45;&gt;Node6 -->
<g id="edge5_Node000001_Node000006" class="edge">
<title>Node1&#45;&gt;Node6</title>
<g id="a_edge5_Node000001_Node000006"><a xlink:title=" ">
<path fill="none" stroke="#63b8ff" d="M377.57,-63.56C417.09,-54.72 472.72,-42.12 521.38,-30.5 523.95,-29.88 526.6,-29.25 529.27,-28.6"/>
<polygon fill="#63b8ff" stroke="#63b8ff" points="376.83,-60.14 367.83,-65.73 378.35,-66.97 376.83,-60.14"/>
</a>
</g>
</g>
</g>
</svg>
