<?xml version="1.0" encoding="UTF-8" standalone="no"?>
<!DOCTYPE svg PUBLIC "-//W3C//DTD SVG 1.1//EN"
 "http://www.w3.org/Graphics/SVG/1.1/DTD/svg11.dtd">
<!-- Generated by graphviz version 8.0.2 (20230410.1723)
 -->
<!-- Title: vfs_make_directory Pages: 1 -->
<svg width="220pt" height="100pt"
 viewBox="0.00 0.00 220.00 100.00" xmlns="http://www.w3.org/2000/svg" xmlns:xlink="http://www.w3.org/1999/xlink">
<g id="graph0" class="graph" transform="scale(1 1) rotate(0) translate(4 96)">
<title>vfs_make_directory</title>
<!-- Node1 -->
<g id="Node000001" class="node">
<title>Node1</title>
<g id="a_Node000001"><a xlink:title=" ">
<polygon fill="#999999" stroke="#666666" points="212,-46 110,-46 110,-27 212,-27 212,-46"/>
<text text-anchor="middle" x="161" y="-34" font-family="Helvetica,sans-Serif" font-size="10.00">vfs_make_directory</text>
</a>
</g>
</g>
<!-- Node1&#45;&gt;Node1 -->
<g id="edge5_Node000001_Node000001" class="edge">
<title>Node1&#45;&gt;Node1</title>
<g id="a_edge5_Node000001_Node000001"><a xlink:title=" ">
<path fill="none" stroke="#63b8ff" d="M183.44,-56.76C181.08,-60.97 173.6,-64 161,-64 139.2,-64 132.73,-54.94 141.59,-46.37"/>
<polygon fill="#63b8ff" stroke="#63b8ff" points="186.57,-55.99 180.41,-47.37 179.85,-57.95 186.57,-55.99"/>
</a>
</g>
</g>
<!-- Node2 -->
<g id="Node000002" class="node">
<title>Node2</title>
<g id="a_Node000002"><a xlink:href="dev_8c.html#a0dbadb87fe40e866f57cbab98239c224" target="_top" xlink:title=" ">
<polygon fill="white" stroke="#666666" points="69,-74 5,-74 5,-55 69,-55 69,-74"/>
<text text-anchor="middle" x="37" y="-62" font-family="Helvetica,sans-Serif" font-size="10.00">dev_fs_init</text>
</a>
</g>
</g>
<!-- Node1&#45;&gt;Node2 -->
<g id="edge1_Node000001_Node000002" class="edge">
<title>Node1&#45;&gt;Node2</title>
<g id="a_edge1_Node000001_Node000002"><a xlink:title=" ">
<path fill="none" stroke="#63b8ff" d="M106.2,-48.85C93.6,-51.74 80.58,-54.73 69.33,-57.31"/>
<polygon fill="#63b8ff" stroke="#63b8ff" points="106.68,-52.1 115.64,-46.45 105.11,-45.28 106.68,-52.1"/>
</a>
</g>
</g>
<!-- Node3 -->
<g id="Node000003" class="node">
<title>Node3</title>
<g id="a_Node000003"><a xlink:href="tar_8c.html#a591d90d6b7cf5c472a1740f065178017" target="_top" xlink:title=" ">
<polygon fill="white" stroke="#666666" points="74,-19 0,-19 0,0 74,0 74,-19"/>
<text text-anchor="middle" x="37" y="-7" font-family="Helvetica,sans-Serif" font-size="10.00">tar_fs_create</text>
</a>
</g>
</g>
<!-- Node1&#45;&gt;Node3 -->
<g id="edge3_Node000001_Node000003" class="edge">
<title>Node1&#45;&gt;Node3</title>
<g id="a_edge3_Node000001_Node000003"><a xlink:title=" ">
<path fill="none" stroke="#63b8ff" d="M104.35,-24.18C94.09,-21.91 83.63,-19.6 74.14,-17.5"/>
<polygon fill="#63b8ff" stroke="#63b8ff" points="103.4,-27.78 113.92,-26.52 104.91,-20.94 103.4,-27.78"/>
</a>
</g>
</g>
<!-- Node2&#45;&gt;Node2 -->
<g id="edge2_Node000002_Node000002" class="edge">
<title>Node2&#45;&gt;Node2</title>
<g id="a_edge2_Node000002_Node000002"><a xlink:title=" ">
<path fill="none" stroke="#63b8ff" d="M59.44,-84.76C57.08,-88.97 49.6,-92 37,-92 15.2,-92 8.73,-82.94 17.59,-74.37"/>
<polygon fill="#63b8ff" stroke="#63b8ff" points="62.57,-83.99 56.41,-75.37 55.85,-85.95 62.57,-83.99"/>
</a>
</g>
</g>
<!-- Node3&#45;&gt;Node3 -->
<g id="edge4_Node000003_Node000003" class="edge">
<title>Node3&#45;&gt;Node3</title>
<g id="a_edge4_Node000003_Node000003"><a xlink:title=" ">
<path fill="none" stroke="#63b8ff" d="M59.44,-29.76C57.08,-33.97 49.6,-37 37,-37 15.2,-37 8.73,-27.94 17.59,-19.37"/>
<polygon fill="#63b8ff" stroke="#63b8ff" points="62.57,-28.99 56.41,-20.37 55.85,-30.95 62.57,-28.99"/>
</a>
</g>
</g>
</g>
</svg>
