<?xml version="1.0" encoding="UTF-8" standalone="no"?>
<!DOCTYPE svg PUBLIC "-//W3C//DTD SVG 1.1//EN"
 "http://www.w3.org/Graphics/SVG/1.1/DTD/svg11.dtd">
<!-- Generated by graphviz version 2.49.3 (20211023.0002)
 -->
<!-- Title: include/kernel/fs/vfs.h Pages: 1 -->
<svg width="647pt" height="95pt"
 viewBox="0.00 0.00 646.50 95.00" xmlns="http://www.w3.org/2000/svg" xmlns:xlink="http://www.w3.org/1999/xlink">
<g id="graph0" class="graph" transform="scale(1 1) rotate(0) translate(4 91)">
<title>include/kernel/fs/vfs.h</title>
<!-- Node1 -->
<g id="node1" class="node">
<title>Node1</title>
<g id="a_node1"><a xlink:title=" ">
<polygon fill="#bfbfbf" stroke="black" points="274,-67.5 274,-86.5 387,-86.5 387,-67.5 274,-67.5"/>
<text text-anchor="middle" x="330.5" y="-74.5" font-family="Helvetica,sans-Serif" font-size="10.00">include/kernel/fs/vfs.h</text>
</a>
</g>
</g>
<!-- Node2 -->
<g id="node2" class="node">
<title>Node2</title>
<g id="a_node2"><a xlink:href="dev_8h.html" target="_top" xlink:title=" ">
<polygon fill="none" stroke="black" points="0,-6 0,-25 115,-25 115,-6 0,-6"/>
<text text-anchor="middle" x="57.5" y="-13" font-family="Helvetica,sans-Serif" font-size="10.00">include/kernel/fs/dev.h</text>
</a>
</g>
</g>
<!-- Node1&#45;&gt;Node2 -->
<g id="edge1" class="edge">
<title>Node1&#45;&gt;Node2</title>
<path fill="none" stroke="midnightblue" d="M281.24,-65.32C239.3,-56.23 177.44,-42.79 123.5,-31 114.67,-29.07 105.19,-26.99 96.24,-25.02"/>
<polygon fill="midnightblue" stroke="midnightblue" points="280.68,-68.78 291.2,-67.48 282.17,-61.94 280.68,-68.78"/>
</g>
<!-- Node3 -->
<g id="node3" class="node">
<title>Node3</title>
<g id="a_node3"><a xlink:href="proc_8h.html" target="_top" xlink:title=" ">
<polygon fill="none" stroke="black" points="133,-6 133,-25 252,-25 252,-6 133,-6"/>
<text text-anchor="middle" x="192.5" y="-13" font-family="Helvetica,sans-Serif" font-size="10.00">include/kernel/fs/proc.h</text>
</a>
</g>
</g>
<!-- Node1&#45;&gt;Node3 -->
<g id="edge2" class="edge">
<title>Node1&#45;&gt;Node3</title>
<path fill="none" stroke="midnightblue" d="M301.46,-63.48C274.66,-51.92 235.58,-35.08 212.24,-25.01"/>
<polygon fill="midnightblue" stroke="midnightblue" points="300.16,-66.73 310.73,-67.48 302.93,-60.3 300.16,-66.73"/>
</g>
<!-- Node4 -->
<g id="node4" class="node">
<title>Node4</title>
<g id="a_node4"><a xlink:href="sock_8h.html" target="_top" xlink:title=" ">
<polygon fill="none" stroke="black" points="270.5,-6 270.5,-25 390.5,-25 390.5,-6 270.5,-6"/>
<text text-anchor="middle" x="330.5" y="-13" font-family="Helvetica,sans-Serif" font-size="10.00">include/kernel/fs/sock.h</text>
</a>
</g>
</g>
<!-- Node1&#45;&gt;Node4 -->
<g id="edge3" class="edge">
<title>Node1&#45;&gt;Node4</title>
<path fill="none" stroke="midnightblue" d="M330.5,-57.32C330.5,-46.5 330.5,-33.4 330.5,-25.01"/>
<polygon fill="midnightblue" stroke="midnightblue" points="327,-57.48 330.5,-67.48 334,-57.48 327,-57.48"/>
</g>
<!-- Node5 -->
<g id="node5" class="node">
<title>Node5</title>
<g id="a_node5"><a xlink:href="tar_8h.html" target="_top" xlink:title=" ">
<polygon fill="none" stroke="black" points="409,-6 409,-25 520,-25 520,-6 409,-6"/>
<text text-anchor="middle" x="464.5" y="-13" font-family="Helvetica,sans-Serif" font-size="10.00">include/kernel/fs/tar.h</text>
</a>
</g>
</g>
<!-- Node1&#45;&gt;Node5 -->
<g id="edge4" class="edge">
<title>Node1&#45;&gt;Node5</title>
<path fill="none" stroke="midnightblue" d="M359.04,-63.33C385.05,-51.78 422.76,-35.03 445.34,-25.01"/>
<polygon fill="midnightblue" stroke="midnightblue" points="357.42,-60.22 349.7,-67.48 360.26,-66.62 357.42,-60.22"/>
</g>
<!-- Node6 -->
<g id="node6" class="node">
<title>Node6</title>
<g id="a_node6"><a xlink:href="descriptor_8h.html" target="_top" xlink:title=" ">
<polygon fill="none" stroke="black" points="538.5,-0.5 538.5,-30.5 638.5,-30.5 638.5,-0.5 538.5,-0.5"/>
<text text-anchor="start" x="546.5" y="-18.5" font-family="Helvetica,sans-Serif" font-size="10.00">include/kernel/proc</text>
<text text-anchor="middle" x="588.5" y="-7.5" font-family="Helvetica,sans-Serif" font-size="10.00">/descriptor.h</text>
</a>
</g>
</g>
<!-- Node1&#45;&gt;Node6 -->
<g id="edge5" class="edge">
<title>Node1&#45;&gt;Node6</title>
<path fill="none" stroke="midnightblue" d="M379.28,-65.23C419.6,-56.27 478.33,-43.07 529.5,-31 532.37,-30.32 535.33,-29.62 538.3,-28.9"/>
<polygon fill="midnightblue" stroke="midnightblue" points="378.45,-61.83 369.44,-67.42 379.96,-68.67 378.45,-61.83"/>
</g>
</g>
</svg>
