<?xml version="1.0" encoding="UTF-8" standalone="no"?>
<!DOCTYPE svg PUBLIC "-//W3C//DTD SVG 1.1//EN"
 "http://www.w3.org/Graphics/SVG/1.1/DTD/svg11.dtd">
<!-- Generated by graphviz version 8.0.2 (20230410.1723)
 -->
<!-- Title: include/kernel/fs/vfs.h Pages: 1 -->
<svg width="640pt" height="95pt"
 viewBox="0.00 0.00 639.50 95.00" xmlns="http://www.w3.org/2000/svg" xmlns:xlink="http://www.w3.org/1999/xlink">
<g id="graph0" class="graph" transform="scale(1 1) rotate(0) translate(4 91)">
<title>include/kernel/fs/vfs.h</title>
<!-- Node1 -->
<g id="node1" class="node">
<title>Node1</title>
<g id="a_node1"><a xlink:title=" ">
<polygon fill="#bfbfbf" stroke="black" points="271,-67.5 271,-86.5 384,-86.5 384,-67.5 271,-67.5"/>
<text text-anchor="middle" x="327.5" y="-74.5" font-family="Helvetica,sans-Serif" font-size="10.00">include/kernel/fs/vfs.h</text>
</a>
</g>
</g>
<!-- Node2 -->
<g id="node2" class="node">
<title>Node2</title>
<g id="a_node2"><a xlink:href="dev_8h.html" target="_top" xlink:title=" ">
<polygon fill="none" stroke="black" points="0,-6 0,-25 113,-25 113,-6 0,-6"/>
<text text-anchor="middle" x="56.5" y="-13" font-family="Helvetica,sans-Serif" font-size="10.00">include/kernel/fs/dev.h</text>
</a>
</g>
</g>
<!-- Node1&#45;&gt;Node2 -->
<g id="edge1" class="edge">
<title>Node1&#45;&gt;Node2</title>
<path fill="none" stroke="midnightblue" d="M278.31,-65.21C236.79,-56.09 175.75,-42.69 122.5,-31 113.56,-29.04 103.94,-26.92 94.89,-24.94"/>
<polygon fill="midnightblue" stroke="midnightblue" points="277.44,-68.82 287.96,-67.54 278.94,-61.98 277.44,-68.82"/>
</g>
<!-- Node3 -->
<g id="node3" class="node">
<title>Node3</title>
<g id="a_node3"><a xlink:href="fs_2proc_8h.html" target="_top" xlink:title=" ">
<polygon fill="none" stroke="black" points="131.5,-6 131.5,-25 249.5,-25 249.5,-6 131.5,-6"/>
<text text-anchor="middle" x="190.5" y="-13" font-family="Helvetica,sans-Serif" font-size="10.00">include/kernel/fs/proc.h</text>
</a>
</g>
</g>
<!-- Node1&#45;&gt;Node3 -->
<g id="edge2" class="edge">
<title>Node1&#45;&gt;Node3</title>
<path fill="none" stroke="midnightblue" d="M298.22,-63.28C271.49,-51.67 232.75,-34.85 209.74,-24.86"/>
<polygon fill="midnightblue" stroke="midnightblue" points="296.6,-66.83 307.16,-67.6 299.38,-60.41 296.6,-66.83"/>
</g>
<!-- Node4 -->
<g id="node4" class="node">
<title>Node4</title>
<g id="a_node4"><a xlink:href="sock_8h.html" target="_top" xlink:title=" ">
<polygon fill="none" stroke="black" points="267.5,-6 267.5,-25 387.5,-25 387.5,-6 267.5,-6"/>
<text text-anchor="middle" x="327.5" y="-13" font-family="Helvetica,sans-Serif" font-size="10.00">include/kernel/fs/sock.h</text>
</a>
</g>
</g>
<!-- Node1&#45;&gt;Node4 -->
<g id="edge3" class="edge">
<title>Node1&#45;&gt;Node4</title>
<path fill="none" stroke="midnightblue" d="M327.5,-56.76C327.5,-45.92 327.5,-32.94 327.5,-24.7"/>
<polygon fill="midnightblue" stroke="midnightblue" points="324,-56.73 327.5,-66.73 331,-56.73 324,-56.73"/>
</g>
<!-- Node5 -->
<g id="node5" class="node">
<title>Node5</title>
<g id="a_node5"><a xlink:href="tar_8h.html" target="_top" xlink:title=" ">
<polygon fill="none" stroke="black" points="405.5,-6 405.5,-25 515.5,-25 515.5,-6 405.5,-6"/>
<text text-anchor="middle" x="460.5" y="-13" font-family="Helvetica,sans-Serif" font-size="10.00">include/kernel/fs/tar.h</text>
</a>
</g>
</g>
<!-- Node1&#45;&gt;Node5 -->
<g id="edge4" class="edge">
<title>Node1&#45;&gt;Node5</title>
<path fill="none" stroke="midnightblue" d="M356.27,-63.13C382.21,-51.53 419.59,-34.8 441.82,-24.86"/>
<polygon fill="midnightblue" stroke="midnightblue" points="354.97,-60.32 347.27,-67.6 357.83,-66.71 354.97,-60.32"/>
</g>
<!-- Node6 -->
<g id="node6" class="node">
<title>Node6</title>
<g id="a_node6"><a xlink:href="descriptor_8h.html" target="_top" xlink:title=" ">
<polygon fill="none" stroke="black" points="533.5,-0.5 533.5,-30.5 631.5,-30.5 631.5,-0.5 533.5,-0.5"/>
<text text-anchor="start" x="541.5" y="-18.5" font-family="Helvetica,sans-Serif" font-size="10.00">include/kernel/proc</text>
<text text-anchor="middle" x="582.5" y="-7.5" font-family="Helvetica,sans-Serif" font-size="10.00">/descriptor.h</text>
</a>
</g>
</g>
<!-- Node1&#45;&gt;Node6 -->
<g id="edge5" class="edge">
<title>Node1&#45;&gt;Node6</title>
<path fill="none" stroke="midnightblue" d="M376.19,-65.17C416.1,-56.22 474.02,-43.07 524.5,-31 527.53,-30.28 530.64,-29.52 533.78,-28.76"/>
<polygon fill="midnightblue" stroke="midnightblue" points="375.68,-61.92 366.69,-67.52 377.21,-68.75 375.68,-61.92"/>
</g>
</g>
</svg>
