<?xml version="1.0" encoding="UTF-8" standalone="no"?>
<!DOCTYPE svg PUBLIC "-//W3C//DTD SVG 1.1//EN"
 "http://www.w3.org/Graphics/SVG/1.1/DTD/svg11.dtd">
<!-- Generated by graphviz version 2.49.3 (20211023.0002)
 -->
<!-- Title: include/kernel/fs/vfs.h Pages: 1 -->
<svg width="132pt" height="84pt"
 viewBox="0.00 0.00 132.00 84.00" xmlns="http://www.w3.org/2000/svg" xmlns:xlink="http://www.w3.org/1999/xlink">
<g id="graph0" class="graph" transform="scale(1 1) rotate(0) translate(4 80)">
<title>include/kernel/fs/vfs.h</title>
<!-- Node1 -->
<g id="node1" class="node">
<title>Node1</title>
<g id="a_node1"><a xlink:title=" ">
<polygon fill="#bfbfbf" stroke="black" points="7,-56.5 7,-75.5 120,-75.5 120,-56.5 7,-56.5"/>
<text text-anchor="middle" x="63.5" y="-63.5" font-family="Helvetica,sans-Serif" font-size="10.00">include/kernel/fs/vfs.h</text>
</a>
</g>
</g>
<!-- Node2 -->
<g id="node2" class="node">
<title>Node2</title>
<g id="a_node2"><a xlink:title=" ">
<polygon fill="none" stroke="#bfbfbf" points="0,-0.5 0,-19.5 57,-19.5 57,-0.5 0,-0.5"/>
<text text-anchor="middle" x="28.5" y="-7.5" font-family="Helvetica,sans-Serif" font-size="10.00">stdbool.h</text>
</a>
</g>
</g>
<!-- Node1&#45;&gt;Node2 -->
<g id="edge1" class="edge">
<title>Node1&#45;&gt;Node2</title>
<path fill="none" stroke="midnightblue" d="M57.72,-56.08C52.83,-48.53 45.67,-37.49 39.67,-28.23"/>
<polygon fill="midnightblue" stroke="midnightblue" points="42.55,-26.24 34.17,-19.75 36.67,-30.05 42.55,-26.24"/>
</g>
<!-- Node3 -->
<g id="node3" class="node">
<title>Node3</title>
<g id="a_node3"><a xlink:title=" ">
<polygon fill="none" stroke="#bfbfbf" points="75,-0.5 75,-19.5 124,-19.5 124,-0.5 75,-0.5"/>
<text text-anchor="middle" x="99.5" y="-7.5" font-family="Helvetica,sans-Serif" font-size="10.00">stdint.h</text>
</a>
</g>
</g>
<!-- Node1&#45;&gt;Node3 -->
<g id="edge2" class="edge">
<title>Node1&#45;&gt;Node3</title>
<path fill="none" stroke="midnightblue" d="M69.44,-56.08C74.48,-48.53 81.84,-37.49 88.01,-28.23"/>
<polygon fill="midnightblue" stroke="midnightblue" points="91.03,-30.01 93.67,-19.75 85.21,-26.13 91.03,-30.01"/>
</g>
</g>
</svg>
