<?xml version="1.0" encoding="UTF-8" standalone="no"?>
<!DOCTYPE svg PUBLIC "-//W3C//DTD SVG 1.1//EN"
 "http://www.w3.org/Graphics/SVG/1.1/DTD/svg11.dtd">
<!-- Generated by graphviz version 8.0.2 (20230410.1723)
 -->
<!-- Title: vga_text_move_cursor Pages: 1 -->
<svg width="236pt" height="45pt"
 viewBox="0.00 0.00 236.00 45.00" xmlns="http://www.w3.org/2000/svg" xmlns:xlink="http://www.w3.org/1999/xlink">
<g id="graph0" class="graph" transform="scale(1 1) rotate(0) translate(4 41)">
<title>vga_text_move_cursor</title>
<!-- Node1 -->
<g id="Node000001" class="node">
<title>Node1</title>
<g id="a_Node000001"><a xlink:title=" ">
<polygon fill="#999999" stroke="#666666" points="116,-19 0,-19 0,0 116,0 116,-19"/>
<text text-anchor="middle" x="58" y="-7" font-family="Helvetica,sans-Serif" font-size="10.00">vga_text_move_cursor</text>
</a>
</g>
</g>
<!-- Node2 -->
<g id="Node000002" class="node">
<title>Node2</title>
<g id="a_Node000002"><a xlink:href="port_8c.html#ac3c72bfda8c7b1920ef91bcc06c97c7f" target="_top" xlink:title=" ">
<polygon fill="white" stroke="#666666" points="228,-19 152,-19 152,0 228,0 228,-19"/>
<text text-anchor="middle" x="190" y="-7" font-family="Helvetica,sans-Serif" font-size="10.00">port_byte_out</text>
</a>
</g>
</g>
<!-- Node1&#45;&gt;Node2 -->
<g id="edge1_Node000001_Node000002" class="edge">
<title>Node1&#45;&gt;Node2</title>
<g id="a_edge1_Node000001_Node000002"><a xlink:title=" ">
<path fill="none" stroke="#63b8ff" d="M116.4,-9.5C124.53,-9.5 132.83,-9.5 140.77,-9.5"/>
<polygon fill="#63b8ff" stroke="#63b8ff" points="140.7,-13 150.7,-9.5 140.7,-6 140.7,-13"/>
</a>
</g>
</g>
<!-- Node2&#45;&gt;Node2 -->
<g id="edge2_Node000002_Node000002" class="edge">
<title>Node2&#45;&gt;Node2</title>
<g id="a_edge2_Node000002_Node000002"><a xlink:title=" ">
<path fill="none" stroke="#63b8ff" d="M169.33,-19.37C159.91,-27.94 166.8,-37 190,-37 203.41,-37 211.38,-33.97 213.88,-29.76"/>
<polygon fill="#63b8ff" stroke="#63b8ff" points="216.97,-28.88 210.67,-20.37 210.28,-30.96 216.97,-28.88"/>
</a>
</g>
</g>
</g>
</svg>
