<?xml version="1.0" encoding="UTF-8" standalone="no"?>
<!DOCTYPE svg PUBLIC "-//W3C//DTD SVG 1.1//EN"
 "http://www.w3.org/Graphics/SVG/1.1/DTD/svg11.dtd">
<!-- Generated by graphviz version 8.0.2 (20230410.1723)
 -->
<!-- Title: vga_text_disable_cursor Pages: 1 -->
<svg width="242pt" height="45pt"
 viewBox="0.00 0.00 242.00 45.00" xmlns="http://www.w3.org/2000/svg" xmlns:xlink="http://www.w3.org/1999/xlink">
<g id="graph0" class="graph" transform="scale(1 1) rotate(0) translate(4 41)">
<title>vga_text_disable_cursor</title>
<!-- Node1 -->
<g id="Node000001" class="node">
<title>Node1</title>
<g id="a_Node000001"><a xlink:title=" ">
<polygon fill="#999999" stroke="#666666" points="122,-19 0,-19 0,0 122,0 122,-19"/>
<text text-anchor="middle" x="61" y="-7" font-family="Helvetica,sans-Serif" font-size="10.00">vga_text_disable_cursor</text>
</a>
</g>
</g>
<!-- Node2 -->
<g id="Node000002" class="node">
<title>Node2</title>
<g id="a_Node000002"><a xlink:href="port_8c.html#ac3c72bfda8c7b1920ef91bcc06c97c7f" target="_top" xlink:title=" ">
<polygon fill="white" stroke="#666666" points="234,-19 158,-19 158,0 234,0 234,-19"/>
<text text-anchor="middle" x="196" y="-7" font-family="Helvetica,sans-Serif" font-size="10.00">port_byte_out</text>
</a>
</g>
</g>
<!-- Node1&#45;&gt;Node2 -->
<g id="edge1_Node000001_Node000002" class="edge">
<title>Node1&#45;&gt;Node2</title>
<g id="a_edge1_Node000001_Node000002"><a xlink:title=" ">
<path fill="none" stroke="#63b8ff" d="M122.27,-9.5C130.5,-9.5 138.85,-9.5 146.82,-9.5"/>
<polygon fill="#63b8ff" stroke="#63b8ff" points="146.78,-13 156.78,-9.5 146.78,-6 146.78,-13"/>
</a>
</g>
</g>
<!-- Node2&#45;&gt;Node2 -->
<g id="edge2_Node000002_Node000002" class="edge">
<title>Node2&#45;&gt;Node2</title>
<g id="a_edge2_Node000002_Node000002"><a xlink:title=" ">
<path fill="none" stroke="#63b8ff" d="M174.87,-19.37C165.22,-27.94 172.27,-37 196,-37 209.72,-37 217.86,-33.97 220.43,-29.76"/>
<polygon fill="#63b8ff" stroke="#63b8ff" points="223.49,-28.84 217.13,-20.37 216.82,-30.96 223.49,-28.84"/>
</a>
</g>
</g>
</g>
</svg>
