<?xml version="1.0" encoding="UTF-8" standalone="no"?>
<!DOCTYPE svg PUBLIC "-//W3C//DTD SVG 1.1//EN"
 "http://www.w3.org/Graphics/SVG/1.1/DTD/svg11.dtd">
<!-- Generated by graphviz version 2.49.3 (20211023.0002)
 -->
<!-- Title: src/kernel/arch/x86_64/mmu/alloc.h Pages: 1 -->
<svg width="194pt" height="207pt"
 viewBox="0.00 0.00 194.00 207.00" xmlns="http://www.w3.org/2000/svg" xmlns:xlink="http://www.w3.org/1999/xlink">
<g id="graph0" class="graph" transform="scale(1 1) rotate(0) translate(4 203)">
<title>src/kernel/arch/x86_64/mmu/alloc.h</title>
<!-- Node1 -->
<g id="node1" class="node">
<title>Node1</title>
<g id="a_node1"><a xlink:title=" ">
<polygon fill="#bfbfbf" stroke="black" points="44.5,-168.5 44.5,-198.5 145.5,-198.5 145.5,-168.5 44.5,-168.5"/>
<text text-anchor="start" x="52.5" y="-186.5" font-family="Helvetica,sans-Serif" font-size="10.00">src/kernel/arch/x86</text>
<text text-anchor="middle" x="95" y="-175.5" font-family="Helvetica,sans-Serif" font-size="10.00">_64/mmu/alloc.h</text>
</a>
</g>
</g>
<!-- Node2 -->
<g id="node2" class="node">
<title>Node2</title>
<g id="a_node2"><a xlink:href="frame_8h.html" target="_top" xlink:title=" ">
<polygon fill="none" stroke="black" points="57.5,-112.5 57.5,-131.5 132.5,-131.5 132.5,-112.5 57.5,-112.5"/>
<text text-anchor="middle" x="95" y="-119.5" font-family="Helvetica,sans-Serif" font-size="10.00">mmu/frame.h</text>
</a>
</g>
</g>
<!-- Node1&#45;&gt;Node2 -->
<g id="edge1" class="edge">
<title>Node1&#45;&gt;Node2</title>
<path fill="none" stroke="midnightblue" d="M95,-168.4C95,-160.47 95,-150.46 95,-141.86"/>
<polygon fill="midnightblue" stroke="midnightblue" points="98.5,-141.66 95,-131.66 91.5,-141.66 98.5,-141.66"/>
</g>
<!-- Node3 -->
<g id="node3" class="node">
<title>Node3</title>
<g id="a_node3"><a xlink:href="multiboot_8h.html" target="_top" xlink:title=" ">
<polygon fill="none" stroke="black" points="0,-56.5 0,-75.5 88,-75.5 88,-56.5 0,-56.5"/>
<text text-anchor="middle" x="44" y="-63.5" font-family="Helvetica,sans-Serif" font-size="10.00">core/multiboot.h</text>
</a>
</g>
</g>
<!-- Node2&#45;&gt;Node3 -->
<g id="edge2" class="edge">
<title>Node2&#45;&gt;Node3</title>
<path fill="none" stroke="midnightblue" d="M86.58,-112.08C79.15,-104.22 68.15,-92.57 59.19,-83.08"/>
<polygon fill="midnightblue" stroke="midnightblue" points="61.68,-80.62 52.26,-75.75 56.59,-85.42 61.68,-80.62"/>
</g>
<!-- Node6 -->
<g id="node6" class="node">
<title>Node6</title>
<g id="a_node6"><a xlink:href="bitmap_8h.html" target="_top" xlink:title=" ">
<polygon fill="none" stroke="black" points="106,-56.5 106,-75.5 186,-75.5 186,-56.5 106,-56.5"/>
<text text-anchor="middle" x="146" y="-63.5" font-family="Helvetica,sans-Serif" font-size="10.00">mmu/bitmap.h</text>
</a>
</g>
</g>
<!-- Node2&#45;&gt;Node6 -->
<g id="edge5" class="edge">
<title>Node2&#45;&gt;Node6</title>
<path fill="none" stroke="midnightblue" d="M103.42,-112.08C110.85,-104.22 121.85,-92.57 130.81,-83.08"/>
<polygon fill="midnightblue" stroke="midnightblue" points="133.41,-85.42 137.74,-75.75 128.32,-80.62 133.41,-85.42"/>
</g>
<!-- Node4 -->
<g id="node4" class="node">
<title>Node4</title>
<g id="a_node4"><a xlink:title=" ">
<polygon fill="none" stroke="#bfbfbf" points="23.5,-0.5 23.5,-19.5 80.5,-19.5 80.5,-0.5 23.5,-0.5"/>
<text text-anchor="middle" x="52" y="-7.5" font-family="Helvetica,sans-Serif" font-size="10.00">stdbool.h</text>
</a>
</g>
</g>
<!-- Node3&#45;&gt;Node4 -->
<g id="edge3" class="edge">
<title>Node3&#45;&gt;Node4</title>
<path fill="none" stroke="midnightblue" d="M45.32,-56.08C46.38,-48.93 47.91,-38.64 49.23,-29.69"/>
<polygon fill="midnightblue" stroke="midnightblue" points="52.7,-30.16 50.7,-19.75 45.78,-29.13 52.7,-30.16"/>
</g>
<!-- Node5 -->
<g id="node5" class="node">
<title>Node5</title>
<g id="a_node5"><a xlink:title=" ">
<polygon fill="none" stroke="#bfbfbf" points="113.5,-0.5 113.5,-19.5 162.5,-19.5 162.5,-0.5 113.5,-0.5"/>
<text text-anchor="middle" x="138" y="-7.5" font-family="Helvetica,sans-Serif" font-size="10.00">stdint.h</text>
</a>
</g>
</g>
<!-- Node3&#45;&gt;Node5 -->
<g id="edge4" class="edge">
<title>Node3&#45;&gt;Node5</title>
<path fill="none" stroke="midnightblue" d="M59.1,-56.32C73.9,-47.82 96.69,-34.73 113.98,-24.8"/>
<polygon fill="midnightblue" stroke="midnightblue" points="116.01,-27.67 122.93,-19.65 112.52,-21.6 116.01,-27.67"/>
</g>
<!-- Node6&#45;&gt;Node4 -->
<g id="edge6" class="edge">
<title>Node6&#45;&gt;Node4</title>
<path fill="none" stroke="midnightblue" d="M130.9,-56.32C116.1,-47.82 93.31,-34.73 76.02,-24.8"/>
<polygon fill="midnightblue" stroke="midnightblue" points="77.48,-21.6 67.07,-19.65 73.99,-27.67 77.48,-21.6"/>
</g>
<!-- Node6&#45;&gt;Node5 -->
<g id="edge7" class="edge">
<title>Node6&#45;&gt;Node5</title>
<path fill="none" stroke="midnightblue" d="M144.68,-56.08C143.62,-48.93 142.09,-38.64 140.77,-29.69"/>
<polygon fill="midnightblue" stroke="midnightblue" points="144.22,-29.13 139.3,-19.75 137.3,-30.16 144.22,-29.13"/>
</g>
</g>
</svg>
