<?xml version="1.0" encoding="UTF-8" standalone="no"?>
<!DOCTYPE svg PUBLIC "-//W3C//DTD SVG 1.1//EN"
 "http://www.w3.org/Graphics/SVG/1.1/DTD/svg11.dtd">
<!-- Generated by graphviz version 8.0.2 (20230410.1723)
 -->
<!-- Title: src/kernel/arch/x86_64/mmu/alloc.h Pages: 1 -->
<svg width="278pt" height="207pt"
 viewBox="0.00 0.00 277.50 207.00" xmlns="http://www.w3.org/2000/svg" xmlns:xlink="http://www.w3.org/1999/xlink">
<g id="graph0" class="graph" transform="scale(1 1) rotate(0) translate(4 203)">
<title>src/kernel/arch/x86_64/mmu/alloc.h</title>
<!-- Node1 -->
<g id="node1" class="node">
<title>Node1</title>
<g id="a_node1"><a xlink:title=" ">
<polygon fill="#bfbfbf" stroke="black" points="137.5,-168.5 137.5,-198.5 237.5,-198.5 237.5,-168.5 137.5,-168.5"/>
<text text-anchor="start" x="145.5" y="-186.5" font-family="Helvetica,sans-Serif" font-size="10.00">src/kernel/arch/x86</text>
<text text-anchor="middle" x="187.5" y="-175.5" font-family="Helvetica,sans-Serif" font-size="10.00">_64/mmu/alloc.h</text>
</a>
</g>
</g>
<!-- Node2 -->
<g id="node2" class="node">
<title>Node2</title>
<g id="a_node2"><a xlink:href="frame_8h.html" target="_top" xlink:title=" ">
<polygon fill="none" stroke="black" points="118.5,-112.5 118.5,-131.5 192.5,-131.5 192.5,-112.5 118.5,-112.5"/>
<text text-anchor="middle" x="155.5" y="-119.5" font-family="Helvetica,sans-Serif" font-size="10.00">mmu/frame.h</text>
</a>
</g>
</g>
<!-- Node1&#45;&gt;Node2 -->
<g id="edge1" class="edge">
<title>Node1&#45;&gt;Node2</title>
<path fill="none" stroke="midnightblue" d="M180.08,-168.7C175.62,-160.41 169.9,-149.77 165.1,-140.85"/>
<polygon fill="midnightblue" stroke="midnightblue" points="167.84,-139.55 160.02,-132.4 161.67,-142.86 167.84,-139.55"/>
</g>
<!-- Node8 -->
<g id="node8" class="node">
<title>Node8</title>
<g id="a_node8"><a xlink:href="types_8h.html" target="_top" xlink:title=" ">
<polygon fill="none" stroke="black" points="201.5,-56.5 201.5,-75.5 269.5,-75.5 269.5,-56.5 201.5,-56.5"/>
<text text-anchor="middle" x="235.5" y="-63.5" font-family="Helvetica,sans-Serif" font-size="10.00">sys/types.h</text>
</a>
</g>
</g>
<!-- Node1&#45;&gt;Node8 -->
<g id="edge13" class="edge">
<title>Node1&#45;&gt;Node8</title>
<path fill="none" stroke="midnightblue" d="M193.19,-168.8C201.82,-148.05 218.2,-108.63 227.85,-85.4"/>
<polygon fill="midnightblue" stroke="midnightblue" points="231.38,-87.03 231.99,-76.45 224.92,-84.35 231.38,-87.03"/>
</g>
<!-- Node3 -->
<g id="node3" class="node">
<title>Node3</title>
<g id="a_node3"><a xlink:href="multiboot_8h.html" target="_top" xlink:title=" ">
<polygon fill="none" stroke="black" points="97.5,-56.5 97.5,-75.5 183.5,-75.5 183.5,-56.5 97.5,-56.5"/>
<text text-anchor="middle" x="140.5" y="-63.5" font-family="Helvetica,sans-Serif" font-size="10.00">core/multiboot.h</text>
</a>
</g>
</g>
<!-- Node2&#45;&gt;Node3 -->
<g id="edge2" class="edge">
<title>Node2&#45;&gt;Node3</title>
<path fill="none" stroke="midnightblue" d="M153.16,-112.56C151.16,-105.39 148.23,-94.82 145.69,-85.67"/>
<polygon fill="midnightblue" stroke="midnightblue" points="148.83,-84.9 142.78,-76.2 142.08,-86.77 148.83,-84.9"/>
</g>
<!-- Node6 -->
<g id="node6" class="node">
<title>Node6</title>
<g id="a_node6"><a xlink:href="bitmap_8h.html" target="_top" xlink:title=" ">
<polygon fill="none" stroke="black" points="0,-56.5 0,-75.5 79,-75.5 79,-56.5 0,-56.5"/>
<text text-anchor="middle" x="39.5" y="-63.5" font-family="Helvetica,sans-Serif" font-size="10.00">mmu/bitmap.h</text>
</a>
</g>
</g>
<!-- Node2&#45;&gt;Node6 -->
<g id="edge5" class="edge">
<title>Node2&#45;&gt;Node6</title>
<path fill="none" stroke="midnightblue" d="M137.38,-112.56C118.65,-103.84 89.17,-90.12 67.45,-80.01"/>
<polygon fill="midnightblue" stroke="midnightblue" points="69.04,-76.43 58.5,-75.38 66.09,-82.77 69.04,-76.43"/>
</g>
<!-- Node2&#45;&gt;Node8 -->
<g id="edge9" class="edge">
<title>Node2&#45;&gt;Node8</title>
<path fill="none" stroke="midnightblue" d="M168,-112.56C180.33,-104.24 199.41,-91.36 214.15,-81.41"/>
<polygon fill="midnightblue" stroke="midnightblue" points="215.76,-83.87 222.09,-75.38 211.84,-78.07 215.76,-83.87"/>
</g>
<!-- Node4 -->
<g id="node4" class="node">
<title>Node4</title>
<g id="a_node4"><a xlink:title=" ">
<polygon fill="none" stroke="#bfbfbf" points="74.5,-0.5 74.5,-19.5 130.5,-19.5 130.5,-0.5 74.5,-0.5"/>
<text text-anchor="middle" x="102.5" y="-7.5" font-family="Helvetica,sans-Serif" font-size="10.00">stdbool.h</text>
</a>
</g>
</g>
<!-- Node3&#45;&gt;Node4 -->
<g id="edge3" class="edge">
<title>Node3&#45;&gt;Node4</title>
<path fill="none" stroke="midnightblue" d="M134.56,-56.56C129.23,-48.99 121.25,-37.64 114.58,-28.16"/>
<polygon fill="midnightblue" stroke="midnightblue" points="116.89,-26.37 108.27,-20.2 111.16,-30.39 116.89,-26.37"/>
</g>
<!-- Node5 -->
<g id="node5" class="node">
<title>Node5</title>
<g id="a_node5"><a xlink:title=" ">
<polygon fill="none" stroke="#bfbfbf" points="149,-0.5 149,-19.5 198,-19.5 198,-0.5 149,-0.5"/>
<text text-anchor="middle" x="173.5" y="-7.5" font-family="Helvetica,sans-Serif" font-size="10.00">stdint.h</text>
</a>
</g>
</g>
<!-- Node3&#45;&gt;Node5 -->
<g id="edge4" class="edge">
<title>Node3&#45;&gt;Node5</title>
<path fill="none" stroke="midnightblue" d="M145.66,-56.56C150.24,-49.07 157.07,-37.88 162.83,-28.46"/>
<polygon fill="midnightblue" stroke="midnightblue" points="166.26,-30.56 168.49,-20.2 160.29,-26.91 166.26,-30.56"/>
</g>
<!-- Node6&#45;&gt;Node4 -->
<g id="edge7" class="edge">
<title>Node6&#45;&gt;Node4</title>
<path fill="none" stroke="midnightblue" d="M49.34,-56.56C58.83,-48.43 73.4,-35.95 84.88,-26.1"/>
<polygon fill="midnightblue" stroke="midnightblue" points="86.62,-28.37 91.93,-19.2 82.06,-23.05 86.62,-28.37"/>
</g>
<!-- Node6&#45;&gt;Node5 -->
<g id="edge8" class="edge">
<title>Node6&#45;&gt;Node5</title>
<path fill="none" stroke="midnightblue" d="M60.44,-56.56C82.46,-47.69 117.37,-33.62 142.57,-23.46"/>
<polygon fill="midnightblue" stroke="midnightblue" points="143.74,-26.36 151.71,-19.38 141.13,-19.87 143.74,-26.36"/>
</g>
<!-- Node7 -->
<g id="node7" class="node">
<title>Node7</title>
<g id="a_node7"><a xlink:title=" ">
<polygon fill="none" stroke="#bfbfbf" points="8.5,-0.5 8.5,-19.5 56.5,-19.5 56.5,-0.5 8.5,-0.5"/>
<text text-anchor="middle" x="32.5" y="-7.5" font-family="Helvetica,sans-Serif" font-size="10.00">limits.h</text>
</a>
</g>
</g>
<!-- Node6&#45;&gt;Node7 -->
<g id="edge6" class="edge">
<title>Node6&#45;&gt;Node7</title>
<path fill="none" stroke="midnightblue" d="M38.41,-56.56C37.49,-49.47 36.14,-39.06 34.96,-29.98"/>
<polygon fill="midnightblue" stroke="midnightblue" points="38.32,-29.67 33.56,-20.2 31.38,-30.57 38.32,-29.67"/>
</g>
<!-- Node8&#45;&gt;Node4 -->
<g id="edge10" class="edge">
<title>Node8&#45;&gt;Node4</title>
<path fill="none" stroke="midnightblue" d="M214.72,-56.56C192.86,-47.69 158.21,-33.62 133.2,-23.46"/>
<polygon fill="midnightblue" stroke="midnightblue" points="134.72,-19.9 124.14,-19.38 132.08,-26.38 134.72,-19.9"/>
</g>
<!-- Node8&#45;&gt;Node5 -->
<g id="edge12" class="edge">
<title>Node8&#45;&gt;Node5</title>
<path fill="none" stroke="midnightblue" d="M225.81,-56.56C216.57,-48.51 202.42,-36.19 191.17,-26.39"/>
<polygon fill="midnightblue" stroke="midnightblue" points="193.76,-23.13 183.92,-19.2 189.16,-28.41 193.76,-23.13"/>
</g>
<!-- Node9 -->
<g id="node9" class="node">
<title>Node9</title>
<g id="a_node9"><a xlink:title=" ">
<polygon fill="none" stroke="#bfbfbf" points="216.5,-0.5 216.5,-19.5 268.5,-19.5 268.5,-0.5 216.5,-0.5"/>
<text text-anchor="middle" x="242.5" y="-7.5" font-family="Helvetica,sans-Serif" font-size="10.00">stddef.h</text>
</a>
</g>
</g>
<!-- Node8&#45;&gt;Node9 -->
<g id="edge11" class="edge">
<title>Node8&#45;&gt;Node9</title>
<path fill="none" stroke="midnightblue" d="M236.59,-56.56C237.51,-49.47 238.86,-39.06 240.04,-29.98"/>
<polygon fill="midnightblue" stroke="midnightblue" points="243.62,-30.57 241.44,-20.2 236.68,-29.67 243.62,-30.57"/>
</g>
</g>
</svg>
