<?xml version="1.0" encoding="UTF-8" standalone="no"?>
<!DOCTYPE svg PUBLIC "-//W3C//DTD SVG 1.1//EN"
 "http://www.w3.org/Graphics/SVG/1.1/DTD/svg11.dtd">
<!-- Generated by graphviz version 2.49.3 (20211023.0002)
 -->
<!-- Title: src/kernel/arch/x86_64/mmu/alloc.h Pages: 1 -->
<svg width="280pt" height="207pt"
 viewBox="0.00 0.00 279.50 207.00" xmlns="http://www.w3.org/2000/svg" xmlns:xlink="http://www.w3.org/1999/xlink">
<g id="graph0" class="graph" transform="scale(1 1) rotate(0) translate(4 203)">
<title>src/kernel/arch/x86_64/mmu/alloc.h</title>
<!-- Node1 -->
<g id="node1" class="node">
<title>Node1</title>
<g id="a_node1"><a xlink:title=" ">
<polygon fill="#bfbfbf" stroke="black" points="139.5,-168.5 139.5,-198.5 240.5,-198.5 240.5,-168.5 139.5,-168.5"/>
<text text-anchor="start" x="147.5" y="-186.5" font-family="Helvetica,sans-Serif" font-size="10.00">src/kernel/arch/x86</text>
<text text-anchor="middle" x="190" y="-175.5" font-family="Helvetica,sans-Serif" font-size="10.00">_64/mmu/alloc.h</text>
</a>
</g>
</g>
<!-- Node2 -->
<g id="node2" class="node">
<title>Node2</title>
<g id="a_node2"><a xlink:href="frame_8h.html" target="_top" xlink:title=" ">
<polygon fill="none" stroke="black" points="119.5,-112.5 119.5,-131.5 194.5,-131.5 194.5,-112.5 119.5,-112.5"/>
<text text-anchor="middle" x="157" y="-119.5" font-family="Helvetica,sans-Serif" font-size="10.00">mmu/frame.h</text>
</a>
</g>
</g>
<!-- Node1&#45;&gt;Node2 -->
<g id="edge1" class="edge">
<title>Node1&#45;&gt;Node2</title>
<path fill="none" stroke="midnightblue" d="M182.18,-168.4C177.53,-160.02 171.6,-149.33 166.66,-140.42"/>
<polygon fill="midnightblue" stroke="midnightblue" points="169.71,-138.71 161.8,-131.66 163.59,-142.1 169.71,-138.71"/>
</g>
<!-- Node8 -->
<g id="node8" class="node">
<title>Node8</title>
<g id="a_node8"><a xlink:href="types_8h.html" target="_top" xlink:title=" ">
<polygon fill="none" stroke="black" points="204.5,-56.5 204.5,-75.5 271.5,-75.5 271.5,-56.5 204.5,-56.5"/>
<text text-anchor="middle" x="238" y="-63.5" font-family="Helvetica,sans-Serif" font-size="10.00">sys/types.h</text>
</a>
</g>
</g>
<!-- Node1&#45;&gt;Node8 -->
<g id="edge13" class="edge">
<title>Node1&#45;&gt;Node8</title>
<path fill="none" stroke="midnightblue" d="M195.89,-168.34C204.61,-147.34 220.98,-107.96 230.54,-84.96"/>
<polygon fill="midnightblue" stroke="midnightblue" points="233.79,-86.25 234.4,-75.67 227.33,-83.56 233.79,-86.25"/>
</g>
<!-- Node3 -->
<g id="node3" class="node">
<title>Node3</title>
<g id="a_node3"><a xlink:href="multiboot_8h.html" target="_top" xlink:title=" ">
<polygon fill="none" stroke="black" points="98,-56.5 98,-75.5 186,-75.5 186,-56.5 98,-56.5"/>
<text text-anchor="middle" x="142" y="-63.5" font-family="Helvetica,sans-Serif" font-size="10.00">core/multiboot.h</text>
</a>
</g>
</g>
<!-- Node2&#45;&gt;Node3 -->
<g id="edge2" class="edge">
<title>Node2&#45;&gt;Node3</title>
<path fill="none" stroke="midnightblue" d="M154.52,-112.08C152.51,-104.85 149.61,-94.41 147.11,-85.4"/>
<polygon fill="midnightblue" stroke="midnightblue" points="150.48,-84.45 144.43,-75.75 143.74,-86.32 150.48,-84.45"/>
</g>
<!-- Node6 -->
<g id="node6" class="node">
<title>Node6</title>
<g id="a_node6"><a xlink:href="bitmap_8h.html" target="_top" xlink:title=" ">
<polygon fill="none" stroke="black" points="0,-56.5 0,-75.5 80,-75.5 80,-56.5 0,-56.5"/>
<text text-anchor="middle" x="40" y="-63.5" font-family="Helvetica,sans-Serif" font-size="10.00">mmu/bitmap.h</text>
</a>
</g>
</g>
<!-- Node2&#45;&gt;Node6 -->
<g id="edge5" class="edge">
<title>Node2&#45;&gt;Node6</title>
<path fill="none" stroke="midnightblue" d="M138.46,-112.44C119.38,-103.64 89.43,-89.81 67.56,-79.72"/>
<polygon fill="midnightblue" stroke="midnightblue" points="69,-76.53 58.45,-75.52 66.07,-82.88 69,-76.53"/>
</g>
<!-- Node2&#45;&gt;Node8 -->
<g id="edge9" class="edge">
<title>Node2&#45;&gt;Node8</title>
<path fill="none" stroke="midnightblue" d="M170.01,-112.32C182.53,-103.98 201.68,-91.21 216.47,-81.35"/>
<polygon fill="midnightblue" stroke="midnightblue" points="218.64,-84.11 225.02,-75.65 214.76,-78.29 218.64,-84.11"/>
</g>
<!-- Node4 -->
<g id="node4" class="node">
<title>Node4</title>
<g id="a_node4"><a xlink:title=" ">
<polygon fill="none" stroke="#bfbfbf" points="76.5,-0.5 76.5,-19.5 133.5,-19.5 133.5,-0.5 76.5,-0.5"/>
<text text-anchor="middle" x="105" y="-7.5" font-family="Helvetica,sans-Serif" font-size="10.00">stdbool.h</text>
</a>
</g>
</g>
<!-- Node3&#45;&gt;Node4 -->
<g id="edge3" class="edge">
<title>Node3&#45;&gt;Node4</title>
<path fill="none" stroke="midnightblue" d="M135.89,-56.08C130.72,-48.53 123.15,-37.49 116.81,-28.23"/>
<polygon fill="midnightblue" stroke="midnightblue" points="119.54,-26.02 111,-19.75 113.76,-29.98 119.54,-26.02"/>
</g>
<!-- Node5 -->
<g id="node5" class="node">
<title>Node5</title>
<g id="a_node5"><a xlink:title=" ">
<polygon fill="none" stroke="#bfbfbf" points="151.5,-0.5 151.5,-19.5 200.5,-19.5 200.5,-0.5 151.5,-0.5"/>
<text text-anchor="middle" x="176" y="-7.5" font-family="Helvetica,sans-Serif" font-size="10.00">stdint.h</text>
</a>
</g>
</g>
<!-- Node3&#45;&gt;Node5 -->
<g id="edge4" class="edge">
<title>Node3&#45;&gt;Node5</title>
<path fill="none" stroke="midnightblue" d="M147.61,-56.08C152.37,-48.53 159.32,-37.49 165.15,-28.23"/>
<polygon fill="midnightblue" stroke="midnightblue" points="168.12,-30.08 170.49,-19.75 162.2,-26.35 168.12,-30.08"/>
</g>
<!-- Node6&#45;&gt;Node4 -->
<g id="edge7" class="edge">
<title>Node6&#45;&gt;Node4</title>
<path fill="none" stroke="midnightblue" d="M50.44,-56.32C60.15,-48.26 74.82,-36.08 86.5,-26.37"/>
<polygon fill="midnightblue" stroke="midnightblue" points="88.91,-28.92 94.37,-19.83 84.44,-23.53 88.91,-28.92"/>
</g>
<!-- Node6&#45;&gt;Node5 -->
<g id="edge8" class="edge">
<title>Node6&#45;&gt;Node5</title>
<path fill="none" stroke="midnightblue" d="M61.55,-56.44C84.03,-47.52 119.49,-33.44 144.98,-23.32"/>
<polygon fill="midnightblue" stroke="midnightblue" points="146.55,-26.46 154.55,-19.52 143.97,-19.95 146.55,-26.46"/>
</g>
<!-- Node7 -->
<g id="node7" class="node">
<title>Node7</title>
<g id="a_node7"><a xlink:title=" ">
<polygon fill="none" stroke="#bfbfbf" points="10,-0.5 10,-19.5 58,-19.5 58,-0.5 10,-0.5"/>
<text text-anchor="middle" x="34" y="-7.5" font-family="Helvetica,sans-Serif" font-size="10.00">limits.h</text>
</a>
</g>
</g>
<!-- Node6&#45;&gt;Node7 -->
<g id="edge6" class="edge">
<title>Node6&#45;&gt;Node7</title>
<path fill="none" stroke="midnightblue" d="M39.01,-56.08C38.21,-48.93 37.07,-38.64 36.08,-29.69"/>
<polygon fill="midnightblue" stroke="midnightblue" points="39.56,-29.3 34.97,-19.75 32.6,-30.08 39.56,-29.3"/>
</g>
<!-- Node8&#45;&gt;Node4 -->
<g id="edge10" class="edge">
<title>Node8&#45;&gt;Node4</title>
<path fill="none" stroke="midnightblue" d="M216.93,-56.44C194.94,-47.52 160.27,-33.44 135.34,-23.32"/>
<polygon fill="midnightblue" stroke="midnightblue" points="136.56,-20.04 125.98,-19.52 133.92,-26.52 136.56,-20.04"/>
</g>
<!-- Node8&#45;&gt;Node5 -->
<g id="edge12" class="edge">
<title>Node8&#45;&gt;Node5</title>
<path fill="none" stroke="midnightblue" d="M228.04,-56.32C218.87,-48.34 205.06,-36.31 193.97,-26.65"/>
<polygon fill="midnightblue" stroke="midnightblue" points="195.98,-23.76 186.14,-19.83 191.38,-29.04 195.98,-23.76"/>
</g>
<!-- Node9 -->
<g id="node9" class="node">
<title>Node9</title>
<g id="a_node9"><a xlink:title=" ">
<polygon fill="none" stroke="#bfbfbf" points="219,-0.5 219,-19.5 271,-19.5 271,-0.5 219,-0.5"/>
<text text-anchor="middle" x="245" y="-7.5" font-family="Helvetica,sans-Serif" font-size="10.00">stddef.h</text>
</a>
</g>
</g>
<!-- Node8&#45;&gt;Node9 -->
<g id="edge11" class="edge">
<title>Node8&#45;&gt;Node9</title>
<path fill="none" stroke="midnightblue" d="M239.16,-56.08C240.08,-48.93 241.42,-38.64 242.58,-29.69"/>
<polygon fill="midnightblue" stroke="midnightblue" points="246.05,-30.12 243.87,-19.75 239.11,-29.22 246.05,-30.12"/>
</g>
</g>
</svg>
