<?xml version="1.0" encoding="UTF-8" standalone="no"?>
<!DOCTYPE svg PUBLIC "-//W3C//DTD SVG 1.1//EN"
 "http://www.w3.org/Graphics/SVG/1.1/DTD/svg11.dtd">
<!-- Generated by graphviz version 2.50.0 (20211204.2007)
 -->
<!-- Title: src/kernel/arch/x86_64/mmu/alloc.h Pages: 1 -->
<svg width="278pt" height="207pt"
 viewBox="0.00 0.00 277.50 207.00" xmlns="http://www.w3.org/2000/svg" xmlns:xlink="http://www.w3.org/1999/xlink">
<g id="graph0" class="graph" transform="scale(1 1) rotate(0) translate(4 203)">
<title>src/kernel/arch/x86_64/mmu/alloc.h</title>
<!-- Node1 -->
<g id="node1" class="node">
<title>Node1</title>
<g id="a_node1"><a xlink:title=" ">
<polygon fill="#bfbfbf" stroke="black" points="137.5,-168.5 137.5,-198.5 237.5,-198.5 237.5,-168.5 137.5,-168.5"/>
<text text-anchor="start" x="145.5" y="-186.5" font-family="Helvetica,sans-Serif" font-size="10.00">src/kernel/arch/x86</text>
<text text-anchor="middle" x="187.5" y="-175.5" font-family="Helvetica,sans-Serif" font-size="10.00">_64/mmu/alloc.h</text>
</a>
</g>
</g>
<!-- Node2 -->
<g id="node2" class="node">
<title>Node2</title>
<g id="a_node2"><a xlink:href="frame_8h.html" target="_top" xlink:title=" ">
<polygon fill="none" stroke="black" points="118.5,-112.5 118.5,-131.5 192.5,-131.5 192.5,-112.5 118.5,-112.5"/>
<text text-anchor="middle" x="155.5" y="-119.5" font-family="Helvetica,sans-Serif" font-size="10.00">mmu/frame.h</text>
</a>
</g>
</g>
<!-- Node1&#45;&gt;Node2 -->
<g id="edge1" class="edge">
<title>Node1&#45;&gt;Node2</title>
<path fill="none" stroke="midnightblue" d="M179.92,-168.4C175.46,-160.11 169.78,-149.55 165.02,-140.71"/>
<polygon fill="midnightblue" stroke="midnightblue" points="167.98,-138.81 160.16,-131.66 161.81,-142.12 167.98,-138.81"/>
</g>
<!-- Node8 -->
<g id="node8" class="node">
<title>Node8</title>
<g id="a_node8"><a xlink:href="types_8h.html" target="_top" xlink:title=" ">
<polygon fill="none" stroke="black" points="201.5,-56.5 201.5,-75.5 269.5,-75.5 269.5,-56.5 201.5,-56.5"/>
<text text-anchor="middle" x="235.5" y="-63.5" font-family="Helvetica,sans-Serif" font-size="10.00">sys/types.h</text>
</a>
</g>
</g>
<!-- Node1&#45;&gt;Node8 -->
<g id="edge13" class="edge">
<title>Node1&#45;&gt;Node8</title>
<path fill="none" stroke="midnightblue" d="M193.39,-168.34C202.11,-147.34 218.48,-107.96 228.04,-84.96"/>
<polygon fill="midnightblue" stroke="midnightblue" points="231.29,-86.25 231.9,-75.67 224.83,-83.56 231.29,-86.25"/>
</g>
<!-- Node3 -->
<g id="node3" class="node">
<title>Node3</title>
<g id="a_node3"><a xlink:href="multiboot_8h.html" target="_top" xlink:title=" ">
<polygon fill="none" stroke="black" points="97.5,-56.5 97.5,-75.5 183.5,-75.5 183.5,-56.5 97.5,-56.5"/>
<text text-anchor="middle" x="140.5" y="-63.5" font-family="Helvetica,sans-Serif" font-size="10.00">core/multiboot.h</text>
</a>
</g>
</g>
<!-- Node2&#45;&gt;Node3 -->
<g id="edge2" class="edge">
<title>Node2&#45;&gt;Node3</title>
<path fill="none" stroke="midnightblue" d="M153.02,-112.08C151.01,-104.85 148.11,-94.41 145.61,-85.4"/>
<polygon fill="midnightblue" stroke="midnightblue" points="148.98,-84.45 142.93,-75.75 142.24,-86.32 148.98,-84.45"/>
</g>
<!-- Node6 -->
<g id="node6" class="node">
<title>Node6</title>
<g id="a_node6"><a xlink:href="bitmap_8h.html" target="_top" xlink:title=" ">
<polygon fill="none" stroke="black" points="0,-56.5 0,-75.5 79,-75.5 79,-56.5 0,-56.5"/>
<text text-anchor="middle" x="39.5" y="-63.5" font-family="Helvetica,sans-Serif" font-size="10.00">mmu/bitmap.h</text>
</a>
</g>
</g>
<!-- Node2&#45;&gt;Node6 -->
<g id="edge5" class="edge">
<title>Node2&#45;&gt;Node6</title>
<path fill="none" stroke="midnightblue" d="M137.12,-112.44C118.28,-103.68 88.77,-89.94 67.12,-79.86"/>
<polygon fill="midnightblue" stroke="midnightblue" points="68.34,-76.56 57.79,-75.52 65.38,-82.91 68.34,-76.56"/>
</g>
<!-- Node2&#45;&gt;Node8 -->
<g id="edge9" class="edge">
<title>Node2&#45;&gt;Node8</title>
<path fill="none" stroke="midnightblue" d="M168.35,-112.32C180.72,-103.98 199.63,-91.21 214.24,-81.35"/>
<polygon fill="midnightblue" stroke="midnightblue" points="216.35,-84.15 222.68,-75.65 212.43,-78.35 216.35,-84.15"/>
</g>
<!-- Node4 -->
<g id="node4" class="node">
<title>Node4</title>
<g id="a_node4"><a xlink:title=" ">
<polygon fill="none" stroke="#bfbfbf" points="74.5,-0.5 74.5,-19.5 130.5,-19.5 130.5,-0.5 74.5,-0.5"/>
<text text-anchor="middle" x="102.5" y="-7.5" font-family="Helvetica,sans-Serif" font-size="10.00">stdbool.h</text>
</a>
</g>
</g>
<!-- Node3&#45;&gt;Node4 -->
<g id="edge3" class="edge">
<title>Node3&#45;&gt;Node4</title>
<path fill="none" stroke="midnightblue" d="M134.23,-56.08C128.86,-48.46 120.98,-37.26 114.42,-27.94"/>
<polygon fill="midnightblue" stroke="midnightblue" points="117.28,-25.91 108.66,-19.75 111.55,-29.94 117.28,-25.91"/>
</g>
<!-- Node5 -->
<g id="node5" class="node">
<title>Node5</title>
<g id="a_node5"><a xlink:title=" ">
<polygon fill="none" stroke="#bfbfbf" points="149,-0.5 149,-19.5 198,-19.5 198,-0.5 149,-0.5"/>
<text text-anchor="middle" x="173.5" y="-7.5" font-family="Helvetica,sans-Serif" font-size="10.00">stdint.h</text>
</a>
</g>
</g>
<!-- Node3&#45;&gt;Node5 -->
<g id="edge4" class="edge">
<title>Node3&#45;&gt;Node5</title>
<path fill="none" stroke="midnightblue" d="M145.95,-56.08C150.51,-48.61 157.17,-37.72 162.79,-28.52"/>
<polygon fill="midnightblue" stroke="midnightblue" points="165.92,-30.11 168.15,-19.75 159.95,-26.46 165.92,-30.11"/>
</g>
<!-- Node6&#45;&gt;Node4 -->
<g id="edge7" class="edge">
<title>Node6&#45;&gt;Node4</title>
<path fill="none" stroke="midnightblue" d="M49.62,-56.32C59.03,-48.26 73.24,-36.08 84.57,-26.37"/>
<polygon fill="midnightblue" stroke="midnightblue" points="86.88,-29 92.19,-19.83 82.32,-23.68 86.88,-29"/>
</g>
<!-- Node6&#45;&gt;Node5 -->
<g id="edge8" class="edge">
<title>Node6&#45;&gt;Node5</title>
<path fill="none" stroke="midnightblue" d="M60.73,-56.44C82.88,-47.52 117.82,-33.44 142.94,-23.32"/>
<polygon fill="midnightblue" stroke="midnightblue" points="144.4,-26.5 152.37,-19.52 141.78,-20.01 144.4,-26.5"/>
</g>
<!-- Node7 -->
<g id="node7" class="node">
<title>Node7</title>
<g id="a_node7"><a xlink:title=" ">
<polygon fill="none" stroke="#bfbfbf" points="8.5,-0.5 8.5,-19.5 56.5,-19.5 56.5,-0.5 8.5,-0.5"/>
<text text-anchor="middle" x="32.5" y="-7.5" font-family="Helvetica,sans-Serif" font-size="10.00">limits.h</text>
</a>
</g>
</g>
<!-- Node6&#45;&gt;Node7 -->
<g id="edge6" class="edge">
<title>Node6&#45;&gt;Node7</title>
<path fill="none" stroke="midnightblue" d="M38.34,-56.08C37.42,-48.93 36.08,-38.64 34.92,-29.69"/>
<polygon fill="midnightblue" stroke="midnightblue" points="38.39,-29.22 33.63,-19.75 31.45,-30.12 38.39,-29.22"/>
</g>
<!-- Node8&#45;&gt;Node4 -->
<g id="edge10" class="edge">
<title>Node8&#45;&gt;Node4</title>
<path fill="none" stroke="midnightblue" d="M214.43,-56.44C192.44,-47.52 157.77,-33.44 132.84,-23.32"/>
<polygon fill="midnightblue" stroke="midnightblue" points="134.06,-20.04 123.48,-19.52 131.42,-26.52 134.06,-20.04"/>
</g>
<!-- Node8&#45;&gt;Node5 -->
<g id="edge12" class="edge">
<title>Node8&#45;&gt;Node5</title>
<path fill="none" stroke="midnightblue" d="M225.54,-56.32C216.37,-48.34 202.56,-36.31 191.47,-26.65"/>
<polygon fill="midnightblue" stroke="midnightblue" points="193.48,-23.76 183.64,-19.83 188.88,-29.04 193.48,-23.76"/>
</g>
<!-- Node9 -->
<g id="node9" class="node">
<title>Node9</title>
<g id="a_node9"><a xlink:title=" ">
<polygon fill="none" stroke="#bfbfbf" points="216.5,-0.5 216.5,-19.5 268.5,-19.5 268.5,-0.5 216.5,-0.5"/>
<text text-anchor="middle" x="242.5" y="-7.5" font-family="Helvetica,sans-Serif" font-size="10.00">stddef.h</text>
</a>
</g>
</g>
<!-- Node8&#45;&gt;Node9 -->
<g id="edge11" class="edge">
<title>Node8&#45;&gt;Node9</title>
<path fill="none" stroke="midnightblue" d="M236.66,-56.08C237.58,-48.93 238.92,-38.64 240.08,-29.69"/>
<polygon fill="midnightblue" stroke="midnightblue" points="243.55,-30.12 241.37,-19.75 236.61,-29.22 243.55,-30.12"/>
</g>
</g>
</svg>
