<?xml version="1.0" encoding="UTF-8" standalone="no"?>
<!DOCTYPE svg PUBLIC "-//W3C//DTD SVG 1.1//EN"
 "http://www.w3.org/Graphics/SVG/1.1/DTD/svg11.dtd">
<!-- Generated by graphviz version 9.0.0 (20230911.1827)
 -->
<!-- Title: src/kernel/arch/x86_64/mmu/alloc.h Pages: 1 -->
<svg width="275pt" height="204pt"
 viewBox="0.00 0.00 274.62 204.25" xmlns="http://www.w3.org/2000/svg" xmlns:xlink="http://www.w3.org/1999/xlink">
<g id="graph0" class="graph" transform="scale(1 1) rotate(0) translate(4 200.25)">
<title>src/kernel/arch/x86_64/mmu/alloc.h</title>
<!-- Node1 -->
<g id="Node000001" class="node">
<title>Node1</title>
<g id="a_Node000001"><a xlink:title=" ">
<polygon fill="#999999" stroke="#666666" points="234.75,-196.25 135.5,-196.25 135.5,-165.75 234.75,-165.75 234.75,-196.25"/>
<text text-anchor="start" x="143.5" y="-182.75" font-family="Helvetica,sans-Serif" font-size="10.00">src/kernel/arch/x86</text>
<text text-anchor="middle" x="185.12" y="-171.5" font-family="Helvetica,sans-Serif" font-size="10.00">_64/mmu/alloc.h</text>
</a>
</g>
</g>
<!-- Node2 -->
<g id="Node000002" class="node">
<title>Node2</title>
<g id="a_Node000002"><a xlink:href="frame_8h.html" target="_top" xlink:title=" ">
<polygon fill="white" stroke="#666666" points="190,-129.75 116.25,-129.75 116.25,-110.5 190,-110.5 190,-129.75"/>
<text text-anchor="middle" x="153.12" y="-116.25" font-family="Helvetica,sans-Serif" font-size="10.00">mmu/frame.h</text>
</a>
</g>
</g>
<!-- Node1&#45;&gt;Node2 -->
<g id="edge1_Node000001_Node000002" class="edge">
<title>Node1&#45;&gt;Node2</title>
<g id="a_edge1_Node000001_Node000002"><a xlink:title=" ">
<path fill="none" stroke="#63b8ff" d="M177.21,-165.45C173.09,-157.86 168,-148.49 163.56,-140.32"/>
<polygon fill="#63b8ff" stroke="#63b8ff" points="166.63,-138.65 158.78,-131.53 160.48,-141.99 166.63,-138.65"/>
</a>
</g>
</g>
<!-- Node8 -->
<g id="Node000008" class="node">
<title>Node8</title>
<g id="a_Node000008"><a xlink:href="types_8h.html" target="_top" xlink:title=" ">
<polygon fill="white" stroke="#666666" points="266.62,-74.5 199.62,-74.5 199.62,-55.25 266.62,-55.25 266.62,-74.5"/>
<text text-anchor="middle" x="233.12" y="-61" font-family="Helvetica,sans-Serif" font-size="10.00">sys/types.h</text>
</a>
</g>
</g>
<!-- Node1&#45;&gt;Node8 -->
<g id="edge13_Node000001_Node000008" class="edge">
<title>Node1&#45;&gt;Node8</title>
<g id="a_edge13_Node000001_Node000008"><a xlink:title=" ">
<path fill="none" stroke="#63b8ff" d="M191.2,-165.55C199.75,-145.22 215.35,-108.13 224.92,-85.37"/>
<polygon fill="#63b8ff" stroke="#63b8ff" points="228.07,-86.92 228.72,-76.34 221.62,-84.2 228.07,-86.92"/>
</a>
</g>
</g>
<!-- Node3 -->
<g id="Node000003" class="node">
<title>Node3</title>
<g id="a_Node000003"><a xlink:href="multiboot_8h.html" target="_top" xlink:title=" ">
<polygon fill="white" stroke="#666666" points="182,-74.5 96.25,-74.5 96.25,-55.25 182,-55.25 182,-74.5"/>
<text text-anchor="middle" x="139.12" y="-61" font-family="Helvetica,sans-Serif" font-size="10.00">core/multiboot.h</text>
</a>
</g>
</g>
<!-- Node2&#45;&gt;Node3 -->
<g id="edge2_Node000002_Node000003" class="edge">
<title>Node2&#45;&gt;Node3</title>
<g id="a_edge2_Node000002_Node000003"><a xlink:title=" ">
<path fill="none" stroke="#63b8ff" d="M150.81,-110.33C149.06,-103.67 146.58,-94.24 144.36,-85.78"/>
<polygon fill="#63b8ff" stroke="#63b8ff" points="147.8,-85.1 141.87,-76.32 141.03,-86.88 147.8,-85.1"/>
</a>
</g>
</g>
<!-- Node6 -->
<g id="Node000006" class="node">
<title>Node6</title>
<g id="a_Node000006"><a xlink:href="bitmap_8h.html" target="_top" xlink:title=" ">
<polygon fill="white" stroke="#666666" points="78.25,-74.5 0,-74.5 0,-55.25 78.25,-55.25 78.25,-74.5"/>
<text text-anchor="middle" x="39.12" y="-61" font-family="Helvetica,sans-Serif" font-size="10.00">mmu/bitmap.h</text>
</a>
</g>
</g>
<!-- Node2&#45;&gt;Node6 -->
<g id="edge5_Node000002_Node000006" class="edge">
<title>Node2&#45;&gt;Node6</title>
<g id="a_edge5_Node000002_Node000006"><a xlink:title=" ">
<path fill="none" stroke="#63b8ff" d="M133.79,-110.09C116.02,-101.79 89.41,-89.36 68.92,-79.79"/>
<polygon fill="#63b8ff" stroke="#63b8ff" points="70.47,-76.65 59.93,-75.59 67.51,-83 70.47,-76.65"/>
</a>
</g>
</g>
<!-- Node2&#45;&gt;Node8 -->
<g id="edge9_Node000002_Node000008" class="edge">
<title>Node2&#45;&gt;Node8</title>
<g id="a_edge9_Node000002_Node000008"><a xlink:title=" ">
<path fill="none" stroke="#63b8ff" d="M166.7,-110.09C178.53,-102.21 195.96,-90.61 210,-81.27"/>
<polygon fill="#63b8ff" stroke="#63b8ff" points="211.84,-84.25 218.23,-75.79 207.96,-78.42 211.84,-84.25"/>
</a>
</g>
</g>
<!-- Node4 -->
<g id="Node000004" class="node">
<title>Node4</title>
<g id="a_Node000004"><a xlink:title=" ">
<polygon fill="#e0e0e0" stroke="#999999" points="130,-19.25 74.25,-19.25 74.25,0 130,0 130,-19.25"/>
<text text-anchor="middle" x="102.12" y="-5.75" font-family="Helvetica,sans-Serif" font-size="10.00">stdbool.h</text>
</a>
</g>
</g>
<!-- Node3&#45;&gt;Node4 -->
<g id="edge3_Node000003_Node000004" class="edge">
<title>Node3&#45;&gt;Node4</title>
<g id="a_edge3_Node000003_Node000004"><a xlink:title=" ">
<path fill="none" stroke="#63b8ff" d="M133.02,-55.08C128.06,-47.96 120.92,-37.68 114.75,-28.8"/>
<polygon fill="#63b8ff" stroke="#63b8ff" points="117.81,-27.07 109.23,-20.85 112.06,-31.06 117.81,-27.07"/>
</a>
</g>
</g>
<!-- Node5 -->
<g id="Node000005" class="node">
<title>Node5</title>
<g id="a_Node000005"><a xlink:title=" ">
<polygon fill="#e0e0e0" stroke="#999999" points="196.25,-19.25 148,-19.25 148,0 196.25,0 196.25,-19.25"/>
<text text-anchor="middle" x="172.12" y="-5.75" font-family="Helvetica,sans-Serif" font-size="10.00">stdint.h</text>
</a>
</g>
</g>
<!-- Node3&#45;&gt;Node5 -->
<g id="edge4_Node000003_Node000005" class="edge">
<title>Node3&#45;&gt;Node5</title>
<g id="a_edge4_Node000003_Node000005"><a xlink:title=" ">
<path fill="none" stroke="#63b8ff" d="M144.57,-55.08C148.9,-48.11 155.09,-38.12 160.51,-29.37"/>
<polygon fill="#63b8ff" stroke="#63b8ff" points="163.47,-31.24 165.76,-20.9 157.52,-27.55 163.47,-31.24"/>
</a>
</g>
</g>
<!-- Node6&#45;&gt;Node4 -->
<g id="edge7_Node000006_Node000004" class="edge">
<title>Node6&#45;&gt;Node4</title>
<g id="a_edge7_Node000006_Node000004"><a xlink:title=" ">
<path fill="none" stroke="#63b8ff" d="M49.81,-54.84C58.83,-47.22 71.96,-36.12 82.81,-26.95"/>
<polygon fill="#63b8ff" stroke="#63b8ff" points="85.06,-29.63 90.44,-20.5 80.54,-24.28 85.06,-29.63"/>
</a>
</g>
</g>
<!-- Node6&#45;&gt;Node5 -->
<g id="edge8_Node000006_Node000005" class="edge">
<title>Node6&#45;&gt;Node5</title>
<g id="a_edge8_Node000006_Node000005"><a xlink:title=" ">
<path fill="none" stroke="#63b8ff" d="M61.69,-54.84C82.9,-46.35 114.9,-33.54 139,-23.89"/>
<polygon fill="#63b8ff" stroke="#63b8ff" points="140.06,-27.23 148.05,-20.27 137.46,-20.73 140.06,-27.23"/>
</a>
</g>
</g>
<!-- Node7 -->
<g id="Node000007" class="node">
<title>Node7</title>
<g id="a_Node000007"><a xlink:title=" ">
<polygon fill="#e0e0e0" stroke="#999999" points="55.88,-19.25 8.38,-19.25 8.38,0 55.88,0 55.88,-19.25"/>
<text text-anchor="middle" x="32.12" y="-5.75" font-family="Helvetica,sans-Serif" font-size="10.00">limits.h</text>
</a>
</g>
</g>
<!-- Node6&#45;&gt;Node7 -->
<g id="edge6_Node000006_Node000007" class="edge">
<title>Node6&#45;&gt;Node7</title>
<g id="a_edge6_Node000006_Node000007"><a xlink:title=" ">
<path fill="none" stroke="#63b8ff" d="M37.97,-55.08C37.1,-48.49 35.88,-39.21 34.78,-30.82"/>
<polygon fill="#63b8ff" stroke="#63b8ff" points="38.28,-30.57 33.5,-21.11 31.34,-31.48 38.28,-30.57"/>
</a>
</g>
</g>
<!-- Node8&#45;&gt;Node4 -->
<g id="edge10_Node000008_Node000004" class="edge">
<title>Node8&#45;&gt;Node4</title>
<g id="a_edge10_Node000008_Node000004"><a xlink:title=" ">
<path fill="none" stroke="#63b8ff" d="M210.9,-54.84C190.11,-46.39 158.78,-33.65 135.07,-24.02"/>
<polygon fill="#63b8ff" stroke="#63b8ff" points="136.44,-20.8 125.86,-20.27 133.8,-27.28 136.44,-20.8"/>
</a>
</g>
</g>
<!-- Node8&#45;&gt;Node5 -->
<g id="edge12_Node000008_Node000005" class="edge">
<title>Node8&#45;&gt;Node5</title>
<g id="a_edge12_Node000008_Node000005"><a xlink:title=" ">
<path fill="none" stroke="#63b8ff" d="M222.78,-54.84C214.05,-47.22 201.34,-36.12 190.83,-26.95"/>
<polygon fill="#63b8ff" stroke="#63b8ff" points="193.3,-24.46 183.46,-20.52 188.69,-29.73 193.3,-24.46"/>
</a>
</g>
</g>
<!-- Node9 -->
<g id="Node000009" class="node">
<title>Node9</title>
<g id="a_Node000009"><a xlink:title=" ">
<polygon fill="#e0e0e0" stroke="#999999" points="265.75,-19.25 214.5,-19.25 214.5,0 265.75,0 265.75,-19.25"/>
<text text-anchor="middle" x="240.12" y="-5.75" font-family="Helvetica,sans-Serif" font-size="10.00">stddef.h</text>
</a>
</g>
</g>
<!-- Node8&#45;&gt;Node9 -->
<g id="edge11_Node000008_Node000009" class="edge">
<title>Node8&#45;&gt;Node9</title>
<g id="a_edge11_Node000008_Node000009"><a xlink:title=" ">
<path fill="none" stroke="#63b8ff" d="M234.28,-55.08C235.15,-48.49 236.37,-39.21 237.47,-30.82"/>
<polygon fill="#63b8ff" stroke="#63b8ff" points="240.91,-31.48 238.75,-21.11 233.97,-30.57 240.91,-31.48"/>
</a>
</g>
</g>
</g>
</svg>
